<svg width="382" height="180" fill="none" xmlns="http://www.w3.org/2000/svg"><path d="M6.798 24.713c.2.042.396.106.582.192.361.134.885.349 1.526.616 1.286.535 3.039 1.326 4.954 2.233l4.903 2.326 1.49.698c.189.072.369.166.536.279a2.854 2.854 0 01-.582-.186c-.367-.14-.885-.35-1.526-.628-1.28-.553-3.021-1.361-4.937-2.268l-4.92-2.326c-.582-.279-1.089-.506-1.49-.692a2.856 2.856 0 01-.536-.244zm22.683 25.974c.104-.18.227-.348.367-.5l1.054-1.309a141.716 141.716 0 003.395-4.372 137.031 137.031 0 003.196-4.524l.943-1.384a2.3 2.3 0 01.373-.494c-.078.19-.173.374-.285.547-.204.342-.501.837-.88 1.436a76.596 76.596 0 01-3.138 4.576 65.174 65.174 0 01-3.493 4.332c-.466.54-.845.97-1.118 1.256a2.8 2.8 0 01-.414.436zm-14.358-2.396c.195-.013.39 0 .582.035l1.543.198c1.304.174 3.098.436 5.072.738 1.973.303 3.773.582 5.065.82l1.526.273c.198.026.393.073.582.14-.195.013-.39 0-.582-.035l-1.543-.198a296.407 296.407 0 01-5.072-.738c-1.973-.303-3.767-.582-5.065-.82l-1.526-.273a2.775 2.775 0 01-.582-.14zm4.897 18.671c.244-.007.488.011.728.052l1.98.244c1.665.215 3.965.535 6.51.901 2.544.367 4.832.71 6.497.971l1.962.326c.243.029.483.08.717.151a3.252 3.252 0 01-.728-.052l-1.98-.244a462.73 462.73 0 01-6.51-.896c-2.538-.366-4.832-.71-6.497-.977l-1.962-.32a4.164 4.164 0 01-.716-.156zm17.974 2.459c.125-.23.274-.446.443-.645l1.275-1.704a219.414 219.414 0 004.128-5.687 254.73 254.73 0 003.93-5.814l1.164-1.785a5.4 5.4 0 01.449-.64 3.802 3.802 0 01-.361.692c-.25.442-.623 1.064-1.1 1.832a121.747 121.747 0 01-8.065 11.524c-.582.71-1.019 1.273-1.339 1.657a4.454 4.454 0 01-.524.57z" fill="#E0E0E0"/><path d="M134.134 118.688l29.694-29.358c0 1.302-.256 60.89-.256 60.89l-29.438-31.532z" fill="#EBEBEB"/><path d="M357.174 99.855H34.134v47.336h323.04V99.855z" fill="#8CBF43"/><path opacity=".5" d="M357.174 99.855H34.134v47.336h323.04V99.855z" fill="#000"/><path d="M79.633 177.912c17.165-1.154 30.143-15.985 28.988-33.127-1.155-17.141-16.006-30.102-33.171-28.949-17.165 1.154-30.144 15.985-28.988 33.127 1.155 17.141 16.006 30.102 33.17 28.949z" fill="#000"/><path d="M46.402 146.348v.081a31.088 31.088 0 008.806 22.128 31.174 31.174 0 0021.895 9.428 31.179 31.179 0 0022.158-8.795 31.09 31.09 0 009.441-21.865v-.082l-62.3-.895z" fill="#000"/><path d="M55.677 146.563a21.818 21.818 0 003.506 12.187 21.862 21.862 0 009.695 8.188 21.889 21.889 0 0023.901-4.384 21.813 21.813 0 005.088-23.731 21.841 21.841 0 00-7.91-9.917 21.892 21.892 0 00-27.649 2.313 21.825 21.825 0 00-6.63 15.344z" fill="#FAFAFA"/><path d="M77.86 125.037a21.89 21.89 0 00-15.552 6.17 21.827 21.827 0 00-6.631 15.344l43.732.628a21.825 21.825 0 00-6.184-15.526 21.887 21.887 0 00-15.365-6.616z" fill="#E0E0E0"/><path d="M64.224 146.685a13.293 13.293 0 002.14 7.423 13.324 13.324 0 0013.593 5.851 13.324 13.324 0 006.873-3.544 13.287 13.287 0 003.093-14.456 13.31 13.31 0 00-4.822-6.04 13.339 13.339 0 00-16.842 1.417 13.295 13.295 0 00-4.035 9.349zm253.328 31.22c17.175-.995 30.29-15.706 29.294-32.857-.996-17.152-15.727-30.249-32.902-29.254-17.174.995-30.29 15.705-29.293 32.857.996 17.151 15.727 30.249 32.901 29.254z" fill="#000"/><path d="M284.597 146.348v.081a31.077 31.077 0 008.807 22.128 31.172 31.172 0 0021.895 9.428 31.177 31.177 0 0022.157-8.795 31.09 31.09 0 009.441-21.865v-.082l-62.3-.895z" fill="#000"/><path d="M293.873 146.563a21.816 21.816 0 003.505 12.187 21.887 21.887 0 0033.597 3.804 21.83 21.83 0 006.148-11.095 21.81 21.81 0 00-1.06-12.636 21.842 21.842 0 00-7.911-9.917 21.892 21.892 0 00-27.648 2.313 21.822 21.822 0 00-6.631 15.344z" fill="#FAFAFA"/><path d="M316.056 125.037a21.89 21.89 0 00-15.553 6.17 21.828 21.828 0 00-6.631 15.344l43.732.628a21.823 21.823 0 00-6.184-15.526 21.886 21.886 0 00-15.364-6.616z" fill="#E0E0E0"/><path d="M302.419 146.685a13.301 13.301 0 008.048 12.408 13.336 13.336 0 0014.558-2.678 13.296 13.296 0 003.093-14.456 13.312 13.312 0 00-4.822-6.04 13.335 13.335 0 00-16.84 1.418 13.302 13.302 0 00-4.037 9.348z" fill="#000"/><path d="M118.373 73.23s-45.87 3.378-62.883 7.186c-11.97 2.698-35.074 7.31-34.795 21.828l1.834 10.402s-8.576 3.914-8.576 13.886-2.09 25.45 17.916 26.066c3.295.105 9.56 0 9.56 0s-3.843-42.545 35.302-43.789c39.813-1.268 37.17 43.4 37.17 43.4h166.19s-6.824-43.511 36.04-43.58c42.865-.07 36.344 43.865 36.344 43.865s15.767 1.36 23.109-11.874c7.342-13.234 5.427-22.677 5.427-22.677l-.245-8.367a5.418 5.418 0 00-5.211-5.233s2.865-21.066-1.531-24.712c-4.396-3.645-28.483-25.636-28.483-25.636l1.164-.721a2.694 2.694 0 00.652-3.983 2.7 2.7 0 00-1.234-.855c-9.147-3.14-27.232-9.35-31.482-10.838a7.91 7.91 0 00-1.974-.413c-2.538-.198-9.723-.651-22.905-.79-16.07-.17-79.849 0-79.849 0s-21.951 1.802-34.178 7.18c-12.85 5.658-57.362 29.655-57.362 29.655z" fill="#8CBF43"/><path opacity=".4" d="M25.586 125.38c-1.665-.337-4.216-.372-5.485.756-.943.837-1.164 2.186-1.333 3.436a14.611 14.611 0 00.116 5.158 6.262 6.262 0 002.911 4.111c1.52.826 3.604.692 4.786-.582 1.083-1.162 1.206-2.907 1.165-4.465-.04-2.245.14-4.146-.274-6.35a3.117 3.117 0 00-.582-1.279 1.74 1.74 0 00-1.328-.796" fill="#000"/><path d="M22.53 112.646c4.868 0 9.59-.267 14.452-.581a1.756 1.756 0 001.606-.55 1.748 1.748 0 00.38-1.654c0-2.605-.106-5.564-2.085-7.262-1.211-1.041-2.87-1.361-4.455-1.512a28.887 28.887 0 00-11.732 1.163l1.834 10.396z" fill="#FAFAFA"/><path d="M123.642 150.877s0-.139-.041-.413c-.041-.273-.047-.692-.082-1.221l-.256-4.692c-.11-2.029-.25-4.53-.541-7.414a58.634 58.634 0 00-1.747-9.669 44.047 44.047 0 00-4.658-10.908 34.324 34.324 0 00-9.06-10.094c-7.86-5.577-18.474-8.722-29.578-8.868-11.103-.145-21.706 3.379-29.362 9.234a43.053 43.053 0 00-9.537 9.71 45.962 45.962 0 00-5.578 10.466 42.417 42.417 0 00-2.358 9.519 39.9 39.9 0 00-.286 7.408c.095 1.561.29 3.115.583 4.651.093.523.169.925.215 1.204.047.279.064.413.064.413s-.035-.14-.093-.407c-.058-.268-.14-.681-.245-1.198a33.791 33.791 0 01-.628-4.652 39.208 39.208 0 01.232-7.437 42.73 42.73 0 012.33-9.57 46.131 46.131 0 015.577-10.554 43.073 43.073 0 019.572-9.792c7.698-5.901 18.341-9.448 29.538-9.303 11.196.146 21.816 3.309 29.735 8.949a34.4 34.4 0 019.1 10.193 44.08 44.08 0 014.658 10.978 58.297 58.297 0 011.677 9.71c.28 2.907.396 5.384.489 7.425.093 2.041.157 3.611.204 4.692 0 .535.035.937.047 1.221.011.285.029.419.029.419z" fill="#fff"/><path d="M125.406 151.604v-.349l-.035-1.035c0-.913-.069-2.262-.128-4.018-.099-3.523-.244-8.687-.431-15.245-.186-6.559-.401-14.537-.652-23.666-.058-2.287-.122-4.644-.192-7.07a23.978 23.978 0 01.163-3.692c.088-.617.175-1.245.262-1.873.088-.628.256-1.244.39-1.872a39.021 39.021 0 016.853-14.536l28.781-18.107 7.767-4.89a61.42 61.42 0 018.227-4.582 83.842 83.842 0 018.949-3.605c1.525-.535 3.092-.977 4.658-1.442a50.655 50.655 0 014.78-1.163 108.669 108.669 0 0118.55-2.326 174.21 174.21 0 0117.957.064h.169l-.035.17c-2.76 12.309-5.357 23.908-7.738 34.55a37.705 37.705 0 00-3.465 7.418 20.16 20.16 0 00-1.164 7.681c.198 2.553.268 5.048.332 7.472.064 2.425.093 4.78.139 7.059.134 9.129.169 17.095.193 23.654.023 6.559 0 11.71 0 15.234 0-3.524-.053-8.675-.088-15.234-.035-6.559-.105-14.537-.256-23.648-.054-2.279-.105-4.632-.151-7.059-.07-2.425-.146-4.913-.35-7.46a20.47 20.47 0 011.165-7.78 37.603 37.603 0 013.493-7.477v.04c2.37-10.64 4.961-22.246 7.703-34.556l.134.18c-5.969-.323-11.95-.34-17.921-.052a109.128 109.128 0 00-18.498 2.326c-1.607.326-3.185.773-4.763 1.163-1.578.39-3.121.901-4.658 1.436a84.467 84.467 0 00-8.902 3.547 61.139 61.139 0 00-8.286 4.623l-7.778 4.884-28.792 18.095h.029a37.091 37.091 0 00-4.216 6.977 37.544 37.544 0 00-2.585 7.396c-1.31 4.984-.646 9.885-.64 14.455.227 9.129.425 17.095.582 23.66.157 6.564.28 11.722.361 15.251.041 1.745.07 3.105.087 4.018v1.384z" fill="#000"/><path d="M231.106 43.18h1.072l3.091-.076 11.465-.226 38.655-.704h.076l.046.052 5.415 6.623 15.464 18.938 1.747 2.157a11.874 11.874 0 012.609 7.356 11.977 11.977 0 01-.938 4.75l-1.746 4.07c-2.254 5.233-4.076 9.42-5.345 12.35a789.521 789.521 0 00-1.468 3.35l-.39.866c-.087.198-.14.291-.14.291s.035-.105.111-.303c.076-.197.21-.5.361-.878.332-.784.804-1.918 1.415-3.372 1.246-2.907 3.039-7.17 5.24-12.385 1.002-2.634 2.766-5.396 2.643-8.768a11.85 11.85 0 00-1.164-4.948 12.123 12.123 0 00-1.421-2.262l-1.746-2.152c-4.763-5.814-9.992-12.21-15.482-18.92l-5.403-6.576.116.052-38.649.581-11.471.14h-4.163v-.006zm-19.51 51.325s.163 0 .46-.07a3.234 3.234 0 001.228-.482 3.149 3.149 0 001.24-1.622c.134-.413.189-.847.163-1.28a3.184 3.184 0 00-.361-1.383 3.09 3.09 0 00-2.684-1.629h-12.92a3.046 3.046 0 00-3.022 2.698 3.372 3.372 0 00.373 2.053 3.068 3.068 0 001.485 1.326c.623.21 1.283.29 1.939.232h5.327l4.955.047h1.345c.158-.003.316.007.472.029a2.298 2.298 0 01-.472 0l-1.345.029-4.955.046h-6.335a3.326 3.326 0 01-2.672-1.674 3.712 3.712 0 01-.413-2.227 3.35 3.35 0 013.318-2.971h12.926a3.31 3.31 0 012.865 1.779c.234.46.359.967.367 1.483.018.453-.047.907-.193 1.337a3.219 3.219 0 01-1.339 1.663 3.17 3.17 0 01-1.281.448 1.809 1.809 0 01-.471.168z" fill="#000"/><path d="M297.727 94.505s.163 0 .46-.07a3.234 3.234 0 001.228-.482 3.154 3.154 0 001.24-1.622c.134-.413.189-.847.163-1.28a3.198 3.198 0 00-.361-1.383 3.09 3.09 0 00-2.684-1.629h-12.92a3.044 3.044 0 00-3.022 2.698 3.372 3.372 0 00.373 2.053 3.068 3.068 0 001.485 1.326c.623.21 1.283.29 1.939.232h5.327l4.955.047h1.345c.158-.003.315.007.472.029a2.298 2.298 0 01-.472 0l-1.345.029-4.955.046h-6.335a3.327 3.327 0 01-2.672-1.675 3.72 3.72 0 01-.414-2.226 3.345 3.345 0 013.319-2.971h12.926a3.316 3.316 0 012.865 1.779c.234.46.359.967.366 1.483.019.453-.046.907-.192 1.337a3.181 3.181 0 01-2.62 2.11 1.809 1.809 0 01-.471.17z" fill="#000"/><path d="M373.256 80.469h-17.235a6.36 6.36 0 00-5.624 3.395 6.353 6.353 0 00-.192 5.518l6.759 15.328 17.252-.169s3.674-19.432-.96-24.072z" fill="#FAFAFA"/><path d="M133.901 78.3l88.926-1.634 57.875-1.064L299.788 64.6a2.965 2.965 0 00.879-4.355l-11.883-15.59a6.6 6.6 0 00-5.205-2.598l-64.734-.53s-24.373-1.412-43.575 9.304C155.054 62.182 133.901 78.3 133.901 78.3z" fill="#000"/><path d="M174.657 43.14s4.455 2.029 1.555 3.913c-2.9 1.883-47.953 30.235-47.953 30.235l-10.359-4.64c18.347-10.24 36.874-20.153 56.757-29.509z" fill="#2B3A8C"/><path d="M129.714 78.01s-.093.028-.279.069l-.821.174-3.162.657c-2.748.547-6.73 1.309-11.645 2.158a479.063 479.063 0 01-38.83 4.994c-3.813.332-7.534.582-11.132.838-3.598.255-7.068.453-10.364.755-6.597.582-12.5 1.53-17.298 2.96a48.906 48.906 0 00-10.906 4.541c-1.24.651-2.12 1.291-2.748 1.675l-.71.453-.245.146c.072-.063.148-.12.227-.175l.693-.47a32.167 32.167 0 012.725-1.745 47.78 47.78 0 0110.905-4.652c4.804-1.453 10.731-2.436 17.328-3.029 3.301-.308 6.777-.535 10.37-.773 3.592-.239 7.319-.512 11.126-.843 15.232-1.315 28.944-3.262 38.824-4.902a601.9 601.9 0 0011.686-2.064l3.167-.582.827-.151c.163-.029.262-.035.262-.035zm250.43 39.765c0 .081-5.928.151-13.235.151-7.307 0-13.24-.07-13.24-.151 0-.081 5.927-.151 13.24-.151 7.313 0 13.235.07 13.235.151zm-108.432 15.106c0 .081-33.456.151-74.719.151-41.264 0-74.725-.07-74.725-.151 0-.081 33.449-.151 74.725-.151 41.275 0 74.719.064 74.719.151zM37.453 118.275c0 .081-4.734.151-10.568.151s-10.562-.07-10.562-.151c0-.081 4.728-.151 10.562-.151s10.568.07 10.568.151z" fill="#000"/><path d="M345.064 53.39s-3.971 4.443-2.411 7.699c1.561 3.256 17.695 14.658 17.695 14.658l11.709 2.198-26.993-24.555zm-111.326-7.942l-2.632 28.392 47.116-1.343 18.986-11.019-12.291-16.03h-51.179zm-88.67 29.846s28.425-20.502 39.639-24.572c10.824-3.937 16.466-4.92 26.632-5.233 9.718-.274 15.639 0 15.639 0l-7.522 28.904-74.388.9z" fill="#2B3A8C"/><path d="M140.899 75.387a4.975 4.975 0 012.539-4.332l6.533-3.663a12.473 12.473 0 019.974-.977 7.066 7.066 0 014.757 6.49v-.001a7.192 7.192 0 01-.465 2.834 7.197 7.197 0 01-3.908 4.054 7.199 7.199 0 01-2.818.572h-11.645a4.972 4.972 0 01-4.967-4.977z" fill="#8CBF43"/><path d="M140.899 75.387s0 .22.076.634a4.98 4.98 0 00.582 1.703 5.114 5.114 0 002.003 1.966 4.935 4.935 0 001.677.529c.617.07 1.304 0 2.009.035l9.962-.03a7.584 7.584 0 002.772-.453 7.12 7.12 0 004.128-4.07 7.209 7.209 0 00.43-3.076 7.026 7.026 0 00-2.94-5.233 7.487 7.487 0 00-2.696-1.134 12.07 12.07 0 00-2.818-.331 12.24 12.24 0 00-5.112 1.093c-.751.331-1.438.756-2.119 1.122l-1.945 1.082-3.348 1.854a4.904 4.904 0 00-1.985 1.977 5.03 5.03 0 00-.582 1.704c-.059.413-.053.628-.07.628a3.051 3.051 0 010-.634c.064-.61.245-1.203.535-1.744a5.042 5.042 0 012.021-2.064l3.324-1.89 1.933-1.1c.676-.371 1.363-.802 2.131-1.162a12.528 12.528 0 015.241-1.163 12.3 12.3 0 012.911.332 7.88 7.88 0 012.806 1.162 7.355 7.355 0 013.069 5.425 7.483 7.483 0 01-.454 3.21 7.351 7.351 0 01-4.309 4.245 7.704 7.704 0 01-2.871.465l-9.962-.035a19.271 19.271 0 01-2.032-.058 5.034 5.034 0 01-1.746-.582 5.233 5.233 0 01-2.027-2.064 4.863 4.863 0 01-.53-1.744 3.883 3.883 0 01-.064-.6z" fill="#000"/><path d="M359.916 151.145v-.407c0-.268.041-.669.076-1.163.035-.495.093-1.163.128-1.919s.058-1.634.093-2.623c.035-.988 0-2.081 0-3.285 0-1.203-.087-2.506-.25-3.895a50.416 50.416 0 00-1.706-9.385 41.538 41.538 0 00-1.852-5.204 34.666 34.666 0 00-2.812-5.286 36.042 36.042 0 00-9.107-9.489 43.063 43.063 0 00-13.053-6.425c-4.856-1.489-10.143-2.029-15.523-2.064a50.89 50.89 0 00-15.488 2.25 43.122 43.122 0 00-6.882 2.855 39.456 39.456 0 00-5.985 3.902 49.928 49.928 0 00-9.223 9.442 37.713 37.713 0 00-3.063 5.14 50.507 50.507 0 00-2.107 5.111 60.732 60.732 0 00-3.36 16.316c-.093 1.971-.087 3.489-.035 4.541.029.512.053.907.07 1.163.018.256 0 .407 0 .407s0-.139-.046-.401c-.047-.262-.053-.669-.099-1.163a44.899 44.899 0 010-4.553 59.788 59.788 0 013.278-16.379 50.617 50.617 0 012.113-5.14 36.51 36.51 0 013.069-5.187 50.094 50.094 0 019.251-9.518 40.249 40.249 0 016.027-3.943 43.503 43.503 0 016.934-2.866 51.134 51.134 0 0115.581-2.268c5.403.035 10.713.582 15.61 2.082a43.168 43.168 0 0113.135 6.489 39.45 39.45 0 015.147 4.506 31.315 31.315 0 014 5.07 34.375 34.375 0 012.813 5.326 41.958 41.958 0 011.851 5.234 50.064 50.064 0 011.642 9.396c.157 1.401.157 2.709.227 3.913.07 1.204 0 2.326 0 3.291 0 .965-.081 1.861-.116 2.622-.035.762-.117 1.402-.158 1.919-.04.518-.087.901-.11 1.163-.023.262-.07.425-.07.425zM218.21 78.3h-.529l-1.514.03-5.59.104c-4.71.087-11.225.261-18.422.453-7.197.192-13.712.338-18.428.373h-7.633.53l1.513-.035 5.584-.1c4.716-.087 11.232-.26 18.428-.459 7.197-.197 13.712-.331 18.428-.366h7.499c.094-.012.134-.006.134 0zm-7.721 8.745c-1.696.15-3.399.2-5.1.151a43.706 43.706 0 01-5.101-.15 42.203 42.203 0 015.101-.152 42.192 42.192 0 015.1.151zm1.875-31.12c.029.082-6.3 2.716-14.143 5.885-7.843 3.169-14.224 5.675-14.259 5.6-.035-.076 6.3-2.71 14.149-5.885 7.848-3.175 14.224-5.675 14.253-5.6zm-12.832 1.989c.035.076-5.997 2.727-13.462 5.925-7.464 3.198-13.554 5.722-13.589 5.646-.035-.076 5.997-2.733 13.467-5.925 7.47-3.192 13.555-5.721 13.584-5.646zm81.374-3.087c.035.081-6.3 2.71-14.143 5.884-7.843 3.175-14.224 5.675-14.253 5.6-.029-.076 6.3-2.71 14.143-5.885 7.842-3.175 14.224-5.675 14.253-5.6zm-12.828 1.988c.03.076-5.997 2.727-13.467 5.925-7.47 3.198-13.554 5.722-13.589 5.646-.035-.075 5.997-2.733 13.467-5.925 7.47-3.192 13.555-5.721 13.589-5.646zm14.068 21.479c0 .087-12.594.227-28.128.32s-28.128.099-28.128 0 12.588-.227 28.128-.32c15.54-.093 28.128-.081 28.128 0zm13.944 8.262c0 .088-3.528.187-7.889.227-4.361.041-7.889 0-7.889-.081s3.528-.18 7.889-.221c4.361-.04 7.889-.006 7.889.076zM54.954 82.26a1.284 1.284 0 01-.343.064l-.984.127c-.431.053-.955.117-1.56.216-.606.099-1.299.186-2.056.337-1.52.261-3.313.663-5.287 1.163-1.973.5-4.075 1.227-6.294 2.076a66.378 66.378 0 00-6.032 2.756c-1.805.953-3.394 1.878-4.658 2.715-.658.401-1.228.808-1.746 1.163-.519.355-.944.645-1.293.901l-.81.582a1.2 1.2 0 01-.296.18 1.6 1.6 0 01.262-.233l.774-.616a30.7 30.7 0 011.264-.948c.506-.366 1.065-.773 1.717-1.163a58.379 58.379 0 014.658-2.785 57.428 57.428 0 0112.39-4.85c1.98-.51 3.79-.889 5.322-1.127.763-.14 1.456-.215 2.067-.297a31.785 31.785 0 011.572-.162l.99-.07c.112-.026.228-.036.343-.03zm103.972-13.717a7.507 7.507 0 00-.583-.54 3.826 3.826 0 00-1.921-.78 8.398 8.398 0 00-3.103.337 23.898 23.898 0 00-9.631 4.948c-1.385 1.163-2.119 2.018-2.16 1.977.14-.224.304-.433.489-.622a19.87 19.87 0 011.532-1.517 22.2 22.2 0 015.979-3.82 22.856 22.856 0 013.721-1.239 8.257 8.257 0 013.202-.273c.729.1 1.413.412 1.968.895.147.133.278.284.39.448.099.116.128.18.117.186z" fill="#fff"/><path d="M346.385 53.187a9.548 9.548 0 01-2.481.25 14.798 14.798 0 01-2.911-.36 25.472 25.472 0 01-3.703-1.164c-1.345-.505-2.783-1.162-4.332-1.808l-2.416-.977c-.833-.331-1.706-.616-2.597-.936a99.965 99.965 0 00-11.866-3.233 136.618 136.618 0 00-22.178-2.756c-1.432-.076-2.725-.081-3.86-.11h-2.911l-1.84.04h-.646a.766.766 0 01.163 0h.477l1.846-.099 2.911-.052c1.164 0 2.434 0 3.866.064a129.85 129.85 0 0122.236 2.675c4.029.84 8.001 1.93 11.895 3.262.891.331 1.747.622 2.603.96l2.416.988c1.549.674 2.975 1.325 4.309 1.843a27.43 27.43 0 003.662 1.163c.944.223 1.907.359 2.876.407.613.023 1.226 0 1.834-.07l.478-.058a.501.501 0 01.169-.03z" fill="#000"/><path d="M66.25 53.983c-2.329-12.722-3.89-14.675-5.211-19.054-1.322-4.378-3.406-7.222-6.009-8.222-1.747-.674-10.515-3.832-13.572-2.785a38.05 38.05 0 00-8.46 4.245 11.311 11.311 0 00-4.413 5.634l-4.658 13.123 8.186 8.17 4.11-8.722 4.46 10.437-.657 10.554 25.583 6.873c2.312-3.716 1.963-13.03.641-20.253z" fill="#1C75BB"/><path opacity=".2" d="M59.589 40.087c-1.13 6.622-1.31 7.559-2.44 14.158-.39 2.274-1.52 5.815-3.144 7.46-1.2 1.215-2.375 2.39-4.04 2.785-1.555.367-3.907.407-5.369-.238-1.461-.645-2.701-3.489-2.102-4.942 2.172.459 2.842 1.162 4.71 0 1.637-1.035 3.948-3.326 4.833-5.042 3.738-7.215 4.763-7.471 7.57-14.181" fill="#000"/><path d="M41.074 52.937c-.412-.558-.79-1.14-1.13-1.745l-2.631-4.297c-1.037-1.622-1.968-3.093-2.702-4.25a15.858 15.858 0 01-1.088-1.785c.143.123.267.269.366.43.221.285.53.71.897 1.239a83.78 83.78 0 012.783 4.21 107.077 107.077 0 012.562 4.343c.314.581.582 1.03.722 1.349.14.32.244.494.221.506zm17.851 11.879c-.184.1-.38.175-.582.227a6.14 6.14 0 01-.728.203c-.285.064-.611.151-.978.204-.854.146-1.718.224-2.585.232a16.702 16.702 0 01-8.57-2.297 9.654 9.654 0 01-.84-.535 6.822 6.822 0 01-.581-.441c-.32-.262-.495-.407-.478-.425.018-.017.751.518 2.032 1.215.751.407 1.53.76 2.33 1.059.983.355 1.993.631 3.021.825a18.9 18.9 0 003.12.291c.856.006 1.71-.049 2.557-.163 1.392-.174 2.253-.448 2.282-.395z" fill="#000"/><path d="M48.66 44.994c-.04.233-2.794 5.698-2.794 5.698l-12.973-6.826-1.322-5.582a3.498 3.498 0 00-4.204-2.576l-3.825 1.564a1.024 1.024 0 00-.628.739c-.053.285 0 .581.506.517.95-.07 2.911-.285 2.911-.285l-.902 3.181a3.374 3.374 0 00.256 2.495l.582 1.104 1.275 2.041S40.148 59.996 47.228 60.84c4.256.506 9.077-11.408 9.077-11.408l-7.645-4.437z" fill="#FFBE9D"/><path d="M26.238 38.459s.1-.134.315-.28c.29-.197.633-.302.984-.302a1.037 1.037 0 01.867.582c.122.261.041.442 0 .43-.04-.012 0-.169-.14-.366a.99.99 0 00-.762-.43 1.91 1.91 0 00-.903.226c-.204.087-.343.163-.36.14zm1.636 1.982s-.088-.104-.21-.255a1.474 1.474 0 00-.582-.448 1.534 1.534 0 00-.745-.087c-.198.029-.315.075-.332.046-.018-.029.093-.11.303-.174a1.28 1.28 0 011.485.587c.092.192.104.326.08.331z" fill="#EB996E"/><path d="M51.327 27.742l-3.493 16.624 9.316 5.605 3.575-10.216s-1.479-12.42-9.398-12.013z" fill="#1C75BB"/><path d="M56.37 28.039a1.08 1.08 0 01-.233.145l-.71.372c-.617.32-1.52.756-2.661 1.262a39.009 39.009 0 01-9.252 2.907 23.112 23.112 0 01-9.654-.32 16.538 16.538 0 01-2.777-.994 6.722 6.722 0 01-.716-.36c-.134-.081-.239-.14-.233-.151.339.116.671.25.996.4.903.371 1.833.67 2.783.896 3.142.721 6.398.802 9.572.239a42.427 42.427 0 009.2-2.815c1.164-.476 2.055-.883 2.69-1.162a6.85 6.85 0 01.995-.42z" fill="#EBEBEB"/><path d="M58.82 29.87s-.081.076-.256.192c-.175.117-.466.297-.774.495a14.29 14.29 0 01-1.258.726c-.5.268-1.06.582-1.712.873l-1.019.47c-.355.158-.74.291-1.13.448-.774.326-1.63.582-2.532.878a35.1 35.1 0 01-12.14 1.437c-.943-.076-1.84-.128-2.667-.268-.419-.058-.82-.099-1.205-.174l-1.094-.216c-.705-.122-1.328-.308-1.875-.447a14.362 14.362 0 01-1.374-.419l-.868-.297a1.084 1.084 0 01-.291-.127c.107.015.212.038.314.07l.88.244c.378.116.85.244 1.397.366s1.164.29 1.875.401l1.094.198c.379.064.78.099 1.165.157.827.122 1.747.163 2.65.232a36.617 36.617 0 0012.052-1.424c.89-.285 1.746-.535 2.52-.843.39-.151.77-.28 1.124-.436l1.02-.442c.657-.268 1.222-.582 1.746-.826s.932-.483 1.275-.686l.798-.442c.09-.056.186-.102.285-.14z" fill="#EBEBEB"/><path d="M57.15 49.972a4.506 4.506 0 01-.758-.384l-2.05-1.163-6.986-4.03-.087-.052v-.099c.25-1.244.518-2.576.797-3.954a393.44 393.44 0 001.165-5.814c.192-.896.35-1.745.524-2.547a9.09 9.09 0 01.75-2.163 4.33 4.33 0 012.405-2.198c.288-.096.588-.147.891-.151.104-.004.208.008.309.035a3.846 3.846 0 00-3.418 2.413A9.41 9.41 0 0050 31.98c-.151.803-.32 1.652-.495 2.547-.36 1.797-.756 3.768-1.164 5.815-.28 1.372-.582 2.703-.804 3.948l-.07-.157a1971.01 1971.01 0 006.947 4.122l2.008 1.227c.255.144.498.308.728.489zm2.854-10.722a6.72 6.72 0 01-.047 1.546 23.993 23.993 0 01-1.904 7.222 6.51 6.51 0 01-.722 1.366c.135-.496.31-.98.524-1.448a34.801 34.801 0 001.887-7.163 9.977 9.977 0 01.262-1.524z" fill="#000"/><path d="M9.488 131.712l-.082 8.879S.341 143.464.16 145.103l17.205.809.728-13.827-8.605-.373z" fill="#2B3A8C"/><path d="M14.745 140.097a.704.704 0 01.449.826.676.676 0 01-.816.447.727.727 0 01-.465-.872.702.702 0 01.896-.378m2.556 5.792v-1.396l-16.524-.261s-.786.296-.722.837l17.246.82z" fill="#E0E0E0"/><path d="M9.109 140.486c0 .088.42.146.82.437.403.29.583.651.682.622.099-.029 0-.524-.512-.867-.513-.343-1.008-.267-.99-.192zm-1.839.664c0 .081.331.238.582.61.25.372.332.75.419.75.087 0 .157-.477-.186-.924-.344-.448-.81-.518-.815-.436zm-1.13 2.11c.075 0 .209-.395 0-.861-.21-.465-.583-.674-.618-.581-.035.093.192.326.344.715.151.39.186.715.273.727zm3.22-4.791c0 .076.418 0 .896.035.477.035.838.221.885.151.046-.07-.297-.384-.856-.442-.559-.058-.966.186-.926.256z" fill="#000"/><path opacity=".3" d="M9.47 133.468l-.024 1.582 8.472.325.081-1.418-8.53-.489z" fill="#000"/><path d="M9.406 136.678c.279.092.577.104.862.035a3.7 3.7 0 00.914-.233 4.4 4.4 0 00.512-.238c.1-.049.19-.114.268-.192a.354.354 0 00.059-.442.437.437 0 00-.356-.209.92.92 0 00-.326.029 2.604 2.604 0 00-.547.157 3.014 3.014 0 00-.821.482c-.42.349-.582.658-.541.675.04.017.244-.221.663-.512.248-.163.513-.295.792-.395.164-.056.33-.098.5-.128.187-.041.344-.035.385.052.04.088 0 .041 0 .093a.841.841 0 01-.198.14 5.063 5.063 0 01-.466.238 4.893 4.893 0 01-.85.279 5.998 5.998 0 00-.85.169z" fill="#000"/><path d="M9.517 136.806a1.4 1.4 0 00.267-.826 2.897 2.897 0 00-.075-.947 3.427 3.427 0 00-.192-.535.722.722 0 00-.53-.46.404.404 0 00-.373.221 1.11 1.11 0 00-.105.314 1.979 1.979 0 00.297 1.489c.315.459.664.581.67.552.006-.029-.256-.221-.49-.663a1.965 1.965 0 01-.238-.82 2.03 2.03 0 01.04-.494c.036-.186.111-.331.181-.308a.61.61 0 01.286.297 2.908 2.908 0 01.32 1.349c0 .505-.105.814-.058.831zm35.08-69.35S17.69 56.187 9.359 55.704c-5.24-.302-9.176 3.053-8.465 8.45.355 2.697 7.79 34.305 7.79 34.305l11.342-5.17-5.444-21.856L36.707 82.16l7.89-14.705z" fill="#000"/><path d="M11.182 65.903c-.088.076.809 1.227 1.746 2.745.938 1.517 1.572 2.826 1.677 2.78.105-.047-.378-1.443-1.339-2.99-.96-1.546-2.009-2.604-2.084-2.535z" fill="#2B3A8C"/><path d="M8.981 67.16c-.058.098 1.299.959 2.912 2.133 1.612 1.175 2.823 2.204 2.91 2.122.088-.08-1.047-1.255-2.666-2.442-1.619-1.186-3.11-1.901-3.156-1.814z" fill="#2B3A8C"/><path d="M65.592 74.236s-3.389 4.355-6.615 5.547C54.902 81.277 24.94 95.406 24.94 95.406s-5.438 40.342-5.007 38.661l-12.547-.302 1.362-37.16c.17-4.763 3.983-10.223 8.088-12.653l27.76-16.496 20.997 6.78z" fill="#000"/><path d="M8.51 103.401c.039-.165.057-.335.052-.506 0-.377.046-.86.075-1.465a50.13 50.13 0 01.501-5.338 18.389 18.389 0 012.708-7.367A13.963 13.963 0 0115.07 85.4c1.35-.99 2.764-1.89 4.233-2.693 6.038-3.453 11.255-6.977 15.104-9.39a438.788 438.788 0 014.564-2.86l1.252-.768c.149-.081.29-.177.42-.285a2.213 2.213 0 00-.46.215c-.297.157-.734.39-1.287.71-1.112.621-2.696 1.558-4.658 2.75-3.895 2.325-9.136 5.814-15.139 9.303a37.048 37.048 0 00-4.297 2.727 14.24 14.24 0 00-3.295 3.43 18.365 18.365 0 00-2.684 7.524 41.81 41.81 0 00-.373 5.385v1.436c.005.174.024.347.058.517zm46.008-24.909c-.236-.36-.493-.705-.769-1.035a7.466 7.466 0 01-1.164-5.815c.13-.409.23-.827.303-1.25a2.748 2.748 0 00-.582 1.163 6.672 6.672 0 001.222 6.041c.253.375.592.682.99.896z" fill="#2B3A8C"/><path d="M11.997 133.765a.992.992 0 00.035-.209c0-.157.046-.361.075-.582.065-.581.146-1.355.25-2.326.21-2.075.496-5.018.857-8.646.174-1.831.36-3.832.582-5.977.221-2.146.425-4.443.582-6.856.158-2.413.414-4.948.856-7.559a30.859 30.859 0 012.33-7.756 25.95 25.95 0 014.523-6.67 41 41 0 015.683-5c3.51-2.48 7.157-4.763 10.923-6.838 3.185-1.826 5.723-3.384 7.412-4.559a42.504 42.504 0 001.915-1.383l.483-.384c.11-.085.162-.132.158-.14a.98.98 0 00-.18.11l-.507.35c-.443.308-1.1.761-1.957 1.32-1.712 1.133-4.262 2.645-7.464 4.442a111.639 111.639 0 00-10.999 6.756 40.921 40.921 0 00-5.746 5.03 26.315 26.315 0 00-4.658 6.768 31.21 31.21 0 00-2.33 7.861c-.442 2.611-.663 5.158-.844 7.559-.18 2.402-.36 4.716-.553 6.862-.192 2.145-.36 4.145-.518 5.971-.303 3.634-.582 6.582-.728 8.658-.075 1-.133 1.791-.174 2.355 0 .25 0 .453-.041.616 0 .077.011.154.035.227z" fill="#2B3A8C"/><path d="M41.54 3.455A4.903 4.903 0 0035.933.443a6.091 6.091 0 01-1.56.337c-.646-.113-1.28-.28-1.898-.5a2.85 2.85 0 00-3.214 2.076 3.877 3.877 0 00-3.197.634 2.517 2.517 0 00-.751 3.012c.227.424.582.761.81 1.198.343.715.186 1.575.424 2.325a3.152 3.152 0 002.714 1.948 9.258 9.258 0 003.493-.5" fill="#000"/><path d="M36.142 26.457a127.323 127.323 0 01-.244-1.913s-3.756 0-5.24-4.651c-.751-2.326-1.252-6.21-1.555-9.414a5.087 5.087 0 012.791-5.058 5.106 5.106 0 011.966-.53l9.968-.523.215 1.547L46.67 25.05a5.301 5.301 0 01-2.603 5.32 5.321 5.321 0 01-1.973.67 5.322 5.322 0 01-3.925-1.062 5.307 5.307 0 01-2.026-3.52z" fill="#FFBE9D"/><path d="M30.483 13.206a.622.622 0 00.687.523.583.583 0 00.547-.65.622.622 0 00-.687-.524.581.581 0 00-.547.651zm-.245-.861c.088.07.495-.349 1.165-.447.67-.1 1.164.145 1.252.052.087-.093-.07-.169-.303-.29-.317-.15-.672-.2-1.019-.146a1.655 1.655 0 00-.902.46c-.193.203-.24.342-.193.371zm6.499-.168a.623.623 0 00.693.523.582.582 0 00.541-.651.622.622 0 00-.687-.523.583.583 0 00-.547.65zm-.012-.733c.087.064.5-.349 1.164-.453.664-.105 1.165.15 1.252.058.087-.093-.076-.175-.309-.29a1.66 1.66 0 00-1.019-.146 1.613 1.613 0 00-.902.46c-.18.185-.227.342-.186.371zm-1.614 5.251a4.414 4.414 0 00-1.1 0c-.169 0-.332 0-.379-.11a.883.883 0 010-.512l.297-1.361c.29-1.145.486-2.312.583-3.489a22.784 22.784 0 00-.868 3.489c-.093.477-.18.93-.268 1.36a.964.964 0 000 .675.425.425 0 00.315.198.96.96 0 00.29 0 4.16 4.16 0 001.13-.25z" fill="#000"/><path d="M35.898 24.544a12.287 12.287 0 006.113-2.715s-1.03 3.518-5.875 3.826l-.239-1.11z" fill="#EB996E"/><path d="M37.12 16.829c-.104 0 0 .726-.524 1.331s-1.304.646-1.292.744c.011.1.192.11.512.07a1.811 1.811 0 001.083-.581c.272-.303.414-.7.396-1.105-.017-.297-.128-.46-.175-.46zm-.978-7.937c.1.168.74 0 1.526-.047.786-.046 1.444.082 1.525-.099 0-.081-.104-.232-.384-.366a2.495 2.495 0 00-1.164-.21 2.558 2.558 0 00-1.165.32c-.256.163-.378.326-.337.402zm-5.967 1.541c.14.133.582-.094 1.112-.187.53-.093 1.024-.058 1.106-.232.035-.081-.064-.221-.285-.332a1.644 1.644 0 00-1.788.344c-.169.15-.204.313-.145.407z" fill="#000"/><path d="M28.58 8.374s2.637.884 5.664-1.134c1.992-1.325 4.396-2.157 4.996-1.802.6.355.996 2.53 3.18 2.907 0 0 .383 4.187 2.025 3.826 1.165-.256.49-4.873 0-7.507a2.29 2.29 0 00-2.172-1.872L39.2 2.676 35.37 3.74l-4.111 1.122L28.13 6.16l.448 2.215z" fill="#000"/><path d="M44.078 10.473c.064-.046 2.603-1.384 3.074 1.39.472 2.773-2.41 2.675-2.428 2.593-.017-.081-.646-3.983-.646-3.983z" fill="#FFBE9D"/><path d="M45.394 13.264s.052 0 .14.047a.466.466 0 00.36-.053 1.203 1.203 0 00.373-1.163 1.586 1.586 0 00-.25-.668.582.582 0 00-.431-.314.257.257 0 00-.262.186v.14c0 .005-.064-.036-.064-.152a.32.32 0 01.081-.192.355.355 0 01.256-.116.677.677 0 01.583.343c.162.219.266.475.303.744a1.266 1.266 0 01-.507 1.314.53.53 0 01-.454 0c-.117-.04-.14-.11-.128-.116z" fill="#EB996E"/><path d="M29.912 1.344s.093.146.291.373c.288.31.65.543 1.054.674.597.192 1.234.22 1.846.081a15.935 15.935 0 002.241-.715 6.145 6.145 0 012.382-.424 2.604 2.604 0 011.805.814c.334.322.54.753.582 1.215a.813.813 0 01-.081.483s0-.175-.035-.471a1.942 1.942 0 00-.583-1.076 2.482 2.482 0 00-1.67-.686c-.777 0-1.545.148-2.266.436a15.22 15.22 0 01-2.288.698 3.533 3.533 0 01-1.974-.157 2.33 2.33 0 01-1.071-.803.866.866 0 01-.233-.442z" fill="#2B3A8C"/><path d="M39.292 4.002s-.14-.152-.43-.35a2.553 2.553 0 00-1.398-.412 4.529 4.529 0 00-2.12.517c-.816.44-1.66.83-2.526 1.163a6.308 6.308 0 01-4.972-.546 5.465 5.465 0 01-1.23-.919 1.745 1.745 0 01-.348-.442c.52.449 1.081.848 1.676 1.192a6.354 6.354 0 004.78.442c.856-.343 1.691-.73 2.504-1.163a4.552 4.552 0 012.248-.477c.53.021 1.039.208 1.455.535.163.115.288.275.361.46z" fill="#2B3A8C"/><path d="M30.67 51.25L17.15 39.739l-4.46 1.006s4.698 9.757 8.098 13.333c0 0 3.36 4.494 8.903 2.552 5.543-1.942.978-5.378.978-5.378z" fill="#FFBE9D"/><path d="M16.131 27.068h-5.747a1.457 1.457 0 00-1.333 1.826l5.776 11.245a1.315 1.315 0 001.164.71h6.987a.996.996 0 00.763-1.477l-5.572-11.007a2.286 2.286 0 00-2.038-1.297z" fill="#2B3A8C"/><path d="M15.741 27.742H9.988a.968.968 0 00-.965.926.964.964 0 00.104.476l5.642 10.995a1.315 1.315 0 001.164.71h6.929a.583.583 0 00.518-.82l-5.584-10.99a2.292 2.292 0 00-2.055-1.297z" fill="#000"/><path d="M15.228 32.347l-3.493 1.396-.752 2.814 1.683 4.187 6.183.901-1.81-1.849.233-1.605s1.746-.54 1.746-.808-.215-1.163-.477-1.163c-.707.154-1.4.364-2.073.628 0 0 2.143-1.692 2.079-1.965-.064-.274-.286-.966-.716-1.041-.431-.076-3.878 1.547-3.878 1.547l-.582 1.279-.49-2.041s3.127-.884 2.347-2.28z" fill="#FFBE9D"/><path d="M15.693 38.924s-.087-.122-.122-.35a1.882 1.882 0 01.582-1.616c.175-.15.309-.209.32-.191a4.26 4.26 0 00-.646.988 3.88 3.88 0 00-.134 1.169zm-1.663-.582c.066-.3.113-.605.139-.913.018-.344.076-.686.175-1.017.07-.2.181-.385.326-.54.165-.161.364-.283.582-.355a48.27 48.27 0 012.137-.727c.294-.112.598-.196.908-.25a5.052 5.052 0 01-.862.366c-.541.21-1.298.477-2.119.773-.19.07-.364.177-.512.314-.128.138-.227.3-.291.477-.104.315-.173.64-.204.971-.015.32-.11.63-.28.901zm-.804-.639a1.445 1.445 0 010-.686c.064-.373.151-.669.204-.657.055.225.055.46 0 .686-.064.372-.152.668-.204.657z" fill="#EB996E"/><path d="M13.133 29.865a.732.732 0 00.877.718.735.735 0 00.534-.999.733.733 0 00-1.411.28z" fill="#FAFAFA"/></svg>