<svg width="346" height="233" fill="none" xmlns="http://www.w3.org/2000/svg"><path opacity=".41" d="M117.082 34.362c3.939-6.283 11.857-8.104 17.721-4.028 5.864 4.076 11.43 15.184 7.491 21.466-3.939 6.283-13.291.298-20.306-.201-9.819-.733-8.844-10.963-4.906-17.237z" fill="#fff"/><path d="M5.21 100.411a4.59 4.59 0 109.136.905 4.59 4.59 0 00-9.136-.905z" fill="#fff"/><path d="M113.715 160.355a1.673 1.673 0 01-1.643-2.002 1.673 1.673 0 011.317-1.317 1.68 1.68 0 011.719.713 1.675 1.675 0 01-1.393 2.606zm0-2.545a.873.873 0 00-.803.537.872.872 0 00.188.948.872.872 0 001.231-1.231.873.873 0 00-.616-.254z" fill="#F0F0F1"/><path d="M88.344 144.737a2.97 2.97 0 01-2.864-2.225 2.972 2.972 0 115.425.783 3.002 3.002 0 01-2.561 1.442zm0-5.147a2.165 2.165 0 00-.574 4.255 2.168 2.168 0 001.686-3.949 2.137 2.137 0 00-1.096-.306h-.016z" fill="#fff"/><path d="M111.984 82.272a31.502 31.502 0 01-53.161 7.91l-11.277 1.731 5.993-10.841a31.479 31.479 0 1158.469 1.2h-.024z" fill="#BDBDBD"/><path d="M98.178 59.291H68.23a.806.806 0 010-1.61h29.948a.805.805 0 010 1.61zm0 10.061H68.23a.805.805 0 110-1.611h29.948a.805.805 0 110 1.61zm0 10.906H68.23a.805.805 0 110-1.611h29.948a.805.805 0 110 1.61z" fill="#F0F0F1"/><path d="M117.816 88.007H97.751a9.19 9.19 0 00-9.19 9.19v.08a9.19 9.19 0 009.19 9.191h20.065a9.19 9.19 0 009.19-9.19v-.08a9.19 9.19 0 00-9.19-9.191z" fill="#BDBDBD"/><path d="M97.542 99.992a2.29 2.29 0 01-1.629-3.902 2.288 2.288 0 111.629 3.902zm0-3.77a1.482 1.482 0 10-.016 2.965 1.482 1.482 0 00.016-2.964zm10.245 3.77a2.288 2.288 0 11-.016-4.575 2.288 2.288 0 01.016 4.575zm0-3.77a1.483 1.483 0 10-.017 2.966 1.483 1.483 0 00.017-2.965zm10.206 3.77a2.286 2.286 0 01-2.244-2.734 2.285 2.285 0 013.119-1.667 2.292 2.292 0 011.412 2.114 2.288 2.288 0 01-2.287 2.287zm0-3.77a1.485 1.485 0 00-1.454 1.772 1.476 1.476 0 001.164 1.164 1.485 1.485 0 001.772-1.453 1.488 1.488 0 00-1.482-1.482z" fill="#fff"/><path d="M333.604 101.676h-92.638c-.716 0-1.297.58-1.297 1.297v27.99c0 .716.581 1.297 1.297 1.297h92.638c.716 0 1.297-.581 1.297-1.297v-27.99c0-.717-.581-1.297-1.297-1.297z" fill="#BDBDBD"/><path d="M260.574 121.282a6.927 6.927 0 10-9.796-9.796 6.927 6.927 0 009.796 9.796z" fill="#fff"/><path d="M255.086 119.807a.807.807 0 01-.58-.266l-3.061-3.463a.805.805 0 111.208-1.063l2.489 2.811 6.154-6.194a.804.804 0 011.378.567.805.805 0 01-.234.568l-6.758 6.807a.805.805 0 01-.596.233z" fill="#828282"/><path d="M321.691 112.316h-48.732a.4.4 0 01-.402-.403.4.4 0 01.402-.402h48.732a.41.41 0 01.403.402.404.404 0 01-.403.403zm-26.96 5.784h-21.748a.406.406 0 01-.403-.403.402.402 0 01.403-.403h21.748a.406.406 0 01.403.403.406.406 0 01-.403.403zm0 6.572h-21.748a.402.402 0 110-.805h21.748a.402.402 0 110 .805zm26.96-6.572h-21.748a.406.406 0 01-.403-.403.402.402 0 01.403-.403h21.748c.107 0 .209.043.285.118a.405.405 0 01-.285.688zm-12.768 10.471h-92.638c-.716 0-1.297.581-1.297 1.297v27.99c0 .716.581 1.297 1.297 1.297h92.638c.717 0 1.297-.581 1.297-1.297v-27.99c0-.716-.58-1.297-1.297-1.297z" fill="#fff"/><path d="M231.001 150.214a6.927 6.927 0 006.927-6.927 6.927 6.927 0 10-13.854 0 6.927 6.927 0 006.927 6.927z" fill="#BDBDBD"/><path opacity=".69" d="M297.011 139.219h-48.716a.4.4 0 01-.402-.402.4.4 0 01.402-.403h48.732a.402.402 0 110 .805h-.016zm-26.968 5.768h-21.748a.415.415 0 01-.402-.403.402.402 0 01.402-.403h21.748a.4.4 0 01.403.403.402.402 0 01-.403.403zm0 6.588h-21.748a.4.4 0 01-.402-.402.4.4 0 01.402-.403h21.748a.4.4 0 01.403.403.4.4 0 01-.403.402zm26.968-6.588h-21.748a.406.406 0 01-.403-.403.406.406 0 01.403-.403h21.748a.402.402 0 01.283.685.418.418 0 01-.283.121z" fill="#828282"/><path d="M219.676 54.861c0 20.46-37.052 53.839-37.052 53.839s-37.052-33.38-37.052-53.839a37.051 37.051 0 0174.104 0z" fill="#BDBDBD"/><path opacity=".24" d="M182.617 93.194s-29.884-26.919-35.981-47.225a37.108 37.108 0 00-1.079 8.86c0 20.46 37.052 53.838 37.052 53.838s37.052-33.379 37.052-53.838a36.703 36.703 0 00-1.088-8.86c-6.073 20.306-35.956 47.225-35.956 47.225z" fill="#828282"/><path d="M182.617 78.422a23.223 23.223 0 1123.222-23.214 23.25 23.25 0 01-23.222 23.214zm0-44.825a21.61 21.61 0 1021.611 21.61 21.646 21.646 0 00-21.611-21.61zM136.342 83.89a1.78 1.78 0 100-3.56 1.78 1.78 0 000 3.56zm83.335 91.874a1.78 1.78 0 100-3.56 1.78 1.78 0 000 3.56zm124.543-20.846a1.78 1.78 0 100-3.56 1.78 1.78 0 000 3.56zM43.462 27.346a1.78 1.78 0 100-3.56 1.78 1.78 0 000 3.56zM280.12 63.762a1.78 1.78 0 100-3.56 1.78 1.78 0 000 3.56z" fill="#fff"/><path d="M205.033 116.046a.889.889 0 01-.554.826.888.888 0 01-.975-.197.896.896 0 01.144-1.377.893.893 0 01.499-.146.887.887 0 01.886.894z" fill="#828282"/><path d="M245.573 89.82a2.49 2.49 0 100-4.98 2.49 2.49 0 000 4.98zm77.205 78.622a1.406 1.406 0 01-.864 1.308 1.411 1.411 0 01-1.927-1.022 1.407 1.407 0 01.598-1.449 1.403 1.403 0 011.777.171c.265.263.414.619.416.992zM64.46 126.283a1.24 1.24 0 100-2.48 1.24 1.24 0 000 2.48zm66.864-63.407a.894.894 0 100-1.788.894.894 0 000 1.788z" fill="#fff"/><path d="M253.266 37.962l-4.165 5.566-.161-7.08-4.961-4.229 6.701-.934 4.326-5.72.257 7.266 4.769 4.801-6.766.33z" fill="#BDBDBD"/><path opacity=".47" d="M98.363 20.032l-2.714 3.633-.113-4.623-3.238-2.763 4.374-.604 2.827-3.746.169 4.752 3.117 3.134-4.422.217z" fill="#fff"/><path opacity=".47" d="M317.631 79.944l-1.852 2.48-.073-3.149-2.215-1.885 2.989-.418 1.925-2.546.112 3.238 2.127 2.135-3.013.145z" fill="#BDBDBD"/><path d="M.815 3.56a1.78 1.78 0 100-3.56 1.78 1.78 0 000 3.56zm4.269 67.274a1.24 1.24 0 11-2.48 0 1.24 1.24 0 012.48 0zm145.87 40.773l-2.119 2.828-.08-3.593-2.522-2.151 3.4-.475 2.198-2.908.129 3.698 2.425 2.432-3.431.169zm146.693 85.18l-2.11 2.827-.089-3.592-2.521-2.151 3.407-.467 2.199-2.908.129 3.689 2.424 2.441-3.439.161zm-241.7-45.284l-.943 3.399-1.385-3.319-3.134-1.079 2.997-1.684.99-3.503 1.466 3.391 3.142 1.385-3.133 1.41zM143.849 4.172a.894.894 0 100-1.787.894.894 0 000 1.787zm62.078 10.037a1.78 1.78 0 100-3.56 1.78 1.78 0 000 3.56z" fill="#fff"/></svg>