<svg width="430" height="201" fill="none" xmlns="http://www.w3.org/2000/svg"><path d="M142.903 71.724H23.843c.571-2.1 3.7-9.287 19.628-6.534a10.064 10.064 0 01-3.575-9.203 5.56 5.56 0 011.391-2.78 6.623 6.623 0 012.407-1.39c6.287-2.252 17.277 6.395 17.277 6.395-13.466-21.144 23.23-30.013 23.48-3.267 0 0 5.384-9.606 11.268-6.95 2.393 1.39.918 5.56-.153 7.283 17.193-8.34 32.829-3.225 25.554 6.298 16.887.403 21.783 10.148 21.783 10.148zm177.47-28.192h20.629v38.186h-20.629V43.532z" fill="#fff"/><path d="M341.002 53.207v3.684l-20.629-2.363v-1.321h20.629z" fill="#9BB8CC"/><path d="M317.953 48.606h25.47v4.6h-25.47v-4.6z" fill="#133B53"/><path d="M69.29 200.782H.668a10.755 10.755 0 016.301-6.686 15.06 15.06 0 019.612-.111c-.584-.167-1.39-1.21-1.766-1.641a6.946 6.946 0 01-1.962-3.614 5.921 5.921 0 011.238-4.56 8.153 8.153 0 017.262-2.641h.403a8.027 8.027 0 011.502.389 16.79 16.79 0 015.564 3.851c.307.306.599.612.877.931 0 0-4.465-3.711-5.564-6.519-3.867-8.007 4.312-19.615 14.508-16.334a20.318 20.318 0 019.64 9.411c-8.151-12.191 5.37-19.601 10.169-8.633-2.977-9.049 1.46-18.516 10.405-13.206l.375.167.056 49.196z" fill="#589600"/><path d="M69.29 200.783H28.864a6.284 6.284 0 013.714-3.935 8.87 8.87 0 015.662-.069 3.904 3.904 0 012.156-5.032 6.789 6.789 0 015.564.778 6.785 6.785 0 01-3.24-3.85c-2.282-4.713 2.545-11.552 8.54-9.62a12.015 12.015 0 015.69 5.56c-4.8-7.187 3.157-11.552 5.981-5.087-2.782-7.076 2.56-11.219 6.357-9.62v30.875z" fill="#A2DA52"/><path d="M27.377 162.193c.752.598 1.698.9 2.657.848a4.806 4.806 0 00-1.28-2.697 3.922 3.922 0 00-2.656-.848 4.85 4.85 0 001.28 2.697z" fill="#589600"/><path d="M58.55 173.522a4.453 4.453 0 002.56 1.891 5.417 5.417 0 00-.376-3.364 4.462 4.462 0 00-2.56-1.905 5.474 5.474 0 00.376 3.378z" fill="#A2DA52"/><path d="M30.674 158.328a6.737 6.737 0 00.612 4.17 6.223 6.223 0 002.281-3.336 6.737 6.737 0 00-.612-4.17 6.23 6.23 0 00-2.281 3.336z" fill="#589600"/><path d="M396.505 200.657l-1.057-15.291 8.457-9.786-.514-.418-4.994 4.268-.724-4.268-.793.209.14 5.31-2.031 1.974-.779-15.611 4.145-5.129-.459-.39-4.298 3.434-.279-8.16h-1.112l-.738 10.023-1.085 9.981-5.592-6.047-.528.333 2.045 3.212-3.548-.056v.598l3.881.598 3.812 5.963-.876 19.253h6.927z" fill="#994F61"/><path d="M360.379 145.386a12.182 12.182 0 01.876-5.56 5.846 5.846 0 014.243-3.462 3.237 3.237 0 012.991 1.015 23.753 23.753 0 01-4.855-8.883 10.866 10.866 0 011.767-9.634 9.823 9.823 0 018.861-3.1 13.915 13.915 0 018.276 4.838c-.222-5.102-1.391-10.245-.473-15.291.918-5.046 4.939-10.05 10.044-9.814 3.463.152 6.371 2.627 8.583 5.296a35.578 35.578 0 017.97 19.67 24.658 24.658 0 014.465-5.06 8.264 8.264 0 016.288-1.946c3.658.598 5.995 4.337 6.886 7.937a21.565 21.565 0 01-.39 11.733c-2.003 6.242-6.677 11.191-11.226 15.917a4.652 4.652 0 015.732 2.363c1.391 2.78 0 5.992-1.851 8.202a18.705 18.705 0 01-5.912 4.309c-12.31 6.172-27.292 5.283-39.714-.083a21.14 21.14 0 01-10.28-9.731 19.249 19.249 0 01-2.281-8.716z" fill="#4F8700"/><path d="M399.912 171.298c.571-.667 2.268-.931 2.24.278.501-3.753 5.411-2.335 3.116 1.265 3.784-3.92 7.122 1.084 2.24 3.322 4.173.084 1.836 6.006-1.809 3.42a1.39 1.39 0 11-1.057 2.572c-4.215-.681-8.541-7.423-4.73-10.857z" fill="#589600"/><path d="M407.286 160.205a6.822 6.822 0 00.431-3.114 3.268 3.268 0 00-1.711-2.516 1.753 1.753 0 00-1.753 0 13.402 13.402 0 004.034-3.837 6.071 6.071 0 00.598-5.408 5.449 5.449 0 00-4.173-3.058 7.722 7.722 0 00-5.188 1.251c.946-2.683 2.392-5.227 2.698-8.049.306-2.822-1.029-6.144-3.811-6.839a6.963 6.963 0 00-5.411 1.39 19.712 19.712 0 00-7.387 9.189 13.705 13.705 0 00-1.558-3.406 4.577 4.577 0 00-3.032-2.03c-2.045-.264-3.881 1.391-4.939 3.114a11.945 11.945 0 00-1.669 6.298c0 3.642 1.767 6.95 3.436 10.259a2.589 2.589 0 00-3.436.347 4.31 4.31 0 00-.334 4.657 10.536 10.536 0 002.463 3.239c5.564 5.241 13.674 7.159 21.143 6.283a11.67 11.67 0 006.956-3.517 10.746 10.746 0 002.643-4.253z" fill="#A2DA52"/><path d="M421.238 147.415a4.345 4.345 0 00-.292 2.864 4.424 4.424 0 002.281-1.779c.412-.897.51-1.905.278-2.864a4.33 4.33 0 00-2.267 1.779zm4.229 2.697a6.031 6.031 0 00-3.728 1.391 5.984 5.984 0 003.547 1.765 5.955 5.955 0 003.728-1.39 6.016 6.016 0 00-3.547-1.766zm-44.055 25.912a2.315 2.315 0 001.071-1.098 2.311 2.311 0 00-1.544 0c-.467.24-.843.625-1.071 1.098.5.177 1.045.177 1.544 0zm-.876-2.53a3.207 3.207 0 002.003.667 3.257 3.257 0 00-.89-1.918 3.215 3.215 0 00-2.003-.667c.067.723.381 1.4.89 1.918z" fill="#589600"/><path d="M381.634 131.485a4.345 4.345 0 002.657 1.098 3.656 3.656 0 00-3.7-3.795 4.366 4.366 0 001.043 2.697zm24.692 8.299a3 3 0 00-1.391 1.39 3.033 3.033 0 002.003.083 3.013 3.013 0 001.391-1.39 2.996 2.996 0 00-2.003-.083zm-20.881-11.566a5.963 5.963 0 00.209 3.948 5.028 5.028 0 002.725-2.873 5.03 5.03 0 00-.207-3.953 5.97 5.97 0 00-2.727 2.878zm16.916 51.713a4.8 4.8 0 001.085 0 2.072 2.072 0 001.391-.682 1.39 1.39 0 00.264-1.279c-.223-.611-1.015-.458-1.391-.917a1.198 1.198 0 01-.167-.931 2.5 2.5 0 000-.96.639.639 0 00-.682-.528c-.25 0-.389.278-.542.445a.498.498 0 01-.362.195c-.598 0-.737-.904-1.391-.793-.654.111-1.015.807-1.196 1.39a3.055 3.055 0 00-.116 1.529c.093.511.315.989.644 1.391a3.72 3.72 0 002.463 1.14z" fill="#A2DA52"/><path d="M140.302 31.354l146.046-2.502 84.59 81.336H58.314l81.988-78.834z" fill="#1C75BB"/><path d="M65.534 110.188h94.897v84.825H65.533v-84.825z" fill="#fff"/><path d="M65.533 110.188H75.91v84.825H65.533v-84.825zm84.52 0h10.378v84.825h-10.378v-84.825z" fill="#28A8DF"/><path d="M75.925 122.463h74.142v1.043H75.925v-1.043zm0 11.955h74.142v1.042H75.925v-1.042zm0 11.955h74.142v1.043H75.925v-1.043zm0 11.941h74.142v1.043H75.925v-1.043zm0 11.955h74.142v1.043H75.925v-1.043zm0 11.955h74.142v1.043H75.925v-1.043z" fill="#E1ECEF"/><path d="M150.067 122.463h10.377v1.043h-10.377v-1.043zm0 11.955h10.377v1.042h-10.377v-1.042zm0 11.955h10.377v1.043h-10.377v-1.043zm0 11.941h10.377v1.043h-10.377v-1.043zm0 11.955h10.377v1.043h-10.377v-1.043zm0 11.955h10.377v1.043h-10.377v-1.043zm-84.534-59.761H75.91v1.043H65.533v-1.043zm0 11.955H75.91v1.042H65.533v-1.042zm0 11.955H75.91v1.043H65.533v-1.043zm0 11.941H75.91v1.043H65.533v-1.043zm0 11.955H75.91v1.043H65.533v-1.043zm0 11.955H75.91v1.043H65.533v-1.043z" fill="#1C75BB"/><path d="M268.807 110.188h94.897v84.825h-94.897v-84.825z" fill="#fff"/><path d="M269.614 122.463h94.09v1.043h-94.09v-1.043zm0 11.955h94.09v1.042h-94.09v-1.042zm0 11.955h94.09v1.043h-94.09v-1.043zm0 11.941h94.09v1.043h-94.09v-1.043zm0 11.955h94.09v1.043h-94.09v-1.043zm0 11.955h94.09v1.043h-94.09v-1.043z" fill="#E1ECEF"/><path d="M285.012 127.634h62.486v67.393h-62.486v-67.393z" fill="#28A8DF"/><path d="M285.012 130.595l62.486 10.134v-13.095h-62.486v2.961z" fill="#1C75BB"/><path d="M268.807 195.013h4.159l-2.601-84.825h-1.558v84.825z" fill="#9BB8CC"/><path d="M268.807 111.592l94.897 5.185v-6.589h-94.897v1.404zm-118.74-1.404v6.019l-74.156-4.045v-1.974h74.156z" fill="#9BB8CC"/><path d="M75.91 110.188v1.974l-10.377-.57v-1.404H75.91zm84.534 0v6.589l-10.377-.57v-6.019h10.377z" fill="#1C75BB"/><path d="M160.444 195.013h108.363V63.133l-54.182-42.26-54.181 42.26v131.88z" fill="#fff"/><path d="M214.625 20.873l54.182 42.26v9.563l-51.664-39.91-56.699 44.22V63.132l54.181-42.26z" fill="#9BB8CC"/><path d="M151.834 64.258l62.792-47.083 62.75 47.556-6.121 6.117-56.629-44.165-56.393 43.97-6.399-6.395zM62.585 195.013H369.95v5.811H62.585v-5.811zm232.735-52.797h41.717v52.797H295.32v-52.797z" fill="#fff"/><path d="M317.743 144.635h16.276v47.445h-16.276v-47.445zm-19.252 0h16.276v47.445h-16.276v-47.445z" fill="#133B53"/><path d="M295.32 141.48h42.636l.515 53.534h-1.447v-52.797H295.32v-.737z" fill="#1C75BB"/><path d="M83.366 142.216h59.62v35.88h-59.62v-35.88z" fill="#fff"/><path d="M130.189 144.635h10.03v30.653h-10.03v-30.653zm-31.493 0h28.586v30.653H98.696v-30.653zm-12.937 0h10.03v30.653h-10.03v-30.653z" fill="#133B53"/><path d="M83.367 141.758h60.51l.724 36.351h-1.614v-35.893h-59.62v-.458z" fill="#9BB8CC"/><path d="M142.987 177.804h-59.62v.848l61.234 2.585v-3.433h-1.614z" fill="#9BB8CC"/><path d="M235.352 144.635h16.275v47.445h-16.275v-47.445zm-19.252 0h16.275v47.445H216.1v-47.445zm-19.239 0h16.276v47.445h-16.276v-47.445zm-19.237 0h16.275v47.445h-16.275v-47.445z" fill="#133B53"/><path d="M175.718 141.758h79.846l1.238 53.255h-2.504v-52.797h-78.58v-.458z" fill="#9BB8CC"/><path d="M216.1 63.98h16.275v47.445H216.1V63.98zm-19.239 0h16.276v47.445h-16.276V63.98z" fill="#133B53"/><path d="M194.233 61.103h41.94l1.238 53.256h-2.504V61.562h-40.674v-.46z" fill="#9BB8CC"/><path d="M172.004 114.011h85.243v4.379h-85.243v-4.379z" fill="#133B53"/><path d="M172.004 118.39h85.244v-4.379l3.269 4.379v4.115l-88.513-3.142v-.973z" fill="#9BB8CC"/><path d="M252.142 102.084h1.378v11.927h-1.378v-11.927zm-46.182 0h1.377v11.927h-1.377v-11.927zm15.398 0h1.377v11.927h-1.377v-11.927zm-30.784 0h1.377v11.927h-1.377v-11.927zm46.169 0h1.377v11.927h-1.377v-11.927zm-61.567 0h1.377v11.927h-1.377v-11.927z" fill="#BDBDBD"/><path d="M252.142 102.084h1.378v1.126h-1.378v-1.126zm-46.182 0h1.377v1.126h-1.377v-1.126zm15.398 0h1.377v1.126h-1.377v-1.126zm-30.784 0h1.377v1.126h-1.377v-1.126zm46.169 0h1.377v1.126h-1.377v-1.126zm-61.567 0h1.377v1.126h-1.377v-1.126z" fill="#4A938C"/><path d="M173.924 102.084h81.487v-3.017l-81.487.695v2.322z" fill="#BDBDBD"/><path d="M365.943 188.758h47.379v1.835h-47.379v-1.835zm0 7.451h47.379v1.835h-47.379v-1.835z" fill="#B6CCD8"/><path d="M408.301 200.657h3.227a.348.348 0 00.348-.347v-13.721a.351.351 0 000-.208l-1.614-1.933a.347.347 0 00-.556 0l-1.614 1.933a.347.347 0 00-.07.208v13.721a.352.352 0 00.279.347zm-6.705 0h3.213a.363.363 0 00.362-.347v-13.721a.293.293 0 00-.02-.113.266.266 0 00-.064-.095l-1.599-1.932a.361.361 0 00-.571 0l-1.613 1.932a.336.336 0 000 .208v13.721a.346.346 0 00.292.347zm-6.719 0h3.213a.363.363 0 00.362-.347v-13.721a.276.276 0 00-.083-.208l-1.6-1.932a.36.36 0 00-.571 0l-1.599 1.932a.266.266 0 00-.064.095.293.293 0 00-.02.113v13.721a.363.363 0 00.362.347zm-6.719 0h3.214a.367.367 0 00.251-.1.362.362 0 00.11-.247v-13.721a.346.346 0 00-.069-.208l-1.6-1.932a.358.358 0 00-.444-.103.358.358 0 00-.126.103l-1.6 1.932a.275.275 0 00-.083.208v13.721a.362.362 0 00.347.347zm-6.718 0h3.213a.335.335 0 00.137-.022.348.348 0 00.225-.325v-13.721a.347.347 0 00-.07-.208l-1.614-1.932a.364.364 0 00-.443-.103.353.353 0 00-.127.103l-1.6 1.932a.277.277 0 00-.069.208v13.721a.346.346 0 00.348.347zm-6.677 0h3.186a.35.35 0 00.246-.101.35.35 0 00.101-.246v-13.721a.336.336 0 000-.208l-1.613-1.933a.356.356 0 00-.278-.139.351.351 0 00-.279.139l-1.613 1.933a.347.347 0 00-.07.208v13.721a.35.35 0 00.32.347zm-6.746 0h3.213a.365.365 0 00.251-.1.367.367 0 00.111-.247v-13.721a.293.293 0 00-.02-.113.266.266 0 00-.064-.095l-1.6-1.932a.364.364 0 00-.443-.103.353.353 0 00-.127.103l-1.613 1.932a.336.336 0 000 .208v13.721a.344.344 0 00.292.347z" fill="#fff"/><path d="M5.538 188.758h67.16v1.835H5.537v-1.835zm0 7.451h67.16v1.835H5.537v-1.835z" fill="#B6CCD8"/><path d="M67.676 200.657h3.213a.34.34 0 00.255-.096.359.359 0 00.107-.251v-13.721a.346.346 0 00-.07-.208l-1.613-1.933a.348.348 0 00-.557 0l-1.613 1.933a.346.346 0 00-.07.208v13.721a.348.348 0 00.348.347zm-6.705 0h3.213a.348.348 0 00.348-.347v-13.721a.277.277 0 00-.07-.208l-1.613-1.933a.347.347 0 00-.556 0l-1.614 1.933a.345.345 0 000 .208v13.721a.348.348 0 00.292.347zm-6.719 0h3.213a.365.365 0 00.251-.1.364.364 0 00.111-.247v-13.721a.28.28 0 00-.084-.208l-1.6-1.932a.355.355 0 00-.284-.14.363.363 0 00-.285.14l-1.614 1.932a.346.346 0 00-.07.208v13.721a.364.364 0 00.111.247c.068.064.157.1.251.1zm-6.719 0h3.214a.365.365 0 00.25-.1.363.363 0 00.111-.247v-13.721a.279.279 0 00-.083-.208l-1.6-1.932a.355.355 0 00-.285-.14.364.364 0 00-.285.14l-1.6 1.932a.276.276 0 00-.083.208v13.721a.364.364 0 00.11.247c.068.064.158.1.251.1zm-6.718 0h3.213a.339.339 0 00.255-.096.355.355 0 00.107-.251v-13.721a.346.346 0 00-.07-.208l-1.614-1.932a.355.355 0 00-.285-.14.363.363 0 00-.285.14l-1.6 1.932a.275.275 0 00-.083.208v13.721a.364.364 0 00.11.247c.068.064.158.1.252.1zm-6.719 0h3.227a.348.348 0 00.348-.347v-13.721a.346.346 0 00-.07-.208l-1.613-1.933a.347.347 0 00-.557 0l-1.613 1.933a.345.345 0 000 .208v13.721a.348.348 0 00.278.347zm-6.705 0h3.214a.348.348 0 00.347-.347v-13.721a.277.277 0 000-.208l-1.6-1.932a.355.355 0 00-.285-.14.364.364 0 00-.285.14l-1.613 1.932a.346.346 0 00-.07.208v13.721a.348.348 0 00.292.347zm-6.719 0h3.213a.365.365 0 00.251-.1.364.364 0 00.11-.247v-13.721a.279.279 0 00-.083-.208l-1.6-1.932a.355.355 0 00-.284-.14.364.364 0 00-.286.14l-1.613 1.932a.346.346 0 00-.07.208v13.721a.363.363 0 00.111.247c.067.064.157.1.251.1zm-6.719 0h3.213a.365.365 0 00.251-.1.363.363 0 00.111-.247v-13.721a.279.279 0 00-.083-.208l-1.6-1.932a.355.355 0 00-.285-.14.363.363 0 00-.285.14l-1.6 1.932a.275.275 0 00-.084.208v13.721a.364.364 0 00.111.247c.068.064.158.1.251.1zm-6.718 0h3.213a.34.34 0 00.255-.096.355.355 0 00.107-.251v-13.721a.346.346 0 00-.07-.208l-1.614-1.932a.355.355 0 00-.285-.14.364.364 0 00-.285.14l-1.6 1.932a.275.275 0 00-.083.208v13.721a.363.363 0 00.11.247c.068.064.158.1.252.1zM370.033 21.11h-72.042c.348-1.28 2.24-5.63 11.879-3.963a6.052 6.052 0 01-2.156-5.56c.106-.623.397-1.2.835-1.654a3.95 3.95 0 011.391-.848c3.798-1.39 10.447 3.864 10.447 3.864-8.138-12.79 14.063-18.155 14.216-1.974 0 0 3.255-5.81 6.816-4.17 1.391.82.557 3.308-.097 4.406 10.405-5.046 19.864-1.946 15.455 3.81 10.293.18 13.256 6.088 13.256 6.088z" fill="#fff"/></svg>