<svg width="509" height="761" viewBox="0 0 509 761" fill="none" xmlns="http://www.w3.org/2000/svg">
<g filter="url(#filter0_d)">
<path d="M152.481 55.4184L160.173 57.286L182.636 37.9301L186.354 22.6492C186.354 22.6492 198.426 24.8055 192.161 44.5859C185.896 64.3662 188.646 59.6122 188.646 59.6122C188.646 59.6122 213.894 65.8094 215.456 68.5261C216.593 70.4786 211.211 95.6922 208.189 109.411C206.661 116.305 200.922 121.653 194.164 121.738C193.217 121.746 192.272 121.649 191.346 121.449C185.047 119.921 154.094 107 154.094 107L140.8 103.791L152.481 55.4184Z" fill="white"/>
<path d="M131.461 45.876L123.464 99.665L136.639 102.857L149.119 51.2583L131.461 45.876Z" fill="white"/>
<path d="M309.931 41.0502L314.939 39.3523L320.695 20.336L317.299 10.3185C317.299 10.3185 324.906 7.17738 328.472 20.6246C332.037 34.0719 331.816 30.3535 331.816 30.3535C331.816 30.3535 348.32 24.8014 350.188 25.7692C351.529 26.4654 357.573 42.7481 360.765 51.5262C361.605 53.6315 361.719 55.9569 361.089 58.1342C360.458 60.3115 359.12 62.2163 357.285 63.5472C356.755 63.8982 356.185 64.1833 355.587 64.3962C351.461 65.7884 329.304 69.6087 329.304 69.6087L320.627 72.58L309.931 41.0502Z" fill="white"/>
<path d="M294.599 43.2066L309.404 76.5191L318.012 73.5818L306.535 39.9127L294.599 43.2066Z" fill="white"/>
<path d="M412.841 150.039L415.162 152.597L428.049 151.091L433.164 146.449C433.164 146.449 437.026 150.186 429.902 155.823C422.777 161.461 424.946 160.36 424.946 160.36C424.946 160.36 432.569 168.797 432.476 170.168C432.409 171.152 424.232 179.013 419.806 183.21C418.764 184.262 417.401 184.935 415.933 185.125C414.465 185.314 412.976 185.009 411.701 184.257C411.353 184.031 411.034 183.764 410.75 183.461C408.842 181.353 400.784 169.078 400.784 169.078L396.745 164.657L412.841 150.039Z" fill="white"/>
<path d="M407.557 141.419L391.463 158.961L395.464 163.351L412.638 147.709L407.557 141.419Z" fill="white"/>
<path d="M404.962 644.068L377.116 723.937H391.039L439.768 644.068H404.962Z" fill="white"/>
<path d="M355.284 144.884C355.284 145.955 354.966 147.002 354.371 147.893C353.776 148.784 352.93 149.478 351.94 149.888C350.95 150.298 349.861 150.405 348.811 150.196C347.76 149.987 346.795 149.471 346.038 148.714C345.28 147.956 344.764 146.991 344.555 145.94C344.346 144.89 344.454 143.801 344.863 142.811C345.273 141.821 345.968 140.975 346.858 140.38C347.749 139.785 348.796 139.468 349.867 139.468C350.579 139.465 351.285 139.604 351.943 139.875C352.601 140.147 353.199 140.546 353.702 141.049C354.206 141.552 354.605 142.15 354.876 142.808C355.147 143.467 355.286 144.172 355.284 144.884Z" fill="white"/>
<path d="M244.418 41.4586C244.418 42.5299 244.101 43.5771 243.506 44.4678C242.911 45.3585 242.065 46.0527 241.075 46.4626C240.085 46.8726 238.996 46.9798 237.946 46.7708C236.895 46.5618 235.93 46.046 235.172 45.2885C234.415 44.5311 233.899 43.566 233.69 42.5153C233.481 41.4647 233.588 40.3756 233.998 39.3859C234.408 38.3962 235.102 37.5503 235.993 36.9552C236.884 36.36 237.931 36.0424 239.002 36.0424C239.714 36.0401 240.419 36.1787 241.078 36.4501C241.736 36.7215 242.334 37.1204 242.837 37.6238C243.34 38.1272 243.739 38.7251 244.011 39.3833C244.282 40.0414 244.421 40.7467 244.418 41.4586Z" fill="white"/>
<path d="M426.714 221.523C426.714 222.594 426.397 223.641 425.802 224.532C425.206 225.422 424.361 226.117 423.371 226.527C422.381 226.936 421.292 227.044 420.241 226.835C419.191 226.626 418.226 226.11 417.468 225.352C416.711 224.595 416.195 223.63 415.986 222.579C415.777 221.529 415.884 220.44 416.294 219.45C416.704 218.46 417.398 217.614 418.289 217.019C419.18 216.424 420.227 216.106 421.298 216.106C422.735 216.106 424.112 216.677 425.128 217.693C426.144 218.708 426.714 220.086 426.714 221.523Z" fill="white"/>
<path d="M441.596 355.455C441.596 356.526 441.279 357.573 440.683 358.464C440.088 359.354 439.242 360.049 438.253 360.459C437.263 360.869 436.174 360.976 435.123 360.767C434.073 360.558 433.108 360.042 432.35 359.284C431.593 358.527 431.077 357.562 430.868 356.511C430.659 355.461 430.766 354.372 431.176 353.382C431.586 352.392 432.28 351.546 433.171 350.951C434.062 350.356 435.109 350.038 436.18 350.038C437.616 350.038 438.994 350.609 440.01 351.625C441.026 352.64 441.596 354.018 441.596 355.455Z" fill="white"/>
<path d="M197.543 236.404C197.543 237.475 197.225 238.522 196.63 239.413C196.035 240.304 195.189 240.998 194.199 241.408C193.209 241.818 192.12 241.925 191.07 241.716C190.019 241.507 189.054 240.991 188.296 240.234C187.539 239.476 187.023 238.511 186.814 237.461C186.605 236.41 186.712 235.321 187.122 234.331C187.532 233.342 188.226 232.496 189.117 231.901C190.008 231.305 191.055 230.988 192.126 230.988C193.563 230.988 194.94 231.558 195.956 232.574C196.972 233.59 197.543 234.967 197.543 236.404Z" fill="white"/>
<path d="M342.683 241.992C338.217 253.113 338.353 276.086 345.79 285.492C349.661 290.399 354.925 294.304 357.675 299.941C361.292 307.31 359.747 316.478 355.23 323.321C350.714 330.163 343.6 334.951 336.112 338.313C327.775 342.065 317.571 344.154 309.795 339.332C303.852 335.664 300.694 328.788 298.792 322.064C293.478 303.252 295.397 283.013 300.949 264.2C306.501 245.388 315.483 227.9 324.414 210.496" fill="black"/>
<path d="M367.456 397.841L407.254 373.544C407.254 373.544 377.083 315.307 372.482 313.218C367.88 311.13 306.926 302.114 306.926 302.114C288.368 331.301 265.141 324.187 241.727 304.644C239.639 305.052 202.795 313.456 193.168 314.713C183.541 315.969 155.814 360.148 155.814 360.148L187.276 415.143L189.653 472.124C189.653 472.124 191.351 512.652 184.712 533.57L351.462 538.986C349.638 530.296 348.356 521.501 347.625 512.652C346.996 505.572 345.061 498.509 346.521 489.408C351.19 460.663 367.456 397.841 367.456 397.841Z" fill="#8CBF43"/>
<path d="M175.356 331.997C177.852 340.385 199.127 352.813 206.581 348.161C208.958 346.684 210.978 344.477 213.712 343.95C217.107 343.271 220.401 345.445 223.712 346.548C231.472 349.112 241.455 346.243 247.058 352.202C249.809 355.139 251.575 360.131 255.548 360.012C256.973 359.777 258.368 359.384 259.707 358.841C264.224 357.737 268.587 361.184 273.291 361.507C275.72 361.527 278.134 361.119 280.422 360.301L313.683 350.538C316.111 349.842 318.777 348.84 319.83 346.582C315.842 347.835 311.542 347.654 307.673 346.073C305.595 344.948 303.411 344.032 301.153 343.339C295.278 342.134 289.93 346.735 284.089 348.178C277.943 349.621 271.61 347.312 265.718 345.054L235.547 333.457C227.227 330.265 218.703 326.938 212.082 320.978C209.993 319.093 202.098 323.066 199.619 321.691C196.761 319.762 194.033 317.646 191.452 315.358C190.926 314.984 186.359 319.11 184.338 321.284C182.318 323.457 175.356 331.997 175.356 331.997Z" fill="white"/>
<path d="M189.721 472.192C197.107 469.068 209.824 464.144 217.719 462.667C223.533 461.399 229.517 461.101 235.428 461.784C238.365 462.208 241.405 463.006 244.257 462.157C247.109 461.308 249.028 459.237 251.541 457.998C258.757 454.432 267.382 458.864 275.311 457.828C277.312 457.696 279.191 456.817 280.575 455.366C281.239 454.624 281.598 453.659 281.579 452.663C281.56 451.668 281.165 450.716 280.473 450.001C279.539 449.339 278.425 448.978 277.281 448.965C273.474 448.719 269.653 448.77 265.854 449.118L259.742 449.508C257.199 449.813 254.624 449.699 252.118 449.169C249.72 448.31 247.393 447.265 245.157 446.045C236.99 442.445 227.584 444.058 218.738 445.297C214.358 446.157 209.857 446.203 205.46 445.433C203.991 444.949 202.457 444.686 200.91 444.652C198.329 444.805 196.139 446.724 193.575 447.148C191.011 447.573 190.858 442.649 188.481 442.054L189.721 472.192Z" fill="white"/>
<path d="M352.09 395.838C351.181 396.431 350.175 396.862 349.118 397.111C344.313 397.773 341.359 389.318 336.758 390.863C334.958 391.457 333.82 393.512 331.936 393.732C330.051 393.953 328.302 391.831 326.384 390.965C322.988 389.437 319.134 392.187 315.381 392.493C311.137 392.815 306.162 390.167 303.004 393.019C301.764 394.123 301.051 395.973 299.438 396.415C297.825 396.856 296.433 395.753 294.922 395.294C290.321 393.919 286.076 398.367 281.339 399.182C275.957 400.116 269.454 396.466 265.413 400.082C263.952 401.356 263.053 403.478 261.202 403.971C259.351 404.463 257.67 403.393 255.871 403.376C251.728 403.376 247.924 408.843 244.427 406.602C244.719 407.57 245.304 408.424 246.1 409.047C246.896 409.67 247.866 410.032 248.875 410.083C250.887 410.166 252.9 409.995 254.869 409.574C266.601 408.13 278.52 415.771 289.896 412.562C293.02 411.662 295.975 409.981 299.218 409.743C305.279 409.302 310.797 414.022 316.876 413.801C321.613 413.615 326.01 410.406 330.73 410.983C335.45 411.56 339.084 415.788 343.498 417.876C348.779 420.389 354.959 419.574 360.766 418.878L362.464 418.487C365.188 411.015 367.14 403.283 368.288 395.413C365.736 394.238 362.948 393.666 360.139 393.739C357.331 393.813 354.577 394.531 352.09 395.838Z" fill="white"/>
<path d="M338.421 497.456C336.111 497.7 333.916 498.588 332.088 500.02C330.252 501.458 327.985 502.236 325.653 502.227C321.493 501.786 317.741 496.658 314.107 498.729C313.189 499.425 312.331 500.198 311.543 501.039C308.996 503.127 304.939 502.55 302.511 504.774C301.254 505.912 300.575 507.711 299.03 508.441C296.126 509.8 293.376 506.438 290.439 505.13C285.854 503.076 280.642 506.251 275.616 506.166C273.069 506.166 270.37 505.232 268.043 506.285C266.847 506.994 265.711 507.8 264.648 508.696C260.81 511.26 255.649 510.071 251.353 508.356C247.058 506.642 242.575 504.485 238.042 505.385C236.785 505.64 235.359 506.421 235.376 507.711C235.428 508.205 235.603 508.678 235.885 509.087C238.585 513.501 243.713 515.776 248.688 517.219C254.138 518.781 259.894 519.715 264.733 522.67C267.806 524.52 271.049 527.288 274.512 526.337C277.246 525.59 278.944 522.738 281.576 521.719C285.328 520.276 289.759 522.89 293.461 521.345C294.7 520.836 295.719 519.885 296.992 519.427C300.252 518.238 303.92 520.632 307.316 519.851C308.475 519.402 309.683 519.088 310.915 518.917C314.158 518.917 316.263 523.383 319.405 522.941C321.391 522.687 322.8 520.598 324.702 520.242C327.283 519.749 330.237 522.381 332.325 520.785C332.801 520.428 333.191 519.851 333.786 519.8C334.38 519.749 335.127 520.632 335.636 521.294C337.911 524.334 344.924 522.381 348.455 521.006L346.146 500.631C346.299 498.016 340.73 497.456 338.421 497.456Z" fill="white"/>
<g opacity="0.3">
<path opacity="0.3" d="M195.374 332.71C192.216 342.694 190.96 353.628 194.118 363.612C195.782 368.165 197.727 372.611 199.942 376.923C206.817 392.046 209.738 408.667 208.431 425.228C208.323 425.803 208.401 426.397 208.652 426.926C209.314 428.029 210.995 427.622 212.166 427.079L219.688 423.683C222.948 426.332 223.423 431.578 227.04 433.717C230.656 435.857 235.648 433.463 239.231 430.848C247.126 425.058 254.631 418.335 259.215 409.675C262.111 403.609 264.255 397.212 265.599 390.625C267.025 384.869 268.451 379.113 269.334 373.256C272.768 350.03 267.73 326.345 255.14 306.529" fill="black"/>
</g>
<path d="M354.806 341.657C354.959 341.937 355.078 342.233 355.162 342.54C355.4 343.22 355.689 344.085 356.062 345.138C356.826 347.515 357.879 350.775 359.169 354.731L363.635 368.976C365.561 374.8 366.998 380.775 367.93 386.838C368.649 392.958 368.345 399.155 367.03 405.175C365.975 410.072 364.545 414.88 362.752 419.556C361.258 423.547 359.899 426.722 358.949 428.912L357.811 431.408C357.705 431.71 357.556 431.996 357.369 432.257C357.422 431.939 357.519 431.63 357.658 431.34L358.626 428.776C359.475 426.552 360.748 423.343 362.175 419.353C363.854 414.675 365.21 409.887 366.232 405.023C367.482 399.079 367.758 392.972 367.047 386.94C366.128 380.928 364.726 375 362.854 369.214L358.541 354.918L355.689 345.24C355.4 344.17 355.162 343.304 354.959 342.591C354.864 342.289 354.813 341.974 354.806 341.657Z" fill="black"/>
<g opacity="0.3">
<path opacity="0.3" d="M369.493 391.865C371.885 383.664 371.594 374.913 368.661 366.889C365.734 358.922 361.76 351.379 356.844 344.46C359.187 360.522 366.539 375.633 367.999 391.814" fill="black"/>
</g>
<g opacity="0.3">
<path opacity="0.3" d="M233.934 494.722C241.099 485.132 250.71 477.643 261.762 473.04C272.787 468.474 284.383 465.429 296.229 463.991C300.898 463.311 305.975 462.819 310.067 465.196C314.159 467.573 316.094 473.957 312.529 477.081C310.543 478.47 308.159 479.174 305.737 479.085C289.404 480.273 272.136 480.324 258.027 488.627C252.441 491.921 247.483 496.437 241.302 498.424C238.518 499.324 234.375 498.814 234.086 495.894" fill="black"/>
</g>
<path d="M317.198 461.801C316.874 461.865 316.543 461.893 316.213 461.886H313.377H311.34L308.929 462.038C307.231 462.174 305.194 462.242 303.037 462.565L299.642 462.989C298.453 463.159 297.231 463.414 295.974 463.634C293.427 464.042 290.762 464.738 287.943 465.332C281.876 466.97 275.93 469.029 270.149 471.496C264.396 474.016 258.805 476.891 253.408 480.104C250.929 481.615 248.569 483.041 246.447 484.518C244.324 485.995 242.338 487.32 240.572 488.61C238.806 489.901 237.176 491.123 235.852 492.176C234.528 493.229 233.288 494.179 232.337 494.96L230.13 496.658C229.89 496.879 229.621 497.068 229.332 497.219C229.332 497.219 229.553 496.964 230.011 496.522L232.117 494.621C233.033 493.789 234.171 492.804 235.512 491.717C236.854 490.631 238.399 489.323 240.182 488.033C241.964 486.743 243.866 485.248 246.022 483.822C248.179 482.396 250.488 480.868 252.967 479.323C258.377 476.046 263.998 473.131 269.793 470.596C275.61 468.108 281.603 466.054 287.722 464.449C290.558 463.821 293.257 463.125 295.821 462.751C297.095 462.548 298.334 462.293 299.523 462.14L302.918 461.767C305.109 461.478 307.095 461.461 308.844 461.376C309.727 461.376 310.542 461.291 311.289 461.291H313.326L316.162 461.393C316.525 461.477 316.874 461.615 317.198 461.801Z" fill="black"/>
<g opacity="0.3">
<path opacity="0.3" d="M179.465 371.371C175.153 377.365 174.66 385.447 176.426 392.612C178.192 399.777 182.012 406.195 185.764 412.613C186.274 406.248 185.781 399.843 184.304 393.631C182.606 386.194 179.346 378.944 179.363 371.303" fill="black"/>
</g>
<path d="M300.423 141.8C300.525 136.383 306.705 132.546 312.053 133.446C317.402 134.346 321.562 138.71 324.075 143.515C326.587 148.32 327.776 153.702 329.661 158.796C334.754 172.379 344.755 184.077 348.337 198.204C350.649 208.233 350.334 218.69 347.42 228.562C344.493 238.379 340.467 247.834 335.416 256.747C332.282 262.102 329.634 267.728 327.504 273.556C325.386 279.433 325.196 285.832 326.961 291.825C327.338 292.577 327.423 293.442 327.199 294.253C326.655 295.425 325.025 295.475 323.803 295.153C317.572 293.557 313.242 287.427 312.172 281.077C311.103 274.727 312.75 268.241 315.008 262.214C317.266 256.186 320.22 250.329 321.901 244.199C325.569 230.616 323.022 216.218 322.377 202.143C322.02 194.213 322.275 186.199 320.679 178.372C319.083 170.545 315.398 162.854 308.794 158.422C306.23 156.724 303.275 155.468 301.119 153.328C298.963 151.189 297.876 147.352 299.829 144.958" fill="black"/>
<path d="M305.992 299.364C305.992 299.364 305.822 291.146 305.822 291.231C305.822 291.316 330.136 286.596 334.448 254.624C336.588 238.732 335.178 212.772 333.345 191.565C331.647 172.498 318.471 149.339 299.387 151.8L240.368 168.151C234.595 168.898 232.711 173.839 232.949 179.663L232.541 182.396L237.465 273.556L239.163 288.837C240.029 306.155 255.106 324.493 273.681 324.968C291.594 325.851 306.246 318.465 305.992 299.364Z" fill="#FFBE9D"/>
<path d="M322.461 212.058C322.498 213.122 322.118 214.158 321.401 214.945C320.683 215.732 319.687 216.207 318.624 216.269C317.601 216.359 316.583 216.042 315.792 215.387C315.001 214.733 314.499 213.793 314.396 212.771C314.359 211.707 314.739 210.671 315.457 209.884C316.174 209.097 317.17 208.622 318.233 208.56C319.256 208.47 320.274 208.787 321.065 209.441C321.856 210.096 322.358 211.036 322.461 212.058Z" fill="black"/>
<path d="M327.86 205.98C327.368 206.523 324.227 204.282 319.829 204.418C315.432 204.554 312.257 206.812 311.764 206.286C311.526 206.048 312.019 205.08 313.462 204.01C315.328 202.65 317.571 201.903 319.88 201.871C322.168 201.803 324.417 202.47 326.298 203.773C327.622 204.808 328.115 205.759 327.86 205.98Z" fill="black"/>
<path d="M285.091 214.232C284.598 214.775 281.44 212.534 277.043 212.687C272.645 212.839 269.487 215.064 268.995 214.537C268.757 214.317 269.232 213.332 270.693 212.279C272.563 210.912 274.811 210.159 277.128 210.123C279.413 210.069 281.658 210.734 283.546 212.024C284.836 213.043 285.328 213.994 285.091 214.232Z" fill="black"/>
<path d="M301.56 239.191C301.56 238.953 304.26 238.41 308.674 237.748C309.795 237.595 310.848 237.357 311.017 236.576C311.097 235.385 310.806 234.199 310.185 233.18L306.671 224.691C301.764 212.619 298.181 202.618 298.691 202.5C299.2 202.381 303.53 211.923 308.437 223.995C309.608 226.966 310.746 229.802 311.832 232.484C312.575 233.816 312.816 235.37 312.512 236.865C312.361 237.266 312.12 237.627 311.808 237.922C311.496 238.216 311.121 238.435 310.712 238.563C310.091 238.735 309.454 238.838 308.81 238.868C304.345 239.361 301.577 239.446 301.56 239.191Z" fill="black"/>
<path d="M305.907 291.146C290.915 291.727 276.056 288.136 262.984 280.772C262.984 280.772 274.275 302.997 306.077 299.279L305.907 291.146Z" fill="#EB996E"/>
<path d="M284.921 203.111C284.412 204.282 280.065 203.433 274.887 203.739C269.708 204.044 265.446 205.182 264.835 204.078C264.547 203.552 265.345 202.465 267.093 201.413C269.414 200.115 272.009 199.388 274.666 199.29C277.321 199.127 279.976 199.604 282.408 200.683C284.259 201.566 285.142 202.584 284.921 203.111Z" fill="black"/>
<path d="M327.198 192.397C326.315 193.416 322.699 192.397 318.386 192.516C314.073 192.635 310.457 193.382 309.591 192.363C309.2 191.854 309.761 190.852 311.289 189.867C313.46 188.633 315.923 188.005 318.42 188.05C320.898 188.02 323.338 188.659 325.483 189.901C327.062 190.937 327.588 191.955 327.198 192.397Z" fill="black"/>
<path d="M298.283 248.427C297.626 247.595 296.794 246.918 295.847 246.443C294.899 245.968 293.859 245.706 292.799 245.676C291.593 245.709 290.408 245.996 289.32 246.516C288.232 247.037 287.265 247.78 286.483 248.699L286.381 248.8C286.381 248.885 286.211 248.953 286.144 249.038H286.245C285.633 249.69 285.251 250.525 285.159 251.415C285.146 252.413 285.377 253.399 285.833 254.287C286.289 255.175 286.955 255.938 287.773 256.509C289.035 257.473 290.564 258.024 292.151 258.085C293.738 258.146 295.305 257.714 296.636 256.848C297.928 255.915 298.816 254.526 299.122 252.963C299.428 251.399 299.128 249.778 298.283 248.427Z" fill="#EB996E"/>
<path d="M286.874 244.165C287.129 244.165 287.332 245.184 288.028 246.627C288.889 248.496 290.295 250.062 292.062 251.116C293.829 252.171 295.873 252.666 297.927 252.536C299.54 252.536 300.542 252.162 300.644 252.383C300.746 252.604 299.863 253.317 298.097 253.707C295.739 254.212 293.277 253.806 291.205 252.572C289.133 251.338 287.604 249.366 286.925 247.052C286.432 245.286 286.67 244.165 286.874 244.165Z" fill="black"/>
<path d="M306.738 152.225C306.562 153.827 306.779 155.449 307.37 156.949C307.962 158.449 308.911 159.782 310.134 160.833C312.611 162.897 315.29 164.706 318.131 166.232C326.621 171.529 330.814 183.109 334.787 192.295C341.783 178.966 331.018 161.733 322.138 151.291C320.629 149.376 318.767 147.769 316.654 146.554C315.58 145.944 314.38 145.588 313.146 145.515C311.913 145.441 310.679 145.651 309.54 146.129" fill="black"/>
<path d="M334.873 258.614C334.955 258.206 335.08 257.807 335.247 257.426C335.552 256.594 335.96 255.49 336.452 254.115C337.437 251.228 338.863 247.035 340.136 241.703C343.45 227.808 344.237 213.43 342.463 199.256C341.572 191.48 339.724 183.844 336.961 176.521C334.697 170.538 331.035 165.183 326.282 160.901C323.057 158.043 319.234 155.942 315.093 154.754C313.558 154.385 312.005 154.096 310.44 153.889C310.852 153.844 311.268 153.844 311.68 153.889C312.858 153.979 314.027 154.161 315.177 154.432C319.433 155.496 323.377 157.549 326.689 160.425C331.563 164.725 335.321 170.144 337.641 176.216C340.48 183.604 342.368 191.323 343.261 199.188C345.064 213.43 344.188 227.884 340.68 241.805C339.593 246.009 338.267 250.147 336.707 254.2C336.146 255.609 335.671 256.713 335.348 257.443C335.231 257.849 335.072 258.241 334.873 258.614Z" fill="black"/>
<path d="M337.742 281.468C337.675 281.35 337.624 281.225 337.589 281.094L337.216 279.957C336.818 278.492 336.573 276.99 336.486 275.474C336.349 269.837 337.665 264.259 340.306 259.276C343.311 252.808 348.795 246.322 354.059 238.698C356.859 234.747 359.099 230.427 360.714 225.862C363.925 215.917 363.064 205.105 358.32 195.793C355.994 191.536 353.142 187.589 349.831 184.043C343.6 177.167 337.368 171.445 333.277 165.621C329.866 161.144 327.478 155.975 326.281 150.476C325.831 148.472 325.693 146.41 325.874 144.364C325.981 146.393 326.23 148.413 326.621 150.408C327.953 155.803 330.412 160.855 333.837 165.231C337.929 170.935 344.177 176.572 350.493 183.466C353.853 187.048 356.746 191.041 359.101 195.351C361.52 200.07 362.979 205.222 363.396 210.508C363.813 215.794 363.178 221.111 361.529 226.151C359.889 230.79 357.603 235.174 354.738 239.174C349.407 246.831 343.922 253.232 340.883 259.548C338.24 264.429 336.851 269.89 336.842 275.44C336.937 277.475 337.238 279.494 337.742 281.468Z" fill="black"/>
<path d="M301.611 135.534C296.161 131.663 289.131 130.797 282.442 130.899C264.461 131.154 246.192 138.03 234.137 151.41C223.95 162.684 209.008 184.366 206.173 199.256C199.262 235.506 222.167 245.659 203.507 302.25C200.111 312.437 195.901 322.404 193.829 332.948C193.076 336.697 192.729 340.517 192.793 344.341C190.603 350.979 191.944 358.62 194.644 365.208C197.802 372.95 202.658 379.911 205.697 387.705C208.737 395.498 215.409 408.283 210.961 415.346C217.26 413.648 217.481 407.094 222.472 402.901C223.948 408.528 223.901 414.446 222.337 420.049C230.161 419.512 237.593 416.423 243.492 411.254C255.14 401.067 258.773 384.513 260.59 369.096C264.495 335.376 260.675 303.065 251.744 270.33L251.574 270.499C245.088 249.565 232.779 230.226 243.832 225.624C263.069 217.593 245.53 209.138 252.831 188.899C255.123 182.583 257.67 175.893 263.018 171.92C269.436 167.132 278.112 167.387 286.109 166.945C294.106 166.504 303.173 164.399 306.925 157.335L307.418 153.091C310.321 146.995 307.061 139.406 301.611 135.534Z" fill="black"/>
<path d="M214.781 269.549C215.309 269.14 215.777 268.66 216.174 268.122C217.143 266.444 217.526 264.49 217.26 262.57C216.717 257.477 214.187 250.685 210.876 242.196C209.007 237.595 207.564 232.832 206.564 227.967C205.311 222.004 205.857 215.803 208.133 210.15C210.409 204.498 214.313 199.648 219.349 196.217C224.765 192.312 232.168 191.718 236.701 186.42C241.353 181.326 243.493 174.773 245.462 168.626C246.405 165.548 247.539 162.531 248.858 159.594C250.171 156.791 251.764 154.129 253.612 151.647C257.026 147.044 261.263 143.112 266.108 140.051C268.287 138.606 270.652 137.463 273.138 136.655C275.447 135.958 277.861 135.676 280.269 135.823C284.364 136.158 288.378 137.156 292.154 138.777C295.047 139.898 297.881 141.168 300.643 142.581C302.401 143.479 303.929 144.768 305.109 146.35C305.482 146.933 305.752 147.577 305.907 148.252C305.599 147.664 305.253 147.096 304.871 146.554C303.656 145.051 302.126 143.834 300.389 142.988C298.148 141.817 295.295 140.662 291.899 139.338C288.157 137.788 284.19 136.848 280.15 136.553C277.813 136.426 275.473 136.719 273.24 137.419C270.841 138.214 268.557 139.321 266.448 140.713C259.101 145.412 253.246 152.109 249.571 160.018C248.266 162.932 247.132 165.92 246.175 168.966C244.172 175.095 242.083 181.836 237.244 187.082C234.837 189.614 231.872 191.55 228.585 192.736C225.483 193.82 222.515 195.256 219.739 197.015C214.828 200.345 211.015 205.057 208.781 210.554C206.548 216.052 205.995 222.088 207.192 227.9C208.15 232.731 209.548 237.466 211.369 242.043C214.595 250.532 217.056 257.477 217.498 262.604C217.745 264.585 217.295 266.59 216.224 268.275C215.916 268.689 215.544 269.05 215.121 269.345L214.781 269.549Z" fill="black"/>
<path d="M242.813 228.375C242.338 221.583 234.85 217.237 229.06 220.751C225.868 222.687 223.474 226.49 223.967 233.689C225.172 252.858 244.172 247.697 244.172 247.137C244.172 246.576 243.391 236.304 242.813 228.375Z" fill="#FFBE9D"/>
<path d="M237.822 240.243C237.737 240.243 237.499 240.498 236.956 240.786C236.182 241.175 235.289 241.254 234.46 241.007C232.388 240.379 230.487 237.272 230.181 233.825C230.023 232.185 230.238 230.531 230.809 228.986C230.949 228.377 231.235 227.81 231.644 227.337C232.052 226.864 232.57 226.497 233.152 226.269C233.53 226.139 233.941 226.146 234.313 226.289C234.686 226.432 234.996 226.702 235.19 227.05C235.478 227.577 235.377 227.967 235.478 227.984C235.58 228.001 235.869 227.645 235.665 226.864C235.53 226.399 235.243 225.992 234.85 225.709C234.293 225.347 233.618 225.213 232.966 225.336C232.189 225.544 231.477 225.946 230.898 226.505C230.319 227.063 229.891 227.759 229.655 228.528C228.943 230.239 228.663 232.099 228.84 233.944C229.196 237.798 231.403 241.296 234.222 241.924C234.746 242.037 235.288 242.033 235.811 241.913C236.333 241.792 236.822 241.559 237.244 241.228C237.822 240.701 237.889 240.277 237.822 240.243Z" fill="#EB996E"/>
<path d="M245.122 253.334C245.122 253.334 245.258 253.707 245.122 254.387C244.848 255.347 244.247 256.181 243.424 256.747C242.793 257.159 242.075 257.418 241.326 257.504C240.577 257.589 239.819 257.499 239.111 257.239C238.24 256.935 237.445 256.445 236.783 255.803C236.12 255.161 235.605 254.382 235.274 253.521C234.704 251.993 234.561 250.338 234.86 248.735C235.159 247.131 235.89 245.64 236.972 244.42C237.376 243.885 237.886 243.44 238.47 243.113C239.055 242.785 239.701 242.583 240.368 242.518C239.261 243.102 238.271 243.885 237.448 244.828C236.616 245.883 236.035 247.114 235.75 248.427C235.401 250.011 235.519 251.663 236.089 253.181C236.366 253.926 236.799 254.604 237.358 255.169C237.917 255.734 238.59 256.173 239.332 256.458C239.924 256.706 240.565 256.812 241.205 256.768C241.844 256.724 242.465 256.53 243.017 256.203C243.765 255.752 244.358 255.083 244.715 254.285C245.02 253.691 245.054 253.317 245.122 253.334Z" fill="white"/>
<path d="M303.004 155.162C301.765 153.9 300.406 152.763 298.946 151.766C294.764 149.29 289.882 148.264 285.057 148.846C281.742 149.159 278.519 150.111 275.566 151.647C272.209 153.487 269.166 155.848 266.55 158.643C263.645 161.758 261.078 165.173 258.893 168.83C256.549 172.582 254.444 176.657 252.254 180.834C250.063 185.011 247.856 189.069 245.462 192.719C243.122 196.332 240.383 199.67 237.295 202.669C234.375 205.538 231.472 208.102 228.959 210.7C226.589 213.055 224.545 215.716 222.88 218.612C220.432 222.819 219.57 227.764 220.452 232.552C220.884 234.275 221.595 235.915 222.558 237.408C222.249 237.06 221.966 236.691 221.709 236.304C220.993 235.172 220.46 233.934 220.13 232.637C219.088 227.756 219.873 222.663 222.337 218.323C223.98 215.347 226.031 212.615 228.432 210.208C230.945 207.542 233.849 204.961 236.735 202.092C239.755 199.108 242.442 195.807 244.749 192.244C247.177 188.543 249.35 184.502 251.541 180.359C253.731 176.216 255.853 172.107 258.213 168.321C260.456 164.663 263.074 161.249 266.024 158.133C268.711 155.288 271.842 152.897 275.294 151.053C278.317 149.509 281.608 148.558 284.989 148.252C289.923 147.697 294.9 148.821 299.115 151.444C300.221 152.195 301.23 153.079 302.121 154.075C302.443 154.414 302.738 154.777 303.004 155.162Z" fill="black"/>
<path d="M158.53 362.712L162.096 345.496L129.327 330.521L128.478 333.339C123.792 348.943 100.429 424.142 99.0025 429.762C93.7221 450.629 94.8936 491.922 103.23 499.647C109.886 505.827 122.671 510.378 131.127 509.444C139.582 508.51 162.877 478.508 162.877 478.508L184.27 410.016L158.53 362.712Z" fill="#FFBE9D"/>
<path d="M159.974 352.474C159.958 352.919 159.906 353.361 159.821 353.798C159.651 354.749 159.447 356.005 159.176 357.602C158.564 360.997 157.715 365.7 156.68 371.507C155.644 377.314 154.388 384.377 153.284 392.187C152.076 400.625 151.413 409.132 151.297 417.656C151.238 426.19 152.202 434.7 154.167 443.005C156.035 450.646 157.732 457.675 157.563 463.736C157.588 468.494 156.37 473.176 154.031 477.319C153.191 478.848 152.074 480.207 150.737 481.326C155.046 476.479 157.272 470.129 156.934 463.651C157.036 457.709 155.237 450.781 153.386 443.141C151.343 434.779 150.344 426.196 150.415 417.588C150.528 409.011 151.22 400.451 152.486 391.967C153.59 384.139 154.897 377.144 156.018 371.286C157.138 365.429 158.123 360.794 158.802 357.432C159.142 355.853 159.396 354.613 159.6 353.662C159.694 353.257 159.818 352.86 159.974 352.474Z" fill="#EB996E"/>
<path d="M193.847 317.022L187.497 309.992V301.639L180.892 292.165L167.801 294.27L163.777 294.61L166.46 275.423C167.967 270.507 169.946 265.748 172.368 261.212C177.055 251.84 169.516 247.544 169.516 247.544L155.424 272.198L150.737 288.582L148.734 275.22C148.734 275.22 151.111 262.214 150.771 255.524C150.432 248.835 143.708 249.785 143.708 249.785L138.36 279.227V293.947L133.674 285.237C133.674 285.237 132.672 277.885 131.976 271.196C131.28 264.506 125.948 266.51 125.948 266.51V288.26L131.976 308.329C131.976 308.329 128.02 334.221 127.357 335.223L158.361 356.922C158.361 356.922 165.152 351.828 166.46 351.472C167.767 351.115 184.525 338.755 184.525 338.755L196.224 326.377C196.224 326.377 198.227 325.036 198.227 323.711C198.227 322.387 193.847 317.022 193.847 317.022ZM177.802 325.036L171.112 322.03L167.462 312.947L170.178 307.989L171.146 306.291L172.368 305.442L176.817 306.291C176.817 306.291 178.837 312.658 178.515 315.663C178.192 318.669 182.199 321.674 182.199 321.674L177.802 325.036Z" fill="#FFBE9D"/>
<path d="M172.369 305.459C172.369 305.561 171.757 305.612 170.824 305.323C169.628 304.914 168.57 304.179 167.769 303.201C166.968 302.223 166.456 301.041 166.29 299.788C166.171 298.821 166.29 298.243 166.46 298.26C166.859 299.829 167.538 301.313 168.464 302.641C169.591 303.801 170.913 304.755 172.369 305.459Z" fill="#EB996E"/>
<path d="M189.584 322.795C189.366 321.178 189.366 319.539 189.584 317.922C189.518 316.287 189.655 314.65 189.992 313.049C190.524 314.656 190.681 316.363 190.45 318.04C190.523 319.67 190.227 321.295 189.584 322.795Z" fill="#EB996E"/>
<path d="M179.261 335.444C179.261 335.444 178.412 334.9 177.461 333.61C176.157 331.886 175.551 329.734 175.763 327.582C175.878 326.925 176.165 326.31 176.595 325.8C176.986 325.375 177.393 324.985 177.784 324.628C178.477 324.023 179.202 323.456 179.957 322.93C181.231 322.013 182.164 321.589 182.232 321.725C181.653 322.342 181.022 322.91 180.348 323.423C179.753 323.932 179.057 324.543 178.344 325.256C177.96 325.62 177.598 326.006 177.257 326.411C176.93 326.797 176.719 327.268 176.646 327.769C176.515 328.815 176.619 329.876 176.952 330.876C177.216 331.726 177.581 332.541 178.038 333.304C178.519 333.973 178.929 334.69 179.261 335.444Z" fill="#EB996E"/>
<path d="M187.548 309.144C187.653 311.633 186.864 314.078 185.324 316.037C184.733 316.855 183.945 317.51 183.032 317.939C182.265 318.285 181.406 318.368 180.587 318.176C179.143 317.803 178.77 316.835 178.889 316.818C179.008 316.801 179.5 317.412 180.705 317.565C181.394 317.639 182.089 317.516 182.709 317.209C183.468 316.793 184.123 316.213 184.628 315.511C185.829 313.501 186.809 311.366 187.548 309.144Z" fill="#EB996E"/>
<path d="M178.565 315.205C178.361 315.205 177.868 312.25 176.867 308.634C176.469 307.07 176.174 305.482 175.984 303.88C175.865 302.64 175.984 301.859 176.069 301.859C176.154 301.859 176.323 302.589 176.612 303.778C177.002 305.476 177.359 306.885 177.733 308.43C178.7 312.064 178.819 315.205 178.565 315.205Z" fill="#EB996E"/>
<path d="M189.585 324.832C186.847 324.619 184.216 323.681 181.961 322.115C181.02 321.568 180.181 320.861 179.482 320.027C178.925 319.313 178.536 318.484 178.345 317.599C178.106 316.81 178.154 315.962 178.48 315.205C178.633 315.205 178.48 316.122 178.956 317.446C179.56 319.126 180.772 320.519 182.352 321.351C186.155 323.694 189.653 324.509 189.585 324.832Z" fill="#EB996E"/>
<path d="M162.011 332.234C158.166 325.254 151.933 319.895 144.455 317.14C145.632 317.221 146.783 317.521 147.851 318.023C153.221 320.13 157.716 323.997 160.602 328.991C161.267 329.977 161.744 331.076 162.011 332.234Z" fill="#EB996E"/>
<path d="M150.805 301.061C150.805 301.333 148.36 301.537 145.524 302.522C142.689 303.506 140.634 304.848 140.431 304.644C141.681 303.202 143.338 302.172 145.185 301.69C146.954 300.927 148.911 300.709 150.805 301.061Z" fill="#EB996E"/>
<path d="M204.543 673.884C204.543 673.884 105.353 701.338 101.363 702.748C95.3861 704.853 96.4049 726.756 105.692 726.416C110.09 726.246 181.893 729.082 190.96 728.522C200.027 727.961 224.442 718.334 224.442 718.334L204.543 673.884Z" fill="black"/>
<path d="M163.285 711.729C162.776 711.729 162.113 706.551 158.904 701.084C155.695 695.616 151.586 692.339 151.892 691.949C152.198 691.558 156.986 694.36 160.382 700.252C163.777 706.143 163.641 711.78 163.285 711.729Z" fill="black"/>
<path d="M173.573 707.043C173.081 707.128 172.079 702.442 169.43 697.263C166.782 692.085 163.674 688.451 164.031 688.112C164.388 687.772 168.174 691.032 170.924 696.601C173.675 702.17 173.998 707.009 173.573 707.043Z" fill="black"/>
<path d="M183.269 704.446C182.776 704.446 183.15 699.454 180.943 693.97C178.735 688.486 175.204 685.056 175.543 684.682C175.883 684.309 180.196 687.382 182.505 693.358C184.814 699.335 183.659 704.582 183.269 704.446Z" fill="black"/>
<path d="M181.503 691.576C181.333 691.576 180.45 688.859 180.45 684.207C180.463 681.477 180.799 678.759 181.452 676.108C181.83 674.54 182.324 673.002 182.929 671.507C183.231 670.571 183.776 669.733 184.508 669.079C185.004 668.704 185.616 668.516 186.237 668.547C186.858 668.578 187.448 668.826 187.904 669.248C188.68 669.984 189.152 670.983 189.228 672.05C189.331 672.918 189.376 673.791 189.364 674.665C189.335 676.302 189.125 677.93 188.736 679.521C188.081 682.18 187.058 684.734 185.697 687.11C183.371 691.134 181.384 693.189 181.231 693.087C181.078 692.985 182.674 690.608 184.627 686.567C185.795 684.22 186.673 681.74 187.242 679.181C187.558 677.696 187.717 676.183 187.717 674.665C187.717 673.137 187.717 671.269 186.8 670.488C186.637 670.306 186.41 670.194 186.167 670.176C185.924 670.157 185.682 670.232 185.493 670.386C184.995 670.853 184.622 671.436 184.406 672.084C183.805 673.508 183.3 674.972 182.895 676.464C182.204 678.996 181.766 681.589 181.588 684.207C181.333 688.791 181.775 691.576 181.503 691.576Z" fill="black"/>
<path d="M181.639 690.625C181.639 690.438 183.982 689.623 188.04 689.589C190.41 689.585 192.771 689.876 195.069 690.455C196.486 690.758 197.852 691.261 199.127 691.949C199.947 692.354 200.61 693.017 201.015 693.836C201.421 694.656 201.545 695.586 201.368 696.483C201.14 697.337 200.688 698.116 200.058 698.737C199.428 699.358 198.643 699.799 197.786 700.014C196.325 700.38 194.797 700.38 193.337 700.014C190.99 699.426 188.796 698.344 186.902 696.839C185.093 695.63 183.526 694.092 182.284 692.306C182.454 692.085 184.338 693.715 187.564 695.871C189.409 697.13 191.478 698.023 193.66 698.503C194.864 698.8 196.123 698.8 197.327 698.503C197.901 698.358 198.427 698.065 198.853 697.654C199.279 697.243 199.59 696.728 199.755 696.16C199.848 695.598 199.754 695.021 199.487 694.518C199.22 694.015 198.795 693.613 198.278 693.375C197.141 692.762 195.932 692.294 194.678 691.983C192.492 691.374 190.252 690.981 187.989 690.812C184.101 690.489 181.673 690.897 181.639 690.625Z" fill="black"/>
<path d="M148.004 712.799C147.511 712.799 148.004 708.503 146.051 703.851C144.099 699.199 140.873 696.465 141.195 696.075C141.518 695.684 145.491 698.027 147.579 703.223C149.668 708.418 148.377 712.969 148.004 712.799Z" fill="black"/>
<path d="M217.209 717.366C215.997 718.105 214.711 718.714 213.372 719.183C209.767 720.56 206.074 721.694 202.319 722.579C192.844 724.973 179.312 726.331 164.456 726.178C149.599 726.025 136.186 725.329 126.474 724.939L114.979 724.327C113.564 724.331 112.152 724.183 110.769 723.886C112.166 723.667 113.584 723.599 114.996 723.682L126.508 723.767L164.456 724.514C177.065 724.828 189.673 723.798 202.064 721.441C211.555 719.505 217.09 717.044 217.209 717.366Z" fill="black"/>
<path d="M220.129 719.641C219.993 719.862 217.294 718.283 212.709 716.246C206.863 713.476 200.358 712.399 193.931 713.139C186.46 714.276 181.163 719.302 177.699 722.783C174.235 726.263 172.181 728.793 171.994 728.623C173.308 726.203 174.941 723.97 176.85 721.985C178.791 719.685 180.997 717.622 183.421 715.838C186.424 713.602 189.916 712.112 193.608 711.492C200.343 710.672 207.166 711.966 213.134 715.193C217.752 717.536 220.231 719.472 220.129 719.641Z" fill="black"/>
<path d="M120.616 723.92C120.446 723.801 121.278 722.494 122.059 720.185C123.114 717.194 123.366 713.979 122.791 710.86C122.217 707.74 120.834 704.827 118.783 702.408C117.22 700.523 115.964 699.59 116.1 699.42C116.236 699.25 117.662 699.946 119.496 701.763C121.875 704.191 123.47 707.277 124.076 710.622C124.681 713.967 124.269 717.417 122.891 720.524C121.89 722.885 120.735 724.022 120.616 723.92Z" fill="black"/>
<path d="M194.882 533.757L177.071 577.664C177.071 577.664 88.4756 545.252 36.6221 554.692C16.9097 558.291 -4.12716 603.031 24.5332 631.759C52.5653 659.791 102.636 699.403 196.733 712.239C199.076 712.561 237.601 720.83 235.224 720.541C232.847 720.253 289.234 729.184 289.234 729.184L302.511 679.147L407.559 695.633C469.464 691.406 499.755 625.205 462.486 603.947C427.696 584.065 362.311 582.469 362.311 582.469L346.249 538.698L194.882 533.757Z" fill="black"/>
<path d="M291.322 731L293.869 715.396C294.718 710.405 295.737 704.326 297.061 697.331C297.74 693.833 298.47 690.098 299.37 686.176C299.812 684.206 300.304 682.203 300.864 680.148C301.17 679.13 301.476 678.094 301.849 677.058C302.178 675.935 302.72 674.886 303.445 673.968L303.598 674.732C281.237 666.786 253.29 656.31 223.492 643.746C205.172 635.952 187.836 628.091 172.691 619.89C165.434 616.109 158.47 611.79 151.858 606.969C145.678 602.402 140.176 597.852 135.015 593.879C124.828 585.814 115.523 580.601 108.596 578.394C107.079 577.844 105.532 577.384 103.961 577.019C102.845 576.699 101.711 576.449 100.565 576.272L98.4254 575.881C98.1767 575.851 97.9319 575.794 97.6953 575.711C97.9438 575.689 98.1939 575.689 98.4424 575.711L100.616 576C101.795 576.137 102.963 576.352 104.113 576.645C105.7 576.974 107.265 577.399 108.8 577.919C113.035 579.281 117.111 581.097 120.956 583.335C126.048 586.278 130.927 589.574 135.558 593.199C140.771 597.139 146.306 601.689 152.537 606.171C159.144 610.923 166.09 615.185 173.319 618.922C188.498 627.038 205.783 634.866 224.069 642.693C253.833 655.24 281.797 665.801 304.039 673.866L304.651 674.087L304.192 674.613C303.581 675.439 303.116 676.364 302.817 677.347C302.443 678.348 302.138 679.367 301.832 680.369C301.255 682.389 300.763 684.393 300.304 686.346C299.387 690.251 298.606 693.969 297.927 697.45C296.535 704.428 295.431 710.489 294.531 715.481C293.631 720.473 292.833 724.259 292.392 726.976C292.137 728.3 291.934 729.302 291.764 729.981C291.645 730.333 291.498 730.673 291.322 731Z" fill="black"/>
<path d="M442.043 609.941H441.483L439.785 609.67C438.342 609.483 436.254 608.939 433.503 608.685C425.783 607.654 417.982 607.375 410.208 607.853C398.702 608.588 387.298 610.471 376.165 613.473C369.866 615.171 363.312 617.14 356.606 619.466C349.899 621.792 343.023 624.458 336.044 627.26C329.201 629.97 322.205 632.277 315.092 634.17C308.216 636.072 301.509 637.566 295.074 638.788C282.221 641.301 270.54 642.846 260.726 644.035C250.912 645.223 242.949 646.038 237.448 646.599L231.115 647.227L229.417 647.363H228.84L229.4 647.244L231.098 647.006L237.414 646.174L260.641 643.254C270.438 641.946 282.086 640.316 294.888 637.77C301.289 636.513 307.978 635.002 314.821 633.1C321.891 631.203 328.847 628.901 335.654 626.207C342.649 623.422 349.526 620.74 356.266 618.414C363.007 616.088 369.595 614.118 375.928 612.454C387.15 609.479 398.649 607.664 410.242 607.038C418.067 606.636 425.912 607.034 433.656 608.226C436.406 608.566 438.478 609.177 439.904 609.432L441.602 609.805C441.755 609.828 441.904 609.874 442.043 609.941Z" fill="black"/>
<path d="M280.218 591.926C280.218 592.673 275.532 593.862 267.654 594.592C247.074 596.251 226.366 594.017 206.615 588.004C199.076 585.627 194.73 583.437 194.899 582.724C195.392 581.145 214.001 586.12 237.346 588.531C260.692 590.942 280.082 590.262 280.218 591.926Z" fill="black"/>
<path d="M363.262 583.131C362.159 583.539 361.023 583.851 359.866 584.065C358.729 584.302 357.37 584.642 355.808 585.117C354.246 585.593 352.413 586.051 350.494 586.815C345.929 588.339 341.451 590.113 337.081 592.13C332.174 594.456 326.893 597.223 321.494 600.466C312.335 606.052 303.549 612.228 295.194 618.956C291.968 621.52 289.404 623.642 287.638 625.137C286.751 625.944 285.803 626.682 284.803 627.344C285.573 626.419 286.425 625.567 287.35 624.797C289.047 623.218 291.526 620.994 294.684 618.345C302.935 611.402 311.704 605.102 320.917 599.498C326.011 596.452 331.265 593.68 336.656 591.196C341.074 589.218 345.61 587.516 350.239 586.102C352.209 585.44 354.026 585.016 355.622 584.625C357.218 584.234 358.61 583.912 359.747 583.742C360.902 583.449 362.077 583.244 363.262 583.131Z" fill="black"/>
<path d="M264.785 627.276C262.641 626.945 260.548 626.346 258.553 625.494C253.696 623.632 248.951 621.489 244.342 619.076L230.555 611.86C228.602 610.967 226.713 609.94 224.901 608.786C226.984 609.354 228.999 610.145 230.912 611.146C234.545 612.844 239.401 615.306 244.852 618.074C250.302 620.841 255.192 623.168 258.859 624.747C262.527 626.326 264.836 627.056 264.785 627.276Z" fill="black"/>
<path d="M274.36 536.338C274.53 536.338 274.224 540.379 273.902 546.882C273.579 553.385 273.273 562.366 273.426 572.35C273.579 582.334 274.156 591.265 274.7 597.733C275.243 604.202 275.65 608.209 275.481 608.243C275.193 607.35 275.005 606.428 274.92 605.493C274.615 603.693 274.258 601.095 273.902 597.852C273.155 591.383 272.458 582.368 272.204 572.384C271.949 562.4 272.475 553.368 273.019 546.916C273.29 543.656 273.562 541.041 273.8 539.241C273.886 538.257 274.074 537.284 274.36 536.338Z" fill="black"/>
<path d="M284.225 553.554C284.225 553.656 283.851 553.894 283.308 554.539C282.543 555.451 282.059 556.566 281.916 557.748C281.792 558.592 281.849 559.452 282.083 560.271C282.317 561.091 282.723 561.852 283.274 562.502C284.029 563.177 284.953 563.633 285.947 563.823C286.942 564.013 287.969 563.929 288.919 563.58C289.869 563.231 290.707 562.631 291.343 561.843C291.978 561.055 292.388 560.109 292.527 559.107C292.528 558.256 292.345 557.414 291.99 556.641C291.635 555.867 291.118 555.179 290.473 554.624C289.592 553.826 288.503 553.296 287.332 553.096C286.5 552.977 286.007 553.096 285.99 552.96C285.973 552.824 286.449 552.672 287.366 552.655C288.686 552.708 289.953 553.184 290.982 554.013C291.767 554.615 292.408 555.384 292.858 556.266C293.307 557.147 293.554 558.118 293.58 559.107C293.465 560.335 293.005 561.505 292.254 562.484C291.503 563.462 290.492 564.209 289.335 564.638C288.179 565.067 286.925 565.161 285.718 564.91C284.51 564.658 283.398 564.071 282.51 563.215C281.876 562.447 281.424 561.546 281.186 560.579C280.948 559.612 280.93 558.604 281.135 557.629C281.365 556.326 282.015 555.134 282.985 554.234C283.322 553.889 283.753 553.653 284.225 553.554Z" fill="black"/>
<path d="M303.089 677.772C303.089 677.772 403.757 693.053 407.832 693.987C413.961 695.345 415.54 716.976 406.372 717.757C402.025 718.114 331.834 729.337 322.853 729.846C313.871 730.355 285.72 723.054 285.72 723.054L303.089 677.772Z" fill="black"/>
<path d="M348.133 710.099C348.625 710.099 348.676 704.87 351.172 699.114C353.668 693.358 357.335 689.674 356.996 689.317C356.656 688.96 352.259 692.288 349.661 698.469C347.063 704.649 347.725 710.252 348.133 710.099Z" fill="black"/>
<path d="M337.42 706.704C337.912 706.704 338.336 702 340.323 696.516C342.309 691.032 344.958 687.195 344.568 686.906C344.177 686.618 340.832 690.302 338.778 695.956C336.723 701.61 336.995 706.738 337.42 706.704Z" fill="black"/>
<path d="M327.589 705.295C328.081 705.21 327.113 700.388 328.624 694.734C330.136 689.08 333.226 685.293 332.852 684.971C332.479 684.648 328.607 688.163 327.045 694.309C325.483 700.456 327.215 705.481 327.589 705.295Z" fill="black"/>
<path d="M327.809 692.51C327.996 692.51 328.522 689.708 327.979 685.124C327.647 682.447 326.997 679.819 326.043 677.296C325.488 675.801 324.824 674.348 324.057 672.95C323.641 672.067 323.003 671.306 322.206 670.743C321.665 670.415 321.024 670.293 320.401 670.399C319.777 670.505 319.212 670.832 318.81 671.32C318.144 672.137 317.799 673.17 317.842 674.223C317.852 675.087 317.914 675.948 318.029 676.804C318.239 678.411 318.632 679.99 319.201 681.507C320.16 684.043 321.468 686.432 323.089 688.604C325.84 692.289 328.047 694.072 328.183 693.936C328.318 693.8 326.485 691.695 324.074 687.942C322.664 685.78 321.524 683.454 320.678 681.015C320.189 679.589 319.854 678.114 319.676 676.617C319.54 675.106 319.286 673.222 320.084 672.407C320.227 672.214 320.436 672.081 320.671 672.034C320.907 671.987 321.151 672.029 321.357 672.152C321.911 672.559 322.35 673.103 322.631 673.731C323.385 675.06 324.049 676.438 324.617 677.857C325.595 680.263 326.334 682.76 326.824 685.31C327.656 689.691 327.537 692.493 327.809 692.51Z" fill="black"/>
<path d="M327.572 691.575C327.572 691.389 325.144 690.862 321.154 691.321C318.828 691.598 316.546 692.169 314.362 693.019C313.009 693.488 311.729 694.145 310.559 694.971C309.797 695.462 309.217 696.19 308.911 697.043C308.604 697.897 308.586 698.827 308.861 699.691C309.187 700.502 309.721 701.212 310.41 701.749C311.099 702.285 311.918 702.63 312.783 702.747C314.26 702.924 315.758 702.737 317.147 702.204C319.389 701.358 321.422 700.038 323.107 698.333C324.76 696.92 326.126 695.202 327.131 693.273C326.927 693.086 325.28 694.971 322.359 697.416C320.694 698.867 318.77 699.99 316.689 700.727C315.528 701.129 314.29 701.256 313.072 701.1C312.489 701.028 311.936 700.801 311.47 700.443C311.004 700.084 310.643 699.608 310.423 699.063C310.261 698.526 310.283 697.95 310.486 697.427C310.689 696.904 311.062 696.463 311.544 696.177C312.597 695.439 313.738 694.834 314.94 694.377C317.013 693.513 319.169 692.864 321.375 692.441C325.127 691.694 327.555 691.796 327.572 691.575Z" fill="black"/>
<path d="M363.227 709.352C363.703 709.233 362.735 705.124 364.093 700.336C365.452 695.548 368.304 692.475 367.964 692.135C367.625 691.796 363.957 694.546 362.514 699.895C361.071 705.243 362.854 709.573 363.227 709.352Z" fill="black"/>
<path d="M295.72 721.984C296.998 722.568 298.336 723.012 299.71 723.309C303.406 724.248 307.161 724.94 310.95 725.38C323.483 726.585 336.117 726.271 348.575 724.446C363.16 722.528 376.25 720.286 385.742 718.775L396.965 716.823C398.349 716.638 399.713 716.325 401.04 715.889C399.641 715.84 398.241 715.937 396.863 716.178L385.572 717.621L348.354 722.816C335.988 724.611 323.466 725.078 311.001 724.209C301.577 723.411 295.856 721.679 295.72 721.984Z" fill="black"/>
<path d="M293.156 724.548C293.326 724.769 295.805 722.85 300.067 720.371C305.474 716.951 311.734 715.121 318.132 715.091C325.62 715.345 331.41 719.658 335.213 722.663C337.195 724.502 339.299 726.204 341.512 727.757C341.648 727.604 339.678 725.227 335.96 721.797C333.776 719.773 331.366 718.007 328.778 716.534C325.55 714.678 321.921 713.629 318.2 713.478C311.512 713.478 304.988 715.548 299.523 719.403C297.148 720.779 295 722.514 293.156 724.548Z" fill="black"/>
<path d="M360.749 425.007C360.375 427.486 359.051 494.62 363.075 500.716C369.374 510.394 389.681 527.712 402.313 522.975C422.79 515.284 427.425 471.937 427.068 479.985L410.837 343.016H379.63L377.032 392.136L367.931 397.688C367.337 403.398 366.2 409.037 364.535 414.531L360.749 425.007Z" fill="#FFBE9D"/>
<path d="M379.629 342.948C379.629 342.948 367.167 330.622 367.167 327.888C367.167 325.155 362.294 323.626 362.294 323.626L354.381 319.738C354.381 319.738 349.288 314.882 350.425 312.149C351.086 310.566 352.291 309.272 353.821 308.498C353.821 308.498 354.229 301.809 359.204 300.009C359.204 300.009 354.534 294.915 359.204 291.197C363.873 287.478 364.993 289.058 364.993 289.058C364.993 289.058 364.467 285.101 367.218 284.813C369.968 284.524 389.494 279.634 389.494 279.634C392.302 281.04 394.93 282.778 397.321 284.813C399.749 287.241 400.971 288.752 400.971 288.752C403.115 286.023 404.759 282.936 405.827 279.634C407.05 275.067 408.884 261.382 422.569 261.993V265.389C419.878 269.445 418.015 273.991 417.084 278.768C415.268 287.258 411.991 306.121 411.991 306.121L410.955 343.101L379.629 342.948Z" fill="#FFBE9D"/>
<path d="M367.608 479.578C367.48 479.127 367.389 478.667 367.336 478.202C367.2 477.285 366.929 475.961 366.81 474.212C366.309 469.298 366.235 464.35 366.589 459.424C367.122 452.12 368.103 444.857 369.526 437.674C371.004 429.558 372.922 420.695 374.501 411.322C377.422 392.527 377.795 375.259 378.27 362.797C378.491 356.634 378.661 351.608 378.797 348.042L379.001 344.018C379.011 343.552 379.051 343.087 379.119 342.626C379.163 343.095 379.163 343.566 379.119 344.035C379.119 345.037 379.119 346.361 379.119 348.042C379.119 351.625 378.984 356.651 378.882 362.814C378.788 379.077 377.62 395.316 375.384 411.424C373.873 420.848 371.836 429.694 370.29 437.793C368.837 444.937 367.8 452.159 367.183 459.424C366.8 464.323 366.8 469.245 367.183 474.144C367.268 475.842 367.472 477.234 367.54 478.134C367.61 478.612 367.633 479.095 367.608 479.578Z" fill="#EB996E"/>
<path d="M389.392 286.969C389.392 287.088 388.034 287.054 385.86 287.325C383.687 287.597 380.665 287.937 377.371 288.242C373.351 288.754 369.299 288.97 365.248 288.887C369.225 288.094 373.254 287.584 377.303 287.359C380.699 287.054 383.653 286.833 385.792 286.714C386.996 286.523 388.227 286.61 389.392 286.969Z" fill="#EB996E"/>
<path d="M383.636 301.571C382.464 301.646 381.287 301.607 380.122 301.452C377.965 301.316 375.028 301.265 371.632 301.18C368.792 301.149 365.957 300.939 363.143 300.552C361.971 300.45 360.824 300.158 359.747 299.686C360.923 299.664 362.099 299.743 363.262 299.924C365.418 300.111 368.355 300.23 371.751 300.297C375.147 300.365 378.084 300.535 380.241 300.824C381.405 300.892 382.551 301.144 383.636 301.571Z" fill="#EB996E"/>
<path d="M379.154 313.371C377.93 313.38 376.709 313.238 375.52 312.947C373.313 312.573 370.291 311.996 367.031 311.249C363.771 310.502 360.681 309.891 358.541 309.364C357.374 309.146 356.236 308.798 355.146 308.328C356.358 308.322 357.567 308.464 358.745 308.753C360.952 309.126 363.975 309.704 367.319 310.451C370.664 311.198 373.652 311.809 375.809 312.352C376.96 312.56 378.083 312.902 379.154 313.371Z" fill="#EB996E"/>
</g>
<defs>
<filter id="filter0_d" x="0.515625" y="0" width="508.242" height="761" filterUnits="userSpaceOnUse" color-interpolation-filters="sRGB">
<feFlood flood-opacity="0" result="BackgroundImageFix"/>
<feColorMatrix in="SourceAlpha" type="matrix" values="0 0 0 0 0 0 0 0 0 0 0 0 0 0 0 0 0 0 127 0"/>
<feOffset dx="10" dy="10"/>
<feGaussianBlur stdDeviation="10"/>
<feColorMatrix type="matrix" values="0 0 0 0 0 0 0 0 0 0 0 0 0 0 0 0 0 0 0.15 0"/>
<feBlend mode="normal" in2="BackgroundImageFix" result="effect1_dropShadow"/>
<feBlend mode="normal" in="SourceGraphic" in2="effect1_dropShadow" result="shape"/>
</filter>
</defs>
</svg>
