<svg width="382" height="180" viewBox="0 0 382 180" fill="none" xmlns="http://www.w3.org/2000/svg">
<path d="M6.79785 24.713C6.9986 24.7547 7.19393 24.8191 7.38009 24.9049C7.74109 25.0386 8.2651 25.2538 8.90557 25.5212C10.1923 26.0562 11.9449 26.847 13.8605 27.754L18.763 30.0798L20.2535 30.7776C20.442 30.8502 20.6217 30.9438 20.7892 31.0567C20.589 31.0157 20.3938 30.9533 20.2069 30.8706C19.8401 30.7311 19.3219 30.5218 18.6814 30.2427C17.4005 29.6903 15.6596 28.882 13.744 27.975L8.82406 25.6492C8.24181 25.3701 7.73526 25.1433 7.33351 24.9572C7.14702 24.8945 6.96751 24.8126 6.79785 24.713V24.713Z" fill="#E0E0E0"/>
<path d="M29.4814 50.6866C29.5846 50.5067 29.7077 50.339 29.8483 50.1865L30.9021 48.8782C31.7871 47.7735 33.0098 46.2443 34.2966 44.5057C35.5833 42.7672 36.6954 41.1565 37.4931 39.982L38.4363 38.5981C38.5372 38.4171 38.6626 38.2508 38.809 38.1039C38.7313 38.2946 38.6357 38.4776 38.5237 38.6505C38.3199 38.9935 38.0229 39.4877 37.6445 40.0866C36.8876 41.2844 35.7988 42.9183 34.5062 44.6627C33.2136 46.4071 31.9676 47.9188 31.0127 48.9945C30.5469 49.5353 30.1685 49.9656 29.8948 50.2505C29.773 50.4102 29.6345 50.5564 29.4814 50.6866V50.6866Z" fill="#E0E0E0"/>
<path d="M15.123 48.2911C15.3178 48.2784 15.5134 48.2901 15.7053 48.326L17.2482 48.5237C18.5525 48.6982 20.3458 48.9598 22.3196 49.2622C24.2934 49.5645 26.0925 49.8436 27.3851 50.082L28.9106 50.3553C29.1091 50.3807 29.3043 50.4275 29.4928 50.4948C29.298 50.5076 29.1024 50.4959 28.9106 50.46L27.3676 50.2623C26.0692 50.0878 24.2701 49.8262 22.2963 49.5238C20.3225 49.2215 18.5292 48.9424 17.2308 48.704L15.7053 48.4307C15.5067 48.4053 15.3115 48.3585 15.123 48.2911V48.2911Z" fill="#E0E0E0"/>
<path d="M20.0205 66.9616C20.2642 66.9555 20.508 66.973 20.7483 67.014L22.7279 67.2582C24.3932 67.4733 26.693 67.7931 29.2374 68.1594C31.7818 68.5257 34.07 68.8688 35.7352 69.1305L37.6974 69.4561C37.9402 69.4849 38.1799 69.5355 38.4136 69.6073C38.1698 69.6172 37.9256 69.5996 37.6858 69.5549L35.7061 69.3107C34.0409 69.0956 31.7352 68.7816 29.1967 68.4153C26.6581 68.049 24.364 67.7059 22.6988 67.4384L20.7367 67.1186C20.4938 67.0874 20.2541 67.0349 20.0205 66.9616Z" fill="#E0E0E0"/>
<path d="M37.9941 69.421C38.1194 69.1915 38.2676 68.9752 38.4366 68.7756L39.7118 67.072C40.7889 65.63 42.2678 63.6356 43.8399 61.3853C45.4119 59.1351 46.786 57.0651 47.77 55.5708L48.9345 53.7857C49.0683 53.562 49.2181 53.3482 49.3828 53.1461C49.2865 53.3885 49.1656 53.6203 49.0218 53.838C48.7715 54.2799 48.3988 54.9021 47.9214 55.6696C46.9782 57.2047 45.6332 59.2921 44.0553 61.5481C42.4774 63.8042 40.9752 65.7811 39.8573 67.1941C39.2751 67.9034 38.8384 68.4675 38.5182 68.8512C38.3604 69.056 38.185 69.2466 37.9941 69.421V69.421Z" fill="#E0E0E0"/>
<path d="M134.134 118.688L163.828 89.3301C163.828 90.6325 163.572 150.22 163.572 150.22L134.134 118.688Z" fill="#EBEBEB"/>
<path d="M357.174 99.8546H34.1338V147.191H357.174V99.8546Z" fill="#8CBF43"/>
<g opacity="0.5">
<path opacity="0.5" d="M357.174 99.8546H34.1338V147.191H357.174V99.8546Z" fill="black"/>
</g>
<path d="M79.6329 177.912C96.7978 176.758 109.776 161.927 108.621 144.785C107.466 127.644 92.6147 114.683 75.4498 115.836C58.285 116.99 45.3065 131.821 46.4617 148.963C47.6168 166.104 62.4681 179.065 79.6329 177.912Z" fill="black"/>
<path d="M46.4017 146.348C46.4017 146.377 46.4017 146.4 46.4017 146.429C46.2828 154.68 49.4506 162.639 55.2083 168.557C60.966 174.475 68.8419 177.866 77.1033 177.985C85.3648 178.103 93.3352 174.94 99.261 169.19C105.187 163.44 108.583 155.575 108.702 147.325C108.702 147.296 108.702 147.272 108.702 147.243L46.4017 146.348Z" fill="black"/>
<path d="M55.6772 146.563C55.6132 150.882 56.8332 155.123 59.183 158.75C61.5328 162.377 64.9068 165.226 68.8783 166.938C72.8498 168.65 77.2404 169.147 81.4949 168.366C85.7493 167.586 89.6764 165.563 92.7795 162.554C95.8826 159.544 98.0223 155.683 98.9281 151.459C99.8338 147.235 99.4649 142.838 97.868 138.823C96.271 134.809 93.5178 131.357 89.9565 128.906C86.3952 126.454 82.1858 125.112 77.8607 125.049C72.0624 124.965 66.4682 127.184 62.3082 131.219C58.1482 135.253 55.7631 140.773 55.6772 146.563V146.563Z" fill="#FAFAFA"/>
<path d="M77.8602 125.037C72.062 124.954 66.4678 127.173 62.3078 131.207C58.1478 135.242 55.7626 140.761 55.6768 146.551L99.4091 147.179C99.4899 141.39 97.2655 135.805 93.2246 131.653C89.1838 127.501 83.6574 125.122 77.8602 125.037V125.037Z" fill="#E0E0E0"/>
<path d="M64.224 146.685C64.1863 149.316 64.9307 151.899 66.3631 154.108C67.7955 156.316 69.8516 158.051 72.2713 159.093C74.691 160.134 77.3657 160.436 79.9571 159.959C82.5484 159.483 84.94 158.249 86.8295 156.415C88.719 154.581 90.0213 152.229 90.572 149.656C91.1226 147.082 90.8967 144.404 89.9229 141.959C88.9491 139.514 87.2712 137.412 85.1012 135.919C82.9312 134.427 80.3667 133.61 77.7321 133.573C74.1998 133.524 70.7924 134.877 68.2593 137.336C65.7261 139.795 64.2746 143.158 64.224 146.685V146.685Z" fill="black"/>
<path d="M317.552 177.905C334.727 176.91 347.842 162.199 346.846 145.048C345.85 127.896 331.119 114.799 313.944 115.794C296.77 116.789 283.654 131.499 284.651 148.651C285.647 165.802 300.378 178.9 317.552 177.905Z" fill="black"/>
<path d="M284.597 146.348C284.597 146.377 284.597 146.4 284.597 146.429C284.538 150.514 285.286 154.571 286.797 158.368C288.308 162.164 290.553 165.627 293.404 168.557C299.161 174.475 307.037 177.866 315.299 177.985C323.56 178.103 331.531 174.94 337.456 169.19C343.382 163.44 346.778 155.575 346.897 147.325C346.897 147.296 346.897 147.272 346.897 147.243L284.597 146.348Z" fill="black"/>
<path d="M293.873 146.563C293.808 150.882 295.029 155.123 297.378 158.75C299.728 162.377 303.102 165.226 307.074 166.938C311.045 168.65 315.436 169.147 319.69 168.366C323.945 167.586 327.872 165.563 330.975 162.554C334.078 159.544 336.218 155.683 337.123 151.459C338.029 147.235 337.66 142.838 336.063 138.823C334.466 134.809 331.713 131.357 328.152 128.906C324.591 126.454 320.381 125.112 316.056 125.049C310.258 124.965 304.664 127.184 300.504 131.219C296.344 135.253 293.958 140.773 293.873 146.563V146.563Z" fill="#FAFAFA"/>
<path d="M316.056 125.037C310.257 124.954 304.663 127.173 300.503 131.207C296.343 135.242 293.958 140.761 293.872 146.551L337.604 147.179C337.685 141.39 335.461 135.805 331.42 131.653C327.379 127.501 321.853 125.122 316.056 125.037V125.037Z" fill="#E0E0E0"/>
<path d="M302.419 146.685C302.382 149.316 303.126 151.899 304.558 154.108C305.991 156.316 308.047 158.051 310.467 159.093C312.886 160.134 315.561 160.436 318.152 159.959C320.744 159.483 323.135 158.249 325.025 156.415C326.914 154.581 328.217 152.229 328.767 149.656C329.318 147.082 329.092 144.404 328.118 141.959C327.144 139.514 325.466 137.412 323.296 135.919C321.127 134.427 318.562 133.61 315.927 133.573C312.396 133.525 308.989 134.879 306.456 137.337C303.923 139.796 302.471 143.158 302.419 146.685V146.685Z" fill="black"/>
<path d="M118.373 73.2296C118.373 73.2296 72.5034 76.6078 55.4903 80.4164C43.5194 83.1143 20.416 87.7253 20.6954 102.244L22.5295 112.646C22.5295 112.646 13.9531 116.56 13.9531 126.532C13.9531 136.504 11.8628 151.982 31.8687 152.598C35.1642 152.703 41.4291 152.598 41.4291 152.598C41.4291 152.598 37.5863 110.053 76.7305 108.809C116.544 107.541 113.901 152.209 113.901 152.209H280.091C280.091 152.209 273.267 108.698 316.131 108.629C358.996 108.559 352.475 152.494 352.475 152.494C352.475 152.494 368.242 153.854 375.584 140.62C382.926 127.386 381.011 117.943 381.011 117.943L380.766 109.576C380.72 108.208 380.157 106.908 379.191 105.937C378.224 104.966 376.925 104.397 375.555 104.343V104.343C375.555 104.343 378.42 83.2771 374.024 79.6314C369.628 75.9857 345.541 53.9951 345.541 53.9951L346.705 53.274C347.137 53.0015 347.482 52.6124 347.701 52.1518C347.921 51.6912 348.005 51.1779 347.944 50.6716C347.883 50.1652 347.679 49.6864 347.357 49.2908C347.035 48.8952 346.607 48.5989 346.123 48.4363C336.976 45.2965 318.891 39.0865 314.641 37.598C314.003 37.3767 313.34 37.238 312.667 37.1852C310.129 36.9875 302.944 36.534 289.762 36.3944C273.692 36.2258 209.913 36.3944 209.913 36.3944C209.913 36.3944 187.962 38.1969 175.735 43.5754C162.885 49.2329 118.373 73.2296 118.373 73.2296Z" fill="#8CBF43"/>
<g opacity="0.4">
<path opacity="0.4" d="M25.5858 125.38C23.9206 125.043 21.3703 125.008 20.1011 126.136C19.1578 126.973 18.9366 128.322 18.7677 129.572C18.5003 131.285 18.5397 133.031 18.8842 134.73C19.0581 135.579 19.4067 136.383 19.9078 137.091C20.4089 137.798 21.0517 138.394 21.7954 138.841C23.315 139.667 25.3995 139.533 26.5814 138.259C27.6644 137.097 27.7867 135.352 27.7459 133.794C27.7051 131.549 27.8856 129.648 27.4723 127.444C27.3782 126.979 27.1791 126.542 26.89 126.165C26.745 125.939 26.5497 125.75 26.3195 125.612C26.0893 125.474 25.8302 125.39 25.5625 125.369" fill="black"/>
</g>
<path d="M22.5304 112.646C27.3979 112.646 32.1199 112.379 36.9816 112.065C37.2742 112.117 37.5753 112.094 37.8564 111.998C38.1375 111.902 38.3894 111.735 38.5882 111.515C38.787 111.294 38.9261 111.026 38.9924 110.737C39.0587 110.448 39.05 110.146 38.9671 109.861C38.9671 107.256 38.8623 104.297 36.8827 102.599C35.6716 101.558 34.0122 101.238 32.4285 101.087C28.4793 100.664 24.4852 101.06 20.6963 102.25L22.5304 112.646Z" fill="#FAFAFA"/>
<path d="M123.642 150.877C123.642 150.877 123.642 150.738 123.601 150.464C123.56 150.191 123.554 149.772 123.519 149.243C123.461 148.162 123.374 146.58 123.263 144.551C123.153 142.522 123.013 140.021 122.722 137.137C122.411 133.871 121.827 130.636 120.975 127.468C119.921 123.639 118.355 119.97 116.317 116.56C113.999 112.627 110.919 109.195 107.257 106.466C99.397 100.889 88.7827 97.7437 77.6794 97.5984C66.576 97.453 55.9733 100.977 48.3168 106.832C44.6424 109.543 41.4231 112.821 38.7797 116.542C36.4757 119.776 34.6009 123.294 33.2018 127.008C32.0502 130.08 31.2589 133.274 30.8437 136.527C30.5189 138.982 30.4234 141.462 30.5584 143.935C30.6533 145.496 30.8477 147.05 31.1407 148.586C31.2338 149.109 31.3095 149.511 31.3561 149.79C31.4027 150.069 31.4201 150.203 31.4201 150.203C31.4201 150.203 31.3852 150.063 31.327 149.796C31.2688 149.528 31.1873 149.115 31.0824 148.598C30.7652 147.064 30.5551 145.509 30.4536 143.946C30.2953 141.465 30.3733 138.975 30.6865 136.509C31.0913 133.24 31.8728 130.029 33.0155 126.939C34.4096 123.195 36.2845 119.647 38.5934 116.385C41.2406 112.632 44.4722 109.327 48.1655 106.593C55.8627 100.692 66.5061 97.1448 77.7027 97.2902C88.8992 97.4356 99.5193 100.599 107.438 106.239C111.123 108.995 114.218 112.461 116.538 116.432C118.581 119.864 120.148 123.557 121.196 127.41C122.028 130.593 122.589 133.842 122.873 137.12C123.153 140.027 123.269 142.504 123.362 144.545C123.455 146.586 123.519 148.156 123.566 149.237C123.566 149.772 123.601 150.174 123.613 150.458C123.624 150.743 123.642 150.877 123.642 150.877Z" fill="white"/>
<path d="M125.406 151.604C125.406 151.604 125.406 151.482 125.406 151.255L125.371 150.22C125.371 149.307 125.302 147.958 125.243 146.202C125.144 142.679 124.999 137.515 124.812 130.957C124.626 124.398 124.411 116.42 124.16 107.291C124.102 105.004 124.038 102.647 123.968 100.221C123.927 98.9878 123.982 97.7534 124.131 96.5286C124.219 95.9123 124.306 95.2843 124.393 94.6563C124.481 94.0284 124.649 93.412 124.783 92.7841C126.034 87.5164 128.367 82.5661 131.636 78.2477V78.2477L160.417 60.1412L168.184 55.2511C170.805 53.5157 173.555 51.9839 176.411 50.6693C179.322 49.2969 182.31 48.0933 185.36 47.0642C186.885 46.5293 188.452 46.0874 190.018 45.6222C191.584 45.1571 193.179 44.7733 194.798 44.4593C200.903 43.1526 207.109 42.3745 213.348 42.1335C219.331 41.8461 225.324 41.8675 231.305 42.1975H231.474L231.439 42.3661C228.679 54.6755 226.082 66.2755 223.701 76.9162C222.28 79.2565 221.118 81.7443 220.236 84.3355C219.354 86.7964 218.958 89.405 219.072 92.0165C219.27 94.5691 219.34 97.0636 219.404 99.4882C219.468 101.913 219.497 104.268 219.543 106.547C219.677 115.676 219.712 123.642 219.736 130.201C219.759 136.76 219.736 141.911 219.736 145.435C219.736 147.179 219.736 148.54 219.736 149.453C219.736 149.906 219.736 150.249 219.736 150.482C219.736 150.714 219.736 150.831 219.736 150.831C219.736 150.831 219.736 150.714 219.736 150.482C219.736 150.249 219.736 149.9 219.736 149.453C219.736 148.54 219.736 147.191 219.736 145.435C219.736 141.911 219.683 136.76 219.648 130.201C219.613 123.642 219.543 115.664 219.392 106.553C219.338 104.274 219.287 101.921 219.241 99.4941C219.171 97.0694 219.095 94.5808 218.891 92.034C218.773 89.3899 219.168 86.748 220.056 84.2541C220.942 81.6413 222.114 79.1337 223.549 76.7766V76.8173C225.919 66.1767 228.51 54.5708 231.252 42.2614L231.386 42.4417C225.417 42.1185 219.436 42.1011 213.465 42.3894C207.244 42.6356 201.055 43.4137 194.967 44.7152C193.36 45.0408 191.782 45.4885 190.204 45.8781C188.626 46.2677 187.083 46.7793 185.546 47.3143C182.514 48.3271 179.542 49.5113 176.644 50.8611C173.766 52.1851 170.996 53.7307 168.358 55.4837L160.58 60.3679L131.788 78.4628H131.817C130.159 80.6269 128.746 82.9668 127.601 85.4403C126.484 87.8089 125.617 90.2878 125.016 92.8364C123.706 97.8195 124.37 102.721 124.376 107.291C124.603 116.42 124.801 124.386 124.958 130.951C125.115 137.515 125.238 142.673 125.319 146.202C125.36 147.947 125.389 149.307 125.406 150.22C125.406 150.674 125.406 151.017 125.406 151.249V151.604Z" fill="black"/>
<path d="M231.106 43.18H231.38H232.178L235.269 43.1044L246.734 42.8776L285.389 42.1741H285.465L285.511 42.2264L290.926 48.8492L306.39 67.7872L308.137 69.9444C309.811 72.0329 310.73 74.6246 310.746 77.2998C310.76 78.9304 310.441 80.5468 309.808 82.0503L308.062 86.1204C305.808 91.3535 303.986 95.54 302.717 98.4705C302.082 99.9126 301.587 101.041 301.249 101.82L300.859 102.686C300.772 102.884 300.719 102.977 300.719 102.977C300.719 102.977 300.754 102.872 300.83 102.674C300.906 102.477 301.04 102.174 301.191 101.796C301.523 101.012 301.995 99.8777 302.606 98.424C303.852 95.5168 305.645 91.2547 307.846 86.039C308.848 83.405 310.612 80.6431 310.489 77.2707C310.464 75.5567 310.066 73.8686 309.325 72.3225C308.936 71.5188 308.46 70.7603 307.904 70.0607L306.158 67.9093C301.395 62.0947 296.166 55.6987 290.676 48.9887L285.273 42.4125L285.389 42.4648L246.74 43.0463L235.269 43.1858H232.178H231.106V43.18Z" fill="black"/>
<path d="M211.596 94.5052C211.596 94.5052 211.759 94.5052 212.056 94.4354C212.494 94.3607 212.912 94.1964 213.284 93.9528C213.866 93.5644 214.303 92.9937 214.524 92.3306C214.658 91.918 214.713 91.4842 214.687 91.0514C214.673 90.5688 214.55 90.0957 214.326 89.6675C214.065 89.1818 213.678 88.7748 213.206 88.4886C212.734 88.2023 212.194 88.0473 211.642 88.0394H207.718H198.722C197.975 88.0404 197.254 88.3158 196.697 88.8133C196.139 89.3109 195.785 89.9957 195.7 90.7374C195.604 91.4437 195.735 92.1623 196.073 92.7899C196.407 93.3844 196.929 93.8509 197.558 94.1156C198.181 94.3269 198.841 94.4061 199.497 94.3482H201.401H204.824L209.779 94.3947H211.124C211.282 94.392 211.44 94.4017 211.596 94.4238C211.439 94.44 211.281 94.44 211.124 94.4238L209.779 94.4529L204.824 94.4994H201.401H199.497C199.165 94.4994 198.845 94.4994 198.489 94.4994C197.94 94.4631 197.408 94.2911 196.942 93.9989C196.475 93.7066 196.089 93.3031 195.817 92.8248C195.451 92.1434 195.306 91.365 195.404 90.5978C195.495 89.7821 195.884 89.0284 196.496 88.4805C197.108 87.9326 197.9 87.6286 198.722 87.6266H207.718H211.648C212.242 87.6391 212.821 87.811 213.325 88.124C213.829 88.4371 214.239 88.8798 214.513 89.4058C214.747 89.8656 214.872 90.3728 214.88 90.8886C214.898 91.3423 214.833 91.7956 214.687 92.2259C214.443 92.9161 213.971 93.5026 213.348 93.8889C212.959 94.1286 212.522 94.2813 212.067 94.3366C211.919 94.4143 211.76 94.471 211.596 94.5052V94.5052Z" fill="black"/>
<path d="M297.727 94.5052C297.727 94.5052 297.89 94.5052 298.187 94.4354C298.625 94.3607 299.043 94.1964 299.415 93.9528C299.997 93.5644 300.433 92.9937 300.655 92.3306C300.789 91.918 300.844 91.4842 300.818 91.0514C300.804 90.5688 300.68 90.0957 300.457 89.6675C300.196 89.1818 299.809 88.7748 299.337 88.4886C298.865 88.2023 298.325 88.0473 297.773 88.0394H293.849H284.853C284.106 88.0404 283.385 88.3158 282.827 88.8133C282.27 89.3109 281.916 89.9957 281.831 90.7374C281.735 91.4437 281.866 92.1623 282.204 92.7899C282.538 93.3844 283.06 93.8509 283.689 94.1156C284.312 94.3269 284.972 94.4061 285.628 94.3482H287.531H290.955L295.91 94.3947H297.255C297.413 94.392 297.57 94.4017 297.727 94.4238C297.57 94.44 297.412 94.44 297.255 94.4238L295.91 94.4529L290.955 94.4994H287.531H285.628C285.296 94.4994 284.975 94.4994 284.62 94.4994C284.071 94.4631 283.539 94.2911 283.072 93.9989C282.606 93.7066 282.22 93.3031 281.948 92.8248C281.582 92.1434 281.437 91.365 281.534 90.5978C281.626 89.7821 282.015 89.0284 282.627 88.4805C283.239 87.9326 284.031 87.6286 284.853 87.6266H293.849H297.779C298.372 87.6391 298.951 87.811 299.456 88.124C299.96 88.4371 300.37 88.8798 300.644 89.4058C300.878 89.8656 301.003 90.3728 301.01 90.8886C301.029 91.3423 300.964 91.7956 300.818 92.2259C300.574 92.9161 300.102 93.5026 299.479 93.8889C299.089 94.1286 298.652 94.2813 298.198 94.3366C298.05 94.4143 297.891 94.471 297.727 94.5052V94.5052Z" fill="black"/>
<path d="M373.256 80.4686H356.021C354.863 80.4687 353.726 80.7851 352.735 81.3836C351.744 81.9821 350.935 82.84 350.397 83.8643V83.8643C349.952 84.7106 349.703 85.6461 349.67 86.6014C349.637 87.5567 349.819 88.5073 350.205 89.3823L356.964 104.71L374.216 104.541C374.216 104.541 377.89 85.1086 373.256 80.4686Z" fill="#FAFAFA"/>
<path d="M133.901 78.2998L222.827 76.6659L280.702 75.6018L299.788 64.6007C300.152 64.3901 300.467 64.1047 300.712 63.7634C300.958 63.4221 301.127 63.0327 301.21 62.621C301.294 62.2092 301.288 61.7845 301.195 61.375C301.101 60.9655 300.921 60.5806 300.667 60.2456L288.784 44.6568C288.173 43.8549 287.386 43.2036 286.484 42.753C285.581 42.3025 284.588 42.0646 283.579 42.0577L218.845 41.5286C218.845 41.5286 194.472 40.1156 175.27 50.8318C155.054 62.1819 133.901 78.2998 133.901 78.2998Z" fill="black"/>
<path d="M174.657 43.1393C174.657 43.1393 179.112 45.1686 176.212 47.0525C173.312 48.9364 128.259 77.2881 128.259 77.2881L117.9 72.6481C136.247 62.4087 154.774 52.4949 174.657 43.1393Z" fill="#2B3A8C"/>
<path d="M129.714 78.0092C129.714 78.0092 129.621 78.0382 129.435 78.0789L128.614 78.2534L125.452 78.9104C122.704 79.457 118.722 80.2187 113.807 81.0676C103.909 82.7655 90.2149 84.7424 74.9776 86.0623C71.1639 86.3937 67.4433 86.6438 63.8451 86.8996C60.2468 87.1554 56.7766 87.3531 53.4811 87.6555C46.8843 88.2369 40.9804 89.1847 36.1827 90.6151C32.377 91.6828 28.7151 93.2077 25.2773 95.1563C24.0371 95.8075 23.1579 96.4471 22.5291 96.8309L21.8188 97.2844L21.5742 97.4297C21.6465 97.3673 21.7223 97.3091 21.8013 97.2553L22.4942 96.7843C23.3726 96.1576 24.282 95.5754 25.2191 95.04C28.6465 93.0429 32.3099 91.4803 36.1245 90.3883C40.928 88.9347 46.8552 87.952 53.452 87.359C56.7534 87.0508 60.2294 86.824 63.8218 86.5856C67.4142 86.3472 71.1406 86.0739 74.9485 85.7425C90.1799 84.4284 103.892 82.4805 113.772 80.8408C118.716 80.021 122.698 79.2884 125.458 78.7767L128.625 78.1952L129.452 78.044C129.615 78.015 129.714 78.0092 129.714 78.0092Z" fill="black"/>
<path d="M380.144 117.775C380.144 117.856 374.216 117.926 366.909 117.926C359.602 117.926 353.669 117.856 353.669 117.775C353.669 117.694 359.596 117.624 366.909 117.624C374.222 117.624 380.144 117.694 380.144 117.775Z" fill="black"/>
<path d="M271.712 132.881C271.712 132.962 238.256 133.032 196.993 133.032C155.729 133.032 122.268 132.962 122.268 132.881C122.268 132.8 155.717 132.73 196.993 132.73C238.268 132.73 271.712 132.794 271.712 132.881Z" fill="black"/>
<path d="M37.4529 118.275C37.4529 118.356 32.7192 118.426 26.8851 118.426C21.0511 118.426 16.3232 118.356 16.3232 118.275C16.3232 118.194 21.0511 118.124 26.8851 118.124C32.7192 118.124 37.4529 118.194 37.4529 118.275Z" fill="black"/>
<path d="M345.064 53.3904C345.064 53.3904 341.093 57.8327 342.653 61.0888C344.214 64.345 360.348 75.7473 360.348 75.7473L372.057 77.9452L345.064 53.3904Z" fill="#2B3A8C"/>
<path d="M233.738 45.4476L231.106 73.8401L278.222 72.4969L297.208 61.4783L284.917 45.4476H233.738Z" fill="#2B3A8C"/>
<path d="M145.068 75.2939C145.068 75.2939 173.493 54.7918 184.707 50.7216C195.531 46.7852 201.173 45.8025 211.339 45.4885C221.057 45.2152 226.978 45.4885 226.978 45.4885L219.456 74.3927L145.068 75.2939Z" fill="#2B3A8C"/>
<path d="M140.899 75.3868C140.9 74.5048 141.135 73.6387 141.581 72.8774C142.027 72.1162 142.668 71.4872 143.438 71.0549L149.971 67.3918C151.832 66.3457 153.931 65.7969 156.067 65.7986V65.7986C157.384 65.798 158.693 66.006 159.945 66.4149C161.304 66.8851 162.488 67.7581 163.338 68.9175C164.188 70.0769 164.663 71.4676 164.702 72.904V72.904C164.739 73.8702 164.581 74.8341 164.237 75.7378C163.892 76.6415 163.368 77.4664 162.697 78.1631C162.025 78.8597 161.22 79.4138 160.329 79.792C159.438 80.1702 158.479 80.3648 157.511 80.364H145.866C144.547 80.361 143.283 79.835 142.351 78.9018C141.42 77.9685 140.898 76.7043 140.899 75.3868V75.3868Z" fill="#8CBF43"/>
<path d="M140.899 75.3869C140.899 75.3869 140.899 75.6079 140.975 76.0207C141.064 76.6192 141.261 77.1966 141.557 77.7243C142.028 78.5531 142.722 79.2339 143.56 79.6897C144.083 79.9651 144.651 80.1443 145.237 80.2188C145.854 80.2886 146.541 80.2188 147.246 80.2537L157.208 80.2246C158.152 80.2474 159.092 80.0936 159.98 79.7711C160.915 79.4203 161.767 78.8765 162.478 78.1752C163.189 77.4739 163.744 76.6308 164.108 75.7009C164.473 74.7188 164.62 73.6694 164.538 72.625C164.465 71.5901 164.164 70.5842 163.656 69.6794C163.147 68.7746 162.445 67.9935 161.598 67.3919C160.783 66.8406 159.867 66.4553 158.902 66.2581C157.979 66.0372 157.033 65.9259 156.084 65.9266C154.321 65.9187 152.577 66.2916 150.972 67.0198C150.221 67.3512 149.534 67.7757 148.853 68.142L146.908 69.2235L143.56 71.0783C142.72 71.5305 142.03 72.2175 141.575 73.0553C141.28 73.5837 141.083 74.1608 140.993 74.7589C140.934 75.1718 140.94 75.3869 140.923 75.3869C140.901 75.1762 140.901 74.9638 140.923 74.7531C140.987 74.1425 141.168 73.5501 141.458 73.0088C141.916 72.1385 142.618 71.421 143.479 70.9446L146.803 69.0549L148.736 67.9559C149.412 67.5838 150.099 67.1535 150.867 66.793C152.509 66.0313 154.297 65.6346 156.108 65.6301C157.088 65.6244 158.065 65.7357 159.019 65.9615C160.021 66.1635 160.974 66.5585 161.825 67.1244C162.703 67.7496 163.432 68.5594 163.963 69.4967C164.493 70.4341 164.811 71.4761 164.894 72.5494C164.979 73.6396 164.824 74.7351 164.44 75.759C164.064 76.7311 163.485 77.6123 162.742 78.3441C162 79.0759 161.109 79.6416 160.131 80.0036C159.212 80.3396 158.238 80.4974 157.26 80.4688L147.298 80.4339C146.62 80.4503 145.942 80.4309 145.266 80.3758C144.653 80.2908 144.061 80.0937 143.52 79.7943C142.663 79.3099 141.961 78.5945 141.493 77.7302C141.208 77.1873 141.028 76.5954 140.963 75.9858C140.926 75.7882 140.905 75.5879 140.899 75.3869V75.3869Z" fill="black"/>
<path d="M359.916 151.145C359.916 151.145 359.916 151.005 359.916 150.738C359.916 150.47 359.957 150.069 359.992 149.575C360.027 149.08 360.085 148.412 360.12 147.656C360.155 146.9 360.178 146.022 360.213 145.033C360.248 144.045 360.213 142.952 360.213 141.748C360.213 140.545 360.126 139.242 359.963 137.853C359.692 134.677 359.121 131.535 358.257 128.468C357.756 126.694 357.137 124.956 356.405 123.264C355.622 121.424 354.681 119.656 353.593 117.978C351.166 114.284 348.079 111.068 344.486 108.489C340.532 105.623 336.117 103.45 331.433 102.064C326.577 100.575 321.29 100.035 315.91 99.9998C310.662 99.9466 305.438 100.706 300.422 102.25C298.05 103.001 295.747 103.957 293.54 105.105C291.431 106.222 289.428 107.528 287.555 109.007C284.076 111.733 280.974 114.908 278.332 118.449C277.176 120.079 276.152 121.798 275.269 123.589C274.474 125.253 273.77 126.96 273.162 128.7C271.298 133.959 270.167 139.449 269.802 145.016C269.709 146.987 269.715 148.505 269.767 149.557C269.796 150.069 269.82 150.464 269.837 150.72C269.855 150.976 269.837 151.127 269.837 151.127C269.837 151.127 269.837 150.988 269.791 150.726C269.744 150.464 269.738 150.057 269.692 149.563C269.615 148.046 269.615 146.527 269.692 145.01C270.013 139.424 271.116 133.911 272.97 128.631C273.58 126.88 274.285 125.164 275.083 123.491C275.961 121.68 276.988 119.946 278.152 118.304C280.799 114.736 283.91 111.535 287.403 108.786C289.29 107.294 291.307 105.975 293.43 104.843C295.654 103.69 297.974 102.731 300.364 101.977C305.409 100.421 310.665 99.6564 315.945 99.7091C321.348 99.744 326.658 100.291 331.555 101.791C336.272 103.19 340.714 105.385 344.69 108.28C346.533 109.63 348.255 111.138 349.837 112.786C351.342 114.334 352.682 116.033 353.837 117.856C354.929 119.546 355.87 121.328 356.65 123.182C357.382 124.884 358 126.632 358.501 128.416C359.346 131.488 359.896 134.635 360.143 137.812C360.3 139.213 360.3 140.521 360.37 141.725C360.44 142.929 360.37 144.051 360.37 145.016C360.37 145.981 360.289 146.877 360.254 147.638C360.219 148.4 360.137 149.04 360.096 149.557C360.056 150.075 360.009 150.458 359.986 150.72C359.963 150.982 359.916 151.145 359.916 151.145Z" fill="white"/>
<path d="M218.21 78.3C218.21 78.3 218.17 78.3 218.076 78.3H217.681L216.167 78.3291L210.577 78.4338C205.867 78.521 199.352 78.6954 192.155 78.8873C184.958 79.0792 178.443 79.2246 173.727 79.2595C171.369 79.2595 169.459 79.2595 168.137 79.2595H166.624H166.228C166.135 79.2595 166.094 79.2595 166.094 79.2595C166.094 79.2595 166.135 79.2595 166.228 79.2595H166.624L168.137 79.2246L173.721 79.1257C178.437 79.0385 184.953 78.8641 192.149 78.6664C199.346 78.4687 205.861 78.3349 210.577 78.3C212.935 78.3 214.845 78.3 216.167 78.3H217.681H218.076C218.17 78.2884 218.21 78.2942 218.21 78.3Z" fill="white"/>
<path d="M210.489 87.0452C208.793 87.1949 207.09 87.2454 205.389 87.1964C203.687 87.2454 201.984 87.1949 200.288 87.0452C201.984 86.8919 203.687 86.8415 205.389 86.894C207.09 86.8415 208.793 86.8919 210.489 87.0452V87.0452Z" fill="white"/>
<path d="M212.364 55.9254C212.393 56.0068 206.064 58.6408 198.221 61.8097C190.378 64.9786 183.997 67.4847 183.962 67.4091C183.927 67.3335 190.262 64.6995 198.111 61.5248C205.959 58.35 212.335 55.8498 212.364 55.9254Z" fill="white"/>
<path d="M199.532 57.9141C199.567 57.9897 193.535 60.6412 186.07 63.8392C178.606 67.0372 172.516 69.5607 172.481 69.4851C172.446 69.4095 178.478 66.7522 185.948 63.56C193.418 60.3679 199.503 57.8385 199.532 57.9141Z" fill="white"/>
<path d="M280.906 54.8267C280.941 54.9081 274.606 57.5363 266.763 60.7111C258.92 63.8858 252.539 66.3861 252.51 66.3105C252.481 66.2349 258.81 63.6009 266.653 60.4262C274.495 57.2514 280.877 54.7512 280.906 54.8267Z" fill="white"/>
<path d="M268.078 56.8151C268.108 56.8907 262.081 59.5422 254.611 62.7402C247.141 65.9382 241.057 68.4617 241.022 68.3861C240.987 68.3105 247.019 65.6532 254.489 62.4611C261.959 59.2689 268.044 56.7395 268.078 56.8151Z" fill="white"/>
<path d="M282.146 78.2941C282.146 78.3813 269.552 78.5209 254.018 78.6139C238.484 78.7069 225.89 78.7128 225.89 78.6139C225.89 78.5151 238.478 78.3872 254.018 78.2941C269.558 78.2011 282.146 78.2127 282.146 78.2941Z" fill="white"/>
<path d="M296.09 86.5565C296.09 86.6437 292.562 86.7426 288.201 86.7833C283.84 86.824 280.312 86.7833 280.312 86.7019C280.312 86.6205 283.84 86.5216 288.201 86.4809C292.562 86.4402 296.09 86.4751 296.09 86.5565Z" fill="white"/>
<path d="M54.9543 82.2596C54.8433 82.2965 54.7277 82.318 54.6108 82.3236L53.6268 82.4515C53.196 82.5038 52.6719 82.5678 52.0664 82.6666C51.4609 82.7655 50.768 82.8527 50.0111 83.0039C48.4914 83.2655 46.6981 83.6667 44.7243 84.1668C42.7505 84.6669 40.6486 85.3937 38.4303 86.2426C36.3748 87.0603 34.3616 87.9801 32.3982 88.9987C30.5933 89.9523 29.0038 90.8768 27.7403 91.7141C27.0824 92.1153 26.5118 92.5223 25.9936 92.877C25.4754 93.2317 25.0503 93.5224 24.701 93.7783L23.8917 94.3597C23.802 94.4339 23.7019 94.4946 23.5947 94.54C23.6733 94.4531 23.7611 94.3751 23.8567 94.3074L24.6311 93.691C24.9688 93.4178 25.388 93.1096 25.8946 92.7433C26.4011 92.3769 26.9601 91.9699 27.6122 91.5804C28.8931 90.7198 30.4768 89.7662 32.2701 88.7952C36.1979 86.7043 40.3559 85.0769 44.6603 83.9458C46.6399 83.4342 48.4507 83.0562 49.982 82.8178C50.7447 82.6783 51.4376 82.6027 52.0489 82.5213C52.6603 82.4399 53.2134 82.3934 53.621 82.3585L54.6108 82.2887C54.7234 82.2629 54.839 82.2531 54.9543 82.2596V82.2596Z" fill="white"/>
<path d="M158.926 68.543C158.741 68.3525 158.547 68.172 158.343 68.0022C157.787 67.5708 157.122 67.3012 156.422 67.2231C155.376 67.1406 154.323 67.255 153.319 67.5603C152.064 67.8729 150.837 68.2891 149.651 68.8046C147.491 69.7394 145.482 70.9875 143.688 72.5085C142.303 73.6714 141.569 74.5262 141.528 74.4855C141.668 74.2608 141.832 74.0521 142.017 73.8633C142.5 73.3301 143.011 72.8235 143.549 72.3457C145.324 70.7602 147.343 69.4703 149.528 68.5256C150.731 68.0069 151.975 67.5926 153.249 67.2871C154.288 66.9872 155.376 66.8943 156.451 67.0138C157.18 67.1147 157.864 67.4259 158.419 67.9092C158.566 68.0425 158.697 68.1928 158.809 68.3569C158.908 68.4732 158.937 68.5372 158.926 68.543Z" fill="white"/>
<path d="M346.385 53.1868C345.572 53.3783 344.738 53.4624 343.904 53.4369C342.924 53.4134 341.949 53.2926 340.993 53.0763C339.731 52.7834 338.493 52.3947 337.29 51.9134C335.945 51.4076 334.507 50.7505 332.958 50.1051L330.542 49.1283C329.709 48.7968 328.836 48.5119 327.945 48.1921C324.06 46.8724 320.097 45.7927 316.079 44.9592C308.774 43.4364 301.357 42.5146 293.901 42.2031C292.469 42.1275 291.176 42.1217 290.041 42.0927H287.13L285.29 42.1334H284.807H284.644C284.698 42.1276 284.752 42.1276 284.807 42.1334H285.284L287.13 42.0345L290.041 41.9822C291.205 41.9822 292.475 41.9822 293.907 42.0461C301.382 42.2956 308.822 43.1905 316.143 44.7208C320.172 45.5617 324.144 46.6511 328.038 47.9828C328.929 48.3142 329.785 48.605 330.641 48.9422L333.057 49.9307C334.606 50.6052 336.032 51.2564 337.366 51.7739C338.558 52.2468 339.781 52.6354 341.028 52.9368C341.972 53.1597 342.935 53.296 343.904 53.3438C344.517 53.3666 345.13 53.3433 345.738 53.274L346.216 53.2159C346.27 53.1966 346.327 53.1868 346.385 53.1868V53.1868Z" fill="black"/>
<path d="M66.25 53.9834C63.921 41.2612 62.3606 39.3075 61.0389 34.9291C59.7172 30.5508 57.6328 27.7074 55.0302 26.7073C53.2835 26.0329 44.5149 22.8755 41.4581 23.9222C38.4721 24.9796 35.6301 26.4055 32.9981 28.1668C30.9553 29.5185 29.4066 31.4956 28.5847 33.8011L23.9268 46.9245L32.1131 55.094L36.2237 46.3721L40.6837 56.8093L40.0258 67.3627L65.6095 74.2355C67.9211 70.52 67.5717 61.2051 66.25 53.9834Z" fill="#1C75BB"/>
<g opacity="0.2">
<path opacity="0.2" d="M59.589 40.0867C58.4594 46.7094 58.2789 47.6456 57.1494 54.2451C56.7593 56.5186 55.6297 60.0597 54.0053 61.7052C52.8059 62.9204 51.6297 64.095 49.9645 64.4904C48.4099 64.8567 46.0577 64.8974 44.5962 64.252C43.1348 63.6065 41.8946 60.7632 42.4943 59.3096C44.6661 59.7689 45.3357 60.4725 47.2047 59.3096C48.8408 58.2746 51.1523 55.9837 52.0373 54.2684C55.7753 47.0525 56.8 46.7967 59.6065 40.0867" fill="black"/>
</g>
<path d="M41.0742 52.9368C40.6617 52.3793 40.2845 51.7968 39.9446 51.1924L37.3129 46.8955C36.2765 45.2732 35.3449 43.8021 34.6113 42.645C34.2095 42.0746 33.8457 41.4782 33.5225 40.86C33.6664 40.9835 33.7901 41.1287 33.8893 41.2903C34.1105 41.5752 34.4191 41.9996 34.7859 42.5288C35.5312 43.5812 36.5327 45.0639 37.5691 46.7385C38.6054 48.4131 39.5079 49.9539 40.1309 51.082C40.4453 51.6634 40.7132 52.1111 40.8529 52.4309C40.9926 52.7507 41.0974 52.9252 41.0742 52.9368Z" fill="black"/>
<path d="M58.9253 64.8159C58.7414 64.9152 58.5458 64.9914 58.3431 65.0426C58.1049 65.1253 57.8618 65.1933 57.6153 65.2461C57.33 65.3101 57.0039 65.3973 56.6371 65.4496C55.783 65.5962 54.9185 65.674 54.052 65.6822C51.916 65.6972 49.7971 65.3024 47.8103 64.5193C47.0046 64.2048 46.2257 63.8256 45.4813 63.3855C45.1928 63.2217 44.913 63.0431 44.6429 62.8505C44.4411 62.7137 44.2467 62.5662 44.0607 62.4086C43.7404 62.147 43.5658 62.0016 43.5832 61.9842C43.6007 61.9667 44.3343 62.5017 45.6153 63.1994C46.366 63.6058 47.1442 63.9594 47.9442 64.2577C48.9278 64.613 49.9383 64.8891 50.9661 65.0833C51.9965 65.2665 53.0403 65.3637 54.0869 65.3741C54.9417 65.3798 55.7958 65.3254 56.6429 65.2113C58.0345 65.0368 58.8962 64.7635 58.9253 64.8159Z" fill="black"/>
<path d="M48.6604 44.9942C48.6196 45.2268 45.8656 50.6924 45.8656 50.6924L32.8932 43.8661L31.5715 38.2842C31.3547 37.3867 30.7905 36.6117 30.0025 36.1289C29.2146 35.6461 28.2671 35.4949 27.3677 35.7083L23.5424 37.2724C23.3846 37.334 23.2446 37.4337 23.1349 37.5626C23.0252 37.6915 22.9491 37.8455 22.9136 38.0109C22.8612 38.2958 22.9136 38.5924 23.4201 38.5284C24.3692 38.4586 26.3314 38.2435 26.3314 38.2435L25.4289 41.424C25.1907 42.2575 25.2824 43.1506 25.6851 43.9185L26.2673 45.0232L27.5424 47.0641C27.5424 47.0641 40.148 59.9957 47.2281 60.8388C51.4843 61.3447 56.3052 49.4307 56.3052 49.4307L48.6604 44.9942Z" fill="#FFBE9D"/>
<path d="M26.2383 38.4587C26.2383 38.4587 26.3373 38.3249 26.5527 38.1796C26.8428 37.9823 27.1857 37.877 27.5367 37.8772C27.7199 37.8887 27.8968 37.9486 28.0492 38.0508C28.2016 38.1529 28.3241 38.2937 28.4042 38.4587C28.5265 38.7203 28.445 38.9006 28.4042 38.8889C28.3635 38.8773 28.4042 38.7203 28.2645 38.5226C28.1789 38.3973 28.0656 38.2932 27.9334 38.2186C27.8011 38.144 27.6534 38.1008 27.5017 38.0923C27.1868 38.0922 26.8767 38.1701 26.5993 38.3191C26.3955 38.4063 26.2557 38.4819 26.2383 38.4587Z" fill="#EB996E"/>
<path d="M27.8737 40.4414C27.8737 40.4414 27.7864 40.3367 27.6641 40.1856C27.511 39.9896 27.3107 39.8356 27.0819 39.7378C26.8445 39.6475 26.5884 39.6175 26.3366 39.6506C26.1386 39.6797 26.0222 39.7262 26.0047 39.6971C25.9873 39.6681 26.0979 39.5867 26.3075 39.5227C26.5853 39.4426 26.8816 39.4549 27.1517 39.5576C27.4217 39.6639 27.6475 39.8587 27.7922 40.11C27.8854 40.3019 27.897 40.4356 27.8737 40.4414Z" fill="#EB996E"/>
<path d="M51.3274 27.7425L47.834 44.3663L57.1499 49.9715L60.7249 39.7553C60.7249 39.7553 59.246 27.3354 51.3274 27.7425Z" fill="#1C75BB"/>
<path d="M56.3699 28.0389C56.2987 28.0969 56.2204 28.1458 56.137 28.1843L55.4267 28.5564C54.8095 28.8762 53.907 29.3123 52.7658 29.8182C49.8151 31.1683 46.7071 32.1449 43.514 32.7255C40.3095 33.3 37.0196 33.191 33.8604 32.4057C32.9068 32.1576 31.9773 31.8249 31.0831 31.4114C30.7628 31.2718 30.5008 31.1323 30.3669 31.0509C30.233 30.9695 30.1282 30.9113 30.134 30.8997C30.4728 31.0157 30.8051 31.1496 31.1297 31.3009C32.0326 31.6712 32.9632 31.9706 33.9128 32.1963C37.055 32.9171 40.3105 32.9982 43.4849 32.4347C46.6484 31.8484 49.7347 30.9042 52.6843 29.6205C53.8488 29.1437 54.7396 28.7367 55.3743 28.4576C55.6944 28.2917 56.0274 28.1517 56.3699 28.0389V28.0389Z" fill="#EBEBEB"/>
<path d="M58.8201 29.8705C58.8201 29.8705 58.7386 29.9461 58.5639 30.0624C58.3893 30.1787 58.0982 30.3589 57.7896 30.5566C57.3831 30.8202 56.9633 31.0628 56.5319 31.2834C56.0312 31.5509 55.4722 31.8649 54.8201 32.1556L53.8012 32.6266C53.446 32.7836 53.0618 32.9173 52.6716 33.0743C51.8973 33.3999 51.0414 33.6558 50.1389 33.9523C46.2078 35.1374 42.0987 35.6235 37.9991 35.3885C37.0559 35.3129 36.1592 35.2606 35.3324 35.121C34.9132 35.0629 34.5115 35.0222 34.1272 34.9466L33.0326 34.7315C32.3281 34.6093 31.7051 34.4233 31.1578 34.2837C30.693 34.1672 30.2344 34.0274 29.7837 33.8651L28.9161 33.5685C28.8133 33.5404 28.7152 33.4973 28.625 33.4406C28.7315 33.4557 28.8366 33.4791 28.9394 33.5104L29.8186 33.7546C30.1971 33.8709 30.6687 33.9988 31.216 34.1209C31.7633 34.243 32.3805 34.4116 33.0908 34.5221L34.1854 34.7198C34.5639 34.7838 34.9656 34.8187 35.3499 34.8768C36.1767 34.9989 37.0966 35.0396 37.9991 35.1094C42.068 35.3082 46.1416 34.8268 50.0516 33.6848C50.9424 33.3999 51.7983 33.1499 52.5727 32.8417C52.9628 32.6905 53.3412 32.5626 53.6964 32.4056L54.7153 31.9637C55.3733 31.6963 55.938 31.3823 56.4621 31.1381C56.9861 30.8938 57.3936 30.6554 57.7372 30.4519L58.5348 30.01C58.6252 29.9544 58.7207 29.9076 58.8201 29.8705V29.8705Z" fill="#EBEBEB"/>
<path d="M57.1492 49.9716C56.8854 49.8677 56.6319 49.7393 56.3923 49.5878L54.3428 48.4249L47.3559 44.3954L47.2686 44.3431V44.2442C47.5189 42.9999 47.7868 41.6684 48.0662 40.2903C48.4913 38.2262 48.893 36.255 49.2307 34.4758C49.4229 33.5804 49.5801 32.7314 49.7547 31.929C49.9129 31.1793 50.1652 30.4525 50.5058 29.766C50.9902 28.7486 51.853 27.9601 52.9105 27.5681C53.1977 27.4717 53.4983 27.4207 53.8013 27.4169C53.9054 27.4128 54.0094 27.4246 54.1099 27.4518C53.3676 27.4811 52.6498 27.7246 52.0432 28.1529C51.4366 28.5811 50.9673 29.1758 50.6921 29.8649C50.3782 30.5405 50.1456 31.251 49.9993 31.9813C49.8479 32.7838 49.679 33.6327 49.5044 34.5281C49.1434 36.3248 48.7475 38.296 48.3399 40.3427C48.0604 41.7149 47.7576 43.0464 47.5364 44.2908L47.4665 44.1338C50.238 45.7851 52.6485 47.2155 54.4127 48.2563L56.4214 49.4831C56.6761 49.6272 56.9195 49.7905 57.1492 49.9716V49.9716Z" fill="black"/>
<path d="M60.0035 39.2494C60.0476 39.765 60.032 40.284 59.957 40.7961C59.7032 43.2877 59.0608 45.7244 58.053 48.0177C57.8675 48.5002 57.6252 48.9589 57.3311 49.3842C57.4658 48.888 57.641 48.4038 57.8551 47.9363C58.737 45.6222 59.3694 43.2208 59.7415 40.7728C59.7893 40.259 59.8769 39.7497 60.0035 39.2494V39.2494Z" fill="black"/>
<path d="M9.48769 131.712L9.40618 140.591C9.40618 140.591 0.340652 143.464 0.160156 145.103L17.3654 145.912L18.0932 132.085L9.48769 131.712Z" fill="#2B3A8C"/>
<path d="M14.7453 140.097C14.9088 140.155 15.0449 140.272 15.1277 140.424C15.2104 140.576 15.2339 140.754 15.1937 140.923C15.1411 141.087 15.0273 141.226 14.8756 141.309C14.7239 141.392 14.546 141.414 14.3785 141.37C14.2051 141.31 14.0607 141.187 13.9743 141.025C13.8879 140.864 13.8659 140.675 13.9127 140.498C13.9848 140.332 14.1182 140.2 14.2852 140.13C14.4522 140.059 14.6399 140.056 14.8094 140.12" fill="#E0E0E0"/>
<path d="M17.365 145.912V144.516L0.840929 144.255C0.840929 144.255 0.0548993 144.551 0.118946 145.092L17.365 145.912Z" fill="#E0E0E0"/>
<path d="M9.10885 140.486C9.10885 140.574 9.52806 140.632 9.92981 140.923C10.3316 141.213 10.5121 141.574 10.611 141.545C10.71 141.516 10.611 141.021 10.0987 140.678C9.58629 140.335 9.09138 140.411 9.10885 140.486Z" fill="black"/>
<path d="M7.26953 141.15C7.26953 141.231 7.60141 141.388 7.85178 141.76C8.10214 142.132 8.18365 142.51 8.27099 142.51C8.35833 142.51 8.4282 142.033 8.08467 141.586C7.74115 141.138 7.27535 141.068 7.26953 141.15Z" fill="black"/>
<path d="M6.13933 143.26C6.21502 143.26 6.34894 142.865 6.13933 142.399C5.92972 141.934 5.55709 141.725 5.52216 141.818C5.48722 141.911 5.71429 142.144 5.86568 142.533C6.01706 142.923 6.052 143.248 6.13933 143.26Z" fill="black"/>
<path d="M9.35925 138.469C9.35925 138.545 9.77847 138.469 10.2559 138.504C10.7333 138.539 11.0943 138.725 11.1409 138.655C11.1875 138.585 10.844 138.271 10.285 138.213C9.72607 138.155 9.3185 138.399 9.35925 138.469Z" fill="black"/>
<g opacity="0.3">
<path opacity="0.3" d="M9.46958 133.468L9.44629 135.05L17.9179 135.375L17.9994 133.957L9.46958 133.468Z" fill="black"/>
</g>
<path d="M9.40625 136.678C9.68456 136.77 9.98312 136.782 10.268 136.713C10.5814 136.675 10.8886 136.596 11.1821 136.48C11.3578 136.412 11.5289 136.332 11.6945 136.242C11.7936 136.193 11.8841 136.128 11.9623 136.05C12.0211 135.994 12.059 135.92 12.0696 135.839C12.0802 135.759 12.0629 135.677 12.0205 135.608C11.9828 135.547 11.9307 135.496 11.8688 135.46C11.807 135.423 11.7371 135.402 11.6654 135.399C11.5558 135.389 11.4455 135.399 11.3393 135.428C11.1517 135.46 10.9681 135.513 10.792 135.585C10.4945 135.701 10.2175 135.864 9.97103 136.067C9.55181 136.416 9.38878 136.725 9.42954 136.742C9.4703 136.759 9.67408 136.521 10.0933 136.23C10.3405 136.067 10.6064 135.935 10.8851 135.835C11.0485 135.779 11.2159 135.737 11.3859 135.707C11.5722 135.666 11.7294 135.672 11.7702 135.759C11.8109 135.847 11.7702 135.8 11.7702 135.852C11.7114 135.908 11.6447 135.955 11.5722 135.992C11.4212 136.079 11.2657 136.159 11.1064 136.23C10.832 136.349 10.5475 136.442 10.2563 136.509C9.96926 136.545 9.68516 136.601 9.40625 136.678V136.678Z" fill="black"/>
<path d="M9.51656 136.806C9.69108 136.566 9.78486 136.277 9.78439 135.98C9.81141 135.662 9.78584 135.342 9.7087 135.033C9.65933 134.849 9.59507 134.67 9.51656 134.498C9.47464 134.382 9.40399 134.28 9.31127 134.199C9.21856 134.119 9.10686 134.064 8.98672 134.038C8.90995 134.036 8.83405 134.055 8.76801 134.094C8.70197 134.133 8.64855 134.191 8.61408 134.259C8.56356 134.358 8.52823 134.464 8.50928 134.573C8.47089 134.765 8.46108 134.961 8.48017 135.155C8.51297 135.479 8.62492 135.791 8.80622 136.062C9.12064 136.521 9.46998 136.643 9.4758 136.614C9.48163 136.585 9.21962 136.393 8.98672 135.951C8.84812 135.699 8.76664 135.419 8.748 135.131C8.7413 134.966 8.75499 134.8 8.78876 134.637C8.82369 134.451 8.89938 134.306 8.96925 134.329C9.03912 134.352 9.19633 134.48 9.25455 134.626C9.33257 134.779 9.39687 134.938 9.44669 135.102C9.53032 135.386 9.57345 135.679 9.57479 135.975C9.57479 136.48 9.46998 136.789 9.51656 136.806Z" fill="black"/>
<path d="M44.5967 67.4557C44.5967 67.4557 17.6913 56.1871 9.35937 55.7045C4.11918 55.4022 0.183217 58.7572 0.893553 64.1531C1.24872 66.851 8.68397 98.4589 8.68397 98.4589L20.0261 93.2898L14.5821 71.4329L36.7073 82.1607L44.5967 67.4557Z" fill="black"/>
<path d="M11.1817 65.9034C11.0943 65.979 11.991 67.1303 12.9284 68.6479C13.8658 70.1655 14.5005 71.4737 14.6053 71.4272C14.7101 71.3807 14.2268 69.9852 13.2661 68.4385C12.3054 66.8919 11.2574 65.8336 11.1817 65.9034Z" fill="#2B3A8C"/>
<path d="M8.9813 67.1593C8.92308 67.2581 10.2797 68.1187 11.8925 69.2932C13.5053 70.4677 14.7164 71.4969 14.8037 71.4155C14.8911 71.3341 13.7557 70.1596 12.1371 68.9734C10.5184 67.7872 9.02788 67.072 8.9813 67.1593Z" fill="#2B3A8C"/>
<path d="M65.5916 74.2356C65.5916 74.2356 62.203 78.5907 58.9773 79.7827C54.9016 81.277 24.9394 95.4064 24.9394 95.4064C24.9394 95.4064 19.5012 135.748 19.9321 134.067L7.38477 133.765L8.74721 96.6041C8.91607 91.842 12.7298 86.3822 16.8346 83.9517L44.5959 67.4558L65.5916 74.2356Z" fill="black"/>
<path d="M8.5094 103.401C8.54899 103.236 8.56661 103.066 8.5618 102.895C8.5618 102.518 8.60838 102.035 8.63749 101.43C8.70907 99.6433 8.87622 97.8615 9.13822 96.0925C9.49981 93.471 10.4233 90.9581 11.8456 88.7254C12.7279 87.4451 13.8181 86.321 15.0713 85.3995C16.4211 84.4097 17.8352 83.5104 19.3042 82.7074C25.342 79.2535 30.5589 75.7299 34.4076 73.3169C36.329 72.0958 37.901 71.119 38.9724 70.4561L40.2242 69.6886C40.373 69.6077 40.5135 69.5123 40.6434 69.4037C40.4823 69.4575 40.328 69.5297 40.1834 69.6188C39.8865 69.7758 39.4498 70.0084 38.8967 70.3282C37.7846 70.9504 36.2009 71.8865 34.2387 73.0785C30.3435 75.4043 25.1033 78.893 19.1004 82.3818C17.607 83.1911 16.1713 84.1022 14.8034 85.1088C13.5201 86.0597 12.406 87.2194 11.5079 88.5394C10.0718 90.8206 9.15542 93.3892 8.82381 96.0634C8.58376 97.8483 8.45929 99.6468 8.45117 101.448V102.884C8.45598 103.058 8.47546 103.231 8.5094 103.401V103.401Z" fill="#2B3A8C"/>
<path d="M54.518 78.4919C54.2816 78.1326 54.025 77.7871 53.7494 77.4569C53.1683 76.6184 52.7651 75.6699 52.5649 74.6699C52.3646 73.6699 52.3714 72.6396 52.5849 71.6423C52.7143 71.233 52.8155 70.8153 52.8877 70.3922C52.6033 70.7278 52.4037 71.1266 52.3055 71.5551C52.0086 72.5862 51.9647 73.6735 52.1775 74.725C52.3903 75.7766 52.8536 76.7615 53.5282 77.5964C53.7806 77.9706 54.1203 78.2779 54.518 78.4919Z" fill="#2B3A8C"/>
<path d="M11.9969 133.765C12.016 133.697 12.0277 133.626 12.0318 133.556C12.0318 133.399 12.0784 133.195 12.1075 132.974C12.1715 132.393 12.2531 131.619 12.3579 130.648C12.5675 128.573 12.8528 125.63 13.2138 122.002C13.3884 120.171 13.5748 118.17 13.796 116.025C14.0173 113.879 14.221 111.582 14.3782 109.169C14.5355 106.756 14.7916 104.221 15.2341 101.61C15.6662 98.9341 16.4493 96.3261 17.5631 93.8539C18.7143 91.4092 20.2407 89.159 22.0871 87.1846C23.8229 85.3463 25.7252 83.6723 27.7698 82.1841C31.2807 79.7038 34.9273 77.4209 38.6927 75.3462C41.8776 73.5204 44.4162 71.9621 46.1047 70.7875C46.9489 70.2061 47.5952 69.7351 48.0203 69.4037L48.5035 69.0199C48.6122 68.9346 48.6646 68.8881 48.6607 68.8804C48.5967 68.9106 48.5362 68.9476 48.4802 68.9908L47.9737 69.3397C47.5312 69.6479 46.8732 70.1014 46.0173 70.6596C44.3055 71.7935 41.7553 73.3052 38.553 75.1019C34.7593 77.1402 31.0869 79.3962 27.5544 81.8584C25.486 83.3524 23.562 85.0362 21.8077 86.888C19.9099 88.8868 18.3381 91.1706 17.1497 93.6562C16.031 96.1631 15.2479 98.8062 14.8208 101.517C14.3782 104.128 14.157 106.675 13.9765 109.076C13.796 111.478 13.6155 113.792 13.4234 115.938C13.2312 118.083 13.0624 120.083 12.9052 121.909C12.6024 125.543 12.3229 128.491 12.1774 130.567C12.1017 131.567 12.0435 132.358 12.0027 132.922C12.0027 133.172 12.0027 133.375 11.9619 133.538C11.9613 133.615 11.9731 133.692 11.9969 133.765V133.765Z" fill="#2B3A8C"/>
<path d="M41.5401 3.45502C41.1184 2.36794 40.3218 1.46707 39.2937 0.914811C38.2656 0.362556 37.0738 0.19526 35.9331 0.443084C35.4301 0.623455 34.9054 0.736847 34.3727 0.780329C33.7271 0.667025 33.0921 0.499753 32.4746 0.280277C31.7764 0.165561 31.0604 0.314609 30.4662 0.698367C29.872 1.08212 29.4422 1.67309 29.2606 2.35607C28.7137 2.22335 28.1444 2.2113 27.5923 2.32076C27.0403 2.43022 26.5187 2.65855 26.0641 2.98986C25.6199 3.33592 25.3046 3.82057 25.1685 4.36649C25.0323 4.9124 25.0832 5.48813 25.313 6.00179C25.5401 6.42626 25.8952 6.7635 26.1223 7.19959C26.4658 7.91478 26.3086 8.77534 26.5473 9.52542C26.7717 10.0712 27.1449 10.5431 27.6246 10.8874C28.1043 11.2318 28.6711 11.4348 29.2606 11.4733C30.4464 11.5321 31.6325 11.3624 32.7541 10.9732" fill="black"/>
<path d="M36.1425 26.4574C35.9911 25.3352 35.8979 24.5444 35.8979 24.5444C35.8979 24.5444 32.1425 24.5444 30.6578 19.8928C29.9067 17.5669 29.4059 13.6828 29.1032 10.479C29.0353 9.79776 29.1057 9.10985 29.31 8.45636C29.5144 7.80288 29.8486 7.19725 30.2926 6.67566C30.7367 6.15407 31.2814 5.72722 31.8944 5.42062C32.5073 5.11403 33.1759 4.93398 33.8601 4.89123L43.8281 4.36792L44.0435 5.91459L46.6694 25.0503C46.7652 25.744 46.7226 26.4497 46.5441 27.1269C46.3656 27.8041 46.0547 28.4393 45.6294 28.9959C45.204 29.5526 44.6725 30.0197 44.0656 30.3704C43.4587 30.7211 42.7883 30.9484 42.093 31.0393V31.0393C40.6956 31.2189 39.284 30.8373 38.1682 29.9782C37.0525 29.119 36.3238 27.8527 36.1425 26.4574Z" fill="#FFBE9D"/>
<path d="M30.4828 13.206C30.5074 13.365 30.5926 13.5083 30.7207 13.6059C30.8488 13.7035 31.0098 13.7477 31.1699 13.7293C31.2496 13.7251 31.3276 13.7046 31.3991 13.669C31.4705 13.6334 31.5339 13.5835 31.5852 13.5224C31.6366 13.4614 31.6748 13.3904 31.6975 13.3139C31.7202 13.2375 31.7269 13.1572 31.7172 13.0781C31.6926 12.919 31.6074 12.7757 31.4793 12.6781C31.3512 12.5806 31.1902 12.5363 31.0301 12.5548C30.9504 12.5589 30.8724 12.5795 30.8009 12.6151C30.7295 12.6506 30.6661 12.7005 30.6148 12.7616C30.5634 12.8227 30.5252 12.8936 30.5025 12.9701C30.4798 13.0465 30.4731 13.1268 30.4828 13.206Z" fill="black"/>
<path d="M30.2384 12.3454C30.3257 12.4152 30.7333 11.9965 31.4029 11.8977C32.0725 11.7988 32.5674 12.0431 32.6547 11.95C32.742 11.857 32.5848 11.7814 32.3519 11.6593C32.0346 11.5097 31.6796 11.4591 31.333 11.5139C30.9915 11.569 30.6758 11.7297 30.4305 11.9733C30.2384 12.1768 30.1918 12.3163 30.2384 12.3454Z" fill="black"/>
<path d="M36.7367 12.1768C36.7613 12.337 36.8474 12.4812 36.9768 12.579C37.1062 12.6767 37.2686 12.7202 37.4296 12.7001C37.5088 12.6952 37.5862 12.6741 37.657 12.6382C37.7277 12.6022 37.7904 12.5522 37.8411 12.4913C37.8918 12.4303 37.9295 12.3596 37.9519 12.2835C37.9742 12.2074 37.9808 12.1276 37.9711 12.0489C37.9465 11.8899 37.8613 11.7465 37.7332 11.649C37.6051 11.5514 37.4441 11.5072 37.284 11.5256C37.2043 11.5298 37.1263 11.5503 37.0548 11.5859C36.9834 11.6215 36.92 11.6713 36.8687 11.7324C36.8174 11.7935 36.7791 11.8645 36.7564 11.9409C36.7337 12.0174 36.727 12.0977 36.7367 12.1768Z" fill="black"/>
<path d="M36.7247 11.4442C36.812 11.5082 37.2254 11.0954 37.8891 10.9907C38.5529 10.886 39.0536 11.1419 39.141 11.0488C39.2283 10.9558 39.0653 10.8744 38.8324 10.7581C38.5168 10.603 38.1599 10.5521 37.8135 10.6128C37.471 10.6651 37.1546 10.8262 36.911 11.0721C36.7305 11.2582 36.6839 11.4152 36.7247 11.4442Z" fill="black"/>
<path d="M35.1114 16.6948C34.7461 16.6489 34.3764 16.6489 34.011 16.6948C33.8421 16.6948 33.6791 16.6948 33.6325 16.5843C33.582 16.4175 33.582 16.2394 33.6325 16.0726L33.9295 14.712C34.2199 13.5672 34.4146 12.4003 34.5117 11.2233C34.1311 12.3616 33.841 13.5281 33.6442 14.712C33.551 15.1888 33.4637 15.6423 33.3763 16.0726C33.2951 16.2901 33.2951 16.5296 33.3763 16.7471C33.4103 16.8017 33.4563 16.8478 33.5108 16.8821C33.5652 16.9163 33.6268 16.9378 33.6908 16.9448C33.7872 16.9596 33.8854 16.9596 33.9819 16.9448C34.3682 16.9145 34.7484 16.8303 35.1114 16.6948V16.6948Z" fill="black"/>
<path d="M35.8975 24.5445C38.1477 24.222 40.2641 23.2819 42.011 21.8291C42.011 21.8291 40.9805 25.3469 36.1362 25.6551L35.8975 24.5445Z" fill="#EB996E"/>
<path d="M37.1204 16.8286C37.0156 16.8286 37.1204 17.5554 36.5964 18.1601C36.0724 18.7649 35.2922 18.8056 35.3038 18.9044C35.3155 19.0033 35.496 19.0149 35.8162 18.9742C36.2341 18.9124 36.6172 18.7068 36.8992 18.3927C37.1708 18.0904 37.3129 17.6938 37.2951 17.288C37.2776 16.9914 37.167 16.8286 37.1204 16.8286Z" fill="black"/>
<path d="M36.1425 8.89174C36.2414 9.06036 36.8819 8.89174 37.6679 8.84522C38.454 8.7987 39.1119 8.92662 39.1934 8.74637C39.1934 8.66497 39.0886 8.51379 38.8091 8.38006C38.4434 8.21794 38.044 8.14614 37.6447 8.17074C37.2365 8.18291 36.8372 8.29257 36.4802 8.49054C36.224 8.65334 36.1017 8.81615 36.1425 8.89174Z" fill="black"/>
<path d="M30.1746 10.4326C30.3143 10.5663 30.7568 10.3395 31.2867 10.2465C31.8165 10.1535 32.3114 10.1884 32.3929 10.0139C32.4279 9.93252 32.3289 9.79297 32.1076 9.6825C31.809 9.55725 31.48 9.52299 31.1619 9.58403C30.8439 9.64508 30.551 9.79869 30.3202 10.0256C30.1513 10.1767 30.1164 10.3395 30.1746 10.4326Z" fill="black"/>
<path d="M28.5792 8.37416C28.5792 8.37416 31.2167 9.25797 34.2444 7.24032C36.2357 5.91461 38.6403 5.08313 39.2401 5.43781C39.8398 5.7925 40.2357 7.96714 42.4191 8.34509C42.4191 8.34509 42.8034 12.5316 44.4453 12.1711C45.6098 11.9152 44.9344 7.29847 44.4453 4.66448C44.3504 4.15234 44.0835 3.6878 43.6887 3.34745C43.2939 3.0071 42.7947 2.81125 42.2735 2.79219L39.1993 2.6759L35.3681 3.73996L31.2575 4.86217L28.1309 6.15882L28.5792 8.37416Z" fill="black"/>
<path d="M44.0781 10.4731C44.1422 10.4266 46.6808 9.08926 47.1524 11.8628C47.624 14.6363 44.7419 14.5375 44.7244 14.4561C44.7069 14.3747 44.0781 10.4731 44.0781 10.4731Z" fill="#FFBE9D"/>
<path d="M45.3937 13.2641C45.3937 13.2641 45.4461 13.2641 45.5334 13.3106C45.594 13.3266 45.6572 13.3302 45.7193 13.3212C45.7813 13.3122 45.8409 13.2908 45.8944 13.2583C46.0547 13.1153 46.1738 12.932 46.2393 12.7275C46.3049 12.5231 46.3144 12.3048 46.267 12.0954C46.2355 11.8564 46.1499 11.6277 46.0167 11.4267C45.9751 11.3439 45.9143 11.2722 45.8394 11.2176C45.7644 11.1629 45.6775 11.127 45.5858 11.1127C45.5274 11.1092 45.4696 11.1258 45.4219 11.1596C45.3743 11.1935 45.3397 11.2426 45.3238 11.2988C45.3238 11.3802 45.3238 11.4325 45.3238 11.4384C45.3238 11.4442 45.2598 11.4035 45.2598 11.2872C45.2647 11.2159 45.2934 11.1484 45.3413 11.0953C45.3738 11.0595 45.4133 11.0307 45.4573 11.0107C45.5014 10.9907 45.5491 10.9799 45.5975 10.979C45.7161 10.9801 45.8324 11.0123 45.9347 11.0725C46.0369 11.1328 46.1214 11.2188 46.1797 11.3221C46.3417 11.5408 46.4459 11.7967 46.4825 12.0663C46.5376 12.3108 46.5189 12.5662 46.4287 12.8001C46.3386 13.034 46.181 13.2359 45.9759 13.3804C45.905 13.414 45.8274 13.4315 45.7488 13.4315C45.6703 13.4315 45.5927 13.414 45.5218 13.3804C45.4053 13.3397 45.382 13.2699 45.3937 13.2641Z" fill="#EB996E"/>
<path d="M29.9121 1.34438C29.9121 1.34438 30.0053 1.48975 30.2032 1.71651C30.4908 2.02782 30.8537 2.26008 31.2571 2.391C31.8539 2.58305 32.4914 2.61117 33.1028 2.4724C33.8667 2.28954 34.6159 2.0505 35.3444 1.75721C36.1022 1.45935 36.9117 1.31505 37.7258 1.33275C38.4114 1.35596 39.06 1.64851 39.5308 2.14679C39.8647 2.4689 40.0714 2.90027 40.113 3.36203C40.136 3.52744 40.1076 3.69593 40.0315 3.84464C40.0315 3.84464 40.0315 3.6702 39.9966 3.37366C39.9235 2.96184 39.7193 2.58457 39.4143 2.29797C38.9635 1.86759 38.3669 1.62262 37.7433 1.61185C36.9674 1.61181 36.1986 1.75982 35.4784 2.04794C34.7352 2.34019 33.97 2.5735 33.1901 2.74569C32.5307 2.88257 31.8458 2.82809 31.2163 2.5887C30.7883 2.43173 30.4158 2.15273 30.145 1.78628C30.0256 1.665 29.9446 1.51132 29.9121 1.34438Z" fill="#2B3A8C"/>
<path d="M39.2924 4.00155C39.2924 4.00155 39.1526 3.85037 38.8615 3.65267C38.4458 3.38226 37.9602 3.23879 37.4641 3.23984C36.726 3.23709 35.9984 3.41475 35.3448 3.75734C34.5279 4.19792 33.6839 4.58634 32.8178 4.92025C31.9956 5.17303 31.1302 5.25496 30.275 5.16096C29.4198 5.06695 28.593 4.79902 27.8455 4.37368C27.3947 4.12666 26.9811 3.81738 26.6169 3.45498C26.4773 3.32754 26.3593 3.17829 26.2676 3.01307C26.7881 3.46177 27.3495 3.86084 27.9444 4.20506C29.4184 4.97173 31.1348 5.1304 32.7247 4.64697C33.5795 4.3045 34.4153 3.91631 35.2283 3.48406C35.9242 3.13562 36.6981 2.97145 37.4758 3.00726C38.0053 3.028 38.5147 3.21521 38.9314 3.5422C39.0936 3.6573 39.219 3.81684 39.2924 4.00155V4.00155Z" fill="#2B3A8C"/>
<path d="M30.6691 51.2507L17.1494 39.7379L12.6895 40.7438C12.6895 40.7438 17.3882 50.5007 20.7885 54.0766C20.7885 54.0766 24.148 58.5712 29.691 56.6292C35.2339 54.6871 30.6691 51.2507 30.6691 51.2507Z" fill="#FFBE9D"/>
<path d="M16.131 27.068H10.3843C10.1677 27.0789 9.95624 27.138 9.76544 27.241C9.57464 27.344 9.40929 27.4882 9.28149 27.6632C9.15369 27.8382 9.06667 28.0395 9.02678 28.2524C8.98689 28.4653 8.99515 28.6845 9.05095 28.8938L14.8268 40.1391C14.9375 40.3523 15.1045 40.5312 15.3098 40.6562C15.5151 40.7813 15.7508 40.8478 15.9913 40.8485H22.9782C23.1423 40.8312 23.2995 40.7734 23.4357 40.6803C23.5719 40.5873 23.6828 40.4619 23.7584 40.3155C23.8341 40.169 23.8721 40.0061 23.869 39.8413C23.866 39.6766 23.822 39.5151 23.741 39.3716L18.1689 28.3646C17.9842 27.9801 17.6954 27.6549 17.3353 27.4258C16.9752 27.1966 16.558 27.0727 16.131 27.068V27.068Z" fill="#2B3A8C"/>
<path d="M15.741 27.7424H9.98845C9.82333 27.7425 9.66098 27.7849 9.51689 27.8654C9.3728 27.9459 9.25178 28.062 9.16537 28.2025C9.07896 28.3431 9.03004 28.5033 9.02327 28.6681C9.01651 28.8329 9.05213 28.9966 9.12673 29.1437L14.7687 40.1391C14.8793 40.3523 15.0464 40.5311 15.2517 40.6562C15.457 40.7813 15.6927 40.8477 15.9332 40.8484H22.8618C22.958 40.8463 23.0521 40.8205 23.1358 40.7732C23.2194 40.7259 23.2901 40.6587 23.3414 40.5775C23.3927 40.4963 23.4231 40.4037 23.4299 40.3079C23.4366 40.2121 23.4195 40.1161 23.38 40.0286L17.7963 29.0391C17.6098 28.6524 17.3182 28.3258 16.9548 28.0965C16.5914 27.8673 16.1708 27.7446 15.741 27.7424V27.7424Z" fill="black"/>
<path d="M15.228 32.3475L11.7345 33.743L10.9834 36.5573L12.6661 40.7437L18.8495 41.645L17.0387 39.796L17.2716 38.1912C17.2716 38.1912 19.0184 37.6504 19.0184 37.3829C19.0184 37.1155 18.8029 36.22 18.5409 36.22C17.8343 36.3737 17.1411 36.5836 16.4681 36.848C16.4681 36.848 18.6108 35.156 18.5467 34.8827C18.4827 34.6094 18.2614 33.9175 17.8306 33.8419C17.3997 33.7663 13.9528 35.3885 13.9528 35.3885L13.3706 36.6677L12.8815 34.6268C12.8815 34.6268 16.0082 33.743 15.228 32.3475Z" fill="#FFBE9D"/>
<path d="M15.6934 38.9237C15.6934 38.9237 15.6061 38.8016 15.5711 38.5749C15.5329 38.2786 15.5658 37.9776 15.667 37.6965C15.7683 37.4155 15.935 37.1625 16.1534 36.9584C16.328 36.8072 16.462 36.7491 16.4736 36.7665C16.2134 37.0645 15.9958 37.3972 15.8273 37.755C15.7235 38.1355 15.6784 38.5296 15.6934 38.9237V38.9237Z" fill="#EB996E"/>
<path d="M14.0293 38.3424C14.0962 38.0415 14.1428 37.7366 14.169 37.4295C14.1865 37.0846 14.2451 36.743 14.3437 36.412C14.414 36.2112 14.525 36.0272 14.6698 35.8712C14.8346 35.7106 15.0336 35.5893 15.252 35.5165C16.0846 35.2083 16.8415 34.9641 17.3888 34.7897C17.683 34.678 17.9872 34.5943 18.2971 34.5397C18.0219 34.6882 17.7334 34.8108 17.4354 34.906C16.8939 35.1153 16.137 35.3828 15.3161 35.6793C15.1264 35.7497 14.9524 35.8564 14.8037 35.9933C14.6757 36.1312 14.5767 36.2933 14.5126 36.4701C14.4087 36.7852 14.3404 37.1109 14.3088 37.4411C14.2944 37.7605 14.1982 38.0708 14.0293 38.3424V38.3424Z" fill="#EB996E"/>
<path d="M13.2259 37.7027C13.1708 37.4773 13.1708 37.242 13.2259 37.0166C13.2899 36.6445 13.3772 36.348 13.4296 36.3596C13.4847 36.585 13.4847 36.8203 13.4296 37.0457C13.3656 37.4178 13.2783 37.7144 13.2259 37.7027Z" fill="#EB996E"/>
<path d="M13.1328 29.8647C13.1328 30.0096 13.1758 30.1513 13.2564 30.2717C13.3371 30.3922 13.4516 30.4861 13.5857 30.5416C13.7197 30.597 13.8673 30.6115 14.0096 30.5833C14.1519 30.555 14.2826 30.4852 14.3852 30.3828C14.4878 30.2803 14.5577 30.1498 14.586 30.0076C14.6143 29.8655 14.5997 29.7182 14.5442 29.5843C14.4887 29.4505 14.3947 29.336 14.274 29.2555C14.1534 29.175 14.0115 29.1321 13.8664 29.1321C13.6719 29.1321 13.4853 29.2093 13.3477 29.3467C13.2101 29.4841 13.1328 29.6704 13.1328 29.8647V29.8647Z" fill="#FAFAFA"/>
</svg>
