<svg width="430" height="201" viewBox="0 0 430 201" fill="none" xmlns="http://www.w3.org/2000/svg">
<path d="M142.903 71.7235H23.8437C24.4141 69.6244 27.5439 62.4375 43.4714 65.1899C42.1346 64.0921 41.1035 62.6686 40.4773 61.0567C39.8511 59.4448 39.651 57.6989 39.8964 55.9873C40.0862 54.9472 40.5687 53.9828 41.2874 53.207C41.9821 52.5787 42.8024 52.1049 43.6939 51.8169C49.9815 49.5649 60.9708 58.2115 60.9708 58.2115C47.5054 37.0677 84.2012 28.1987 84.4516 54.9447C84.4516 54.9447 89.8349 45.3389 95.719 47.9941C98.1116 49.3842 96.6371 53.5546 95.566 55.2783C112.759 46.9376 128.395 52.0532 121.12 61.5756C138.007 61.9787 142.903 71.7235 142.903 71.7235Z" fill="white"/>
<path d="M320.373 43.5316H341.002V81.7183H320.373V43.5316Z" fill="white"/>
<path d="M341.002 53.2069V56.8907L320.373 54.5275V53.2069H341.002Z" fill="#9BB8CC"/>
<path d="M317.953 48.6056H343.423V53.2069H317.953V48.6056Z" fill="#133B53"/>
<path d="M69.2891 200.782H0.668791C1.1594 199.272 1.97897 197.889 3.06857 196.732C4.15816 195.576 5.4907 194.676 6.97023 194.096C10.076 193.01 13.4523 192.971 16.5824 193.985C15.9981 193.818 15.1913 192.775 14.8157 192.344C13.8121 191.365 13.1284 190.105 12.8543 188.73C12.7365 187.926 12.7857 187.106 12.9987 186.321C13.2117 185.537 13.5839 184.805 14.0924 184.17C14.9896 183.164 16.1226 182.396 17.3899 181.935C18.6572 181.474 20.0191 181.335 21.3536 181.529H21.7571C22.2693 181.61 22.7725 181.74 23.2594 181.918C25.3564 182.811 27.2496 184.121 28.8235 185.769C29.1296 186.075 29.4217 186.381 29.6999 186.7C29.6999 186.7 25.2347 182.989 24.1357 180.181C20.2686 172.174 28.448 160.566 38.6443 163.847C42.8352 165.797 46.2356 169.117 48.2843 173.258C40.1327 161.067 53.6537 153.657 58.4528 164.625C55.476 155.576 59.9134 146.109 68.8578 151.419L69.2334 151.586L69.2891 200.782Z" fill="#589600"/>
<path d="M69.2891 200.783H28.8653C29.1521 199.892 29.6345 199.076 30.2771 198.396C30.9196 197.715 31.7062 197.186 32.5794 196.848C34.4082 196.207 36.3969 196.183 38.2409 196.779C37.8687 195.825 37.8861 194.763 38.2894 193.822C38.6926 192.881 39.4495 192.136 40.397 191.747C41.3264 191.472 42.3037 191.399 43.2635 191.534C44.2232 191.668 45.1431 192.006 45.9612 192.525C44.4269 191.704 43.2666 190.326 42.7201 188.675C40.4388 183.962 45.2657 177.123 51.2611 179.055C53.7344 180.209 55.7409 182.17 56.9505 184.615C52.1514 177.428 60.1081 173.063 62.932 179.528C60.1499 172.452 65.4915 168.309 69.2891 169.908V200.783Z" fill="#A2DA52"/>
<path d="M27.3773 162.193C28.1291 162.791 29.0745 163.093 30.0342 163.041C29.9046 162.029 29.4564 161.084 28.7544 160.344C28.0027 159.745 27.0572 159.444 26.0976 159.496C26.23 160.507 26.6777 161.451 27.3773 162.193Z" fill="#589600"/>
<path d="M58.55 173.522C59.1408 174.446 60.0523 175.119 61.1095 175.413C61.3468 174.28 61.2152 173.101 60.7339 172.049C60.1446 171.12 59.2332 170.442 58.1744 170.144C57.938 171.281 58.0695 172.464 58.55 173.522Z" fill="#A2DA52"/>
<path d="M30.6737 158.328C30.4265 159.748 30.641 161.209 31.2858 162.498C32.3961 161.671 33.1989 160.497 33.5671 159.162C33.8143 157.742 33.5998 156.281 32.955 154.992C31.8447 155.82 31.042 156.994 30.6737 158.328V158.328Z" fill="#589600"/>
<path d="M396.505 200.657L395.448 185.366L403.905 175.58L403.391 175.162L398.397 179.43L397.673 175.162L396.88 175.371L397.02 180.681L394.989 182.655L394.21 167.044L398.355 161.915L397.896 161.525L393.598 164.959L393.319 156.799H392.207L391.469 166.822L390.384 176.803L384.792 170.756L384.264 171.089L386.309 174.301L382.761 174.245V174.843L386.642 175.441L390.454 181.404L389.578 200.657H396.505Z" fill="#994F61"/>
<path d="M360.379 145.386C360.233 143.49 360.533 141.585 361.255 139.826C361.626 138.946 362.206 138.171 362.946 137.567C363.685 136.964 364.562 136.551 365.498 136.364C366.042 136.264 366.602 136.305 367.125 136.483C367.649 136.66 368.118 136.969 368.489 137.379C366.251 134.801 364.595 131.771 363.634 128.496C363.154 126.864 363.063 125.142 363.37 123.469C363.677 121.796 364.373 120.218 365.401 118.862C366.501 117.648 367.889 116.727 369.436 116.186C370.984 115.644 372.643 115.499 374.262 115.762C377.507 116.344 380.44 118.058 382.538 120.6C382.316 115.498 381.147 110.355 382.065 105.309C382.983 100.263 387.004 95.2582 392.109 95.4945C395.572 95.6474 398.48 98.1218 400.692 100.791C405.288 106.385 408.069 113.247 408.662 120.461C409.911 118.578 411.414 116.875 413.127 115.401C413.986 114.663 414.987 114.11 416.069 113.775C417.151 113.441 418.289 113.331 419.415 113.455C423.073 114.053 425.41 117.792 426.301 121.392C427.258 125.264 427.124 129.325 425.911 133.125C423.908 139.367 419.234 144.316 414.685 149.042C415.764 148.662 416.946 148.693 418.003 149.129C419.061 149.565 419.92 150.375 420.417 151.405C421.808 154.185 420.417 157.397 418.566 159.607C416.899 161.418 414.89 162.882 412.654 163.916C400.344 170.088 385.362 169.199 372.94 163.833C368.496 161.866 364.866 158.43 362.66 154.102V154.102C361.221 151.418 360.439 148.431 360.379 145.386Z" fill="#4F8700"/>
<path d="M399.912 171.298C400.483 170.631 402.18 170.367 402.152 171.576C402.653 167.823 407.563 169.241 405.268 172.841C409.052 168.921 412.39 173.925 407.508 176.163C411.681 176.247 409.344 182.169 405.699 179.583C406.04 179.723 406.312 179.993 406.454 180.333C406.596 180.673 406.597 181.056 406.457 181.397C406.317 181.738 406.047 182.01 405.707 182.152C405.366 182.294 404.983 182.295 404.642 182.155C400.427 181.474 396.101 174.732 399.912 171.298Z" fill="#589600"/>
<path d="M407.286 160.205C407.67 159.214 407.818 158.148 407.717 157.091C407.657 156.564 407.47 156.06 407.172 155.622C406.874 155.183 406.474 154.824 406.006 154.575C405.739 154.421 405.437 154.34 405.13 154.34C404.822 154.34 404.52 154.421 404.253 154.575C405.852 153.592 407.226 152.285 408.287 150.738C408.801 149.945 409.122 149.043 409.226 148.105C409.33 147.166 409.213 146.216 408.885 145.33C408.498 144.515 407.913 143.809 407.185 143.275C406.457 142.741 405.607 142.397 404.712 142.272C402.889 142.059 401.049 142.503 399.524 143.523C400.47 140.84 401.916 138.296 402.222 135.474C402.528 132.652 401.193 129.33 398.411 128.635C397.462 128.48 396.491 128.524 395.559 128.763C394.628 129.002 393.756 129.432 393 130.025C389.657 132.263 387.08 135.47 385.613 139.214C385.252 138.013 384.728 136.867 384.055 135.808C383.717 135.279 383.273 134.826 382.751 134.477C382.229 134.128 381.641 133.89 381.023 133.778C378.978 133.514 377.142 135.169 376.084 136.892C374.955 138.796 374.377 140.976 374.415 143.19C374.415 146.832 376.182 150.14 377.851 153.449C377.336 153.074 376.701 152.902 376.067 152.966C375.433 153.03 374.845 153.326 374.415 153.796C373.918 154.458 373.622 155.25 373.563 156.076C373.503 156.901 373.683 157.727 374.081 158.453C374.684 159.682 375.52 160.783 376.544 161.692C382.108 166.933 390.218 168.851 397.687 167.975C400.341 167.634 402.796 166.393 404.643 164.458V164.458C405.847 163.268 406.752 161.811 407.286 160.205V160.205Z" fill="#A2DA52"/>
<path d="M421.238 147.415C420.818 148.309 420.715 149.319 420.946 150.279C421.884 149.958 422.688 149.332 423.227 148.5C423.639 147.603 423.737 146.595 423.505 145.636C422.568 145.953 421.768 146.581 421.238 147.415V147.415Z" fill="#589600"/>
<path d="M425.467 150.112C424.102 150.141 422.788 150.631 421.739 151.503C422.686 152.477 423.937 153.099 425.286 153.268C426.651 153.246 427.967 152.755 429.014 151.878C428.065 150.906 426.815 150.283 425.467 150.112V150.112Z" fill="#589600"/>
<path d="M381.412 176.024C381.884 175.79 382.261 175.403 382.483 174.926C381.984 174.749 381.439 174.749 380.939 174.926C380.472 175.166 380.096 175.551 379.868 176.024C380.368 176.201 380.913 176.201 381.412 176.024V176.024Z" fill="#589600"/>
<path d="M380.536 173.494C381.109 173.936 381.815 174.171 382.539 174.161C382.464 173.441 382.151 172.766 381.649 172.243C381.075 171.802 380.37 171.566 379.646 171.576C379.713 172.299 380.027 172.976 380.536 173.494V173.494Z" fill="#589600"/>
<path d="M381.634 131.485C382.369 132.142 383.307 132.529 384.291 132.583C384.31 132.088 384.228 131.594 384.05 131.131C383.872 130.669 383.602 130.247 383.256 129.892C382.91 129.537 382.495 129.256 382.037 129.067C381.579 128.877 381.087 128.782 380.591 128.788C380.622 129.779 380.99 130.73 381.634 131.485V131.485Z" fill="#A2DA52"/>
<path d="M406.326 139.784C405.719 140.078 405.229 140.568 404.935 141.174C405.574 141.428 406.28 141.457 406.938 141.257C407.544 140.962 408.034 140.473 408.329 139.867C407.691 139.61 406.983 139.581 406.326 139.784V139.784Z" fill="#A2DA52"/>
<path d="M385.445 128.218C385.064 129.519 385.137 130.912 385.654 132.166C386.279 131.897 386.843 131.503 387.312 131.009C387.78 130.515 388.143 129.932 388.379 129.293C388.614 128.655 388.717 127.975 388.682 127.296C388.646 126.616 388.473 125.951 388.172 125.34C386.961 125.961 386 126.976 385.445 128.218Z" fill="#A2DA52"/>
<path d="M402.361 179.931C402.721 179.972 403.085 179.972 403.446 179.931C403.98 179.892 404.479 179.648 404.837 179.249C404.982 179.074 405.082 178.866 405.128 178.643C405.175 178.42 405.165 178.189 405.101 177.97C404.878 177.359 404.086 177.512 403.71 177.053C403.62 176.917 403.559 176.765 403.53 176.605C403.502 176.444 403.506 176.28 403.543 176.122C403.605 175.805 403.605 175.479 403.543 175.162C403.516 175.005 403.431 174.864 403.305 174.766C403.179 174.669 403.02 174.621 402.861 174.634C402.611 174.634 402.472 174.912 402.319 175.079C402.276 175.135 402.221 175.182 402.159 175.215C402.097 175.249 402.028 175.269 401.957 175.274C401.359 175.274 401.22 174.37 400.566 174.481C399.912 174.592 399.551 175.288 399.37 175.871C399.202 176.363 399.162 176.889 399.254 177.4C399.347 177.911 399.569 178.389 399.898 178.791C400.546 179.467 401.425 179.875 402.361 179.931Z" fill="#A2DA52"/>
<path d="M140.302 31.3541L286.348 28.8519L370.938 110.188H305.92H123.317H58.3139L140.302 31.3541Z" fill="#1C75BB"/>
<path d="M65.5335 110.188H160.431V195.013H65.5335V110.188Z" fill="white"/>
<path d="M65.533 110.188H75.9102V195.013H65.533V110.188Z" fill="#28A8DF"/>
<path d="M150.053 110.188H160.431V195.013H150.053V110.188Z" fill="#28A8DF"/>
<path d="M75.9247 122.463H150.067V123.506H75.9247V122.463Z" fill="#E1ECEF"/>
<path d="M75.9247 134.418H150.067V135.46H75.9247V134.418Z" fill="#E1ECEF"/>
<path d="M75.9247 146.373H150.067V147.416H75.9247V146.373Z" fill="#E1ECEF"/>
<path d="M75.9247 158.314H150.067V159.357H75.9247V158.314Z" fill="#E1ECEF"/>
<path d="M75.9247 170.269H150.067V171.312H75.9247V170.269Z" fill="#E1ECEF"/>
<path d="M75.9247 182.224H150.067V183.267H75.9247V182.224Z" fill="#E1ECEF"/>
<path d="M150.067 122.463H160.444V123.506H150.067V122.463Z" fill="#1C75BB"/>
<path d="M150.067 134.418H160.444V135.46H150.067V134.418Z" fill="#1C75BB"/>
<path d="M150.067 146.373H160.444V147.416H150.067V146.373Z" fill="#1C75BB"/>
<path d="M150.067 158.314H160.444V159.357H150.067V158.314Z" fill="#1C75BB"/>
<path d="M150.067 170.269H160.444V171.312H150.067V170.269Z" fill="#1C75BB"/>
<path d="M150.067 182.224H160.444V183.267H150.067V182.224Z" fill="#1C75BB"/>
<path d="M65.533 122.463H75.9102V123.506H65.533V122.463Z" fill="#1C75BB"/>
<path d="M65.533 134.418H75.9102V135.46H65.533V134.418Z" fill="#1C75BB"/>
<path d="M65.533 146.373H75.9102V147.416H65.533V146.373Z" fill="#1C75BB"/>
<path d="M65.533 158.314H75.9102V159.357H65.533V158.314Z" fill="#1C75BB"/>
<path d="M65.533 170.269H75.9102V171.312H65.533V170.269Z" fill="#1C75BB"/>
<path d="M65.533 182.224H75.9102V183.267H65.533V182.224Z" fill="#1C75BB"/>
<path d="M268.807 110.188H363.704V195.013H268.807V110.188Z" fill="white"/>
<path d="M269.614 122.463H363.704V123.506H269.614V122.463Z" fill="#E1ECEF"/>
<path d="M269.614 134.418H363.704V135.46H269.614V134.418Z" fill="#E1ECEF"/>
<path d="M269.614 146.373H363.704V147.416H269.614V146.373Z" fill="#E1ECEF"/>
<path d="M269.614 158.314H363.704V159.357H269.614V158.314Z" fill="#E1ECEF"/>
<path d="M269.614 170.269H363.704V171.312H269.614V170.269Z" fill="#E1ECEF"/>
<path d="M269.614 182.224H363.704V183.267H269.614V182.224Z" fill="#E1ECEF"/>
<path d="M285.012 127.634H347.498V195.027H285.012V127.634Z" fill="#28A8DF"/>
<path d="M285.012 130.595L347.498 140.729V127.634H285.012V130.595Z" fill="#1C75BB"/>
<path d="M268.807 195.013H272.966L270.365 110.188H268.807V195.013Z" fill="#9BB8CC"/>
<path d="M268.807 111.592L363.704 116.777V110.188H268.807V111.592Z" fill="#9BB8CC"/>
<path d="M150.067 110.188V116.207L75.9108 112.162V110.188H150.067Z" fill="#9BB8CC"/>
<path d="M75.9102 110.188V112.162L65.533 111.592V110.188H75.9102Z" fill="#1C75BB"/>
<path d="M160.444 110.188V116.777L150.067 116.207V110.188H160.444Z" fill="#1C75BB"/>
<path d="M160.444 195.013H268.807V63.1324L214.625 20.8727L160.444 63.1324V195.013Z" fill="white"/>
<path d="M214.625 20.8727L268.807 63.1324V72.6965L217.143 32.786L160.444 77.0059V63.1324L214.625 20.8727Z" fill="#9BB8CC"/>
<path d="M151.834 64.2584L214.626 17.1749L277.376 64.731L271.255 70.8476L214.626 26.6834L158.233 70.653L151.834 64.2584Z" fill="white"/>
<path d="M62.5847 195.013H369.95V200.824H62.5847V195.013Z" fill="white"/>
<path d="M295.32 142.216H337.037V195.013H295.32V142.216Z" fill="white"/>
<path d="M317.743 144.635H334.019V192.08H317.743V144.635Z" fill="#133B53"/>
<path d="M298.491 144.635H314.767V192.08H298.491V144.635Z" fill="#133B53"/>
<path d="M295.32 141.48H337.024H337.441H337.956L338.471 195.014H337.024V142.217H295.32V141.48Z" fill="#1C75BB"/>
<path d="M83.3661 142.216H142.986V178.096H83.3661V142.216Z" fill="white"/>
<path d="M130.189 144.635H140.219V175.288H130.189V144.635Z" fill="#133B53"/>
<path d="M98.6962 144.635H127.282V175.288H98.6962V144.635Z" fill="#133B53"/>
<path d="M85.7587 144.635H95.7881V175.288H85.7587V144.635Z" fill="#133B53"/>
<path d="M83.3668 141.758H142.987H143.877L144.601 178.109H142.987V142.216H83.3668V141.758Z" fill="#9BB8CC"/>
<path d="M142.987 177.804H83.3668V178.652L144.601 181.237V177.804H142.987Z" fill="#9BB8CC"/>
<path d="M235.352 144.635H251.627V192.08H235.352V144.635Z" fill="#133B53"/>
<path d="M216.1 144.635H232.375V192.08H216.1V144.635Z" fill="#133B53"/>
<path d="M196.861 144.635H213.137V192.08H196.861V144.635Z" fill="#133B53"/>
<path d="M177.624 144.635H193.899V192.08H177.624V144.635Z" fill="#133B53"/>
<path d="M175.718 141.758H255.564L256.802 195.013H254.298V142.216H175.718V141.758Z" fill="#9BB8CC"/>
<path d="M216.1 63.9803H232.375V111.425H216.1V63.9803Z" fill="#133B53"/>
<path d="M196.861 63.9803H213.137V111.425H196.861V63.9803Z" fill="#133B53"/>
<path d="M194.233 61.1029H236.173L237.411 114.359H234.907V61.5616H194.233V61.1029Z" fill="#9BB8CC"/>
<path d="M172.004 114.011H257.247V118.39H172.004V114.011Z" fill="#133B53"/>
<path d="M172.004 118.39H257.248V114.011L260.517 118.39V122.505L172.004 119.363V118.39Z" fill="#9BB8CC"/>
<path d="M252.142 102.084H253.52V114.011H252.142V102.084Z" fill="#BDBDBD"/>
<path d="M205.96 102.084H207.337V114.011H205.96V102.084Z" fill="#BDBDBD"/>
<path d="M221.358 102.084H222.735V114.011H221.358V102.084Z" fill="#BDBDBD"/>
<path d="M190.574 102.084H191.951V114.011H190.574V102.084Z" fill="#BDBDBD"/>
<path d="M236.743 102.084H238.12V114.011H236.743V102.084Z" fill="#BDBDBD"/>
<path d="M175.176 102.084H176.553V114.011H175.176V102.084Z" fill="#BDBDBD"/>
<path d="M252.142 102.084H253.52V103.21H252.142V102.084Z" fill="#4A938C"/>
<path d="M205.96 102.084H207.337V103.21H205.96V102.084Z" fill="#4A938C"/>
<path d="M221.358 102.084H222.735V103.21H221.358V102.084Z" fill="#4A938C"/>
<path d="M190.574 102.084H191.951V103.21H190.574V102.084Z" fill="#4A938C"/>
<path d="M236.743 102.084H238.12V103.21H236.743V102.084Z" fill="#4A938C"/>
<path d="M175.176 102.084H176.553V103.21H175.176V102.084Z" fill="#4A938C"/>
<path d="M173.924 102.084H255.411V99.067L173.924 99.7621V102.084Z" fill="#BDBDBD"/>
<path d="M365.943 188.758H413.322V190.593H365.943V188.758Z" fill="#B6CCD8"/>
<path d="M365.943 196.209H413.322V198.044H365.943V196.209Z" fill="#B6CCD8"/>
<path d="M408.301 200.657H411.528C411.62 200.657 411.709 200.621 411.774 200.556C411.839 200.49 411.876 200.402 411.876 200.31V186.589C411.897 186.521 411.897 186.449 411.876 186.381L410.262 184.448C410.23 184.405 410.188 184.37 410.139 184.346C410.091 184.322 410.038 184.309 409.984 184.309C409.93 184.309 409.877 184.322 409.828 184.346C409.78 184.37 409.738 184.405 409.706 184.448L408.092 186.381C408.047 186.441 408.022 186.514 408.022 186.589V200.31C408.021 200.391 408.048 200.47 408.099 200.534C408.149 200.597 408.221 200.641 408.301 200.657Z" fill="white"/>
<path d="M401.596 200.657H404.809C404.903 200.657 404.993 200.621 405.06 200.557C405.127 200.492 405.167 200.403 405.171 200.31V186.589C405.172 186.551 405.165 186.512 405.151 186.476C405.137 186.44 405.115 186.408 405.087 186.381L403.488 184.449C403.454 184.405 403.41 184.37 403.361 184.346C403.312 184.322 403.257 184.309 403.202 184.309C403.147 184.309 403.093 184.322 403.044 184.346C402.994 184.37 402.951 184.405 402.917 184.449L401.304 186.381C401.282 186.449 401.282 186.521 401.304 186.589V200.31C401.303 200.393 401.331 200.474 401.385 200.538C401.439 200.602 401.513 200.644 401.596 200.657V200.657Z" fill="white"/>
<path d="M394.877 200.657H398.09C398.184 200.657 398.274 200.621 398.341 200.557C398.409 200.492 398.448 200.403 398.452 200.31V186.589C398.453 186.551 398.447 186.512 398.432 186.476C398.418 186.44 398.396 186.408 398.369 186.381L396.769 184.449C396.735 184.405 396.692 184.37 396.642 184.346C396.593 184.322 396.539 184.309 396.484 184.309C396.429 184.309 396.374 184.322 396.325 184.346C396.276 184.37 396.232 184.405 396.198 184.449L394.599 186.381C394.571 186.408 394.549 186.44 394.535 186.476C394.521 186.512 394.514 186.551 394.515 186.589V200.31C394.519 200.403 394.559 200.492 394.626 200.557C394.693 200.621 394.783 200.657 394.877 200.657V200.657Z" fill="white"/>
<path d="M388.158 200.657H391.372C391.465 200.657 391.555 200.621 391.623 200.557C391.69 200.492 391.73 200.403 391.733 200.31V186.589C391.733 186.514 391.709 186.441 391.664 186.381L390.064 184.449C390.03 184.405 389.987 184.37 389.938 184.346C389.888 184.322 389.834 184.309 389.779 184.309C389.724 184.309 389.67 184.322 389.62 184.346C389.571 184.37 389.528 184.405 389.494 184.449L387.894 186.381C387.866 186.408 387.845 186.44 387.83 186.476C387.816 186.512 387.809 186.551 387.811 186.589V200.31C387.814 200.401 387.852 200.487 387.916 200.552C387.981 200.616 388.067 200.654 388.158 200.657V200.657Z" fill="white"/>
<path d="M381.44 200.657H384.653C384.7 200.659 384.747 200.652 384.79 200.635C384.834 200.618 384.874 200.593 384.908 200.561C384.942 200.528 384.969 200.489 384.987 200.446C385.005 200.403 385.015 200.357 385.015 200.31V186.589C385.015 186.514 384.99 186.441 384.945 186.381L383.331 184.449C383.298 184.405 383.254 184.37 383.205 184.346C383.156 184.322 383.101 184.309 383.046 184.309C382.991 184.309 382.937 184.322 382.888 184.346C382.838 184.37 382.795 184.405 382.761 184.449L381.161 186.381C381.136 186.409 381.117 186.442 381.105 186.478C381.093 186.514 381.089 186.552 381.092 186.589V200.31C381.092 200.402 381.129 200.49 381.194 200.556C381.259 200.621 381.347 200.657 381.44 200.657Z" fill="white"/>
<path d="M374.763 200.657H377.949C378.041 200.657 378.129 200.621 378.195 200.556C378.26 200.49 378.296 200.402 378.296 200.31V186.589C378.318 186.521 378.318 186.449 378.296 186.381L376.683 184.448C376.65 184.405 376.608 184.37 376.56 184.346C376.512 184.322 376.459 184.309 376.405 184.309C376.351 184.309 376.297 184.322 376.249 184.346C376.201 184.37 376.159 184.405 376.126 184.448L374.513 186.381C374.468 186.441 374.443 186.514 374.443 186.589V200.31C374.443 200.397 374.476 200.482 374.535 200.546C374.594 200.611 374.676 200.65 374.763 200.657V200.657Z" fill="white"/>
<path d="M368.017 200.657H371.23C371.324 200.657 371.413 200.621 371.481 200.557C371.548 200.492 371.588 200.403 371.592 200.31V186.589C371.593 186.551 371.586 186.512 371.572 186.476C371.558 186.44 371.536 186.408 371.508 186.381L369.908 184.449C369.875 184.405 369.831 184.37 369.782 184.346C369.733 184.322 369.678 184.309 369.623 184.309C369.568 184.309 369.514 184.322 369.465 184.346C369.415 184.37 369.372 184.405 369.338 184.449L367.725 186.381C367.703 186.449 367.703 186.521 367.725 186.589V200.31C367.723 200.393 367.752 200.474 367.806 200.538C367.86 200.602 367.934 200.644 368.017 200.657V200.657Z" fill="white"/>
<path d="M5.5376 188.758H72.6973V190.593H5.5376V188.758Z" fill="#B6CCD8"/>
<path d="M5.5376 196.209H72.6973V198.044H5.5376V196.209Z" fill="#B6CCD8"/>
<path d="M67.676 200.657H70.8893C70.9361 200.659 70.9829 200.652 71.0267 200.635C71.0705 200.618 71.1105 200.593 71.1443 200.561C71.178 200.528 71.2049 200.489 71.2233 200.446C71.2416 200.403 71.251 200.357 71.251 200.31V186.589C71.251 186.514 71.2266 186.441 71.1814 186.381L69.5678 184.448C69.5354 184.405 69.4934 184.37 69.4452 184.346C69.3969 184.322 69.3436 184.309 69.2896 184.309C69.2356 184.309 69.1824 184.322 69.1341 184.346C69.0858 184.37 69.0438 184.405 69.0114 184.448L67.3978 186.381C67.3527 186.441 67.3282 186.514 67.3282 186.589V200.31C67.3282 200.402 67.3649 200.49 67.4301 200.556C67.4953 200.621 67.5838 200.657 67.676 200.657Z" fill="white"/>
<path d="M60.9711 200.657H64.1844C64.2767 200.657 64.3651 200.621 64.4303 200.556C64.4955 200.49 64.5322 200.402 64.5322 200.31V186.589C64.5354 186.552 64.5309 186.514 64.5189 186.478C64.507 186.442 64.4878 186.409 64.4626 186.381L62.849 184.448C62.8166 184.405 62.7746 184.37 62.7263 184.346C62.678 184.322 62.6248 184.309 62.5708 184.309C62.5168 184.309 62.4636 184.322 62.4153 184.346C62.367 184.37 62.325 184.405 62.2926 184.448L60.679 186.381C60.6576 186.449 60.6576 186.521 60.679 186.589V200.31C60.6779 200.393 60.7068 200.474 60.7604 200.538C60.814 200.602 60.8888 200.644 60.9711 200.657Z" fill="white"/>
<path d="M54.252 200.657H57.4653C57.5588 200.657 57.6488 200.621 57.7163 200.557C57.7837 200.492 57.8234 200.403 57.827 200.31V186.589C57.8283 186.551 57.8216 186.512 57.8072 186.476C57.7929 186.44 57.7712 186.408 57.7435 186.381L56.1438 184.449C56.11 184.405 56.0667 184.37 56.0173 184.346C55.9679 184.322 55.9136 184.309 55.8586 184.309C55.8036 184.309 55.7494 184.322 55.7 184.346C55.6506 184.37 55.6073 184.405 55.5735 184.449L53.9599 186.381C53.9147 186.441 53.8903 186.514 53.8903 186.589V200.31C53.8939 200.403 53.9336 200.492 54.001 200.557C54.0685 200.621 54.1584 200.657 54.252 200.657V200.657Z" fill="white"/>
<path d="M47.5333 200.657H50.7466C50.8401 200.657 50.9301 200.621 50.9975 200.557C51.065 200.492 51.1046 200.403 51.1082 200.31V186.589C51.1096 186.551 51.1029 186.512 51.0885 186.476C51.0742 186.44 51.0524 186.408 51.0248 186.381L49.4251 184.449C49.3913 184.405 49.348 184.37 49.2986 184.346C49.2492 184.322 49.1949 184.309 49.1399 184.309C49.0849 184.309 49.0307 184.322 48.9812 184.346C48.9318 184.37 48.8886 184.405 48.8547 184.449L47.255 186.381C47.2274 186.408 47.2057 186.44 47.1913 186.476C47.177 186.512 47.1702 186.551 47.1716 186.589V200.31C47.1752 200.403 47.2149 200.492 47.2823 200.557C47.3497 200.621 47.4397 200.657 47.5333 200.657V200.657Z" fill="white"/>
<path d="M40.8146 200.657H44.028C44.0748 200.659 44.1215 200.652 44.1653 200.635C44.2091 200.618 44.2491 200.593 44.2829 200.561C44.3167 200.528 44.3436 200.489 44.3619 200.446C44.3803 200.403 44.3897 200.357 44.3896 200.31V186.589C44.3896 186.514 44.3653 186.441 44.3201 186.381L42.7065 184.449C42.6727 184.405 42.6294 184.37 42.58 184.346C42.5306 184.322 42.4763 184.309 42.4213 184.309C42.3663 184.309 42.3121 184.322 42.2627 184.346C42.2132 184.37 42.17 184.405 42.1362 184.449L40.5365 186.381C40.5088 186.408 40.4871 186.44 40.4727 186.476C40.4583 186.512 40.4516 186.551 40.453 186.589V200.31C40.4566 200.403 40.4963 200.492 40.5637 200.557C40.6311 200.621 40.7211 200.657 40.8146 200.657V200.657Z" fill="white"/>
<path d="M34.0959 200.657H37.3231C37.4154 200.657 37.5038 200.621 37.569 200.556C37.6342 200.49 37.6709 200.402 37.6709 200.31V186.589C37.6709 186.514 37.6465 186.441 37.6013 186.381L35.9877 184.448C35.9553 184.405 35.9133 184.37 35.865 184.346C35.8167 184.322 35.7635 184.309 35.7095 184.309C35.6555 184.309 35.6023 184.322 35.554 184.346C35.5057 184.37 35.4637 184.405 35.4313 184.448L33.8177 186.381C33.7963 186.449 33.7963 186.521 33.8177 186.589V200.31C33.816 200.391 33.843 200.47 33.8938 200.534C33.9447 200.597 34.0162 200.641 34.0959 200.657Z" fill="white"/>
<path d="M27.3913 200.657H30.6046C30.6968 200.657 30.7853 200.621 30.8505 200.556C30.9157 200.49 30.9524 200.402 30.9524 200.31V186.589C30.9794 186.522 30.9794 186.448 30.9524 186.381L29.3527 184.449C29.3188 184.405 29.2756 184.37 29.2262 184.346C29.1767 184.322 29.1225 184.309 29.0675 184.309C29.0125 184.309 28.9582 184.322 28.9088 184.346C28.8594 184.37 28.8162 184.405 28.7823 184.449L27.1687 186.381C27.1236 186.441 27.0992 186.514 27.0992 186.589V200.31C27.0981 200.393 27.127 200.474 27.1806 200.538C27.2342 200.602 27.309 200.644 27.3913 200.657Z" fill="white"/>
<path d="M20.672 200.657H23.8853C23.9788 200.657 24.0687 200.621 24.1362 200.557C24.2036 200.492 24.2433 200.403 24.2469 200.31V186.589C24.2483 186.551 24.2416 186.512 24.2272 186.476C24.2128 186.44 24.1911 186.408 24.1634 186.381L22.5638 184.449C22.5299 184.405 22.4867 184.37 22.4372 184.346C22.3878 184.322 22.3336 184.309 22.2786 184.309C22.2236 184.309 22.1693 184.322 22.1199 184.346C22.0705 184.37 22.0272 184.405 21.9934 184.449L20.3798 186.381C20.3347 186.441 20.3103 186.514 20.3103 186.589V200.31C20.3139 200.403 20.3535 200.492 20.421 200.557C20.4884 200.621 20.5784 200.657 20.672 200.657V200.657Z" fill="white"/>
<path d="M13.9532 200.657H17.1665C17.26 200.657 17.35 200.621 17.4174 200.557C17.4849 200.492 17.5245 200.403 17.5281 200.31V186.589C17.5295 186.551 17.5228 186.512 17.5084 186.476C17.494 186.44 17.4723 186.408 17.4447 186.381L15.845 184.449C15.8112 184.405 15.7679 184.37 15.7185 184.346C15.6691 184.322 15.6148 184.309 15.5598 184.309C15.5048 184.309 15.4506 184.322 15.4012 184.346C15.3518 184.37 15.3085 184.405 15.2747 184.449L13.675 186.381C13.6473 186.408 13.6256 186.44 13.6112 186.476C13.5968 186.512 13.5901 186.551 13.5915 186.589V200.31C13.5951 200.403 13.6348 200.492 13.7022 200.557C13.7697 200.621 13.8596 200.657 13.9532 200.657V200.657Z" fill="white"/>
<path d="M7.2346 200.657H10.4479C10.4948 200.659 10.5414 200.652 10.5853 200.635C10.6291 200.618 10.6691 200.593 10.7028 200.561C10.7366 200.528 10.7635 200.489 10.7818 200.446C10.8002 200.403 10.8096 200.357 10.8096 200.31V186.589C10.8096 186.514 10.7852 186.441 10.74 186.381L9.12641 184.449C9.09259 184.405 9.04932 184.37 8.9999 184.346C8.95049 184.322 8.89625 184.309 8.84126 184.309C8.78628 184.309 8.73199 184.322 8.68258 184.346C8.63317 184.37 8.5899 184.405 8.55607 184.449L6.95637 186.381C6.92872 186.408 6.90703 186.44 6.89265 186.476C6.87828 186.512 6.87155 186.551 6.87291 186.589V200.31C6.87651 200.403 6.91619 200.492 6.98363 200.557C7.05107 200.621 7.14104 200.657 7.2346 200.657V200.657Z" fill="white"/>
<path d="M370.033 21.1091H297.991C298.339 19.8302 300.231 15.4791 309.87 17.1472C309.061 16.4856 308.437 15.6256 308.059 14.6511C307.681 13.6766 307.562 12.6208 307.714 11.5868C307.82 10.964 308.111 10.3876 308.549 9.93251C308.949 9.55632 309.422 9.26752 309.94 9.08454C313.738 7.69441 320.387 12.9491 320.387 12.9491C312.249 0.159942 334.45 -5.20594 334.603 10.9751C334.603 10.9751 337.858 5.16439 341.419 6.80473C342.81 7.6249 341.976 10.1132 341.322 11.2114C351.727 6.16527 361.186 9.26525 356.777 15.0204C367.07 15.2011 370.033 21.1091 370.033 21.1091Z" fill="white"/>
</svg>
