<svg width="1015" height="674" fill="none" xmlns="http://www.w3.org/2000/svg"><g style="mix-blend-mode:luminosity" opacity=".1" clip-path="url(#clip0)"><path d="M383.769 21.811c9.933-11.588 35.789-4.312 53.497 5.182 0 0 12.184 5.74 16.715 8.718h.156l41.376-5.135a16.954 16.954 0 019.793 1.722l3.399 1.722a2.28 2.28 0 01-.14 4.111L478.1 51.193v.373l30.077 19.794.45.295a26.847 26.847 0 0019.168 3.739l16.109-2.87a4.413 4.413 0 012.453.202 4.071 4.071 0 012.486 3.14 4.061 4.061 0 01-1.416 3.747L528.803 95.22a9.853 9.853 0 01-10.46 1.396l-8.738-4.018-44.232-21.067 5.075 25.178a1.669 1.669 0 01-.378 1.382 1.653 1.653 0 01-1.313.573l-2.08-.078a8.273 8.273 0 01-6.86-4.157l-17.895-34.02-52.193-24.822c-6.953-3.227-9.437-9.215-5.96-13.776z" fill="#E0E0E0"/><path d="M784.92 286.266l-146.488-36.914-29.32 116.248L755.6 402.515l29.32-116.249z" fill="#fff"/><path d="M784.928 286.266L638.44 249.351l-7.675 30.431 146.488 36.915 7.675-30.431z" fill="#EBEBEB"/><path d="M651.412 312.73s.093-.59.31-1.552c.217-.961.59-2.575.993-4.328.854-3.692 2.065-8.904 3.586-15.11l.294.497-20.952-5.244.575-.341v.341l-.093.357-.187.714-.357 1.412a143.77 143.77 0 01-.714 2.807c-.465 1.846-.915 3.646-1.365 5.414-.901 3.491-1.754 6.811-2.546 9.851l-.295-.496c6.208 1.551 11.346 3.009 15.008 4.002l4.284 1.195c.527.128 1.045.289 1.552.481a6.502 6.502 0 01-1.444-.264l-4.236-.962a999.793 999.793 0 01-15.365-3.645l-.388-.109.093-.388 2.452-9.897c.435-1.753.885-3.568 1.35-5.414.233-.916.466-1.862.699-2.793l.357-1.427.186-.713.093-.357v-.342l.59-.341 20.921 5.337.403.108-.108.388c-1.646 6.36-3.104 11.619-4.067 15.249a348.108 348.108 0 01-1.164 4.189 6.29 6.29 0 01-.465 1.381zm27.424 6.918c.078-.521.181-1.039.31-1.551.269-1.117.595-2.56.978-4.328.853-3.692 2.079-8.889 3.6-15.094l.295.496-20.89-5.29.559-.326v.264l-.093.357-.186.729-.357 1.412c-.233.946-.481 1.877-.714 2.792-.466 1.846-.931 3.661-1.381 5.414-.901 3.506-1.739 6.81-2.53 9.867l-.295-.497c6.208 1.551 11.345 2.994 15.008 4.002l4.268 1.179a14.82 14.82 0 011.552.497 10.415 10.415 0 01-1.444-.264l-4.237-.962a1188.95 1188.95 0 01-15.364-3.661l-.388-.093.093-.403 2.452-9.882c.434-1.769.884-3.568 1.35-5.414l.699-2.808.356-1.412.187-.713.077-.373v-.263c-.512.294.699-.419.575-.357l20.936 5.352.404.093-.109.403c-1.645 6.361-3.104 11.62-4.066 15.25a395.65 395.65 0 01-1.164 4.188c-.119.479-.28.946-.481 1.396zm27.423 6.919c.068-.523.172-1.041.311-1.551.248-1.127.574-2.57.977-4.328.854-3.692 2.08-8.905 3.601-15.11l.295.497-20.968-5.213.575-.341v.264l-.094.356-.17.714-.357 1.427c-.249.931-.481 1.862-.714 2.793-.466 1.846-.931 3.645-1.381 5.414-.901 3.506-1.754 6.81-2.53 9.866l-.295-.496c6.208 1.551 11.345 2.994 15.008 3.986l4.268 1.195c.529.125 1.048.291 1.552.496a9.092 9.092 0 01-1.444-.279l-4.237-.946a1188.95 1188.95 0 01-15.364-3.661l-.404-.109-.031-.419a967.416 967.416 0 012.437-9.897c.45-1.753.9-3.568 1.365-5.414.218-.915.466-1.846.699-2.792l.357-1.428.171-.713.093-.357v-.341l.574-.342 20.937 5.337.388.108-.094.388c-1.645 6.361-3.104 11.62-4.066 15.265-.481 1.691-.869 3.103-1.164 4.173-.064.493-.163.98-.295 1.458zm27.424 6.966a9.873 9.873 0 01.311-1.552 923.976 923.976 0 014.578-19.422l.295.496-20.967-5.212.574-.341v.325l-.093.357-.171.714-.373 1.412-.698 2.807c-.466 1.846-.931 3.646-1.381 5.399-.9 3.506-1.754 6.81-2.53 9.866l-.31-.496c6.208 1.551 11.36 2.994 15.007 4.002l4.284 1.195c.525.134 1.043.294 1.552.481a8.034 8.034 0 01-1.459-.264l-4.237-.962c-3.663-.837-8.97-2.094-15.349-3.661l-.404-.093.093-.403 2.453-9.882c.434-1.769.9-3.568 1.35-5.414.233-.931.465-1.862.714-2.808l.357-1.412.17-.713.094-.357v-.435l.574-.341 20.921 5.337.403.093-.093.403c-1.645 6.36-3.104 11.619-4.066 15.249a275.454 275.454 0 00-1.164 4.189 9.702 9.702 0 01-.435 1.443zm27.408 6.857c.077-.522.181-1.04.311-1.552.264-1.132.59-2.559.993-4.328.854-3.692 2.064-8.904 3.585-15.094l.295.496-20.89-5.29.574-.341v.341l-.093.357-.186.714-.357 1.427-.698 2.792c-.481 1.846-.931 3.661-1.382 5.414-.9 3.506-1.753 6.811-2.545 9.867l-.295-.497c6.208 1.552 11.345 2.994 15.008 4.003l4.284 1.179c.531.119 1.05.285 1.552.496a9.977 9.977 0 01-1.444-.279l-4.237-.946c-3.662-.854-8.986-2.095-15.364-3.662l-.388-.093.093-.403 2.452-9.897c.434-1.753.884-3.568 1.35-5.414.238-.921.471-1.852.698-2.793l.357-1.427.187-.714.093-.356v-.311l.574-.341 20.921 5.352.404.093-.109.388c-1.645 6.36-3.104 11.635-4.051 15.265l-1.179 4.173c-.12.477-.292.94-.513 1.381zm-116.462-.652a9.861 9.861 0 01.311-1.551c.248-1.117.574-2.56.977-4.313.854-3.708 2.064-8.905 3.585-15.11l.311.497-20.968-5.213.575-.341v.31l-.094.372-.17.714-.373 1.412-.698 2.808c-.481 1.83-.931 3.645-1.381 5.398-.901 3.506-1.754 6.81-2.546 9.867l-.295-.497c6.208 1.551 11.361 2.994 15.008 4.003l4.284 1.179c.993.294 1.552.465 1.552.496-.492-.053-.98-.141-1.459-.264l-4.237-.962c-3.663-.853-8.971-2.094-15.349-3.661l-.404-.093.093-.403 2.452-9.882c.435-1.768.885-3.568 1.351-5.414.232-.931.465-1.862.714-2.808l.356-1.412.171-.713.093-.357v-.434l.575-.342 20.921 5.337.403.093-.093.403c-1.645 6.361-3.104 11.62-4.066 15.25a471.914 471.914 0 00-1.164 4.188c-.112.491-.257.973-.435 1.443zm27.409 6.841c.076-.522.18-1.039.31-1.551.264-1.132.59-2.56.993-4.328.854-3.692 2.065-8.905 3.586-15.094l.294.481-20.952-5.213.575-.341v.341l-.094.357-.186.714-.357 1.427c-.233.931-.465 1.877-.698 2.792-.481 1.846-.931 3.646-1.381 5.414-.901 3.506-1.754 6.81-2.546 9.867l-.295-.497c6.208 1.551 11.346 2.994 15.008 3.987l4.284 1.195c.531.119 1.05.285 1.552.496a9.588 9.588 0 01-1.444-.279l-4.236-.947c-3.663-.853-8.987-2.094-15.365-3.661l-.388-.093.093-.403 2.452-9.897c.435-1.753.885-3.568 1.35-5.415l.699-2.792.357-1.427.186-.714.093-.357v-.341l.574-.341 20.921 5.336.404.109-.109.388c-1.645 6.36-3.104 11.635-4.066 15.265-.466 1.691-.854 3.102-1.164 4.173a6.743 6.743 0 01-.45 1.349zm27.424 6.904s.093-.59.31-1.551c.217-.962.59-2.56.978-4.313a1113.66 1113.66 0 013.6-15.11l.295.497-20.952-5.213c.18-.124.367-.238.559-.341v.279l-.093.357-.186.714-.357 1.411c-.233.947-.482 1.877-.714 2.808-.466 1.846-.932 3.646-1.366 5.399-.916 3.506-1.754 6.825-2.545 9.866l-.295-.496c6.208 1.551 11.345 2.994 15.008 4.002l4.268 1.195c.527.127 1.045.288 1.552.48a7.943 7.943 0 01-1.444-.263l-4.237-.962a980.645 980.645 0 01-15.364-3.661l-.388-.093.093-.404 2.452-9.881c.434-1.753.884-3.568 1.35-5.415l.698-2.807.357-1.412.187-.714.093-.357v-.279l.574-.341 20.936 5.336.404.109-.109.388c-1.645 6.36-3.104 11.619-4.066 15.249a367.93 367.93 0 01-1.164 4.189 6.382 6.382 0 01-.434 1.334zm27.423 6.918c.068-.523.172-1.041.311-1.551.248-1.132.574-2.56.977-4.328.854-3.692 2.08-8.905 3.601-15.094l.295.496-20.967-5.228.574-.341v.341l-.078.357-.186.714-.357 1.427c-.248.946-.481 1.877-.714 2.792-.466 1.846-.931 3.661-1.381 5.414-.9 3.506-1.754 6.811-2.53 9.867l-.295-.497c6.208 1.551 11.345 2.994 15.008 4.003l4.268 1.179a13.21 13.21 0 011.552.496 9.951 9.951 0 01-1.443-.264l-4.237-.962a1188.39 1188.39 0 01-15.365-3.661l-.404-.093.109-.403a874.798 874.798 0 012.437-9.882c.45-1.768.9-3.568 1.365-5.43.218-.915.466-1.846.699-2.792l.357-1.427.17-.714.094-.356v-.264c-.513.295.698-.435.574-.357l20.936 5.352.388.093-.093.403c-1.645 6.345-3.104 11.62-4.066 15.25a471.914 471.914 0 00-1.164 4.188c-.119.433-.264.858-.435 1.272zm27.424 6.904a9.51 9.51 0 01.311-1.551c.248-1.138.574-2.581.977-4.328a976.396 976.396 0 013.601-15.11l.295.496-20.968-5.212.652-.311v.342l-.093.357-.171.713-.357 1.412c-.248.946-.481 1.877-.714 2.808-.465 1.846-.931 3.645-1.381 5.414-.9 3.49-1.754 6.81-2.53 9.851l-.31-.497c6.208 1.552 11.361 3.01 15.008 4.003l4.283 1.194c.526.134 1.044.294 1.552.481a6.454 6.454 0 01-1.458-.264l-4.237-.961a998.514 998.514 0 01-15.35-3.646l-.403-.109.093-.387 2.452-9.898c.435-1.753.9-3.568 1.35-5.414.233-.915.466-1.862.714-2.792l.357-1.428.171-.713.093-.357v-.341l.574-.342 20.875 5.228.388.109-.093.388c-1.646 6.36-3.104 11.619-4.067 15.249-.476 1.707-.864 3.103-1.164 4.189a9.645 9.645 0 01-.45 1.427zm-131.732-28.768l-5.281 20.939 20.948 5.279 5.281-20.939-20.948-5.279zm43.129 33.158c.069-.523.173-1.041.31-1.551.248-1.127.574-2.57.978-4.328a1174.72 1174.72 0 013.6-15.11l.295.496-20.967-5.259.574-.341v.279l-.093.357-.171.714-.357 1.427c-.248.931-.481 1.862-.714 2.792-.465 1.846-.931 3.646-1.381 5.414-.9 3.491-1.754 6.811-2.53 9.851l-.295-.481c6.208 1.552 11.345 2.994 15.008 3.987l4.268 1.195c.525.133 1.043.294 1.552.481a6.316 6.316 0 01-1.443-.264l-4.237-.962a961.905 961.905 0 01-15.365-3.645l-.404-.109.109-.388a960.996 960.996 0 012.437-9.897c.45-1.753.9-3.568 1.35-5.414.233-.916.481-1.862.714-2.793l.357-1.427.171-.714.093-.356v-.342l.574-.341 20.936 5.337.388.108-.093.388c-1.645 6.36-3.104 11.619-4.066 15.249-.476 1.707-.864 3.103-1.164 4.189a9.848 9.848 0 01-.434 1.458zm27.423 6.919a9.861 9.861 0 01.311-1.551c.248-1.117.574-2.56.978-4.328.853-3.693 2.064-8.89 3.585-15.095l.31.497-20.967-5.228c-.125.077 1.086-.636.574-.326v.31l-.093.373-.171.713-.373 1.412c-.227.951-.46 1.882-.698 2.792-.481 1.846-.931 3.661-1.381 5.414-.9 3.506-1.754 6.811-2.546 9.867l-.294-.497c6.208 1.552 11.36 2.994 15.007 4.003l4.284 1.179c.993.294 1.552.465 1.552.496-.492-.053-.98-.141-1.459-.264l-4.237-.962c-3.663-.853-8.97-2.094-15.349-3.661l-.404-.093.093-.403 2.453-9.882c.434-1.768.9-3.568 1.35-5.414.233-.931.465-1.862.714-2.808l.357-1.412.17-.713.094-.357v-.326c-.513.295.698-.419.574-.357l20.921 5.353.403.093-.093.403c-1.645 6.36-3.104 11.619-4.066 15.249a480.414 480.414 0 00-1.164 4.189c-.116.453-.261.899-.435 1.334zm27.424 6.919c.077-.522.181-1.04.311-1.552.264-1.132.59-2.575.993-4.328.854-3.692 2.064-8.904 3.585-15.11l.295.497-20.952-5.213.574-.341v.341l-.093.357-.186.714-.357 1.427c-.233.931-.466 1.877-.699 2.792-.481 1.847-.931 3.646-1.381 5.415-.9 3.506-1.754 6.81-2.545 9.866l-.295-.497c6.208 1.552 11.345 2.994 15.008 3.987l4.283 1.195a9.134 9.134 0 011.552.496 9.575 9.575 0 01-1.443-.279l-4.237-.946c-3.663-.854-8.986-2.095-15.365-3.661l-.388-.109.093-.388 2.453-9.897c.434-1.753.884-3.568 1.35-5.414l.698-2.793.357-1.427.186-.713.094-.357v-.341l.574-.342 20.921 5.337.403.108-.108.388c-1.645 6.361-3.104 11.619-4.051 15.265l-1.18 4.173a6.752 6.752 0 01-.45 1.35zm27.409 6.95s.093-.59.31-1.551c.217-.962.59-2.56.978-4.313a1113.66 1113.66 0 013.6-15.11l.295.496-20.952-5.212c.18-.124.367-.238.559-.341v.326l-.093.356-.186.714-.357 1.412c-.233.946-.481 1.877-.714 2.808-.466 1.846-.931 3.645-1.366 5.398-.916 3.506-1.754 6.826-2.545 9.866l-.295-.496c6.208 1.551 11.345 2.994 15.008 4.002l4.268 1.195c.527.128 1.045.288 1.552.481a7.96 7.96 0 01-1.444-.264l-4.237-.962a969.323 969.323 0 01-15.364-3.661l-.388-.093.093-.403 2.452-9.882c.434-1.769.885-3.568 1.35-5.414l.699-2.808.356-1.412.187-.713.093-.357v-.279l.574-.342 20.937 5.337.403.108-.109.388c-1.645 6.361-3.104 11.62-4.066 15.25a352.467 352.467 0 01-1.164 4.188 6.36 6.36 0 01-.434 1.288zm-75.629-144.688l-2.046-.516a2.28 2.28 0 00-2.77 1.653l-3.732 14.786a2.28 2.28 0 001.654 2.769l2.046.516a2.281 2.281 0 002.77-1.653l3.733-14.786a2.281 2.281 0 00-1.655-2.769zm42.079 10.621l-2.046-.516a2.281 2.281 0 00-2.77 1.653l-3.732 14.786a2.28 2.28 0 001.654 2.769l2.046.516a2.281 2.281 0 002.77-1.653l3.732-14.786a2.28 2.28 0 00-1.654-2.769zm42.064 10.625l-2.046-.515a2.281 2.281 0 00-2.77 1.653l-3.73 14.787a2.281 2.281 0 001.655 2.769l2.046.516a2.282 2.282 0 002.77-1.654l3.73-14.787a2.281 2.281 0 00-1.655-2.769z" fill="#E0E0E0"/><path d="M755.039 404.63s.155-.761.512-2.203c.357-1.443.869-3.584 1.552-6.345 1.381-5.554 3.383-13.667 5.944-24.014l21.464-85.85.28.481-146.494-36.844.574-.357c-10.864 42.77-21.014 83.151-29.891 118.319l-.31-.512 105.675 26.869 29.954 7.663 7.946 2.048 2.049.543.714.202s-.233 0-.683-.14l-2.002-.481-7.9-1.939-29.907-7.431-106.095-26.527-.419-.093.109-.419c8.862-35.169 19.027-75.565 29.798-118.319l.124-.465.45.124 146.447 36.999.388.093-.093.387-21.914 85.974c-2.638 10.286-4.656 18.352-6.13 23.891l-1.552 6.205c-.388 1.443-.59 2.141-.59 2.141zM56.762 164.284H26.855v93.39h29.907v-93.39zm44.667 21.331H71.522v72.058h29.907v-72.058zm41.345 29.273h-29.907v42.786h29.907v-42.786z" fill="#E0E0E0"/><path d="M165.542 276.026h-3.057l-8.785.077-32.281.124-106.498.124H7.005v-.403c0-39.869.093-75.611.124-101.44 0-12.861.094-23.27.125-30.484v-11.123 11.123c0 7.214 0 17.623.14 30.484 0 25.829 0 61.571.123 101.44l-.403-.403h7.807l106.498.124 32.281.124h11.066l.776.233z" fill="#E0E0E0"/><path d="M289.485 573.134a59.208 59.208 0 01-2.946 34.281 59.235 59.235 0 01-21.514 26.86 59.279 59.279 0 01-65.874.761 59.233 59.233 0 01-22.128-26.356 59.199 59.199 0 01-3.738-34.204 59.221 59.221 0 0115.915-30.51 59.257 59.257 0 0130.196-16.519 59.232 59.232 0 0144.501 8.349 59.182 59.182 0 0125.588 37.338z" fill="#F5F5F5"/><path d="M275.688 576.019a45.129 45.129 0 01-18.662 46.59 45.177 45.177 0 01-50.204.563 45.144 45.144 0 01-16.859-20.091 45.13 45.13 0 019.29-49.318 45.169 45.169 0 0123.015-12.587 45.14 45.14 0 0133.926 6.367 45.1 45.1 0 0119.494 28.476z" fill="#EBEBEB"/><path d="M275.377 574.638c-.264 0-.853-1.83-2.266-5.073a48.305 48.305 0 00-7.93-12.41 47.203 47.203 0 00-7.543-6.81 45.534 45.534 0 00-10.212-5.476 44.088 44.088 0 00-6.007-1.8 41.921 41.921 0 00-6.471-.962 42.943 42.943 0 00-6.767 0 44.185 44.185 0 00-13.503 3.273 43.08 43.08 0 00-6.021 3.103 41.617 41.617 0 00-5.324 3.801 42.891 42.891 0 00-4.501 4.359 45.208 45.208 0 00-6.596 9.541 46.592 46.592 0 00-3.585 9.494 47.884 47.884 0 00-1.334 14.722c.217 3.521.558 5.491.295 5.553-.264.062-.994-1.815-1.552-5.398a41.525 41.525 0 01.294-15.405 44.99 44.99 0 0110.15-20.601 44.55 44.55 0 014.765-4.763 43.013 43.013 0 015.68-4.173 45.555 45.555 0 016.472-3.366 48.724 48.724 0 017.14-2.358 47.11 47.11 0 0114.728-1.148 43.97 43.97 0 016.953 1.132 45.754 45.754 0 016.425 2.048 45.267 45.267 0 0118.469 13.683 42.023 42.023 0 017.31 13.574c.993 3.397 1.133 5.414.931 5.46z" fill="#E0E0E0"/><path d="M241.994 610.567l1.722 7.664-6.844 1.551-1.676-7.462c-6.876 1.101-13.86.45-18.298-1.66l1.893-9.199a28.283 28.283 0 0014.387 1.877l-2.561-11.433c-8.023-.14-17.072-.776-19.291-10.565-1.552-7.26 2.25-14.675 12.804-18.336l-1.769-7.633 6.86-1.551 1.676 7.462a31.68 31.68 0 0114.837 1.055l-1.552 9.199a28.886 28.886 0 00-11.283-1.21l2.607 11.635c8.009 0 16.948.744 19.105 10.409 1.677 7.152-2.141 14.474-12.617 18.197zm-13.642-28.746l-2.173-9.727c-3.446 1.629-4.439 3.941-3.942 6.206.496 2.265 2.886 3.242 6.115 3.521zm15.52 13.869c-.528-2.405-2.81-3.258-5.991-3.63l2.126 9.463c3.228-1.52 4.33-3.646 3.834-5.818l.031-.015z" fill="#E0E0E0"/><path d="M280.266 308.184a37.071 37.071 0 01-15.342 38.238 37.099 37.099 0 01-20.537 6.48 37.094 37.094 0 01-34.525-22.502 37.072 37.072 0 01-2.351-21.398 37.078 37.078 0 0128.818-29.455 37.07 37.07 0 0127.908 5.213 37.046 37.046 0 0116.029 23.424z" fill="#F5F5F5"/><path d="M271.621 309.984a28.251 28.251 0 01-11.681 29.177 28.288 28.288 0 01-31.438.351 28.25 28.25 0 01-4.727-43.465 28.274 28.274 0 0114.416-7.874 28.223 28.223 0 0129.109 11.683 28.182 28.182 0 014.321 10.128z" fill="#EBEBEB"/><path d="M271.435 309.115a18.454 18.454 0 01-1.428-3.103 29.204 29.204 0 00-9.669-12.084 28.255 28.255 0 00-6.409-3.429 26.425 26.425 0 00-3.756-1.117 24.512 24.512 0 00-4.051-.605 27.744 27.744 0 00-4.237 0c-1.448.122-2.885.35-4.299.683-1.417.349-2.807.8-4.159 1.349a28.777 28.777 0 00-3.772 1.924 27.715 27.715 0 00-6.208 5.119 27.846 27.846 0 00-6.363 11.915 29.996 29.996 0 00-.838 9.214c.187 1.149.244 2.314.171 3.475a8.718 8.718 0 01-1.009-3.382c-.538-3.2-.475-6.472.186-9.649a28.49 28.49 0 012.111-6.391 29.456 29.456 0 014.237-6.5 27.177 27.177 0 012.995-2.979 29.031 29.031 0 013.539-2.621c1.301-.8 2.66-1.5 4.066-2.095a28.453 28.453 0 014.47-1.473 30.25 30.25 0 014.656-.73 28.844 28.844 0 018.924.714c1.371.324 2.715.754 4.019 1.288a28.921 28.921 0 016.752 3.847 28.407 28.407 0 014.811 4.654 26.134 26.134 0 014.656 8.485 8.311 8.311 0 01.605 3.491z" fill="#E0E0E0"/><path d="M250.529 331.609l1.087 4.809-4.299.947-1.04-4.654a20.81 20.81 0 01-11.454-1.04l1.18-5.755a17.938 17.938 0 009.017 1.179l-1.552-7.167c-5.013-.078-10.693-.481-12.075-6.609-1.009-4.545 1.413-9.183 8.024-11.479l-1.071-4.763 4.284-.962 1.055 4.654a20.19 20.19 0 019.312.667l-.962 5.756a18.25 18.25 0 00-7.062-.761l1.552 7.292c5.013 0 10.6.465 11.966 6.515.994 4.452-1.397 9.044-7.962 11.371zm-8.536-17.995l-1.365-6.081c-2.158 1.024-2.778 2.467-2.468 3.878.31 1.412 1.816 2.032 3.833 2.203zm9.7 8.687c-.341-1.551-1.769-2.047-3.755-2.28l1.334 5.926c2.033-.946 2.732-2.28 2.421-3.646z" fill="#E0E0E0"/><path d="M1013.15 179.953a59.85 59.85 0 01-3 34.65 59.904 59.904 0 01-54.941 37.609 59.924 59.924 0 01-33.407-9.728 59.894 59.894 0 01-22.362-26.645 59.852 59.852 0 01-3.775-34.575 59.875 59.875 0 0116.086-30.839 59.92 59.92 0 0130.521-16.702 59.869 59.869 0 0145.019 8.442 59.792 59.792 0 0116.689 16.323 59.796 59.796 0 019.17 21.465z" fill="#F5F5F5"/><path d="M999.2 182.854a45.653 45.653 0 01-2.285 26.412 45.644 45.644 0 01-16.586 20.687 45.675 45.675 0 01-50.754.566 45.626 45.626 0 01-7.652-70.171 45.664 45.664 0 0123.267-12.725 45.633 45.633 0 0134.302 6.438 45.596 45.596 0 0119.708 28.793z" fill="#EBEBEB"/><path d="M998.889 181.504c-.264 0-.869-1.862-2.297-5.119a48.622 48.622 0 00-8.024-12.628 47.39 47.39 0 00-7.62-6.872 46.09 46.09 0 00-10.336-5.539 43.797 43.797 0 00-6.069-1.83 42.74 42.74 0 00-6.534-.962 43.925 43.925 0 00-6.844 0 49.232 49.232 0 00-6.953 1.117 47.815 47.815 0 00-6.705 2.187 44.926 44.926 0 00-6.099 3.103 42.37 42.37 0 00-5.354 3.847 45.198 45.198 0 00-14.853 23.658 48.515 48.515 0 00-1.35 14.877c.217 3.568.559 5.554.295 5.616-.264.062-1.009-1.831-1.661-5.461a42.17 42.17 0 01.31-15.513 46.04 46.04 0 013.43-10.332 46.557 46.557 0 016.845-10.502 46.395 46.395 0 0110.538-9.122 45.121 45.121 0 016.565-3.397 46.372 46.372 0 0114.728-3.568 46.523 46.523 0 017.372 0c2.371.182 4.723.56 7.031 1.132a44.691 44.691 0 016.487 2.079 45.625 45.625 0 0118.624 13.822 42.435 42.435 0 017.403 13.729c1.118 3.553 1.273 5.585 1.071 5.678z" fill="#E0E0E0"/><path d="M965.133 217.774l1.738 7.756-6.922 1.551-1.691-7.539c-6.953 1.117-13.968.45-18.5-1.675l1.909-9.308a28.77 28.77 0 0014.558 1.908l-2.608-11.573c-8.101-.14-17.274-.776-19.493-10.673-1.645-7.353 2.282-14.846 12.944-18.616l-1.723-7.756 6.922-1.552 1.692 7.555a32.085 32.085 0 0115.023 1.071l-1.552 9.308a29.25 29.25 0 00-11.407-1.226l2.638 11.775c8.086 0 17.072.744 19.307 10.502 1.614 7.338-2.25 14.799-12.835 18.492zm-13.797-29.057l-2.204-9.835c-3.477 1.66-4.485 3.987-3.973 6.205.512 2.219 2.918 3.351 6.177 3.63zm15.659 13.962c-.543-2.42-2.84-3.289-6.052-3.661l2.141 9.556c3.291-1.473 4.408-3.614 3.911-5.833v-.062zM793.296 661.807l-87.378-8.362a4.651 4.651 0 01-4.113-3.158 4.653 4.653 0 01-.233-1.806l15.132-136.516a6.8 6.8 0 017.59-5.724l83.296 7.973a6.55 6.55 0 016.208 7.043l-15.132 136.516a4.8 4.8 0 01-5.37 4.034z" fill="#E0E0E0"/><path d="M784.48 660.969l-87.378-8.362a4.651 4.651 0 01-4.345-4.964l15.132-136.515a6.814 6.814 0 017.589-5.725l83.296 7.974a6.585 6.585 0 015.881 4.468c.279.828.39 1.703.327 2.575L789.85 656.936a4.795 4.795 0 01-5.37 4.033z" fill="#F5F5F5"/><path d="M736.213 637.032l-25.437-2.435a3.516 3.516 0 01-3.104-2.389 3.496 3.496 0 01-.171-1.365l.729-6.64a3.63 3.63 0 014.036-3.103l25.437 2.529a3.506 3.506 0 013.275 3.754l-.745 6.64a3.618 3.618 0 01-4.02 3.009z" fill="#E0E0E0"/><path d="M793.606 558.861l-82.986-7.942 3.353-30.235 82.985 7.942-3.352 30.235z" fill="#FAFAFA"/><path d="M793.606 558.861v-.543l.155-1.551c.155-1.381.373-3.413.652-6.019.559-5.212 1.381-12.767 2.39-22.137l.093.108-82.97-7.911.155-.109c-1.179 10.564-2.312 20.788-3.367 30.235l-.125-.14 59.458 5.756 17.273 1.691 4.656.45 1.195.124h.419-.403l-1.18-.093-4.656-.435-17.258-1.551-59.55-5.647h-.14v-.124c1.04-9.432 2.173-19.655 3.337-30.235v-.14h.155l82.955 7.99h.108v.077c-1.071 9.401-1.924 16.956-2.514 22.184a2335.16 2335.16 0 01-.683 5.988 97.25 97.25 0 01-.186 1.551c-.047.357.031.481.031.481zm-70.166 18.725l-7.76-.76a2.997 2.997 0 01-2.824-3.212l.807-7.275a3.1 3.1 0 013.461-2.606l7.76.744a3 3 0 012.677 2.038c.127.377.177.776.147 1.173l-.807 7.276a3.102 3.102 0 01-3.461 2.622z" fill="#E0E0E0"/><path d="M721.267 577.368l-7.76-.744a2.994 2.994 0 01-2.809-3.227l.807-7.26a3.105 3.105 0 013.461-2.622l7.76.745a3.012 3.012 0 012.678 2.05c.126.379.176.779.147 1.177l-.807 7.26a3.102 3.102 0 01-3.477 2.621z" fill="#EBEBEB"/><path d="M719.374 567.781l-.605 5.461-1.351-.124.481-4.452-1.164-.109.109-1.024 2.53.248z" fill="#fff"/><path d="M743.104 579.463l-7.76-.745a3.012 3.012 0 01-2.678-2.05 3.03 3.03 0 01-.147-1.176l.807-7.261a3.106 3.106 0 013.477-2.621l7.76.744a2.994 2.994 0 012.809 3.227l-.807 7.26a3.101 3.101 0 01-3.461 2.622z" fill="#E0E0E0"/><path d="M740.931 579.261l-7.76-.76a2.996 2.996 0 01-2.825-3.211l.807-7.276a3.104 3.104 0 013.461-2.606l7.76.745a2.983 2.983 0 012.087 1.012 2.999 2.999 0 01.738 2.199l-.807 7.275a3.104 3.104 0 01-3.461 2.622z" fill="#EBEBEB"/><path d="M740.729 574.266l-.124 1.024-4.439-.419.093-.822 2.484-1.769c.574-.419.698-.682.729-.946.031-.264-.248-.714-.869-.776a1.55 1.55 0 00-1.273.435l-.931-.683a2.86 2.86 0 012.452-.791c1.304.124 2.111.822 2.002 1.815a2.158 2.158 0 01-1.164 1.551l-1.552 1.055 2.592.326z" fill="#fff"/><path d="M763.497 581.417l-7.76-.744a3.008 3.008 0 01-2.677-2.051 2.988 2.988 0 01-.147-1.176l.807-7.276a3.1 3.1 0 013.461-2.606l7.759.745a3.008 3.008 0 012.678 2.051c.127.378.177.778.147 1.176l-.807 7.26a3.104 3.104 0 01-3.461 2.621z" fill="#E0E0E0"/><path d="M761.309 581.2l-7.76-.744a3 3 0 01-2.664-2.042 2.994 2.994 0 01-.145-1.17l.807-7.275a3.1 3.1 0 013.461-2.622l7.76.76a2.964 2.964 0 012.809 3.211l-.792 7.323a3.1 3.1 0 01-3.476 2.559z" fill="#EBEBEB"/><path d="M761.091 575.538c-.108.931-.962 1.691-2.638 1.551a4.177 4.177 0 01-2.173-.806l.637-.916a2.855 2.855 0 001.629.652c.667.077 1.118-.14 1.18-.59.062-.45-.264-.698-1.04-.775h-.621l.093-.838 1.35-1.148-2.498-.248.108-1.009 4.129.388-.094.822-1.552 1.272c.207.008.41.057.597.145a1.546 1.546 0 01.893 1.5z" fill="#fff"/><path d="M783.875 583.372l-7.76-.76a2.978 2.978 0 01-2.809-3.211l.807-7.276a3.1 3.1 0 013.461-2.606l7.76.745a2.968 2.968 0 012.082 1.013 2.977 2.977 0 01.727 2.198l-.807 7.275a3.105 3.105 0 01-3.461 2.622z" fill="#E0E0E0"/><path d="M781.749 583.155l-7.76-.745a3.002 3.002 0 01-2.083-1.023 2.984 2.984 0 01-.726-2.203l.807-7.26a3.1 3.1 0 013.461-2.622l7.76.744a2.982 2.982 0 012.082 1.024 2.99 2.99 0 01.727 2.203l-.807 7.26a3.105 3.105 0 01-3.461 2.622z" fill="#EBEBEB"/><path d="M781.624 576.562l-6.301-.605.062-.497 6.302.605-.063.497zm-1.815-2.994a1.006 1.006 0 01-1.133.837.988.988 0 01-.866-.66.996.996 0 01-.05-.379 1.023 1.023 0 011.133-.853.975.975 0 01.916 1.055zm-.559 5.073a1.012 1.012 0 01-1.133.853.969.969 0 01-.87-.658.968.968 0 01-.046-.381 1.025 1.025 0 011.133-.854.995.995 0 01.916 1.04z" fill="#fff"/><path d="M721.314 596.775l-7.76-.744a3.013 3.013 0 01-2.825-3.227l.807-7.26a3.105 3.105 0 013.461-2.622l7.76.745a3.012 3.012 0 012.678 2.05c.126.379.176.779.147 1.177l-.807 7.26a3.105 3.105 0 01-3.461 2.621z" fill="#E0E0E0"/><path d="M719.125 596.574l-7.76-.76a2.97 2.97 0 01-1.143-.297 2.967 2.967 0 01-1.525-1.742 2.987 2.987 0 01-.141-1.172l.807-7.276a3.105 3.105 0 013.461-2.606l7.76.744a3.023 3.023 0 012.673 2.04c.128.377.179.775.152 1.171l-.807 7.276a3.108 3.108 0 01-1.201 2.023 3.111 3.111 0 01-2.276.599z" fill="#EBEBEB"/><path d="M718.489 591.423l-.962-.093-.124 1.148-1.32-.124.125-1.148-3.104-.31.093-.838 3.104-3.211 1.428.14-2.934 3.102 1.552.156.109-1.024 1.288.124-.108 1.024.946.093-.093.961z" fill="#fff"/><path d="M740.978 598.653l-7.76-.745a3.005 3.005 0 01-2.087-1.013 2.996 2.996 0 01-.738-2.198l.807-7.276a3.105 3.105 0 013.461-2.622l7.76.76a2.983 2.983 0 012.825 3.212l-.807 7.275a3.105 3.105 0 01-3.461 2.607z" fill="#E0E0E0"/><path d="M738.805 598.451l-7.76-.745a3.012 3.012 0 01-2.678-2.051 3.025 3.025 0 01-.147-1.176l.807-7.26a3.105 3.105 0 013.461-2.622l7.76.745a3.008 3.008 0 012.678 2.051c.127.378.177.778.147 1.176l-.807 7.26a3.101 3.101 0 01-3.461 2.622z" fill="#EBEBEB"/><path d="M737.982 592.711c-.109.978-.962 1.738-2.654 1.552a4.228 4.228 0 01-2.173-.807l.652-.915c.442.365.982.592 1.552.651.683 0 1.118-.155 1.18-.605.062-.45-.233-.729-1.288-.838l-1.552-.139.636-3.103 3.585.341-.109 1.009-2.452-.233-.202 1.024h.466c1.847.31 2.468 1.101 2.359 2.063z" fill="#fff"/><path d="M761.371 600.607l-7.838-.744a2.996 2.996 0 01-2.809-3.211l.807-7.276a3.105 3.105 0 013.461-2.622l7.76.76a3 3 0 012.825 3.212l-.807 7.275a3.1 3.1 0 01-3.399 2.606z" fill="#E0E0E0"/><path d="M759.183 600.359l-7.76-.745a2.985 2.985 0 01-2.083-1.023 2.994 2.994 0 01-.727-2.203l.807-7.261a3.105 3.105 0 013.461-2.621l7.76.744a3.003 3.003 0 012.083 1.024 2.99 2.99 0 01.727 2.203l-.807 7.26a3.105 3.105 0 01-3.461 2.622z" fill="#EBEBEB"/><path d="M758.779 594.697a2.011 2.011 0 01-.885 1.282 2.015 2.015 0 01-1.536.269 2.41 2.41 0 01-1.88-.919 2.41 2.41 0 01-.448-2.044c.016-.403.118-.798.299-1.158.182-.359.439-.676.754-.928a2.827 2.827 0 012.268-.567 3.422 3.422 0 011.552.528l-.62.884a2.081 2.081 0 00-1.056-.388 1.554 1.554 0 00-1.831 1.427 2.117 2.117 0 011.552-.341 1.807 1.807 0 011.739 1.211c.083.239.114.492.092.744zm-1.319 0c0-.497-.31-.853-.916-.915a.903.903 0 00-.706.129.916.916 0 00-.396.6c0 .465.28.837.932.899a.891.891 0 00.972-.418.881.881 0 00.114-.357v.062z" fill="#fff"/><path d="M781.749 602.562l-7.76-.745a3.002 3.002 0 01-2.083-1.023 2.984 2.984 0 01-.726-2.203l.807-7.26a3.1 3.1 0 013.461-2.622l7.76.744a2.982 2.982 0 012.082 1.024 2.99 2.99 0 01.727 2.203l-.807 7.26a3.105 3.105 0 01-3.461 2.622z" fill="#E0E0E0"/><path d="M779.529 602.361l-7.76-.761a2.99 2.99 0 01-2.824-3.211l.807-7.275a3.1 3.1 0 013.461-2.607l7.76.745a3 3 0 012.677 2.038c.127.377.177.776.147 1.173l-.807 7.276a3.107 3.107 0 01-3.461 2.622z" fill="#EBEBEB"/><path d="M774.066 597.443l-.326-.388 4.967-3.646.341.388-4.982 3.646z" fill="#fff"/><path d="M778.179 597.861l-4.004-4.56.419-.311 4.004 4.561-.419.31z" fill="#fff"/><path d="M719.203 615.872l-7.76-.76a2.994 2.994 0 01-2.824-3.211l.807-7.276a3.103 3.103 0 013.367-2.715l7.76.76a3.002 3.002 0 012.678 2.038c.126.377.176.776.147 1.174l-.807 7.275a3.104 3.104 0 01-3.368 2.715z" fill="#E0E0E0"/><path d="M717.015 615.608l-7.76-.744a3.003 3.003 0 01-2.083-1.024 2.982 2.982 0 01-.726-2.203l.807-7.26a3.1 3.1 0 013.461-2.622l7.76.745a3.007 3.007 0 012.824 3.227l-.807 7.26a3.102 3.102 0 01-3.476 2.621z" fill="#EBEBEB"/><path d="M716.068 606.083l-.078.807-2.7 4.437-1.475-.14 2.592-4.235-1.94-.186-.108.9-1.211-.124.217-1.924 4.703.465z" fill="#fff"/><path d="M738.867 617.703l-7.76-.745a3.007 3.007 0 01-2.825-3.227l.807-7.26a3.101 3.101 0 013.461-2.621l7.76.744a3.013 3.013 0 012.825 3.227l-.807 7.26a3.105 3.105 0 01-3.461 2.622z" fill="#E0E0E0"/><path d="M736.694 617.423l-7.76-.744a3 3 0 01-2.825-3.211l.807-7.276a3.105 3.105 0 013.461-2.622l7.761.76a3.005 3.005 0 012.677 2.038c.127.377.177.776.147 1.173l-.807 7.276a3.105 3.105 0 01-3.461 2.606z" fill="#EBEBEB"/><path d="M736.337 611.932c-.124 1.039-1.179 1.551-2.685 1.443-1.505-.109-2.39-.884-2.281-1.908a1.456 1.456 0 011.04-1.21 1.279 1.279 0 01-.559-1.195c.109-.946 1.102-1.458 2.437-1.334 1.334.124 2.203.822 2.095 1.768a1.288 1.288 0 01-.807 1.071 1.35 1.35 0 01.76 1.365zm-1.381-.171c0-.481-.341-.822-1.024-.884-.683-.062-1.118.186-1.18.683-.062.496.342.822 1.009.884.667.062 1.148-.202 1.195-.683zm-1.754-2.513c0 .419.28.714.823.76.543.047.962-.17 1.009-.574.046-.403-.295-.729-.854-.775-.559-.047-.931.17-.978.589z" fill="#fff"/><path d="M759.26 619.657l-7.837-.76a2.973 2.973 0 01-2.668-2.039 2.986 2.986 0 01-.142-1.172l.807-7.276a3.104 3.104 0 013.461-2.606l7.76.745c.397.023.786.125 1.143.3.358.174.677.418.939.717a2.993 2.993 0 01.743 2.194l-.807 7.276a3.104 3.104 0 01-3.399 2.621z" fill="#E0E0E0"/><path d="M757.072 619.44l-7.76-.744a3.003 3.003 0 01-2.083-1.024 2.982 2.982 0 01-.726-2.203l.807-7.26a3.1 3.1 0 013.461-2.622l7.76.745a2.994 2.994 0 012.809 3.227l-.807 7.275a3.105 3.105 0 01-3.461 2.606z" fill="#EBEBEB"/><path d="M756.637 612.599a2.816 2.816 0 01-1.058 2.079 2.821 2.821 0 01-2.263.574 3.353 3.353 0 01-1.552-.528l.605-.884c.314.226.685.361 1.071.388a1.556 1.556 0 001.66-.812 1.56 1.56 0 00.172-.631 2.05 2.05 0 01-1.552.357c-1.149-.109-1.956-.869-1.847-1.893a2.026 2.026 0 01.895-1.283 2.031 2.031 0 011.541-.268 2.398 2.398 0 012.315 1.847c.082.346.087.706.013 1.054zm-1.412-1.101c0-.466-.295-.838-.947-.9a.87.87 0 00-1.07.713c0 .497.31.854.915.916a.926.926 0 00.707-.13.913.913 0 00.395-.599z" fill="#fff"/><path d="M779.638 621.597l-7.76-.745a2.978 2.978 0 01-2.809-3.211l.807-7.276a3.108 3.108 0 013.461-2.622l7.76.761c.398.019.788.118 1.146.292a2.95 2.95 0 011.526 1.744c.124.379.171.778.137 1.175l-.807 7.26a3.104 3.104 0 01-3.461 2.622z" fill="#E0E0E0"/><path d="M777.465 621.395l-7.76-.745a3.017 3.017 0 01-2.088-1.022 3.016 3.016 0 01-.737-2.204l.807-7.26a3.105 3.105 0 013.461-2.622l7.76.744a3.026 3.026 0 012.088 1.023 3 3 0 01.737 2.204l-.807 7.26a3.104 3.104 0 01-3.461 2.622z" fill="#EBEBEB"/><path d="M777.403 615.019l-6.301-.605.062-.497 6.286.605-.047.497z" fill="#fff"/><path d="M757.118 638.863l-7.76-.745a2.998 2.998 0 01-2.809-3.227l.807-7.275a3.102 3.102 0 013.461-2.607l7.76.745a2.985 2.985 0 012.083 1.023 2.985 2.985 0 01.726 2.204l-.807 7.26a3.107 3.107 0 01-3.461 2.622z" fill="#E0E0E0"/><path d="M754.946 638.645l-7.761-.744a3.023 3.023 0 01-2.082-1.017 3.005 3.005 0 01-.742-2.194l.807-7.276a3.104 3.104 0 013.476-2.622l7.76.76a2.992 2.992 0 012.082 1.014 2.977 2.977 0 01.728 2.198l-.808 7.275a3.1 3.1 0 01-3.46 2.606z" fill="#EBEBEB"/><path d="M777.512 640.817l-7.76-.76a3.005 3.005 0 01-2.087-1.013 2.996 2.996 0 01-.738-2.198l.807-7.276a3.101 3.101 0 013.477-2.606l7.76.745a2.977 2.977 0 012.076 1.018 2.978 2.978 0 01.733 2.193l-.807 7.275a3.105 3.105 0 01-3.461 2.622z" fill="#E0E0E0"/><path d="M775.339 640.6l-7.76-.745a3.012 3.012 0 01-2.678-2.05 3.027 3.027 0 01-.147-1.176l.807-7.26a3.105 3.105 0 013.461-2.622l7.76.744a3.026 3.026 0 012.088 1.023 3 3 0 01.737 2.204l-.807 7.26a3.104 3.104 0 01-3.461 2.622z" fill="#EBEBEB"/><path d="M775.355 633.511l-6.302-.605.062-.497 6.286.59-.046.512zm-.249 2.218l-6.301-.605.062-.496 6.286.605-.047.496z" fill="#fff"/><path d="M733.435 636.769l-26.493-2.545a3.593 3.593 0 01-3.208-2.453 3.586 3.586 0 01-.175-1.409l.714-6.438a3.738 3.738 0 014.159-3.103l26.493 2.529a3.593 3.593 0 012.508 1.227 3.603 3.603 0 01.875 2.651l-.714 6.422a3.724 3.724 0 01-4.159 3.119z" fill="#EBEBEB"/><path d="M719.669 628.391a2.576 2.576 0 01.844-1.925 2.594 2.594 0 013.02-.344 2.505 2.505 0 011.214 1.709c.066.355.055.721-.034 1.072a2.569 2.569 0 01-.841 1.927 2.563 2.563 0 01-2 .648 2.46 2.46 0 01-1.826-1.027 2.462 2.462 0 01-.377-2.06zm3.678.357c.124-1.241-.28-1.815-.962-1.877-.683-.062-1.195.403-1.335 1.644-.14 1.241.279 1.8.947 1.877.667.078 1.21-.419 1.35-1.644zm28.308 5.926l-.543-.062.761-5.833.527.062-.745 5.833z" fill="#fff"/><path d="M754.884 632.269l-6.301-.589.062-.512 6.285.605-.046.496z" fill="#fff"/><path d="M915.19 673.348c0 .218-184.269.404-411.513.404-227.244 0-411.545-.186-411.545-.404 0-.217 184.223-.403 411.545-.403 227.321 0 411.513.186 411.513.403zM574.851 134.964a56.938 56.938 0 0118.764 49.208c-1.133 8.812-4.066 18.771 1.366 25.814 5.432 7.043 16.56 7.307 21.728 14.458 6.037 8.408 0 20.167 1.878 30.375a20.487 20.487 0 0021.014 16.273 80.005 80.005 0 01-40.445 15.234l-10.43-14.846c3.958 5.197 2.452 13.078-1.862 17.964-4.315 4.887-10.724 7.338-17.072 9.014a101.523 101.523 0 01-46.262.92 101.49 101.49 0 01-41.861-19.707" fill="#263238"/><path d="M404.705 204.929c2.561-6.671 6.581-12.767 8.412-19.671 3.942-14.83-2.545-32.05 5.401-45.19 5.649-9.308 16.901-13.512 27.486-16.211 10.585-2.699 21.93-4.887 30.078-12.147 5.975-5.336 9.607-12.907 15.52-18.259 8.489-7.632 20.595-9.773 32.002-9.913 11.733-.14 23.761 1.552 34.035 7.245 10.275 5.693 18.578 15.792 19.866 27.443.636 5.678-.341 11.542 1.18 17.064 1.66 6.05 6.114 10.859 8.737 16.646a30.044 30.044 0 01-9.312 35.68l-85.36 99.719c-17.18 5.538-57.657-4.158-70.073-17.251-12.416-13.093-24.397-48.246-17.972-65.155z" fill="#263238"/><path d="M576.667 174.29c-2.157-23.688-18.702-52.372-42.354-49.223l-73.286 20.757a13.963 13.963 0 00-12.074 14.427l12.85 177.843-.434.093s18.112 49.782 66.55 33.198c9.607-3.289 13.75-13.962 15.395-24.93l.125-28.141c-.233-14.38-.404-20.275-.388-20.167.015.109 30.202-5.879 35.385-45.608 2.515-19.702.621-51.938-1.769-78.249z" fill="#FFBE9D"/><path d="M511.918 210.669a5.09 5.09 0 01-4.765 5.259 4.871 4.871 0 01-3.607-1.085 4.857 4.857 0 01-1.747-3.337 5.063 5.063 0 014.749-5.259 4.85 4.85 0 014.832 2.573c.301.574.484 1.203.538 1.849zm52.55-1.722a5.09 5.09 0 01-4.764 5.259 4.884 4.884 0 01-3.609-1.096 4.876 4.876 0 01-1.746-3.341 5.089 5.089 0 014.75-5.259 4.897 4.897 0 014.828 2.589c.301.574.485 1.202.541 1.848zm7.76-17.065c-.605.9-5.168-2.311-11.096-1.737-5.929.574-9.902 4.421-10.647 3.63-.357-.341.186-1.908 1.909-3.692a13.63 13.63 0 018.412-3.941c3.172-.276 6.34.582 8.939 2.42 1.987 1.459 2.778 2.917 2.483 3.32zm-54.987 3.584c-.745.806-5.199-2.777-11.547-2.808-6.348-.031-11.019 3.32-11.702 2.482-.341-.372.404-1.862 2.437-3.428a15.383 15.383 0 019.312-2.995c3.34.033 6.574 1.18 9.188 3.258 2.017 1.676 2.685 3.165 2.312 3.491zm20.176 38.24c0-.311 3.352-.993 8.831-1.846 1.397-.187 2.7-.497 2.918-1.459a7.07 7.07 0 00-1.056-4.095 2254.834 2254.834 0 00-4.423-10.503c-6.208-14.954-10.631-27.272-10.026-27.504.605-.233 6.084 11.681 12.23 26.636l4.237 10.564c.574 1.552 1.552 3.336.885 5.445a3.519 3.519 0 01-2.235 2.11 9.638 9.638 0 01-2.359.388c-5.541.45-9.002.574-9.002.264z" fill="#263238"/><path d="M542.989 298.209a100.791 100.791 0 01-53.389-12.658s14.092 27.396 53.591 22.587l-.202-9.929z" fill="#EB996E"/><path d="M535.477 246.938a9.844 9.844 0 00-8.924-3.382 8.951 8.951 0 00-6.115 3.491 5.703 5.703 0 00-.248 6.531c1.552 2.032 4.656 2.42 7.217 1.551a20.838 20.838 0 006.859-4.343 6.105 6.105 0 001.552-1.66 1.784 1.784 0 000-2.033" fill="#FF725E"/><path d="M521.447 237.925c.885 0 1.071 5.864 6.208 9.929 5.137 4.064 11.485 3.226 11.562 4.064.093.357-1.381 1.179-4.05 1.334a14.798 14.798 0 01-9.623-3.102 12.892 12.892 0 01-4.873-8.331c-.248-2.42.372-3.909.776-3.894zm-3.802-57.135c-.497 1.552-5.976.947-12.416 1.893-6.441.946-11.532 2.839-12.416 1.551-.404-.636.465-2.048 2.514-3.552a21.732 21.732 0 0118.872-2.607c2.437.869 3.647 2.002 3.446 2.715zm50.021-11.076c-1.071 1.272-5.401.093-10.57.186-5.168.093-9.529 1.086-10.569-.171-.465-.62.187-1.877 2.065-3.102a16.322 16.322 0 018.551-2.265 15.907 15.907 0 018.489 2.265c1.863 1.21 2.499 2.466 2.034 3.087z" fill="#263238"/><path d="M444.794 150.679c3.911-5.429 10.6-7.989 16.947-10.083a363.971 363.971 0 0184.631-17.189c3.275 6.035-.419 13.853-5.991 17.856-5.571 4.002-12.571 5.352-19.105 7.446-6.534 2.094-13.316 5.461-16.28 11.666-3.104 6.593-1.149 14.675-3.958 21.408-4.842 11.604-21.511 14.598-26.275 26.233-3.601 8.78 1.117 18.616 1.955 28.032a33.96 33.96 0 01-9.232 26.459 33.988 33.988 0 01-25.983 10.525l-.9-101.922c-.062-7.074.047-14.691 4.191-20.431z" fill="#263238"/><path d="M372.315 232.914c5.587-4.529 12.509-8.346 14.977-15.109 3.585-9.836-3.865-21.967 1.754-30.825 5.121-8.067 18.996-6.965 23.792-15.234 3.756-6.453.109-12.504 1.692-18.259 1.583-5.755 10.088-10.44 15.985-9.463l43.006 69.313c3.197 22.711 6.922 34.889 1.459 47.811-3.011 7.09-6.813 13.962-8.226 21.533-1.412 7.57.109 16.288 6.131 21.098-27.781.822-53.017-14.924-76.297-30.096l-24.63-16.056a18.617 18.617 0 01-6.689-6.205c-3.414-6.314 1.428-13.978 7.046-18.508z" fill="#263238"/><path d="M396.185 266.826c.949.341 1.933.575 2.933.698a25.23 25.23 0 008.645-.186 26.607 26.607 0 0012.338-5.879 26.171 26.171 0 008.707-15.777c.58-3.543.448-7.166-.388-10.658a42.938 42.938 0 00-4.656-10.533 40.91 40.91 0 01-4.78-10.859c-.838-3.894-.621-8.471 2.048-11.666 2.67-3.196 7.404-3.832 11.827-5.383a11.176 11.176 0 008.381-11.232c.186-5.073-1.754-9.804-2.453-14.567a15.663 15.663 0 01.311-7.058 9.816 9.816 0 014.268-5.414c4.128-2.669 9.312-2.87 14.185-3.103a30.12 30.12 0 0014.465-3.506 26.786 26.786 0 0010.274-10.099 44.004 44.004 0 004.252-13.078 62.454 62.454 0 013.322-12.302 27.824 27.824 0 016.999-9.494 31.133 31.133 0 0136.534-3.319 38.07 38.07 0 0110.259 8.64 50.642 50.642 0 016.177 9.789 4.547 4.547 0 00-.233-.729c-.186-.465-.419-1.194-.853-2.079a37.87 37.87 0 00-14.853-16.366 32.508 32.508 0 00-17.46-4.763 32.991 32.991 0 00-20.409 7.85 28.887 28.887 0 00-7.403 9.929 62.948 62.948 0 00-3.492 12.565 42.921 42.921 0 01-4.128 12.628 25.423 25.423 0 01-9.7 9.478 28.517 28.517 0 01-13.751 3.227c-4.873.202-10.352.341-14.977 3.304a11.481 11.481 0 00-4.935 6.206 17.247 17.247 0 00-.357 7.756c.776 5.042 2.638 9.634 2.452 14.288a10.854 10.854 0 01-1.924 6.205 11.203 11.203 0 01-5.401 3.568c-2.111.776-4.361 1.257-6.55 2.063a13.184 13.184 0 00-5.882 3.817c-3.104 3.769-3.197 8.78-2.312 12.907a42.062 42.062 0 004.997 11.278 42.677 42.677 0 014.656 10.192c.813 3.325.972 6.776.466 10.161a25.41 25.41 0 01-8.179 15.28 26.376 26.376 0 01-11.873 5.957 30.376 30.376 0 01-11.547.264z" fill="#455A64"/><path d="M361.653 217.386a5.839 5.839 0 00-1.024 2.218 9.91 9.91 0 00.853 6.919 10.598 10.598 0 003.353 3.894 11.176 11.176 0 005.835 1.862 13.856 13.856 0 0012.509-7.105 18.392 18.392 0 002.375-8.331 25.522 25.522 0 00-1.552-9.23c-1.909-6.097-5.603-12.132-5.354-19.128a12.807 12.807 0 013.678-9.308c2.592-2.373 6.425-2.792 10.212-2.653 3.787.14 7.915.745 12.044-.651a10.51 10.51 0 005.137-3.91 14.907 14.907 0 002.312-6.003c.73-4.282-.077-8.408-.388-12.411a27.047 27.047 0 011.195-11.355 28.783 28.783 0 0113.704-16.274c6.208-3.319 13.146-3.366 19.416-3.443 6.27-.078 12.416-.125 17.646-1.893a36.735 36.735 0 0012.789-7.198 36.071 36.071 0 007.216-8.393 26.228 26.228 0 003.725-8.61 51.282 51.282 0 01-4.237 8.284 36.91 36.91 0 01-7.279 8.052 35.842 35.842 0 01-12.493 6.732c-5.075 1.66-10.988 1.691-17.321 1.66-6.332-.031-13.471 0-20.082 3.46a30.27 30.27 0 00-14.527 17.064 28.703 28.703 0 00-1.288 12.007c.326 4.018 1.071 8.052.403 11.946-.667 3.893-2.793 7.492-6.41 8.671-3.616 1.179-7.558.652-11.453.59-3.896-.062-8.241.264-11.299 3.103a14.296 14.296 0 00-4.128 10.471 27.203 27.203 0 002.033 10.425c1.195 3.195 2.545 6.205 3.538 9.153a24.462 24.462 0 011.552 8.764 17.408 17.408 0 01-2.126 7.757 12.87 12.87 0 01-11.485 6.764 10.414 10.414 0 01-5.432-1.552 10.175 10.175 0 01-4.33-10.099c.295-1.489.761-2.202.683-2.249zm290.86 30.825a10.93 10.93 0 01-.434 7.229 9.575 9.575 0 01-6.053 5.553 9.999 9.999 0 01-10.01-3.273 9.085 9.085 0 01-2.096-5.91c.031-2.384.504-4.74 1.397-6.95 1.707-4.654 4.951-9.556 4.78-15.684a22.245 22.245 0 00-7.635-16.398 25.992 25.992 0 00-8.397-4.964 38.28 38.28 0 00-9.793-1.892 53.03 53.03 0 01-9.514-1.474 12.664 12.664 0 01-7.216-4.995 15.691 15.691 0 01-2.297-8.315 31.717 31.717 0 011.133-8.502c1.412-5.46 3.321-10.766 3.274-16.056a24.478 24.478 0 00-4.283-13.682 31.81 31.81 0 00-8.645-8.067 60.25 60.25 0 01-6.968-5.321 18.747 18.747 0 01-4.253-6.05s0 .17.093.496c.124.474.29.936.497 1.381a14.684 14.684 0 003.228 4.654 54.146 54.146 0 006.876 5.616 31.225 31.225 0 018.225 7.958 23.463 23.463 0 013.896 13.046c0 4.98-1.894 10.115-3.384 15.7a32.574 32.574 0 00-1.226 8.889 17.053 17.053 0 002.514 9.152 14.268 14.268 0 008.071 5.663 53.075 53.075 0 009.824 1.551c3.2.19 6.361.795 9.405 1.8a25 25 0 017.9 4.654 20.912 20.912 0 017.201 15.233c.217 5.616-2.809 10.363-4.563 15.203a20.622 20.622 0 00-1.397 7.447 10.346 10.346 0 002.484 6.624 10.937 10.937 0 0011.143 3.397 10.567 10.567 0 006.906-11.805 5.948 5.948 0 00-.683-1.908z" fill="#263238"/><path d="M435.792 135.476c-2.654 8.781-10.429 14.893-15.52 22.525-7.186 10.767-8.831 24.263-8.986 37.232.357-6.097-2.08-11.976-3.275-17.964a44.212 44.212 0 015.203-31.064 44.238 44.238 0 0124.565-19.726" fill="#263238"/><path d="M452.756 327.173c5.214-1.459-25.733 10.362-26.384 10.564l27.625 44.988 107.088 22.789 40.352-65.45-81.48-24.294-67.201 11.403z" fill="#FFBE9D"/><path d="M607.257 479.357l65.293-28.048s-24.832-86.145-31.335-95.282-73.922-30.049-73.922-30.049-23.28 38.783-63.12 41.451c-39.84 2.668-54.925-1.551-62.763-36.114 0 0-66.736 15.389-71.919 21.268-5.184 5.88-40.352 102.635-40.352 102.635s69.203 19.578 71.826 20.881c2.623 1.303 7.171 103.767 7.171 103.767S377.22 659.635 376.009 674l253.55-.651-26.166-150.99 3.864-43.002z" fill="#455A64"/><path d="M381.472 401.589a24.034 24.034 0 011.04 3.102c.621 2.157 1.474 5.011 2.483 8.471a2628.25 2628.25 0 017.884 28.047c1.552 5.477 2.918 10.705 4.222 15.514.636 2.373 1.288 4.654 1.815 6.779.528 2.125.947 4.142 1.304 5.972.714 3.662 1.195 6.64 1.552 8.703.228 1.057.368 2.131.419 3.212a3.623 3.623 0 01-.248-.807c-.14-.636-.326-1.412-.528-2.343l-1.831-8.625a145.5 145.5 0 00-1.412-5.926c-.559-2.11-1.227-4.359-1.894-6.717-1.319-4.763-2.778-9.991-4.299-15.513-3.026-10.968-5.711-20.912-7.605-28.126l-2.157-8.578a21.747 21.747 0 01-.745-3.165zm154.967 134.515c-.221.269-.47.513-.745.729l-2.265 1.923c-1.956 1.676-4.874 4.018-8.536 6.811a296.768 296.768 0 01-62.081 36.3 239.177 239.177 0 01-10.134 4.111l-2.778 1.009a4.613 4.613 0 01-1.009.294c.293-.186.606-.342.931-.465l2.732-1.179c2.374-.993 5.789-2.482 9.995-4.375a339.744 339.744 0 0062.002-36.223c3.709-2.73 6.689-4.98 8.722-6.562l2.359-1.799c.241-.229.512-.422.807-.574z" fill="#263238"/><path opacity=".2" d="M587.733 501.851c-12.338-14.66-29.581-24.403-47.305-31.694-17.988-7.399-37.729-12.627-56.819-8.889-17.615 3.46-32.825 14.133-47.336 24.682-4.749 3.444-9.576 6.996-13.099 11.697-3.818 5.072-5.897 11.216-7.76 17.266-4.966 15.699-4.501 33.958-7.93 50.061l.124 2.87c3.321 1.008 4.811-.543 7.868-2.188 18.19-9.882 25.562-35.68 45.645-40.691a99.868 99.868 0 0111.174-1.551 63.52 63.52 0 0027.129-10.378c3.275-2.203 6.627-4.778 10.569-5.058 3.942-.279 8.009 2.033 11.656 4.096a119.818 119.818 0 0033.818 12.798c1.605.211 3.143.778 4.501 1.66a10.617 10.617 0 013.011 5.213c4.438 12.767 10.072 25.286 18.531 35.804 8.458 10.518 20.036 18.957 33.243 21.718-2.7-30.793-7.046-63.65-27.02-87.416z" fill="#000"/><path opacity=".2" d="M464.271 596c13.968 4.871 37.342-1.551 50.301-8.719 12.959-7.167 24.211-22.804 27.439-37.231-21.837 14.132-53.932 35.385-77.74 45.95zm-72.307-156.977c-3.011-9.417-5.262-19.469-8.288-28.886h-.341a93.356 93.356 0 00.093 34.858 54.527 54.527 0 0017.522 29.816 269.56 269.56 0 00-8.986-35.788z" fill="#000"/><path d="M380.246 376.086c-.233.108-2.468-4.654-4.33-10.751-1.863-6.097-2.639-11.294-2.39-11.34.248-.047 1.443 4.98 3.306 11.076 1.862 6.097 3.662 10.921 3.414 11.015zm244.565-.761c.263 0-2.949 22.339-7.171 49.782-4.221 27.443-7.837 49.642-8.101 49.642-.264 0 2.949-22.323 7.17-49.782 4.222-27.458 7.838-49.673 8.102-49.642z" fill="#263238"/><path d="M559.812 333.626c-30.574-17.84-87.269-8.827-87.269-8.827-12.322-15.296-28.774-14.474-36.177-13.124a4.734 4.734 0 00-3.864 4.793l.388 23.27c-23.28 9.556-28.681 39.434-28.681 39.434l-10.461 2.932a8.638 8.638 0 00-6.316 8.471l.372 22.509a8.642 8.642 0 006.829 8.315l10.305 2.219c12.246 19.05 24.243 29.335 40.352 34.734l.404 20.043 33.057-.59 7.636-13.962 37.248-.977 6.1 15.125 34.283-1.66.357-23.564c23.513-19.159 29.907-31.445 30.466-57.182.559-25.736-5.447-44.709-35.029-61.959z" fill="#FF725E"/><path d="M423.578 372.781a5.07 5.07 0 00-.195 9.174 5.077 5.077 0 006.651-1.994 5.069 5.069 0 00-1.565-6.762 5.077 5.077 0 00-3.649-.79m17.242-31.321a30.333 30.333 0 01-.497-4.096 63.4 63.4 0 00-1.831-9.696 65.402 65.402 0 00-3.352-9.307 34.445 34.445 0 01-1.661-3.77 15.496 15.496 0 012.188 3.521 48.875 48.875 0 015.231 19.19 16.08 16.08 0 01-.078 4.158z" fill="#263238"/><path opacity=".3" d="M482.74 336.434l2.142 3.94a127.887 127.887 0 0142.261-.698l-4.098-4.483a101.32 101.32 0 00-40.305 1.241z" fill="#000"/><path d="M396.759 401.481c0 2.342-.823 4.25-1.909 4.266-1.086.015-2.018-1.862-2.049-4.204-.031-2.343.807-4.251 1.909-4.267 1.102-.015 2.003 1.862 2.049 4.205z" fill="#263238"/><path d="M392.321 418.002a9.175 9.175 0 001.877.31 5.915 5.915 0 004.656-1.768 12.762 12.762 0 002.065-2.855 17.56 17.56 0 001.257-3.878 36.98 36.98 0 001.148-9.308 35.384 35.384 0 00-1.226-9.308 10.694 10.694 0 00-4.314-6.019 8.12 8.12 0 00-4.858-1.334c-1.211.078-1.847.388-1.878.31-.031-.077.14-.108.45-.248a5.21 5.21 0 011.397-.388 8.194 8.194 0 015.183 1.164 11.14 11.14 0 014.734 6.205 34.43 34.43 0 011.319 9.556 35.412 35.412 0 01-1.226 9.541 17.862 17.862 0 01-1.397 4.002 12.4 12.4 0 01-2.25 2.948 5.437 5.437 0 01-2.701 1.551 6.839 6.839 0 01-2.312.155 4.656 4.656 0 01-1.412-.357c-.388-.139-.528-.248-.512-.279zm162.603 38.193c-.34.122-.687.22-1.04.295l-3.011.698c-2.623.605-6.456 1.35-11.19 2.157-4.733.806-10.429 1.551-16.746 2.28-6.317.729-13.316 1.117-20.657 1.303-7.341.186-14.356 0-20.704-.295-6.347-.294-12.074-.853-16.854-1.427a304.8 304.8 0 01-11.268-1.551l-3.104-.543a6.036 6.036 0 01-1.055-.248 5.13 5.13 0 011.086.077l3.104.404c2.654.387 6.518.853 11.283 1.349 4.765.497 10.492.946 16.824 1.257 6.332.31 13.316.403 20.641.232 7.326-.17 14.294-.667 20.611-1.241a259.017 259.017 0 0016.731-2.094c4.749-.745 8.582-1.396 11.221-1.908l3.104-.543a4.69 4.69 0 011.024-.202zm-82.691-131.567a6.207 6.207 0 01-.233 1.66 27.273 27.273 0 01-1.35 4.344 29.84 29.84 0 01-22.473 18.212 27.416 27.416 0 01-4.547.419 6.43 6.43 0 01-1.661-.124c0-.155 2.374-.078 6.084-.853a31.934 31.934 0 0013.207-6.205 31.538 31.538 0 008.8-11.651c1.552-3.49 1.956-5.833 2.173-5.802z" fill="#263238"/><path d="M431.245 342.499c.077.124-1.832 1.427-4.656 3.832a62.542 62.542 0 00-16.948 23.192c-1.443 3.413-2.095 5.632-2.235 5.585a6.483 6.483 0 01.326-1.551c.264-1.024.729-2.467 1.381-4.22a55.854 55.854 0 0117.072-23.409 38.034 38.034 0 013.601-2.591c.449-.34.939-.621 1.459-.838zm-37.062 40.133a15.109 15.109 0 014.144-1.226 15.555 15.555 0 014.237-.853 15.526 15.526 0 01-8.381 2.079zm-4.951 28.467a12.915 12.915 0 01-.699-3.522 70.203 70.203 0 010-17.297c.087-1.198.321-2.381.699-3.522.248 0-.435 5.446-.435 12.178 0 6.733.668 12.163.435 12.163zm44.713-95.98c.233 0-.31 5.336-.186 11.883.124 6.546.807 11.821.574 11.867a12.89 12.89 0 01-.729-3.428 66.705 66.705 0 01-.652-8.424 65.76 65.76 0 01.372-8.454c.044-1.172.253-2.331.621-3.444zm28.697 2.901a47.352 47.352 0 00-26.167-4.964 13.597 13.597 0 013.942-.699 35.915 35.915 0 019.653.512 36.36 36.36 0 019.157 3.103 14.15 14.15 0 013.415 2.048zm64.61 23.89c0 .124-2.375-.295-6.208-.776a119.987 119.987 0 00-14.977-.915c-5.005.04-10.002.398-14.962 1.07-3.817.512-6.208.962-6.208.838a7.48 7.48 0 011.552-.481c1.04-.279 2.577-.589 4.486-.931a94.339 94.339 0 0115.054-1.303 92.905 92.905 0 0115.055 1.164c1.909.31 3.445.605 4.5.868.587.083 1.16.239 1.708.466zm9.653-13.9a12.747 12.747 0 01-2.359-.403c-1.552-.31-3.678-.745-6.363-1.21a145.436 145.436 0 00-42.572-1.179c-2.716.31-4.919.62-6.425.853a14.47 14.47 0 01-2.374.279 13.153 13.153 0 012.312-.589c1.552-.326 3.694-.714 6.41-1.117a129.64 129.64 0 0121.433-1.21 128.18 128.18 0 0121.309 2.342c2.7.543 4.858 1.055 6.348 1.552.776.171 1.538.399 2.281.682zm-87.952 123.252a5.38 5.38 0 01-1.552-.186 36.955 36.955 0 01-4.082-1.008 50.793 50.793 0 01-23.156-14.738 35.58 35.58 0 01-2.638-3.273 5.535 5.535 0 01-.823-1.303c.109-.093 1.444 1.66 3.88 4.188a57.334 57.334 0 0022.908 14.583c3.29 1.132 5.463 1.598 5.463 1.737zm134.248-25.519a14.728 14.728 0 01-1.319 2.188 23.451 23.451 0 01-1.738 2.451 37.596 37.596 0 01-2.515 3.102 45.437 45.437 0 01-3.336 3.491c-1.226 1.241-2.67 2.42-4.16 3.676a61.718 61.718 0 01-22.55 11.418c-1.784.486-3.592.88-5.417 1.179a46.06 46.06 0 01-4.795.636c-1.459.186-2.81.155-3.974.202a23.27 23.27 0 01-3.011 0 14.207 14.207 0 01-2.545-.233 15.002 15.002 0 012.561 0c.807 0 1.816 0 2.98-.093a39.377 39.377 0 003.926-.326 45.77 45.77 0 004.734-.713c1.707-.264 3.477-.776 5.339-1.242a70.013 70.013 0 0011.764-4.7 68.535 68.535 0 0010.585-6.733c1.552-1.225 2.933-2.358 4.159-3.568s2.39-2.311 3.384-3.382c.993-1.07 1.831-2.109 2.576-2.994a27.78 27.78 0 001.847-2.342c.442-.714.946-1.389 1.505-2.017z" fill="#fff"/><path d="M343.231 459.189s-12.587 72.819-14.217 85.198c-1.629 12.38 1.723 40.583 11.827 49.053 10.103 8.47 18.624 10.611 25.778 9.308 7.155-1.303 29.659-24.821 38.133-34.222 8.474-9.401 51.045-86.067 51.045-86.067l-39.296-17.468-22.985 27.924 5.183-17.654-55.468-16.072z" fill="#FFBE9D"/><path d="M394.245 492.015a13.547 13.547 0 01-1.552 2.234l-4.423 5.911c-1.894 2.466-4.16 5.414-6.798 8.579a100.974 100.974 0 01-9.141 9.835 63.128 63.128 0 01-11.02 7.756c-3.538 2.11-6.704 4.018-9.203 5.849a49.964 49.964 0 00-7.403 6.717s.093-.233.357-.605c.379-.54.788-1.058 1.226-1.551a33.668 33.668 0 015.417-5.058 108.17 108.17 0 019.156-6.05 66.133 66.133 0 0010.864-7.663 110.458 110.458 0 009.111-9.711c2.669-3.103 4.982-6.019 6.937-8.44l4.656-5.724a13.974 13.974 0 011.816-2.079z" fill="#EB996E"/><path d="M425.347 454.923s12.261-10.3 16.11-7.306c3.849 2.994 4.097 5.755 2.483 7.756-1.614 2.001-10.864 13.838-10.864 13.838l6.844 6.469 12.184-3.971 5.23-1.257s12.54.295 9.871 8.718c0 0 12.959-4.126 15.302-4.328 3.585-.295 12.603-1.194 11.33 3.475a10.189 10.189 0 01-6.301 6.33s5.758 1.846 2.312 6.918a15.146 15.146 0 01-8.225 6.206l-20.425 8.175a11.087 11.087 0 01-7.76.155l-6.441-2.296-12.679 5.538s-25.608-7.384-29.287-29.738l3.322-6.919 2.188-4.096s-3.026-19.081-3.104-21.718c0-1.815-3.663-10.068-5.867-14.877a2.931 2.931 0 013.104-4.096 18.965 18.965 0 019.173 4.763c8.8 7.446 9.902 15.079 9.902 15.079l1.846 7.493" fill="#FFBE9D"/><path d="M416.671 463.502s.854-.683 2.328-2.017c1.475-1.334 3.415-3.413 5.945-5.941 1.257-1.272 2.762-2.544 4.361-3.863a26.794 26.794 0 015.618-3.739 9.98 9.98 0 013.616-.961 7.06 7.06 0 011.971.17c.344.058.678.162.993.31.301.158.591.334.87.528.613.411 1.14.938 1.552 1.551.175.319.296.665.356 1.024l.28.946c.279.695.343 1.456.186 2.188a17.123 17.123 0 01-.683 1.954 31 31 0 01-4.423 6.64 59.604 59.604 0 01-4.997 5.492 34.406 34.406 0 01-10.151 7.337 10.044 10.044 0 01-8.365-.124 6.1 6.1 0 01-1.847-1.396 2.168 2.168 0 01-.481-.651 8.993 8.993 0 0010.445 1.551 35.28 35.28 0 009.84-7.353 60.173 60.173 0 004.873-5.445 29.734 29.734 0 004.175-6.547c.263-.603.481-1.226.652-1.862a3.225 3.225 0 00-.171-1.706l-.279-.946a2.702 2.702 0 00-.264-.807 4.658 4.658 0 00-1.242-1.226 6.865 6.865 0 00-.76-.465 2.977 2.977 0 00-.792-.248 6.01 6.01 0 00-1.738-.155 9.053 9.053 0 00-3.321.853 26.348 26.348 0 00-5.494 3.568c-1.63 1.303-3.104 2.513-4.392 3.739-2.561 2.451-4.656 4.498-6.208 5.739-.592.492-1.208.953-1.847 1.381-.342.372-.59.512-.606.481z" fill="#EB996E"/><path d="M425.673 455.342c-3.367.6-6.814.6-10.181 0a30.054 30.054 0 0110.181 0zm6.208 24.123c.288-.183.595-.334.916-.45l2.669-1.132 9.887-3.987a70.271 70.271 0 016.937-2.529 19.306 19.306 0 018.521-.729c1.558.235 3.059.761 4.423 1.551a5.715 5.715 0 012.964 4.065 5.452 5.452 0 01-2.204 4.654 17.17 17.17 0 01-4.656 2.342l-18.019 6.966a52.749 52.749 0 01-8.07 2.668 16.556 16.556 0 01-7.45 0 7.65 7.65 0 01-4.935-3.63 11.363 11.363 0 01-1.288-4.452 19.792 19.792 0 01-.078-2.901c.001-.338.032-.676.093-1.009.093 0 0 1.397.326 3.879.173 1.489.643 2.93 1.382 4.235a7.164 7.164 0 004.656 3.273c2.362.475 4.801.417 7.139-.171a52.874 52.874 0 007.931-2.714l18.003-7.105a16.526 16.526 0 004.407-2.203 4.652 4.652 0 001.894-3.879 4.872 4.872 0 00-.924-1.958 4.866 4.866 0 00-1.683-1.361 11.46 11.46 0 00-4.113-1.552 18.877 18.877 0 00-8.179.621c-2.53.698-4.812 1.629-6.922 2.42l-9.98 3.723-2.731.977c-.286.17-.594.301-.916.388z" fill="#EB996E"/><path d="M467.484 479.356c.274-.17.565-.311.869-.419l2.561-1.023a61.953 61.953 0 019.685-2.994 29.924 29.924 0 016.999-.668c1.33.02 2.655.166 3.958.435a3.723 3.723 0 011.924 1.148 3.52 3.52 0 01.745 2.187 5.332 5.332 0 01-2.002 4.065 25.31 25.31 0 01-3.802 2.59 64.766 64.766 0 01-8.567 4.22 169.949 169.949 0 01-17.476 5.724l-7.76 2.219a69.775 69.775 0 01-6.782 1.737 13 13 0 01-5.836-.171 8.39 8.39 0 01-3.756-2.296 5.749 5.749 0 01-1.396-2.404 2.99 2.99 0 01-.14-.962 7.026 7.026 0 001.785 3.103 8.116 8.116 0 003.647 2.063c1.839.414 3.748.414 5.587 0a66.66 66.66 0 006.689-1.831l7.683-2.28c5.401-1.551 11.376-3.32 17.367-5.771a66.049 66.049 0 008.473-4.142 26.745 26.745 0 003.679-2.466 4.645 4.645 0 001.753-3.429 2.575 2.575 0 00-2.079-2.606 20.62 20.62 0 00-3.756-.434 31.02 31.02 0 00-6.875.527 73.198 73.198 0 00-9.685 2.715l-2.607.869a3.882 3.882 0 01-.885.294z" fill="#EB996E"/><path d="M559.797 490.619s44.806 113.044 70.104 116.007c26.958 3.103 53.11-20.725 48.205-61.959-1.878-15.808-12.912-90.287-12.912-90.287l-56.105 24.123 14.899 30.887-22.101-34.501-42.09 15.73z" fill="#FFBE9D"/><path d="M661.313 566.913c-.093 0 .001-1.443-.17-4.034a45.103 45.103 0 00-1.738-10.859 28.378 28.378 0 00-8.521-13.481c-2.235-2.016-5.122-3.63-7.605-5.957a77.424 77.424 0 01-7.325-7.446 250 250 0 01-21.278-29.63 682.676 682.676 0 01-5.805-9.401l-1.552-2.591a4.235 4.235 0 01-.481-.931c.238.259.451.539.637.838l1.691 2.482 6.053 9.23a280.393 280.393 0 0021.526 29.429 81.36 81.36 0 007.217 7.369c2.421 2.296 5.246 3.878 7.589 6.003a28.853 28.853 0 018.583 13.962 41.963 41.963 0 011.459 10.983c0 1.304 0 2.327-.093 3.01a3.926 3.926 0 01-.187 1.024z" fill="#EB996E"/><path d="M585.141 431.7c2.406 3.987 7.838 16.273 7.838 16.273s14.589 20.881 13.875 34.657c-.14 2.684-8.552 8.144-8.552 8.144s-26.601 19.95-32.949 21.284c-6.348 1.334-15.954-4.793-17.072-5.057-1.117-.264-36.984-23.146-37.155-26.372a6.73 6.73 0 013.88-6.95l40.725-2.312 19.369-15.156-.854-11.247" fill="#FFBE9D"/><path d="M583.092 471.693a14.37 14.37 0 01-2.188 1.629l-6.208 4.173c-2.638 1.737-5.649 3.785-9.312 6.066-.999.38-2.07.533-3.135.45-1.087 0-2.188-.001-3.306.124-2.25.124-4.563.31-6.953.512-4.491.451-9.004.653-13.518.605a13.972 13.972 0 01-5.866-1.272 5.21 5.21 0 01-3.011-4.282 6.2 6.2 0 011.397-4.111 8.396 8.396 0 012.56-2.017c.601-.316 1.23-.575 1.878-.775a2.02 2.02 0 01.699-.14c0 .077-.916.341-2.406 1.21a8.572 8.572 0 00-2.343 2.032 5.63 5.63 0 00-1.149 3.754 4.528 4.528 0 002.701 3.677 13.828 13.828 0 005.556 1.117 134.37 134.37 0 0013.425-.683c2.39-.186 4.656-.388 6.984-.496 1.133 0 2.25-.093 3.336-.109a6.53 6.53 0 002.949-.357l9.312-5.863 6.301-3.941a18.562 18.562 0 012.297-1.303z" fill="#EB996E"/><path d="M584.458 491.302a2.469 2.469 0 01-.791.217l-2.344.496-8.598 1.551-12.788 2.296-7.558 1.319c-1.304.202-2.623.496-4.036.636a6.953 6.953 0 01-4.283-.853c-1.288-.745-2.344-1.629-3.477-2.405-1.133-.775-2.235-1.551-3.352-2.218a45.51 45.51 0 00-6.751-3.459c-2.235-.931-4.501-1.474-6.534-2.343a18.041 18.041 0 01-5.137-3.335 51.812 51.812 0 01-3.585-3.522 5.361 5.361 0 01-1.552-3.459 3.196 3.196 0 01.838-2.281c.195-.209.449-.355.729-.419 0 0-.248.14-.59.543a3.105 3.105 0 00-.636 2.141c0 2.095 2.592 4.08 5.261 6.516a17.554 17.554 0 005.013 3.102c1.971.823 4.253 1.335 6.55 2.265a43.799 43.799 0 016.906 3.491 64.123 64.123 0 013.415 2.234c1.132.791 2.234 1.691 3.398 2.358 2.313 1.427 5.138.481 7.76.124l7.559-1.272 12.819-2.11 8.645-1.334 2.374-.326c.25-.018.5-.003.745.047zm-11.112 12.689a14.593 14.593 0 01-3.678 1.102 80.764 80.764 0 01-9.126 1.551 73.633 73.633 0 01-9.234.512 5.562 5.562 0 01-3.71-1.055c1.213.3 2.46.44 3.71.419 2.328-.108 5.587-.357 9.141-.745 3.554-.387 6.767-.899 9.095-1.272 1.247-.298 2.52-.47 3.802-.512z" fill="#EB996E"/><path d="M600.537 486.415s0 .217-.093.62a7.378 7.378 0 01-.621 1.66 12.407 12.407 0 01-4.547 4.654 19.61 19.61 0 01-4.098 1.908c-.745.264-1.412.59-1.552 1.273-.139.682-.248 1.675-.574 2.544a9.623 9.623 0 01-3.43 4.747 15.527 15.527 0 01-5.789 2.28 24.95 24.95 0 00-5.696 1.691c-1.645.9-3.29 1.97-4.826 2.87-.776.465-1.552.931-2.328 1.35a7.178 7.178 0 01-2.515.651 12.847 12.847 0 01-4.547-.496 36.106 36.106 0 01-6.053-2.374 11.027 11.027 0 01-2.095-1.117c.771.177 1.52.437 2.235.776a47.777 47.777 0 006.084 2.079c1.397.359 2.846.479 4.283.357a6.764 6.764 0 002.251-.621c.698-.357 1.459-.869 2.219-1.334 1.552-.946 3.104-1.97 4.873-2.979a26.438 26.438 0 015.914-1.784 14.598 14.598 0 005.447-2.109 8.877 8.877 0 003.104-4.251c.31-.822.31-1.551.621-2.575a2.962 2.962 0 012.126-1.707 20.394 20.394 0 004.02-1.753 12.984 12.984 0 004.578-4.281c.73-1.272.916-2.11 1.009-2.079zm-20.642-34.3c.171.202-5.106 4.654-11.779 9.991-6.674 5.336-12.215 9.463-12.416 9.308a130.195 130.195 0 0111.795-9.991 128.659 128.659 0 0112.4-9.308z" fill="#EB996E"/><path d="M999.656 427.433c9.524-59.977-31.396-116.316-91.399-125.837-60.003-9.52-116.367 31.382-125.892 91.359-9.525 59.977 31.395 116.315 91.399 125.836 60.003 9.521 116.367-31.381 125.892-91.358z" fill="#F5F5F5"/><path d="M1000.98 410.152s0-.605-.09-1.784 0-2.932-.25-5.228a107.7 107.7 0 00-7.664-33.617 107.128 107.128 0 00-7.651-15.513 111.444 111.444 0 00-27.936-31.166 109.283 109.283 0 00-46.172-20.337 109.332 109.332 0 00-28.278-1.552 107.36 107.36 0 00-14.697 2.048 117.703 117.703 0 00-14.667 4.189 109.851 109.851 0 00-59.907 52.589 102.281 102.281 0 00-6.705 15.855 109.56 109.56 0 000 69.173c.869 2.761 1.971 5.429 3.027 8.098 1.055 2.668 2.328 5.243 3.678 7.756a107.798 107.798 0 008.939 14.381 109.976 109.976 0 0050.968 38.24c4.794 1.706 9.693 3.1 14.667 4.173a111.301 111.301 0 0042.975.512 109.556 109.556 0 0046.203-20.478 111.207 111.207 0 0027.936-31.165 105.427 105.427 0 007.651-15.514 109.114 109.114 0 004.532-13.791 110.558 110.558 0 003.101-19.826c.22-2.296.17-4.049.25-5.228.08-1.179.09-1.784.09-1.784s0 2.42-.17 7.028a107.691 107.691 0 01-3.007 19.888 109.578 109.578 0 01-4.454 13.853 107.768 107.768 0 01-7.636 15.513 111.282 111.282 0 01-27.936 31.383 109.95 109.95 0 01-46.421 20.679 112.44 112.44 0 01-43.254-.45 120.156 120.156 0 01-14.76-4.188 110.695 110.695 0 01-51.355-38.457 108.69 108.69 0 01-9.017-14.49c-1.366-2.528-2.515-5.165-3.71-7.756-1.195-2.591-2.173-5.383-3.104-8.16a110.313 110.313 0 010-69.701 102.771 102.771 0 016.767-15.947 108.682 108.682 0 019.002-14.489 110.56 110.56 0 0151.355-38.442 117.393 117.393 0 0114.76-4.204 108.696 108.696 0 0114.79-2.048c9.516-.72 19.084-.198 28.464 1.551a106.998 106.998 0 0125.36 8.052 108.058 108.058 0 0121.061 12.628 111.355 111.355 0 0127.936 31.398 105.2 105.2 0 017.62 15.513 107.18 107.18 0 017.479 33.757c.3 4.638.23 7.058.23 7.058z" fill="#263238"/><path d="M954.859 366.374H839.824c-6.24 0-11.298 5.056-11.298 11.294v70.166c0 6.237 5.058 11.293 11.298 11.293h115.035c6.24 0 11.298-5.056 11.298-11.293v-70.166c0-6.238-5.058-11.294-11.298-11.294z" fill="#FF725E"/><path opacity=".3" d="M966.157 386.417H828.526v19.438h137.631v-19.438z" fill="#fff"/><path d="M889.24 438.386c0 .233-11.221.404-25.064.404-13.844 0-25.05-.171-25.05-.404 0-.232 11.206-.403 25.05-.403 13.843 0 25.064.186 25.064.403zm10.554-4.437c0 .218-13.58.404-30.342.404-16.761 0-30.326-.186-30.326-.404 0-.217 13.58-.403 30.326-.403 16.747 0 30.342.186 30.342.403z" fill="#263238"/><path d="M936.856 430.599c4.457 0 8.07-3.619 8.07-8.083 0-4.463-3.613-8.082-8.07-8.082-4.458 0-8.071 3.619-8.071 8.082 0 4.464 3.613 8.083 8.071 8.083z" fill="#fff"/><path d="M947.626 430.816a8.162 8.162 0 01-8.024-9.742 8.162 8.162 0 0111.129-5.958 8.163 8.163 0 015.043 7.54 8.177 8.177 0 01-8.148 8.16zm0-14.769a6.608 6.608 0 00-6.119 4.069 6.605 6.605 0 004.808 9.021 6.614 6.614 0 007.907-6.481 6.616 6.616 0 00-6.596-6.609z" fill="#fff"/><path d="M782.416 413.658c0 .233-23.761.404-53.063.404-29.302 0-53.063-.171-53.063-.404 0-.232 23.761-.403 53.063-.403 29.302 0 53.063.186 53.063.403z" fill="#263238"/><path d="M783.052 220.256c60.755 0 110.006-49.23 110.006-109.957C893.058 49.571 843.807.341 783.052.341c-60.754 0-110.005 49.23-110.005 109.958 0 60.727 49.251 109.957 110.005 109.957z" fill="#F5F5F5"/><path d="M893.058 110.298v-1.784c0-1.179 0-2.932-.248-5.227a111.203 111.203 0 00-3.104-19.826 111.23 111.23 0 00-12.168-29.258 111.037 111.037 0 00-27.936-31.166A109.593 109.593 0 00803.415 2.56a111.376 111.376 0 00-42.991.512 118.477 118.477 0 00-14.651 4.188 109.854 109.854 0 00-59.907 52.59 102.393 102.393 0 00-6.705 15.854 109.56 109.56 0 000 69.173c.87 2.762 1.956 5.43 3.011 8.098 1.056 2.668 2.328 5.244 3.679 7.757a107.787 107.787 0 008.939 14.38 109.874 109.874 0 0050.983 38.225 117.92 117.92 0 0014.667 4.188 110.989 110.989 0 0042.975.497 106.839 106.839 0 0025.235-7.943 108.697 108.697 0 0020.968-12.519 111.268 111.268 0 0027.936-31.181 106.176 106.176 0 007.651-15.514 108.086 108.086 0 004.516-13.791 111.012 111.012 0 003.104-19.826c.218-2.296.171-4.049.249-5.228.077-1.179 0-1.784 0-1.784s0 2.42-.155 7.012a109.438 109.438 0 01-3.011 19.904 107.342 107.342 0 01-4.47 13.853 105.2 105.2 0 01-7.62 15.513 111.359 111.359 0 01-27.936 31.399 108.103 108.103 0 01-21.061 12.627 106.974 106.974 0 01-25.391 8.191 109.964 109.964 0 01-28.464 1.552 108.696 108.696 0 01-14.79-2.048 117.585 117.585 0 01-14.791-4.158 110.552 110.552 0 01-51.355-38.457 106.763 106.763 0 01-9.002-14.489c-1.366-2.529-2.53-5.166-3.709-7.756-1.18-2.591-2.173-5.368-3.104-8.16a110.418 110.418 0 010-69.685 103.517 103.517 0 016.751-15.948 106.847 106.847 0 019.095-14.598 110.73 110.73 0 0151.324-38.441c4.83-1.712 9.766-3.11 14.775-4.189a112.337 112.337 0 0143.239-.45 110.14 110.14 0 0146.436 20.68 111.558 111.558 0 0127.936 31.382 105.963 105.963 0 017.62 15.513 107.345 107.345 0 014.47 13.854 109.08 109.08 0 013.011 19.903c.248 4.638.186 7.058.186 7.058z" fill="#263238"/><path d="M804.16 59.477l-43.053.156v.294l-6.301 108.422 91.925-.311-.233-66.334-42.338-42.227z" fill="#FF725E"/><path opacity=".3" d="M804.16 59.477l-43.053.156v.294l-6.301 108.422 91.925-.311-.233-66.334-42.338-42.227z" fill="#000"/><path d="M761.107 59.633l-42.897 40.411.233 68.429 86.089-.295-.233-66.986-43.192-41.56z" fill="#FF725E"/><path opacity=".3" d="M791.571 107.337l-18.345.064.064 18.336 18.345-.064-.064-18.336zm-44.744.14l-18.344.064.064 18.337 18.344-.064-.064-18.337z" fill="#fff"/><path d="M737.514 67.035l-9.173.032.095 27.195 9.173-.032-.095-27.195z" fill="#FF725E"/><path opacity=".3" d="M768.246 134.597l-21.324.075.118 33.678 21.324-.074-.118-33.679z" fill="#000"/><path d="M804.16 59.477l.217.186.605.559 2.313 2.25 8.722 8.532 30.745 30.452.621.62h-.885l-42.137-.481h-.17l-.109-.108-7.481-7.12-35.696-34.47h.497l-33.089 30.932-9.312 8.703-2.514 2.281-.652.574-.233.186c.056-.087.124-.166.202-.233l.606-.62 2.436-2.358 9.235-8.858 32.824-31.135.249-.233.248.233 35.836 34.423 7.387 7.121-.264-.078 42.215.559-.264.62-30.59-30.654a2664.354 2664.354 0 00-8.583-8.687l-2.234-2.327-.575-.59c-.124-.186-.186-.263-.17-.279zm-35.914 108.825a2.626 2.626 0 010-.651c0-.512 0-1.133-.077-1.877 0-1.753 0-4.111-.109-7.028 0-6.097-.093-14.458-.14-24.061l.388.404H747.03l.404-.404c0 9.618-.109 18.011-.155 24.108 0 2.916-.078 5.29-.109 7.043v1.892c.006.22-.02.44-.077.652a2.735 2.735 0 010-.652v-1.892c0-1.753-.078-4.127-.125-7.043 0-6.097 0-14.49-.139-24.108v-.388h21.836v.388c0 9.603-.093 17.964-.139 24.061 0 2.917-.078 5.275-.109 7.028v1.877c-.022.225-.08.444-.171.651zm-43.766 35.091c.186.108-18.547 31.585-41.904 70.29-23.358 38.705-42.354 70.011-42.556 69.887-.202-.124 18.546-31.585 41.904-70.306 23.357-38.721 42.369-70.042 42.556-69.871z" fill="#263238"/><path d="M226.862 223.824c60.754 0 110.005-49.23 110.005-109.957 0-60.728-49.251-109.958-110.005-109.958-60.755 0-110.006 49.23-110.006 109.958 0 60.727 49.251 109.957 110.006 109.957z" fill="#F5F5F5"/><path d="M336.867 113.866s0-.605-.077-1.784c-.078-1.179 0-2.932-.249-5.227a109.564 109.564 0 00-3.104-19.826A111.225 111.225 0 00321.27 57.77a111.052 111.052 0 00-27.936-31.166 109.601 109.601 0 00-46.141-20.4 111.25 111.25 0 00-42.975.512c-5 1.06-9.925 2.443-14.744 4.142a109.848 109.848 0 00-59.907 52.59 102.273 102.273 0 00-6.705 15.823 109.56 109.56 0 000 69.173c.869 2.762 1.955 5.43 3.104 8.098 1.148 2.668 2.328 5.244 3.678 7.757a106.059 106.059 0 008.909 14.38 109.874 109.874 0 0050.983 38.225 117.905 117.905 0 0014.666 4.188 110.99 110.99 0 0042.975.497 106.832 106.832 0 0025.236-7.943 108.69 108.69 0 0020.967-12.519 111.252 111.252 0 0027.936-31.181 106.182 106.182 0 007.652-15.514 108.243 108.243 0 004.516-13.791 109.737 109.737 0 003.104-19.826c.217-2.296.171-4.049.248-5.228.078-1.179.078-1.784.078-1.784s0 2.42-.155 7.012a107.21 107.21 0 01-7.481 33.757 105.1 105.1 0 01-7.62 15.513 111.126 111.126 0 01-27.936 31.399 108.419 108.419 0 01-21.045 12.627 107.37 107.37 0 01-25.484 8.145 109.966 109.966 0 01-28.464 1.551 108.419 108.419 0 01-14.791-2.048 119.215 119.215 0 01-14.759-4.188 110.664 110.664 0 01-51.371-38.473 108.31 108.31 0 01-9.002-14.489c-1.366-2.529-2.514-5.166-3.709-7.757-1.195-2.59-2.173-5.367-3.104-8.16a110.262 110.262 0 010-69.685 103.517 103.517 0 016.751-15.947 108.503 108.503 0 019.017-14.49 110.702 110.702 0 0151.464-38.456 119.242 119.242 0 0114.76-4.189 112.384 112.384 0 0143.208-.45 110.215 110.215 0 0146.42 20.68 111.294 111.294 0 0127.936 31.382 105.963 105.963 0 017.62 15.513 107.18 107.18 0 017.481 33.757c.279 4.638.217 7.058.217 7.058z" fill="#263238"/><path d="M178.113 47.858v132.405h91.118a15.63 15.63 0 0015.629-15.622V71.795L252.64 39.59h-66.255a8.272 8.272 0 00-8.272 8.268z" fill="#fff"/><path d="M178.113 47.858a3.034 3.034 0 010-.357c.002-.348.033-.696.093-1.04a8.012 8.012 0 011.552-3.769 8.35 8.35 0 015.758-3.196c2.67-.093 5.696 0 9.126-.077l57.936-.14h.124l.094.093 32.266 32.175.093.108v93.591a16 16 0 01-1.956 7.136 16.841 16.841 0 01-5.013 5.507 15.954 15.954 0 01-6.378 2.544 45.12 45.12 0 01-6.767.233h-87.3v-.372c0-39.233.108-72.338.14-95.639 0-11.635.093-20.818.108-27.117v-9.012a5.19 5.19 0 010-.637v9.649c0 6.299 0 15.513.109 27.117 0 23.27.077 56.406.139 95.639l-.356-.357h87.005c2.211.084 4.426.011 6.627-.217a15.129 15.129 0 006.053-2.42 15.513 15.513 0 004.764-5.244 15.17 15.17 0 001.863-6.748V71.934l.108.249-31.878-32.392.217.093-57.936-.124c-3.414 0-6.487-.077-9.095 0a8.222 8.222 0 00-7.325 6.78c-.083.435-.14.876-.171 1.318z" fill="#263238"/><path d="M252.64 39.59l32.22 32.205h-26.803a5.417 5.417 0 01-5.432-5.43l.015-26.775zm-91.537 121.344a19.317 19.317 0 005.67 13.673 19.329 19.329 0 0013.684 5.656h89.193a20.966 20.966 0 01-11.81-18.29v-1.039h-96.737z" fill="#E0E0E0"/><path d="M213.996 68.366c-3.83.4-7.683.534-11.532.404a83.561 83.561 0 01-11.516-.404 83.561 83.561 0 0111.516-.403 83.85 83.85 0 0111.532.403zm48.81 14.521c0 .217-15.443.403-34.501.403-19.059 0-34.517-.186-34.517-.403 0-.217 15.443-.403 34.517-.403 19.074 0 34.501.17 34.501.403zm0 12.783c0 .217-15.443.403-34.501.403-19.059 0-34.517-.186-34.517-.403 0-.218 15.443-.404 34.517-.404 19.074 0 34.501.171 34.501.404zm0 12.783c0 .217-15.443.403-34.501.403-19.059 0-34.517-.186-34.517-.403 0-.218 15.443-.404 34.517-.404 19.074 0 34.501.171 34.501.404zm0 12.782c0 .218-15.443.404-34.501.404-19.059 0-34.517-.186-34.517-.404 0-.217 15.443-.403 34.517-.403 19.074 0 34.501.171 34.501.403zm0 12.783c0 .217-15.443.403-34.501.403-19.059 0-34.517-.186-34.517-.403 0-.217 15.443-.403 34.517-.403 19.074 0 34.501.17 34.501.403zm0 12.783c0 .217-15.443.403-34.501.403-19.059 0-34.517-.186-34.517-.403 0-.217 15.443-.403 34.517-.403 19.074 0 34.501.17 34.501.403z" fill="#263238"/><path d="M303.872 117.093a28.528 28.528 0 01-18.239 25.948 28.545 28.545 0 01-30.959-6.93 28.515 28.515 0 01-5.426-31.245 28.548 28.548 0 0126.812-16.953 28.52 28.52 0 0119.952 8.833 28.501 28.501 0 017.86 20.347z" fill="#FF725E"/><path opacity=".3" d="M277.457 129.395v3.785h-3.383v-3.676a16.065 16.065 0 01-8.381-2.808l1.893-4.142a13.674 13.674 0 006.55 2.466v-5.646c-3.756-.947-7.931-2.25-7.884-7.09 0-3.583 2.685-6.624 8.039-7.182v-3.755h3.383v3.693a15.26 15.26 0 016.845 2.125l-1.63 4.188a14.302 14.302 0 00-5.153-1.815l-.077 5.756c3.756.915 7.868 2.218 7.76 6.981-.031 3.521-2.639 6.484-7.962 7.12zm-3.213-14.986V109.6c-1.8.388-2.529 1.366-2.545 2.483-.015 1.116 1.071 1.83 2.545 2.326zm5.727 8.145c0-1.179-.962-1.831-2.405-2.358v4.654c1.645-.279 2.39-1.148 2.405-2.296z" fill="#000"/><path opacity=".3" d="M296.95 114.472a12.083 12.083 0 01-.512-2.622 23.399 23.399 0 00-2.344-6.733 22.86 22.86 0 00-2.778-4.018 21.164 21.164 0 00-4.19-3.692 19.44 19.44 0 00-5.541-2.715 20.884 20.884 0 00-3.104-.729 21.864 21.864 0 00-3.352-.248 23.61 23.61 0 00-3.337.28 21.147 21.147 0 00-6.084 1.97 18.97 18.97 0 00-2.607 1.55 22.041 22.041 0 00-4.144 3.739 22.265 22.265 0 00-2.716 4.049 22.984 22.984 0 00-2.266 6.764 10.94 10.94 0 01-.574 2.73 6.186 6.186 0 01-.155-2.699 20.15 20.15 0 011.831-7.198 22.121 22.121 0 017.046-8.532 21.25 21.25 0 012.763-1.707 21.72 21.72 0 016.534-2.187 21.404 21.404 0 013.6-.31c1.21 0 2.419.09 3.616.263a24.57 24.57 0 013.43.823c1.071.342 2.11.778 3.104 1.303a20.729 20.729 0 012.841 1.629 22.517 22.517 0 014.361 4.08 22.294 22.294 0 012.778 4.374 20.025 20.025 0 011.924 7.183 6.4 6.4 0 01-.124 2.653z" fill="#000"/><path d="M297.09 116.504a1.422 1.422 0 010-.357v-1.039a10.227 10.227 0 00-.14-1.676 16.43 16.43 0 00-.403-2.265 21.205 21.205 0 00-2.251-5.879 21.623 21.623 0 00-14.309-10.704 21.32 21.32 0 00-11.392.682 25.34 25.34 0 00-2.856 1.195 21.946 21.946 0 00-2.669 1.675 20.435 20.435 0 00-4.656 4.546 21.316 21.316 0 00-3.275 5.91 23.845 23.845 0 00-1.272 6.81c-.018 2.323.29 4.636.915 6.873a21.44 21.44 0 002.887 6.065 20.587 20.587 0 004.408 4.778 23.925 23.925 0 002.592 1.846c.893.515 1.821.966 2.778 1.35a21.282 21.282 0 0020.564-2.622 22.021 22.021 0 005.633-6.081 21.345 21.345 0 002.53-5.74c.222-.738.398-1.489.528-2.249a11.96 11.96 0 00.233-1.676c0-.434 0-.775.093-1.039a1.334 1.334 0 010-.357c.02.118.02.239 0 .357v1.055a11.327 11.327 0 01-.171 1.644 17.976 17.976 0 01-.465 2.265 21.243 21.243 0 01-2.499 5.849 21.73 21.73 0 01-26.633 9.013 19.806 19.806 0 01-5.509-3.211 20.924 20.924 0 01-4.532-4.871 22.274 22.274 0 01-2.949-6.206 22.429 22.429 0 01.357-13.962 21.92 21.92 0 013.275-6.096 20.76 20.76 0 014.811-4.654 21.212 21.212 0 012.747-1.707 23.727 23.727 0 012.918-1.225 21.58 21.58 0 0120.719 3.832 22.076 22.076 0 015.339 6.515 21.08 21.08 0 012.173 5.973c.173.756.292 1.523.357 2.296.08.56.111 1.125.093 1.691v1.054c.028.112.038.227.031.342z" fill="#263238"/><path d="M267.369 142.302a3.22 3.22 0 01-.869-.171 17.373 17.373 0 01-2.266-.76 24.83 24.83 0 01-11.842-10.13c-.42-.679-.789-1.39-1.102-2.125-.232-.512-.341-.807-.295-.822.047-.016.621 1.086 1.723 2.746a28.81 28.81 0 005.137 5.801 28.483 28.483 0 006.41 4.174c1.862.822 3.104 1.194 3.104 1.287zm4.656 1.288c0 .155-.605.155-1.288 0s-1.195-.388-1.164-.528c.031-.139.605-.155 1.288 0 .683.156 1.164.373 1.164.528z" fill="#fff"/><path d="M269.65 180.263a1.187 1.187 0 01-.388-.155l-1.133-.574-.822-.435-.931-.636-1.087-.744-1.117-.962a19.462 19.462 0 01-4.563-6.112 21.257 21.257 0 01-2.126-9.758l.326.341-36.348.093-42.696-.124-12.928-.124h-3.523a10.69 10.69 0 01-1.226-.077 6.139 6.139 0 011.226-.093h3.523l12.928-.14 42.696-.109h36.674v.342a21.042 21.042 0 001.955 9.494 19.584 19.584 0 004.33 6.034 32.81 32.81 0 005.23 3.739zM252.64 39.59c.117.806.169 1.62.156 2.435 0 1.722 0 3.956.124 6.655.124 2.7 0 6.206.093 9.867v5.833c-.035.999.001 2 .108 2.994a5.092 5.092 0 003.943 3.987c.994.107 1.995.143 2.995.108h5.835l9.871.093 6.658.124c.815-.013 1.63.04 2.437.155-.806.127-1.622.179-2.437.156l-6.658.14-9.871.077h-5.835c-1.036.037-2.073 0-3.104-.109a6.052 6.052 0 01-2.964-1.551 5.92 5.92 0 01-1.552-2.963 21.869 21.869 0 01-.109-3.103V48.789c0-2.855.109-4.933.14-6.655a13.29 13.29 0 01.17-2.544zm116.23 292.081c-.186.124-19.136-27.613-42.323-61.944-23.187-34.33-41.904-62.285-41.671-62.409.232-.124 19.136 27.598 42.338 61.959 23.203 34.362 41.842 62.27 41.656 62.394z" fill="#263238"/><path d="M110.834 522.716c60.755 0 110.006-49.23 110.006-109.957 0-60.728-49.251-109.958-110.006-109.958S.828 352.031.828 412.759c0 60.727 49.252 109.957 110.006 109.957z" fill="#F5F5F5"/><path d="M220.809 412.758s0-.605-.093-1.784c-.093-1.178 0-2.932-.233-5.227a112.332 112.332 0 00-3.104-19.826 109.114 109.114 0 00-4.532-13.791 103.96 103.96 0 00-7.651-15.514 111.224 111.224 0 00-27.936-31.166 109.561 109.561 0 00-46.203-20.477 111.304 111.304 0 00-42.944.636 115.326 115.326 0 00-14.667 4.173 110.044 110.044 0 00-50.967 38.225 107.76 107.76 0 00-8.94 14.38 101.197 101.197 0 00-6.689 15.839 109.462 109.462 0 000 69.189c.87 2.761 1.971 5.429 3.104 8.098 1.133 2.668 2.328 5.243 3.678 7.756A109.806 109.806 0 0073.54 515.89a118.667 118.667 0 0014.666 4.188 111.891 111.891 0 0042.975.497 109.545 109.545 0 0046.172-20.571 110.973 110.973 0 0027.936-31.165 104.824 104.824 0 007.667-15.514 108.928 108.928 0 007.667-33.632c.201-2.281.155-4.049.232-5.213.078-1.163.094-1.784.094-1.784s0 2.42-.171 7.012a107.966 107.966 0 01-3.073 19.966 110.497 110.497 0 01-4.454 13.853 106.843 106.843 0 01-7.636 15.513 111.504 111.504 0 01-27.936 31.399 110.147 110.147 0 01-46.436 20.679 110.551 110.551 0 01-28.448 1.551 114.312 114.312 0 01-14.806-2.048 117.362 117.362 0 01-14.76-4.204 110.483 110.483 0 01-51.387-38.379 108.91 108.91 0 01-9.001-14.489c-1.35-2.529-2.514-5.166-3.71-7.757-1.195-2.591-2.157-5.383-3.104-8.16a110.268 110.268 0 010-69.685 102.284 102.284 0 016.814-16.01 107.615 107.615 0 019.001-14.442 110.586 110.586 0 0151.356-38.457 119.936 119.936 0 0114.76-4.189 111.011 111.011 0 0114.79-2.063c9.515-.72 19.084-.199 28.464 1.551a109.906 109.906 0 0146.42 20.664 111.353 111.353 0 0127.936 31.398 108.341 108.341 0 017.636 15.513 109.86 109.86 0 014.454 13.869 107.685 107.685 0 013.011 19.888c.249 4.669.14 7.089.14 7.089z" fill="#263238"/><path d="M193.54 410.369H19.064v25.597H193.54v-25.597z" fill="#FF725E"/><path opacity=".5" d="M193.54 410.369H19.064v25.597H193.54v-25.597z" fill="#000"/><path d="M25.691 435.547a16.81 16.81 0 0010.156 15.686 16.826 16.826 0 0023.116-11.915 16.81 16.81 0 00-6.896-17.366 16.83 16.83 0 00-21.273 1.776 16.814 16.814 0 00-5.103 11.819z" fill="#263238"/><path d="M25.691 435.501a16.813 16.813 0 004.752 11.963 16.827 16.827 0 0023.793.351 16.814 16.814 0 005.103-11.818l-33.648-.496z" fill="#263238"/><path d="M30.704 435.625a11.8 11.8 0 007.133 11.01 11.809 11.809 0 0016.226-8.37 11.801 11.801 0 00-4.846-12.19 11.808 11.808 0 00-11.064-1.252 11.81 11.81 0 00-7.449 10.802z" fill="#FAFAFA"/><path d="M42.686 423.99a11.798 11.798 0 00-8.402 3.337 11.798 11.798 0 00-3.58 8.298l23.622.341a11.802 11.802 0 00-7.133-11.012 11.81 11.81 0 00-4.507-.964z" fill="#E0E0E0"/><path d="M35.314 435.687a7.2 7.2 0 0012.215 5.274 7.195 7.195 0 00-.924-11.09 7.196 7.196 0 00-6.745-.767 7.195 7.195 0 00-4.546 6.583zm137.072 16.867c9.268-.661 16.245-8.706 15.584-17.97-.661-9.264-8.71-16.238-17.978-15.577-9.268.66-16.245 8.706-15.584 17.97.661 9.264 8.71 16.238 17.978 15.577z" fill="#263238"/><path d="M154.352 435.501a16.81 16.81 0 004.585 12.247 16.819 16.819 0 0011.976 5.262 16.826 16.826 0 0017.071-17.013l-33.632-.496z" fill="#263238"/><path d="M159.365 435.625a11.809 11.809 0 0020.045 8.632 11.805 11.805 0 00-8.079-20.267 11.8 11.8 0 00-11.007 7.131 11.773 11.773 0 00-.959 4.504z" fill="#FAFAFA"/><path d="M171.331 423.99a11.808 11.808 0 00-11.966 11.635l23.606.341a11.778 11.778 0 00-3.333-8.402 11.796 11.796 0 00-8.307-3.574z" fill="#E0E0E0"/><path d="M163.975 435.687a7.188 7.188 0 001.154 4.018 7.204 7.204 0 0013.089-2.409 7.198 7.198 0 00-6.949-8.698 7.174 7.174 0 00-5.118 2.032 7.163 7.163 0 00-1.592 2.312 7.163 7.163 0 00-.584 2.745z" fill="#263238"/><path d="M64.569 395.973s-24.832 1.831-33.958 3.894c-6.472 1.443-18.95 3.956-18.795 11.79l1.025 5.647a8.468 8.468 0 00-4.656 7.508c0 5.399-1.133 13.76 9.669 14.086h5.168s-2.08-22.99 19.074-23.673c21.495-.683 20.067 23.471 20.067 23.471h89.753s-3.694-23.533 19.462-23.564c23.156-.031 19.632 23.72 19.632 23.72s8.521.729 12.416-6.423c3.896-7.151 2.934-12.255 2.934-12.255l-.124-4.515a2.951 2.951 0 00-2.825-2.839s1.552-11.386-.823-13.356c-2.374-1.971-15.38-13.869-15.38-13.869l.621-.388a1.455 1.455 0 00.662-1.4 1.463 1.463 0 00-.973-1.206l-17.072-5.864a4.4 4.4 0 00-1.07-.233c-1.366-.093-5.246-.341-12.416-.419-8.676-.093-43.131 0-43.131 0s-11.857.978-18.468 3.879c-6.752 3.04-30.792 16.009-30.792 16.009z" fill="#FF725E"/><path opacity=".4" d="M14.393 424.176a3.82 3.82 0 00-2.965.403 2.808 2.808 0 00-.73 1.862 8.43 8.43 0 000 2.792 3.473 3.473 0 001.553 2.219 2.203 2.203 0 002.592-.311 3.426 3.426 0 00.62-2.42 19.437 19.437 0 00-.14-3.428 1.55 1.55 0 00-.31-.683.904.904 0 00-.714-.434" fill="#000"/><path d="M12.84 417.304c2.639 0 5.184-.14 7.76-.326a1.3 1.3 0 00.808-.233 1.282 1.282 0 00.264-.962 4.913 4.913 0 00-1.118-3.924 4.368 4.368 0 00-2.406-.823 15.872 15.872 0 00-6.332.637l1.025 5.631z" fill="#FAFAFA"/><path d="M68.371 438.355a1.136 1.136 0 010-.202v-2.73c0-1.893-.124-4.654-.232-8.238-.109-3.583-.218-7.849-.342-12.798 0-1.225-.077-2.497-.108-3.816a14.556 14.556 0 010-2.001c0-.326.108-.667.155-1.009.046-.341.14-.667.202-1.008a21.06 21.06 0 011.396-4.033 19.384 19.384 0 012.282-3.832l15.52-9.789 4.237-2.622a35.177 35.177 0 014.439-2.482 45.237 45.237 0 014.826-1.923c.823-.28 1.676-.528 2.514-.776.839-.248 1.708-.45 2.592-.636a58.566 58.566 0 0110.011-1.257 91.77 91.77 0 019.7 0h.093v.093c-1.552 6.656-2.902 12.923-4.175 18.616a20.003 20.003 0 00-1.878 4.018 11.018 11.018 0 00-.636 4.158c.108 1.38.155 2.73.186 4.033.031 1.303 0 2.591 0 3.816 0 4.933.093 9.308.093 12.783v11.154a1.923 1.923 0 000-.186V426.72c0-3.583 0-7.85-.14-12.783v-3.816c0-1.319-.077-2.653-.186-4.033-.064-1.43.152-2.858.636-4.204a20.189 20.189 0 011.878-4.034c1.273-5.755 2.67-12.022 4.16-18.616v.093a95.654 95.654 0 00-9.669 0 58.393 58.393 0 00-9.995 1.273c-.869.17-1.723.403-2.576.62-.854.217-1.692.497-2.515.776a44.71 44.71 0 00-4.795 1.923 33.068 33.068 0 00-4.424 2.467l-4.283 2.637-15.52 9.773a20.93 20.93 0 00-3.694 7.757 29.68 29.68 0 00-.341 7.757c.124 4.948.233 9.307.326 12.798.093 3.49.14 6.329.186 8.237v2.172c-.01.186-.01.373 0 .559l.077.279z" fill="#263238"/><path d="M114.916 407.484h.248c.24-.034.469-.125.668-.264a1.66 1.66 0 00.667-.868c.073-.226.105-.462.093-.698a1.978 1.978 0 00-.202-.745 1.651 1.651 0 00-1.443-.884h-6.984a1.659 1.659 0 00-1.63 1.458c-.054.384.017.776.202 1.117.185.319.468.569.807.713.335.112.688.154 1.04.125h5.556-6.099a1.822 1.822 0 01-.559-.125 1.866 1.866 0 01-.885-.775 2.023 2.023 0 01-.217-1.21 1.785 1.785 0 011.785-1.552h6.984a1.808 1.808 0 011.552.962c.119.247.182.517.186.791.018.247-.013.495-.093.73-.133.374-.39.692-.729.899-.21.125-.442.209-.683.249l-.264.077zm46.529 0h.248c.235-.037.458-.127.652-.264.326-.196.57-.505.683-.868a1.996 1.996 0 000-.698 1.72 1.72 0 00-.186-.745 1.678 1.678 0 00-1.459-.884h-6.891a1.66 1.66 0 00-1.645 1.458c-.047.384.023.773.201 1.117.185.319.468.569.807.713a2.72 2.72 0 001.056.125h5.54-6.083a1.652 1.652 0 01-.559-.125 1.8 1.8 0 01-.885-.775 1.926 1.926 0 01-.233-1.21c.049-.434.253-.837.575-1.133a1.851 1.851 0 011.226-.465h6.968a1.772 1.772 0 011.552.962c.131.243.2.515.202.791.005.247-.031.494-.109.729-.133.37-.384.686-.714.9a1.89 1.89 0 01-.698.248l-.248.124z" fill="#263238"/><path d="M202.185 399.898h-9.312a3.398 3.398 0 00-3.104 1.831 3.4 3.4 0 00-.109 2.978l3.648 8.284 9.312-.077s2.11-10.518-.435-13.016z" fill="#FAFAFA"/><path d="M72.95 398.688l48.112-.884 31.257-.574 10.305-5.942a1.544 1.544 0 00.802-1.064 1.559 1.559 0 00-.321-1.294l-6.409-8.423a3.589 3.589 0 00-1.25-1.032 3.59 3.59 0 00-1.575-.38l-34.951-.279s-13.177-.776-23.544 5.041a222.418 222.418 0 00-22.426 14.831z" fill="#263238"/><path d="M94.973 379.715s2.405 1.102.838 2.11c-1.568 1.009-25.903 16.351-25.903 16.351l-5.603-2.591c9.918-5.46 19.928-10.859 30.668-15.87zm92.033 5.539s-2.142 2.404-1.303 4.157c.838 1.753 9.56 7.927 9.56 7.927l6.317 1.195-14.574-13.279zm-60.124-4.297l-1.428 15.358 25.453-.73 10.258-5.957-6.642-8.671h-27.641zm-47.895 16.18s15.35-11.077 21.402-13.28a39.041 39.041 0 0114.387-2.823c5.246-.14 8.443 0 8.443 0l-4.051 15.606-40.181.497z" fill="#455A64"/><path d="M76.737 397.137a2.678 2.678 0 011.365-2.343l3.523-1.985a6.661 6.661 0 015.401-.528 3.82 3.82 0 012.561 3.506 3.875 3.875 0 01-2.358 3.724c-.481.205-.999.31-1.522.31h-6.285a2.687 2.687 0 01-2.685-2.684z" fill="#FF725E"/><path d="M76.736 397.137a2.939 2.939 0 000 .341c.049.321.154.631.31.915.26.448.635.818 1.087 1.071.29.139.598.234.916.279h6.456a4.27 4.27 0 001.552-.248 3.786 3.786 0 002.437-3.91 3.816 3.816 0 00-1.552-2.823 4.166 4.166 0 00-1.459-.605 6.442 6.442 0 00-1.552-.186 6.864 6.864 0 00-2.763.589c-.403.186-.776.419-1.148.621l-1.04.574-1.816 1.008a2.844 2.844 0 00-1.086 1.055 2.867 2.867 0 00-.342 1.272 2.086 2.086 0 010-.357c.043-.33.143-.65.295-.946a2.712 2.712 0 011.087-1.101l1.8-1.024 1.04-.605c.372-.186.745-.419 1.148-.621a7.256 7.256 0 012.825-.62c.523 0 1.044.063 1.552.186.554.109 1.08.325 1.552.636a3.95 3.95 0 011.63 2.947 4.112 4.112 0 01-.249 1.738 3.827 3.827 0 01-.946 1.411 3.977 3.977 0 01-1.382.885 4.503 4.503 0 01-1.552.248h-6.472a3.398 3.398 0 01-.946-.31 2.758 2.758 0 01-1.382-2.064 1.841 1.841 0 010-.356z" fill="#263238"/><path d="M114.326 403.451c-.919.079-1.841.105-2.763.077-.916.028-1.833.003-2.747-.077.914-.08 1.831-.106 2.747-.078a23.592 23.592 0 012.763.078zm46.234-.264s-1.909.093-4.268.124-4.252 0-4.252 0 1.893-.093 4.252-.124 4.268-.047 4.268 0zm-74.092-9.742s-.093-.124-.295-.295a2.094 2.094 0 00-1.04-.419 4.423 4.423 0 00-1.676.186 12.667 12.667 0 00-5.2 2.668c-.744.637-1.148 1.102-1.163 1.071.071-.121.16-.231.264-.326a6.79 6.79 0 01.822-.822 12.111 12.111 0 013.228-2.079 13.258 13.258 0 012.018-.667 4.232 4.232 0 011.722-.14 2.04 2.04 0 011.056.481c.082.074.155.157.217.249 0 0 .062.093.047.093z" fill="#fff"/><path d="M321.379 401.791c0 .233-22.458.403-50.161.403-27.703 0-50.161-.17-50.161-.403s22.458-.404 50.161-.404c27.703 0 50.161.187 50.161.404z" fill="#263238"/></g><defs><clipPath id="clip0"><path fill="#fff" transform="translate(.425)" d="M0 0h1014v674H0z"/></clipPath></defs></svg>