<svg width="650" height="368" fill="none" xmlns="http://www.w3.org/2000/svg"><path d="M39.264 19.562L.363 190.645l234.134 53.237 38.9-171.083L39.264 19.562z" fill="#2B3A8C"/><path d="M43.643 26.494L7.317 186.256 230.1 236.912 266.427 77.15 43.643 26.493z" fill="#F0F0F1"/><path d="M16.21 147.183l-8.887 39.082 222.783 50.656 8.887-39.082-222.784-50.656z" fill="#8CBF43"/><path d="M72.299 152.89a11.18 11.18 0 00-3.83-11.12 11.162 11.162 0 00-.49-16.41 11.342 11.342 0 002.13-2.61 11.178 11.178 0 007.592-16.589 11.18 11.18 0 00-5.222-4.651 1.77 1.77 0 010-.19 11.182 11.182 0 00-10.405-13.601 11.18 11.18 0 00-11.596 12.601l-.57-.19a11.182 11.182 0 00-12.47 5.91 11.182 11.182 0 002.77 13.52 11.146 11.146 0 00-4.61 12.17 11.147 11.147 0 00-8.86 17.88l41.72 9.49a11.16 11.16 0 003.84-6.21zm146.699 59.6a11.168 11.168 0 00-3.82-11.12 11.163 11.163 0 002.28-12.764 11.145 11.145 0 00-2.77-3.646 11.331 11.331 0 002.16-2.61 11.174 11.174 0 006.111-3.385 11.175 11.175 0 001.466-13.19 11.168 11.168 0 00-5.217-4.645l.06-.19a11.18 11.18 0 00-8.4-13.4 11.182 11.182 0 00-13.4 8.4 11.33 11.33 0 00-.18 3.92l-.67-.19a11.18 11.18 0 00-9.7 19.43 11.134 11.134 0 00-4.71 6.82 11.009 11.009 0 00.1 5.35 11.158 11.158 0 00-11.058 12.18 11.158 11.158 0 002.188 5.68l41.73 9.49a11.101 11.101 0 003.83-6.13z" fill="#8CBF43"/><path d="M198.508 85.47l-85.19-19.37-23.68 104.11 52.04 11.84 33.15 7.54 33.15 7.54 16.73-73.58-26.2-38.08z" fill="#28A8DF"/><path d="M56.498 162.68l16.73-73.58 40.091-23 26.2 38.08-16.73 73.57-66.29-15.07zm126.95-72.02l9.46 13.75 6.94-30.55-11.96-2.72-4.44 19.52z" fill="#2B3A8C"/><path d="M199.845 73.848l-6.946 30.551 5.987 1.361 6.947-30.55-5.988-1.362z" fill="#8CBF43"/><path d="M139.513 104.175l-16.729 73.572 85.186 19.37 16.728-73.573-85.185-19.369z" fill="#1C75BB"/><path d="M78.276 97.72l-3.57 15.7 6.241 1.419 3.57-15.7-6.24-1.418zm7.744 1.754l-3.569 15.699 6.24 1.419 3.57-15.699-6.24-1.419zm-11.678 15.569l-3.57 15.699 6.24 1.419 3.57-15.699-6.24-1.419zm7.734 1.753l-3.57 15.699 6.241 1.419 3.57-15.699-6.241-1.419zM70.41 132.355l-3.57 15.7 6.24 1.419 3.57-15.7-6.24-1.419zm7.731 1.763l-3.57 15.7 6.242 1.418 3.57-15.699-6.242-1.419zm25.369-30.656l-3.57 15.699 6.241 1.419 3.569-15.699-6.24-1.419zm7.744 1.753l-3.569 15.699 6.24 1.419 3.57-15.699-6.241-1.419zm-11.679 15.569l-3.57 15.699 6.241 1.419 3.57-15.699-6.241-1.419zm7.744 1.753l-3.569 15.699 6.24 1.419 3.57-15.699-6.241-1.419zm-11.677 15.559l-3.57 15.7 6.242 1.419 3.569-15.7-6.24-1.419zm7.743 1.763l-3.57 15.699 6.241 1.419 3.57-15.699-6.241-1.419zm42.296-26.811l-3.57 15.699 6.241 1.419 3.57-15.699-6.241-1.419zm7.742 1.762l-3.569 15.7 6.24 1.419 3.57-15.7-6.241-1.419zm-11.677 15.55l-3.569 15.699 6.24 1.419 3.57-15.699-6.241-1.419zm7.743 1.763l-3.57 15.699 6.241 1.419 3.569-15.699-6.24-1.419zm-11.678 15.559l-3.569 15.699 6.24 1.419 3.57-15.699-6.241-1.419zm7.743 1.763l-3.57 15.699 6.241 1.419 3.57-15.699-6.241-1.419z" fill="#F0F0F1"/><path d="M166.834 117.85l-15.114 66.473 27.859 6.335 15.114-66.473-27.859-6.335z" fill="#2B3A8C"/><path d="M167.134 131.12l-12.261 53.923 21.716 4.938 12.261-53.924-21.716-4.937z" fill="#000"/><path d="M183.178 124.52l-5.93-1.39a8.081 8.081 0 00-6.107 1.037 8.089 8.089 0 00-3.583 5.053l21.72 4.94a8.089 8.089 0 00-6.1-9.64zm-16.77 34.8a1.575 1.575 0 01-2.175 1.071 1.572 1.572 0 01-.922-1.477 1.564 1.564 0 011.01-1.42 1.56 1.56 0 011.469.187 1.58 1.58 0 01.639 1.024c.034.204.027.413-.021.615zM37.656 149.299l-3.56 15.856 51.598 11.583 3.56-15.856-51.598-11.583z" fill="#F0F0F1"/><path d="M41.152 167.484l-3.424 15.056 2.867.652 3.424-15.056-2.867-.652zm33.128 7.534l-3.423 15.056 2.867.652 3.423-15.056-2.867-.652z" fill="#2B3A8C"/><path d="M45.348 164.34a4.41 4.41 0 01-1.34-1.05l1-1.31a5.126 5.126 0 002.59 1.51c.42.114.861.114 1.28 0a.771.771 0 00.55-.57.68.68 0 00-.12-.55 1.826 1.826 0 00-.53-.45c-.23-.14-.54-.3-.94-.49a14.678 14.678 0 01-1.47-.82 2.633 2.633 0 01-.89-1 2 2 0 01-.13-1.44 2.36 2.36 0 01.7-1.25 2.775 2.775 0 011.41-.67 4.995 4.995 0 012 .1c.532.115 1.047.3 1.53.55.455.217.87.507 1.23.86l-.91 1.37a4.94 4.94 0 00-2.2-1.17 2.267 2.267 0 00-1.27 0 .837.837 0 00-.55.61.699.699 0 00.31.75c.4.288.829.533 1.28.73.507.238.998.508 1.47.81.375.254.681.598.89 1a2 2 0 01.14 1.44 2.38 2.38 0 01-.7 1.23c-.404.353-.9.586-1.43.67a4.995 4.995 0 01-2-.1 7.005 7.005 0 01-1.9-.76zm12.76 1.14l-3.92-.89-1.08 1.64-2-.46 5.67-7.57 1.93.43 1.85 9.29-2.05-.46-.4-1.98zm-.28-1.62l-.6-3.53-2.07 2.92 2.67.61zm5.48-4.17l2 .44-1.56 6.85 4.23 1-.36 1.59-6.23-1.44 1.92-8.44zm12.241 10.01l-.35 1.56-6.53-1.48 1.91-8.44 6.38 1.45-.36 1.57-4.43-1-.42 1.83 3.91.89-.34 1.52-3.92-.89-.44 2 4.59.99z" fill="#1C75BB"/><path d="M617.501 126.564l-239.433 43.978 32.135 174.959 239.434-43.977-32.136-174.96z" fill="#2B3A8C"/><path d="M614.917 136.683l-228.849 40.929 29.352 164.116 228.849-40.929-29.352-164.116z" fill="#F0F0F1"/><path d="M634.795 247.833l-228.849 40.929 9.472 52.96 228.849-40.929-9.472-52.96z" fill="#8CBF43"/><path d="M620.228 246.18c5.31-6.14-8.38-23.25-8.38-23.25s-.35 1-.81 2.7c-.89-1.76-1.9-3.46-2.86-5 5.33-3.47.09-13.3-3.87-19.3 1.38-7.3-9.48-20.88-9.48-20.88a71.441 71.441 0 00-1.94 7.37c-2.13-7.18-9-15.75-9-15.75a65.855 65.855 0 00-3 15.18c-1.57-2.29-2.78-3.81-2.78-3.81s-7.18 21.59.61 24.91c-.93 5.1-1.37 11.09.77 14.23-1.65 7-3.3 18.29 3 19.74-.9 6.2-.72 12.94 3.91 14.14l35.82-6.33c-.59-1.37-1.28-2.69-1.99-3.95z" fill="#8CBF43"/><path d="M519.189 185.95l-79.71 14.26 17.71 99 79.7-14.26 54.509-9.75-15.489-86.62-56.72-2.63z" fill="#28A8DF"/><path d="M439.478 200.21l3.32 18.55-24.31 10.29 13.36 74.69 25.34-4.53 29.17-5.22 25.34-4.53-15.5-86.62-56.72-2.63z" fill="#2B3A8C"/><path d="M575.455 188.667l-79.253 14.174 15.493 86.626 79.253-14.174-15.493-86.626z" fill="#1C75BB"/><path d="M452.461 231.95l-23.28 4.163 1.422 7.954 23.281-4.164-1.423-7.953zm2.001 11.202l-23.281 4.164 1.423 7.954 23.28-4.164-1.422-7.954zm1.999 11.184l-23.281 4.163 1.422 7.954 23.281-4.164-1.422-7.953zm2 11.202l-23.28 4.164 1.422 7.954 23.281-4.164-1.423-7.954zm2.011 11.202l-23.281 4.163 1.422 7.954 23.281-4.164-1.422-7.953zm27.334-51.115l-23.28 4.163 1.422 7.954 23.281-4.164-1.423-7.953zm2.009 11.191l-23.281 4.164 1.423 7.954 23.281-4.164-1.423-7.954zm2.001 11.203l-23.281 4.164 1.423 7.953 23.28-4.163-1.422-7.954zm2 11.203l-23.28 4.164 1.422 7.954 23.281-4.164-1.423-7.954zm1.999 11.193l-23.281 4.164 1.423 7.954 23.281-4.164-1.423-7.954zm73.31-59.33l-23.281 4.164 1.423 7.954 23.28-4.164-1.422-7.954zm2.02 11.192l-23.28 4.163 1.422 7.954 23.281-4.164-1.423-7.953zm2.001 11.202l-23.281 4.164 1.423 7.954 23.28-4.164-1.422-7.954zm1.998 11.194l-23.28 4.163 1.422 7.954 23.281-4.164-1.423-7.953zm2.001 11.192l-23.28 4.164 1.422 7.954 23.281-4.164-1.423-7.954z" fill="#F0F0F1"/><path d="M538.041 216.651l-28.577 5.111 11.805 66.002 28.576-5.111-11.804-66.002z" fill="#2B3A8C"/><path d="M535.121 220.664l-7.294 1.304 10.512 58.778 7.294-1.305-10.512-58.777zm-14.123 33.076a1.455 1.455 0 01-1.454 1.707 1.443 1.443 0 01-1.323-.921 1.443 1.443 0 01.347-1.574 1.446 1.446 0 011.832-.144c.315.219.53.554.598.932z" fill="#F0F0F1"/><path d="M507.428 265.59s-9.2 27.64 4.5 25.19c13.7-2.45-4.5-25.19-4.5-25.19zm-38.32 6.85s-9.2 27.64 4.5 25.19c13.7-2.45-4.5-25.19-4.5-25.19z" fill="#8CBF43"/><path d="M602.736 267.26l-36.904 6.6 3.755 20.997 36.904-6.601-3.755-20.996z" fill="#2B3A8C"/><path d="M577.489 293.423l-3.868.692 2.095 11.714 3.868-.692-2.095-11.714zm24.964-4.456l-3.869.692 2.095 11.714 3.869-.692-2.095-11.714zm-28.715-3.557a3.918 3.918 0 01-1.47-.47l.33-1.57c.397.211.826.357 1.27.43.457.08.924.08 1.38 0 .386-.042.75-.195 1.05-.44a.767.767 0 00.24-.72.72.72 0 00-.3-.47 1.627 1.627 0 00-.6-.22c-.23 0-.54-.08-.93-.11a13.13 13.13 0 01-1.49-.2 2.37 2.37 0 01-1.08-.57 2.193 2.193 0 01-.63-1.28 2.648 2.648 0 01.11-1.4c.185-.461.502-.858.91-1.14a3.91 3.91 0 011.68-.66c.478-.09.967-.111 1.45-.06.45.036.89.151 1.3.34l-.27 1.58a3.874 3.874 0 00-2.21-.29 1.8 1.8 0 00-1 .46.87.87 0 00-.23.76.717.717 0 00.52.57c.428.118.867.185 1.31.2.501.035.999.106 1.49.21.4.085.769.275 1.07.55.35.339.576.787.64 1.27.084.467.039.947-.13 1.39a2.527 2.527 0 01-.91 1.14 3.994 3.994 0 01-1.69.66 5.61 5.61 0 01-1.81.04zm10.78-3.66l-3.5.62-.34 1.93-1.79.32 1.85-9.05 1.72-.31 4.88 7.85-1.83.33-.99-1.69zm-.81-1.39l-1.78-3-.61 3.45 2.39-.45zm2.91-5.84l1.74-.31 1.23 6.85 3.78-.67.28 1.59-5.52 1-1.51-8.46zm13.56 4.67l.28 1.57-5.83 1.05-1.52-8.46 5.69-1 .28 1.56-4 .71.33 1.84 3.5-.63.27 1.52-3.5.63.35 2 4.15-.79zm1.108 3.255l-28.832 5.157.605 3.386 28.833-5.156-.606-3.387z" fill="#F0F0F1"/><path d="M406.168 367.93l-160.67.07a17.13 17.13 0 01-17.13-17.11l-.15-333.54A17.13 17.13 0 01245.328.22l160.67-.09a17.13 17.13 0 0117.11 17.13l.15 333.54a17.132 17.132 0 01-17.09 17.13z" fill="#2B3A8C"/><path d="M408.888 8.51h-48.43a3.9 3.9 0 00-3.89 3.9 3.892 3.892 0 01-3.9 3.89h-54a3.889 3.889 0 01-3.89-3.89 3.9 3.9 0 00-3.89-3.9h-48.44a6.611 6.611 0 00-6.61 6.61l.15 337.83a6.62 6.62 0 006.62 6.61l166.44-.08a6.616 6.616 0 004.674-1.936 6.615 6.615 0 001.936-4.674l-.15-337.74a6.618 6.618 0 00-6.62-6.62z" fill="#F0F0F1"/><path opacity=".3" d="M311.858 8.55a3.516 3.516 0 01-2.166 3.26 3.518 3.518 0 01-4.805-2.56 3.518 3.518 0 013.451-4.21 3.521 3.521 0 013.52 3.51zm10.04 0a3.52 3.52 0 11-7.04.02 3.52 3.52 0 017.04-.02zm23.591 2.476a3.521 3.521 0 00-4.978-4.978 3.52 3.52 0 104.978 4.978z" fill="#F0F0F1"/><path d="M415.588 53.51h-179.67v277.28h179.67V53.51z" fill="#8CBF43"/><path d="M277.468 53.53l.12 200.54m-.1-143.03l138.06-.06m.02 56.52l-138.05.06-41.61.01" stroke="#F0F0F1" stroke-width="11.386" stroke-miterlimit="10"/><path d="M277.558 253.45l44.45-.01 36.16-36.19-.03-49.73m.03 49.73l57.43-.02m-93.59 36.2l.04 77.36m-.02-35.87l93.6-.04M339.508 53.5l.02 57.52m32.88-57.53l.02 57.51" stroke="#F0F0F1" stroke-width="11.386" stroke-miterlimit="10"/><path d="M320.348 114.47a13.988 13.988 0 002.15-7.53 14.17 14.17 0 00-4.364-9.96 14.184 14.184 0 00-10.136-3.94 13.997 13.997 0 00-11.847 7.453 14.008 14.008 0 00.527 13.987l9.11 16a3.149 3.149 0 004.307 1.155 3.146 3.146 0 001.153-1.155l9.1-16.01z" fill="#28A8DF"/><path d="M308.508 101.41l-5.66 2.59.01 9.98h3.94l-.01-5.23h3.44v5.23h3.94v-9.99l-5.66-2.58z" fill="#F0F0F1"/><path d="M369.999 294.06a13.837 13.837 0 002.11-7.53 14.19 14.19 0 00-4.365-9.96 14.185 14.185 0 00-10.135-3.94 13.996 13.996 0 00-11.84 7.457 14.003 14.003 0 00.53 13.983l9.11 15.95a3.125 3.125 0 002.725 1.59 3.133 3.133 0 002.725-1.59l9.14-15.96z" fill="#1C75BB"/><path d="M358.158 281l-5.65 2.59v9.98h3.94v-5.22l3.43-.01.01 5.23h3.93v-9.99l-5.66-2.58z" fill="#F0F0F1"/><path d="M282.538 269.44a19.65 19.65 0 003-10.62 20.009 20.009 0 00-6.15-14.037 19.987 19.987 0 00-14.28-5.563 19.73 19.73 0 00-19 19.72 19.541 19.541 0 003.05 10.51l12.84 22.49a4.423 4.423 0 006.07 1.639 4.408 4.408 0 001.62-1.639l12.85-22.5z" fill="#1C75BB"/><path d="M265.848 251.02l-7.97 3.66v14.07h5.55v-7.37h4.85v7.37l5.55-.01-.01-14.07-7.97-3.65z" fill="#F0F0F1"/><path d="M256.278 41.48l-5.69-4.52 5.69-4.52m138.02-.06l9.8-.01m-9.8 4.53h9.8m-9.79 4.52h9.79" stroke="#2B3A8C" stroke-width="2.009" stroke-miterlimit="10"/><path d="M295.598 37.49a3.705 3.705 0 01-1.26-.59l.55-1.23a4.231 4.231 0 002.34.73c.345.017.689-.051 1-.2a.648.648 0 00.34-.56.528.528 0 00-.2-.41 1.236 1.236 0 00-.51-.27c-.2-.07-.48-.14-.83-.23a10.284 10.284 0 01-1.33-.38 2.099 2.099 0 01-.88-.62 1.643 1.643 0 01-.37-1.13 2.006 2.006 0 01.33-1.12 2.287 2.287 0 011-.79 4 4 0 011.64-.29c.449-.002.895.052 1.33.16.399.092.781.247 1.13.46l-.51 1.25a3.996 3.996 0 00-2-.56 1.932 1.932 0 00-1 .22.683.683 0 00-.32.59.575.575 0 00.38.54c.369.16.755.277 1.15.35.54.13 1 .26 1.33.38.34.126.643.336.88.61.261.313.393.713.37 1.12a2 2 0 01-.33 1.11 2.299 2.299 0 01-1 .79 4.05 4.05 0 01-1.65.3 5.825 5.825 0 01-1.58-.23zm11.23-1.21v1.31h-5.48v-7.07h5.35v1.31h-3.73v1.54h3.29v1.27h-3.29v1.64h3.86zm5.97-.21h-3.29l-.63 1.52h-1.68l3.16-7.08h1.61l3.14 7.08h-1.72l-.59-1.52zm-.52-1.24l-1.12-2.7-1.13 2.71 2.25-.01zm8.11 2.76l-1.36-2h-1.51v2h-1.64v-7.08h3.06a3.996 3.996 0 011.64.31 2.526 2.526 0 011.419 2.626 2.528 2.528 0 01-.359.994c-.264.392-.64.695-1.08.87l1.55 2.28h-1.72zm-.42-5.46a1.718 1.718 0 00-1.12-.32h-1.33v2.47h1.33a1.77 1.77 0 001.13-.32 1.153 1.153 0 00.38-.91 1.124 1.124 0 00-.39-.92zm4.78 5.11a3.488 3.488 0 01-1.38-1.31 3.6 3.6 0 01-.5-1.88 3.554 3.554 0 011.87-3.2 4.153 4.153 0 012-.47 3.999 3.999 0 011.66.33c.489.2.918.52 1.25.93l-1.05 1a2.233 2.233 0 00-1.78-.83 2.364 2.364 0 00-1.17.29 2.086 2.086 0 00-.81.8 2.42 2.42 0 00-.28 1.17c-.009.412.091.82.29 1.18.187.337.464.614.8.8a2.37 2.37 0 001.17.29 2.249 2.249 0 001.78-.84l1.06 1a3.26 3.26 0 01-1.26.94 4.325 4.325 0 01-3.62-.14l-.03-.06zm12.47-6.74v7.08h-1.64v-2.9h-3.22v2.9h-1.64V30.5h1.64v2.79h3.22V30.5h1.64zm1.68 0h1.63v7.08h-1.64l.01-7.08zm9.81-.01v7.08h-1.34l-3.54-4.29v4.3h-1.62V30.5h1.36l3.54 4.29v-4.3h1.6zm6.46 3.43h1.5v2.87a4.36 4.36 0 01-1.33.67 5.066 5.066 0 01-1.53.23 4 4 0 01-2-.47 3.483 3.483 0 01-1.39-1.3 3.8 3.8 0 010-3.77 3.59 3.59 0 011.39-1.31 4.284 4.284 0 012-.47 4.437 4.437 0 011.7.31c.488.202.923.513 1.27.91l-1.05 1a2.438 2.438 0 00-1.83-.79c-.42-.01-.836.086-1.21.28-.341.183-.623.46-.81.8a2.31 2.31 0 00-.3 1.18c-.006.413.098.82.3 1.18.187.34.469.617.81.8.366.196.776.296 1.19.29.444.01.881-.098 1.27-.31l.02-2.1z" fill="#000"/><path d="M480.409 108.86a23.296 23.296 0 01-16.288 20.106 23.285 23.285 0 01-24.809-7.349 23.283 23.283 0 01-2.709-25.733 23.285 23.285 0 0122.736-12.354 23.328 23.328 0 0121.07 25.33v0z" stroke="#000" stroke-width="3" stroke-miterlimit="10"/><path d="M505.618 132.02a29.193 29.193 0 0019.83-27.2l56.82-19.25a1.922 1.922 0 001.16-1.09l4-9.67a1.909 1.909 0 00-.81-2.38l-9-5.28a1.909 1.909 0 00-1.58-.16l-7 2.38a1.894 1.894 0 00-1.1 1l-2.16 4.36a1.917 1.917 0 01-2.57.87l-3.08-1.52a1.92 1.92 0 00-2.57.87l-1.52 3.08a1.907 1.907 0 01-2.56.87l-4.37-2.15a1.896 1.896 0 00-1.46-.1l-4.66 1.58a1.928 1.928 0 00-1.11 1l-2.15 4.37a1.917 1.917 0 01-2.57.87l-5.08-2.51-1.74-4.83a1.917 1.917 0 00-2.022-1.28 1.922 1.922 0 00-.808.28l-11.23 7a29.197 29.197 0 00-41.537 1.508 29.193 29.193 0 00-6.265 28.746 29.194 29.194 0 0021.934 19.608 29.2 29.2 0 0015.208-.952v-.02zm-24.38-30.41a7.418 7.418 0 017.961 2.142 7.413 7.413 0 011.069 8.174 7.416 7.416 0 01-13.68-.906 7.408 7.408 0 014.65-9.41z" fill="#2B3A8C"/><path d="M498.168 100.68a29.208 29.208 0 008.45-32.55l45.77-38.79a1.934 1.934 0 00.68-1.44l.12-10.45a1.905 1.905 0 00-1.62-1.91l-10.33-1.59a1.888 1.888 0 00-1.53.43l-5.6 4.75a2.002 2.002 0 00-.68 1.3l-.4 4.86a1.897 1.897 0 01-.667 1.302 1.909 1.909 0 01-1.393.448l-3.43-.28a1.919 1.919 0 00-2.07 1.75l-.36 3.42a1.916 1.916 0 01-2 1.76l-4.85-.4a1.879 1.879 0 00-1.4.44l-3.75 3.18a1.92 1.92 0 00-.67 1.31l-.4 4.85a1.918 1.918 0 01-2.07 1.75l-5.64-.46-3.24-3.83a1.922 1.922 0 00-1.523-.666 1.926 1.926 0 00-1.477.766l-7.98 10.64a29.209 29.209 0 108.06 49.41zm-33.85-19.33a7.431 7.431 0 0110.627 10.285 7.432 7.432 0 01-11.487.185 7.442 7.442 0 01.86-10.47z" fill="#000"/><path d="M470.309 150.63l-18.5-42.26a1.111 1.111 0 00-.82-.64l-45.52-7.48a1.074 1.074 0 00-1 .41l-40.11 51.62a1.096 1.096 0 00.19 1.54l20.48 15.91a1.08 1.08 0 00.804.222 1.095 1.095 0 00.726-.412l25.81-33.22a1.11 1.11 0 011.54-.19l19.59 15.23a1.082 1.082 0 01.411.726 1.083 1.083 0 01-.221.804l-25.85 33.24a1.083 1.083 0 00.2 1.53l20.48 15.92a1.09 1.09 0 001.53-.2l40.12-51.62a1.094 1.094 0 00.14-1.13zm-35.9-20.71a7.42 7.42 0 119.109-11.715 7.42 7.42 0 01-9.109 11.715z" fill="#2B3A8C"/><path d="M311.014 310.912c25.107-25.107 25.107-65.813 0-90.92s-65.813-25.107-90.92 0-25.107 65.813 0 90.92 65.813 25.107 90.92 0zM205.018 287.11l-46.07 16.48" stroke="#000" stroke-width="15" stroke-miterlimit="10"/><path d="M158.948 303.59l-77.68 27.79" stroke="#1C75BB" stroke-width="24" stroke-linecap="round" stroke-linejoin="round"/></svg>