<svg width="189" height="136" viewBox="0 0 189 136" fill="none" xmlns="http://www.w3.org/2000/svg">
<g clip-path="url(#clip0)">
<path d="M184.826 107.144H163.432V135.217H184.826V107.144Z" fill="#F5F5F5"/>
<path d="M184.826 107.144H174.795V135.217H184.826V107.144Z" fill="#EBEBEB"/>
<path d="M169.844 110.944H167.92V115.594H169.844V110.944Z" fill="#EBEBEB"/>
<path d="M169.844 129.146H167.92V133.795H169.844V129.146Z" fill="#EBEBEB"/>
<path d="M174.795 117.42C174.795 117.46 172.251 117.492 169.115 117.492C165.98 117.492 163.424 117.46 163.424 117.42C163.424 117.38 165.968 117.348 169.107 117.348C172.247 117.348 174.795 117.38 174.795 117.42Z" fill="#EBEBEB"/>
<path d="M169.844 120.115H167.92V124.765H169.844V120.115Z" fill="#EBEBEB"/>
<path d="M174.795 126.586C174.795 126.627 172.251 126.663 169.116 126.663C165.98 126.663 163.432 126.627 163.432 126.586C163.432 126.546 165.976 126.514 169.116 126.514C172.255 126.514 174.795 126.55 174.795 126.586Z" fill="#EBEBEB"/>
<path d="M178.848 110.944H176.924V115.594H178.848V110.944Z" fill="#E0E0E0"/>
<path d="M183.023 110.944H181.099V115.594H183.023V110.944Z" fill="#E0E0E0"/>
<path d="M178.848 119.771H176.924V124.42H178.848V119.771Z" fill="#E0E0E0"/>
<path d="M183.023 119.771H181.099V124.42H183.023V119.771Z" fill="#E0E0E0"/>
<path d="M178.848 128.593H176.924V133.243H178.848V128.593Z" fill="#E0E0E0"/>
<path d="M183.023 128.593H181.099V133.243H183.023V128.593Z" fill="#E0E0E0"/>
<path d="M186.436 106.166H161.826V107.179H186.436V106.166Z" fill="#E0E0E0"/>
<path d="M184.975 107.276C184.975 107.316 180.197 107.348 174.296 107.348C168.395 107.348 163.617 107.316 163.617 107.276C163.617 107.236 168.399 107.204 174.296 107.204C180.193 107.204 184.975 107.236 184.975 107.276Z" fill="#F5F5F5"/>
<path d="M139.687 36.2271H101.544V135.553H139.687V36.2271Z" fill="#EBEBEB"/>
<path d="M139.687 36.2271H120.616V135.553H139.687V36.2271Z" fill="#E0E0E0"/>
<path d="M119.368 24.4211H105.899V36.2272H119.368V24.4211Z" fill="#EBEBEB"/>
<path d="M119.368 24.4211H116.16V36.2272H119.368V24.4211Z" fill="#E0E0E0"/>
<path d="M140.798 35.5383H98.3641V36.2271H140.798V35.5383Z" fill="#E0E0E0"/>
<path d="M112.3 41.3772H109.071V48.1493H112.3V41.3772Z" fill="white"/>
<path d="M120.616 50.8084C120.616 50.8765 116.345 50.9366 111.08 50.9366C105.815 50.9366 101.544 50.8765 101.544 50.8084C101.544 50.7403 105.815 50.6763 111.08 50.6763C116.345 50.6763 120.616 50.7363 120.616 50.8084Z" fill="#E0E0E0"/>
<path d="M131.536 41.3772H128.308V48.1493H131.536V41.3772Z" fill="#F5F5F5"/>
<path d="M139.852 50.8084C139.852 50.8765 135.581 50.9366 130.316 50.9366C125.051 50.9366 120.781 50.8765 120.781 50.8084C120.781 50.7403 125.047 50.6763 130.316 50.6763C135.585 50.6763 139.852 50.7363 139.852 50.8084Z" fill="#EBEBEB"/>
<path d="M131.536 54.8213H128.308V61.5934H131.536V54.8213Z" fill="#F5F5F5"/>
<path d="M139.852 64.2524C139.852 64.3245 135.581 64.3846 130.316 64.3846C125.051 64.3846 120.781 64.3245 120.781 64.2524C120.781 64.1803 125.047 64.1243 130.316 64.1243C135.585 64.1243 139.852 64.1803 139.852 64.2524Z" fill="#EBEBEB"/>
<path d="M131.536 68.6736H128.308V75.4457H131.536V68.6736Z" fill="#F5F5F5"/>
<path d="M139.852 78.093C139.852 78.1651 135.581 78.2252 130.316 78.2252C125.051 78.2252 120.781 78.1651 120.781 78.093C120.781 78.0209 125.047 77.9648 130.316 77.9648C135.585 77.9648 139.852 78.0329 139.852 78.093Z" fill="#EBEBEB"/>
<path d="M131.536 82.5261H128.308V89.2982H131.536V82.5261Z" fill="#F5F5F5"/>
<path d="M139.852 91.9575C139.852 92.0296 135.581 92.0897 130.316 92.0897C125.051 92.0897 120.781 92.0296 120.781 91.9575C120.781 91.8854 125.047 91.8293 130.316 91.8293C135.585 91.8293 139.852 91.8854 139.852 91.9575Z" fill="#EBEBEB"/>
<path d="M131.536 95.9822H128.308V102.754H131.536V95.9822Z" fill="#F5F5F5"/>
<path d="M139.852 105.414C139.852 105.486 135.581 105.546 130.316 105.546C125.051 105.546 120.781 105.486 120.781 105.414C120.781 105.341 125.047 105.285 130.316 105.285C135.585 105.285 139.852 105.345 139.852 105.414Z" fill="#EBEBEB"/>
<path d="M131.536 109.494H128.308V116.266H131.536V109.494Z" fill="#F5F5F5"/>
<path d="M131.536 123.183H128.308V129.955H131.536V123.183Z" fill="#F5F5F5"/>
<path d="M139.852 118.942C139.852 119.014 135.581 119.07 130.316 119.07C125.051 119.07 120.781 119.014 120.781 118.942C120.781 118.87 125.047 118.813 130.316 118.813C135.585 118.813 139.852 118.854 139.852 118.942Z" fill="#EBEBEB"/>
<path d="M112.3 55.0295H109.071V61.8016H112.3V55.0295Z" fill="white"/>
<path d="M120.616 64.4768C120.616 64.5489 116.345 64.6089 111.08 64.6089C105.815 64.6089 101.544 64.5489 101.544 64.4768C101.544 64.4047 105.815 64.3486 111.08 64.3486C116.345 64.3486 120.616 64.3887 120.616 64.4768Z" fill="#E0E0E0"/>
<path d="M112.3 68.6816H109.071V75.4537H112.3V68.6816Z" fill="white"/>
<path d="M120.616 78.093C120.616 78.1651 116.345 78.2252 111.08 78.2252C105.815 78.2252 101.544 78.1651 101.544 78.093C101.544 78.0209 105.815 77.9648 111.08 77.9648C116.345 77.9648 120.616 78.0409 120.616 78.093Z" fill="#E0E0E0"/>
<path d="M112.3 82.3298H109.071V89.1019H112.3V82.3298Z" fill="white"/>
<path d="M120.616 91.7612C120.616 91.8333 116.345 91.8934 111.08 91.8934C105.815 91.8934 101.544 91.8333 101.544 91.7612C101.544 91.6891 105.815 91.6331 111.08 91.6331C116.345 91.6331 120.616 91.7091 120.616 91.7612Z" fill="#E0E0E0"/>
<path d="M112.3 95.9822H109.071V102.754H112.3V95.9822Z" fill="white"/>
<path d="M120.616 105.414C120.616 105.486 116.345 105.546 111.08 105.546C105.815 105.546 101.544 105.486 101.544 105.414C101.544 105.341 105.815 105.285 111.08 105.285C116.345 105.285 120.616 105.345 120.616 105.414Z" fill="#E0E0E0"/>
<path d="M112.3 109.635H109.071V116.407H112.3V109.635Z" fill="white"/>
<path d="M120.616 119.066C120.616 119.138 116.345 119.198 111.08 119.198C105.815 119.198 101.544 119.138 101.544 119.066C101.544 118.993 105.815 118.941 111.096 118.941C116.377 118.941 120.616 118.997 120.616 119.066Z" fill="#E0E0E0"/>
<path d="M112.3 123.287H109.071V130.059H112.3V123.287Z" fill="white"/>
<path d="M86.5341 96.9995H57.2869V135.381H86.5341V96.9995Z" fill="#EBEBEB"/>
<path d="M86.5341 96.9995H72.8202V135.381H86.5341V96.9995Z" fill="#E0E0E0"/>
<path d="M66.0497 102.194H63.4213V108.549H66.0497V102.194Z" fill="#F5F5F5"/>
<path d="M66.0497 127.075H63.4213V133.431H66.0497V127.075Z" fill="#F5F5F5"/>
<path d="M72.8202 111.044C72.8202 111.116 69.3424 111.176 65.0555 111.176C60.7687 111.176 57.2869 111.116 57.2869 111.044C57.2869 110.972 60.7646 110.916 65.0555 110.916C69.3464 110.916 72.8202 110.976 72.8202 111.044Z" fill="#F5F5F5"/>
<path d="M66.0497 114.729H63.4213V121.084H66.0497V114.729Z" fill="#F5F5F5"/>
<path d="M72.8202 123.579C72.8202 123.651 69.3424 123.707 65.0555 123.707C60.7687 123.707 57.2869 123.651 57.2869 123.579C57.2869 123.507 60.7646 123.451 65.0555 123.451C69.3464 123.451 72.8202 123.507 72.8202 123.579Z" fill="#F5F5F5"/>
<path d="M78.363 102.194H75.7345V108.549H78.363V102.194Z" fill="#F5F5F5"/>
<path d="M84.0667 102.194H81.4382V108.549H84.0667V102.194Z" fill="#F5F5F5"/>
<path d="M78.363 114.256H75.7345V120.611H78.363V114.256Z" fill="#F5F5F5"/>
<path d="M84.0667 114.256H81.4382V120.611H84.0667V114.256Z" fill="#F5F5F5"/>
<path d="M78.363 126.318H75.7345V132.674H78.363V126.318Z" fill="#F5F5F5"/>
<path d="M84.0667 126.318H81.4382V132.674H84.0667V126.318Z" fill="#F5F5F5"/>
<path d="M88.7359 95.6619H55.0891V97.0475H88.7359V95.6619Z" fill="#E0E0E0"/>
<path d="M86.7393 97.1755C86.7393 97.2476 80.2024 97.3077 72.1399 97.3077C64.0774 97.3077 57.5404 97.2476 57.5404 97.1755C57.5404 97.1034 64.0774 97.0474 72.1399 97.0474C80.2024 97.0474 86.7393 97.1034 86.7393 97.1755Z" fill="#EBEBEB"/>
<path d="M148.865 49.4067L174.787 49.5149C174.787 49.5149 172.332 43.9082 167.087 43.9082C163.086 43.9082 162.909 46.3831 160.509 47.092C158.11 47.8008 153.043 43.4837 148.865 49.4067Z" fill="#EBEBEB"/>
<path d="M36.9958 21.9581L82.5653 22.1463C82.5653 22.1463 78.2463 12.3226 69.0285 12.3186C61.9965 12.3186 61.6825 16.6718 57.4641 17.9253C53.2456 19.1788 44.3419 11.5417 36.9958 21.9581Z" fill="#F5F5F5"/>
<path d="M128.404 7.26064L162.739 7.40481C162.739 7.40481 159.467 0 152.519 0C147.222 0 146.985 3.2799 143.805 4.21702C140.625 5.15413 133.919 -0.584696 128.404 7.26064Z" fill="#FAFAFA"/>
<path d="M189 135.233C189 135.293 146.687 135.337 94.504 135.337C42.3211 135.337 0 135.293 0 135.233C0 135.173 42.305 135.129 94.504 135.129C146.703 135.129 189 135.177 189 135.233Z" fill="#2B3A8C"/>
<path d="M169.647 77.0996H147.343V135.181H169.647V77.0996Z" fill="#1C75BB"/>
<path d="M169.647 77.0996H158.497V135.181H169.647V77.0996Z" fill="#2B3A8C"/>
<path d="M157.768 70.1995H149.891V77.1037H157.768V70.1995Z" fill="#1C75BB"/>
<path d="M157.764 70.1995H155.889V77.1037H157.764V70.1995Z" fill="#2B3A8C"/>
<path d="M170.303 76.6992H145.487V77.1037H170.303V76.6992Z" fill="#1C75BB"/>
<path d="M153.634 80.1113H151.747V84.072H153.634V80.1113Z" fill="#2B3A8C"/>
<path d="M158.497 85.6258C158.497 85.6698 156.001 85.7019 152.922 85.7019C149.843 85.7019 147.343 85.6698 147.343 85.6258C147.343 85.5817 149.843 85.5537 152.922 85.5537C156.001 85.5537 158.497 85.5857 158.497 85.6258Z" fill="#2B3A8C"/>
<path d="M164.885 80.1113H162.997V84.072H164.885V80.1113Z" fill="#1C75BB"/>
<path d="M169.743 85.6258C169.743 85.6698 167.248 85.7019 164.168 85.7019C161.089 85.7019 158.594 85.6698 158.594 85.6258C158.594 85.5817 161.089 85.5537 164.168 85.5537C167.248 85.5537 169.743 85.5857 169.743 85.6258Z" fill="#1C75BB"/>
<path d="M164.885 87.9768H162.997V91.9375H164.885V87.9768Z" fill="#1C75BB"/>
<path d="M169.743 93.4911C169.743 93.5312 167.248 93.5672 164.168 93.5672C161.089 93.5672 158.594 93.5312 158.594 93.4911C158.594 93.4511 161.089 93.415 164.168 93.415C167.248 93.415 169.743 93.4471 169.743 93.4911Z" fill="#1C75BB"/>
<path d="M164.885 96.0784H162.997V100.039H164.885V96.0784Z" fill="#1C75BB"/>
<path d="M169.743 101.593C169.743 101.633 167.248 101.665 164.168 101.665C161.089 101.665 158.594 101.633 158.594 101.593C158.594 101.553 161.089 101.517 164.168 101.517C167.248 101.517 169.743 101.549 169.743 101.593Z" fill="#1C75BB"/>
<path d="M164.885 104.176H162.997V108.137H164.885V104.176Z" fill="#1C75BB"/>
<path d="M169.743 109.691C169.743 109.735 167.248 109.767 164.168 109.767C161.089 109.767 158.594 109.731 158.594 109.691C158.594 109.651 161.089 109.615 164.168 109.615C167.248 109.615 169.743 109.651 169.743 109.691Z" fill="#1C75BB"/>
<path d="M164.885 112.045H162.997V116.006H164.885V112.045Z" fill="#1C75BB"/>
<path d="M169.743 117.56C169.743 117.604 167.248 117.636 164.168 117.636C161.089 117.636 158.594 117.604 158.594 117.56C158.594 117.516 161.089 117.484 164.168 117.484C167.248 117.484 169.743 117.52 169.743 117.56Z" fill="#1C75BB"/>
<path d="M164.885 119.947H162.997V123.907H164.885V119.947Z" fill="#1C75BB"/>
<path d="M164.885 127.948H162.997V131.909H164.885V127.948Z" fill="#1C75BB"/>
<path d="M169.743 125.461C169.743 125.501 167.248 125.537 164.168 125.537C161.089 125.537 158.594 125.501 158.594 125.461C158.594 125.421 161.089 125.385 164.168 125.385C167.248 125.385 169.743 125.417 169.743 125.461Z" fill="#1C75BB"/>
<path d="M153.634 88.0969H151.747V92.0576H153.634V88.0969Z" fill="#2B3A8C"/>
<path d="M158.497 93.6115C158.497 93.6515 156.001 93.6876 152.922 93.6876C149.843 93.6876 147.343 93.6515 147.343 93.6115C147.343 93.5714 149.843 93.5354 152.922 93.5354C156.001 93.5354 158.497 93.5674 158.497 93.6115Z" fill="#2B3A8C"/>
<path d="M153.634 96.0784H151.747V100.039H153.634V96.0784Z" fill="#2B3A8C"/>
<path d="M158.497 101.593C158.497 101.637 156.001 101.669 152.922 101.669C149.843 101.669 147.343 101.637 147.343 101.593C147.343 101.549 149.843 101.517 152.922 101.517C156.001 101.517 158.497 101.553 158.497 101.593Z" fill="#2B3A8C"/>
<path d="M153.634 104.064H151.747V108.024H153.634V104.064Z" fill="#2B3A8C"/>
<path d="M158.497 109.578C158.497 109.618 156.001 109.654 152.922 109.654C149.843 109.654 147.343 109.618 147.343 109.578C147.343 109.538 149.843 109.502 152.922 109.502C156.001 109.502 158.497 109.534 158.497 109.578Z" fill="#2B3A8C"/>
<path d="M153.634 112.045H151.747V116.006H153.634V112.045Z" fill="#2B3A8C"/>
<path d="M158.497 117.56C158.497 117.604 156.001 117.636 152.922 117.636C149.843 117.636 147.343 117.604 147.343 117.56C147.343 117.516 149.843 117.484 152.922 117.484C156.001 117.484 158.497 117.52 158.497 117.56Z" fill="#2B3A8C"/>
<path d="M153.634 120.027H151.747V123.988H153.634V120.027Z" fill="#2B3A8C"/>
<path d="M158.497 125.545C158.497 125.585 156.001 125.617 152.922 125.617C149.843 125.617 147.343 125.585 147.343 125.545C147.343 125.505 149.843 125.469 152.922 125.469C156.001 125.469 158.497 125.501 158.497 125.545Z" fill="#2B3A8C"/>
<path d="M153.634 128.012H151.747V131.973H153.634V128.012Z" fill="#2B3A8C"/>
<path d="M113.801 56.343H83.9619V135.205H113.801V56.343Z" fill="#1C75BB"/>
<path d="M113.801 56.343H102.349V135.205H113.801V56.343Z" fill="#2B3A8C"/>
<path d="M109.208 62.5706H106.942V67.3282H109.208V62.5706Z" fill="#1C75BB"/>
<path d="M109.208 70.9163H106.942V75.6739H109.208V70.9163Z" fill="#1C75BB"/>
<path d="M109.208 80.2634H106.942V85.0211H109.208V80.2634Z" fill="#1C75BB"/>
<path d="M109.208 89.1941H106.942V93.9518H109.208V89.1941Z" fill="#1C75BB"/>
<path d="M109.208 98.1287H106.942V102.886H109.208V98.1287Z" fill="#1C75BB"/>
<path d="M109.208 107.059H106.942V111.817H109.208V107.059Z" fill="#1C75BB"/>
<path d="M109.208 115.994H106.942V120.752H109.208V115.994Z" fill="#1C75BB"/>
<path d="M109.208 125.814H106.942V130.571H109.208V125.814Z" fill="#1C75BB"/>
<path d="M115.286 55.8506H81.3618V56.7717H115.286V55.8506Z" fill="#2B3A8C"/>
<path d="M108.077 50.2998H95.9974V56.311H108.077V50.2998Z" fill="#2B3A8C"/>
<path d="M102.349 50.2998H95.9974V55.8504H102.349V50.2998Z" fill="#1C75BB"/>
<path d="M90.4748 62.3743H88.2086V67.1319H90.4748V62.3743Z" fill="#2B3A8C"/>
<path d="M96.5086 62.3743H94.2424V67.1319H96.5086V62.3743Z" fill="#2B3A8C"/>
<path d="M90.4748 71.437H88.2086V76.1947H90.4748V71.437Z" fill="#2B3A8C"/>
<path d="M96.5086 71.437H94.2424V76.1947H96.5086V71.437Z" fill="#2B3A8C"/>
<path d="M90.4748 80.4998H88.2086V85.2574H90.4748V80.4998Z" fill="#2B3A8C"/>
<path d="M96.5086 80.4998H94.2424V85.2574H96.5086V80.4998Z" fill="#2B3A8C"/>
<path d="M90.4748 89.5625H88.2086V94.3202H90.4748V89.5625Z" fill="#2B3A8C"/>
<path d="M96.5086 89.5625H94.2424V94.3202H96.5086V89.5625Z" fill="#2B3A8C"/>
<path d="M90.4748 98.6252H88.2086V103.383H90.4748V98.6252Z" fill="#2B3A8C"/>
<path d="M96.5086 98.6252H94.2424V103.383H96.5086V98.6252Z" fill="#2B3A8C"/>
<path d="M90.4748 107.688H88.2086V112.446H90.4748V107.688Z" fill="#2B3A8C"/>
<path d="M96.5086 107.688H94.2424V112.446H96.5086V107.688Z" fill="#2B3A8C"/>
<path d="M90.4748 116.751H88.2086V121.509H90.4748V116.751Z" fill="#2B3A8C"/>
<path d="M96.5086 116.751H94.2424V121.509H96.5086V116.751Z" fill="#2B3A8C"/>
<path d="M90.4748 125.814H88.2086V130.571H90.4748V125.814Z" fill="#2B3A8C"/>
<path d="M96.5086 125.814H94.2424V130.571H96.5086V125.814Z" fill="#2B3A8C"/>
<path d="M102.349 68.9981C102.349 69.0782 98.2353 69.1422 93.1555 69.1422C88.0757 69.1422 83.9619 69.0782 83.9619 68.9981C83.9619 68.918 88.0757 68.8579 93.1555 68.8579C98.2353 68.8579 102.349 68.922 102.349 68.9981Z" fill="#2B3A8C"/>
<path d="M102.349 78.093C102.349 78.1731 98.2353 78.2372 93.1555 78.2372C88.0757 78.2372 83.9619 78.1731 83.9619 78.093C83.9619 78.013 88.0757 77.9529 93.1555 77.9529C98.2353 77.9529 102.349 78.017 102.349 78.093Z" fill="#2B3A8C"/>
<path d="M102.349 87.3038C102.349 87.3799 98.2353 87.444 93.1555 87.444C88.0757 87.444 83.9619 87.3799 83.9619 87.3038C83.9619 87.2278 88.0757 87.1597 93.1555 87.1597C98.2353 87.1597 102.349 87.2197 102.349 87.3038Z" fill="#2B3A8C"/>
<path d="M102.349 96.4346C102.349 96.5147 98.2353 96.5788 93.1555 96.5788C88.0757 96.5788 83.9619 96.5147 83.9619 96.4346C83.9619 96.3545 88.0757 96.2944 93.1555 96.2944C98.2353 96.2944 102.349 96.3585 102.349 96.4346Z" fill="#2B3A8C"/>
<path d="M102.349 105.441C102.349 105.522 98.2353 105.586 93.1555 105.586C88.0757 105.586 83.9619 105.522 83.9619 105.441C83.9619 105.361 88.0757 105.301 93.1555 105.301C98.2353 105.301 102.349 105.365 102.349 105.441Z" fill="#2B3A8C"/>
<path d="M102.349 114.204C102.349 114.284 98.2353 114.348 93.1555 114.348C88.0757 114.348 83.9619 114.284 83.9619 114.204C83.9619 114.124 88.0757 114.064 93.1555 114.064C98.2353 114.064 102.349 114.136 102.349 114.204Z" fill="#2B3A8C"/>
<path d="M102.349 123.919C102.349 123.995 98.2353 124.059 93.1555 124.059C88.0757 124.059 83.9619 123.995 83.9619 123.919C83.9619 123.843 88.0757 123.775 93.1555 123.775C98.2353 123.775 102.349 123.839 102.349 123.919Z" fill="#2B3A8C"/>
<path d="M113.668 68.9981C113.668 69.0782 111.217 69.1422 108.194 69.1422C105.171 69.1422 102.72 69.0782 102.72 68.9981C102.72 68.918 105.171 68.8579 108.194 68.8579C111.217 68.8579 113.668 68.922 113.668 68.9981Z" fill="#1C75BB"/>
<path d="M113.668 78.093C113.668 78.1731 111.217 78.2372 108.194 78.2372C105.171 78.2372 102.72 78.1731 102.72 78.093C102.72 78.013 105.171 77.9529 108.194 77.9529C111.217 77.9529 113.668 78.017 113.668 78.093Z" fill="#1C75BB"/>
<path d="M113.668 87.1878C113.668 87.2679 111.217 87.3319 108.194 87.3319C105.171 87.3319 102.72 87.2679 102.72 87.1878C102.72 87.1077 105.171 87.0476 108.194 87.0476C111.217 87.0476 113.668 87.1117 113.668 87.1878Z" fill="#1C75BB"/>
<path d="M113.551 96.4346C113.551 96.5147 111.1 96.5788 108.077 96.5788C105.054 96.5788 102.603 96.5147 102.603 96.4346C102.603 96.3545 105.05 96.2944 108.077 96.2944C111.104 96.2944 113.551 96.3585 113.551 96.4346Z" fill="#1C75BB"/>
<path d="M113.551 105.441C113.551 105.522 111.1 105.586 108.077 105.586C105.054 105.586 102.603 105.522 102.603 105.441C102.603 105.361 105.05 105.301 108.077 105.301C111.104 105.301 113.551 105.365 113.551 105.441Z" fill="#1C75BB"/>
<path d="M113.551 114.452C113.551 114.528 111.1 114.592 108.077 114.592C105.054 114.592 102.603 114.528 102.603 114.452C102.603 114.376 105.05 114.308 108.077 114.308C111.104 114.308 113.551 114.372 113.551 114.452Z" fill="#1C75BB"/>
<path d="M113.551 123.919C113.551 123.995 111.1 124.059 108.077 124.059C105.054 124.059 102.603 123.995 102.603 123.919C102.603 123.843 105.05 123.775 108.077 123.775C111.104 123.775 113.551 123.839 113.551 123.919Z" fill="#1C75BB"/>
<path d="M119.303 107.764H107.272V135.233H119.303V107.764Z" fill="#8CBF43"/>
<path opacity="0.2" d="M119.303 107.764H107.272V135.233H119.303V107.764Z" fill="black"/>
<path d="M104.458 107.652H134.144L139.691 99.8148L145.508 107.872L152.338 107.764L144.976 97.8965L111.873 98.0326L104.458 107.652Z" fill="#8CBF43"/>
<path opacity="0.2" d="M104.458 107.652H134.144L139.691 99.8148L145.508 107.872L152.338 107.764L144.976 97.8965L111.873 98.0326L104.458 107.652Z" fill="white"/>
<path d="M119.303 107.764V135.233H148.949V107.764H145.552L139.691 99.8147L134.128 107.644L119.303 107.764Z" fill="#8CBF43"/>
<g opacity="0.2">
<path opacity="0.2" d="M123.494 135.233V123.323H130.425V135.233" fill="black"/>
</g>
<path opacity="0.7" d="M145.507 122.99H134.583V129.722H145.507V122.99Z" fill="white"/>
<path opacity="0.7" d="M145.507 109.514H134.583V116.246H145.507V109.514Z" fill="white"/>
<path opacity="0.7" d="M129.701 109.578H122.813V116.066H129.701V109.578Z" fill="white"/>
<path d="M137.739 122.99V129.783" stroke="#8CBF43" stroke-width="0.25" stroke-miterlimit="10"/>
<path d="M142.279 122.99V129.783" stroke="#8CBF43" stroke-width="0.25" stroke-miterlimit="10"/>
<path d="M137.739 126.591H142.279" stroke="#8CBF43" stroke-width="0.25" stroke-miterlimit="10"/>
<path d="M137.739 109.514V116.31" stroke="#8CBF43" stroke-width="0.25" stroke-miterlimit="10"/>
<path d="M142.279 109.514V116.31" stroke="#8CBF43" stroke-width="0.25" stroke-miterlimit="10"/>
<path d="M137.739 113.119H142.279" stroke="#8CBF43" stroke-width="0.25" stroke-miterlimit="10"/>
<path d="M126.259 109.578V116.066" stroke="#8CBF43" stroke-width="0.25" stroke-miterlimit="10"/>
<path d="M122.813 112.982H129.705" stroke="#8CBF43" stroke-width="0.25" stroke-miterlimit="10"/>
<path opacity="0.7" d="M141.136 105.061C141.136 105.348 141.05 105.63 140.89 105.869C140.729 106.108 140.501 106.294 140.234 106.404C139.967 106.514 139.673 106.543 139.39 106.487C139.107 106.431 138.846 106.292 138.642 106.089C138.437 105.886 138.298 105.627 138.242 105.345C138.186 105.063 138.215 104.77 138.325 104.505C138.436 104.239 138.623 104.012 138.863 103.852C139.104 103.692 139.386 103.607 139.675 103.607C140.063 103.607 140.434 103.76 140.708 104.033C140.982 104.306 141.136 104.675 141.136 105.061Z" fill="white"/>
<path d="M129.258 103.279L131.101 101.016V95.5737H127.241V103.319L129.258 103.279Z" fill="#8CBF43"/>
<path opacity="0.2" d="M129.258 103.279V95.5737H131.101V101.016L129.258 103.279Z" fill="black"/>
<path d="M131.363 94.7727H126.81V95.5737H131.363V94.7727Z" fill="#8CBF43"/>
<path d="M119.65 119.782H96.9192V135.237H119.65V119.782Z" fill="#8CBF43"/>
<path opacity="0.2" d="M110.935 119.782H96.9192V135.237H110.935V119.782Z" fill="black"/>
<path d="M107.98 135.209C107.968 135.142 107.961 135.073 107.96 135.005C107.96 134.852 107.96 134.66 107.96 134.424C107.96 133.891 107.94 133.158 107.928 132.253C107.928 130.371 107.904 127.772 107.888 124.764L107.996 124.873H103.846H99.6965L99.8092 124.764C99.8092 127.772 99.777 130.371 99.7649 132.253C99.7649 133.162 99.7408 133.891 99.7327 134.428C99.7327 134.66 99.7327 134.852 99.7327 135.005C99.7344 135.073 99.7277 135.142 99.7126 135.209C99.7042 135.141 99.7042 135.072 99.7126 135.005C99.7126 134.852 99.7126 134.66 99.7126 134.428C99.7126 133.891 99.6925 133.162 99.6804 132.253C99.6804 130.371 99.6562 127.772 99.6361 124.764V124.652H108.162V124.764C108.162 127.772 108.129 130.371 108.121 132.253C108.121 133.158 108.097 133.891 108.089 134.424C108.089 134.66 108.089 134.852 108.069 135.005C108.049 135.076 108.019 135.145 107.98 135.209Z" fill="#2B3A8C"/>
<path opacity="0.2" d="M118.591 124.368H112.686V125.866H118.591V124.368Z" fill="black"/>
<path d="M104.458 107.652V108.449H134.128V107.644L104.458 107.652Z" fill="#8CBF43"/>
<path d="M134.128 108.449L139.675 100.7L139.691 99.8147L134.144 107.652L134.128 108.449Z" fill="#8CBF43"/>
<path d="M152.197 107.764H145.552V108.277H152.197V107.764Z" fill="#8CBF43"/>
<path d="M128.062 121.5H125.611V122.43H128.062V121.5Z" fill="#2B3A8C"/>
<path opacity="0.3" d="M104.458 107.652V108.449H134.128V107.644L104.458 107.652Z" fill="black"/>
<path opacity="0.3" d="M134.128 108.449L139.675 100.7L139.691 99.8147L134.144 107.652L134.128 108.449Z" fill="black"/>
<path opacity="0.3" d="M152.197 107.764H145.552V108.277H152.197V107.764Z" fill="black"/>
<path d="M129.87 129.354C129.845 129.354 129.849 129.202 129.684 129.086C129.638 129.055 129.585 129.035 129.53 129.029C129.474 129.023 129.418 129.03 129.366 129.05C129.305 129.074 129.253 129.116 129.217 129.17C129.18 129.225 129.16 129.289 129.16 129.354C129.16 129.419 129.18 129.483 129.217 129.537C129.253 129.592 129.305 129.634 129.366 129.658C129.418 129.678 129.474 129.685 129.53 129.679C129.585 129.673 129.638 129.653 129.684 129.622C129.849 129.506 129.845 129.346 129.87 129.354C129.894 129.362 129.938 129.522 129.745 129.702C129.687 129.75 129.617 129.781 129.543 129.795C129.469 129.808 129.393 129.802 129.322 129.778C129.233 129.748 129.156 129.691 129.101 129.615C129.046 129.539 129.017 129.448 129.017 129.354C129.017 129.26 129.046 129.169 129.101 129.093C129.156 129.017 129.233 128.96 129.322 128.929C129.393 128.905 129.469 128.9 129.543 128.913C129.617 128.926 129.687 128.958 129.745 129.005C129.938 129.162 129.882 129.354 129.87 129.354Z" fill="#2B3A8C"/>
<path d="M73.436 89.7068C73.436 89.7068 67.1969 113.335 58.8003 117.772C53.2697 120.696 48.3911 117.208 45.1146 111.677L33.2804 92.7304C32.9788 91.6504 33.1023 90.4966 33.6258 89.5041C34.1493 88.5115 35.0334 87.7548 36.0981 87.3881L45.9518 83.968L55.7854 101.401L68.3602 86.1827" fill="#EB996E"/>
<path d="M12.0072 91.3606C12.2286 92.8984 16.121 104.204 16.121 104.204C16.121 104.204 33.7796 99.234 33.5945 98.3569C33.4455 97.6521 30.6802 86.3907 26.9971 80.0431C26.305 78.8193 25.3349 77.7735 24.1643 76.9892C22.9936 76.2048 21.6549 75.7037 20.2549 75.5257C19.474 75.4376 17.7391 76.1585 17.2642 76.3948C13.5006 78.265 10.3247 79.4824 12.0072 91.3606Z" fill="#1C75BB"/>
<path d="M39.7047 74.7771C46.4872 76.6553 46.7891 79.7189 50.1703 85.1334L55.548 94.8249L46.6362 100.476L45.0261 104.12L44.1405 135.457L8.23157 135.281L14.6719 109.915L12.0756 93.239C11.8422 90.6119 11.0774 85.702 11.8945 83.167C14.4425 75.2456 23.942 74.3966 29.7866 73.1992C30.9942 72.9509 32.1574 73.3313 33.1396 73.6237" fill="#8CBF43"/>
<path d="M44.9053 105.726C44.875 105.46 44.8669 105.192 44.8811 104.925C44.8811 104.364 44.8811 103.619 44.9053 102.722V102.702V102.682C45.3527 101.888 45.744 101.064 46.0766 100.215C46.4876 99.2074 46.5911 98.1015 46.3745 97.0354C46.0806 95.834 45.4125 94.8248 44.9697 93.8316C44.5608 92.9429 44.2894 91.9978 44.1646 91.0283C44.0763 90.382 44.0587 89.7281 44.1123 89.078C44.1248 88.9008 44.1463 88.7244 44.1767 88.5494C44.1807 88.4872 44.1957 88.4261 44.221 88.3691C44.221 88.3691 44.221 88.6254 44.2009 89.082C44.1864 89.7251 44.2282 90.3683 44.3256 91.0043C44.472 91.9468 44.7526 92.8637 45.1589 93.7275C45.6057 94.7047 46.2859 95.7299 46.5959 96.9714C46.825 98.0812 46.7128 99.2339 46.2739 100.279C45.9368 101.134 45.533 101.962 45.0663 102.754V102.714C45.026 103.611 44.9898 104.352 44.9657 104.917C44.9652 105.188 44.945 105.458 44.9053 105.726Z" fill="#2B3A8C"/>
<path d="M39.9865 73.6597C40.0143 73.7374 40.0333 73.818 40.0429 73.9C40.0886 74.1337 40.1155 74.3708 40.1234 74.6088C40.1576 75.4904 40.0096 76.3695 39.6886 77.1919C39.2162 78.4215 38.4006 79.4913 37.3379 80.2756C36.0066 81.219 34.3748 81.6463 32.7492 81.477C31.9137 81.392 31.0979 81.1715 30.334 80.8242C29.6292 80.4939 28.9823 80.0531 28.418 79.5187C27.4696 78.6086 26.7474 77.491 26.3088 76.2548C26.017 75.4282 25.8501 74.5631 25.8137 73.6877C25.8005 73.4503 25.8005 73.2123 25.8137 72.9749C25.8136 72.8913 25.823 72.808 25.8419 72.7266C25.8661 72.7266 25.8419 73.071 25.8942 73.6837C25.9676 74.5455 26.1599 75.3931 26.4658 76.2027C26.9144 77.402 27.6316 78.4839 28.5629 79.3665C29.1132 79.8821 29.744 80.3055 30.4306 80.62C31.1694 80.9543 31.9579 81.1666 32.7653 81.2487C34.3291 81.4144 35.9006 81.0149 37.193 80.1234C38.2305 79.3677 39.035 78.3384 39.5156 77.1518C39.8427 76.3503 40.0121 75.4939 40.0147 74.6288C40.0348 73.9961 39.9543 73.6637 39.9865 73.6597Z" fill="#2B3A8C"/>
<path d="M53.9098 91.8813C53.5763 92.1299 53.2222 92.3496 52.8511 92.5381C52.183 92.9386 51.2411 93.4512 50.2549 94.0559C49.2687 94.6607 48.351 95.2253 47.6989 95.6338C47.358 95.8758 46.9955 96.0863 46.6161 96.2626C46.9206 95.9764 47.2522 95.7203 47.6063 95.4976C48.2382 95.0531 49.1238 94.4644 50.1341 93.8557C51.1445 93.247 52.0823 92.7424 52.7706 92.394C53.1321 92.1854 53.5137 92.0137 53.9098 91.8813Z" fill="#2B3A8C"/>
<path d="M13.1101 92.2979C13.1382 92.3668 13.1611 92.4378 13.1785 92.5101C13.2188 92.6623 13.2792 92.8705 13.3516 93.1349C13.5006 93.6995 13.7099 94.5045 13.9796 95.5377C14.5189 97.6202 15.2837 100.588 16.2095 104.192L16.1008 104.124L32.7129 98.9658L33.1154 98.8176L33.043 98.9498C32.2466 95.2459 31.1578 91.6103 29.7866 88.0768C28.5025 84.841 27.0253 82.0336 25.3588 80.0112C24.6189 79.09 23.7307 78.297 22.7304 77.6644C21.9803 77.1791 21.1248 76.8785 20.2347 76.7874C20.0641 76.7629 19.8919 76.7495 19.7195 76.7474L19.2647 76.7714C19.1238 76.7714 18.9909 76.7714 18.8621 76.7994L18.5441 76.8675L18.1094 76.9556L17.9605 76.9756C18.0078 76.9577 18.0562 76.943 18.1054 76.9316L18.5361 76.8194L18.8541 76.7434C18.9708 76.7193 19.1037 76.7193 19.2566 76.7033L19.7195 76.6673C19.8958 76.6667 20.0719 76.6774 20.2468 76.6993C21.1534 76.7785 22.0281 77.0708 22.7988 77.5523C23.8191 78.1833 24.7264 78.9792 25.4836 79.9071C27.2024 81.9375 28.7038 84.7529 30.0039 87.9967C31.3993 91.5326 32.5032 95.1756 33.3046 98.8897L33.3288 98.9898L33.2322 99.0219L32.8296 99.17C26.6067 101.132 20.8345 102.866 16.1974 104.292L16.1008 104.32L16.0767 104.224C15.1831 100.62 14.4425 97.6402 13.9272 95.5497C13.6777 94.5245 13.4804 93.7155 13.3436 93.1469C13.2832 92.8826 13.2349 92.6703 13.1987 92.5181C13.1625 92.4475 13.1328 92.3738 13.1101 92.2979Z" fill="#2B3A8C"/>
<path d="M32.5318 96.6991C32.5318 96.7592 28.7159 97.8645 23.9742 99.166C19.2325 100.468 15.3683 101.469 15.3522 101.409C15.3361 101.349 19.1681 100.243 23.9139 98.9418C28.6596 97.6402 32.5157 96.639 32.5318 96.6991Z" fill="#2B3A8C"/>
<path d="M31.0707 45.4341C29.9718 43.0632 26.9489 41.9459 24.4009 42.5747C21.853 43.2034 19.8364 45.2538 18.7536 47.6567C17.6708 50.0596 17.4091 52.7027 17.4011 55.3138C17.4647 56.6953 17.3905 58.0797 17.1797 59.4467C16.8979 60.8003 16.2257 62.1379 15.0624 62.8908C14.1407 63.4835 13.0176 63.6557 12.0315 64.1323C11.0453 64.6089 10.1356 65.6101 10.3811 66.6713C10.675 67.9408 12.273 68.3253 13.5771 68.4574C13.599 69.241 13.843 70.0024 14.2811 70.6538C14.7192 71.3052 15.3335 71.8202 16.0531 72.1392C16.7727 72.4583 17.5683 72.5684 18.3481 72.4569C19.1279 72.3454 19.8601 72.0168 20.4603 71.5091C20.0577 73.111 21.4786 74.761 23.1129 74.9532C24.7471 75.1454 26.3331 74.1282 27.2387 72.7506C28.1444 71.3729 28.4101 69.6909 28.4745 68.053C28.5389 66.415 28.4141 64.7731 28.5791 63.1431" fill="black"/>
<path d="M49.6188 48.4177C49.6188 48.4177 50.8023 40.3681 39.6927 40.2199C27.2346 40.0557 24.9885 50.6323 27.1259 56.2029L33.3127 50.0957L49.6188 48.4177Z" fill="black"/>
<path d="M39.8496 74.7769C39.9703 72.6344 40.0669 70.8883 40.0669 70.8883C40.0669 70.8883 46.4389 71.0365 47.3767 65.5379C48.3146 60.0394 49.3893 47.2322 49.3893 47.2322C46.6043 45.4403 43.3467 44.5125 40.0305 44.5667C36.7143 44.6209 33.4891 45.6546 30.7647 47.5365L30.2454 47.8969L26.2202 73.3232C25.9377 75.1034 26.3742 76.9226 27.4344 78.384C28.4945 79.8454 30.0924 80.8305 31.8796 81.1245C32.8296 81.2799 33.8017 81.2349 34.733 80.9923C35.6643 80.7498 36.5339 80.3151 37.2854 79.7166C38.037 79.118 38.6536 78.369 39.0953 77.518C39.5371 76.667 39.7941 75.7331 39.8496 74.7769Z" fill="#FFBE9D"/>
<path d="M47.1152 56.9757C47.0932 57.1093 47.0325 57.2334 46.9404 57.333C46.8484 57.4326 46.7291 57.5031 46.5972 57.536C46.4653 57.5689 46.3266 57.5626 46.1982 57.518C46.0699 57.4734 45.9575 57.3924 45.8748 57.2849C45.7922 57.1775 45.743 57.0483 45.7333 56.9134C45.7236 56.7785 45.7539 56.6437 45.8203 56.5256C45.8867 56.4076 45.9863 56.3114 46.107 56.2491C46.2277 56.1868 46.3641 56.1609 46.4993 56.1748C46.5933 56.1856 46.6841 56.2151 46.7664 56.2615C46.8486 56.308 46.9207 56.3704 46.9781 56.4452C47.0356 56.5199 47.0774 56.6054 47.1009 56.6966C47.1245 56.7878 47.1293 56.8827 47.1152 56.9757Z" fill="#2B3A8C"/>
<path d="M47.6303 56.315C47.5297 56.3991 47.0668 55.9145 46.3262 55.7743C45.5855 55.6342 44.9817 55.9586 44.9133 55.8464C44.8811 55.7984 44.9938 55.6382 45.2555 55.494C45.6085 55.3124 46.0115 55.2504 46.4031 55.3177C46.7948 55.3849 47.1536 55.5776 47.4251 55.8665C47.6263 56.0907 47.6786 56.2789 47.6303 56.315Z" fill="#2B3A8C"/>
<path d="M39.6443 56.2629C39.6231 56.3975 39.5627 56.523 39.4706 56.6238C39.3784 56.7247 39.2586 56.7964 39.1259 56.8302C38.9932 56.8639 38.8535 56.8583 38.724 56.8138C38.5945 56.7694 38.481 56.6882 38.3974 56.5802C38.3138 56.4722 38.2639 56.3423 38.2539 56.2064C38.2438 56.0705 38.274 55.9346 38.3407 55.8156C38.4074 55.6966 38.5077 55.5997 38.6293 55.5368C38.7508 55.474 38.8882 55.4479 39.0244 55.462C39.1185 55.4728 39.2095 55.5022 39.2919 55.5486C39.3744 55.5951 39.4466 55.6574 39.5044 55.7321C39.5622 55.8068 39.6044 55.8922 39.6284 55.9834C39.6524 56.0746 39.6578 56.1696 39.6443 56.2629Z" fill="#2B3A8C"/>
<path d="M40.0146 55.6382C39.914 55.7183 39.4511 55.2177 38.7064 55.0976C37.9618 54.9775 37.362 55.2818 37.2976 55.1697C37.2654 55.1216 37.3741 54.9614 37.6398 54.8173C37.9923 54.6347 38.395 54.5714 38.7869 54.637C39.1798 54.7038 39.5393 54.8981 39.8093 55.1897C40.0106 55.414 40.0629 55.6022 40.0146 55.6382Z" fill="#2B3A8C"/>
<path d="M40.9727 61.365C41.388 61.3397 41.8049 61.3693 42.2124 61.4532C42.4016 61.4812 42.5868 61.4892 42.6512 61.361C42.7171 61.1603 42.7241 60.9449 42.6713 60.7403C42.6149 60.2117 42.5546 59.659 42.4902 59.0783C42.2486 56.7155 42.1279 54.7972 42.2164 54.7852C42.305 54.7732 42.5747 56.6795 42.8122 59.0383C42.8685 59.619 42.9209 60.1756 42.9692 60.7043C43.0263 60.9742 42.9938 61.2553 42.8766 61.5052C42.8343 61.5673 42.7782 61.6188 42.7125 61.6556C42.6468 61.6925 42.5735 61.7136 42.4982 61.7175C42.3884 61.7194 42.2788 61.7073 42.1722 61.6814C41.7597 61.6311 41.3561 61.5246 40.9727 61.365Z" fill="#2B3A8C"/>
<path d="M40.0832 70.8844C37.5095 70.4905 35.1075 69.3575 33.1719 67.6245C33.1719 67.6245 34.5243 72.0017 39.9866 72.3621L40.0832 70.8844Z" fill="#EB996E"/>
<path d="M40.2522 63.5477C40.2369 63.3082 40.1624 63.0761 40.0353 62.8721C39.9082 62.6681 39.7324 62.4985 39.5236 62.3783C39.3803 62.293 39.2201 62.2396 39.054 62.2216C38.888 62.2036 38.72 62.2216 38.5616 62.2742C38.4033 62.3305 38.2661 62.4335 38.1682 62.5695C38.0704 62.7054 38.0167 62.8679 38.0142 63.0351C38.0359 63.2203 38.112 63.3951 38.233 63.5375C38.354 63.68 38.5145 63.7838 38.6944 63.836C39.0577 63.9336 39.4373 63.9555 39.8094 63.9001C39.9134 63.896 40.0157 63.8729 40.1113 63.832C40.1584 63.809 40.1979 63.773 40.225 63.7282C40.2522 63.6835 40.2658 63.632 40.2643 63.5797" fill="#EB996E"/>
<path d="M38.642 61.5532C38.5857 61.5532 38.4649 61.7374 38.4448 62.1019C38.4254 62.5871 38.5874 63.0622 38.8997 63.4355C39.2051 63.8051 39.6335 64.0537 40.1072 64.1363C40.4695 64.1843 40.6909 64.1083 40.6869 64.0522C40.6869 63.928 39.8214 63.884 39.2217 63.1551C38.6219 62.4263 38.7427 61.5652 38.642 61.5532Z" fill="#2B3A8C"/>
<path d="M29.4808 55.0536C29.3842 54.9895 26.3089 53.6639 25.4233 57.2682C24.5378 60.8725 28.7643 60.5161 28.7965 60.416C28.8287 60.3159 29.4808 55.0536 29.4808 55.0536Z" fill="#FFBE9D"/>
<path d="M27.9149 58.9061C27.9149 58.9061 27.8344 58.9381 27.7096 58.9621C27.5331 58.9923 27.3517 58.9582 27.1984 58.866C26.82 58.6378 26.6228 57.961 26.7637 57.3042C26.8291 56.9901 26.9669 56.6953 27.1662 56.4431C27.2335 56.3354 27.3254 56.2451 27.4346 56.1797C27.5438 56.1142 27.667 56.0755 27.7941 56.0667C27.8745 56.0613 27.9542 56.0839 28.0196 56.1307C28.085 56.1775 28.132 56.2455 28.1524 56.323C28.1806 56.4351 28.1524 56.5032 28.1524 56.5152C28.1524 56.5272 28.253 56.4712 28.257 56.315C28.2588 56.2256 28.2305 56.1382 28.1765 56.0667C28.0834 55.969 27.9572 55.9091 27.8223 55.8985C27.6592 55.8911 27.4968 55.9237 27.3493 55.9935C27.2019 56.0634 27.074 56.1683 26.977 56.299C26.7366 56.5718 26.5703 56.9013 26.494 57.2561C26.341 57.989 26.5785 58.7579 27.1018 59.0262C27.2009 59.0761 27.3092 59.105 27.42 59.1112C27.5309 59.1174 27.6418 59.1008 27.7458 59.0623C27.8867 58.9942 27.927 58.9181 27.9149 58.9061Z" fill="#EB996E"/>
<path d="M48.1255 44.6812C48.7653 45.1421 49.246 45.7887 49.5019 46.5322C49.7577 47.2757 49.7761 48.0798 49.5545 48.8341C49.0071 50.5642 47.3809 52.4384 42.8767 52.3783L43.8991 51.245C42.8853 52.0145 41.7006 52.5305 40.4446 52.7493C39.1886 52.9681 37.8981 52.8835 36.6819 52.5025L37.9458 50.0596C37.9458 50.0596 32.242 56.0667 29.042 56.3471L29.4445 49.9394C30.2133 43.8922 32.8217 42.0781 36.7624 41.7537C38.2247 41.6213 39.6971 41.6468 41.1539 41.8298C43.6831 42.1772 46.082 43.1584 48.1255 44.6812Z" fill="black"/>
<path d="M25.8379 39.4429C26.1401 39.5126 26.4268 39.6375 26.6832 39.8113C27.3253 40.1861 27.9062 40.656 28.406 41.205C28.9012 41.7552 29.3085 42.3779 29.6135 43.0512C29.7621 43.3218 29.8577 43.6181 29.8953 43.9242C29.8269 43.9562 29.3761 42.6146 28.2248 41.3612C27.5097 40.6285 26.7082 39.9844 25.8379 39.4429Z" fill="black"/>
<path d="M14.366 59.9313C14.366 59.9313 14.2855 59.8512 14.1124 59.743C13.856 59.5877 13.5588 59.5124 13.259 59.5268C13.027 59.5325 12.7989 59.5881 12.5905 59.6897C12.3821 59.7913 12.1982 59.9366 12.0515 60.1155C11.8757 60.3667 11.7657 60.6575 11.7312 60.9617C11.6968 61.2658 11.7391 61.5737 11.8542 61.8576C11.9967 62.2002 12.2271 62.4996 12.5224 62.7259C12.8176 62.9522 13.1674 63.0975 13.5368 63.1471C13.9626 63.2107 14.3972 63.1809 14.8102 63.0598C15.2232 62.9388 15.6046 62.7294 15.9277 62.4463C16.667 61.8275 17.1794 60.9825 17.3849 60.0434C17.4916 59.5525 17.4916 59.0446 17.3849 58.5536C17.263 58.0451 17.0834 57.552 16.8495 57.0839C16.6201 56.5993 16.3786 56.1187 16.1894 55.6221C16.0076 55.1273 15.8872 54.6122 15.8311 54.0883C15.7457 53.0995 15.862 52.1037 16.1733 51.1608C16.7159 49.5738 17.6533 48.1493 18.8984 47.0199C19.719 46.2553 20.6098 45.5688 21.559 44.9695C21.8931 44.7572 22.1548 44.597 22.3359 44.4929C22.4244 44.4339 22.5188 44.3842 22.6177 44.3447C22.5387 44.4163 22.4524 44.4794 22.36 44.5329L21.6073 45.0456C20.6849 45.6692 19.8164 46.3684 19.0111 47.136C17.8055 48.26 16.9007 49.6654 16.3786 51.2249C16.0827 52.1421 15.9746 53.1089 16.0606 54.0683C16.1131 54.5721 16.2294 55.0673 16.4067 55.5421C16.5919 56.0226 16.8093 56.4952 17.0588 56.9878C17.3019 57.4704 17.487 57.9799 17.6103 58.5056C17.725 59.0267 17.725 59.5663 17.6103 60.0875C17.3933 61.0736 16.8505 61.9591 16.0686 62.6025C15.7215 62.9027 15.3122 63.1233 14.8698 63.2485C14.4273 63.3738 13.9626 63.4007 13.5086 63.3273C13.1087 63.2697 12.7312 63.1078 12.4145 62.8581C12.0978 62.6084 11.8531 62.2798 11.7053 61.9056C11.5845 61.597 11.5441 61.263 11.5877 60.9346C11.6314 60.6063 11.7576 60.2942 11.9549 60.0274C12.1149 59.8367 12.3158 59.6841 12.5429 59.5808C12.77 59.4776 13.0174 59.4262 13.2671 59.4307C13.5804 59.4234 13.8879 59.516 14.1446 59.695C14.2328 59.759 14.308 59.8392 14.366 59.9313Z" fill="black"/>
<path d="M28.9453 47.857C28.8187 47.6403 28.743 47.398 28.7239 47.1482C28.5313 45.946 28.8204 44.7166 29.5289 43.7241C29.8027 43.3516 30.0281 43.1714 30.0482 43.1914C29.5888 43.8726 29.2398 44.6213 29.0137 45.4101C28.6917 46.7397 29.0218 47.845 28.9453 47.857Z" fill="#2B3A8C"/>
<path d="M25.6205 59.5549C25.4088 59.7408 25.2446 59.9742 25.1415 60.2357C25.0953 60.3734 25.078 60.519 25.0904 60.6637C25.1029 60.8083 25.1449 60.9488 25.214 61.0767C25.3077 61.2266 25.4349 61.353 25.5857 61.446C25.7365 61.5391 25.9068 61.5963 26.0834 61.6134C26.2596 61.641 26.4398 61.6295 26.611 61.5797C26.7822 61.5298 26.9402 61.4429 27.0736 61.325C27.1798 61.2203 27.2637 61.0955 27.3204 60.9579C27.3771 60.8203 27.4054 60.6728 27.4037 60.5241C27.391 60.239 27.3021 59.9625 27.1461 59.7231C27.1461 59.7231 27.2306 59.7551 27.3312 59.8793C27.4714 60.0592 27.5542 60.2768 27.5687 60.504C27.5799 60.6759 27.5554 60.8482 27.4965 61.0102C27.4376 61.1721 27.3457 61.3202 27.2266 61.4451C27.0721 61.5906 26.8863 61.6991 26.6833 61.7622C26.4803 61.8254 26.2655 61.8416 26.0552 61.8096C25.8426 61.7885 25.6382 61.7172 25.459 61.6015C25.2797 61.4859 25.1308 61.3293 25.0248 61.1448C24.8923 60.8885 24.8569 60.5935 24.9249 60.3134C24.9928 60.0333 25.1597 59.7869 25.3951 59.619C25.5279 59.5629 25.6165 59.5469 25.6205 59.5549Z" fill="#1C75BB"/>
<path d="M50.5407 50.2598C50.4964 50.2598 50.6775 49.6431 50.6775 48.6579C50.6906 47.3516 50.3441 46.0666 49.6758 44.9421C49.0074 43.8176 48.0426 42.8964 46.8858 42.2784C46.0002 41.7978 45.3763 41.6616 45.3924 41.6216C45.5408 41.6241 45.6877 41.6511 45.8271 41.7017C46.2186 41.8092 46.5987 41.954 46.9622 42.1342C48.1752 42.7312 49.1876 43.666 49.8765 44.8249C50.5654 45.9838 50.901 47.3168 50.8426 48.662C50.8294 49.0668 50.7755 49.4693 50.6815 49.8634C50.6566 50.0023 50.609 50.1362 50.5407 50.2598Z" fill="black"/>
<path d="M40.3729 54.2285C40.3447 54.2525 40.1957 54.1124 39.918 53.9442C39.5593 53.7259 39.1566 53.5891 38.7386 53.5437C38.3202 53.5061 37.8986 53.5594 37.5029 53.6999C37.197 53.812 37.0198 53.9161 36.9997 53.8881C36.9796 53.8601 37.1285 53.7079 37.4385 53.5517C37.8483 53.3487 38.3077 53.2657 38.7631 53.3125C39.2185 53.3593 39.6511 53.5339 40.0106 53.816C40.2803 54.0243 40.393 54.2125 40.3729 54.2285Z" fill="black"/>
<path d="M47.4693 54.9054C46.992 54.9814 46.5056 54.9814 46.0283 54.9054C45.5461 54.9092 45.0664 54.8361 44.6074 54.6891C45.0847 54.6131 45.5711 54.6131 46.0484 54.6891C46.5306 54.6853 47.0103 54.7583 47.4693 54.9054Z" fill="black"/>
<path d="M73.4361 89.7068C73.4361 89.7068 75.7224 84.3124 72.6311 84.9011C67.9014 85.7982 68.6058 90.3756 68.6058 90.3756L73.4361 89.7068Z" fill="#EB996E"/>
<path d="M77.8316 65.5179C77.4341 65.3775 77.0174 65.2979 76.5959 65.2816C79.164 67.1799 79.8603 72.0657 78.0651 76.9996C76.3101 81.8053 72.7599 85.0812 69.6121 85.0612L69.3626 84.9971C66.8629 83.0548 66.1988 78.229 67.9779 73.3512C69.757 68.4734 73.4119 65.1415 76.5919 65.2816C76.2701 65.0376 75.9132 64.8431 75.5332 64.7049C72.1158 63.4715 67.7042 66.9796 65.6795 72.5343C63.7152 77.9367 64.7376 83.271 67.9296 84.7007H67.8692L61.5738 100.72C61.4393 101.06 61.4462 101.44 61.593 101.775C61.7398 102.111 62.0145 102.374 62.3567 102.508C62.6988 102.642 63.0804 102.635 63.4175 102.489C63.7545 102.343 64.0194 102.069 64.1539 101.729L70.5017 85.6699C73.9191 86.9033 78.3308 83.3952 80.3554 77.8406C82.3801 72.286 81.2531 66.7514 77.8316 65.5179Z" fill="#2B3A8C"/>
<path d="M74.9897 80.0071C75.0371 79.8381 75.1018 79.6743 75.183 79.5185C75.344 79.1701 75.5372 78.7376 75.7706 78.225C76.4405 76.8141 76.9612 75.3377 77.3244 73.8197C77.6741 72.3056 77.6741 70.7323 77.3244 69.2183C77.1495 68.6003 76.9275 67.9965 76.6602 67.4121C76.7733 67.5453 76.8693 67.6919 76.946 67.8486C77.1723 68.2717 77.3531 68.7174 77.4854 69.1782C77.8887 70.7129 77.9122 72.3221 77.5538 73.8678C77.1888 75.3962 76.6401 76.8752 75.9196 78.273C75.6539 78.8137 75.4245 79.2422 75.2635 79.5385C75.1935 79.7061 75.1015 79.8637 74.9897 80.0071Z" fill="#2B3A8C"/>
<path d="M74.3297 81.2967C74.378 81.3448 74.1808 81.6091 73.895 81.8934C73.6092 82.1778 73.3395 82.374 73.2953 82.3299C73.251 82.2859 73.4442 82.0176 73.73 81.7332C74.0158 81.4489 74.2855 81.2446 74.3297 81.2967Z" fill="#2B3A8C"/>
<path d="M67.4666 87.3039C66.9755 86.3869 66.408 85.1214 65.5506 84.5286C64.6933 83.9359 63.5058 83.2511 62.4955 84.1282C63.764 85.9261 64.9383 87.7882 66.0135 89.7068L67.4666 87.3039Z" fill="#EB996E"/>
<path d="M74.1686 85.7019C74.1686 85.7019 73.9794 84.6366 72.4136 85.1052C70.8478 85.5737 65.925 86.5949 66.8749 87.6362C67.8249 88.6774 69.4994 88.2089 69.4994 88.2089C69.4994 88.2089 66.7703 88.7936 67.0279 89.3662C67.2855 89.9389 67.7484 90.9201 68.9117 90.3034C70.075 89.6866 73.3032 88.6374 73.3032 88.6374L74.1686 85.7019Z" fill="#EB996E"/>
<path d="M73.9915 88.0607C73.9915 88.0607 74.0116 87.9566 73.9915 87.7924C73.9858 87.682 73.9476 87.5758 73.8818 87.4868C73.816 87.3978 73.7254 87.33 73.6212 87.2918C73.2713 87.2558 72.9179 87.3096 72.5948 87.448L71.2866 87.7964C70.3567 88.0366 69.5114 88.2449 68.8956 88.3811C68.5685 88.4801 68.2306 88.5392 67.8893 88.5573C68.196 88.41 68.5189 88.2985 68.8513 88.2249C69.4551 88.0447 70.2964 87.8244 71.2262 87.5721L72.5384 87.2437C72.8988 87.1009 73.293 87.0647 73.6735 87.1396C73.8026 87.1915 73.9115 87.2834 73.984 87.4017C74.0565 87.52 74.0888 87.6584 74.076 87.7964C74.064 87.9846 73.9996 88.0647 73.9915 88.0607Z" fill="#2B3A8C"/>
<path d="M32.0166 99.3983L36.7663 108.161L60.3501 96.3467C60.3501 96.3467 63.8198 89.7148 64.3753 89.7989C64.9308 89.883 67.4989 90.9723 67.4989 90.9723C67.4989 90.9723 71.1216 89.026 71.9025 89.5586C72.6833 90.0912 73.738 96.4949 73.0537 98.4772C72.3694 100.46 65.2085 104.448 65.2085 104.448C65.2085 104.448 45.8875 117.075 37.4909 121.509C31.9562 124.428 27.0777 120.944 23.8052 115.413L18.2343 103.651" fill="#FFBE9D"/>
</g>
<defs>
<clipPath id="clip0">
<rect width="189" height="135.553" fill="white"/>
</clipPath>
</defs>
</svg>
