<svg width="189" height="192" viewBox="0 0 189 192" fill="none" xmlns="http://www.w3.org/2000/svg">
<g clip-path="url(#clip0)">
<path d="M175.542 181.972C175.542 182.032 136.876 182.084 89.2089 182.084C41.5422 182.084 2.85071 182.032 2.85071 181.972C2.85071 181.912 41.508 181.861 89.2089 181.861C136.91 181.861 175.542 181.908 175.542 181.972Z" fill="black"/>
<path d="M91.7561 14.201L112.318 13.3442C113.204 13.3064 114.088 13.446 114.92 13.755C115.751 14.0639 116.512 14.536 117.159 15.1435C117.807 15.751 118.326 16.4819 118.688 17.2932C119.05 18.1045 119.247 18.98 119.267 19.8685L119.994 51.7058C120.031 53.3851 119.435 55.0168 118.327 56.2764C117.218 57.5361 115.677 58.3314 114.01 58.5042C113.45 58.5626 112.934 58.8325 112.565 59.259C112.197 59.6855 112.005 60.2367 112.027 60.8004L114.592 128.056C114.676 130.259 113.888 132.405 112.4 134.027C110.911 135.649 108.843 136.615 106.646 136.714L28.1136 140.18C27.8214 140.192 27.5296 140.146 27.2551 140.044C26.9806 139.943 26.7287 139.789 26.5139 139.59C26.2991 139.391 26.1256 139.151 26.0033 138.885C25.881 138.619 25.8125 138.331 25.8014 138.038L22.3268 21.3035C22.3088 20.7309 22.5129 20.1736 22.8963 19.7486C23.2796 19.3237 23.8123 19.0641 24.3825 19.0245L91.7561 14.201Z" fill="#2B3A8C"/>
<g opacity="0.3">
<path opacity="0.3" d="M25.7374 135.819L25.8015 138.025L110.369 130.228L108.753 13.4812C108.753 13.4812 88.2388 16.5998 87.8499 16.5998C87.461 16.5998 25.7374 135.819 25.7374 135.819Z" fill="black"/>
</g>
<path d="M81.0501 7.93781L105.591 6.43848L108.125 127.444L21.7456 136.225L9.02649 15.8543L81.0501 7.93781Z" fill="#EBEBEB"/>
<path d="M81.0501 7.93811C81.0501 7.93811 80.6227 7.99379 79.7679 8.08804L76.0326 8.51642L61.6979 10.11L9.03506 15.936L9.10772 15.8418C12.5268 48.0946 16.9631 89.9904 21.8567 136.217L21.7371 136.119L41.0978 134.148L108.129 127.337L108.035 127.444C106.933 74.5386 106.044 31.1436 105.54 6.42592L105.595 6.47304L87.3285 7.56541L82.6272 7.83958L81.0416 7.92525C81.0416 7.92525 81.5758 7.88242 82.6272 7.81387L87.3285 7.51401L105.591 6.37451H105.646V6.42592C106.172 31.1307 107.104 74.5386 108.211 127.431V127.529H108.112L41.1192 134.366L21.7584 136.333H21.6473V136.221C16.7708 89.9989 12.3516 48.1032 8.95386 15.846V15.7604H9.03506L61.6894 10.0158L76.0368 8.46073L79.7765 8.06234L81.0501 7.93811Z" fill="black"/>
<path d="M4.73547 11.832L16.4288 133.617L106.89 125.075L93.8461 3.38428L4.73547 11.832Z" fill="white"/>
<path d="M4.73547 11.8318L93.8375 3.29419H93.9273V3.37987C97.5943 37.5433 102.112 79.6319 106.993 125.07V125.182H106.881L106.24 125.242L16.4374 133.715H16.3391V133.612C9.4624 61.5156 4.82095 12.7186 4.73547 11.8318C4.82095 12.7186 9.5436 61.5242 16.5271 133.608L16.4203 133.514L106.24 125.023L106.881 124.963L106.779 125.087C101.915 79.6362 97.4105 37.5562 93.7563 3.39272L93.8546 3.47411L4.73547 11.8318Z" fill="black"/>
<path d="M74.1135 104.195C74.1195 101.552 74.9074 98.9692 76.3777 96.7745C77.8481 94.5798 79.9347 92.8714 82.3738 91.8654C84.8129 90.8594 87.4948 90.601 90.0804 91.1229C92.666 91.6448 95.0391 92.9235 96.8996 94.7973C98.7601 96.6711 100.024 99.0559 100.533 101.65C101.041 104.244 100.77 106.931 99.7548 109.371C98.7395 111.811 97.025 113.894 94.8283 115.357C92.6316 116.82 90.0514 117.598 87.4139 117.591C83.8791 117.578 80.4937 116.161 78.0002 113.65C75.5068 111.138 74.109 107.738 74.1135 104.195ZM100.535 104.26C100.541 101.664 99.7802 99.1252 98.3472 96.9636C96.9142 94.802 94.8738 93.1148 92.4841 92.1156C90.0944 91.1163 87.4627 90.8498 84.9219 91.3498C82.3811 91.8498 80.0453 93.0938 78.2099 94.9245C76.3745 96.7552 75.1219 99.0903 74.6106 101.635C74.0994 104.179 74.3524 106.818 75.3376 109.218C76.3228 111.618 77.996 113.671 80.1456 115.118C82.2952 116.565 84.8246 117.341 87.4139 117.347C90.884 117.351 94.2143 115.976 96.6741 113.523C99.1339 111.069 100.522 107.738 100.535 104.26Z" fill="#E0E0E0"/>
<path d="M75.6478 104.2C75.6529 101.894 76.3399 99.6424 77.622 97.7284C78.904 95.8143 80.7235 94.3243 82.8505 93.4468C84.9774 92.5693 87.3161 92.3436 89.571 92.7984C91.8258 93.2531 93.8955 94.3678 95.5183 96.0016C97.1411 97.6353 98.2441 99.7147 98.6878 101.977C99.1316 104.239 98.8961 106.582 98.0113 108.71C97.1264 110.838 95.6318 112.655 93.7166 113.932C91.8014 115.208 89.5515 115.887 87.2514 115.882C84.1686 115.871 81.216 114.634 79.0408 112.445C76.8657 110.255 75.6455 107.29 75.6478 104.2ZM97.1925 104.251C97.1976 102.285 96.6209 100.362 95.5354 98.725C94.4499 97.0877 92.9044 95.8099 91.0943 95.0531C89.2842 94.2963 87.2908 94.0946 85.3663 94.4734C83.4418 94.8523 81.6726 95.7947 80.2825 97.1814C78.8924 98.5682 77.9438 100.337 77.5567 102.264C77.1696 104.191 77.3614 106.19 78.1079 108.008C78.8543 109.826 80.1219 111.381 81.7502 112.477C83.3785 113.573 85.2945 114.16 87.2557 114.164C89.8811 114.163 92.399 113.119 94.2582 111.261C96.1174 109.403 97.1664 106.883 97.1754 104.251H97.1925Z" fill="#E0E0E0"/>
<path d="M78.4943 104.371C78.4953 103.031 78.8115 101.71 79.4175 100.515L80.9475 101.291C80.2765 102.631 80.0588 104.153 80.3274 105.628C80.596 107.103 81.3363 108.451 82.4364 109.467C83.5364 110.483 84.9366 111.112 86.4252 111.26C87.9138 111.408 89.41 111.067 90.6877 110.287L91.5809 111.756C90.2752 112.555 88.7805 112.991 87.2508 113.018C85.7211 113.046 84.2119 112.663 82.8786 111.911C81.5452 111.159 80.4361 110.065 79.6655 108.74C78.8948 107.415 78.4905 105.909 78.4943 104.375V104.371Z" fill="#E0E0E0"/>
<path d="M83.1272 96.7374C84.8041 95.8652 86.7206 95.5703 88.5813 95.898C90.4419 96.2258 92.1434 97.1579 93.4232 98.5508C94.7029 99.9437 95.49 101.72 95.663 103.605C95.836 105.491 95.3853 107.381 94.3803 108.985L92.9272 108.068C93.7297 106.784 94.0889 105.271 93.9495 103.763C93.8102 102.254 93.1801 100.833 92.1561 99.7189C91.1322 98.6044 89.7712 97.8582 88.2826 97.595C86.794 97.3318 85.2604 97.5663 83.9179 98.2624L83.1272 96.7374Z" fill="#E0E0E0"/>
<path d="M91.7006 34.699C91.7006 34.7633 74.6392 36.4126 53.5775 38.4217C32.5157 40.4308 15.433 41.9815 15.4287 41.9301C15.4244 41.8787 32.4901 40.2166 53.5561 38.2118C74.6221 36.2069 91.6963 34.6519 91.7006 34.699Z" fill="black"/>
<path d="M50.3165 33.7565C50.3165 33.8165 42.444 34.6133 32.7209 35.5343C22.9978 36.4553 15.1124 37.1493 15.1039 37.0894C15.0953 37.0294 22.9764 36.2326 32.6995 35.3116C42.4226 34.3905 50.3079 33.6923 50.3165 33.7565Z" fill="black"/>
<path d="M92.0339 39.6765C92.0339 39.7365 74.9683 41.39 53.9108 43.3948C32.8534 45.3997 15.7664 46.9547 15.7621 46.8947C15.7578 46.8348 32.8235 45.1812 53.8895 43.1721C74.9555 41.163 92.0297 39.6122 92.0339 39.6765Z" fill="black"/>
<path d="M92.3673 44.6372C92.3673 44.6972 75.3017 46.3507 54.2442 48.3555C33.1868 50.3604 16.0997 51.9154 16.0955 51.8554C16.0912 51.7954 33.1568 50.1419 54.2229 48.1328C75.2889 46.1237 92.3631 44.5772 92.3673 44.6372Z" fill="black"/>
<path d="M92.7007 49.5981C92.7007 49.6581 75.635 51.3116 54.5776 53.3208C33.5201 55.3299 16.4331 56.8763 16.4288 56.8164C16.4246 56.7564 33.4902 55.1028 54.5562 53.098C75.6222 51.0932 92.6964 49.5381 92.7007 49.5981Z" fill="black"/>
<path d="M93.0341 54.5588C93.0341 54.6231 75.9684 56.2723 54.9067 58.2814C33.845 60.2906 16.7665 61.8413 16.7579 61.777C16.7494 61.7128 33.8193 60.0635 54.8853 58.0587C75.9513 56.0539 93.0255 54.4988 93.0341 54.5588Z" fill="black"/>
<path d="M93.3632 59.5451C93.3632 59.6051 76.3018 61.2587 55.2401 63.2635C34.1783 65.2683 17.0956 66.8019 17.0956 66.742C17.0956 66.682 34.157 65.0284 55.223 63.0193C76.289 61.0102 93.3589 59.4595 93.3632 59.5451Z" fill="black"/>
<path d="M93.6964 64.4844C93.6964 64.5443 76.8573 66.1979 56.0862 68.1599C35.3151 70.1219 18.4418 71.6683 18.4375 71.5869C18.4332 71.5056 35.2766 69.8734 56.0691 67.9157C76.8616 65.958 93.6922 64.4244 93.6964 64.4844Z" fill="black"/>
<path d="M64.3093 74.0287C64.3093 74.0886 54.1417 75.0568 41.5935 76.192C29.0454 77.3272 18.8607 78.1926 18.8564 78.1326C18.8522 78.0726 29.0198 77.1002 41.5722 75.9907C54.1246 74.8812 64.3007 73.9687 64.3093 74.0287Z" fill="black"/>
<path d="M51.9578 115.042C51.9578 115.102 45.7734 115.68 38.1317 116.327C30.49 116.974 24.2971 117.454 24.2886 117.394C24.28 117.334 30.4729 116.755 38.1146 116.109C45.7563 115.462 51.9535 114.982 51.9578 115.042Z" fill="black"/>
<path d="M40.0677 119.78C40.0677 119.84 36.6016 120.187 32.3149 120.551C28.0282 120.915 24.5449 121.164 24.5364 121.104C24.5278 121.044 28.0068 120.697 32.2935 120.328C36.5802 119.96 40.0634 119.72 40.0677 119.78Z" fill="black"/>
<path d="M39.1146 84.8582C39.1146 84.9181 35.0373 85.3722 29.9899 85.8692C24.9424 86.3661 20.848 86.7259 20.8438 86.6617C20.8395 86.5974 24.921 86.1476 29.9685 85.6464C35.016 85.1452 39.1104 84.7939 39.1146 84.8582Z" fill="#2B3A8C"/>
<g opacity="0.3">
<path opacity="0.3" d="M14.5654 113.011L22.8696 111.401L27.511 104.384L14.2791 108.74L14.5654 113.011Z" fill="black"/>
</g>
<path d="M0 104.041L22.1729 101.938L27.511 104.384L23.25 109.19L0.726561 111.623L0 104.041Z" fill="#2B3A8C"/>
<path d="M67.2326 84.3098C67.2591 84.3158 67.2848 84.3244 67.3096 84.3355C67.3846 84.3594 67.4563 84.3925 67.5232 84.434C67.7904 84.5995 68.0311 84.8046 68.237 85.0424C69.0135 85.9625 69.6225 87.0123 70.0363 88.1438C70.751 89.9181 71.0691 91.8278 70.968 93.7385C70.9245 94.3184 70.8228 94.8925 70.6646 95.452C70.4838 96.041 70.2551 96.6141 69.9807 97.1656C69.3842 98.364 68.5828 99.4485 67.613 100.37C66.5526 101.393 65.3102 102.208 63.9503 102.773C62.4711 103.389 60.8666 103.641 59.2704 103.51C57.5114 103.323 55.8306 102.683 54.3913 101.652C52.952 100.621 51.803 99.2353 51.0559 97.6282C50.659 96.7692 50.4077 95.8498 50.3123 94.908C50.1936 93.9409 50.2959 92.9594 50.6115 92.0378C50.9037 91.072 51.5043 90.2292 52.321 89.6389C52.746 89.3523 53.2319 89.1689 53.7399 89.1034C54.2542 89.0489 54.774 89.1104 55.2615 89.2833C56.2466 89.6385 57.0767 90.3281 57.6078 91.2325C58.13 92.1421 58.4466 93.1555 58.5353 94.2012C58.7499 96.3237 58.4371 98.4664 57.6249 100.438C56.8232 102.416 55.5227 104.15 53.8511 105.472C52.2084 106.736 50.2512 107.524 48.1924 107.751C46.2061 107.99 44.1928 107.662 42.3842 106.804C40.6651 105.946 39.231 104.607 38.2556 102.949C37.31 101.385 36.8254 99.5849 36.8581 97.7567C36.8634 96.8762 37.033 96.0044 37.3581 95.1864C37.6628 94.3886 38.1642 93.6812 38.8155 93.1302C39.1345 92.8621 39.5052 92.6628 39.9046 92.5449C40.3039 92.427 40.7232 92.3929 41.1362 92.4448C41.9282 92.5764 42.6502 92.9791 43.1792 93.5843C43.6904 94.1526 44.044 94.8453 44.2049 95.5934C44.3438 96.3078 44.3438 97.0423 44.2049 97.7567C43.9229 99.0665 43.4075 100.315 42.6834 101.441C42.0695 102.459 41.3535 103.412 40.5464 104.285C39.8464 105.045 39.086 105.747 38.2727 106.384C37.5843 106.913 36.8619 107.395 36.1101 107.828C35.0717 108.43 33.9711 108.917 32.8278 109.28C32.0457 109.529 31.6226 109.614 31.6226 109.614L31.926 109.516C32.1226 109.452 32.4303 109.379 32.815 109.237C33.9477 108.856 35.0377 108.358 36.0674 107.751C36.809 107.313 37.5227 106.83 38.2044 106.303C39.0057 105.663 39.7559 104.961 40.4481 104.204C41.2432 103.331 41.9491 102.381 42.5552 101.368C43.2626 100.252 43.7662 99.0193 44.0425 97.7267C44.1771 97.0336 44.1771 96.3208 44.0425 95.6277C43.8875 94.9087 43.5454 94.2436 43.0509 93.6999C42.5495 93.1244 41.8632 92.7425 41.1106 92.6204C40.7225 92.5736 40.329 92.6077 39.9546 92.7205C39.5803 92.8332 39.2332 93.0223 38.9352 93.2759C38.308 93.8075 37.8257 94.4899 37.5334 95.2593C37.2201 96.0516 37.0578 96.8958 37.0547 97.7482C37.0314 99.5486 37.5206 101.318 38.4651 102.85C39.424 104.469 40.8296 105.775 42.5124 106.611C44.2798 107.444 46.2454 107.76 48.1839 107.524C50.2051 107.302 52.1269 106.529 53.7399 105.288C55.3771 103.984 56.6481 102.276 57.4283 100.331C58.2231 98.3937 58.5313 96.2902 58.3258 94.2054C58.2382 93.192 57.932 92.2098 57.4283 91.3267C56.9248 90.466 56.1372 89.8084 55.2016 89.4675C54.7446 89.3038 54.2564 89.2467 53.7741 89.3005C53.2999 89.3603 52.8462 89.5304 52.4492 89.7974C51.6709 90.3603 51.0987 91.1641 50.8209 92.085C50.5124 92.977 50.413 93.9283 50.5303 94.8651C50.6188 95.7852 50.8631 96.6833 51.2525 97.5211C51.9832 99.0975 53.1076 100.458 54.5167 101.471C55.9258 102.484 57.572 103.116 59.296 103.304C60.8636 103.44 62.4407 103.196 63.8947 102.593C65.2405 102.041 66.4723 101.244 67.5275 100.241C68.4883 99.334 69.2837 98.2655 69.8782 97.0842C70.1483 96.5417 70.3756 95.9788 70.5577 95.4006C70.7171 94.853 70.8188 94.2902 70.8612 93.7214C70.9734 91.8296 70.6715 89.9362 69.9765 88.1738C69.576 87.0448 68.9831 85.9939 68.2242 85.0681C68.0247 84.8312 67.793 84.6236 67.5361 84.4512C67.4384 84.3968 67.337 84.3496 67.2326 84.3098Z" fill="black"/>
<path d="M74.0623 24.3835C74.0623 24.3835 74.0623 24.3107 74.0324 24.1736C74.0025 24.0365 73.9896 23.8266 73.9597 23.5653C73.8999 23.0212 73.8144 22.233 73.699 21.2092C73.4768 19.1529 73.152 16.1585 72.7417 12.3717L72.8143 12.4316L26.6563 17.3109L26.7546 17.1867C27.182 21.312 27.6094 25.3259 28.0026 29.2028L27.8872 29.13L60.8261 25.7029L70.5278 24.7176L73.1434 24.4606L73.823 24.3963H74.0623L73.8401 24.4263L73.1733 24.5034L70.5833 24.7862L60.9115 25.8314L27.9128 29.3227H27.8017V29.2156C27.3743 25.3602 26.9768 21.3206 26.5452 17.1952V17.0881H26.6563L72.8143 12.2988H72.8827V12.3674C73.2631 16.1757 73.5665 19.1829 73.7717 21.252C73.87 22.2716 73.9469 23.0555 73.9982 23.5953C74.0238 23.8523 74.0409 24.0493 74.0538 24.1907C74.0666 24.3321 74.0623 24.3835 74.0623 24.3835Z" fill="#8CBF43"/>
<path d="M125.759 45.0656C125.811 44.8084 125.953 44.5785 126.161 44.4188C126.668 44.0896 127.269 43.9389 127.871 43.9904C128.224 43.2796 128.46 42.5155 128.567 41.7285C128.284 41.7342 128.006 41.6551 127.768 41.5015C127.722 41.4918 127.678 41.4774 127.635 41.4586C127.063 41.1973 127.007 40.3448 127.366 39.8265C127.779 39.3486 128.321 39.0004 128.926 38.8241C128.509 38.9202 128.105 39.0639 127.721 39.2525C127.294 39.381 126.729 39.2525 126.682 38.8241C126.674 38.6923 126.696 38.5604 126.746 38.4385C126.828 38.1858 126.905 37.9331 126.986 37.676C127.026 37.4631 127.145 37.2733 127.319 37.1448C127.458 37.0963 127.601 37.0619 127.747 37.042C128.225 36.9135 128.477 36.3266 128.956 36.1853C129.322 36.1486 129.69 36.2046 130.029 36.348C130.388 36.4294 130.858 36.348 130.969 36.0096C130.486 35.7671 130.067 35.4133 129.747 34.9772C129.594 34.7542 129.522 34.4854 129.543 34.2157C129.564 33.9459 129.677 33.6915 129.862 33.495C130.22 33.2641 130.652 33.1755 131.072 33.2466C131.542 33.268 132.127 33.3751 132.251 33.8292C132.415 33.7849 132.586 33.7753 132.753 33.8009C132.921 33.8265 133.081 33.8867 133.224 33.9778C133.368 34.0688 133.49 34.1887 133.585 34.3298C133.679 34.4708 133.743 34.6301 133.773 34.7973L134.982 34.6774C134.645 34.3089 134.166 34.0905 133.871 33.6878C133.576 33.2851 133.636 32.5569 134.119 32.4541C134.301 32.4515 134.482 32.4357 134.662 32.4069C134.781 32.3598 134.884 32.2484 135.012 32.2441C135.109 32.2505 135.201 32.2864 135.277 32.347L137.841 34.0176L137.149 32.4069C136.935 31.91 136.773 31.2289 137.213 30.9204C137.653 30.612 138.269 31.0532 138.359 31.5673C138.474 31.5465 138.592 31.5504 138.705 31.5787C138.818 31.6071 138.924 31.6592 139.016 31.7317C139.108 31.8042 139.183 31.8954 139.237 31.9992C139.291 32.1031 139.322 32.2172 139.329 32.3341C139.498 32.2751 139.681 32.2709 139.853 32.3221C140.025 32.3732 140.176 32.4772 140.286 32.6192C140.395 32.7612 140.458 32.9342 140.464 33.1136C140.47 33.2931 140.42 33.4699 140.32 33.6193C140.752 33.6294 141.172 33.7551 141.538 33.9834C141.548 33.8474 141.595 33.7167 141.674 33.6061C141.754 33.4955 141.863 33.4093 141.988 33.3572C142.114 33.3051 142.252 33.2892 142.386 33.3113C142.52 33.3334 142.645 33.3926 142.748 33.4822C142.736 33.2246 142.801 32.9694 142.936 32.7496C142.97 32.6963 143.016 32.6513 143.07 32.618C143.124 32.5846 143.185 32.5636 143.248 32.5567C143.311 32.5497 143.375 32.5569 143.434 32.5776C143.494 32.5984 143.549 32.6323 143.594 32.6768C143.55 32.5 143.563 32.3136 143.631 32.1446C143.7 31.9757 143.82 31.833 143.975 31.7375C144.13 31.6419 144.311 31.5984 144.493 31.6132C144.674 31.6281 144.846 31.7005 144.983 31.82L145.411 31.306C145.627 31.2859 145.845 31.3284 146.038 31.4287C146.231 31.5289 146.392 31.6826 146.5 31.8715C146.676 32.2698 146.381 32.8396 145.949 32.801C146.253 32.801 146.184 33.2808 146.005 33.525C145.761 33.872 145.513 34.2147 145.265 34.5574C145.421 34.4105 145.622 34.3205 145.835 34.3018C146.048 34.2832 146.262 34.337 146.441 34.4546C146.509 34.3831 146.591 34.3262 146.683 34.2873C146.774 34.2484 146.872 34.2284 146.971 34.2284C147.07 34.2284 147.167 34.2484 147.259 34.2873C147.35 34.3262 147.432 34.3831 147.5 34.4546C147.563 34.3589 147.653 34.2836 147.758 34.2378C147.862 34.1921 147.978 34.1778 148.091 34.1969C148.204 34.216 148.309 34.2675 148.393 34.3452C148.477 34.4229 148.537 34.5234 148.565 34.6345C148.642 34.4375 148.915 34.4246 149.125 34.446C149.434 34.445 149.735 34.5475 149.979 34.7373C150.193 34.9515 150.193 35.397 149.907 35.4998C150.167 35.3542 150.501 35.6412 150.505 35.9282C150.491 36.0763 150.445 36.2197 150.371 36.3489C150.298 36.4782 150.198 36.5903 150.078 36.6779C149.839 36.8566 149.634 37.0755 149.471 37.3248C149.724 37.1617 150.028 37.0962 150.326 37.1405C150.859 37.1152 151.391 37.2226 151.873 37.4533C151.962 37.2434 152.253 37.2305 152.48 37.2776C153.172 37.4394 153.801 37.8031 154.287 38.3229C154.523 38.5628 154.736 38.9226 154.574 39.2182C154.488 39.3448 154.372 39.4479 154.236 39.5181L152.578 40.5376C153.474 40.8201 154.259 41.3775 154.822 42.1312C155.151 42.324 155.565 42.3411 155.865 42.581C156.164 42.8209 156.138 43.4378 155.758 43.4378C155.874 43.5331 155.956 43.6633 155.992 43.8092C156.028 43.9551 156.016 44.1088 155.959 44.2474C155.903 44.3664 155.814 44.4663 155.702 44.5344C155.653 44.6104 155.592 44.6783 155.523 44.7358C155.397 44.8409 155.252 44.9196 155.095 44.9671C155.01 45.0799 154.898 45.1699 154.77 45.229C154.642 45.288 154.501 45.3143 154.36 45.3055C154.672 45.5678 154.937 45.8823 155.142 46.2351C155.278 46.4631 155.349 46.7236 155.349 46.989C155.349 47.2545 155.278 47.515 155.142 47.743C155.142 47.7687 155.099 47.7858 155.082 47.8073C155.063 47.9009 155.025 47.9897 154.97 48.0684C154.916 48.1471 154.847 48.2141 154.766 48.2656C154.833 48.3869 154.854 48.5283 154.826 48.664C155.098 48.7671 155.337 48.9424 155.517 49.1713C155.698 49.4001 155.813 49.6738 155.849 49.9631C155.886 50.2524 155.844 50.5462 155.727 50.8132C155.61 51.0801 155.423 51.3101 155.185 51.4785C154.809 51.7484 154.108 51.697 154.074 51.2343C153.984 51.4187 153.851 51.5783 153.685 51.6993C153.52 51.8202 153.328 51.8988 153.125 51.9283C153.2 52.0782 153.242 52.242 153.251 52.4093C153.259 52.5766 153.232 52.7439 153.173 52.9004C153.114 53.057 153.022 53.1995 152.905 53.319C152.788 53.4385 152.648 53.5324 152.492 53.5947C152.645 53.7429 152.759 53.927 152.824 54.1304C152.888 54.3337 152.901 54.5499 152.861 54.7595C152.821 54.969 152.73 55.1653 152.595 55.3306C152.461 55.496 152.287 55.6252 152.091 55.7066C152.141 55.831 152.165 55.9643 152.162 56.0985C152.159 56.2326 152.129 56.3648 152.074 56.4869C152.019 56.6091 151.939 56.7186 151.84 56.809C151.741 56.8993 151.625 56.9685 151.498 57.0125C151.372 57.0564 151.238 57.074 151.104 57.0644C150.971 57.0547 150.841 57.018 150.722 56.9563C150.603 56.8947 150.498 56.8095 150.413 56.7058C150.328 56.6022 150.265 56.4823 150.227 56.3535C150.075 56.7271 149.818 57.0485 149.488 57.2788C149.404 57.3319 149.311 57.3673 149.213 57.3826C149.115 57.398 149.015 57.3931 148.92 57.3682C148.824 57.3433 148.734 57.2989 148.656 57.2379C148.578 57.1768 148.514 57.1003 148.466 57.0132C148.394 57.2 148.281 57.3682 148.135 57.5057C147.99 57.6432 147.815 57.7465 147.625 57.808C147.435 57.8695 147.233 57.8878 147.035 57.8615C146.837 57.8351 146.647 57.7649 146.479 57.6558C146.489 57.8816 146.411 58.1025 146.262 58.2725C146.114 58.4425 145.905 58.5484 145.681 58.5683C145.456 58.5882 145.232 58.5204 145.056 58.3792C144.88 58.2379 144.765 58.034 144.735 57.81L142.474 57.7886C141.974 57.8001 141.473 57.7643 140.979 57.6815C140.354 57.5543 139.768 57.2813 139.269 56.8847C139.121 56.7407 138.943 56.6311 138.748 56.5634C138.511 56.5396 138.273 56.5764 138.055 56.6705C137.454 56.8419 136.819 56.8563 136.211 56.7123C135.603 56.5683 135.042 56.2708 134.581 55.848C134.448 55.7006 134.292 55.5761 134.119 55.4796C133.905 55.4042 133.678 55.3736 133.452 55.3896C132.897 55.3786 132.346 55.298 131.811 55.1497C131.575 55.1098 131.35 55.0214 131.15 54.8902C130.95 54.759 130.779 54.5877 130.649 54.3872C130.435 53.9588 130.687 53.3077 131.166 53.312C131.19 53.1593 131.18 53.0033 131.136 52.8551C131.092 52.7069 131.016 52.5703 130.914 52.4552C130.803 52.3405 130.652 52.2729 130.493 52.2665C130.334 52.2601 130.178 52.3154 130.059 52.4209C130.004 52.4748 129.964 52.5426 129.945 52.617C129.925 52.6915 129.926 52.7699 129.947 52.844C129.968 52.9181 130.008 52.9852 130.064 53.0381C130.12 53.0911 130.189 53.128 130.264 53.1449C129.751 53.5005 128.956 53.0035 128.943 52.3824C128.963 52.0706 129.101 51.7783 129.329 51.5656C129.557 51.3528 129.858 51.2358 130.17 51.2386C130.045 50.7915 130.034 50.3205 130.136 49.8678C129.969 50.0635 129.735 50.1883 129.48 50.217C129.225 50.2456 128.969 50.1759 128.764 50.022C128.642 50.2262 128.48 50.4034 128.287 50.5426C128.095 50.6819 127.876 50.7802 127.644 50.8316C127.409 50.8734 127.168 50.8337 126.959 50.7193C126.75 50.6048 126.586 50.4223 126.494 50.2019C126.461 50.0903 126.454 49.9724 126.474 49.8577C126.495 49.7429 126.541 49.6345 126.61 49.5409C126.68 49.4474 126.77 49.3713 126.874 49.3187C126.977 49.2661 127.092 49.2385 127.208 49.2381C127.143 49.1026 127.112 48.9528 127.12 48.8025C127.128 48.6522 127.173 48.5063 127.252 48.3782C127.331 48.2501 127.44 48.144 127.571 48.0696C127.701 47.9953 127.849 47.9552 127.999 47.9529C127.957 47.6464 128.019 47.3347 128.173 47.0671C128.328 46.7995 128.567 46.5911 128.854 46.475C128.76 46.5256 128.657 46.5554 128.551 46.5622C128.445 46.569 128.339 46.5527 128.24 46.5144C128.14 46.4762 128.051 46.4168 127.977 46.3405C127.903 46.2642 127.846 46.1727 127.811 46.0723C127.524 46.5264 126.823 46.415 126.362 46.1409C126.153 46.0591 125.979 45.9073 125.869 45.7112C125.759 45.5152 125.72 45.287 125.759 45.0656Z" fill="black"/>
<path d="M125.759 45.0657C125.742 45.1256 125.734 45.1876 125.734 45.2499C125.727 45.4389 125.788 45.624 125.905 45.7725C126.105 46.0087 126.365 46.1875 126.657 46.2909C126.844 46.3603 127.043 46.3937 127.242 46.3894C127.36 46.3888 127.476 46.3597 127.58 46.3045C127.684 46.2493 127.774 46.1697 127.841 46.0724H127.789C127.825 46.1782 127.882 46.2749 127.959 46.3558C128.036 46.4367 128.129 46.4998 128.232 46.5407C128.336 46.5815 128.447 46.5991 128.558 46.5922C128.669 46.5853 128.777 46.5541 128.875 46.5008L128.845 46.4451C128.553 46.5666 128.309 46.7808 128.151 47.0548C127.993 47.3289 127.929 47.6475 127.969 47.9616L128.012 47.9144C127.855 47.9076 127.7 47.944 127.563 48.0195C127.426 48.095 127.312 48.2069 127.234 48.3428C127.137 48.4781 127.081 48.6379 127.071 48.8039C127.061 48.9698 127.098 49.1352 127.178 49.281L127.221 49.2167C127.048 49.2089 126.879 49.2615 126.741 49.3654C126.603 49.4694 126.505 49.6182 126.464 49.7865C126.414 49.9629 126.423 50.1514 126.492 50.3216C126.561 50.4918 126.686 50.6337 126.845 50.7246C127.005 50.8274 127.188 50.8904 127.377 50.9083C127.567 50.9261 127.758 50.8984 127.935 50.8274C128.299 50.6714 128.607 50.4085 128.819 50.0735H128.738C128.955 50.2363 129.226 50.3101 129.495 50.2798C129.764 50.2496 130.012 50.1176 130.187 49.9107L130.089 49.8636C129.983 50.3246 129.995 50.8048 130.123 51.2601L130.178 51.1873C129.866 51.1882 129.563 51.2988 129.324 51.5C129.2 51.5988 129.099 51.7221 129.025 51.8622C128.952 52.0023 128.908 52.1561 128.896 52.3139C128.89 52.4836 128.927 52.6521 129.006 52.8025C129.085 52.9529 129.202 53.0799 129.345 53.1707C129.482 53.276 129.648 53.3373 129.82 53.3465C129.992 53.3557 130.164 53.3123 130.311 53.2221L130.456 53.1193H130.285C130.241 53.1078 130.199 53.0876 130.162 53.0598C130.125 53.0321 130.094 52.9973 130.071 52.9575C130.047 52.9177 130.032 52.8737 130.025 52.8279C130.019 52.7822 130.022 52.7356 130.033 52.6909C130.052 52.5943 130.106 52.5085 130.186 52.4505C130.265 52.3925 130.363 52.3666 130.461 52.3782C130.566 52.3805 130.67 52.4106 130.761 52.4655C130.851 52.5203 130.926 52.5981 130.978 52.6909C131.084 52.8901 131.125 53.1182 131.093 53.342L131.161 53.2821C131.076 53.2824 130.992 53.3013 130.914 53.3375C130.837 53.3738 130.768 53.4265 130.713 53.492C130.605 53.6125 130.534 53.761 130.508 53.9204C130.48 54.0873 130.502 54.2587 130.572 54.413C130.643 54.5638 130.746 54.6969 130.875 54.8028C131.128 55.0025 131.419 55.1482 131.73 55.2312C132.041 55.3207 132.358 55.3865 132.679 55.4283C133.32 55.5611 134.059 55.2997 134.478 55.8952C134.986 56.3752 135.618 56.7018 136.303 56.8376C136.65 56.9084 137.005 56.9301 137.359 56.9019C137.713 56.8588 138.062 56.7813 138.401 56.6706C138.557 56.6302 138.722 56.65 138.863 56.7263C139.013 56.8186 139.156 56.9216 139.29 57.0347C139.587 57.2573 139.912 57.4402 140.256 57.5787C140.964 57.8255 141.713 57.9332 142.462 57.8957H144.731L144.646 57.8229C144.676 58.0705 144.802 58.2965 144.995 58.4534C145.189 58.6103 145.435 58.6859 145.683 58.6642C145.931 58.6426 146.161 58.5254 146.325 58.3374C146.488 58.1493 146.573 57.905 146.56 57.6558L146.424 57.7287C146.603 57.8474 146.808 57.9241 147.021 57.9532C147.235 57.9824 147.452 57.9631 147.657 57.8969C147.862 57.8308 148.049 57.7193 148.206 57.5709C148.362 57.4224 148.483 57.2406 148.56 57.039H148.394C148.434 57.1411 148.5 57.2315 148.584 57.3018C148.669 57.3721 148.769 57.4202 148.877 57.4417C149.091 57.4904 149.316 57.4647 149.514 57.3688C149.873 57.1318 150.153 56.7914 150.317 56.3921H150.15C150.244 56.6625 150.442 56.8844 150.699 57.0089C150.956 57.1334 151.252 57.1504 151.522 57.0561C151.792 56.9618 152.013 56.764 152.138 56.5061C152.262 56.2482 152.279 55.9514 152.185 55.681L152.125 55.8009C152.335 55.7236 152.522 55.5923 152.666 55.4202C152.81 55.248 152.906 55.0411 152.945 54.82C153.006 54.591 153.002 54.3498 152.934 54.1231C152.866 53.8963 152.737 53.6927 152.561 53.5348L152.535 53.6933C152.705 53.6287 152.859 53.5288 152.987 53.4001C153.115 53.2715 153.215 53.117 153.279 52.947C153.343 52.7769 153.371 52.5951 153.36 52.4136C153.348 52.2321 153.299 52.0551 153.215 51.8941L153.146 52.0312C153.364 52.0006 153.571 51.9171 153.749 51.7879C153.927 51.6587 154.071 51.4878 154.168 51.2901L153.988 51.2558C153.997 51.3744 154.048 51.4857 154.134 51.5685C154.218 51.6454 154.321 51.6986 154.433 51.7228C154.643 51.7701 154.862 51.7522 155.061 51.6713C155.252 51.5763 155.422 51.444 155.562 51.2822C155.701 51.1204 155.807 50.9323 155.873 50.7289C155.948 50.5209 155.98 50.3001 155.968 50.0794C155.957 49.8587 155.901 49.6426 155.805 49.4438C155.614 49.0485 155.279 48.7418 154.869 48.587L154.929 48.6984C154.961 48.5395 154.937 48.3742 154.86 48.2314L154.826 48.36C154.917 48.302 154.996 48.2263 155.058 48.1373C155.12 48.0482 155.163 47.9477 155.185 47.8416V47.8845C155.339 47.6837 155.438 47.4454 155.47 47.194C155.502 46.9426 155.467 46.6871 155.369 46.4537C155.166 45.9837 154.852 45.5704 154.454 45.2499L154.381 45.417C154.539 45.4262 154.696 45.3967 154.839 45.331C154.982 45.2653 155.107 45.1653 155.202 45.04L155.155 45.0743C155.428 45.0001 155.665 44.8317 155.826 44.5988L155.8 44.6287C155.904 44.5667 155.99 44.4797 156.051 44.3757C156.112 44.2717 156.147 44.154 156.151 44.0333C156.158 43.9088 156.135 43.7845 156.084 43.6705C156.034 43.5566 155.957 43.4563 155.86 43.3779L155.8 43.5492C155.86 43.5499 155.919 43.5363 155.973 43.5095C156.026 43.4826 156.073 43.4434 156.108 43.395C156.169 43.3033 156.203 43.1965 156.206 43.0866C156.212 42.9786 156.193 42.8707 156.151 42.7712C156.109 42.6716 156.045 42.5832 155.963 42.5125C155.625 42.3312 155.274 42.1779 154.911 42.0542L154.941 42.0799C154.367 41.3101 153.565 40.7407 152.651 40.452L152.672 40.6277L153.424 40.1607L153.993 39.8095C154.192 39.6964 154.384 39.569 154.565 39.4282C154.664 39.3371 154.729 39.2146 154.749 39.0812C154.763 38.9525 154.742 38.8224 154.689 38.7042C154.587 38.4895 154.442 38.2983 154.262 38.143C153.759 37.6775 153.138 37.3603 152.467 37.2263C152.347 37.2027 152.223 37.2027 152.104 37.2263C152.033 37.2357 151.966 37.2626 151.909 37.3045C151.851 37.3464 151.805 37.402 151.774 37.4662L151.911 37.4191C151.526 37.2208 151.1 37.1152 150.667 37.1106C150.458 37.1106 150.24 37.1106 150.039 37.1106C149.809 37.1097 149.585 37.1816 149.398 37.3163L149.548 37.4362C149.731 37.0721 150.176 36.8793 150.441 36.4724C150.519 36.3705 150.568 36.2497 150.583 36.1225C150.599 35.9953 150.581 35.8662 150.531 35.7484C150.469 35.6313 150.374 35.5357 150.257 35.4742C150.195 35.4405 150.125 35.4228 150.054 35.4228C149.983 35.4228 149.914 35.4405 149.851 35.4742L149.932 35.6456C149.994 35.622 150.049 35.5846 150.093 35.5363C150.137 35.488 150.17 35.4301 150.189 35.3671C150.223 35.2511 150.223 35.1276 150.189 35.0116C150.163 34.8922 150.102 34.7834 150.014 34.6989C149.928 34.6216 149.83 34.5606 149.723 34.5189C149.522 34.4513 149.314 34.4096 149.103 34.3947C148.993 34.3778 148.88 34.3778 148.77 34.3947C148.704 34.4061 148.643 34.4336 148.591 34.4748C148.538 34.5159 148.497 34.5693 148.471 34.6303H148.659C148.633 34.4952 148.565 34.372 148.464 34.2787C148.363 34.1854 148.235 34.127 148.099 34.112C147.966 34.0819 147.828 34.0957 147.704 34.1513C147.579 34.2069 147.477 34.3013 147.411 34.4204H147.569C147.491 34.3382 147.398 34.2727 147.294 34.228C147.191 34.1832 147.079 34.1602 146.966 34.1602C146.853 34.1602 146.742 34.1832 146.638 34.228C146.535 34.2727 146.441 34.3382 146.364 34.4204H146.492C146.297 34.2925 146.064 34.234 145.832 34.2542C145.599 34.2744 145.38 34.3721 145.21 34.5318L145.351 34.656L145.979 33.7993C146.103 33.6524 146.192 33.4797 146.24 33.2938C146.265 33.1911 146.265 33.0837 146.24 32.981C146.223 32.9185 146.187 32.8629 146.137 32.8225C146.085 32.7823 146.019 32.7626 145.953 32.7669V32.9553C146.08 32.9599 146.206 32.9265 146.314 32.8594C146.422 32.7923 146.508 32.6944 146.56 32.5784C146.619 32.4715 146.652 32.3522 146.657 32.2302C146.661 32.1081 146.637 31.9868 146.586 31.8758C146.469 31.6758 146.297 31.5132 146.091 31.4071C145.886 31.3009 145.654 31.2555 145.423 31.2761H145.381L145.312 31.2718L144.885 31.7816H145.017C144.865 31.6557 144.677 31.5805 144.48 31.5662C144.283 31.5519 144.087 31.5993 143.918 31.7018C143.749 31.8044 143.616 31.957 143.537 32.1386C143.459 32.3201 143.438 32.5217 143.479 32.7155L143.641 32.6383C143.591 32.5765 143.524 32.5301 143.448 32.5043C143.373 32.4786 143.292 32.4746 143.214 32.4927C143.064 32.5206 142.93 32.603 142.838 32.724C142.698 32.9562 142.63 33.2243 142.641 33.4951L142.795 33.4351C142.68 33.3429 142.543 33.2832 142.397 33.2625C142.252 33.2417 142.103 33.2605 141.967 33.317C141.831 33.3735 141.713 33.4656 141.625 33.5836C141.537 33.7016 141.482 33.8412 141.466 33.9877L141.603 33.9106C141.217 33.6703 140.774 33.54 140.32 33.5337L140.393 33.675C140.507 33.5137 140.567 33.3203 140.564 33.1227C140.561 32.9251 140.496 32.7335 140.378 32.5754C140.259 32.4173 140.094 32.3009 139.906 32.2429C139.717 32.185 139.515 32.1884 139.329 32.2528L139.449 32.3342C139.443 32.1993 139.407 32.0673 139.345 31.9477C139.282 31.828 139.194 31.7236 139.087 31.6419C138.979 31.5601 138.856 31.503 138.724 31.4746C138.592 31.4462 138.456 31.4471 138.324 31.4774L138.436 31.546C138.39 31.3192 138.267 31.115 138.089 30.9677C137.917 30.81 137.69 30.7269 137.457 30.7363C137.34 30.7501 137.228 30.7945 137.134 30.8652C137.039 30.9359 136.965 31.0304 136.918 31.139C136.838 31.3479 136.82 31.5756 136.867 31.7944C136.963 32.1942 137.107 32.581 137.294 32.9468L137.765 34.0477L137.889 33.9449L136.307 32.9125L135.534 32.407C135.401 32.3109 135.257 32.2304 135.106 32.1671C135.012 32.1469 134.914 32.1637 134.833 32.2142C134.76 32.2528 134.7 32.2999 134.645 32.3213C134.506 32.3594 134.361 32.371 134.217 32.3556C134.135 32.36 134.054 32.3817 133.98 32.4193C133.907 32.457 133.842 32.5097 133.79 32.5741C133.7 32.7089 133.645 32.8637 133.628 33.025C133.612 33.1863 133.635 33.3492 133.696 33.4994C133.829 33.7759 134.032 34.0124 134.286 34.1848C134.515 34.3487 134.732 34.5291 134.935 34.7246L134.982 34.596L133.773 34.7203L133.854 34.7845C133.823 34.609 133.756 34.4417 133.658 34.2934C133.559 34.1451 133.431 34.019 133.281 33.9231C133.131 33.8272 132.963 33.7636 132.787 33.7364C132.611 33.7092 132.432 33.7189 132.26 33.765L132.35 33.8121C132.3 33.6778 132.218 33.558 132.11 33.4637C132.003 33.3694 131.874 33.3036 131.734 33.2723C131.48 33.2064 131.219 33.1733 130.956 33.1738C130.695 33.1575 130.434 33.1865 130.183 33.2595C130.055 33.2993 129.938 33.3657 129.837 33.4543C129.737 33.5429 129.657 33.6517 129.601 33.7736C129.512 34.0128 129.488 34.2718 129.532 34.5235C129.577 34.7752 129.688 35.0104 129.854 35.2043C130.172 35.5517 130.548 35.8415 130.965 36.0611L130.909 35.984C130.873 36.0699 130.814 36.1442 130.739 36.1986C130.664 36.253 130.575 36.2855 130.482 36.2924C130.29 36.3216 130.094 36.3055 129.909 36.2453C129.718 36.1807 129.523 36.132 129.324 36.0997C129.115 36.0642 128.901 36.1052 128.721 36.2153C128.375 36.4252 128.17 36.7722 127.866 36.9264C127.717 37.0078 127.533 36.9864 127.341 37.0635C127.255 37.1065 127.178 37.1667 127.117 37.2404C127.055 37.314 127.009 37.3997 126.982 37.4919L126.665 38.49C126.632 38.576 126.619 38.6681 126.625 38.7599C126.632 38.8518 126.659 38.941 126.704 39.0212C126.807 39.1659 126.959 39.268 127.131 39.3082C127.297 39.3447 127.469 39.3447 127.635 39.3082C127.791 39.2694 127.941 39.2134 128.084 39.1412C128.348 38.9893 128.638 38.889 128.939 38.8456L128.918 38.7556C128.572 38.8811 128.24 39.0403 127.926 39.2311C127.629 39.4092 127.387 39.6675 127.229 39.9765C127.098 40.2704 127.076 40.6013 127.165 40.9104C127.202 41.0552 127.277 41.1874 127.382 41.293C127.487 41.3986 127.619 41.4736 127.764 41.5101C128.008 41.6682 128.294 41.7488 128.584 41.7415L128.55 41.7029C128.447 42.4864 128.216 43.2476 127.866 43.9562H127.888C127.506 43.9513 127.125 43.9974 126.755 44.0933C126.496 44.1693 126.26 44.3075 126.067 44.496C125.958 44.6116 125.875 44.7488 125.823 44.8986C125.805 44.9466 125.793 44.9972 125.789 45.0486C125.836 44.8473 125.938 44.6632 126.084 44.5174C126.274 44.3327 126.508 44.2 126.764 44.1318C127.131 44.0389 127.509 43.9971 127.888 44.0076C128.249 43.2973 128.489 42.5313 128.597 41.7415V41.7029H128.559C128.282 41.708 128.009 41.6304 127.777 41.4801C127.645 41.445 127.524 41.3752 127.428 41.2781C127.332 41.181 127.264 41.06 127.229 40.9275C127.153 40.6425 127.178 40.34 127.298 40.0708C127.451 39.7781 127.684 39.5346 127.969 39.3682C128.278 39.1812 128.604 39.0248 128.943 38.9013L129.225 38.7899L128.926 38.8113C128.618 38.8531 128.321 38.9534 128.05 39.1069C127.913 39.1756 127.77 39.2301 127.623 39.2697C127.472 39.3039 127.316 39.3039 127.165 39.2697C127.017 39.2372 126.885 39.152 126.794 39.0298C126.76 38.9641 126.74 38.8921 126.736 38.8183C126.731 38.7446 126.742 38.6707 126.768 38.6014C126.875 38.2801 126.977 37.9503 127.088 37.6119C127.109 37.532 127.146 37.4572 127.196 37.3923C127.247 37.3274 127.311 37.2738 127.383 37.2349C127.565 37.2033 127.743 37.1574 127.918 37.0978C128.277 36.9222 128.486 36.5709 128.802 36.3867C128.977 36.3152 129.164 36.2823 129.352 36.2905C129.54 36.2986 129.725 36.3475 129.892 36.4338C130.095 36.5004 130.31 36.518 130.52 36.4852C130.635 36.4742 130.745 36.4316 130.837 36.362C130.929 36.2924 131 36.1987 131.042 36.0911V36.044L130.999 36.014C130.592 35.7843 130.229 35.484 129.926 35.1272C129.777 34.9532 129.677 34.7422 129.636 34.5162C129.595 34.2902 129.616 34.0574 129.695 33.8421C129.744 33.7397 129.814 33.6487 129.9 33.5749C129.986 33.5011 130.087 33.4462 130.196 33.4137C130.431 33.3445 130.677 33.3183 130.922 33.3366C131.171 33.3373 131.42 33.369 131.661 33.4308C131.777 33.4525 131.885 33.5031 131.975 33.5781C132.066 33.653 132.136 33.7497 132.179 33.8592L132.2 33.9321H132.273C132.424 33.895 132.582 33.8892 132.736 33.915C132.89 33.9408 133.037 33.9977 133.169 34.0822C133.3 34.1667 133.413 34.2771 133.501 34.4066C133.589 34.5362 133.649 34.6823 133.679 34.8359V34.9045H133.773L134.982 34.7803H135.136L135.029 34.6646C134.821 34.4626 134.598 34.2764 134.363 34.1077C134.132 33.9543 133.948 33.7411 133.828 33.4908C133.778 33.3663 133.757 33.2316 133.769 33.0976C133.78 32.9637 133.822 32.8342 133.892 32.7197C133.933 32.67 133.984 32.63 134.041 32.6026C134.099 32.5751 134.162 32.561 134.226 32.5612C134.384 32.5754 134.543 32.5609 134.696 32.5184C134.858 32.437 134.957 32.3342 135.059 32.3727C135.19 32.4306 135.313 32.504 135.427 32.5912L136.2 33.0967L137.777 34.1291L138.008 34.2833L137.901 34.0263C137.743 33.6665 137.589 33.298 137.431 32.9296C137.255 32.5733 137.118 32.1983 137.025 31.8116C136.986 31.6274 136.999 31.4358 137.064 31.259C137.098 31.1772 137.153 31.1059 137.224 31.0525C137.294 30.9991 137.378 30.9654 137.465 30.9548C137.653 30.9599 137.834 31.0288 137.977 31.1502C138.121 31.2716 138.219 31.4384 138.256 31.6231V31.7216L138.346 31.6916C138.451 31.67 138.559 31.6711 138.664 31.6948C138.768 31.7186 138.866 31.7645 138.952 31.8294C139.037 31.8943 139.108 31.9767 139.159 32.0711C139.21 32.1656 139.24 32.2699 139.248 32.377V32.5098L139.367 32.4584C139.517 32.4064 139.679 32.401 139.831 32.4431C139.984 32.4852 140.12 32.5727 140.222 32.694C140.32 32.8267 140.373 32.9874 140.373 33.1524C140.373 33.3174 140.32 33.4781 140.222 33.6108L140.12 33.7521H140.295C140.71 33.7603 141.115 33.8818 141.466 34.1034L141.611 34.1934V34.0263C141.626 33.9142 141.67 33.8081 141.739 33.7184C141.808 33.6288 141.899 33.5588 142.003 33.5155C142.108 33.4721 142.221 33.4569 142.333 33.4714C142.445 33.4859 142.551 33.5295 142.641 33.5979L142.786 33.7436V33.5379C142.778 33.3031 142.834 33.0705 142.949 32.8654C143.064 32.7026 143.376 32.6341 143.47 32.784L143.727 33.1267L143.633 32.6983C143.599 32.542 143.615 32.3791 143.678 32.2323C143.741 32.0855 143.849 31.9622 143.985 31.8795C144.122 31.7969 144.281 31.7592 144.44 31.7716C144.599 31.784 144.75 31.8459 144.872 31.9486L144.945 32.0086L145 31.9401C145.141 31.7687 145.282 31.6017 145.428 31.426L145.359 31.4603C145.554 31.4423 145.751 31.4793 145.926 31.5671C146.101 31.6549 146.248 31.79 146.351 31.9572C146.518 32.2742 146.261 32.814 145.902 32.7669V32.9553C145.962 32.9553 145.983 32.9553 146.005 33.0367C146.022 33.1086 146.022 33.1834 146.005 33.2552C145.962 33.4142 145.883 33.561 145.774 33.6836L145.146 34.5404L145.287 34.6646C145.426 34.5332 145.605 34.4525 145.796 34.4354C145.987 34.4183 146.178 34.4658 146.338 34.5703L146.411 34.6217L146.466 34.5575C146.526 34.496 146.597 34.4471 146.676 34.4137C146.755 34.3803 146.84 34.3631 146.926 34.3631C147.011 34.3631 147.096 34.3803 147.175 34.4137C147.254 34.4471 147.325 34.496 147.385 34.5575L147.483 34.6774L147.543 34.5361C147.599 34.4616 147.674 34.404 147.76 34.3694C147.846 34.3349 147.94 34.3248 148.031 34.3403C148.123 34.3558 148.208 34.3963 148.278 34.4573C148.348 34.5182 148.4 34.5974 148.428 34.686L148.471 35.1701L148.612 34.7117C148.65 34.5875 148.864 34.5618 149.039 34.5832C149.233 34.5955 149.424 34.6329 149.608 34.6946C149.69 34.7201 149.765 34.7654 149.826 34.8266C149.887 34.8878 149.933 34.9631 149.958 35.0458C150.005 35.2129 149.958 35.41 149.813 35.4742L149.894 35.6499C150.026 35.5685 150.227 35.6841 150.321 35.8469C150.357 35.9336 150.368 36.0282 150.355 36.1209C150.341 36.2136 150.303 36.301 150.244 36.3738C150.031 36.7251 149.582 36.9136 149.343 37.3548L149.112 37.7832L149.488 37.4833C149.77 37.2563 150.223 37.3291 150.625 37.3377C151.027 37.3424 151.423 37.4391 151.783 37.6204L151.881 37.6804L151.92 37.5776C151.971 37.4405 152.206 37.4191 152.398 37.4576C152.607 37.4986 152.812 37.5588 153.01 37.6376C153.41 37.7998 153.778 38.0335 154.095 38.3273C154.255 38.4612 154.385 38.6276 154.476 38.8156C154.52 38.8974 154.536 38.9914 154.522 39.0834C154.508 39.1754 154.465 39.2603 154.399 39.3254C154.226 39.4556 154.044 39.5744 153.856 39.6809L153.287 40.0365L152.535 40.5034L152.351 40.6148L152.557 40.6791C153.435 40.9535 154.203 41.4993 154.753 42.2384C155.106 42.3579 155.45 42.501 155.783 42.6668C155.843 42.7201 155.889 42.7866 155.918 42.861C155.947 42.9355 155.958 43.0156 155.95 43.0951C155.95 43.2536 155.865 43.3822 155.741 43.3736H155.433L155.681 43.5621C155.753 43.6226 155.81 43.6988 155.848 43.785C155.885 43.8712 155.903 43.965 155.899 44.059C155.894 44.1469 155.867 44.2322 155.821 44.307C155.774 44.3818 155.71 44.4439 155.634 44.4874C155.497 44.6831 155.296 44.8242 155.065 44.8858H155.035V44.9115C154.96 45.0107 154.861 45.0899 154.748 45.1422C154.634 45.1945 154.51 45.2182 154.386 45.2113L154.095 45.1856L154.313 45.3784C154.686 45.6774 154.98 46.0645 155.168 46.5051C155.255 46.7059 155.288 46.9262 155.262 47.1437C155.236 47.3612 155.154 47.568 155.023 47.7431V47.7688C155.006 47.849 154.973 47.9252 154.927 47.9928C154.881 48.0605 154.822 48.1183 154.753 48.1629L154.676 48.21L154.715 48.2914C154.771 48.3947 154.789 48.5145 154.766 48.6298V48.7069L154.843 48.7369C155.21 48.881 155.508 49.1598 155.676 49.5166C155.838 49.8621 155.861 50.2565 155.742 50.6188C155.623 50.9812 155.37 51.2842 155.035 51.4657C154.872 51.5334 154.691 51.5483 154.518 51.5086C154.443 51.499 154.373 51.4649 154.319 51.4115C154.265 51.358 154.23 51.2883 154.219 51.213L154.198 50.8403L154.04 51.1787C153.959 51.3459 153.839 51.4912 153.69 51.6023C153.541 51.7133 153.368 51.787 153.185 51.817H153.044L153.112 51.9369C153.18 52.075 153.218 52.2256 153.226 52.3793C153.233 52.5329 153.208 52.6865 153.154 52.8303C153.099 52.9741 153.016 53.1051 152.909 53.2153C152.802 53.3254 152.673 53.4123 152.531 53.4706L152.368 53.522L152.505 53.6333C152.643 53.772 152.745 53.9425 152.802 54.1298C152.859 54.3171 152.87 54.5155 152.833 54.7078C152.795 54.9001 152.712 55.0803 152.589 55.2328C152.467 55.3853 152.309 55.5053 152.129 55.5825L152.039 55.6125L152.069 55.7024C152.139 55.9331 152.117 56.1818 152.008 56.3966C151.899 56.6114 151.711 56.7755 151.484 56.8548C151.263 56.9104 151.029 56.8837 150.826 56.7797C150.624 56.6757 150.465 56.5015 150.381 56.2893L150.313 56.088L150.214 56.2765C150.069 56.642 149.817 56.9554 149.492 57.1761C149.18 57.3388 148.719 57.2446 148.637 56.949L148.552 56.692L148.471 56.949C148.4 57.1207 148.293 57.2749 148.156 57.4011C148.02 57.5272 147.859 57.6223 147.682 57.6797C147.506 57.7371 147.319 57.7555 147.135 57.7337C146.951 57.7118 146.774 57.6502 146.616 57.553L146.471 57.4459V57.6259C146.469 57.8307 146.391 58.0275 146.252 58.1774C146.112 58.3273 145.922 58.4194 145.718 58.4355C145.525 58.4361 145.338 58.3692 145.189 58.2464C145.04 58.1237 144.939 57.9527 144.902 57.7629V57.6944H144.825H142.556C141.83 57.7329 141.105 57.6296 140.419 57.3902C140.088 57.2585 139.777 57.0843 139.491 56.8719C139.356 56.7542 139.213 56.6454 139.064 56.5463C138.887 56.4555 138.683 56.4326 138.491 56.4821C138.159 56.5914 137.817 56.6674 137.47 56.7091C137.131 56.7387 136.79 56.7185 136.457 56.6491C135.8 56.5224 135.193 56.212 134.704 55.7538C134.587 55.625 134.452 55.5139 134.303 55.424C134.145 55.3454 133.971 55.3044 133.794 55.304C133.47 55.3052 133.146 55.2866 132.824 55.2483C132.509 55.206 132.198 55.1416 131.892 55.0556C131.596 54.9833 131.317 54.849 131.076 54.6615C130.96 54.5774 130.869 54.4632 130.812 54.3311C130.756 54.1991 130.736 54.0541 130.755 53.9118C130.762 53.7757 130.817 53.6465 130.91 53.5475C131.003 53.4485 131.129 53.3862 131.264 53.372H131.208V53.3078C131.243 53.0538 131.195 52.7955 131.072 52.5709C131.009 52.4586 130.918 52.3645 130.807 52.2977C130.697 52.2309 130.572 52.1937 130.443 52.1897C130.313 52.1789 130.184 52.2166 130.08 52.2957C129.975 52.3747 129.904 52.4895 129.879 52.6181C129.854 52.7429 129.878 52.8728 129.947 52.9801C130.015 53.0873 130.123 53.1634 130.247 53.1921L130.217 53.0764C130.09 53.1512 129.944 53.1862 129.797 53.177C129.65 53.1679 129.509 53.115 129.392 53.025C129.27 52.9468 129.171 52.839 129.102 52.7117C129.033 52.5843 128.998 52.4416 128.999 52.2968C129.039 52.0155 129.178 51.7579 129.391 51.5708C129.605 51.3837 129.878 51.2795 130.161 51.2772H130.238V51.2044C130.119 50.7654 130.107 50.3039 130.204 49.8593L130.26 49.6194L130.102 49.8122C129.946 49.9947 129.728 50.1116 129.49 50.1394C129.252 50.1672 129.013 50.1039 128.819 49.9621L128.772 49.9235L128.742 49.975C128.545 50.2938 128.254 50.5437 127.909 50.6904C127.748 50.7578 127.573 50.7852 127.399 50.7703C127.224 50.7554 127.056 50.6986 126.909 50.6047C126.768 50.524 126.657 50.3987 126.594 50.2483C126.532 50.098 126.521 49.931 126.563 49.7736C126.599 49.6265 126.683 49.4959 126.803 49.4032C126.922 49.3106 127.07 49.2615 127.221 49.2638H127.311L127.264 49.1867C127.2 49.057 127.171 48.9132 127.177 48.7688C127.184 48.6245 127.227 48.4842 127.303 48.3611C127.378 48.238 127.484 48.136 127.609 48.0646C127.735 47.9933 127.876 47.9549 128.02 47.953H128.067V47.9016C128.028 47.6036 128.087 47.3009 128.236 47.04C128.385 46.7791 128.616 46.5746 128.892 46.4579L128.862 46.4023C128.773 46.45 128.674 46.4779 128.573 46.4841C128.472 46.4903 128.371 46.4745 128.276 46.4379C128.182 46.4013 128.096 46.3448 128.025 46.2721C127.955 46.1994 127.9 46.1123 127.866 46.0167V45.9567L127.832 46.0081C127.77 46.0983 127.688 46.1726 127.592 46.2247C127.497 46.2768 127.39 46.3054 127.281 46.308C127.086 46.3126 126.892 46.2821 126.708 46.218C126.423 46.1163 126.168 45.9456 125.964 45.7211C125.85 45.5775 125.787 45.3995 125.785 45.2156C125.746 45.1257 125.764 45.0657 125.759 45.0657Z" fill="#8CBF43"/>
<path d="M146.466 46.9292C146.519 45.9598 146.376 44.9899 146.046 44.0772C145.716 43.1646 145.205 42.328 144.546 41.6174C143.886 40.9068 143.09 40.3369 142.205 39.9416C141.321 39.5463 140.366 39.3338 139.397 39.3168C137.517 39.2838 135.695 39.9674 134.299 41.2294C132.903 42.4914 132.036 44.2377 131.875 46.1152C131.58 49.478 131.358 52.8708 131.448 54.0917C131.73 57.7715 134.012 59.0652 134.931 59.4379C135.257 59.5314 135.593 59.5902 135.931 59.6136C135.938 59.6155 135.943 59.6194 135.947 59.6249C135.951 59.6303 135.953 59.6369 135.953 59.6435L135.393 63.9274C135.196 66.7247 134.585 76.2262 137.418 76.449C140.252 76.6717 144.684 67.2645 144.928 64.4543L146.466 46.9292Z" fill="#FFBE9D"/>
<path d="M132.986 48.7799C132.972 48.9332 133.019 49.086 133.117 49.2048C133.214 49.3236 133.355 49.3988 133.508 49.414C133.583 49.4262 133.659 49.4234 133.733 49.4058C133.806 49.3883 133.876 49.3562 133.937 49.3116C133.998 49.267 134.05 49.2107 134.089 49.1459C134.128 49.0811 134.155 49.0091 134.166 48.9342C134.177 48.7809 134.128 48.6294 134.03 48.5112C133.932 48.3931 133.793 48.3174 133.64 48.3002C133.566 48.288 133.49 48.2908 133.416 48.3084C133.343 48.326 133.274 48.3581 133.213 48.4027C133.152 48.4474 133.101 48.5037 133.062 48.5685C133.023 48.6333 132.997 48.7051 132.986 48.7799Z" fill="black"/>
<path d="M132.803 47.0576C132.871 47.139 133.345 46.8477 133.986 46.8991C134.628 46.9505 135.068 47.3018 135.145 47.229C135.222 47.1561 135.119 47.0533 134.927 46.8905C134.662 46.6827 134.343 46.5575 134.008 46.5307C133.675 46.505 133.342 46.5827 133.055 46.7535C132.845 46.8863 132.768 47.019 132.803 47.0576Z" fill="black"/>
<path d="M138.957 49.2639C138.945 49.4178 138.993 49.5704 139.091 49.6895C139.189 49.8086 139.33 49.8849 139.483 49.9022C139.557 49.9143 139.634 49.9116 139.707 49.894C139.781 49.8765 139.85 49.8444 139.912 49.7998C139.973 49.7552 140.025 49.6989 140.064 49.6341C140.103 49.5693 140.129 49.4973 140.141 49.4224C140.153 49.2684 140.105 49.1158 140.007 48.9967C139.909 48.8776 139.768 48.8014 139.615 48.7841C139.541 48.7719 139.464 48.7746 139.391 48.7922C139.317 48.8098 139.247 48.8418 139.186 48.8864C139.125 48.931 139.073 48.9873 139.034 49.0521C138.995 49.1169 138.968 49.1889 138.957 49.2639Z" fill="black"/>
<path d="M139.077 47.6661C139.145 47.7475 139.624 47.4562 140.261 47.5076C140.897 47.559 141.342 47.9103 141.419 47.8374C141.496 47.7646 141.393 47.6618 141.201 47.499C140.939 47.2874 140.618 47.1618 140.282 47.1392C139.95 47.1117 139.618 47.1897 139.333 47.3619C139.124 47.4947 139.042 47.6275 139.077 47.6661Z" fill="black"/>
<path d="M136.371 52.1513C136.041 52.0224 135.697 51.9332 135.346 51.8857C135.187 51.8557 135.034 51.8129 135.017 51.7015C135.015 51.5345 135.066 51.3711 135.162 51.2346L135.747 50.048C136.564 48.3344 137.166 46.9636 137.098 46.9293C137.03 46.8951 136.312 48.2445 135.495 49.928L134.931 51.1232C134.812 51.3086 134.764 51.5305 134.794 51.7486C134.813 51.8077 134.845 51.8617 134.888 51.9062C134.931 51.9508 134.984 51.9849 135.042 52.0057C135.132 52.0357 135.225 52.0558 135.32 52.0656C135.665 52.1411 136.019 52.17 136.371 52.1513Z" fill="black"/>
<path d="M135.961 59.618C135.961 59.618 138.41 60.0079 141.65 58.4229C141.457 58.5214 140.521 62.1369 135.807 60.7704L135.961 59.618Z" fill="#EB996E"/>
<path d="M136.517 53.6889C136.652 53.5485 136.82 53.4441 137.006 53.385C137.192 53.3259 137.389 53.3141 137.581 53.3505C137.72 53.3717 137.853 53.4205 137.972 53.4941C138.092 53.5677 138.196 53.6645 138.278 53.7789C138.356 53.8888 138.398 54.0206 138.398 54.1559C138.398 54.2911 138.356 54.423 138.278 54.5329C138.165 54.6377 138.023 54.707 137.871 54.7322C137.719 54.7573 137.563 54.7371 137.423 54.6742C137.13 54.5472 136.865 54.3622 136.645 54.1302C136.577 54.0743 136.52 54.006 136.478 53.9288C136.457 53.893 136.447 53.8513 136.451 53.8097C136.455 53.7681 136.472 53.7288 136.5 53.6975" fill="#EB996E"/>
<path d="M138.218 52.7336C138.111 52.7336 138.055 53.4019 137.418 53.8431C136.782 54.2844 136.055 54.1473 136.042 54.2415C136.029 54.3358 136.196 54.3872 136.504 54.4215C136.91 54.46 137.316 54.3555 137.653 54.1259C137.975 53.9084 138.199 53.5732 138.277 53.192C138.329 52.9093 138.265 52.7336 138.218 52.7336Z" fill="black"/>
<path d="M139.098 45.6271C139.149 45.8027 139.79 45.7727 140.534 45.9184C141.278 46.064 141.868 46.3168 141.979 46.1711C142.03 46.1026 141.94 45.9312 141.709 45.7427C141.399 45.5098 141.039 45.3528 140.658 45.2843C140.278 45.2118 139.886 45.2265 139.513 45.3272C139.226 45.4086 139.077 45.5457 139.098 45.6271Z" fill="black"/>
<path d="M133.132 45.4085C133.23 45.5627 133.683 45.4471 134.213 45.4813C134.743 45.5156 135.183 45.6527 135.299 45.5113C135.35 45.4428 135.299 45.2928 135.106 45.1429C134.855 44.9589 134.555 44.8531 134.244 44.8386C133.934 44.8242 133.625 44.9017 133.358 45.0615C133.162 45.19 133.085 45.3314 133.132 45.4085Z" fill="black"/>
<path d="M130.896 41.6731C130.911 41.4669 130.941 41.2621 130.986 41.0605C131.097 40.763 131.285 40.5 131.529 40.2979C132.303 39.5311 133.123 38.7429 134.093 38.4902C134.692 38.336 135.311 38.3916 135.91 38.246C136.279 38.1329 136.641 37.9999 136.995 37.8476C138.483 37.3616 140.072 37.2759 141.603 37.5991C142.47 37.7172 143.31 37.99 144.081 38.4045C144.93 38.9495 145.68 39.6346 146.3 40.4307C147.349 41.6075 148.187 42.9585 148.774 44.4233C149.254 45.6189 149.377 46.9285 149.129 48.193C148.834 49.4482 147.949 50.5748 146.864 50.7633L146.488 50.2493L145.881 49.4825C145.983 49.7909 145.881 49.7652 145.629 49.9108C145.565 49.9442 145.494 49.9637 145.423 49.9683C145.351 49.9728 145.279 49.9622 145.211 49.9372C145.143 49.9122 145.082 49.8733 145.03 49.823C144.978 49.7728 144.938 49.7122 144.911 49.6452C144.693 49.8937 144.265 49.5853 144.355 49.2468C144.103 49.3625 143.812 49.0069 143.928 48.7071C143.637 48.7928 143.5 48.3215 143.385 48.0045C143.312 47.8367 143.23 47.6736 143.137 47.5162C142.873 46.9861 142.762 46.3926 142.816 45.8027C142.523 45.2814 142.387 44.6863 142.423 44.0891C142.423 43.7121 142.393 43.3352 142.38 42.9582C142.316 42.864 142.256 42.7697 142.192 42.6797C142.183 42.8063 142.135 42.9269 142.054 43.025C141.974 43.1231 141.866 43.1941 141.744 43.2281C141.515 43.2652 141.281 43.2415 141.064 43.1595L140.41 42.9753L139.983 43.061C140.027 43.4305 139.947 43.8043 139.756 44.1234C139.687 44.361 139.535 44.566 139.329 44.7017C139.274 44.7248 139.214 44.732 139.155 44.7224C139.097 44.7128 139.042 44.6868 138.997 44.6475C138.953 44.6081 138.92 44.557 138.903 44.4999C138.886 44.4428 138.886 44.3821 138.901 44.3247C138.86 44.3574 138.812 44.3803 138.76 44.3916C138.708 44.4029 138.655 44.4023 138.603 44.3899C138.552 44.3776 138.504 44.3537 138.463 44.3202C138.422 44.2866 138.389 44.2443 138.367 44.1962C138.262 43.9779 138.23 43.7319 138.273 43.4937C138.334 42.912 138.566 42.3616 138.94 41.9129L137.692 42.9068C137.611 42.9884 137.506 43.0424 137.393 43.061C137.394 43.1062 137.385 43.151 137.367 43.1924C137.349 43.2338 137.322 43.2707 137.288 43.3005C137.255 43.3304 137.215 43.3524 137.171 43.365C137.128 43.3777 137.083 43.3806 137.038 43.3737C136.87 43.3122 136.727 43.1961 136.632 43.0439C136.376 42.7226 136.119 42.1871 136.397 41.8787C136.365 41.8614 136.337 41.8373 136.314 41.808C136.292 41.7787 136.277 41.7449 136.269 41.709C136.262 41.6732 136.262 41.636 136.27 41.6002C136.278 41.5644 136.293 41.5308 136.316 41.5017L134.918 42.397C135.055 42.3328 135.183 42.547 135.14 42.7183C135.084 42.8734 134.975 43.0037 134.833 43.0867C134.936 43.2825 134.972 43.5067 134.935 43.725C135.187 43.5279 135.512 43.9563 135.41 44.2905C135.353 44.4401 135.251 44.5678 135.117 44.6549C134.983 44.742 134.825 44.7839 134.666 44.7745C134.537 44.786 134.409 44.7482 134.307 44.6688C134.204 44.5893 134.136 44.4741 134.115 44.3462C133.82 44.3847 133.572 43.9649 133.687 43.6479C133.465 43.7678 133.311 43.378 133.324 43.091C133.347 42.5911 133.458 42.0993 133.653 41.6388C133.646 41.6462 133.638 41.6521 133.629 41.6561C133.62 41.6602 133.61 41.6623 133.6 41.6623C133.59 41.6623 133.58 41.6602 133.571 41.6561C133.561 41.6521 133.553 41.6462 133.546 41.6388C133.531 41.624 133.522 41.6042 133.521 41.5831L132.687 43.2195C132.422 43.6754 132.242 44.1764 132.157 44.6974C132.136 44.9116 132.089 45.2072 131.905 45.2115C131.854 45.2103 131.805 45.1939 131.764 45.1644C131.248 44.8079 130.869 44.2847 130.691 43.6822C130.614 43.4733 130.571 43.2535 130.563 43.031C130.636 42.5699 130.748 42.1157 130.896 41.6731Z" fill="black"/>
<path d="M145.761 49.0797C145.825 49.0797 148.325 48.4928 148.086 50.9989C147.847 53.5049 145.389 52.751 145.389 52.6781C145.389 52.6053 145.761 49.0797 145.761 49.0797Z" fill="#FFBE9D"/>
<path d="M146.244 51.8042C146.244 51.8042 146.287 51.8385 146.355 51.877C146.454 51.9325 146.571 51.9464 146.68 51.9156C146.851 51.828 146.995 51.6966 147.099 51.5348C147.202 51.373 147.261 51.1866 147.27 50.9946C147.298 50.78 147.278 50.5617 147.21 50.3563C147.193 50.2758 147.157 50.2006 147.105 50.1371C147.053 50.0737 146.986 50.0239 146.911 49.9922C146.863 49.9731 146.809 49.9721 146.761 49.9894C146.712 50.0068 146.671 50.0412 146.646 50.0864C146.603 50.1507 146.616 50.2021 146.603 50.2063C146.59 50.2106 146.552 50.1592 146.603 50.0564C146.625 49.9967 146.665 49.9456 146.718 49.9108C146.791 49.8657 146.878 49.8504 146.962 49.8679C147.064 49.8968 147.157 49.9514 147.231 50.0264C147.306 50.1013 147.361 50.1943 147.389 50.2963C147.475 50.5244 147.504 50.7698 147.475 51.0117C147.466 51.2359 147.391 51.4523 147.259 51.6338C147.128 51.8152 146.945 51.9536 146.735 52.0313C146.667 52.0443 146.597 52.0419 146.529 52.0241C146.462 52.0063 146.4 51.9736 146.347 51.9284C146.244 51.8642 146.235 51.8042 146.244 51.8042Z" fill="#EB996E"/>
<path d="M136.692 41.0989C136.613 41.0039 136.564 40.8877 136.551 40.7648C136.544 40.6962 136.553 40.6268 136.578 40.5627C136.604 40.4986 136.644 40.4415 136.696 40.3963C136.762 40.3394 136.842 40.3013 136.928 40.2862C137.014 40.2712 137.102 40.2796 137.183 40.3107L137.286 40.3578L137.252 40.2507C137.217 40.1479 137.218 40.0361 137.256 39.9342C137.294 39.8323 137.365 39.7467 137.459 39.6917C137.552 39.6368 137.662 39.6159 137.769 39.6327C137.876 39.6495 137.974 39.7028 138.047 39.7838L138.136 39.7109C138.121 39.6922 138.111 39.6702 138.107 39.6467C138.099 39.6061 138.101 39.5644 138.111 39.5245C138.122 39.4846 138.14 39.4473 138.166 39.4154C138.193 39.3831 138.225 39.3567 138.262 39.3375C138.298 39.3183 138.339 39.3069 138.38 39.304C138.465 39.2924 138.552 39.3028 138.632 39.334C138.716 39.3821 138.809 39.4113 138.906 39.4196C139.025 39.4196 139.09 39.3254 139.154 39.2911C139.217 39.2468 139.286 39.2121 139.359 39.1883C139.489 39.1421 139.627 39.1217 139.765 39.1283C139.97 39.1381 140.168 39.2049 140.338 39.3211C140.457 39.4025 140.508 39.4668 140.517 39.4625C140.526 39.4582 140.483 39.3854 140.363 39.2868C140.196 39.1485 139.99 39.0661 139.773 39.0512C139.622 39.036 139.469 39.052 139.325 39.0983C139.245 39.1252 139.169 39.1611 139.098 39.2054C139.021 39.2526 138.961 39.3168 138.901 39.3168C138.82 39.3034 138.741 39.2743 138.671 39.2311C138.574 39.1944 138.47 39.1812 138.367 39.1926C138.254 39.202 138.15 39.2559 138.077 39.3425C138.041 39.389 138.016 39.4423 138.002 39.499C137.988 39.5558 137.986 39.6148 137.995 39.6724C138.005 39.7105 138.021 39.7467 138.042 39.7795L138.132 39.7067C138.043 39.6112 137.925 39.5486 137.796 39.5292C137.667 39.5097 137.536 39.5346 137.423 39.5996C137.31 39.6646 137.222 39.7661 137.174 39.8874C137.126 40.0087 137.12 40.1428 137.158 40.2678L137.222 40.2079C137.125 40.1695 137.019 40.1596 136.917 40.1793C136.815 40.199 136.72 40.2476 136.645 40.3192C136.552 40.4099 136.497 40.5322 136.491 40.6616C136.485 40.7911 136.527 40.9182 136.611 41.0175C136.658 41.086 136.688 41.1246 136.692 41.0989Z" fill="#8CBF43"/>
<path d="M133.833 41.5875C133.744 41.4934 133.681 41.3784 133.649 41.2533C133.629 41.1816 133.624 41.1066 133.634 41.0329C133.644 40.9591 133.67 40.8883 133.709 40.8249C133.759 40.7431 133.827 40.6744 133.909 40.6245C133.991 40.5746 134.083 40.5449 134.179 40.5379H134.26L134.209 40.4694C134.137 40.3831 134.087 40.2809 134.064 40.1713C134.04 40.0617 134.043 39.9479 134.072 39.8397C134.092 39.7848 134.124 39.7354 134.167 39.6952C134.209 39.6551 134.26 39.6253 134.316 39.6083C134.371 39.5859 134.433 39.5809 134.491 39.5939C134.55 39.6069 134.603 39.6373 134.645 39.6812L134.935 40.0453L134.739 39.6169C134.703 39.5398 134.684 39.4557 134.684 39.3706C134.684 39.2855 134.703 39.2014 134.739 39.1243C134.779 39.0421 134.839 38.9714 134.914 38.919C134.988 38.8665 135.075 38.834 135.166 38.8244C135.295 38.8064 135.426 38.832 135.538 38.8972L135.662 38.97L135.623 38.8287C135.564 38.6316 135.777 38.4003 135.974 38.4003C136.184 38.4021 136.388 38.4728 136.555 38.6016L136.658 38.6702L136.632 38.5502C136.624 38.4759 136.636 38.4009 136.666 38.3325C136.696 38.2641 136.743 38.2048 136.803 38.1604C136.919 38.076 137.057 38.0282 137.2 38.0233C137.442 38.0016 137.686 38.0278 137.918 38.1004C138.123 38.1677 138.32 38.2582 138.504 38.3703C138.504 38.3703 138.466 38.3232 138.371 38.2589C138.24 38.167 138.096 38.0935 137.944 38.0404C137.707 37.9578 137.456 37.9228 137.205 37.9376C137.043 37.9422 136.886 37.9927 136.752 38.0833C136.676 38.1371 136.617 38.2107 136.58 38.2961C136.543 38.3814 136.53 38.4752 136.542 38.5674L136.619 38.516C136.435 38.3718 136.208 38.2934 135.974 38.2932C135.841 38.3027 135.718 38.3624 135.628 38.4603C135.579 38.5114 135.544 38.5737 135.525 38.6417C135.507 38.7098 135.505 38.7813 135.521 38.8501L135.606 38.7858C135.471 38.7066 135.312 38.6763 135.158 38.7002C135.051 38.7148 134.949 38.7557 134.862 38.8193C134.775 38.8828 134.704 38.967 134.657 39.0643C134.615 39.1563 134.593 39.2564 134.593 39.3577C134.593 39.459 134.615 39.5591 134.657 39.6512L134.751 39.5955C134.697 39.5404 134.628 39.5013 134.553 39.4825C134.477 39.4636 134.398 39.4657 134.324 39.4884C134.252 39.5106 134.187 39.5493 134.133 39.6014C134.079 39.6534 134.037 39.7174 134.012 39.7882C133.98 39.9128 133.978 40.0433 134.007 40.1686C134.036 40.294 134.095 40.4104 134.179 40.5079L134.213 40.4351C134.105 40.443 134 40.4776 133.908 40.5359C133.817 40.5943 133.741 40.6744 133.687 40.7692C133.648 40.8406 133.624 40.9191 133.616 41C133.608 41.081 133.616 41.1628 133.64 41.2405C133.666 41.3381 133.718 41.4269 133.79 41.4975C133.798 41.5301 133.812 41.5607 133.833 41.5875Z" fill="#8CBF43"/>
<path d="M127.759 41.5916C127.767 41.5329 127.786 41.4763 127.816 41.4255C127.846 41.3746 127.887 41.3305 127.935 41.2961C128.045 41.213 128.183 41.1761 128.319 41.1933C128.502 41.2194 128.678 41.2774 128.841 41.3646L128.901 41.3946V41.3261C128.913 41.2169 128.962 41.1152 129.04 41.0374C129.118 40.9597 129.219 40.9104 129.328 40.8977C129.603 40.8877 129.876 40.956 130.114 41.0947L130.452 41.2575L130.174 41.0091C130.141 40.9667 130.116 40.918 130.102 40.8658C130.088 40.8137 130.084 40.7592 130.091 40.7057C130.098 40.6521 130.116 40.6005 130.144 40.554C130.171 40.5075 130.208 40.4671 130.251 40.435C130.357 40.3696 130.474 40.3267 130.597 40.309C130.72 40.2913 130.845 40.2992 130.965 40.3322H130.999L131.217 40.3708L131.046 40.2294C131.001 40.1817 130.967 40.1241 130.947 40.0612C130.928 39.9983 130.923 39.9317 130.933 39.8666C130.944 39.8016 130.969 39.7398 131.007 39.686C131.045 39.6323 131.095 39.5881 131.153 39.5568C131.272 39.5053 131.403 39.4903 131.53 39.514C131.657 39.5377 131.774 39.5988 131.867 39.6896L132.08 39.891L131.948 39.6297C131.873 39.4719 131.842 39.2972 131.857 39.1233C131.872 38.9494 131.933 38.7827 132.033 38.6401C132.116 38.5307 132.221 38.4409 132.343 38.3772C132.464 38.3135 132.598 38.2775 132.734 38.2717C132.917 38.2629 133.098 38.3028 133.26 38.3874C133.371 38.4473 133.422 38.4945 133.427 38.4902C133.431 38.4859 133.427 38.4902 133.392 38.4473C133.357 38.4141 133.318 38.384 133.277 38.3574C133.114 38.2576 132.925 38.207 132.734 38.2117C132.586 38.2107 132.439 38.2442 132.305 38.3096C132.172 38.3751 132.055 38.4706 131.965 38.5887C131.85 38.7429 131.778 38.9256 131.759 39.1173C131.739 39.309 131.772 39.5024 131.854 39.6768L131.935 39.6125C131.826 39.5009 131.685 39.426 131.532 39.3983C131.379 39.3707 131.221 39.3916 131.08 39.4583C131.008 39.4985 130.945 39.5543 130.897 39.6218C130.849 39.6892 130.817 39.7665 130.802 39.8481C130.783 39.9333 130.788 40.022 130.815 40.105C130.842 40.1879 130.891 40.262 130.956 40.3194L131.003 40.2208H130.969C130.833 40.1855 130.692 40.1791 130.553 40.2019C130.415 40.2248 130.283 40.2765 130.166 40.3536C130.058 40.4437 129.986 40.5701 129.965 40.7092C129.952 40.7777 129.957 40.8482 129.977 40.9147C129.998 40.9811 130.035 41.0414 130.084 41.0904L130.144 41.0048C129.886 40.8545 129.588 40.7858 129.289 40.8077C129.157 40.8247 129.034 40.8882 128.943 40.987C128.853 41.0857 128.8 41.2134 128.794 41.3475L128.849 41.3089C128.677 41.2205 128.49 41.1653 128.298 41.1461C128.144 41.1317 127.991 41.1778 127.871 41.2746C127.797 41.3349 127.746 41.4178 127.725 41.5103C127.73 41.5396 127.742 41.5675 127.759 41.5916Z" fill="#8CBF43"/>
<path d="M131.414 36.1085C131.414 36.1085 131.456 36.147 131.559 36.177C131.699 36.2132 131.842 36.2333 131.986 36.237C132.202 36.2339 132.415 36.2854 132.606 36.3869C132.659 36.4169 132.704 36.4588 132.738 36.5094C132.773 36.5599 132.795 36.6177 132.803 36.6782C132.817 36.7399 132.811 36.8046 132.786 36.8625C132.76 36.9205 132.717 36.9686 132.662 36.9995L132.734 37.0638C132.768 36.9181 132.956 36.841 133.123 36.7596C133.295 36.6723 133.48 36.6116 133.67 36.5797C133.763 36.5627 133.857 36.5654 133.949 36.5876C134.04 36.6097 134.126 36.6508 134.2 36.7082C134.271 36.7525 134.328 36.8167 134.363 36.8928C134.397 36.969 134.409 37.0537 134.397 37.1366L134.367 37.2737L134.482 37.188C134.704 37.029 134.97 36.945 135.243 36.9481C135.459 36.9498 135.672 36.9995 135.867 37.0937C136.034 37.1896 136.188 37.3078 136.324 37.445C136.304 37.3973 136.275 37.3538 136.239 37.3165C136.145 37.2016 136.028 37.1069 135.897 37.0381C135.698 36.9268 135.475 36.8651 135.247 36.8581C134.951 36.8482 134.66 36.9354 134.418 37.1066L134.504 37.158C134.518 37.0538 134.504 36.9475 134.463 36.8508C134.421 36.7541 134.354 36.6707 134.269 36.6097C134.182 36.5444 134.083 36.4972 133.978 36.4707C133.874 36.4442 133.764 36.439 133.657 36.4555C133.454 36.4899 133.258 36.5564 133.076 36.6525C132.988 36.6923 132.902 36.7381 132.82 36.7896C132.728 36.8429 132.66 36.9284 132.627 37.0295V37.1323L132.721 37.0895C132.797 37.0495 132.857 36.9861 132.893 36.9089C132.929 36.8316 132.94 36.7447 132.922 36.6611C132.91 36.5869 132.882 36.5163 132.839 36.4548C132.796 36.3932 132.74 36.3421 132.674 36.3055C132.468 36.2018 132.238 36.1546 132.008 36.1684C131.865 36.1723 131.721 36.1622 131.58 36.1385C131.465 36.1256 131.418 36.1042 131.414 36.1085Z" fill="#8CBF43"/>
<path d="M137.192 34.4206C137.291 34.432 137.389 34.4551 137.483 34.4892C137.587 34.5336 137.68 34.6026 137.752 34.6905C137.844 34.8026 137.896 34.9433 137.897 35.0889V35.1489H137.957C138.043 35.1404 138.129 35.1622 138.201 35.2107C138.273 35.2592 138.326 35.3312 138.35 35.4145C138.397 35.6218 138.387 35.838 138.32 36.0399L138.265 36.2584L138.419 36.0913L138.444 36.0613C138.497 36.0108 138.561 35.9733 138.63 35.9517C138.7 35.9301 138.774 35.9251 138.846 35.9371C138.915 35.9438 138.982 35.9643 139.043 35.9974C139.104 36.0305 139.157 36.0755 139.201 36.1299C139.275 36.2257 139.329 36.3364 139.358 36.4546C139.386 36.5728 139.39 36.6957 139.367 36.8153C139.335 36.9742 139.279 37.1272 139.201 37.2694C139.167 37.3237 139.138 37.381 139.115 37.4407C139.115 37.4407 139.171 37.3936 139.239 37.2908C139.34 37.1435 139.412 36.9775 139.449 36.8024C139.479 36.6699 139.479 36.5323 139.45 36.3996C139.42 36.267 139.361 36.1426 139.278 36.0356C139.224 35.9678 139.157 35.9117 139.081 35.8708C139.005 35.8299 138.921 35.805 138.835 35.7978C138.749 35.7906 138.662 35.8011 138.58 35.8288C138.498 35.8564 138.423 35.9006 138.359 35.9585L138.329 35.9928L138.431 36.0399C138.504 35.8169 138.512 35.5774 138.453 35.3502C138.418 35.2439 138.348 35.1533 138.253 35.0944C138.158 35.0356 138.046 35.0124 137.936 35.0289L137.995 35.076C137.984 34.9166 137.919 34.7657 137.812 34.6477C137.727 34.5568 137.621 34.4877 137.504 34.4463C137.43 34.4192 137.352 34.4075 137.273 34.4121C137.218 34.4078 137.192 34.4163 137.192 34.4206Z" fill="#8CBF43"/>
<path d="M141.829 38.2802C141.878 38.2906 141.929 38.2906 141.979 38.2802C142.113 38.237 142.237 38.1654 142.342 38.0703C142.498 37.924 142.604 37.7322 142.645 37.522C142.649 37.4139 142.684 37.3094 142.748 37.2221C142.821 37.1493 142.962 37.1107 143.056 36.9865C143.144 36.8709 143.185 36.7262 143.171 36.5815C143.156 36.4367 143.088 36.3029 142.979 36.2068V36.2925C143.205 36.1273 143.389 35.9117 143.517 35.6628C143.575 35.5706 143.612 35.4667 143.624 35.3586C143.624 35.3586 143.569 35.4657 143.466 35.6328C143.323 35.8584 143.137 36.0534 142.919 36.2068L142.863 36.2454L142.919 36.2925C143.002 36.3715 143.054 36.4786 143.063 36.5933C143.073 36.7079 143.04 36.822 142.97 36.9137C142.906 37.0079 142.778 37.0422 142.675 37.1407C142.595 37.2452 142.55 37.3728 142.547 37.5048C142.513 37.695 142.424 37.871 142.291 38.0103C142.154 38.1265 141.997 38.2178 141.829 38.2802Z" fill="#8CBF43"/>
<path d="M143.197 39.4111C143.197 39.4111 143.227 39.4111 143.286 39.4111C143.377 39.422 143.469 39.422 143.56 39.4111C143.881 39.3744 144.182 39.2329 144.415 39.0084H144.342C144.415 39.1185 144.508 39.213 144.618 39.2865C144.727 39.36 144.85 39.4111 144.979 39.4368C145.12 39.4673 145.265 39.4673 145.406 39.4368C145.562 39.4043 145.699 39.314 145.791 39.184C145.821 39.1241 145.829 39.0684 145.851 39.0255C145.868 38.9867 145.894 38.9527 145.928 38.927C146.012 38.8785 146.105 38.8465 146.201 38.8328C146.305 38.8172 146.406 38.7854 146.5 38.7385C146.552 38.7145 146.596 38.6772 146.628 38.6306C146.66 38.5839 146.68 38.5295 146.684 38.4729L146.607 38.5158C146.82 38.6235 147.064 38.6509 147.295 38.5929C147.473 38.5524 147.637 38.4685 147.774 38.3487C147.86 38.2706 147.931 38.1778 147.983 38.0745C148.018 37.9974 148.026 37.9589 148.022 37.9546C147.948 38.0862 147.851 38.2037 147.736 38.3016C147.602 38.4059 147.445 38.4765 147.278 38.5072C147.069 38.5535 146.849 38.5247 146.659 38.4258L146.586 38.3873V38.4686C146.58 38.5068 146.565 38.5429 146.542 38.5736C146.519 38.6044 146.489 38.6287 146.453 38.6443C146.369 38.6861 146.278 38.7136 146.184 38.7257C146.072 38.7379 145.964 38.7744 145.868 38.8328C145.815 38.8705 145.773 38.9224 145.748 38.9827C145.735 39.0326 145.718 39.0813 145.697 39.1284C145.619 39.2308 145.507 39.301 145.381 39.3254C145.257 39.3534 145.128 39.3534 145.005 39.3254C144.774 39.2877 144.568 39.1598 144.432 38.9699L144.398 38.9227L144.359 38.9613C144.137 39.1836 143.852 39.333 143.543 39.3897C143.329 39.4111 143.197 39.3854 143.197 39.4111Z" fill="#8CBF43"/>
<path d="M151.817 43.652C151.819 43.6392 151.819 43.6262 151.817 43.6134C151.828 43.5755 151.837 43.5369 151.843 43.4978C151.872 43.3464 151.872 43.1908 151.843 43.0394C151.788 42.8093 151.703 42.5875 151.591 42.3797C151.529 42.2465 151.456 42.1189 151.373 41.9984C151.322 41.9321 151.26 41.8755 151.189 41.8313C151.148 41.8048 151.102 41.7885 151.053 41.7841C151.005 41.7796 150.956 41.787 150.911 41.8056L150.979 41.8613C151.006 41.7141 150.989 41.5622 150.93 41.4248C150.871 41.2873 150.773 41.1704 150.647 41.0889C150.522 41.0074 150.376 40.9648 150.226 40.9666C150.077 40.9683 149.932 41.0143 149.808 41.0988L149.898 41.1502C149.903 41.0702 149.89 40.9899 149.86 40.9157C149.83 40.8415 149.783 40.7752 149.723 40.7218C149.659 40.6661 149.582 40.6274 149.499 40.6095C149.416 40.5915 149.33 40.5948 149.249 40.619C149.157 40.6475 149.075 40.6992 149.009 40.769L149.108 40.8161C149.115 40.7662 149.11 40.7152 149.094 40.6674C149.078 40.6197 149.05 40.5766 149.013 40.5419C148.948 40.4725 148.86 40.4272 148.766 40.4134C148.597 40.3976 148.428 40.4256 148.274 40.4948L148.338 40.5205C148.24 40.3392 148.077 40.2026 147.881 40.1392C147.703 40.0753 147.511 40.0591 147.325 40.0921C147.011 40.1573 146.71 40.2761 146.436 40.4434L146.492 40.4991C146.509 40.4682 146.518 40.4336 146.518 40.3984C146.518 40.3632 146.509 40.3286 146.492 40.2977C146.46 40.2473 146.414 40.2071 146.359 40.1821C146.27 40.1299 146.168 40.1047 146.064 40.1093C145.907 40.1183 145.751 40.1515 145.603 40.2078C145.508 40.2395 145.418 40.2826 145.334 40.3363C145.304 40.3518 145.276 40.3721 145.252 40.3963C145.252 40.3963 145.376 40.3277 145.616 40.2506C145.761 40.2036 145.912 40.1777 146.064 40.1735C146.156 40.1755 146.246 40.2006 146.325 40.2463C146.406 40.2892 146.475 40.3791 146.423 40.4605L146.351 40.5805L146.479 40.5162C146.744 40.361 147.033 40.2496 147.334 40.1864C147.502 40.1629 147.674 40.1805 147.834 40.2378C148.004 40.2937 148.147 40.4134 148.231 40.5719L148.253 40.6147H148.3C148.435 40.5574 148.581 40.5325 148.727 40.5419C148.86 40.5419 148.996 40.6876 148.975 40.8161L148.941 41.0131L149.073 40.8632C149.122 40.8074 149.186 40.7672 149.257 40.7475C149.32 40.7275 149.388 40.724 149.453 40.7375C149.518 40.751 149.579 40.781 149.629 40.8247C149.676 40.8679 149.712 40.9212 149.736 40.9805C149.76 41.0398 149.77 41.1036 149.766 41.1674V41.2916L149.868 41.223C149.979 41.1466 150.11 41.1057 150.244 41.1057C150.379 41.1057 150.51 41.1466 150.62 41.223C150.718 41.2966 150.793 41.3952 150.839 41.5083C150.885 41.6214 150.9 41.7449 150.881 41.8656V41.9556L150.962 41.917C151.091 41.8571 151.232 41.9684 151.317 42.0755C151.4 42.189 151.473 42.3094 151.535 42.4354C151.65 42.6361 151.739 42.8506 151.8 43.0737C151.842 43.2636 151.848 43.4598 151.817 43.652Z" fill="#8CBF43"/>
<path d="M150.898 46.9121C150.898 46.9121 150.924 46.9121 150.962 46.8479C151.02 46.7795 151.071 46.7064 151.116 46.6294C151.193 46.5074 151.236 46.3668 151.24 46.2224C151.241 46.1299 151.219 46.0387 151.176 45.9568C151.129 45.8586 151.047 45.782 150.945 45.7426V45.8069C151.008 45.7299 151.047 45.6371 151.06 45.5387C151.073 45.4404 151.058 45.3405 151.018 45.25C150.968 45.1463 150.886 45.0611 150.785 45.0065C150.684 44.9519 150.568 44.9307 150.454 44.9458L150.501 45.0315C150.558 44.9609 150.591 44.8739 150.596 44.783C150.601 44.6921 150.576 44.6021 150.526 44.526C150.473 44.4503 150.403 44.3872 150.323 44.3413C150.242 44.2954 150.153 44.2678 150.061 44.2604C149.971 44.2604 149.881 44.2604 149.808 44.2604C149.774 44.2486 149.743 44.2289 149.718 44.2028C149.693 44.1768 149.674 44.1452 149.663 44.1105C149.635 44.019 149.593 43.9323 149.539 43.8535C149.476 43.7703 149.387 43.7102 149.287 43.6821C149.089 43.6386 148.887 43.617 148.684 43.6179C148.597 43.621 148.51 43.6062 148.428 43.5746C148.347 43.5429 148.272 43.495 148.21 43.4336C148.159 43.3694 148.124 43.2837 148.073 43.2023C148.021 43.1188 147.947 43.0508 147.86 43.0053C147.777 42.9642 147.686 42.9427 147.595 42.9427C147.503 42.9427 147.412 42.9642 147.33 43.0053L147.389 43.0824C147.444 43.0055 147.473 42.9134 147.473 42.8189C147.473 42.7245 147.444 42.6324 147.389 42.5555C147.29 42.4248 147.145 42.3362 146.983 42.307C146.734 42.272 146.481 42.2821 146.235 42.337C146.079 42.3697 145.926 42.4171 145.778 42.4784C145.724 42.4952 145.674 42.5213 145.629 42.5555C145.831 42.4878 146.038 42.4349 146.248 42.397C146.486 42.3535 146.729 42.3535 146.966 42.397C147.106 42.4217 147.23 42.5001 147.312 42.6154C147.358 42.6774 147.383 42.7525 147.383 42.8296C147.383 42.9068 147.358 42.9818 147.312 43.0438L147.176 43.2109L147.372 43.1166C147.439 43.0844 147.512 43.0676 147.586 43.0676C147.66 43.0676 147.733 43.0844 147.8 43.1166C147.871 43.1544 147.932 43.2106 147.975 43.2794C148.017 43.3624 148.064 43.4425 148.116 43.5193C148.186 43.5973 148.274 43.6563 148.372 43.6907C148.468 43.722 148.567 43.7407 148.667 43.7464C148.861 43.7485 149.054 43.7686 149.244 43.8063C149.322 43.8298 149.39 43.8761 149.441 43.9391C149.49 44.01 149.527 44.0881 149.552 44.1705C149.568 44.2215 149.596 44.2678 149.634 44.3052C149.672 44.3426 149.719 44.3699 149.77 44.3847C149.859 44.3984 149.949 44.407 150.039 44.4104C150.115 44.4147 150.188 44.4358 150.255 44.4721C150.321 44.5084 150.379 44.559 150.424 44.6203C150.464 44.6758 150.485 44.7425 150.485 44.8109C150.485 44.8793 150.464 44.946 150.424 45.0015L150.326 45.1086H150.471C150.563 45.0922 150.659 45.1068 150.742 45.1501C150.826 45.1935 150.893 45.2632 150.932 45.3485C150.968 45.4233 150.982 45.5063 150.974 45.5885C150.965 45.6708 150.935 45.7493 150.885 45.8154L150.851 45.8626H150.902C150.985 45.8981 151.053 45.9586 151.099 46.0354C151.145 46.1123 151.166 46.2016 151.159 46.291C151.16 46.4244 151.126 46.5558 151.061 46.6722C150.971 46.8093 150.89 46.9078 150.898 46.9121Z" fill="#8CBF43"/>
<path d="M151.253 53.068C151.291 53.0684 151.33 53.0596 151.364 53.0423C151.469 53.0039 151.564 52.9424 151.642 52.8624C151.783 52.7132 151.865 52.5182 151.875 52.3129C151.884 52.1077 151.82 51.9059 151.693 51.7443V51.8043C151.844 51.6524 151.961 51.4698 152.035 51.2688C152.071 51.1502 152.071 51.0233 152.035 50.9047C152.019 50.8394 151.988 50.7784 151.946 50.7259C151.904 50.6734 151.852 50.6306 151.791 50.6005V50.6991C151.898 50.6449 151.988 50.5623 152.052 50.4603C152.115 50.3583 152.149 50.2409 152.15 50.1208C152.157 49.9883 152.127 49.8565 152.065 49.7395C152.004 49.6261 151.908 49.5358 151.791 49.4825C151.747 49.4652 151.71 49.4343 151.684 49.3943C151.659 49.3542 151.647 49.3071 151.65 49.2597C151.656 49.1449 151.64 49.03 151.603 48.9213C151.523 48.726 151.39 48.557 151.219 48.4329L150.821 48.0902C150.628 47.9187 150.403 47.7876 150.159 47.7047C150.09 47.6858 150.02 47.6743 149.949 47.6704H149.877C149.877 47.6704 149.979 47.6704 150.146 47.7432C150.376 47.8392 150.587 47.9756 150.77 48.1459L151.159 48.4972C151.311 48.6168 151.43 48.773 151.505 48.9513C151.536 49.0495 151.549 49.1525 151.544 49.2554C151.536 49.3227 151.551 49.3906 151.586 49.4482C151.626 49.5006 151.677 49.5431 151.736 49.5724C151.824 49.6225 151.898 49.6945 151.951 49.7816C152.003 49.8687 152.032 49.9678 152.035 50.0695C152.038 50.1711 152.015 50.2718 151.968 50.3618C151.921 50.4519 151.851 50.5282 151.766 50.5834L151.663 50.6348L151.77 50.6819C151.858 50.7373 151.924 50.8211 151.957 50.9193C151.99 51.0175 151.989 51.1242 151.954 51.2217C151.881 51.4088 151.774 51.5803 151.638 51.7272L151.612 51.7572L151.638 51.7872C151.704 51.8678 151.753 51.9608 151.784 52.0608C151.814 52.1608 151.824 52.2659 151.813 52.3698C151.794 52.5297 151.725 52.6796 151.616 52.7981C151.515 52.9126 151.392 53.0045 151.253 53.068Z" fill="#8CBF43"/>
<path d="M141.769 43.0652C141.891 43.0555 142.009 43.019 142.115 42.9581C142.239 42.9036 142.35 42.8233 142.44 42.7225C142.498 42.6567 142.541 42.5798 142.567 42.4965C142.594 42.4132 142.603 42.3254 142.594 42.2385C142.586 42.1958 142.573 42.1541 142.556 42.1142L142.526 42.1913C142.6 42.1589 142.666 42.1107 142.72 42.05C142.774 41.9894 142.814 41.9177 142.838 41.8401C142.855 41.7782 142.861 41.7134 142.853 41.6494C142.846 41.5855 142.826 41.5236 142.795 41.4674C142.688 41.2746 142.543 41.2446 142.543 41.2575C142.62 41.3257 142.682 41.4088 142.727 41.5016C142.765 41.6009 142.765 41.7108 142.727 41.8101C142.706 41.8721 142.673 41.9291 142.628 41.9771C142.584 42.0251 142.53 42.0631 142.47 42.0885H142.419L142.44 42.1442C142.453 42.1742 142.462 42.206 142.466 42.2385C142.473 42.3095 142.466 42.3813 142.446 42.4497C142.425 42.5181 142.391 42.5817 142.346 42.6368C142.267 42.732 142.172 42.8119 142.064 42.8725C141.893 42.9924 141.761 43.0481 141.769 43.0652Z" fill="#8CBF43"/>
<path d="M139.243 41.6173C139.179 41.4842 139.162 41.3328 139.196 41.1889C139.215 41.1126 139.252 41.0421 139.304 40.9838C139.356 40.9255 139.422 40.8811 139.496 40.8547C139.588 40.8226 139.688 40.8181 139.782 40.8417C139.877 40.8652 139.963 40.9159 140.03 40.9875L140.094 41.0604L140.12 40.9661C140.151 40.8485 140.205 40.738 140.278 40.6406C140.313 40.592 140.357 40.5512 140.409 40.521C140.46 40.4907 140.518 40.4716 140.577 40.4649C140.761 40.4649 140.949 40.6406 140.885 40.7862L140.991 40.8162C141.036 40.5961 141.165 40.4022 141.35 40.2764C141.498 40.1784 141.673 40.129 141.85 40.1351C142.014 40.1496 142.174 40.1947 142.321 40.2679C142.321 40.2679 142.291 40.2293 142.214 40.1822C142.105 40.1203 141.984 40.0823 141.859 40.0708C141.662 40.0536 141.466 40.1017 141.299 40.2079C141.192 40.2735 141.099 40.3599 141.025 40.4622C140.952 40.5645 140.9 40.6805 140.872 40.8033L140.974 40.8333C140.994 40.7747 140.997 40.7115 140.981 40.6515C140.966 40.5914 140.934 40.5371 140.889 40.4949C140.846 40.4509 140.795 40.4161 140.738 40.3926C140.682 40.369 140.621 40.3572 140.56 40.3578C140.484 40.3654 140.41 40.3892 140.343 40.4276C140.277 40.466 140.22 40.5182 140.175 40.5806C140.095 40.6898 140.037 40.8134 140.004 40.9447H140.094C140.013 40.8604 139.909 40.8016 139.795 40.7757C139.681 40.7499 139.562 40.758 139.453 40.7991C139.368 40.8323 139.293 40.8868 139.234 40.9572C139.176 41.0276 139.136 41.1118 139.119 41.2017C139.097 41.3158 139.11 41.4341 139.158 41.5402C139.205 41.5916 139.239 41.6215 139.243 41.6173Z" fill="#8CBF43"/>
<path d="M116.724 171.28L115.288 178.387L110.549 178.832L108.553 176.476L110.378 167.994L116.724 171.28Z" fill="#FFBE9D"/>
<path d="M107.608 175.688V176.241C107.608 176.241 98.5346 179.753 98.3936 181.535L116.199 181.964L116.1 175.739C113.403 176.973 110.63 177.046 107.608 175.688Z" fill="#2B3A8C"/>
<g opacity="0.6">
<path opacity="0.6" d="M114.233 177.693C114.406 177.758 114.55 177.883 114.639 178.046C114.728 178.209 114.755 178.398 114.716 178.58C114.672 178.757 114.56 178.91 114.405 179.005C114.25 179.1 114.064 179.131 113.886 179.089C113.703 179.021 113.551 178.888 113.457 178.715C113.364 178.543 113.336 178.343 113.378 178.151C113.444 177.972 113.578 177.827 113.751 177.746C113.924 177.666 114.122 177.658 114.301 177.723" fill="white"/>
</g>
<path d="M116.181 181.977V180.482L99.12 180.606C98.8566 180.747 98.6373 180.959 98.4864 181.218C98.3356 181.476 98.259 181.772 98.2652 182.071L116.181 181.977Z" fill="black"/>
<path d="M107.527 176.292C107.527 176.382 107.954 176.438 108.382 176.742C108.809 177.046 109.023 177.436 109.104 177.401C109.185 177.367 109.065 176.836 108.553 176.476C108.04 176.116 107.51 176.206 107.527 176.292Z" fill="black"/>
<path d="M105.642 177.059C105.616 177.145 105.992 177.312 106.279 177.701C106.565 178.091 106.642 178.507 106.728 178.507C106.813 178.507 106.881 177.988 106.514 177.504C106.146 177.02 105.642 176.969 105.642 177.059Z" fill="black"/>
<path d="M104.527 179.376C104.604 179.376 104.736 178.948 104.527 178.443C104.317 177.937 103.915 177.727 103.877 177.8C103.839 177.873 104.082 178.151 104.253 178.567C104.424 178.982 104.441 179.368 104.527 179.376Z" fill="black"/>
<path d="M144.278 169.614C144.346 169.845 144.278 178.704 144.278 178.704L141.62 180.349L138.145 178.164L137.41 169.596L144.278 169.614Z" fill="#FFBE9D"/>
<path d="M137.897 177.397C137.897 177.397 142.628 180.923 144.915 177.873L145.513 179.351L148.206 189.885C148.299 190.21 148.274 190.558 148.135 190.867C147.997 191.176 147.754 191.426 147.449 191.573C147.219 191.67 146.964 191.697 146.719 191.648C146.474 191.599 146.249 191.477 146.073 191.298C144.124 189.354 137.004 182.17 137.072 181.197L137.098 178.627C137.099 178.369 137.175 178.117 137.317 177.901C137.459 177.686 137.661 177.517 137.897 177.415V177.397Z" fill="#2B3A8C"/>
<path d="M147.214 191.645L137.068 180.298V180.863C137.047 181.094 137.08 181.326 137.163 181.542C137.246 181.758 137.377 181.952 137.547 182.11C140.208 185.46 143.063 188.653 146.094 191.671C146.406 191.988 147.001 191.71 147.231 191.645H147.214Z" fill="black"/>
<g opacity="0.6">
<path opacity="0.6" d="M138.555 178.635C138.712 178.761 138.82 178.938 138.86 179.135C138.9 179.333 138.869 179.538 138.773 179.715C138.669 179.881 138.504 179.999 138.313 180.043C138.122 180.087 137.922 180.054 137.756 179.95C137.59 179.817 137.476 179.629 137.434 179.42C137.393 179.211 137.426 178.993 137.529 178.807C137.592 178.726 137.67 178.659 137.759 178.609C137.847 178.559 137.945 178.528 138.046 178.516C138.147 178.504 138.25 178.513 138.347 178.542C138.445 178.57 138.536 178.618 138.615 178.682" fill="white"/>
</g>
<path d="M144.291 185.832C144.363 185.871 144.646 185.168 145.398 184.791C146.15 184.414 146.847 184.573 146.859 184.491C146.872 184.41 146.71 184.354 146.432 184.311C146.038 184.268 145.641 184.344 145.291 184.53C144.932 184.715 144.635 185.001 144.436 185.352C144.278 185.626 144.257 185.823 144.291 185.832Z" fill="black"/>
<path d="M145.201 187.631C145.261 187.687 145.667 187.255 146.325 187.053C146.983 186.852 147.543 186.963 147.565 186.882C147.586 186.8 146.988 186.531 146.244 186.775C145.5 187.019 145.137 187.58 145.201 187.631Z" fill="black"/>
<path d="M142.598 183.553C142.658 183.613 143.278 182.941 144.274 182.538C145.27 182.135 146.154 182.157 146.154 182.067C146.154 181.977 145.231 181.814 144.171 182.264C143.111 182.714 142.534 183.515 142.598 183.553Z" fill="black"/>
<path d="M142.372 180.349C142.406 180.43 143.107 180.117 144.022 180.079C144.936 180.04 145.659 180.267 145.684 180.186C145.71 180.105 144.988 179.736 144.005 179.788C143.022 179.839 142.321 180.285 142.372 180.349Z" fill="black"/>
<path d="M144.539 180.049C144.551 179.879 144.526 179.708 144.466 179.548C144.347 179.103 144.141 178.686 143.859 178.323C143.683 178.043 143.418 177.83 143.107 177.719C143.002 177.692 142.891 177.7 142.791 177.742C142.691 177.784 142.607 177.857 142.551 177.95C142.445 178.143 142.412 178.368 142.457 178.584C142.554 179.01 142.797 179.388 143.144 179.651C143.491 179.915 143.92 180.049 144.355 180.028C144.784 179.983 145.19 179.811 145.521 179.533C145.852 179.255 146.092 178.884 146.21 178.468C146.241 178.361 146.249 178.249 146.235 178.139C146.221 178.028 146.185 177.922 146.129 177.826C146.064 177.738 145.973 177.674 145.869 177.642C145.765 177.61 145.654 177.613 145.552 177.65C145.256 177.785 145.001 177.997 144.812 178.263C144.521 178.616 144.294 179.017 144.141 179.449C144.073 179.597 144.035 179.758 144.03 179.921C144.263 179.365 144.575 178.847 144.958 178.383C145.131 178.159 145.357 177.983 145.616 177.869C145.671 177.846 145.733 177.843 145.79 177.86C145.848 177.877 145.898 177.914 145.932 177.963C145.965 178.029 145.985 178.1 145.99 178.174C145.995 178.248 145.986 178.321 145.962 178.391C145.848 178.746 145.635 179.061 145.346 179.296C145.058 179.532 144.708 179.679 144.338 179.719C143.971 179.736 143.608 179.626 143.312 179.408C143.016 179.19 142.803 178.876 142.71 178.52C142.678 178.376 142.695 178.225 142.757 178.091C142.786 178.038 142.832 177.996 142.888 177.972C142.943 177.947 143.005 177.941 143.064 177.954C143.326 178.051 143.551 178.226 143.71 178.455C144.076 178.935 144.356 179.474 144.539 180.049Z" fill="black"/>
<path d="M149.278 96.4803C150.695 99.3408 151.801 102.345 152.578 105.442C154.04 110.977 155.681 113.757 155.087 123.957C154.779 129.166 150.484 143.294 149.496 148.267C148.68 152.358 146.133 171.593 144.842 176.678H137.461L136.709 119.746C136.709 119.746 124.952 152.971 123.46 156.809C121.968 160.648 116.737 175.864 116.737 175.864L107.54 173.413L114.54 139.4C115.938 132.623 119.737 113.487 121.353 107.725C122.968 101.964 124.498 95.8892 124.498 95.8892L149.278 96.4803Z" fill="black"/>
<path d="M148.377 106.56C148.387 106.658 148.413 106.753 148.454 106.843C148.544 107.09 148.656 107.33 148.787 107.558C149.215 108.312 149.798 108.966 150.497 109.477C151.184 109.98 151.973 110.325 152.809 110.488C153.058 110.536 153.311 110.561 153.565 110.561C153.745 110.561 153.843 110.561 153.843 110.535C153.843 110.51 153.45 110.484 152.839 110.338C152.038 110.138 151.282 109.786 150.612 109.302C149.934 108.805 149.354 108.186 148.902 107.477C148.56 106.929 148.411 106.543 148.377 106.56Z" fill="#8CBF43"/>
<path d="M120.605 110.694C120.605 110.694 120.699 110.737 120.874 110.775C121.124 110.828 121.379 110.855 121.635 110.857C122.017 110.866 122.399 110.829 122.772 110.745C123.23 110.637 123.672 110.467 124.084 110.24C124.836 109.805 125.493 109.222 126.016 108.526C126.247 108.25 126.44 107.943 126.588 107.614C126.345 107.872 126.117 108.143 125.905 108.428C125.364 109.071 124.716 109.614 123.99 110.034C123.266 110.432 122.46 110.656 121.635 110.69C121.002 110.724 120.609 110.655 120.605 110.694Z" fill="#8CBF43"/>
<path d="M136.594 107.481C136.547 107.63 136.52 107.784 136.512 107.94C136.474 108.239 136.431 108.668 136.384 109.203C136.299 110.274 136.226 111.774 136.239 113.389C136.252 115.004 136.35 116.507 136.457 117.574C136.508 118.109 136.559 118.538 136.606 118.833C136.618 118.989 136.647 119.142 136.692 119.292C136.71 119.137 136.71 118.98 136.692 118.825C136.67 118.482 136.641 118.058 136.611 117.561C136.542 116.494 136.465 115.021 136.452 113.389C136.44 111.756 136.487 110.283 136.538 109.216C136.564 108.715 136.585 108.295 136.602 107.931C136.615 107.781 136.612 107.63 136.594 107.481Z" fill="#8CBF43"/>
<path d="M146.488 63.5933L153.185 66.7976L152.253 79.0365C152.253 79.0365 151.462 79.9661 150.176 86.5246C148.889 93.0831 153.168 105.853 153.168 105.853L121.665 106.667C121.665 106.667 125.362 80.1846 125.789 76.6804L127.362 63.272L133.7 62.925H135.529L137.102 74.3371L145.034 63.272L146.488 63.5933Z" fill="#8CBF43"/>
<path d="M117.352 87.3386C117.434 87.1065 117.467 86.8602 117.451 86.6147C117.453 86.024 117.355 85.4372 117.16 84.8797C116.963 84.3292 116.674 83.8163 116.305 83.3633C116.019 83.0248 115.801 82.862 115.784 82.8835C116.27 83.5169 116.667 84.2146 116.964 84.9568C117.201 85.7293 117.332 86.5307 117.352 87.3386Z" fill="black"/>
<path d="M104.556 84.3013L115.784 84.2027L120.032 71.634C120.698 70.1196 121.44 68.6398 122.255 67.2003C124.503 63.0535 127.362 63.272 127.362 63.272L130.807 68.6439L127.148 76.8731C127.148 76.8731 123.648 92.3891 119.588 93.0745C112.852 94.2054 100.783 89.5361 100.783 89.5361L104.556 84.3013Z" fill="#8CBF43"/>
<g opacity="0.2">
<path opacity="0.2" d="M124.268 88.1526C124.268 87.7242 124.148 87.1759 124.516 86.9917C124.672 86.9392 124.837 86.9185 125.002 86.931C125.166 86.9435 125.326 86.9889 125.473 87.0645C134.773 90.3673 140.158 86.529 149.458 89.8361L151.356 99.4148C147.227 99.449 145.338 98.4809 141.282 97.1786C137.141 95.8506 132.999 94.5226 128.939 92.9462C127.792 92.5639 126.714 91.9983 125.746 91.2712C125.286 90.8926 124.915 90.4168 124.659 89.8777C124.403 89.3386 124.27 88.7495 124.268 88.1526Z" fill="black"/>
</g>
<path d="M126.507 72.3152C126.459 72.5337 126.388 72.7464 126.294 72.9492C126.124 73.4553 125.994 73.9738 125.905 74.4999C125.682 75.7379 125.64 76.7661 125.576 76.7661C125.476 75.9975 125.513 75.2174 125.682 74.4614C125.775 73.9211 125.929 73.3934 126.144 72.8892C126.219 72.6724 126.344 72.4759 126.507 72.3152Z" fill="black"/>
<path d="M183.832 84.5818L186.396 84.6477C187.103 84.6659 187.774 84.9649 188.261 85.4789C188.748 85.9929 189.012 86.6798 188.993 87.3885L188.985 87.7054C188.967 88.4141 188.669 89.0866 188.156 89.5749C187.643 90.0631 186.958 90.3272 186.251 90.3091L183.687 90.2431L183.832 84.5818Z" fill="#2B3A8C"/>
<path d="M71.1859 82.1596L94.1709 79.8335L180.538 82.0611C180.738 82.0661 180.934 82.1105 181.117 82.1918C181.3 82.2731 181.465 82.3897 181.602 82.5349C181.74 82.6801 181.848 82.8511 181.92 83.0381C181.992 83.225 182.026 83.4244 182.021 83.6247L181.811 91.7639C181.806 91.9642 181.762 92.1616 181.681 92.3447C181.6 92.5278 181.484 92.6931 181.339 92.8311C181.194 92.9692 181.023 93.0773 180.837 93.1492C180.65 93.2211 180.451 93.2555 180.251 93.2504L93.5555 91.0014L71.0791 86.3792L71.1859 82.1596Z" fill="#2B3A8C"/>
<path d="M71.1517 83.346L69.0361 83.2903L67.2411 83.9029C67.0958 84.0143 67.13 84.1556 67.2411 84.3098L69.0447 84.8967L71.1175 84.9524L71.1517 83.346Z" fill="black"/>
<path d="M95.9677 79.872L94.1775 79.8259L93.8913 91.003L95.6815 91.049L95.9677 79.872Z" fill="black"/>
<path d="M182.316 82.5536C182.309 82.815 182.252 83.0727 182.146 83.3118C182.041 83.5509 181.889 83.7668 181.7 83.947C181.511 84.1273 181.289 84.2684 181.045 84.3623C180.802 84.4562 180.542 84.501 180.281 84.4942L137.192 83.3804C136.931 83.3737 136.675 83.3157 136.437 83.2096C136.199 83.1035 135.984 82.9514 135.804 82.762C135.625 82.5727 135.485 82.3497 135.391 82.106C135.298 81.8622 135.253 81.6023 135.26 81.3413C135.274 80.8137 135.495 80.313 135.877 79.9492C136.258 79.5853 136.768 79.3881 137.294 79.4007L180.384 80.5359C180.906 80.5494 181.402 80.7689 181.764 81.1467C182.125 81.5245 182.324 82.0301 182.316 82.5536Z" fill="#2B3A8C"/>
<path d="M182.316 82.5535C182.31 82.2204 182.226 81.8933 182.072 81.5982C181.919 81.3069 181.695 81.0592 181.421 80.8779C181.146 80.6967 180.831 80.5878 180.504 80.5615C180.23 80.5615 179.931 80.5615 179.623 80.5401L169.045 80.3002L153.36 79.919L144.099 79.6791L139.201 79.5548L137.953 79.5206C137.546 79.4831 137.137 79.5004 136.735 79.572C136.346 79.677 136.001 79.905 135.751 80.2221C135.502 80.5393 135.361 80.9286 135.35 81.3323C135.339 81.736 135.458 82.1325 135.69 82.4629C135.922 82.7933 136.254 83.0399 136.636 83.1661C137.034 83.2577 137.442 83.2966 137.85 83.2818L139.102 83.3118L144 83.4403L153.266 83.6844L168.947 84.1128L179.521 84.4213C179.833 84.4213 180.132 84.447 180.405 84.4213C180.659 84.4129 180.908 84.3562 181.14 84.2542C181.508 84.0897 181.817 83.8161 182.025 83.4703C182.193 83.181 182.292 82.8572 182.316 82.5235C182.324 82.609 182.324 82.6951 182.316 82.7806C182.288 83.0467 182.203 83.3038 182.068 83.5345C181.862 83.8944 181.55 84.1816 181.175 84.357C180.934 84.4672 180.674 84.5298 180.41 84.5412C180.127 84.5412 179.837 84.5412 179.525 84.5412L168.951 84.3056L153.262 83.9243L144 83.693L139.094 83.5345L137.846 83.5002H137.218C136.997 83.4964 136.778 83.4603 136.568 83.3931C136.14 83.2514 135.768 82.9752 135.509 82.6053C135.25 82.2355 135.116 81.7918 135.128 81.3399C135.14 80.8881 135.297 80.4521 135.576 80.0966C135.854 79.7411 136.24 79.4851 136.675 79.3663C136.888 79.3119 137.109 79.2888 137.329 79.2978H137.957L139.205 79.3278L144.107 79.4563L153.369 79.7005L169.05 80.1289L179.623 80.4373C179.935 80.4373 180.23 80.4373 180.508 80.4716C180.771 80.4958 181.027 80.573 181.26 80.6986C181.627 80.8883 181.926 81.1878 182.115 81.5554C182.229 81.7809 182.298 82.027 182.316 82.2794C182.326 82.3705 182.326 82.4624 182.316 82.5535Z" fill="black"/>
<path d="M182.038 83.072L184.252 84.203L184.085 90.6244L181.807 91.9053L182.038 83.072Z" fill="black"/>
<path d="M155.924 87.5912L151.031 80.0345L150.603 79.3577L149.945 78.3338L152.817 66.6047C152.817 66.6047 155.27 67.7357 156.621 69.6034C157.74 71.316 158.739 73.1037 159.613 74.9539C159.613 74.9539 164.4 85.9291 165.19 87.5698C165.981 89.2105 167.246 92.2391 165.19 93.9398C163.134 95.6405 149.377 95.6962 149.377 95.6962L148.449 88.7607L155.924 87.5912Z" fill="#8CBF43"/>
<path d="M149.894 77.1087C149.928 77.1087 149.821 76.5904 149.779 75.7636C149.66 73.595 150.207 71.442 151.347 69.5949C151.774 68.8881 152.121 68.494 152.091 68.4725C152.061 68.4511 151.988 68.5539 151.83 68.7253C151.611 68.9735 151.41 69.2369 151.227 69.5135C149.997 71.3568 149.434 73.5675 149.633 75.7765C149.661 76.1067 149.713 76.4345 149.787 76.7575C149.807 76.8788 149.843 76.9969 149.894 77.1087Z" fill="black"/>
<path d="M146.842 90.0545C146.554 89.4231 146.131 88.863 145.603 88.4138C144.701 87.6298 142.718 87.0215 142.462 86.2719C142.205 85.5222 141.457 86.1048 141.632 87.043C141.744 87.6384 142.97 89.1849 142.97 89.1849C142.97 89.1849 141.53 89.549 140.573 88.9921C139.615 88.4352 136.26 87.4456 135.901 87.9168C135.542 88.3881 136.371 88.6237 136.756 88.8379C137.042 89.0007 139.273 90.123 139.273 90.123C139.273 90.123 134.833 89.9731 134.273 90.183C133.713 90.3929 134.273 90.9498 134.568 90.9626C134.747 90.9626 135.504 91.6523 136.042 92.1536C136.408 92.4959 136.888 92.6885 137.388 92.6933H138.418L135.286 93.0232C135.286 93.0232 134.747 93.5201 135.499 93.7771C135.837 93.8928 144.517 94.681 145.257 94.6553C146.924 94.5996 149.253 94.484 149.253 94.484L148.847 89.7717L146.842 90.0545Z" fill="#FFBE9D"/>
<path d="M134.487 91.0181C135.149 91.3476 135.861 91.5647 136.594 91.6607C137.315 91.8232 138.059 91.8666 138.795 91.7892C138.795 91.7292 137.816 91.6735 136.632 91.4593C135.448 91.2451 134.504 90.9624 134.487 91.0181Z" fill="#EB996E"/>
<g opacity="0.3">
<path opacity="0.3" d="M101.719 85.5567C102.573 85.3725 103.394 85.9165 104.099 86.4348C104.544 86.7456 104.964 87.0908 105.356 87.4672C106.437 88.5511 107.005 90.0375 107.92 91.267L102.791 90.4873L101.719 85.5567Z" fill="black"/>
</g>
<path d="M109.557 91.4811L107.326 91.0142C107.326 91.0142 105.313 87.8013 104.257 87.4115L103.663 87.1459C103.663 87.1459 102.89 85.4324 101.834 85.6594C101.21 85.231 100.646 85.4153 100.586 86.0407C100.586 86.0407 100.274 84.6142 99.1116 85.1839C97.9491 85.7537 100.723 90.71 100.723 90.71C100.723 90.71 101.693 93.2418 102.903 92.3936C102.903 92.3936 104.112 92.6763 104.92 92.2265C104.92 92.2265 105.668 93.2803 107.437 92.475L109.557 91.4811Z" fill="#FFBE9D"/>
<path d="M104.71 91.6737C104.71 91.6737 104.672 91.7551 104.71 91.9136C104.752 92.1329 104.861 92.3335 105.022 92.4876C105.256 92.7279 105.566 92.8793 105.898 92.916C106.292 92.9541 106.689 92.9118 107.065 92.7918C107.743 92.6009 108.389 92.3123 108.984 91.935C109.239 91.7955 109.47 91.6162 109.668 91.4038C108.827 91.8909 107.935 92.2858 107.01 92.5819C106.657 92.6919 106.288 92.7383 105.92 92.719C105.624 92.697 105.344 92.5798 105.121 92.3848C104.911 92.1982 104.767 91.9488 104.71 91.6737Z" fill="#EB996E"/>
<path d="M102.573 90.5171C102.625 90.4828 101.954 89.5104 101.381 88.191C100.808 86.8715 100.526 85.7192 100.475 85.732C100.474 85.9923 100.515 86.2511 100.595 86.4988C100.74 87.107 100.94 87.7007 101.193 88.2724C101.444 88.8443 101.744 89.3932 102.09 89.9131C102.216 90.1404 102.379 90.3447 102.573 90.5171Z" fill="#EB996E"/>
<path d="M103.856 90.4099C103.907 90.3799 103.343 89.3689 102.791 88.0624C102.24 86.7558 101.907 85.642 101.847 85.6591C102.179 87.3657 102.863 88.9839 103.856 90.4099Z" fill="#EB996E"/>
<path d="M102.146 91.5539C102.09 91.5539 102.146 91.9823 102.505 92.2693C102.864 92.5563 103.274 92.552 103.27 92.4963C103.266 92.4406 102.941 92.3721 102.637 92.1108C102.334 91.8495 102.184 91.5368 102.146 91.5539Z" fill="#EB996E"/>
<path d="M105.232 89.7031C105.029 89.2651 104.787 88.8464 104.509 88.4522C104.288 88.0244 104.029 87.6172 103.736 87.2356C103.849 87.7113 104.052 88.1607 104.334 88.5593C104.559 88.9935 104.864 89.3815 105.232 89.7031Z" fill="#EB996E"/>
</g>
<path d="M38.5822 20.1747L38.5076 19.4666L36.2441 19.705L36.5375 22.4896L37.4763 22.3907L37.3824 21.4996L38.544 21.3773L38.4694 20.6692L37.3078 20.7916L37.2575 20.3142L38.5822 20.1747ZM40.6641 22.1192C41.571 22.0237 42.1708 21.3411 42.082 20.4978C41.9931 19.6544 41.2643 19.1118 40.3573 19.2074C39.4503 19.3029 38.8505 19.9855 38.9394 20.8288C39.0282 21.6722 39.7571 22.2148 40.6641 22.1192ZM40.584 21.3594C40.2379 21.3959 39.9318 21.1627 39.8861 20.7291C39.8405 20.2955 40.0913 20.0036 40.4373 19.9672C40.7834 19.9307 41.0895 20.1639 41.1352 20.5975C41.1809 21.0311 40.9301 21.323 40.584 21.3594ZM44.3555 21.666L45.358 21.5604L44.6827 20.7628C44.9988 20.5565 45.1579 20.2341 45.1156 19.8323C45.0477 19.1879 44.5117 18.8341 43.736 18.9158L42.3954 19.057L42.6887 21.8416L43.6275 21.7427L43.5538 21.0426L43.8084 21.0158L44.3555 21.666ZM44.1688 19.932C44.1902 20.1349 44.0799 20.2712 43.8213 20.2985L43.4792 20.3345L43.4105 19.6821L43.7526 19.6461C44.0111 19.6188 44.1474 19.7292 44.1688 19.932ZM49.1137 21.1648L48.8124 18.381L48.0406 18.4623L47.3138 20.0391L46.2505 18.6509L45.4788 18.7322L45.7721 21.5168L46.6274 21.4267L46.4983 20.2015L47.2057 21.1124L47.6194 21.0688L48.1167 19.9867L48.2584 21.2549L49.1137 21.1648ZM51.0262 21.0276C51.8815 20.9375 52.332 20.4034 52.244 19.568L52.0827 18.0365L51.1598 18.1337L51.3182 19.6374C51.363 20.063 51.2167 20.2393 50.9541 20.267C50.6916 20.2947 50.5117 20.1527 50.4669 19.7271L50.3085 18.2234L49.3697 18.3223L49.531 19.8538C49.619 20.6892 50.1709 21.1177 51.0262 21.0276ZM52.9257 20.7632L55.1215 20.5319L55.0448 19.8039L53.7878 19.9363L53.5711 17.8797L52.6323 17.9786L52.9257 20.7632ZM57.6235 20.2683L58.5941 20.166L57.0835 17.5097L56.1606 17.6069L55.2367 20.5197L56.1914 20.4192L56.3273 19.9141L57.3854 19.8027L57.6235 20.2683ZM56.5146 19.2106L56.7113 18.482L57.0556 19.1537L56.5146 19.2106ZM60.5301 19.9621L61.5325 19.8565L60.8572 19.0588C61.1734 18.8526 61.3325 18.5302 61.2901 18.1284C61.2223 17.4839 60.6862 17.1302 59.9105 17.2119L58.57 17.3531L58.8633 20.1377L59.8021 20.0388L59.7283 19.3387L59.9829 19.3118L60.5301 19.9621ZM60.3434 18.2281C60.3648 18.431 60.2544 18.5673 59.9959 18.5945L59.6538 18.6306L59.585 17.9782L59.9271 17.9421C60.1857 17.9149 60.322 18.0252 60.3434 18.2281ZM62.9918 18.9667L64.1089 17.3528L64.0481 16.776L61.5937 17.0346L61.6704 17.7625L62.9036 17.6326L61.7865 19.2465L61.8472 19.8233L64.4051 19.5539L64.3284 18.8259L62.9918 18.9667Z" fill="black"/>
<defs>
<clipPath id="clip0">
<rect width="189" height="191.821" fill="white"/>
</clipPath>
</defs>
</svg>
