<svg width="189" height="160" viewBox="0 0 189 160" fill="none" xmlns="http://www.w3.org/2000/svg">
<path d="M52.7661 62.3315C52.5847 62.3804 52.3954 62.3931 52.2091 62.3687C52.0228 62.3443 51.8432 62.2833 51.6806 62.1893C51.5179 62.0953 51.3754 61.9701 51.2613 61.8208C51.1471 61.6716 51.0636 61.5013 51.0154 61.3197L47.8017 49.3348C47.734 49.0314 47.7884 48.7135 47.9533 48.4499C48.1181 48.1863 48.3801 47.9982 48.6825 47.9263L49.8108 47.6242C50.0317 47.5677 50.2327 47.4511 50.3914 47.2872C50.5501 47.1234 50.6603 46.9188 50.7097 46.6961L50.8189 46.1393C50.8672 45.9161 50.9769 45.7108 51.1358 45.5468C51.2947 45.3828 51.4963 45.2665 51.7179 45.2112L57.068 43.7736C57.2686 43.7178 57.48 43.7132 57.6828 43.7602C57.8856 43.8073 58.0734 43.9045 58.229 44.0429L58.5929 44.3887C58.7481 44.5277 58.9358 44.6256 59.1386 44.6732C59.3415 44.7209 59.553 44.7169 59.7539 44.6616L66.5744 42.8419C66.723 42.7931 66.8798 42.7742 67.0358 42.7862C67.1917 42.7983 67.3438 42.8411 67.4831 42.9121C67.6225 42.9831 67.7464 43.081 67.8478 43.2001C67.9492 43.3193 68.026 43.4572 68.0739 43.6062L71.3495 55.8677C71.3979 56.0489 71.4101 56.2378 71.3854 56.4236C71.3607 56.6095 71.2997 56.7887 71.2057 56.9509C71.1117 57.1132 70.9867 57.2553 70.8378 57.3692C70.6888 57.4831 70.5189 57.5665 70.3377 57.6147L52.7661 62.3315Z" fill="#E0E0E0"/>
<path d="M59.0915 44.829L54.7496 45.9828L54.1673 45.364C53.973 45.1632 53.7279 45.0189 53.458 44.9464C53.1882 44.874 52.9037 44.8762 52.635 44.9528L48.395 46.1065C48.0413 46.1904 47.7351 46.411 47.5435 46.7199C47.3519 47.0288 47.2903 47.401 47.3723 47.7552L47.5033 48.2502L50.9972 61.2651C51.1174 61.6596 51.3891 61.9903 51.7528 62.1847C52.1164 62.3791 52.5423 62.4215 52.9371 62.3024L70.1666 57.6802C70.5685 57.5859 70.9166 57.3359 71.1343 56.9851C71.3519 56.6343 71.4215 56.2115 71.3276 55.8095L68.0302 43.5152C67.9594 43.2519 67.7871 43.0274 67.551 42.8909C67.315 42.7545 67.0344 42.7172 66.7709 42.7873L59.0915 44.829Z" fill="#EBEBEB"/>
<path d="M110.955 43.2714C110.734 43.2189 110.526 43.1232 110.343 42.99C110.159 42.8568 110.004 42.6887 109.885 42.4952C109.767 42.3018 109.688 42.0869 109.653 41.8628C109.618 41.6387 109.627 41.4099 109.681 41.1896L113.204 26.6024C113.305 26.2372 113.547 25.9271 113.877 25.7401C114.206 25.5532 114.597 25.5046 114.962 25.6051L116.334 25.9363C116.601 26.0064 116.883 25.9999 117.147 25.9175C117.411 25.8351 117.646 25.6802 117.826 25.4705L118.263 24.9464C118.443 24.7366 118.678 24.5817 118.942 24.4993C119.206 24.417 119.488 24.4105 119.755 24.4805L126.266 26.0528C126.515 26.1065 126.745 26.2226 126.936 26.39C127.127 26.5575 127.272 26.7709 127.358 27.01L127.555 27.5923C127.64 27.8318 127.786 28.0455 127.977 28.2136C128.168 28.3816 128.398 28.4985 128.646 28.5532L136.948 30.5549C137.316 30.6369 137.637 30.8604 137.841 31.1771C138.046 31.4939 138.117 31.8783 138.04 32.2473L134.437 47.1693C134.329 47.6137 134.049 47.9972 133.659 48.2353C133.269 48.4735 132.8 48.547 132.355 48.4395L110.955 43.2714Z" fill="#E0E0E0"/>
<path d="M127.798 28.3531L122.521 27.0684L122.263 26.0894C122.171 25.7645 121.994 25.4704 121.749 25.2379C121.504 25.0054 121.201 24.8432 120.872 24.7682L115.712 23.5199C115.502 23.4618 115.283 23.4458 115.066 23.4725C114.85 23.4993 114.642 23.5684 114.453 23.6759C114.263 23.7834 114.097 23.9272 113.963 24.099C113.83 24.2708 113.731 24.4673 113.673 24.6772L113.528 25.2777L109.703 41.117C109.601 41.6048 109.698 42.113 109.971 42.5298C110.244 42.9467 110.671 43.2383 111.159 43.3407L132.129 48.3851C132.61 48.5181 133.124 48.4547 133.558 48.2091C133.992 47.9634 134.311 47.5554 134.444 47.0749L138.058 32.1128C138.135 31.7919 138.082 31.4536 137.91 31.172C137.738 30.8903 137.462 30.6881 137.141 30.6096L127.798 28.3531Z" fill="#EBEBEB"/>
<path d="M70.3048 24.033C70.0519 24.0608 69.7961 24.0385 69.5519 23.9674C69.3076 23.8963 69.0798 23.7777 68.8814 23.6185C68.683 23.4593 68.5179 23.2626 68.3956 23.0396C68.2732 22.8166 68.196 22.5716 68.1684 22.3188L66.3268 5.57694C66.2947 5.15276 66.4323 4.73318 66.7093 4.41039C66.9864 4.08759 67.3803 3.888 67.8044 3.85545L69.3804 3.68075C69.6886 3.65109 69.9825 3.53634 70.2293 3.34932C70.4761 3.1623 70.666 2.91037 70.7779 2.62165L71.04 1.89374C71.1511 1.60381 71.3413 1.35085 71.589 1.16363C71.8367 0.97641 72.1319 0.862429 72.4412 0.834643L79.9131 0.0121106C80.1934 -0.0217082 80.4777 0.015576 80.7397 0.120526C81.0018 0.225475 81.2332 0.394712 81.4126 0.612632L81.8421 1.15492C82.0233 1.37565 82.2576 1.54661 82.5232 1.65168C82.7887 1.75674 83.0766 1.79245 83.3598 1.75544L92.888 0.710899C93.0969 0.680533 93.3098 0.691672 93.5144 0.743679C93.719 0.795686 93.9113 0.88754 94.0803 1.01398C94.2493 1.14042 94.3918 1.29896 94.4995 1.48053C94.6071 1.66209 94.6779 1.86311 94.7078 2.07208L96.5894 19.196C96.6447 19.7069 96.4953 20.2188 96.1741 20.6199C95.8528 21.0209 95.3858 21.2784 94.8752 21.3361L70.3048 24.033Z" fill="#E0E0E0"/>
<path d="M82.4063 1.8608L76.3428 2.51227L75.6914 1.55872C75.4712 1.24992 75.1716 1.0064 74.8244 0.85392C74.4771 0.701437 74.0951 0.645665 73.7188 0.692508L67.7936 1.34034C67.5501 1.35921 67.3127 1.42586 67.0949 1.53648C66.8771 1.64711 66.6833 1.79955 66.5245 1.98509C66.3656 2.17064 66.2449 2.38565 66.1691 2.61786C66.0934 2.85007 66.0641 3.09493 66.083 3.33844L66.1595 4.02995L68.1576 22.2094C68.2378 22.7639 68.5344 23.264 68.9826 23.6003C69.4308 23.9366 69.9939 24.0816 70.5487 24.0037L94.6133 21.3577C95.1723 21.314 95.6913 21.0504 96.0563 20.6247C96.4213 20.199 96.6026 19.6459 96.5604 19.0867L94.6715 1.91175C94.6516 1.72959 94.5959 1.55315 94.5077 1.39253C94.4195 1.2319 94.3006 1.09024 94.1576 0.975642C94.0146 0.861047 93.8504 0.77577 93.6744 0.724689C93.4984 0.673608 93.3141 0.657725 93.132 0.67795L82.4063 1.8608Z" fill="#F5F5F5"/>
<path d="M83.4762 12.6232C83.8734 12.392 84.1943 12.0497 84.3993 11.6384C84.6043 11.2271 84.6845 10.7648 84.63 10.3085C84.6313 9.99794 84.5671 9.69063 84.4417 9.40657C84.3163 9.12252 84.1323 8.8681 83.9019 8.65991C83.6715 8.45172 83.3999 8.29444 83.1046 8.19833C82.8093 8.10222 82.4971 8.06943 82.1883 8.10211C81.8795 8.13479 81.5811 8.23221 81.3124 8.388C81.0438 8.54379 80.8111 8.75445 80.6294 9.00626C80.4476 9.25806 80.3211 9.54534 80.2579 9.84936C80.1946 10.1534 80.1962 10.4673 80.2625 10.7707C80.3044 11.2321 80.482 11.6709 80.7728 12.0316C81.0636 12.3924 81.4546 12.659 81.8967 12.7979C78.5811 13.675 79.1379 17.3218 79.1379 17.3218L87.1121 16.4847C87.1121 16.4847 86.8719 12.7615 83.4762 12.6232Z" fill="#E0E0E0"/>
<path d="M54.5239 21.4635C54.8575 21.3115 55.2101 21.205 55.5721 21.1468L55.8923 20.1824L57.5665 20.3498L57.6903 21.3579C58.0327 21.488 58.3568 21.6617 58.6547 21.8748L59.5646 21.4235L60.6274 22.7228L60.005 23.5417C60.1565 23.8752 60.2618 24.2278 60.318 24.5898L61.2825 24.9138L61.1151 26.5843L60.1069 26.708C59.9792 27.0526 59.8053 27.3783 59.5901 27.6762L60.045 28.5824L58.7421 29.6488L57.9414 29.0009C57.6074 29.1519 57.255 29.2584 56.8932 29.3176L56.5729 30.2821L54.8988 30.1146L54.775 29.1065C54.4323 28.9772 54.108 28.8035 53.8105 28.5897L52.9007 29.041L51.8379 27.7417L52.4603 26.941C52.3093 26.6069 52.2029 26.2545 52.1436 25.8928L51.1828 25.5689L51.3502 23.9056L52.3584 23.7782C52.4869 23.4352 52.6608 23.1108 52.8752 22.8138L52.4239 21.9039L53.7268 20.8375L54.5275 21.4635H54.5239ZM55.1499 23.7891C54.8696 24.0161 54.663 24.3213 54.5565 24.6659C54.4499 25.0105 54.4482 25.379 54.5515 25.7246C54.6548 26.0702 54.8585 26.3773 55.1367 26.6069C55.4149 26.8365 55.755 26.9783 56.114 27.0142C56.4729 27.05 56.8344 26.9785 57.1525 26.8085C57.4707 26.6385 57.7311 26.3778 57.9008 26.0596C58.0705 25.7413 58.1418 25.3797 58.1056 25.0208C58.0694 24.6619 57.9274 24.3219 57.6976 24.0439C57.3921 23.6744 56.9531 23.4404 56.4761 23.3927C55.9991 23.345 55.5225 23.4875 55.1499 23.7891Z" fill="#E0E0E0"/>
<path d="M63.0004 89.4571C63.1492 89.4641 63.2978 89.4406 63.4371 89.388C63.6021 89.3191 63.7436 89.2041 63.8448 89.0568C63.9066 88.9614 63.9498 88.8552 63.9721 88.7438C63.994 88.6273 64.0049 88.4926 64.0231 88.3543C64.165 87.2261 64.3652 85.6138 64.6127 83.6229L64.8129 82.0579C64.8493 81.785 64.8857 81.5084 64.9221 81.2245L64.9766 80.7987C65.002 80.6595 65.0118 80.5179 65.0058 80.3765C64.9913 80.2397 64.9431 80.1086 64.8657 79.9949C64.7882 79.8812 64.6838 79.7885 64.5617 79.725C64.4311 79.6652 64.2903 79.6306 64.1468 79.6231L63.681 79.5612L61.752 79.3137L53.1773 78.1928C53.0067 78.1707 52.8335 78.2032 52.6825 78.2856C52.5315 78.368 52.4104 78.496 52.3366 78.6513C52.3009 78.7288 52.2764 78.8109 52.2638 78.8952L52.2274 79.1754C52.2019 79.3611 52.1764 79.5394 52.1546 79.7323C52.0563 80.4602 51.9581 81.1881 51.8634 81.916C51.6742 83.35 51.4995 84.733 51.3139 86.0505C51.2702 86.3817 51.2302 86.7056 51.1865 87.0223C51.1753 87.1683 51.203 87.3146 51.267 87.4464C51.3309 87.5781 51.4288 87.6905 51.5504 87.772C51.669 87.8539 51.8071 87.9028 51.9508 87.9139L52.4094 87.9758L53.3047 88.0959L56.5803 88.5363L61.3116 89.1878L62.5928 89.3734L62.924 89.428C62.962 89.4328 62.9997 89.4401 63.0368 89.4498C62.9982 89.4554 62.9589 89.4554 62.9203 89.4498L62.5855 89.4134L61.3007 89.2642L56.5366 88.6892L53.261 88.2706L52.3657 88.1542L51.9071 88.0959C51.6459 88.0737 51.4041 87.9491 51.2344 87.7493C51.0647 87.5496 50.9807 87.2909 51.0009 87.0295C51.0445 86.7056 51.0846 86.3781 51.1283 86.0469C51.2993 84.7294 51.4922 83.3463 51.6669 81.9087C51.7579 81.1808 51.8562 80.4529 51.9508 79.725C51.9763 79.5394 52.0017 79.3611 52.0236 79.1682L52.0636 78.8879C52.0783 78.7848 52.1078 78.6843 52.151 78.5895C52.2416 78.3973 52.3908 78.2388 52.5772 78.1368C52.7636 78.0348 52.9775 77.9945 53.1882 78.0217L61.7629 79.1572L63.6883 79.4156L64.1505 79.4775C64.3148 79.4873 64.4756 79.5293 64.6236 79.6013C64.77 79.6736 64.896 79.7815 64.9901 79.915C65.0842 80.0484 65.1433 80.2034 65.1623 80.3656C65.1687 80.518 65.1578 80.6706 65.1295 80.8205C65.1295 80.9661 65.0895 81.108 65.0713 81.25C65.0349 81.5302 64.9948 81.8105 64.9584 82.0798C64.8857 82.6257 64.8165 83.1462 64.7474 83.6448C64.4744 85.6283 64.2524 87.237 64.0959 88.3762C64.074 88.5181 64.0631 88.6455 64.0376 88.7729C63.9981 88.9191 63.9244 89.0537 63.8225 89.1658C63.7206 89.2778 63.5935 89.3639 63.4517 89.4171C63.3433 89.4561 63.2283 89.4734 63.1132 89.468C63.0753 89.47 63.0372 89.4663 63.0004 89.4571Z" fill="#E0E0E0"/>
<path d="M63.2551 87.9976C63.2551 87.9976 63.2114 87.9539 63.1459 87.8593L62.8656 87.4444L61.8611 85.894C61.6537 85.5591 61.4244 85.2024 61.1769 84.8021C61.1187 84.7038 61.0568 84.6092 60.9913 84.5073C60.9649 84.4695 60.9294 84.439 60.888 84.4186C60.8466 84.3982 60.8008 84.3887 60.7547 84.3908C60.6565 84.3908 60.5909 84.46 60.489 84.5473L60.1979 84.7948L59.5937 85.3116C59.5402 85.3623 59.4816 85.4074 59.419 85.4463C59.3415 85.4866 59.2537 85.5029 59.1669 85.4932C59.08 85.4835 58.998 85.4482 58.9313 85.3917C58.8957 85.3653 58.866 85.3319 58.844 85.2934L58.7857 85.2061L57.8322 83.7503C57.6684 83.4991 57.5046 83.2553 57.3481 83.0224C57.2681 82.9023 57.188 82.7821 57.1116 82.6584C57.0848 82.6126 57.0446 82.5762 56.9964 82.5541C56.9482 82.5319 56.8944 82.5252 56.8422 82.5347C56.7911 82.5426 56.7438 82.5669 56.7076 82.6038L56.5583 82.7494C56.4637 82.8477 56.3655 82.9423 56.2708 83.0369L55.6994 83.5938L53.745 85.5154L52.4238 86.8148L52.0599 87.1569C52.0201 87.1991 51.9748 87.2358 51.9252 87.266C51.9252 87.266 51.958 87.2151 52.0344 87.1277L52.3765 86.7638L53.6613 85.439C54.2181 84.8785 54.8696 84.2161 55.5866 83.4882L56.1471 82.9277L56.4346 82.6366L56.5802 82.491C56.6442 82.4288 56.7253 82.387 56.8131 82.3709C56.9012 82.3546 56.9921 82.3654 57.074 82.4018C57.1558 82.4382 57.2247 82.4984 57.2717 82.5747L57.5083 82.9387L57.9923 83.6666L58.9422 85.1224C58.9604 85.176 58.9932 85.2235 59.037 85.2593C59.0808 85.2952 59.1338 85.3181 59.19 85.3253C59.2461 85.3325 59.3032 85.3238 59.3546 85.3001C59.406 85.2765 59.4498 85.2388 59.4809 85.1915L60.0887 84.682L60.3799 84.4345C60.4344 84.3945 60.4672 84.3581 60.5364 84.3108C60.6325 84.251 60.748 84.2308 60.8587 84.2546C60.9694 84.2784 61.0665 84.3442 61.1296 84.4381L61.3152 84.7366C61.5518 85.126 61.7738 85.49 61.9812 85.8284L62.9312 87.4116C63.0294 87.5863 63.1131 87.7283 63.1823 87.8484C63.2122 87.8952 63.2366 87.9452 63.2551 87.9976Z" fill="#E0E0E0"/>
<path d="M60.7075 81.9851C60.6909 81.8985 60.68 81.811 60.6747 81.723C60.6329 81.4947 60.5195 81.2856 60.3508 81.1262C60.2178 80.9986 60.052 80.9103 59.8719 80.8712C59.6918 80.8321 59.5044 80.8437 59.3304 80.9047C59.1565 80.9657 59.0029 81.0737 58.8866 81.2167C58.7704 81.3597 58.696 81.5321 58.6718 81.7149C58.6476 81.8976 58.6745 82.0834 58.7496 82.2518C58.8246 82.4201 58.9448 82.5644 59.0969 82.6685C59.2489 82.7727 59.4269 82.8326 59.611 82.8418C59.795 82.8509 59.9781 82.8089 60.1397 82.7203C60.3444 82.6117 60.508 82.4391 60.6055 82.2289C60.6783 82.0761 60.6929 81.9814 60.7075 81.9851C60.722 81.9887 60.7293 82.0834 60.6747 82.2544C60.5951 82.4986 60.4296 82.7055 60.2088 82.8367C60.0449 82.9347 59.8589 82.9897 59.668 82.9967C59.4772 83.0037 59.2877 82.9625 59.117 82.8768C58.898 82.7704 58.7179 82.5979 58.6023 82.3836C58.4867 82.1693 58.4414 81.9242 58.4728 81.6827C58.5042 81.4413 58.6107 81.2158 58.7772 81.0382C58.9438 80.8606 59.1619 80.7399 59.4009 80.6931C59.5884 80.6612 59.7809 80.6769 59.9608 80.7385C60.1407 80.8002 60.3023 80.9059 60.4309 81.0461C60.609 81.2315 60.7159 81.4738 60.7329 81.7303C60.7548 81.8941 60.7184 81.9851 60.7075 81.9851Z" fill="#E0E0E0"/>
<path d="M119.664 17.4964C119.798 17.5622 119.944 17.6017 120.094 17.6128C120.272 17.6178 120.448 17.5697 120.599 17.4745C120.695 17.415 120.778 17.337 120.843 17.2452C120.912 17.147 120.978 17.0269 121.051 16.9068L123.529 12.8414C123.791 12.4119 124.064 11.9606 124.352 11.4948C124.494 11.2582 124.643 11.0216 124.792 10.7669L125.018 10.4029C125.097 10.2887 125.164 10.1667 125.218 10.039C125.261 9.90841 125.271 9.76922 125.247 9.63391C125.222 9.4986 125.165 9.3714 125.08 9.26375C124.986 9.15361 124.871 9.0633 124.741 8.99806L124.341 8.75421L122.685 7.73515L115.322 3.19666C115.176 3.10682 115.005 3.06548 114.834 3.07855C114.662 3.09162 114.5 3.15843 114.369 3.26945C114.303 3.32497 114.247 3.39 114.201 3.46235L114.056 3.70255L113.757 4.18297L112.596 6.07188L110.412 9.62042L109.885 10.4393C109.815 10.5672 109.78 10.7111 109.783 10.8566C109.786 11.0022 109.828 11.1445 109.903 11.2691C109.979 11.3919 110.086 11.4933 110.212 11.5639C110.343 11.644 110.474 11.7241 110.602 11.8078L111.37 12.2809L114.161 14.0206L118.197 16.5464L119.289 17.2416C119.406 17.3217 119.5 17.3799 119.573 17.4272C119.646 17.4745 119.668 17.4927 119.664 17.4964C119.628 17.4833 119.594 17.4662 119.562 17.4454L119.271 17.2743L118.179 16.6119L114.11 14.1334L111.304 12.4156L110.536 11.9424L110.143 11.7022C109.995 11.6186 109.87 11.4999 109.779 11.3565C109.687 11.2066 109.637 11.0352 109.632 10.8595C109.628 10.6838 109.67 10.51 109.754 10.3556L110.27 9.51487L112.454 5.95906L113.612 4.08106L113.906 3.60429L114.056 3.36408C114.11 3.27479 114.179 3.19491 114.259 3.12751C114.421 2.99006 114.622 2.90727 114.834 2.89093C115.046 2.87459 115.257 2.92554 115.439 3.03652L122.794 7.58593L124.428 8.61955L124.829 8.86704C124.968 8.9434 125.092 9.04596 125.192 9.16912C125.294 9.29865 125.361 9.45115 125.389 9.61306C125.417 9.77498 125.404 9.94128 125.353 10.0972C125.296 10.2386 125.222 10.373 125.134 10.4975L124.905 10.8615C124.756 11.1053 124.607 11.3419 124.461 11.5894C124.173 12.0553 123.893 12.5029 123.627 12.9288L121.08 16.965C121.003 17.0851 120.942 17.1979 120.865 17.3035C120.791 17.3986 120.7 17.4789 120.596 17.54C120.434 17.6374 120.246 17.6819 120.057 17.6674C119.943 17.6584 119.832 17.6275 119.73 17.5764C119.705 17.5518 119.683 17.525 119.664 17.4964Z" fill="#E0E0E0"/>
<path d="M118.663 9.75155L119.337 11.0982C119.373 11.1572 119.391 11.2253 119.39 11.2945C119.388 11.3636 119.368 11.431 119.329 11.4887C119.291 11.5463 119.237 11.5919 119.174 11.6201C119.111 11.6483 119.041 11.6579 118.973 11.6477L117.44 11.6004L115.948 11.5531C115.879 11.5565 115.81 11.5399 115.749 11.5053C115.689 11.4707 115.64 11.4196 115.608 11.3579C115.576 11.2963 115.562 11.2267 115.568 11.1575C115.574 11.0882 115.6 11.0222 115.642 10.9672L116.483 9.6824L117.331 8.38673C117.364 8.32576 117.414 8.27548 117.475 8.24182C117.535 8.20816 117.604 8.19251 117.673 8.19672C117.743 8.20092 117.809 8.22481 117.865 8.26556C117.921 8.30632 117.965 8.36225 117.99 8.42677L118.663 9.75155Z" fill="#E0E0E0"/>
<path d="M174.674 159.838C174.674 159.893 135.575 159.933 87.3371 159.933C39.0995 159.933 0 159.893 0 159.838C0 159.783 39.0914 159.743 87.3371 159.743C135.583 159.743 174.674 159.787 174.674 159.838Z" fill="#263238"/>
<path d="M117.517 30.5732H62.2034V159.838H117.517V30.5732Z" fill="#2B3A8C"/>
<g opacity="0.3">
<path opacity="0.3" d="M77.3256 30.5732H62.2034V159.838H77.3256V30.5732Z" fill="black"/>
</g>
<path d="M92.575 36.0288V34.9952L92.0728 35.8395H91.8253L91.3267 35.0243V36.0288H90.8171V34.0962H91.2721L91.9563 35.2244L92.626 34.0962H93.0809V36.047L92.575 36.0288Z" fill="#F0F0F1"/>
<path d="M94.5188 35.3301V36.0289H93.9656V35.3228L93.2377 34.0781H93.82L94.2822 34.8533L94.7444 34.0781H95.2794L94.5188 35.3301Z" fill="#F0F0F1"/>
<path d="M96.7679 34.5038V34.9333H97.6305V35.3627H96.7679V36.0288H96.2147V34.0962H97.747V34.522L96.7679 34.5038Z" fill="#F0F0F1"/>
<path d="M98.0054 34.0962H98.5549V36.047H98.0054V34.0962Z" fill="#F0F0F1"/>
<path d="M98.9478 34.0962H99.501V35.6102H100.433V36.047H98.9478V34.0962Z" fill="#F0F0F1"/>
<path d="M102.216 35.603V36.0288H100.651V34.0962H102.18V34.522H101.194V34.8241H102.06V35.2354H101.194V35.5993L102.216 35.603Z" fill="#F0F0F1"/>
<path d="M102.387 35.8542L102.566 35.4465C102.758 35.5699 102.981 35.6368 103.21 35.6394C103.439 35.6394 103.53 35.5776 103.53 35.4829C103.53 35.1736 102.438 35.3992 102.438 34.6713C102.438 34.3074 102.722 34.0417 103.301 34.0417C103.548 34.0379 103.791 34.0955 104.011 34.2091L103.84 34.6204C103.675 34.5262 103.49 34.4749 103.301 34.4711C103.068 34.4711 102.984 34.5476 102.984 34.6458C102.984 34.9443 104.076 34.7186 104.076 35.4393C104.076 35.7814 103.792 36.0689 103.214 36.0689C102.923 36.077 102.637 36.0026 102.387 35.8542Z" fill="#F0F0F1"/>
<path d="M115.526 64.9923C115.526 64.9923 115.526 64.8285 115.526 64.5191C115.526 64.2098 115.526 63.7512 115.526 63.1579C115.526 61.9642 115.526 60.2208 115.504 57.9862C115.504 53.5241 115.482 47.1222 115.464 39.3482L115.54 39.4246H79.4582L79.5528 39.33C79.5528 48.5089 79.5528 57.2219 79.5528 64.9741L79.4691 64.8867L105.481 64.9304L112.894 64.9522H114.867H115.377H115.551H114.885H112.931L105.535 64.9777L79.4691 65.0177H79.3563V64.934C79.3563 57.1818 79.3563 48.4688 79.3563 39.2899V39.1953H79.4545H115.537H115.617V39.2717C115.617 47.0676 115.588 53.4659 115.577 57.9571C115.577 60.1845 115.577 61.9241 115.577 63.1143C115.577 63.7002 115.577 64.1515 115.577 64.4609C115.577 64.7703 115.526 64.9923 115.526 64.9923Z" fill="#263238"/>
<g opacity="0.3">
<path opacity="0.3" d="M105.168 55.1108H90.4788V57.5966H105.168V55.1108Z" fill="black"/>
</g>
<path d="M102.467 44.0505H94.8936C94.3931 44.0505 93.9874 44.4563 93.9874 44.9568V50.336C93.9874 50.8365 94.3931 51.2422 94.8936 51.2422H102.467C102.968 51.2422 103.374 50.8365 103.374 50.336V44.9568C103.374 44.4563 102.968 44.0505 102.467 44.0505Z" fill="#F0F0F1"/>
<path d="M102.766 50.1757C102.64 50.067 102.527 49.945 102.427 49.8118L101.557 48.8145L100.964 48.1121L100.804 47.9192C100.784 47.8979 100.759 47.8821 100.731 47.8732C100.703 47.8643 100.673 47.8626 100.644 47.8683C100.582 47.8683 100.549 47.9192 100.484 47.9956L100.298 48.2031L99.9343 48.6253C99.9006 48.6769 99.8555 48.7202 99.8025 48.7517C99.7495 48.7833 99.69 48.8023 99.6285 48.8073C99.5604 48.8075 99.4936 48.7886 99.4357 48.7527C99.4078 48.7337 99.3822 48.7118 99.3592 48.6872L99.3083 48.6289L98.4894 47.6826L98.0563 47.1986L97.8561 46.962C97.8407 46.943 97.8213 46.9277 97.7993 46.9172C97.7773 46.9066 97.7531 46.9012 97.7287 46.9012C97.7043 46.9012 97.6802 46.9066 97.6581 46.9172C97.6361 46.9277 97.6167 46.943 97.6013 46.962L97.5103 47.0821L97.3284 47.3114L96.9644 47.7627L95.7452 49.3168L94.9081 50.3541C94.8102 50.484 94.7019 50.6057 94.5842 50.718C94.6584 50.5722 94.7474 50.4343 94.8499 50.3067L95.6396 49.2331L96.8261 47.6572L97.1901 47.2022C97.2483 47.1258 97.3065 47.0457 97.3684 46.9693L97.4594 46.8492C97.5014 46.7935 97.56 46.7527 97.6268 46.7327C97.6916 46.7156 97.7599 46.7168 97.8242 46.7361C97.8884 46.7553 97.946 46.792 97.9908 46.8419L98.1946 47.0785L98.6095 47.5589L99.4247 48.5088C99.5339 48.6653 99.6613 48.6617 99.7887 48.5088L100.174 48.0866L100.36 47.8865C100.421 47.797 100.513 47.7335 100.618 47.7081C100.675 47.6975 100.734 47.702 100.788 47.7212C100.842 47.7404 100.89 47.7735 100.928 47.8173L101.088 48.0138C101.295 48.2686 101.485 48.5088 101.663 48.7417L102.486 49.7899C102.59 49.9103 102.684 50.0393 102.766 50.1757Z" fill="#263238"/>
<path d="M100.382 46.1066C100.364 46.1066 100.36 46.0375 100.32 45.9283C100.269 45.7719 100.168 45.6364 100.033 45.5425C99.9365 45.4761 99.8258 45.4339 99.7098 45.4193C99.5939 45.4047 99.4762 45.4183 99.3666 45.4588C99.2346 45.5081 99.1207 45.5966 99.0404 45.7123C98.96 45.8281 98.917 45.9657 98.917 46.1066C98.917 46.2476 98.96 46.3852 99.0404 46.5009C99.1207 46.6167 99.2346 46.7052 99.3666 46.7545C99.4762 46.795 99.5939 46.8086 99.7098 46.794C99.8258 46.7794 99.9365 46.7371 100.033 46.6708C100.167 46.5774 100.268 46.4435 100.32 46.2886C100.36 46.1758 100.364 46.1066 100.382 46.1066C100.4 46.1066 100.411 46.1758 100.382 46.3068C100.349 46.4931 100.249 46.6611 100.102 46.78C99.9907 46.8697 99.8584 46.9296 99.7176 46.9538C99.5768 46.978 99.4322 46.9657 99.2974 46.9182C99.1287 46.8598 98.9824 46.7502 98.8789 46.6048C98.7753 46.4593 98.7197 46.2852 98.7197 46.1066C98.7197 45.9281 98.7753 45.754 98.8789 45.6085C98.9824 45.463 99.1287 45.3535 99.2974 45.295C99.4324 45.2473 99.5774 45.2353 99.7183 45.2602C99.8592 45.2851 99.9913 45.346 100.102 45.437C100.25 45.5554 100.349 45.7236 100.382 45.9101C100.411 46.0484 100.389 46.1066 100.382 46.1066Z" fill="#263238"/>
<g opacity="0.4">
<path opacity="0.4" d="M110.478 66.9211H79.0215V91.3605H110.478V66.9211Z" fill="black"/>
</g>
<path d="M97.452 67.8492H91.4722L91.1083 67.2486C90.9922 67.0505 90.8263 66.8862 90.6271 66.7719C90.428 66.6576 90.2024 66.5974 89.9727 66.5972H85.5762C85.2388 66.5977 84.9146 66.728 84.6707 66.9611C84.4268 67.1942 84.2818 67.5122 84.266 67.8492H82.6973C82.3711 67.8492 82.0582 67.9788 81.8275 68.2095C81.5968 68.4402 81.4672 68.7531 81.4672 69.0793V72.1256H98.6821V69.0793C98.6821 68.7531 98.5525 68.4402 98.3218 68.2095C98.0911 67.9788 97.7782 67.8492 97.452 67.8492Z" fill="#E0E0E0"/>
<path d="M100.607 67.8492H94.6423L94.2783 67.2486C94.1631 67.0505 93.998 66.8861 93.7994 66.7718C93.6007 66.6575 93.3756 66.5973 93.1465 66.5972H88.7353C88.3976 66.5977 88.073 66.7279 87.8285 66.9609C87.584 67.1939 87.4383 67.5118 87.4215 67.8492H85.8528C85.5266 67.8492 85.2137 67.9788 84.983 68.2095C84.7523 68.4402 84.6227 68.7531 84.6227 69.0793V72.1256H101.838V69.0793C101.838 68.7531 101.708 68.4402 101.477 68.2095C101.247 67.9788 100.934 67.8492 100.607 67.8492Z" fill="#EBEBEB"/>
<path d="M104.709 67.8492H98.7333L98.3693 67.2486C98.2544 67.0503 98.0893 66.8857 97.8906 66.7713C97.6919 66.657 97.4667 66.5969 97.2374 66.5972H92.8227C92.4853 66.5977 92.1611 66.728 91.9172 66.9611C91.6733 67.1942 91.5283 67.5122 91.5125 67.8492H89.9402C89.6139 67.8492 89.301 67.9788 89.0703 68.2095C88.8396 68.4402 88.71 68.7531 88.71 69.0793V72.1256H105.925V69.0793C105.925 68.7556 105.797 68.4449 105.57 68.2146C105.342 67.9843 105.033 67.853 104.709 67.8492Z" fill="#F5F5F5"/>
<path d="M90.8391 83.7503V69.0939C90.8551 68.7589 91.003 68.4438 91.2505 68.2174C91.4981 67.9911 91.8251 67.8718 92.1602 67.8856H93.4231C93.6689 67.8898 93.9111 67.8261 94.123 67.7016C94.3349 67.577 94.5083 67.3963 94.6242 67.1795L94.8935 66.6409C95.0098 66.4248 95.1834 66.2449 95.3953 66.1209C95.6072 65.997 95.8491 65.9339 96.0945 65.9385H102.089C102.312 65.9353 102.533 65.9878 102.732 66.0914C102.93 66.195 103.099 66.3463 103.224 66.5317L103.519 66.9903C103.645 67.1755 103.815 67.3266 104.014 67.4301C104.213 67.5337 104.434 67.5864 104.658 67.5835H112.301C112.637 67.5697 112.965 67.6895 113.212 67.9166C113.46 68.1438 113.607 68.4598 113.622 68.7955V83.7503H90.8391Z" fill="#2B3A8C"/>
<g opacity="0.3">
<path opacity="0.3" d="M90.8391 83.7503V69.0939C90.8552 68.7589 91.0031 68.4438 91.2506 68.2174C91.4981 67.9911 91.8251 67.8718 92.1603 67.8856H93.4232C93.669 67.8898 93.9111 67.8261 94.123 67.7016C94.335 67.577 94.5084 67.3963 94.6242 67.1795L94.8935 66.6409C95.0099 66.4248 95.1835 66.2449 95.3954 66.1209C95.6073 65.997 95.8492 65.9339 96.0946 65.9385H102.089C102.313 65.9353 102.533 65.9878 102.732 66.0914C102.93 66.195 103.099 66.3463 103.224 66.5317L103.519 66.9903C103.645 67.1755 103.815 67.3266 104.014 67.4301C104.213 67.5337 104.434 67.5864 104.658 67.5835H112.301C112.637 67.5697 112.965 67.6895 113.212 67.9166C113.46 68.1438 113.607 68.4598 113.623 68.7955V83.7503H90.8391Z" fill="black"/>
</g>
<path d="M95.6288 71.8127V60.2317C95.6288 59.7742 95.8105 59.3354 96.1341 59.0119C96.4576 58.6883 96.8964 58.5066 97.3539 58.5066H115.792C116.249 58.5066 116.688 58.6883 117.012 59.0119C117.335 59.3354 117.517 59.7742 117.517 60.2317V71.4924L95.6288 71.8127Z" fill="#F0F0F1"/>
<path d="M96.3492 75.1902V60.5338C96.3644 60.1985 96.512 59.8828 96.7597 59.6562C97.0075 59.4296 97.335 59.3107 97.6704 59.3255H98.9333C99.1781 59.3294 99.4193 59.266 99.6304 59.1421C99.8416 59.0182 100.015 58.8387 100.131 58.6231L100.404 58.0808C100.52 57.8652 100.693 57.6857 100.904 57.5618C101.115 57.4379 101.356 57.3745 101.601 57.3784H107.595C107.82 57.3746 108.042 57.4273 108.241 57.5316C108.44 57.6359 108.61 57.7884 108.735 57.9752L109.029 58.4302C109.154 58.616 109.323 58.7679 109.522 58.8721C109.72 58.9763 109.941 59.0295 110.165 59.0271H117.808C118.143 59.0123 118.471 59.1312 118.719 59.3578C118.966 59.5844 119.114 59.9 119.129 60.2354V75.1902H96.3492Z" fill="#2B3A8C"/>
<path d="M96.3493 75.1903H96.4621H96.786H98.0344L102.718 75.1684L119.129 75.1248L119.042 75.2121C119.042 72.7591 119.042 70.1568 119.042 67.4381V60.5921C119.051 60.4176 119.051 60.2426 119.042 60.068C119.011 59.9032 118.944 59.7473 118.845 59.6119C118.746 59.4765 118.618 59.3649 118.47 59.2856C118.334 59.209 118.185 59.1584 118.03 59.1363C117.868 59.1252 117.705 59.1252 117.542 59.1363H110.19C110.022 59.1385 109.855 59.1127 109.695 59.0599C109.374 58.9585 109.099 58.7439 108.924 58.4557L108.673 58.0627C108.595 57.9406 108.497 57.8333 108.382 57.746C108.148 57.5724 107.864 57.4815 107.574 57.4876H102.264C101.983 57.4876 101.685 57.4876 101.426 57.4876C101.166 57.5204 100.921 57.6307 100.724 57.8043C100.342 58.1355 100.302 58.8088 99.7996 59.14C99.5689 59.304 99.2961 59.3987 99.0134 59.4129H98.2236C97.9699 59.406 97.7161 59.4121 97.463 59.4311C97.2256 59.4648 97.0024 59.5644 96.8188 59.7187C96.6398 59.8686 96.5125 60.0711 96.4548 60.2973C96.4199 60.531 96.4089 60.7675 96.4221 61.0034C96.4221 61.9642 96.4221 62.885 96.4221 63.7658C96.4221 67.2852 96.393 70.135 96.3857 72.1149C96.3857 73.0976 96.3857 73.8655 96.3857 74.3932C96.3857 74.6516 96.3857 74.8518 96.3857 74.9937C96.3857 75.1357 96.3857 75.2012 96.3857 75.2012C96.3857 75.2012 96.3857 75.1357 96.3857 75.0047C96.3857 74.8736 96.3857 74.6735 96.3857 74.4223C96.3857 73.8946 96.3857 73.1339 96.3857 72.1586C96.3857 70.175 96.3638 67.3143 96.3493 63.7876C96.3493 62.902 96.3493 61.9752 96.3493 61.007C96.3365 60.7639 96.3475 60.5201 96.382 60.2791C96.4472 60.0221 96.591 59.7918 96.7933 59.6204C97.0004 59.4457 97.2528 59.3333 97.5212 59.2965C97.7814 59.2748 98.0427 59.2675 98.3037 59.2746H99.0098C99.2628 59.2641 99.5071 59.1793 99.7122 59.0308C100.156 58.7469 100.174 58.1282 100.618 57.706C100.839 57.5064 101.116 57.3793 101.412 57.342C101.714 57.3129 101.983 57.342 102.271 57.342H107.581C107.911 57.3362 108.233 57.4399 108.498 57.6368C108.631 57.7371 108.744 57.8604 108.833 58.0008L109.084 58.3902C109.237 58.644 109.478 58.833 109.761 58.9216C109.902 58.9675 110.049 58.9897 110.198 58.9871H117.528C117.698 58.9728 117.87 58.9728 118.041 58.9871C118.22 59.0131 118.392 59.0711 118.55 59.1582C118.722 59.2508 118.871 59.3811 118.986 59.5393C119.101 59.6974 119.178 59.8794 119.213 60.0717C119.225 60.2571 119.225 60.4431 119.213 60.6285V63.2999C119.213 64.7084 119.213 66.0951 119.213 67.4526C119.213 70.1714 119.213 72.7736 119.213 75.2267V75.3104H119.129L102.649 75.223H97.9944H96.7642H96.3493V75.1903Z" fill="#263238"/>
<path d="M106.766 58.6994C105.963 58.7952 105.153 58.8268 104.345 58.794C103.537 58.8268 102.728 58.7952 101.925 58.6994C102.728 58.6058 103.537 58.5742 104.345 58.6048C105.153 58.5742 105.962 58.6058 106.766 58.6994Z" fill="#F0F0F1"/>
<path d="M103.439 81.3482V66.6918C103.439 66.0258 104.109 65.4835 104.931 65.4835H106.362C106.629 65.4934 106.895 65.4335 107.132 65.3097C107.37 65.1859 107.571 65.0025 107.716 64.7774L108.021 64.2388C108.167 64.0141 108.369 63.8313 108.607 63.7082C108.845 63.585 109.111 63.5258 109.379 63.5364H116.152C116.398 63.5291 116.641 63.5789 116.864 63.6818C117.087 63.7848 117.283 63.938 117.437 64.1296L117.772 64.5882C117.925 64.7795 118.122 64.9326 118.344 65.0356C118.567 65.1385 118.811 65.1884 119.056 65.1814H127.693C128.516 65.1814 129.185 65.7237 129.185 66.3934V81.3482H103.439Z" fill="#2B3A8C"/>
<path d="M103.439 81.3482H103.567H103.931H105.35L110.656 81.3008L129.171 81.2608L129.083 81.3482C129.083 78.866 129.083 76.2528 129.083 73.5632V67.3433C129.083 66.9975 129.083 66.6154 129.083 66.2914C129.058 66.1295 128.996 65.9754 128.903 65.8406C128.81 65.7057 128.687 65.5936 128.545 65.5126C128.247 65.3356 127.903 65.2531 127.558 65.276H119.187C118.833 65.2946 118.481 65.2152 118.168 65.0467C118.013 64.9602 117.873 64.8469 117.757 64.7119C117.648 64.5699 117.561 64.4426 117.459 64.3043C117.289 64.0353 117.032 63.8324 116.731 63.7292C116.429 63.6345 116.111 63.5999 115.795 63.6273H109.277C108.995 63.6411 108.722 63.7277 108.484 63.8784C108.37 63.9536 108.268 64.0457 108.181 64.1514C108.102 64.2685 108.029 64.39 107.963 64.5154C107.89 64.6427 107.825 64.7628 107.745 64.8793C107.66 65.0045 107.556 65.1152 107.435 65.2069C107.197 65.3836 106.918 65.4963 106.624 65.5344C106.049 65.5708 105.532 65.5344 104.971 65.5344C104.72 65.5218 104.469 65.5721 104.241 65.6807C104.014 65.7894 103.817 65.953 103.668 66.1568C103.54 66.3645 103.485 66.6092 103.512 66.8519C103.512 67.1031 103.512 67.3542 103.512 67.6017C103.512 68.0966 103.512 68.5771 103.512 69.0575C103.512 72.8353 103.486 75.8961 103.476 78.018C103.476 79.0771 103.476 79.8996 103.476 80.4674C103.476 80.744 103.476 80.9587 103.476 81.108C103.476 81.2572 103.476 81.3336 103.476 81.3336C103.476 81.3336 103.476 81.2645 103.476 81.1225C103.476 80.9806 103.476 80.7586 103.476 80.4929C103.476 79.9324 103.476 79.1135 103.476 78.0617C103.476 75.9325 103.454 72.8644 103.439 69.072C103.439 68.5989 103.439 68.1112 103.439 67.6162C103.439 67.3651 103.439 67.114 103.439 66.8592C103.414 66.5884 103.476 66.3165 103.618 66.084C103.778 65.8584 103.993 65.6768 104.242 65.5559C104.492 65.4351 104.767 65.3789 105.044 65.3925C105.579 65.3925 106.136 65.3925 106.675 65.3706C106.939 65.3359 107.19 65.233 107.403 65.0722C107.61 64.8907 107.776 64.6659 107.887 64.4134C107.956 64.2872 108.034 64.1656 108.12 64.0495C108.216 63.9269 108.331 63.8212 108.462 63.7365C108.722 63.5691 109.022 63.4725 109.332 63.4563H112.997H115.868C116.205 63.431 116.543 63.4693 116.865 63.5691C117.196 63.6879 117.478 63.9132 117.666 64.2096C117.761 64.3407 117.863 64.4826 117.957 64.6063C118.06 64.7248 118.183 64.8235 118.321 64.8975C118.605 65.0517 118.927 65.1224 119.249 65.1013H127.62C128.002 65.0776 128.382 65.1688 128.712 65.3634C128.88 65.4592 129.024 65.5919 129.133 65.7514C129.242 65.9109 129.313 66.0931 129.342 66.2842C129.342 66.6481 129.342 67.0121 129.342 67.3578V73.5778C129.342 76.2783 129.342 78.8806 129.342 81.3627V81.4501H129.254L110.693 81.4064L105.397 81.3809H103.996H103.519L103.439 81.3482Z" fill="#263238"/>
<path d="M115.857 65.0576C114.795 65.1514 113.728 65.183 112.662 65.1523C111.594 65.1829 110.526 65.1513 109.462 65.0576C110.526 64.9618 111.594 64.9302 112.662 64.963C113.728 64.9301 114.795 64.9617 115.857 65.0576Z" fill="#F0F0F1"/>
<g style="mix-blend-mode:multiply">
<path d="M101.914 71.8054H79.0215V91.5389H101.914V71.8054Z" fill="#2B3A8C"/>
</g>
<g opacity="0.3">
<path opacity="0.3" d="M101.914 71.8054H79.0215V91.5389H101.914V71.8054Z" fill="#2B3A8C"/>
</g>
<path d="M138 66.5972H101.914V92.2413H138V66.5972Z" fill="#2B3A8C"/>
<path d="M137.996 92.2413C137.996 92.2413 137.996 92.0775 137.996 91.7718C137.996 91.4661 137.996 91.0039 137.996 90.4106C137.996 89.2169 137.996 87.4699 137.975 85.2389C137.975 80.7732 137.953 74.3749 137.934 66.5972L138.011 66.6773H101.929L102.023 66.5827C102.023 75.7652 102.023 84.4746 102.023 92.2268L101.94 92.1394L127.951 92.1831L135.365 92.2086H137.338H137.847H138.022H137.858H137.356H135.401L128.006 92.2304L101.921 92.3287H101.834V92.2413C101.834 84.4891 101.834 75.7797 101.834 66.5972V66.488H101.921L138.004 66.5062H138.084V66.5827C138.066 74.3785 138.051 80.7986 138.044 85.2716C138.044 87.4954 138.044 89.2351 138.022 90.4252C138.022 91.0148 138.022 91.4625 138.022 91.7718C138.022 92.0812 137.996 92.2413 137.996 92.2413Z" fill="#263238"/>
<g opacity="0.3">
<path opacity="0.3" d="M130.273 83.4919H113.532V85.9777H130.273V83.4919Z" fill="black"/>
</g>
<path d="M125.145 73.8726H117.571C117.071 73.8726 116.665 74.2783 116.665 74.7788V80.158C116.665 80.6585 117.071 81.0643 117.571 81.0643H125.145C125.646 81.0643 126.051 80.6585 126.051 80.158V74.7788C126.051 74.2783 125.646 73.8726 125.145 73.8726Z" fill="#F0F0F1"/>
<path d="M118.663 76.0017H120.581V76.6459H120.483C120.48 76.5534 120.454 76.4631 120.409 76.3821C120.365 76.3012 120.301 76.232 120.225 76.18C120.111 76.1265 119.986 76.1003 119.861 76.1036V77.7705C119.851 77.8532 119.873 77.9367 119.923 78.0034C119.999 78.0525 120.091 78.0731 120.181 78.0617V78.1418H119.042V78.0617C119.129 78.0727 119.216 78.052 119.289 78.0034C119.314 77.9706 119.333 77.9332 119.344 77.8932C119.354 77.8532 119.357 77.8115 119.351 77.7705V76.0891C119.226 76.0865 119.101 76.1127 118.987 76.1655C118.907 76.2135 118.841 76.2819 118.795 76.3637C118.75 76.4455 118.727 76.5378 118.729 76.6313H118.663V76.0017Z" fill="#263238"/>
<path d="M124.144 76.1727C123.145 76.2989 122.134 76.2989 121.135 76.1727C121.629 76.0774 122.135 76.0456 122.638 76.0781C123.142 76.0454 123.648 76.0772 124.144 76.1727Z" fill="#263238"/>
<path d="M124.203 77.5158C123.204 77.6468 122.192 77.6468 121.193 77.5158C122.192 77.3896 123.203 77.3896 124.203 77.5158Z" fill="#263238"/>
<path d="M124.607 78.8623C123.674 78.958 122.737 78.9897 121.8 78.9569C120.864 78.9898 119.926 78.9582 118.994 78.8623C119.927 78.7686 120.864 78.737 121.8 78.7677C122.737 78.7371 123.674 78.7687 124.607 78.8623Z" fill="#263238"/>
<path d="M115.526 120.801C115.526 120.801 115.526 120.641 115.526 120.331C115.526 120.022 115.526 119.563 115.526 118.97C115.526 117.776 115.526 116.029 115.504 113.798C115.504 109.336 115.482 102.934 115.464 95.1602L115.54 95.2366L79.4436 95.2403L79.5382 95.1456C79.5382 104.325 79.5382 113.034 79.5382 120.786L79.4545 120.702L105.466 120.742L112.88 120.768H114.853H115.537H115.373H114.871H112.916L105.521 120.79L79.4545 120.833H79.3563V120.746C79.3563 112.994 79.3563 104.285 79.3563 95.1056V95.011H79.4545L115.537 95.0292H115.617V95.1056C115.617 102.901 115.588 109.318 115.577 113.791C115.577 116.015 115.577 117.758 115.577 118.948C115.577 119.534 115.577 119.982 115.577 120.291C115.577 120.6 115.526 120.801 115.526 120.801Z" fill="#263238"/>
<g opacity="0.3">
<path opacity="0.3" d="M105.743 110.923H90.4788V113.409H105.743V110.923Z" fill="black"/>
</g>
<path d="M102.162 101.26H94.5878C94.0873 101.26 93.6816 101.666 93.6816 102.166V107.545C93.6816 108.046 94.0873 108.452 94.5878 108.452H102.162C102.662 108.452 103.068 108.046 103.068 107.545V102.166C103.068 101.666 102.662 101.26 102.162 101.26Z" fill="#F0F0F1"/>
<path d="M97.7214 105.93C97.6712 106.028 97.5928 106.109 97.4963 106.163C97.3999 106.216 97.2896 106.24 97.1795 106.231C97.0695 106.222 96.9646 106.18 96.8783 106.112C96.792 106.043 96.7281 105.95 96.6947 105.845C96.6613 105.739 96.66 105.626 96.6909 105.52C96.7218 105.414 96.7835 105.32 96.8682 105.249C96.9529 105.178 97.0567 105.134 97.1665 105.123C97.2763 105.111 97.3871 105.132 97.4848 105.183C97.5494 105.217 97.6067 105.263 97.6535 105.318C97.7003 105.374 97.7358 105.438 97.7577 105.507C97.7797 105.577 97.7878 105.65 97.7816 105.722C97.7753 105.795 97.7549 105.865 97.7214 105.93Z" fill="#263238"/>
<path d="M97.7361 105.729C97.5858 105.32 97.5226 104.884 97.5505 104.448C97.5201 104.018 97.5409 103.585 97.6123 103.16C97.7316 103.577 97.776 104.012 97.7434 104.445C97.7781 104.872 97.7757 105.302 97.7361 105.729Z" fill="#263238"/>
<path d="M99.3738 103.484C99.1274 103.628 98.8456 103.701 98.5601 103.694C98.2747 103.687 97.9969 103.6 97.7579 103.444C97.6086 103.331 97.5686 103.211 97.5904 103.2C97.6123 103.189 97.6851 103.258 97.8306 103.331C98.0236 103.42 98.2305 103.474 98.4421 103.491C98.948 103.542 99.3738 103.426 99.3738 103.484Z" fill="#263238"/>
<path d="M99.4867 106.253C99.4363 106.35 99.3583 106.43 99.2624 106.483C99.1666 106.536 99.0572 106.559 98.9483 106.55C98.8393 106.54 98.7355 106.499 98.6501 106.43C98.5647 106.362 98.5014 106.27 98.4684 106.166C98.4353 106.061 98.4339 105.95 98.4643 105.845C98.4948 105.74 98.5557 105.646 98.6393 105.575C98.723 105.505 98.8257 105.461 98.9344 105.449C99.0431 105.437 99.153 105.457 99.2501 105.507C99.3147 105.541 99.372 105.587 99.4188 105.642C99.4657 105.698 99.5011 105.762 99.523 105.831C99.545 105.901 99.5531 105.974 99.5469 106.046C99.5406 106.118 99.5202 106.189 99.4867 106.253Z" fill="#263238"/>
<path d="M99.5011 106.053C99.3509 105.644 99.2877 105.207 99.3155 104.772C99.2829 104.342 99.3049 103.909 99.381 103.484C99.4958 103.902 99.5389 104.336 99.5084 104.768C99.5432 105.196 99.5408 105.626 99.5011 106.053Z" fill="#263238"/>
<path d="M99.3991 103.862C99.1392 104.033 98.8314 104.116 98.521 104.099C98.2106 104.082 97.9138 103.966 97.674 103.768C97.7031 103.72 98.0598 103.888 98.5329 103.91C99.0061 103.931 99.3737 103.808 99.3991 103.862Z" fill="#263238"/>
<path d="M115.526 148.712C115.526 148.712 115.526 148.549 115.526 148.239C115.526 147.93 115.526 147.471 115.526 146.882C115.526 145.684 115.526 143.941 115.504 141.706C115.504 137.244 115.482 130.842 115.464 123.068L115.54 123.145L79.4582 123.163L79.5528 123.068C79.5528 132.247 79.5528 140.96 79.5528 148.712L79.4691 148.625L105.481 148.669L112.894 148.691H114.867H115.377H115.551H115.388H114.885H112.931L105.535 148.716L79.4691 148.756H79.3563V148.672C79.3563 140.92 79.3563 132.207 79.3563 123.028V122.934H79.4545L115.537 122.952H115.617V123.028C115.617 130.824 115.588 137.241 115.577 141.714C115.577 143.941 115.577 145.681 115.577 146.871C115.577 147.457 115.577 147.908 115.577 148.217C115.577 148.527 115.526 148.712 115.526 148.712Z" fill="#263238"/>
<g opacity="0.3">
<path opacity="0.3" d="M105.743 138.831H90.4788V141.317H105.743V138.831Z" fill="black"/>
</g>
<path d="M102.162 129.077H94.5878C94.0873 129.077 93.6816 129.483 93.6816 129.983V135.362C93.6816 135.863 94.0873 136.269 94.5878 136.269H102.162C102.662 136.269 103.068 135.863 103.068 135.362V129.983C103.068 129.483 102.662 129.077 102.162 129.077Z" fill="#F0F0F1"/>
<path d="M98.8788 131.883L99.6067 132.313C99.6375 132.332 99.6629 132.359 99.6806 132.391C99.6982 132.422 99.7074 132.458 99.7074 132.495C99.7074 132.531 99.6982 132.567 99.6806 132.599C99.6629 132.63 99.6375 132.657 99.6067 132.677L98.8788 133.135L98.1509 133.579C98.1179 133.599 98.0801 133.61 98.0416 133.61C98.003 133.611 97.9649 133.602 97.9313 133.583C97.8976 133.564 97.8696 133.536 97.85 133.503C97.8304 133.47 97.8199 133.432 97.8197 133.394V131.636C97.8189 131.597 97.8284 131.56 97.8471 131.526C97.8658 131.493 97.893 131.465 97.926 131.446C97.9591 131.427 97.9967 131.416 98.0349 131.417C98.0731 131.417 98.1107 131.427 98.1436 131.446L98.8788 131.883Z" fill="#263238"/>
<path d="M168.525 26.4532C168.525 26.6922 168.454 26.9258 168.321 27.1245C168.188 27.3232 168 27.4781 167.779 27.5695C167.558 27.661 167.315 27.6849 167.081 27.6383C166.846 27.5917 166.631 27.4766 166.462 27.3076C166.293 27.1386 166.178 26.9233 166.131 26.6889C166.085 26.4545 166.109 26.2116 166.2 25.9908C166.292 25.77 166.447 25.5813 166.645 25.4485C166.844 25.3157 167.078 25.2449 167.317 25.2449C167.637 25.2449 167.944 25.3722 168.171 25.5988C168.398 25.8254 168.525 26.1327 168.525 26.4532Z" fill="#F0F0F1"/>
<path d="M168.525 26.4531C168.525 26.4531 168.507 26.3476 168.452 26.1692C168.375 25.9191 168.22 25.7006 168.008 25.5469C167.855 25.436 167.677 25.3646 167.489 25.3392C167.302 25.3138 167.111 25.3352 166.934 25.4013C166.72 25.4814 166.534 25.6253 166.404 25.8136C166.273 26.0019 166.203 26.2257 166.203 26.4549C166.203 26.6842 166.273 26.9079 166.404 27.0963C166.534 27.2846 166.72 27.4284 166.934 27.5086C167.112 27.5738 167.302 27.5946 167.489 27.5692C167.676 27.5438 167.854 27.473 168.008 27.363C168.219 27.2085 168.375 26.9903 168.452 26.7406C168.507 26.5623 168.51 26.4531 168.525 26.4531C168.553 26.5531 168.553 26.6589 168.525 26.7588C168.472 27.0462 168.317 27.3047 168.088 27.4867C167.92 27.6202 167.72 27.7088 167.508 27.7445C167.296 27.7801 167.079 27.7616 166.876 27.6906C166.625 27.6012 166.407 27.4362 166.253 27.2182C166.099 27.0002 166.017 26.74 166.017 26.4731C166.017 26.2063 166.099 25.946 166.253 25.7281C166.407 25.5101 166.625 25.3451 166.876 25.2557C167.078 25.1832 167.296 25.1635 167.508 25.1985C167.72 25.2336 167.92 25.3221 168.088 25.4559C168.316 25.6384 168.471 25.8967 168.525 26.1838C168.547 26.2722 168.547 26.3647 168.525 26.4531Z" fill="#263238"/>
<path d="M178.999 28.1057C184.521 28.1057 188.997 23.6295 188.997 18.1079C188.997 12.5863 184.521 8.11011 178.999 8.11011C173.478 8.11011 169.002 12.5863 169.002 18.1079C169.002 23.6295 173.478 28.1057 178.999 28.1057Z" fill="#F0F0F1"/>
<path d="M188.997 18.1079C188.988 18.0537 188.982 17.999 188.979 17.9441L188.946 17.471C188.946 17.3666 188.939 17.2453 188.924 17.107C188.924 16.9796 188.884 16.8413 188.859 16.6921C188.814 16.344 188.744 15.9997 188.648 15.6621C188.415 14.7274 188.041 13.8338 187.538 13.0125C186.352 11.0333 184.513 9.52952 182.338 8.76022C180.163 7.99091 177.788 8.00426 175.622 8.79797C175.185 8.95914 174.76 9.14881 174.348 9.36573C174.137 9.47856 173.937 9.61322 173.729 9.72968C173.52 9.85121 173.32 9.98871 173.132 10.1409C172.738 10.4345 172.362 10.753 172.008 11.0945C171.654 11.461 171.325 11.8501 171.021 12.2592C170.405 13.0865 169.927 14.0083 169.606 14.9888C169.278 15.9992 169.105 17.0531 169.092 18.1151C169.11 19.174 169.287 20.2243 169.617 21.2306C169.938 22.2122 170.416 23.1352 171.032 23.9639C171.328 24.3678 171.652 24.7509 172 25.1103C172.354 25.454 172.729 25.7738 173.125 26.0675C173.313 26.2198 173.513 26.3573 173.722 26.4788C173.929 26.6025 174.13 26.7335 174.341 26.8427C174.758 27.0604 175.19 27.2501 175.633 27.4105C177.299 28.0158 179.097 28.1653 180.841 27.8436C182.223 27.5828 183.535 27.0322 184.689 26.228C185.843 25.4238 186.814 24.3842 187.538 23.1777C188.041 22.3577 188.415 21.4653 188.648 20.5318C188.744 20.1942 188.814 19.8499 188.859 19.5018C188.884 19.3526 188.91 19.2143 188.924 19.0869C188.939 18.9595 188.924 18.8431 188.946 18.723L188.979 18.2462C188.982 18.1925 188.988 18.139 188.997 18.086C189.001 18.1393 189.001 18.1929 188.997 18.2462C188.997 18.3626 188.997 18.5228 188.997 18.723C188.997 18.8285 188.997 18.9486 188.997 19.0869C188.997 19.2252 188.961 19.3562 188.942 19.5055C188.904 19.8569 188.838 20.2049 188.746 20.5464C188.522 21.4912 188.153 22.3959 187.654 23.2287C186.928 24.4578 185.949 25.5185 184.782 26.3405C183.615 27.1625 182.286 27.7269 180.885 27.9965C179.113 28.3296 177.285 28.1826 175.589 27.5706C175.138 27.4085 174.697 27.2164 174.272 26.9956C174.057 26.8791 173.853 26.7445 173.642 26.6316C173.429 26.5056 173.225 26.3658 173.03 26.2131C172.629 25.9145 172.247 25.5899 171.888 25.2413C171.531 24.8747 171.199 24.4844 170.894 24.0731C170.263 23.2299 169.772 22.2911 169.438 21.2925C169.097 20.2643 168.912 19.1909 168.889 18.1079C168.902 17.026 169.078 15.9523 169.413 14.9233C169.743 13.923 170.234 12.9836 170.869 12.1427C171.171 11.7305 171.502 11.3401 171.859 10.9744C172.218 10.6249 172.601 10.3003 173.005 10.0026C173.2 9.84889 173.405 9.70904 173.62 9.5841C173.831 9.46036 174.035 9.3257 174.25 9.22015C174.674 8.99081 175.113 8.79019 175.564 8.61963C177.146 8.04229 178.848 7.87303 180.512 8.12748C182.177 8.38193 183.751 9.05189 185.088 10.0754C186.116 10.857 186.981 11.8311 187.636 12.9434C188.136 13.7773 188.504 14.6833 188.728 15.6294C188.819 15.9697 188.885 16.3164 188.924 16.6666C188.942 16.8195 188.968 16.9614 188.979 17.0888C188.99 17.2162 188.979 17.3327 188.979 17.4528C188.979 17.6566 188.979 17.8167 188.979 17.9295C188.99 17.9884 188.996 18.048 188.997 18.1079Z" fill="#263238"/>
<path d="M178.461 20.1751C177.863 20.1744 177.278 19.9964 176.781 19.6636C176.284 19.3309 175.897 18.8583 175.669 18.3056C175.441 17.7528 175.381 17.1448 175.498 16.5584C175.615 15.972 175.904 15.4334 176.327 15.0108C176.75 14.5882 177.289 14.3005 177.876 14.1841C178.462 14.0677 179.07 14.1278 179.623 14.3568C180.175 14.5858 180.647 14.9735 180.979 15.4708C181.311 15.968 181.489 16.5526 181.489 17.1507C181.488 17.9531 181.168 18.7224 180.601 19.2895C180.033 19.8566 179.263 20.1751 178.461 20.1751ZM178.461 14.4902C177.935 14.4909 177.421 14.6475 176.984 14.9403C176.546 15.2331 176.206 15.6489 176.005 16.1351C175.804 16.6213 175.752 17.1561 175.855 17.6719C175.958 18.1878 176.212 18.6615 176.584 19.0332C176.957 19.4049 177.431 19.6579 177.947 19.7603C178.463 19.8627 178.997 19.8098 179.483 19.6083C179.969 19.4068 180.384 19.0658 180.677 18.6284C180.969 18.1909 181.125 17.6767 181.125 17.1507C181.124 16.4447 180.843 15.768 180.343 15.2692C179.844 14.7704 179.167 14.4902 178.461 14.4902Z" fill="#263238"/>
<path d="M180.184 19.4183L179.889 19.6321L181.624 22.0206L181.918 21.8068L180.184 19.4183Z" fill="#263238"/>
<path d="M177.016 16.0332C176.862 16.232 176.753 16.4618 176.697 16.7066C176.64 16.9515 176.637 17.2057 176.688 17.4518C176.739 17.6979 176.842 17.9302 176.991 18.1326C177.14 18.335 177.331 18.5028 177.551 18.6245" fill="#F0F0F1"/>
<path d="M177.551 18.6247C177.551 18.6466 177.369 18.5956 177.15 18.4136C176.867 18.1692 176.672 17.8377 176.597 17.4708C176.522 17.104 176.571 16.7226 176.736 16.3864C176.863 16.1316 177.001 16.0225 177.016 16.0225C177.03 16.0225 176.947 16.179 176.859 16.4264C176.742 16.7472 176.717 17.0944 176.788 17.4284C176.859 17.7624 177.022 18.0698 177.26 18.3154C177.423 18.5083 177.565 18.5992 177.551 18.6247Z" fill="#263238"/>
<path d="M168.095 51.0455C167.549 41.2988 163.196 36.7676 161.908 29.1501C161.267 25.325 161.431 21.4088 158.72 18.6392C157.741 17.6383 155.925 16.6119 154.538 16.4554C153.777 16.3608 152.602 16.3899 151.914 16.7139C150.629 16.5246 150.05 16.4627 149.148 16.7139C148.078 17.0123 146.6 17.8385 145.872 18.6974C143.94 21.0558 143.539 24.2986 143.51 27.3485C143.475 32.2816 144.161 37.1934 145.545 41.9285C145.627 42.3931 145.866 42.8155 146.222 43.1259C146.64 43.4098 147.193 43.3552 147.677 43.2751C149.574 42.9753 151.437 42.4902 153.239 41.8266C153.497 41.7525 153.734 41.6206 153.934 41.4408C154.429 40.9385 154.221 40.1124 153.996 39.4463L158.934 35.2208C158.607 38.1579 157.661 40.9968 157.242 43.9229C156.742 47.4333 157.007 51.0105 158.021 54.4084C159.938 54.0103 161.911 53.9659 163.844 54.2774C164.31 54.3538 165.063 58.0188 165.475 57.7895C166.17 57.3892 168.161 51.8571 168.095 51.0455Z" fill="#263238"/>
<path d="M150.567 18.8103L151.968 18.6538L157.319 20.8084C157.693 20.8301 158.047 20.9918 158.308 21.2614C158.57 21.5309 158.72 21.8888 158.731 22.2642L158.698 39.6793C158.757 40.8067 158.423 41.9197 157.752 42.8275L157.002 43.8211C155.288 46.0813 151.761 45.8957 150.407 43.4026C150.324 43.2615 150.26 43.1096 150.218 42.9513C150.183 42.8232 150.156 42.6932 150.138 42.5618C149.989 41.6967 149.932 40.8185 149.967 39.9414C149.872 38.4019 149.843 37.7577 149.843 37.7832C149.843 37.8086 146.567 37.4192 145.676 33.201C145.235 31.1083 145.17 27.6434 145.206 24.8082C145.232 22.2569 147.415 18.8103 150.567 18.8103Z" fill="#FFBE9D"/>
<path d="M146.207 28.1236C146.215 28.2643 146.277 28.3964 146.38 28.4922C146.483 28.588 146.619 28.6398 146.76 28.6368C146.83 28.6393 146.899 28.6277 146.964 28.6028C147.028 28.5779 147.088 28.5403 147.138 28.492C147.187 28.4438 147.227 28.386 147.254 28.3221C147.281 28.2582 147.295 28.1894 147.295 28.12C147.29 27.9784 147.229 27.8445 147.127 27.7467C147.024 27.6489 146.887 27.5948 146.746 27.5959C146.675 27.5939 146.605 27.6062 146.54 27.6319C146.474 27.6576 146.415 27.6962 146.364 27.7454C146.314 27.7947 146.274 27.8536 146.247 27.9185C146.22 27.9835 146.207 28.0533 146.207 28.1236Z" fill="#263238"/>
<path d="M151.652 27.7815C151.658 27.9238 151.719 28.0582 151.822 28.1561C151.925 28.254 152.063 28.3076 152.205 28.3056C152.275 28.3071 152.344 28.2947 152.408 28.2693C152.473 28.2438 152.532 28.2057 152.582 28.1573C152.631 28.1089 152.671 28.0511 152.698 27.9872C152.725 27.9233 152.74 27.8546 152.74 27.7852C152.734 27.6433 152.673 27.5092 152.57 27.4119C152.466 27.3146 152.329 27.2618 152.187 27.2647C152.118 27.2623 152.048 27.2738 151.984 27.2987C151.919 27.3236 151.86 27.3613 151.81 27.4095C151.76 27.4577 151.72 27.5155 151.693 27.5795C151.666 27.6434 151.652 27.7121 151.652 27.7815Z" fill="#263238"/>
<path d="M146.007 26.5586C146.076 26.6241 146.473 26.3002 147.059 26.271C147.645 26.2419 148.089 26.5149 148.151 26.4421C148.213 26.3693 148.107 26.282 147.91 26.1546C147.649 25.9936 147.344 25.9162 147.037 25.9326C146.733 25.9469 146.441 26.0578 146.204 26.2492C146.025 26.3984 145.96 26.5295 146.007 26.5586Z" fill="#263238"/>
<path d="M151.561 26.2567C151.634 26.3222 152.02 25.9837 152.606 25.9401C153.191 25.8964 153.639 26.1548 153.697 26.0784C153.756 26.0019 153.646 25.9219 153.45 25.7981C153.183 25.6442 152.876 25.5756 152.569 25.6016C152.265 25.6261 151.976 25.7458 151.743 25.9437C151.576 26.0893 151.525 26.2276 151.561 26.2567Z" fill="#263238"/>
<path d="M149.901 30.8207C149.587 30.7412 149.265 30.6996 148.94 30.6969C148.791 30.6969 148.649 30.6678 148.617 30.5659C148.597 30.412 148.625 30.2557 148.697 30.1183L149.079 28.9572C149.614 27.3085 149.989 25.951 149.923 25.9328C149.858 25.9146 149.37 27.2321 148.831 28.8845C148.704 29.2921 148.58 29.6779 148.467 30.0491C148.383 30.2341 148.366 30.4427 148.42 30.6387C148.444 30.6913 148.479 30.7375 148.524 30.7736C148.569 30.8096 148.622 30.8345 148.678 30.8462C148.762 30.8652 148.848 30.8725 148.933 30.868C149.257 30.8939 149.582 30.878 149.901 30.8207Z" fill="#263238"/>
<path d="M149.843 37.7685C151.844 37.6929 153.784 37.0629 155.448 35.9487C155.448 35.9487 154.167 38.9586 149.901 38.773L149.843 37.7685Z" fill="#EB996E"/>
<path d="M150.218 32.2182C150.323 32.0725 150.463 31.9559 150.625 31.8795C150.788 31.8031 150.967 31.7693 151.146 31.7815C151.275 31.7864 151.403 31.8176 151.52 31.8733C151.637 31.929 151.741 32.008 151.827 32.1054C151.909 32.1992 151.961 32.3159 151.976 32.44C151.991 32.5641 151.968 32.6898 151.91 32.8005C151.82 32.909 151.7 32.9887 151.565 33.0301C151.429 33.0715 151.285 33.0726 151.15 33.0335C150.869 32.9478 150.608 32.8081 150.382 32.6222C150.312 32.5794 150.252 32.5238 150.203 32.4584C150.182 32.4259 150.171 32.388 150.171 32.3492C150.171 32.3105 150.182 32.2725 150.203 32.24" fill="#EB996E"/>
<path d="M151.645 31.1409C151.546 31.1409 151.579 31.7741 151.059 32.2546C150.538 32.735 149.858 32.6949 149.854 32.7859C149.85 32.8769 150.014 32.8988 150.298 32.8951C150.67 32.8799 151.025 32.7358 151.303 32.4875C151.569 32.248 151.731 31.9135 151.754 31.5558C151.783 31.2901 151.688 31.1336 151.645 31.1409Z" fill="#263238"/>
<path d="M151.557 24.1314C151.645 24.277 152.132 24.0768 152.747 24.0149C153.363 23.9531 153.887 24.0149 153.93 23.8548C153.948 23.782 153.828 23.6546 153.599 23.5527C153.304 23.4295 152.981 23.3856 152.664 23.4253C152.349 23.4577 152.048 23.5747 151.794 23.7638C151.597 23.9057 151.517 24.0659 151.557 24.1314Z" fill="#263238"/>
<path d="M145.88 24.3389C145.989 24.4663 146.386 24.3098 146.87 24.2771C147.354 24.2443 147.769 24.3244 147.856 24.1788C147.896 24.1096 147.823 23.9786 147.638 23.8621C147.389 23.7227 147.105 23.6607 146.821 23.684C146.537 23.7074 146.266 23.815 146.044 23.9932C145.88 24.1388 145.829 24.2698 145.88 24.3389Z" fill="#263238"/>
<path d="M157.901 29.3903C157.901 29.0737 158.214 28.2984 158.523 28.2475C159.35 28.0764 160.853 28.0692 160.973 30.1837C161.137 33.0735 158.203 32.6404 158.192 32.5603C158.181 32.4803 157.97 30.4822 157.901 29.3903Z" fill="#FFBE9D"/>
<path d="M159.015 31.414C159.015 31.414 159.065 31.4467 159.153 31.4795C159.27 31.5253 159.4 31.5253 159.517 31.4795C159.819 31.3521 160.048 30.8535 160.03 30.3294C160.025 30.0761 159.963 29.8271 159.848 29.6015C159.816 29.5128 159.763 29.4333 159.693 29.3698C159.623 29.3064 159.539 29.261 159.448 29.2375C159.389 29.2257 159.328 29.2349 159.275 29.2635C159.223 29.2921 159.182 29.3383 159.16 29.394C159.124 29.4741 159.16 29.5323 159.131 29.5396C159.102 29.5469 159.069 29.4923 159.084 29.3722C159.096 29.3006 159.132 29.2351 159.186 29.1866C159.223 29.1532 159.267 29.1279 159.314 29.1122C159.362 29.0966 159.412 29.0909 159.462 29.0956C159.582 29.1124 159.695 29.1598 159.792 29.2331C159.888 29.3064 159.964 29.4031 160.012 29.5141C160.15 29.7575 160.227 30.0313 160.234 30.3112C160.234 30.8935 159.979 31.454 159.568 31.5996C159.492 31.6272 159.411 31.637 159.331 31.6282C159.25 31.6193 159.173 31.5921 159.106 31.5486C159.022 31.4831 159.004 31.4212 159.015 31.414Z" fill="#EB996E"/>
<path d="M159.426 25.0558C159.626 23.9057 159.193 22.2897 158.895 21.1615C158.599 20.2259 157.986 19.4227 157.162 18.8904C155.893 17.9788 154.356 17.5153 152.795 17.5729L152.216 17.7622C151.364 17.693 150.447 17.875 149.978 18.5628L149.96 18.5847V17.7913C148.405 17.9805 147.048 19.0141 146.145 20.2953C145.243 21.5764 144.74 23.0904 144.326 24.6045C146.236 22.8939 148.307 21.005 149.901 18.9887C151.572 21.1724 154.043 22.5772 156.3 24.2114C156.7 25.2753 156.881 26.4094 156.831 27.5452C156.831 30.384 157.431 32.9499 157.654 35.7851C157.781 37.4156 157.77 38.8132 159.441 38.6712C159.659 33.4267 158.542 30.2021 159.426 25.0558Z" fill="#263238"/>
<path d="M161.337 24.8372C161.079 24.9264 160.809 24.9755 160.536 24.9828C159.88 25.037 159.22 25.0101 158.571 24.9028C157.923 24.7914 157.29 24.6096 156.682 24.3605C156.423 24.275 156.178 24.1524 155.954 23.9965C155.979 23.931 157.111 24.4624 158.6 24.7244C159.507 24.8362 160.423 24.8739 161.337 24.8372Z" fill="black"/>
<path d="M160.882 23.2832C160.727 23.2922 160.572 23.2824 160.419 23.2541C160.125 23.2287 159.692 23.1631 159.175 23.0685C157.805 22.8064 156.464 22.4114 155.171 21.8893C153.883 21.3655 152.65 20.717 151.488 19.9531C151.044 19.6583 150.695 19.4072 150.462 19.2252C150.329 19.1392 150.207 19.0378 150.098 18.9231C150.237 18.9902 150.369 19.072 150.491 19.1669C150.735 19.3344 151.095 19.5673 151.546 19.8439C152.732 20.5737 153.978 21.202 155.27 21.7219C156.549 22.2363 157.868 22.6441 159.215 22.9411C159.732 23.0576 160.154 23.1413 160.445 23.1886C160.593 23.2068 160.739 23.2385 160.882 23.2832Z" fill="black"/>
<path d="M145.174 23.6218C144.999 23.9189 144.773 24.1817 144.504 24.397C144.1 24.7901 143.743 25.0776 143.707 25.0376C143.879 24.7427 144.105 24.4823 144.373 24.2697C144.596 24.0047 144.868 23.7848 145.174 23.6218Z" fill="black"/>
<path d="M149.876 42.8311C150.196 42.2706 149.952 39.9595 149.952 39.9595L149.206 41.3134C147.623 41.9285 145.443 42.8056 144.839 43.235C143.925 43.8756 142.688 46.5761 142.688 46.5761L135.045 56.25L120.738 53.746L119.391 60.9013L124.221 61.9022L132.705 62.994C135.089 63.5108 137.411 63.7001 139.278 62.1351L139.405 61.8876C138.732 71.5324 139.66 82.1634 139.976 91.8263C139.949 92.5845 140.087 93.3396 140.38 94.0392C140.864 94.9927 142.67 95.495 143.732 95.3531C144.795 95.2111 144.46 94.5342 144.682 93.4896C144.806 92.9182 144.271 92.1248 144.198 91.5425C143.16 83.1497 142.121 74.757 141.083 66.3642C141.046 65.8474 141.014 65.367 140.977 64.9412C140.613 60.5046 140.559 59.3035 140.752 57.2727C141.068 54.1391 147.699 46.6271 149.876 42.8311Z" fill="#8CBF43"/>
<path d="M141.887 49.0837C141.828 49.2356 141.754 49.3818 141.669 49.5205C141.516 49.7898 141.305 50.1902 141.064 50.6924C139.802 53.3162 139.13 56.1847 139.095 59.0961C139.095 59.6529 139.095 60.1042 139.117 60.4136C139.134 60.5757 139.134 60.7391 139.117 60.9013C139.075 60.7443 139.049 60.5833 139.041 60.4209C139.004 60.1079 138.975 59.6566 138.964 59.0961C138.942 57.6265 139.099 56.1598 139.434 54.7286C139.77 53.303 140.277 51.9233 140.944 50.6196C141.145 50.2238 141.366 49.8387 141.607 49.4659C141.686 49.3288 141.78 49.2007 141.887 49.0837Z" fill="#263238"/>
<g opacity="0.3">
<path opacity="0.3" d="M140.864 50.7544C139.747 52.3667 138.717 54.0991 138.226 56.0062C137.734 57.9133 138.047 58.9943 138.004 60.996L139.15 61.2544C138.906 57.6659 139.045 55.2965 140.864 50.7544Z" fill="black"/>
</g>
<path d="M140.457 56.0064C140.448 55.9436 140.448 55.88 140.457 55.8171C140.476 55.6374 140.506 55.4588 140.544 55.2821C140.695 54.6352 140.889 53.9992 141.126 53.3787C141.917 51.3383 142.825 49.3454 143.845 47.4098C144.18 46.762 144.511 46.136 144.839 45.5391L144.864 45.4918H144.915L146.12 45.47L146.043 45.5937C145.944 45.3731 145.78 45.1878 145.574 45.0623L145.49 45.0114L145.552 44.935C146.354 43.975 147.218 43.0692 148.14 42.2235C148.474 41.9178 148.747 41.6812 148.937 41.5284C149.029 41.4416 149.13 41.3648 149.239 41.2991C149.158 41.3965 149.069 41.4866 148.973 41.5684L148.209 42.2963C147.317 43.1648 146.473 44.0821 145.683 45.0441L145.661 44.9168C145.898 45.0597 146.087 45.2701 146.203 45.5209L146.258 45.641H146.123L144.922 45.6738L144.999 45.6265C144.675 46.2197 144.347 46.8457 144.012 47.4935C142.844 49.7646 141.858 51.861 141.254 53.4223C141.007 54.0349 140.794 54.6607 140.617 55.2967C140.518 55.7516 140.475 56.0064 140.457 56.0064Z" fill="#263238"/>
<path d="M154.96 142.652L159.652 150.197C159.652 150.197 153.552 157.502 154.28 158.983L169.253 150.419L162.425 138.351L154.96 142.652Z" fill="#2B3A8C"/>
<path d="M163.91 146.921C164.079 146.888 164.255 146.916 164.405 147C164.556 147.084 164.672 147.219 164.732 147.38C164.777 147.547 164.756 147.726 164.674 147.878C164.591 148.03 164.453 148.145 164.288 148.199C164.109 148.238 163.921 148.211 163.761 148.121C163.6 148.031 163.479 147.885 163.419 147.711C163.39 147.532 163.432 147.348 163.535 147.199C163.639 147.049 163.797 146.946 163.975 146.911" fill="#E0E0E0"/>
<g opacity="0.6">
<path opacity="0.6" d="M169.253 150.419L168.525 149.229L154.443 157.895C154.443 157.895 153.945 158.564 154.287 158.987L169.253 150.419Z" fill="#F0F0F1"/>
</g>
<path d="M159.364 150.266C159.411 150.339 159.793 150.164 160.288 150.193C160.783 150.223 161.151 150.419 161.202 150.35C161.253 150.281 160.9 149.924 160.303 149.899C159.706 149.873 159.309 150.197 159.364 150.266Z" fill="#263238"/>
<path d="M158.167 151.817C158.192 151.897 158.578 151.839 159.004 152.006C159.43 152.173 159.688 152.461 159.761 152.414C159.834 152.366 159.641 151.93 159.106 151.733C158.571 151.536 158.13 151.744 158.167 151.817Z" fill="#263238"/>
<path d="M158.352 154.201C158.425 154.179 158.32 153.757 157.901 153.473C157.482 153.189 157.053 153.218 157.057 153.298C157.06 153.378 157.395 153.469 157.734 153.713C158.072 153.957 158.276 154.241 158.352 154.201Z" fill="#263238"/>
<path d="M158.487 148.428C158.556 148.476 158.833 148.185 159.262 147.973C159.692 147.762 160.088 147.711 160.092 147.628C160.096 147.544 159.633 147.46 159.131 147.711C158.629 147.962 158.418 148.377 158.487 148.428Z" fill="#263238"/>
<path d="M155.612 145.753L156.118 154.63C156.118 154.63 147.263 158.127 147.197 159.776L164.445 159.412L164.223 145.546L155.612 145.753Z" fill="#2B3A8C"/>
<path d="M161.435 153.771C161.602 153.818 161.745 153.925 161.838 154.072C161.931 154.218 161.966 154.394 161.937 154.565C161.896 154.733 161.793 154.88 161.647 154.975C161.502 155.07 161.325 155.105 161.155 155.074C160.976 155.027 160.822 154.913 160.724 154.756C160.626 154.6 160.591 154.411 160.627 154.23C160.687 154.058 160.812 153.916 160.975 153.835C161.138 153.753 161.327 153.738 161.5 153.793" fill="#E0E0E0"/>
<g opacity="0.6">
<path opacity="0.6" d="M164.445 159.416L164.368 158.019L147.86 158.888C147.86 158.888 147.099 159.252 147.197 159.776L164.445 159.416Z" fill="#F0F0F1"/>
</g>
<path d="M155.834 154.564C155.834 154.648 156.26 154.677 156.682 154.928C157.104 155.18 157.33 155.54 157.41 155.507C157.49 155.474 157.351 154.987 156.838 154.677C156.325 154.368 155.816 154.473 155.834 154.564Z" fill="#263238"/>
<path d="M154.039 155.336C154.039 155.42 154.403 155.554 154.684 155.904C154.964 156.253 155.069 156.632 155.153 156.632C155.237 156.632 155.281 156.148 154.906 155.718C154.531 155.289 154.043 155.256 154.039 155.336Z" fill="#263238"/>
<path d="M153.06 157.523C153.137 157.523 153.246 157.116 153.02 156.661C152.795 156.206 152.394 156.028 152.362 156.097C152.329 156.166 152.576 156.41 152.755 156.788C152.933 157.167 152.977 157.516 153.06 157.523Z" fill="#263238"/>
<path d="M155.943 152.516C155.979 152.588 156.365 152.465 156.842 152.486C157.319 152.508 157.693 152.654 157.733 152.581C157.773 152.508 157.413 152.217 156.853 152.195C156.292 152.173 155.903 152.45 155.943 152.516Z" fill="#263238"/>
<path d="M142.746 79.4302C142.746 79.4302 141.956 117.212 142.67 119.829C143.383 122.446 157.97 149.185 157.97 149.185L166.781 144.858L155.095 116.622L157.69 80.3182L142.746 79.4302Z" fill="#263238"/>
<path d="M162.072 77.3193C162.072 77.3193 167.138 85.5883 166.239 90.5526C165.875 92.5871 163.102 97.1038 163.102 97.1038V121.328L165.249 153.651H154.964L150.557 125.139C150.557 125.139 149.013 122.522 148.417 120.262C147.82 118.002 145.894 91.3097 145.894 91.3097L142.819 80.453L162.072 77.3193Z" fill="#263238"/>
<path d="M164.234 136.574C164.215 136.801 164.215 137.029 164.234 137.255C164.234 137.692 164.281 138.325 164.325 139.104C164.412 140.669 164.569 142.824 164.747 145.204C164.925 147.584 165.085 149.739 165.184 151.3C165.235 152.053 165.278 152.676 165.307 153.149C165.313 153.376 165.336 153.602 165.377 153.826C165.394 153.599 165.394 153.372 165.377 153.145C165.377 152.705 165.355 152.053 165.322 151.293C165.26 149.728 165.125 147.569 164.958 145.189C164.791 142.809 164.594 140.691 164.47 139.093C164.408 138.343 164.354 137.721 164.314 137.248C164.306 137.022 164.279 136.796 164.234 136.574Z" fill="black"/>
<path d="M160.976 81.5484C160.898 81.6638 160.805 81.769 160.7 81.8614C160.429 82.1308 160.135 82.3745 159.819 82.5893C158.773 83.2971 157.556 83.7096 156.295 83.7833C155.035 83.8569 153.778 83.589 152.656 83.0079C152.319 82.8378 151.998 82.6355 151.699 82.4037C151.584 82.326 151.48 82.2329 151.39 82.1271C151.412 82.0944 151.863 82.4911 152.718 82.8878C153.829 83.4192 155.056 83.6602 156.285 83.5883C157.514 83.5163 158.705 83.1338 159.746 82.4765C160.543 81.9597 160.951 81.5229 160.976 81.5484Z" fill="black"/>
<path d="M145.982 89.1514C145.991 89.1957 145.997 89.2408 146 89.286C146 89.3843 146.018 89.5117 146.033 89.6755C146.058 90.0394 146.095 90.538 146.142 91.1822C146.233 92.507 146.364 94.3959 146.524 96.7289C146.852 101.413 147.252 107.884 147.889 115.017C147.976 115.989 148.071 116.946 148.184 117.885C148.245 118.355 148.293 118.824 148.395 119.265C148.514 119.707 148.657 120.142 148.824 120.568C149.461 122.275 150.138 123.883 150.782 125.394C151.466 129.787 152.045 133.503 152.453 136.13C152.668 137.43 152.835 138.46 152.951 139.177C153.013 139.519 153.061 139.788 153.093 139.981C153.119 140.072 153.139 140.164 153.152 140.258C153.118 140.17 153.09 140.08 153.068 139.988C153.028 139.806 152.962 139.537 152.897 139.188C152.759 138.485 152.573 137.455 152.351 136.149C151.903 133.535 151.299 129.819 150.611 125.423V125.448C149.96 123.938 149.279 122.329 148.639 120.619C148.467 120.188 148.322 119.748 148.202 119.301C148.093 118.832 148.045 118.366 147.983 117.896C147.871 116.954 147.772 115.993 147.689 115.021C147.063 107.884 146.67 101.409 146.378 96.7252L146.058 91.1749L145.982 89.6645C145.982 89.5008 145.982 89.3697 145.982 89.2715C145.979 89.2315 145.979 89.1913 145.982 89.1514Z" fill="black"/>
<path d="M149.992 41.561C149.992 41.561 149.883 43.2206 151.226 43.2206C153.119 43.2206 157.089 39.5811 157.089 39.5811L149.446 57.8224V79.8815L142.972 80.5621C142.972 80.5621 142.215 80.4529 142.062 79.3611C141.756 77.2247 141.8 73.3304 141.552 71.7181C140.784 66.7319 139.27 64.0168 139.481 60.0716C139.802 54.201 148.06 44.0577 148.06 44.0577L149.992 41.561Z" fill="#F0F0F1"/>
<path d="M157.97 37.281C157.014 39.0737 155.948 40.8057 154.778 42.4673C153.13 44.7639 142.662 60.7996 142.662 60.7996L146.844 93.3297L147.31 96.0848C147.34 96.2684 147.408 96.444 147.508 96.6008C147.608 96.7577 147.739 96.8926 147.893 96.9974C148.047 97.1022 148.22 97.1747 148.403 97.2105C148.585 97.2463 148.773 97.2447 148.955 97.2058L167.444 93.9557C167.678 93.9145 167.901 93.8241 168.097 93.6904C168.294 93.5566 168.46 93.3827 168.584 93.18C168.708 92.9773 168.788 92.7505 168.818 92.5147C168.848 92.2788 168.827 92.0393 168.758 91.812L160.518 68.6064L165.846 48.014C165.846 48.014 165.653 45.0186 162.407 41.976C161.788 41.3973 159.233 39.2791 158.815 38.7004L157.97 37.281Z" fill="#8CBF43"/>
<g opacity="0.3">
<path opacity="0.3" d="M143.976 71.0119C143.976 71.0119 152.485 77.7596 156.631 77.8251C160.776 77.8906 162.927 74.3785 162.927 74.3785L154.593 74.6078L143.674 68.6062L143.976 71.0119Z" fill="black"/>
</g>
<path d="M137.658 64.6244C137.658 64.6244 145.337 69.6979 146.757 70.6587C148.176 71.6196 154.877 75.5102 155.75 75.7941C156.624 76.078 162.043 76.1107 163.029 74.2691C164.015 72.4275 164.692 68.4969 164.692 68.4969L166.01 50.11C166.141 48.4014 165.674 46.7005 164.689 45.2985C163.895 44.1775 162.847 43.1658 161.712 43.3332C159.291 43.6971 154.087 49.5458 154.338 52.5521C154.589 55.5583 154.593 63.9329 154.593 63.9329L140.883 59.3944L137.658 64.6244Z" fill="#8CBF43"/>
<path d="M164.689 45.2769C164.779 45.3935 164.863 45.515 164.94 45.6408C165.167 45.9948 165.362 46.3688 165.522 46.7581C165.779 47.387 165.948 48.0484 166.024 48.7235C166.087 49.637 166.066 50.5543 165.962 51.464C165.675 55.5622 165.271 61.3963 164.787 68.3769C164.649 69.1631 164.48 69.9577 164.281 70.7608C164.086 71.5812 163.843 72.3894 163.553 73.1811C163.412 73.5981 163.216 73.9946 162.971 74.3603C162.692 74.7166 162.333 75.0021 161.923 75.1937C161.107 75.5939 160.23 75.8536 159.328 75.9617C158.408 76.1039 157.473 76.1296 156.547 76.0381C156.069 76.0027 155.601 75.8793 155.168 75.6742C154.745 75.4594 154.33 75.2301 153.912 75.0009C152.249 74.0691 150.567 73.0901 148.868 72.0892C146.837 70.91 144.948 69.578 143.07 68.3478L137.611 64.7083L137.538 64.661L137.581 64.5845L140.813 59.2599L140.85 59.2017L140.915 59.2235L154.618 63.8712L154.534 63.9258C154.815 60.5046 155.04 57.7859 155.193 55.9188C155.273 54.9907 155.335 54.2738 155.375 53.7824C155.397 53.5422 155.415 53.3602 155.426 53.2292C155.437 53.0982 155.451 53.0436 155.451 53.0436C155.451 53.0436 155.451 53.1091 155.451 53.2329C155.451 53.3566 155.433 53.5459 155.419 53.7861C155.382 54.2774 155.331 54.998 155.266 55.9261C155.128 57.8005 154.924 60.5192 154.665 63.9331V64.0131L154.589 63.9877L140.864 59.3764L140.963 59.34C139.931 61.0384 138.858 62.8157 137.742 64.6719L137.712 64.5518L143.172 68.1731C145.053 69.3996 146.935 70.7208 148.962 71.9036C150.658 72.9118 152.34 73.8908 153.999 74.8152C154.418 75.0445 154.833 75.2775 155.248 75.4886C155.66 75.692 156.107 75.8155 156.565 75.8525C157.474 75.9426 158.391 75.9194 159.295 75.7833C160.18 75.6761 161.041 75.4228 161.842 75.0336C162.227 74.8528 162.566 74.5864 162.832 74.2548C163.066 73.901 163.254 73.5196 163.393 73.1192C163.682 72.3335 163.925 71.5314 164.121 70.7171C164.317 69.9201 164.485 69.1267 164.627 68.3514C165.136 61.3745 165.566 55.5367 165.868 51.4422C165.978 50.5379 166.006 49.6255 165.951 48.7162C165.883 48.0459 165.723 47.3883 165.475 46.7618C165.324 46.372 165.137 45.9968 164.918 45.6408C164.849 45.5171 164.787 45.4297 164.747 45.3678L164.689 45.2769Z" fill="#263238"/>
<path d="M144.995 57.1817C145.041 57.1108 145.096 57.046 145.159 56.9888L145.658 56.4502L147.477 54.4739L150.207 51.5623C151.255 50.4704 152.372 49.2548 153.694 48.0975V48.2321L153.581 48.1084L152.66 47.0893L152.507 46.9183H152.733L154.447 47.0093L154.363 47.0566C155.739 44.6581 156.936 42.5727 157.806 41.0623C158.232 40.3344 158.574 39.7448 158.825 39.3226L159.106 38.8604C159.135 38.8047 159.171 38.7523 159.211 38.7039C159.194 38.7642 159.168 38.8218 159.135 38.8749L158.88 39.3517L157.908 41.1205C157.053 42.6382 155.877 44.7345 154.52 47.1476L154.494 47.1949H154.436L152.725 47.1075L152.798 46.951L153.723 47.9737L153.832 48.0938L153.897 48.1666L153.825 48.2321C152.525 49.3713 151.393 50.5942 150.345 51.6715L147.583 54.5613C146.8 55.3838 146.16 56.0462 145.712 56.4975C145.486 56.7231 145.312 56.8978 145.192 57.0107C145.13 57.0724 145.065 57.1296 144.995 57.1817Z" fill="#263238"/>
<g opacity="0.3">
<path opacity="0.3" d="M144.38 58.2009L154.789 48.3851L153.905 47.4133H154.789L155.022 46.074L154.44 47.104L152.726 47.0166L153.737 47.9447L145.086 57.0908L144.38 58.2009Z" fill="black"/>
</g>
<path d="M150.953 83.7793C151.01 83.7612 151.069 83.7466 151.128 83.7356L151.655 83.6192L153.668 83.2006L160.681 81.7739H160.743L160.776 81.8285L162.712 84.9767L162.781 85.0932L162.647 85.1187L162.421 85.1623L152.187 87.084H152.136L152.118 87.0367L151.244 84.631C151.153 84.3689 151.077 84.1578 151.022 83.9977C150.995 83.9288 150.972 83.8583 150.953 83.7866C150.991 83.8607 151.024 83.9373 151.051 84.0159C151.117 84.176 151.204 84.3798 151.31 84.6528L152.234 86.993L152.165 86.953L162.385 84.9694L162.614 84.9258L162.549 85.0677L160.623 81.9159L160.718 81.9595L153.752 83.2843L151.706 83.6483L151.153 83.7465C151.087 83.7621 151.02 83.7731 150.953 83.7793Z" fill="#263238"/>
<g opacity="0.3">
<path opacity="0.3" d="M151.069 84.0852L151.808 87.9067L162.407 85.996L162.108 85.1115L152.176 87.0077L151.069 84.0852Z" fill="black"/>
</g>
<path d="M157.268 67.132C157.217 67.1575 156.776 66.284 155.983 65.3923C155.189 64.5006 154.389 63.9365 154.422 63.8965C155.08 64.2266 155.661 64.6931 156.125 65.2649C156.636 65.7976 157.026 66.4345 157.268 67.132Z" fill="#263238"/>
<path d="M119.107 55.2891C119.107 55.2891 116.454 53.695 115.391 52.6795C115.391 52.6795 113.845 52.1918 113.135 53.1672C113.135 53.1672 111.497 53.6185 111.275 53.9243C111.053 54.23 109.685 56.3518 109.685 56.3518C109.685 56.3518 110.412 58.8813 110.478 59.005C110.613 59.2816 110.907 59.5764 111.159 59.2707C111.242 59.1684 111.285 59.0388 111.279 58.9068V58.7394L111.679 58.4591C111.679 58.4591 111.854 59.4418 112.385 59.2889C112.916 59.1361 114.11 58.2517 114.11 58.2517C114.11 58.2517 115.792 59.2088 116.68 59.3035C117.661 59.4708 118.633 59.6895 119.591 59.9586L120.483 55.1471L119.107 55.2891Z" fill="#FFBE9D"/>
<path d="M111.202 58.9541C111.202 58.9541 111.14 59.0233 110.991 58.9942C110.896 58.9618 110.812 58.904 110.748 58.8269C110.684 58.7499 110.642 58.6566 110.627 58.5574C110.554 57.9433 110.554 57.3227 110.627 56.7086C110.692 56.0975 110.788 55.4901 110.915 54.8888C110.949 54.6384 111.016 54.3937 111.115 54.1609C111.177 54.1609 110.969 55.3146 110.813 56.7086C110.744 57.3065 110.722 57.9088 110.747 58.5101C110.753 58.5936 110.782 58.674 110.829 58.743C110.876 58.8121 110.941 58.8673 111.017 58.9032C111.126 58.9687 111.199 58.9396 111.202 58.9541Z" fill="#EB996E"/>
<path d="M114.318 54.8052C113.976 55.1339 113.534 55.3389 113.062 55.3875L113.138 55.3184L113.117 55.4093C113.03 55.8955 112.882 56.3688 112.676 56.8178C112.7 56.3238 112.785 55.8347 112.931 55.362L112.953 55.2674V55.2092H113.015C113.458 55.1059 113.894 54.9709 114.318 54.8052Z" fill="#EB996E"/>
<path d="M116.48 55.1364C116.296 54.9446 116.058 54.8133 115.798 54.76C115.538 54.7067 115.268 54.7339 115.024 54.8379L114.744 55.2019L112.651 56.9488C112.263 57.2279 111.942 57.5897 111.712 58.008C111.602 58.2188 111.564 58.4597 111.603 58.6943C111.642 58.9288 111.757 59.144 111.93 59.3073C112.356 59.6385 112.997 59.4528 113.415 59.1107C113.834 58.7686 114.143 58.3028 114.572 57.9825C115.249 57.4875 116.232 57.3528 116.647 56.6249C116.775 56.3896 116.828 56.1205 116.798 55.8543C116.768 55.588 116.657 55.3374 116.48 55.1364Z" fill="#FFBE9D"/>
<path d="M114.856 54.4775C114.882 54.7448 114.817 55.013 114.671 55.2382C114.531 55.4901 114.353 55.7186 114.143 55.9152C113.887 56.1508 113.612 56.365 113.321 56.5557C112.793 56.8658 112.324 57.2676 111.938 57.7422C111.798 57.9553 111.677 58.1793 111.574 58.4119C111.572 58.149 111.658 57.8931 111.817 57.684C111.972 57.4419 112.161 57.2237 112.378 57.0361C112.64 56.8105 112.918 56.6026 113.208 56.4138C113.489 56.2268 113.759 56.0226 114.016 55.8023C114.22 55.623 114.399 55.4159 114.547 55.1872C114.672 54.961 114.776 54.7233 114.856 54.4775Z" fill="#EB996E"/>
<path d="M125.4 62.8849C125.4 62.8849 125.473 60.2754 126.128 59.5038C126.783 58.7322 130.674 57.7532 130.674 57.7532L140.37 60.0024L138.117 63.6419L137.436 63.0014C137.436 63.0014 134.368 63.9149 132.858 63.5764C131.955 63.3789 131.07 63.1087 130.212 62.7684L128.632 62.8776C128.632 62.8776 127.493 64.0532 127.125 64.0532C126.758 64.0532 126.354 63.7256 126.536 63.358L126.204 62.8048C126.204 62.8048 125.549 63.2125 125.4 62.8849Z" fill="#FFBE9D"/>
<path d="M130.492 61.0687C130.282 61.1979 130.045 61.2787 129.8 61.3053C129.229 61.3728 128.663 61.4835 128.108 61.6365C127.581 61.8474 127.148 62.2434 126.892 62.7502C126.791 62.9685 126.669 63.1768 126.528 63.3725C126.571 63.1308 126.655 62.8982 126.776 62.6847C126.893 62.4425 127.042 62.2172 127.22 62.015C127.444 61.7643 127.726 61.573 128.042 61.4581C128.61 61.2994 129.193 61.2029 129.782 61.1706C130.219 61.1233 130.481 61.0287 130.492 61.0687Z" fill="#EB996E"/>
<path d="M129.72 59.1326C129.72 59.1617 129.414 59.2127 128.934 59.3801C128.654 59.4774 128.38 59.5892 128.112 59.7149C127.783 59.8552 127.474 60.0388 127.194 60.2609C127.072 60.3937 126.966 60.5417 126.881 60.7013C126.787 60.8541 126.703 61.0106 126.63 61.1598C126.498 61.4226 126.393 61.6982 126.317 61.9824C126.19 62.4664 126.212 62.7867 126.175 62.7867C126.105 62.5121 126.105 62.2242 126.175 61.9496C126.237 61.6506 126.333 61.3598 126.463 61.0834C126.536 60.9269 126.616 60.7668 126.71 60.6066C126.801 60.4288 126.916 60.2647 127.052 60.1189C127.349 59.8856 127.678 59.6957 128.028 59.5548C128.306 59.4353 128.592 59.3344 128.883 59.2527C129.151 59.1572 129.436 59.1164 129.72 59.1326Z" fill="#EB996E"/>
</svg>
