<svg width="190" height="192" viewBox="0 0 190 192" fill="none" xmlns="http://www.w3.org/2000/svg">
<g clip-path="url(#clip0)">
<path d="M175.924 181.972C175.924 182.032 137.258 182.084 89.5911 182.084C41.9244 182.084 3.23291 182.032 3.23291 181.972C3.23291 181.912 41.8902 181.861 89.5911 181.861C137.292 181.861 175.924 181.908 175.924 181.972Z" fill="black"/>
<path d="M92.1385 14.201L112.7 13.3442C113.586 13.3064 114.47 13.446 115.302 13.755C116.133 14.0639 116.895 14.536 117.542 15.1435C118.189 15.751 118.709 16.4819 119.071 17.2932C119.432 18.1045 119.629 18.98 119.65 19.8685L120.376 51.7058C120.413 53.3851 119.818 55.0168 118.709 56.2764C117.601 57.5361 116.06 58.3314 114.393 58.5042C113.833 58.5626 113.316 58.8325 112.948 59.259C112.579 59.6855 112.387 60.2367 112.41 60.8004L114.974 128.056C115.058 130.259 114.271 132.405 112.782 134.027C111.293 135.649 109.225 136.615 107.029 136.714L28.4959 140.18C28.2037 140.192 27.9119 140.146 27.6374 140.044C27.3629 139.943 27.111 139.789 26.8962 139.59C26.6814 139.391 26.5079 139.151 26.3856 138.885C26.2634 138.619 26.1948 138.331 26.1838 138.038L22.7091 21.3035C22.6911 20.7309 22.8953 20.1736 23.2786 19.7486C23.6619 19.3237 24.1946 19.0641 24.7648 19.0245L92.1385 14.201Z" fill="#28A8DF"/>
<g opacity="0.3">
<path opacity="0.3" d="M26.1196 135.819L26.1837 138.025L110.751 130.228L109.136 13.4812C109.136 13.4812 88.621 16.5998 88.2321 16.5998C87.8432 16.5998 26.1196 135.819 26.1196 135.819Z" fill="black"/>
</g>
<path d="M81.4323 7.93781L105.973 6.43848L108.507 127.444L22.1278 136.225L9.40869 15.8543L81.4323 7.93781Z" fill="#EBEBEB"/>
<path d="M81.4324 7.93811C81.4324 7.93811 81.0051 7.99379 80.1503 8.08804L76.4149 8.51642L62.0803 10.11L9.41738 15.936L9.49004 15.8418C12.9092 48.0946 17.3455 89.9904 22.2391 136.217L22.1194 136.119L41.4801 134.148L108.512 127.337L108.418 127.444C107.315 74.5386 106.426 31.1436 105.922 6.42592L105.977 6.47304L87.7108 7.56541L83.0095 7.83958L81.4239 7.92525C81.4239 7.92525 81.9581 7.88242 83.0095 7.81387L87.7108 7.51401L105.973 6.37451H106.029V6.42592C106.554 31.1307 107.486 74.5386 108.593 127.431V127.529H108.495L41.5015 134.366L22.1408 136.333H22.0296V136.221C17.1531 89.9989 12.7339 48.1032 9.33618 15.846V15.7604H9.41738L62.0717 10.0158L76.4192 8.46073L80.1588 8.06234L81.4324 7.93811Z" fill="black"/>
<path d="M5.11768 11.832L16.811 133.617L107.272 125.075L94.2283 3.38428L5.11768 11.832Z" fill="white"/>
<path d="M5.11768 11.8318L94.2197 3.29419H94.3095V3.37987C97.9765 37.5433 102.494 79.6319 107.375 125.07V125.182H107.264L106.623 125.242L16.8196 133.715H16.7213V133.612C9.8446 61.5156 5.20315 12.7186 5.11768 11.8318C5.20315 12.7186 9.9258 61.5242 16.9093 133.608L16.8025 133.514L106.623 125.023L107.264 124.963L107.161 125.087C102.297 79.6362 97.7927 37.5562 94.1385 3.39272L94.2368 3.47411L5.11768 11.8318Z" fill="black"/>
<path d="M74.4959 104.195C74.5018 101.552 75.2897 98.9692 76.7601 96.7745C78.2304 94.5798 80.317 92.8714 82.7561 91.8654C85.1952 90.8594 87.8771 90.601 90.4627 91.1229C93.0483 91.6448 95.4214 92.9235 97.2819 94.7973C99.1424 96.6711 100.407 99.0559 100.915 101.65C101.423 104.244 101.153 106.931 100.137 109.371C99.1218 111.811 97.4073 113.894 95.2106 115.357C93.014 116.82 90.4337 117.598 87.7962 117.591C84.2615 117.578 80.876 116.161 78.3825 113.65C75.8891 111.138 74.4913 107.738 74.4959 104.195ZM100.917 104.26C100.924 101.664 100.163 99.1252 98.7295 96.9636C97.2965 94.802 95.2561 93.1148 92.8664 92.1156C90.4767 91.1163 87.845 90.8498 85.3042 91.3498C82.7634 91.8498 80.4276 93.0938 78.5922 94.9245C76.7568 96.7552 75.5042 99.0903 74.993 101.635C74.4817 104.179 74.7347 106.818 75.7199 109.218C76.7051 111.618 78.3783 113.671 80.5279 115.118C82.6775 116.565 85.2069 117.341 87.7962 117.347C91.2664 117.351 94.5966 115.976 97.0564 113.523C99.5162 111.069 100.905 107.738 100.917 104.26Z" fill="#E0E0E0"/>
<path d="M76.0303 104.2C76.0354 101.894 76.7224 99.6424 78.0044 97.7284C79.2865 95.8143 81.106 94.3243 83.2329 93.4468C85.3598 92.5693 87.6986 92.3436 89.9534 92.7984C92.2083 93.2531 94.278 94.3678 95.9008 96.0016C97.5235 97.6353 98.6266 99.7147 99.0703 101.977C99.514 104.239 99.2786 106.582 98.3937 108.71C97.5088 110.838 96.0143 112.655 94.0991 113.932C92.1838 115.208 89.9339 115.887 87.6339 115.882C84.551 115.871 81.5984 114.634 79.4233 112.445C77.2481 110.255 76.028 107.29 76.0303 104.2ZM97.575 104.251C97.58 102.285 97.0034 100.362 95.9179 98.725C94.8324 97.0877 93.2868 95.8099 91.4767 95.0531C89.6666 94.2963 87.6733 94.0946 85.7488 94.4734C83.8242 94.8523 82.0551 95.7947 80.6649 97.1814C79.2748 98.5682 78.3263 100.337 77.9392 102.264C77.5521 104.191 77.7439 106.19 78.4903 108.008C79.2368 109.826 80.5043 111.381 82.1326 112.477C83.761 113.573 85.6769 114.16 87.6382 114.164C90.2635 114.163 92.7815 113.119 94.6407 111.261C96.4999 109.403 97.5488 106.883 97.5579 104.251H97.575Z" fill="#E0E0E0"/>
<path d="M78.8765 104.371C78.8775 103.031 79.1937 101.71 79.7997 100.515L81.3297 101.291C80.6587 102.631 80.441 104.153 80.7096 105.628C80.9782 107.103 81.7185 108.451 82.8186 109.467C83.9186 110.483 85.3188 111.112 86.8074 111.26C88.296 111.408 89.7922 111.067 91.0699 110.287L91.9631 111.756C90.6574 112.555 89.1627 112.991 87.633 113.018C86.1033 113.046 84.5941 112.663 83.2608 111.911C81.9274 111.159 80.8183 110.065 80.0477 108.74C79.277 107.415 78.8727 105.909 78.8765 104.375V104.371Z" fill="#E0E0E0"/>
<path d="M83.5095 96.7374C85.1864 95.8652 87.1029 95.5703 88.9636 95.898C90.8243 96.2258 92.5257 97.1579 93.8055 98.5508C95.0853 99.9437 95.8723 101.72 96.0453 103.605C96.2183 105.491 95.7676 107.381 94.7627 108.985L93.3095 108.068C94.112 106.784 94.4712 105.271 94.3319 103.763C94.1925 102.254 93.5624 100.833 92.5385 99.7189C91.5145 98.6044 90.1535 97.8582 88.6649 97.595C87.1764 97.3318 85.6428 97.5663 84.3002 98.2624L83.5095 96.7374Z" fill="#E0E0E0"/>
<path d="M92.0829 34.699C92.0829 34.7633 75.0215 36.4126 53.9598 38.4217C32.8981 40.4308 15.8153 41.9815 15.811 41.9301C15.8068 41.8787 32.8724 40.2166 53.9384 38.2118C75.0044 36.2069 92.0786 34.6519 92.0829 34.699Z" fill="black"/>
<path d="M50.6989 33.7565C50.6989 33.8165 42.8264 34.6133 33.1033 35.5343C23.3802 36.4553 15.4949 37.1493 15.4863 37.0894C15.4778 37.0294 23.3588 36.2326 33.0819 35.3116C42.805 34.3905 50.6904 33.6923 50.6989 33.7565Z" fill="black"/>
<path d="M92.4164 39.6765C92.4164 39.7365 75.3507 41.39 54.2933 43.3948C33.2358 45.3997 16.1488 46.9547 16.1445 46.8947C16.1403 46.8348 33.2059 45.1812 54.2719 43.1721C75.3379 41.163 92.4121 39.6122 92.4164 39.6765Z" fill="black"/>
<path d="M92.7496 44.6372C92.7496 44.6972 75.684 46.3507 54.6265 48.3555C33.5691 50.3604 16.4821 51.9154 16.4778 51.8554C16.4735 51.7954 33.5392 50.1419 54.6052 48.1328C75.6712 46.1237 92.7454 44.5772 92.7496 44.6372Z" fill="black"/>
<path d="M93.0829 49.5981C93.0829 49.6581 76.0172 51.3116 54.9598 53.3208C33.9023 55.3299 16.8153 56.8763 16.811 56.8164C16.8068 56.7564 33.8724 55.1028 54.9384 53.098C76.0044 51.0932 93.0786 49.5381 93.0829 49.5981Z" fill="black"/>
<path d="M93.4163 54.5588C93.4163 54.6231 76.3506 56.2723 55.2889 58.2814C34.2272 60.2906 17.1487 61.8413 17.1401 61.777C17.1316 61.7128 34.2015 60.0635 55.2675 58.0587C76.3335 56.0539 93.4077 54.4988 93.4163 54.5588Z" fill="black"/>
<path d="M93.7454 59.5451C93.7454 59.6051 76.684 61.2587 55.6223 63.2635C34.5605 65.2683 17.4778 66.8019 17.4778 66.742C17.4778 66.682 34.5392 65.0284 55.6052 63.0193C76.6712 61.0102 93.7411 59.4595 93.7454 59.5451Z" fill="black"/>
<path d="M94.0788 64.4844C94.0788 64.5443 77.2396 66.1979 56.4685 68.1599C35.6974 70.1219 18.8241 71.6683 18.8198 71.5869C18.8156 71.5056 35.659 69.8734 56.4514 67.9157C77.2439 65.958 94.0745 64.4244 94.0788 64.4844Z" fill="black"/>
<path d="M64.6916 74.0287C64.6916 74.0886 54.524 75.0568 41.9759 76.192C29.4277 77.3272 19.243 78.1926 19.2388 78.1326C19.2345 78.0726 29.4021 77.1002 41.9545 75.9907C54.5069 74.8812 64.6831 73.9687 64.6916 74.0287Z" fill="black"/>
<path d="M52.3401 115.042C52.3401 115.102 46.1558 115.68 38.514 116.327C30.8723 116.974 24.6795 117.454 24.6709 117.394C24.6624 117.334 30.8552 116.755 38.4969 116.109C46.1387 115.462 52.3358 114.982 52.3401 115.042Z" fill="black"/>
<path d="M40.45 119.78C40.45 119.84 36.9839 120.187 32.6972 120.551C28.4105 120.915 24.9273 121.164 24.9187 121.104C24.9102 121.044 28.3891 120.697 32.6758 120.328C36.9625 119.96 40.4458 119.72 40.45 119.78Z" fill="black"/>
<path d="M39.497 84.8582C39.497 84.9181 35.4197 85.3722 30.3722 85.8692C25.3247 86.3661 21.2304 86.7259 21.2261 86.6617C21.2218 86.5974 25.3034 86.1476 30.3508 85.6464C35.3983 85.1452 39.4927 84.7939 39.497 84.8582Z" fill="#28A8DF"/>
<g opacity="0.3">
<path opacity="0.3" d="M14.9477 113.011L23.2519 111.401L27.8933 104.384L14.6614 108.74L14.9477 113.011Z" fill="black"/>
</g>
<path d="M0.382324 104.041L22.5553 101.938L27.8934 104.384L23.6323 109.19L1.10889 111.623L0.382324 104.041Z" fill="#28A8DF"/>
<path d="M67.6149 84.3098C67.6414 84.3158 67.6672 84.3244 67.6919 84.3355C67.7669 84.3594 67.8387 84.3925 67.9056 84.434C68.1728 84.5995 68.4134 84.8046 68.6193 85.0424C69.3958 85.9625 70.0048 87.0123 70.4186 88.1438C71.1334 89.9181 71.4514 91.8278 71.3503 93.7385C71.3068 94.3184 71.2051 94.8925 71.0469 95.452C70.8661 96.041 70.6374 96.6141 70.3631 97.1656C69.7665 98.364 68.9651 99.4485 67.9953 100.37C66.9349 101.393 65.6926 102.208 64.3326 102.773C62.8534 103.389 61.2489 103.641 59.6527 103.51C57.8937 103.323 56.2129 102.683 54.7736 101.652C53.3343 100.621 52.1853 99.2353 51.4383 97.6282C51.0413 96.7692 50.79 95.8498 50.6946 94.908C50.5759 93.9409 50.6782 92.9594 50.9938 92.0378C51.286 91.072 51.8866 90.2292 52.7033 89.6389C53.1284 89.3523 53.6142 89.1689 54.1223 89.1034C54.6365 89.0489 55.1563 89.1104 55.6438 89.2833C56.629 89.6385 57.4591 90.3281 57.9901 91.2325C58.5123 92.1421 58.8289 93.1555 58.9176 94.2012C59.1322 96.3237 58.8195 98.4664 58.0072 100.438C57.2055 102.416 55.9051 104.15 54.2334 105.472C52.5908 106.736 50.6335 107.524 48.5748 107.751C46.5884 107.99 44.5751 107.662 42.7665 106.804C41.0474 105.946 39.6134 104.607 38.638 102.949C37.6923 101.385 37.2077 99.5849 37.2404 97.7567C37.2457 96.8762 37.4153 96.0044 37.7404 95.1864C38.0451 94.3886 38.5465 93.6812 39.1978 93.1302C39.5168 92.8621 39.8876 92.6628 40.2869 92.5449C40.6862 92.427 41.1055 92.3929 41.5186 92.4448C42.3105 92.5764 43.0325 92.9791 43.5615 93.5843C44.0727 94.1526 44.4264 94.8453 44.5872 95.5934C44.7261 96.3078 44.7261 97.0423 44.5872 97.7567C44.3053 99.0665 43.7898 100.315 43.0657 101.441C42.4518 102.459 41.7358 103.412 40.9288 104.285C40.2287 105.045 39.4683 105.747 38.6551 106.384C37.9666 106.913 37.2442 107.395 36.4925 107.828C35.454 108.43 34.3535 108.917 33.2101 109.28C32.428 109.529 32.0049 109.614 32.0049 109.614L32.3083 109.516C32.5049 109.452 32.8126 109.379 33.1973 109.237C34.33 108.856 35.4201 108.358 36.4497 107.751C37.1913 107.313 37.905 106.83 38.5867 106.303C39.388 105.663 40.1382 104.961 40.8305 104.204C41.6256 103.331 42.3314 102.381 42.9375 101.368C43.6449 100.252 44.1486 99.0193 44.4248 97.7267C44.5595 97.0336 44.5595 96.3208 44.4248 95.6277C44.2698 94.9087 43.9277 94.2436 43.4333 93.6999C42.9318 93.1244 42.2455 92.7425 41.4929 92.6204C41.1048 92.5736 40.7113 92.6077 40.3369 92.7205C39.9626 92.8332 39.6155 93.0223 39.3175 93.2759C38.6904 93.8075 38.208 94.4899 37.9157 95.2593C37.6024 96.0516 37.4401 96.8958 37.437 97.7482C37.4137 99.5486 37.903 101.318 38.8474 102.85C39.8063 104.469 41.2119 105.775 42.8948 106.611C44.6621 107.444 46.6277 107.76 48.5662 107.524C50.5875 107.302 52.5092 106.529 54.1223 105.288C55.7595 103.984 57.0305 102.276 57.8106 100.331C58.6054 98.3937 58.9136 96.2902 58.7082 94.2054C58.6206 93.192 58.3143 92.2098 57.8106 91.3267C57.3071 90.466 56.5195 89.8084 55.5839 89.4675C55.127 89.3038 54.6388 89.2467 54.1565 89.3005C53.6822 89.3603 53.2285 89.5304 52.8316 89.7974C52.0532 90.3603 51.481 91.1641 51.2032 92.085C50.8948 92.977 50.7953 93.9283 50.9126 94.8651C51.0011 95.7852 51.2454 96.6833 51.6349 97.5211C52.3655 99.0975 53.4899 100.458 54.899 101.471C56.3081 102.484 57.9544 103.116 59.6783 103.304C61.2459 103.44 62.823 103.196 64.277 102.593C65.6228 102.041 66.8546 101.244 67.9098 100.241C68.8706 99.334 69.666 98.2655 70.2605 97.0842C70.5307 96.5417 70.7579 95.9788 70.94 95.4006C71.0994 94.853 71.2011 94.2902 71.2435 93.7214C71.3557 91.8296 71.0538 89.9362 70.3588 88.1738C69.9583 87.0448 69.3654 85.9939 68.6065 85.0681C68.407 84.8312 68.1754 84.6236 67.9184 84.4512C67.8208 84.3968 67.7193 84.3496 67.6149 84.3098Z" fill="black"/>
<path d="M74.4446 24.3835C74.4446 24.3835 74.4446 24.3107 74.4147 24.1736C74.3848 24.0365 74.372 23.8266 74.342 23.5653C74.2822 23.0212 74.1967 22.233 74.0813 21.2092C73.8591 19.1529 73.5343 16.1585 73.124 12.3717L73.1966 12.4316L27.0386 17.3109L27.1369 17.1867C27.5643 21.312 27.9917 25.3259 28.3849 29.2028L28.2695 29.13L61.2084 25.7029L70.9101 24.7176L73.5257 24.4606L74.2053 24.3963H74.4446L74.2224 24.4263L73.5557 24.5034L70.9657 24.7862L61.2939 25.8314L28.2951 29.3227H28.184V29.2156C27.7566 25.3602 27.3592 21.3206 26.9275 17.1952V17.0881H27.0386L73.1966 12.2988H73.265V12.3674C73.6454 16.1757 73.9488 19.1829 74.154 21.252C74.2523 22.2716 74.3292 23.0555 74.3805 23.5953C74.4062 23.8523 74.4233 24.0493 74.4361 24.1907C74.4489 24.3321 74.4446 24.3835 74.4446 24.3835Z" fill="#2B3A8C"/>
<path d="M126.142 45.0656C126.193 44.8084 126.336 44.5785 126.543 44.4188C127.05 44.0896 127.651 43.9389 128.253 43.9904C128.607 43.2796 128.842 42.5155 128.949 41.7285C128.666 41.7342 128.388 41.6551 128.15 41.5015C128.105 41.4918 128.06 41.4774 128.018 41.4586C127.445 41.1973 127.39 40.3448 127.749 39.8265C128.161 39.3486 128.703 39.0004 129.308 38.8241C128.892 38.9202 128.487 39.0639 128.103 39.2525C127.676 39.381 127.112 39.2525 127.065 38.8241C127.056 38.6923 127.078 38.5604 127.129 38.4385C127.21 38.1858 127.287 37.9331 127.368 37.676C127.408 37.4631 127.527 37.2733 127.702 37.1448C127.84 37.0963 127.983 37.0619 128.129 37.042C128.608 36.9135 128.86 36.3266 129.338 36.1853C129.704 36.1486 130.073 36.2046 130.411 36.348C130.77 36.4294 131.24 36.348 131.351 36.0096C130.868 35.7671 130.449 35.4133 130.129 34.9772C129.976 34.7542 129.904 34.4854 129.925 34.2157C129.946 33.9459 130.059 33.6915 130.244 33.495C130.603 33.2641 131.034 33.1755 131.454 33.2466C131.924 33.268 132.51 33.3751 132.634 33.8292C132.797 33.7849 132.968 33.7753 133.136 33.8009C133.303 33.8265 133.464 33.8867 133.607 33.9778C133.75 34.0688 133.873 34.1887 133.967 34.3298C134.061 34.4708 134.125 34.6301 134.155 34.7973L135.365 34.6774C135.027 34.3089 134.548 34.0905 134.253 33.6878C133.958 33.2851 134.018 32.5569 134.501 32.4541C134.683 32.4515 134.864 32.4357 135.044 32.4069C135.164 32.3598 135.266 32.2484 135.395 32.2441C135.491 32.2505 135.584 32.2864 135.659 32.347L138.224 34.0176L137.531 32.4069C137.318 31.91 137.155 31.2289 137.596 30.9204C138.036 30.612 138.651 31.0532 138.741 31.5673C138.856 31.5465 138.974 31.5504 139.087 31.5787C139.201 31.6071 139.307 31.6592 139.398 31.7317C139.49 31.8042 139.565 31.8954 139.619 31.9992C139.673 32.1031 139.705 32.2172 139.711 32.3341C139.88 32.2751 140.064 32.2709 140.235 32.3221C140.407 32.3732 140.559 32.4772 140.668 32.6192C140.778 32.7612 140.84 32.9342 140.846 33.1136C140.852 33.2931 140.802 33.4699 140.703 33.6193C141.134 33.6294 141.554 33.7551 141.921 33.9834C141.93 33.8474 141.977 33.7167 142.057 33.6061C142.136 33.4955 142.245 33.4093 142.371 33.3572C142.496 33.3051 142.634 33.2892 142.768 33.3113C142.902 33.3334 143.028 33.3926 143.13 33.4822C143.118 33.2246 143.184 32.9694 143.318 32.7496C143.353 32.6963 143.399 32.6513 143.453 32.618C143.506 32.5846 143.567 32.5636 143.63 32.5567C143.693 32.5497 143.757 32.5569 143.817 32.5776C143.877 32.5984 143.931 32.6323 143.976 32.6768C143.932 32.5 143.945 32.3136 144.013 32.1446C144.082 31.9757 144.202 31.833 144.357 31.7375C144.512 31.6419 144.694 31.5984 144.875 31.6132C145.056 31.6281 145.228 31.7005 145.366 31.82L145.793 31.306C146.009 31.2859 146.227 31.3284 146.42 31.4287C146.614 31.5289 146.774 31.6826 146.883 31.8715C147.058 32.2698 146.763 32.8396 146.331 32.801C146.635 32.801 146.566 33.2808 146.387 33.525C146.143 33.872 145.895 34.2147 145.648 34.5574C145.804 34.4105 146.004 34.3205 146.217 34.3018C146.431 34.2832 146.644 34.337 146.823 34.4546C146.891 34.3831 146.974 34.3262 147.065 34.2873C147.156 34.2484 147.254 34.2284 147.353 34.2284C147.452 34.2284 147.55 34.2484 147.641 34.2873C147.732 34.3262 147.814 34.3831 147.883 34.4546C147.946 34.3589 148.035 34.2836 148.14 34.2378C148.245 34.1921 148.361 34.1778 148.473 34.1969C148.586 34.216 148.691 34.2675 148.775 34.3452C148.859 34.4229 148.919 34.5234 148.947 34.6345C149.024 34.4375 149.297 34.4246 149.507 34.446C149.816 34.445 150.117 34.5475 150.362 34.7373C150.575 34.9515 150.575 35.397 150.289 35.4998C150.55 35.3542 150.883 35.6412 150.887 35.9282C150.873 36.0763 150.827 36.2197 150.754 36.3489C150.68 36.4782 150.58 36.5903 150.46 36.6779C150.222 36.8566 150.016 37.0755 149.853 37.3248C150.106 37.1617 150.41 37.0962 150.708 37.1405C151.241 37.1152 151.773 37.2226 152.255 37.4533C152.345 37.2434 152.635 37.2305 152.862 37.2776C153.554 37.4394 154.183 37.8031 154.67 38.3229C154.905 38.5628 155.119 38.9226 154.956 39.2182C154.87 39.3448 154.754 39.4479 154.618 39.5181L152.96 40.5376C153.856 40.8201 154.641 41.3775 155.204 42.1312C155.533 42.324 155.948 42.3411 156.247 42.581C156.546 42.8209 156.52 43.4378 156.14 43.4378C156.256 43.5331 156.338 43.6633 156.374 43.8092C156.411 43.9551 156.399 44.1088 156.341 44.2474C156.286 44.3664 156.196 44.4663 156.084 44.5344C156.035 44.6104 155.975 44.6783 155.905 44.7358C155.779 44.8409 155.634 44.9196 155.478 44.9671C155.392 45.0799 155.281 45.1699 155.152 45.229C155.024 45.288 154.883 45.3143 154.742 45.3055C155.055 45.5678 155.319 45.8823 155.525 46.2351C155.66 46.4631 155.732 46.7236 155.732 46.989C155.732 47.2545 155.66 47.515 155.525 47.743C155.525 47.7687 155.482 47.7858 155.465 47.8073C155.445 47.9009 155.407 47.9897 155.353 48.0684C155.298 48.1471 155.229 48.2141 155.148 48.2656C155.215 48.3869 155.237 48.5283 155.208 48.664C155.48 48.7671 155.719 48.9424 155.9 49.1713C156.08 49.4001 156.195 49.6738 156.232 49.9631C156.269 50.2524 156.226 50.5462 156.109 50.8132C155.992 51.0801 155.805 51.3101 155.567 51.4785C155.191 51.7484 154.49 51.697 154.456 51.2343C154.366 51.4187 154.233 51.5783 154.068 51.6993C153.902 51.8202 153.71 51.8988 153.507 51.9283C153.582 52.0782 153.625 52.242 153.633 52.4093C153.641 52.5766 153.615 52.7439 153.555 52.9004C153.496 53.057 153.405 53.1995 153.288 53.319C153.17 53.4385 153.03 53.5324 152.875 53.5947C153.028 53.7429 153.142 53.927 153.206 54.1304C153.27 54.3337 153.283 54.5499 153.243 54.7595C153.203 54.969 153.112 55.1653 152.978 55.3306C152.843 55.496 152.67 55.6252 152.473 55.7066C152.523 55.831 152.548 55.9643 152.545 56.0985C152.542 56.2326 152.512 56.3648 152.456 56.4869C152.401 56.6091 152.321 56.7186 152.222 56.809C152.123 56.8993 152.007 56.9685 151.881 57.0125C151.754 57.0564 151.62 57.074 151.487 57.0644C151.353 57.0547 151.223 57.018 151.104 56.9563C150.985 56.8947 150.88 56.8095 150.795 56.7058C150.71 56.6022 150.647 56.4823 150.61 56.3535C150.458 56.7271 150.201 57.0485 149.87 57.2788C149.787 57.3319 149.693 57.3673 149.595 57.3826C149.498 57.398 149.398 57.3931 149.302 57.3682C149.206 57.3433 149.117 57.2989 149.039 57.2379C148.961 57.1768 148.896 57.1003 148.849 57.0132C148.776 57.2 148.663 57.3682 148.518 57.5057C148.372 57.6432 148.198 57.7465 148.007 57.808C147.817 57.8695 147.616 57.8878 147.417 57.8615C147.219 57.8351 147.029 57.7649 146.861 57.6558C146.871 57.8816 146.793 58.1025 146.645 58.2725C146.496 58.4425 146.288 58.5484 146.063 58.5683C145.838 58.5882 145.615 58.5204 145.439 58.3792C145.262 58.2379 145.148 58.034 145.118 57.81L142.857 57.7886C142.356 57.8001 141.855 57.7643 141.361 57.6815C140.736 57.5543 140.151 57.2813 139.651 56.8847C139.503 56.7407 139.325 56.6311 139.13 56.5634C138.894 56.5396 138.655 56.5764 138.438 56.6705C137.836 56.8419 137.202 56.8563 136.593 56.7123C135.985 56.5683 135.424 56.2708 134.963 55.848C134.83 55.7006 134.674 55.5761 134.501 55.4796C134.287 55.4042 134.061 55.3736 133.835 55.3896C133.28 55.3786 132.728 55.298 132.193 55.1497C131.958 55.1098 131.733 55.0214 131.533 54.8902C131.333 54.759 131.162 54.5877 131.031 54.3872C130.817 53.9588 131.069 53.3077 131.548 53.312C131.572 53.1593 131.562 53.0033 131.518 52.8551C131.475 52.7069 131.399 52.5703 131.296 52.4552C131.185 52.3405 131.034 52.2729 130.875 52.2665C130.716 52.2601 130.561 52.3154 130.441 52.4209C130.386 52.4748 130.347 52.5426 130.327 52.617C130.307 52.6915 130.308 52.7699 130.329 52.844C130.35 52.9181 130.391 52.9852 130.446 53.0381C130.502 53.0911 130.571 53.128 130.646 53.1449C130.133 53.5005 129.338 53.0035 129.326 52.3824C129.345 52.0706 129.483 51.7783 129.712 51.5656C129.94 51.3528 130.241 51.2358 130.552 51.2386C130.428 50.7915 130.416 50.3205 130.518 49.8678C130.352 50.0635 130.117 50.1883 129.862 50.217C129.608 50.2456 129.351 50.1759 129.146 50.022C129.024 50.2262 128.862 50.4034 128.67 50.5426C128.477 50.6819 128.258 50.7802 128.026 50.8316C127.792 50.8734 127.55 50.8337 127.341 50.7193C127.132 50.6048 126.968 50.4223 126.877 50.2019C126.843 50.0903 126.837 49.9724 126.857 49.8577C126.877 49.7429 126.924 49.6345 126.993 49.5409C127.062 49.4474 127.152 49.3713 127.256 49.3187C127.36 49.2661 127.474 49.2385 127.59 49.2381C127.525 49.1026 127.495 48.9528 127.502 48.8025C127.51 48.6522 127.555 48.5063 127.634 48.3782C127.713 48.2501 127.823 48.144 127.953 48.0696C128.084 47.9953 128.231 47.9552 128.381 47.9529C128.339 47.6464 128.401 47.3347 128.556 47.0671C128.711 46.7995 128.95 46.5911 129.236 46.475C129.142 46.5256 129.039 46.5554 128.933 46.5622C128.827 46.569 128.721 46.5527 128.622 46.5144C128.523 46.4762 128.433 46.4168 128.359 46.3405C128.285 46.2642 128.228 46.1727 128.193 46.0723C127.907 46.5264 127.206 46.415 126.744 46.1409C126.535 46.0591 126.361 45.9073 126.251 45.7112C126.141 45.5152 126.102 45.287 126.142 45.0656Z" fill="black"/>
<path d="M126.142 45.0657C126.125 45.1256 126.116 45.1876 126.116 45.2499C126.11 45.4389 126.17 45.624 126.287 45.7725C126.488 46.0087 126.747 46.1875 127.039 46.2909C127.226 46.3603 127.425 46.3937 127.625 46.3894C127.742 46.3888 127.858 46.3597 127.963 46.3045C128.067 46.2493 128.156 46.1697 128.223 46.0724H128.172C128.207 46.1782 128.265 46.2749 128.341 46.3558C128.418 46.4367 128.511 46.4998 128.615 46.5407C128.718 46.5815 128.829 46.5991 128.94 46.5922C129.051 46.5853 129.16 46.5541 129.257 46.5008L129.227 46.4451C128.936 46.5666 128.692 46.7808 128.533 47.0548C128.375 47.3289 128.311 47.6475 128.351 47.9616L128.394 47.9144C128.238 47.9076 128.082 47.944 127.945 48.0195C127.808 48.095 127.694 48.2069 127.616 48.3428C127.52 48.4781 127.463 48.6379 127.453 48.8039C127.443 48.9698 127.481 49.1352 127.561 49.281L127.603 49.2167C127.431 49.2089 127.261 49.2615 127.123 49.3654C126.985 49.4694 126.887 49.6182 126.847 49.7865C126.796 49.9629 126.806 50.1514 126.875 50.3216C126.944 50.4918 127.068 50.6337 127.227 50.7246C127.388 50.8274 127.57 50.8904 127.76 50.9083C127.949 50.9261 128.14 50.8984 128.317 50.8274C128.681 50.6714 128.989 50.4085 129.202 50.0735H129.12C129.337 50.2363 129.608 50.3101 129.877 50.2798C130.146 50.2496 130.394 50.1176 130.569 49.9107L130.471 49.8636C130.365 50.3246 130.377 50.8048 130.505 51.2601L130.561 51.1873C130.248 51.1882 129.946 51.2988 129.706 51.5C129.583 51.5988 129.481 51.7221 129.407 51.8622C129.334 52.0023 129.29 52.1561 129.279 52.3139C129.272 52.4836 129.31 52.6521 129.389 52.8025C129.467 52.9529 129.584 53.0799 129.727 53.1707C129.864 53.276 130.03 53.3373 130.202 53.3465C130.375 53.3557 130.546 53.3123 130.693 53.2221L130.839 53.1193H130.668C130.623 53.1078 130.581 53.0876 130.544 53.0598C130.507 53.0321 130.476 52.9973 130.453 52.9575C130.429 52.9177 130.414 52.8737 130.408 52.8279C130.401 52.7822 130.404 52.7356 130.415 52.6909C130.434 52.5943 130.489 52.5085 130.568 52.4505C130.647 52.3925 130.745 52.3666 130.843 52.3782C130.949 52.3805 131.052 52.4106 131.143 52.4655C131.234 52.5203 131.309 52.5981 131.36 52.6909C131.467 52.8901 131.507 53.1182 131.475 53.342L131.544 53.2821C131.458 53.2824 131.374 53.3013 131.296 53.3375C131.219 53.3738 131.15 53.4265 131.095 53.492C130.988 53.6125 130.917 53.761 130.89 53.9204C130.862 54.0873 130.885 54.2587 130.954 54.413C131.025 54.5638 131.129 54.6969 131.257 54.8028C131.51 55.0025 131.801 55.1482 132.112 55.2312C132.423 55.3207 132.74 55.3865 133.061 55.4283C133.702 55.5611 134.441 55.2997 134.86 55.8952C135.368 56.3752 136.001 56.7018 136.685 56.8376C137.032 56.9084 137.388 56.9301 137.741 56.9019C138.095 56.8588 138.444 56.7813 138.784 56.6706C138.939 56.6302 139.104 56.65 139.245 56.7263C139.395 56.8186 139.538 56.9216 139.673 57.0347C139.97 57.2573 140.294 57.4402 140.639 57.5787C141.347 57.8255 142.095 57.9332 142.844 57.8957H145.113L145.028 57.8229C145.059 58.0705 145.184 58.2965 145.377 58.4534C145.571 58.6103 145.818 58.6859 146.066 58.6642C146.314 58.6426 146.543 58.5254 146.707 58.3374C146.871 58.1493 146.955 57.905 146.943 57.6558L146.806 57.7287C146.986 57.8474 147.19 57.9241 147.403 57.9532C147.617 57.9824 147.834 57.9631 148.039 57.8969C148.244 57.8308 148.432 57.7193 148.588 57.5709C148.745 57.4224 148.866 57.2406 148.943 57.039H148.776C148.817 57.1411 148.882 57.2315 148.967 57.3018C149.051 57.3721 149.151 57.4202 149.259 57.4417C149.473 57.4904 149.698 57.4647 149.896 57.3688C150.256 57.1318 150.536 56.7914 150.699 56.3921H150.533C150.627 56.6625 150.824 56.8844 151.081 57.0089C151.339 57.1334 151.635 57.1504 151.905 57.0561C152.174 56.9618 152.396 56.764 152.52 56.5061C152.644 56.2482 152.661 55.9514 152.567 55.681L152.507 55.8009C152.718 55.7236 152.904 55.5923 153.048 55.4202C153.192 55.248 153.288 55.0411 153.328 54.82C153.388 54.591 153.384 54.3498 153.316 54.1231C153.248 53.8963 153.119 53.6927 152.943 53.5348L152.917 53.6933C153.087 53.6287 153.241 53.5288 153.369 53.4001C153.497 53.2715 153.597 53.117 153.661 52.947C153.725 52.7769 153.753 52.5951 153.742 52.4136C153.731 52.2321 153.681 52.0551 153.597 51.8941L153.529 52.0312C153.746 52.0006 153.953 51.9171 154.131 51.7879C154.309 51.6587 154.453 51.4878 154.55 51.2901L154.371 51.2558C154.379 51.3744 154.431 51.4857 154.516 51.5685C154.6 51.6454 154.704 51.6986 154.815 51.7228C155.025 51.7701 155.244 51.7522 155.443 51.6713C155.634 51.5763 155.805 51.444 155.944 51.2822C156.084 51.1204 156.189 50.9323 156.255 50.7289C156.33 50.5209 156.362 50.3001 156.351 50.0794C156.339 49.8587 156.283 49.6426 156.187 49.4438C155.996 49.0485 155.661 48.7418 155.251 48.587L155.311 48.6984C155.344 48.5395 155.319 48.3742 155.242 48.2314L155.208 48.36C155.3 48.302 155.379 48.2263 155.44 48.1373C155.502 48.0482 155.545 47.9477 155.567 47.8416V47.8845C155.722 47.6837 155.82 47.4454 155.852 47.194C155.885 46.9426 155.85 46.6871 155.751 46.4537C155.549 45.9837 155.235 45.5704 154.836 45.2499L154.764 45.417C154.921 45.4262 155.078 45.3967 155.221 45.331C155.364 45.2653 155.489 45.1653 155.584 45.04L155.537 45.0743C155.81 45.0001 156.048 44.8317 156.208 44.5988L156.183 44.6287C156.286 44.5667 156.372 44.4797 156.433 44.3757C156.495 44.2717 156.529 44.154 156.533 44.0333C156.54 43.9088 156.517 43.7845 156.467 43.6705C156.416 43.5566 156.339 43.4563 156.243 43.3779L156.183 43.5492C156.243 43.5499 156.302 43.5363 156.355 43.5095C156.409 43.4826 156.455 43.4434 156.49 43.395C156.551 43.3033 156.585 43.1965 156.589 43.0866C156.595 42.9786 156.576 42.8707 156.534 42.7712C156.491 42.6716 156.427 42.5832 156.345 42.5125C156.008 42.3312 155.656 42.1779 155.294 42.0542L155.324 42.0799C154.749 41.3101 153.948 40.7407 153.033 40.452L153.054 40.6277L153.806 40.1607L154.375 39.8095C154.575 39.6964 154.766 39.569 154.948 39.4282C155.047 39.3371 155.112 39.2146 155.131 39.0812C155.145 38.9525 155.124 38.8224 155.072 38.7042C154.969 38.4895 154.824 38.2983 154.644 38.143C154.141 37.6775 153.52 37.3603 152.849 37.2263C152.729 37.2027 152.606 37.2027 152.486 37.2263C152.415 37.2357 152.348 37.2626 152.291 37.3045C152.234 37.3464 152.187 37.402 152.157 37.4662L152.294 37.4191C151.908 37.2208 151.483 37.1152 151.05 37.1106C150.84 37.1106 150.622 37.1106 150.422 37.1106C150.192 37.1097 149.967 37.1816 149.78 37.3163L149.93 37.4362C150.114 37.0721 150.558 36.8793 150.823 36.4724C150.901 36.3705 150.95 36.2497 150.966 36.1225C150.982 35.9953 150.963 35.8662 150.913 35.7484C150.852 35.6313 150.756 35.5357 150.64 35.4742C150.577 35.4405 150.507 35.4228 150.436 35.4228C150.366 35.4228 150.296 35.4405 150.233 35.4742L150.315 35.6456C150.376 35.622 150.431 35.5846 150.475 35.5363C150.52 35.488 150.553 35.4301 150.571 35.3671C150.605 35.2511 150.605 35.1276 150.571 35.0116C150.545 34.8922 150.484 34.7834 150.396 34.6989C150.311 34.6216 150.212 34.5606 150.105 34.5189C149.905 34.4513 149.697 34.4096 149.486 34.3947C149.375 34.3778 149.263 34.3778 149.152 34.3947C149.087 34.4061 149.025 34.4336 148.973 34.4748C148.921 34.5159 148.88 34.5693 148.853 34.6303H149.041C149.015 34.4952 148.947 34.372 148.846 34.2787C148.746 34.1854 148.618 34.127 148.481 34.112C148.349 34.0819 148.21 34.0957 148.086 34.1513C147.962 34.2069 147.859 34.3013 147.793 34.4204H147.951C147.874 34.3382 147.78 34.2727 147.677 34.228C147.573 34.1832 147.461 34.1602 147.349 34.1602C147.236 34.1602 147.124 34.1832 147.021 34.228C146.917 34.2727 146.823 34.3382 146.746 34.4204H146.874C146.679 34.2925 146.446 34.234 146.214 34.2542C145.982 34.2744 145.763 34.3721 145.592 34.5318L145.733 34.656L146.361 33.7993C146.485 33.6524 146.574 33.4797 146.622 33.2938C146.648 33.1911 146.648 33.0837 146.622 32.981C146.606 32.9185 146.57 32.8629 146.519 32.8225C146.467 32.7823 146.402 32.7626 146.336 32.7669V32.9553C146.463 32.9599 146.588 32.9265 146.696 32.8594C146.804 32.7923 146.89 32.6944 146.943 32.5784C147.001 32.4715 147.034 32.3522 147.039 32.2302C147.043 32.1081 147.019 31.9868 146.968 31.8758C146.851 31.6758 146.68 31.5132 146.474 31.4071C146.268 31.3009 146.036 31.2555 145.806 31.2761H145.763L145.695 31.2718L145.267 31.7816H145.4C145.247 31.6557 145.06 31.5805 144.863 31.5662C144.666 31.5519 144.469 31.5993 144.3 31.7018C144.131 31.8044 143.998 31.957 143.92 32.1386C143.841 32.3201 143.82 32.5217 143.861 32.7155L144.024 32.6383C143.973 32.5765 143.906 32.5301 143.831 32.5043C143.755 32.4786 143.674 32.4746 143.596 32.4927C143.447 32.5206 143.313 32.603 143.22 32.724C143.081 32.9562 143.012 33.2243 143.023 33.4951L143.177 33.4351C143.063 33.3429 142.925 33.2832 142.78 33.2625C142.634 33.2417 142.485 33.2605 142.349 33.317C142.214 33.3735 142.095 33.4656 142.007 33.5836C141.919 33.7016 141.864 33.8412 141.848 33.9877L141.985 33.9106C141.6 33.6703 141.156 33.54 140.703 33.5337L140.775 33.675C140.889 33.5137 140.949 33.3203 140.946 33.1227C140.944 32.9251 140.878 32.7335 140.76 32.5754C140.642 32.4173 140.477 32.3009 140.288 32.2429C140.1 32.185 139.898 32.1884 139.711 32.2528L139.831 32.3342C139.825 32.1993 139.789 32.0673 139.727 31.9477C139.664 31.828 139.576 31.7236 139.469 31.6419C139.362 31.5601 139.238 31.503 139.106 31.4746C138.974 31.4462 138.838 31.4471 138.707 31.4774L138.818 31.546C138.772 31.3192 138.65 31.115 138.472 30.9677C138.3 30.81 138.072 30.7269 137.839 30.7363C137.722 30.7501 137.611 30.7945 137.516 30.8652C137.422 30.9359 137.347 31.0304 137.301 31.139C137.22 31.3479 137.203 31.5756 137.249 31.7944C137.346 32.1942 137.489 32.581 137.677 32.9468L138.147 34.0477L138.271 33.9449L136.69 32.9125L135.916 32.407C135.783 32.3109 135.64 32.2304 135.489 32.1671C135.395 32.1469 135.297 32.1637 135.215 32.2142C135.142 32.2528 135.083 32.2999 135.027 32.3213C134.888 32.3594 134.743 32.371 134.6 32.3556C134.517 32.36 134.436 32.3817 134.363 32.4193C134.289 32.457 134.224 32.5097 134.172 32.5741C134.082 32.7089 134.027 32.8637 134.011 33.025C133.994 33.1863 134.017 33.3492 134.078 33.4994C134.211 33.7759 134.415 34.0124 134.668 34.1848C134.897 34.3487 135.114 34.5291 135.318 34.7246L135.365 34.596L134.155 34.7203L134.236 34.7845C134.206 34.609 134.139 34.4417 134.04 34.2934C133.941 34.1451 133.813 34.019 133.663 33.9231C133.513 33.8272 133.345 33.7636 133.169 33.7364C132.993 33.7092 132.814 33.7189 132.642 33.765L132.732 33.8121C132.683 33.6778 132.6 33.558 132.493 33.4637C132.385 33.3694 132.256 33.3036 132.116 33.2723C131.862 33.2064 131.601 33.1733 131.339 33.1738C131.078 33.1575 130.816 33.1865 130.565 33.2595C130.438 33.2993 130.32 33.3657 130.22 33.4543C130.119 33.5429 130.039 33.6517 129.984 33.7736C129.894 34.0128 129.87 34.2718 129.915 34.5235C129.959 34.7752 130.07 35.0104 130.236 35.2043C130.555 35.5517 130.931 35.8415 131.347 36.0611L131.292 35.984C131.256 36.0699 131.197 36.1442 131.121 36.1986C131.046 36.253 130.957 36.2855 130.864 36.2924C130.672 36.3216 130.476 36.3055 130.292 36.2453C130.101 36.1807 129.905 36.132 129.706 36.0997C129.498 36.0642 129.284 36.1052 129.103 36.2153C128.757 36.4252 128.552 36.7722 128.249 36.9264C128.099 37.0078 127.915 36.9864 127.723 37.0635C127.637 37.1065 127.561 37.1667 127.499 37.2404C127.437 37.314 127.391 37.3997 127.364 37.4919L127.048 38.49C127.015 38.576 127.001 38.6681 127.008 38.7599C127.014 38.8518 127.041 38.941 127.086 39.0212C127.189 39.1659 127.341 39.268 127.513 39.3082C127.68 39.3447 127.852 39.3447 128.018 39.3082C128.173 39.2694 128.324 39.2134 128.467 39.1412C128.73 38.9893 129.02 38.889 129.321 38.8456L129.3 38.7556C128.955 38.8811 128.623 39.0403 128.308 39.2311C128.011 39.4092 127.77 39.6675 127.612 39.9765C127.481 40.2704 127.458 40.6013 127.548 40.9104C127.584 41.0552 127.659 41.1874 127.764 41.293C127.87 41.3986 128.002 41.4736 128.146 41.5101C128.39 41.6682 128.676 41.7488 128.967 41.7415L128.932 41.7029C128.829 42.4864 128.598 43.2476 128.249 43.9562H128.27C127.888 43.9513 127.507 43.9974 127.137 44.0933C126.879 44.1693 126.642 44.3075 126.449 44.496C126.341 44.6116 126.258 44.7488 126.206 44.8986C126.187 44.9466 126.175 44.9972 126.171 45.0486C126.218 44.8473 126.32 44.6632 126.466 44.5174C126.656 44.3327 126.89 44.2 127.146 44.1318C127.513 44.0389 127.891 43.9971 128.27 44.0076C128.631 43.2973 128.871 42.5313 128.979 41.7415V41.7029H128.941C128.664 41.708 128.392 41.6304 128.159 41.4801C128.027 41.445 127.907 41.3752 127.811 41.2781C127.714 41.181 127.646 41.06 127.612 40.9275C127.536 40.6425 127.56 40.34 127.68 40.0708C127.834 39.7781 128.066 39.5346 128.351 39.3682C128.66 39.1812 128.986 39.0248 129.326 38.9013L129.608 38.7899L129.309 38.8113C129 38.8531 128.703 38.9534 128.432 39.1069C128.296 39.1756 128.153 39.2301 128.005 39.2697C127.854 39.3039 127.698 39.3039 127.548 39.2697C127.399 39.2372 127.267 39.152 127.176 39.0298C127.142 38.9641 127.122 38.8921 127.118 38.8183C127.114 38.7446 127.125 38.6707 127.15 38.6014C127.257 38.2801 127.36 37.9503 127.471 37.6119C127.491 37.532 127.528 37.4572 127.579 37.3923C127.629 37.3274 127.693 37.2738 127.766 37.2349C127.947 37.2033 128.126 37.1574 128.3 37.0978C128.659 36.9222 128.868 36.5709 129.185 36.3867C129.359 36.3152 129.547 36.2823 129.735 36.2905C129.923 36.2986 130.107 36.3475 130.274 36.4338C130.477 36.5004 130.692 36.518 130.903 36.4852C131.017 36.4742 131.127 36.4316 131.219 36.362C131.311 36.2924 131.382 36.1987 131.424 36.0911V36.044L131.381 36.014C130.974 35.7843 130.611 35.484 130.309 35.1272C130.159 34.9532 130.059 34.7422 130.018 34.5162C129.978 34.2902 129.998 34.0574 130.078 33.8421C130.127 33.7397 130.197 33.6487 130.283 33.5749C130.369 33.5011 130.469 33.4462 130.578 33.4137C130.813 33.3445 131.06 33.3183 131.304 33.3366C131.554 33.3373 131.802 33.369 132.044 33.4308C132.159 33.4525 132.267 33.5031 132.358 33.5781C132.448 33.653 132.518 33.7497 132.561 33.8592L132.582 33.9321H132.655C132.807 33.895 132.964 33.8892 133.118 33.915C133.272 33.9408 133.42 33.9977 133.551 34.0822C133.683 34.1667 133.796 34.2771 133.883 34.4066C133.971 34.5362 134.031 34.6823 134.061 34.8359V34.9045H134.155L135.365 34.7803H135.518L135.412 34.6646C135.204 34.4626 134.981 34.2764 134.745 34.1077C134.514 33.9543 134.33 33.7411 134.211 33.4908C134.16 33.3663 134.14 33.2316 134.151 33.0976C134.162 32.9637 134.204 32.8342 134.275 32.7197C134.315 32.67 134.366 32.63 134.424 32.6026C134.481 32.5751 134.544 32.561 134.608 32.5612C134.766 32.5754 134.925 32.5609 135.078 32.5184C135.241 32.437 135.339 32.3342 135.442 32.3727C135.572 32.4306 135.696 32.504 135.809 32.5912L136.583 33.0967L138.16 34.1291L138.391 34.2833L138.284 34.0263C138.126 33.6665 137.972 33.298 137.814 32.9296C137.637 32.5733 137.501 32.1983 137.408 31.8116C137.368 31.6274 137.381 31.4358 137.446 31.259C137.48 31.1772 137.535 31.1059 137.606 31.0525C137.676 30.9991 137.76 30.9654 137.848 30.9548C138.036 30.9599 138.216 31.0288 138.36 31.1502C138.503 31.2716 138.602 31.4384 138.638 31.6231V31.7216L138.728 31.6916C138.833 31.67 138.942 31.6711 139.046 31.6948C139.151 31.7186 139.249 31.7645 139.334 31.8294C139.42 31.8943 139.49 31.9767 139.541 32.0711C139.592 32.1656 139.622 32.2699 139.63 32.377V32.5098L139.75 32.4584C139.899 32.4064 140.061 32.401 140.214 32.4431C140.366 32.4852 140.502 32.5727 140.604 32.694C140.702 32.8267 140.755 32.9874 140.755 33.1524C140.755 33.3174 140.702 33.4781 140.604 33.6108L140.502 33.7521H140.677C141.092 33.7603 141.497 33.8818 141.848 34.1034L141.993 34.1934V34.0263C142.009 33.9142 142.053 33.8081 142.122 33.7184C142.19 33.6288 142.281 33.5588 142.386 33.5155C142.49 33.4721 142.604 33.4569 142.716 33.4714C142.827 33.4859 142.934 33.5295 143.023 33.5979L143.169 33.7436V33.5379C143.161 33.3031 143.217 33.0705 143.331 32.8654C143.447 32.7026 143.759 32.6341 143.853 32.784L144.109 33.1267L144.015 32.6983C143.981 32.542 143.997 32.3791 144.06 32.2323C144.123 32.0855 144.231 31.9622 144.367 31.8795C144.504 31.7969 144.663 31.7592 144.822 31.7716C144.981 31.784 145.132 31.8459 145.254 31.9486L145.327 32.0086L145.383 31.9401C145.524 31.7687 145.665 31.6017 145.81 31.426L145.742 31.4603C145.937 31.4423 146.133 31.4793 146.308 31.5671C146.483 31.6549 146.63 31.79 146.733 31.9572C146.9 32.2742 146.643 32.814 146.284 32.7669V32.9553C146.344 32.9553 146.366 32.9553 146.387 33.0367C146.404 33.1086 146.404 33.1834 146.387 33.2552C146.345 33.4142 146.266 33.561 146.156 33.6836L145.528 34.5404L145.669 34.6646C145.808 34.5332 145.988 34.4525 146.178 34.4354C146.369 34.4183 146.56 34.4658 146.72 34.5703L146.793 34.6217L146.849 34.5575C146.908 34.496 146.98 34.4471 147.059 34.4137C147.138 34.3803 147.222 34.3631 147.308 34.3631C147.394 34.3631 147.478 34.3803 147.557 34.4137C147.636 34.4471 147.708 34.496 147.767 34.5575L147.866 34.6774L147.926 34.5361C147.981 34.4616 148.056 34.404 148.142 34.3694C148.228 34.3349 148.322 34.3248 148.414 34.3403C148.505 34.3558 148.59 34.3963 148.66 34.4573C148.73 34.5182 148.782 34.5974 148.81 34.686L148.853 35.1701L148.994 34.7117C149.033 34.5875 149.246 34.5618 149.421 34.5832C149.615 34.5955 149.806 34.6329 149.99 34.6946C150.072 34.7201 150.148 34.7654 150.209 34.8266C150.27 34.8878 150.315 34.9631 150.34 35.0458C150.387 35.2129 150.34 35.41 150.195 35.4742L150.276 35.6499C150.409 35.5685 150.61 35.6841 150.704 35.8469C150.739 35.9336 150.751 36.0282 150.737 36.1209C150.724 36.2136 150.685 36.301 150.627 36.3738C150.413 36.7251 149.964 36.9136 149.725 37.3548L149.494 37.7832L149.87 37.4833C150.152 37.2563 150.605 37.3291 151.007 37.3377C151.41 37.3424 151.806 37.4391 152.165 37.6204L152.264 37.6804L152.302 37.5776C152.353 37.4405 152.588 37.4191 152.781 37.4576C152.99 37.4986 153.194 37.5588 153.392 37.6376C153.792 37.7998 154.16 38.0335 154.477 38.3273C154.637 38.4612 154.767 38.6276 154.858 38.8156C154.902 38.8974 154.918 38.9914 154.904 39.0834C154.891 39.1754 154.847 39.2603 154.781 39.3254C154.608 39.4556 154.427 39.5744 154.238 39.6809L153.67 40.0365L152.917 40.5034L152.734 40.6148L152.939 40.6791C153.817 40.9535 154.586 41.4993 155.136 42.2384C155.488 42.3579 155.832 42.501 156.166 42.6668C156.225 42.7201 156.271 42.7866 156.3 42.861C156.329 42.9355 156.34 43.0156 156.332 43.0951C156.332 43.2536 156.247 43.3822 156.123 43.3736H155.815L156.063 43.5621C156.135 43.6226 156.192 43.6988 156.23 43.785C156.268 43.8712 156.285 43.965 156.281 44.059C156.276 44.1469 156.249 44.2322 156.203 44.307C156.157 44.3818 156.092 44.4439 156.016 44.4874C155.879 44.6831 155.678 44.8242 155.448 44.8858H155.418V44.9115C155.342 45.0107 155.243 45.0899 155.13 45.1422C155.017 45.1945 154.893 45.2182 154.768 45.2113L154.477 45.1856L154.695 45.3784C155.069 45.6774 155.362 46.0645 155.55 46.5051C155.637 46.7059 155.67 46.9262 155.644 47.1437C155.619 47.3612 155.536 47.568 155.405 47.7431V47.7688C155.388 47.849 155.356 47.9252 155.31 47.9928C155.263 48.0605 155.204 48.1183 155.136 48.1629L155.059 48.21L155.097 48.2914C155.153 48.3947 155.172 48.5145 155.148 48.6298V48.7069L155.225 48.7369C155.592 48.881 155.89 49.1598 156.059 49.5166C156.22 49.8621 156.244 50.2565 156.125 50.6188C156.005 50.9812 155.753 51.2842 155.418 51.4657C155.254 51.5334 155.073 51.5483 154.901 51.5086C154.825 51.499 154.755 51.4649 154.701 51.4115C154.647 51.358 154.612 51.2883 154.601 51.213L154.58 50.8403L154.422 51.1787C154.341 51.3459 154.221 51.4912 154.072 51.6023C153.923 51.7133 153.75 51.787 153.567 51.817H153.426L153.494 51.9369C153.562 52.075 153.601 52.2256 153.608 52.3793C153.615 52.5329 153.591 52.6865 153.536 52.8303C153.482 52.9741 153.398 53.1051 153.291 53.2153C153.184 53.3254 153.055 53.4123 152.913 53.4706L152.751 53.522L152.888 53.6333C153.025 53.772 153.127 53.9425 153.184 54.1298C153.242 54.3171 153.252 54.5155 153.215 54.7078C153.178 54.9001 153.094 55.0803 152.972 55.2328C152.849 55.3853 152.691 55.5053 152.511 55.5825L152.422 55.6125L152.452 55.7024C152.521 55.9331 152.499 56.1818 152.39 56.3966C152.281 56.6114 152.093 56.7755 151.866 56.8548C151.645 56.9104 151.412 56.8837 151.209 56.7797C151.006 56.6757 150.848 56.5015 150.763 56.2893L150.695 56.088L150.597 56.2765C150.451 56.642 150.2 56.9554 149.874 57.1761C149.562 57.3388 149.101 57.2446 149.02 56.949L148.934 56.692L148.853 56.949C148.782 57.1207 148.675 57.2749 148.539 57.4011C148.403 57.5272 148.241 57.6223 148.065 57.6797C147.888 57.7371 147.702 57.7555 147.517 57.7337C147.333 57.7118 147.156 57.6502 146.998 57.553L146.853 57.4459V57.6259C146.851 57.8307 146.773 58.0275 146.634 58.1774C146.495 58.3273 146.304 58.4194 146.101 58.4355C145.908 58.4361 145.721 58.3692 145.572 58.2464C145.423 58.1237 145.321 57.9527 145.284 57.7629V57.6944H145.207H142.938C142.213 57.7329 141.487 57.6296 140.801 57.3902C140.471 57.2585 140.159 57.0843 139.874 56.8719C139.738 56.7542 139.596 56.6454 139.446 56.5463C139.27 56.4555 139.066 56.4326 138.873 56.4821C138.541 56.5914 138.199 56.6674 137.852 56.7091C137.513 56.7387 137.172 56.7185 136.839 56.6491C136.182 56.5224 135.575 56.212 135.087 55.7538C134.97 55.625 134.834 55.5139 134.685 55.424C134.527 55.3454 134.353 55.3044 134.176 55.304C133.852 55.3052 133.528 55.2866 133.206 55.2483C132.892 55.206 132.58 55.1416 132.275 55.0556C131.978 54.9833 131.7 54.849 131.458 54.6615C131.342 54.5774 131.251 54.4632 131.194 54.3311C131.138 54.1991 131.118 54.0541 131.138 53.9118C131.144 53.7757 131.199 53.6465 131.292 53.5475C131.386 53.4485 131.511 53.3862 131.646 53.372H131.591V53.3078C131.625 53.0538 131.577 52.7955 131.454 52.5709C131.391 52.4586 131.3 52.3645 131.19 52.2977C131.08 52.2309 130.954 52.1937 130.826 52.1897C130.696 52.1789 130.566 52.2166 130.462 52.2957C130.358 52.3747 130.286 52.4895 130.262 52.6181C130.236 52.7429 130.26 52.8728 130.329 52.9801C130.398 53.0873 130.505 53.1634 130.629 53.1921L130.599 53.0764C130.472 53.1512 130.326 53.1862 130.179 53.177C130.032 53.1679 129.891 53.115 129.774 53.025C129.653 52.9468 129.553 52.839 129.484 52.7117C129.415 52.5843 129.38 52.4416 129.381 52.2968C129.421 52.0155 129.56 51.7579 129.774 51.5708C129.987 51.3837 130.26 51.2795 130.544 51.2772H130.621V51.2044C130.501 50.7654 130.489 50.3039 130.586 49.8593L130.642 49.6194L130.484 49.8122C130.328 49.9947 130.11 50.1116 129.872 50.1394C129.634 50.1672 129.395 50.1039 129.202 49.9621L129.155 49.9235L129.125 49.975C128.927 50.2938 128.636 50.5437 128.291 50.6904C128.13 50.7578 127.955 50.7852 127.781 50.7703C127.607 50.7554 127.439 50.6986 127.291 50.6047C127.15 50.524 127.039 50.3987 126.977 50.2483C126.914 50.098 126.903 49.931 126.945 49.7736C126.981 49.6265 127.066 49.4959 127.185 49.4032C127.305 49.3106 127.452 49.2615 127.603 49.2638H127.693L127.646 49.1867C127.583 49.057 127.553 48.9132 127.56 48.7688C127.567 48.6245 127.61 48.4842 127.685 48.3611C127.761 48.238 127.866 48.136 127.992 48.0646C128.117 47.9933 128.258 47.9549 128.402 47.953H128.449V47.9016C128.41 47.6036 128.469 47.3009 128.618 47.04C128.767 46.7791 128.998 46.5746 129.274 46.4579L129.244 46.4023C129.155 46.45 129.056 46.4779 128.955 46.4841C128.854 46.4903 128.753 46.4745 128.658 46.4379C128.564 46.4013 128.478 46.3448 128.408 46.2721C128.337 46.1994 128.283 46.1123 128.249 46.0167V45.9567L128.214 46.0081C128.153 46.0983 128.071 46.1726 127.975 46.2247C127.879 46.2768 127.772 46.3054 127.663 46.308C127.468 46.3126 127.274 46.2821 127.09 46.218C126.805 46.1163 126.55 45.9456 126.347 45.7211C126.232 45.5775 126.169 45.3995 126.167 45.2156C126.129 45.1257 126.146 45.0657 126.142 45.0657Z" fill="#2B3A8C"/>
<path d="M146.849 46.9292C146.901 45.9598 146.758 44.9899 146.428 44.0772C146.098 43.1646 145.588 42.328 144.928 41.6174C144.268 40.9068 143.472 40.3369 142.588 39.9416C141.703 39.5463 140.748 39.3338 139.78 39.3168C137.9 39.2838 136.078 39.9674 134.681 41.2294C133.285 42.4914 132.419 44.2377 132.258 46.1152C131.963 49.478 131.74 52.8708 131.83 54.0917C132.112 57.7715 134.395 59.0652 135.313 59.4379C135.64 59.5314 135.975 59.5902 136.314 59.6136C136.32 59.6155 136.325 59.6194 136.329 59.6249C136.333 59.6303 136.335 59.6369 136.335 59.6435L135.775 63.9274C135.578 66.7247 134.967 76.2262 137.801 76.449C140.634 76.6717 145.066 67.2645 145.31 64.4543L146.849 46.9292Z" fill="#FFBE9D"/>
<path d="M133.369 48.7799C133.354 48.9332 133.401 49.086 133.499 49.2048C133.597 49.3236 133.737 49.3988 133.89 49.414C133.965 49.4262 134.041 49.4234 134.115 49.4058C134.188 49.3883 134.258 49.3562 134.319 49.3116C134.38 49.267 134.432 49.2107 134.471 49.1459C134.511 49.0811 134.537 49.0091 134.548 48.9342C134.559 48.7809 134.511 48.6294 134.413 48.5112C134.315 48.3931 134.175 48.3174 134.023 48.3002C133.948 48.288 133.872 48.2908 133.799 48.3084C133.725 48.326 133.656 48.3581 133.595 48.4027C133.535 48.4474 133.483 48.5037 133.444 48.5685C133.405 48.6333 133.38 48.7051 133.369 48.7799Z" fill="black"/>
<path d="M133.185 47.0576C133.253 47.139 133.728 46.8477 134.369 46.8991C135.01 46.9505 135.45 47.3018 135.527 47.229C135.604 47.1561 135.502 47.0533 135.309 46.8905C135.045 46.6827 134.725 46.5575 134.39 46.5307C134.057 46.505 133.725 46.5827 133.437 46.7535C133.228 46.8863 133.151 47.019 133.185 47.0576Z" fill="black"/>
<path d="M139.339 49.2639C139.327 49.4178 139.375 49.5704 139.473 49.6895C139.571 49.8086 139.712 49.8849 139.865 49.9022C139.94 49.9143 140.016 49.9116 140.09 49.894C140.163 49.8765 140.233 49.8444 140.294 49.7998C140.355 49.7552 140.407 49.6989 140.446 49.6341C140.486 49.5693 140.512 49.4973 140.523 49.4224C140.535 49.2684 140.487 49.1158 140.389 48.9967C140.291 48.8776 140.151 48.8014 139.997 48.7841C139.923 48.7719 139.846 48.7746 139.773 48.7922C139.699 48.8098 139.63 48.8418 139.568 48.8864C139.507 48.931 139.456 48.9873 139.416 49.0521C139.377 49.1169 139.351 49.1889 139.339 49.2639Z" fill="black"/>
<path d="M139.459 47.6661C139.527 47.7475 140.006 47.4562 140.643 47.5076C141.28 47.559 141.724 47.9103 141.801 47.8374C141.878 47.7646 141.775 47.6618 141.583 47.499C141.321 47.2874 141 47.1618 140.664 47.1392C140.332 47.1117 140.001 47.1897 139.715 47.3619C139.506 47.4947 139.425 47.6275 139.459 47.6661Z" fill="black"/>
<path d="M136.754 52.1513C136.423 52.0224 136.079 51.9332 135.728 51.8857C135.57 51.8557 135.416 51.8129 135.399 51.7015C135.397 51.5345 135.448 51.3711 135.544 51.2346L136.13 50.048C136.946 48.3344 137.549 46.9636 137.48 46.9293C137.412 46.8951 136.694 48.2445 135.878 49.928L135.313 51.1232C135.195 51.3086 135.146 51.5305 135.177 51.7486C135.195 51.8077 135.228 51.8617 135.271 51.9062C135.314 51.9508 135.366 51.9849 135.424 52.0057C135.515 52.0357 135.608 52.0558 135.702 52.0656C136.047 52.1411 136.401 52.17 136.754 52.1513Z" fill="black"/>
<path d="M136.343 59.618C136.343 59.618 138.792 60.0079 142.032 58.4229C141.84 58.5214 140.904 62.1369 136.189 60.7704L136.343 59.618Z" fill="#EB996E"/>
<path d="M136.899 53.6889C137.034 53.5485 137.203 53.4441 137.388 53.385C137.574 53.3259 137.772 53.3141 137.963 53.3505C138.102 53.3717 138.235 53.4205 138.355 53.4941C138.474 53.5677 138.578 53.6645 138.66 53.7789C138.738 53.8888 138.781 54.0206 138.781 54.1559C138.781 54.2911 138.738 54.423 138.66 54.5329C138.547 54.6377 138.406 54.707 138.254 54.7322C138.102 54.7573 137.946 54.7371 137.805 54.6742C137.512 54.5472 137.247 54.3622 137.027 54.1302C136.959 54.0743 136.903 54.006 136.861 53.9288C136.839 53.893 136.83 53.8513 136.834 53.8097C136.837 53.7681 136.854 53.7288 136.882 53.6975" fill="#EB996E"/>
<path d="M138.6 52.7336C138.493 52.7336 138.438 53.4019 137.801 53.8431C137.164 54.2844 136.437 54.1473 136.425 54.2415C136.412 54.3358 136.578 54.3872 136.886 54.4215C137.292 54.46 137.699 54.3555 138.036 54.1259C138.358 53.9084 138.582 53.5732 138.66 53.192C138.711 52.9093 138.647 52.7336 138.6 52.7336Z" fill="black"/>
<path d="M139.481 45.6271C139.532 45.8027 140.173 45.7727 140.917 45.9184C141.66 46.064 142.25 46.3168 142.361 46.1711C142.412 46.1026 142.323 45.9312 142.092 45.7427C141.782 45.5098 141.422 45.3528 141.04 45.2843C140.66 45.2118 140.269 45.2265 139.895 45.3272C139.609 45.4086 139.459 45.5457 139.481 45.6271Z" fill="black"/>
<path d="M133.514 45.4085C133.612 45.5627 134.065 45.4471 134.595 45.4813C135.125 45.5156 135.565 45.6527 135.681 45.5113C135.732 45.4428 135.681 45.2928 135.488 45.1429C135.237 44.9589 134.937 44.8531 134.627 44.8386C134.316 44.8242 134.008 44.9017 133.74 45.0615C133.544 45.19 133.467 45.3314 133.514 45.4085Z" fill="black"/>
<path d="M131.279 41.6731C131.293 41.4669 131.323 41.2621 131.368 41.0605C131.48 40.763 131.667 40.5 131.911 40.2979C132.685 39.5311 133.505 38.7429 134.476 38.4902C135.074 38.336 135.694 38.3916 136.292 38.246C136.661 38.1329 137.023 37.9999 137.378 37.8476C138.865 37.3616 140.454 37.2759 141.985 37.5991C142.852 37.7172 143.692 37.99 144.464 38.4045C145.312 38.9495 146.062 39.6346 146.682 40.4307C147.732 41.6075 148.569 42.9585 149.156 44.4233C149.636 45.6189 149.76 46.9285 149.511 48.193C149.216 49.4482 148.332 50.5748 147.246 50.7633L146.87 50.2493L146.263 49.4825C146.366 49.7909 146.263 49.7652 146.011 49.9108C145.947 49.9442 145.877 49.9637 145.805 49.9683C145.733 49.9728 145.661 49.9622 145.593 49.9372C145.526 49.9122 145.464 49.8733 145.412 49.823C145.36 49.7728 145.32 49.7122 145.293 49.6452C145.075 49.8937 144.647 49.5853 144.737 49.2468C144.485 49.3625 144.194 49.0069 144.31 48.7071C144.019 48.7928 143.882 48.3215 143.767 48.0045C143.695 47.8367 143.612 47.6736 143.519 47.5162C143.255 46.9861 143.144 46.3926 143.199 45.8027C142.906 45.2814 142.769 44.6863 142.805 44.0891C142.805 43.7121 142.775 43.3352 142.763 42.9582C142.699 42.864 142.639 42.7697 142.575 42.6797C142.565 42.8063 142.517 42.9269 142.437 43.025C142.356 43.1231 142.248 43.1941 142.126 43.2281C141.897 43.2652 141.663 43.2415 141.446 43.1595L140.792 42.9753L140.365 43.061C140.409 43.4305 140.33 43.8043 140.138 44.1234C140.069 44.361 139.918 44.566 139.711 44.7017C139.656 44.7248 139.596 44.732 139.538 44.7224C139.479 44.7128 139.424 44.6868 139.379 44.6475C139.335 44.6081 139.302 44.557 139.285 44.4999C139.268 44.4428 139.268 44.3821 139.284 44.3247C139.242 44.3574 139.194 44.3803 139.142 44.3916C139.09 44.4029 139.037 44.4023 138.986 44.3899C138.934 44.3776 138.886 44.3537 138.845 44.3202C138.804 44.2866 138.772 44.2443 138.749 44.1962C138.645 43.9779 138.612 43.7319 138.655 43.4937C138.716 42.912 138.948 42.3616 139.322 41.9129L138.074 42.9068C137.993 42.9884 137.888 43.0424 137.775 43.061C137.776 43.1062 137.767 43.151 137.749 43.1924C137.731 43.2338 137.704 43.2707 137.671 43.3005C137.637 43.3304 137.597 43.3524 137.554 43.365C137.51 43.3777 137.465 43.3806 137.42 43.3737C137.252 43.3122 137.109 43.1961 137.014 43.0439C136.758 42.7226 136.501 42.1871 136.779 41.8787C136.747 41.8614 136.719 41.8373 136.697 41.808C136.675 41.7787 136.659 41.7449 136.651 41.709C136.644 41.6732 136.644 41.636 136.652 41.6002C136.66 41.5644 136.676 41.5308 136.698 41.5017L135.3 42.397C135.437 42.3328 135.565 42.547 135.523 42.7183C135.466 42.8734 135.357 43.0037 135.215 43.0867C135.318 43.2825 135.354 43.5067 135.318 43.725C135.57 43.5279 135.894 43.9563 135.792 44.2905C135.736 44.4401 135.633 44.5678 135.499 44.6549C135.366 44.742 135.208 44.7839 135.048 44.7745C134.919 44.786 134.791 44.7482 134.689 44.6688C134.586 44.5893 134.518 44.4741 134.497 44.3462C134.202 44.3847 133.954 43.9649 134.07 43.6479C133.847 43.7678 133.693 43.378 133.706 43.091C133.729 42.5911 133.84 42.0993 134.035 41.6388C134.029 41.6462 134.02 41.6521 134.011 41.6561C134.002 41.6602 133.992 41.6623 133.982 41.6623C133.972 41.6623 133.962 41.6602 133.953 41.6561C133.944 41.6521 133.935 41.6462 133.928 41.6388C133.913 41.624 133.904 41.6042 133.903 41.5831L133.069 43.2195C132.804 43.6754 132.624 44.1764 132.539 44.6974C132.518 44.9116 132.471 45.2072 132.287 45.2115C132.237 45.2103 132.187 45.1939 132.146 45.1644C131.63 44.8079 131.251 44.2847 131.074 43.6822C130.997 43.4733 130.953 43.2535 130.945 43.031C131.019 42.5699 131.13 42.1157 131.279 41.6731Z" fill="black"/>
<path d="M146.143 49.0797C146.207 49.0797 148.708 48.4928 148.468 50.9989C148.229 53.5049 145.771 52.751 145.771 52.6781C145.771 52.6053 146.143 49.0797 146.143 49.0797Z" fill="#FFBE9D"/>
<path d="M146.626 51.8042C146.626 51.8042 146.669 51.8385 146.737 51.877C146.836 51.9325 146.953 51.9464 147.062 51.9156C147.233 51.828 147.377 51.6966 147.481 51.5348C147.585 51.373 147.644 51.1866 147.652 50.9946C147.681 50.78 147.66 50.5617 147.592 50.3563C147.576 50.2758 147.54 50.2006 147.488 50.1371C147.435 50.0737 147.369 50.0239 147.293 49.9922C147.245 49.9731 147.192 49.9721 147.143 49.9894C147.094 50.0068 147.053 50.0412 147.028 50.0864C146.985 50.1507 146.998 50.2021 146.985 50.2063C146.972 50.2106 146.934 50.1592 146.985 50.0564C147.007 49.9967 147.048 49.9456 147.101 49.9108C147.173 49.8657 147.261 49.8504 147.344 49.8679C147.446 49.8968 147.539 49.9514 147.614 50.0264C147.688 50.1013 147.743 50.1943 147.772 50.2963C147.857 50.5244 147.887 50.7698 147.857 51.0117C147.848 51.2359 147.773 51.4523 147.642 51.6338C147.51 51.8152 147.328 51.9536 147.118 52.0313C147.049 52.0443 146.979 52.0419 146.912 52.0241C146.844 52.0063 146.782 51.9736 146.729 51.9284C146.626 51.8642 146.618 51.8042 146.626 51.8042Z" fill="#EB996E"/>
<path d="M137.074 41.0989C136.995 41.0039 136.946 40.8877 136.933 40.7648C136.926 40.6962 136.935 40.6268 136.961 40.5627C136.986 40.4986 137.026 40.4415 137.078 40.3963C137.144 40.3394 137.225 40.3013 137.31 40.2862C137.396 40.2712 137.484 40.2796 137.566 40.3107L137.668 40.3578L137.634 40.2507C137.599 40.1479 137.6 40.0361 137.638 39.9342C137.676 39.8323 137.748 39.7467 137.841 39.6917C137.935 39.6368 138.044 39.6159 138.151 39.6327C138.259 39.6495 138.357 39.7028 138.429 39.7838L138.519 39.7109C138.504 39.6922 138.494 39.6702 138.489 39.6467C138.482 39.6061 138.483 39.5644 138.494 39.5245C138.504 39.4846 138.523 39.4473 138.549 39.4154C138.575 39.3831 138.607 39.3567 138.644 39.3375C138.681 39.3183 138.721 39.3069 138.762 39.304C138.848 39.2924 138.934 39.3028 139.015 39.334C139.098 39.3821 139.192 39.4113 139.288 39.4196C139.408 39.4196 139.472 39.3254 139.536 39.2911C139.599 39.2468 139.668 39.2121 139.741 39.1883C139.871 39.1421 140.009 39.1217 140.147 39.1283C140.352 39.1381 140.55 39.2049 140.72 39.3211C140.839 39.4025 140.891 39.4668 140.899 39.4625C140.908 39.4582 140.865 39.3854 140.745 39.2868C140.578 39.1485 140.372 39.0661 140.156 39.0512C140.004 39.036 139.852 39.052 139.707 39.0983C139.628 39.1252 139.552 39.1611 139.48 39.2054C139.403 39.2526 139.344 39.3168 139.284 39.3168C139.202 39.3034 139.124 39.2743 139.053 39.2311C138.956 39.1944 138.852 39.1812 138.75 39.1926C138.637 39.202 138.532 39.2559 138.459 39.3425C138.424 39.389 138.398 39.4423 138.384 39.499C138.37 39.5558 138.368 39.6148 138.378 39.6724C138.387 39.7105 138.403 39.7467 138.425 39.7795L138.514 39.7067C138.426 39.6112 138.307 39.5486 138.178 39.5292C138.05 39.5097 137.918 39.5346 137.805 39.5996C137.692 39.6646 137.604 39.7661 137.556 39.8874C137.508 40.0087 137.502 40.1428 137.54 40.2678L137.604 40.2079C137.507 40.1695 137.402 40.1596 137.299 40.1793C137.197 40.199 137.103 40.2476 137.027 40.3192C136.935 40.4099 136.88 40.5322 136.873 40.6616C136.867 40.7911 136.91 40.9182 136.993 41.0175C137.04 41.086 137.07 41.1246 137.074 41.0989Z" fill="#2B3A8C"/>
<path d="M134.215 41.5875C134.127 41.4934 134.063 41.3784 134.031 41.2533C134.011 41.1816 134.006 41.1066 134.016 41.0329C134.027 40.9591 134.052 40.8883 134.091 40.8249C134.141 40.7431 134.21 40.6744 134.291 40.6245C134.373 40.5746 134.466 40.5449 134.561 40.5379H134.642L134.591 40.4694C134.519 40.3831 134.47 40.2809 134.446 40.1713C134.422 40.0617 134.425 39.9479 134.454 39.8397C134.474 39.7848 134.507 39.7354 134.549 39.6952C134.591 39.6551 134.642 39.6253 134.698 39.6083C134.754 39.5859 134.815 39.5809 134.874 39.5939C134.932 39.6069 134.986 39.6373 135.027 39.6812L135.318 40.0453L135.121 39.6169C135.085 39.5398 135.066 39.4557 135.066 39.3706C135.066 39.2855 135.085 39.2014 135.121 39.1243C135.161 39.0421 135.221 38.9714 135.296 38.919C135.371 38.8665 135.458 38.834 135.548 38.8244C135.677 38.8064 135.808 38.832 135.92 38.8972L136.044 38.97L136.006 38.8287C135.946 38.6316 136.16 38.4003 136.356 38.4003C136.567 38.4021 136.771 38.4728 136.937 38.6016L137.04 38.6702L137.014 38.5502C137.006 38.4759 137.018 38.4009 137.048 38.3325C137.078 38.2641 137.125 38.2048 137.185 38.1604C137.301 38.076 137.44 38.0282 137.583 38.0233C137.825 38.0016 138.069 38.0278 138.301 38.1004C138.506 38.1677 138.702 38.2582 138.886 38.3703C138.886 38.3703 138.848 38.3232 138.754 38.2589C138.622 38.167 138.478 38.0935 138.326 38.0404C138.089 37.9578 137.838 37.9228 137.587 37.9376C137.425 37.9422 137.268 37.9927 137.134 38.0833C137.058 38.1371 136.999 38.2107 136.962 38.2961C136.925 38.3814 136.912 38.4752 136.925 38.5674L137.002 38.516C136.817 38.3718 136.59 38.2934 136.356 38.2932C136.224 38.3027 136.1 38.3624 136.01 38.4603C135.962 38.5114 135.926 38.5737 135.908 38.6417C135.889 38.7098 135.888 38.7813 135.903 38.8501L135.989 38.7858C135.853 38.7066 135.695 38.6763 135.54 38.7002C135.433 38.7148 135.331 38.7557 135.244 38.8193C135.157 38.8828 135.087 38.967 135.04 39.0643C134.998 39.1563 134.976 39.2564 134.976 39.3577C134.976 39.459 134.998 39.5591 135.04 39.6512L135.134 39.5955C135.079 39.5404 135.01 39.5013 134.935 39.4825C134.86 39.4636 134.781 39.4657 134.706 39.4884C134.635 39.5106 134.569 39.5493 134.515 39.6014C134.461 39.6534 134.42 39.7174 134.394 39.7882C134.362 39.9128 134.36 40.0433 134.39 40.1686C134.419 40.294 134.477 40.4104 134.561 40.5079L134.595 40.4351C134.487 40.443 134.382 40.4776 134.291 40.5359C134.199 40.5943 134.123 40.6744 134.07 40.7692C134.031 40.8406 134.006 40.9191 133.998 41C133.99 41.081 133.998 41.1628 134.023 41.2405C134.048 41.3381 134.1 41.4269 134.172 41.4975C134.18 41.5301 134.195 41.5607 134.215 41.5875Z" fill="#2B3A8C"/>
<path d="M128.142 41.5916C128.149 41.5329 128.168 41.4763 128.199 41.4255C128.229 41.3746 128.269 41.3305 128.317 41.2961C128.427 41.213 128.565 41.1761 128.702 41.1933C128.884 41.2194 129.061 41.2774 129.223 41.3646L129.283 41.3946V41.3261C129.296 41.2169 129.345 41.1152 129.422 41.0374C129.5 40.9597 129.601 40.9104 129.71 40.8977C129.986 40.8877 130.258 40.956 130.497 41.0947L130.834 41.2575L130.557 41.0091C130.523 40.9667 130.499 40.918 130.484 40.8658C130.47 40.8137 130.466 40.7592 130.474 40.7057C130.481 40.6521 130.499 40.6005 130.526 40.554C130.554 40.5075 130.59 40.4671 130.634 40.435C130.739 40.3696 130.857 40.3267 130.98 40.309C131.103 40.2913 131.228 40.2992 131.347 40.3322H131.381L131.599 40.3708L131.428 40.2294C131.383 40.1817 131.349 40.1241 131.33 40.0612C131.31 39.9983 131.306 39.9317 131.316 39.8666C131.326 39.8016 131.351 39.7398 131.389 39.686C131.428 39.6323 131.477 39.5881 131.535 39.5568C131.654 39.5053 131.785 39.4903 131.912 39.514C132.04 39.5377 132.157 39.5988 132.249 39.6896L132.463 39.891L132.33 39.6297C132.256 39.4719 132.224 39.2972 132.239 39.1233C132.255 38.9494 132.315 38.7827 132.416 38.6401C132.498 38.5307 132.604 38.4409 132.725 38.3772C132.846 38.3135 132.98 38.2775 133.117 38.2717C133.299 38.2629 133.48 38.3028 133.642 38.3874C133.753 38.4473 133.805 38.4945 133.809 38.4902C133.813 38.4859 133.809 38.4902 133.775 38.4473C133.739 38.4141 133.7 38.384 133.659 38.3574C133.496 38.2576 133.308 38.207 133.117 38.2117C132.968 38.2107 132.821 38.2442 132.688 38.3096C132.554 38.3751 132.438 38.4706 132.347 38.5887C132.232 38.7429 132.161 38.9256 132.141 39.1173C132.122 39.309 132.155 39.5024 132.236 39.6768L132.317 39.6125C132.209 39.5009 132.068 39.426 131.915 39.3983C131.761 39.3707 131.603 39.3916 131.463 39.4583C131.39 39.4985 131.328 39.5543 131.28 39.6218C131.232 39.6892 131.199 39.7665 131.185 39.8481C131.166 39.9333 131.17 40.022 131.197 40.105C131.224 40.1879 131.273 40.262 131.339 40.3194L131.386 40.2208H131.352C131.216 40.1855 131.074 40.1791 130.936 40.2019C130.797 40.2248 130.665 40.2765 130.548 40.3536C130.44 40.4437 130.369 40.5701 130.347 40.7092C130.335 40.7777 130.339 40.8482 130.36 40.9147C130.381 40.9811 130.417 41.0414 130.467 41.0904L130.527 41.0048C130.268 40.8545 129.97 40.7858 129.672 40.8077C129.539 40.8247 129.417 40.8882 129.326 40.987C129.235 41.0857 129.182 41.2134 129.176 41.3475L129.232 41.3089C129.06 41.2205 128.873 41.1653 128.68 41.1461C128.527 41.1317 128.373 41.1778 128.253 41.2746C128.18 41.3349 128.129 41.4178 128.108 41.5103C128.113 41.5396 128.124 41.5675 128.142 41.5916Z" fill="#2B3A8C"/>
<path d="M131.796 36.1085C131.796 36.1085 131.839 36.147 131.941 36.177C132.081 36.2132 132.224 36.2333 132.369 36.237C132.584 36.2339 132.798 36.2854 132.988 36.3869C133.041 36.4169 133.087 36.4588 133.121 36.5094C133.155 36.5599 133.177 36.6177 133.185 36.6782C133.199 36.7399 133.194 36.8046 133.168 36.8625C133.143 36.9205 133.099 36.9686 133.044 36.9995L133.117 37.0638C133.151 36.9181 133.339 36.841 133.505 36.7596C133.678 36.6723 133.862 36.6116 134.053 36.5797C134.145 36.5627 134.24 36.5654 134.331 36.5876C134.422 36.6097 134.508 36.6508 134.582 36.7082C134.653 36.7525 134.71 36.8167 134.745 36.8928C134.78 36.969 134.792 37.0537 134.779 37.1366L134.749 37.2737L134.865 37.188C135.086 37.029 135.353 36.945 135.625 36.9481C135.841 36.9498 136.055 36.9995 136.249 37.0937C136.417 37.1896 136.571 37.3078 136.707 37.445C136.686 37.3973 136.657 37.3538 136.621 37.3165C136.527 37.2016 136.411 37.1069 136.279 37.0381C136.08 36.9268 135.857 36.8651 135.63 36.8581C135.334 36.8482 135.042 36.9354 134.8 37.1066L134.886 37.158C134.901 37.0538 134.887 36.9475 134.845 36.8508C134.804 36.7541 134.736 36.6707 134.651 36.6097C134.564 36.5444 134.466 36.4972 134.361 36.4707C134.256 36.4442 134.147 36.439 134.04 36.4555C133.837 36.4899 133.641 36.5564 133.458 36.6525C133.37 36.6923 133.284 36.7381 133.202 36.7896C133.11 36.8429 133.042 36.9284 133.01 37.0295V37.1323L133.104 37.0895C133.179 37.0495 133.239 36.9861 133.275 36.9089C133.312 36.8316 133.322 36.7447 133.305 36.6611C133.293 36.5869 133.264 36.5163 133.221 36.4548C133.178 36.3932 133.122 36.3421 133.057 36.3055C132.85 36.2018 132.62 36.1546 132.39 36.1684C132.247 36.1723 132.104 36.1622 131.963 36.1385C131.847 36.1256 131.8 36.1042 131.796 36.1085Z" fill="#2B3A8C"/>
<path d="M137.574 34.4206C137.673 34.432 137.771 34.4551 137.865 34.4892C137.969 34.5336 138.062 34.6026 138.134 34.6905C138.227 34.8026 138.278 34.9433 138.279 35.0889V35.1489H138.339C138.425 35.1404 138.512 35.1622 138.584 35.2107C138.655 35.2592 138.708 35.3312 138.732 35.4145C138.779 35.6218 138.769 35.838 138.703 36.0399L138.647 36.2584L138.801 36.0913L138.826 36.0613C138.879 36.0108 138.943 35.9733 139.013 35.9517C139.082 35.9301 139.156 35.9251 139.228 35.9371C139.297 35.9438 139.364 35.9643 139.425 35.9974C139.486 36.0305 139.54 36.0755 139.583 36.1299C139.658 36.2257 139.711 36.3364 139.74 36.4546C139.769 36.5728 139.772 36.6957 139.75 36.8153C139.717 36.9742 139.661 37.1272 139.583 37.2694C139.549 37.3237 139.521 37.381 139.497 37.4407C139.497 37.4407 139.553 37.3936 139.621 37.2908C139.723 37.1435 139.794 36.9775 139.831 36.8024C139.861 36.6699 139.862 36.5323 139.832 36.3996C139.802 36.267 139.744 36.1426 139.66 36.0356C139.606 35.9678 139.539 35.9117 139.463 35.8708C139.387 35.8299 139.303 35.805 139.217 35.7978C139.131 35.7906 139.044 35.8011 138.962 35.8288C138.881 35.8564 138.805 35.9006 138.741 35.9585L138.711 35.9928L138.814 36.0399C138.887 35.8169 138.894 35.5774 138.835 35.3502C138.801 35.2439 138.73 35.1533 138.635 35.0944C138.541 35.0356 138.428 35.0124 138.318 35.0289L138.378 35.076C138.366 34.9166 138.302 34.7657 138.194 34.6477C138.109 34.5568 138.003 34.4877 137.886 34.4463C137.812 34.4192 137.734 34.4075 137.655 34.4121C137.6 34.4078 137.574 34.4163 137.574 34.4206Z" fill="#2B3A8C"/>
<path d="M142.211 38.2802C142.261 38.2906 142.312 38.2906 142.361 38.2802C142.496 38.237 142.62 38.1654 142.724 38.0703C142.88 37.924 142.987 37.7322 143.028 37.522C143.031 37.4139 143.067 37.3094 143.13 37.2221C143.203 37.1493 143.344 37.1107 143.438 36.9865C143.526 36.8709 143.567 36.7262 143.553 36.5815C143.539 36.4367 143.47 36.3029 143.361 36.2068V36.2925C143.587 36.1273 143.771 35.9117 143.9 35.6628C143.957 35.5706 143.994 35.4667 144.006 35.3586C144.006 35.3586 143.951 35.4657 143.848 35.6328C143.705 35.8584 143.52 36.0534 143.301 36.2068L143.246 36.2454L143.301 36.2925C143.385 36.3715 143.436 36.4786 143.445 36.5933C143.455 36.7079 143.422 36.822 143.353 36.9137C143.288 37.0079 143.16 37.0422 143.058 37.1407C142.977 37.2452 142.932 37.3728 142.929 37.5048C142.896 37.695 142.806 37.871 142.673 38.0103C142.536 38.1265 142.38 38.2178 142.211 38.2802Z" fill="#2B3A8C"/>
<path d="M143.579 39.4111C143.579 39.4111 143.609 39.4111 143.669 39.4111C143.76 39.422 143.852 39.422 143.942 39.4111C144.264 39.3744 144.564 39.2329 144.797 39.0084H144.725C144.797 39.1185 144.891 39.213 145 39.2865C145.109 39.36 145.232 39.4111 145.361 39.4368C145.502 39.4673 145.648 39.4673 145.789 39.4368C145.944 39.4043 146.082 39.314 146.173 39.184C146.203 39.1241 146.212 39.0684 146.233 39.0255C146.25 38.9867 146.277 38.9527 146.31 38.927C146.394 38.8785 146.487 38.8465 146.584 38.8328C146.688 38.8172 146.789 38.7854 146.883 38.7385C146.934 38.7145 146.978 38.6772 147.01 38.6306C147.043 38.5839 147.062 38.5295 147.067 38.4729L146.99 38.5158C147.202 38.6235 147.447 38.6509 147.678 38.5929C147.855 38.5524 148.02 38.4685 148.156 38.3487C148.242 38.2706 148.313 38.1778 148.366 38.0745C148.4 37.9974 148.409 37.9589 148.404 37.9546C148.33 38.0862 148.233 38.2037 148.118 38.3016C147.984 38.4059 147.827 38.4765 147.661 38.5072C147.451 38.5535 147.232 38.5247 147.041 38.4258L146.968 38.3873V38.4686C146.963 38.5068 146.948 38.5429 146.925 38.5736C146.902 38.6044 146.871 38.6287 146.836 38.6443C146.751 38.6861 146.66 38.7136 146.567 38.7257C146.455 38.7379 146.347 38.7744 146.25 38.8328C146.197 38.8705 146.156 38.9224 146.131 38.9827C146.118 39.0326 146.1 39.0813 146.079 39.1284C146.002 39.2308 145.889 39.301 145.763 39.3254C145.639 39.3534 145.511 39.3534 145.387 39.3254C145.157 39.2877 144.951 39.1598 144.814 38.9699L144.78 38.9227L144.742 38.9613C144.519 39.1836 144.234 39.333 143.925 39.3897C143.712 39.4111 143.579 39.3854 143.579 39.4111Z" fill="#2B3A8C"/>
<path d="M152.199 43.652C152.201 43.6392 152.201 43.6262 152.199 43.6134C152.211 43.5755 152.219 43.5369 152.225 43.4978C152.254 43.3464 152.254 43.1908 152.225 43.0394C152.17 42.8093 152.086 42.5875 151.973 42.3797C151.911 42.2465 151.839 42.1189 151.755 41.9984C151.704 41.9321 151.642 41.8755 151.571 41.8313C151.53 41.8048 151.484 41.7885 151.435 41.7841C151.387 41.7796 151.338 41.787 151.293 41.8056L151.362 41.8613C151.389 41.7141 151.372 41.5622 151.312 41.4248C151.253 41.2873 151.155 41.1704 151.03 41.0889C150.905 41.0074 150.758 40.9648 150.609 40.9666C150.459 40.9683 150.314 41.0143 150.191 41.0988L150.281 41.1502C150.286 41.0702 150.273 40.9899 150.242 40.9157C150.212 40.8415 150.165 40.7752 150.105 40.7218C150.041 40.6661 149.964 40.6274 149.881 40.6095C149.798 40.5915 149.712 40.5948 149.631 40.619C149.54 40.6475 149.457 40.6992 149.392 40.769L149.49 40.8161C149.497 40.7662 149.493 40.7152 149.476 40.6674C149.46 40.6197 149.432 40.5766 149.396 40.5419C149.33 40.4725 149.243 40.4272 149.148 40.4134C148.98 40.3976 148.81 40.4256 148.656 40.4948L148.721 40.5205C148.623 40.3392 148.459 40.2026 148.263 40.1392C148.085 40.0753 147.894 40.0591 147.708 40.0921C147.393 40.1573 147.093 40.2761 146.819 40.4434L146.874 40.4991C146.891 40.4682 146.9 40.4336 146.9 40.3984C146.9 40.3632 146.891 40.3286 146.874 40.2977C146.842 40.2473 146.796 40.2071 146.742 40.1821C146.652 40.1299 146.55 40.1047 146.447 40.1093C146.289 40.1183 146.133 40.1515 145.985 40.2078C145.891 40.2395 145.8 40.2826 145.716 40.3363C145.686 40.3518 145.658 40.3721 145.635 40.3963C145.635 40.3963 145.759 40.3277 145.998 40.2506C146.143 40.2036 146.294 40.1777 146.447 40.1735C146.538 40.1755 146.628 40.2006 146.708 40.2463C146.789 40.2892 146.857 40.3791 146.806 40.4605L146.733 40.5805L146.861 40.5162C147.127 40.361 147.415 40.2496 147.716 40.1864C147.885 40.1629 148.056 40.1805 148.216 40.2378C148.387 40.2937 148.529 40.4134 148.614 40.5719L148.635 40.6147H148.682C148.817 40.5574 148.963 40.5325 149.109 40.5419C149.242 40.5419 149.379 40.6876 149.357 40.8161L149.323 41.0131L149.456 40.8632C149.504 40.8074 149.568 40.7672 149.639 40.7475C149.703 40.7275 149.77 40.724 149.835 40.7375C149.9 40.751 149.961 40.781 150.011 40.8247C150.058 40.8679 150.095 40.9212 150.118 40.9805C150.142 41.0398 150.152 41.1036 150.148 41.1674V41.2916L150.251 41.223C150.361 41.1466 150.492 41.1057 150.627 41.1057C150.761 41.1057 150.892 41.1466 151.003 41.223C151.1 41.2966 151.176 41.3952 151.222 41.5083C151.267 41.6214 151.282 41.7449 151.263 41.8656V41.9556L151.345 41.917C151.473 41.8571 151.614 41.9684 151.699 42.0755C151.782 42.189 151.855 42.3094 151.917 42.4354C152.032 42.6361 152.121 42.8506 152.182 43.0737C152.224 43.2636 152.23 43.4598 152.199 43.652Z" fill="#2B3A8C"/>
<path d="M151.281 46.9121C151.281 46.9121 151.306 46.9121 151.345 46.8479C151.402 46.7795 151.454 46.7064 151.499 46.6294C151.576 46.5074 151.619 46.3668 151.623 46.2224C151.623 46.1299 151.601 46.0387 151.558 45.9568C151.512 45.8586 151.429 45.782 151.328 45.7426V45.8069C151.39 45.7299 151.43 45.6371 151.443 45.5387C151.456 45.4404 151.441 45.3405 151.4 45.25C151.35 45.1463 151.269 45.0611 151.167 45.0065C151.066 44.9519 150.95 44.9307 150.836 44.9458L150.883 45.0315C150.941 44.9609 150.974 44.8739 150.978 44.783C150.983 44.6921 150.959 44.6021 150.909 44.526C150.855 44.4503 150.786 44.3872 150.705 44.3413C150.625 44.2954 150.535 44.2678 150.443 44.2604C150.353 44.2604 150.263 44.2604 150.191 44.2604C150.157 44.2486 150.126 44.2289 150.1 44.2028C150.075 44.1768 150.056 44.1452 150.046 44.1105C150.018 44.019 149.976 43.9323 149.922 43.8535C149.858 43.7703 149.77 43.7102 149.669 43.6821C149.472 43.6386 149.269 43.617 149.067 43.6179C148.979 43.621 148.892 43.6062 148.811 43.5746C148.729 43.5429 148.655 43.495 148.592 43.4336C148.541 43.3694 148.507 43.2837 148.456 43.2023C148.403 43.1188 148.329 43.0508 148.242 43.0053C148.16 42.9642 148.069 42.9427 147.977 42.9427C147.885 42.9427 147.794 42.9642 147.712 43.0053L147.772 43.0824C147.826 43.0055 147.856 42.9134 147.856 42.8189C147.856 42.7245 147.826 42.6324 147.772 42.5555C147.672 42.4248 147.527 42.3362 147.366 42.307C147.117 42.272 146.863 42.2821 146.618 42.337C146.461 42.3697 146.308 42.4171 146.161 42.4784C146.107 42.4952 146.056 42.5213 146.011 42.5555C146.214 42.4878 146.421 42.4349 146.631 42.397C146.868 42.3535 147.111 42.3535 147.349 42.397C147.488 42.4217 147.612 42.5001 147.695 42.6154C147.741 42.6774 147.765 42.7525 147.765 42.8296C147.765 42.9068 147.741 42.9818 147.695 43.0438L147.558 43.2109L147.755 43.1166C147.821 43.0844 147.894 43.0676 147.968 43.0676C148.042 43.0676 148.115 43.0844 148.182 43.1166C148.254 43.1544 148.314 43.2106 148.357 43.2794C148.399 43.3624 148.446 43.4425 148.498 43.5193C148.568 43.5973 148.656 43.6563 148.755 43.6907C148.85 43.722 148.949 43.7407 149.05 43.7464C149.243 43.7485 149.437 43.7686 149.627 43.8063C149.704 43.8298 149.773 43.8761 149.823 43.9391C149.872 44.01 149.91 44.0881 149.934 44.1705C149.95 44.2215 149.978 44.2678 150.016 44.3052C150.054 44.3426 150.101 44.3699 150.152 44.3847C150.242 44.3984 150.331 44.407 150.422 44.4104C150.497 44.4147 150.571 44.4358 150.637 44.4721C150.704 44.5084 150.762 44.559 150.806 44.6203C150.846 44.6758 150.868 44.7425 150.868 44.8109C150.868 44.8793 150.846 44.946 150.806 45.0015L150.708 45.1086H150.853C150.946 45.0922 151.041 45.1068 151.125 45.1501C151.208 45.1935 151.275 45.2632 151.315 45.3485C151.35 45.4233 151.364 45.5063 151.356 45.5885C151.348 45.6708 151.317 45.7493 151.268 45.8154L151.234 45.8626H151.285C151.367 45.8981 151.436 45.9586 151.482 46.0354C151.528 46.1123 151.549 46.2016 151.541 46.291C151.542 46.4244 151.508 46.5558 151.443 46.6722C151.353 46.8093 151.272 46.9078 151.281 46.9121Z" fill="#2B3A8C"/>
<path d="M151.635 53.068C151.674 53.0684 151.712 53.0596 151.746 53.0423C151.851 53.0039 151.946 52.9424 152.024 52.8624C152.165 52.7132 152.248 52.5182 152.257 52.3129C152.267 52.1077 152.202 51.9059 152.075 51.7443V51.8043C152.226 51.6524 152.343 51.4698 152.417 51.2688C152.454 51.1502 152.454 51.0233 152.417 50.9047C152.401 50.8394 152.371 50.7784 152.329 50.7259C152.287 50.6734 152.234 50.6306 152.174 50.6005V50.6991C152.281 50.6449 152.371 50.5623 152.434 50.4603C152.497 50.3583 152.532 50.2409 152.533 50.1208C152.539 49.9883 152.51 49.8565 152.447 49.7395C152.387 49.6261 152.291 49.5358 152.174 49.4825C152.13 49.4652 152.092 49.4343 152.067 49.3943C152.041 49.3542 152.029 49.3071 152.033 49.2597C152.039 49.1449 152.023 49.03 151.986 48.9213C151.905 48.726 151.772 48.557 151.601 48.4329L151.204 48.0902C151.011 47.9187 150.785 47.7876 150.541 47.7047C150.473 47.6858 150.403 47.6743 150.332 47.6704H150.259C150.259 47.6704 150.362 47.6704 150.528 47.7432C150.759 47.8392 150.97 47.9756 151.152 48.1459L151.541 48.4972C151.693 48.6168 151.812 48.773 151.887 48.9513C151.918 49.0495 151.931 49.1525 151.926 49.2554C151.918 49.3227 151.933 49.3906 151.969 49.4482C152.008 49.5006 152.059 49.5431 152.118 49.5724C152.207 49.6225 152.28 49.6945 152.333 49.7816C152.385 49.8687 152.414 49.9678 152.417 50.0695C152.42 50.1711 152.397 50.2718 152.35 50.3618C152.303 50.4519 152.233 50.5282 152.148 50.5834L152.046 50.6348L152.152 50.6819C152.24 50.7373 152.306 50.8211 152.339 50.9193C152.373 51.0175 152.372 51.1242 152.336 51.2217C152.264 51.4088 152.156 51.5803 152.02 51.7272L151.994 51.7572L152.02 51.7872C152.086 51.8678 152.136 51.9608 152.166 52.0608C152.196 52.1608 152.206 52.2659 152.195 52.3698C152.176 52.5297 152.107 52.6796 151.999 52.7981C151.898 52.9126 151.774 53.0045 151.635 53.068Z" fill="#2B3A8C"/>
<path d="M142.152 43.0652C142.273 43.0555 142.392 43.019 142.498 42.9581C142.621 42.9036 142.732 42.8233 142.823 42.7225C142.88 42.6567 142.923 42.5798 142.95 42.4965C142.976 42.4132 142.985 42.3254 142.976 42.2385C142.968 42.1958 142.955 42.1541 142.938 42.1142L142.908 42.1913C142.982 42.1589 143.049 42.1107 143.103 42.05C143.156 41.9894 143.196 41.9177 143.22 41.8401C143.238 41.7782 143.243 41.7134 143.236 41.6494C143.228 41.5855 143.209 41.5236 143.177 41.4674C143.07 41.2746 142.925 41.2446 142.925 41.2575C143.002 41.3257 143.065 41.4088 143.109 41.5016C143.147 41.6009 143.147 41.7108 143.109 41.8101C143.088 41.8721 143.055 41.9291 143.011 41.9771C142.966 42.0251 142.913 42.0631 142.852 42.0885H142.801L142.823 42.1442C142.836 42.1742 142.844 42.206 142.848 42.2385C142.856 42.3095 142.849 42.3813 142.828 42.4497C142.808 42.5181 142.774 42.5817 142.729 42.6368C142.65 42.732 142.554 42.8119 142.446 42.8725C142.275 42.9924 142.143 43.0481 142.152 43.0652Z" fill="#2B3A8C"/>
<path d="M139.626 41.6173C139.561 41.4842 139.545 41.3328 139.579 41.1889C139.597 41.1126 139.634 41.0421 139.686 40.9838C139.738 40.9255 139.804 40.8811 139.878 40.8547C139.97 40.8226 140.07 40.8181 140.165 40.8417C140.26 40.8652 140.346 40.9159 140.412 40.9875L140.476 41.0604L140.502 40.9661C140.534 40.8485 140.587 40.738 140.66 40.6406C140.695 40.592 140.74 40.5512 140.791 40.521C140.843 40.4907 140.9 40.4716 140.959 40.4649C141.143 40.4649 141.331 40.6406 141.267 40.7862L141.374 40.8162C141.418 40.5961 141.547 40.4022 141.733 40.2764C141.881 40.1784 142.056 40.129 142.233 40.1351C142.396 40.1496 142.556 40.1947 142.703 40.2679C142.703 40.2679 142.673 40.2293 142.596 40.1822C142.487 40.1203 142.366 40.0823 142.241 40.0708C142.045 40.0536 141.848 40.1017 141.681 40.2079C141.574 40.2735 141.481 40.3599 141.408 40.4622C141.334 40.5645 141.282 40.6805 141.254 40.8033L141.357 40.8333C141.376 40.7747 141.379 40.7115 141.364 40.6515C141.349 40.5914 141.316 40.5371 141.271 40.4949C141.228 40.4509 141.177 40.4161 141.121 40.3926C141.064 40.369 141.003 40.3572 140.942 40.3578C140.866 40.3654 140.792 40.3892 140.726 40.4276C140.659 40.466 140.602 40.5182 140.557 40.5806C140.478 40.6898 140.42 40.8134 140.386 40.9447H140.476C140.395 40.8604 140.291 40.8016 140.177 40.7757C140.064 40.7499 139.945 40.758 139.835 40.7991C139.75 40.8323 139.675 40.8868 139.617 40.9572C139.558 41.0276 139.519 41.1118 139.502 41.2017C139.479 41.3158 139.493 41.4341 139.54 41.5402C139.587 41.5916 139.621 41.6215 139.626 41.6173Z" fill="#2B3A8C"/>
<path d="M117.106 171.28L115.67 178.387L110.931 178.832L108.935 176.476L110.76 167.994L117.106 171.28Z" fill="#FFBE9D"/>
<path d="M107.99 175.688V176.241C107.99 176.241 98.9169 179.753 98.7759 181.535L116.581 181.964L116.483 175.739C113.786 176.973 111.012 177.046 107.99 175.688Z" fill="#28A8DF"/>
<g opacity="0.6">
<path opacity="0.6" d="M114.615 177.693C114.788 177.758 114.933 177.883 115.021 178.046C115.11 178.209 115.137 178.398 115.098 178.58C115.054 178.757 114.943 178.91 114.788 179.005C114.632 179.1 114.446 179.131 114.269 179.089C114.085 179.021 113.933 178.888 113.84 178.715C113.746 178.543 113.718 178.343 113.76 178.151C113.827 177.972 113.961 177.827 114.134 177.746C114.307 177.666 114.504 177.658 114.683 177.723" fill="white"/>
</g>
<path d="M116.564 181.977V180.482L99.5023 180.606C99.2389 180.747 99.0196 180.959 98.8688 181.218C98.7179 181.476 98.6413 181.772 98.6476 182.071L116.564 181.977Z" fill="black"/>
<path d="M107.909 176.292C107.909 176.382 108.336 176.438 108.764 176.742C109.191 177.046 109.405 177.436 109.486 177.401C109.567 177.367 109.448 176.836 108.935 176.476C108.422 176.116 107.892 176.206 107.909 176.292Z" fill="black"/>
<path d="M106.024 177.059C105.999 177.145 106.375 177.312 106.661 177.701C106.948 178.091 107.025 178.507 107.11 178.507C107.196 178.507 107.264 177.988 106.896 177.504C106.529 177.02 106.024 176.969 106.024 177.059Z" fill="black"/>
<path d="M104.909 179.376C104.986 179.376 105.118 178.948 104.909 178.443C104.699 177.937 104.298 177.727 104.259 177.8C104.221 177.873 104.464 178.151 104.635 178.567C104.806 178.982 104.823 179.368 104.909 179.376Z" fill="black"/>
<path d="M144.66 169.614C144.729 169.845 144.66 178.704 144.66 178.704L142.002 180.349L138.527 178.164L137.792 169.596L144.66 169.614Z" fill="#FFBE9D"/>
<path d="M138.279 177.397C138.279 177.397 143.011 180.923 145.297 177.873L145.896 179.351L148.588 189.885C148.681 190.21 148.656 190.558 148.517 190.867C148.379 191.176 148.136 191.426 147.832 191.573C147.601 191.67 147.347 191.697 147.101 191.648C146.856 191.599 146.631 191.477 146.455 191.298C144.506 189.354 137.386 182.17 137.455 181.197L137.48 178.627C137.482 178.369 137.558 178.117 137.7 177.901C137.842 177.686 138.043 177.517 138.279 177.415V177.397Z" fill="#28A8DF"/>
<path d="M147.596 191.645L137.45 180.298V180.863C137.429 181.094 137.462 181.326 137.545 181.542C137.628 181.758 137.759 181.952 137.929 182.11C140.591 185.46 143.445 188.653 146.477 191.671C146.789 191.988 147.383 191.71 147.613 191.645H147.596Z" fill="black"/>
<g opacity="0.6">
<path opacity="0.6" d="M138.938 178.635C139.095 178.761 139.203 178.938 139.243 179.135C139.282 179.333 139.252 179.538 139.156 179.715C139.052 179.881 138.886 179.999 138.696 180.043C138.505 180.087 138.305 180.054 138.138 179.95C137.972 179.817 137.858 179.629 137.817 179.42C137.775 179.211 137.809 178.993 137.912 178.807C137.974 178.726 138.052 178.659 138.141 178.609C138.23 178.559 138.328 178.528 138.429 178.516C138.53 178.504 138.632 178.513 138.73 178.542C138.827 178.57 138.918 178.618 138.997 178.682" fill="white"/>
</g>
<path d="M144.673 185.832C144.746 185.871 145.028 185.168 145.78 184.791C146.532 184.414 147.229 184.573 147.242 184.491C147.255 184.41 147.092 184.354 146.814 184.311C146.421 184.268 146.023 184.344 145.673 184.53C145.315 184.715 145.018 185.001 144.818 185.352C144.66 185.626 144.639 185.823 144.673 185.832Z" fill="black"/>
<path d="M145.583 187.631C145.643 187.687 146.049 187.255 146.707 187.053C147.366 186.852 147.926 186.963 147.947 186.882C147.968 186.8 147.37 186.531 146.626 186.775C145.883 187.019 145.519 187.58 145.583 187.631Z" fill="black"/>
<path d="M142.981 183.553C143.04 183.613 143.66 182.941 144.656 182.538C145.652 182.135 146.537 182.157 146.537 182.067C146.537 181.977 145.613 181.814 144.553 182.264C143.494 182.714 142.917 183.515 142.981 183.553Z" fill="black"/>
<path d="M142.754 180.349C142.788 180.43 143.489 180.117 144.404 180.079C145.318 180.04 146.041 180.267 146.066 180.186C146.092 180.105 145.37 179.736 144.387 179.788C143.404 179.839 142.703 180.285 142.754 180.349Z" fill="black"/>
<path d="M144.921 180.049C144.933 179.879 144.909 179.708 144.848 179.548C144.73 179.103 144.523 178.686 144.241 178.323C144.065 178.043 143.8 177.83 143.489 177.719C143.384 177.692 143.273 177.7 143.173 177.742C143.073 177.784 142.989 177.857 142.934 177.95C142.827 178.143 142.794 178.368 142.84 178.584C142.936 179.01 143.18 179.388 143.527 179.651C143.874 179.915 144.302 180.049 144.737 180.028C145.166 179.983 145.573 179.811 145.903 179.533C146.234 179.255 146.474 178.884 146.592 178.468C146.623 178.361 146.632 178.249 146.618 178.139C146.604 178.028 146.567 177.922 146.511 177.826C146.446 177.738 146.355 177.674 146.251 177.642C146.147 177.61 146.036 177.613 145.934 177.65C145.638 177.785 145.383 177.997 145.195 178.263C144.903 178.616 144.676 179.017 144.524 179.449C144.455 179.597 144.417 179.758 144.412 179.921C144.645 179.365 144.957 178.847 145.34 178.383C145.513 178.159 145.74 177.983 145.998 177.869C146.054 177.846 146.115 177.843 146.173 177.86C146.23 177.877 146.28 177.914 146.314 177.963C146.347 178.029 146.367 178.1 146.372 178.174C146.377 178.248 146.368 178.321 146.344 178.391C146.231 178.746 146.017 179.061 145.728 179.296C145.44 179.532 145.09 179.679 144.72 179.719C144.353 179.736 143.991 179.626 143.694 179.408C143.398 179.19 143.185 178.876 143.092 178.52C143.06 178.376 143.077 178.225 143.139 178.091C143.169 178.038 143.215 177.996 143.27 177.972C143.325 177.947 143.387 177.941 143.446 177.954C143.708 178.051 143.933 178.226 144.092 178.455C144.458 178.935 144.738 179.474 144.921 180.049Z" fill="black"/>
<path d="M149.661 96.4803C151.077 99.3408 152.183 102.345 152.96 105.442C154.422 110.977 156.063 113.757 155.469 123.957C155.161 129.166 150.866 143.294 149.879 148.267C149.062 152.358 146.515 171.593 145.224 176.678H137.843L137.091 119.746C137.091 119.746 125.334 152.971 123.842 156.809C122.351 160.648 117.119 175.864 117.119 175.864L107.922 173.413L114.923 139.4C116.32 132.623 120.12 113.487 121.735 107.725C123.351 101.964 124.881 95.8892 124.881 95.8892L149.661 96.4803Z" fill="black"/>
<path d="M148.759 106.56C148.769 106.658 148.795 106.753 148.836 106.843C148.927 107.09 149.038 107.33 149.169 107.558C149.597 108.312 150.18 108.966 150.879 109.477C151.566 109.98 152.356 110.325 153.191 110.488C153.44 110.536 153.694 110.561 153.948 110.561C154.127 110.561 154.225 110.561 154.225 110.535C154.225 110.51 153.832 110.484 153.221 110.338C152.42 110.138 151.664 109.786 150.994 109.302C150.316 108.805 149.736 108.186 149.285 107.477C148.943 106.929 148.793 106.543 148.759 106.56Z" fill="#2B3A8C"/>
<path d="M120.987 110.694C120.987 110.694 121.081 110.737 121.257 110.775C121.507 110.828 121.762 110.855 122.017 110.857C122.399 110.866 122.781 110.829 123.154 110.745C123.612 110.637 124.054 110.467 124.466 110.24C125.219 109.805 125.876 109.222 126.398 108.526C126.629 108.25 126.822 107.943 126.971 107.614C126.727 107.872 126.499 108.143 126.287 108.428C125.747 109.071 125.099 109.614 124.372 110.034C123.648 110.432 122.842 110.656 122.017 110.69C121.385 110.724 120.992 110.655 120.987 110.694Z" fill="#2B3A8C"/>
<path d="M136.976 107.481C136.929 107.63 136.902 107.784 136.895 107.94C136.856 108.239 136.813 108.668 136.766 109.203C136.681 110.274 136.608 111.774 136.621 113.389C136.634 115.004 136.732 116.507 136.839 117.574C136.89 118.109 136.942 118.538 136.989 118.833C137.001 118.989 137.029 119.142 137.074 119.292C137.093 119.137 137.093 118.98 137.074 118.825C137.053 118.482 137.023 118.058 136.993 117.561C136.925 116.494 136.848 115.021 136.835 113.389C136.822 111.756 136.869 110.283 136.92 109.216C136.946 108.715 136.967 108.295 136.984 107.931C136.997 107.781 136.994 107.63 136.976 107.481Z" fill="#2B3A8C"/>
<path d="M146.87 63.5933L153.567 66.7976L152.635 79.0365C152.635 79.0365 151.845 79.9661 150.558 86.5246C149.272 93.0831 153.55 105.853 153.55 105.853L122.047 106.667C122.047 106.667 125.744 80.1846 126.171 76.6804L127.744 63.272L134.082 62.925H135.912L137.484 74.3371L145.417 63.272L146.87 63.5933Z" fill="#2B3A8C"/>
<path d="M117.735 87.3386C117.816 87.1065 117.85 86.8602 117.833 86.6147C117.836 86.024 117.737 85.4372 117.542 84.8797C117.346 84.3292 117.057 83.8163 116.688 83.3633C116.401 83.0248 116.183 82.862 116.166 82.8835C116.653 83.5169 117.05 84.2146 117.346 84.9568C117.583 85.7293 117.714 86.5307 117.735 87.3386Z" fill="black"/>
<path d="M104.939 84.3013L116.166 84.2027L120.415 71.634C121.081 70.1196 121.822 68.6398 122.637 67.2003C124.885 63.0535 127.744 63.272 127.744 63.272L131.189 68.6439L127.531 76.8731C127.531 76.8731 124.03 92.3891 119.97 93.0745C113.235 94.2054 101.165 89.5361 101.165 89.5361L104.939 84.3013Z" fill="#2B3A8C"/>
<g opacity="0.2">
<path opacity="0.2" d="M124.65 88.1526C124.65 87.7242 124.53 87.1759 124.898 86.9917C125.054 86.9392 125.219 86.9185 125.384 86.931C125.548 86.9435 125.709 86.9889 125.855 87.0645C135.155 90.3673 140.54 86.529 149.84 89.8361L151.738 99.4148C147.609 99.449 145.72 98.4809 141.664 97.1786C137.523 95.8506 133.382 94.5226 129.321 92.9462C128.174 92.5639 127.096 91.9983 126.129 91.2712C125.668 90.8926 125.297 90.4168 125.041 89.8777C124.786 89.3386 124.652 88.7495 124.65 88.1526Z" fill="black"/>
</g>
<path d="M126.89 72.3152C126.842 72.5337 126.77 72.7464 126.676 72.9492C126.507 73.4553 126.377 73.9738 126.287 74.4999C126.065 75.7379 126.022 76.7661 125.958 76.7661C125.859 75.9975 125.895 75.2174 126.065 74.4614C126.157 73.9211 126.312 73.3934 126.526 72.8892C126.602 72.6724 126.726 72.4759 126.89 72.3152Z" fill="black"/>
<path d="M184.215 84.5818L186.778 84.6477C187.485 84.6659 188.156 84.9649 188.643 85.4789C189.13 85.9929 189.394 86.6798 189.376 87.3885L189.368 87.7054C189.349 88.4141 189.051 89.0866 188.538 89.5749C188.026 90.0631 187.34 90.3272 186.633 90.3091L184.07 90.2431L184.215 84.5818Z" fill="#28A8DF"/>
<path d="M71.5683 82.1596L94.5533 79.8335L180.92 82.0611C181.12 82.0661 181.317 82.1105 181.499 82.1918C181.682 82.2731 181.847 82.3897 181.985 82.5349C182.123 82.6801 182.23 82.8511 182.302 83.0381C182.374 83.225 182.408 83.4244 182.403 83.6247L182.194 91.7639C182.189 91.9642 182.144 92.1616 182.063 92.3447C181.982 92.5278 181.866 92.6931 181.721 92.8311C181.576 92.9692 181.406 93.0773 181.219 93.1492C181.032 93.2211 180.834 93.2555 180.634 93.2504L93.9378 91.0014L71.4614 86.3792L71.5683 82.1596Z" fill="#28A8DF"/>
<path d="M71.534 83.346L69.4185 83.2903L67.6234 83.9029C67.4781 84.0143 67.5123 84.1556 67.6234 84.3098L69.427 84.8967L71.4999 84.9524L71.534 83.346Z" fill="black"/>
<path d="M96.35 79.872L94.5598 79.8259L94.2737 91.003L96.0638 91.049L96.35 79.872Z" fill="black"/>
<path d="M182.698 82.5536C182.692 82.815 182.634 83.0727 182.529 83.3118C182.423 83.5509 182.272 83.7668 182.083 83.947C181.894 84.1273 181.671 84.2684 181.428 84.3623C181.184 84.4562 180.924 84.501 180.664 84.4942L137.574 83.3804C137.314 83.3737 137.057 83.3157 136.819 83.2096C136.581 83.1035 136.366 82.9514 136.187 82.762C136.007 82.5727 135.867 82.3497 135.774 82.106C135.68 81.8622 135.636 81.6023 135.643 81.3413C135.656 80.8137 135.878 80.313 136.259 79.9492C136.641 79.5853 137.15 79.3881 137.677 79.4007L180.766 80.5359C181.288 80.5494 181.784 80.7689 182.146 81.1467C182.508 81.5245 182.706 82.0301 182.698 82.5536Z" fill="#28A8DF"/>
<path d="M182.698 82.5535C182.692 82.2204 182.609 81.8933 182.454 81.5982C182.301 81.3069 182.077 81.0592 181.803 80.8779C181.529 80.6967 181.213 80.5878 180.886 80.5615C180.612 80.5615 180.313 80.5615 180.005 80.5401L169.428 80.3002L153.742 79.919L144.481 79.6791L139.583 79.5548L138.335 79.5206C137.928 79.4831 137.519 79.5004 137.117 79.572C136.728 79.677 136.383 79.905 136.134 80.2221C135.884 80.5393 135.743 80.9286 135.732 81.3323C135.721 81.736 135.841 82.1325 136.072 82.4629C136.304 82.7933 136.636 83.0399 137.019 83.1661C137.416 83.2577 137.825 83.2966 138.232 83.2818L139.485 83.3118L144.383 83.4403L153.648 83.6844L169.329 84.1128L179.903 84.4213C180.215 84.4213 180.514 84.447 180.788 84.4213C181.041 84.4129 181.29 84.3562 181.523 84.2542C181.891 84.0897 182.199 83.8161 182.407 83.4703C182.575 83.181 182.674 82.8572 182.698 82.5235C182.707 82.609 182.707 82.6951 182.698 82.7806C182.67 83.0467 182.585 83.3038 182.45 83.5345C182.244 83.8944 181.932 84.1816 181.557 84.357C181.316 84.4672 181.056 84.5298 180.792 84.5412C180.51 84.5412 180.219 84.5412 179.907 84.5412L169.334 84.3056L153.644 83.9243L144.383 83.693L139.476 83.5345L138.228 83.5002H137.6C137.379 83.4964 137.16 83.4603 136.95 83.3931C136.522 83.2514 136.151 82.9752 135.891 82.6053C135.632 82.2355 135.499 81.7918 135.511 81.3399C135.522 80.8881 135.679 80.4521 135.958 80.0966C136.237 79.7411 136.622 79.4851 137.057 79.3663C137.271 79.3119 137.491 79.2888 137.711 79.2978H138.339L139.587 79.3278L144.489 79.4563L153.751 79.7005L169.432 80.1289L180.005 80.4373C180.317 80.4373 180.612 80.4373 180.89 80.4716C181.154 80.4958 181.409 80.573 181.642 80.6986C182.009 80.8883 182.308 81.1878 182.497 81.5554C182.612 81.7809 182.68 82.027 182.698 82.2794C182.708 82.3705 182.708 82.4624 182.698 82.5535Z" fill="black"/>
<path d="M182.42 83.072L184.634 84.203L184.467 90.6244L182.189 91.9053L182.42 83.072Z" fill="black"/>
<path d="M156.307 87.5912L151.413 80.0345L150.986 79.3577L150.328 78.3338L153.2 66.6047C153.2 66.6047 155.653 67.7357 157.003 69.6034C158.122 71.316 159.122 73.1037 159.995 74.9539C159.995 74.9539 164.782 85.9291 165.573 87.5698C166.363 89.2105 167.628 92.2391 165.573 93.9398C163.517 95.6405 149.759 95.6962 149.759 95.6962L148.832 88.7607L156.307 87.5912Z" fill="#2B3A8C"/>
<path d="M150.276 77.1087C150.31 77.1087 150.203 76.5904 150.161 75.7636C150.042 73.595 150.589 71.442 151.729 69.5949C152.157 68.8881 152.503 68.494 152.473 68.4725C152.443 68.4511 152.37 68.5539 152.212 68.7253C151.993 68.9735 151.792 69.2369 151.61 69.5135C150.379 71.3568 149.816 73.5675 150.015 75.7765C150.043 76.1067 150.095 76.4345 150.169 76.7575C150.189 76.8788 150.225 76.9969 150.276 77.1087Z" fill="black"/>
<path d="M147.225 90.0545C146.937 89.4231 146.513 88.863 145.985 88.4138C145.083 87.6298 143.1 87.0215 142.844 86.2719C142.587 85.5222 141.84 86.1048 142.015 87.043C142.126 87.6384 143.353 89.1849 143.353 89.1849C143.353 89.1849 141.912 89.549 140.955 88.9921C139.997 88.4352 136.642 87.4456 136.283 87.9168C135.924 88.3881 136.754 88.6237 137.138 88.8379C137.425 89.0007 139.656 90.123 139.656 90.123C139.656 90.123 135.215 89.9731 134.655 90.183C134.095 90.3929 134.655 90.9498 134.95 90.9626C135.13 90.9626 135.886 91.6523 136.425 92.1536C136.79 92.4959 137.27 92.6885 137.771 92.6933H138.801L135.668 93.0232C135.668 93.0232 135.13 93.5201 135.882 93.7771C136.219 93.8928 144.9 94.681 145.639 94.6553C147.306 94.5996 149.635 94.484 149.635 94.484L149.229 89.7717L147.225 90.0545Z" fill="#FFBE9D"/>
<path d="M134.869 91.0181C135.531 91.3476 136.243 91.5647 136.976 91.6607C137.698 91.8232 138.441 91.8666 139.177 91.7892C139.177 91.7292 138.198 91.6735 137.014 91.4593C135.831 91.2451 134.886 90.9624 134.869 91.0181Z" fill="#EB996E"/>
<g opacity="0.3">
<path opacity="0.3" d="M102.101 85.5567C102.956 85.3725 103.776 85.9165 104.481 86.4348C104.926 86.7456 105.347 87.0908 105.738 87.4672C106.819 88.5511 107.388 90.0375 108.302 91.267L103.174 90.4873L102.101 85.5567Z" fill="black"/>
</g>
<path d="M109.939 91.4811L107.708 91.0142C107.708 91.0142 105.695 87.8013 104.64 87.4115L104.046 87.1459C104.046 87.1459 103.272 85.4324 102.216 85.6594C101.592 85.231 101.028 85.4153 100.968 86.0407C100.968 86.0407 100.656 84.6142 99.4939 85.1839C98.3314 85.7537 101.105 90.71 101.105 90.71C101.105 90.71 102.075 93.2418 103.285 92.3936C103.285 92.3936 104.494 92.6763 105.302 92.2265C105.302 92.2265 106.05 93.2803 107.819 92.475L109.939 91.4811Z" fill="#FFBE9D"/>
<path d="M105.093 91.6737C105.093 91.6737 105.054 91.7551 105.093 91.9136C105.135 92.1329 105.244 92.3335 105.405 92.4876C105.638 92.7279 105.948 92.8793 106.281 92.916C106.674 92.9541 107.071 92.9118 107.448 92.7918C108.125 92.6009 108.772 92.3123 109.367 91.935C109.621 91.7955 109.852 91.6162 110.051 91.4038C109.209 91.8909 108.318 92.2858 107.392 92.5819C107.04 92.6919 106.671 92.7383 106.302 92.719C106.007 92.697 105.727 92.5798 105.503 92.3848C105.294 92.1982 105.15 91.9488 105.093 91.6737Z" fill="#EB996E"/>
<path d="M102.956 90.5171C103.007 90.4828 102.336 89.5104 101.763 88.191C101.191 86.8715 100.908 85.7192 100.857 85.732C100.857 85.9923 100.897 86.2511 100.977 86.4988C101.122 87.107 101.322 87.7007 101.575 88.2724C101.826 88.8443 102.127 89.3932 102.473 89.9131C102.598 90.1404 102.762 90.3447 102.956 90.5171Z" fill="#EB996E"/>
<path d="M104.238 90.4099C104.289 90.3799 103.725 89.3689 103.174 88.0624C102.622 86.7558 102.289 85.642 102.229 85.6591C102.561 87.3657 103.245 88.9839 104.238 90.4099Z" fill="#EB996E"/>
<path d="M102.528 91.5539C102.473 91.5539 102.528 91.9823 102.887 92.2693C103.246 92.5563 103.657 92.552 103.652 92.4963C103.648 92.4406 103.323 92.3721 103.02 92.1108C102.716 91.8495 102.567 91.5368 102.528 91.5539Z" fill="#EB996E"/>
<path d="M105.614 89.7031C105.411 89.2651 105.17 88.8464 104.892 88.4522C104.671 88.0244 104.412 87.6172 104.118 87.2356C104.231 87.7113 104.434 88.1607 104.717 88.5593C104.942 88.9935 105.246 89.3815 105.614 89.7031Z" fill="#EB996E"/>
</g>
<path d="M38.9646 20.1747L38.89 19.4666L36.6266 19.705L36.9199 22.4896L37.8587 22.3907L37.7648 21.4996L38.9264 21.3773L38.8518 20.6692L37.6902 20.7916L37.64 20.3142L38.9646 20.1747ZM41.0465 22.1192C41.9535 22.0237 42.5533 21.3411 42.4644 20.4978C42.3756 19.6544 41.6467 19.1118 40.7397 19.2074C39.8328 19.3029 39.233 19.9855 39.3218 20.8288C39.4107 21.6722 40.1395 22.2148 41.0465 22.1192ZM40.9665 21.3594C40.6204 21.3959 40.3143 21.1627 40.2686 20.7291C40.2229 20.2955 40.4737 20.0036 40.8198 19.9672C41.1659 19.9307 41.472 20.1639 41.5177 20.5975C41.5633 21.0311 41.3125 21.323 40.9665 21.3594ZM44.738 21.666L45.7404 21.5604L45.0651 20.7628C45.3813 20.5565 45.5404 20.2341 45.498 19.8323C45.4301 19.1879 44.8941 18.8341 44.1184 18.9158L42.7778 19.057L43.0712 21.8416L44.01 21.7427L43.9362 21.0426L44.1908 21.0158L44.738 21.666ZM44.5513 19.932C44.5726 20.1349 44.4623 20.2712 44.2037 20.2985L43.8616 20.3345L43.7929 19.6821L44.135 19.6461C44.3936 19.6188 44.5299 19.7292 44.5513 19.932ZM49.4961 21.1648L49.1948 18.381L48.4231 18.4623L47.6963 20.0391L46.633 18.6509L45.8612 18.7322L46.1546 21.5168L47.0099 21.4267L46.8808 20.2015L47.5881 21.1124L48.0018 21.0688L48.4992 19.9867L48.6408 21.2549L49.4961 21.1648ZM51.4087 21.0276C52.2639 20.9375 52.7144 20.4034 52.6264 19.568L52.4651 18.0365L51.5422 18.1337L51.7006 19.6374C51.7455 20.063 51.5991 20.2393 51.3366 20.267C51.074 20.2947 50.8942 20.1527 50.8493 19.7271L50.6909 18.2234L49.7521 18.3223L49.9135 19.8538C50.0015 20.6892 50.5534 21.1177 51.4087 21.0276ZM53.3081 20.7632L55.504 20.5319L55.4273 19.8039L54.1702 19.9363L53.9536 17.8797L53.0148 17.9786L53.3081 20.7632ZM58.0059 20.2683L58.9766 20.166L57.466 17.5097L56.5431 17.6069L55.6192 20.5197L56.5739 20.4192L56.7097 19.9141L57.7679 19.8027L58.0059 20.2683ZM56.897 19.2106L57.0938 18.482L57.438 19.1537L56.897 19.2106ZM60.9125 19.9621L61.915 19.8565L61.2397 19.0588C61.5558 18.8526 61.7149 18.5302 61.6726 18.1284C61.6047 17.4839 61.0687 17.1302 60.293 17.2119L58.9524 17.3531L59.2457 20.1377L60.1845 20.0388L60.1108 19.3387L60.3654 19.3118L60.9125 19.9621ZM60.7258 18.2281C60.7472 18.431 60.6369 18.5673 60.3783 18.5945L60.0362 18.6306L59.9675 17.9782L60.3096 17.9421C60.5681 17.9149 60.7045 18.0252 60.7258 18.2281ZM63.3742 18.9667L64.4913 17.3528L64.4306 16.776L61.9761 17.0346L62.0528 17.7625L63.286 17.6326L62.1689 19.2465L62.2297 19.8233L64.7875 19.5539L64.7109 18.8259L63.3742 18.9667Z" fill="black"/>
<defs>
<clipPath id="clip0">
<rect width="189" height="191.821" fill="white" transform="translate(0.382324)"/>
</clipPath>
</defs>
</svg>
