<svg width="191" height="182" viewBox="0 0 191 182" fill="none" xmlns="http://www.w3.org/2000/svg">
<g clip-path="url(#clip0)">
<path d="M49.779 6.10645L49.9571 6.39839C50.1486 6.72378 50.4296 6.98702 50.7665 7.15664L51.07 7.31072L50.7786 7.48508C50.4526 7.67672 50.1885 7.95822 50.0178 8.29604L49.868 8.60015L49.694 8.3082C49.5005 7.98343 49.2201 7.71937 48.8846 7.5459L48.5811 7.39587L48.8724 7.22152C49.1951 7.02701 49.4572 6.74616 49.6292 6.41056L49.779 6.10645Z" fill="#E0E0E0"/>
<path d="M92.7024 28.5093L92.8805 28.8012C93.0726 29.1262 93.3534 29.3893 93.6899 29.5595L93.9975 29.7136L93.7061 29.8879C93.3801 30.0795 93.116 30.3611 92.9453 30.6989L92.7955 31.003L92.6215 30.711C92.4279 30.3863 92.1476 30.1222 91.8121 29.9487L91.5085 29.7987L91.7959 29.6243C92.12 29.4304 92.3836 29.1495 92.5567 28.8134L92.7024 28.5093Z" fill="#E0E0E0"/>
<path d="M18.8675 90.7708L19.0415 91.0627C19.2341 91.3872 19.5148 91.6502 19.8509 91.8209L20.1545 91.975L19.8631 92.1494C19.5383 92.3413 19.2756 92.6228 19.1063 92.9603L18.9525 93.2645L18.7785 92.9725C18.5872 92.6459 18.3062 92.3813 17.9691 92.2102L17.6655 92.0602L17.9569 91.8858C18.2811 91.6919 18.5446 91.411 18.7178 91.0749L18.8675 90.7708Z" fill="#E0E0E0"/>
<path d="M134.626 169.118L134.8 169.41C134.992 169.734 135.273 169.997 135.609 170.168L135.913 170.322L135.626 170.496C135.3 170.689 135.037 170.97 134.865 171.307L134.715 171.611L134.537 171.319C134.345 170.993 134.064 170.729 133.727 170.557L133.42 170.407L133.711 170.233C134.036 170.04 134.3 169.759 134.472 169.422L134.626 169.118Z" fill="#E0E0E0"/>
<path d="M167.581 82.1951L167.966 82.8317C168.395 83.5475 169.02 84.1246 169.767 84.4941L170.435 84.8226L169.795 85.2078C169.081 85.6389 168.505 86.2666 168.136 87.0162L167.808 87.6812L167.424 87.0446C166.995 86.3288 166.37 85.7517 165.623 85.3822L164.955 85.0497L165.59 84.6685C166.305 84.2365 166.882 83.6092 167.254 82.8601L167.581 82.1951Z" fill="#E0E0E0"/>
<path d="M130.935 0.733887L131.315 1.37049C131.745 2.08729 132.371 2.66459 133.12 3.03296L133.784 3.36546L133.149 3.74661C132.434 4.17758 131.858 4.80533 131.489 5.55505L131.158 6.22004L130.777 5.58344C130.347 4.86751 129.72 4.29048 128.972 3.92096L128.292 3.58847L128.928 3.20732C129.642 2.77617 130.218 2.14847 130.587 1.39887L130.935 0.733887Z" fill="#E0E0E0"/>
<path d="M52.4664 159.419L52.8711 160.056C53.2998 160.771 53.925 161.348 54.6721 161.718L55.3399 162.051L54.7045 162.432C53.9896 162.864 53.4125 163.491 53.0411 164.24L52.7133 164.909L52.3288 164.268C51.8989 163.554 51.274 162.977 50.5279 162.606L49.8601 162.278L50.4995 161.892C51.2131 161.46 51.7887 160.833 52.1588 160.084L52.4664 159.419Z" fill="#E0E0E0"/>
<path d="M156.67 54.6384C156.67 54.6384 153.408 56.2603 149.139 58.7865C143.934 61.8843 133.222 67.9706 126.374 63.1616L120.105 50.8309C120.105 50.8309 124.128 52.6799 130.251 51.8852C135.711 51.1756 140.085 48.2886 142.052 46.9626C142.862 46.4274 143.894 45.6976 144.719 45.2029C146.095 44.3919 147.742 43.1755 150.15 41.9915L156.67 54.6384Z" fill="#668141"/>
<path d="M139.999 61.4911C142.731 61.0113 144.577 58.516 144.123 55.9176C143.668 53.3192 141.085 51.6016 138.353 52.0813C135.621 52.5611 133.774 55.0564 134.229 57.6548C134.683 60.2532 137.267 61.9708 139.999 61.4911Z" fill="#F5F5F5"/>
<path d="M137.54 54.8495L137.135 54.221L137.633 53.9006L138.038 54.5089C138.499 54.2388 139.031 54.1158 139.563 54.1561L139.729 55.0157C139.312 54.9777 138.891 55.0563 138.515 55.2428L139.114 56.1754C139.766 55.9726 140.514 55.7699 141.028 56.5809C141.409 57.1729 141.352 57.9271 140.624 58.5353L141.028 59.1557L140.531 59.476L140.126 58.8678C139.754 59.0732 139.336 59.1807 138.912 59.18L138.722 58.3285C139.048 58.332 139.371 58.2642 139.669 58.1298L139.041 57.1729C138.394 57.3837 137.657 57.5783 137.147 56.7674C136.791 56.2038 136.828 55.4577 137.54 54.8495ZM137.908 56.2038C138.034 56.3984 138.244 56.4106 138.511 56.3579L138.017 55.5874C137.926 55.6583 137.864 55.7606 137.844 55.8745C137.824 55.9884 137.847 56.1058 137.908 56.2038ZM139.628 57.0147L140.138 57.8257C140.232 57.7485 140.295 57.6392 140.313 57.5187C140.332 57.3982 140.306 57.275 140.239 57.1729C140.114 56.9458 139.899 56.9336 139.624 56.9985L139.628 57.0147Z" fill="#668141"/>
<path d="M127.05 63.2265L127.135 63.2792C127.337 63.3968 132.222 66.1825 140.931 62.2169C144.184 60.7283 147.311 58.9805 150.284 56.9902C152.17 55.7738 153.522 54.8736 155.027 54.4762L155.432 54.3749L149.782 42.77L149.463 42.993C149.37 43.0579 140.179 49.4807 136.083 51.1432C132.845 52.4772 126.682 54.387 122.044 52.2542L121.153 51.8487L127.05 63.2265ZM136.338 51.7636C139.296 50.5471 144.675 47.0478 147.67 45.0285C147.956 45.4591 148.387 45.7726 148.884 45.9125C149.153 45.9894 149.434 46.0126 149.712 45.9806C149.99 45.9486 150.258 45.862 150.503 45.726L153.587 52.0799C153.34 52.1836 153.119 52.3423 152.943 52.5439C152.766 52.7455 152.637 52.9848 152.567 53.2436C152.439 53.7442 152.468 54.2719 152.648 54.756C151.838 55.2061 150.96 55.7657 149.944 56.4225C147.004 58.4022 143.905 60.1354 140.68 61.6046C136.306 63.5955 132.955 63.7861 130.911 63.5955C130.38 63.5456 129.853 63.4617 129.332 63.3441C129.179 62.7468 128.847 62.2106 128.381 61.807C127.916 61.4035 127.338 61.1518 126.726 61.0856L123.408 54.7398C123.743 54.7155 124.181 54.5127 124.27 53.6572C128.64 54.4762 133.554 52.9151 136.338 51.7636Z" fill="#F5F5F5"/>
<path d="M45.6227 12.6469C45.6227 12.6469 42.3608 14.2689 38.0911 16.795C32.8866 19.8929 22.174 25.9791 15.3263 21.1701L9.05737 8.83948C9.05737 8.83948 13.0802 10.6885 19.2034 9.88967C24.6629 9.18008 29.0378 6.29712 31.0047 4.97119C31.8141 4.4319 32.8461 3.70609 33.6717 3.21141C35.0477 2.40045 36.6949 1.184 39.1029 0L45.6227 12.6469Z" fill="#668141"/>
<path d="M28.9523 19.4989C31.6845 19.0192 33.5309 16.5238 33.0764 13.9254C32.6219 11.327 30.0386 9.60943 27.3064 10.0892C24.5742 10.5689 22.7278 13.0642 23.1823 15.6626C23.6368 18.261 26.2201 19.9786 28.9523 19.4989Z" fill="#F5F5F5"/>
<path d="M26.4922 12.8537L26.0875 12.2293L26.5853 11.9089L26.99 12.5172C27.448 12.2468 27.9777 12.1237 28.5077 12.1644L28.6736 13.024C28.2557 12.9841 27.8349 13.0628 27.4595 13.2511L28.0504 14.1918C28.7019 13.985 29.4506 13.7863 29.9646 14.5973C30.3451 15.1893 30.2884 15.9475 29.5599 16.5557L29.9646 17.1761L29.4668 17.4965L29.0621 16.8882C28.6908 17.0943 28.2725 17.2005 27.848 17.1964L27.6578 16.3489C27.9841 16.3524 28.3073 16.2846 28.6048 16.1503L27.9937 15.1974C27.3462 15.4082 26.6096 15.6029 26.0997 14.7919C25.7273 14.2121 25.7799 13.466 26.4922 12.8537ZM26.8605 14.1918C26.986 14.3905 27.1964 14.4026 27.4635 14.3499L26.9698 13.5755C26.8793 13.6469 26.8181 13.7491 26.798 13.8628C26.7778 13.9764 26.8001 14.0935 26.8605 14.1918ZM28.5805 15.0028L29.0905 15.8137C29.1844 15.7372 29.2467 15.6286 29.2653 15.5088C29.284 15.389 29.2578 15.2665 29.1916 15.1649C29.0662 14.95 28.8476 14.9419 28.5805 15.0028Z" fill="#668141"/>
<path d="M16.0021 21.2351L16.087 21.2837C16.2894 21.4054 21.1742 24.191 29.8835 20.2254C33.1435 18.741 36.2781 16.9945 39.2566 15.0028C41.1425 13.7864 42.4942 12.8903 43.9997 12.4929L44.4044 12.3875L38.7345 0.778564L38.4148 1.00158C38.3217 1.06646 29.1308 7.48927 25.0351 9.14769C21.7975 10.4817 15.6338 12.3915 10.9958 10.2628L10.1055 9.85728L16.0021 21.2351ZM25.3103 9.77213C28.2687 8.55568 33.6473 5.05639 36.6421 3.03304C36.9316 3.48458 37.3821 3.80853 37.9017 3.93887C38.4213 4.06921 38.971 3.99613 39.4387 3.73452L42.4942 10.0884C42.2469 10.1916 42.0264 10.3501 41.8496 10.5518C41.6729 10.7535 41.5445 10.9931 41.4744 11.2521C41.3473 11.7528 41.3756 12.2804 41.5553 12.7646C40.7459 13.2106 39.8677 13.7742 38.8519 14.4311C35.9163 16.4083 32.8234 18.1402 29.6043 19.6091C25.2294 21.6041 21.8784 21.7946 19.8306 21.6041C19.2993 21.5549 18.7719 21.4696 18.2522 21.3486C18.0979 20.752 17.7658 20.2167 17.3002 19.8139C16.8345 19.4112 16.2575 19.1601 15.6459 19.0941L12.3597 12.7443C12.6956 12.7159 13.1327 12.5132 13.2217 11.6617C17.5926 12.4848 22.4855 10.9196 25.2901 9.77213H25.3103Z" fill="#F5F5F5"/>
<path d="M161.826 152.461C161.826 152.461 158.56 154.083 154.291 156.605C149.086 159.703 138.374 165.789 131.526 160.984L125.257 148.637C125.257 148.637 129.28 150.486 135.403 149.691C140.867 148.982 145.237 146.099 147.204 144.769C148.014 144.234 149.046 143.504 149.871 143.009C151.247 142.198 152.899 140.982 155.303 139.798L161.826 152.461Z" fill="#668141"/>
<path d="M139.381 155.461C138.924 152.866 140.769 150.368 143.501 149.89C146.233 149.411 148.819 151.106 149.272 153.726C149.726 156.345 147.88 158.819 145.148 159.301C142.417 159.784 139.835 158.06 139.381 155.461Z" fill="#F5F5F5"/>
<path d="M142.696 152.655L142.291 152.027L142.789 151.707L143.194 152.315C143.654 152.044 144.187 151.922 144.719 151.966L144.885 152.822C144.468 152.784 144.047 152.862 143.671 153.049L144.274 153.981C144.922 153.779 145.671 153.576 146.185 154.387C146.565 154.979 146.512 155.733 145.78 156.341L146.185 156.962L145.687 157.282L145.282 156.674C144.91 156.879 144.492 156.987 144.068 156.986L143.874 156.138C144.2 156.139 144.523 156.07 144.821 155.936L144.21 154.987C143.566 155.198 142.825 155.392 142.315 154.581C141.927 154.01 141.984 153.272 142.696 152.655ZM143.06 154.01C143.186 154.204 143.396 154.216 143.663 154.164L143.169 153.393C143.079 153.465 143.018 153.567 142.998 153.681C142.977 153.794 143 153.911 143.06 154.01ZM144.78 154.821L145.29 155.632C145.383 155.554 145.446 155.445 145.465 155.325C145.484 155.205 145.46 155.082 145.395 154.979C145.266 154.752 145.051 154.74 144.78 154.804V154.821Z" fill="#668141"/>
<path d="M132.206 161.037L132.287 161.085C132.489 161.203 137.374 163.989 146.083 160.023C149.336 158.536 152.464 156.788 155.436 154.796C157.322 153.58 158.674 152.684 160.179 152.286L160.584 152.181L154.946 140.576L154.627 140.803C154.534 140.864 145.343 147.267 141.247 148.949C138.009 150.283 131.846 152.193 127.208 150.064L126.317 149.659L132.206 161.037ZM141.49 149.57C144.448 148.353 149.827 144.854 152.822 142.835C153.113 143.284 153.564 143.606 154.082 143.736C154.601 143.866 155.15 143.795 155.618 143.536L158.702 149.886C158.456 149.99 158.236 150.149 158.059 150.351C157.883 150.552 157.754 150.791 157.682 151.05C157.555 151.55 157.583 152.078 157.763 152.562C156.954 153.012 156.076 153.572 155.06 154.233C152.119 156.211 149.021 157.943 145.796 159.411C141.421 161.406 138.07 161.596 136.03 161.402C135.498 161.354 134.969 161.27 134.448 161.15C134.294 160.553 133.963 160.017 133.497 159.613C133.031 159.21 132.454 158.958 131.842 158.892L128.551 152.542C128.887 152.518 129.328 152.315 129.413 151.459C133.792 152.286 138.689 150.721 141.49 149.57Z" fill="#F5F5F5"/>
<path d="M39.8475 114.346C39.8475 114.346 36.5815 115.967 32.3158 118.494C27.1154 121.596 16.3947 127.682 9.547 122.861L3.27808 110.542C3.27808 110.542 7.32515 112.391 13.4281 111.596C18.8876 110.883 23.2585 108 25.2254 106.674C26.0348 106.135 27.0708 105.409 27.8924 104.914C29.2724 104.103 30.9196 102.887 33.3276 101.703L39.8475 114.346Z" fill="#668141"/>
<path d="M17.4024 117.366C16.9492 114.767 18.7946 112.273 21.5264 111.791C24.2582 111.308 26.8402 113.032 27.2935 115.631C27.7468 118.23 25.9013 120.724 23.1736 121.202C20.4458 121.681 17.8557 119.965 17.4024 117.366Z" fill="#F5F5F5"/>
<path d="M20.7171 114.556L20.3124 113.932L20.8101 113.612L21.2149 114.22C21.6753 113.948 22.2079 113.825 22.7406 113.867L22.9065 114.727C22.4885 114.686 22.0676 114.765 21.6924 114.954L22.259 115.886C22.9065 115.68 23.6593 115.481 24.1733 116.292C24.5537 116.888 24.497 117.642 23.7686 118.25L24.1733 118.871L23.6755 119.191L23.2708 118.583C22.8993 118.789 22.4811 118.895 22.0566 118.891L21.8624 118.043C22.1888 118.048 22.5121 117.98 22.8094 117.845L22.2023 116.892C21.5548 117.103 20.8142 117.297 20.3083 116.486C19.9522 115.915 20.0048 115.156 20.7171 114.556ZM21.0813 115.915C21.2068 116.109 21.4213 116.121 21.6884 116.069L21.1906 115.294C21.1012 115.367 21.041 115.47 21.0209 115.584C21.0009 115.698 21.0223 115.815 21.0813 115.915ZM22.8054 116.726L23.3153 117.516C23.4077 117.439 23.4689 117.33 23.4875 117.211C23.5061 117.092 23.4808 116.97 23.4165 116.868C23.291 116.657 23.0684 116.645 22.8054 116.709V116.726Z" fill="#668141"/>
<path d="M10.2269 122.938L10.3119 122.986C10.5143 123.108 15.3991 125.894 24.1043 121.928C27.3581 120.441 30.486 118.692 33.4571 116.697C35.3431 115.481 36.6948 114.585 38.2003 114.187L38.605 114.082L32.9594 102.481L32.6356 102.704C32.5425 102.769 23.3556 109.192 19.2559 110.85C16.0183 112.184 9.85458 114.094 5.22068 111.965L4.33032 111.56L10.2269 122.938ZM19.5109 111.475C22.4693 110.258 27.8519 106.759 30.8427 104.736C31.1315 105.187 31.5812 105.511 32.1002 105.641C32.6191 105.771 33.1681 105.699 33.6352 105.437L36.7231 111.791C36.4757 111.895 36.255 112.053 36.0777 112.255C35.9003 112.457 35.7709 112.696 35.6992 112.955C35.5732 113.456 35.6029 113.983 35.7842 114.467C34.9748 114.917 34.0925 115.477 33.0808 116.134C30.1383 118.11 27.0401 119.843 23.817 121.316C19.4381 123.307 16.0871 123.497 14.0474 123.307C13.5161 123.258 12.9887 123.172 12.469 123.051C12.3146 122.455 11.9825 121.919 11.5169 121.517C11.0513 121.114 10.4743 120.863 9.86268 120.797L6.5724 114.447C6.90831 114.423 7.3454 114.22 7.43038 113.364C11.8174 114.187 16.7103 112.626 19.5109 111.475Z" fill="#F5F5F5"/>
<path d="M140.559 116.373C140.559 116.373 146.816 109.03 159.107 113.762C159.573 113.943 160.055 114.079 160.548 114.167C161.947 114.447 163.395 114.343 164.74 113.867C167.136 112.902 170.54 111.499 170.54 111.499L181.062 117.739C181.062 117.739 176.651 120.983 172.373 121.239C168.095 121.494 163.065 117.995 158.148 119.211C155.656 119.752 153.393 121.056 151.672 122.942L140.559 116.373Z" fill="#668141"/>
<path d="M165.93 117.995C165.457 118.421 162.603 118.031 159.56 117.123C156.517 116.215 154.432 115.14 154.906 114.715C155.379 114.289 158.233 114.682 161.276 115.586C164.319 116.491 166.416 117.565 165.93 117.995Z" fill="#F5F5F5"/>
<path d="M161.697 117.184L161.891 117.387L161.252 117.249L161.062 117.046C160.476 116.912 159.898 116.747 159.329 116.551L159.455 116.373C159.902 116.531 160.358 116.667 160.819 116.778L160.531 116.474C159.771 116.267 158.913 116.024 158.666 115.765C158.484 115.57 158.82 115.513 159.799 115.704L159.609 115.497L160.248 115.639L160.434 115.838C160.928 115.955 161.43 116.097 161.843 116.243L161.733 116.397C161.357 116.272 160.993 116.166 160.665 116.085L160.96 116.397C161.713 116.6 162.559 116.839 162.802 117.099C163 117.297 162.668 117.354 161.697 117.184ZM160.293 116.235L160.046 115.976C159.726 115.923 159.641 115.943 159.702 116.004C159.885 116.109 160.085 116.181 160.293 116.219V116.235ZM161.81 116.916C161.63 116.808 161.433 116.731 161.228 116.689L161.466 116.941C161.77 116.977 161.883 116.961 161.81 116.9V116.916Z" fill="#668141"/>
<path d="M170.402 112.253L170.285 112.31C168.308 113.276 166.249 114.064 164.133 114.666C162.664 115.039 161.972 114.917 160.721 114.698L159.912 114.564C159.177 114.413 158.454 114.211 157.747 113.96C156.156 113.449 154.181 112.809 152.202 112.744H152.17C152.117 112.744 146.666 112.273 142.243 115.838L141.979 116.048L151.442 121.79L151.571 121.668C151.624 121.62 156.699 117.03 163.558 118.757C164.368 118.96 165.125 119.163 165.833 119.349C171.39 120.821 174.182 121.559 179.767 118.198L180.107 117.995L170.402 112.253ZM165.95 118.895C165.238 118.708 164.485 118.489 163.672 118.303C159.006 117.127 155.137 118.769 153.012 120.059C152.541 119.767 151.988 119.637 151.437 119.688C150.886 119.738 150.367 119.966 149.956 120.338L144.424 116.985C145.488 116.053 144.865 115.246 144.505 114.913C146.856 113.686 149.489 113.103 152.138 113.222C154.084 113.275 156.043 113.903 157.621 114.41C158.352 114.671 159.1 114.879 159.859 115.035L160.669 115.169C161.944 115.388 162.692 115.521 164.279 115.124C165.868 114.691 167.421 114.137 168.925 113.466C169.33 113.81 170.366 114.459 171.916 113.685L177.557 117.03C177.153 117.228 176.505 117.751 177.509 118.891C173.324 120.833 170.649 120.144 165.93 118.895H165.95Z" fill="#F5F5F5"/>
<path d="M45.3272 63.9444C45.3272 63.9444 45.226 54.2899 57.5979 49.7525C58.0695 49.5852 58.5236 49.372 58.9537 49.1159C60.1922 48.4045 61.2169 47.3723 61.9202 46.1275C63.0898 43.8244 64.7531 40.5238 64.7531 40.5238L76.7851 38.3018C76.7851 38.3018 75.571 43.6379 72.5276 46.6547C69.4842 49.6714 63.369 50.3486 60.4592 54.4804C58.9371 56.5297 58.0886 59.0023 58.0309 61.5561L45.3272 63.9444Z" fill="#668141"/>
<path d="M65.5263 48.455C65.4453 49.0875 63.0414 50.673 60.1518 51.9908C57.2622 53.3086 54.9836 53.8722 55.0646 53.2396C55.1455 52.6071 57.5454 51.0257 60.4351 49.7039C63.3247 48.382 65.6032 47.8224 65.5263 48.455Z" fill="#F5F5F5"/>
<path d="M61.7827 50.6283L62.062 50.6566L61.4873 50.9729L61.2161 50.9445C60.6912 51.2299 60.1507 51.4858 59.5973 51.7109V51.5081C59.9777 51.3581 60.4593 51.1392 60.8924 50.9161L60.4877 50.8756C59.7835 51.2162 58.9781 51.5974 58.622 51.5649C58.3549 51.5406 58.5693 51.273 59.4314 50.754L59.1562 50.7256L59.7309 50.4093L60.002 50.4377C60.4472 50.2025 60.9207 49.9754 61.3214 49.8132L61.3416 49.9998C60.9774 50.1538 60.6374 50.312 60.3339 50.4701L60.7588 50.5107C61.463 50.166 62.2562 49.7889 62.6083 49.8254C62.8512 49.8741 62.6367 50.1295 61.7827 50.6283ZM60.1032 50.8391L59.747 50.8026C59.4718 50.9729 59.4233 51.0459 59.5042 51.054C59.7144 51.0162 59.9168 50.9436 60.1032 50.8391ZM61.6937 50.3566C61.4873 50.3896 61.2885 50.4596 61.1069 50.5634L61.4509 50.5999C61.7139 50.4377 61.7746 50.3606 61.6937 50.3566Z" fill="#668141"/>
<path d="M65.1216 41.1927L65.073 41.3143C64.2156 43.344 63.1809 45.2938 61.981 47.1411C61.115 48.3859 60.516 48.763 59.4314 49.4118L58.7393 49.8173C58.0862 50.1834 57.4103 50.5071 56.7158 50.7864C55.1779 51.4473 53.2717 52.2664 51.7379 53.5234L51.6974 53.5558C51.6569 53.5882 47.2456 56.824 46.242 62.4237L46.1853 62.7561L57.0638 60.8747L57.0841 60.7004C57.0841 60.6314 57.8935 53.8275 64.211 50.612C64.9557 50.2363 65.6571 49.8862 66.3155 49.5618C71.4836 47.0357 74.0616 45.7341 76.0851 39.5221L76.2065 39.145L65.1216 41.1927ZM66.1172 49.1361C65.4575 49.4645 64.7573 49.8092 64.0086 50.1903C59.7187 52.3758 57.8854 56.163 57.1286 58.527C56.5819 58.6188 56.0796 58.8858 55.6972 59.2879C55.3149 59.69 55.073 60.2056 55.0079 60.7571L48.6378 61.8681C48.8321 60.4611 47.8284 60.2462 47.3428 60.2462C48.3112 57.7729 49.9138 55.5994 51.9888 53.9451C53.4903 52.7083 55.3803 51.8933 56.902 51.2364C57.6218 50.9516 58.3209 50.617 58.9943 50.2349C59.2412 50.0768 59.4719 49.9389 59.6823 49.8294C60.7872 49.1563 61.4509 48.7549 62.3736 47.4209C63.2903 46.0489 64.1021 44.6094 64.8019 43.1147C65.328 43.1147 66.5421 42.9119 67.1977 41.3062L73.6447 40.1141C73.4586 40.5439 73.325 41.3306 74.8305 41.5495C72.9648 45.7503 70.484 46.9789 66.1172 49.1361Z" fill="#F5F5F5"/>
<path d="M134.921 21.9608C134.921 21.9608 140.838 14.3256 153.319 18.4615C153.794 18.6232 154.283 18.7373 154.78 18.8021C156.191 19.0145 157.632 18.8422 158.953 18.3034C161.3 17.2248 164.619 15.6597 164.619 15.6597L175.433 21.3891C175.433 21.3891 171.179 24.8235 166.934 25.2979C162.688 25.7724 157.468 22.5042 152.627 23.9234C150.162 24.5879 147.963 26.0051 146.338 27.9782L134.921 21.9608Z" fill="#668141"/>
<path d="M160.349 22.3583C159.9 22.8084 157.031 22.5529 153.947 21.7947C150.863 21.0364 148.73 20.0592 149.183 19.6132C149.637 19.1672 152.502 19.4186 155.586 20.1768C158.67 20.9351 160.802 21.896 160.349 22.3583Z" fill="#F5F5F5"/>
<path d="M156.071 21.7418L156.274 21.9364L155.626 21.827L155.428 21.6364C154.837 21.5312 154.252 21.3959 153.676 21.2309L153.809 21.0768C154.264 21.215 154.726 21.3273 155.193 21.4134L154.89 21.1255C154.121 20.9552 153.271 20.7524 152.996 20.5051C152.801 20.3186 153.133 20.2456 154.121 20.3875L153.918 20.1929L154.566 20.3024L154.764 20.4929C155.258 20.5862 155.768 20.7038 156.185 20.8254L156.088 20.9836C155.703 20.8781 155.339 20.7889 155.003 20.7241L155.311 21.0201C156.075 21.1904 156.929 21.389 157.188 21.6323C157.379 21.8067 157.051 21.8959 156.071 21.7418ZM154.623 20.8579L154.364 20.6105C154.044 20.574 153.959 20.6105 154.02 20.6592C154.208 20.7588 154.412 20.826 154.623 20.8579ZM156.169 21.4904C155.984 21.3899 155.785 21.3214 155.578 21.2877L155.829 21.531C156.132 21.5472 156.217 21.5269 156.169 21.4904Z" fill="#668141"/>
<path d="M164.53 16.4138L164.417 16.4746C162.49 17.5365 160.472 18.4227 158.386 19.1224C156.933 19.5685 156.241 19.4793 154.979 19.3211L154.169 19.2279C153.43 19.1098 152.7 18.9418 151.984 18.7251C150.365 18.2912 148.342 17.7478 146.383 17.7803H146.334C146.278 17.7803 140.81 17.5735 136.565 21.3445L136.31 21.5715L146.023 26.8428L146.148 26.713C146.197 26.6644 151.045 21.8473 157.982 23.23C158.791 23.3962 159.564 23.5624 160.284 23.7125C165.93 24.9289 168.739 25.5452 174.158 21.8959L174.49 21.677L164.53 16.4138ZM160.394 23.2624C159.673 23.1083 158.908 22.9461 158.087 22.7799C153.372 21.827 149.588 23.6557 147.528 25.0424C147.042 24.7737 146.482 24.6703 145.933 24.7478C145.383 24.8253 144.874 25.0795 144.481 25.4723L138.815 22.3865C139.839 21.4012 139.175 20.6268 138.815 20.3105C141.094 18.9738 143.685 18.2619 146.326 18.2466C148.273 18.206 150.26 18.7413 151.858 19.1711C152.599 19.396 153.355 19.5681 154.121 19.686L154.93 19.7834C156.13 20.0197 157.37 19.9443 158.532 19.5644C160.099 19.06 161.625 18.4365 163.097 17.6992C163.502 18.0236 164.587 18.6237 166.092 17.7722L171.879 20.8417C171.475 21.0647 170.864 21.6121 171.92 22.7069C167.861 24.86 165.153 24.2842 160.394 23.2624Z" fill="#F5F5F5"/>
<path d="M182.438 181.894C182.438 181.955 144.238 182 97.1299 182C50.0219 182 11.8135 181.955 11.8135 181.894C11.8135 181.834 50.0017 181.789 97.1299 181.789C144.258 181.789 182.438 181.838 182.438 181.894Z" fill="#263238"/>
<path d="M174.522 95.3894L174.781 95.8152C175.07 96.2943 175.492 96.6789 175.995 96.9221L176.436 97.1411L176.011 97.3965C175.535 97.6883 175.152 98.1103 174.906 98.613L174.688 99.059L174.433 98.6332C174.142 98.1559 173.721 97.7718 173.219 97.5263L172.774 97.3073L173.178 97.0478C173.657 96.7582 174.04 96.3356 174.283 95.8314L174.522 95.3894Z" fill="#A7E351"/>
<path d="M51.1753 174.641L51.4222 175.046C51.7008 175.508 52.1052 175.881 52.5878 176.121L53.0208 176.336L52.6161 176.583C52.155 176.862 51.783 177.267 51.5436 177.751L51.3291 178.18L51.0822 177.775C50.8042 177.312 50.3998 176.937 49.9167 176.696L49.4836 176.486L49.8884 176.238C50.35 175.958 50.7221 175.551 50.9608 175.066L51.1753 174.641Z" fill="#A7E351"/>
<path d="M26.3546 39.6155L26.7998 40.3535C27.2977 41.1873 28.0258 41.859 28.8962 42.2876L29.6692 42.6728L28.9286 43.1188C28.0991 43.6211 27.4295 44.3496 26.9981 45.2192L26.6177 45.9937L26.1725 45.2517C25.6701 44.4214 24.9433 43.7508 24.0761 43.3175L23.2991 42.9364L24.0397 42.4903C24.8711 41.9904 25.5412 41.2612 25.9701 40.3899L26.3546 39.6155Z" fill="#A7E351"/>
<path d="M115.746 13.6606L116.192 14.3986C116.692 15.2307 117.419 15.9019 118.288 16.3328L119.065 16.718L118.324 17.164C117.493 17.664 116.823 18.3931 116.394 19.2644L116.009 20.0389L115.564 19.2968C115.064 18.4649 114.337 17.7937 113.468 17.3627L112.695 16.9815L113.435 16.5355C114.257 16.0309 114.918 15.3024 115.342 14.4351L115.746 13.6606Z" fill="#A7E351"/>
<path d="M183.304 78.7605L183.482 79.0524C183.674 79.379 183.955 79.6437 184.292 79.8147L184.595 79.9648L184.304 80.1391C183.979 80.3318 183.715 80.6131 183.543 80.9501L183.393 81.2542L183.219 80.9623C183.026 80.6375 182.745 80.3734 182.41 80.1999L182.106 80.0499L182.398 79.8756C182.721 79.6811 182.983 79.4002 183.155 79.0646L183.304 78.7605Z" fill="#A7E351"/>
<path d="M34.2706 77.0779L34.4527 77.3779C34.6556 77.7148 34.9506 77.9863 35.3026 78.1605L35.6143 78.3187L35.3148 78.4971C34.9786 78.7003 34.7075 78.9958 34.5337 79.3486L34.3759 79.6648L34.1978 79.3648C33.9935 79.0266 33.6973 78.7538 33.3438 78.5782L33.0322 78.4241L33.3317 78.2416C33.6681 78.0374 33.9402 77.7422 34.1168 77.3901L34.2706 77.0779Z" fill="#A7E351"/>
<path d="M65.1176 24.3572L65.2956 24.6572C65.4965 24.9967 65.7918 25.2701 66.1455 25.4439L66.4612 25.5979L66.1617 25.7804C65.8243 25.9834 65.5519 26.2789 65.3766 26.6319L65.2228 26.9482L65.0407 26.6441C64.8378 26.3073 64.5428 26.0357 64.1908 25.8615L63.8792 25.7074L64.1786 25.525C64.5148 25.3217 64.7859 25.0262 64.9597 24.6735L65.1176 24.3572Z" fill="#A7E351"/>
<path d="M135.326 118.052C135.326 118.49 137.937 130.034 137.937 130.034C137.937 130.034 143.372 126.328 145.436 124.588C147.5 122.849 157.5 113.587 157.5 113.587L163.478 119.13C163.478 119.13 143.647 146.16 136.625 147.782C133.019 148.617 129.017 145.884 128.244 143.958C126.512 139.652 123.841 121.304 123.841 121.304L127.73 119.576L135.326 118.052Z" fill="#FFBE9D"/>
<path d="M138.167 130.058C137.753 130.125 137.346 130.234 136.953 130.382C136.017 130.806 135.23 131.503 134.695 132.381C134.177 133.269 133.783 134.224 133.525 135.22C133.429 135.642 133.302 136.057 133.145 136.461C133.178 136.027 133.254 135.598 133.371 135.179C133.59 134.147 133.974 133.157 134.509 132.248C135.063 131.329 135.902 130.618 136.896 130.22C137.197 130.104 137.514 130.036 137.835 130.017C137.948 130.008 138.061 130.021 138.167 130.058Z" fill="#EB996E"/>
<path d="M155.91 115.055C155.91 115.055 161.377 108.924 163.579 109.103C165.78 109.281 168.957 109.755 169.836 109.605C170.951 109.527 172.071 109.527 173.187 109.605C173.187 109.605 178.913 106.495 179.97 106.739C179.97 106.739 180.953 106.69 181.293 107.246C181.293 107.246 183.47 105.867 185.041 106.727L179.33 111.507L181.074 111.288C181.074 111.288 186.202 108.576 187.821 110.441L183.952 112.525C183.952 112.525 187.19 112.476 187.655 113.786L180.443 114.95C180.443 114.95 166.74 116.073 166.023 116.373C165.307 116.673 162.381 120.428 162.381 120.428L155.91 115.055Z" fill="#FFBE9D"/>
<path d="M181.37 107.278C181.267 107.401 181.152 107.512 181.026 107.611C180.795 107.813 180.451 108.101 180.018 108.422C178.882 109.31 177.69 110.122 176.448 110.854C175.76 111.26 175.105 111.625 174.465 111.921C173.896 112.227 173.234 112.317 172.604 112.172L172.705 112.115C172.627 112.356 172.495 112.575 172.318 112.756C172.141 112.936 171.924 113.072 171.685 113.153C171.554 113.197 171.418 113.222 171.28 113.226C171.187 113.226 171.139 113.226 171.139 113.226C171.311 113.192 171.48 113.145 171.645 113.085C171.858 112.995 172.049 112.859 172.204 112.687C172.358 112.514 172.473 112.309 172.539 112.087L172.563 112.01L172.64 112.03C173.232 112.144 173.846 112.044 174.372 111.751C174.987 111.455 175.647 111.073 176.331 110.68C177.776 109.833 179.026 108.973 179.917 108.332C180.321 108.028 180.678 107.769 180.965 107.562C181.087 107.45 181.223 107.355 181.37 107.278Z" fill="#EB996E"/>
<path d="M179.33 111.596C179.115 111.841 178.857 112.043 178.569 112.192C177.898 112.601 177.159 112.887 176.388 113.036C175.934 113.129 175.497 113.141 175.125 113.214C174.792 113.28 174.471 113.394 174.17 113.551C173.893 113.728 173.572 113.822 173.243 113.823C173.538 113.706 173.824 113.571 174.101 113.417C174.405 113.229 174.737 113.092 175.085 113.012C175.489 112.93 175.894 112.91 176.347 112.821C177.401 112.576 178.408 112.163 179.33 111.596Z" fill="#EB996E"/>
<path d="M184.247 112.095C184.023 112.335 183.762 112.538 183.474 112.695C182.124 113.541 180.574 114.011 178.982 114.058C178.655 114.088 178.325 114.064 178.007 113.985C179.1 113.918 180.185 113.743 181.244 113.462C182.289 113.109 183.295 112.651 184.247 112.095Z" fill="#EB996E"/>
<path d="M73.9845 150.746C68.0717 159.97 61.2079 171.518 57.0232 181.895H128.252L119.753 150.746H73.9845Z" fill="black"/>
<path d="M29.8755 117.03C29.8755 117.03 34.9101 124.422 36.6179 126.356C38.3258 128.29 45.5215 138.626 49.265 142.77C53.0086 146.914 57.0921 149.217 59.7348 149.217C62.4464 149.217 65.1903 148.288 67.3433 143.224C70.4474 135.925 73.0659 114.435 73.0659 114.435L60.9247 109.975L56.5093 132.231C55.3276 131.043 36.6179 113.579 36.6179 113.579L32.3321 115.355L29.8755 117.03Z" fill="#FFBE9D"/>
<path d="M14.274 107.927C14.274 107.927 14.5613 107.412 16.1599 107.639C17.7585 107.866 20.5591 109.528 21.1905 109.528C21.8218 109.528 28.8475 109.76 30.2195 110.1C31.5915 110.441 33.7202 110.652 34.9789 111.969L37.0024 113.774L30.2033 117.52C29.9478 117.184 29.6204 116.909 29.2451 116.715C28.8698 116.521 28.456 116.414 28.0341 116.401C26.4921 116.284 19.4057 115.943 19.4057 115.943L13.9179 114.682L6.96094 111.304C7.1223 110.927 7.41107 110.619 7.77662 110.433C8.14218 110.248 8.56119 110.198 8.96019 110.291C10.3888 110.635 13.0761 111.609 13.0761 111.609L15.4153 112.318L9.24349 109.358C9.64322 108.948 10.151 108.66 10.7078 108.528C11.2645 108.396 11.8472 108.425 12.3881 108.612C14.3307 109.245 17.6493 110.733 17.6493 110.733L18.1066 110.558L14.274 107.927Z" fill="#FFBE9D"/>
<path d="M21.9878 111.994C21.273 112.046 20.5559 111.928 19.8955 111.649C19.2127 111.435 18.592 111.057 18.0864 110.55C18.1228 110.501 18.8958 111.061 19.9683 111.454C21.0408 111.848 21.9919 111.913 21.9878 111.994Z" fill="#EB996E"/>
<path d="M20.6968 113.766C20.3987 113.836 20.0915 113.859 19.7862 113.835C19.0475 113.813 18.3151 113.692 17.6089 113.474C16.9028 113.253 16.2291 112.94 15.6056 112.541C15.3395 112.39 15.0991 112.197 14.8933 111.969C15.7714 112.499 16.7018 112.937 17.6696 113.275C18.6586 113.545 19.6733 113.71 20.6968 113.766Z" fill="#EB996E"/>
<path d="M8.46248 112.038C8.22154 112.155 8.01991 112.339 7.88252 112.569C7.74514 112.799 7.67803 113.064 7.68949 113.332C10.0062 114.095 12.3877 114.645 14.8043 114.974" fill="#EB996E"/>
<path d="M60.7951 141.586C60.7546 141.586 60.8355 140.969 60.7748 139.984C60.7355 139.408 60.6503 138.836 60.5199 138.273C60.1947 136.893 59.5975 135.591 58.7634 134.445C58.4237 133.979 58.046 133.543 57.6343 133.14C56.9261 132.45 56.4202 132.11 56.4202 132.077C56.5526 132.135 56.6776 132.208 56.7925 132.296C56.9325 132.389 57.0676 132.489 57.1972 132.596C57.3762 132.731 57.5478 132.876 57.7112 133.03C58.1444 133.428 58.5413 133.863 58.897 134.332C59.769 135.487 60.3857 136.816 60.706 138.228C60.8304 138.803 60.9021 139.388 60.9205 139.976C60.9205 140.227 60.9205 140.454 60.9205 140.653C60.9165 140.823 60.9016 140.992 60.876 141.16C60.8682 141.305 60.8409 141.448 60.7951 141.586Z" fill="#EB996E"/>
<path d="M72.4062 88.3947C70.7266 89.4327 66.8455 92.5792 62.8267 101.094C57.4846 112.423 56.0964 119.491 56.0964 119.491L70.3057 124.572L74.6118 87.3242C74.6118 87.3242 72.9606 88.0541 72.4062 88.3947Z" fill="#28A8DF"/>
<path d="M69.3184 100.263C69.3184 100.263 69.6543 112.278 69.6543 115.546C69.6543 118.814 71.1153 143.354 71.1153 143.354C71.1153 143.354 71.1153 151.435 76.1215 151.309C81.1277 151.184 89.6873 152.153 93.0707 152.153C95.5677 152.153 109.761 152.319 117.232 151.65C120.777 151.334 122.137 149.602 123.229 146.784L123.379 146.403C125.52 141.132 123.865 118.575 123.865 118.575L121.214 98.1832L115.172 86.1445L80.9739 86.0391C70.0145 86.8014 69.9902 91.3063 69.3184 100.263Z" fill="#28A8DF"/>
<path d="M129.474 96.0098C123.84 86.6392 115.172 86.1526 115.172 86.1526L120.287 128.392L124.334 127.264C124.634 127.163 139.511 121.223 139.511 121.223C139.511 121.223 132.938 101.776 129.474 96.0098Z" fill="#28A8DF"/>
<path d="M119.437 99.0386C119.458 99.0626 119.474 99.09 119.486 99.1197L119.615 99.3711C119.721 99.5941 119.891 99.9144 120.077 100.348C120.623 101.555 121.106 102.789 121.526 104.046C122.885 108.207 123.762 112.51 124.14 116.872C124.518 121.226 124.653 125.599 124.545 129.969C124.516 131.643 124.48 133.002 124.448 133.938C124.427 134.392 124.415 134.749 124.403 135.017C124.403 135.13 124.403 135.22 124.403 135.297C124.403 135.374 124.403 135.394 124.403 135.39C124.397 135.359 124.397 135.327 124.403 135.297V133.934C124.403 132.981 124.423 131.627 124.439 129.969C124.505 125.605 124.353 121.24 123.982 116.892C123.603 112.546 122.749 108.255 121.437 104.095C120.918 102.501 120.425 101.257 120.056 100.381C119.882 99.9468 119.725 99.6184 119.627 99.3873L119.522 99.1318C119.489 99.1061 119.46 99.0745 119.437 99.0386Z" fill="#263238"/>
<g opacity="0.3">
<path opacity="0.3" d="M94.5559 126.936C96.3569 125.131 98.5533 123.771 100.971 122.966C104.168 121.928 113.638 119.949 116.147 119.029C118.919 118.006 121.445 116.411 123.561 114.345L134.679 123.493C132.747 125.226 130.627 126.734 128.357 127.99C124.779 129.916 115.961 129.928 111.21 132.779C108.138 134.628 104.156 140.045 104.156 140.045L94.5559 126.936Z" fill="black"/>
</g>
<g opacity="0.3">
<path opacity="0.3" d="M109.858 176.441C107.32 176.236 104.864 175.44 102.687 174.117C99.8253 172.349 92.1844 166.413 89.8573 165.087C87.2396 163.621 84.415 162.562 81.4799 161.945L81.2371 148.057C83.8074 148.408 86.3299 149.048 88.7565 149.967C92.5365 151.447 98.2591 158.17 103.508 159.946C106.904 161.097 113.598 160.623 113.598 160.623L109.858 176.441Z" fill="black"/>
</g>
<g opacity="0.3">
<path opacity="0.3" d="M60.1516 106.796C62.9846 107.753 66.5743 106.127 68.3915 103.746C70.2086 101.366 71.9812 98.3129 72.4143 95.3489C70.3381 95.3489 67.5213 95.503 65.4452 95.4989L60.1516 106.796Z" fill="black"/>
</g>
<path d="M70.0144 110.06C70.0303 110.17 70.0384 110.281 70.0387 110.392L70.0751 111.353C70.0994 112.205 70.1318 113.401 70.1722 114.873C70.2491 117.865 70.3584 121.964 70.4798 126.49C70.6012 131.015 70.755 135.134 70.8845 138.107C70.9533 139.575 71.01 140.771 71.0545 141.622C71.0545 142.028 71.0869 142.34 71.099 142.579C71.1095 142.691 71.1095 142.804 71.099 142.916C71.0757 142.806 71.0608 142.695 71.0545 142.583C71.0545 142.344 71.0059 142.028 70.9695 141.626C70.8966 140.815 70.8238 139.599 70.7348 138.111C70.5648 135.143 70.3989 131.035 70.2653 126.498C70.1318 121.96 70.0549 117.849 70.0184 114.877C70.0184 113.405 69.9942 112.205 69.9861 111.353C69.9861 110.948 69.9861 110.631 69.9861 110.396C69.9833 110.283 69.9928 110.17 70.0144 110.06Z" fill="#263238"/>
<g opacity="0.3">
<path opacity="0.3" d="M70.3787 135.195C66.6837 126.826 67.2341 117.516 69.9983 108.794C70.403 117.289 70.5891 126.692 70.3787 135.195Z" fill="black"/>
</g>
<path d="M114.504 46.022C114.036 44.5087 113.272 43.1037 112.257 41.889C111.242 40.6743 109.996 39.674 108.591 38.9463C105.499 37.369 101.821 37.2352 98.4412 38.0137C95.0619 38.7923 91.9416 40.4223 88.9913 42.247C87.336 43.2728 85.6888 44.3919 84.5395 45.949C82.4107 48.7874 80.3548 53.4301 80.2455 56.9862C80.1565 59.861 81.4597 67.0137 82.7426 69.5845C83.1999 70.5008 84.2683 71.3118 85.5755 71.993C86.9581 74.5369 88.7806 76.8146 90.9581 78.7199C91.5706 76.7736 92.1804 74.8273 92.7874 72.881L114.504 46.022Z" fill="#263238"/>
<path d="M112.755 42.531L107.09 41.6794C110.384 48.9578 111.699 65.769 113.686 73.5097C115.682 70.424 120.251 61.0695 119.89 57.4121C119.53 53.7547 119.445 41.7159 112.755 42.531Z" fill="#263238"/>
<path d="M86.3402 55.551C86.5183 51.2367 89.1975 47.6319 93.3376 46.4439L106.244 42.7499C111.845 41.9836 115.795 48.7997 116.325 54.44C116.912 60.7046 117.353 67.3221 116.754 72.0257C115.54 81.4936 108.381 82.9128 108.381 82.9128C108.381 82.9128 108.506 87.3731 108.583 90.1466L100.926 106.143L89.0356 86.9757L86.3281 55.6686C86.2998 55.5064 86.3281 55.7699 86.3402 55.551Z" fill="#FFBE9D"/>
<path d="M112.723 61.3615C112.734 61.6754 112.622 61.9812 112.412 62.2148C112.203 62.4483 111.911 62.5915 111.598 62.6144C111.445 62.6312 111.291 62.6171 111.143 62.5732C110.996 62.5292 110.859 62.4561 110.74 62.3583C110.621 62.2604 110.523 62.1398 110.452 62.0034C110.38 61.867 110.337 61.7177 110.323 61.5642C110.313 61.2502 110.425 60.9444 110.634 60.7109C110.844 60.4773 111.136 60.3341 111.448 60.3113C111.601 60.2939 111.756 60.3075 111.904 60.3513C112.052 60.395 112.189 60.4681 112.308 60.566C112.427 60.664 112.525 60.7848 112.596 60.9215C112.667 61.0581 112.711 61.2077 112.723 61.3615Z" fill="#263238"/>
<path d="M115.018 58.1744C114.872 58.3365 113.937 57.6878 112.642 57.7283C111.347 57.7689 110.412 58.4541 110.267 58.296C110.198 58.2311 110.34 57.9392 110.744 57.627C111.294 57.2193 111.955 56.9914 112.638 56.9741C113.313 56.9519 113.978 57.145 114.536 57.5256C114.937 57.8216 115.091 58.1014 115.018 58.1744Z" fill="#263238"/>
<path d="M101.521 61.3615C101.531 61.6754 101.42 61.9812 101.21 62.2148C101 62.4483 100.709 62.5915 100.396 62.6144C100.243 62.6312 100.088 62.6171 99.9409 62.5732C99.7936 62.5292 99.6565 62.4561 99.5377 62.3583C99.4189 62.2604 99.3209 62.1398 99.2493 62.0034C99.1777 61.867 99.1341 61.7177 99.121 61.5642C99.1108 61.2502 99.2222 60.9444 99.4319 60.7109C99.6416 60.4773 99.9334 60.3341 100.246 60.3113C100.399 60.2939 100.554 60.3075 100.702 60.3513C100.849 60.395 100.986 60.4681 101.105 60.566C101.224 60.664 101.322 60.7848 101.394 60.9215C101.465 61.0581 101.508 61.2077 101.521 61.3615Z" fill="#263238"/>
<path d="M102.699 58.5271C102.553 58.6893 101.618 58.0406 100.319 58.0811C99.0197 58.1217 98.093 58.8069 97.9473 58.6488C97.8744 58.5839 98.0161 58.292 98.4248 57.9797C98.9735 57.5709 99.6353 57.3428 100.319 57.3269C100.994 57.3047 101.658 57.4978 102.217 57.8784C102.622 58.1703 102.767 58.4541 102.699 58.5271Z" fill="#263238"/>
<path d="M107.045 68.6194C107.045 68.5464 107.855 68.3802 109.138 68.1734C109.469 68.1288 109.781 68.0518 109.83 67.8247C109.849 67.4808 109.762 67.1392 109.579 66.8475L108.522 64.3497C107.049 60.7937 105.973 57.862 106.118 57.8093C106.264 57.7566 107.571 60.5869 109.04 64.1429C109.397 65.0188 109.737 65.8541 110.056 66.6569C110.278 67.0492 110.354 67.5074 110.271 67.9504C110.228 68.0699 110.158 68.1777 110.065 68.2651C109.973 68.3524 109.862 68.4168 109.741 68.4532C109.558 68.5094 109.369 68.5421 109.178 68.5505C107.867 68.66 107.049 68.6924 107.045 68.6194Z" fill="#263238"/>
<path d="M95.8186 79.9202C95.8186 79.9202 99.0563 86.3024 108.441 85.1306L108.381 82.9167C103.997 83.1027 99.6482 82.0653 95.8186 79.9202Z" fill="#EB996E"/>
<path d="M102.156 53.8397C102.039 54.1965 100.74 54.0708 99.2221 54.3019C97.7045 54.5331 96.4863 54.9831 96.2759 54.675C96.1787 54.525 96.3851 54.1844 96.8708 53.8275C97.5203 53.3875 98.2614 53.1018 99.0378 52.9922C99.8142 52.8825 100.605 52.9519 101.351 53.195C101.917 53.4018 102.205 53.6694 102.156 53.8397Z" fill="#263238"/>
<path d="M114.48 54.2087C114.261 54.5128 113.359 54.233 112.286 54.2533C111.214 54.2736 110.307 54.5128 110.085 54.2087C109.992 54.0627 110.125 53.7627 110.514 53.4707C111.037 53.1191 111.654 52.9314 112.284 52.9314C112.915 52.9314 113.531 53.1191 114.055 53.4707C114.443 53.7627 114.577 54.0627 114.48 54.2087Z" fill="#263238"/>
<path d="M113.525 45.9127C112.909 44.5138 111.335 43.7069 109.805 43.6704C108.275 43.6339 106.806 44.2584 105.507 45.0612C99.9992 48.4632 97.3443 56.3782 91.9091 59.8937C90.5695 60.7574 88.7766 60.0518 87.6515 61.1791C86.5265 62.3063 85.8263 64.0702 86.5062 65.5096C85.681 64.5482 84.9994 63.472 84.4827 62.3144C84.2293 61.7332 84.1026 61.1045 84.111 60.4703C84.1194 59.8361 84.2626 59.211 84.5312 58.6367C84.9886 57.7933 85.8142 57.1364 86.0206 56.2038C86.2027 55.3929 85.8546 54.5333 85.8668 53.6899C85.942 52.8264 86.2193 51.9929 86.6762 51.257C88.7321 47.3562 91.6136 43.7961 95.3936 41.5254C97.8557 40.0009 100.687 39.1792 103.581 39.1493C106.488 39.1354 109.305 40.1637 111.521 42.0485C112.792 43.1676 114.128 44.3273 113.545 45.9127" fill="#263238"/>
<path d="M87.8215 62.3387C87.7163 62.0751 82.7586 60.441 82.8436 65.6636C82.9246 70.7403 88.0077 69.5968 88.0117 69.4508C88.0158 69.3049 87.8215 62.3387 87.8215 62.3387Z" fill="#FFBE9D"/>
<path d="M86.4133 67.5571C86.389 67.5571 86.3242 67.622 86.1786 67.6909C85.9705 67.7852 85.7342 67.7953 85.5189 67.7193C84.9806 67.5328 84.5112 66.6894 84.4707 65.773C84.4499 65.3386 84.5259 64.9051 84.6933 64.5038C84.7378 64.3445 84.8204 64.1985 84.9339 64.0784C85.0475 63.9583 85.1885 63.8677 85.3449 63.8145C85.4457 63.7854 85.5535 63.7926 85.6496 63.8348C85.7457 63.877 85.824 63.9516 85.871 64.0456C85.9398 64.1876 85.9114 64.2889 85.9357 64.2971C85.96 64.3052 86.045 64.2078 86.0005 64.001C85.9689 63.8755 85.8962 63.7641 85.7941 63.6848C85.6526 63.5826 85.4767 63.5404 85.3044 63.5672C85.0955 63.6106 84.9017 63.7085 84.7426 63.8508C84.5834 63.9932 84.4645 64.1751 84.3978 64.3781C84.1905 64.8213 84.0946 65.3085 84.1186 65.7973C84.1712 66.8191 84.7095 67.768 85.446 67.9667C85.5835 68.004 85.7277 68.0099 85.8678 67.9839C86.0079 67.958 86.1404 67.9008 86.2554 67.8166C86.4052 67.6788 86.4295 67.5652 86.4133 67.5571Z" fill="#EB996E"/>
<path d="M85.7334 59.7922C85.8372 59.7381 85.9372 59.6771 86.0329 59.6097C86.2231 59.484 86.5185 59.3097 86.8666 59.0461C87.8424 58.2858 88.735 57.4241 89.5296 56.4754C90.6862 55.0514 91.7604 53.5622 92.747 52.0151C93.9458 50.1281 95.2995 48.3446 96.7941 46.683C97.5916 45.8521 98.4763 45.1098 99.4328 44.4691C100.33 43.8849 101.295 43.4124 102.306 43.0621C104.021 42.4545 105.835 42.1793 107.652 42.2511C108.878 42.2903 110.093 42.4921 111.266 42.8512C111.671 42.9688 111.995 43.0986 112.213 43.1756C112.322 43.222 112.434 43.2573 112.549 43.281C112.446 43.2238 112.339 43.1737 112.23 43.131C111.924 42.9911 111.611 42.8692 111.291 42.7661C110.115 42.3682 108.888 42.1389 107.648 42.0849C105.808 41.9935 103.967 42.2564 102.225 42.8593C101.195 43.2125 100.211 43.689 99.2952 44.2785C98.3237 44.9265 97.4254 45.6784 96.616 46.5208C95.1145 48.1925 93.7604 49.9915 92.5689 51.8975C91.591 53.4386 90.5333 54.9274 89.4 56.3578C88.623 57.309 87.7541 58.181 86.8059 58.961C86.47 59.2367 86.1826 59.4191 85.9965 59.5611C85.9005 59.6281 85.8123 59.7056 85.7334 59.7922Z" fill="#28A8DF"/>
<path d="M85.8628 68.4695C85.6126 68.4303 85.3569 68.488 85.1476 68.631C84.9384 68.774 84.7915 68.9915 84.7367 69.2393C84.6819 69.487 84.7235 69.7464 84.8528 69.9646C84.9822 70.1827 85.1897 70.3432 85.4331 70.4135C85.6764 70.4838 85.9374 70.4584 86.1628 70.3427C86.3882 70.227 86.5611 70.0295 86.6463 69.7906C86.7315 69.5516 86.7226 69.2891 86.6214 69.0565C86.5202 68.8239 86.3343 68.6386 86.1016 68.5385" fill="white"/>
<path d="M86.1015 68.5262C86.3242 68.6952 86.4895 68.9288 86.575 69.1953C86.6162 69.3342 86.6219 69.4813 86.5915 69.6231C86.5611 69.7648 86.4956 69.8966 86.401 70.0062C86.2914 70.1424 86.1441 70.2431 85.9777 70.2957C85.8112 70.3483 85.6329 70.3505 85.4652 70.302C85.2975 70.2535 85.1478 70.1565 85.0349 70.0231C84.922 69.8896 84.851 69.7258 84.8307 69.5521C84.8091 69.4103 84.8229 69.2653 84.871 69.1301C84.919 68.995 84.9997 68.8739 85.1059 68.7776C85.3206 68.5988 85.5846 68.4899 85.8627 68.4654C85.8627 68.4654 85.7818 68.4167 85.6239 68.4167C85.3943 68.4251 85.1738 68.5092 84.9966 68.656C84.8593 68.7651 84.7524 68.9079 84.6865 69.0706C84.6205 69.2333 84.5977 69.4104 84.6203 69.5845C84.6422 69.8014 84.7284 70.0066 84.8679 70.1739C85.0073 70.3411 85.1935 70.4627 85.4026 70.5229C85.6116 70.5831 85.8339 70.5792 86.0407 70.5117C86.2475 70.4442 86.4294 70.3161 86.5629 70.1441C86.6734 70.0076 86.7471 69.8449 86.7769 69.6717C86.8067 69.4984 86.7915 69.3204 86.7328 69.1547C86.66 68.9367 86.5179 68.7487 86.3281 68.6195C86.2027 68.5262 86.1055 68.5262 86.1015 68.5262Z" fill="#263238"/>
<path d="M87.0445 61.1912C87.0081 62.5779 86.9838 64.0296 87.6597 65.246C88.3355 66.4625 89.9665 67.2531 91.1523 66.5314C92.1155 65.9394 92.3664 64.6743 92.5081 63.547C92.9128 60.3032 93.022 57.031 93.4389 53.7871L87.0445 61.1912Z" fill="#263238"/>
<path d="M112.209 43.5365C112.209 43.5649 111.76 43.4635 110.947 43.4594C109.801 43.4738 108.669 43.7149 107.616 44.169C106.887 44.4756 106.192 44.8589 105.544 45.3125C104.804 45.8425 104.098 46.4166 103.427 47.0317C101.874 48.4297 100.494 50.0088 99.3153 51.7353C98.7001 52.6557 98.1578 53.6046 97.5629 54.4844C97.0017 55.3394 96.343 56.1259 95.6001 56.8281C94.3182 57.9828 92.9087 58.9868 91.3992 59.8206C90.1244 60.5423 89.0559 61.037 88.3194 61.406L87.4614 61.8115C87.3636 61.8622 87.2604 61.9016 87.1538 61.9291C87.2411 61.8612 87.3362 61.804 87.4371 61.7588L88.2465 61.3168C88.9709 60.9316 90.0232 60.3923 91.2818 59.6503C92.7599 58.8035 94.1402 57.7959 95.3977 56.6457C96.1233 55.9524 96.7657 55.1768 97.312 54.3344C97.8947 53.4667 98.4371 52.5179 99.0603 51.5812C100.252 49.8368 101.653 48.2461 103.233 46.8452C103.915 46.2274 104.636 45.6532 105.39 45.126C106.056 44.6715 106.77 44.2908 107.519 43.9906C108.6 43.5445 109.762 43.329 110.93 43.3581C111.246 43.3675 111.56 43.4028 111.869 43.4635C111.986 43.4697 112.1 43.4943 112.209 43.5365Z" fill="#28A8DF"/>
<path d="M86.8179 58.0608C86.6847 58.1844 86.5365 58.2906 86.3768 58.377L85.1181 59.1677L84.7134 59.4272C84.5464 59.5323 84.3586 59.6001 84.163 59.6259C84.0439 59.6418 83.9229 59.6175 83.819 59.557C83.7632 59.5201 83.7163 59.471 83.682 59.4134C83.6476 59.3559 83.6267 59.2913 83.6207 59.2245C83.6242 58.9919 83.7006 58.7663 83.8393 58.5798L85.2598 56.1469L85.4662 56.3294C84.9799 56.707 84.4323 56.9978 83.8474 57.189C83.2659 57.3828 82.6548 57.472 82.0424 57.4525C81.8847 57.4564 81.7275 57.4344 81.5769 57.3877C81.4892 57.3655 81.4075 57.3242 81.3375 57.2667C81.2676 57.2092 81.2111 57.137 81.1722 57.0552C81.1406 56.9703 81.1303 56.8789 81.1423 56.7891C81.1543 56.6992 81.1882 56.6138 81.241 56.5402C81.3249 56.4245 81.4183 56.316 81.5203 56.2158C82.1696 55.5484 82.7288 54.7987 83.1836 53.9857C83.5811 53.2208 83.9259 52.4297 84.2156 51.6177C84.1992 51.8527 84.1516 52.0846 84.074 52.307C83.8974 52.9217 83.6587 53.5168 83.3617 54.083C82.9211 54.9277 82.3653 55.7069 81.7105 56.3983C81.5284 56.5848 81.3463 56.8038 81.4232 56.9538C81.5001 57.1038 81.7793 57.1809 82.0424 57.1768C83.2111 57.1996 84.3528 56.8236 85.28 56.1104L85.8709 55.6482L85.4864 56.2888L84.0335 58.7217C83.9203 58.8669 83.8502 59.0412 83.8312 59.2245C83.8353 59.2587 83.8467 59.2916 83.8645 59.3211C83.8823 59.3506 83.9061 59.3759 83.9344 59.3955C83.9627 59.415 83.9949 59.4283 84.0287 59.4345C84.0625 59.4407 84.0973 59.4396 84.1307 59.4313C84.4535 59.3556 84.7586 59.2179 85.0291 59.0258L86.3323 58.3081C86.4823 58.2041 86.6456 58.1209 86.8179 58.0608Z" fill="#28A8DF"/>
<path d="M102.177 71.1579C102.26 70.7691 102.477 70.422 102.79 70.1774C103.103 69.9328 103.492 69.8062 103.889 69.8198C104.178 69.8478 104.457 69.9473 104.699 70.1093C104.941 70.2713 105.14 70.4909 105.277 70.7484C105.411 71.0078 105.491 71.2917 105.512 71.583C105.534 71.8743 105.496 72.1669 105.402 72.4433L105.382 72.569C105.12 72.8679 104.772 73.0786 104.386 73.1722C104 73.2658 103.594 73.2378 103.225 73.0921C102.862 72.9301 102.563 72.6528 102.373 72.3031C102.184 71.9535 102.115 71.5509 102.177 71.1579Z" fill="#EB996E"/>
<path d="M104.415 72.9864C104.415 72.9864 104.362 73.1202 104.156 73.2419C103.854 73.4113 103.502 73.4647 103.164 73.3919C102.911 73.334 102.675 73.2193 102.473 73.0563C102.271 72.8933 102.109 72.6864 101.999 72.4512C101.863 72.1664 101.79 71.8558 101.784 71.5404C101.779 71.2249 101.841 70.9119 101.966 70.6225C102.085 70.3164 102.269 70.0397 102.504 69.8115C102.629 69.6984 102.777 69.6157 102.939 69.57C103.1 69.5243 103.27 69.5167 103.435 69.548C103.908 69.692 104.344 69.9368 104.714 70.2656C105.35 70.7482 105.726 71.0766 105.69 71.1212C105.653 71.1658 105.224 70.9347 104.544 70.513C104.193 70.2491 103.797 70.0525 103.375 69.9332C103.268 69.9151 103.158 69.9226 103.055 69.955C102.951 69.9874 102.857 70.0439 102.78 70.1197C102.601 70.3115 102.463 70.5378 102.375 70.7847C102.274 71.0218 102.222 71.277 102.222 71.5348C102.222 71.7926 102.274 72.0478 102.375 72.2849C102.507 72.6167 102.761 72.8854 103.085 73.0361C103.408 73.1868 103.777 73.2082 104.115 73.0959C104.281 73.0472 104.382 72.9864 104.415 72.9864Z" fill="#263238"/>
<path d="M135.5 63.4497C137.93 64.4764 140.086 66.058 141.797 68.0681C144.036 70.7362 149.62 79.0688 151.482 81.1246C153.543 83.3907 156.056 85.1965 158.86 86.4243L154.432 100.677C152.02 99.495 149.749 98.0436 147.662 96.3504C144.424 93.6621 140.976 85.1916 136.395 81.7531C133.428 79.5149 126.682 77.7997 126.682 77.7997L135.5 63.4497Z" fill="#A7E351"/>
<path d="M157.998 86.8499C157.957 86.8216 153.546 84.3197 151.676 82.2396C150.353 80.7758 148.313 77.9942 146.338 75.3019C144.841 73.2744 143.428 71.3363 142.368 70.0306C138.968 65.8542 136.261 65.0067 136.148 64.9743L135.885 64.8972L128.171 76.9238L128.657 77.0495C128.705 77.0495 133.671 78.4119 136.014 80.1271C139.13 82.4099 140.935 85.4429 142.68 88.3786C143.926 90.479 145.108 92.4618 146.727 94.1972C148.167 95.7421 149.779 97.1175 151.531 98.2967C152.226 98.7766 152.955 99.2048 153.712 99.578L154.092 99.7523L157.998 86.8499ZM136.443 79.5513C135.051 78.5335 132.857 77.6617 131.182 77.086C131.455 76.7292 131.59 76.2857 131.562 75.8371C131.372 75.1072 130.753 74.9531 130.122 75.2532L135.132 67.4396L135.168 67.5045C135.941 68.5871 137.455 67.6545 137.556 66.5354L137.637 66.5881C139.214 67.6782 140.618 69 141.801 70.5091C142.854 71.7985 144.262 73.7205 145.751 75.7519L146.265 76.4534C145.124 75.9263 143.615 76.1777 142.198 78.1727C140.887 80.0176 140.701 82.5113 141.045 84.4211C139.799 82.5421 138.243 80.8897 136.443 79.5351V79.5513ZM147.257 93.7147C145.691 92.036 144.533 90.0654 143.307 88.038C143.19 87.8434 143.072 87.6325 142.959 87.4541C143.782 87.6993 144.662 87.6684 145.466 87.3661C146.269 87.0637 146.952 86.5066 147.411 85.7795C148.358 84.1859 149.264 81.899 148.625 79.604C149.588 80.8772 150.47 81.9923 151.166 82.7627C152.486 84.2265 154.764 85.9619 156.136 86.9554C156.031 86.985 155.934 87.0355 155.849 87.1038C155.764 87.1721 155.694 87.2569 155.642 87.3531C155.591 87.4492 155.56 87.5548 155.55 87.6634C155.54 87.772 155.552 87.8815 155.586 87.9853C155.675 88.4394 156.092 88.9909 156.606 88.8814L156.67 88.8571L154.044 97.5303C153.639 96.3139 152.3 96.8775 152.51 98.0736C150.578 96.8481 148.813 95.3775 147.257 93.6985V93.7147Z" fill="white"/>
<path d="M143.813 84.6361L143.347 85.3822L142.757 85.0091L143.21 84.2874C142.689 83.9302 142.289 83.4224 142.064 82.8317L142.898 82.2235C143.066 82.6929 143.362 83.1058 143.752 83.4156L144.444 82.3046C143.902 81.7125 143.319 81.007 143.914 80.0541C144.351 79.3486 145.185 79.0283 146.197 79.4946L146.658 78.7566L147.249 79.1256L146.795 79.8514C147.207 80.148 147.534 80.5479 147.743 81.0111L146.933 81.6436C146.773 81.2929 146.538 80.9815 146.245 80.7313L145.537 81.8626C146.087 82.4465 146.658 83.1439 146.071 84.0806C145.642 84.7739 144.821 85.0902 143.813 84.6361ZM145.071 83.5656C145.217 83.3345 145.124 83.0993 144.934 82.8398L144.359 83.7562C144.48 83.8183 144.62 83.8332 144.752 83.798C144.883 83.7628 144.997 83.68 145.071 83.5656ZM145.071 81.3233L145.658 80.3785C145.529 80.3188 145.382 80.3081 145.245 80.3483C145.108 80.3886 144.99 80.4771 144.914 80.5975C144.756 80.8327 144.853 81.0678 145.055 81.3233H145.071Z" fill="#A7E351"/>
<path d="M95.1062 120.894C96.9671 119.023 99.2385 117.614 101.739 116.778C105.05 115.704 114.856 113.656 117.454 112.703C120.33 111.64 122.949 109.982 125.144 107.838L136.658 117.314C134.657 119.108 132.46 120.669 130.109 121.969C126.406 123.964 117.276 123.976 112.355 126.932C109.17 128.842 105.07 134.449 105.07 134.449L95.1062 120.894Z" fill="#A7E351"/>
<path d="M125.204 108.811C125.164 108.839 121.19 111.986 118.559 112.947C116.71 113.624 113.367 114.471 110.137 115.29C107.689 115.911 105.374 116.507 103.767 116.993C98.6272 118.579 96.8262 120.772 96.7493 120.866L96.5793 121.081L104.819 132.763L105.123 132.357C105.151 132.317 108.267 128.209 110.732 126.68C114.018 124.653 117.503 124.114 120.874 123.599C123.282 123.23 125.56 122.885 127.778 122.034C129.748 121.276 131.625 120.298 133.375 119.118C134.079 118.651 134.748 118.135 135.379 117.573L135.686 117.285L125.204 108.811ZM110.327 126.068C108.862 126.976 107.231 128.687 106.07 130.026C105.84 129.643 105.481 129.355 105.058 129.215C104.309 129.117 103.937 129.62 103.973 130.334L98.6353 122.743H98.7081C100.003 122.435 99.7037 120.675 98.7081 120.164L98.7891 120.107C100.39 119.054 102.141 118.249 103.981 117.719C105.572 117.229 107.875 116.641 110.315 116.024L111.157 115.809C110.238 116.669 109.906 118.165 111.218 120.233C112.432 122.147 114.666 123.254 116.56 123.651C114.361 124.1 112.254 124.917 110.327 126.068ZM127.483 121.36C125.342 122.171 123.1 122.524 120.732 122.885L120.06 122.986C120.596 122.318 120.9 121.492 120.924 120.635C120.949 119.778 120.694 118.937 120.198 118.238C119.081 116.762 117.308 115.059 114.937 114.804C116.475 114.398 117.843 113.993 118.814 113.632C120.663 112.959 123.124 111.495 124.561 110.595C124.548 110.704 124.557 110.814 124.588 110.919C124.619 111.024 124.671 111.122 124.74 111.206C124.81 111.291 124.896 111.36 124.993 111.411C125.09 111.461 125.196 111.491 125.305 111.499C125.759 111.584 126.427 111.402 126.52 110.887C126.522 110.863 126.522 110.838 126.52 110.814L133.553 116.519C132.275 116.454 132.299 117.889 133.481 118.141C131.626 119.465 129.61 120.547 127.483 121.36Z" fill="white"/>
<path d="M117.827 121.178L118.341 121.887L117.774 122.293L117.276 121.6C116.75 121.948 116.13 122.126 115.5 122.11L115.253 121.109C115.749 121.132 116.242 121.012 116.673 120.764L115.908 119.706C115.156 119.99 114.29 120.261 113.63 119.353C113.14 118.68 113.16 117.784 113.97 117.022L113.46 116.316L114.026 115.911L114.524 116.604C114.955 116.335 115.446 116.182 115.953 116.158L116.236 117.147C115.851 117.165 115.474 117.266 115.131 117.443L115.912 118.522C116.657 118.234 117.531 117.97 118.167 118.863C118.644 119.528 118.628 120.428 117.827 121.178ZM115.233 118.777L114.581 117.877C114.475 117.974 114.409 118.106 114.394 118.249C114.379 118.392 114.417 118.535 114.5 118.652C114.662 118.871 114.937 118.871 115.233 118.777ZM117.309 119.588C117.151 119.365 116.904 119.365 116.588 119.446L117.22 120.322C117.315 120.234 117.377 120.115 117.393 119.986C117.409 119.857 117.379 119.726 117.309 119.617V119.588Z" fill="#A7E351"/>
<path d="M96.1544 4.0549L82.3741 2.20996L80.9415 2.35999C78.4485 2.70059 76.4573 3.30476 73.4908 6.45129C70.6012 9.51267 69.3911 17.3344 69.3911 17.3344C69.3911 17.3344 72.8149 15.5665 78.0883 15.6881C83.3616 15.8098 85.2799 16.7262 85.2799 16.7262C85.2799 16.7262 85.3123 11.4549 87.5706 8.81119C90.3793 5.5349 96.1544 4.0549 96.1544 4.0549Z" fill="#A7E351"/>
<path opacity="0.2" d="M96.1544 4.0549L82.3741 2.20996L80.9415 2.35999C78.4485 2.70059 76.4573 3.30476 73.4908 6.45129C70.6012 9.51267 69.3911 17.3344 69.3911 17.3344C69.3911 17.3344 72.8149 15.5665 78.0883 15.6881C83.3616 15.8098 85.2799 16.7262 85.2799 16.7262C85.2799 16.7262 85.3123 11.4549 87.5706 8.81119C90.3793 5.5349 96.1544 4.0549 96.1544 4.0549Z" fill="black"/>
<path d="M80.9417 2.35976C80.9417 2.35976 84.1793 1.90157 89.2989 6.30914C92.581 9.12318 98.2024 17.7599 98.2024 17.7599C99.3663 16.1557 100.842 14.8041 102.541 13.7862C107.106 11.0695 109.729 10.3842 109.729 10.3842C109.729 10.3842 106.843 6.02125 102.472 4.30201C91.9335 0.101234 80.9417 2.35976 80.9417 2.35976Z" fill="#A7E351"/>
<path d="M85.2112 1.82876C85.9275 2.23424 90.1567 3.71424 93.0827 3.45068C96.0088 3.18712 96.7049 2.71676 95.5434 2.40859C93.901 1.98095 92.2136 1.7509 90.5169 1.72333C88.7478 1.65053 86.976 1.68574 85.2112 1.82876Z" fill="white"/>
<path d="M108.215 9.45179C106.265 7.39477 104.031 5.62789 101.582 4.20487C101.064 3.92509 100.509 3.65341 99.9629 3.39391C98.0814 2.81859 96.1569 2.39553 94.2079 2.12881C96.0534 2.53429 98.4493 2.72892 101.525 4.84553C103.065 5.92211 104.533 7.09778 105.92 8.3651C105.439 8.64083 105.43 9.60587 105.77 9.98702C104.505 10.4749 103.292 11.0918 102.152 11.8279C101.1 12.522 100.087 13.2732 99.117 14.0783C99.2036 13.8982 99.2373 13.6971 99.2142 13.4985C99.1008 12.8619 98.2024 12.4442 97.5953 12.6186C97.4741 12.6396 97.3611 12.6939 97.2689 12.7756C97.1767 12.8572 97.109 12.9629 97.0733 13.0808C95.3371 10.5547 92.4636 6.53638 90.8003 5.14153C89.1278 3.78059 87.267 2.67016 85.276 1.84497H85.2315C84.5192 1.88957 83.9567 1.97067 83.3982 2.02744C85.8966 2.86375 88.2264 4.13931 90.2782 5.79435C92.6215 7.76499 97.7734 15.611 97.826 15.6921L98.0891 16.0976L98.4493 15.7732C99.7631 14.5977 101.156 13.5139 102.618 12.5294C104.275 11.4537 106.092 10.6463 108 10.1371L108.705 9.97891L108.215 9.45179Z" fill="white"/>
<path d="M46.0234 101.966L58.4722 104.095L59.7795 104.01C62.0539 103.779 63.8791 103.296 66.6595 100.535C69.3791 97.8507 70.7308 90.8035 70.7308 90.8035C70.7308 90.8035 67.5701 92.2956 62.7824 92.0199C57.9947 91.7442 56.3071 90.844 56.3071 90.844C56.3071 90.844 56.1047 95.6368 53.9719 97.9561C51.313 100.823 46.0234 101.966 46.0234 101.966Z" fill="#A7E351"/>
<path opacity="0.2" d="M46.0234 101.966L58.4722 104.095L59.7795 104.01C62.0539 103.779 63.8791 103.296 66.6595 100.535C69.3791 97.8507 70.7308 90.8035 70.7308 90.8035C70.7308 90.8035 67.5701 92.2956 62.7824 92.0199C57.9947 91.7442 56.3071 90.844 56.3071 90.844C56.3071 90.844 56.1047 95.6368 53.9719 97.9561C51.313 100.823 46.0234 101.966 46.0234 101.966Z" fill="black"/>
<path d="M59.7793 104.01C59.7793 104.01 56.8371 104.322 52.3165 100.154C49.4309 97.4897 44.6271 89.4692 44.6271 89.4692C43.5119 90.8888 42.1232 92.0692 40.5436 92.9402C36.3103 95.2555 33.9104 95.7785 33.9104 95.7785C33.9104 95.7785 36.3872 99.8333 40.3007 101.549C49.7264 105.705 59.7793 104.01 59.7793 104.01Z" fill="#A7E351"/>
<path d="M55.886 104.351C55.2466 103.982 51.4585 102.481 48.7915 102.635C46.1245 102.789 45.4769 103.187 46.5251 103.503C48.0016 103.947 49.5264 104.209 51.0659 104.286C52.6698 104.406 54.2795 104.428 55.886 104.351Z" fill="white"/>
<path d="M35.2459 96.6867C36.9464 98.6181 38.916 100.294 41.0939 101.662C41.5594 101.938 42.049 102.201 42.5509 102.453C44.2475 103.039 45.9878 103.491 47.7554 103.803C46.0961 103.361 43.9269 103.122 41.2032 101.098C39.8389 100.073 38.5437 98.9579 37.3261 97.7612C37.7713 97.5261 37.8077 96.6502 37.5123 96.2934C38.6769 95.8908 39.7982 95.3719 40.8592 94.7445C41.8391 94.1478 42.7849 93.4967 43.6922 92.7941C43.6074 92.9546 43.5709 93.1363 43.5869 93.3172C43.6679 93.9011 44.4732 94.3106 45.0358 94.1687C45.1473 94.1544 45.2525 94.1087 45.3392 94.0369C45.4259 93.9651 45.4904 93.8702 45.5255 93.7632C47.0189 96.1109 49.4997 99.8454 50.9648 101.175C52.4325 102.46 54.0778 103.525 55.8496 104.338H55.8901C56.5376 104.338 57.0516 104.269 57.5615 104.233C55.3212 103.391 53.249 102.155 51.4423 100.583C49.3783 98.7182 44.967 91.4276 44.9063 91.3506L44.6796 90.9775L44.3437 91.2573C43.1175 92.2817 41.8235 93.2218 40.4707 94.0714C38.922 94.9934 37.238 95.6653 35.4806 96.0623L34.8372 96.1839L35.2459 96.6867Z" fill="white"/>
<path d="M135.241 28.4284C135.241 28.4284 138.151 26.0563 141.854 22.5164C146.371 18.2021 155.736 9.60999 163.708 12.8579L172.847 23.8059C172.847 23.8059 168.395 22.8773 162.409 25.0912C157.099 27.0659 153.384 30.9748 151.701 32.7629C151.025 33.4847 150.138 34.4619 149.426 35.1472C148.212 36.2947 146.856 37.8963 144.707 39.6075L135.241 28.4284Z" fill="#A7E351"/>
<path d="M156.97 20.4565C158.026 22.9624 156.747 25.8981 154.113 27.0091C151.478 28.1201 148.487 27.0091 147.431 24.487C146.375 21.9649 147.658 19.0495 150.288 17.9344C152.919 16.8193 155.914 17.9506 156.97 20.4565Z" fill="white"/>
<path d="M154.453 23.8058L155.003 24.3289L154.598 24.783L154.064 24.26C153.662 24.6391 153.154 24.8854 152.607 24.9655L152.247 24.1545C152.678 24.0995 153.085 23.9238 153.421 23.6477L152.611 22.8367C152.004 23.1936 151.296 23.5585 150.588 22.8732C150.07 22.3664 149.952 21.5919 150.535 20.8134L149.969 20.2741L150.393 19.8362L150.928 20.3592C151.257 20.0616 151.659 19.856 152.093 19.7632L152.498 20.5741C152.17 20.6422 151.861 20.7805 151.591 20.9796L152.425 21.7906C153.024 21.4297 153.728 21.0729 154.416 21.746C154.91 22.265 155.027 23.0273 154.453 23.8058ZM151.858 22.1271L151.162 21.4459C151.087 21.5461 151.05 21.6704 151.059 21.7957C151.068 21.9209 151.122 22.0387 151.211 22.1271C151.385 22.3015 151.604 22.2528 151.858 22.1271ZM153.773 22.5326C153.603 22.3664 153.368 22.4029 153.129 22.5326L153.789 23.1733C153.867 23.0843 153.911 22.9697 153.911 22.8509C153.911 22.7322 153.867 22.6175 153.789 22.5286L153.773 22.5326Z" fill="#A7E351"/>
<path d="M163.028 12.951L162.931 12.9186C162.701 12.8456 157.152 11.175 149.313 17.1761C146.386 19.4202 143.647 21.8991 141.122 24.5883C139.503 26.2589 138.341 27.4672 136.933 28.2093L136.561 28.4079L144.885 38.7639L145.157 38.4639C145.233 38.3747 152.996 29.819 156.723 27.1834C159.686 25.0911 165.424 21.7378 170.576 22.8164L171.564 23.0232L163.028 12.951ZM156.339 26.6157C153.643 28.5215 149.054 33.2818 146.492 36.0067C146.096 35.622 145.569 35.4023 145.018 35.3918C144.467 35.3812 143.932 35.5807 143.522 35.9499L138.956 30.2732C139.182 30.112 139.367 29.9015 139.499 29.6577C139.631 29.4139 139.705 29.1432 139.717 28.8661C139.729 28.3336 139.577 27.8102 139.284 27.3659C140.013 26.7252 140.749 25.9629 141.619 25.0627C144.123 22.3997 146.839 19.9465 149.742 17.7276C153.68 14.7108 157.006 13.7458 159.099 13.466C159.645 13.3917 160.195 13.3551 160.746 13.3565C161.038 13.9204 161.494 14.3816 162.055 14.6787C162.615 14.9757 163.253 15.0944 163.882 15.019L168.646 20.6389C168.314 20.7444 167.917 21.0444 168.031 21.9284C163.445 22.1108 158.888 24.8113 156.339 26.6157Z" fill="white"/>
<path d="M19.2318 133.176C19.2318 133.176 22.1376 135.552 26.3466 138.472C31.4783 142.028 41.774 149.476 40.2159 157.971L31.373 169.154C31.373 169.154 31.373 164.58 28.0018 159.171C24.9908 154.35 20.4136 151.467 18.3293 150.206C17.4835 149.687 16.3543 149.018 15.5368 148.455C14.173 147.518 12.3315 146.488 10.1987 144.732L19.2318 133.176Z" fill="#A7E351"/>
<path d="M31.4199 152.888C33.6566 151.345 34.1555 148.181 32.5343 145.822C30.913 143.463 27.7855 142.802 25.5487 144.345C23.312 145.888 22.8131 149.051 24.4343 151.41C26.0556 153.769 29.1831 154.431 31.4199 152.888Z" fill="white"/>
<path d="M27.5929 151.066L27.1882 151.711L26.6742 151.382L27.0789 150.754C26.6268 150.437 26.2834 149.988 26.0955 149.468L26.828 148.945C26.9661 149.359 27.2204 149.723 27.5605 149.995L28.1797 149.03C27.7062 148.507 27.2044 147.887 27.7345 147.06C28.1392 146.447 28.8556 146.176 29.7338 146.589L30.1385 145.949L30.6525 146.277L30.2478 146.91C30.6013 147.173 30.8802 147.524 31.0572 147.927L30.353 148.475C30.2159 148.164 30.0128 147.888 29.7581 147.664L29.1389 148.653C29.6124 149.168 30.1021 149.785 29.584 150.6C29.1915 151.204 28.467 151.471 27.5929 151.066ZM28.7018 150.141C28.8313 149.939 28.7544 149.736 28.5885 149.505L28.0785 150.316C28.1858 150.368 28.3083 150.379 28.423 150.346C28.5377 150.314 28.6368 150.241 28.7018 150.141ZM28.7018 148.179L29.2238 147.368C29.1118 147.313 28.9836 147.302 28.8635 147.335C28.7435 147.369 28.6398 147.445 28.5723 147.55C28.4509 147.745 28.5318 147.956 28.7099 148.179H28.7018Z" fill="#A7E351"/>
<path d="M39.9851 157.326V157.229C40.0094 156.986 40.5194 151.204 33.0687 144.728C30.2823 142.31 27.3047 140.123 24.1651 138.188C22.2063 136.947 20.7899 136.047 19.7781 134.814L19.511 134.49L11.085 144.757L11.433 144.963C11.5342 145.02 21.4698 150.904 24.7884 154.03C27.4352 156.511 31.8707 161.462 31.8627 166.734V167.747L39.9851 157.326ZM25.274 153.531C22.8458 151.273 17.281 147.725 14.1 145.77C14.3964 145.305 14.5052 144.744 14.4045 144.201C14.3038 143.659 14.0012 143.174 13.5577 142.847L18.1754 137.219C18.3775 137.408 18.6201 137.547 18.8846 137.628C19.1492 137.708 19.4285 137.726 19.7012 137.681C20.2238 137.584 20.705 137.331 21.0812 136.955C21.8542 137.535 22.7486 138.107 23.8009 138.776C26.9155 140.692 29.8676 142.862 32.6276 145.263C36.3711 148.507 37.9859 151.585 38.6982 153.58C38.8798 154.101 39.0272 154.633 39.1393 155.173C38.6544 155.57 38.2996 156.103 38.1206 156.704C37.9417 157.304 37.9469 157.945 38.1356 158.543L33.5908 164.374C33.4208 164.07 33.0444 163.745 32.2067 164.033C31.118 159.573 27.5525 155.648 25.274 153.511V153.531Z" fill="white"/>
<path d="M0 66.0406C0 66.0406 6.44699 58.4662 19.1224 63.3441C19.6025 63.5294 20.1002 63.6653 20.6077 63.7496C22.0499 64.0383 23.5431 63.9318 24.93 63.4414C27.3987 62.448 30.9116 61.0085 30.9116 61.0085L41.7658 67.4435C41.7658 67.4435 37.2169 70.7685 32.8097 71.0482C28.4024 71.328 23.1938 67.7152 18.139 68.9316C15.5694 69.4914 13.2364 70.8359 11.4613 72.7796L0 66.0406Z" fill="#A7E351"/>
<g opacity="0.2">
<path d="M26.1685 67.7152C25.6828 68.1531 22.7406 67.7517 19.6041 66.815C16.4676 65.8784 14.3146 64.7876 14.8043 64.3335C15.294 63.8793 18.2322 64.297 21.3727 65.2296C24.5132 66.1622 26.6582 67.2692 26.1685 67.7152Z" fill="white"/>
</g>
<path d="M21.7934 66.8556L21.9917 67.0664L21.332 66.9042L21.1378 66.7015C20.534 66.5623 19.9382 66.3904 19.353 66.1865L19.4947 66.0365C19.8994 66.1784 20.4174 66.3366 20.9031 66.442L20.6036 66.1257C19.8265 65.9149 18.9402 65.6635 18.6853 65.3918C18.495 65.1931 18.8431 65.1323 19.8508 65.331L19.6525 65.1201L20.3162 65.2661L20.5105 65.4729C21.0164 65.5905 21.5304 65.7364 21.9553 65.8784L21.846 66.0365C21.4413 65.9067 21.0852 65.8013 20.7452 65.7162L21.0488 66.0365C21.8258 66.2474 22.6959 66.4947 22.9509 66.7623C23.133 66.9894 22.793 67.0502 21.7934 66.8556ZM20.3446 65.8784L20.0896 65.6107C19.7618 65.554 19.6849 65.5783 19.7335 65.6391C19.9218 65.7538 20.1285 65.8348 20.3446 65.8784ZM21.9067 66.5798C21.7226 66.4695 21.5216 66.39 21.3118 66.3447L21.5546 66.6082C21.8541 66.6569 21.9634 66.6407 21.9067 66.5798Z" fill="#A7E351"/>
<path d="M30.7577 61.7871L30.6404 61.8479C28.6013 62.8459 26.4777 63.6601 24.2945 64.2808C22.7809 64.666 22.0687 64.5403 20.7776 64.3173C20.5267 64.2727 20.2556 64.224 19.9682 64.1794C19.2122 64.0201 18.4673 63.8115 17.7383 63.555C16.0992 63.0238 14.0595 62.3669 12.0198 62.3061H11.9671C11.9105 62.3061 6.30124 61.8236 1.73209 65.4973L1.46094 65.7162L11.2144 71.6322L11.3479 71.5105C11.4006 71.4619 16.6334 66.7259 23.7077 68.5059C24.5455 68.7168 25.3265 68.9114 26.055 69.1182C31.7816 70.6347 34.6591 71.397 40.4181 67.9301L40.7702 67.7193L30.7577 61.7871ZM26.1683 68.6357L23.821 68.0234C19.0091 66.807 15.0227 68.51 12.8332 69.8359C11.2144 68.9884 10.0893 69.7507 9.6765 70.1278L3.97417 66.6691C5.07498 65.6878 4.45173 64.8769 4.04702 64.5322C6.47139 63.2654 9.18715 62.6639 11.9186 62.7886C13.9219 62.8414 15.9657 63.4901 17.5845 64.0051C18.3366 64.2712 19.106 64.4852 19.8873 64.6457C20.1868 64.6903 20.4579 64.739 20.6967 64.7836C22.0079 65.0107 22.8012 65.1485 24.416 64.739C26.0546 64.2923 27.6565 63.7202 29.2077 63.0279C29.6124 63.3806 30.693 64.0537 32.2916 63.2509L38.1113 66.7015C37.6742 66.9083 37.0226 67.4436 38.0587 68.6195C33.7809 70.6509 31.0208 69.9251 26.1683 68.6357Z" fill="white"/>
<path d="M148.123 168.218C148.123 168.218 147.362 158.292 159.775 152.789C160.248 152.583 160.701 152.332 161.126 152.039C162.345 151.22 163.323 150.088 163.959 148.763C165.007 146.33 166.473 142.806 166.473 142.806L178.703 139.692C178.703 139.692 177.821 145.263 174.89 148.58C171.96 151.897 165.72 153.008 163.012 157.456C161.583 159.667 160.876 162.269 160.989 164.901L148.123 168.218Z" fill="#A7E351"/>
<path d="M167.844 150.896C167.804 151.553 165.44 153.329 162.555 154.906C159.669 156.483 157.37 157.193 157.407 156.528C157.443 155.863 159.811 154.095 162.692 152.522C165.574 150.949 167.881 150.243 167.844 150.896Z" fill="white"/>
<path d="M164.141 153.389H164.433L163.862 153.754H163.579C163.056 154.084 162.516 154.384 161.96 154.654V154.444C162.402 154.233 162.833 154.001 163.251 153.746H162.818C162.118 154.152 161.312 154.598 160.944 154.586C160.669 154.586 160.871 154.294 161.725 153.718H161.438L162.009 153.357H162.288C162.733 153.085 163.202 152.822 163.603 152.623L163.64 152.814C163.271 152.996 162.931 153.187 162.632 153.365H163.073C163.773 152.96 164.562 152.526 164.931 152.554C165.186 152.534 164.987 152.818 164.141 153.389ZM162.425 153.722H162.057C161.786 153.916 161.741 153.994 161.826 153.998C162.04 153.94 162.242 153.846 162.425 153.722ZM164.044 153.114C163.834 153.164 163.634 153.25 163.453 153.369H163.814C164.056 153.199 164.113 153.118 164.032 153.114H164.044Z" fill="#A7E351"/>
<g opacity="0.2">
<path d="M166.934 143.455L166.889 143.581C166.147 145.728 165.215 147.804 164.105 149.785C163.296 151.131 162.713 151.544 161.64 152.299C161.43 152.445 161.203 152.603 160.956 152.785C160.307 153.208 159.631 153.587 158.933 153.921C157.395 154.703 155.489 155.68 153.999 157.075L153.959 157.112C153.918 157.148 149.596 160.761 148.953 166.608L148.916 166.957L159.993 164.252V164.07C159.993 164.001 160.369 156.945 166.638 153.207C167.379 152.765 168.075 152.359 168.731 151.99C173.862 149.014 176.42 147.53 178.075 140.994L178.177 140.588L166.934 143.455ZM168.5 151.565C167.844 151.946 167.144 152.351 166.404 152.781C162.138 155.324 160.507 159.346 159.892 161.832C158.148 162.375 157.889 163.709 157.868 164.264L151.393 165.846C151.498 164.386 150.454 164.252 149.948 164.273C150.777 161.662 152.277 159.317 154.299 157.473C155.76 156.094 157.65 155.125 159.155 154.346C159.877 154.005 160.573 153.613 161.24 153.175L161.92 152.692C163.008 151.926 163.668 151.476 164.526 150.028C165.371 148.553 166.103 147.016 166.715 145.43C167.258 145.389 168.492 145.105 169.059 143.402L175.611 141.732C175.449 142.186 175.364 143.025 176.926 143.127C175.311 147.595 172.843 149.039 168.5 151.557V151.565Z" fill="white"/>
</g>
<path d="M166.238 69.9941C166.238 69.9941 163.502 60.4166 174.53 52.526C176.158 51.3653 177.326 49.6669 177.828 47.7292C178.359 45.1179 179.087 41.3834 179.087 41.3834L190.419 35.8567C190.419 35.8567 190.682 41.4929 188.484 45.3328C186.287 49.1727 180.39 51.5285 178.646 56.4348C177.693 58.8911 177.526 61.5834 178.168 64.139L166.238 69.9941Z" fill="#A7E351"/>
<path d="M182.05 49.0348C182.143 49.6836 180.188 51.9218 177.683 54.0303C175.178 56.1388 173.065 57.3229 172.968 56.6741C172.871 56.0253 174.826 53.7871 177.335 51.6786C179.844 49.5701 181.953 48.386 182.05 49.0348Z" fill="white"/>
<path d="M178.929 52.2259L179.213 52.1772L178.731 52.6476L178.452 52.6962C178.003 53.1265 177.532 53.5326 177.039 53.9127L176.995 53.7099C177.331 53.4545 177.748 53.1017 178.116 52.7611L177.691 52.8381C177.084 53.3734 176.388 53.9735 176.024 54.0546C175.753 54.1032 175.89 53.7789 176.611 53.0449L176.327 53.0936L176.813 52.6232L177.092 52.5746C177.454 52.227 177.834 51.8981 178.229 51.5893L178.302 51.7677C177.982 52.0231 177.687 52.2745 177.428 52.5137L177.861 52.4367C178.468 51.9015 179.152 51.3095 179.512 51.2446C179.779 51.1797 179.642 51.496 178.929 52.2259ZM177.311 52.899L176.946 52.9638C176.72 53.2071 176.691 53.2923 176.776 53.2801C176.976 53.1843 177.158 53.0554 177.315 52.899H177.311ZM178.76 51.9785C178.565 52.0716 178.387 52.1963 178.233 52.3475L178.585 52.2867C178.804 52.0556 178.844 51.9623 178.764 51.9785H178.76Z" fill="#A7E351"/>
<path d="M179.654 41.9306V42.0603C179.36 44.3149 178.867 46.5389 178.181 48.7062C177.667 50.1821 177.169 50.7092 176.27 51.6662C176.096 51.8527 175.906 52.0716 175.7 52.2825C175.152 52.8272 174.568 53.3338 173.952 53.799C172.608 54.8816 170.936 56.2319 169.759 57.8944L169.73 57.9349C169.694 57.9795 166.197 62.4155 166.748 68.2544L166.78 68.599L177.084 63.7049L177.052 63.5265C177.052 63.4535 175.983 56.4711 181.366 51.5364C182.001 50.9525 182.58 50.4173 183.167 49.9145C187.586 45.9611 189.808 43.9742 190.095 37.2473V36.8418L179.654 41.9306ZM182.823 49.5496C182.26 50.0524 181.657 50.5916 181.018 51.1715C177.375 54.5248 176.566 58.7945 176.473 61.3572C175.954 61.5977 175.528 62.0006 175.257 62.5053C174.987 63.01 174.888 63.589 174.975 64.155L168.953 67.0136C168.755 65.566 167.711 65.6471 167.217 65.7688C167.501 63.0444 168.496 60.4431 170.103 58.2268C171.256 56.5806 172.911 55.2466 174.243 54.172C174.878 53.6887 175.479 53.1631 176.044 52.5988C176.25 52.3717 176.449 52.173 176.61 51.9906C177.525 51.0174 178.075 50.4295 178.634 48.8521C179.162 47.2361 179.568 45.5825 179.848 43.9053C180.366 43.7552 181.52 43.2281 181.73 41.4724L187.801 38.5083C187.732 38.9827 187.821 39.8261 189.375 39.6072C188.695 44.2945 186.57 46.2003 182.823 49.5496Z" fill="white"/>
<path d="M48.9129 37.5476C46.2848 37.3366 43.7421 36.5147 41.4865 35.1472C38.524 33.3144 30.612 27.1673 28.1999 25.7927C25.4899 24.277 22.5655 23.1832 19.527 22.5489L19.2761 8.1665C21.9375 8.52741 24.5496 9.18848 27.0627 10.1371C30.9762 11.6699 36.9011 18.6522 42.3364 20.4688C45.8533 21.6609 52.79 21.1703 52.79 21.1703L48.9129 37.5476Z" fill="#A7E351"/>
<path d="M20.2111 21.9689L20.4701 22.0419C20.5146 22.0419 25.2335 23.4124 27.6699 24.7951C29.3818 25.7682 32.1945 27.7713 34.9101 29.7054C36.97 31.1692 38.9126 32.5438 40.3332 33.4602C44.8699 36.3594 47.7029 36.2986 47.8203 36.2986H48.0955L51.6488 22.4555L51.151 22.4838C51.1024 22.4838 45.9627 22.7717 43.2025 21.8797C39.5278 20.6916 36.8648 18.3763 34.299 16.1381C32.4576 14.5364 30.7173 13.024 28.6331 11.8846C26.7818 10.8711 24.8211 10.0725 22.7891 9.5044C21.9787 9.26785 21.1523 9.09032 20.3163 8.97322L19.9116 8.92456L20.2111 21.9689ZM42.98 22.573C44.5988 23.1042 46.9785 23.2421 48.747 23.2583C48.5999 23.6828 48.6099 24.1462 48.7754 24.564C49.1801 25.2006 49.8195 25.1478 50.3294 24.6694L48.0186 33.6548C48.0027 33.6354 47.9835 33.6189 47.9619 33.6062C46.8894 32.7952 45.7441 34.182 45.9991 35.2768L45.906 35.2524C44.0674 34.706 42.3211 33.8859 40.7257 32.8195C39.3214 31.9234 37.3829 30.5448 35.331 29.0851L34.6227 28.5823C35.8733 28.7242 37.225 28.0105 37.9494 25.6709C38.6172 23.5178 38.0101 21.0849 37.0834 19.3981C38.8551 20.7836 40.8491 21.8572 42.98 22.573ZM28.2729 12.5252C30.2964 13.6281 32.0002 15.1163 33.8093 16.6895L34.3233 17.1355C33.4685 17.1638 32.6461 17.4704 31.9808 18.0089C31.3156 18.5474 30.8436 19.2885 30.6364 20.1199C30.2317 21.9324 30.09 24.3855 31.4458 26.3602C30.1345 25.456 28.9447 24.6734 28.0462 24.1585C26.3343 23.1853 23.6268 22.2568 22.0161 21.7459C22.1068 21.6847 22.1843 21.6057 22.2437 21.5137C22.3031 21.4217 22.3433 21.3185 22.3618 21.2105C22.3804 21.1025 22.3769 20.9919 22.3515 20.8853C22.3262 20.7786 22.2795 20.6783 22.2144 20.5902C21.9878 20.1848 21.405 19.7793 20.9679 20.0631C20.9466 20.0747 20.9275 20.0898 20.9112 20.1077L20.6887 11.0452C21.4697 12.067 22.5463 11.1142 21.9756 10.0437C24.1711 10.6004 26.2871 11.4343 28.2729 12.5252Z" fill="white"/>
<path d="M34.4002 20.051L34.6106 19.1995L35.2865 19.3617L35.0841 20.1726C35.6896 20.3486 36.2274 20.705 36.626 21.1944L36.019 22.054C35.7135 21.6602 35.3021 21.362 34.8332 21.1944L34.5256 22.4636C35.2258 22.8691 35.9987 23.3435 35.7397 24.4342C35.5455 25.2452 34.8534 25.8047 33.7486 25.6831L33.5422 26.5265L32.8501 26.3562L33.0525 25.5452C32.5683 25.3896 32.1331 25.1101 31.7898 24.7343L32.3766 23.8747C32.6382 24.1574 32.9588 24.3789 33.3155 24.5234L33.6312 23.2299C32.927 22.8488 32.1702 22.3622 32.4171 21.2877C32.6033 20.497 33.2872 19.9374 34.4002 20.051ZM33.5422 21.462C33.4774 21.7297 33.6353 21.9243 33.9024 22.1108L34.1573 21.0566C34.0205 21.0327 33.8798 21.0611 33.7629 21.1361C33.646 21.2112 33.5614 21.3275 33.526 21.462H33.5422ZM34.2585 23.5868L33.9954 24.6694C34.1373 24.6856 34.2803 24.6497 34.3979 24.5685C34.5154 24.4872 34.5996 24.3661 34.6349 24.2274C34.6835 23.9598 34.5175 23.7652 34.2423 23.5868H34.2585Z" fill="#A7E351"/>
<path d="M109.919 171.133C107.289 170.922 104.745 170.1 102.488 168.733C99.5298 166.9 91.6178 160.745 89.2057 159.378C86.4981 157.855 83.5751 156.753 80.5369 156.11L80.29 141.728C82.95 142.091 85.5606 142.753 88.0726 143.702C91.9901 145.239 97.9151 152.217 103.346 154.038C106.867 155.23 113.8 154.739 113.8 154.739L109.919 171.133Z" fill="#A7E351"/>
<path d="M81.2126 155.555L81.4717 155.628C81.5202 155.628 86.2351 156.998 88.6714 158.381C90.3874 159.354 93.196 161.353 95.9116 163.287C97.9716 164.755 99.9182 166.125 101.335 167.046C105.871 169.945 108.704 169.884 108.826 169.884H109.097L112.654 156.041L112.157 156.07C112.104 156.07 106.964 156.353 104.204 155.465C100.529 154.277 97.8664 151.962 95.3005 149.724C93.4591 148.122 91.7189 146.61 89.6346 145.47C87.7781 144.455 85.812 143.655 83.7744 143.086C82.9638 142.851 82.1374 142.675 81.3017 142.559L80.897 142.51L81.2126 155.555ZM103.982 156.159C105.621 156.69 107.98 156.828 109.749 156.844C109.601 157.269 109.611 157.732 109.777 158.15C110.182 158.786 110.821 158.734 111.331 158.251L109.024 167.245L108.968 167.2C107.891 166.389 106.746 167.776 107.001 168.866L106.908 168.842C105.07 168.301 103.324 167.488 101.727 166.43C100.323 165.533 98.3884 164.155 96.3325 162.695L95.6283 162.192C96.8748 162.338 98.2306 161.625 98.951 159.281C99.6188 157.12 99.0117 154.691 98.089 152.988C99.8604 154.37 101.853 155.443 103.982 156.159ZM89.2785 146.111C91.302 147.214 93.0018 148.702 94.8108 150.275C94.9849 150.421 95.1548 150.571 95.3248 150.721C94.4698 150.749 93.6472 151.055 92.9817 151.594C92.3163 152.132 91.8445 152.874 91.6379 153.706C91.2332 155.514 91.0956 157.971 92.4473 159.946C91.132 159.042 89.9462 158.255 89.0437 157.744C87.3318 156.771 84.6243 155.842 83.0136 155.311C83.1037 155.25 83.1807 155.171 83.2397 155.08C83.2988 154.988 83.3387 154.885 83.3573 154.778C83.3758 154.67 83.3724 154.56 83.3475 154.454C83.3225 154.348 83.2764 154.248 83.2119 154.16C82.9893 153.754 82.4025 153.349 81.9654 153.629C81.9455 153.644 81.9266 153.66 81.9087 153.677L81.6862 144.615C82.4672 145.637 83.5478 144.684 82.9731 143.613C85.1719 144.175 87.2906 145.015 89.2785 146.111Z" fill="white"/>
<path d="M95.3896 153.637L95.596 152.781L96.2759 152.947L96.0736 153.779C96.6785 153.954 97.2153 154.31 97.6115 154.801L97.0125 155.64C96.7068 155.247 96.2974 154.948 95.8307 154.776L95.5191 156.049C96.2233 156.455 96.9922 156.925 96.7332 158.016C96.5349 158.827 95.8469 159.391 94.7421 159.265L94.5357 160.112L93.8558 159.946L94.0581 159.135C93.5739 158.98 93.1386 158.7 92.7954 158.324L93.362 157.469C93.625 157.752 93.947 157.973 94.305 158.117L94.6207 156.824C93.9165 156.439 93.1556 155.956 93.4065 154.882C93.6089 154.083 94.2969 153.519 95.3896 153.637ZM94.5276 155.048C94.4628 155.316 94.6247 155.51 94.8878 155.693L95.1427 154.642C95.0085 154.624 94.8722 154.655 94.759 154.729C94.6458 154.804 94.5636 154.917 94.5276 155.048ZM95.248 157.173L94.9849 158.251C95.1264 158.268 95.2693 158.234 95.387 158.153C95.5046 158.072 95.589 157.952 95.6243 157.813C95.6891 157.546 95.511 157.351 95.248 157.173Z" fill="#A7E351"/>
<path d="M80.7877 53.633C78.1976 53.6979 73.4463 53.5965 68.9581 51.5326C63.3934 48.9781 60.9854 45.3044 60.9854 45.3044L59.7712 58.9651C63.0089 66.6125 75.8746 67.1436 81.8723 67.2815C80.2818 60.6641 79.8731 57.5783 80.7877 53.633Z" fill="#A7E351"/>
<path d="M78.7488 62.1472C79.731 59.7237 78.4623 56.919 75.9151 55.8827C73.3678 54.8464 70.5067 55.971 69.5245 58.3944C68.5423 60.8179 69.811 63.6226 72.3583 64.6589C74.9055 65.6952 77.7667 64.5706 78.7488 62.1472Z" fill="white"/>
<path d="M73.5111 57.8498V57.1118H74.0979V57.8295C74.6275 57.8457 75.1398 58.0224 75.567 58.3364L75.2554 59.1473C74.9232 58.8922 74.5266 58.7349 74.1101 58.6932V59.7961C74.7657 59.9664 75.4942 60.2016 75.5063 61.1423C75.5063 61.8397 75.0733 62.4479 74.1465 62.5777V63.3116H73.5597V62.5899C73.133 62.5624 72.7212 62.4225 72.3658 62.1844L72.6491 61.3734C72.9223 61.5485 73.2303 61.6619 73.5516 61.7059V60.5827C72.9 60.4205 72.1796 60.1772 72.1675 59.2568C72.1553 58.5878 72.5924 57.9836 73.5111 57.8498ZM73.1064 59.1798C73.1064 59.4109 73.2804 59.5325 73.5354 59.6298V58.7216C73.2521 58.7946 73.1024 58.9689 73.1064 59.2V59.1798ZM74.1344 60.7571V61.6937C74.253 61.677 74.3616 61.6176 74.4398 61.5266C74.518 61.4356 74.5605 61.3191 74.5593 61.1991C74.5714 60.9679 74.3974 60.8463 74.1344 60.7571Z" fill="#A7E351"/>
<path d="M81.5163 65.7365C78.5203 65.8305 75.5221 65.6459 72.5601 65.1851C67.8372 64.5566 64.9233 62.9509 63.3085 61.7142C62.8806 61.3934 62.475 61.0439 62.0944 60.668C62.2775 60.0852 62.2792 59.4603 62.0992 58.8765C61.9191 58.2927 61.566 57.7776 61.0866 57.3999L61.6573 50.3323C61.9527 50.4864 62.4262 50.5472 62.9483 49.8782C66.186 52.8706 71.1193 54.1357 74.0778 54.6466C76.2027 54.9304 78.3447 55.0659 80.4883 55.0521L80.6138 54.3304C78.4779 54.3587 76.3426 54.2382 74.2235 53.9695C70.7915 53.3775 64.6197 51.7515 61.8475 47.5102L61.3133 46.6992L60.3015 59.3786L60.342 59.4637C60.4513 59.6705 63.094 64.585 72.4832 65.8379C75.5023 66.2989 78.5568 66.4848 81.6094 66.3934L81.5163 65.7365Z" fill="white"/>
</g>
<defs>
<clipPath id="clip0">
<rect width="190.443" height="182" fill="white"/>
</clipPath>
</defs>
</svg>
