<svg width="218" height="184" viewBox="0 0 218 184" fill="none" xmlns="http://www.w3.org/2000/svg">
<path d="M61.2259 72.1686C61.0182 72.2246 60.8015 72.239 60.5882 72.2111C60.3749 72.1832 60.1693 72.1134 59.983 72.0057C59.7968 71.8981 59.6336 71.7547 59.503 71.5838C59.3723 71.413 59.2766 71.218 59.2215 71.0101L55.5418 57.2874C55.4643 56.94 55.5266 56.5761 55.7153 56.2743C55.904 55.9724 56.204 55.7571 56.5503 55.6747L57.8421 55.3288C58.0952 55.2642 58.3253 55.1306 58.507 54.943C58.6887 54.7554 58.8149 54.5212 58.8714 54.2662L58.9964 53.6286C59.0517 53.373 59.1774 53.1381 59.3593 52.9502C59.5412 52.7624 59.7721 52.6293 60.0258 52.566L66.1516 50.9199C66.3813 50.856 66.6233 50.8508 66.8555 50.9047C67.0878 50.9585 67.3028 51.0698 67.4809 51.2283L67.8976 51.6242C68.0753 51.7834 68.2902 51.8954 68.5224 51.95C68.7547 52.0046 68.9969 52.0001 69.227 51.9367L77.0363 49.8531C77.2065 49.7973 77.386 49.7756 77.5646 49.7894C77.7432 49.8032 77.9172 49.8522 78.0768 49.9336C78.2364 50.0149 78.3783 50.127 78.4944 50.2634C78.6105 50.3997 78.6984 50.5577 78.7532 50.7282L82.5037 64.7676C82.5591 64.975 82.5731 65.1913 82.5449 65.4041C82.5166 65.6169 82.4467 65.8221 82.3391 66.0078C82.2315 66.1936 82.0883 66.3564 81.9178 66.4868C81.7473 66.6172 81.5527 66.7127 81.3452 66.7678L61.2259 72.1686Z" fill="#E0E0E0"/>
<path d="M68.4685 52.1284L63.497 53.4494L62.8303 52.741C62.6079 52.511 62.3272 52.3457 62.0182 52.2628C61.7092 52.1799 61.3835 52.1824 61.0759 52.2701L56.2211 53.5911C55.8161 53.6872 55.4656 53.9397 55.2461 54.2934C55.0267 54.6471 54.9562 55.0733 55.0501 55.4788L55.2001 56.0456L59.2006 70.9475C59.3383 71.3992 59.6494 71.7778 60.0657 72.0004C60.4821 72.2231 60.9697 72.2715 61.4217 72.1352L81.1494 66.8428C81.6095 66.7348 82.008 66.4486 82.2573 66.0469C82.5065 65.6453 82.5862 65.1612 82.4787 64.7009L78.7032 50.624C78.6221 50.3225 78.4248 50.0655 78.1545 49.9093C77.8843 49.753 77.563 49.7104 77.2613 49.7906L68.4685 52.1284Z" fill="#EBEBEB"/>
<path d="M127.851 50.3449C127.599 50.2847 127.361 50.1753 127.15 50.0228C126.94 49.8702 126.762 49.6777 126.627 49.4562C126.491 49.2347 126.401 48.9886 126.361 48.7321C126.32 48.4755 126.331 48.2136 126.393 47.9613L130.427 31.259C130.543 30.8409 130.82 30.4859 131.197 30.2718C131.574 30.0577 132.021 30.0021 132.439 30.1172L134.011 30.4964C134.317 30.5767 134.639 30.5692 134.941 30.4749C135.243 30.3806 135.513 30.2032 135.719 29.963L136.219 29.363C136.425 29.1228 136.695 28.9454 136.997 28.8511C137.299 28.7568 137.622 28.7493 137.928 28.8295L145.383 30.6298C145.667 30.6913 145.931 30.8242 146.15 31.0159C146.369 31.2077 146.535 31.452 146.633 31.7258L146.858 32.3925C146.956 32.6667 147.123 32.9115 147.341 33.1039C147.56 33.2963 147.824 33.4301 148.108 33.4927L157.614 35.7846C158.035 35.8785 158.402 36.1345 158.636 36.4971C158.87 36.8597 158.952 37.2999 158.864 37.7224L154.738 54.808C154.615 55.3168 154.294 55.7558 153.847 56.0286C153.4 56.3013 152.864 56.3854 152.355 56.2624L127.851 50.3449Z" fill="#E0E0E0"/>
<path d="M147.137 33.2635L141.095 31.7925L140.799 30.6715C140.694 30.2996 140.491 29.9628 140.211 29.6966C139.93 29.4304 139.584 29.2447 139.207 29.1588L133.298 27.7295C133.058 27.663 132.807 27.6446 132.559 27.6753C132.312 27.706 132.073 27.7851 131.856 27.9082C131.639 28.0313 131.449 28.1959 131.296 28.3926C131.143 28.5893 131.03 28.8143 130.964 29.0546L130.797 29.7422L126.418 47.878C126.302 48.4366 126.412 49.0184 126.725 49.4957C127.037 49.973 127.526 50.3069 128.085 50.4241L152.096 56.1999C152.647 56.3521 153.235 56.2796 153.732 55.9983C154.229 55.717 154.594 55.2499 154.746 54.6997L158.885 37.5683C158.972 37.2008 158.911 36.8135 158.715 36.491C158.518 36.1685 158.201 35.9371 157.834 35.8472L147.137 33.2635Z" fill="#EBEBEB"/>
<path d="M81.3076 28.3171C81.0181 28.3489 80.7251 28.3234 80.4455 28.2419C80.1658 28.1605 79.905 28.0248 79.6778 27.8425C79.4506 27.6602 79.2616 27.435 79.1215 27.1796C78.9815 26.9243 78.8931 26.6438 78.8614 26.3543L76.7528 7.1851C76.716 6.69942 76.8736 6.219 77.1908 5.84941C77.5081 5.47981 77.959 5.25128 78.4447 5.21401L80.2491 5.01398C80.602 4.98002 80.9385 4.84863 81.2211 4.63449C81.5037 4.42036 81.7212 4.1319 81.8493 3.80132L82.1494 2.96788C82.2766 2.6359 82.4944 2.34627 82.778 2.13191C83.0616 1.91754 83.3996 1.78703 83.7537 1.75522L92.309 0.813427C92.6299 0.774705 92.9554 0.817395 93.2554 0.937561C93.5555 1.05773 93.8205 1.2515 94.0259 1.50102L94.5177 2.12193C94.7251 2.37467 94.9935 2.57042 95.2975 2.69071C95.6015 2.81101 95.9312 2.8519 96.2554 2.80952L107.165 1.61353C107.404 1.57876 107.648 1.59152 107.882 1.65107C108.117 1.71061 108.337 1.81578 108.53 1.96056C108.724 2.10533 108.887 2.28686 109.01 2.49475C109.133 2.70264 109.215 2.93281 109.249 3.17207L111.403 22.7788C111.466 23.3638 111.295 23.9499 110.928 24.4091C110.56 24.8683 110.025 25.1631 109.44 25.2292L81.3076 28.3171Z" fill="#E0E0E0"/>
<path d="M95.1636 2.93026L88.2211 3.67619L87.4751 2.58438C87.223 2.23082 86.88 1.95199 86.4824 1.7774C86.0848 1.60281 85.6474 1.53895 85.2165 1.59258L78.4323 2.33435C78.1534 2.35595 77.8816 2.43226 77.6323 2.55893C77.3829 2.68559 77.161 2.86013 76.9791 3.07258C76.7972 3.28502 76.659 3.53121 76.5723 3.79709C76.4855 4.06297 76.452 4.34332 76.4737 4.62215L76.5612 5.41392L78.849 26.2292C78.9408 26.8641 79.2805 27.4368 79.7936 27.8218C80.3068 28.2068 80.9516 28.3729 81.5868 28.2836L109.14 25.254C109.781 25.204 110.375 24.9022 110.793 24.4147C111.211 23.9273 111.418 23.294 111.37 22.6537L109.207 2.9886C109.184 2.78003 109.121 2.57801 109.02 2.3941C108.919 2.21018 108.782 2.04798 108.619 1.91677C108.455 1.78556 108.267 1.68792 108.066 1.62943C107.864 1.57094 107.653 1.55276 107.444 1.57591L95.1636 2.93026Z" fill="#F5F5F5"/>
<path d="M96.3887 15.2529C96.8435 14.9882 97.2109 14.5963 97.4457 14.1253C97.6804 13.6544 97.7722 13.125 97.7097 12.6025C97.7113 12.247 97.6378 11.8951 97.4942 11.5699C97.3505 11.2447 97.14 10.9533 96.8762 10.715C96.6124 10.4766 96.3013 10.2965 95.9632 10.1865C95.6251 10.0764 95.2676 10.0389 94.914 10.0763C94.5605 10.1137 94.2188 10.2253 93.9112 10.4036C93.6036 10.582 93.3371 10.8232 93.1291 11.1115C92.921 11.3999 92.7761 11.7288 92.7037 12.0769C92.6313 12.425 92.6332 12.7844 92.7091 13.1318C92.7571 13.6602 92.9603 14.1625 93.2933 14.5756C93.6263 14.9886 94.074 15.2939 94.5802 15.4529C90.7838 16.4572 91.4214 20.6328 91.4214 20.6328L100.552 19.6743C100.552 19.6743 100.277 15.4113 96.3887 15.2529Z" fill="#E0E0E0"/>
<path d="M63.2386 25.3751C63.6206 25.2011 64.0243 25.0791 64.4387 25.0125L64.8055 23.9082L66.7224 24.0999L66.8641 25.2542C67.2561 25.4031 67.6273 25.602 67.9684 25.846L69.0102 25.3292L70.227 26.8169L69.5144 27.7545C69.6878 28.1365 69.8084 28.5402 69.8728 28.9547L70.9771 29.3256L70.7854 31.2383L69.6311 31.38C69.4848 31.7745 69.2858 32.1474 69.0394 32.4885L69.5603 33.5261L68.0684 34.7471L67.1516 34.0054C66.7691 34.1782 66.3656 34.3001 65.9515 34.3679L65.5847 35.4722L63.6678 35.2805L63.5261 34.1262C63.1337 33.9782 62.7624 33.7793 62.4218 33.5345L61.38 34.0512L60.1632 32.5635L60.8758 31.6467C60.7029 31.2643 60.5811 30.8608 60.5132 30.4466L59.4131 30.0757L59.6048 28.1713L60.7591 28.0254C60.9063 27.6326 61.1053 27.2612 61.3508 26.9211L60.8341 25.8793L62.326 24.6583L63.2428 25.3751H63.2386ZM63.9554 28.0379C63.6344 28.2978 63.3979 28.6472 63.2759 29.0418C63.1539 29.4364 63.1519 29.8583 63.2702 30.254C63.3885 30.6497 63.6217 31.0013 63.9402 31.2642C64.2588 31.5271 64.6482 31.6894 65.0592 31.7305C65.4702 31.7716 65.8841 31.6897 66.2483 31.495C66.6126 31.3004 66.9108 31.002 67.1051 30.6375C67.2994 30.2731 67.3811 29.8591 67.3396 29.4482C67.2982 29.0373 67.1356 28.6479 66.8724 28.3296C66.5226 27.9066 66.0201 27.6386 65.4739 27.584C64.9277 27.5294 64.382 27.6925 63.9554 28.0379Z" fill="#E0E0E0"/>
<path d="M72.9441 103.227C73.1144 103.235 73.2846 103.208 73.4442 103.148C73.633 103.069 73.7951 102.937 73.9109 102.769C73.9817 102.659 74.0312 102.538 74.0567 102.41C74.0817 102.277 74.0943 102.123 74.1151 101.964C74.2776 100.672 74.5068 98.8263 74.7902 96.5469L75.0194 94.755C75.061 94.4424 75.1027 94.1257 75.1444 93.8007L75.2069 93.3131C75.2359 93.1537 75.2471 92.9916 75.2402 92.8297C75.2236 92.6731 75.1685 92.523 75.0798 92.3928C74.9911 92.2627 74.8716 92.1565 74.7318 92.0838C74.5823 92.0153 74.4211 91.9757 74.2568 91.9671L73.7234 91.8962L71.5147 91.6129L61.6968 90.3294C61.5015 90.3041 61.3031 90.3413 61.1302 90.4357C60.9573 90.53 60.8187 90.6766 60.7342 90.8544C60.6933 90.9431 60.6653 91.0371 60.6508 91.1336L60.6091 91.4545C60.58 91.667 60.5508 91.8712 60.5258 92.0921C60.4133 92.9255 60.3008 93.759 60.1924 94.5924C59.9757 96.2343 59.7757 97.8179 59.5632 99.3264C59.5132 99.7056 59.4673 100.076 59.4173 100.439C59.4045 100.606 59.4363 100.774 59.5095 100.925C59.5827 101.075 59.6947 101.204 59.834 101.297C59.9698 101.391 60.128 101.447 60.2924 101.46L60.8175 101.531L61.8426 101.668L65.5931 102.173L71.0105 102.919L72.4774 103.131L72.8566 103.194C72.9002 103.199 72.9433 103.207 72.9858 103.219C72.9416 103.225 72.8966 103.225 72.8524 103.219L72.469 103.177L70.998 103.006L65.5431 102.348L61.7926 101.868L60.7675 101.735L60.2424 101.668C59.9434 101.643 59.6665 101.5 59.4722 101.272C59.2778 101.043 59.1817 100.747 59.2048 100.447C59.2548 100.076 59.3006 99.7014 59.3506 99.3222C59.5465 97.8137 59.7674 96.2301 59.9674 94.5841C60.0716 93.7506 60.1841 92.9172 60.2924 92.0838C60.3216 91.8712 60.3508 91.667 60.3758 91.4462L60.4216 91.1253C60.4385 91.0072 60.4722 90.8921 60.5216 90.7836C60.6254 90.5636 60.7963 90.3821 61.0097 90.2653C61.2231 90.1485 61.468 90.1023 61.7093 90.1335L71.5272 91.4337L73.7317 91.7296L74.2609 91.8004C74.4491 91.8116 74.6332 91.8597 74.8027 91.9421C74.9703 92.0249 75.1146 92.1484 75.2223 92.3012C75.33 92.4541 75.3978 92.6315 75.4194 92.8172C75.4268 92.9917 75.4143 93.1665 75.3819 93.3381C75.3819 93.5048 75.3361 93.6673 75.3152 93.8298C75.2736 94.1507 75.2277 94.4716 75.1861 94.78C75.1027 95.405 75.0235 96.0009 74.9444 96.5719C74.6318 98.843 74.3776 100.685 74.1984 101.989C74.1734 102.152 74.1609 102.298 74.1318 102.443C74.0865 102.611 74.0021 102.765 73.8854 102.893C73.7687 103.022 73.6232 103.12 73.4608 103.181C73.3367 103.226 73.205 103.246 73.0733 103.239C73.0298 103.242 72.9863 103.237 72.9441 103.227Z" fill="#E0E0E0"/>
<path d="M73.2357 101.556C73.2357 101.556 73.1857 101.506 73.1107 101.398L72.7898 100.923L71.6397 99.1473C71.4022 98.7639 71.1396 98.3555 70.8562 97.8971C70.7896 97.7846 70.7187 97.6762 70.6437 97.5596C70.6135 97.5163 70.5728 97.4813 70.5255 97.458C70.4781 97.4347 70.4256 97.4238 70.3729 97.4262C70.2603 97.4262 70.1853 97.5054 70.0686 97.6054L69.7353 97.8888L69.0435 98.4805C68.9822 98.5385 68.9152 98.5902 68.8435 98.6347C68.7547 98.6809 68.6542 98.6996 68.5548 98.6884C68.4553 98.6773 68.3614 98.6368 68.2851 98.5722C68.2443 98.542 68.2103 98.5037 68.1851 98.4597L68.1184 98.3597L67.0266 96.6928C66.8391 96.4052 66.6515 96.126 66.4723 95.8593C66.3807 95.7218 66.289 95.5843 66.2015 95.4426C66.1708 95.3902 66.1248 95.3485 66.0696 95.3232C66.0144 95.2978 65.9528 95.2901 65.8931 95.3009C65.8345 95.31 65.7804 95.3378 65.7389 95.3801L65.5681 95.5468C65.4597 95.6593 65.3472 95.7677 65.2388 95.876L64.5846 96.5136L62.3468 98.7139L60.8341 100.202L60.4174 100.593C60.3718 100.642 60.3199 100.684 60.2632 100.718C60.2632 100.718 60.3007 100.66 60.3882 100.56L60.7799 100.143L62.2509 98.6264C62.8885 97.9846 63.6345 97.2262 64.4554 96.3927L65.0972 95.751L65.4264 95.4176L65.5931 95.2509C65.6664 95.1797 65.7592 95.1319 65.8598 95.1134C65.9606 95.0948 66.0647 95.1072 66.1584 95.1488C66.2521 95.1904 66.3311 95.2595 66.3848 95.3468L66.6557 95.7635L67.2099 96.5969L68.2976 98.2638C68.3183 98.3252 68.3559 98.3796 68.4061 98.4207C68.4562 98.4617 68.5169 98.4879 68.5812 98.4962C68.6455 98.5044 68.7108 98.4944 68.7697 98.4673C68.8286 98.4403 68.8787 98.3972 68.9143 98.343L69.6103 97.7596L69.9436 97.4762C70.0061 97.4304 70.0436 97.3887 70.1228 97.3345C70.2329 97.2661 70.3652 97.243 70.4919 97.2702C70.6186 97.2975 70.7298 97.3728 70.8021 97.4804L71.0146 97.8221C71.2855 98.268 71.5397 98.6847 71.7772 99.0723L72.8648 100.885C72.9774 101.085 73.0732 101.248 73.1524 101.385C73.1866 101.439 73.2146 101.496 73.2357 101.556Z" fill="#E0E0E0"/>
<path d="M70.3187 94.6716C70.2998 94.5725 70.2873 94.4722 70.2812 94.3715C70.2334 94.1101 70.1035 93.8707 69.9104 93.6881C69.7581 93.542 69.5683 93.441 69.3621 93.3962C69.1558 93.3515 68.9412 93.3647 68.7421 93.4346C68.5429 93.5044 68.367 93.628 68.2339 93.7918C68.1008 93.9555 68.0156 94.153 67.9879 94.3622C67.9602 94.5714 67.9911 94.7842 68.077 94.9769C68.1629 95.1697 68.3005 95.3348 68.4746 95.4541C68.6488 95.5733 68.8525 95.642 69.0633 95.6525C69.2741 95.6629 69.4836 95.6148 69.6687 95.5134C69.903 95.389 70.0904 95.1914 70.2021 94.9508C70.2854 94.7757 70.3021 94.6674 70.3187 94.6716C70.3354 94.6757 70.3437 94.7841 70.2812 94.9799C70.1902 95.2595 70.0006 95.4965 69.7478 95.6467C69.5601 95.7589 69.3472 95.8218 69.1286 95.8299C68.9101 95.8379 68.6931 95.7906 68.4977 95.6925C68.2469 95.5708 68.0408 95.3732 67.9084 95.1279C67.7761 94.8826 67.7242 94.6018 67.7601 94.3254C67.7961 94.0489 67.918 93.7908 68.1087 93.5874C68.2994 93.3841 68.5491 93.2458 68.8227 93.1922C69.0374 93.1558 69.2578 93.1737 69.4638 93.2443C69.6698 93.3149 69.8548 93.436 70.002 93.5964C70.206 93.8087 70.3285 94.0861 70.3479 94.3799C70.3729 94.5674 70.3312 94.6716 70.3187 94.6716Z" fill="#E0E0E0"/>
<path d="M137.823 20.8327C137.977 20.908 138.144 20.9533 138.315 20.966C138.52 20.9717 138.721 20.9166 138.894 20.8077C139.004 20.7395 139.099 20.6503 139.174 20.5451C139.253 20.4326 139.328 20.2951 139.411 20.1576L142.249 15.5028C142.549 15.0111 142.862 14.4943 143.191 13.9609C143.353 13.6901 143.524 13.4192 143.695 13.1275L143.953 12.7108C144.044 12.5799 144.12 12.4403 144.183 12.2941C144.232 12.1446 144.243 11.9852 144.215 11.8303C144.188 11.6753 144.122 11.5297 144.024 11.4064C143.916 11.2803 143.785 11.1769 143.637 11.1022L143.178 10.823L141.282 9.6562L132.852 4.45968C132.684 4.35681 132.489 4.30948 132.292 4.32445C132.096 4.33942 131.91 4.41591 131.76 4.54303C131.685 4.60659 131.621 4.68105 131.568 4.76389L131.402 5.03893L131.06 5.589L129.731 7.75178L127.23 11.8148L126.626 12.7524C126.546 12.8988 126.506 13.0636 126.51 13.2303C126.513 13.397 126.561 13.5598 126.647 13.7026C126.735 13.8431 126.856 13.9592 127.001 14.0401C127.151 14.1318 127.301 14.2235 127.447 14.3193L128.326 14.8611L131.523 16.853L136.144 19.745L137.394 20.541C137.528 20.6327 137.636 20.6993 137.719 20.7535C137.803 20.8077 137.828 20.8285 137.823 20.8327C137.782 20.8178 137.743 20.7982 137.707 20.7743L137.373 20.5785L136.123 19.82L131.464 16.9822L128.251 15.0152L127.372 14.4735L126.922 14.1985C126.753 14.1028 126.609 13.9668 126.505 13.8026C126.4 13.6309 126.342 13.4347 126.337 13.2335C126.332 13.0323 126.38 12.8334 126.476 12.6566L127.068 11.694L129.568 7.6226L130.893 5.47232L131.231 4.92641L131.402 4.65137C131.464 4.54914 131.543 4.45768 131.635 4.38051C131.82 4.22313 132.051 4.12833 132.293 4.10962C132.536 4.09091 132.778 4.14926 132.985 4.27633L141.407 9.48535L143.278 10.6688L143.737 10.9522C143.897 11.0396 144.038 11.1571 144.153 11.2981C144.269 11.4464 144.346 11.621 144.378 11.8064C144.41 11.9918 144.396 12.1822 144.337 12.3607C144.271 12.5227 144.187 12.6765 144.087 12.8191L143.824 13.2358C143.653 13.515 143.482 13.7859 143.316 14.0693C142.987 14.6027 142.666 15.1153 142.361 15.6028L139.444 20.2243C139.357 20.3618 139.286 20.491 139.199 20.6118C139.114 20.7208 139.009 20.8127 138.89 20.8827C138.705 20.9942 138.489 21.0452 138.273 21.0285C138.143 21.0182 138.016 20.9828 137.898 20.9244C137.871 20.8962 137.845 20.8655 137.823 20.8327Z" fill="#E0E0E0"/>
<path d="M136.678 11.9649L137.448 13.5068C137.49 13.5744 137.511 13.6523 137.509 13.7315C137.508 13.8107 137.484 13.8878 137.44 13.9539C137.396 14.0199 137.335 14.0721 137.262 14.1043C137.19 14.1366 137.11 14.1476 137.032 14.136L135.277 14.0818L133.569 14.0277C133.489 14.0315 133.41 14.0125 133.341 13.9729C133.272 13.9333 133.216 13.8748 133.179 13.8042C133.142 13.7336 133.126 13.654 133.133 13.5747C133.14 13.4954 133.17 13.4197 133.219 13.3567L134.181 11.8857L135.152 10.4022C135.19 10.3324 135.247 10.2748 135.316 10.2363C135.386 10.1977 135.465 10.1798 135.544 10.1846C135.623 10.1894 135.7 10.2168 135.764 10.2634C135.828 10.3101 135.878 10.3741 135.907 10.448L136.678 11.9649Z" fill="#E0E0E0"/>
<path d="M200.809 183.812C200.809 183.875 156.041 183.921 100.809 183.921C45.5778 183.921 0.809326 183.875 0.809326 183.812C0.809326 183.75 45.5686 183.704 100.809 183.704C156.05 183.704 200.809 183.754 200.809 183.812Z" fill="#263238"/>
<path d="M135.365 35.8057H72.0315V183.813H135.365V35.8057Z" fill="#2B3A8C"/>
<g opacity="0.3">
<path opacity="0.3" d="M89.3463 35.8057H72.0315V183.813H89.3463V35.8057Z" fill="black"/>
</g>
<path d="M106.807 42.0521V40.8687L106.232 41.8355H105.948L105.377 40.902V42.0521H104.794V39.8394H105.315L106.098 41.1312L106.865 39.8394H107.386V42.073L106.807 42.0521Z" fill="#F0F0F1"/>
<path d="M109.032 41.2521V42.0522H108.399V41.2438L107.565 39.8186H108.232L108.761 40.7062L109.291 39.8186H109.903L109.032 41.2521Z" fill="#F0F0F1"/>
<path d="M111.608 40.3061V40.7978H112.595V41.2896H111.608V42.0522H110.974V39.8394H112.729V40.3269L111.608 40.3061Z" fill="#F0F0F1"/>
<path d="M113.024 39.8394H113.654V42.073H113.024V39.8394Z" fill="#F0F0F1"/>
<path d="M114.104 39.8394H114.737V41.5729H115.804V42.073H114.104V39.8394Z" fill="#F0F0F1"/>
<path d="M117.846 41.5646V42.0522H116.054V39.8394H117.804V40.3269H116.675V40.6728H117.667V41.1437H116.675V41.5604L117.846 41.5646Z" fill="#F0F0F1"/>
<path d="M118.042 41.8521L118.246 41.3854C118.466 41.5267 118.722 41.6032 118.984 41.6062C119.246 41.6062 119.35 41.5354 119.35 41.427C119.35 41.0728 118.1 41.3312 118.1 40.4977C118.1 40.081 118.425 39.7768 119.088 39.7768C119.37 39.7725 119.649 39.8384 119.9 39.9685L119.704 40.4394C119.516 40.3316 119.304 40.2729 119.088 40.2685C118.821 40.2685 118.725 40.3561 118.725 40.4686C118.725 40.8103 119.975 40.5519 119.975 41.377C119.975 41.7687 119.65 42.098 118.988 42.098C118.655 42.1073 118.327 42.022 118.042 41.8521Z" fill="#F0F0F1"/>
<path d="M133.085 75.215C133.085 75.215 133.085 75.0274 133.085 74.6732C133.085 74.319 133.085 73.794 133.085 73.1147C133.085 71.7478 133.085 69.7517 133.06 67.1931C133.06 62.0841 133.035 54.7539 133.014 45.8528L133.102 45.9403H91.7881L91.8964 45.8319C91.8964 56.3416 91.8964 66.318 91.8964 75.1941L91.8006 75.0941L121.584 75.1441L130.072 75.1691H132.331H132.914H133.114H132.352H130.114L121.646 75.1983L91.8006 75.2441H91.6714V75.1483C91.6714 66.2721 91.6714 56.2958 91.6714 45.7861V45.6777H91.7839H133.098H133.189V45.7652C133.189 54.6914 133.156 62.0174 133.144 67.1597C133.144 69.7101 133.144 71.702 133.144 73.0647C133.144 73.7356 133.144 74.2523 133.144 74.6066C133.144 74.9608 133.085 75.215 133.085 75.215Z" fill="#263238"/>
<g opacity="0.3">
<path opacity="0.3" d="M121.225 63.9009H104.406V66.7471H121.225V63.9009Z" fill="black"/>
</g>
<path d="M118.133 51.2368H109.461C108.888 51.2368 108.424 51.7014 108.424 52.2744V58.4336C108.424 59.0067 108.888 59.4712 109.461 59.4712H118.133C118.707 59.4712 119.171 59.0067 119.171 58.4336V52.2744C119.171 51.7014 118.707 51.2368 118.133 51.2368Z" fill="#F0F0F1"/>
<path d="M118.475 58.2501C118.331 58.1257 118.201 57.986 118.088 57.8334L117.092 56.6916L116.412 55.8873L116.229 55.6665C116.206 55.6421 116.177 55.624 116.145 55.6138C116.113 55.6036 116.079 55.6017 116.046 55.6081C115.975 55.6081 115.937 55.6665 115.862 55.754L115.65 55.9915L115.233 56.4749C115.194 56.5341 115.143 56.5836 115.082 56.6197C115.021 56.6558 114.953 56.6776 114.883 56.6833C114.805 56.6835 114.728 56.6619 114.662 56.6208C114.63 56.5991 114.601 56.5739 114.575 56.5458L114.516 56.4791L113.579 55.3956L113.083 54.8414L112.854 54.5705C112.836 54.5487 112.814 54.5312 112.788 54.5191C112.763 54.5071 112.736 54.5008 112.708 54.5008C112.68 54.5008 112.652 54.5071 112.627 54.5191C112.602 54.5312 112.579 54.5487 112.562 54.5705L112.458 54.708L112.249 54.9705L111.833 55.4873L110.437 57.2667L109.478 58.4543C109.366 58.6031 109.242 58.7425 109.107 58.8711C109.192 58.7041 109.294 58.5463 109.411 58.4002L110.316 57.1708L111.674 55.3664L112.091 54.8455C112.158 54.758 112.224 54.6663 112.295 54.5788L112.399 54.4413C112.447 54.3776 112.515 54.3309 112.591 54.308C112.665 54.2884 112.743 54.2897 112.817 54.3118C112.89 54.3338 112.956 54.3758 113.008 54.433L113.241 54.7038L113.716 55.2539L114.65 56.3416C114.775 56.5208 114.92 56.5166 115.066 56.3416L115.508 55.8582L115.721 55.629C115.79 55.5266 115.896 55.4538 116.016 55.4248C116.081 55.4126 116.148 55.4178 116.21 55.4397C116.272 55.4617 116.328 55.4996 116.371 55.5498L116.554 55.7748C116.792 56.0665 117.008 56.3416 117.212 56.6083L118.154 57.8084C118.274 57.9462 118.381 58.094 118.475 58.2501Z" fill="#263238"/>
<path d="M115.746 53.5913C115.725 53.5913 115.721 53.5121 115.675 53.3871C115.616 53.208 115.5 53.0529 115.346 52.9454C115.236 52.8694 115.109 52.821 114.976 52.8043C114.843 52.7876 114.708 52.8031 114.583 52.8495C114.432 52.906 114.302 53.0073 114.209 53.1398C114.117 53.2724 114.068 53.4299 114.068 53.5913C114.068 53.7527 114.117 53.9102 114.209 54.0428C114.302 54.1753 114.432 54.2766 114.583 54.3331C114.708 54.3795 114.843 54.395 114.976 54.3783C115.109 54.3616 115.236 54.3132 115.346 54.2372C115.499 54.1303 115.615 53.977 115.675 53.7997C115.721 53.6705 115.725 53.5913 115.746 53.5913C115.767 53.5913 115.779 53.6705 115.746 53.8205C115.707 54.0338 115.593 54.2262 115.425 54.3622C115.298 54.465 115.146 54.5335 114.985 54.5613C114.824 54.589 114.658 54.575 114.504 54.5206C114.311 54.4537 114.143 54.3282 114.025 54.1617C113.906 53.9951 113.842 53.7957 113.842 53.5913C113.842 53.3869 113.906 53.1875 114.025 53.0209C114.143 52.8544 114.311 52.7289 114.504 52.662C114.658 52.6074 114.824 52.5936 114.986 52.6221C115.147 52.6506 115.298 52.7203 115.425 52.8245C115.594 52.9601 115.708 53.1527 115.746 53.3663C115.779 53.5246 115.754 53.5913 115.746 53.5913Z" fill="#263238"/>
<g opacity="0.4">
<path opacity="0.4" d="M127.305 77.4236H91.2881V105.406H127.305V77.4236Z" fill="black"/>
</g>
<path d="M112.391 78.4863H105.544L105.127 77.7987C104.994 77.5718 104.805 77.3836 104.576 77.2528C104.348 77.1219 104.09 77.053 103.827 77.0527H98.7932C98.4069 77.0534 98.0356 77.2026 97.7564 77.4695C97.4771 77.7363 97.3112 78.1004 97.293 78.4863H95.4969C95.1233 78.4863 94.7651 78.6347 94.5009 78.8988C94.2368 79.163 94.0884 79.5212 94.0884 79.8948V83.3827H113.799V79.8948C113.799 79.5212 113.651 79.163 113.387 78.8988C113.123 78.6347 112.764 78.4863 112.391 78.4863Z" fill="#E0E0E0"/>
<path d="M116.004 78.4863H109.174L108.757 77.7987C108.625 77.5719 108.436 77.3836 108.209 77.2527C107.981 77.1218 107.723 77.0529 107.461 77.0527H102.41C102.024 77.0533 101.652 77.2024 101.372 77.4692C101.092 77.7359 100.925 78.1 100.906 78.4863H99.1099C98.7364 78.4863 98.3781 78.6347 98.114 78.8988C97.8498 79.163 97.7014 79.5212 97.7014 79.8948V83.3827H117.412V79.8948C117.412 79.5212 117.264 79.163 117 78.8988C116.736 78.6347 116.377 78.4863 116.004 78.4863Z" fill="#EBEBEB"/>
<path d="M120.7 78.4863H113.858L113.441 77.7987C113.31 77.5716 113.121 77.3831 112.893 77.2522C112.666 77.1212 112.408 77.0525 112.145 77.0527H107.09C106.704 77.0534 106.333 77.2026 106.054 77.4695C105.774 77.7363 105.608 78.1004 105.59 78.4863H103.79C103.416 78.4863 103.058 78.6347 102.794 78.8988C102.53 79.163 102.381 79.5212 102.381 79.8948V83.3827H122.092V79.8948C122.092 79.5241 121.946 79.1683 121.686 78.9046C121.425 78.641 121.071 78.4906 120.7 78.4863Z" fill="#F5F5F5"/>
<path d="M104.819 96.6927V79.9113C104.837 79.5277 105.007 79.1669 105.29 78.9077C105.574 78.6486 105.948 78.512 106.332 78.5278H107.778C108.059 78.5327 108.337 78.4597 108.579 78.3171C108.822 78.1745 109.02 77.9676 109.153 77.7194L109.461 77.1026C109.595 76.8552 109.793 76.6492 110.036 76.5073C110.279 76.3654 110.556 76.2931 110.837 76.2984H117.7C117.956 76.2947 118.209 76.3549 118.436 76.4735C118.663 76.5921 118.857 76.7653 119 76.9776L119.338 77.5027C119.482 77.7148 119.677 77.8878 119.904 78.0063C120.132 78.1248 120.385 78.1852 120.642 78.1819H129.393C129.778 78.1661 130.153 78.3033 130.436 78.5634C130.72 78.8234 130.889 79.1853 130.906 79.5696V96.6927H104.819Z" fill="#2B3A8C"/>
<g opacity="0.3">
<path opacity="0.3" d="M104.819 96.6927V79.9113C104.837 79.5277 105.007 79.1669 105.29 78.9077C105.574 78.6486 105.948 78.512 106.332 78.5278H107.778C108.059 78.5327 108.337 78.4597 108.579 78.3171C108.822 78.1745 109.02 77.9676 109.153 77.7194L109.461 77.1026C109.595 76.8552 109.793 76.6492 110.036 76.5073C110.279 76.3654 110.556 76.2931 110.837 76.2984H117.7C117.956 76.2947 118.209 76.3549 118.436 76.4735C118.663 76.5921 118.857 76.7653 119 76.9776L119.338 77.5027C119.482 77.7148 119.677 77.8878 119.904 78.0063C120.132 78.1248 120.385 78.1852 120.642 78.1819H129.393C129.778 78.1661 130.153 78.3033 130.436 78.5634C130.72 78.8234 130.889 79.1853 130.906 79.5696V96.6927H104.819Z" fill="black"/>
</g>
<path d="M110.303 83.0244V69.7643C110.303 69.2404 110.511 68.738 110.882 68.3676C111.252 67.9972 111.755 67.7891 112.278 67.7891H133.39C133.913 67.7891 134.416 67.9972 134.786 68.3676C135.157 68.738 135.365 69.2404 135.365 69.7643V82.6577L110.303 83.0244Z" fill="#F0F0F1"/>
<path d="M111.128 86.8914V70.11C111.145 69.726 111.315 69.3646 111.598 69.1052C111.882 68.8457 112.257 68.7095 112.641 68.7265H114.087C114.367 68.731 114.643 68.6583 114.885 68.5165C115.127 68.3746 115.325 68.1691 115.458 67.9222L115.77 67.3013C115.903 67.0545 116.101 66.8489 116.343 66.7071C116.585 66.5652 116.861 66.4926 117.141 66.497H124.005C124.262 66.4928 124.516 66.5531 124.744 66.6725C124.972 66.7919 125.166 66.9665 125.309 67.1805L125.647 67.7014C125.79 67.9142 125.984 68.088 126.211 68.2073C126.437 68.3266 126.691 68.3876 126.947 68.3848H135.698C136.082 68.3678 136.457 68.504 136.741 68.7635C137.024 69.0229 137.193 69.3843 137.211 69.7683V86.8914H111.128Z" fill="#2B3A8C"/>
<path d="M111.128 86.8915H111.257H111.628H113.058L118.421 86.8665L137.211 86.8165L137.111 86.9165C137.111 84.1078 137.111 81.1283 137.111 78.0154V70.1768C137.122 69.9769 137.122 69.7766 137.111 69.5767C137.076 69.388 136.999 69.2095 136.886 69.0544C136.772 68.8994 136.626 68.7717 136.457 68.6808C136.301 68.5931 136.13 68.5352 135.952 68.5099C135.766 68.4972 135.58 68.4972 135.394 68.5099H126.976C126.784 68.5124 126.592 68.4828 126.409 68.4224C126.041 68.3064 125.727 68.0606 125.526 67.7307L125.238 67.2806C125.15 67.1408 125.037 67.018 124.905 66.9181C124.638 66.7193 124.313 66.6152 123.98 66.6222H117.9C117.579 66.6222 117.237 66.6222 116.941 66.6222C116.643 66.6597 116.363 66.786 116.137 66.9847C115.7 67.3639 115.654 68.1349 115.079 68.5141C114.815 68.7019 114.502 68.8104 114.179 68.8266H113.274C112.984 68.8187 112.693 68.8256 112.403 68.8475C112.132 68.886 111.876 69.0001 111.666 69.1767C111.461 69.3484 111.315 69.5802 111.249 69.8393C111.209 70.1068 111.197 70.3777 111.212 70.6477C111.212 71.7479 111.212 72.8022 111.212 73.8106C111.212 77.8403 111.178 81.1033 111.17 83.3702C111.17 84.4954 111.17 85.3747 111.17 85.9789C111.17 86.2748 111.17 86.504 111.17 86.6665C111.17 86.829 111.17 86.904 111.17 86.904C111.17 86.904 111.17 86.829 111.17 86.679C111.17 86.529 111.17 86.2998 111.17 86.0123C111.17 85.408 111.17 84.5371 111.17 83.4202C111.17 81.1491 111.145 77.8737 111.128 73.8356C111.128 72.8216 111.128 71.7604 111.128 70.6519C111.114 70.3735 111.126 70.0944 111.166 69.8184C111.24 69.5241 111.405 69.2605 111.637 69.0642C111.874 68.8641 112.163 68.7355 112.47 68.6933C112.768 68.6685 113.067 68.6601 113.366 68.6683H114.174C114.464 68.6563 114.744 68.5592 114.979 68.3891C115.487 68.064 115.508 67.3556 116.016 66.8722C116.269 66.6437 116.587 66.4982 116.925 66.4555C117.271 66.4222 117.579 66.4555 117.908 66.4555H123.988C124.366 66.4488 124.735 66.5675 125.038 66.793C125.19 66.9078 125.32 67.049 125.422 67.2098L125.709 67.6557C125.885 67.9462 126.161 68.1626 126.484 68.2641C126.646 68.3166 126.815 68.342 126.984 68.3391H135.377C135.573 68.3227 135.769 68.3227 135.965 68.3391C136.169 68.3689 136.367 68.4352 136.548 68.5349C136.745 68.641 136.916 68.7902 137.047 68.9713C137.178 69.1524 137.267 69.3608 137.307 69.5809C137.321 69.7932 137.321 70.0062 137.307 70.2185V73.2772C137.307 74.8899 137.307 76.4777 137.307 78.032C137.307 81.1449 137.307 84.1245 137.307 86.9332V87.0291H137.211L118.342 86.929H113.012H111.603H111.128V86.8915Z" fill="#263238"/>
<path d="M123.055 68.0097C122.135 68.1193 121.209 68.1555 120.284 68.118C119.359 68.1555 118.432 68.1193 117.512 68.0097C118.432 67.9026 119.359 67.8663 120.284 67.9013C121.209 67.8663 122.135 67.9026 123.055 68.0097Z" fill="#F0F0F1"/>
<path d="M119.246 93.9424V77.161C119.246 76.3984 120.013 75.7775 120.955 75.7775H122.592C122.899 75.7888 123.203 75.7202 123.474 75.5784C123.746 75.4367 123.977 75.2267 124.143 74.969L124.493 74.3523C124.66 74.0951 124.891 73.8857 125.164 73.7447C125.436 73.6037 125.74 73.5359 126.047 73.548H133.802C134.083 73.5397 134.362 73.5967 134.618 73.7146C134.873 73.8324 135.097 74.0079 135.273 74.2273L135.657 74.7523C135.833 74.9714 136.057 75.1467 136.312 75.2646C136.568 75.3824 136.847 75.4396 137.128 75.4316H147.016C147.958 75.4316 148.725 76.0525 148.725 76.8193V93.9424H119.246Z" fill="#2B3A8C"/>
<path d="M119.246 93.9424H119.392H119.809H121.434L127.51 93.8882L148.708 93.8424L148.608 93.9424C148.608 91.1004 148.608 88.1083 148.608 85.0287V77.907C148.608 77.5111 148.608 77.0735 148.608 76.7026C148.579 76.5172 148.508 76.3408 148.402 76.1864C148.295 76.032 148.155 75.9037 147.992 75.8108C147.651 75.6082 147.257 75.5138 146.862 75.54H137.278C136.872 75.5612 136.468 75.4704 136.111 75.2774C135.932 75.1784 135.773 75.0486 135.64 74.8941C135.515 74.7315 135.415 74.5857 135.298 74.4273C135.103 74.1194 134.809 73.8871 134.465 73.7689C134.119 73.6604 133.755 73.6208 133.394 73.6522H125.93C125.608 73.6681 125.295 73.7671 125.022 73.9398C124.891 74.0259 124.775 74.1312 124.676 74.2523C124.585 74.3864 124.501 74.5255 124.426 74.669C124.343 74.8149 124.268 74.9524 124.176 75.0857C124.079 75.2291 123.959 75.3558 123.822 75.4608C123.549 75.6631 123.229 75.7922 122.892 75.8359C122.234 75.8775 121.642 75.8359 121 75.8359C120.712 75.8214 120.425 75.8789 120.164 76.0034C119.904 76.1278 119.679 76.3151 119.509 76.5484C119.362 76.7863 119.298 77.0665 119.329 77.3444C119.329 77.6319 119.329 77.9195 119.329 78.2028C119.329 78.7696 119.329 79.3196 119.329 79.8697C119.329 84.1953 119.3 87.6999 119.288 90.1294C119.288 91.3421 119.288 92.2839 119.288 92.9339C119.288 93.2507 119.288 93.4965 119.288 93.6674C119.288 93.8382 119.288 93.9257 119.288 93.9257C119.288 93.9257 119.288 93.8466 119.288 93.684C119.288 93.5215 119.288 93.2673 119.288 92.9631C119.288 92.3214 119.288 91.3837 119.288 90.1794C119.288 87.7416 119.263 84.2286 119.246 79.8864C119.246 79.3446 119.246 78.7862 119.246 78.2195C119.246 77.932 119.246 77.6444 119.246 77.3527C119.217 77.0426 119.289 76.7314 119.45 76.4651C119.634 76.2068 119.88 75.9988 120.166 75.8605C120.451 75.7221 120.767 75.6578 121.084 75.6733C121.696 75.6733 122.334 75.6733 122.951 75.6483C123.253 75.6085 123.541 75.4908 123.784 75.3066C124.022 75.0988 124.211 74.8413 124.338 74.5523C124.418 74.4078 124.507 74.2686 124.605 74.1356C124.715 73.9953 124.847 73.8742 124.997 73.7772C125.295 73.5856 125.639 73.475 125.993 73.4564H130.189H133.477C133.862 73.4275 134.25 73.4713 134.619 73.5855C134.997 73.7216 135.32 73.9796 135.536 74.319C135.644 74.469 135.761 74.6315 135.869 74.7732C135.986 74.9089 136.128 75.0219 136.286 75.1066C136.611 75.2832 136.979 75.3641 137.348 75.34H146.933C147.37 75.3128 147.806 75.4173 148.183 75.64C148.375 75.7498 148.54 75.9017 148.665 76.0843C148.79 76.2669 148.872 76.4755 148.904 76.6943C148.904 77.111 148.904 77.5277 148.904 77.9236V85.0454C148.904 88.1375 148.904 91.117 148.904 93.9591V94.0591H148.804L127.551 94.0091L121.488 93.9799H119.884H119.338L119.246 93.9424Z" fill="#263238"/>
<path d="M133.464 75.29C132.248 75.3973 131.026 75.4335 129.806 75.3983C128.583 75.4334 127.36 75.3972 126.143 75.29C127.36 75.1803 128.583 75.1441 129.806 75.1816C131.026 75.144 132.248 75.1802 133.464 75.29Z" fill="#F0F0F1"/>
<g style="mix-blend-mode:multiply">
<path d="M117.5 83.0159H91.2881V105.611H117.5V83.0159Z" fill="#2B3A8C"/>
</g>
<g opacity="0.3">
<path opacity="0.3" d="M117.5 83.0159H91.2881V105.611H117.5V83.0159Z" fill="#2B3A8C"/>
</g>
<path d="M158.818 77.0527H117.5V106.415H158.818V77.0527Z" fill="#2B3A8C"/>
<path d="M158.814 106.415C158.814 106.415 158.814 106.227 158.814 105.877C158.814 105.527 158.814 104.998 158.814 104.319C158.814 102.952 158.814 100.952 158.789 98.3972C158.789 93.2841 158.764 85.9581 158.743 77.0528L158.83 77.1444H117.517L117.625 77.0361C117.625 87.55 117.625 97.5221 117.625 106.398L117.529 106.298L147.312 106.348L155.801 106.377H158.059H158.643H158.843H158.655H158.08H155.842L147.375 106.402L117.508 106.515H117.408V106.415C117.408 97.5388 117.408 87.5666 117.408 77.0528V76.9277H117.508L158.822 76.9486H158.914V77.0361C158.893 85.9623 158.876 93.3132 158.868 98.4347C158.868 100.981 158.868 102.973 158.843 104.336C158.843 105.011 158.843 105.523 158.843 105.877C158.843 106.232 158.814 106.415 158.814 106.415Z" fill="#263238"/>
<g opacity="0.3">
<path opacity="0.3" d="M149.971 96.397H130.802V99.2432H149.971V96.397Z" fill="black"/>
</g>
<path d="M144.099 85.3828H135.427C134.854 85.3828 134.39 85.8474 134.39 86.4205V92.5796C134.39 93.1527 134.854 93.6172 135.427 93.6172H144.099C144.672 93.6172 145.137 93.1527 145.137 92.5796V86.4205C145.137 85.8474 144.672 85.3828 144.099 85.3828Z" fill="#F0F0F1"/>
<path d="M136.677 87.8208H138.874V88.5584H138.761C138.757 88.4525 138.728 88.349 138.677 88.2564C138.625 88.1637 138.553 88.0844 138.465 88.025C138.335 87.9637 138.192 87.9337 138.048 87.9375V89.8461C138.037 89.9408 138.062 90.0363 138.119 90.1128C138.207 90.1689 138.312 90.1925 138.415 90.1794V90.2711H137.111V90.1794C137.21 90.192 137.311 90.1683 137.394 90.1128C137.423 90.0752 137.444 90.0323 137.456 89.9865C137.469 89.9407 137.471 89.893 137.465 89.8461V87.9208C137.321 87.9179 137.179 87.9479 137.048 88.0083C136.956 88.0633 136.881 88.1416 136.829 88.2353C136.777 88.3289 136.751 88.4346 136.752 88.5417H136.677V87.8208Z" fill="#263238"/>
<path d="M142.953 88.0166C141.809 88.1611 140.651 88.1611 139.507 88.0166C140.074 87.9074 140.652 87.871 141.228 87.9083C141.805 87.8709 142.385 87.9073 142.953 88.0166Z" fill="#263238"/>
<path d="M143.02 89.5544C141.876 89.7044 140.718 89.7044 139.574 89.5544C140.718 89.4099 141.876 89.4099 143.02 89.5544Z" fill="#263238"/>
<path d="M143.482 91.0962C142.415 91.2058 141.342 91.242 140.27 91.2045C139.197 91.2421 138.124 91.2059 137.057 91.0962C138.124 90.9889 139.197 90.9527 140.27 90.9878C141.342 90.9529 142.415 90.9891 143.482 91.0962Z" fill="#263238"/>
<path d="M133.085 139.115C133.085 139.115 133.085 138.932 133.085 138.578C133.085 138.223 133.085 137.698 133.085 137.019C133.085 135.652 133.085 133.652 133.06 131.097C133.06 125.988 133.035 118.658 133.014 109.757L133.102 109.845L91.7714 109.849L91.8797 109.74C91.8797 120.25 91.8797 130.222 91.8797 139.098L91.7839 139.003L121.567 139.048L130.056 139.078H132.314H133.098H132.91H132.335H130.097L121.63 139.103L91.7839 139.153H91.6714V139.053C91.6714 130.176 91.6714 120.204 91.6714 109.695V109.586H91.7839L133.098 109.607H133.189V109.695C133.189 118.621 133.156 125.968 133.144 131.089C133.144 133.635 133.144 135.631 133.144 136.994C133.144 137.665 133.144 138.177 133.144 138.532C133.144 138.886 133.085 139.115 133.085 139.115Z" fill="#263238"/>
<g opacity="0.3">
<path opacity="0.3" d="M121.884 127.805H104.406V130.651H121.884V127.805Z" fill="black"/>
</g>
<path d="M117.783 116.741H109.111C108.538 116.741 108.074 117.206 108.074 117.779V123.938C108.074 124.511 108.538 124.976 109.111 124.976H117.783C118.356 124.976 118.821 124.511 118.821 123.938V117.779C118.821 117.206 118.356 116.741 117.783 116.741Z" fill="#F0F0F1"/>
<path d="M112.699 122.088C112.642 122.2 112.552 122.293 112.442 122.355C112.331 122.416 112.205 122.444 112.079 122.433C111.953 122.423 111.833 122.375 111.734 122.296C111.635 122.217 111.562 122.111 111.524 121.99C111.486 121.87 111.484 121.741 111.519 121.619C111.555 121.498 111.625 121.39 111.722 121.309C111.819 121.228 111.938 121.177 112.064 121.164C112.19 121.15 112.317 121.175 112.428 121.234C112.502 121.272 112.568 121.324 112.622 121.388C112.675 121.452 112.716 121.525 112.741 121.605C112.766 121.684 112.775 121.767 112.768 121.85C112.761 121.933 112.738 122.014 112.699 122.088Z" fill="#263238"/>
<path d="M112.716 121.859C112.544 121.39 112.472 120.89 112.504 120.392C112.469 119.899 112.493 119.404 112.574 118.917C112.711 119.394 112.762 119.892 112.724 120.388C112.764 120.877 112.761 121.369 112.716 121.859Z" fill="#263238"/>
<path d="M114.591 119.288C114.309 119.453 113.986 119.536 113.66 119.528C113.333 119.52 113.015 119.421 112.741 119.242C112.57 119.113 112.524 118.975 112.549 118.962C112.574 118.95 112.658 119.029 112.824 119.113C113.045 119.214 113.282 119.276 113.524 119.296C114.104 119.354 114.591 119.221 114.591 119.288Z" fill="#263238"/>
<path d="M114.721 122.459C114.663 122.57 114.573 122.661 114.464 122.722C114.354 122.782 114.229 122.809 114.104 122.798C113.979 122.787 113.86 122.74 113.763 122.661C113.665 122.583 113.592 122.478 113.555 122.358C113.517 122.239 113.515 122.111 113.55 121.991C113.585 121.87 113.654 121.763 113.75 121.682C113.846 121.602 113.964 121.551 114.088 121.537C114.213 121.523 114.338 121.547 114.45 121.604C114.524 121.643 114.589 121.695 114.643 121.759C114.696 121.822 114.737 121.896 114.762 121.975C114.787 122.055 114.797 122.138 114.789 122.221C114.782 122.304 114.759 122.385 114.721 122.459Z" fill="#263238"/>
<path d="M114.737 122.229C114.565 121.761 114.493 121.261 114.525 120.763C114.487 120.27 114.512 119.774 114.6 119.287C114.731 119.766 114.78 120.263 114.745 120.758C114.785 121.248 114.782 121.74 114.737 122.229Z" fill="#263238"/>
<path d="M114.62 119.721C114.323 119.916 113.97 120.011 113.615 119.991C113.259 119.972 112.92 119.839 112.645 119.612C112.678 119.558 113.087 119.75 113.628 119.775C114.17 119.8 114.591 119.658 114.62 119.721Z" fill="#263238"/>
<path d="M133.085 171.074C133.085 171.074 133.085 170.886 133.085 170.532C133.085 170.178 133.085 169.653 133.085 168.977C133.085 167.606 133.085 165.61 133.06 163.052C133.06 157.943 133.035 150.612 133.014 141.711L133.102 141.799L91.7881 141.82L91.8964 141.711C91.8964 152.221 91.8964 162.197 91.8964 171.074L91.8006 170.974L121.584 171.024L130.072 171.049H132.331H132.914H133.114H132.927H132.352H130.114L121.646 171.078L91.8006 171.124H91.6714V171.028C91.6714 162.152 91.6714 152.175 91.6714 141.665V141.557H91.7839L133.098 141.578H133.189V141.665C133.189 150.592 133.156 157.938 133.144 163.06C133.144 165.61 133.144 167.602 133.144 168.965C133.144 169.636 133.144 170.153 133.144 170.507C133.144 170.861 133.085 171.074 133.085 171.074Z" fill="#263238"/>
<g opacity="0.3">
<path opacity="0.3" d="M121.884 159.759H104.406V162.605H121.884V159.759Z" fill="black"/>
</g>
<path d="M117.783 148.591H109.111C108.538 148.591 108.074 149.056 108.074 149.629V155.788C108.074 156.361 108.538 156.826 109.111 156.826H117.783C118.356 156.826 118.821 156.361 118.821 155.788V149.629C118.821 149.056 118.356 148.591 117.783 148.591Z" fill="#F0F0F1"/>
<path d="M114.024 151.804L114.858 152.296C114.893 152.318 114.922 152.349 114.943 152.385C114.963 152.422 114.973 152.463 114.973 152.504C114.973 152.546 114.963 152.587 114.943 152.623C114.922 152.66 114.893 152.691 114.858 152.713L114.024 153.238L113.191 153.746C113.153 153.769 113.11 153.781 113.066 153.782C113.022 153.783 112.978 153.772 112.94 153.75C112.901 153.729 112.869 153.697 112.847 153.659C112.824 153.621 112.812 153.578 112.812 153.534V151.521C112.811 151.477 112.822 151.434 112.843 151.396C112.865 151.357 112.896 151.326 112.934 151.304C112.971 151.282 113.014 151.27 113.058 151.27C113.102 151.27 113.145 151.282 113.183 151.304L114.024 151.804Z" fill="#263238"/>
<path d="M193.768 31.0881C193.768 31.3617 193.687 31.6292 193.535 31.8567C193.383 32.0843 193.167 32.2616 192.914 32.3663C192.662 32.471 192.383 32.4984 192.115 32.445C191.847 32.3917 191.6 32.2599 191.407 32.0664C191.213 31.8729 191.081 31.6264 191.028 31.358C190.975 31.0896 191.002 30.8115 191.107 30.5587C191.211 30.3059 191.389 30.0898 191.616 29.9378C191.844 29.7857 192.111 29.7046 192.385 29.7046C192.752 29.7046 193.104 29.8504 193.363 30.1098C193.623 30.3693 193.768 30.7212 193.768 31.0881Z" fill="#F0F0F1"/>
<path d="M193.768 31.0882C193.768 31.0882 193.748 30.9673 193.685 30.7631C193.597 30.4767 193.419 30.2265 193.177 30.0505C193.001 29.9235 192.797 29.8419 192.583 29.8128C192.368 29.7837 192.15 29.8081 191.947 29.8838C191.701 29.9756 191.489 30.1403 191.34 30.3559C191.19 30.5715 191.11 30.8278 191.11 31.0902C191.11 31.3527 191.19 31.6089 191.34 31.8245C191.489 32.0402 191.701 32.2049 191.947 32.2966C192.15 32.3713 192.368 32.3951 192.583 32.366C192.797 32.337 193.001 32.2559 193.177 32.13C193.418 31.9531 193.596 31.7033 193.685 31.4174C193.748 31.2132 193.752 31.0882 193.768 31.0882C193.801 31.2026 193.801 31.3238 193.768 31.4382C193.708 31.7672 193.53 32.0632 193.268 32.2716C193.075 32.4244 192.847 32.5259 192.604 32.5667C192.362 32.6075 192.113 32.5863 191.881 32.505C191.593 32.4027 191.344 32.2138 191.167 31.9642C190.991 31.7146 190.897 31.4166 190.897 31.1111C190.897 30.8056 190.991 30.5076 191.167 30.258C191.344 30.0084 191.593 29.8195 191.881 29.7171C192.112 29.6341 192.361 29.6115 192.604 29.6517C192.847 29.6918 193.076 29.7932 193.268 29.9463C193.529 30.1553 193.707 30.451 193.768 30.7798C193.794 30.881 193.794 30.987 193.768 31.0882Z" fill="#263238"/>
<path d="M205.762 32.9801C212.084 32.9801 217.209 27.855 217.209 21.5328C217.209 15.2106 212.084 10.0854 205.762 10.0854C199.44 10.0854 194.314 15.2106 194.314 21.5328C194.314 27.855 199.44 32.9801 205.762 32.9801Z" fill="#F0F0F1"/>
<path d="M217.209 21.5328C217.198 21.4707 217.191 21.4081 217.188 21.3453L217.151 20.8035C217.151 20.6841 217.142 20.5451 217.126 20.3868C217.126 20.2409 217.08 20.0826 217.051 19.9117C217 19.5131 216.919 19.1189 216.809 18.7324C216.543 17.6622 216.114 16.639 215.538 15.6987C214.18 13.4325 212.075 11.7107 209.585 10.8298C207.094 9.94896 204.375 9.96425 201.894 10.873C201.395 11.0576 200.907 11.2747 200.436 11.5231C200.194 11.6523 199.965 11.8065 199.727 11.9398C199.488 12.079 199.259 12.2364 199.044 12.4107C198.592 12.7469 198.162 13.1116 197.756 13.5026C197.352 13.9222 196.974 14.3677 196.627 14.8361C195.921 15.7833 195.374 16.8389 195.006 17.9615C194.631 19.1183 194.433 20.3251 194.418 21.5411C194.438 22.7535 194.641 23.956 195.019 25.1083C195.386 26.2322 195.934 27.289 196.64 28.2378C196.978 28.7004 197.349 29.139 197.748 29.5505C198.152 29.944 198.583 30.3102 199.036 30.6465C199.251 30.8208 199.48 30.9782 199.719 31.1174C199.957 31.2591 200.186 31.4091 200.428 31.5341C200.906 31.7833 201.4 32.0005 201.907 32.1842C203.815 32.8773 205.874 33.0485 207.87 32.6801C209.453 32.3815 210.955 31.7511 212.276 30.8303C213.598 29.9094 214.709 28.7191 215.538 27.3377C216.114 26.3988 216.543 25.3771 216.809 24.3081C216.919 23.9216 217 23.5274 217.051 23.1288C217.08 22.958 217.109 22.7996 217.126 22.6538C217.142 22.5079 217.126 22.3746 217.151 22.237L217.188 21.6911C217.192 21.6297 217.198 21.5684 217.209 21.5078C217.213 21.5688 217.213 21.6301 217.209 21.6911C217.209 21.8245 217.209 22.0078 217.209 22.237C217.209 22.3579 217.209 22.4954 217.209 22.6538C217.209 22.8121 217.167 22.9621 217.146 23.133C217.102 23.5354 217.027 23.9339 216.921 24.3248C216.665 25.4066 216.243 26.4425 215.671 27.3961C214.84 28.8034 213.719 30.0179 212.383 30.959C211.046 31.9002 209.525 32.5465 207.92 32.8551C205.892 33.2366 203.798 33.0682 201.857 32.3675C201.34 32.1819 200.836 31.9619 200.348 31.7091C200.103 31.5758 199.869 31.4216 199.627 31.2924C199.384 31.1481 199.15 30.988 198.927 30.8132C198.467 30.4713 198.03 30.0996 197.619 29.7005C197.21 29.2808 196.83 28.8338 196.481 28.3628C195.759 27.3975 195.196 26.3226 194.814 25.1791C194.424 24.0018 194.212 22.7728 194.185 21.5328C194.2 20.294 194.402 19.0646 194.785 17.8865C195.163 16.7411 195.726 15.6656 196.452 14.7027C196.798 14.2308 197.177 13.7838 197.586 13.365C197.997 12.9649 198.436 12.5932 198.898 12.2524C199.121 12.0763 199.357 11.9162 199.602 11.7732C199.844 11.6315 200.078 11.4773 200.323 11.3564C200.809 11.0938 201.311 10.8641 201.828 10.6688C203.639 10.0078 205.588 9.814 207.494 10.1053C209.4 10.3967 211.202 11.1638 212.733 12.3357C213.91 13.2306 214.9 14.3459 215.65 15.6195C216.223 16.5743 216.644 17.6116 216.901 18.6949C217.005 19.0845 217.081 19.4816 217.126 19.8826C217.146 20.0576 217.176 20.2201 217.188 20.366C217.201 20.5118 217.188 20.6452 217.188 20.7827C217.188 21.016 217.188 21.1994 217.188 21.3286C217.201 21.396 217.208 21.4643 217.209 21.5328Z" fill="#263238"/>
<path d="M205.145 23.8998C204.46 23.899 203.791 23.6952 203.222 23.3142C202.653 22.9331 202.21 22.392 201.948 21.7592C201.687 21.1263 201.619 20.4302 201.753 19.7587C201.887 19.0872 202.217 18.4706 202.702 17.9867C203.186 17.5028 203.803 17.1734 204.475 17.0401C205.147 16.9068 205.843 16.9757 206.475 17.2379C207.108 17.5001 207.648 17.944 208.029 18.5134C208.409 19.0827 208.612 19.7521 208.612 20.4368C208.611 21.3556 208.245 22.2365 207.595 22.8858C206.945 23.5351 206.064 23.8998 205.145 23.8998ZM205.145 17.3906C204.543 17.3914 203.954 17.5708 203.454 17.906C202.953 18.2412 202.563 18.7173 202.333 19.274C202.104 19.8307 202.044 20.443 202.162 21.0337C202.28 21.6243 202.57 22.1667 202.996 22.5923C203.423 23.0179 203.965 23.3076 204.556 23.4248C205.147 23.542 205.759 23.4815 206.316 23.2508C206.872 23.0201 207.348 22.6297 207.682 22.1288C208.017 21.6279 208.195 21.0391 208.195 20.4368C208.194 19.6285 207.872 18.8537 207.3 18.2826C206.728 17.7114 205.953 17.3906 205.145 17.3906Z" fill="#263238"/>
<path d="M207.118 23.0333L206.781 23.2781L208.766 26.0129L209.104 25.7681L207.118 23.0333Z" fill="#263238"/>
<path d="M203.49 19.1575C203.315 19.3851 203.19 19.6482 203.125 19.9285C203.06 20.2089 203.057 20.5 203.115 20.7818C203.173 21.0636 203.292 21.3295 203.462 21.5612C203.633 21.793 203.851 21.9852 204.103 22.1245" fill="#F0F0F1"/>
<path d="M204.103 22.1246C204.103 22.1496 203.895 22.0912 203.645 21.8829C203.32 21.603 203.097 21.2234 203.011 20.8034C202.925 20.3834 202.981 19.9467 203.17 19.5617C203.315 19.27 203.474 19.145 203.49 19.145C203.507 19.145 203.411 19.3242 203.311 19.6076C203.177 19.9748 203.149 20.3723 203.23 20.7548C203.311 21.1372 203.498 21.4892 203.77 21.7704C203.957 21.9912 204.12 22.0954 204.103 22.1246Z" fill="#263238"/>
<path d="M193.276 59.246C192.651 48.0862 187.667 42.898 186.192 34.176C185.459 29.7963 185.646 25.3123 182.542 22.1411C181.421 20.9951 179.341 19.82 177.754 19.6408C176.883 19.5324 175.537 19.5658 174.749 19.9366C173.278 19.7199 172.615 19.6491 171.582 19.9366C170.357 20.2783 168.665 21.2243 167.831 22.2078C165.619 24.9081 165.16 28.6211 165.127 32.1132C165.087 37.7616 165.872 43.3855 167.456 48.8071C167.551 49.3391 167.824 49.8228 168.232 50.1781C168.711 50.5032 169.344 50.4407 169.898 50.349C172.07 50.0057 174.203 49.4502 176.266 48.6904C176.561 48.6056 176.834 48.4546 177.062 48.2487C177.629 47.6736 177.391 46.7277 177.133 45.9651L182.788 41.1269C182.413 44.4899 181.329 47.7403 180.85 51.0907C180.277 55.1101 180.581 59.2059 181.742 63.0965C183.936 62.6406 186.196 62.5898 188.409 62.9465C188.943 63.034 189.805 67.2304 190.276 66.9678C191.072 66.5095 193.352 60.1753 193.276 59.246Z" fill="#263238"/>
<path d="M173.207 22.3371L174.812 22.158L180.937 24.625C181.367 24.6498 181.771 24.8349 182.07 25.1436C182.37 25.4522 182.542 25.862 182.554 26.2918L182.517 46.232C182.585 47.5228 182.202 48.7971 181.433 49.8366L180.575 50.9743C178.612 53.5621 174.574 53.3496 173.024 50.495C172.928 50.3335 172.856 50.1596 172.807 49.9783C172.768 49.8317 172.737 49.6828 172.715 49.5324C172.546 48.5419 172.48 47.5362 172.52 46.532C172.411 44.7693 172.378 44.0317 172.378 44.0609C172.378 44.09 168.627 43.6441 167.606 38.8143C167.102 36.4182 167.027 32.451 167.069 29.2047C167.098 26.2835 169.598 22.3371 173.207 22.3371Z" fill="#FFBE9D"/>
<path d="M168.215 33.001C168.223 33.162 168.294 33.3133 168.413 33.423C168.531 33.5326 168.687 33.592 168.848 33.5885C168.928 33.5913 169.007 33.5781 169.081 33.5496C169.155 33.5211 169.223 33.478 169.28 33.4228C169.337 33.3675 169.383 33.3014 169.414 33.2282C169.445 33.155 169.461 33.0763 169.461 32.9968C169.454 32.8347 169.385 32.6814 169.268 32.5694C169.15 32.4574 168.994 32.3955 168.832 32.3967C168.751 32.3945 168.671 32.4085 168.596 32.4379C168.521 32.4673 168.453 32.5115 168.395 32.5679C168.337 32.6243 168.292 32.6917 168.261 32.7661C168.23 32.8405 168.214 32.9204 168.215 33.001Z" fill="#263238"/>
<path d="M174.449 32.6092C174.456 32.7721 174.526 32.9259 174.644 33.038C174.762 33.1501 174.92 33.2116 175.083 33.2093C175.162 33.2109 175.241 33.1968 175.315 33.1676C175.389 33.1385 175.457 33.0949 175.514 33.0395C175.571 32.984 175.616 32.9178 175.647 32.8446C175.678 32.7715 175.695 32.6929 175.695 32.6134C175.689 32.4509 175.619 32.2974 175.5 32.186C175.382 32.0746 175.224 32.0141 175.062 32.0175C174.982 32.0147 174.903 32.0279 174.829 32.0564C174.755 32.0849 174.687 32.128 174.63 32.1832C174.573 32.2385 174.527 32.3046 174.496 32.3778C174.465 32.451 174.449 32.5297 174.449 32.6092Z" fill="#263238"/>
<path d="M167.986 31.209C168.065 31.284 168.519 30.9131 169.19 30.8798C169.861 30.8464 170.369 31.159 170.44 31.0756C170.511 30.9923 170.39 30.8923 170.165 30.7464C169.865 30.5621 169.517 30.4735 169.165 30.4922C168.817 30.5086 168.482 30.6356 168.211 30.8548C168.007 31.0256 167.932 31.1756 167.986 31.209Z" fill="#263238"/>
<path d="M174.345 30.8632C174.428 30.9382 174.87 30.5507 175.541 30.5007C176.212 30.4506 176.724 30.7465 176.791 30.659C176.858 30.5715 176.733 30.4798 176.508 30.3381C176.203 30.1619 175.851 30.0833 175.499 30.1131C175.151 30.1412 174.82 30.2782 174.553 30.5048C174.362 30.6715 174.303 30.8299 174.345 30.8632Z" fill="#263238"/>
<path d="M172.445 36.089C172.085 35.9979 171.716 35.9504 171.345 35.9473C171.174 35.9473 171.011 35.914 170.974 35.7973C170.951 35.6211 170.983 35.4421 171.065 35.2847L171.503 33.9554C172.115 32.0676 172.545 30.5132 172.47 30.4924C172.395 30.4716 171.836 31.9801 171.22 33.872C171.074 34.3387 170.932 34.7805 170.803 35.2055C170.706 35.4173 170.687 35.6562 170.749 35.8806C170.776 35.9408 170.817 35.9937 170.868 36.035C170.919 36.0763 170.98 36.1048 171.044 36.1181C171.14 36.1399 171.238 36.1483 171.336 36.1431C171.706 36.1729 172.079 36.1546 172.445 36.089Z" fill="#263238"/>
<path d="M172.378 44.0441C174.669 43.9575 176.891 43.2361 178.795 41.9604C178.795 41.9604 177.329 45.4067 172.445 45.1942L172.378 44.0441Z" fill="#EB996E"/>
<path d="M172.807 37.6891C172.927 37.5223 173.088 37.3888 173.274 37.3013C173.46 37.2138 173.665 37.1752 173.87 37.189C174.018 37.1947 174.164 37.2304 174.298 37.2942C174.432 37.358 174.551 37.4484 174.649 37.5599C174.744 37.6674 174.803 37.8009 174.82 37.943C174.838 38.0851 174.811 38.229 174.745 38.3559C174.641 38.48 174.504 38.5714 174.349 38.6187C174.194 38.6661 174.029 38.6674 173.874 38.6226C173.553 38.5245 173.254 38.3645 172.995 38.1517C172.915 38.1027 172.846 38.0391 172.791 37.9641C172.766 37.9269 172.753 37.8835 172.753 37.8391C172.753 37.7947 172.766 37.7513 172.791 37.7141" fill="#EB996E"/>
<path d="M174.441 36.4556C174.328 36.4556 174.366 37.1807 173.77 37.7308C173.174 38.2808 172.395 38.235 172.391 38.3392C172.387 38.4434 172.574 38.4684 172.899 38.4642C173.325 38.4467 173.732 38.2817 174.049 37.9975C174.355 37.7233 174.54 37.3402 174.566 36.9307C174.599 36.6265 174.491 36.4473 174.441 36.4556Z" fill="#263238"/>
<path d="M174.341 28.4297C174.441 28.5964 174.999 28.3672 175.704 28.2963C176.408 28.2255 177.008 28.2963 177.058 28.113C177.079 28.0296 176.941 27.8838 176.679 27.7671C176.34 27.6261 175.971 27.5758 175.608 27.6212C175.247 27.6583 174.903 27.7922 174.612 28.0088C174.387 28.1713 174.295 28.3547 174.341 28.4297Z" fill="#263238"/>
<path d="M167.84 28.6672C167.965 28.8131 168.419 28.6339 168.974 28.5964C169.528 28.5589 170.003 28.6506 170.103 28.4839C170.149 28.4047 170.065 28.2547 169.853 28.1213C169.568 27.9617 169.242 27.8906 168.917 27.9174C168.592 27.9441 168.282 28.0674 168.028 28.2714C167.84 28.438 167.782 28.5881 167.84 28.6672Z" fill="#263238"/>
<path d="M181.604 34.4512C181.604 34.0886 181.963 33.201 182.317 33.1426C183.263 32.9468 184.984 32.9385 185.121 35.3596C185.309 38.6684 181.95 38.1725 181.938 38.0808C181.925 37.9891 181.683 35.7013 181.604 34.4512Z" fill="#FFBE9D"/>
<path d="M182.879 36.7682C182.879 36.7682 182.938 36.8057 183.038 36.8432C183.172 36.8957 183.32 36.8957 183.454 36.8432C183.8 36.6973 184.063 36.1264 184.042 35.5263C184.037 35.2363 183.965 34.9513 183.834 34.6929C183.797 34.5913 183.736 34.5003 183.656 34.4277C183.576 34.355 183.48 34.303 183.375 34.2762C183.308 34.2626 183.238 34.2731 183.178 34.3059C183.118 34.3387 183.071 34.3916 183.046 34.4554C183.004 34.547 183.046 34.6137 183.013 34.622C182.979 34.6304 182.942 34.5679 182.958 34.4304C182.972 34.3483 183.013 34.2734 183.075 34.2178C183.118 34.1796 183.168 34.1506 183.223 34.1327C183.277 34.1148 183.335 34.1083 183.392 34.1136C183.529 34.1329 183.659 34.1871 183.769 34.2711C183.879 34.355 183.966 34.4658 184.021 34.5929C184.18 34.8715 184.267 35.185 184.275 35.5055C184.275 36.1723 183.984 36.814 183.513 36.9807C183.426 37.0123 183.333 37.0236 183.241 37.0134C183.149 37.0033 183.061 36.9721 182.983 36.9224C182.888 36.8473 182.867 36.7765 182.879 36.7682Z" fill="#EB996E"/>
<path d="M183.35 29.4881C183.58 28.1712 183.084 26.321 182.742 25.0291C182.404 23.9579 181.702 23.0383 180.758 22.4288C179.305 21.3851 177.546 20.8544 175.758 20.9203L175.095 21.137C174.12 21.0578 173.07 21.2661 172.532 22.0538L172.511 22.0788V21.1703C170.732 21.387 169.178 22.5705 168.144 24.0373C167.111 25.5042 166.536 27.2378 166.061 28.9713C168.248 27.0127 170.619 24.85 172.445 22.5413C174.357 25.0416 177.187 26.6502 179.771 28.5213C180.229 29.7395 180.436 31.038 180.379 32.3384C180.379 35.5889 181.067 38.5268 181.321 41.773C181.467 43.6399 181.454 45.2402 183.367 45.0776C183.617 39.0727 182.338 35.3805 183.35 29.4881Z" fill="#263238"/>
<path d="M185.538 29.238C185.243 29.3401 184.934 29.3963 184.621 29.4047C183.87 29.4668 183.114 29.436 182.371 29.313C181.63 29.1856 180.904 28.9773 180.208 28.6921C179.912 28.5943 179.631 28.4539 179.375 28.2754C179.404 28.2004 180.7 28.8088 182.404 29.1088C183.444 29.2368 184.492 29.28 185.538 29.238Z" fill="black"/>
<path d="M185.017 27.4586C184.84 27.4689 184.662 27.4577 184.488 27.4253C184.15 27.3961 183.654 27.3211 183.063 27.2128C181.495 26.9126 179.959 26.4604 178.479 25.8626C177.004 25.2629 175.592 24.5203 174.262 23.6456C173.753 23.3081 173.353 23.0205 173.086 22.8122C172.934 22.7138 172.794 22.5977 172.67 22.4663C172.829 22.5432 172.98 22.6368 173.12 22.7455C173.399 22.9372 173.811 23.2039 174.328 23.5206C175.686 24.3563 177.112 25.0756 178.591 25.6709C180.056 26.2599 181.567 26.7268 183.109 27.0669C183.7 27.2003 184.184 27.2961 184.517 27.3503C184.687 27.3712 184.854 27.4074 185.017 27.4586Z" fill="black"/>
<path d="M167.031 27.8462C166.832 28.1864 166.572 28.4872 166.265 28.7338C165.802 29.1839 165.394 29.5131 165.352 29.4672C165.55 29.1296 165.808 28.8314 166.115 28.588C166.37 28.2845 166.681 28.0328 167.031 27.8462Z" fill="black"/>
<path d="M172.416 49.8407C172.782 49.1989 172.503 46.5527 172.503 46.5527L171.649 48.1029C169.836 48.8072 167.34 49.8115 166.648 50.3032C165.602 51.0367 164.185 54.1287 164.185 54.1287L155.434 65.2052L139.053 62.3382L137.511 70.5309L143.041 71.6769L152.755 72.927C155.484 73.5188 158.143 73.7355 160.281 71.9436L160.427 71.6602C159.656 82.7033 160.718 94.8758 161.081 105.94C161.049 106.808 161.207 107.672 161.543 108.473C162.098 109.565 164.165 110.14 165.381 109.978C166.598 109.815 166.215 109.04 166.469 107.844C166.611 107.19 165.998 106.281 165.915 105.615C164.726 96.0051 163.537 86.3955 162.348 76.7859C162.306 76.1942 162.268 75.6441 162.227 75.1565C161.81 70.0767 161.748 68.7015 161.968 66.3762C162.331 62.7882 169.924 54.1871 172.416 49.8407Z" fill="#1C75BB"/>
<path d="M163.268 57C163.2 57.1739 163.117 57.3413 163.018 57.5001C162.843 57.8084 162.602 58.2668 162.327 58.8419C160.881 61.8461 160.112 65.1305 160.072 68.464C160.072 69.1016 160.072 69.6183 160.097 69.9725C160.116 70.1582 160.116 70.3453 160.097 70.531C160.048 70.3513 160.019 70.1669 160.01 69.9809C159.968 69.6225 159.935 69.1058 159.922 68.464C159.896 66.7814 160.077 65.102 160.46 63.4634C160.844 61.8311 161.425 60.2513 162.189 58.7586C162.419 58.3054 162.672 57.8645 162.948 57.4376C163.039 57.2806 163.146 57.1339 163.268 57Z" fill="#263238"/>
<g opacity="0.3">
<path opacity="0.3" d="M162.098 58.9128C160.818 60.7589 159.639 62.7425 159.076 64.9261C158.514 67.1098 158.872 68.3474 158.822 70.6394L160.135 70.9353C159.856 66.8264 160.014 64.1135 162.098 58.9128Z" fill="black"/>
</g>
<path d="M161.631 64.9262C161.621 64.8542 161.621 64.7814 161.631 64.7095C161.653 64.5037 161.687 64.2992 161.731 64.0969C161.903 63.3561 162.126 62.6279 162.397 61.9174C163.302 59.5813 164.342 57.2994 165.51 55.0832C165.894 54.3414 166.273 53.6247 166.648 52.9412L166.677 52.8871H166.735L168.115 52.8621L168.027 53.0037C167.914 52.7512 167.726 52.539 167.49 52.3953L167.394 52.337L167.465 52.2495C168.383 51.1503 169.372 50.1132 170.428 49.1449C170.811 48.7949 171.124 48.524 171.34 48.349C171.446 48.2496 171.562 48.1617 171.686 48.0864C171.594 48.1979 171.492 48.3011 171.382 48.3948L170.507 49.2282C169.485 50.2226 168.52 51.273 167.615 52.3745L167.59 52.2286C167.861 52.3923 168.077 52.6332 168.211 52.9204L168.273 53.0579H168.119L166.744 53.0954L166.831 53.0412C166.46 53.7205 166.085 54.4373 165.702 55.179C164.364 57.7794 163.235 60.1797 162.543 61.9674C162.261 62.6688 162.017 63.3853 161.814 64.1135C161.701 64.6345 161.651 64.9262 161.631 64.9262Z" fill="#263238"/>
<path d="M178.237 164.135L183.609 172.774C183.609 172.774 176.624 181.137 177.458 182.833L194.602 173.028L186.784 159.209L178.237 164.135Z" fill="#2B3A8C"/>
<path d="M188.484 169.023C188.678 168.985 188.879 169.017 189.052 169.113C189.224 169.209 189.357 169.363 189.426 169.548C189.478 169.74 189.454 169.944 189.359 170.118C189.264 170.293 189.106 170.424 188.918 170.486C188.712 170.531 188.497 170.499 188.314 170.396C188.13 170.293 187.991 170.126 187.922 169.927C187.889 169.722 187.937 169.511 188.056 169.34C188.175 169.169 188.355 169.051 188.559 169.011" fill="#E0E0E0"/>
<g opacity="0.6">
<path opacity="0.6" d="M194.602 173.028L193.768 171.665L177.645 181.587C177.645 181.587 177.074 182.354 177.466 182.837L194.602 173.028Z" fill="#F0F0F1"/>
</g>
<path d="M183.279 172.853C183.334 172.936 183.771 172.736 184.338 172.769C184.905 172.803 185.326 173.028 185.384 172.949C185.442 172.869 185.038 172.461 184.355 172.432C183.671 172.403 183.217 172.774 183.279 172.853Z" fill="#263238"/>
<path d="M181.908 174.628C181.938 174.72 182.379 174.653 182.867 174.845C183.354 175.037 183.65 175.366 183.734 175.312C183.817 175.257 183.596 174.757 182.984 174.532C182.371 174.307 181.867 174.545 181.908 174.628Z" fill="#263238"/>
<path d="M182.121 177.358C182.204 177.333 182.084 176.849 181.604 176.524C181.125 176.199 180.633 176.232 180.637 176.324C180.642 176.416 181.025 176.52 181.413 176.799C181.8 177.078 182.034 177.403 182.121 177.358Z" fill="#263238"/>
<path d="M182.275 170.748C182.354 170.803 182.671 170.469 183.163 170.228C183.654 169.986 184.109 169.928 184.113 169.832C184.117 169.736 183.588 169.64 183.013 169.928C182.438 170.215 182.196 170.69 182.275 170.748Z" fill="#263238"/>
<path d="M178.983 167.685L179.562 177.849C179.562 177.849 169.423 181.854 169.348 183.742L189.097 183.325L188.843 167.448L178.983 167.685Z" fill="#2B3A8C"/>
<path d="M185.651 176.866C185.842 176.92 186.006 177.042 186.112 177.21C186.218 177.378 186.259 177.579 186.226 177.775C186.179 177.968 186.06 178.136 185.893 178.244C185.727 178.353 185.525 178.393 185.33 178.358C185.125 178.304 184.949 178.174 184.836 177.994C184.724 177.814 184.685 177.599 184.725 177.391C184.795 177.194 184.938 177.032 185.124 176.939C185.311 176.846 185.527 176.828 185.726 176.891" fill="#E0E0E0"/>
<g opacity="0.6">
<path opacity="0.6" d="M189.097 183.329L189.009 181.729L170.107 182.725C170.107 182.725 169.236 183.142 169.348 183.742L189.097 183.329Z" fill="#F0F0F1"/>
</g>
<path d="M179.237 177.774C179.237 177.87 179.725 177.903 180.208 178.191C180.692 178.479 180.95 178.891 181.042 178.854C181.133 178.816 180.975 178.258 180.388 177.903C179.8 177.549 179.217 177.67 179.237 177.774Z" fill="#263238"/>
<path d="M177.183 178.658C177.183 178.754 177.6 178.908 177.92 179.308C178.241 179.708 178.362 180.141 178.458 180.141C178.554 180.141 178.604 179.587 178.175 179.095C177.745 178.604 177.187 178.566 177.183 178.658Z" fill="#263238"/>
<path d="M176.062 181.162C176.149 181.162 176.274 180.696 176.016 180.175C175.758 179.654 175.299 179.45 175.262 179.529C175.224 179.608 175.508 179.887 175.712 180.32C175.916 180.754 175.966 181.154 176.062 181.162Z" fill="#263238"/>
<path d="M179.362 175.428C179.404 175.512 179.846 175.37 180.391 175.395C180.937 175.42 181.367 175.587 181.412 175.503C181.458 175.42 181.046 175.086 180.404 175.061C179.762 175.036 179.316 175.353 179.362 175.428Z" fill="#263238"/>
<path d="M164.252 91.7463C164.252 91.7463 163.348 135.006 164.164 138.002C164.981 140.999 181.683 171.615 181.683 171.615L191.772 166.66L178.391 134.331L181.362 92.7631L164.252 91.7463Z" fill="#263238"/>
<path d="M186.38 89.3293C186.38 89.3293 192.181 98.7973 191.152 104.481C190.735 106.811 187.559 111.982 187.559 111.982V139.719L190.018 176.728H178.241L173.195 144.082C173.195 144.082 171.428 141.086 170.745 138.498C170.061 135.91 167.857 105.348 167.857 105.348L164.335 92.9173L186.38 89.3293Z" fill="#263238"/>
<path d="M188.855 157.176C188.833 157.435 188.833 157.696 188.855 157.955C188.855 158.455 188.909 159.18 188.959 160.072C189.059 161.864 189.239 164.331 189.443 167.056C189.647 169.782 189.83 172.249 189.943 174.036C190.001 174.899 190.051 175.612 190.084 176.153C190.091 176.413 190.118 176.672 190.164 176.928C190.184 176.669 190.184 176.408 190.164 176.149C190.164 175.645 190.139 174.899 190.101 174.028C190.03 172.236 189.876 169.765 189.684 167.04C189.493 164.314 189.268 161.889 189.126 160.059C189.055 159.201 188.993 158.488 188.947 157.947C188.937 157.688 188.907 157.43 188.855 157.176Z" fill="black"/>
<path d="M185.126 94.1716C185.035 94.3038 184.929 94.4241 184.809 94.53C184.499 94.8385 184.162 95.1175 183.8 95.3634C182.603 96.1739 181.209 96.6461 179.766 96.7305C178.322 96.8148 176.883 96.5081 175.599 95.8427C175.213 95.6479 174.846 95.4163 174.503 95.1509C174.371 95.0619 174.252 94.9554 174.149 94.8342C174.174 94.7967 174.691 95.2509 175.67 95.7052C176.942 96.3136 178.347 96.5896 179.754 96.5072C181.162 96.4249 182.525 95.9869 183.717 95.2343C184.63 94.6425 185.096 94.1425 185.126 94.1716Z" fill="black"/>
<path d="M167.957 102.877C167.967 102.928 167.974 102.979 167.978 103.031C167.978 103.144 167.998 103.29 168.015 103.477C168.044 103.894 168.086 104.465 168.14 105.202C168.244 106.719 168.394 108.882 168.578 111.553C168.953 116.916 169.411 124.326 170.14 132.493C170.24 133.606 170.349 134.702 170.478 135.777C170.549 136.315 170.603 136.852 170.72 137.357C170.856 137.862 171.02 138.361 171.211 138.848C171.941 140.803 172.716 142.645 173.453 144.374C174.237 149.404 174.899 153.659 175.366 156.667C175.612 158.155 175.804 159.334 175.937 160.155C176.008 160.547 176.062 160.855 176.1 161.076C176.129 161.18 176.152 161.286 176.166 161.393C176.128 161.292 176.096 161.189 176.07 161.085C176.025 160.876 175.95 160.568 175.875 160.168C175.716 159.364 175.504 158.184 175.249 156.688C174.737 153.696 174.045 149.441 173.257 144.407V144.437C172.512 142.707 171.732 140.865 170.999 138.907C170.803 138.414 170.636 137.91 170.499 137.398C170.374 136.861 170.32 136.327 170.249 135.79C170.12 134.71 170.007 133.61 169.911 132.498C169.194 124.326 168.744 116.912 168.411 111.549L168.044 105.194L167.957 103.465C167.957 103.277 167.957 103.127 167.957 103.014C167.953 102.969 167.953 102.923 167.957 102.877Z" fill="black"/>
<path d="M172.549 48.3863C172.549 48.3863 172.424 50.2866 173.962 50.2866C176.129 50.2866 180.675 46.1194 180.675 46.1194L171.924 67.0055V92.263L164.51 93.0423C164.51 93.0423 163.644 92.9172 163.469 91.6671C163.119 89.2209 163.169 84.762 162.885 82.9159C162.006 77.2068 160.272 74.0981 160.514 69.5808C160.881 62.8591 170.336 51.2451 170.336 51.2451L172.549 48.3863Z" fill="#F0F0F1"/>
<path d="M181.684 43.4858C180.588 45.5384 179.368 47.5216 178.029 49.4241C176.141 52.0536 164.156 70.4144 164.156 70.4144L168.944 107.661L169.478 110.816C169.513 111.026 169.59 111.227 169.704 111.406C169.819 111.586 169.969 111.74 170.145 111.86C170.321 111.98 170.52 112.063 170.729 112.104C170.938 112.145 171.153 112.144 171.361 112.099L192.531 108.378C192.799 108.331 193.054 108.227 193.279 108.074C193.504 107.921 193.694 107.722 193.836 107.49C193.978 107.257 194.07 106.998 194.104 106.728C194.138 106.458 194.115 106.184 194.035 105.923L184.601 79.3531L190.701 55.775C190.701 55.775 190.481 52.3453 186.763 48.8615C186.055 48.199 183.13 45.7736 182.65 45.1111L181.684 43.4858Z" fill="#1C75BB"/>
<g opacity="0.3">
<path opacity="0.3" d="M165.66 82.1076C165.66 82.1076 175.403 89.8336 180.15 89.9086C184.896 89.9836 187.359 85.9622 187.359 85.9622L177.816 86.2248L165.314 79.353L165.66 82.1076Z" fill="black"/>
</g>
<path d="M158.426 74.7939C158.426 74.7939 167.219 80.603 168.844 81.7031C170.47 82.8033 178.141 87.258 179.142 87.5831C180.142 87.9081 186.347 87.9456 187.476 85.837C188.605 83.7284 189.38 79.2278 189.38 79.2278L190.889 58.175C191.039 56.2188 190.504 54.2712 189.376 52.6659C188.468 51.3824 187.268 50.224 185.967 50.4156C183.196 50.8324 177.237 57.5291 177.525 60.9712C177.812 64.4133 177.816 74.0021 177.816 74.0021L162.118 68.8056L158.426 74.7939Z" fill="#1C75BB"/>
<path d="M189.376 52.6411C189.479 52.7747 189.575 52.9138 189.664 53.0578C189.924 53.4632 190.147 53.8914 190.33 54.3372C190.625 55.0573 190.818 55.8145 190.905 56.5875C190.977 57.6334 190.953 58.6837 190.835 59.7254C190.505 64.4177 190.043 71.0977 189.489 79.0904C189.33 79.9906 189.137 80.9004 188.909 81.82C188.686 82.7594 188.408 83.6847 188.076 84.5912C187.914 85.0686 187.69 85.5226 187.409 85.9413C187.089 86.3492 186.678 86.6762 186.209 86.8956C185.275 87.3538 184.271 87.6511 183.238 87.7749C182.184 87.9377 181.115 87.9671 180.054 87.8624C179.506 87.8219 178.971 87.6806 178.475 87.4457C177.991 87.1998 177.516 86.9373 177.037 86.6748C175.132 85.608 173.207 84.487 171.261 83.341C168.936 81.9908 166.773 80.4656 164.623 79.0571L158.372 74.8899L158.289 74.8357L158.339 74.7482L162.039 68.6516L162.081 68.5849L162.156 68.6099L177.845 73.9314L177.749 73.9939C178.07 70.0767 178.329 66.9638 178.504 64.8261C178.595 63.7634 178.666 62.9425 178.712 62.3799C178.737 62.1049 178.758 61.8965 178.77 61.7465C178.783 61.5965 178.8 61.534 178.8 61.534C178.8 61.534 178.8 61.609 178.8 61.7506C178.8 61.8923 178.779 62.109 178.762 62.3841C178.72 62.9466 178.662 63.7717 178.587 64.8344C178.429 66.9805 178.195 70.0934 177.9 74.0023V74.0939L177.812 74.0648L162.097 68.7849L162.21 68.7432C161.029 70.6879 159.8 72.7229 158.522 74.8482L158.489 74.7107L164.739 78.8571C166.894 80.2614 169.048 81.7741 171.369 83.1285C173.311 84.2828 175.237 85.4038 177.137 86.4622C177.616 86.7248 178.091 86.9915 178.566 87.2332C179.038 87.4661 179.55 87.6075 180.075 87.6499C181.116 87.7531 182.166 87.7265 183.2 87.5707C184.213 87.448 185.199 87.1579 186.117 86.7123C186.558 86.5053 186.946 86.2002 187.251 85.8205C187.518 85.4155 187.733 84.9787 187.892 84.5203C188.224 83.6207 188.502 82.7023 188.726 81.77C188.951 80.8573 189.143 79.9489 189.305 79.0613C189.889 71.0727 190.38 64.3885 190.726 59.7004C190.852 58.665 190.884 57.6203 190.822 56.5791C190.744 55.8117 190.56 55.0587 190.276 54.3413C190.103 53.895 189.89 53.4654 189.639 53.0578C189.559 52.9161 189.489 52.8161 189.443 52.7453L189.376 52.6411Z" fill="#263238"/>
<path d="M166.827 66.2719C166.88 66.1907 166.943 66.1165 167.015 66.0511L167.586 65.4343L169.669 63.1715L172.795 59.8378C173.995 58.5876 175.274 57.1958 176.787 55.8706V56.0248L176.658 55.8831L175.603 54.7163L175.428 54.5204H175.687L177.649 54.6246L177.554 54.6788C179.129 51.9326 180.5 49.5447 181.496 47.8153C181.983 46.9819 182.375 46.3068 182.663 45.8234L182.983 45.2942C183.017 45.2305 183.058 45.1704 183.104 45.115C183.084 45.1841 183.055 45.25 183.017 45.3108L182.725 45.8568L181.612 47.882C180.633 49.6198 179.287 52.0201 177.733 54.7829L177.704 54.8371H177.637L175.678 54.7371L175.762 54.5579L176.82 55.7289L176.945 55.8664L177.02 55.9498L176.937 56.0248C175.449 57.3291 174.153 58.7293 172.953 59.9628L169.79 63.2716C168.894 64.2133 168.161 64.9718 167.648 65.4885C167.39 65.7469 167.19 65.9469 167.052 66.0761C166.982 66.1468 166.907 66.2122 166.827 66.2719Z" fill="#263238"/>
<g opacity="0.3">
<path opacity="0.3" d="M166.123 67.4389L178.041 56.1999L177.029 55.0872H178.041L178.308 53.5537L177.641 54.733L175.678 54.633L176.837 55.6957L166.931 66.1679L166.123 67.4389Z" fill="black"/>
</g>
<path d="M173.649 96.7261C173.715 96.7053 173.781 96.6886 173.849 96.6761L174.453 96.5427L176.758 96.0635L184.788 94.4299H184.859L184.896 94.4924L187.113 98.0971L187.192 98.2304L187.038 98.2596L186.78 98.3096L175.062 100.51H175.003L174.982 100.456L173.982 97.7012C173.878 97.4012 173.791 97.1595 173.728 96.9761C173.697 96.8972 173.67 96.8165 173.649 96.7344C173.692 96.8192 173.73 96.907 173.761 96.9969C173.836 97.1803 173.936 97.4137 174.057 97.7262L175.116 100.406L175.037 100.36L186.738 98.0887L187.001 98.0387L186.926 98.2013L184.721 94.5925L184.83 94.6425L176.854 96.1593L174.512 96.576L173.878 96.6886C173.803 96.7064 173.726 96.7189 173.649 96.7261Z" fill="#263238"/>
<g opacity="0.3">
<path opacity="0.3" d="M173.782 97.0762L174.628 101.452L186.763 99.264L186.421 98.2513L175.049 100.422L173.782 97.0762Z" fill="black"/>
</g>
<path d="M180.879 77.6651C180.821 77.6943 180.316 76.6941 179.408 75.6732C178.5 74.6522 177.583 74.0063 177.62 73.9604C178.374 74.3384 179.039 74.8726 179.571 75.5273C180.156 76.1372 180.602 76.8665 180.879 77.6651Z" fill="#263238"/>
<path d="M137.186 64.105C137.186 64.105 134.148 62.2798 132.931 61.1171C132.931 61.1171 131.16 60.5587 130.347 61.6755C130.347 61.6755 128.472 62.1923 128.218 62.5423C127.964 62.8924 126.397 65.3219 126.397 65.3219C126.397 65.3219 127.23 68.2181 127.305 68.3598C127.46 68.6765 127.797 69.014 128.085 68.664C128.18 68.5468 128.229 68.3984 128.222 68.2473V68.0556L128.681 67.7347C128.681 67.7347 128.881 68.8598 129.489 68.6848C130.097 68.5098 131.464 67.4972 131.464 67.4972C131.464 67.4972 133.39 68.5931 134.406 68.7015C135.53 68.893 136.643 69.1434 137.74 69.4516L138.761 63.9425L137.186 64.105Z" fill="#FFBE9D"/>
<path d="M128.135 68.3015C128.135 68.3015 128.064 68.3806 127.893 68.3473C127.784 68.3103 127.688 68.244 127.614 68.1558C127.541 68.0676 127.493 67.9608 127.476 67.8472C127.393 67.144 127.393 66.4335 127.476 65.7303C127.551 65.0306 127.66 64.3352 127.806 63.6467C127.845 63.36 127.922 63.0797 128.035 62.8132C128.106 62.8132 127.868 64.1342 127.689 65.7303C127.61 66.4149 127.585 67.1046 127.614 67.7931C127.621 67.8886 127.653 67.9807 127.707 68.0597C127.761 68.1388 127.836 68.2021 127.922 68.2431C128.047 68.3181 128.131 68.2848 128.135 68.3015Z" fill="#EB996E"/>
<path d="M131.702 63.5508C131.31 63.9272 130.804 64.1619 130.264 64.2175L130.352 64.1384L130.326 64.2425C130.227 64.7992 130.058 65.3411 129.822 65.8553C129.849 65.2896 129.947 64.7296 130.114 64.1884L130.139 64.08V64.0133H130.21C130.718 63.8952 131.216 63.7406 131.702 63.5508Z" fill="#EB996E"/>
<path d="M134.177 63.9301C133.967 63.7106 133.695 63.5603 133.397 63.4992C133.099 63.4382 132.79 63.4693 132.51 63.5884L132.189 64.0052L129.793 66.0054C129.349 66.3249 128.982 66.7391 128.718 67.2181C128.592 67.4595 128.548 67.7354 128.593 68.0039C128.639 68.2724 128.77 68.5189 128.968 68.7058C129.456 69.085 130.189 68.8725 130.668 68.4807C131.148 68.089 131.502 67.5556 131.994 67.1889C132.769 66.6222 133.894 66.468 134.369 65.6345C134.516 65.3651 134.576 65.057 134.542 64.7521C134.507 64.4473 134.38 64.1603 134.177 63.9301Z" fill="#FFBE9D"/>
<path d="M132.319 63.1758C132.348 63.4818 132.273 63.7888 132.106 64.0467C131.947 64.3352 131.743 64.5968 131.502 64.8218C131.208 65.0916 130.894 65.3369 130.56 65.5553C129.956 65.9103 129.419 66.3704 128.977 66.9138C128.817 67.1578 128.678 67.4142 128.56 67.6805C128.559 67.3796 128.657 67.0866 128.839 66.8471C129.016 66.57 129.232 66.3201 129.481 66.1053C129.781 65.847 130.099 65.609 130.431 65.3927C130.753 65.1787 131.062 64.9449 131.356 64.6927C131.591 64.4873 131.795 64.2502 131.964 63.9884C132.108 63.7293 132.226 63.4572 132.319 63.1758Z" fill="#EB996E"/>
<path d="M144.391 72.802C144.391 72.802 144.474 69.8141 145.225 68.9307C145.975 68.0472 150.429 66.9263 150.429 66.9263L161.531 69.5016L158.951 73.6688L158.172 72.9354C158.172 72.9354 154.659 73.9814 152.93 73.5938C151.897 73.3676 150.883 73.0583 149.9 72.6687L148.092 72.7937C148.092 72.7937 146.787 74.1397 146.366 74.1397C145.945 74.1397 145.483 73.7647 145.691 73.3438L145.312 72.7104C145.312 72.7104 144.562 73.1771 144.391 72.802Z" fill="#FFBE9D"/>
<path d="M150.221 70.7227C149.98 70.8706 149.71 70.9631 149.429 70.9936C148.775 71.0708 148.127 71.1976 147.491 71.3728C146.888 71.6143 146.393 72.0677 146.1 72.648C145.983 72.8979 145.844 73.1365 145.683 73.3605C145.732 73.0838 145.828 72.8175 145.966 72.5729C146.1 72.2957 146.271 72.0377 146.475 71.8062C146.731 71.5191 147.055 71.3 147.416 71.1686C148.066 70.9868 148.734 70.8764 149.408 70.8394C149.908 70.7852 150.208 70.6769 150.221 70.7227Z" fill="#EB996E"/>
<path d="M149.338 68.5057C149.338 68.539 148.988 68.5974 148.437 68.7891C148.117 68.9005 147.803 69.0284 147.496 69.1724C147.119 69.333 146.766 69.5432 146.446 69.7975C146.305 69.9496 146.185 70.1191 146.087 70.3018C145.979 70.4768 145.883 70.656 145.8 70.8268C145.648 71.1276 145.528 71.4432 145.441 71.7686C145.295 72.3229 145.32 72.6896 145.279 72.6896C145.198 72.3751 145.198 72.0456 145.279 71.7311C145.349 71.3887 145.46 71.0558 145.608 70.7393C145.691 70.5601 145.783 70.3768 145.891 70.1934C145.995 69.9898 146.127 69.8019 146.283 69.635C146.623 69.3678 146.999 69.1504 147.4 68.9891C147.718 68.8522 148.045 68.7367 148.379 68.6432C148.686 68.5338 149.012 68.4871 149.338 68.5057Z" fill="#EB996E"/>
</svg>
