<svg width="126" height="206" viewBox="0 0 126 206" fill="none" xmlns="http://www.w3.org/2000/svg">
<path d="M115.147 72.7458L120.836 65.7246L115.147 72.7458Z" fill="white"/>
<path d="M120.813 65.7246C119.96 66.9685 119.042 68.1659 118.061 69.3118C117.143 70.5072 116.163 71.6535 115.124 72.7458C115.978 71.5044 116.896 70.3085 117.876 69.1633C118.795 67.967 119.775 66.8192 120.813 65.7246Z" fill="#E0E0E0"/>
<path d="M22.5669 0C21.7478 0.80619 20.8716 1.55217 19.945 2.23213C19.0668 2.97836 18.1363 3.66073 17.1606 4.27399C17.9798 3.4678 18.856 2.72182 19.7826 2.04186C20.6622 1.29745 21.5926 0.61518 22.5669 0Z" fill="#E0E0E0"/>
<path d="M22.5299 34.3913L16.9612 29.8853L22.5299 34.3913Z" fill="white"/>
<path d="M16.9705 29.8853C17.9706 30.5397 18.9256 31.2606 19.8291 32.0431C20.7819 32.7633 21.6843 33.5478 22.5299 34.3913C21.5291 33.7411 20.574 33.0233 19.6713 32.2427C18.7182 31.5195 17.8158 30.7319 16.9705 29.8853Z" fill="#E0E0E0"/>
<g style="mix-blend-mode:multiply">
<path d="M75.6091 23.8482C76.7374 21.8186 77.3285 19.5343 77.3261 17.2122C77.3371 15.4441 76.9996 13.6912 76.3329 12.0536C75.6661 10.416 74.6832 8.92586 73.4403 7.6683C72.1974 6.41075 70.7189 5.41045 69.0892 4.72455C67.4596 4.03866 65.7107 3.68062 63.9426 3.6709C62.7411 3.67121 61.5452 3.83514 60.3879 4.15816C63.219 4.97417 65.708 6.68859 67.4795 9.04284C69.251 11.3971 70.209 14.2635 70.209 17.2099C70.209 20.1562 69.251 23.0226 67.4795 25.3769C65.708 27.7311 63.219 29.4455 60.3879 30.2615C62.1741 30.7597 64.0449 30.8775 65.8795 30.6073C67.714 30.3371 69.4714 29.685 71.0381 28.693L77.3261 31.1293L75.6091 23.8482Z" fill="#EBEBEB"/>
</g>
<path d="M18.6224 183.062L18.9983 194.608L21.9312 203.657C21.9819 203.812 22.0003 203.974 21.9853 204.136C21.9702 204.297 21.9219 204.454 21.8435 204.596C21.7651 204.738 21.6582 204.862 21.5296 204.961C21.4009 205.06 21.2533 205.131 21.0958 205.17C20.9127 205.217 20.7209 205.219 20.5368 205.176C20.3526 205.134 20.1815 205.047 20.0378 204.924C18.1815 203.333 11.3923 197.448 11.4109 196.604C11.4109 195.625 10.1997 184.45 10.1997 184.45L18.6224 183.062Z" fill="#1C75BB"/>
<path d="M21.1146 205.17L11.3694 195.824L11.3972 196.311C11.419 196.735 11.5918 197.137 11.8845 197.444C12.6641 198.265 14.8684 200.483 20.0102 204.929C20.1582 205.056 20.3352 205.144 20.5253 205.186C20.7155 205.228 20.9131 205.223 21.1007 205.17H21.1146Z" fill="#E0E0E0"/>
<path d="M13.5455 191.972C13.6953 192.068 13.8036 192.217 13.8492 192.389C13.8947 192.56 13.8741 192.743 13.7915 192.901C13.7012 193.056 13.5529 193.17 13.379 193.217C13.2052 193.264 13.0198 193.24 12.8633 193.151C12.7058 193.05 12.5918 192.893 12.5437 192.712C12.4956 192.531 12.517 192.338 12.6035 192.172C12.7153 192.025 12.8792 191.927 13.0615 191.897C13.2438 191.868 13.4304 191.91 13.5826 192.014" fill="white"/>
<path d="M18.1955 200.279C18.2605 200.307 18.4879 199.69 19.1561 199.323C19.5693 199.133 20.015 199.022 20.4694 198.998C20.4694 198.966 20.3302 198.887 20.0564 198.864C19.6998 198.845 19.3453 198.929 19.034 199.104C18.7227 199.278 18.4674 199.538 18.2976 199.852C18.1584 200.098 18.1584 200.27 18.1955 200.279Z" fill="#263238"/>
<path d="M19.0864 201.778C19.4056 201.573 19.7373 201.389 20.0795 201.226C20.448 201.135 20.8214 201.065 21.1979 201.017C21.0138 200.916 20.8083 200.861 20.5985 200.855C20.3887 200.849 20.1806 200.894 19.9913 200.984C19.3417 201.221 19.04 201.75 19.0864 201.778Z" fill="#263238"/>
<path d="M16.5527 198.376C17.0243 198.025 17.5189 197.706 18.0331 197.42C18.5828 197.214 19.1475 197.049 19.7223 196.929C19.1118 196.798 18.4747 196.89 17.9264 197.188C17.3439 197.412 16.8579 197.832 16.5527 198.376Z" fill="#263238"/>
<path d="M16.1443 194.882C16.1814 194.952 16.8033 194.65 17.6293 194.571C18.4553 194.492 19.1282 194.659 19.1468 194.571C18.6809 194.303 18.1348 194.209 17.6061 194.307C17.0667 194.323 16.5498 194.526 16.1443 194.882Z" fill="#263238"/>
<path d="M15.9495 191.494C16.442 191.302 16.9591 191.18 17.4855 191.132C18.0137 191.157 18.5357 191.257 19.0355 191.429C19.0355 191.429 18.9195 191.267 18.6457 191.128C18.2819 190.954 17.8825 190.868 17.4795 190.877C17.0765 190.886 16.6812 190.989 16.3254 191.179C16.0609 191.327 15.9309 191.471 15.9495 191.494Z" fill="#263238"/>
<path d="M17.4299 190.488C17.4621 190.344 17.4621 190.195 17.4299 190.051C17.3697 189.654 17.2309 189.272 17.0215 188.928C16.8893 188.663 16.6743 188.448 16.409 188.316C16.3179 188.279 16.2176 188.273 16.1226 188.297C16.0275 188.321 15.9426 188.375 15.8799 188.45C15.7627 188.602 15.7079 188.793 15.7268 188.984C15.7729 189.371 15.9533 189.729 16.2366 189.996C16.5199 190.263 16.8881 190.422 17.2768 190.446C17.6623 190.465 18.045 190.369 18.3756 190.17C18.7063 189.971 18.97 189.677 19.133 189.327C19.1731 189.239 19.1939 189.144 19.1939 189.047C19.1939 188.95 19.1731 188.854 19.133 188.766C19.0833 188.681 19.008 188.614 18.9179 188.575C18.8279 188.536 18.7277 188.526 18.6318 188.548C18.3515 188.625 18.0968 188.776 17.894 188.984C17.595 189.247 17.3452 189.562 17.1561 189.912C17.0762 190.036 17.024 190.175 17.003 190.321C17.2772 189.868 17.6165 189.458 18.01 189.105C18.1958 188.933 18.4203 188.809 18.6643 188.743C18.7163 188.731 18.7707 188.736 18.8198 188.757C18.869 188.778 18.9103 188.813 18.9381 188.859C18.9637 188.917 18.9768 188.98 18.9768 189.044C18.9768 189.108 18.9637 189.171 18.9381 189.23C18.7873 189.526 18.5553 189.772 18.2692 189.941C17.9832 190.109 17.655 190.193 17.3232 190.181C16.9953 190.158 16.6851 190.024 16.4432 189.801C16.2012 189.579 16.0419 189.281 15.9913 188.956C15.975 188.824 16.0081 188.69 16.0841 188.58C16.1173 188.538 16.1632 188.508 16.215 188.493C16.2668 188.479 16.3218 188.482 16.3719 188.501C16.5961 188.611 16.7809 188.788 16.9009 189.007C17.1626 189.466 17.3417 189.967 17.4299 190.488Z" fill="#263238"/>
<path d="M41.1201 184.779L40.5215 193.411C40.5215 193.411 49.1019 196.919 49.1437 198.516L32.3586 197.954L32.7392 184.464L41.1201 184.779Z" fill="#1C75BB"/>
<path d="M35.3566 192.511C35.1973 192.558 35.0601 192.661 34.9699 192.8C34.8797 192.94 34.8424 193.107 34.8647 193.272C34.9036 193.436 35.0034 193.579 35.1439 193.672C35.2844 193.765 35.455 193.801 35.6212 193.773C35.7942 193.726 35.9436 193.617 36.0405 193.466C36.1374 193.315 36.1748 193.133 36.1455 192.956C36.0902 192.789 35.9711 192.649 35.814 192.569C35.6568 192.488 35.4742 192.472 35.3056 192.525" fill="#E0E0E0"/>
<path d="M32.3586 197.968L32.4515 196.608L48.5126 197.653C48.5126 197.653 49.2458 198.005 49.1437 198.53L32.3586 197.968Z" fill="#E0E0E0"/>
<path d="M40.7999 193.337C40.7999 193.42 40.3822 193.443 39.9692 193.694C39.5562 193.945 39.3335 194.279 39.2592 194.246C39.185 194.214 39.3195 193.74 39.8254 193.448C40.3312 193.156 40.8184 193.272 40.7999 193.337Z" fill="#263238"/>
<path d="M42.5356 194.121C42.5356 194.204 42.1922 194.33 41.8998 194.669C41.6074 195.007 41.5193 195.369 41.4357 195.365C41.3522 195.36 41.3197 194.901 41.6863 194.478C42.0529 194.056 42.5356 194.047 42.5356 194.121Z" fill="#263238"/>
<path d="M43.4636 196.265C43.3894 196.265 43.2873 195.866 43.5147 195.425C43.7421 194.984 44.1272 194.817 44.1597 194.887C44.1922 194.956 43.9509 195.188 43.7699 195.55C43.5889 195.912 43.5472 196.26 43.4636 196.265Z" fill="#263238"/>
<path d="M40.7164 191.355C40.6793 191.425 40.3081 191.299 39.844 191.318C39.3799 191.337 39.0133 191.467 38.9716 191.397C38.9298 191.327 39.2871 191.044 39.8347 191.03C40.3823 191.016 40.7582 191.29 40.7164 191.355Z" fill="#263238"/>
<path d="M40.8046 189.61C40.5266 189.668 40.2381 189.651 39.9693 189.559C39.6676 189.493 39.3748 189.392 39.0968 189.258C38.937 189.177 38.782 189.087 38.6328 188.988C38.5407 188.932 38.4578 188.861 38.3868 188.78C38.3345 188.72 38.3038 188.645 38.2996 188.565C38.2954 188.486 38.3179 188.408 38.3636 188.343C38.4073 188.288 38.4631 188.243 38.5266 188.213C38.5901 188.182 38.6598 188.167 38.7302 188.167C38.8362 188.169 38.9411 188.188 39.0412 188.223C39.2203 188.271 39.3944 188.336 39.5609 188.418C39.8397 188.554 40.0951 188.734 40.3173 188.951C40.6932 189.327 40.8185 189.638 40.7814 189.652C40.7443 189.666 40.5586 189.415 40.1735 189.104C39.9489 188.92 39.7027 188.765 39.4403 188.64C39.2894 188.576 39.1344 188.521 38.9762 188.478C38.7999 188.427 38.6467 188.418 38.6003 188.478C38.5539 188.538 38.6003 188.52 38.6003 188.571C38.6525 188.631 38.7135 188.682 38.7813 188.724C38.9221 188.821 39.0676 188.911 39.2175 188.993C39.4752 189.128 39.7437 189.242 40.0203 189.332C40.289 189.403 40.5513 189.496 40.8046 189.61Z" fill="#263238"/>
<path d="M40.6932 189.722C40.5434 189.477 40.4752 189.191 40.4983 188.905C40.4942 188.407 40.6241 187.916 40.8742 187.485C40.9238 187.376 41.0006 187.281 41.0973 187.209C41.1939 187.138 41.3072 187.092 41.4264 187.077C41.5011 187.081 41.573 187.106 41.6338 187.15C41.6946 187.193 41.7418 187.253 41.7698 187.323C41.81 187.422 41.835 187.527 41.8441 187.634C41.8746 187.821 41.8746 188.012 41.8441 188.2C41.7883 188.513 41.656 188.808 41.4589 189.058C41.1155 189.481 40.7721 189.569 40.7628 189.522C40.7536 189.476 41.0273 189.332 41.2965 188.919C41.4481 188.683 41.5477 188.417 41.5889 188.139C41.6097 187.978 41.6097 187.814 41.5889 187.652C41.5889 187.476 41.5053 187.327 41.4357 187.346C41.3661 187.364 41.2083 187.471 41.1341 187.61C41.0433 187.757 40.9686 187.912 40.9113 188.074C40.8074 188.34 40.7432 188.62 40.7211 188.905C40.6607 189.402 40.7396 189.713 40.6932 189.722Z" fill="#263238"/>
<path d="M6.61255 99.5548L9.09063 192.39L22.3349 191.991L25.4905 96.3899L6.61255 99.5548Z" fill="#263238"/>
<path d="M34.1361 96.2324C34.1361 96.2324 43.9649 135.589 44.2665 142.3C44.5681 149.01 42.1643 190.952 42.1643 190.952H29.1985L30.2844 143.186L20.437 102.78L22.7991 96.4412L34.1361 96.2324Z" fill="#263238"/>
<path d="M26.1357 101.068C26.1408 101.109 26.1408 101.151 26.1357 101.193V101.56C26.1357 101.903 26.1078 102.376 26.0846 102.952C26.0289 104.2 25.9454 105.968 25.8433 108.149C25.6206 112.553 25.3096 118.609 24.9662 125.296C24.6228 131.983 24.2609 138.039 24.0381 142.443C23.9035 144.62 23.7968 146.392 23.7226 147.636C23.6808 148.235 23.6483 148.708 23.6251 149.051C23.6251 149.2 23.6251 149.321 23.5926 149.418C23.597 149.46 23.597 149.502 23.5926 149.543C23.5879 149.5 23.5879 149.457 23.5926 149.413C23.5926 149.321 23.5926 149.2 23.5926 149.047C23.5926 148.708 23.6251 148.235 23.6483 147.655C23.704 146.406 23.7875 144.634 23.885 142.457C24.1124 138.049 24.4233 131.993 24.762 125.287C25.1008 118.581 25.4674 112.544 25.7134 108.117C25.8433 105.94 25.95 104.168 26.0289 102.924C26.0707 102.325 26.1032 101.852 26.1264 101.532C26.1264 101.379 26.1264 101.258 26.1589 101.165C26.1463 101.134 26.1385 101.101 26.1357 101.068Z" fill="#28A8DF"/>
<path d="M24.6786 45.7703C24.6786 45.7703 29.4909 69.6415 29.5605 76.3658C29.6301 83.09 31.9921 96.2322 31.9921 96.2322H11.1558L10.6918 59.8638L9.20679 49.0187L12.3346 44.5544L24.6786 45.7703Z" fill="#F5F5F5"/>
<path d="M24.9336 46.4756C24.9336 46.4756 29.9037 47.9327 31.217 49.7704C32.2518 51.2229 33.6533 78.6814 33.6533 78.6814L35.7926 102.864L33.709 102.669L30.7668 93.6148L24.9336 46.4756Z" fill="#1C75BB"/>
<path d="M31.217 49.7705L45.2502 62.6482L62.5179 57.0563L65.9566 64.3049L47.5288 72.658C44.8975 73.781 43.2455 73.1638 41.4171 71.702L31.7554 63.9661L31.217 49.7705Z" fill="#1C75BB"/>
<path d="M59.3066 59.3671C59.3534 59.4557 59.3631 59.5593 59.3335 59.655C59.3039 59.7507 59.2375 59.8308 59.1489 59.8775C59.0602 59.9243 58.9567 59.934 58.8609 59.9044C58.7652 59.8748 58.6852 59.8084 58.6384 59.7198C58.6142 59.6764 58.5989 59.6285 58.5935 59.5791C58.5881 59.5297 58.5927 59.4797 58.607 59.4321C58.6212 59.3845 58.6449 59.3403 58.6766 59.302C58.7083 59.2637 58.7474 59.2322 58.7915 59.2093C58.881 59.163 58.985 59.1537 59.0813 59.1831C59.1775 59.2126 59.2584 59.2787 59.3066 59.3671Z" fill="#263238"/>
<path d="M58.9958 59.9331C58.9574 59.9402 58.9181 59.9402 58.8798 59.9331C58.7814 59.9034 58.6983 59.8369 58.6477 59.7475C58.6018 59.6554 58.5918 59.5495 58.6199 59.4505C58.6342 59.401 58.6585 59.3548 58.6912 59.3149C58.7239 59.2751 58.7644 59.2422 58.8101 59.2185C58.8549 59.1933 58.9045 59.1778 58.9557 59.173C59.0068 59.1682 59.0585 59.1742 59.1071 59.1906C59.2025 59.2187 59.2831 59.283 59.3316 59.3697C59.3802 59.4564 59.3929 59.5587 59.367 59.6547C59.3535 59.7046 59.3295 59.7511 59.2967 59.7911C59.2639 59.8311 59.223 59.8637 59.1768 59.8867C59.1215 59.9178 59.0591 59.9338 58.9958 59.9331ZM58.9958 59.1767C58.9361 59.1773 58.8774 59.1916 58.8241 59.2185C58.7393 59.2657 58.6762 59.3439 58.6477 59.4366C58.6337 59.4825 58.6289 59.5308 58.6337 59.5786C58.6384 59.6264 58.6527 59.6728 58.6756 59.715C58.6974 59.7586 58.7281 59.7972 58.7656 59.8284C58.8032 59.8595 58.8468 59.8826 58.8937 59.896C58.9865 59.9239 59.0866 59.9139 59.1721 59.8682C59.2568 59.8209 59.32 59.7428 59.3485 59.6501C59.3634 59.5957 59.3657 59.5386 59.355 59.4832C59.3443 59.4278 59.321 59.3757 59.2869 59.3308C59.2528 59.2859 59.2088 59.2494 59.1583 59.2243C59.1078 59.1992 59.0522 59.1861 58.9958 59.186V59.1767Z" fill="#263238"/>
<path d="M60.75 59.0192C60.7974 59.1072 60.8079 59.2104 60.7792 59.3061C60.7504 59.4018 60.6849 59.4823 60.5969 59.5296C60.5089 59.577 60.4056 59.5875 60.3099 59.5588C60.2142 59.5301 60.1338 59.4645 60.0864 59.3765C60.0622 59.3331 60.0469 59.2853 60.0415 59.2359C60.0361 59.1865 60.0407 59.1365 60.055 59.0889C60.0692 59.0413 60.0929 58.997 60.1246 58.9587C60.1564 58.9204 60.1954 58.8889 60.2395 58.866C60.3277 58.8196 60.4306 58.8097 60.526 58.8383C60.6215 58.8669 60.7019 58.9319 60.75 59.0192Z" fill="#263238"/>
<path d="M60.4204 59.5897C60.382 59.5968 60.3427 59.5968 60.3044 59.5897C60.206 59.56 60.1229 59.4935 60.0723 59.4041C60.0246 59.3122 60.0148 59.2053 60.0452 59.1063C60.0756 59.0073 60.1437 58.9243 60.2348 58.875C60.2797 58.8504 60.3291 58.8348 60.38 58.8292C60.431 58.8236 60.4825 58.8282 60.5318 58.8426C60.6304 58.8742 60.7134 58.9423 60.7638 59.0328C60.8121 59.1242 60.8221 59.231 60.7916 59.3298C60.7612 59.4292 60.6929 59.5126 60.6014 59.5618C60.5444 59.5865 60.4821 59.5961 60.4204 59.5897ZM60.4204 58.8333C60.3607 58.8339 60.302 58.8482 60.2487 58.875C60.1856 58.9105 60.1342 58.9636 60.1009 59.0278C60.0676 59.0921 60.0538 59.1647 60.0612 59.2366C60.0686 59.3086 60.0969 59.3769 60.1426 59.433C60.1882 59.4891 60.2493 59.5307 60.3183 59.5526C60.4113 59.5785 60.5107 59.5686 60.5967 59.5247C60.6822 59.4785 60.7459 59.4003 60.7738 59.3072C60.8016 59.2141 60.7913 59.1137 60.7452 59.0282C60.7234 58.9846 60.6927 58.946 60.6551 58.9148C60.6176 58.8837 60.574 58.8606 60.5271 58.8472C60.4908 58.8373 60.4533 58.8326 60.4157 58.8333H60.4204Z" fill="#263238"/>
<path d="M62.1282 58.7452C62.1524 58.7886 62.1677 58.8364 62.1731 58.8858C62.1785 58.9352 62.1739 58.9852 62.1596 59.0328C62.1453 59.0804 62.1216 59.1247 62.0899 59.1629C62.0582 59.2012 62.0192 59.2327 61.975 59.2556C61.8856 59.3019 61.7816 59.3113 61.6853 59.2818C61.589 59.2523 61.5081 59.1863 61.4599 59.0978C61.4132 59.0092 61.4035 58.9057 61.4331 58.8099C61.4627 58.7142 61.5291 58.6341 61.6177 58.5874C61.7063 58.5406 61.8099 58.531 61.9056 58.5606C62.0014 58.5901 62.0814 58.6565 62.1282 58.7452Z" fill="#263238"/>
<path d="M61.7801 59.3116C61.7418 59.3187 61.7025 59.3187 61.6641 59.3116C61.5688 59.2835 61.4882 59.2192 61.4396 59.1325C61.3911 59.0458 61.3784 58.9435 61.4042 58.8476C61.4178 58.7976 61.4417 58.7512 61.4745 58.7112C61.5073 58.6712 61.5482 58.6386 61.5945 58.6155C61.6396 58.5911 61.689 58.5758 61.74 58.5705C61.7911 58.5652 61.8426 58.57 61.8917 58.5846C61.9409 58.5993 61.9867 58.6235 62.0264 58.6559C62.0662 58.6882 62.0992 58.7282 62.1235 58.7733C62.1713 58.8652 62.181 58.9721 62.1507 59.0711C62.1203 59.1701 62.0522 59.2531 61.9611 59.3023C61.9025 59.3207 61.8403 59.3239 61.7801 59.3116ZM61.7801 58.5552C61.7204 58.5558 61.6617 58.5701 61.6084 58.597C61.5237 58.6442 61.4605 58.7223 61.4321 58.8151C61.418 58.861 61.4132 58.9093 61.418 58.9571C61.4228 59.0049 61.437 59.0513 61.4599 59.0935C61.4819 59.1367 61.5123 59.175 61.5494 59.2062C61.5865 59.2374 61.6295 59.2609 61.6758 59.2751C61.7221 59.2894 61.7708 59.2943 61.819 59.2894C61.8672 59.2845 61.914 59.2699 61.9565 59.2466C62.042 59.2005 62.1056 59.1222 62.1335 59.0291C62.1613 58.936 62.1511 58.8356 62.105 58.7501C62.0741 58.6908 62.0274 58.6412 61.9701 58.6068C61.9127 58.5724 61.847 58.5545 61.7801 58.5552Z" fill="#263238"/>
<path d="M62.6897 57.4182L64.0262 56.9263L67.0936 63.386L65.7896 63.9429L62.6897 57.4182Z" fill="#E0E0E0"/>
<path d="M31.6672 54.8613C31.7142 55.0984 31.7406 55.339 31.7461 55.5806C31.7971 56.0911 31.8667 56.7501 31.9502 57.5482C32.1405 59.2513 32.4143 61.5252 32.6835 64.0451C32.9526 66.5649 33.1893 68.8806 33.2914 70.5419C33.3471 71.3772 33.3703 72.0548 33.3749 72.5235C33.3997 72.7657 33.3997 73.0098 33.3749 73.252C33.332 73.013 33.3087 72.7709 33.3053 72.5281C33.2728 72.064 33.2218 71.3865 33.1429 70.5558C32.9944 68.8945 32.7484 66.602 32.4653 64.059C32.1823 61.516 31.9363 59.2281 31.8017 57.5622C31.7321 56.7268 31.695 56.054 31.6764 55.5853C31.6498 55.3448 31.6467 55.1024 31.6672 54.8613Z" fill="#263238"/>
<path d="M34.7347 58.082C34.5176 59.2542 34.223 60.4107 33.853 61.5439C33.5588 62.698 33.1882 63.8312 32.7439 64.9362C32.9579 63.7638 33.251 62.6072 33.621 61.4743C33.9128 60.319 34.285 59.1855 34.7347 58.082Z" fill="#263238"/>
<path d="M45.1018 67.0011C44.9531 66.8213 44.8469 66.6103 44.7908 66.3839C44.4444 65.3143 44.5174 64.1532 44.995 63.1354C45.1853 62.7503 45.357 62.5461 45.3802 62.5646C45.0983 63.2684 44.911 64.0066 44.8233 64.7596C44.819 65.5157 44.9126 66.2691 45.1018 67.0011Z" fill="#263238"/>
<path d="M43.4961 81.916L45.292 82.0552L44.582 89.5498L42.8464 89.3503L43.4961 81.916Z" fill="#E0E0E0"/>
<path d="M12.3531 45.0742L2.66812 51.2694C1.5618 52.0477 0.736172 53.1622 0.313953 54.4472C-0.108265 55.7323 -0.104528 57.1193 0.32461 58.402L7.74957 81.7396L5.07195 102.947L26.2981 102.047L25.7783 92.7657L23.9778 76.1338C23.6437 73.0499 22.8766 70.0286 21.6992 67.1588L12.3531 45.0742Z" fill="#1C75BB"/>
<path d="M2.23658 59.664L11.9215 79.9295C12.3083 80.737 12.8707 81.4478 13.5677 82.0098C14.2646 82.5719 15.0784 82.971 15.9496 83.1779L42.8279 89.5448L43.5147 81.7161L22.9986 74.0081L12.6779 54.1973C12.3052 53.4844 11.7906 52.8552 11.1657 52.3486C10.5408 51.8419 9.8189 51.4684 9.04432 51.251C8.26974 51.0337 7.45889 50.9771 6.66163 51.0848C5.86438 51.1924 5.09757 51.4621 4.40838 51.877C3.12277 52.6543 2.1822 53.8928 1.77861 55.3399C1.37501 56.787 1.53881 58.3335 2.23658 59.664Z" fill="#1C75BB"/>
<path d="M43.5147 81.7209C43.4763 81.7176 43.4387 81.7082 43.4033 81.6931L43.0877 81.5864L41.8719 81.1501L37.3705 79.4935L22.2004 73.8226H22.1586L22.1354 73.7809C21.5646 72.6439 20.9614 71.4606 20.3488 70.2401C18.6689 66.9638 16.9936 63.8778 15.4251 61.0981C14.6409 59.7059 13.8844 58.3926 13.1698 57.1629L12.1256 55.3762C11.9586 55.0932 11.7915 54.8194 11.6152 54.5595C11.4492 54.3032 11.2663 54.0582 11.0676 53.8263C10.3758 53.002 9.48884 52.3639 8.48742 51.97C7.73249 51.6627 6.92146 51.5173 6.10678 51.5431C5.40808 51.5557 4.72306 51.7389 4.11133 52.0768L4.2227 51.9979C4.33406 51.9196 4.45393 51.8542 4.58003 51.803C5.06041 51.5899 5.57698 51.4702 6.10214 51.4503C6.93155 51.407 7.76062 51.5415 8.53382 51.8447C9.86264 52.3649 10.9975 53.2841 11.7822 54.476C11.9679 54.7358 12.1396 55.0143 12.302 55.2974L13.3554 57.0608C14.0793 58.2859 14.8404 59.5992 15.6339 60.9867C17.2117 63.7711 18.8824 66.8478 20.5808 70.1287C21.198 71.3399 21.8013 72.5326 22.3628 73.6741L22.2978 73.6138L37.4401 79.3589L41.9137 81.0852L43.1156 81.5492L43.4265 81.6792L43.5147 81.7209Z" fill="#263238"/>
<path d="M38.9483 86.6027C38.9483 86.7036 38.9082 86.8004 38.8369 86.8718C38.7655 86.9431 38.6687 86.9832 38.5678 86.9832C38.4669 86.9832 38.3701 86.9431 38.2987 86.8718C38.2273 86.8004 38.1873 86.7036 38.1873 86.6027C38.1873 86.5018 38.2273 86.405 38.2987 86.3336C38.3701 86.2623 38.4669 86.2222 38.5678 86.2222C38.6687 86.2222 38.7655 86.2623 38.8369 86.3336C38.9082 86.405 38.9483 86.5018 38.9483 86.6027Z" fill="#263238"/>
<path d="M38.577 87.0018C38.4986 87.0027 38.4217 86.9802 38.3562 86.9372C38.2906 86.8942 38.2393 86.8327 38.2089 86.7604C38.1785 86.6882 38.1703 86.6085 38.1853 86.5315C38.2004 86.4546 38.2381 86.3839 38.2935 86.3284C38.349 86.273 38.4197 86.2353 38.4966 86.2202C38.5736 86.2052 38.6532 86.2134 38.7255 86.2438C38.7978 86.2742 38.8593 86.3255 38.9023 86.3911C38.9453 86.4567 38.9678 86.5336 38.9669 86.612C38.9656 86.715 38.9242 86.8134 38.8513 86.8863C38.7785 86.9591 38.6801 87.0006 38.577 87.0018ZM38.577 86.2407C38.5034 86.2398 38.4312 86.2608 38.3695 86.301C38.3079 86.3412 38.2596 86.3989 38.2308 86.4666C38.2019 86.5344 38.1939 86.6092 38.2077 86.6815C38.2215 86.7538 38.2565 86.8204 38.3082 86.8728C38.36 86.9252 38.4261 86.961 38.4983 86.9757C38.5704 86.9904 38.6453 86.9833 38.7134 86.9554C38.7815 86.9274 38.8397 86.8798 38.8807 86.8187C38.9217 86.7575 38.9436 86.6856 38.9436 86.612C38.9455 86.5627 38.9374 86.5135 38.9198 86.4674C38.9023 86.4213 38.8755 86.3792 38.8413 86.3437C38.8071 86.3082 38.766 86.2799 38.7206 86.2606C38.6752 86.2413 38.6264 86.2314 38.577 86.2314V86.2407Z" fill="#263238"/>
<path d="M40.387 87.0021C40.387 87.103 40.3469 87.1998 40.2756 87.2712C40.2042 87.3426 40.1074 87.3826 40.0065 87.3826C39.9056 87.3826 39.8088 87.3426 39.7374 87.2712C39.6661 87.1998 39.626 87.103 39.626 87.0021C39.626 86.9012 39.6661 86.8044 39.7374 86.733C39.8088 86.6617 39.9056 86.6216 40.0065 86.6216C40.1074 86.6216 40.2042 86.6617 40.2756 86.733C40.3469 86.8044 40.387 86.9012 40.387 87.0021Z" fill="#263238"/>
<path d="M40.0063 87.3685C39.9292 87.3685 39.8538 87.3456 39.7897 87.3028C39.7256 87.26 39.6756 87.1991 39.6461 87.1279C39.6166 87.0566 39.6089 86.9782 39.6239 86.9026C39.639 86.827 39.6761 86.7576 39.7306 86.703C39.7851 86.6485 39.8546 86.6114 39.9302 86.5964C40.0058 86.5813 40.0842 86.589 40.1554 86.6185C40.2267 86.648 40.2875 86.698 40.3304 86.7621C40.3732 86.8262 40.3961 86.9016 40.3961 86.9787C40.3961 87.0299 40.386 87.0806 40.3664 87.1279C40.3468 87.1751 40.3181 87.2181 40.2819 87.2543C40.2457 87.2905 40.2027 87.3192 40.1554 87.3388C40.1082 87.3584 40.0575 87.3685 40.0063 87.3685ZM40.0063 86.6121C39.9338 86.6121 39.8629 86.6336 39.8026 86.6739C39.7423 86.7141 39.6953 86.7714 39.6676 86.8384C39.6398 86.9054 39.6326 86.9791 39.6467 87.0502C39.6608 87.1213 39.6958 87.1866 39.747 87.2379C39.7983 87.2892 39.8636 87.3241 39.9347 87.3382C40.0059 87.3524 40.0796 87.3451 40.1466 87.3174C40.2136 87.2896 40.2708 87.2426 40.3111 87.1824C40.3514 87.1221 40.3729 87.0512 40.3729 86.9787C40.3729 86.8814 40.3342 86.7882 40.2655 86.7194C40.1967 86.6507 40.1035 86.6121 40.0063 86.6121Z" fill="#263238"/>
<path d="M41.3522 87.763C41.5624 87.763 41.7327 87.5926 41.7327 87.3825C41.7327 87.1723 41.5624 87.002 41.3522 87.002C41.142 87.002 40.9717 87.1723 40.9717 87.3825C40.9717 87.5926 41.142 87.763 41.3522 87.763Z" fill="#263238"/>
<path d="M41.3615 87.7723C41.2844 87.7723 41.209 87.7494 41.1449 87.7066C41.0808 87.6638 41.0309 87.6029 41.0013 87.5317C40.9718 87.4604 40.9641 87.3821 40.9792 87.3064C40.9942 87.2308 41.0313 87.1614 41.0859 87.1068C41.1404 87.0523 41.2098 87.0152 41.2854 87.0002C41.3611 86.9851 41.4394 86.9928 41.5107 87.0224C41.5819 87.0519 41.6428 87.1018 41.6856 87.1659C41.7284 87.23 41.7513 87.3054 41.7513 87.3825C41.7513 87.4859 41.7102 87.585 41.6371 87.6581C41.564 87.7312 41.4649 87.7723 41.3615 87.7723ZM41.3615 87.0159C41.2643 87.0159 41.171 87.0545 41.1023 87.1233C41.0335 87.192 40.9949 87.2853 40.9949 87.3825C40.9949 87.4797 41.0335 87.573 41.1023 87.6417C41.171 87.7105 41.2643 87.7491 41.3615 87.7491C41.4587 87.7491 41.552 87.7105 41.6207 87.6417C41.6895 87.573 41.7281 87.4797 41.7281 87.3825C41.7281 87.2853 41.6895 87.192 41.6207 87.1233C41.552 87.0545 41.4587 87.0159 41.3615 87.0159Z" fill="#263238"/>
<path d="M42.8279 89.5496L42.6979 89.5264L42.322 89.4429L40.8742 89.0949L35.556 87.7862C31.0686 86.6864 24.8827 85.1272 18.0053 83.5354C17.1468 83.3312 16.2975 83.1688 15.4576 82.9414C14.6049 82.7469 13.81 82.3542 13.1373 81.7952C12.5492 81.208 12.0769 80.5153 11.7451 79.7533L10.7335 77.6372L7.26229 70.2958L4.94199 65.3396L4.32479 63.9892L4.16701 63.6365C4.14788 63.5962 4.13235 63.5543 4.12061 63.5112C4.12061 63.5112 4.14845 63.5484 4.19022 63.6226L4.36656 63.9706L5.03016 65.3025C5.60096 66.4812 6.42235 68.1565 7.42472 70.2262L10.9469 77.5398C11.2764 78.2266 11.6198 78.9319 11.9632 79.6512C12.2919 80.385 12.7528 81.052 13.3229 81.6189C13.963 82.1486 14.7177 82.522 15.5272 82.7094C16.3486 82.9321 17.2071 83.0946 18.0656 83.3034C24.9383 84.8951 31.1243 86.4776 35.6024 87.6238L40.902 89.016L42.336 89.4058L42.7072 89.5125C42.7488 89.5198 42.7894 89.5322 42.8279 89.5496Z" fill="#263238"/>
<path d="M21.1191 88.2781C21.1191 88.2781 21.017 88.3895 20.7989 88.5472C20.5808 88.705 20.2698 88.937 19.8707 89.2016C18.8349 89.9191 17.7122 90.5023 16.5295 90.9371C15.3341 91.3746 14.0477 91.5039 12.7892 91.313C12.4103 91.2497 12.0398 91.1439 11.6847 90.9975C11.5532 90.9498 11.4296 90.8825 11.3181 90.7979C11.8098 90.9399 12.3086 91.0561 12.8124 91.146C14.0425 91.2795 15.2869 91.1303 16.4506 90.7098C17.6142 90.2763 18.7293 89.7226 19.7779 89.0577C20.2079 88.7694 20.6558 88.509 21.1191 88.2781Z" fill="#263238"/>
<path d="M22.2978 90.9695C22.3276 91.025 22.3494 91.0843 22.3628 91.1458C22.4158 91.3162 22.4577 91.4898 22.4881 91.6656C22.5999 92.3167 22.5999 92.9821 22.4881 93.6332C22.309 94.6033 21.8947 95.5148 21.2815 96.2876C20.5102 97.23 19.4685 97.9132 18.2969 98.2451C17.1252 98.577 15.8799 98.5417 14.729 98.1438C13.8035 97.8001 12.9764 97.2344 12.3205 96.4964C11.8794 96.0026 11.5276 95.4357 11.281 94.8212C11.2184 94.6554 11.1642 94.4866 11.1186 94.3154C11.0908 94.1947 11.0768 94.1297 11.0861 94.1297C11.3931 94.9591 11.8544 95.7229 12.4458 96.3804C13.0976 97.0778 13.9055 97.6106 14.8032 97.935C15.9093 98.3075 17.1019 98.3385 18.2258 98.024C19.3498 97.7095 20.353 97.064 21.1052 96.1716C21.7069 95.4315 22.1222 94.5578 22.3164 93.6239C22.4778 92.7459 22.4715 91.8452 22.2978 90.9695Z" fill="#263238"/>
<path d="M13.3972 26.5999L13.4575 43.8908C13.4615 44.5866 13.6068 45.2743 13.8843 45.9123C14.1619 46.5503 14.5661 47.1254 15.0724 47.6026C15.5787 48.0799 16.1766 48.4494 16.8299 48.6888C17.4832 48.9282 18.1783 49.0326 18.8731 48.9955C20.1871 48.9196 21.4222 48.3436 22.3249 47.3857C23.2276 46.4278 23.7294 45.1606 23.7272 43.8444C23.7272 42.5404 23.7272 41.4545 23.7272 41.3246C23.7272 41.3246 28.1265 40.893 28.4281 36.5355C28.5766 34.4286 28.5209 30.0665 28.4281 26.122C28.3811 24.0776 27.5655 22.126 26.1439 20.6562C24.7222 19.1863 22.7988 18.3062 20.7572 18.1912H20.3349C15.801 18.1819 13.2626 22.0336 13.3972 26.5999Z" fill="#FFBE9D"/>
<path d="M23.755 41.264C21.7474 41.1842 19.809 40.509 18.1863 39.3242C18.1863 39.3242 19.3511 42.5402 23.7225 42.3963L23.755 41.264Z" fill="#AA6550"/>
<path d="M27.3699 28.6881C27.3627 28.8514 27.2914 29.0053 27.1716 29.1164C27.0517 29.2276 26.8929 29.2871 26.7295 29.2821C26.65 29.2839 26.5708 29.2698 26.4968 29.2405C26.4229 29.2112 26.3555 29.1673 26.2988 29.1115C26.2421 29.0556 26.1972 28.989 26.1667 28.9154C26.1363 28.8419 26.121 28.763 26.1216 28.6834C26.13 28.5214 26.201 28.3689 26.3195 28.2581C26.4381 28.1473 26.5951 28.0868 26.7574 28.0894C26.837 28.0882 26.916 28.1028 26.99 28.1322C27.064 28.1617 27.1314 28.2055 27.1883 28.2612C27.2453 28.3168 27.2906 28.3832 27.3218 28.4565C27.353 28.5297 27.3693 28.6085 27.3699 28.6881Z" fill="#263238"/>
<path d="M27.4906 27.9549C27.4118 28.0291 26.957 27.6532 26.2887 27.6161C25.6205 27.579 25.1054 27.8899 25.0404 27.8017C24.9754 27.7136 25.0915 27.6208 25.3142 27.4769C25.6162 27.2923 25.9681 27.2063 26.3212 27.2309C26.6614 27.2527 26.9861 27.381 27.2493 27.5975C27.4721 27.7693 27.5324 27.9177 27.4906 27.9549Z" fill="#263238"/>
<path d="M20.8548 28.6369C20.8475 28.7994 20.7769 28.9526 20.6581 29.0636C20.5392 29.1746 20.3816 29.2347 20.219 29.2309C20.1395 29.2328 20.0603 29.2186 19.9863 29.1893C19.9124 29.16 19.845 29.1161 19.7883 29.0603C19.7316 29.0045 19.6867 28.9378 19.6563 28.8643C19.6258 28.7907 19.6105 28.7118 19.6111 28.6323C19.6183 28.4698 19.689 28.3166 19.8078 28.2055C19.9266 28.0945 20.0843 28.0345 20.2469 28.0383C20.3264 28.0364 20.4056 28.0505 20.4795 28.0798C20.5535 28.1091 20.6209 28.153 20.6776 28.2089C20.7343 28.2647 20.7792 28.3314 20.8096 28.4049C20.8401 28.4784 20.8554 28.5573 20.8548 28.6369Z" fill="#263238"/>
<path d="M20.8223 27.8016C20.7387 27.8805 20.2886 27.5 19.6157 27.4675C18.9428 27.435 18.437 27.7367 18.3674 27.6485C18.2978 27.5603 18.4231 27.4722 18.6458 27.3283C18.9462 27.1435 19.2962 27.056 19.6482 27.0777C19.9972 27.0978 20.3313 27.2259 20.6042 27.4443C20.7991 27.6021 20.8594 27.7692 20.8223 27.8016Z" fill="#263238"/>
<path d="M22.9429 33.0688C23.303 32.9812 23.6721 32.936 24.0427 32.9342C24.2144 32.9342 24.3815 32.9017 24.4139 32.7857C24.4378 32.611 24.4087 32.4332 24.3304 32.2752C24.1912 31.8529 24.0473 31.4074 23.8988 30.9434C23.3002 29.0454 22.8779 27.4908 22.9707 27.4675C23.0635 27.4443 23.5786 28.9618 24.1912 30.8505C24.3304 31.3146 24.4696 31.7787 24.5996 32.187C24.6965 32.3997 24.7146 32.6398 24.6506 32.8646C24.6219 32.9232 24.5802 32.9745 24.5288 33.0147C24.4773 33.0549 24.4174 33.0829 24.3536 33.0966C24.2574 33.1162 24.1594 33.1255 24.0613 33.1244C23.6877 33.1562 23.3115 33.1374 22.9429 33.0688Z" fill="#263238"/>
<path d="M21.0914 26.4094C21.0125 26.5904 20.3489 26.4651 19.56 26.5161C18.7711 26.5672 18.1168 26.7435 18.024 26.5718C17.9822 26.4929 18.1029 26.3259 18.3674 26.1681C18.7194 25.973 19.1112 25.8603 19.5131 25.8386C19.915 25.8169 20.3167 25.8867 20.6877 26.0428C20.9893 26.1727 21.1239 26.3259 21.0914 26.4094Z" fill="#263238"/>
<path d="M27.4396 26.3539C27.3143 26.4977 26.8595 26.3168 26.3073 26.275C25.755 26.2332 25.2771 26.3214 25.175 26.1543C25.1332 26.0755 25.2167 25.927 25.4302 25.7924C25.7127 25.6349 26.0364 25.5669 26.3583 25.5975C26.6838 25.6212 26.9938 25.7461 27.2447 25.9548C27.4396 26.1219 27.4906 26.2843 27.4396 26.3539Z" fill="#263238"/>
<path d="M13.5688 29.8481C13.4945 29.811 10.622 28.7947 10.5477 31.7786C10.4735 34.7625 13.4852 34.2242 13.4945 34.1407C13.5038 34.0572 13.5688 29.8481 13.5688 29.8481Z" fill="#FFBE9D"/>
<path d="M12.5896 32.9853C12.5896 32.9853 12.5385 33.0225 12.4503 33.0596C12.3255 33.1112 12.1853 33.1112 12.0605 33.0596C11.8708 32.9325 11.7183 32.7572 11.6188 32.5517C11.5193 32.3461 11.4764 32.1178 11.4944 31.8902C11.4927 31.6352 11.5482 31.383 11.6568 31.1523C11.6867 31.0591 11.7393 30.9747 11.8097 30.9067C11.8802 30.8387 11.9663 30.7892 12.0605 30.7625C12.1202 30.7484 12.1829 30.7556 12.238 30.7827C12.293 30.8097 12.3369 30.8551 12.3622 30.911C12.3993 30.9945 12.3622 31.0548 12.3946 31.0595C12.4271 31.0641 12.4596 31.0131 12.4411 30.8878C12.424 30.8135 12.3833 30.7467 12.325 30.6975C12.2857 30.6657 12.2404 30.6419 12.1918 30.6276C12.1432 30.6132 12.0923 30.6086 12.042 30.614C11.9169 30.6364 11.7998 30.691 11.7022 30.7724C11.6045 30.8537 11.5297 30.9591 11.4851 31.078C11.3524 31.3331 11.2839 31.6166 11.2855 31.9041C11.2637 32.1698 11.3212 32.4361 11.451 32.6691C11.5807 32.9021 11.7767 33.0913 12.0141 33.2127C12.0914 33.2372 12.1732 33.2441 12.2535 33.2329C12.3338 33.2216 12.4106 33.1926 12.4782 33.1478C12.5896 33.0596 12.622 32.99 12.5896 32.9853Z" fill="#AA6550"/>
<path d="M11.917 29.6533C12.2012 29.651 12.4807 29.7257 12.7258 29.8695C12.9709 30.0134 13.1725 30.2209 13.3091 30.4701C13.4762 30.9063 13.4948 31.3982 13.6618 31.8298C13.7258 32.0554 13.8632 32.2533 14.0524 32.392C14.2415 32.5307 14.4715 32.6023 14.706 32.5955C14.8642 32.5561 15.0093 32.4758 15.1266 32.3625C15.2439 32.2493 15.3293 32.1072 15.3742 31.9504C15.4546 31.6369 15.4751 31.311 15.4345 30.9898C15.3417 29.5976 15.1236 28.2055 15.1515 26.7854C15.1183 25.3703 15.5041 23.977 16.2606 22.7806C16.6477 22.1909 17.1862 21.7161 17.8197 21.4058C18.4532 21.0956 19.1585 20.9614 19.8617 21.0172C20.7898 21.1471 21.6065 21.6761 22.5161 21.8571C23.0601 21.9621 23.621 21.9414 24.1558 21.7966C24.6906 21.6518 25.1853 21.3868 25.6021 21.0218C25.6496 20.9835 25.6992 20.9479 25.7506 20.9151C25.9025 20.8203 26.0183 20.6775 26.0797 20.5093C26.141 20.3411 26.1445 20.1573 26.0894 19.987C26.0598 19.8787 26.0059 19.7787 25.9316 19.6946C24.2006 17.8987 20.9337 17.2397 18.5066 17.7131C17.263 17.9445 16.0847 18.4438 15.0534 19.1762C14.0221 19.9087 13.1624 20.8567 12.5342 21.9546C11.3694 24.1589 11.4947 27.3191 11.9402 29.6394" fill="#263238"/>
<path d="M21.3606 33.598C21.472 33.598 21.4719 34.3173 22.0938 34.8324C22.7156 35.3475 23.486 35.2686 23.486 35.3661C23.486 35.4635 23.3143 35.5099 22.9848 35.5192C22.5592 35.5241 22.1454 35.3796 21.8154 35.1108C21.5086 34.8561 21.3096 34.4946 21.2585 34.0992C21.2306 33.7697 21.3142 33.5933 21.3606 33.598Z" fill="#263238"/>
<path d="M63.0608 58.1514C63.0608 58.1514 66.3324 55.2788 66.9496 55.07C67.5668 54.8612 72.5183 54.7637 72.8246 55.0143C73.1309 55.2649 78.1427 57.9936 77.3167 58.4112C76.4907 58.8289 73.0334 56.8706 73.0334 56.8706L72.4534 56.9495C72.4534 56.9495 75.4698 58.5597 76.0034 59.1769C76.5371 59.7941 76.0034 60.4345 75.4651 60.17C74.9268 59.9055 72.3142 58.4159 72.11 58.4716C71.9058 58.5273 74.8665 60.2629 75.1403 60.5831C75.5069 61.0146 75.2702 61.8499 74.6994 61.6086C74.3653 61.4648 71.6366 59.6549 71.6366 59.6549C72.4092 60.2887 73.1466 60.9641 73.8456 61.6782C74.0869 62.1423 73.6228 62.5599 73.1448 62.2676C72.82 62.068 71.4139 60.6898 70.9777 60.4113C70.9777 60.4113 70.5136 60.3789 69.785 61.1353C69.0565 61.8917 66.2674 62.9312 66.2674 62.9312L63.0608 58.1514Z" fill="#FFBE9D"/>
<path d="M77.3029 58.4206C76.9496 58.4739 76.589 58.4518 76.2448 58.3556C75.8655 58.2793 75.4941 58.1675 75.1357 58.0215C74.7506 57.8405 74.3283 57.6224 73.8828 57.3997L72.9546 56.9356H73.0196C72.1746 56.9829 71.327 56.9596 70.4858 56.866C71.3221 56.7328 72.1683 56.6722 73.015 56.685H73.0428H73.0753L74.0034 57.1491L75.2378 57.7848C75.5789 57.9367 75.9311 58.0624 76.2912 58.1607C76.9038 58.3417 77.3075 58.3788 77.3029 58.4206Z" fill="#AA6550"/>
<path d="M64.2766 58.9821C64.4114 59.1728 64.6024 59.3164 64.823 59.393C65.0435 59.4695 65.2825 59.4752 65.5064 59.4091C65.9704 59.3116 66.3742 59.061 66.8197 58.945C68.1608 58.5598 69.6504 59.2745 70.9684 58.8244C71.154 58.764 71.3582 58.6248 71.3396 58.4346C71.321 58.2443 71.1169 58.1654 70.9452 58.1097L66.5459 56.7175" fill="#FFBE9D"/>
<path d="M66.546 56.6941C66.7132 56.7099 66.8781 56.7442 67.0379 56.7962C67.3488 56.8797 67.7943 57.0097 68.3465 57.1721L70.277 57.7568L70.8339 57.9285C71.0102 57.9981 71.2655 58.012 71.4325 58.2858C71.4648 58.3566 71.4753 58.4353 71.463 58.5121C71.4506 58.5889 71.4158 58.6603 71.3629 58.7174C71.2758 58.81 71.1675 58.8801 71.0473 58.9216C70.8311 58.9967 70.6068 59.0465 70.3791 59.0701C69.5494 59.0853 68.7196 59.0403 67.8964 58.9355C67.5485 58.9166 67.1998 58.9495 66.8615 59.033C66.5506 59.1211 66.2629 59.2557 65.9891 59.3532C65.7715 59.4563 65.5338 59.5099 65.293 59.5099C65.0522 59.5099 64.8145 59.4563 64.5969 59.3532C64.2999 59.1768 64.2535 58.968 64.2628 58.968C64.3702 59.0885 64.4992 59.1876 64.6433 59.2603C64.8486 59.3337 65.0669 59.3633 65.2842 59.3473C65.5016 59.3314 65.7132 59.2701 65.9056 59.1675C66.1932 59.0335 66.4875 58.9143 66.7873 58.8102C67.1463 58.7092 67.519 58.6654 67.8917 58.6803C68.7039 58.767 69.5206 58.8057 70.3373 58.7963C70.5413 58.7739 70.7421 58.7288 70.936 58.6617C71.1169 58.5967 71.2422 58.4668 71.1866 58.3833C71.1309 58.2997 70.936 58.2162 70.7225 58.1559L70.1656 57.9749L68.2769 57.3484C67.734 57.1628 67.2931 57.0097 66.9915 56.8844C66.8353 56.8407 66.6855 56.7767 66.546 56.6941Z" fill="#AA6550"/>
<path d="M44.4844 82.0967L49.9093 81.563C49.9093 81.563 57.0836 86.4727 56.4061 87.554C55.7286 88.6353 54.5499 87.554 54.5499 87.554C54.5499 87.554 55.8307 89.1272 53.7656 89.6191C53.7656 89.6191 53.2737 90.7003 52.4894 90.6029H51.9975C51.9975 90.6029 51.5335 91.9719 50.8884 91.6795C50.2434 91.3871 48.2247 89.6144 48.2247 89.6144L42.656 89.1225L44.4844 82.0967Z" fill="#FFBE9D"/>
<path d="M47.8584 87.6934C47.8584 87.6934 46.4662 88.2271 46.1831 88.784C45.9 89.3408 45.7191 90.6402 46.6193 90.8954C47.1472 90.9318 47.6774 90.9147 48.2018 90.8444L47.8584 89.3872C48.1167 89.0852 48.3925 88.7985 48.6844 88.5287C48.9814 88.2828 48.6566 87.3222 47.8584 87.6934Z" fill="#FFBE9D"/>
<path d="M49.4222 88.4358C49.4222 88.4358 48.03 88.9695 47.747 89.5264C47.6651 89.69 47.621 89.8701 47.6181 90.0531C47.6152 90.2361 47.6534 90.4174 47.7301 90.5836C47.8067 90.7499 47.9198 90.8967 48.0609 91.0133C48.202 91.1299 48.3675 91.2133 48.5452 91.2573C49.0234 91.2953 49.5044 91.2798 49.9791 91.2109L49.8306 90.9278C49.5522 90.3802 49.4315 89.9347 49.9234 89.5681C49.9513 89.5681 50.2297 89.2897 50.2483 89.2711C50.3206 89.1559 50.352 89.0196 50.3371 88.8843C50.3222 88.749 50.2621 88.6228 50.1664 88.526C50.0707 88.4293 49.9451 88.3677 49.81 88.3513C49.6749 88.3349 49.5383 88.3647 49.4222 88.4358Z" fill="#FFBE9D"/>
<path d="M49.7562 91.1787C49.6388 91.0516 49.5648 90.8906 49.5448 90.7188C49.5248 90.547 49.5598 90.3733 49.6449 90.2227C49.8278 89.9245 50.1215 89.7109 50.4616 89.6287C50.5659 89.5854 50.6802 89.572 50.7917 89.5901C50.9032 89.6081 51.0074 89.6568 51.0927 89.7308C51.1362 89.7902 51.1669 89.858 51.1828 89.9299C51.1988 90.0018 51.1997 90.0762 51.1855 90.1484C51.0955 90.5294 50.9066 90.88 50.638 91.1647C50.508 91.3272 50.3502 91.5035 50.1414 91.4989C49.9326 91.4942 49.7794 91.2993 49.6774 91.1276" fill="#FFBE9D"/>
<path d="M20.4371 47.4223L21.6529 46.9583L22.711 48.847L22.1216 50.8656L20.878 51.1719L19.6389 49.608L20.4371 47.4223Z" fill="#1C75BB"/>
<path d="M20.8779 51.172C20.8779 51.172 22.4604 59.8546 23.7737 65.9616C23.7737 65.9616 24.8549 71.0663 25.2911 72.2218C25.8322 73.3751 26.4999 74.4646 27.282 75.4702L28.8087 76.0596L27.8806 67.4791L22.1263 50.8472L20.8779 51.172Z" fill="#1C75BB"/>
<g opacity="0.4">
<path opacity="0.4" d="M20.4371 47.4221L21.6529 46.958L22.711 48.8467L22.1216 50.8654L20.878 51.1717L19.6389 49.6078L20.4371 47.4221Z" fill="black"/>
</g>
<g opacity="0.4">
<path opacity="0.4" d="M20.8779 51.172C20.8779 51.172 22.4604 59.8546 23.7737 65.9616C23.7737 65.9616 25.0127 71.0013 25.2911 72.2218C25.4536 72.9364 27.282 75.4702 27.282 75.4702L28.8087 76.0596L27.8806 67.4791L22.1263 50.8472L20.8779 51.172Z" fill="black"/>
</g>
<path d="M13.1142 42.146L20.437 47.4224L18.8546 51.7752L12.1907 44.9164L13.1142 42.146Z" fill="#F5F5F5"/>
<path d="M21.6528 46.9582L23.6993 42.3965L24.8595 46.16L23.2492 50.1184L21.6528 46.9582Z" fill="#F5F5F5"/>
<path d="M20.437 47.4223C20.4227 47.5367 20.3946 47.6489 20.3534 47.7565C20.2699 48.007 20.1724 48.3087 20.0564 48.6846C19.7966 49.4596 19.416 50.5408 18.9566 51.8309L18.8963 52.0072L18.7663 51.868L17.0632 49.9839C15.736 48.5129 14.5434 47.1717 13.6942 46.1926L12.6918 45.0231C12.5608 44.8814 12.4456 44.7258 12.3484 44.5591C12.499 44.6746 12.6374 44.8052 12.7614 44.9489L13.8195 46.0626C14.7058 46.9908 15.917 48.3365 17.2396 49.8076C17.8382 50.4758 18.409 51.1163 18.938 51.701L18.7478 51.7381C19.2118 50.4666 19.6295 49.3853 19.9265 48.6243L20.2838 47.7333C20.3184 47.6223 20.3701 47.5174 20.437 47.4223Z" fill="#263238"/>
<path d="M24.8595 46.1648C24.7824 46.5315 24.6673 46.8893 24.5161 47.2321C24.2748 47.8818 23.9314 48.7682 23.5323 49.7473L23.3606 50.165L23.2399 50.462L23.1378 50.1604C22.7317 49.1235 22.2428 48.121 21.676 47.1625C21.9201 47.3814 22.127 47.6384 22.2886 47.9236C22.7325 48.5972 23.0939 49.3217 23.3652 50.0815H23.1378C23.1935 49.9469 23.2538 49.803 23.3095 49.6592C23.7086 48.6846 24.0799 47.8029 24.3583 47.1718C24.4856 46.8178 24.6538 46.4798 24.8595 46.1648Z" fill="#263238"/>
<path d="M117.932 183.573L120.753 194.776L125.537 203.017C125.619 203.158 125.671 203.314 125.691 203.475C125.71 203.636 125.696 203.8 125.649 203.956C125.603 204.111 125.525 204.256 125.42 204.38C125.315 204.505 125.186 204.606 125.041 204.679C124.874 204.765 124.688 204.809 124.5 204.809C124.312 204.809 124.127 204.765 123.96 204.679C121.806 203.519 113.917 199.212 113.75 198.381C113.565 197.416 109.987 186.757 109.987 186.757L117.932 183.573Z" fill="#1C75BB"/>
<g opacity="0.6">
<path opacity="0.6" d="M125.041 204.655L113.551 197.587L113.681 198.051C113.792 198.46 114.046 198.815 114.395 199.054C115.323 199.69 117.959 201.374 123.923 204.623C124.095 204.714 124.287 204.762 124.482 204.762C124.677 204.762 124.869 204.714 125.041 204.623V204.655Z" fill="white"/>
</g>
<g opacity="0.6">
<path opacity="0.6" d="M114.841 193.36C115.01 193.418 115.151 193.538 115.237 193.695C115.323 193.852 115.347 194.035 115.305 194.209C115.253 194.381 115.136 194.525 114.98 194.612C114.823 194.699 114.638 194.721 114.465 194.673C114.289 194.608 114.144 194.479 114.059 194.313C113.973 194.146 113.952 193.954 114.001 193.773C114.078 193.603 114.218 193.471 114.392 193.403C114.565 193.336 114.758 193.338 114.929 193.411" fill="white"/>
</g>
<path d="M121.152 200.493C121.319 200.069 121.569 199.683 121.885 199.356C122.248 199.079 122.661 198.876 123.101 198.757C123.101 198.725 122.939 198.678 122.669 198.711C122.323 198.776 122.001 198.937 121.741 199.175C121.472 199.411 121.277 199.721 121.18 200.066C121.092 200.321 121.119 200.488 121.152 200.493Z" fill="#263238"/>
<path d="M122.354 201.764C122.423 201.797 122.679 201.337 123.208 201.012C123.548 200.844 123.898 200.697 124.257 200.572C124.056 200.512 123.844 200.502 123.638 200.54C123.432 200.579 123.239 200.666 123.073 200.794C122.475 201.161 122.289 201.75 122.354 201.764Z" fill="#263238"/>
<path d="M119.147 198.989C119.526 198.54 119.941 198.123 120.386 197.741C120.88 197.421 121.396 197.139 121.932 196.896C121.307 196.9 120.705 197.127 120.233 197.536C119.708 197.874 119.322 198.389 119.147 198.989Z" fill="#263238"/>
<path d="M118.001 195.653C118.052 195.713 118.595 195.286 119.393 195.035C120.191 194.785 120.874 194.803 120.878 194.724C120.365 194.566 119.812 194.59 119.314 194.794C118.789 194.917 118.324 195.221 118.001 195.653Z" fill="#263238"/>
<path d="M117.091 192.386C117.533 192.094 118.012 191.864 118.516 191.703C119.038 191.618 119.569 191.605 120.094 191.666C120.094 191.638 119.945 191.532 119.63 191.453C119.238 191.361 118.829 191.363 118.438 191.457C118.046 191.551 117.682 191.736 117.374 191.996C117.161 192.2 117.068 192.367 117.091 192.386Z" fill="#263238"/>
<path d="M118.321 191.086C118.321 190.938 118.288 190.793 118.224 190.659C118.077 190.284 117.859 189.941 117.583 189.648C117.397 189.418 117.141 189.255 116.855 189.184C116.758 189.168 116.659 189.183 116.571 189.227C116.484 189.272 116.412 189.342 116.367 189.43C116.286 189.603 116.273 189.8 116.33 189.982C116.459 190.349 116.711 190.659 117.044 190.86C117.377 191.061 117.77 191.139 118.154 191.082C118.533 191.016 118.884 190.841 119.163 190.576C119.442 190.312 119.637 189.971 119.723 189.597C119.743 189.502 119.743 189.404 119.722 189.31C119.701 189.215 119.66 189.126 119.602 189.049C119.536 188.977 119.449 188.927 119.353 188.907C119.257 188.887 119.158 188.898 119.068 188.938C118.811 189.075 118.594 189.276 118.437 189.522C118.202 189.848 118.026 190.212 117.917 190.599C117.866 190.737 117.844 190.884 117.852 191.031C118.025 190.533 118.271 190.064 118.581 189.638C118.725 189.431 118.918 189.262 119.142 189.147C119.19 189.122 119.245 189.114 119.298 189.124C119.351 189.134 119.399 189.162 119.435 189.202C119.469 189.256 119.491 189.317 119.501 189.38C119.51 189.443 119.507 189.507 119.491 189.569C119.406 189.892 119.229 190.185 118.982 190.41C118.735 190.636 118.428 190.785 118.098 190.84C117.771 190.887 117.438 190.82 117.153 190.651C116.869 190.483 116.651 190.222 116.534 189.912C116.49 189.788 116.49 189.652 116.534 189.527C116.559 189.479 116.598 189.439 116.647 189.414C116.695 189.389 116.75 189.38 116.804 189.388C117.046 189.449 117.263 189.583 117.425 189.773C117.801 190.153 118.104 190.598 118.321 191.086Z" fill="#263238"/>
<path d="M82.9318 185.666L83.5304 194.302C83.5304 194.302 74.9546 197.81 74.9082 199.407L91.6933 198.841L91.3174 185.383L82.9318 185.666Z" fill="#1C75BB"/>
<path d="M88.6955 193.402C88.859 193.445 89.0009 193.547 89.0935 193.688C89.1861 193.83 89.2229 194 89.1966 194.168C89.1588 194.332 89.0592 194.476 88.9184 194.569C88.7777 194.662 88.6065 194.698 88.4402 194.669C88.2676 194.623 88.1182 194.514 88.0213 194.364C87.9243 194.214 87.8868 194.033 87.9158 193.857C87.9722 193.688 88.092 193.549 88.2496 193.467C88.4073 193.386 88.5906 193.369 88.7604 193.42" fill="#E0E0E0"/>
<path d="M91.6934 198.84L91.6053 197.485L75.5441 198.529C75.5441 198.529 74.8063 198.878 74.9084 199.402L91.6934 198.84Z" fill="#E0E0E0"/>
<path d="M83.2569 194.223C83.2569 194.306 83.6745 194.33 84.0829 194.58C84.4913 194.831 84.7233 195.165 84.7975 195.132C84.8718 195.1 84.7326 194.627 84.2314 194.334C83.7302 194.042 83.2383 194.149 83.2569 194.223Z" fill="#263238"/>
<path d="M81.5212 195.012C81.5212 195.091 81.8646 195.216 82.1524 195.555C82.4401 195.894 82.5375 196.256 82.6164 196.251C82.6953 196.247 82.7371 195.787 82.3658 195.365C81.9946 194.942 81.5212 194.933 81.5212 195.012Z" fill="#263238"/>
<path d="M80.5884 197.151C80.6673 197.151 80.7647 196.752 80.542 196.311C80.3193 195.87 79.9248 195.703 79.8923 195.773C79.8598 195.843 80.1058 196.075 80.2868 196.441C80.4678 196.808 80.5095 197.147 80.5884 197.151Z" fill="#263238"/>
<path d="M83.3403 192.241C83.3774 192.316 83.7487 192.19 84.2127 192.204C84.6768 192.218 85.0434 192.353 85.0805 192.283C85.1176 192.213 84.765 191.93 84.2174 191.921C83.6698 191.912 83.2939 192.176 83.3403 192.241Z" fill="#263238"/>
<path d="M83.2522 190.488C83.53 190.553 83.8202 190.542 84.0921 190.455C84.3925 190.39 84.6839 190.289 84.9599 190.154C85.1213 190.076 85.2764 189.986 85.424 189.884C85.5176 189.828 85.6021 189.757 85.6746 189.676C85.7262 189.616 85.7564 189.54 85.7606 189.461C85.7648 189.382 85.7427 189.304 85.6978 189.239C85.6541 189.184 85.5984 189.139 85.5349 189.109C85.4713 189.078 85.4017 189.063 85.3312 189.063C85.2238 189.065 85.1173 189.084 85.0156 189.119C84.8387 189.169 84.6663 189.234 84.5005 189.314C84.2226 189.452 83.9676 189.632 83.7441 189.847C83.3636 190.223 83.2429 190.534 83.28 190.548C83.3172 190.562 83.4982 190.311 83.8833 190C84.1084 189.815 84.3564 189.659 84.6212 189.536C84.7708 189.468 84.9261 189.412 85.0852 189.369C85.2616 189.318 85.4101 189.309 85.4611 189.369C85.5122 189.43 85.4611 189.411 85.4611 189.467C85.4057 189.524 85.3433 189.574 85.2755 189.615C85.1354 189.713 84.9898 189.803 84.8393 189.884C84.5841 190.021 84.3169 190.135 84.0411 190.223C83.7713 190.289 83.5074 190.378 83.2522 190.488Z" fill="#263238"/>
<path d="M83.3588 190.608C83.3913 190.608 83.5444 190.32 83.5537 189.791C83.5587 189.476 83.51 189.162 83.4099 188.863C83.3499 188.689 83.2722 188.521 83.1778 188.362C83.129 188.253 83.053 188.158 82.9572 188.087C82.8613 188.015 82.7488 187.969 82.6302 187.954C82.5556 187.958 82.4837 187.983 82.4229 188.027C82.3621 188.07 82.3149 188.13 82.2868 188.2C82.2454 188.299 82.2188 188.404 82.2079 188.51C82.1797 188.698 82.1797 188.889 82.2079 189.077C82.2653 189.391 82.3992 189.685 82.5978 189.935C82.9412 190.357 83.2846 190.446 83.2892 190.399C83.2939 190.353 83.0247 190.209 82.7602 189.801C82.6075 189.563 82.5078 189.296 82.4678 189.016C82.4446 188.855 82.4446 188.691 82.4678 188.529C82.4678 188.353 82.5514 188.204 82.6163 188.223C82.6813 188.241 82.8484 188.348 82.9226 188.487C83.0086 188.636 83.083 188.791 83.1454 188.951C83.2489 189.217 83.313 189.497 83.3356 189.782C83.3913 190.288 83.3171 190.599 83.3588 190.608Z" fill="#263238"/>
<path d="M78.3516 91.7263L81.0524 192.219L94.292 191.824L93.2757 105.569L110.149 194.219L122.108 191.1L106.669 91.9166L78.3516 91.7263Z" fill="#263238"/>
<path d="M85.6097 192.344C85.5401 192.344 85.489 171.512 85.489 145.822C85.489 120.131 85.5401 99.2952 85.6097 99.2952C85.6793 99.2952 85.7303 120.122 85.7303 145.822C85.7303 171.521 85.6746 192.344 85.6097 192.344Z" fill="#28A8DF"/>
<path d="M113.926 194.2C113.861 194.2 110.771 174.245 107.021 149.594C103.272 124.943 100.297 104.947 100.348 104.938C100.399 104.928 103.508 124.892 107.258 149.548C111.008 174.203 113.996 194.2 113.926 194.2Z" fill="#28A8DF"/>
<path d="M97.3272 28.8831C97.7879 27.8486 98.162 26.7775 98.4456 25.6811C98.6034 24.8504 98.854 23.5975 98.5198 22.8178C98.1857 22.0382 97.3736 21.2911 96.3527 21.4999C96.2459 20.6801 95.9321 19.901 95.4409 19.2361C94.9497 18.5712 94.2973 18.0423 93.5451 17.6993C92.0908 17.0008 90.5148 16.591 88.9045 16.4927C88.3139 16.4357 87.718 16.5102 87.1596 16.7108C86.6858 16.9559 86.3154 17.3625 86.1155 17.857C85.6295 17.5052 85.0677 17.2723 84.4753 17.1772C83.8828 17.0821 83.2764 17.1274 82.7047 17.3095C81.4238 17.6575 79.9667 18.3443 79.4052 19.5462C79.0029 20.4405 78.9679 21.4571 79.3077 22.377C79.5537 23.1566 80.3797 24.3817 81.164 24.094" fill="#263238"/>
<path d="M90.872 50.5547C90.1039 50.539 89.3468 50.369 88.6457 50.0548C87.9446 49.7407 87.3139 49.2888 86.7909 48.726C86.268 48.1632 85.8635 47.501 85.6016 46.7788C85.3396 46.0566 85.2255 45.2891 85.2661 44.5219C85.345 42.9163 85.4193 41.6215 85.4193 41.6215C85.4193 41.6215 81.0478 41.0554 80.8854 36.7071C80.723 32.3589 81.2288 22.3445 81.2288 22.3445C83.6773 21.2216 86.3812 20.7728 89.0611 21.0444C91.7411 21.3161 94.2999 22.2984 96.4732 23.8898L97.1275 24.3539L96.7238 44.921C96.7111 45.6757 96.5495 46.4204 96.2483 47.1124C95.947 47.8044 95.512 48.4301 94.9683 48.9536C94.4246 49.4771 93.7828 49.888 93.0799 50.1627C92.3769 50.4375 91.6266 50.5707 90.872 50.5547Z" fill="#FFBE9D"/>
<path d="M85.4102 41.5796C87.4204 41.566 89.3813 40.9554 91.0439 39.8254C91.0439 39.8254 89.7027 43.1992 85.3499 42.9161L85.4102 41.5796Z" fill="#EB996E"/>
<path d="M96.7053 28.8922C96.7796 28.8598 99.6753 27.9316 99.6521 30.9109C99.6289 33.8902 96.6497 33.2544 96.645 33.1662C96.6404 33.0781 96.7053 28.8922 96.7053 28.8922Z" fill="#FFBE9D"/>
<path d="M97.559 32.0482C97.559 32.0482 97.6147 32.0853 97.6983 32.1225C97.8233 32.173 97.9631 32.173 98.0881 32.1225C98.2815 32.0012 98.4392 31.8307 98.5452 31.6285C98.6512 31.4263 98.7016 31.1996 98.6914 30.9716C98.7008 30.7163 98.6516 30.4623 98.5475 30.2291C98.521 30.1361 98.472 30.051 98.4048 29.9814C98.3376 29.9118 98.2543 29.8598 98.1623 29.83C98.103 29.8141 98.0401 29.8192 97.9842 29.8446C97.9283 29.87 97.883 29.9141 97.856 29.9692C97.8143 30.0527 97.8328 30.1131 97.8189 30.1177C97.805 30.1224 97.754 30.0667 97.7772 29.9414C97.7976 29.8687 97.8396 29.8039 97.8978 29.7558C97.9808 29.6956 98.0842 29.6706 98.1855 29.6861C98.3076 29.7107 98.4213 29.7663 98.5155 29.8476C98.6098 29.9289 98.6816 30.0331 98.7238 30.1502C98.8494 30.4084 98.9085 30.694 98.8955 30.9809C98.9085 31.2461 98.8427 31.5092 98.7065 31.7371C98.5702 31.965 98.3696 32.1475 98.1298 32.2617C98.051 32.2816 97.9688 32.2845 97.8888 32.2701C97.8087 32.2557 97.7327 32.2243 97.6658 32.1781C97.5637 32.1178 97.5498 32.0529 97.559 32.0482Z" fill="#EB996E"/>
<path d="M82.3564 29.157C82.36 29.3192 82.4264 29.4736 82.5415 29.5878C82.6566 29.7021 82.8115 29.7672 82.9737 29.7696C83.052 29.7727 83.1303 29.7602 83.2038 29.7329C83.2774 29.7056 83.3448 29.664 83.4022 29.6105C83.4596 29.557 83.5058 29.4927 83.5382 29.4212C83.5706 29.3498 83.5885 29.2726 83.5908 29.1942C83.5884 29.0317 83.5225 28.8765 83.4071 28.7621C83.2918 28.6476 83.1362 28.5828 82.9737 28.5816C82.8156 28.5766 82.662 28.6343 82.5464 28.7421C82.4308 28.8499 82.3625 28.9991 82.3564 29.157Z" fill="#263238"/>
<path d="M82.1986 28.4654C82.2775 28.5443 82.7416 28.1824 83.4098 28.1684C84.0781 28.1545 84.5793 28.4747 84.6489 28.3912C84.7185 28.3077 84.6025 28.2102 84.3844 28.0571C84.0887 27.8668 83.7427 27.7698 83.3913 27.7786C83.0431 27.7863 82.7066 27.905 82.4307 28.1174C82.2311 28.2798 82.1661 28.4283 82.1986 28.4654Z" fill="#263238"/>
<path d="M88.9092 29.1525C88.9128 29.3147 88.9791 29.4691 89.0942 29.5833C89.2093 29.6976 89.3642 29.7627 89.5264 29.7651C89.6054 29.7688 89.6844 29.7569 89.7587 29.7299C89.8331 29.7029 89.9014 29.6615 89.9596 29.608C90.0179 29.5545 90.0649 29.49 90.0981 29.4182C90.1313 29.3464 90.1499 29.2687 90.1529 29.1897C90.1505 29.0279 90.0852 28.8735 89.9708 28.7592C89.8564 28.6448 89.702 28.5795 89.5403 28.5771C89.4608 28.5721 89.381 28.5831 89.3059 28.6096C89.2307 28.636 89.1616 28.6773 89.1027 28.731C89.0438 28.7847 88.9963 28.8497 88.9631 28.9221C88.9298 28.9945 88.9115 29.0729 88.9092 29.1525Z" fill="#263238"/>
<path d="M88.779 28.4239C88.8625 28.5028 89.3219 28.1409 89.9902 28.1269C90.6584 28.113 91.1596 28.4332 91.2292 28.3497C91.2988 28.2662 91.1828 28.1687 90.9647 28.0202C90.6705 27.8267 90.3235 27.7294 89.9716 27.7418C89.6236 27.7458 89.2864 27.8631 89.011 28.0759C88.8068 28.2383 88.7418 28.3868 88.779 28.4239Z" fill="#263238"/>
<path d="M86.4774 33.4446C86.1227 33.3412 85.7562 33.2835 85.3869 33.2729C85.2152 33.2729 85.0528 33.2311 85.0203 33.1151C85.0049 32.9387 85.0403 32.7616 85.1224 32.6046C85.2755 32.1916 85.4333 31.7508 85.5864 31.296C86.2408 29.4398 86.7095 27.8898 86.6352 27.862C86.561 27.8341 85.967 29.333 85.3126 31.2032L84.8486 32.5211C84.7454 32.7297 84.7191 32.968 84.7743 33.194C84.801 33.2533 84.8408 33.3058 84.8906 33.3476C84.9404 33.3894 84.999 33.4194 85.0621 33.4353C85.1574 33.4607 85.2559 33.4716 85.3544 33.4678C85.7281 33.5095 86.1057 33.5016 86.4774 33.4446Z" fill="#263238"/>
<path d="M88.4589 33.8578C88.3475 33.8578 88.3661 34.577 87.7581 35.1107C87.1502 35.6444 86.366 35.5748 86.366 35.6815C86.366 35.7882 86.5423 35.8207 86.8718 35.8207C87.2961 35.8149 87.705 35.6606 88.0273 35.3845C88.3371 35.1163 88.5316 34.739 88.5703 34.3311C88.5935 34.0295 88.5099 33.8531 88.4589 33.8578Z" fill="#263238"/>
<path d="M88.5426 25.8062C88.6122 25.9872 89.2804 25.8851 90.0647 25.9594C90.8489 26.0336 91.494 26.2332 91.5914 26.0661C91.6378 25.9872 91.5218 25.8202 91.2619 25.6485C90.9156 25.4414 90.5265 25.3163 90.1243 25.2825C89.7222 25.2487 89.3177 25.3072 88.9416 25.4536C88.6539 25.5742 88.5147 25.7459 88.5426 25.8062Z" fill="#263238"/>
<path d="M82.4029 26.5211C82.5235 26.6696 82.9783 26.5211 83.5352 26.4793C84.092 26.4376 84.5607 26.5582 84.6628 26.3958C84.7092 26.3169 84.6303 26.1684 84.4215 26.0292C84.1427 25.863 83.8205 25.7839 83.4963 25.8021C83.1722 25.8203 82.8609 25.9349 82.6024 26.1313C82.4075 26.2891 82.3472 26.4515 82.4029 26.5211Z" fill="#263238"/>
<path d="M97.3595 24.7158C97.3317 25.9827 97.6519 27.3888 97.457 28.6417C97.4291 28.8274 96.9558 29.3425 96.914 29.5327C96.6866 30.6418 96.2411 31.1245 95.559 29.9968C95.2945 29.5652 95.0949 28.354 94.9928 27.8667L94.1018 23.8898C93.0938 24.4467 91.9633 24.7449 90.8116 24.7575C90.2375 24.7563 89.6731 24.6091 89.1714 24.3299C88.6698 24.0506 88.2473 23.6485 87.9437 23.1612C87.6819 23.6194 87.3202 24.0129 86.8857 24.3124C86.4511 24.6119 85.9546 24.8098 85.4332 24.8913C84.9117 24.9729 84.3786 24.9361 83.8733 24.7836C83.368 24.6311 82.9035 24.3668 82.5142 24.0104C82.3094 24.3145 81.998 24.5309 81.6415 24.6168C81.285 24.7027 80.9093 24.6519 80.5884 24.4745C80.2779 24.2775 80.0376 23.9874 79.9018 23.6458C79.7659 23.3041 79.7415 22.9282 79.832 22.5718C80.1058 21.4998 81.2242 20.8966 82.2776 20.5578C86.3845 19.2352 90.988 20.0937 94.7608 22.1681C95.323 22.4529 95.8392 22.8205 96.2922 23.2586C96.7284 23.7227 97.3317 24.2471 97.3642 24.8736" fill="#263238"/>
<path d="M94.2318 24.354C94.4604 24.3532 94.6876 24.3892 94.9047 24.4607C95.1322 24.5591 95.3423 24.6939 95.5265 24.8598C95.74 25.0455 95.9488 25.2868 96.204 25.5234C96.4401 25.768 96.729 25.9553 97.0486 26.071C97.3186 26.1477 97.6046 26.1477 97.8746 26.071C98.3387 25.9457 98.5151 25.6905 98.4965 25.6766C98.2811 25.7616 98.0611 25.8344 97.8375 25.8947C97.5983 25.9348 97.353 25.9156 97.1229 25.839C96.8422 25.7269 96.5878 25.5578 96.3757 25.3425C96.1344 25.1197 95.9117 24.8784 95.6796 24.6835C95.4673 24.5109 95.2251 24.3788 94.965 24.2937C94.4963 24.1684 94.2086 24.354 94.2318 24.354Z" fill="#28A8DF"/>
<path d="M94.7283 25.6672C94.7283 25.7044 94.951 25.6672 95.1923 25.8761C95.3344 26.0057 95.462 26.1504 95.5729 26.3076C95.7246 26.5186 95.9171 26.6969 96.139 26.832C96.5452 27.096 97.0328 27.2047 97.5126 27.1383C97.87 27.0873 98.0556 26.9527 98.0417 26.9248C98.0277 26.897 97.8235 26.9573 97.4941 26.962C97.0709 26.9683 96.6545 26.8558 96.2922 26.6371C95.8652 26.3958 95.6518 25.9457 95.313 25.7461C94.9742 25.5466 94.7283 25.6347 94.7283 25.6672Z" fill="#28A8DF"/>
<path d="M83.2613 17.2029C83.132 17.1793 82.9986 17.1922 82.8761 17.24C82.5371 17.3551 82.2442 17.5764 82.0408 17.8711C81.5072 18.6182 81.3819 19.9455 81.7949 21.2263C82.1582 22.3339 82.9186 23.2678 83.9296 23.8482C84.2212 24.0203 84.5329 24.1559 84.8577 24.2519C84.9768 24.3006 85.105 24.3228 85.2336 24.3169C84.8108 24.1329 84.3987 23.9253 83.9992 23.6951C83.0658 23.0984 82.3662 22.1988 82.0176 21.1474C81.6232 19.9315 81.716 18.6647 82.1661 17.9732C82.3423 17.6958 82.5933 17.4738 82.8901 17.3328C83.1267 17.24 83.2613 17.2261 83.2613 17.2029Z" fill="#28A8DF"/>
<path d="M79.6556 19.0126C79.6058 19.2919 79.6184 19.5788 79.6927 19.8526C79.9621 21.2044 80.7543 22.3951 81.897 23.166C82.1204 23.341 82.3806 23.4632 82.658 23.5233C81.8953 22.9846 81.2259 22.3247 80.6765 21.5696C79.8087 20.3027 79.7391 18.9941 79.6556 19.0126Z" fill="#28A8DF"/>
<path d="M55.6592 79.6558L49.2923 79.9806C48.9017 79.9987 48.5335 80.1682 48.2657 80.4532C47.998 80.7383 47.8519 81.1164 47.8584 81.5074C47.8908 82.9645 48.1368 84.9553 49.2505 84.7558L49.9745 81.5863L55.2833 86.2593C55.8178 86.7412 56.4772 87.0628 57.186 87.1875L58.4296 87.0575L55.6592 79.6558Z" fill="#FFBE9D"/>
<path d="M86.1061 45.5522L82.7788 46.6521L81.1267 74.2915V98.8032L101.559 101.068L101.796 65.7157L100.478 48.1185L97.3549 44.3875L86.1061 45.5522Z" fill="#E0E0E0"/>
<path d="M85.0806 46.8746V44.197L97.225 42.5078L96.7378 48.6752L93.9488 53.5153L89.387 53.7706L86.0922 51.7333L85.0806 46.8746Z" fill="#E0E0E0"/>
<path d="M86.1711 46.5638C86.0676 46.1639 86.0439 45.7476 86.1015 45.3386C86.0809 44.9261 86.1391 44.5135 86.2732 44.1228C86.3767 44.5226 86.4003 44.9389 86.3428 45.3479C86.3633 45.7604 86.3051 46.1731 86.1711 46.5638Z" fill="#263238"/>
<path d="M89.2062 46.341C89.1148 45.8903 89.1007 45.4274 89.1644 44.972C89.1513 44.5133 89.2204 44.0559 89.3686 43.6216C89.4626 44.0799 89.4752 44.5511 89.4057 45.0138C89.4182 45.4645 89.3507 45.9139 89.2062 46.341Z" fill="#263238"/>
<path d="M92.1437 46.0349C92.0641 45.5556 92.0641 45.0664 92.1437 44.587C92.1367 44.1011 92.2136 43.6175 92.3711 43.1577C92.4479 43.6373 92.4479 44.126 92.3711 44.6056C92.3727 45.0912 92.2959 45.5738 92.1437 46.0349Z" fill="#263238"/>
<path d="M94.9651 45.5707C94.8303 45.1196 94.7939 44.6449 94.8584 44.1785C94.8389 43.7155 94.9179 43.2536 95.0904 42.8235C95.1514 43.2762 95.1514 43.7351 95.0904 44.1878C95.1112 44.6523 95.069 45.1175 94.9651 45.5707Z" fill="#263238"/>
<path d="M93.6146 57.2556C93.5813 57.4168 93.5266 57.5729 93.4522 57.7197C93.3361 58.0074 93.1552 58.4158 92.9185 58.917C92.4544 59.9147 91.7444 61.2744 90.8813 62.7269C90.0181 64.1794 89.1596 65.4416 88.5053 66.3326C88.1804 66.7967 87.9113 67.1355 87.7164 67.3768C87.6252 67.5104 87.5159 67.6306 87.3915 67.7341C87.3637 67.7341 87.7535 67.154 88.3661 66.2352C88.9786 65.3163 89.8139 64.0448 90.6864 62.6016C91.5588 61.1584 92.2688 59.8172 92.7793 58.8381C93.0278 58.2953 93.3066 57.767 93.6146 57.2556Z" fill="#263238"/>
<path d="M97.2946 43.9604L100.589 45.5475L106.956 47.0929C108.301 47.3278 109.504 48.0717 110.314 49.1701C111.125 50.2684 111.481 51.6368 111.309 52.9911L107.973 78.9784L111.954 104.177L96.1762 103.713L95.248 94.3388V68.3515L97.2946 43.9604Z" fill="#28A8DF"/>
<path d="M95.248 74.3518C95.2558 74.2426 95.2713 74.134 95.2945 74.027L95.4754 73.0989C95.6471 72.2775 95.8838 71.1405 96.1762 69.7484L98.5846 58.713L99.3503 55.2743L99.3828 55.3811L98.2876 54.2348L98.2273 54.1745L98.2737 54.1002L100.107 51.0467V51.1349L98.0835 46.2344L97.5359 44.8422C97.4641 44.6816 97.4051 44.5156 97.3595 44.3457C97.4513 44.4927 97.529 44.6481 97.5916 44.8098C97.7401 45.1485 97.9442 45.5987 98.1948 46.1648L100.297 51.0746V51.1256L100.269 51.1674C99.7077 52.0955 99.0997 53.1396 98.4547 54.2348V54.0956L99.5499 55.2372L99.5963 55.279V55.3439C99.3503 56.4484 99.0951 57.5993 98.8352 58.7873L96.3572 69.804C96.037 71.1962 95.7724 72.3192 95.5822 73.136C95.4894 73.5072 95.4151 73.8089 95.3594 74.0409C95.3329 74.1481 95.2956 74.2522 95.248 74.3518Z" fill="#263238"/>
<path d="M55.9282 78.607L69.8872 70.8247L76.6299 52.5871C77.0987 51.3267 77.8212 50.1759 78.7527 49.2061C79.6843 48.2362 80.805 47.4679 82.0455 46.9488L83.8414 46.2017V94.2319L84.1988 105.606L76.6346 103.341L80.4956 80.4725L79.1591 69.219L77.8365 74.6625C77.6038 75.6283 77.1784 76.5371 76.5859 77.3345C75.9935 78.1319 75.2461 78.8015 74.3885 79.3031L59.8588 86.8533L55.9282 78.607Z" fill="#28A8DF"/>
<path d="M56.0955 78.9644L54.9214 79.3124L58.2255 87.1921L59.7662 86.5935L56.0955 78.9644Z" fill="#E0E0E0"/>
<path d="M72.4117 74.0638C72.1248 73.4419 71.7749 72.851 71.3676 72.3004C70.8977 71.7996 70.3802 71.3457 69.8223 70.9453C70.4978 71.1786 71.0964 71.5927 71.553 72.1425C72.0096 72.6924 72.3066 73.3569 72.4117 74.0638Z" fill="#263238"/>
<path d="M57.6034 78.7091C57.6034 78.7416 57.5338 78.8066 57.5245 78.9412C57.5183 78.9763 57.5211 79.0124 57.5327 79.0461C57.5444 79.0798 57.5645 79.11 57.5911 79.1337C57.6177 79.1574 57.6499 79.174 57.6847 79.1817C57.7195 79.1895 57.7557 79.1882 57.7899 79.178C57.824 79.1678 57.855 79.149 57.8799 79.1234C57.9047 79.0979 57.9226 79.0663 57.9318 79.0319C57.9411 78.9975 57.9413 78.9612 57.9326 78.9267C57.9238 78.8921 57.9064 78.8603 57.8819 78.8344C57.803 78.7231 57.7009 78.7184 57.6962 78.6813C57.6916 78.6442 57.8262 78.5792 58.0025 78.7091C58.0533 78.7495 58.094 78.8011 58.1214 78.8599C58.1488 78.9187 58.1621 78.9831 58.1603 79.0479C58.1585 79.1074 58.1438 79.1658 58.1173 79.2192C58.0908 79.2725 58.0531 79.3194 58.0068 79.3568C57.9604 79.3942 57.9066 79.4211 57.8488 79.4357C57.7911 79.4503 57.7309 79.4523 57.6724 79.4415C57.6138 79.4306 57.5583 79.4073 57.5096 79.373C57.4609 79.3387 57.4203 79.2943 57.3904 79.2428C57.3604 79.1913 57.342 79.134 57.3364 79.0747C57.3307 79.0154 57.3379 78.9556 57.3575 78.8994C57.4364 78.6952 57.6034 78.6813 57.6034 78.7091Z" fill="#263238"/>
<path d="M58.7266 78.2359C58.7266 78.2684 58.657 78.3288 58.6524 78.4633C58.6477 78.5979 58.7312 78.7557 58.9169 78.7C58.9519 78.6919 58.9842 78.6744 59.0101 78.6495C59.0361 78.6245 59.0548 78.593 59.0644 78.5583C59.0739 78.5236 59.0738 78.4869 59.0642 78.4522C59.0546 78.4175 59.0357 78.3861 59.0097 78.3612C58.9308 78.2499 58.8287 78.2406 58.8194 78.2081C58.8101 78.1756 58.9493 78.106 59.1303 78.2359C59.1901 78.2827 59.2357 78.345 59.2624 78.4161C59.289 78.4871 59.2956 78.5641 59.2813 78.6386C59.2671 78.7131 59.2326 78.7823 59.1817 78.8385C59.1307 78.8947 59.0653 78.9358 58.9925 78.9572C58.9197 78.9787 58.8425 78.9797 58.7692 78.9601C58.6959 78.9406 58.6294 78.9012 58.577 78.8464C58.5246 78.7915 58.4883 78.7233 58.4721 78.6492C58.456 78.575 58.4605 78.4979 58.4853 78.4262C58.5642 78.2174 58.7266 78.1849 58.7266 78.2359Z" fill="#263238"/>
<path d="M83.86 75.0941C83.8297 74.9974 83.8095 74.8979 83.7997 74.7971C83.7672 74.5743 83.7208 74.2912 83.6698 73.9386C83.563 73.1682 83.4192 72.0823 83.2428 70.7876C82.8994 68.096 82.4354 64.43 81.9202 60.3741C81.8522 59.7986 81.7826 59.2325 81.7114 58.6756V58.6431V58.6153C82.0641 57.7196 82.4075 56.8519 82.7323 56.0212V56.1094L81.7253 53.7891V53.7519V53.7194C82.3472 51.4827 82.8669 49.6032 83.2382 48.2482C83.4238 47.6124 83.5723 47.0973 83.679 46.7168C83.7259 46.5331 83.7864 46.3532 83.86 46.1785C83.8359 46.3668 83.7971 46.553 83.744 46.7353C83.6512 47.1205 83.5213 47.6356 83.3588 48.2807C83.0061 49.6404 82.5142 51.5291 81.9342 53.7705V53.7009L82.9597 55.9933V56.0397V56.0815C82.6395 56.9168 82.3008 57.7846 81.9527 58.6803V58.6199C82.0223 59.1768 82.0919 59.7476 82.1662 60.323C82.6535 64.3789 83.0943 68.0496 83.4145 70.7458C83.563 72.0545 83.6837 73.1311 83.7672 73.9061L83.8507 74.7692C83.8681 74.8766 83.8712 74.9858 83.86 75.0941Z" fill="#263238"/>
<path d="M80.5004 80.6073C80.4769 80.5333 80.4614 80.4571 80.454 80.3799C80.4308 80.2035 80.3983 79.9854 80.3612 79.7256C80.2869 79.1176 80.1895 78.3009 80.0642 77.3078C79.8182 75.2659 79.4702 72.4491 79.0526 69.3399C78.6349 66.2307 78.2265 63.4185 77.9295 61.3859C77.7857 60.3974 77.665 59.5807 77.5768 58.9774C77.5444 58.7129 77.5165 58.5134 77.4933 58.3185C77.4811 58.2416 77.4811 58.1633 77.4933 58.0864C77.5204 58.1602 77.5406 58.2363 77.5536 58.3138C77.5861 58.4902 77.6325 58.7036 77.6836 58.9635C77.7903 59.525 77.9388 60.3557 78.1105 61.3581C78.4539 63.386 78.8901 66.1982 79.3078 69.3074C79.7254 72.4166 80.0456 75.2427 80.2359 77.2892C80.338 78.3148 80.4122 79.1455 80.4587 79.7163C80.4587 79.9808 80.4911 80.1803 80.5004 80.3752C80.5127 80.4521 80.5127 80.5304 80.5004 80.6073Z" fill="#263238"/>
<path d="M78.5745 97.6753C78.6624 97.8196 78.7702 97.9509 78.8947 98.0651C79.0708 98.2082 79.2777 98.3087 79.4991 98.3586C79.7205 98.4085 79.9504 98.4065 80.1709 98.3528C80.4934 98.2514 80.7875 98.0754 81.0293 97.8392C81.2712 97.603 81.4541 97.3131 81.5631 96.9931C81.818 96.1853 81.9494 95.3436 81.9529 94.4965C82.0535 93.6587 81.9663 92.809 81.6977 92.0091C81.4026 91.3861 80.9693 90.8385 80.4308 90.4081C80.069 90.0975 79.7451 89.7455 79.4655 89.3593C79.3589 89.2218 79.2815 89.0638 79.2381 88.8953C79.2381 88.8953 79.3356 89.053 79.5398 89.3129C79.8445 89.6696 80.1816 89.9974 80.5468 90.2921C81.122 90.7229 81.5865 91.2844 81.9018 91.9302C82.1988 92.759 82.2989 93.6455 82.1942 94.5197C82.1906 95.3921 82.048 96.2584 81.7719 97.0859C81.6466 97.4322 81.4407 97.7437 81.1712 97.9947C80.9017 98.2457 80.5763 98.4289 80.2219 98.5292C79.9761 98.5844 79.7204 98.5782 79.4776 98.511C79.2347 98.4438 79.0122 98.3178 78.8298 98.144C78.7334 98.0517 78.6561 97.9413 78.6024 97.8191C78.5745 97.731 78.5652 97.6753 78.5745 97.6753Z" fill="#263238"/>
<path d="M73.3816 79.656C73.3816 79.656 73.8457 74.3332 78.0593 73.8413C78.064 73.8413 78.1428 78.1849 73.3816 79.656Z" fill="#263238"/>
<path d="M95.9768 99.5871L108.251 107.615L109.643 106.506L110.298 88.5147L98.608 79.6558L97.0024 80.208L95.9768 99.5871Z" fill="#1C75BB"/>
<path d="M98.4686 79.9114L98.9513 99.388H96.3711L97.2342 80.2965L98.4686 79.9114Z" fill="#E0E0E0"/>
<path d="M102.334 103.857C102.449 104.131 102.643 104.366 102.89 104.531C103.138 104.696 103.429 104.784 103.727 104.785C103.759 104.785 103.796 104.813 103.829 104.868C103.944 105.079 104.112 105.257 104.316 105.384C104.52 105.511 104.753 105.582 104.993 105.592C105.459 105.591 105.915 105.461 106.311 105.216C106.952 104.822 108.093 102.26 108.093 102.26L110.799 96.2276L106.251 94.9978L100.464 96.7984C100.464 96.9051 99.1138 102.367 99.1138 102.367C99.4432 102.445 99.7898 102.401 100.089 102.242C100.388 102.083 100.618 101.821 100.738 101.504C101.031 100.844 101.372 100.206 101.759 99.5966L102.19 102.056L100.543 102.622C100.49 102.881 100.532 103.149 100.662 103.379C100.791 103.608 101 103.783 101.248 103.871L102.334 103.857Z" fill="#FFBE9D"/>
<path d="M104.376 61.525L111.954 75.47L105.787 93.7818L112.641 97.6428L121.356 77.2566C121.677 76.5108 121.836 75.7058 121.824 74.8941C121.812 74.0824 121.629 73.2824 121.287 72.5464L110.59 49.5754L104.376 61.525Z" fill="#28A8DF"/>
<path d="M105.782 93.7817L105.146 95.1971L111.615 98.6869L112.293 97.4432L105.782 93.7817Z" fill="#E0E0E0"/>
<path d="M105.787 93.7818C105.787 93.7818 105.787 93.7493 105.787 93.6843C105.787 93.6194 105.833 93.5265 105.866 93.4152L106.195 92.3803C106.497 91.4522 106.924 90.1575 107.453 88.5333C108.548 85.2477 110.075 80.6721 111.82 75.4328V75.5303C110.938 74.0314 110.028 72.4489 109.114 70.8154C107.444 67.8315 105.912 64.9544 104.599 62.2999C103.949 60.9634 103.346 59.6919 102.835 58.4761C102.334 57.3404 102.117 56.0995 102.204 54.861C102.245 53.8412 102.473 52.8377 102.877 51.9003C103.198 51.1992 103.653 50.5684 104.218 50.0441C104.576 49.7166 104.983 49.4473 105.425 49.2459C105.573 49.1745 105.729 49.1185 105.889 49.0789C105.29 49.3218 104.741 49.6726 104.269 50.1137C103.725 50.6419 103.292 51.2728 102.993 51.97C102.608 52.8952 102.394 53.8826 102.362 54.8843C102.291 56.0946 102.513 57.3042 103.007 58.4111C103.527 59.6177 104.135 60.8846 104.789 62.2118C106.107 64.8615 107.648 67.7294 109.318 70.7133C110.246 72.3422 111.133 73.9293 112.01 75.4236L112.038 75.4746V75.521C110.256 80.751 108.706 85.3173 107.587 88.5982C107.031 90.2132 106.58 91.5079 106.265 92.4221C106.107 92.8537 105.986 93.1971 105.898 93.443L105.796 93.7075C105.801 93.7539 105.787 93.7818 105.787 93.7818Z" fill="#263238"/>
<path d="M117.078 75.3402C116.822 75.2734 116.572 75.1866 116.33 75.0803C115.733 74.8799 115.104 74.7872 114.474 74.8065C113.847 74.8284 113.228 74.9587 112.646 75.1917C112.411 75.3128 112.167 75.4167 111.917 75.5026C112.097 75.2981 112.323 75.1391 112.576 75.0386C113.166 74.7474 113.812 74.589 114.47 74.5745C115.126 74.554 115.78 74.6742 116.386 74.9272C116.644 75.0126 116.88 75.1536 117.078 75.3402Z" fill="#263238"/>
<path d="M102.859 58.2024L108.302 76.426L109.072 70.435L102.859 58.2024Z" fill="#263238"/>
<path d="M111.852 94.0002C111.852 94.0326 111.783 94.093 111.778 94.2322C111.772 94.2673 111.774 94.3034 111.786 94.3371C111.798 94.3708 111.818 94.401 111.844 94.4247C111.871 94.4485 111.903 94.465 111.938 94.4727C111.973 94.4805 112.009 94.4792 112.043 94.469C112.077 94.4588 112.108 94.44 112.133 94.4144C112.158 94.3889 112.176 94.3574 112.185 94.3229C112.194 94.2885 112.195 94.2522 112.186 94.2177C112.177 94.1831 112.16 94.1514 112.135 94.1255C112.056 94.0141 111.954 94.0094 111.95 93.9723C111.945 93.9352 112.075 93.8702 112.256 94.0002C112.307 94.0405 112.347 94.0921 112.375 94.1509C112.402 94.2097 112.415 94.2741 112.414 94.3389C112.403 94.4216 112.368 94.4994 112.314 94.5627C112.259 94.6261 112.188 94.6723 112.108 94.6959C112.028 94.7195 111.943 94.7193 111.863 94.6955C111.783 94.6717 111.711 94.6252 111.657 94.5617C111.621 94.5075 111.599 94.4458 111.591 94.3815C111.583 94.3171 111.59 94.2517 111.611 94.1904C111.69 93.963 111.852 93.963 111.852 94.0002Z" fill="#263238"/>
<path d="M112.4 92.6867C112.4 92.7192 112.33 92.7841 112.325 92.9187C112.317 92.9539 112.319 92.9906 112.33 93.025C112.341 93.0594 112.361 93.0901 112.388 93.114C112.415 93.1378 112.448 93.1538 112.484 93.1602C112.52 93.1667 112.556 93.1634 112.59 93.1507C112.625 93.1426 112.657 93.1252 112.683 93.1002C112.709 93.0753 112.728 93.0438 112.737 93.0091C112.747 92.9743 112.747 92.9377 112.737 92.903C112.728 92.8683 112.709 92.8368 112.683 92.812C112.604 92.7052 112.497 92.696 112.493 92.6588C112.488 92.6217 112.622 92.5567 112.803 92.6867C112.854 92.727 112.895 92.7786 112.922 92.8374C112.95 92.8962 112.963 92.9606 112.961 93.0254C112.954 93.1095 112.92 93.1893 112.866 93.2534C112.811 93.3175 112.737 93.3627 112.655 93.3828C112.585 93.4104 112.508 93.4166 112.434 93.4009C112.36 93.3851 112.292 93.3479 112.239 93.294C112.187 93.2401 112.151 93.1718 112.136 93.0977C112.122 93.0235 112.13 92.9468 112.158 92.8769C112.237 92.6728 112.4 92.6588 112.4 92.6867Z" fill="#263238"/>
<path d="M119.848 69.479C119.036 69.9059 118.753 71.1032 118.846 72.0174C118.939 72.9316 119.277 73.818 119.254 74.7368C119.193 75.3891 119.077 76.0349 118.906 76.6673C118.731 77.3035 118.751 77.9774 118.962 78.6024C119.074 78.9113 119.286 79.1741 119.564 79.3496C119.842 79.5252 120.171 79.6035 120.498 79.5723L121.143 78.2729C121.645 77.2558 121.899 76.1338 121.883 74.9994C121.867 73.865 121.581 72.7507 121.05 71.7483L119.848 69.479Z" fill="#263238"/>
<path d="M54.4666 3.67555C54.5453 3.66731 54.6246 3.66731 54.7033 3.67555H55.3993C55.7761 3.68221 56.1517 3.71946 56.5224 3.78692C56.7451 3.81941 56.9864 3.84261 57.237 3.89365L58.0398 4.0932C60.0229 4.63682 61.8541 5.6299 63.3914 6.99543C64.9287 8.36095 66.1308 10.0622 66.9045 11.9673C67.6782 13.8724 68.0027 15.9301 67.8528 17.9808C67.7029 20.0316 67.0827 22.0202 66.0402 23.7926C64.557 26.3141 62.2926 28.2837 59.5898 29.403C58.1673 29.9889 56.6534 30.3219 55.1163 30.3869C53.5343 30.4833 51.9481 30.285 50.4385 29.8021L50.2993 29.7604H50.4061L42.5866 32.4705L42.2711 32.5819L42.3685 32.2617C43.0708 30.0125 43.7483 27.8469 44.4011 25.7648L44.4336 25.9226C43.0425 24.3672 42.0343 22.5081 41.4896 20.4938C40.9449 18.4794 40.8788 16.3656 41.2966 14.3211C41.6406 12.5966 42.3271 10.9587 43.3152 9.50414C44.1573 8.25525 45.2037 7.15709 46.4105 6.25572C46.9264 5.86899 47.4674 5.51708 48.0301 5.2023C48.5368 4.93944 49.0573 4.70398 49.5893 4.49693C50.0426 4.31163 50.5077 4.1566 50.9815 4.03287C51.3778 3.92338 51.7809 3.83967 52.188 3.78228C52.5547 3.73587 52.8795 3.68019 53.1579 3.65234H53.8726H54.3042H54.4527C54.4045 3.66681 54.3545 3.67462 54.3042 3.67555L53.8726 3.70803L53.1672 3.75908C52.8888 3.79156 52.5686 3.85653 52.2066 3.91222C51.8047 3.97565 51.4077 4.06714 51.0186 4.18601C50.5446 4.30899 50.0794 4.46404 49.6264 4.65007C49.1047 4.86159 48.595 5.10172 48.0997 5.36937C47.548 5.68519 47.0179 6.0371 46.5126 6.42278C45.3383 7.31929 44.3193 8.4026 43.4962 9.62944C42.5372 11.0631 41.8745 12.674 41.5471 14.3675C41.1513 16.3645 41.2263 18.4263 41.766 20.3893C42.3057 22.3523 43.2953 24.1626 44.6564 25.6766L44.7213 25.7463L44.6935 25.8344C44.05 27.9227 43.3771 30.0883 42.6748 32.3313L42.4567 32.1224L50.2947 29.4587H50.3504H50.4061L50.5406 29.5005C52.0117 29.9693 53.5565 30.1628 55.0977 30.0713C56.5963 30.0089 58.0725 29.6854 59.4599 29.1153C62.097 28.0239 64.3096 26.1076 65.7664 23.6533C66.9925 21.5752 67.6256 19.2008 67.597 16.7881C67.5683 14.3754 66.8791 12.0167 65.604 9.9682C64.6283 8.38578 63.3243 7.03117 61.7802 5.99585C60.6197 5.21161 59.3413 4.61786 57.9934 4.23706L57.2045 4.02359C56.9539 3.9679 56.7405 3.94006 56.4992 3.90294C56.132 3.82711 55.7598 3.77902 55.3854 3.75908L54.694 3.70803C54.6173 3.70466 54.5411 3.69378 54.4666 3.67555Z" fill="white"/>
<path d="M46.6052 17.9407L48.661 15.885L52.6287 19.4118L60.4157 11.9172L62.3276 13.973L52.3364 23.3795L46.6052 17.9407Z" fill="white"/>
</svg>
