<svg width="189" height="191" viewBox="0 0 189 191" fill="none" xmlns="http://www.w3.org/2000/svg">
<path d="M141.63 93.796C141.296 94.044 140.924 94.2357 140.529 94.3636C139.443 94.7377 138.262 94.7227 137.187 94.3209C136.444 94.0541 135.774 93.6155 135.231 93.0406C134.609 92.3677 134.179 91.5393 133.985 90.6422C133.876 90.1595 133.842 89.6629 133.883 89.1698C133.918 88.6539 134.034 88.1469 134.227 87.6676C134.625 86.6464 135.341 85.7813 136.268 85.2008C137.195 84.6203 138.283 84.3554 139.372 84.4454C139.886 84.4789 140.392 84.5956 140.869 84.7911C141.329 84.971 141.759 85.2199 142.144 85.5294C142.862 86.0981 143.414 86.8498 143.743 87.706C144.028 88.4488 144.134 89.2486 144.053 90.0404C143.941 91.1881 143.434 92.2607 142.621 93.0748C142.335 93.3754 142.002 93.6263 141.634 93.8174C141.613 93.7875 142.004 93.5698 142.544 92.998C143.301 92.1777 143.761 91.1253 143.849 90.0106C143.916 89.2525 143.804 88.4892 143.522 87.7828C143.201 86.9714 142.67 86.2611 141.983 85.7258C141.617 85.433 141.209 85.1997 140.771 85.0344C140.319 84.8524 139.841 84.7429 139.355 84.71C138.327 84.6322 137.302 84.8858 136.427 85.4339C135.553 85.982 134.876 86.796 134.495 87.7572C134.308 88.2096 134.194 88.6895 134.159 89.1783C134.118 89.6454 134.148 90.116 134.249 90.5739C134.413 91.374 134.775 92.1198 135.302 92.7425C135.829 93.3653 136.503 93.845 137.263 94.1374C138.297 94.5408 139.436 94.5859 140.499 94.2655C141.247 94.0222 141.613 93.7661 141.63 93.796Z" fill="#E0E0E0"/>
<path d="M142.531 100.428L142.663 100.548L143.042 100.919L144.542 102.4H144.483L148.412 99.9074L148.382 99.9927C148.101 99.1861 147.787 98.2856 147.446 97.3339V97.287L147.485 97.2486C148.168 96.5078 148.752 95.6799 149.219 94.7861L149.241 94.7434H152.106L152.009 94.8245C152.332 93.3906 152.68 91.8713 153.042 90.2751L153.106 90.4032L150.555 89.1826L150.491 89.1484V89.0759C150.458 88.0693 150.291 87.0716 149.993 86.1098V86.0373L150.049 85.9861L152.038 83.9973V84.1552L149.572 80.199L149.73 80.2545L147.077 81.1849L147 81.2147L146.94 81.1593C146.207 80.4721 145.386 79.8852 144.5 79.4138L144.428 79.3754V79.29C144.428 78.4066 144.428 77.4421 144.428 76.469L144.538 76.6056L139.98 75.5387L140.142 75.4619C139.755 76.2642 139.338 77.1305 138.921 78.0225L138.883 78.0993H138.794C137.794 78.1299 136.803 78.2949 135.847 78.5901C135.784 78.5901 135.992 78.6285 135.703 78.556L135.673 78.5218L135.613 78.4621L135.486 78.334L135.239 78.0822L134.742 77.5786L133.755 76.58L133.934 76.6013L129.988 79.0724L130.048 78.9059C130.358 79.8021 130.669 80.6898 130.97 81.569L131 81.6501L130.941 81.7098C130.256 82.4446 129.672 83.2668 129.202 84.1552L129.163 84.232H129.078H126.268L126.4 84.1253C126.043 85.6788 125.692 87.1938 125.349 88.6705L125.277 88.5211L127.807 89.7545L127.879 89.7886V89.8654C127.908 90.8717 128.073 91.8695 128.368 92.8315L128.39 92.904L128.334 92.9595L126.34 94.9397V94.7904L128.793 98.7551L128.662 98.7081L131.319 97.7863L131.374 97.765L131.421 97.8076C132.154 98.5004 132.974 99.0931 133.862 99.5702L133.913 99.5958V99.6513C133.913 100.676 133.913 101.602 133.891 102.472L133.823 102.391L138.352 103.462L138.279 103.497C138.773 102.485 139.177 101.657 139.517 100.966V100.94H139.542C140.303 100.922 141.061 100.829 141.804 100.663L142.353 100.53C142.412 100.51 142.473 100.496 142.536 100.488C142.477 100.513 142.418 100.534 142.357 100.552C142.238 100.59 142.059 100.65 141.817 100.71C141.074 100.897 140.313 101.006 139.546 101.034L139.585 101.008L138.381 103.569L138.36 103.616H138.309L133.777 102.583H133.709V102.425C133.709 101.572 133.709 100.629 133.709 99.6044L133.76 99.6897C132.853 99.2118 132.014 98.6147 131.264 97.9143L131.37 97.9357L128.717 98.8703L128.636 98.9002L128.589 98.8234L126.119 94.8715L126.068 94.7904L126.136 94.7221L128.126 92.7333L128.096 92.8614C127.793 91.8772 127.623 90.8566 127.59 89.827L127.662 89.938L125.111 88.7131L125.018 88.6662L125.043 88.5638C125.381 87.0871 125.728 85.5721 126.085 84.0186L126.111 83.9119H126.217H129.027L128.904 83.9888C129.383 83.076 129.982 82.232 130.686 81.4793L130.656 81.6244C130.35 80.7453 130.044 79.8576 129.729 78.9614L129.691 78.8547L129.788 78.795L133.73 76.3197L133.828 76.2599L133.908 76.341L134.895 77.3397L135.392 77.8432L135.639 78.095L135.762 78.2188L135.826 78.2828L135.856 78.3127L135.716 78.2786C136.696 77.9737 137.713 77.8029 138.739 77.7707L138.615 77.8518L139.84 75.2911L139.887 75.1887L140.001 75.2143L144.564 76.3197L144.67 76.3453V76.4562C144.67 77.4335 144.67 78.3938 144.67 79.2772L144.593 79.1534C145.502 79.6361 146.341 80.239 147.089 80.9459L146.953 80.916L149.606 79.9899L149.708 79.9558L149.764 80.0454C150.614 81.4239 151.464 82.7639 152.221 84.0058L152.272 84.0955L152.2 84.168L150.206 86.1482L150.236 86.0245C150.536 87.0091 150.703 88.0296 150.733 89.0588L150.665 88.9564L153.195 90.1855L153.276 90.2239L153.254 90.3135C152.883 91.9097 152.53 93.4247 152.196 94.8587V94.9355H152.115H149.305L149.39 94.8885C148.906 95.7935 148.306 96.6301 147.604 97.3766L147.625 97.2913L148.535 99.9586L148.556 100.014L148.505 100.044L144.551 102.489L144.517 102.511L144.491 102.485L143.042 100.983L142.672 100.59C142.62 100.541 142.573 100.486 142.531 100.428Z" fill="#E0E0E0"/>
<path fill-rule="evenodd" clip-rule="evenodd" d="M151.792 66.666C150.42 67.0883 148.999 67.3265 147.566 67.3745L145.839 70.9636L139.436 69.4742V65.4881C138.169 64.8149 136.996 63.9753 135.949 62.9915L132.199 64.3017L128.717 58.7067L131.54 55.8986C131.117 54.5225 130.88 53.0958 130.834 51.6565L127.267 49.9323L128.747 43.5051H132.718C133.389 42.2336 134.227 41.058 135.21 40.0098L133.9 36.2457L139.461 32.7504L142.255 35.5842C143.627 35.1599 145.05 34.9216 146.486 34.8758L148.212 31.2866L154.615 32.7718V36.7621C155.883 37.4353 157.055 38.2749 158.102 39.2587L161.852 37.9485L165.334 43.5307L162.515 46.3389C162.937 47.7151 163.173 49.1418 163.217 50.581L166.797 52.3137L165.313 58.7409H161.342C160.671 60.0154 159.833 61.1938 158.85 62.2447L160.16 66.0088L154.585 69.4998L151.792 66.666ZM150.516 57.277C151.697 56.5322 152.631 55.4526 153.2 54.175C153.769 52.8974 153.948 51.4791 153.714 50.0994C153.48 48.7198 152.844 47.4407 151.885 46.424C150.927 45.4073 149.69 44.6987 148.331 44.3877C146.971 44.0767 145.55 44.1774 144.248 44.6769C142.945 45.1764 141.82 46.0524 141.013 47.1941C140.207 48.3358 139.756 49.6918 139.717 51.0908C139.679 52.4898 140.054 53.8688 140.797 55.0536C141.288 55.8412 141.93 56.5239 142.685 57.0624C143.439 57.601 144.293 57.9849 145.195 58.1922C146.098 58.3995 147.033 58.4261 147.946 58.2706C148.859 58.115 149.732 57.7803 150.516 57.2856V57.277Z" fill="#E0E0E0"/>
<path fill-rule="evenodd" clip-rule="evenodd" d="M166.873 87.9151C166.145 88.1422 165.39 88.2699 164.628 88.2949L163.697 90.2112L160.296 89.4216V87.2878C159.62 86.9305 158.997 86.4825 158.442 85.9562L156.443 86.6561L154.594 83.6687L156.095 82.175C155.867 81.4433 155.742 80.6836 155.721 79.9174L153.816 78.9956L154.607 75.5814H156.732C157.088 74.9046 157.533 74.2788 158.055 73.7207L157.362 71.7148L160.338 69.8584L161.826 71.3649C162.555 71.1375 163.312 71.0111 164.075 70.9893L164.994 69.0774L168.395 69.8669V72.0008C169.07 72.359 169.695 72.8053 170.253 73.328L172.248 72.6281L174.101 75.6155L172.6 77.1092C172.824 77.842 172.949 78.6011 172.975 79.3669L174.875 80.2887L174.089 83.7029H171.963C171.606 84.3814 171.16 85.0087 170.636 85.5679L171.35 87.5737L168.374 89.4302L166.886 87.9237L166.873 87.9151ZM166.197 82.9261C166.827 82.5316 167.327 81.9583 167.632 81.2787C167.938 80.5992 168.035 79.844 167.913 79.1087C167.791 78.3733 167.454 77.6909 166.946 77.1477C166.437 76.6046 165.779 76.225 165.055 76.0572C164.332 75.8893 163.575 75.9407 162.88 76.2048C162.186 76.4689 161.585 76.9338 161.153 77.5407C160.722 78.1477 160.48 78.8694 160.457 79.6146C160.435 80.3597 160.633 81.0948 161.027 81.7269C161.287 82.1473 161.627 82.5121 162.028 82.8004C162.429 83.0887 162.882 83.2948 163.362 83.407C163.843 83.5192 164.34 83.5352 164.827 83.4542C165.313 83.3731 165.779 83.1966 166.197 82.9347V82.9261Z" fill="#EBEBEB"/>
<path d="M189 189.679C189 189.739 146.69 189.79 94.5064 189.79C42.3231 189.79 0 189.739 0 189.679C0 189.619 42.3019 189.568 94.5064 189.568C146.711 189.568 189 189.619 189 189.679Z" fill="black"/>
<path d="M53.4036 56.2699C53.4036 56.2699 54.5601 49.3093 54.8364 48.7801C55.1128 48.2509 58.3102 44.9946 58.6844 44.9391C59.0586 44.8836 64.1013 43.2875 63.8249 44.0856C63.5485 44.8836 59.9982 45.9378 59.9982 45.9378L59.6623 46.3645C59.6623 46.3645 62.6811 45.3787 63.4337 45.4043C64.1225 45.4043 64.2458 46.1469 63.7058 46.356C63.1659 46.5651 60.5042 47.3418 60.4064 47.5083C60.3086 47.6747 63.3827 46.7998 63.7526 46.8126C64.2713 46.8382 64.6455 47.4955 64.1183 47.7174C63.8079 47.8497 60.8443 48.5325 60.8443 48.5325C61.7569 48.4124 62.6752 48.3411 63.5953 48.3191C64.0503 48.4429 64.0205 48.9934 63.5103 49.13C63.1701 49.2196 61.3588 49.2965 60.8996 49.4202C60.8996 49.4202 60.5595 49.7147 60.5722 50.6322C60.585 51.5498 59.3945 54.0037 59.3945 54.0037L53.4036 56.2699Z" fill="#FFBE9D"/>
<path d="M63.8206 44.0771C63.6174 44.3403 63.3646 44.5607 63.0765 44.7258C62.7778 44.9269 62.4619 45.1012 62.1326 45.2465C61.7584 45.3873 61.3417 45.5281 60.9081 45.6732L59.9769 45.989L60.0279 45.9592C59.4978 46.5383 58.9219 47.0735 58.3059 47.5596C58.7782 46.935 59.3 46.3499 59.8663 45.8098H59.9004L60.8145 45.4897L62.0391 45.0629C62.3611 44.9329 62.6737 44.7803 62.9745 44.6063C63.506 44.2862 63.7781 44.0515 63.8206 44.0771Z" fill="#EB996E"/>
<path d="M130.958 132.726L62.3154 125.633C61.3094 125.526 60.3868 125.022 59.7494 124.234C59.112 123.445 58.8116 122.435 58.9139 121.425L70.8192 5.60775C70.8914 4.89601 71.1028 4.20556 71.4411 3.57589C71.7795 2.94623 72.2383 2.38973 72.7912 1.93823C73.3441 1.48673 73.9803 1.1491 74.6633 0.944665C75.3463 0.740229 76.0628 0.672998 76.7718 0.746819L142.187 7.51116C143.618 7.65975 144.932 8.37246 145.84 9.49273C146.748 10.613 147.176 12.0492 147.03 13.486L135.142 129.312C135.034 130.32 134.534 131.245 133.75 131.884C132.967 132.524 131.963 132.826 130.958 132.726Z" fill="#28A8DF"/>
<path opacity="0.4" d="M130.958 132.726L62.3154 125.633C61.3094 125.526 60.3868 125.022 59.7494 124.234C59.112 123.445 58.8116 122.435 58.9139 121.425L70.8192 5.60775C70.8914 4.89601 71.1028 4.20556 71.4411 3.57589C71.7795 2.94623 72.2383 2.38973 72.7912 1.93823C73.3441 1.48673 73.9803 1.1491 74.6633 0.944665C75.3463 0.740229 76.0628 0.672998 76.7718 0.746819L142.187 7.51116C143.618 7.65975 144.932 8.37246 145.84 9.49273C146.748 10.613 147.176 12.0492 147.03 13.486L135.142 129.312C135.034 130.32 134.534 131.245 133.75 131.884C132.967 132.524 131.963 132.826 130.958 132.726Z" fill="black"/>
<path d="M124.023 132.013L55.3892 124.916C54.3832 124.809 53.4605 124.306 52.8231 123.517C52.1857 122.728 51.8853 121.719 51.9877 120.708L63.8929 4.89088C64.041 3.45434 64.751 2.13552 65.8671 1.2241C66.9832 0.312671 68.4142 -0.116827 69.8455 0.0299424L135.282 6.79428C136.713 6.94396 138.026 7.65696 138.934 8.77697C139.841 9.89698 140.27 11.3326 140.125 12.7691L128.219 128.587C128.115 129.599 127.615 130.529 126.828 131.172C126.041 131.815 125.032 132.117 124.023 132.013Z" fill="#28A8DF"/>
<path d="M89.1245 100.49L65.4562 98.0431C64.8909 97.9846 64.3854 98.3972 64.3272 98.9646L63.368 108.313C63.3098 108.88 63.7209 109.387 64.2862 109.446L87.9545 111.892C88.5198 111.951 89.0252 111.538 89.0834 110.971L90.0426 101.623C90.1008 101.055 89.6897 100.548 89.1245 100.49Z" fill="#28A8DF"/>
<g opacity="0.4">
<path opacity="0.4" d="M89.1242 100.49L65.4559 98.0431C64.8906 97.9846 64.3852 98.3972 64.327 98.9646L63.3678 108.313C63.3096 108.88 63.7206 109.387 64.2859 109.446L87.9542 111.892C88.5195 111.951 89.025 111.538 89.0832 110.971L90.0423 101.623C90.1006 101.055 89.6895 100.548 89.1242 100.49Z" fill="black"/>
</g>
<path d="M68.6453 12.9765L66.0122 38.6392L131.189 45.3765L133.822 19.7139L68.6453 12.9765Z" fill="#FAFAFA"/>
<path d="M131.191 45.3787C131.191 45.3787 131.191 45.2208 131.23 44.922L131.357 43.5905C131.472 42.4254 131.642 40.7055 131.863 38.4949C132.288 34.0692 132.952 27.6591 133.747 19.7169L133.819 19.8022L68.6422 13.0891L68.7613 12.9867C67.8386 21.9489 66.9457 30.6337 66.1251 38.6485L66.0273 38.5333L112.734 43.4113L126.281 44.8452L129.912 45.2336L130.851 45.3403L131.174 45.3787L130.864 45.3531L129.933 45.2635L126.323 44.905L112.794 43.5308L66.023 38.7467H65.9167V38.64C66.7374 30.6252 67.6175 21.9532 68.5444 12.9781V12.8672H68.655L133.832 19.6315H133.908V19.7083C133.058 27.6762 132.403 34.0948 131.936 38.529C131.702 40.7354 131.51 42.4425 131.396 43.6076C131.332 44.1837 131.285 44.619 131.251 44.922C131.217 45.2251 131.191 45.3787 131.191 45.3787Z" fill="black"/>
<path d="M78.804 50.3L69.4864 49.3368C69.0006 49.2866 68.5661 49.6412 68.5161 50.1289L67.5565 59.4812C67.5065 59.9689 67.8598 60.4049 68.3456 60.4551L77.6632 61.4183C78.1491 61.4685 78.5835 61.1139 78.6336 60.6262L79.5931 51.2739C79.6432 50.7862 79.2899 50.3502 78.804 50.3Z" fill="#28A8DF"/>
<g opacity="0.4">
<path opacity="0.4" d="M78.804 50.3L69.4864 49.3368C69.0006 49.2866 68.5661 49.6412 68.5161 50.1289L67.5565 59.4812C67.5065 59.9689 67.8598 60.4049 68.3456 60.4551L77.6632 61.4183C78.1491 61.4685 78.5835 61.1139 78.6336 60.6262L79.5932 51.2739C79.6432 50.7862 79.2899 50.3502 78.804 50.3Z" fill="black"/>
</g>
<path d="M77.0919 50.1252L67.7743 49.162C67.2884 49.1118 66.854 49.4664 66.8039 49.9541L65.8443 59.3064C65.7943 59.7941 66.1476 60.2301 66.6335 60.2803L75.9511 61.2435C76.4369 61.2937 76.8714 60.9391 76.9214 60.4514L77.881 51.0991C77.931 50.6114 77.5777 50.1754 77.0919 50.1252Z" fill="black"/>
<path d="M72.8898 52.9197L72.4136 57.5545L71.3464 57.4435L71.7333 53.6708L70.8064 53.5769L70.8957 52.7234L72.8898 52.9197Z" fill="white"/>
<path d="M94.2535 51.8974L84.9359 50.9342C84.45 50.884 84.0156 51.2386 83.9656 51.7263L83.006 61.0786C82.9559 61.5663 83.3092 62.0023 83.7951 62.0526L93.1127 63.0157C93.5985 63.066 94.033 62.7113 94.083 62.2237L95.0426 52.8713C95.0927 52.3836 94.7393 51.9476 94.2535 51.8974Z" fill="#28A8DF"/>
<g opacity="0.4">
<path opacity="0.4" d="M94.2535 51.8974L84.9359 50.9342C84.45 50.884 84.0156 51.2386 83.9656 51.7263L83.006 61.0786C82.9559 61.5663 83.3092 62.0023 83.7951 62.0526L93.1127 63.0157C93.5985 63.066 94.033 62.7113 94.083 62.2237L95.0426 52.8713C95.0927 52.3836 94.7393 51.9476 94.2535 51.8974Z" fill="black"/>
</g>
<path d="M92.5413 51.7221L83.2237 50.7589C82.7379 50.7087 82.3034 51.0633 82.2534 51.551L81.2938 60.9033C81.2438 61.391 81.5971 61.827 82.0829 61.8773L91.4005 62.8404C91.8864 62.8907 92.3208 62.536 92.3709 62.0484L93.3305 52.696C93.3805 52.2084 93.0272 51.7723 92.5413 51.7221Z" fill="black"/>
<path d="M89.6208 58.4677L89.5316 59.3426L86.0408 58.9798L86.1131 58.2884L88.0689 56.7819C88.5154 56.4362 88.6132 56.2015 88.6344 55.9796C88.6727 55.6126 88.4431 55.3778 87.9584 55.3266C87.7736 55.2996 87.5851 55.3186 87.4094 55.3818C87.2337 55.4451 87.0762 55.5507 86.9507 55.6894L86.2236 55.1047C86.4658 54.8437 86.7679 54.6462 87.1037 54.5294C87.4394 54.4126 87.7986 54.3801 88.1497 54.4347C89.1744 54.5414 89.8079 55.1431 89.7229 55.9839C89.6761 56.432 89.5061 56.8374 88.8002 57.3666L87.6352 58.2628L89.6208 58.4677Z" fill="white"/>
<path d="M110.268 53.5524L100.95 52.5892C100.464 52.539 100.03 52.8936 99.98 53.3813L99.0204 62.7336C98.9703 63.2213 99.3236 63.6574 99.8095 63.7076L109.127 64.6708C109.613 64.721 110.047 64.3664 110.097 63.8787L111.057 54.5264C111.107 54.0387 110.754 53.6026 110.268 53.5524Z" fill="#28A8DF"/>
<g opacity="0.4">
<path opacity="0.4" d="M110.268 53.5524L100.95 52.5892C100.464 52.539 100.03 52.8936 99.98 53.3813L99.0204 62.7336C98.9703 63.2213 99.3236 63.6574 99.8095 63.7076L109.127 64.6707C109.613 64.721 110.047 64.3663 110.097 63.8787L111.057 54.5264C111.107 54.0387 110.754 53.6026 110.268 53.5524Z" fill="black"/>
</g>
<path d="M108.56 53.3774L99.2423 52.4142C98.7564 52.364 98.322 52.7186 98.2719 53.2063L97.3124 62.5586C97.2623 63.0463 97.6156 63.4823 98.1015 63.5325L107.419 64.4957C107.905 64.5459 108.339 64.1913 108.389 63.7036L109.349 54.3513C109.399 53.8636 109.046 53.4276 108.56 53.3774Z" fill="black"/>
<path d="M105.65 59.5561C105.57 60.3371 104.898 60.99 103.584 60.8364C102.963 60.7844 102.371 60.5482 101.883 60.1578L102.385 59.3811C102.74 59.6979 103.187 59.8923 103.661 59.9359C104.192 59.9914 104.545 59.8036 104.583 59.428C104.622 59.0525 104.388 58.8306 103.78 58.7708L103.291 58.7196L103.363 58.0112L104.426 57.0296L102.457 56.8247L102.547 55.9712L105.778 56.3041L105.706 56.9997L104.545 58.0837C104.884 58.1355 105.19 58.3186 105.397 58.5938C105.603 58.8689 105.694 59.2143 105.65 59.5561Z" fill="white"/>
<path d="M126.286 55.2077L116.969 54.2445C116.483 54.1943 116.049 54.5489 115.999 55.0366L115.039 64.3889C114.989 64.8766 115.342 65.3126 115.828 65.3629L125.146 66.326C125.632 66.3763 126.066 66.0216 126.116 65.534L127.076 56.1816C127.126 55.694 126.772 55.2579 126.286 55.2077Z" fill="#28A8DF"/>
<g opacity="0.4">
<path opacity="0.4" d="M126.286 55.2077L116.969 54.2445C116.483 54.1943 116.049 54.5489 115.999 55.0366L115.039 64.3889C114.989 64.8766 115.342 65.3126 115.828 65.3629L125.146 66.326C125.632 66.3763 126.066 66.0216 126.116 65.534L127.076 56.1816C127.126 55.694 126.772 55.2579 126.286 55.2077Z" fill="black"/>
</g>
<path d="M124.612 55.0324L115.295 54.0692C114.809 54.019 114.374 54.3736 114.324 54.8613L113.365 64.2136C113.315 64.7013 113.668 65.1373 114.154 65.1876L123.472 66.1507C123.957 66.201 124.392 65.8463 124.442 65.3587L125.402 56.0063C125.452 55.5187 125.098 55.0826 124.612 55.0324Z" fill="black"/>
<path d="M116.878 59.4605L116.834 59.885L121.783 60.3965L121.826 59.972L116.878 59.4605Z" fill="white"/>
<path d="M120.358 57.849C120.342 58.0087 120.279 58.1601 120.177 58.2839C120.075 58.4077 119.939 58.4984 119.786 58.5444C119.632 58.5905 119.469 58.5899 119.316 58.5426C119.163 58.4953 119.028 58.4036 118.927 58.279C118.826 58.1544 118.764 58.0025 118.75 57.8426C118.735 57.6828 118.768 57.5221 118.844 57.381C118.92 57.2399 119.036 57.1246 119.178 57.0499C119.32 56.9752 119.48 56.9444 119.639 56.9613C119.852 56.9839 120.046 57.09 120.181 57.2563C120.316 57.4227 120.379 57.6358 120.358 57.849Z" fill="white"/>
<path d="M119.903 62.1764C119.886 62.3349 119.823 62.4848 119.721 62.6073C119.62 62.7298 119.484 62.8193 119.332 62.8646C119.18 62.9099 119.018 62.9089 118.866 62.8618C118.714 62.8147 118.58 62.7236 118.48 62.5999C118.38 62.4762 118.318 62.3256 118.304 62.1669C118.289 62.0083 118.321 61.8488 118.396 61.7085C118.472 61.5682 118.587 61.4535 118.727 61.3788C118.867 61.3041 119.026 61.2728 119.184 61.2887C119.29 61.2994 119.392 61.3308 119.485 61.3813C119.578 61.4317 119.661 61.5001 119.727 61.5826C119.794 61.6651 119.844 61.7601 119.874 61.862C119.904 61.9639 119.914 62.0707 119.903 62.1764Z" fill="white"/>
<path d="M77.1331 66.5927L67.8155 65.6295C67.3297 65.5793 66.8952 65.9339 66.8452 66.4216L65.8856 75.7739C65.8356 76.2616 66.1889 76.6976 66.6747 76.7479L75.9923 77.711C76.4782 77.7613 76.9126 77.4066 76.9627 76.919L77.9223 67.5666C77.9723 67.079 77.619 66.6429 77.1331 66.5927Z" fill="#28A8DF"/>
<g opacity="0.4">
<path opacity="0.4" d="M77.1331 66.5927L67.8155 65.6295C67.3297 65.5793 66.8952 65.9339 66.8452 66.4216L65.8856 75.7739C65.8356 76.2616 66.1889 76.6976 66.6747 76.7479L75.9923 77.711C76.4782 77.7613 76.9126 77.4066 76.9627 76.919L77.9223 67.5666C77.9723 67.079 77.619 66.6429 77.1331 66.5927Z" fill="black"/>
</g>
<path d="M75.4251 66.4179L66.1075 65.4547C65.6217 65.4045 65.1872 65.7591 65.1372 66.2468L64.1776 75.5991C64.1276 76.0868 64.4809 76.5228 64.9667 76.5731L74.2843 77.5362C74.7702 77.5865 75.2046 77.2318 75.2546 76.7442L76.2142 67.3918C76.2643 66.9042 75.911 66.4681 75.4251 66.4179Z" fill="black"/>
<path d="M72.1884 73.0078L71.4358 72.931L71.338 73.904L70.2963 73.793L70.3941 72.82L67.9067 72.5639L67.9833 71.8427L70.4621 69.1284L71.5804 69.2436L69.2758 71.8043L70.5174 71.9323L70.6067 71.0788L71.6144 71.1855L71.5251 72.039L72.2819 72.1244L72.1884 73.0078Z" fill="white"/>
<path d="M92.5826 68.1857L83.265 67.2225C82.7791 67.1723 82.3447 67.5269 82.2947 68.0146L81.3351 77.3669C81.285 77.8546 81.6383 78.2907 82.1242 78.3409L91.4418 79.3041C91.9277 79.3543 92.3621 78.9997 92.4121 78.512L93.3717 69.1597C93.4218 68.672 93.0684 68.2359 92.5826 68.1857Z" fill="#28A8DF"/>
<g opacity="0.4">
<path opacity="0.4" d="M92.5826 68.1859L83.265 67.2228C82.7791 67.1726 82.3447 67.5272 82.2947 68.0149L81.3351 77.3672C81.285 77.8549 81.6383 78.2909 82.1242 78.3411L91.4418 79.3043C91.9277 79.3545 92.3621 78.9999 92.4121 78.5122L93.3717 69.1599C93.4218 68.6722 93.0684 68.2362 92.5826 68.1859Z" fill="black"/>
</g>
<path d="M90.8704 68.0107L81.5528 67.0475C81.067 66.9973 80.6325 67.3519 80.5825 67.8396L79.6229 77.1919C79.5729 77.6796 79.9262 78.1156 80.412 78.1658L89.7296 79.129C90.2155 79.1792 90.6499 78.8246 90.7 78.3369L91.6595 68.9846C91.7096 68.4969 91.3563 68.0609 90.8704 68.0107Z" fill="black"/>
<path d="M87.4994 74.1005C87.4144 74.9241 86.7383 75.5771 85.4202 75.4405C84.8001 75.3831 84.2096 75.1475 83.7195 74.762L84.2255 73.9852C84.5823 74.2989 85.0287 74.4916 85.501 74.5358C86.0325 74.5913 86.3854 74.3992 86.4237 74.0237C86.4619 73.6481 86.2493 73.3963 85.4117 73.311L84.2297 73.1872L84.7357 70.6052L87.5547 70.8954L87.4654 71.749L85.5393 71.5527L85.3777 72.4062L85.7519 72.4446C87.104 72.611 87.5887 73.2811 87.4994 74.1005Z" fill="white"/>
<path d="M108.597 69.8407L99.2794 68.8776C98.7935 68.8273 98.3591 69.182 98.3091 69.6696L97.3495 79.022C97.2994 79.5096 97.6527 79.9457 98.1386 79.9959L107.456 80.9591C107.942 81.0093 108.377 80.6547 108.427 80.167L109.386 70.8147C109.436 70.327 109.083 69.891 108.597 69.8407Z" fill="#28A8DF"/>
<g opacity="0.4">
<path opacity="0.4" d="M108.597 69.8407L99.2794 68.8776C98.7935 68.8273 98.3591 69.182 98.3091 69.6696L97.3495 79.022C97.2994 79.5096 97.6527 79.9457 98.1386 79.9959L107.456 80.9591C107.942 81.0093 108.377 80.6547 108.427 80.167L109.386 70.8147C109.436 70.327 109.083 69.891 108.597 69.8407Z" fill="black"/>
</g>
<path d="M106.889 69.6659L97.5714 68.7028C97.0855 68.6525 96.6511 69.0072 96.601 69.4948L95.6415 78.8472C95.5914 79.3348 95.9447 79.7709 96.4306 79.8211L105.748 80.7843C106.234 80.8345 106.668 80.4799 106.719 79.9922L107.678 70.6399C107.728 70.1522 107.375 69.7161 106.889 69.6659Z" fill="black"/>
<path d="M103.839 75.7862C103.741 76.7293 102.908 77.2457 101.93 77.1476C100.654 77.0153 99.9487 76.1319 100.102 74.6339C100.268 73.0335 101.322 72.2397 102.712 72.3848C103.169 72.4057 103.61 72.5535 103.988 72.8116L103.512 73.5584C103.266 73.3695 102.97 73.258 102.661 73.2383C101.892 73.1573 101.348 73.5627 101.224 74.4461C101.392 74.3207 101.583 74.2304 101.786 74.1806C101.989 74.1307 102.2 74.1223 102.406 74.1559C102.61 74.1607 102.81 74.2077 102.994 74.2939C103.178 74.3801 103.343 74.5036 103.478 74.6567C103.612 74.8098 103.714 74.9891 103.776 75.1835C103.838 75.3779 103.86 75.5831 103.839 75.7862ZM102.797 75.7307C102.808 75.6312 102.797 75.5307 102.765 75.4358C102.734 75.3409 102.683 75.2538 102.615 75.1803C102.548 75.1068 102.465 75.0486 102.373 75.0096C102.282 74.9706 102.183 74.9516 102.083 74.954C101.985 74.9337 101.885 74.9338 101.787 74.9541C101.689 74.9745 101.597 75.0146 101.515 75.0722C101.433 75.1298 101.364 75.2035 101.312 75.2889C101.26 75.3742 101.226 75.4694 101.211 75.5685C101.173 75.9654 101.441 76.2855 101.956 76.341C102.051 76.3626 102.151 76.3636 102.247 76.3438C102.343 76.324 102.434 76.284 102.513 76.2263C102.593 76.1686 102.66 76.0945 102.709 76.0091C102.757 75.9237 102.788 75.8288 102.797 75.7307Z" fill="white"/>
<path d="M124.616 71.496L115.298 70.5328C114.812 70.4826 114.378 70.8372 114.328 71.3249L113.368 80.6772C113.318 81.1649 113.671 81.601 114.157 81.6512L123.475 82.6143C123.961 82.6646 124.395 82.3099 124.445 81.8223L125.405 72.47C125.455 71.9823 125.101 71.5462 124.616 71.496Z" fill="#28A8DF"/>
<g opacity="0.4">
<path opacity="0.4" d="M124.616 71.496L115.298 70.5328C114.812 70.4826 114.378 70.8372 114.328 71.3249L113.368 80.6772C113.318 81.1649 113.672 81.601 114.157 81.6512L123.475 82.6143C123.961 82.6646 124.395 82.3099 124.445 81.8223L125.405 72.47C125.455 71.9823 125.102 71.5462 124.616 71.496Z" fill="black"/>
</g>
<path d="M122.899 71.3207L113.582 70.3575C113.096 70.3073 112.661 70.6619 112.611 71.1496L111.652 80.5019C111.602 80.9896 111.955 81.4257 112.441 81.4759L121.758 82.4391C122.244 82.4893 122.679 82.1347 122.729 81.647L123.688 72.2947C123.738 71.807 123.385 71.3709 122.899 71.3207Z" fill="black"/>
<path d="M119.491 74.6888L115.585 77.7808L115.848 78.1159L119.754 75.0239L119.491 74.6888Z" fill="white"/>
<path d="M116.27 74.3469L115.94 74.6162L119.078 78.4901L119.408 78.2208L116.27 74.3469Z" fill="white"/>
<path d="M75.4756 82.7465L66.1581 81.7833C65.6722 81.7331 65.2378 82.0877 65.1877 82.5754L64.2281 91.9277C64.1781 92.4154 64.5314 92.8515 65.0173 92.9017L74.3348 93.8648C74.8207 93.9151 75.2551 93.5604 75.3052 93.0728L76.2648 83.7204C76.3148 83.2328 75.9615 82.7967 75.4756 82.7465Z" fill="#28A8DF"/>
<g opacity="0.4">
<path opacity="0.4" d="M75.4756 82.7462L66.1581 81.7831C65.6722 81.7329 65.2378 82.0875 65.1877 82.5752L64.2281 91.9275C64.1781 92.4152 64.5314 92.8512 65.0173 92.9014L74.3348 93.8646C74.8207 93.9148 75.2551 93.5602 75.3052 93.0725L76.2648 83.7202C76.3148 83.2325 75.9615 82.7965 75.4756 82.7462Z" fill="black"/>
</g>
<path d="M73.764 82.5673L64.4464 81.6041C63.9605 81.5539 63.5261 81.9085 63.476 82.3962L62.5165 91.7485C62.4664 92.2362 62.8197 92.6722 63.3056 92.7225L72.6232 93.6856C73.109 93.7359 73.5435 93.3812 73.5935 92.8936L74.5531 83.5412C74.6031 83.0536 74.2498 82.6175 73.764 82.5673Z" fill="black"/>
<path d="M70.2921 85.4398L70.224 86.1354L68.0981 89.8953L66.9373 89.7758L68.9782 86.1866L67.4476 86.0287L67.371 86.7841L66.4229 86.6859L66.5887 85.0557L70.2921 85.4398Z" fill="white"/>
<path d="M90.9251 84.3439L81.6075 83.3807C81.1217 83.3305 80.6872 83.6851 80.6372 84.1728L79.6776 93.5251C79.6276 94.0128 79.9809 94.4489 80.4667 94.4991L89.7843 95.4623C90.2702 95.5125 90.7046 95.1579 90.7547 94.6702L91.7143 85.3179C91.7643 84.8302 91.411 84.3941 90.9251 84.3439Z" fill="#28A8DF"/>
<g opacity="0.4">
<path opacity="0.4" d="M90.9251 84.3439L81.6075 83.3807C81.1217 83.3305 80.6872 83.6851 80.6372 84.1728L79.6776 93.5251C79.6276 94.0128 79.9809 94.4489 80.4667 94.4991L89.7843 95.4623C90.2702 95.5125 90.7046 95.1579 90.7547 94.6702L91.7143 85.3179C91.7643 84.8302 91.411 84.3941 90.9251 84.3439Z" fill="black"/>
</g>
<path d="M89.213 84.1686L79.8954 83.2054C79.4095 83.1552 78.9751 83.5098 78.925 83.9975L77.9654 93.3498C77.9154 93.8375 78.2687 94.2736 78.7546 94.3238L88.0722 95.287C88.558 95.3372 88.9925 94.9826 89.0425 94.4949L90.0021 85.1426C90.0521 84.6549 89.6988 84.2188 89.213 84.1686Z" fill="black"/>
<path d="M86.2025 90.4117C86.1132 91.2652 85.2798 91.7517 84.1063 91.6322C82.9328 91.5127 82.2227 90.8811 82.312 90.0062C82.3337 89.7753 82.4221 89.5558 82.5663 89.3746C82.7106 89.1934 82.9045 89.0584 83.1241 88.9863C82.9696 88.8722 82.8486 88.7185 82.7738 88.5412C82.6989 88.364 82.6731 88.1698 82.6989 87.9791C82.7839 87.1639 83.5493 86.7286 84.6122 86.8396C85.6752 86.9506 86.347 87.531 86.262 88.3461C86.2456 88.5392 86.1777 88.7243 86.0655 88.882C85.9533 89.0397 85.8008 89.1641 85.6242 89.2423C85.8243 89.3587 85.9859 89.5317 86.0887 89.7396C86.1916 89.9476 86.2311 90.1813 86.2025 90.4117ZM85.1267 90.2666C85.1692 89.8398 84.8589 89.5667 84.3231 89.5112C83.7874 89.4557 83.4387 89.6776 83.3962 90.0873C83.3537 90.497 83.6598 90.7872 84.1871 90.8427C84.7143 90.8982 85.0842 90.6763 85.1267 90.2666ZM83.7449 88.1327C83.7066 88.4827 83.9617 88.7302 84.3997 88.7729C84.8376 88.8155 85.148 88.632 85.182 88.2778C85.216 87.9236 84.9524 87.6675 84.5187 87.6206C84.085 87.5736 83.7831 87.77 83.7619 88.137L83.7449 88.1327Z" fill="white"/>
<path d="M106.94 85.9989L97.6219 85.0358C97.1361 84.9855 96.7016 85.3402 96.6516 85.8278L95.692 95.1802C95.642 95.6678 95.9953 96.1039 96.4811 96.1541L105.799 97.1173C106.285 97.1675 106.719 96.8129 106.769 96.3252L107.729 86.9729C107.779 86.4852 107.425 86.0492 106.94 85.9989Z" fill="#28A8DF"/>
<g opacity="0.4">
<path opacity="0.4" d="M106.94 85.9989L97.6219 85.0358C97.1361 84.9855 96.7016 85.3402 96.6516 85.8278L95.692 95.1802C95.642 95.6678 95.9953 96.1039 96.4811 96.1541L105.799 97.1173C106.285 97.1675 106.719 96.8129 106.769 96.3252L107.729 86.9729C107.779 86.4852 107.425 86.0492 106.94 85.9989Z" fill="black"/>
</g>
<path d="M104.943 85.1627L95.6702 84.2226C95.1867 84.1735 94.7551 84.5272 94.7062 85.0126L93.7696 94.3204C93.7207 94.8057 94.0731 95.2389 94.5567 95.2879L103.83 96.2281C104.313 96.2772 104.745 95.9234 104.794 95.4381L105.731 86.1303C105.779 85.645 105.427 85.2118 104.943 85.1627Z" fill="black"/>
<path d="M102.151 90.9751C101.985 92.5755 100.939 93.3736 99.5405 93.2285C99.092 93.1939 98.6614 93.0376 98.2947 92.7761L98.7709 92.0293C99.014 92.2233 99.3111 92.3367 99.6213 92.3536C100.387 92.4304 100.935 92.025 101.063 91.1373C100.894 91.2635 100.701 91.3545 100.497 91.405C100.293 91.4556 100.08 91.4647 99.8721 91.4318C99.67 91.4291 99.4707 91.3845 99.2866 91.3008C99.1025 91.2171 98.9376 91.0961 98.8022 90.9455C98.6669 90.7948 98.564 90.6177 98.5001 90.4252C98.4362 90.2328 98.4126 90.0292 98.4307 89.8271C98.5243 88.8797 99.3576 88.3633 100.336 88.4657C101.62 88.598 102.304 89.4772 102.151 90.9751ZM101.041 90.049C101.08 89.6521 100.816 89.3278 100.306 89.2766C100.209 89.2536 100.109 89.2515 100.012 89.2707C99.9148 89.2898 99.8228 89.3296 99.7422 89.3874C99.6616 89.4453 99.5943 89.5198 99.5449 89.6059C99.4954 89.6921 99.4649 89.7879 99.4554 89.8869C99.4452 89.9863 99.4561 90.0869 99.4875 90.1818C99.5189 90.2767 99.5702 90.3638 99.6377 90.4372C99.7053 90.5107 99.7877 90.5689 99.8795 90.6079C99.9712 90.647 100.07 90.6659 100.17 90.6636C100.268 90.6851 100.369 90.686 100.467 90.6662C100.565 90.6465 100.658 90.6064 100.74 90.5486C100.822 90.4908 100.891 90.4166 100.943 90.3306C100.995 90.2446 101.028 90.1487 101.041 90.049Z" fill="white"/>
<path d="M122.954 87.6542L113.636 86.691C113.15 86.6408 112.716 86.9954 112.666 87.4831L111.706 96.8354C111.656 97.3231 112.01 97.7592 112.496 97.8094L121.813 98.7726C122.299 98.8228 122.733 98.4682 122.783 97.9805L123.743 88.6282C123.793 88.1405 123.44 87.7044 122.954 87.6542Z" fill="#28A8DF"/>
<g opacity="0.4">
<path opacity="0.4" d="M122.954 87.6542L113.636 86.691C113.15 86.6408 112.716 86.9954 112.666 87.4831L111.706 96.8354C111.656 97.3231 112.01 97.7592 112.496 97.8094L121.813 98.7726C122.299 98.8228 122.733 98.4682 122.783 97.9805L123.743 88.6282C123.793 88.1405 123.44 87.7044 122.954 87.6542Z" fill="black"/>
</g>
<path d="M121.242 87.4789L111.924 86.5157C111.438 86.4655 111.004 86.8201 110.954 87.3078L109.994 96.6601C109.944 97.1478 110.298 97.5839 110.783 97.6341L120.101 98.5973C120.587 98.6475 121.021 98.2929 121.071 97.8052L122.031 88.4529C122.081 87.9652 121.728 87.5291 121.242 87.4789Z" fill="black"/>
<path d="M113.569 92.0967L113.525 92.5212L118.474 93.0328L118.517 92.6082L113.569 92.0967Z" fill="white"/>
<path d="M105.268 102.296L95.9503 101.333C95.4644 101.282 95.03 101.637 94.98 102.125L94.0204 111.477C93.9703 111.965 94.3236 112.401 94.8095 112.451L104.127 113.414C104.613 113.464 105.047 113.11 105.097 112.622L106.057 103.27C106.107 102.782 105.754 102.346 105.268 102.296Z" fill="#28A8DF"/>
<g opacity="0.4">
<path opacity="0.4" d="M105.268 102.296L95.9503 101.333C95.4644 101.282 95.03 101.637 94.98 102.125L94.0204 111.477C93.9703 111.965 94.3236 112.401 94.8095 112.451L104.127 113.414C104.613 113.464 105.047 113.11 105.097 112.622L106.057 103.27C106.107 102.782 105.754 102.346 105.268 102.296Z" fill="black"/>
</g>
<path d="M103.556 102.121L94.2381 101.157C93.7523 101.107 93.3178 101.462 93.2678 101.949L92.3082 111.302C92.2582 111.789 92.6115 112.225 93.0973 112.276L102.415 113.239C102.901 113.289 103.335 112.934 103.385 112.447L104.345 103.094C104.395 102.607 104.042 102.171 103.556 102.121Z" fill="black"/>
<path d="M121.282 103.955L111.965 102.992C111.479 102.942 111.044 103.296 110.994 103.784L110.035 113.136C109.985 113.624 110.338 114.06 110.824 114.11L120.141 115.073C120.627 115.124 121.062 114.769 121.112 114.281L122.071 104.929C122.121 104.441 121.768 104.005 121.282 103.955Z" fill="#28A8DF"/>
<g opacity="0.4">
<path opacity="0.4" d="M121.282 103.955L111.965 102.992C111.479 102.942 111.044 103.296 110.994 103.784L110.035 113.136C109.985 113.624 110.338 114.06 110.824 114.11L120.141 115.073C120.627 115.124 121.062 114.769 121.112 114.281L122.071 104.929C122.121 104.441 121.768 104.005 121.282 103.955Z" fill="black"/>
</g>
<path d="M119.57 103.78L110.253 102.817C109.767 102.767 109.332 103.121 109.282 103.609L108.323 112.961C108.273 113.449 108.626 113.885 109.112 113.935L118.429 114.898C118.915 114.949 119.35 114.594 119.4 114.106L120.359 104.754C120.409 104.266 120.056 103.83 119.57 103.78Z" fill="#2B3A8C"/>
<path d="M111.961 107.787L111.918 108.211L116.866 108.723L116.91 108.298L111.961 107.787Z" fill="white"/>
<path d="M111.765 109.678L111.722 110.103L116.67 110.614L116.714 110.19L111.765 109.678Z" fill="white"/>
<path d="M87.0156 100.27L62.3872 97.724C61.8032 97.6637 61.2811 98.0899 61.2209 98.6761L60.2687 107.956C60.2086 108.542 60.6333 109.066 61.2172 109.127L85.8456 111.673C86.4296 111.733 86.9518 111.307 87.0119 110.721L87.9641 101.441C88.0242 100.854 87.5996 100.33 87.0156 100.27Z" fill="black"/>
<path d="M73.1322 104.371C73.2896 102.844 74.2207 102.063 75.356 102.182C76.4912 102.302 77.2438 103.253 77.0865 104.781C76.9292 106.309 76.0065 107.094 74.8628 106.975C73.719 106.855 72.9622 105.904 73.1322 104.371ZM76.015 104.67C76.1213 103.62 75.7982 103.142 75.2624 103.087C74.7267 103.031 74.3228 103.433 74.2122 104.487C74.1017 105.541 74.4291 106.015 74.9563 106.066C75.4835 106.117 75.8917 105.724 76.0023 104.67H76.015Z" fill="white"/>
<path d="M98.4004 104.697L97.8174 109.656L98.2396 109.706L98.8226 104.747L98.4004 104.697Z" fill="white"/>
<path d="M95.8758 106.738L95.8323 107.162L100.781 107.674L100.824 107.249L95.8758 106.738Z" fill="white"/>
<path d="M93.5412 28.645L92.8311 35.5758L92.5037 35.5417L93.184 28.9182L91.4492 28.7389L91.479 28.4316L93.5412 28.645Z" fill="black"/>
<path d="M99.2301 35.9258L99.1961 36.233L94.519 35.7465L94.5446 35.5118L97.81 32.8274C98.7454 32.0635 98.975 31.5769 99.0303 31.0136C99.1281 30.0918 98.5456 29.4303 97.3295 29.3065C96.947 29.2381 96.5539 29.2582 96.1803 29.3655C95.8067 29.4727 95.4625 29.6642 95.1738 29.9253L94.9697 29.6821C95.2994 29.3995 95.6873 29.1936 96.1056 29.0793C96.5238 28.9649 96.9622 28.9449 97.3891 29.0206C98.7114 29.1572 99.4767 29.9253 99.3619 31.0435C99.2981 31.6964 99.0303 32.2513 98.0311 33.0664L95.0548 35.5118L99.2301 35.9258Z" fill="black"/>
<path d="M104.698 34.8588C104.583 36.0068 103.69 36.7366 102.173 36.5659C101.725 36.5418 101.288 36.4214 100.892 36.2131C100.495 36.0047 100.147 35.7131 99.8723 35.3581L100.076 35.1404C100.33 35.4694 100.651 35.7396 101.018 35.9325C101.385 36.1255 101.789 36.2367 102.202 36.2586C103.525 36.3952 104.282 35.8318 104.384 34.8118C104.486 33.7918 103.882 33.1047 102.423 32.9383L102.037 32.8999L102.062 32.6609L104.503 30.0747L100.676 29.682L100.71 29.3748L104.962 29.8015L104.936 30.0405L102.47 32.6609C104.103 32.8273 104.817 33.715 104.698 34.8588Z" fill="black"/>
<path d="M111.492 35.4819L109.992 35.3283L109.787 37.3256L109.46 37.2915L109.668 35.2942L105.701 34.8674L105.727 34.6284L110.026 30.3308L110.408 30.3735L106.156 34.6156L109.698 34.9954L109.877 33.2329L110.204 33.267L110.021 35.0296L111.522 35.1832L111.492 35.4819Z" fill="black"/>
<path d="M112.934 37.351C112.914 37.4737 112.881 37.5938 112.836 37.7095L112.347 38.9898L112.088 38.96L112.534 37.6284C112.456 37.6093 112.388 37.5624 112.342 37.4965C112.296 37.4305 112.275 37.3501 112.283 37.27C112.287 37.2271 112.299 37.1853 112.32 37.1473C112.34 37.1093 112.367 37.0757 112.401 37.0486C112.434 37.0215 112.472 37.0014 112.514 36.9896C112.555 36.9778 112.598 36.9744 112.641 36.9798C112.685 36.9834 112.728 36.996 112.767 37.017C112.806 37.0379 112.84 37.0667 112.868 37.1015C112.895 37.1363 112.915 37.1764 112.927 37.2193C112.938 37.2623 112.941 37.3071 112.934 37.351Z" fill="black"/>
<path d="M119.775 36.3396L118.274 36.1817L118.07 38.1833L117.743 38.1491L117.951 36.1476L113.984 35.7208L114.01 35.4861L118.308 31.1885L118.691 31.2269L114.439 35.469L117.968 35.836L118.147 34.0735L118.474 34.1076L118.291 35.8702L119.792 36.0238L119.775 36.3396Z" fill="black"/>
<path d="M124.899 36.9072C124.784 38.0382 123.912 38.8277 122.348 38.6655C121.902 38.6389 121.467 38.5174 121.072 38.3092C120.677 38.1009 120.331 37.8107 120.056 37.4578L120.269 37.2401C120.521 37.5701 120.842 37.841 121.209 38.0341C121.576 38.2272 121.98 38.3378 122.394 38.3583C123.747 38.4991 124.478 37.8547 124.58 36.8731C124.69 35.8062 124.125 35.1063 122.152 34.9014L120.808 34.7648L121.51 31.5342L125.069 31.9012L125.039 32.2085L121.757 31.8713L121.178 34.4917L122.241 34.6027C124.346 34.8203 125.005 35.6824 124.899 36.9072Z" fill="black"/>
<path d="M49.4791 178.843L46.7749 188.872L55.5593 189.679L57.4046 180.128L49.4791 178.843Z" fill="#28A8DF"/>
<path d="M55.8143 188.864C55.3886 188.889 54.9615 188.873 54.5387 188.817C53.7436 188.753 52.6551 188.633 51.4561 188.48L48.382 188.053C47.9512 188.017 47.5244 187.942 47.1064 187.831C47.5321 187.804 47.9595 187.819 48.382 187.878C49.1729 187.946 50.2613 188.066 51.4646 188.224L54.5345 188.65C54.9671 188.679 55.3958 188.75 55.8143 188.864Z" fill="black"/>
<g opacity="0.6">
<path opacity="0.6" d="M46.7749 188.872L55.5593 189.679L55.7038 188.945L47.03 187.835L46.7834 188.774" fill="white"/>
</g>
<path d="M51.1372 188.429C51.6295 185.852 52.254 183.302 53.008 180.789C52.7932 182.084 52.5093 183.366 52.1577 184.63C51.8832 185.913 51.5425 187.181 51.1372 188.429Z" fill="black"/>
<path d="M55.3295 188.795C55.4735 188.183 55.4808 187.546 55.3508 186.93C55.1938 186.272 54.8617 185.669 54.3898 185.185C53.7965 184.607 53.0235 184.252 52.2001 184.178C51.3787 184.091 50.5518 184.28 49.8488 184.716C49.2789 185.08 48.8084 185.582 48.4797 186.175C48.1884 186.732 48.0011 187.338 47.927 187.963C47.927 187.963 47.927 187.916 47.927 187.831C47.9179 187.703 47.9179 187.575 47.927 187.447C47.9894 186.977 48.1333 186.522 48.3522 186.103C48.6777 185.475 49.1578 184.942 49.7468 184.553C50.4832 184.086 51.355 183.882 52.2214 183.973C53.0099 184.036 53.7562 184.357 54.3465 184.885C54.9368 185.414 55.3387 186.121 55.4911 186.901C55.586 187.365 55.586 187.844 55.4911 188.309C55.4658 188.434 55.4288 188.557 55.3805 188.676C55.355 188.757 55.338 188.8 55.3295 188.795Z" fill="black"/>
<path d="M85.722 177.699L85.199 185.599C85.199 185.599 93.0352 188.211 93.0777 189.679L77.771 189.79L78.0814 177.448L85.722 177.699Z" fill="#28A8DF"/>
<g opacity="0.6">
<path opacity="0.6" d="M80.488 184.792C80.3401 184.832 80.2122 184.926 80.129 185.055C80.0457 185.185 80.0131 185.34 80.0373 185.492C80.0711 185.643 80.1616 185.775 80.2901 185.86C80.4185 185.945 80.5748 185.977 80.7261 185.949C80.8823 185.908 81.0181 185.812 81.1075 185.677C81.197 185.542 81.2338 185.379 81.2109 185.219C81.1583 185.066 81.049 184.939 80.9055 184.865C80.7621 184.791 80.5958 184.776 80.4413 184.822" fill="white"/>
</g>
<g opacity="0.6">
<path opacity="0.6" d="M77.771 189.79L77.8518 188.548L92.5888 188.975C92.7448 189.055 92.8785 189.174 92.9779 189.319C93.0774 189.464 93.1394 189.632 93.1585 189.807L77.771 189.79Z" fill="white"/>
</g>
<path d="M85.4627 185.531C85.4627 185.603 85.0843 185.629 84.7101 185.855C84.336 186.081 84.1276 186.397 84.0596 186.363C83.9916 186.329 84.1191 185.902 84.5741 185.633C85.029 185.364 85.4627 185.462 85.4627 185.531Z" fill="black"/>
<path d="M87.0359 186.243C87.0359 186.316 86.7212 186.435 86.4576 186.743C86.194 187.05 86.1132 187.387 86.0324 187.383C85.9516 187.378 85.9261 186.956 86.2578 186.572C86.5894 186.188 87.0359 186.171 87.0359 186.243Z" fill="black"/>
<path d="M87.8861 188.207C87.8181 188.207 87.7288 187.844 87.9329 187.438C88.137 187.033 88.4899 186.884 88.5197 186.943C88.5494 187.003 88.3241 187.221 88.1625 187.558C88.001 187.895 87.9627 188.207 87.8861 188.207Z" fill="black"/>
<path d="M85.3691 183.717C85.3351 183.785 84.995 183.67 84.574 183.687C84.1531 183.704 83.8172 183.824 83.7789 183.759C83.7406 183.695 84.068 183.435 84.5655 183.422C85.063 183.41 85.4074 183.657 85.3691 183.717Z" fill="black"/>
<g opacity="0.3">
<path opacity="0.3" d="M85.6156 179.266L85.5263 180.674L78.009 180.375L78.0345 179.104L85.6156 179.266Z" fill="black"/>
</g>
<path d="M85.4626 182.121C85.2095 182.18 84.945 182.17 84.6973 182.091C84.4223 182.034 84.1553 181.944 83.9022 181.822C83.7552 181.749 83.6132 181.666 83.477 181.574C83.3935 181.523 83.3176 181.459 83.2516 181.387C83.2044 181.331 83.1767 181.262 83.1728 181.19C83.169 181.117 83.1892 181.045 83.2304 180.985C83.27 180.935 83.3203 180.894 83.3778 180.866C83.4352 180.838 83.4982 180.824 83.562 180.823C83.6591 180.825 83.7553 180.842 83.8469 180.874C84.0095 180.917 84.1676 180.976 84.3189 181.049C84.5732 181.175 84.8069 181.339 85.0119 181.536C85.3563 181.877 85.4711 182.163 85.4371 182.176C85.4031 182.189 85.2373 181.958 84.8844 181.677C84.6789 181.513 84.4531 181.377 84.2126 181.271C84.0745 181.21 83.9324 181.159 83.7874 181.118C83.6258 181.071 83.4897 181.066 83.4472 181.139C83.4047 181.212 83.426 181.177 83.4472 181.224C83.4953 181.278 83.5512 181.324 83.613 181.361C83.7404 181.451 83.874 181.533 84.0127 181.604C84.2453 181.733 84.4903 181.837 84.744 181.916C84.9889 181.964 85.2293 182.032 85.4626 182.121Z" fill="black"/>
<path d="M85.3435 182.232C85.2057 182.008 85.1431 181.747 85.1649 181.485C85.1599 181.195 85.2044 180.906 85.2967 180.631C85.3501 180.471 85.4199 180.316 85.505 180.17C85.5486 180.07 85.618 179.982 85.7061 179.917C85.7942 179.852 85.8979 179.811 86.0068 179.799C86.0744 179.802 86.1397 179.824 86.1948 179.864C86.25 179.903 86.2924 179.958 86.3171 180.021C86.3551 180.112 86.3794 180.209 86.3894 180.307C86.4155 180.478 86.4155 180.652 86.3894 180.823C86.3387 181.11 86.219 181.379 86.0408 181.609C85.7304 181.997 85.4157 182.078 85.4072 182.035C85.3987 181.993 85.6496 181.86 85.8877 181.485C86.0284 181.268 86.1199 181.024 86.1556 180.768C86.1752 180.626 86.1752 180.483 86.1556 180.341C86.1556 180.179 86.0833 180.042 86.0195 180.059C85.9557 180.076 85.8112 180.175 85.7431 180.303C85.6637 180.439 85.5969 180.581 85.5433 180.729C85.4509 180.975 85.3922 181.232 85.369 181.493C85.3137 181.933 85.386 182.232 85.3435 182.232Z" fill="black"/>
<path d="M52.5319 54.6269C52.5319 54.6269 50.8737 63.7172 49.5556 69.2183C48.5224 73.486 45.8395 81.4965 50.6908 83.8224C55.5422 86.1483 62.0689 76.7636 62.0689 76.7636L64.8368 55.3695C62.9065 55.7323 60.7253 57.9728 58.3995 61.2718L58.8247 53.1631L52.5319 54.6269Z" fill="#2B3A8C"/>
<path d="M119.295 68.066L116.744 69.2908L114.375 65.5907L115.749 62.7356C115.881 62.471 116.021 62.1723 116.174 61.8309C116.344 61.4322 116.447 61.0083 116.48 60.5762C116.536 60.0403 116.522 59.4994 116.438 58.9672C116.31 58.4935 116.812 58.1137 117.156 58.3783C117.501 58.6429 117.875 59.9616 117.624 61.5364C117.373 63.1112 119.193 61.4382 119.869 60.845C120.545 60.2518 122.718 58.502 123.062 58.5703C123.564 58.6727 123.547 59.2404 122.858 59.8208C122.169 60.4012 120.226 62.2875 120.549 62.6375C120.948 62.6804 121.323 62.8476 121.622 63.1155C121.921 63.3834 122.128 63.7386 122.216 64.1312C122.39 64.9079 122.531 65.9791 122.097 66.329C121.202 66.9686 120.266 67.5488 119.295 68.066Z" fill="#FFBE9D"/>
<path d="M69.8285 33.5742L69.7605 55.8133L79.2677 56.27L79.5398 50.8585C79.5398 50.8585 82.9158 51.5328 83.7917 48.3875C84.3487 46.3774 84.2169 30.8386 84.2169 30.8386L69.8285 33.5742Z" fill="#FFBE9D"/>
<path d="M86.3513 33.0321C85.7135 34.3594 82.6607 36.792 82.6607 36.792L81.2873 40.4964C80.0883 39.5575 78.4811 39.6087 78.1792 41.7212C77.9581 43.2448 79.8459 43.5521 79.8459 43.5521C78.749 45.4341 78.0006 46.9662 76.4019 48.7374C74.6672 50.6706 73.6977 50.8712 71.8184 50.8968H69.7307C69.7307 50.8968 65.4789 47.3418 66.3292 37.9742C67.1796 28.6065 75.5601 31.3379 77.5627 29.0119C80.8366 25.1795 88.49 28.5937 86.3513 33.0321Z" fill="black"/>
<path d="M66.814 45.8054C66.814 45.8054 66.9075 45.8054 67.0818 45.8054C67.3347 45.7984 67.5864 45.7699 67.8344 45.72C68.7417 45.5113 69.5796 45.0702 70.2665 44.4397C71.2531 43.4668 72.0861 42.3486 72.7368 41.1237C73.144 40.4108 73.5882 39.7199 74.0677 39.0539C74.5816 38.3318 75.2125 37.7014 75.9342 37.1889C76.6772 36.707 77.4969 36.3562 78.3578 36.1518C79.1827 35.9341 79.9948 35.8018 80.7601 35.6525C82.2908 35.3708 83.6641 34.944 84.5868 34.2143C85.343 33.66 85.8912 32.8662 86.143 31.9609C86.2005 31.7132 86.2304 31.4599 86.2323 31.2055C86.2323 31.0348 86.2323 30.9409 86.2323 30.9409C86.2323 30.9409 86.2323 31.0305 86.2578 31.2055C86.2655 31.4624 86.2398 31.7192 86.1812 31.9694C85.9417 32.8886 85.3955 33.6975 84.6336 34.2612C83.6939 34.9953 82.3078 35.422 80.7856 35.7208C80.0203 35.8744 79.2082 36.0067 78.3876 36.2244C77.5368 36.4247 76.7269 36.7713 75.9938 37.2486C75.2802 37.7551 74.6564 38.3784 74.1484 39.0923C73.6683 39.7558 73.2227 40.4438 72.8134 41.1536C72.1563 42.3824 71.3144 43.5023 70.3175 44.4739C69.6208 45.1116 68.7686 45.5532 67.8472 45.7542C67.5978 45.8022 67.3443 45.8251 67.0903 45.8225L66.814 45.8054Z" fill="#2B3A8C"/>
<path d="M66.3291 38.1877C66.3291 38.1877 66.4779 38.128 66.7543 38.0298C67.176 37.8816 67.6121 37.7786 68.0554 37.7225C68.7648 37.6088 69.4911 37.7607 70.0963 38.1493C70.288 38.2753 70.4524 38.439 70.5795 38.6304C70.7066 38.8218 70.7939 39.037 70.8361 39.2632C70.8857 39.5123 70.8728 39.7698 70.7986 40.0127C70.7243 40.2556 70.5911 40.4761 70.4109 40.6544C70.2048 40.838 69.9421 40.9449 69.6668 40.9575C69.3815 40.9597 69.1009 40.8845 68.8547 40.7398C68.3352 40.4285 67.9478 39.9364 67.7662 39.3571C67.5667 38.7448 67.5388 38.0893 67.6854 37.4622C67.8438 36.8008 68.2016 36.2047 68.7102 35.7551C69.2448 35.2764 69.9154 34.9779 70.6277 34.9016C71.3676 34.8595 72.1088 34.9565 72.8132 35.1875C73.5346 35.4189 74.2722 35.5958 75.0199 35.7167C75.7932 35.8191 76.5766 35.8191 77.35 35.7167C78.124 35.6268 78.8798 35.4181 79.5907 35.0979C79.9389 34.9558 80.253 34.7412 80.5125 34.4683C80.772 34.1954 80.9708 33.8703 81.0958 33.5145C81.1949 33.1668 81.2007 32.7989 81.1126 32.4482C81.0245 32.0974 80.8457 31.7763 80.5941 31.5172C80.3389 31.2839 80.0202 31.1321 79.6787 31.0812C79.3372 31.0303 78.9883 31.0825 78.6765 31.2313C78.3702 31.3641 78.1193 31.5994 77.9665 31.8971C77.8215 32.1886 77.7681 32.5175 77.8134 32.8402C77.8568 33.1497 77.9657 33.4462 78.133 33.7097C78.3002 33.9733 78.5218 34.1978 78.7828 34.3681C79.2821 34.6745 79.8558 34.837 80.4411 34.8375C80.9921 34.8378 81.5394 34.747 82.061 34.5687C82.9516 34.2877 83.7602 33.7925 84.4166 33.1262C84.9206 32.634 85.3337 32.056 85.6369 31.4191C85.8241 31.0089 85.9666 30.5797 86.062 30.1388C86.1216 29.84 86.1556 29.6821 86.1556 29.6821C86.1556 29.6821 86.1556 29.84 86.079 30.143C85.8255 31.2759 85.2546 32.3125 84.4336 33.1304C83.7746 33.8144 82.9606 34.3283 82.061 34.6284C81.5392 34.7975 80.9936 34.8811 80.4453 34.8759C79.8453 34.8776 79.2565 34.7121 78.7446 34.398C78.4743 34.2224 78.2448 33.9905 78.0717 33.718C77.8985 33.4456 77.7858 33.1389 77.7411 32.8189C77.6936 32.4805 77.7485 32.1356 77.8984 31.8288C78.0649 31.514 78.3334 31.2656 78.6595 31.1246C78.9867 30.9696 79.3523 30.9152 79.7102 30.9684C80.0681 31.0216 80.4023 31.1799 80.6707 31.4234C80.9342 31.6935 81.1215 32.0291 81.2134 32.3958C81.3053 32.7625 81.2985 33.1471 81.1936 33.5103C81.0665 33.8776 80.8626 34.2135 80.5957 34.4953C80.3288 34.7772 80.005 34.9987 79.646 35.1448C78.9288 35.4709 78.1658 35.6839 77.384 35.7764C76.6035 35.8789 75.8131 35.8789 75.0327 35.7764C74.2789 35.6542 73.5355 35.4744 72.809 35.2387C72.1159 35.0095 71.3859 34.9139 70.6575 34.957C70.1634 35.0091 69.6873 35.1719 69.2643 35.4335C68.8413 35.695 68.4822 36.0486 68.2137 36.4681C67.9451 36.8877 67.7739 37.3624 67.7126 37.8572C67.6514 38.3521 67.7016 38.8544 67.8598 39.3272C68.0255 39.8851 68.3883 40.3631 68.8802 40.6715C69.1145 40.8103 69.382 40.8826 69.6541 40.8806C69.9152 40.8737 70.1653 40.7739 70.3599 40.599C70.5352 40.4289 70.6658 40.2179 70.74 39.9848C70.8142 39.7517 70.8297 39.5037 70.7851 39.2632C70.744 39.0488 70.6608 38.8448 70.5404 38.6631C70.4199 38.4814 70.2646 38.3256 70.0835 38.2048C69.4885 37.8222 68.775 37.6705 68.0766 37.778C67.6344 37.831 67.1985 37.9282 66.7755 38.0682L66.3291 38.1877Z" fill="#2B3A8C"/>
<path d="M60.0576 98.7295L47.4041 182.151L57.9147 183.491L72.7452 113.517L76.4784 183.96L87.8691 183.76L85.9813 98.9258L60.0576 98.7295Z" fill="black"/>
<path d="M76.2787 184.178V183.973L72.6178 115.143L58.0807 183.725L47.1619 182.334L59.875 98.5161L86.1898 98.7124L88.0861 183.973L76.2787 184.178ZM72.8772 111.895L76.7039 183.743L87.678 183.55L85.7986 99.1349L60.2874 98.9429L47.6466 181.967L57.749 183.247L72.8772 111.895Z" fill="black"/>
<path d="M84.4848 183.627C84.4253 183.627 84.3743 166.911 84.3743 146.298C84.3743 125.684 84.4253 108.968 84.4848 108.968C84.5443 108.968 84.5954 125.676 84.5954 146.298C84.5954 166.919 84.5443 183.627 84.4848 183.627Z" fill="#2B3A8C"/>
<path d="M55.6018 183.324C55.6045 183.262 55.6131 183.201 55.6273 183.141C55.6528 183.013 55.6826 182.838 55.7251 182.612C55.8144 182.138 55.9462 181.459 56.1163 180.584C56.4692 178.818 56.9667 176.274 57.6044 173.141C58.88 166.855 60.687 158.183 62.762 148.623C64.8369 139.064 66.7927 130.417 68.2341 124.169C68.9654 121.058 69.5565 118.536 69.9646 116.778C70.1772 115.924 70.3388 115.241 70.4536 114.772C70.5089 114.55 70.5514 114.379 70.5854 114.251C70.5957 114.191 70.6128 114.132 70.6364 114.076C70.6302 114.136 70.6203 114.196 70.6067 114.255C70.5769 114.383 70.5429 114.558 70.4961 114.78C70.3898 115.254 70.241 115.928 70.0497 116.795C69.6542 118.557 69.0887 121.084 68.3872 124.203C66.9841 130.46 65.058 139.106 62.9788 148.67C60.8996 158.234 59.0756 166.898 57.7575 173.171L56.2013 180.601L55.7761 182.624L55.6571 183.145C55.6449 183.206 55.6264 183.267 55.6018 183.324Z" fill="#2B3A8C"/>
<path d="M76.4783 113.444C76.3211 113.484 76.1599 113.505 75.9979 113.509L74.684 113.602C73.5743 113.675 72.0436 113.752 70.3599 113.918C68.6761 114.085 67.154 114.311 66.0527 114.456L64.7474 114.622C64.5874 114.65 64.425 114.662 64.2627 114.657C64.4148 114.598 64.5732 114.558 64.7347 114.537C65.0408 114.477 65.483 114.396 66.0315 114.302C67.1242 114.119 68.6421 113.876 70.3386 113.696C72.0351 113.517 73.5658 113.479 74.6755 113.444C75.2325 113.444 75.6832 113.419 75.9936 113.423C76.1554 113.41 76.3182 113.418 76.4783 113.444Z" fill="#2B3A8C"/>
<path d="M86.2025 108.025C86.1005 108.076 85.9889 108.105 85.8751 108.11C85.5711 108.155 85.2633 108.168 84.9567 108.148C83.9352 108.096 82.9504 107.749 82.1207 107.149C81.291 106.548 80.6517 105.72 80.2796 104.764C80.1631 104.48 80.0776 104.183 80.0245 103.881C79.9963 103.771 79.9876 103.656 79.999 103.543C80.0372 103.543 80.1095 104.009 80.4242 104.704C80.8274 105.607 81.4592 106.389 82.2567 106.97C83.0623 107.542 84.001 107.894 84.9822 107.995C85.722 108.067 86.1982 107.973 86.2025 108.025Z" fill="#2B3A8C"/>
<path d="M57.8977 100.364L87.0103 100.27L85.4158 80.9842C85.2415 76.5714 85.267 76.0465 85.1607 71.9708C85.1607 71.9708 89.2935 76.9896 92.542 80.5062C93.5004 81.5407 94.7622 82.242 96.1444 82.5082C97.5267 82.7745 98.9574 82.592 100.229 81.9871L117.237 70.0759L114.056 61.8819L98.5966 71.3818C97.8908 70.9551 91.8702 62.3215 87.7118 58.1135C85.047 55.4288 81.456 53.8749 77.6817 53.7732C74.5474 53.6996 71.4117 53.8264 68.2935 54.153C66.0188 54.3979 63.9005 55.4318 62.3038 57.0765C60.7072 58.7211 59.7324 60.8734 59.5474 63.1622C59.2498 66.7684 59.4879 70.9551 59.4879 78.0694L57.8977 100.364Z" fill="#2B3A8C"/>
<path d="M59.2626 65.0913C59.2626 65.0913 59.2626 65.1681 59.2626 65.3175V65.9619C59.2626 66.521 59.2626 67.3361 59.2626 68.3348C59.2626 70.3406 59.3562 73.1104 59.4412 76.1703C59.5263 79.2303 59.5433 82 59.4667 84.0058C59.4327 85.0088 59.3859 85.8196 59.3392 86.3787C59.3179 86.6348 59.3009 86.8481 59.2882 87.0231C59.2754 87.1981 59.2626 87.245 59.2626 87.245C59.2626 87.245 59.2626 87.1682 59.2626 87.0189C59.2626 86.8695 59.2626 86.6348 59.2967 86.3744C59.3349 85.8154 59.3689 85.0045 59.3945 84.0058C59.4582 82 59.4285 79.2303 59.3434 76.1703C59.2584 73.1104 59.1861 70.3406 59.1904 68.3348C59.1904 67.3319 59.1904 66.521 59.2201 65.9619C59.2201 65.7016 59.2201 65.4882 59.2201 65.3175L59.2626 65.0913Z" fill="black"/>
<path d="M97.959 74.1517C97.9649 74.0159 97.9863 73.8813 98.0228 73.7505C98.0695 73.5072 98.1461 73.1658 98.2311 72.7945C98.3162 72.4232 98.4012 72.0818 98.465 71.8386C98.4934 71.7054 98.5347 71.5753 98.5883 71.4502C98.5848 71.5943 98.5648 71.7375 98.5288 71.877C98.4777 72.1245 98.4054 72.4616 98.3162 72.8329C98.2269 73.2042 98.1461 73.5414 98.0823 73.7846C98.0556 73.9114 98.0142 74.0346 97.959 74.1517Z" fill="black"/>
<path d="M99.4939 74.3949C99.3333 73.8892 99.2013 73.3748 99.0985 72.8542C98.9677 72.3423 98.8641 71.8237 98.7881 71.3008C98.9515 71.8042 99.0835 72.3173 99.1835 72.8372C99.315 73.3504 99.4186 73.8704 99.4939 74.3949Z" fill="black"/>
<path d="M85.8879 72.6965L85.7306 72.5471L85.3054 72.1204C84.9227 71.7405 84.37 71.1943 83.7109 70.4901C82.9317 69.6716 82.206 68.8034 81.5382 67.8911C80.717 66.7721 80.0518 65.5459 79.5611 64.2464C79.0684 62.9425 78.847 61.5511 78.9105 60.1579C78.9323 59.0189 79.1809 57.8958 79.6419 56.8547C79.9733 56.1614 80.4645 55.5572 81.0748 55.0922C81.2394 54.9649 81.4127 54.8493 81.5935 54.7465L81.7806 54.644C81.7806 54.644 81.5169 54.7849 81.096 55.1178C80.4996 55.5889 80.0219 56.1941 79.7014 56.8846C79.2356 57.9201 78.9826 59.0392 78.9573 60.175C78.8997 61.5556 79.1224 62.9336 79.6121 64.2251C80.0975 65.5189 80.7554 66.7406 81.568 67.8569C82.2325 68.7672 82.951 69.6365 83.7194 70.4602C84.3742 71.1687 84.9227 71.7405 85.2969 72.1076L85.7221 72.5557C85.7798 72.5996 85.8352 72.6466 85.8879 72.6965Z" fill="black"/>
<path d="M66.95 64.7585C66.5662 64.4479 66.2296 64.0827 65.9508 63.6745C65.6173 63.3093 65.3393 62.8965 65.126 62.4497C65.5117 62.7599 65.8486 63.1268 66.1252 63.538C66.4605 63.9002 66.7387 64.3118 66.95 64.7585Z" fill="#FAFAFA"/>
<path d="M73.5574 72.2993C73.1508 72.8579 72.6877 73.3727 72.1756 73.8357C71.7141 74.3498 71.1996 74.8133 70.6406 75.2184C71.0442 74.6574 71.506 74.141 72.0182 73.6778C72.4785 73.1621 72.9947 72.6997 73.5574 72.2993Z" fill="#FAFAFA"/>
<path d="M79.9734 83.1138C79.9096 83.1352 79.6758 82.4737 79.2421 81.7396C78.8084 81.0056 78.3577 80.4593 78.3917 80.4294C79.2227 81.1028 79.7806 82.0572 79.9606 83.1138H79.9734Z" fill="#FAFAFA"/>
<path d="M63.3528 81.8892C62.9973 81.2259 62.7667 80.5025 62.6725 79.7553C62.5086 79.0184 62.4798 78.2577 62.5875 77.5105C62.6555 77.5105 62.6768 78.5091 62.8894 79.7169C63.1019 80.9247 63.4336 81.8679 63.3528 81.8892Z" fill="#FAFAFA"/>
<path d="M72.1884 86.6347C71.8865 86.0816 71.7204 85.4642 71.7036 84.8338C71.613 84.211 71.6669 83.5757 71.861 82.9773C71.9247 82.9773 71.8312 83.8095 71.9247 84.8167C72.0183 85.8239 72.2479 86.6347 72.1884 86.6347Z" fill="#FAFAFA"/>
<path d="M68.7018 93.5741C68.0001 93.2649 67.3295 92.889 66.6992 92.4517C66.0308 92.0772 65.4013 91.6369 64.8198 91.1372C65.5199 91.4486 66.189 91.8259 66.8182 92.2639C67.486 92.6398 68.1166 93.0785 68.7018 93.5741Z" fill="#FAFAFA"/>
<path d="M82.4055 91.5256C82.4353 91.5854 81.4489 92.0804 80.3051 92.806C79.1614 93.5315 78.2897 94.21 78.2515 94.1588C79.4315 92.9917 80.8484 92.0935 82.4055 91.5256Z" fill="#FAFAFA"/>
<path d="M65.1685 99.3483C64.444 99.3162 63.7246 99.2104 63.0213 99.0325C62.305 98.9267 61.6012 98.7479 60.9209 98.499C61.6383 98.5322 62.3506 98.638 63.0468 98.8148C63.7701 98.9207 64.4809 99.0994 65.1685 99.3483Z" fill="#FAFAFA"/>
<path d="M74.3567 97.8461C73.9267 97.48 73.5813 97.0241 73.3448 96.5103C73.045 96.0295 72.8522 95.4894 72.7793 94.927C72.8431 94.9057 73.1024 95.6013 73.5404 96.4036C73.9783 97.206 74.4078 97.8077 74.3567 97.8461Z" fill="#FAFAFA"/>
<path d="M84.6972 98.5844C84.5395 98.9467 84.3144 99.2755 84.0339 99.5531C83.6088 100.048 83.2516 100.407 83.2048 100.377C83.3637 100.015 83.5887 99.6865 83.8681 99.408C84.2806 98.9002 84.6505 98.5331 84.6972 98.5844Z" fill="#FAFAFA"/>
<path d="M65.7851 69.2354C65.8191 69.2866 65.4364 69.5981 64.9347 69.9353C64.6491 70.1706 64.3195 70.3462 63.9653 70.4517C63.9312 70.4004 64.3097 70.0889 64.8156 69.7518C65.1012 69.5164 65.4308 69.3408 65.7851 69.2354Z" fill="#FAFAFA"/>
<path d="M72.9579 61.1864C72.6154 60.489 72.3584 59.7524 72.1925 58.9928C71.9581 58.2507 71.8153 57.4824 71.7673 56.7053C72.0318 57.4323 72.2463 58.1766 72.4094 58.9331C72.6442 59.6705 72.8275 60.4234 72.9579 61.1864Z" fill="#FAFAFA"/>
<path d="M79.8502 68.514C79.8247 68.5737 79.2039 68.3347 78.4045 68.1811C77.6052 68.0275 76.9419 68.0189 76.9419 67.9549C77.4358 67.8288 77.9532 67.8288 78.4471 67.9549C78.9545 68.0184 79.4375 68.2109 79.8502 68.514Z" fill="#FAFAFA"/>
<path d="M84.5868 62.3088C84.0581 62.4613 83.4998 62.4789 82.9626 62.36C82.4161 62.3094 81.8905 62.1248 81.4319 61.8223C81.4574 61.7582 82.1292 62.01 82.9966 62.1423C83.864 62.2746 84.5825 62.2234 84.5868 62.3088Z" fill="#FAFAFA"/>
<path d="M89.4338 69.2308C89.3359 67.6538 89.5902 66.0747 90.1778 64.6089C90.2416 64.6089 89.9695 65.6417 89.7527 66.9135C89.5358 68.1852 89.4975 69.2308 89.4338 69.2308Z" fill="#FAFAFA"/>
<path d="M95.1272 77.4036C94.5739 76.9914 94.0665 76.5207 93.6136 75.9995C93.109 75.5284 92.6557 75.0048 92.2615 74.4375C92.8137 74.8509 93.3211 75.3215 93.7751 75.8416C94.2798 76.3126 94.733 76.8363 95.1272 77.4036Z" fill="#FAFAFA"/>
<path d="M99.8636 76.7764C99.6775 77.2756 99.4212 77.7455 99.1026 78.1719C98.8436 78.6396 98.5233 79.0702 98.1501 79.4522C98.34 78.9539 98.5976 78.4843 98.9155 78.0567C99.1706 77.5877 99.4897 77.1567 99.8636 76.7764Z" fill="#FAFAFA"/>
<path d="M105.361 74.0876C104.992 73.5782 104.683 73.0266 104.443 72.4445C104.137 71.8956 103.896 71.3127 103.724 70.7075C104.094 71.2169 104.402 71.7684 104.643 72.3506C104.949 72.8995 105.19 73.4824 105.361 74.0876Z" fill="#FAFAFA"/>
<path d="M112.845 70.9807C112.188 70.974 111.533 70.8953 110.893 70.746C110.24 70.6657 109.599 70.5126 108.98 70.2893C109.637 70.296 110.291 70.3747 110.931 70.524C111.584 70.6043 112.226 70.7574 112.845 70.9807Z" fill="#FAFAFA"/>
<path d="M53.4036 78.9529C53.5978 78.2793 53.8629 77.6284 54.1944 77.0111C54.4572 76.3605 54.7878 75.7397 55.1808 75.1589C54.9867 75.8333 54.7231 76.4855 54.3943 77.105C54.1285 77.7537 53.7965 78.373 53.4036 78.9529Z" fill="#FAFAFA"/>
<path d="M57.3705 71.9451C56.8937 71.5735 56.4652 71.1434 56.0949 70.6648C55.6626 70.2404 55.2855 69.7629 54.9724 69.2437C55.446 69.619 55.8741 70.0487 56.248 70.524C56.6772 70.9511 57.0541 71.4282 57.3705 71.9451Z" fill="#FAFAFA"/>
<path d="M57.0431 83.2206C57.0813 83.2676 56.7837 83.5791 56.384 83.912C55.9843 84.2449 55.6229 84.4839 55.5847 84.4369C55.5464 84.39 55.8398 84.0784 56.2437 83.7413C56.6476 83.4041 57.0005 83.1822 57.0431 83.2206Z" fill="#FAFAFA"/>
<path d="M58.3825 64.481C58.4293 64.5194 58.2507 64.8224 57.9828 65.1596C57.7149 65.4967 57.4598 65.7229 57.4003 65.7229C57.3408 65.7229 57.5321 65.3815 57.8 65.0443C58.0679 64.7072 58.3315 64.4426 58.3825 64.481Z" fill="#FAFAFA"/>
<g opacity="0.3">
<path opacity="0.3" d="M80.6028 66.4229C82.4013 72.0947 83.7874 78.0481 85.586 83.7199L85.1608 71.9709C83.4108 70.3253 81.8789 68.4607 80.6028 66.4229Z" fill="black"/>
</g>
<path d="M51.3457 73.8315C51.3599 73.783 51.3784 73.7358 51.401 73.6906L51.5753 73.298C51.7241 72.9566 51.9537 72.4658 52.2428 71.864C52.8169 70.6605 53.6545 69.0175 54.6537 67.2464C55.6528 65.4753 56.6308 63.909 57.3621 62.7951C57.7278 62.2361 58.0296 61.788 58.2422 61.4849L58.4888 61.1307C58.5484 61.0539 58.5781 61.0112 58.5824 61.0112L58.5059 61.1435L58.272 61.502L57.4216 62.8293C56.7031 63.9517 55.7209 65.5179 54.7387 67.289C53.7565 69.0601 52.8976 70.7032 52.3066 71.8939L51.6136 73.3108L51.4265 73.6992C51.4052 73.7465 51.378 73.7909 51.3457 73.8315Z" fill="black"/>
<path d="M54.2155 68.4116C54.2155 68.4116 54.037 68.4842 53.7521 68.6079C53.3808 68.7689 53.0262 68.9662 52.6934 69.1969C52.3626 69.428 52.0563 69.6926 51.7792 69.9864C51.5666 70.2083 51.4476 70.362 51.4348 70.3534C51.4516 70.3105 51.4745 70.2702 51.5028 70.2339C51.5539 70.1614 51.6304 70.0632 51.7324 69.9437C52.001 69.634 52.3066 69.3588 52.6423 69.1243C52.979 68.8887 53.3432 68.6952 53.7266 68.5482C53.8754 68.497 53.9944 68.4586 54.0795 68.4372C54.1234 68.4224 54.1692 68.4138 54.2155 68.4116Z" fill="black"/>
<path d="M54.6154 59.6584C54.2509 60.3573 53.8239 61.0215 53.3398 61.6429C52.9054 62.3031 52.413 62.9229 51.8687 63.4951C52.2313 62.7952 52.6583 62.1308 53.1442 61.5106C53.5742 60.8472 54.0668 60.227 54.6154 59.6584Z" fill="#FAFAFA"/>
<path d="M57.6851 52.7149C57.8959 52.7542 58.1136 52.7259 58.3075 52.634C58.5014 52.5421 58.6614 52.3912 58.765 52.2028C59.0031 51.8485 59.1137 51.4175 59.3263 51.0462C59.9556 49.9323 61.3927 49.4458 61.9709 48.2978C62.0517 48.1399 62.1028 47.918 61.9709 47.807C61.8391 47.6961 61.6521 47.7729 61.5075 47.8454L57.7191 49.7488" fill="#FFBE9D"/>
<path d="M57.7106 49.7489C57.8285 49.65 57.9585 49.5668 58.0976 49.5013C58.3569 49.3562 58.7311 49.1514 59.1988 48.9039L60.8443 48.0503L61.3205 47.807C61.4991 47.6793 61.72 47.6258 61.937 47.6577C62.0042 47.6822 62.0623 47.7269 62.1034 47.7857C62.1445 47.8444 62.1666 47.9145 62.1666 47.9863C62.1699 48.1029 62.1451 48.2185 62.0943 48.3234C62.0001 48.5112 61.8845 48.6873 61.7499 48.8484C61.2196 49.392 60.6512 49.8968 60.0492 50.3591C59.809 50.5706 59.6012 50.8165 59.4327 51.0889C59.2838 51.345 59.1818 51.6181 59.0627 51.8614C58.9875 52.067 58.8681 52.2535 58.7131 52.4076C58.5581 52.5617 58.3711 52.6798 58.1656 52.7533C58.0903 52.7817 58.0097 52.793 57.9296 52.7863C57.8494 52.7797 57.7718 52.7553 57.7021 52.7149C57.8458 52.7225 57.9896 52.7052 58.1273 52.6637C58.3087 52.5789 58.4706 52.4574 58.603 52.3068C58.7355 52.1563 58.8355 51.98 58.8969 51.7888C58.999 51.5498 59.0925 51.2724 59.2456 50.9865C59.4182 50.6907 59.6347 50.423 59.8876 50.1927C60.4762 49.7268 61.037 49.2266 61.5671 48.6947C61.6904 48.5508 61.7947 48.3916 61.8775 48.221C61.954 48.0631 61.954 47.9009 61.8775 47.8796C61.801 47.8583 61.6054 47.9308 61.4523 48.0119L60.9718 48.2509L59.2753 49.0788C58.7991 49.305 58.425 49.5056 58.1401 49.608C58.0047 49.6762 57.86 49.7237 57.7106 49.7489Z" fill="#EB996E"/>
</svg>
