<svg width="20" height="19" viewBox="0 0 20 19" fill="none" xmlns="http://www.w3.org/2000/svg">
<path d="M16.756 0.27655H2.60958C1.16838 0.27655 0 1.40467 0 2.79632V16.456C0 17.8476 1.16833 18.9758 2.60958 18.9758H9.58655L9.59844 12.2937H7.80056C7.56691 12.2937 7.37728 12.1112 7.37638 11.8856L7.36776 9.73173C7.36685 9.50489 7.55706 9.32054 7.79199 9.32054H9.5866V7.23932C9.5866 4.82407 11.1143 3.50895 13.3456 3.50895H15.1766C15.4109 3.50895 15.6008 3.69234 15.6008 3.91858V5.73477C15.6008 5.96093 15.411 6.14427 15.1768 6.1444L14.0532 6.14491C12.8397 6.14491 12.6047 6.70169 12.6047 7.51881V9.32059H15.2712C15.5252 9.32059 15.7224 9.5348 15.6924 9.77843L15.428 11.9323C15.4027 12.1385 15.2217 12.2938 15.0068 12.2938H12.6166L12.6047 18.9758H16.7561C18.1973 18.9758 19.3657 17.8477 19.3657 16.4561V2.79632C19.3656 1.40467 18.1973 0.27655 16.756 0.27655Z" fill="#475993"/>
</svg>
