<svg width="21" height="20" viewBox="0 0 21 20" fill="none" xmlns="http://www.w3.org/2000/svg">
<path d="M2.04675 1.59043C0.51131 3.13041 0.825563 4.76629 0.825563 9.73605C0.825563 13.8631 0.0798231 18.0004 3.98274 18.9743C5.20149 19.277 16.0001 19.277 17.2172 18.9728C18.8422 18.5679 20.1643 17.2952 20.345 15.0761C20.3703 14.7663 20.3703 4.71126 20.3442 4.39525C20.1521 2.03143 18.6452 0.669113 16.6595 0.39319C16.2044 0.329515 16.1132 0.310649 13.7783 0.306718C5.4962 0.310649 3.6807 -0.0454568 2.04675 1.59043V1.59043Z" fill="url(#paint0_linear)"/>
<path d="M10.6811 2.77433C7.72501 2.77433 4.9179 2.52042 3.84569 5.17746C3.40281 6.27486 3.46713 7.70007 3.46713 9.7408C3.46713 11.5315 3.40769 13.2146 3.84569 14.3034C4.91546 16.962 7.74536 16.7073 10.6795 16.7073C13.5102 16.7073 16.4288 16.9918 17.5141 14.3034C17.9578 13.1949 17.8926 11.791 17.8926 9.7408C17.8926 7.0193 18.0481 5.26236 16.6812 3.94327C15.2972 2.60689 13.4255 2.77433 10.6778 2.77433H10.6811ZM10.0347 4.02974C16.2009 4.02031 16.9857 3.35841 16.5526 12.5535C16.3987 15.8056 13.8342 15.4487 10.6819 15.4487C4.93418 15.4487 4.76891 15.2899 4.76891 9.73766C4.76891 4.12093 5.22482 4.03289 10.0347 4.02817V4.02974ZM14.5319 5.1861C14.054 5.1861 13.6665 5.56029 13.6665 6.02173C13.6665 6.48318 14.054 6.85736 14.5319 6.85736C15.0098 6.85736 15.3973 6.48318 15.3973 6.02173C15.3973 5.56029 15.0098 5.1861 14.5319 5.1861V5.1861ZM10.6811 6.16323C8.6352 6.16323 6.97682 7.76532 6.97682 9.7408C6.97682 11.7163 8.6352 13.3176 10.6811 13.3176C12.727 13.3176 14.3846 11.7163 14.3846 9.7408C14.3846 7.76532 12.727 6.16323 10.6811 6.16323V6.16323ZM10.6811 7.41864C13.8603 7.41864 13.8643 12.063 10.6811 12.063C7.50275 12.063 7.49786 7.41864 10.6811 7.41864Z" fill="white"/>
<defs>
<linearGradient id="paint0_linear" x1="2.08422" y1="17.9682" x2="19.6964" y2="2.18175" gradientUnits="userSpaceOnUse">
<stop stop-color="#FFDD55"/>
<stop offset="0.5" stop-color="#FF543E"/>
<stop offset="1" stop-color="#C837AB"/>
</linearGradient>
</defs>
</svg>
