<svg width="21" height="20" viewBox="0 0 21 20" fill="none" xmlns="http://www.w3.org/2000/svg">
<path d="M18.4044 0.27655H2.40028C1.42414 0.27655 0.632812 1.04065 0.632812 1.98318V17.4364C0.632812 18.379 1.42414 19.1431 2.40028 19.1431H18.4043C19.3805 19.1431 20.1718 18.379 20.1718 17.4364V1.98318C20.1718 1.04065 19.3805 0.27655 18.4044 0.27655ZM6.67902 16.5672C6.67902 16.8415 6.44874 17.0638 6.16466 17.0638H3.97516C3.69108 17.0638 3.46081 16.8415 3.46081 16.5672V7.70479C3.46081 7.43048 3.69108 7.20813 3.97516 7.20813H6.16466C6.44874 7.20813 6.67902 7.43048 6.67902 7.70479V16.5672ZM5.06991 6.37272C3.92115 6.37272 2.98987 5.4735 2.98987 4.36427C2.98987 3.25505 3.92115 2.35582 5.06991 2.35582C6.21867 2.35582 7.14995 3.25505 7.14995 4.36427C7.14995 5.4735 6.21872 6.37272 5.06991 6.37272ZM18.1213 16.6072C18.1213 16.8594 17.9095 17.0638 17.6483 17.0638H15.2989C15.0377 17.0638 14.8259 16.8594 14.8259 16.6072V12.4502C14.8259 11.8301 15.0143 9.73279 13.1476 9.73279C11.6996 9.73279 11.4059 11.1683 11.3469 11.8126V16.6072C11.3469 16.8594 11.1352 17.0638 10.874 17.0638H8.60162C8.34045 17.0638 8.12869 16.8594 8.12869 16.6072V7.66478C8.12869 7.4126 8.34045 7.20813 8.60162 7.20813H10.874C11.1351 7.20813 11.3469 7.4126 11.3469 7.66478V8.43796C11.8838 7.65994 12.6817 7.05942 14.3807 7.05942C18.1428 7.05942 18.1213 10.4532 18.1213 12.318V16.6072Z" fill="#0077B7"/>
</svg>
