<svg width="24" height="17" viewBox="0 0 24 17" fill="none" xmlns="http://www.w3.org/2000/svg">
<path d="M23.5159 2.70606C23.245 1.73387 22.4512 0.967552 21.4445 0.705763C19.6053 0.219757 12.2484 0.219757 12.2484 0.219757C12.2484 0.219757 4.89169 0.219757 3.05247 0.687237C2.06517 0.948853 1.25198 1.73405 0.981038 2.70606C0.49707 4.48179 0.49707 8.16449 0.49707 8.16449C0.49707 8.16449 0.49707 11.8657 0.981038 13.6229C1.25216 14.5949 2.0458 15.3614 3.05265 15.6232C4.91106 16.1092 12.2486 16.1092 12.2486 16.1092C12.2486 16.1092 19.6053 16.1092 21.4445 15.6418C22.4514 15.3801 23.245 14.6136 23.5161 13.6416C24.0001 11.8657 24.0001 8.18319 24.0001 8.18319C24.0001 8.18319 24.0195 4.48179 23.5159 2.70606Z" fill="#FF0000"/>
<path d="M9.90576 11.5668L16.0235 8.16452L9.90576 4.76227V11.5668Z" fill="white"/>
</svg>
