<svg width="687" height="391" viewBox="0 0 687 391" fill="none" xmlns="http://www.w3.org/2000/svg">
<g opacity="0.4">
<g opacity="0.41">
<path opacity="0.41" d="M334.44 58.162C341.057 47.6075 354.358 44.5494 364.209 51.3963C374.06 58.2431 383.41 76.9028 376.793 87.4573C370.176 98.0117 354.467 87.9579 342.681 87.119C326.186 85.8876 327.823 68.7029 334.44 58.162Z" fill="white"/>
</g>
<path d="M146.504 169.119C146.354 170.637 146.657 172.165 147.375 173.51C148.093 174.856 149.194 175.958 150.538 176.678C151.883 177.398 153.41 177.704 154.928 177.555C156.446 177.407 157.886 176.813 159.066 175.846C160.246 174.88 161.113 173.586 161.557 172.127C162.002 170.668 162.004 169.11 161.563 167.65C161.122 166.19 160.258 164.893 159.081 163.924C157.903 162.955 156.465 162.356 154.948 162.205C153.939 162.104 152.92 162.202 151.95 162.495C150.98 162.788 150.077 163.27 149.293 163.912C148.508 164.554 147.859 165.344 147.38 166.238C146.902 167.131 146.604 168.11 146.504 169.119Z" fill="white"/>
<path d="M328.784 269.819C328.227 269.819 327.683 269.654 327.22 269.345C326.757 269.035 326.397 268.596 326.184 268.081C325.971 267.567 325.915 267.001 326.024 266.455C326.132 265.909 326.4 265.408 326.794 265.014C327.187 264.621 327.689 264.353 328.235 264.244C328.781 264.135 329.347 264.191 329.861 264.404C330.375 264.617 330.815 264.978 331.124 265.441C331.433 265.904 331.599 266.448 331.599 267.004C331.599 267.751 331.302 268.467 330.774 268.995C330.246 269.522 329.53 269.819 328.784 269.819ZM328.784 265.543C328.495 265.543 328.212 265.629 327.972 265.789C327.732 265.95 327.544 266.178 327.434 266.445C327.323 266.712 327.294 267.006 327.351 267.29C327.407 267.573 327.546 267.833 327.751 268.038C327.955 268.242 328.215 268.381 328.499 268.438C328.782 268.494 329.076 268.465 329.343 268.355C329.61 268.244 329.839 268.057 329.999 267.816C330.16 267.576 330.245 267.293 330.245 267.004C330.245 266.617 330.091 266.245 329.817 265.971C329.543 265.697 329.172 265.543 328.784 265.543Z" fill="#F0F0F1"/>
<path d="M286.16 243.582C285.059 243.577 283.989 243.208 283.119 242.531C282.249 241.855 281.627 240.91 281.35 239.844C281.073 238.777 281.157 237.649 281.588 236.635C282.019 235.621 282.774 234.778 283.734 234.238C284.694 233.697 285.806 233.49 286.897 233.647C287.987 233.804 288.995 234.318 289.763 235.108C290.531 235.898 291.016 236.92 291.143 238.015C291.27 239.109 291.031 240.215 290.463 241.16C290.015 241.899 289.383 242.51 288.629 242.935C287.876 243.359 287.025 243.582 286.16 243.582ZM286.16 234.935C285.28 234.936 284.429 235.256 283.766 235.836C283.103 236.415 282.673 237.216 282.555 238.089C282.438 238.962 282.64 239.847 283.126 240.582C283.612 241.317 284.347 241.851 285.196 242.085C286.045 242.318 286.951 242.236 287.744 241.854C288.537 241.471 289.165 240.814 289.51 240.004C289.856 239.194 289.896 238.286 289.624 237.448C289.351 236.611 288.784 235.901 288.028 235.449C287.472 235.115 286.836 234.938 286.188 234.935H286.16Z" fill="white"/>
<path d="M70.4442 295.867C69.4074 295.87 68.3931 295.564 67.5298 294.99C66.6666 294.416 65.9933 293.598 65.5953 292.641C65.1973 291.683 65.0924 290.629 65.2941 289.612C65.4957 288.595 65.9947 287.661 66.7279 286.927C67.461 286.194 68.3953 285.695 69.4124 285.494C70.4295 285.292 71.4835 285.397 72.4409 285.795C73.3983 286.193 74.2161 286.866 74.7904 287.729C75.3648 288.593 75.67 289.607 75.6673 290.644C75.6637 292.028 75.1123 293.354 74.1336 294.333C73.1548 295.312 71.8284 295.863 70.4442 295.867ZM70.4442 288.113C69.9432 288.111 69.4527 288.257 69.0348 288.533C68.6169 288.81 68.2904 289.204 68.0968 289.666C67.9033 290.128 67.8512 290.637 67.9473 291.129C68.0434 291.621 68.2833 292.073 68.6367 292.428C68.99 292.783 69.4408 293.026 69.932 293.125C70.4233 293.223 70.9327 293.174 71.3959 292.983C71.859 292.792 72.255 292.467 72.5337 292.051C72.8123 291.635 72.961 291.145 72.961 290.644C72.9611 289.975 72.6963 289.334 72.2247 288.859C71.7531 288.385 71.113 288.117 70.4442 288.113Z" fill="#F0F0F1"/>
<path d="M264.917 180.521C261.378 188.863 255.755 196.157 248.589 201.703C241.422 207.249 232.951 210.862 223.988 212.196C215.025 213.53 205.869 212.539 197.398 209.32C188.927 206.1 181.425 200.759 175.61 193.809L156.667 196.718L166.734 178.505C163.702 170.419 162.696 161.713 163.805 153.148C164.914 144.583 168.104 136.421 173.095 129.373C178.087 122.326 184.729 116.608 192.441 112.72C200.152 108.832 208.698 106.892 217.333 107.069C225.967 107.246 234.427 109.536 241.972 113.737C249.518 117.938 255.919 123.923 260.618 131.17C265.316 138.416 268.168 146.703 268.925 155.306C269.681 163.909 268.319 172.566 264.958 180.521H264.917Z" fill="#BDBDBD"/>
<path d="M241.724 141.917H191.415C191.056 141.917 190.712 141.774 190.458 141.52C190.204 141.266 190.062 140.922 190.062 140.563C190.062 140.205 190.204 139.86 190.458 139.607C190.712 139.353 191.056 139.21 191.415 139.21H241.724C242.083 139.21 242.427 139.353 242.681 139.607C242.935 139.86 243.078 140.205 243.078 140.563C243.078 140.922 242.935 141.266 242.681 141.52C242.427 141.774 242.083 141.917 241.724 141.917Z" fill="#F0F0F1"/>
<path d="M241.724 158.817H191.415C191.056 158.817 190.712 158.675 190.458 158.421C190.204 158.167 190.062 157.823 190.062 157.464C190.062 157.105 190.204 156.761 190.458 156.507C190.712 156.253 191.056 156.111 191.415 156.111H241.724C242.083 156.111 242.427 156.253 242.681 156.507C242.935 156.761 243.078 157.105 243.078 157.464C243.078 157.823 242.935 158.167 242.681 158.421C242.427 158.675 242.083 158.817 241.724 158.817Z" fill="#F0F0F1"/>
<path d="M241.724 177.138H191.415C191.056 177.138 190.712 176.996 190.458 176.742C190.204 176.488 190.062 176.144 190.062 175.785C190.062 175.426 190.204 175.082 190.458 174.828C190.712 174.575 191.056 174.432 191.415 174.432H241.724C242.083 174.432 242.427 174.575 242.681 174.828C242.935 175.082 243.078 175.426 243.078 175.785C243.078 176.144 242.935 176.488 242.681 176.742C242.427 176.996 242.083 177.138 241.724 177.138Z" fill="#F0F0F1"/>
<path d="M274.714 190.156H241.007C232.48 190.156 225.568 197.068 225.568 205.595V205.73C225.568 214.257 232.48 221.169 241.007 221.169H274.714C283.24 221.169 290.153 214.257 290.153 205.73V205.595C290.153 197.068 283.24 190.156 274.714 190.156Z" fill="#BDBDBD"/>
<path d="M240.655 210.29C239.895 210.293 239.151 210.07 238.517 209.649C237.883 209.228 237.388 208.629 237.095 207.927C236.803 207.225 236.725 206.452 236.871 205.706C237.018 204.959 237.383 204.273 237.92 203.735C238.457 203.196 239.141 202.829 239.887 202.679C240.633 202.53 241.406 202.605 242.109 202.896C242.812 203.186 243.413 203.679 243.836 204.311C244.259 204.943 244.485 205.687 244.485 206.447C244.485 207.464 244.082 208.439 243.364 209.16C242.646 209.88 241.672 210.287 240.655 210.29ZM240.655 203.957C240.162 203.955 239.68 204.099 239.269 204.37C238.857 204.642 238.536 205.03 238.346 205.485C238.155 205.94 238.104 206.441 238.198 206.925C238.293 207.408 238.529 207.853 238.877 208.203C239.224 208.552 239.668 208.791 240.151 208.888C240.635 208.985 241.136 208.937 241.592 208.749C242.047 208.561 242.437 208.242 242.711 207.832C242.985 207.422 243.132 206.94 243.132 206.447C243.132 205.789 242.871 205.158 242.407 204.691C241.943 204.225 241.313 203.961 240.655 203.957Z" fill="white"/>
<path d="M257.867 210.29C257.106 210.293 256.362 210.07 255.728 209.649C255.094 209.228 254.6 208.629 254.307 207.927C254.014 207.225 253.936 206.452 254.083 205.706C254.229 204.959 254.594 204.273 255.131 203.735C255.668 203.196 256.353 202.829 257.099 202.679C257.844 202.53 258.618 202.605 259.321 202.896C260.024 203.186 260.625 203.679 261.048 204.311C261.471 204.943 261.696 205.687 261.696 206.447C261.696 207.464 261.293 208.439 260.576 209.16C259.858 209.88 258.884 210.287 257.867 210.29ZM257.867 203.957C257.374 203.955 256.891 204.099 256.48 204.37C256.069 204.642 255.748 205.03 255.557 205.485C255.367 205.94 255.315 206.441 255.41 206.925C255.504 207.408 255.74 207.853 256.088 208.203C256.436 208.552 256.879 208.791 257.363 208.888C257.846 208.985 258.347 208.937 258.803 208.749C259.259 208.561 259.648 208.242 259.923 207.832C260.197 207.422 260.343 206.94 260.343 206.447C260.343 205.789 260.083 205.158 259.619 204.691C259.155 204.225 258.525 203.961 257.867 203.957Z" fill="white"/>
<path d="M275.012 210.29C274.252 210.29 273.509 210.065 272.877 209.642C272.245 209.22 271.752 208.62 271.461 207.918C271.17 207.216 271.094 206.443 271.243 205.697C271.391 204.952 271.757 204.267 272.294 203.73C272.832 203.192 273.517 202.826 274.262 202.678C275.007 202.53 275.78 202.606 276.482 202.897C277.185 203.188 277.785 203.68 278.207 204.312C278.629 204.944 278.855 205.687 278.855 206.447C278.855 207.466 278.45 208.444 277.729 209.165C277.008 209.885 276.031 210.29 275.012 210.29ZM275.012 203.957C274.519 203.957 274.038 204.103 273.628 204.377C273.219 204.651 272.9 205.039 272.711 205.494C272.523 205.949 272.474 206.45 272.57 206.933C272.666 207.416 272.903 207.86 273.251 208.208C273.599 208.556 274.043 208.793 274.526 208.889C275.009 208.985 275.51 208.936 275.965 208.747C276.419 208.559 276.808 208.24 277.082 207.83C277.355 207.421 277.501 206.94 277.501 206.447C277.498 205.788 277.234 205.157 276.768 204.691C276.302 204.224 275.671 203.961 275.012 203.957Z" fill="white"/>
<path d="M698.176 171.243H542.552C541.349 171.243 540.374 172.219 540.374 173.422V220.443C540.374 221.646 541.349 222.622 542.552 222.622H698.176C699.379 222.622 700.354 221.646 700.354 220.443V173.422C700.354 172.219 699.379 171.243 698.176 171.243Z" fill="#BDBDBD"/>
<path d="M575.493 204.18C580.037 199.636 580.037 192.268 575.493 187.723C570.948 183.179 563.58 183.179 559.035 187.723C554.491 192.268 554.491 199.636 559.036 204.18C563.58 208.725 570.948 208.725 575.493 204.18Z" fill="white"/>
<path d="M566.273 201.702C566.088 201.698 565.907 201.656 565.739 201.58C565.572 201.503 565.422 201.393 565.298 201.256L560.156 195.437C560.03 195.306 559.931 195.15 559.867 194.979C559.802 194.808 559.773 194.626 559.78 194.443C559.788 194.261 559.833 194.082 559.911 193.917C559.99 193.752 560.101 193.605 560.238 193.484C560.376 193.364 560.536 193.272 560.709 193.215C560.883 193.158 561.066 193.136 561.248 193.152C561.43 193.167 561.607 193.22 561.768 193.306C561.929 193.391 562.072 193.509 562.186 193.651L566.367 198.374L576.705 187.968C576.831 187.841 576.981 187.741 577.146 187.672C577.31 187.603 577.487 187.568 577.666 187.568C577.845 187.568 578.021 187.603 578.186 187.672C578.351 187.741 578.501 187.841 578.627 187.968C578.879 188.222 579.02 188.565 579.02 188.922C579.02 189.279 578.879 189.622 578.627 189.876L567.274 201.31C567.143 201.44 566.986 201.542 566.814 201.61C566.642 201.677 566.457 201.709 566.273 201.702Z" fill="#828282"/>
<path d="M678.163 189.118H596.298C596.119 189.118 595.947 189.047 595.82 188.92C595.693 188.793 595.622 188.621 595.622 188.442C595.622 188.262 595.693 188.09 595.82 187.963C595.947 187.836 596.119 187.765 596.298 187.765H678.163C678.341 187.768 678.511 187.841 678.637 187.967C678.763 188.093 678.836 188.263 678.839 188.442C678.839 188.621 678.768 188.793 678.641 188.92C678.514 189.047 678.342 189.118 678.163 189.118Z" fill="white"/>
<path d="M632.873 198.834H596.339C596.159 198.834 595.987 198.763 595.86 198.636C595.734 198.509 595.662 198.337 595.662 198.157C595.662 197.978 595.734 197.806 595.86 197.679C595.987 197.552 596.159 197.481 596.339 197.481H632.873C633.053 197.481 633.225 197.552 633.352 197.679C633.479 197.806 633.55 197.978 633.55 198.157C633.55 198.337 633.479 198.509 633.352 198.636C633.225 198.763 633.053 198.834 632.873 198.834Z" fill="white"/>
<path d="M632.873 209.875H596.339C596.159 209.875 595.987 209.804 595.86 209.677C595.734 209.55 595.662 209.378 595.662 209.199C595.662 209.019 595.734 208.847 595.86 208.72C595.987 208.593 596.159 208.522 596.339 208.522H632.873C633.053 208.522 633.225 208.593 633.352 208.72C633.479 208.847 633.55 209.019 633.55 209.199C633.55 209.378 633.479 209.55 633.352 209.677C633.225 209.804 633.053 209.875 632.873 209.875Z" fill="white"/>
<path d="M678.163 198.834H641.629C641.449 198.834 641.277 198.763 641.15 198.636C641.023 198.509 640.952 198.337 640.952 198.157C640.952 197.978 641.023 197.806 641.15 197.679C641.277 197.552 641.449 197.481 641.629 197.481H678.163C678.343 197.481 678.515 197.552 678.642 197.679C678.768 197.806 678.84 197.978 678.84 198.157C678.84 198.337 678.768 198.509 678.642 198.636C678.515 198.763 678.343 198.834 678.163 198.834Z" fill="white"/>
<path d="M656.716 216.425H501.092C499.889 216.425 498.914 217.4 498.914 218.603V265.624C498.914 266.828 499.889 267.803 501.092 267.803H656.716C657.919 267.803 658.894 266.828 658.894 265.624V218.603C658.894 217.4 657.919 216.425 656.716 216.425Z" fill="white"/>
<path d="M525.814 252.783C532.241 252.783 537.451 247.573 537.451 241.146C537.451 234.719 532.241 229.509 525.814 229.509C519.387 229.509 514.177 234.719 514.177 241.146C514.177 247.573 519.387 252.783 525.814 252.783Z" fill="#BDBDBD"/>
<path opacity="0.69" d="M636.703 234.313H554.866C554.686 234.313 554.514 234.242 554.387 234.115C554.26 233.988 554.189 233.816 554.189 233.636C554.189 233.457 554.26 233.285 554.387 233.158C554.514 233.031 554.686 232.96 554.866 232.96H636.73C636.91 232.96 637.082 233.031 637.209 233.158C637.335 233.285 637.407 233.457 637.407 233.636C637.407 233.816 637.335 233.988 637.209 234.115C637.082 234.242 636.91 234.313 636.73 234.313H636.703Z" fill="#828282"/>
<path opacity="0.69" d="M591.4 244.001H554.866C554.687 243.998 554.517 243.925 554.391 243.799C554.265 243.673 554.192 243.503 554.189 243.325C554.189 243.145 554.26 242.973 554.387 242.846C554.514 242.719 554.686 242.648 554.866 242.648H591.4C591.58 242.648 591.752 242.719 591.879 242.846C592.005 242.973 592.077 243.145 592.077 243.325C592.077 243.504 592.005 243.676 591.879 243.803C591.752 243.93 591.58 244.001 591.4 244.001Z" fill="#828282"/>
<path opacity="0.69" d="M591.4 255.07H554.866C554.686 255.07 554.514 254.999 554.387 254.872C554.26 254.745 554.189 254.573 554.189 254.393C554.189 254.214 554.26 254.042 554.387 253.915C554.514 253.788 554.686 253.717 554.866 253.717H591.4C591.58 253.717 591.752 253.788 591.879 253.915C592.005 254.042 592.077 254.214 592.077 254.393C592.077 254.573 592.005 254.745 591.879 254.872C591.752 254.999 591.58 255.07 591.4 255.07Z" fill="#828282"/>
<path opacity="0.69" d="M636.703 244.001H600.169C599.989 244.001 599.817 243.93 599.69 243.803C599.563 243.676 599.492 243.504 599.492 243.325C599.492 243.145 599.563 242.973 599.69 242.846C599.817 242.719 599.989 242.648 600.169 242.648H636.703C636.883 242.648 637.055 242.719 637.182 242.846C637.308 242.973 637.38 243.145 637.38 243.325C637.376 243.503 637.304 243.673 637.178 243.799C637.052 243.925 636.881 243.998 636.703 244.001Z" fill="#828282"/>
<path d="M506.789 92.5995C506.789 126.969 444.545 183.043 444.545 183.043C444.545 183.043 382.3 126.969 382.3 92.5995C382.3 76.0913 388.858 60.2593 400.531 48.5863C412.204 36.9132 428.036 30.3554 444.545 30.3554C461.053 30.3554 476.885 36.9132 488.558 48.5863C500.231 60.2593 506.789 76.0913 506.789 92.5995Z" fill="#BDBDBD"/>
<path opacity="0.24" d="M444.531 156.995C444.531 156.995 394.329 111.773 384.086 77.6608C382.886 82.5314 382.277 87.529 382.273 92.5453C382.273 126.915 444.517 182.989 444.517 182.989C444.517 182.989 506.761 126.915 506.761 92.5453C506.76 87.528 506.146 82.5296 504.934 77.6608C494.732 111.773 444.531 156.995 444.531 156.995Z" fill="#828282"/>
<path d="M444.531 132.178C436.815 132.178 429.272 129.89 422.856 125.603C416.441 121.316 411.441 115.222 408.488 108.093C405.536 100.964 404.764 93.1197 406.271 85.552C407.777 77.9843 411.494 71.0332 416.951 65.578C422.408 60.1228 429.36 56.4084 436.929 54.9047C444.497 53.401 452.341 54.1755 459.469 57.1302C466.597 60.0849 472.689 65.0871 476.974 71.5042C481.259 77.9213 483.544 85.4649 483.542 93.1811C483.527 103.522 479.412 113.435 472.099 120.745C464.786 128.056 454.872 132.168 444.531 132.178ZM444.531 56.8766C437.351 56.8766 430.331 59.0058 424.361 62.995C418.391 66.9842 413.738 72.6542 410.99 79.288C408.242 85.9218 407.523 93.2214 408.924 100.264C410.325 107.306 413.782 113.775 418.86 118.852C423.937 123.93 430.406 127.387 437.448 128.788C444.491 130.189 451.79 129.47 458.424 126.722C465.058 123.974 470.728 119.321 474.717 113.351C478.706 107.381 480.835 100.361 480.835 93.1811C480.821 83.557 476.992 74.3311 470.186 67.5257C463.381 60.7204 454.155 56.8909 444.531 56.8766Z" fill="white"/>
<path d="M366.793 141.366C368.445 141.366 369.784 140.027 369.784 138.376C369.784 136.724 368.445 135.385 366.793 135.385C365.142 135.385 363.803 136.724 363.803 138.376C363.803 140.027 365.142 141.366 366.793 141.366Z" fill="white"/>
<path d="M506.789 295.705C508.44 295.705 509.779 294.366 509.779 292.714C509.779 291.063 508.44 289.724 506.789 289.724C505.137 289.724 503.798 291.063 503.798 292.714C503.798 294.366 505.137 295.705 506.789 295.705Z" fill="white"/>
<path d="M210.764 46.3764C212.416 46.3764 213.755 45.0375 213.755 43.3859C213.755 41.7344 212.416 40.3955 210.764 40.3955C209.113 40.3955 207.774 41.7344 207.774 43.3859C207.774 45.0375 209.113 46.3764 210.764 46.3764Z" fill="white"/>
<path d="M608.328 107.551C609.98 107.551 611.318 106.213 611.318 104.561C611.318 102.909 609.98 101.571 608.328 101.571C606.677 101.571 605.338 102.909 605.338 104.561C605.338 106.213 606.677 107.551 608.328 107.551Z" fill="white"/>
<path d="M482.189 195.383C482.189 195.681 482.1 195.972 481.935 196.219C481.769 196.466 481.534 196.659 481.259 196.772C480.983 196.885 480.681 196.914 480.389 196.855C480.097 196.796 479.83 196.652 479.62 196.44C479.411 196.229 479.269 195.96 479.212 195.668C479.156 195.376 479.187 195.073 479.303 194.799C479.419 194.525 479.614 194.291 479.862 194.128C480.111 193.964 480.403 193.879 480.7 193.881C480.897 193.881 481.092 193.92 481.273 193.996C481.455 194.071 481.619 194.182 481.758 194.322C481.896 194.462 482.006 194.627 482.08 194.809C482.154 194.992 482.191 195.187 482.189 195.383Z" fill="#828282"/>
<path d="M550.292 151.325C552.601 151.325 554.473 149.453 554.473 147.144C554.473 144.835 552.601 142.963 550.292 142.963C547.983 142.963 546.111 144.835 546.111 147.144C546.111 149.453 547.983 151.325 550.292 151.325Z" fill="white"/>
<path d="M679.989 283.404C679.992 283.873 679.856 284.332 679.597 284.724C679.338 285.115 678.97 285.42 678.537 285.602C678.105 285.783 677.628 285.832 677.168 285.742C676.708 285.652 676.284 285.428 675.952 285.097C675.619 284.766 675.393 284.345 675.3 283.885C675.208 283.425 675.254 282.948 675.433 282.515C675.611 282.081 675.915 281.711 676.305 281.45C676.694 281.189 677.153 281.05 677.621 281.05C678.247 281.05 678.847 281.298 679.291 281.739C679.735 282.18 679.986 282.779 679.989 283.404Z" fill="white"/>
<path d="M246.04 212.581C247.191 212.581 248.124 211.649 248.124 210.498C248.124 209.347 247.191 208.414 246.04 208.414C244.889 208.414 243.957 209.347 243.957 210.498C243.957 211.649 244.889 212.581 246.04 212.581Z" fill="white"/>
<path d="M358.363 106.063C359.193 106.063 359.865 105.391 359.865 104.561C359.865 103.732 359.193 103.059 358.363 103.059C357.534 103.059 356.861 103.732 356.861 104.561C356.861 105.391 357.534 106.063 358.363 106.063Z" fill="white"/>
<path d="M563.214 64.2106L556.219 73.5607L555.948 61.6667L547.613 54.5628L558.871 52.9931L566.137 43.3859L566.57 55.5912L574.581 63.6558L563.214 64.2106Z" fill="#BDBDBD"/>
<path opacity="0.47" d="M302.994 34.09L298.434 40.1926L298.244 32.4256L292.805 27.7844L300.152 26.7695L304.902 20.4775L305.186 28.4609L310.422 33.7246L302.994 34.09Z" fill="white"/>
<path opacity="0.47" d="M671.343 134.736L668.231 138.903L668.109 133.613L664.388 130.446L669.408 129.743L672.642 125.467L672.832 130.906L676.404 134.492L671.343 134.736Z" fill="#BDBDBD"/>
<path d="M139.122 6.41834C140.774 6.41834 142.113 5.07949 142.113 3.42793C142.113 1.77636 140.774 0.4375 139.122 0.4375C137.471 0.4375 136.132 1.77636 136.132 3.42793C136.132 5.07949 137.471 6.41834 139.122 6.41834Z" fill="white"/>
<path d="M94.4145 166.142C95.244 166.142 95.9164 165.47 95.9164 164.64C95.9164 163.811 95.244 163.138 94.4145 163.138C93.5849 163.138 92.9125 163.811 92.9125 164.64C92.9125 165.47 93.5849 166.142 94.4145 166.142Z" fill="white"/>
<path d="M134.63 107.7C135.459 107.7 136.132 107.028 136.132 106.198C136.132 105.369 135.459 104.696 134.63 104.696C133.8 104.696 133.128 105.369 133.128 106.198C133.128 107.028 133.8 107.7 134.63 107.7Z" fill="white"/>
<path d="M146.294 119.432C146.294 119.844 146.171 120.247 145.942 120.59C145.713 120.933 145.388 121.2 145.007 121.357C144.626 121.515 144.207 121.556 143.803 121.476C143.399 121.395 143.028 121.197 142.736 120.906C142.445 120.614 142.246 120.243 142.166 119.839C142.086 119.434 142.127 119.015 142.285 118.635C142.442 118.254 142.709 117.928 143.052 117.699C143.395 117.471 143.798 117.348 144.21 117.348C144.762 117.348 145.292 117.568 145.683 117.959C146.074 118.349 146.294 118.879 146.294 119.432Z" fill="white"/>
<path opacity="0.47" d="M97.7704 59.3935L98.9611 66.9305L93.278 61.6397L86.147 62.3163L90.5447 56.3219L89.3404 48.5414L95.2671 53.8998L102.682 53.8186L97.7704 59.3935Z" fill="#BDBDBD"/>
<path d="M391.339 187.927L387.781 192.677L387.645 186.642L383.41 183.029L389.12 182.231L392.814 177.346L393.031 183.557L397.104 187.643L391.339 187.927Z" fill="white"/>
<path d="M637.772 331.021L634.227 335.771L634.078 329.736L629.842 326.123L635.566 325.338L639.26 320.453L639.477 326.651L643.55 330.751L637.772 331.021Z" fill="white"/>
<path d="M293.132 96.7786L291.549 102.489L289.222 96.9139L283.958 95.1007L288.992 92.2727L290.656 86.3866L293.119 92.0832L298.396 94.4106L293.132 96.7786Z" fill="white"/>
<path d="M379.405 7.44667C380.234 7.44667 380.907 6.77421 380.907 5.9447C380.907 5.11518 380.234 4.44272 379.405 4.44272C378.575 4.44272 377.903 5.11518 377.903 5.9447C377.903 6.77421 378.575 7.44667 379.405 7.44667Z" fill="white"/>
<path d="M483.691 24.3067C485.342 24.3067 486.681 22.9679 486.681 21.3163C486.681 19.6647 485.342 18.3259 483.691 18.3259C482.039 18.3259 480.7 19.6647 480.7 21.3163C480.7 22.9679 482.039 24.3067 483.691 24.3067Z" fill="white"/>
</g>
</svg>
