<svg width="835" height="396" viewBox="0 0 835 396" fill="none" xmlns="http://www.w3.org/2000/svg">
<path d="M15.4105 54.6985C15.8497 54.79 16.2771 54.9312 16.6844 55.1196C17.4742 55.4131 18.6207 55.8852 20.022 56.4722C22.8373 57.6462 26.6717 59.3816 30.8628 61.3723L41.5889 66.4765L44.8501 68.0078C45.2625 68.1671 45.6557 68.3726 46.0221 68.6203C45.5841 68.5303 45.157 68.3934 44.7482 68.2119C43.9456 67.9057 42.8119 67.4463 41.4106 66.8338C38.608 65.6215 34.7991 63.8478 30.608 61.8572L19.8437 56.7529C18.5698 56.1404 17.4615 55.6428 16.5825 55.2344C16.1745 55.0967 15.7817 54.9171 15.4105 54.6985Z" fill="#E0E0E0"/>
<path d="M65.0406 111.7C65.2664 111.305 65.5356 110.937 65.8432 110.602L68.1489 107.731C70.0852 105.307 72.7604 101.951 75.5757 98.1354C78.391 94.32 80.8241 90.7853 82.5694 88.2077L84.6331 85.1706C84.8538 84.7733 85.1281 84.4083 85.4483 84.086C85.2783 84.5046 85.0693 84.9062 84.8241 85.2855C84.3783 86.0384 83.7286 87.123 82.9006 88.4373C81.2445 91.066 78.8623 94.6517 76.0343 98.4799C73.2063 102.308 70.4802 105.626 68.391 107.987C67.3719 109.173 66.5438 110.118 65.9451 110.743C65.6786 111.093 65.3754 111.414 65.0406 111.7Z" fill="#E0E0E0"/>
<path d="M33.626 106.443C34.0521 106.415 34.4801 106.441 34.8999 106.519L38.2757 106.953C41.1292 107.336 45.0528 107.91 49.3712 108.574C53.6897 109.237 57.626 109.85 60.4541 110.373L63.7917 110.973C64.2261 111.029 64.6532 111.131 65.0655 111.279C64.6394 111.307 64.2114 111.281 63.7917 111.203L60.4158 110.769C57.5751 110.386 53.6388 109.812 49.3203 109.148C45.0018 108.485 41.0782 107.872 38.2375 107.349L34.8999 106.749C34.4654 106.693 34.0383 106.591 33.626 106.443Z" fill="#E0E0E0"/>
<path d="M44.3407 147.417C44.8739 147.404 45.4072 147.442 45.9331 147.532L50.2643 148.068C53.9076 148.54 58.9395 149.242 64.5064 150.046C70.0732 150.85 75.0796 151.602 78.723 152.177L83.016 152.891C83.5471 152.955 84.0715 153.066 84.5828 153.223C84.0494 153.245 83.5153 153.206 82.9905 153.108L78.6593 152.572C75.0159 152.1 69.9713 151.411 64.4172 150.607C58.863 149.803 53.8439 149.05 50.2006 148.463L45.9076 147.762C45.3762 147.693 44.8519 147.578 44.3407 147.417Z" fill="#E0E0E0"/>
<path d="M83.6655 152.814C83.9395 152.311 84.2639 151.836 84.6337 151.398L87.4235 147.659C89.7802 144.494 93.0159 140.118 96.4554 135.179C99.8949 130.241 102.901 125.698 105.054 122.419L107.602 118.501C107.895 118.01 108.222 117.541 108.583 117.097C108.372 117.629 108.107 118.138 107.793 118.616C107.245 119.586 106.43 120.951 105.385 122.636C103.322 126.004 100.379 130.585 96.9267 135.537C93.4745 140.488 90.1878 144.826 87.742 147.927C86.4681 149.484 85.5127 150.722 84.812 151.564C84.4668 152.013 84.0832 152.432 83.6655 152.814Z" fill="#E0E0E0"/>
<path d="M294.01 260.935L358.978 196.507C358.978 199.365 358.418 330.136 358.418 330.136L294.01 260.935Z" fill="#EBEBEB"/>
<path d="M781.998 219.604H75.2188V323.488H781.998V219.604Z" fill="#8CBF43"/>
<g opacity="0.5">
<path opacity="0.5" d="M781.998 219.604H75.2188V323.488H781.998V219.604Z" fill="black"/>
</g>
<path d="M174.766 390.907C212.321 388.375 240.717 355.827 238.189 318.208C235.662 280.589 203.169 252.145 165.614 254.677C128.059 257.209 99.6634 289.757 102.191 327.376C104.718 364.995 137.211 393.439 174.766 390.907Z" fill="black"/>
<path d="M102.06 321.637C102.06 321.701 102.06 321.752 102.06 321.816C101.8 339.922 108.731 357.39 121.328 370.377C133.925 383.365 151.157 390.807 169.232 391.068C187.307 391.328 204.746 384.386 217.711 371.767C230.676 359.148 238.106 341.887 238.366 323.781C238.366 323.717 238.366 323.666 238.366 323.603L102.06 321.637Z" fill="black"/>
<path d="M122.353 322.11C122.213 331.589 124.882 340.896 130.023 348.856C135.165 356.815 142.547 363.068 151.236 366.825C159.925 370.581 169.531 371.672 178.84 369.959C188.148 368.246 196.74 363.807 203.529 357.203C210.318 350.598 215 342.125 216.982 332.855C218.963 323.585 218.156 313.935 214.662 305.125C211.168 296.314 205.145 288.74 197.353 283.359C189.561 277.978 180.351 275.033 170.888 274.895C158.202 274.711 145.963 279.582 136.861 288.436C127.759 297.29 122.541 309.402 122.353 322.11Z" fill="#FAFAFA"/>
<path d="M170.888 274.87C158.202 274.686 145.962 279.556 136.861 288.41C127.759 297.264 122.541 309.377 122.353 322.084L218.035 323.462C218.212 310.757 213.345 298.501 204.504 289.389C195.663 280.277 183.572 275.055 170.888 274.87Z" fill="#E0E0E0"/>
<path d="M141.054 322.378C140.971 328.152 142.6 333.821 145.734 338.668C148.868 343.515 153.366 347.322 158.66 349.607C163.955 351.893 169.806 352.555 175.476 351.509C181.146 350.463 186.378 347.757 190.512 343.732C194.646 339.707 197.496 334.544 198.7 328.897C199.905 323.25 199.411 317.371 197.28 312.006C195.15 306.64 191.479 302.027 186.731 298.751C181.983 295.476 176.372 293.684 170.608 293.602C162.88 293.493 155.425 296.463 149.882 301.86C144.34 307.256 141.164 314.636 141.054 322.378Z" fill="black"/>
<path d="M695.311 390.892C732.888 388.709 761.583 356.425 759.403 318.784C757.223 281.144 724.994 252.4 687.418 254.583C649.841 256.767 621.146 289.051 623.326 326.692C625.506 364.332 657.735 393.076 695.311 390.892Z" fill="black"/>
<path d="M623.208 321.637C623.208 321.701 623.208 321.752 623.208 321.816C623.079 330.781 624.714 339.684 628.02 348.016C631.326 356.349 636.238 363.947 642.476 370.377C655.073 383.365 672.305 390.807 690.38 391.068C708.455 391.328 725.894 384.386 738.859 371.767C751.824 359.148 759.254 341.887 759.514 323.781C759.514 323.717 759.514 323.666 759.514 323.603L623.208 321.637Z" fill="black"/>
<path d="M643.501 322.11C643.361 331.589 646.03 340.896 651.171 348.856C656.313 356.815 663.695 363.068 672.384 366.825C681.073 370.581 690.679 371.672 699.988 369.959C709.296 368.246 717.888 363.807 724.677 357.203C731.466 350.598 736.148 342.125 738.13 332.855C740.111 323.585 739.304 313.935 735.81 305.125C732.316 296.314 726.293 288.74 718.501 283.359C710.709 277.978 701.499 275.033 692.036 274.895C679.35 274.711 667.111 279.582 658.009 288.436C648.908 297.29 643.689 309.402 643.501 322.11Z" fill="#FAFAFA"/>
<path d="M692.036 274.87C679.35 274.686 667.111 279.556 658.009 288.41C648.908 297.264 643.689 309.377 643.501 322.084L739.183 323.462C739.36 310.757 734.493 298.501 725.652 289.389C716.811 280.277 704.72 275.055 692.036 274.87Z" fill="#E0E0E0"/>
<path d="M662.201 322.377C662.119 328.151 663.748 333.821 666.882 338.667C670.016 343.514 674.514 347.321 679.808 349.607C685.102 351.893 690.954 352.555 696.624 351.509C702.293 350.463 707.526 347.757 711.66 343.732C715.794 339.707 718.644 334.544 719.848 328.897C721.053 323.25 720.559 317.371 718.428 312.005C716.298 306.639 712.626 302.027 707.879 298.751C703.131 295.475 697.52 293.684 691.756 293.602C684.029 293.497 676.575 296.468 671.034 301.863C665.492 307.259 662.316 314.637 662.201 322.377Z" fill="black"/>
<path d="M259.525 161.173C259.525 161.173 159.168 168.587 121.945 176.945C95.7535 182.866 45.2056 192.985 45.8171 224.848L49.8298 247.677C49.8298 247.677 31.0655 256.265 31.0655 278.149C31.0655 300.033 26.4922 334.002 70.263 335.355C77.4732 335.584 91.1803 335.355 91.1803 335.355C91.1803 335.355 82.7726 241.985 168.416 239.255C255.525 236.473 249.741 334.5 249.741 334.5H613.347C613.347 334.5 598.417 239.012 692.201 238.859C785.985 238.706 771.717 335.125 771.717 335.125C771.717 335.125 806.214 338.111 822.278 309.068C838.341 280.025 834.15 259.302 834.15 259.302L833.615 240.939C833.515 237.936 832.283 235.083 830.168 232.952C828.053 230.822 825.211 229.572 822.214 229.455C822.214 229.455 828.482 183.223 818.864 175.222C809.246 167.221 756.545 118.961 756.545 118.961L759.093 117.378C760.037 116.78 760.793 115.926 761.273 114.915C761.753 113.905 761.937 112.778 761.803 111.667C761.67 110.556 761.225 109.505 760.52 108.637C759.814 107.769 758.878 107.118 757.819 106.762C737.806 99.8709 698.239 86.2426 688.94 82.9758C687.545 82.4902 686.094 82.1857 684.621 82.0698C679.067 81.636 663.347 80.6406 634.507 80.3344C599.347 79.9643 459.805 80.3344 459.805 80.3344C459.805 80.3344 411.78 84.2902 385.028 96.0937C356.913 108.51 259.525 161.173 259.525 161.173Z" fill="#8CBF43"/>
<g opacity="0.4">
<path opacity="0.4" d="M56.5178 275.622C52.8744 274.882 47.2948 274.805 44.5177 277.281C42.454 279.119 41.97 282.079 41.6005 284.823C41.0155 288.581 41.1017 292.413 41.8553 296.141C42.236 298.005 42.9986 299.769 44.095 301.322C45.1914 302.874 46.5976 304.183 48.2247 305.163C51.5496 306.975 56.1101 306.681 58.6961 303.887C61.0656 301.335 61.3331 297.507 61.2439 294.087C61.1547 289.161 61.5496 284.988 60.6452 280.152C60.4394 279.131 60.0037 278.171 59.3713 277.345C59.0539 276.849 58.6268 276.434 58.123 276.131C57.6193 275.827 57.0525 275.645 56.4668 275.597" fill="black"/>
</g>
<path d="M49.8312 247.677C60.4809 247.677 70.8122 247.09 81.4491 246.401C82.0892 246.516 82.748 246.465 83.3631 246.254C83.9782 246.042 84.5293 245.677 84.9642 245.193C85.3991 244.709 85.7035 244.122 85.8486 243.487C85.9936 242.852 85.9745 242.19 85.7931 241.565C85.7931 235.848 85.5638 229.353 81.2326 225.627C78.5829 223.342 74.9523 222.641 71.4873 222.309C62.8469 221.381 54.1082 222.25 45.8185 224.861L49.8312 247.677Z" fill="#FAFAFA"/>
<path d="M271.053 331.578C271.053 331.578 271.053 331.271 270.964 330.672C270.875 330.072 270.862 329.153 270.786 327.992C270.659 325.618 270.467 322.148 270.225 317.694C269.983 313.241 269.678 307.754 269.041 301.424C268.362 294.256 267.084 287.158 265.219 280.204C262.914 271.801 259.486 263.748 255.028 256.265C249.957 247.633 243.219 240.102 235.206 234.112C218.009 221.875 194.786 214.971 170.493 214.652C146.2 214.333 123.002 222.066 106.25 234.916C98.2111 240.866 91.1677 248.06 85.3842 256.226C80.3434 263.323 76.2413 271.043 73.1803 279.195C70.6608 285.935 68.9295 292.945 68.0211 300.084C67.3105 305.472 67.1015 310.915 67.3969 316.341C67.6043 319.768 68.0298 323.178 68.6708 326.55C68.8746 327.698 69.0402 328.579 69.1421 329.191C69.244 329.804 69.2822 330.097 69.2822 330.097C69.2822 330.097 69.2058 329.791 69.0784 329.204C68.951 328.617 68.7727 327.711 68.5434 326.575C67.8493 323.209 67.3896 319.798 67.1676 316.367C66.8212 310.923 66.9918 305.458 67.6771 300.046C68.5627 292.872 70.2725 285.824 72.7727 279.042C75.8227 270.826 79.925 263.04 84.9765 255.882C90.7684 247.646 97.8387 240.391 105.919 234.393C122.76 221.441 146.047 213.657 170.544 213.976C195.041 214.295 218.276 221.237 235.601 233.615C243.664 239.663 250.435 247.269 255.512 255.984C259.982 263.516 263.41 271.62 265.703 280.076C267.524 287.063 268.751 294.192 269.372 301.386C269.983 307.766 270.238 313.202 270.442 317.681C270.646 322.16 270.786 325.606 270.888 327.979C270.888 329.153 270.964 330.034 270.99 330.659C271.015 331.284 271.053 331.578 271.053 331.578Z" fill="white"/>
<path d="M274.914 333.173C274.914 333.173 274.914 332.905 274.914 332.407L274.837 330.136C274.837 328.132 274.685 325.172 274.557 321.318C274.341 313.585 274.022 302.254 273.615 287.86C273.207 273.466 272.736 255.958 272.188 235.924C272.06 230.905 271.92 225.733 271.767 220.408C271.678 217.701 271.797 214.992 272.124 212.305C272.315 210.952 272.506 209.574 272.697 208.196C272.888 206.818 273.258 205.465 273.551 204.087C276.286 192.526 281.392 181.663 288.544 172.185L351.513 132.449L368.507 121.717C374.241 117.909 380.258 114.547 386.507 111.662C392.876 108.65 399.413 106.009 406.086 103.75C409.424 102.576 412.851 101.607 416.277 100.586C419.704 99.5648 423.195 98.7226 426.736 98.0336C440.093 95.1659 453.672 93.4582 467.322 92.9293C480.411 92.2986 493.524 92.3455 506.609 93.0697H506.978L506.902 93.4398C500.864 120.454 495.182 145.911 489.972 169.263C486.863 174.399 484.322 179.859 482.392 185.546C480.461 190.946 479.596 196.671 479.844 202.402C480.278 208.004 480.43 213.479 480.571 218.8C480.711 224.121 480.774 229.289 480.876 234.291C481.169 254.325 481.246 271.807 481.297 286.201C481.348 300.595 481.297 311.901 481.297 319.634C481.297 323.462 481.297 326.448 481.297 328.451C481.297 329.447 481.297 330.2 481.297 330.71C481.297 331.22 481.297 331.476 481.297 331.476C481.297 331.476 481.297 331.22 481.297 330.71C481.297 330.2 481.297 329.434 481.297 328.451C481.297 326.448 481.297 323.488 481.297 319.634C481.297 311.901 481.182 300.595 481.106 286.201C481.029 271.807 480.876 254.3 480.545 234.304C480.426 229.302 480.316 224.138 480.214 218.812C480.061 213.491 479.895 208.03 479.45 202.441C479.19 196.638 480.055 190.84 481.997 185.367C483.937 179.633 486.5 174.13 489.641 168.957V169.046C494.825 145.694 500.494 120.224 506.494 93.2101L506.787 93.6057C493.728 92.8965 480.64 92.8581 467.577 93.4908C453.966 94.0312 440.426 95.7389 427.105 98.595C423.589 99.3096 420.137 100.292 416.685 101.147C413.233 102.002 409.857 103.125 406.494 104.299C399.859 106.522 393.356 109.121 387.016 112.083C380.72 114.989 374.659 118.38 368.889 122.228L351.87 132.947L288.876 172.657H288.939C285.313 177.407 282.22 182.542 279.716 187.97C277.271 193.168 275.376 198.608 274.06 204.202C271.194 215.137 272.646 225.895 272.659 235.924C273.156 255.958 273.589 273.44 273.933 287.847C274.277 302.254 274.544 313.573 274.723 321.318C274.812 325.146 274.876 328.132 274.914 330.136C274.914 331.131 274.914 331.884 274.914 332.394V333.173Z" fill="black"/>
<path d="M506.176 95.2261H506.774H508.52L515.284 95.0602L540.367 94.5625L624.94 93.0185H625.106L625.208 93.1333L637.055 107.668L670.89 149.229L674.711 153.963C678.374 158.547 680.385 164.234 680.418 170.105C680.449 173.684 679.751 177.231 678.367 180.531L674.546 189.463C669.616 200.947 665.628 210.135 662.851 216.566C661.463 219.731 660.38 222.207 659.641 223.917L658.788 225.818C658.596 226.252 658.482 226.456 658.482 226.456C658.482 226.456 658.558 226.226 658.724 225.792C658.889 225.358 659.182 224.695 659.514 223.865C660.24 222.143 661.272 219.654 662.609 216.464C665.335 210.084 669.259 200.731 674.074 189.284C676.265 183.504 680.125 177.442 679.858 170.041C679.801 166.28 678.932 162.575 677.31 159.182C676.459 157.418 675.416 155.754 674.202 154.218L670.38 149.497C659.96 136.736 648.52 122.7 636.507 107.974L624.686 93.5417L624.94 93.6565L540.38 94.9326L515.284 95.2388H508.52H506.176V95.2261Z" fill="black"/>
<path d="M463.488 207.864C463.488 207.864 463.844 207.864 464.494 207.711C465.453 207.547 466.368 207.186 467.182 206.652C468.456 205.799 469.41 204.547 469.895 203.092C470.187 202.186 470.308 201.234 470.252 200.284C470.221 199.225 469.951 198.187 469.462 197.247C468.89 196.182 468.044 195.288 467.011 194.66C465.979 194.032 464.798 193.692 463.59 193.674H455.004H435.322C433.687 193.676 432.109 194.281 430.89 195.373C429.671 196.465 428.895 197.968 428.711 199.595C428.5 201.145 428.786 202.722 429.526 204.1C430.256 205.404 431.399 206.428 432.774 207.009C434.137 207.473 435.582 207.647 437.016 207.52H441.182H448.672L459.513 207.622H462.456C462.801 207.616 463.146 207.637 463.488 207.685C463.145 207.721 462.799 207.721 462.456 207.685L459.513 207.749L448.672 207.851H441.182H437.016C436.29 207.851 435.59 207.851 434.812 207.851C433.61 207.772 432.447 207.394 431.426 206.753C430.405 206.111 429.56 205.226 428.965 204.176C428.164 202.681 427.848 200.973 428.061 199.289C428.261 197.499 429.112 195.845 430.451 194.642C431.79 193.44 433.524 192.773 435.322 192.768H455.004H463.602C464.901 192.796 466.168 193.173 467.271 193.86C468.373 194.547 469.271 195.519 469.87 196.673C470.382 197.682 470.656 198.795 470.672 199.927C470.713 200.923 470.57 201.918 470.252 202.862C469.718 204.377 468.684 205.664 467.322 206.511C466.47 207.038 465.514 207.373 464.52 207.494C464.194 207.665 463.847 207.789 463.488 207.864Z" fill="black"/>
<path d="M651.934 207.864C651.934 207.864 652.291 207.864 652.941 207.711C653.9 207.547 654.815 207.186 655.629 206.652C656.902 205.799 657.857 204.547 658.342 203.092C658.634 202.186 658.755 201.234 658.699 200.284C658.667 199.225 658.397 198.187 657.909 197.247C657.337 196.182 656.491 195.288 655.458 194.66C654.426 194.032 653.244 193.692 652.036 193.674H643.45H623.769C622.133 193.676 620.556 194.281 619.337 195.373C618.117 196.465 617.342 197.968 617.157 199.595C616.947 201.145 617.232 202.722 617.973 204.1C618.702 205.404 619.845 206.428 621.221 207.009C622.584 207.473 624.029 207.647 625.463 207.52H629.629H637.119L647.96 207.622H650.903C651.248 207.616 651.593 207.637 651.934 207.685C651.591 207.721 651.246 207.721 650.903 207.685L647.96 207.749L637.119 207.851H629.629H625.463C624.737 207.851 624.036 207.851 623.259 207.851C622.057 207.772 620.893 207.394 619.873 206.753C618.852 206.111 618.007 205.226 617.412 204.176C616.611 202.681 616.295 200.973 616.508 199.289C616.708 197.499 617.558 195.845 618.897 194.642C620.236 193.44 621.97 192.773 623.769 192.768H643.45H652.049C653.348 192.796 654.614 193.173 655.717 193.86C656.82 194.547 657.718 195.519 658.317 196.673C658.829 197.682 659.103 198.795 659.119 199.927C659.16 200.923 659.017 201.918 658.699 202.862C658.164 204.377 657.131 205.664 655.769 206.511C654.916 207.038 653.96 207.373 652.966 207.494C652.641 207.665 652.294 207.789 651.934 207.864Z" fill="black"/>
<path d="M817.183 177.06H779.476C776.941 177.06 774.455 177.754 772.286 179.067C770.117 180.381 768.348 182.264 767.17 184.512C766.196 186.369 765.652 188.422 765.58 190.519C765.507 192.615 765.907 194.701 766.75 196.622L781.539 230.258L819.285 229.888C819.285 229.888 827.323 187.242 817.183 177.06Z" fill="#FAFAFA"/>
<path d="M293.5 172.3L488.061 168.714L614.686 166.379L656.444 142.236C657.24 141.774 657.929 141.147 658.465 140.398C659.002 139.649 659.373 138.795 659.555 137.891C659.737 136.988 659.725 136.056 659.52 135.157C659.316 134.258 658.923 133.413 658.367 132.678L632.367 98.4671C631.031 96.7073 629.309 95.278 627.335 94.2891C625.36 93.3003 623.186 92.7782 620.979 92.7631L479.348 91.6019C479.348 91.6019 426.023 88.5011 384.01 112.019C339.78 136.927 293.5 172.3 293.5 172.3Z" fill="black"/>
<path d="M382.672 95.1366C382.672 95.1366 392.417 99.5901 386.073 103.724C379.729 107.859 281.156 170.08 281.156 170.08L258.493 159.897C298.633 137.425 339.169 115.668 382.672 95.1366Z" fill="#2B3A8C"/>
<path d="M284.34 171.662C284.34 171.662 284.136 171.726 283.728 171.815L281.932 172.198L275.015 173.64C269.002 174.839 260.289 176.511 249.537 178.374C227.881 182.1 197.919 186.439 164.582 189.335C156.238 190.063 148.097 190.611 140.225 191.173C132.352 191.734 124.76 192.168 117.55 192.832C103.116 194.108 90.1992 196.188 79.7023 199.327C71.3759 201.67 63.3641 205.017 55.8424 209.293C53.129 210.722 51.2055 212.126 49.8297 212.968L48.2755 213.963L47.7405 214.282C47.8987 214.145 48.0645 214.018 48.2373 213.9L49.7532 212.866C51.6751 211.491 53.6649 210.213 55.715 209.038C63.2139 204.655 71.229 201.226 79.575 198.829C90.0845 195.639 103.053 193.483 117.486 192.181C124.709 191.505 132.314 191.007 140.174 190.484C148.034 189.961 156.187 189.361 164.518 188.634C197.843 185.75 227.843 181.475 249.461 177.876C260.276 176.077 268.989 174.469 275.028 173.346L281.958 172.07L283.767 171.739C284.123 171.675 284.34 171.662 284.34 171.662Z" fill="black"/>
<path d="M832.253 258.932C832.253 259.111 819.285 259.264 803.298 259.264C787.31 259.264 774.329 259.111 774.329 258.932C774.329 258.753 787.297 258.6 803.298 258.6C819.298 258.6 832.253 258.753 832.253 258.932Z" fill="black"/>
<path d="M595.017 292.084C595.017 292.262 521.82 292.415 431.539 292.415C341.258 292.415 268.048 292.262 268.048 292.084C268.048 291.905 341.233 291.752 431.539 291.752C521.845 291.752 595.017 291.892 595.017 292.084Z" fill="black"/>
<path d="M82.4802 260.029C82.4802 260.208 72.1234 260.361 59.3591 260.361C46.5947 260.361 36.2507 260.208 36.2507 260.029C36.2507 259.85 46.5947 259.697 59.3591 259.697C72.1234 259.697 82.4802 259.85 82.4802 260.029Z" fill="black"/>
<path d="M755.502 117.634C755.502 117.634 746.814 127.383 750.228 134.529C753.642 141.675 788.942 166.698 788.942 166.698L814.56 171.522L755.502 117.634Z" fill="#2B3A8C"/>
<path d="M511.934 100.203L506.176 162.513L609.259 159.565L650.8 135.384L623.908 100.203H511.934Z" fill="#2B3A8C"/>
<path d="M317.933 165.703C317.933 165.703 380.124 120.709 404.66 111.777C428.341 103.138 440.685 100.981 462.927 100.292C484.188 99.6925 497.144 100.292 497.144 100.292L480.685 163.725L317.933 165.703Z" fill="#2B3A8C"/>
<path d="M308.812 165.907C308.812 163.971 309.327 162.07 310.303 160.4C311.279 158.729 312.681 157.349 314.366 156.4L328.659 148.361C332.73 146.065 337.324 144.861 341.996 144.865C344.878 144.863 347.742 145.32 350.48 146.217C353.455 147.249 356.045 149.165 357.905 151.709C359.764 154.254 360.805 157.306 360.888 160.458C360.97 162.578 360.624 164.694 359.871 166.677C359.117 168.66 357.971 170.471 356.502 172C355.033 173.528 353.271 174.744 351.321 175.574C349.371 176.404 347.274 176.831 345.156 176.83H319.678C316.791 176.823 314.026 175.669 311.988 173.621C309.951 171.573 308.808 168.798 308.812 165.907Z" fill="#8CBF43"/>
<path d="M308.812 165.907C308.812 165.907 308.812 166.392 308.977 167.298C309.171 168.612 309.603 169.879 310.251 171.037C311.282 172.856 312.8 174.35 314.633 175.35C315.777 175.954 317.019 176.348 318.302 176.511C319.652 176.664 321.155 176.511 322.697 176.588L344.493 176.524C346.559 176.574 348.615 176.236 350.557 175.529C352.604 174.759 354.467 173.565 356.023 172.026C357.579 170.487 358.794 168.637 359.589 166.596C360.387 164.441 360.709 162.138 360.531 159.846C360.372 157.575 359.712 155.367 358.6 153.382C357.487 151.396 355.95 149.682 354.098 148.361C352.315 147.152 350.31 146.306 348.2 145.873C346.181 145.388 344.111 145.144 342.035 145.146C338.177 145.128 334.362 145.947 330.85 147.545C329.207 148.272 327.703 149.204 326.213 150.007L321.958 152.381L314.633 156.452C312.795 157.444 311.285 158.952 310.289 160.79C309.644 161.95 309.213 163.216 309.015 164.529C308.888 165.435 308.901 165.907 308.862 165.907C308.815 165.445 308.815 164.979 308.862 164.516C309.002 163.176 309.4 161.876 310.034 160.688C311.035 158.778 312.572 157.204 314.455 156.158L321.729 152.011L325.958 149.599C327.436 148.782 328.939 147.838 330.62 147.047C334.213 145.375 338.125 144.505 342.085 144.495C344.23 144.482 346.368 144.727 348.455 145.222C350.648 145.665 352.733 146.532 354.595 147.774C356.515 149.146 358.111 150.924 359.271 152.981C360.431 155.038 361.127 157.325 361.308 159.68C361.495 162.072 361.156 164.477 360.315 166.724C359.493 168.857 358.227 170.791 356.602 172.397C354.976 174.003 353.029 175.244 350.888 176.039C348.878 176.776 346.747 177.123 344.608 177.06L322.812 176.983C321.328 177.019 319.844 176.977 318.366 176.856C317.024 176.669 315.729 176.237 314.544 175.58C312.671 174.517 311.135 172.947 310.111 171.05C309.487 169.858 309.094 168.559 308.952 167.222C308.87 166.788 308.823 166.348 308.812 165.907Z" fill="black"/>
<path d="M787.998 332.164C787.998 332.164 787.998 331.858 787.998 331.271C787.998 330.684 788.087 329.804 788.164 328.719C788.24 327.634 788.367 326.167 788.444 324.508C788.52 322.849 788.571 320.922 788.648 318.753C788.724 316.584 788.648 314.185 788.648 311.543C788.648 308.902 788.457 306.044 788.1 302.994C787.509 296.026 786.259 289.13 784.368 282.398C783.272 278.505 781.918 274.69 780.316 270.977C778.603 266.941 776.545 263.06 774.164 259.378C768.854 251.271 762.1 244.212 754.24 238.553C745.588 232.263 735.93 227.495 725.679 224.452C715.055 221.186 703.488 219.999 691.718 219.922C680.236 219.805 668.805 221.471 657.832 224.861C652.642 226.51 647.604 228.606 642.775 231.126C638.16 233.578 633.777 236.444 629.679 239.689C622.068 245.672 615.282 252.64 609.501 260.412C606.972 263.988 604.731 267.76 602.8 271.692C601.06 275.344 599.52 279.088 598.189 282.909C594.11 294.45 591.637 306.498 590.838 318.715C590.635 323.041 590.647 326.371 590.762 328.681C590.826 329.804 590.877 330.671 590.915 331.233C590.953 331.794 590.915 332.126 590.915 332.126C590.915 332.126 590.915 331.82 590.813 331.246C590.711 330.671 590.698 329.778 590.596 328.694C590.428 325.365 590.428 322.03 590.596 318.702C591.299 306.443 593.713 294.343 597.768 282.755C599.103 278.914 600.647 275.148 602.392 271.475C604.314 267.503 606.56 263.695 609.106 260.093C614.899 252.261 621.706 245.237 629.348 239.204C633.476 235.931 637.889 233.036 642.533 230.552C647.4 228.022 652.476 225.917 657.705 224.261C668.743 220.847 680.242 219.169 691.794 219.284C703.616 219.361 715.234 220.56 725.947 223.853C736.267 226.924 745.987 231.74 754.686 238.093C758.718 241.057 762.486 244.366 765.947 247.983C769.238 251.381 772.171 255.11 774.699 259.11C777.088 262.818 779.147 266.729 780.852 270.799C782.454 274.533 783.807 278.37 784.903 282.283C786.752 289.027 787.954 295.932 788.495 302.904C788.839 305.98 788.839 308.851 788.992 311.492C789.145 314.134 788.992 316.596 788.992 318.715C788.992 320.833 788.813 322.798 788.737 324.47C788.661 326.141 788.482 327.545 788.393 328.681C788.304 329.816 788.202 330.659 788.151 331.233C788.1 331.807 787.998 332.164 787.998 332.164Z" fill="white"/>
<path d="M477.959 172.3C477.959 172.3 477.87 172.3 477.666 172.3H476.8L473.488 172.364L461.259 172.594C450.953 172.785 436.698 173.168 420.953 173.589C405.207 174.01 390.953 174.329 380.634 174.406C375.475 174.406 371.297 174.406 368.405 174.406H365.093H364.226C364.023 174.406 363.933 174.406 363.933 174.406C363.933 174.406 364.023 174.406 364.226 174.406H365.093L368.405 174.329L380.621 174.112C390.94 173.921 405.195 173.538 420.94 173.104C436.685 172.67 450.94 172.377 461.259 172.3C466.418 172.3 470.596 172.3 473.488 172.3H476.8H477.666C477.87 172.275 477.959 172.288 477.959 172.3Z" fill="white"/>
<path d="M461.067 191.492C457.357 191.821 453.631 191.932 449.908 191.824C446.185 191.932 442.459 191.821 438.749 191.492C442.458 191.156 446.185 191.045 449.908 191.16C453.631 191.045 457.357 191.156 461.067 191.492Z" fill="white"/>
<path d="M465.17 123.197C465.233 123.376 451.386 129.156 434.227 136.111C417.068 143.065 403.106 148.565 403.029 148.399C402.953 148.233 416.813 142.453 433.985 135.485C451.157 128.518 465.106 123.031 465.17 123.197Z" fill="white"/>
<path d="M437.093 127.562C437.169 127.727 423.972 133.546 407.641 140.565C391.309 147.583 377.984 153.121 377.908 152.955C377.832 152.789 391.029 146.958 407.373 139.952C423.717 132.947 437.029 127.396 437.093 127.562Z" fill="white"/>
<path d="M615.131 120.786C615.208 120.964 601.348 126.732 584.189 133.7C567.029 140.667 553.068 146.154 553.004 145.988C552.94 145.822 566.787 140.042 583.947 133.074C601.106 126.107 615.068 120.62 615.131 120.786Z" fill="white"/>
<path d="M587.068 125.15C587.131 125.316 573.946 131.134 557.603 138.153C541.259 145.171 527.946 150.709 527.87 150.543C527.793 150.377 540.991 144.546 557.335 137.54C573.679 130.535 586.991 124.984 587.068 125.15Z" fill="white"/>
<path d="M617.845 172.287C617.845 172.479 590.291 172.785 556.303 172.989C522.316 173.193 494.762 173.206 494.762 172.989C494.762 172.772 522.303 172.491 556.303 172.287C590.303 172.083 617.845 172.109 617.845 172.287Z" fill="white"/>
<path d="M648.354 190.42C648.354 190.611 640.635 190.828 631.093 190.918C621.552 191.007 613.832 190.918 613.832 190.739C613.832 190.56 621.552 190.343 631.093 190.254C640.635 190.165 648.354 190.241 648.354 190.42Z" fill="white"/>
<path d="M120.773 180.99C120.53 181.071 120.277 181.118 120.022 181.13L117.869 181.411C116.926 181.526 115.779 181.666 114.455 181.883C113.13 182.1 111.614 182.292 109.958 182.623C106.633 183.198 102.709 184.078 98.3909 185.175C94.0724 186.273 89.4737 187.868 84.6202 189.731C80.1231 191.525 75.7184 193.544 71.4227 195.779C67.4736 197.872 63.9959 199.901 61.2316 201.739C59.7921 202.619 58.5437 203.512 57.4099 204.291C56.2762 205.069 55.3462 205.707 54.5819 206.269L52.8112 207.545C52.6149 207.707 52.3961 207.841 52.1615 207.94C52.3334 207.75 52.5256 207.578 52.7347 207.43L54.429 206.077C55.1679 205.478 56.0851 204.801 57.1934 203.997C58.3016 203.193 59.5246 202.3 60.9513 201.445C63.7539 199.557 67.2189 197.464 71.1424 195.333C79.7359 190.744 88.8332 187.173 98.2508 184.691C102.582 183.568 106.544 182.738 109.894 182.215C111.563 181.909 113.079 181.743 114.416 181.564C115.754 181.386 116.964 181.283 117.856 181.207L120.022 181.054C120.268 180.997 120.521 180.976 120.773 180.99Z" fill="white"/>
<path d="M348.252 150.888C347.848 150.47 347.423 150.073 346.978 149.701C345.76 148.754 344.306 148.162 342.774 147.991C340.484 147.81 338.181 148.061 335.984 148.731C333.238 149.417 330.554 150.33 327.959 151.462C323.235 153.513 318.839 156.252 314.914 159.59C311.882 162.142 310.277 164.018 310.188 163.929C310.494 163.436 310.852 162.978 311.258 162.563C312.314 161.393 313.432 160.281 314.608 159.233C318.492 155.753 322.909 152.923 327.691 150.849C330.322 149.711 333.045 148.802 335.831 148.131C338.105 147.473 340.486 147.269 342.838 147.532C344.433 147.753 345.93 148.436 347.143 149.497C347.466 149.789 347.752 150.119 347.997 150.479C348.214 150.734 348.277 150.875 348.252 150.888Z" fill="white"/>
<path d="M758.393 117.187C756.616 117.607 754.792 117.792 752.966 117.736C750.822 117.684 748.689 117.419 746.597 116.945C743.835 116.302 741.127 115.449 738.495 114.392C735.552 113.282 732.406 111.84 729.017 110.424L723.731 108.28C721.909 107.553 719.998 106.927 718.049 106.226C709.549 103.329 700.878 100.96 692.087 99.1308C676.106 95.7888 659.877 93.7659 643.565 93.0823C640.431 92.9164 637.603 92.9036 635.119 92.8398H628.75L624.724 92.9291H623.667H623.31C623.429 92.9166 623.548 92.9166 623.667 92.9291H624.711L628.75 92.7122L635.119 92.5974C637.667 92.5974 640.444 92.5974 643.578 92.7377C659.933 93.2851 676.21 95.249 692.227 98.6076C701.042 100.453 709.734 102.844 718.253 105.766C720.202 106.494 722.075 107.132 723.947 107.872L729.234 110.041C732.622 111.521 735.744 112.95 738.661 114.086C741.269 115.124 743.946 115.977 746.673 116.638C748.74 117.128 750.846 117.427 752.966 117.532C754.306 117.582 755.647 117.53 756.979 117.378L758.024 117.251C758.142 117.208 758.267 117.187 758.393 117.187Z" fill="black"/>
<path d="M145.487 118.935C140.392 91.0149 136.978 86.7274 134.086 77.1187C131.194 67.51 126.634 61.27 120.939 59.0752C117.118 57.595 97.933 50.666 91.2451 52.9629C84.712 55.2836 78.4939 58.4129 72.7355 62.2781C68.266 65.2447 64.8777 69.5835 63.0794 74.6431L52.8883 103.444L70.7992 121.372L79.7928 102.231L89.5508 125.137L88.1113 148.297L144.086 163.38C149.143 155.226 148.379 134.784 145.487 118.935Z" fill="#28A8DF"/>
<g opacity="0.2">
<path opacity="0.2" d="M130.913 88.4374C128.442 102.972 128.047 105.026 125.575 119.509C124.722 124.499 122.251 132.27 118.696 135.881C116.072 138.548 113.499 141.126 109.856 141.994C106.454 142.797 101.308 142.887 98.1103 141.47C94.9129 140.054 92.1995 133.814 93.5116 130.624C98.2632 131.632 99.7282 133.176 103.817 130.624C107.397 128.352 112.454 123.325 114.391 119.56C122.569 103.725 124.811 103.163 130.951 88.4374" fill="black"/>
</g>
<path d="M90.4037 116.638C89.5013 115.415 88.676 114.136 87.9323 112.81L82.1744 103.38C79.9068 99.8197 77.8686 96.5912 76.2635 94.0519C75.3844 92.7999 74.5887 91.4912 73.8813 90.1344C74.1962 90.4055 74.4669 90.7241 74.6839 91.0787C75.168 91.704 75.8431 92.6355 76.6457 93.7967C78.2763 96.1063 80.4674 99.3603 82.7349 103.035C85.0024 106.71 86.9769 110.092 88.34 112.568C89.0279 113.844 89.6139 114.826 89.9196 115.528C90.2253 116.23 90.4546 116.613 90.4037 116.638Z" fill="black"/>
<path d="M129.46 142.708C129.058 142.926 128.63 143.093 128.186 143.206C127.665 143.387 127.133 143.536 126.594 143.652C125.97 143.793 125.256 143.984 124.454 144.099C122.585 144.421 120.694 144.591 118.798 144.609C114.125 144.642 109.489 143.776 105.142 142.057C103.379 141.367 101.675 140.535 100.046 139.569C99.4149 139.209 98.8026 138.817 98.2117 138.395C97.7701 138.095 97.3448 137.771 96.9378 137.425C96.2372 136.851 95.855 136.532 95.8932 136.494C95.9315 136.455 97.5366 137.629 100.339 139.16C101.982 140.052 103.684 140.828 105.435 141.483C107.587 142.263 109.798 142.869 112.046 143.295C114.301 143.697 116.584 143.91 118.874 143.933C120.744 143.946 122.613 143.826 124.467 143.576C127.511 143.193 129.397 142.593 129.46 142.708Z" fill="black"/>
<path d="M107.002 99.2074C106.913 99.7178 100.888 111.713 100.888 111.713L72.5053 96.7319L69.6136 84.4817C69.1392 82.5122 67.9048 80.8113 66.1808 79.7518C64.4569 78.6922 62.3839 78.3603 60.4161 78.8288L52.0467 82.2614C51.7015 82.3965 51.3952 82.6153 51.1551 82.8981C50.915 83.1809 50.7486 83.519 50.6709 83.8819C50.5562 84.5072 50.6709 85.158 51.7792 85.0177C53.8556 84.8645 58.1486 84.3924 58.1486 84.3924L56.1741 91.3724C55.6529 93.2016 55.8536 95.1615 56.7346 96.8467L58.0085 99.2712L60.7983 103.75C60.7983 103.75 88.378 132.13 103.868 133.98C113.181 135.09 123.728 108.944 123.728 108.944L107.002 99.2074Z" fill="#FFBE9D"/>
<path d="M57.9448 84.8646C57.9448 84.8646 58.1614 84.5711 58.6327 84.2521C59.2675 83.8193 60.0177 83.588 60.7856 83.5885C61.1864 83.6138 61.5734 83.7452 61.9069 83.9694C62.2404 84.1937 62.5085 84.5026 62.6837 84.8646C62.9512 85.4388 62.7728 85.8344 62.6837 85.8089C62.5945 85.7834 62.6837 85.4388 62.3779 85.005C62.1908 84.7298 61.9429 84.5016 61.6535 84.3378C61.3641 84.1741 61.041 84.0793 60.7092 84.0607C60.02 84.0604 59.3416 84.2314 58.7346 84.5584C58.2888 84.7498 57.983 84.9156 57.9448 84.8646Z" fill="#EB996E"/>
<path d="M61.5235 89.216C61.5235 89.216 61.3324 88.9863 61.0649 88.6545C60.73 88.2245 60.2917 87.8864 59.791 87.672C59.2718 87.4737 58.7114 87.4079 58.1605 87.4806C57.7273 87.5444 57.4726 87.6465 57.4343 87.5826C57.3961 87.5188 57.6382 87.3402 58.0968 87.1998C58.7045 87.0241 59.3528 87.0509 59.9439 87.2764C60.5346 87.5098 61.0287 87.9372 61.3452 88.4886C61.549 88.9097 61.5745 89.2032 61.5235 89.216Z" fill="#EB996E"/>
<path d="M112.837 61.347L105.194 97.8295L125.576 110.131L133.398 87.7103C133.398 87.7103 130.162 60.4537 112.837 61.347Z" fill="#28A8DF"/>
<path d="M123.869 61.9975C123.713 62.1247 123.542 62.2319 123.36 62.3165L121.806 63.1332C120.455 63.835 118.481 64.7921 115.984 65.9022C109.528 68.8651 102.728 71.0085 95.7419 72.2825C88.7309 73.5434 81.5329 73.3042 74.6208 71.5807C72.5344 71.0364 70.5008 70.3061 68.5444 69.3987C67.8437 69.0924 67.2705 68.7862 66.9775 68.6075C66.6845 68.4289 66.4552 68.3012 66.4679 68.2757C67.2091 68.5303 67.9363 68.8242 68.6463 69.1562C70.6219 69.9689 72.6578 70.626 74.7354 71.1213C81.6104 72.703 88.7331 72.881 95.6782 71.6445C102.6 70.3577 109.352 68.2856 115.806 65.4684C118.353 64.422 120.302 63.5288 121.691 62.9163C122.391 62.5523 123.12 62.245 123.869 61.9975Z" fill="#EBEBEB"/>
<path d="M129.231 66.0171C129.231 66.0171 129.053 66.183 128.671 66.4382C128.289 66.6934 127.652 67.089 126.977 67.5228C126.087 68.1013 125.169 68.6337 124.225 69.1179C123.13 69.7049 121.907 70.394 120.48 71.032L118.251 72.0656C117.474 72.4102 116.633 72.7036 115.779 73.0482C114.085 73.7628 112.212 74.3242 110.238 74.975C101.637 77.5758 92.6467 78.6426 83.6772 78.1269C81.6135 77.961 79.6517 77.8462 77.8428 77.5399C76.9256 77.4123 76.0466 77.323 75.2059 77.1571L72.8109 76.6849C71.2695 76.417 69.9065 76.0086 68.709 75.7024C67.6922 75.4466 66.6888 75.1399 65.7026 74.7836L63.8045 74.1328C63.5796 74.0712 63.365 73.9766 63.1676 73.8521C63.4005 73.8853 63.6305 73.9364 63.8555 74.0052L65.7791 74.5412C66.6071 74.7964 67.639 75.0771 68.8364 75.3451C70.0339 75.6131 71.3842 75.9831 72.9383 76.2256L75.3332 76.6594C76.1613 76.7998 77.0403 76.8763 77.881 77.004C79.6899 77.2719 81.7027 77.3613 83.6772 77.5144C92.5795 77.9508 101.492 76.8941 110.047 74.3881C111.996 73.7628 113.868 73.2141 115.563 72.5377C116.416 72.206 117.244 71.9252 118.021 71.5807L120.251 70.6109C121.69 70.0239 122.926 69.3349 124.072 68.7989C125.219 68.263 126.11 67.7398 126.862 67.2931L128.607 66.3234C128.805 66.2012 129.014 66.0986 129.231 66.0171Z" fill="#EBEBEB"/>
<path d="M125.576 110.131C124.998 109.903 124.444 109.621 123.919 109.288L119.435 106.736L104.149 97.8932L103.958 97.7784V97.5615C104.505 94.8307 105.091 91.9085 105.703 88.8843C106.633 84.3543 107.512 80.0284 108.251 76.1237C108.671 74.1586 109.015 72.2955 109.397 70.5345C109.743 68.8892 110.295 67.2943 111.04 65.7876C112.1 63.5549 113.988 61.8244 116.302 60.9641C116.93 60.7526 117.588 60.6406 118.251 60.6323C118.478 60.6234 118.706 60.6492 118.926 60.7089C117.302 60.7732 115.731 61.3076 114.404 62.2474C113.077 63.1873 112.05 64.4923 111.448 66.0045C110.761 67.4873 110.252 69.0465 109.932 70.6494C109.601 72.4103 109.232 74.2734 108.849 76.2385C108.06 80.1815 107.193 84.5074 106.302 88.9991C105.69 92.0106 105.028 94.9328 104.544 97.6635L104.391 97.319C110.454 100.943 115.728 104.082 119.588 106.366L123.983 109.059C124.541 109.375 125.073 109.733 125.576 110.131Z" fill="black"/>
<path d="M131.819 86.6C131.915 87.7316 131.881 88.8706 131.717 89.9943C131.162 95.4624 129.756 100.81 127.551 105.843C127.146 106.902 126.615 107.908 125.972 108.842C126.267 107.753 126.65 106.69 127.118 105.664C129.048 100.586 130.431 95.3156 131.246 89.9433C131.35 88.8156 131.542 87.6979 131.819 86.6Z" fill="black"/>
<path d="M21.2961 289.519L21.1178 309.004C21.1178 309.004 1.28333 315.308 0.888428 318.906L38.5318 320.68L40.1242 290.335L21.2961 289.519Z" fill="#2B3A8C"/>
<path d="M32.7986 307.919C33.1562 308.047 33.4541 308.303 33.6351 308.637C33.8161 308.972 33.8675 309.361 33.7795 309.731C33.6646 310.093 33.4155 310.396 33.0836 310.579C32.7517 310.762 32.3624 310.81 31.9961 310.714C31.6165 310.582 31.3006 310.312 31.1117 309.957C30.9227 309.602 30.8746 309.189 30.9769 308.8C31.1346 308.435 31.4265 308.146 31.7919 307.991C32.1573 307.837 32.568 307.829 32.9387 307.97" fill="#E0E0E0"/>
<path d="M38.531 320.681V317.618L2.37803 317.044C2.37803 317.044 0.658276 317.695 0.798404 318.881L38.531 320.681Z" fill="#E0E0E0"/>
<path d="M20.468 308.774C20.468 308.966 21.3852 309.093 22.2642 309.731C23.1432 310.369 23.5381 311.161 23.7547 311.097C23.9712 311.033 23.7547 309.948 22.6336 309.195C21.5126 308.443 20.4298 308.608 20.468 308.774Z" fill="black"/>
<path d="M16.4424 310.229C16.4424 310.408 17.1685 310.752 17.7163 311.569C18.264 312.386 18.4424 313.215 18.6335 313.215C18.8246 313.215 18.9774 312.169 18.2258 311.186C17.4742 310.204 16.4551 310.051 16.4424 310.229Z" fill="black"/>
<path d="M13.9699 314.861C14.1355 314.861 14.4285 313.993 13.9699 312.973C13.5113 311.952 12.696 311.492 12.6196 311.696C12.5431 311.901 13.04 312.411 13.3712 313.266C13.7024 314.121 13.7788 314.836 13.9699 314.861Z" fill="black"/>
<path d="M21.0146 304.347C21.0146 304.513 21.9318 304.347 22.9764 304.424C24.0209 304.5 24.8108 304.909 24.9127 304.755C25.0146 304.602 24.263 303.913 23.04 303.786C21.8171 303.658 20.9254 304.194 21.0146 304.347Z" fill="black"/>
<g opacity="0.3">
<path opacity="0.3" d="M21.2574 293.372L21.2064 296.843L39.7415 297.558L39.9198 294.444L21.2574 293.372Z" fill="black"/>
</g>
<path d="M21.1171 300.416C21.726 300.618 22.3792 300.644 23.0024 300.493C23.6881 300.409 24.3602 300.237 25.0024 299.982C25.3868 299.832 25.7612 299.657 26.1235 299.459C26.3404 299.352 26.5384 299.209 26.7094 299.038C26.8382 298.915 26.921 298.752 26.9442 298.576C26.9674 298.399 26.9295 298.22 26.8368 298.068C26.7543 297.934 26.6404 297.822 26.505 297.742C26.3696 297.662 26.2168 297.616 26.0598 297.609C25.8201 297.588 25.5786 297.61 25.3464 297.673C24.9358 297.743 24.5343 297.859 24.1489 298.017C23.4982 298.273 22.8919 298.63 22.3527 299.076C21.4355 299.842 21.0788 300.518 21.168 300.556C21.2572 300.595 21.7031 300.072 22.6203 299.434C23.1612 299.076 23.7428 298.785 24.3527 298.566C24.7101 298.444 25.0764 298.35 25.4483 298.285C25.8559 298.196 26.1999 298.209 26.2891 298.4C26.3782 298.591 26.2891 298.489 26.2891 298.604C26.1605 298.727 26.0145 298.83 25.8559 298.91C25.5255 299.102 25.1853 299.277 24.8368 299.434C24.2366 299.694 23.6141 299.898 22.9769 300.046C22.3489 300.124 21.7273 300.248 21.1171 300.416Z" fill="black"/>
<path d="M21.3592 300.697C21.741 300.171 21.9462 299.536 21.9451 298.885C22.0043 298.188 21.9483 297.485 21.7795 296.805C21.6715 296.403 21.5309 296.011 21.3592 295.631C21.2674 295.379 21.1128 295.153 20.91 294.977C20.7072 294.8 20.4628 294.679 20.1999 294.623C20.032 294.618 19.8659 294.66 19.7214 294.746C19.5769 294.832 19.46 294.958 19.3846 295.108C19.2741 295.325 19.1968 295.557 19.1553 295.797C19.0713 296.217 19.0499 296.647 19.0916 297.073C19.1634 297.785 19.4083 298.469 19.805 299.064C20.4929 300.072 21.2572 300.34 21.27 300.276C21.2827 300.213 20.7095 299.791 20.1999 298.822C19.8967 298.267 19.7184 297.653 19.6776 297.022C19.663 296.658 19.6929 296.294 19.7668 295.938C19.8432 295.529 20.0088 295.21 20.1617 295.261C20.3146 295.312 20.6585 295.593 20.7859 295.912C20.9566 296.248 21.0973 296.598 21.2063 296.959C21.3893 297.58 21.4836 298.225 21.4865 298.873C21.4865 299.983 21.2572 300.659 21.3592 300.697Z" fill="black"/>
<path d="M98.111 148.501C98.111 148.501 39.2446 123.771 21.0152 122.712C9.55023 122.049 0.938744 129.412 2.49289 141.253C3.26996 147.174 19.5375 216.541 19.5375 216.541L44.3529 205.197L32.442 157.23L80.8498 180.773L98.111 148.501Z" fill="black"/>
<path d="M25.0028 145.095C24.8117 145.261 26.7735 147.787 28.8244 151.118C30.8754 154.448 32.2639 157.319 32.4932 157.217C32.7225 157.115 31.6652 154.053 29.5633 150.658C27.4614 147.264 25.1684 144.941 25.0028 145.095Z" fill="#2B3A8C"/>
<path d="M20.1874 147.851C20.06 148.068 23.0282 149.956 26.5569 152.534C30.0855 155.112 32.7352 157.37 32.9263 157.192C33.1174 157.013 30.6333 154.435 27.0919 151.832C23.5505 149.229 20.2893 147.659 20.1874 147.851Z" fill="#2B3A8C"/>
<path d="M144.047 163.38C144.047 163.38 136.633 172.938 129.575 175.554C120.658 178.833 55.1038 209.842 55.1038 209.842C55.1038 209.842 43.2057 298.375 44.1483 294.687L16.696 294.023L19.6769 212.47C20.0464 202.019 28.3903 190.037 37.3713 184.703L98.1103 148.502L144.047 163.38Z" fill="black"/>
<path d="M19.1551 227.387C19.2417 227.024 19.2803 226.651 19.2697 226.277C19.2697 225.448 19.3717 224.389 19.4354 223.062C19.592 219.14 19.9577 215.23 20.5309 211.347C21.322 205.594 23.3425 200.08 26.4545 195.18C28.3848 192.37 30.77 189.903 33.5118 187.881C36.4652 185.708 39.559 183.735 42.773 181.973C55.9832 174.393 67.3973 166.66 75.8177 161.364C80.0215 158.684 83.461 156.541 85.8049 155.086L88.5438 153.402C88.8695 153.224 89.1767 153.015 89.461 152.776C89.1086 152.894 88.7709 153.053 88.4546 153.248C87.805 153.593 86.8495 154.103 85.6393 154.805C83.2062 156.171 79.7412 158.225 75.4482 160.841C66.9259 165.945 55.4609 173.602 42.3271 181.258C39.0598 183.034 35.9186 185.034 32.9258 187.243C30.1179 189.329 27.6805 191.875 25.7156 194.771C22.5734 199.778 20.5685 205.415 19.843 211.284C19.3178 215.201 19.0455 219.148 19.0277 223.1V226.252C19.0382 226.633 19.0808 227.013 19.1551 227.387Z" fill="#2B3A8C"/>
<path d="M119.818 172.721C119.301 171.933 118.739 171.175 118.136 170.45C116.865 168.61 115.983 166.528 115.545 164.334C115.106 162.139 115.121 159.878 115.589 157.689C115.872 156.791 116.093 155.874 116.251 154.946C115.629 155.682 115.192 156.557 114.977 157.498C114.328 159.761 114.232 162.147 114.697 164.455C115.163 166.762 116.176 168.924 117.652 170.756C118.205 171.577 118.948 172.252 119.818 172.721Z" fill="#2B3A8C"/>
<path d="M26.7866 294.023C26.8283 293.873 26.854 293.719 26.863 293.564C26.863 293.219 26.9649 292.773 27.0286 292.288C27.1687 291.012 27.3471 289.314 27.5764 287.183C28.035 282.628 28.6592 276.171 29.449 268.208C29.8312 264.189 30.2388 259.799 30.7229 255.091C31.207 250.382 31.6528 245.342 31.9968 240.046C32.3407 234.75 32.9012 229.187 33.8694 223.457C34.8148 217.583 36.528 211.86 38.9649 206.434C41.4836 201.069 44.8232 196.131 48.8631 191.798C52.6607 187.764 56.8228 184.09 61.2962 180.824C68.9776 175.381 76.9561 170.371 85.1944 165.818C92.1625 161.811 97.7167 158.391 101.411 155.813C103.258 154.537 104.672 153.504 105.602 152.776L106.659 151.934C106.897 151.747 107.012 151.645 107.003 151.628C106.863 151.694 106.731 151.775 106.608 151.87L105.5 152.636C104.532 153.312 103.093 154.308 101.22 155.533C97.4747 158.021 91.895 161.339 84.8886 165.282C76.5884 169.755 68.5537 174.706 60.8249 180.109C56.2993 183.388 52.0899 187.083 48.2516 191.147C44.0995 195.534 40.6606 200.546 38.0605 206.001C35.6128 211.502 33.8996 217.303 32.9649 223.253C31.9968 228.982 31.5127 234.572 31.1178 239.842C30.7229 245.112 30.328 250.191 29.9076 254.899C29.4872 259.608 29.1178 263.997 28.7738 268.004C28.1114 275.98 27.4999 282.449 27.1815 287.005C27.0159 289.2 26.8885 290.935 26.7993 292.173C26.7993 292.722 26.7993 293.168 26.7101 293.525C26.7087 293.694 26.7345 293.862 26.7866 294.023Z" fill="#2B3A8C"/>
<path d="M91.4231 8.04579C90.5006 5.66009 88.7575 3.68304 86.5082 2.47106C84.2589 1.25908 81.6513 0.891936 79.1556 1.43581C78.055 1.83165 76.9071 2.0805 75.7416 2.17593C74.329 1.92727 72.9399 1.56018 71.5887 1.07852C70.061 0.82676 68.4945 1.15386 67.1945 1.99605C65.8945 2.83825 64.9542 4.13518 64.5568 5.63404C63.3602 5.34278 62.1146 5.31633 60.9068 5.55655C59.699 5.79676 58.5579 6.29786 57.5632 7.02494C56.5914 7.7844 55.9015 8.84802 55.6037 10.0461C55.3058 11.2442 55.4171 12.5076 55.9199 13.6349C56.4167 14.5664 57.1937 15.3066 57.6906 16.2636C58.4422 17.8332 58.0982 19.7217 58.6205 21.3678C59.1114 22.5655 59.928 23.6012 60.9775 24.3569C62.0269 25.1126 63.2671 25.5581 64.5568 25.6426C67.1513 25.7718 69.7464 25.3992 72.2002 24.5452" fill="black"/>
<path d="M79.6141 58.5268C79.2829 56.064 79.079 54.3286 79.079 54.3286C79.079 54.3286 70.8625 54.3286 67.614 44.1201C65.9707 39.0159 64.8752 30.4918 64.2128 23.4607C64.0643 21.9657 64.2182 20.456 64.6654 19.0218C65.1125 17.5877 65.8437 16.2586 66.8152 15.1139C67.7867 13.9692 68.9786 13.0325 70.3197 12.3596C71.6607 11.6868 73.1235 11.2916 74.6204 11.1978L96.4294 10.0493L96.9007 13.4437L102.646 55.4387C102.856 56.9611 102.762 58.5099 102.372 59.996C101.981 61.4822 101.301 62.8762 100.37 64.0979C99.4397 65.3195 98.2769 66.3447 96.949 67.1143C95.6212 67.8839 94.1544 68.3828 92.6332 68.5821C89.5759 68.9765 86.4873 68.1389 84.0462 66.2534C81.605 64.368 80.0109 61.5889 79.6141 58.5268Z" fill="#FFBE9D"/>
<path d="M67.2326 29.4452C67.2863 29.7941 67.4728 30.1087 67.7531 30.3229C68.0334 30.537 68.3856 30.634 68.7358 30.5936C68.9102 30.5844 69.0809 30.5394 69.2372 30.4613C69.3936 30.3832 69.5322 30.2737 69.6445 30.1397C69.7568 30.0056 69.8404 29.8499 69.8901 29.6821C69.9397 29.5143 69.9544 29.3381 69.9332 29.1644C69.8795 28.8155 69.693 28.5009 69.4127 28.2867C69.1324 28.0726 68.7802 27.9756 68.43 28.016C68.2556 28.0252 68.0849 28.0702 67.9285 28.1483C67.7722 28.2264 67.6336 28.3359 67.5213 28.4699C67.409 28.604 67.3254 28.7597 67.2757 28.9275C67.226 29.0953 67.2114 29.2715 67.2326 29.4452Z" fill="black"/>
<path d="M66.6964 27.5566C66.8875 27.7097 67.7792 26.791 69.2442 26.574C70.7091 26.3571 71.7919 26.8931 71.983 26.6889C72.1741 26.4847 71.8302 26.3188 71.3206 26.0509C70.6264 25.7227 69.8495 25.6115 69.0913 25.7318C68.3441 25.8527 67.6535 26.2053 67.1168 26.7399C66.6964 27.1866 66.5945 27.4928 66.6964 27.5566Z" fill="black"/>
<path d="M80.9135 27.1866C80.9671 27.5381 81.1555 27.8547 81.4386 28.0692C81.7217 28.2836 82.0772 28.379 82.4294 28.3351C82.6027 28.3242 82.772 28.2779 82.9269 28.1991C83.0817 28.1203 83.2188 28.0106 83.3298 27.8767C83.4407 27.7428 83.5232 27.5877 83.5721 27.4207C83.621 27.2538 83.6353 27.0786 83.6141 26.9059C83.5604 26.5569 83.3739 26.2423 83.0936 26.0282C82.8133 25.8141 82.4611 25.717 82.1109 25.7574C81.9365 25.7666 81.7658 25.8117 81.6094 25.8898C81.4531 25.9679 81.3145 26.0773 81.2022 26.2114C81.0899 26.3454 81.0063 26.5012 80.9566 26.6689C80.907 26.8367 80.8923 27.0129 80.9135 27.1866Z" fill="black"/>
<path d="M80.8879 25.579C81.079 25.7193 81.9835 24.8133 83.4357 24.5836C84.8879 24.354 85.9835 24.9154 86.1746 24.7113C86.3657 24.5071 86.009 24.3284 85.4994 24.0732C84.8089 23.7329 84.0282 23.6212 83.2701 23.7542C82.5209 23.8691 81.8286 24.2226 81.2956 24.7623C80.9007 25.1706 80.7988 25.5152 80.8879 25.579Z" fill="black"/>
<path d="M77.359 37.1017C76.5596 37.0011 75.7508 37.0011 74.9514 37.1017C74.582 37.1017 74.2253 37.1017 74.1234 36.8593C74.0128 36.4932 74.0128 36.1025 74.1234 35.7363L74.773 32.7504C75.4084 30.238 75.8345 27.677 76.0469 25.094C75.2141 27.5921 74.5794 30.1522 74.1488 32.7504C73.945 33.7967 73.7539 34.7921 73.5628 35.7363C73.3851 36.2137 73.3851 36.7392 73.5628 37.2166C73.6372 37.3363 73.7378 37.4376 73.857 37.5128C73.9761 37.5879 74.1108 37.635 74.2507 37.6504C74.4618 37.683 74.6766 37.683 74.8877 37.6504C75.733 37.584 76.5649 37.3993 77.359 37.1017Z" fill="black"/>
<path d="M79.0792 54.3285C84.0026 53.6207 88.6331 51.5577 92.4551 48.3693C92.4551 48.3693 90.2003 56.0895 79.6015 56.7658L79.0792 54.3285Z" fill="#EB996E"/>
<path d="M81.7541 37.3953C81.5248 37.3953 81.7541 38.9904 80.6076 40.3175C79.4611 41.6446 77.7541 41.7339 77.7796 41.9508C77.8051 42.1677 78.2 42.1933 78.9006 42.1039C79.8148 41.9684 80.653 41.517 81.27 40.8279C81.8643 40.1643 82.1753 39.2939 82.1363 38.4034C82.0981 37.7526 81.856 37.3953 81.7541 37.3953Z" fill="black"/>
<path d="M79.6134 19.9771C79.83 20.3472 81.2312 19.9771 82.951 19.875C84.6707 19.7729 86.1102 20.0537 86.2886 19.6581C86.2886 19.4794 86.0593 19.1477 85.4478 18.8542C84.6477 18.4984 83.7738 18.3408 82.9 18.3948C82.007 18.4215 81.1334 18.6622 80.3523 19.0966C79.7918 19.4539 79.5242 19.8112 79.6134 19.9771Z" fill="black"/>
<path d="M66.5564 23.3586C66.8621 23.6521 67.8303 23.1544 68.9895 22.9503C70.1488 22.7461 71.2316 22.8227 71.4099 22.4398C71.4863 22.2612 71.2698 21.9549 70.7857 21.7125C70.1324 21.4376 69.4125 21.3624 68.7166 21.4964C68.0207 21.6304 67.3799 21.9675 66.8749 22.4654C66.5054 22.7971 66.429 23.1544 66.5564 23.3586Z" fill="black"/>
<path d="M63.0668 18.8414C63.0668 18.8414 68.8375 20.781 75.4618 16.3531C79.8185 13.4436 85.0796 11.6189 86.3917 12.3973C87.7038 13.1757 88.5701 17.9481 93.3472 18.7776C93.3472 18.7776 94.1879 27.9652 97.7803 27.174C100.328 26.6126 98.8504 16.4807 97.7803 10.7001C97.5725 9.57618 96.9886 8.5567 96.1249 7.80977C95.2611 7.06283 94.169 6.63302 93.0287 6.59121L86.3026 6.336L77.9204 8.67118L68.9267 11.134L62.0859 13.9796L63.0668 18.8414Z" fill="black"/>
<path d="M96.9772 23.4477C97.1173 23.3456 102.671 20.4107 103.703 26.4975C104.735 32.5843 98.4294 32.3673 98.3912 32.1887C98.353 32.01 96.9772 23.4477 96.9772 23.4477Z" fill="#FFBE9D"/>
<path d="M99.8556 29.573C99.8556 29.573 99.9703 29.5729 100.161 29.675C100.294 29.7101 100.432 29.718 100.568 29.6983C100.704 29.6785 100.834 29.6316 100.951 29.5602C101.302 29.2463 101.562 28.8441 101.706 28.3954C101.849 27.9466 101.87 27.4676 101.766 27.0081C101.697 26.4836 101.51 25.9818 101.219 25.5406C101.128 25.3588 100.995 25.2014 100.831 25.0816C100.667 24.9617 100.477 24.8828 100.276 24.8515C100.148 24.8438 100.022 24.8801 99.9175 24.9544C99.8132 25.0287 99.7374 25.1365 99.7027 25.2599C99.7027 25.4385 99.7027 25.5534 99.7027 25.5661C99.7027 25.5789 99.5626 25.4896 99.5626 25.2344C99.5735 25.078 99.6362 24.9297 99.741 24.8133C99.8121 24.7347 99.8985 24.6715 99.9949 24.6277C100.091 24.5838 100.196 24.5601 100.301 24.558C100.561 24.5604 100.816 24.6312 101.039 24.7633C101.263 24.8955 101.448 25.0844 101.575 25.3109C101.93 25.7909 102.158 26.3527 102.238 26.9443C102.358 27.4809 102.317 28.0412 102.12 28.5545C101.923 29.0679 101.578 29.5111 101.129 29.8282C100.974 29.9019 100.805 29.9402 100.633 29.9402C100.461 29.9402 100.291 29.9019 100.136 29.8282C99.8811 29.7388 99.8301 29.5857 99.8556 29.573Z" fill="#EB996E"/>
<path d="M65.9838 3.41372C65.9838 3.41372 66.1876 3.73274 66.6207 4.2304C67.2499 4.91359 68.0439 5.4233 68.9264 5.71062C70.2321 6.13209 71.627 6.1938 72.9647 5.88927C74.6359 5.48797 76.2752 4.96336 77.8691 4.31972C79.527 3.66602 81.2981 3.34936 83.0793 3.3882C84.5793 3.43912 85.9985 4.08115 87.0284 5.17468C87.759 5.88159 88.2112 6.82826 88.3023 7.84163C88.3527 8.20464 88.2904 8.57441 88.1239 8.90076C88.1239 8.90076 88.1239 8.51795 88.0475 7.86716C87.8877 6.96339 87.4409 6.13543 86.7736 5.50646C85.7873 4.56196 84.4819 4.02434 83.1176 4.00071C81.42 4.00061 79.738 4.32545 78.1621 4.95775C76.5361 5.59912 74.8621 6.11113 73.1558 6.48902C71.7129 6.78941 70.2144 6.66986 68.8373 6.14448C67.9007 5.80002 67.0857 5.18771 66.4933 4.38352C66.2321 4.11735 66.0549 3.78008 65.9838 3.41372Z" fill="#2B3A8C"/>
<path d="M86.5051 9.24522C86.5051 9.24522 86.1993 8.91344 85.5624 8.47958C84.6529 7.88613 83.5905 7.57127 82.5051 7.57358C80.8901 7.56754 79.2981 7.95744 77.8681 8.70927C76.0809 9.67617 74.2343 10.5286 72.3394 11.2614C70.5404 11.8162 68.647 11.9959 66.776 11.7896C64.9049 11.5833 63.0959 10.9953 61.4604 10.0619C60.4743 9.51978 59.5694 8.84104 58.7725 8.04572C58.467 7.76604 58.2089 7.43851 58.0082 7.07591C59.147 8.06061 60.3753 8.93641 61.677 9.69184C64.9019 11.3744 68.6571 11.7226 72.1356 10.6616C74.0059 9.91008 75.8345 9.05814 77.6133 8.10953C79.136 7.34486 80.8291 6.98457 82.5305 7.06316C83.6891 7.10866 84.8036 7.51953 85.7153 8.23713C86.0702 8.48973 86.3445 8.83986 86.5051 9.24522Z" fill="#2B3A8C"/>
<path d="M67.6399 112.938L38.0602 87.6719L28.3022 89.8795C28.3022 89.8795 38.5825 111.292 46.022 119.14C46.022 119.14 53.3724 129.003 65.4998 124.741C77.6272 120.479 67.6399 112.938 67.6399 112.938Z" fill="#FFBE9D"/>
<path d="M35.8301 59.8666H23.2568C22.7829 59.8905 22.3203 60.0202 21.9028 60.2463C21.4854 60.4723 21.1236 60.7889 20.844 61.1729C20.5644 61.557 20.374 61.9988 20.2867 62.466C20.1995 62.9332 20.2175 63.4141 20.3396 63.8734L32.9766 88.5524C33.2187 89.0203 33.5842 89.4128 34.0334 89.6873C34.4826 89.9618 34.9982 90.1077 35.5244 90.1092H50.811C51.1701 90.0712 51.514 89.9444 51.812 89.7402C52.11 89.536 52.3526 89.2608 52.5181 88.9394C52.6836 88.618 52.7667 88.2604 52.76 87.8989C52.7534 87.5373 52.6571 87.183 52.4798 86.868L40.2887 62.7122C39.8846 61.8684 39.2529 61.1547 38.465 60.6518C37.677 60.1489 36.7643 59.8769 35.8301 59.8666Z" fill="#2B3A8C"/>
<path d="M34.9771 61.3467H22.3911C22.0298 61.3469 21.6746 61.4398 21.3593 61.6165C21.0441 61.7933 20.7793 62.048 20.5903 62.3564C20.4012 62.6648 20.2942 63.0166 20.2794 63.3782C20.2646 63.7398 20.3425 64.0991 20.5057 64.422L32.8497 88.5522C33.0918 89.0202 33.4573 89.4127 33.9065 89.6871C34.3557 89.9616 34.8713 90.1075 35.3975 90.109H50.5568C50.7671 90.1044 50.973 90.0477 51.156 89.9439C51.3391 89.8401 51.4937 89.6926 51.606 89.5144C51.7183 89.3362 51.7848 89.1329 51.7995 88.9227C51.8143 88.7125 51.7768 88.5019 51.6905 88.3098L39.4739 64.1923C39.0658 63.3436 38.4278 62.6269 37.6328 62.1237C36.8377 61.6206 35.9175 61.3514 34.9771 61.3467Z" fill="black"/>
<path d="M33.8555 71.4532L26.2122 74.5157L24.5688 80.6918L28.2504 89.8795L41.7791 91.8573L37.8173 87.7995L38.3269 84.2776C38.3269 84.2776 42.1485 83.0908 42.1485 82.5039C42.1485 81.9169 41.6772 79.9517 41.1039 79.9517C39.5579 80.2889 38.0413 80.7497 36.5689 81.3299C36.5689 81.3299 41.2568 77.6165 41.1167 77.0168C40.9765 76.4171 40.4925 74.8985 39.5498 74.7326C38.6071 74.5668 31.0657 78.127 31.0657 78.127L29.7918 80.9343L28.7217 76.4553C28.7217 76.4553 35.5625 74.5157 33.8555 71.4532Z" fill="#FFBE9D"/>
<path d="M34.8743 85.8854C34.8743 85.8854 34.6833 85.6174 34.6068 85.1197C34.5232 84.4696 34.5951 83.8089 34.8166 83.1921C35.0381 82.5753 35.4028 82.0201 35.8807 81.5723C36.2629 81.2405 36.5559 81.1129 36.5813 81.1512C36.012 81.8052 35.5361 82.5353 35.1673 83.3205C34.9402 84.1556 34.8414 85.0205 34.8743 85.8854Z" fill="#EB996E"/>
<path d="M31.2319 84.6094C31.3782 83.9492 31.4804 83.2799 31.5377 82.606C31.5759 81.849 31.7042 81.0994 31.9198 80.3729C32.0737 79.9324 32.3165 79.5284 32.6332 79.1862C32.9938 78.8337 33.4293 78.5676 33.9071 78.4078C35.7288 77.7315 37.3848 77.1955 38.5823 76.8127C39.226 76.5675 39.8913 76.3838 40.5695 76.264C39.9673 76.5899 39.3362 76.859 38.6842 77.0679C37.4995 77.5273 35.8434 78.1143 34.0472 78.7651C33.6324 78.9195 33.2516 79.1536 32.9262 79.4541C32.6462 79.7568 32.4297 80.1126 32.2893 80.5005C32.0621 81.192 31.9125 81.9068 31.8434 82.6315C31.812 83.3324 31.6015 84.0134 31.2319 84.6094Z" fill="#EB996E"/>
<path d="M29.4742 83.2058C29.3538 82.7111 29.3538 82.1947 29.4742 81.7C29.6144 80.8833 29.8055 80.2325 29.9201 80.2581C30.0405 80.7527 30.0405 81.2692 29.9201 81.7638C29.78 82.5805 29.5889 83.2313 29.4742 83.2058Z" fill="#EB996E"/>
<path d="M29.2704 66.0045C29.2704 66.3225 29.3645 66.6333 29.5409 66.8978C29.7173 67.1622 29.9679 67.3682 30.2612 67.4899C30.5545 67.6116 30.8773 67.6435 31.1886 67.5814C31.5 67.5194 31.786 67.3663 32.0105 67.1414C32.2349 66.9165 32.3878 66.63 32.4497 66.3182C32.5117 66.0063 32.4799 65.683 32.3584 65.3892C32.2369 65.0954 32.0312 64.8443 31.7672 64.6676C31.5033 64.4909 31.1929 64.3967 30.8755 64.3967C30.4498 64.3967 30.0415 64.5661 29.7405 64.8676C29.4395 65.1691 29.2704 65.5781 29.2704 66.0045Z" fill="#FAFAFA"/>
</svg>
