<svg width="901" height="471" viewBox="0 0 901 471" fill="none" xmlns="http://www.w3.org/2000/svg">
<g style="mix-blend-mode:luminosity" opacity="0.4">
<g opacity="0.41">
<path opacity="0.41" d="M327.54 49.9117C321.906 40.9248 310.58 38.3208 302.192 44.1508C293.804 49.9809 285.842 65.8693 291.477 74.8563C297.111 83.8433 310.487 75.2826 320.523 74.5683C334.568 73.5198 333.174 58.8872 327.54 49.9117Z" fill="white"/>
</g>
<path d="M487.565 144.39C487.693 145.683 487.435 146.984 486.824 148.129C486.212 149.275 485.275 150.214 484.13 150.827C482.985 151.44 481.685 151.7 480.392 151.574C479.1 151.448 477.874 150.941 476.869 150.118C475.864 149.296 475.126 148.194 474.747 146.951C474.369 145.709 474.367 144.382 474.743 143.139C475.118 141.896 475.853 140.792 476.856 139.967C477.859 139.141 479.083 138.632 480.376 138.503C481.234 138.417 482.102 138.501 482.928 138.75C483.754 139 484.523 139.409 485.191 139.956C485.858 140.503 486.412 141.176 486.819 141.937C487.227 142.698 487.48 143.531 487.565 144.39Z" fill="white"/>
<path d="M332.356 230.135C332.83 230.135 333.293 229.994 333.687 229.731C334.081 229.468 334.388 229.093 334.57 228.656C334.751 228.218 334.799 227.736 334.706 227.271C334.614 226.806 334.385 226.379 334.05 226.044C333.715 225.709 333.288 225.48 332.823 225.388C332.358 225.295 331.876 225.343 331.439 225.524C331.001 225.706 330.626 226.013 330.363 226.407C330.1 226.801 329.959 227.264 329.959 227.738C329.959 228.374 330.212 228.984 330.661 229.433C331.111 229.882 331.72 230.135 332.356 230.135ZM332.356 226.494C332.602 226.494 332.842 226.567 333.047 226.704C333.252 226.841 333.411 227.035 333.505 227.262C333.599 227.49 333.624 227.74 333.576 227.981C333.528 228.223 333.41 228.444 333.236 228.618C333.062 228.792 332.84 228.911 332.598 228.959C332.357 229.007 332.107 228.982 331.879 228.888C331.652 228.794 331.458 228.634 331.321 228.43C331.184 228.225 331.111 227.985 331.111 227.738C331.111 227.408 331.242 227.092 331.476 226.859C331.709 226.625 332.026 226.494 332.356 226.494Z" fill="#F0F0F1"/>
<path d="M368.649 207.794C369.587 207.79 370.498 207.476 371.239 206.9C371.979 206.324 372.509 205.52 372.745 204.612C372.981 203.703 372.909 202.743 372.542 201.879C372.175 201.016 371.533 200.298 370.715 199.838C369.898 199.378 368.951 199.201 368.022 199.335C367.094 199.469 366.235 199.907 365.581 200.579C364.927 201.252 364.514 202.122 364.406 203.054C364.299 203.986 364.502 204.928 364.985 205.732C365.367 206.362 365.905 206.882 366.547 207.243C367.189 207.605 367.913 207.794 368.649 207.794ZM368.649 200.432C369.399 200.432 370.123 200.705 370.688 201.199C371.252 201.692 371.619 202.374 371.719 203.117C371.819 203.86 371.646 204.615 371.233 205.24C370.819 205.866 370.193 206.32 369.47 206.519C368.747 206.719 367.976 206.649 367.301 206.323C366.625 205.997 366.091 205.438 365.797 204.748C365.502 204.058 365.468 203.285 365.7 202.572C365.932 201.859 366.415 201.254 367.059 200.87C367.532 200.585 368.074 200.434 368.626 200.432H368.649Z" fill="white"/>
<path d="M552.329 252.314C553.212 252.317 554.075 252.057 554.81 251.568C555.545 251.079 556.119 250.382 556.458 249.567C556.797 248.752 556.886 247.854 556.714 246.988C556.543 246.122 556.118 245.327 555.493 244.703C554.869 244.078 554.073 243.653 553.207 243.482C552.341 243.31 551.444 243.399 550.629 243.738C549.814 244.077 549.117 244.65 548.628 245.385C548.139 246.121 547.879 246.984 547.882 247.867C547.885 249.046 548.354 250.175 549.187 251.008C550.021 251.842 551.15 252.311 552.329 252.314ZM552.329 245.712C552.756 245.71 553.173 245.835 553.529 246.07C553.885 246.305 554.163 246.641 554.328 247.035C554.493 247.428 554.537 247.862 554.455 248.28C554.373 248.699 554.169 249.084 553.868 249.386C553.567 249.689 553.183 249.895 552.765 249.979C552.347 250.063 551.913 250.021 551.519 249.859C551.124 249.696 550.787 249.42 550.55 249.065C550.313 248.711 550.186 248.294 550.186 247.867C550.186 247.298 550.411 246.751 550.813 246.348C551.214 245.944 551.759 245.716 552.329 245.712Z" fill="#F0F0F1"/>
<path d="M334.833 118.443C337.847 125.546 342.634 131.757 348.737 136.479C354.839 141.202 362.052 144.278 369.684 145.414C377.316 146.549 385.112 145.706 392.325 142.965C399.537 140.223 405.925 135.676 410.877 129.758L427.007 132.235L418.435 116.726C421.017 109.841 421.873 102.428 420.929 95.1353C419.985 87.8425 417.269 80.892 413.018 74.8912C408.768 68.8904 403.112 64.022 396.546 60.7113C389.98 57.4007 382.703 55.7486 375.351 55.8995C367.998 56.0504 360.795 57.9997 354.37 61.577C347.946 65.1543 342.495 70.2508 338.494 76.4209C334.493 82.5911 332.065 89.6472 331.421 96.9725C330.777 104.298 331.936 111.67 334.799 118.443H334.833Z" fill="#E0E0E0"/>
<path d="M354.582 85.5718H397.419C397.725 85.5718 398.018 85.4504 398.234 85.2343C398.45 85.0182 398.572 84.7252 398.572 84.4196C398.572 84.114 398.45 83.821 398.234 83.6049C398.018 83.3888 397.725 83.2674 397.419 83.2674H354.582C354.276 83.2674 353.983 83.3888 353.767 83.6049C353.551 83.821 353.429 84.114 353.429 84.4196C353.429 84.7252 353.551 85.0182 353.767 85.2343C353.983 85.4504 354.276 85.5718 354.582 85.5718Z" fill="#F0F0F1"/>
<path d="M354.582 99.9624H397.419C397.725 99.9624 398.018 99.841 398.234 99.625C398.45 99.4089 398.572 99.1158 398.572 98.8103C398.572 98.5047 398.45 98.2116 398.234 97.9956C398.018 97.7795 397.725 97.6581 397.419 97.6581H354.582C354.276 97.6581 353.983 97.7795 353.767 97.9956C353.551 98.2116 353.429 98.5047 353.429 98.8103C353.429 99.1158 353.551 99.4089 353.767 99.625C353.983 99.841 354.276 99.9624 354.582 99.9624Z" fill="#F0F0F1"/>
<path d="M354.582 115.563H397.419C397.725 115.563 398.018 115.441 398.234 115.225C398.45 115.009 398.572 114.716 398.572 114.41C398.572 114.105 398.45 113.812 398.234 113.596C398.018 113.38 397.725 113.258 397.419 113.258H354.582C354.276 113.258 353.983 113.38 353.767 113.596C353.551 113.812 353.429 114.105 353.429 114.41C353.429 114.716 353.551 115.009 353.767 115.225C353.983 115.441 354.276 115.563 354.582 115.563Z" fill="#F0F0F1"/>
<path d="M326.491 126.647H355.192C362.453 126.647 368.338 132.532 368.338 139.793V139.908C368.338 147.169 362.453 153.055 355.192 153.055H326.491C319.231 153.055 313.345 147.169 313.345 139.908V139.793C313.345 132.532 319.231 126.647 326.491 126.647Z" fill="#E0E0E0"/>
<path d="M355.491 143.791C356.139 143.793 356.773 143.603 357.313 143.245C357.852 142.887 358.273 142.377 358.523 141.779C358.772 141.181 358.839 140.523 358.714 139.888C358.589 139.252 358.278 138.668 357.821 138.209C357.364 137.75 356.781 137.438 356.146 137.31C355.511 137.183 354.852 137.247 354.253 137.495C353.655 137.742 353.143 138.161 352.783 138.7C352.423 139.238 352.231 139.871 352.231 140.519C352.231 141.385 352.574 142.215 353.185 142.829C353.796 143.442 354.626 143.788 355.491 143.791ZM355.491 138.399C355.911 138.397 356.322 138.519 356.672 138.75C357.023 138.982 357.296 139.312 357.458 139.699C357.621 140.087 357.664 140.513 357.584 140.925C357.503 141.337 357.302 141.716 357.006 142.014C356.71 142.311 356.332 142.514 355.921 142.597C355.509 142.68 355.082 142.639 354.694 142.478C354.306 142.318 353.975 142.047 353.741 141.698C353.508 141.349 353.383 140.939 353.383 140.519C353.383 139.959 353.605 139.421 354 139.024C354.395 138.627 354.931 138.402 355.491 138.399Z" fill="white"/>
<path d="M340.836 143.791C341.484 143.793 342.117 143.603 342.657 143.245C343.197 142.887 343.618 142.377 343.867 141.779C344.117 141.181 344.183 140.523 344.058 139.888C343.933 139.252 343.622 138.668 343.165 138.209C342.708 137.75 342.125 137.438 341.49 137.31C340.855 137.183 340.197 137.247 339.598 137.495C338.999 137.742 338.488 138.161 338.128 138.7C337.767 139.238 337.575 139.871 337.575 140.519C337.575 141.385 337.918 142.215 338.53 142.829C339.141 143.442 339.97 143.788 340.836 143.791ZM340.836 138.399C341.256 138.397 341.667 138.519 342.017 138.75C342.367 138.982 342.641 139.312 342.803 139.699C342.965 140.087 343.009 140.513 342.928 140.925C342.848 141.337 342.647 141.716 342.351 142.014C342.055 142.311 341.677 142.514 341.265 142.597C340.854 142.68 340.427 142.639 340.039 142.478C339.651 142.318 339.319 142.047 339.086 141.698C338.852 141.349 338.727 140.939 338.727 140.519C338.727 139.959 338.949 139.421 339.344 139.024C339.739 138.627 340.276 138.402 340.836 138.399Z" fill="white"/>
<path d="M326.238 143.791C326.885 143.791 327.517 143.599 328.056 143.24C328.594 142.88 329.013 142.369 329.261 141.771C329.508 141.173 329.573 140.515 329.447 139.88C329.321 139.246 329.009 138.663 328.551 138.205C328.094 137.747 327.511 137.436 326.876 137.31C326.241 137.183 325.583 137.248 324.985 137.496C324.387 137.743 323.876 138.163 323.517 138.701C323.157 139.239 322.965 139.872 322.965 140.519C322.965 141.387 323.31 142.219 323.924 142.833C324.537 143.446 325.37 143.791 326.238 143.791ZM326.238 138.399C326.657 138.399 327.067 138.523 327.415 138.756C327.764 138.989 328.036 139.32 328.196 139.708C328.357 140.095 328.399 140.521 328.317 140.932C328.235 141.344 328.033 141.721 327.737 142.018C327.44 142.314 327.062 142.516 326.651 142.598C326.24 142.68 325.814 142.638 325.426 142.477C325.039 142.317 324.708 142.045 324.475 141.697C324.242 141.348 324.118 140.938 324.118 140.519C324.121 139.957 324.345 139.42 324.742 139.023C325.139 138.626 325.676 138.402 326.238 138.399Z" fill="white"/>
<path d="M17.8236 146.199H150.335C151.36 146.199 152.19 147.03 152.19 148.054V188.092C152.19 189.117 151.36 189.947 150.335 189.947H17.8236C16.7991 189.947 15.9685 189.117 15.9685 188.092V148.054C15.9685 147.03 16.7991 146.199 17.8236 146.199Z" fill="#E0E0E0"/>
<path d="M122.287 174.245C118.418 170.375 118.418 164.101 122.287 160.232C126.157 156.362 132.431 156.362 136.3 160.232C140.17 164.101 140.17 170.375 136.3 174.245C132.431 178.114 126.157 178.114 122.287 174.245Z" fill="white"/>
<path d="M124.812 172.135C124.655 172.131 124.501 172.095 124.358 172.03C124.215 171.965 124.088 171.871 123.982 171.754L119.604 166.8C119.496 166.688 119.413 166.555 119.358 166.409C119.302 166.264 119.277 166.109 119.284 165.953C119.29 165.798 119.328 165.646 119.395 165.505C119.462 165.365 119.557 165.24 119.674 165.137C119.791 165.034 119.927 164.956 120.075 164.907C120.223 164.859 120.379 164.841 120.534 164.854C120.689 164.867 120.839 164.912 120.977 164.985C121.114 165.058 121.235 165.158 121.332 165.279L124.893 169.3L133.695 160.44C133.802 160.332 133.93 160.246 134.07 160.188C134.211 160.129 134.361 160.099 134.513 160.099C134.665 160.099 134.816 160.129 134.956 160.188C135.097 160.246 135.224 160.332 135.331 160.44C135.546 160.656 135.666 160.948 135.666 161.252C135.666 161.557 135.546 161.849 135.331 162.064L125.665 171.8C125.553 171.911 125.42 171.998 125.273 172.056C125.126 172.113 124.969 172.14 124.812 172.135Z" fill="#BDBDBD"/>
<path d="M34.8641 161.419H104.571C104.723 161.419 104.87 161.359 104.978 161.25C105.086 161.142 105.147 160.996 105.147 160.843C105.147 160.69 105.086 160.544 104.978 160.436C104.87 160.328 104.723 160.267 104.571 160.267H34.8641C34.7122 160.27 34.5674 160.332 34.46 160.439C34.3526 160.546 34.2909 160.691 34.288 160.843C34.288 160.996 34.3486 161.142 34.4567 161.25C34.5647 161.359 34.7113 161.419 34.8641 161.419Z" fill="white"/>
<path d="M73.4275 169.692H104.536C104.689 169.692 104.836 169.631 104.944 169.523C105.052 169.415 105.112 169.269 105.112 169.116C105.112 168.963 105.052 168.817 104.944 168.709C104.836 168.601 104.689 168.54 104.536 168.54H73.4275C73.2747 168.54 73.1282 168.601 73.0202 168.709C72.9121 168.817 72.8514 168.963 72.8514 169.116C72.8514 169.269 72.9121 169.415 73.0202 169.523C73.1282 169.631 73.2747 169.692 73.4275 169.692Z" fill="white"/>
<path d="M73.4275 179.094H104.536C104.689 179.094 104.836 179.033 104.944 178.925C105.052 178.817 105.112 178.67 105.112 178.518C105.112 178.365 105.052 178.218 104.944 178.11C104.836 178.002 104.689 177.942 104.536 177.942H73.4275C73.2747 177.942 73.1282 178.002 73.0202 178.11C72.9121 178.218 72.8514 178.365 72.8514 178.518C72.8514 178.67 72.9121 178.817 73.0202 178.925C73.1282 179.033 73.2747 179.094 73.4275 179.094Z" fill="white"/>
<path d="M34.8643 169.692H65.973C66.1258 169.692 66.2723 169.631 66.3804 169.523C66.4884 169.415 66.5491 169.269 66.5491 169.116C66.5491 168.963 66.4884 168.817 66.3804 168.709C66.2723 168.601 66.1258 168.54 65.973 168.54H34.8643C34.7115 168.54 34.5649 168.601 34.4569 168.709C34.3488 168.817 34.2882 168.963 34.2882 169.116C34.2882 169.269 34.3488 169.415 34.4569 169.523C34.5649 169.631 34.7115 169.692 34.8643 169.692Z" fill="white"/>
<path d="M53.1263 184.67H185.638C186.662 184.67 187.493 185.501 187.493 186.525V226.563C187.493 227.588 186.662 228.418 185.638 228.418H53.1263C52.1018 228.418 51.2713 227.588 51.2713 226.563V186.525C51.2713 185.501 52.1018 184.67 53.1263 184.67Z" fill="white"/>
<path d="M164.588 215.629C159.115 215.629 154.679 211.193 154.679 205.72C154.679 200.248 159.115 195.812 164.588 195.812C170.06 195.812 174.497 200.248 174.497 205.72C174.497 211.193 170.06 215.629 164.588 215.629Z" fill="#E0E0E0"/>
<path opacity="0.69" d="M70.1672 199.902H139.851C140.003 199.902 140.15 199.841 140.258 199.733C140.366 199.625 140.427 199.479 140.427 199.326C140.427 199.173 140.366 199.027 140.258 198.919C140.15 198.811 140.003 198.75 139.851 198.75H70.1441C69.9913 198.75 69.8448 198.811 69.7367 198.919C69.6287 199.027 69.568 199.173 69.568 199.326C69.568 199.479 69.6287 199.625 69.7367 199.733C69.8448 199.841 69.9913 199.902 70.1441 199.902H70.1672Z" fill="#BDBDBD"/>
<path opacity="0.69" d="M108.742 208.152H139.851C140.003 208.149 140.147 208.087 140.255 207.98C140.362 207.872 140.424 207.727 140.427 207.575C140.427 207.423 140.366 207.276 140.258 207.168C140.15 207.06 140.003 206.999 139.851 206.999H108.742C108.589 206.999 108.443 207.06 108.335 207.168C108.227 207.276 108.166 207.423 108.166 207.575C108.166 207.728 108.227 207.875 108.335 207.983C108.443 208.091 108.589 208.152 108.742 208.152Z" fill="#BDBDBD"/>
<path opacity="0.69" d="M108.742 217.576H139.851C140.003 217.576 140.15 217.516 140.258 217.408C140.366 217.299 140.427 217.153 140.427 217C140.427 216.847 140.366 216.701 140.258 216.593C140.15 216.485 140.003 216.424 139.851 216.424H108.742C108.589 216.424 108.443 216.485 108.335 216.593C108.227 216.701 108.166 216.847 108.166 217C108.166 217.153 108.227 217.299 108.335 217.408C108.443 217.516 108.589 217.576 108.742 217.576Z" fill="#BDBDBD"/>
<path opacity="0.69" d="M70.1668 208.152H101.275C101.428 208.152 101.575 208.091 101.683 207.983C101.791 207.875 101.852 207.728 101.852 207.575C101.852 207.423 101.791 207.276 101.683 207.168C101.575 207.06 101.428 206.999 101.275 206.999H70.1668C70.014 206.999 69.8674 207.06 69.7594 207.168C69.6513 207.276 69.5907 207.423 69.5907 207.575C69.5936 207.727 69.6552 207.872 69.7626 207.98C69.87 208.087 70.0149 208.149 70.1668 208.152Z" fill="#BDBDBD"/>
<path d="M180.787 79.2348C180.787 108.5 233.787 156.246 233.787 156.246C233.787 156.246 286.787 108.5 286.787 79.2348C286.787 65.1783 281.203 51.6976 271.264 41.7581C261.325 31.8187 247.844 26.2348 233.787 26.2348C219.731 26.2348 206.25 31.8187 196.311 41.7581C186.371 51.6976 180.787 65.1783 180.787 79.2348Z" fill="#E0E0E0"/>
<path opacity="0.24" d="M233.799 134.067C233.799 134.067 276.544 95.5611 285.266 66.5147C286.289 70.6619 286.807 74.9173 286.81 79.1887C286.81 108.454 233.81 156.2 233.81 156.2C233.81 156.2 180.81 108.454 180.81 79.1887C180.811 74.9165 181.334 70.6604 182.366 66.5147C191.053 95.5611 233.799 134.067 233.799 134.067Z" fill="#BDBDBD"/>
<path d="M233.799 112.936C240.369 112.936 246.792 110.987 252.255 107.337C257.717 103.686 261.975 98.4979 264.489 92.4276C267.002 86.3572 267.66 79.6778 266.377 73.234C265.094 66.7901 261.93 60.8714 257.283 56.2264C252.636 51.5813 246.716 48.4186 240.272 47.1382C233.828 45.8578 227.149 46.5173 221.079 49.0332C215.01 51.5491 209.823 55.8084 206.174 61.2725C202.526 66.7365 200.579 73.1598 200.582 79.7301C200.594 88.535 204.098 96.9757 210.325 103.201C216.552 109.426 224.994 112.927 233.799 112.936ZM233.799 48.8172C239.913 48.8172 245.89 50.6302 250.973 54.027C256.057 57.4237 260.019 62.2517 262.359 67.9002C264.698 73.5488 265.311 79.7644 264.118 85.7609C262.925 91.7574 259.981 97.2655 255.658 101.589C251.334 105.912 245.826 108.856 239.83 110.049C233.833 111.242 227.618 110.63 221.969 108.29C216.32 105.95 211.493 101.988 208.096 96.9043C204.699 91.8207 202.886 85.8441 202.886 79.7301C202.898 71.5352 206.159 63.6795 211.954 57.8849C217.748 52.0902 225.604 48.8294 233.799 48.8172Z" fill="white"/>
<path d="M299.991 120.759C298.585 120.759 297.445 119.619 297.445 118.213C297.445 116.806 298.585 115.666 299.991 115.666C301.398 115.666 302.538 116.806 302.538 118.213C302.538 119.619 301.398 120.759 299.991 120.759Z" fill="white"/>
<path d="M180.787 252.176C179.381 252.176 178.241 251.036 178.241 249.63C178.241 248.224 179.381 247.084 180.787 247.084C182.194 247.084 183.333 248.224 183.333 249.63C183.333 251.036 182.194 252.176 180.787 252.176Z" fill="white"/>
<path d="M2.638 222.358C1.23171 222.358 0.0917339 221.218 0.0917339 219.811C0.0917339 218.405 1.23171 217.265 2.638 217.265C4.04428 217.265 5.18433 218.405 5.18433 219.811C5.18433 221.218 4.04428 222.358 2.638 222.358Z" fill="white"/>
<path d="M432.848 39.8764C431.442 39.8764 430.302 38.7364 430.302 37.3301C430.302 35.9238 431.442 34.7838 432.848 34.7838C434.255 34.7838 435.395 35.9238 435.395 37.3301C435.395 38.7364 434.255 39.8764 432.848 39.8764Z" fill="white"/>
<path d="M94.3282 91.9662C92.9219 91.9662 91.7819 90.8262 91.7819 89.4199C91.7819 88.0136 92.9219 86.8736 94.3282 86.8736C95.7345 86.8736 96.8745 88.0136 96.8745 89.4199C96.8745 90.8262 95.7345 91.9662 94.3282 91.9662Z" fill="white"/>
<path d="M201.734 166.754C201.734 167.007 201.809 167.255 201.95 167.466C202.091 167.676 202.291 167.84 202.526 167.937C202.76 168.033 203.018 168.058 203.266 168.007C203.515 167.957 203.743 167.834 203.921 167.654C204.099 167.474 204.22 167.245 204.268 166.996C204.316 166.747 204.289 166.49 204.191 166.256C204.092 166.023 203.927 165.824 203.715 165.685C203.503 165.546 203.254 165.473 203.001 165.475C202.834 165.475 202.668 165.508 202.513 165.573C202.359 165.637 202.219 165.731 202.101 165.85C201.983 165.969 201.89 166.11 201.827 166.265C201.764 166.42 201.732 166.586 201.734 166.754Z" fill="#BDBDBD"/>
<path d="M143.745 129.239C141.779 129.239 140.185 127.645 140.185 125.679C140.185 123.713 141.779 122.119 143.745 122.119C145.711 122.119 147.305 123.713 147.305 125.679C147.305 127.645 145.711 129.239 143.745 129.239Z" fill="white"/>
<path d="M33.309 241.703C33.3067 242.102 33.423 242.493 33.6432 242.826C33.8634 243.159 34.1774 243.419 34.5456 243.574C34.9139 243.728 35.3197 243.77 35.7115 243.693C36.1034 243.617 36.4638 243.426 36.7469 243.144C37.03 242.863 37.2232 242.503 37.302 242.112C37.3807 241.72 37.3414 241.314 37.1892 240.945C37.0369 240.576 36.7785 240.261 36.4467 240.039C36.1149 239.816 35.7246 239.698 35.3253 239.698C34.7926 239.698 34.2814 239.909 33.9036 240.284C33.5258 240.66 33.3121 241.17 33.309 241.703Z" fill="white"/>
<path d="M402.811 181.398C401.831 181.398 401.037 180.604 401.037 179.624C401.037 178.644 401.831 177.849 402.811 177.849C403.791 177.849 404.586 178.644 404.586 179.624C404.586 180.604 403.791 181.398 402.811 181.398Z" fill="white"/>
<path d="M307.169 90.6989C306.463 90.6989 305.89 90.1263 305.89 89.42C305.89 88.7137 306.463 88.1411 307.169 88.1411C307.876 88.1411 308.448 88.7137 308.448 89.42C308.448 90.1263 307.876 90.6989 307.169 90.6989Z" fill="white"/>
<path d="M132.742 55.062L138.698 63.0236L138.929 52.896L146.026 46.847L136.44 45.5105L130.253 37.3301L129.884 47.7227L123.063 54.5897L132.742 55.062Z" fill="#E0E0E0"/>
<path opacity="0.47" d="M354.316 29.4147L358.199 34.611L358.36 27.9976L362.992 24.0456L356.736 23.1815L352.692 17.8239L352.45 24.6217L347.991 29.1036L354.316 29.4147Z" fill="white"/>
<path opacity="0.47" d="M40.6713 115.113L43.3213 118.662L43.425 114.157L46.5935 111.461L42.3189 110.862L39.5653 107.221L39.4039 111.853L36.3622 114.906L40.6713 115.113Z" fill="#E0E0E0"/>
<path opacity="0.41" d="M561.472 205.79C566.921 194.625 562.693 180.937 552.012 175.234C541.332 169.531 520.904 170.003 515.408 181.179C509.912 192.355 526.388 201.918 533.105 212.288C542.461 226.759 556.022 216.966 561.472 205.79Z" fill="#E0E0E0"/>
<path d="M493.85 5.85268C492.444 5.85268 491.304 4.71267 491.304 3.30638C491.304 1.90009 492.444 0.760071 493.85 0.760071C495.257 0.760071 496.397 1.90009 496.397 3.30638C496.397 4.71267 495.257 5.85268 493.85 5.85268Z" fill="white"/>
<path d="M531.918 141.855C531.212 141.855 530.639 141.283 530.639 140.576C530.639 139.87 531.212 139.298 531.918 139.298C532.625 139.298 533.197 139.87 533.197 140.576C533.197 141.283 532.625 141.855 531.918 141.855Z" fill="white"/>
<path d="M497.676 92.093C496.97 92.093 496.397 91.5204 496.397 90.8141C496.397 90.1078 496.97 89.5352 497.676 89.5352C498.382 89.5352 498.955 90.1078 498.955 90.8141C498.955 91.5204 498.382 92.093 497.676 92.093Z" fill="white"/>
<path d="M487.744 102.082C487.744 102.433 487.848 102.776 488.043 103.068C488.238 103.36 488.515 103.587 488.839 103.722C489.164 103.856 489.52 103.891 489.865 103.823C490.209 103.754 490.525 103.585 490.773 103.337C491.021 103.089 491.19 102.773 491.259 102.429C491.327 102.084 491.292 101.728 491.158 101.403C491.023 101.079 490.796 100.802 490.504 100.607C490.212 100.412 489.869 100.308 489.518 100.308C489.048 100.308 488.596 100.495 488.264 100.828C487.931 101.161 487.744 101.612 487.744 102.082Z" fill="white"/>
<path opacity="0.47" d="M529.061 50.9604L528.047 57.378L532.886 52.873L538.958 53.4491L535.214 48.3449L536.239 41.7199L531.193 46.2826L524.879 46.2134L529.061 50.9604Z" fill="#E0E0E0"/>
<path d="M279.091 160.405L282.121 164.45L282.236 159.311L285.843 156.235L280.98 155.555L277.835 151.395L277.651 156.684L274.183 160.163L279.091 160.405Z" fill="white"/>
<path d="M69.2567 282.248L72.2754 286.292L72.4022 281.153L76.0085 278.077L71.1348 277.409L67.9894 273.249L67.805 278.526L64.337 282.017L69.2567 282.248Z" fill="white"/>
<path d="M414.99 217.473L416.338 222.335L418.32 217.588L422.802 216.044L418.516 213.636L417.099 208.624L415.002 213.474L410.508 215.456L414.99 217.473Z" fill="white"/>
<path d="M289.253 6.72829C288.547 6.72829 287.974 6.1557 287.974 5.44937C287.974 4.74305 288.547 4.17046 289.253 4.17046C289.959 4.17046 290.532 4.74305 290.532 5.44937C290.532 6.1557 289.959 6.72829 289.253 6.72829Z" fill="white"/>
<path d="M200.455 21.0844C199.049 21.0844 197.909 19.9444 197.909 18.5381C197.909 17.1318 199.049 15.9918 200.455 15.9918C201.861 15.9918 203.001 17.1318 203.001 18.5381C203.001 19.9444 201.861 21.0844 200.455 21.0844Z" fill="white"/>
</g>
<path d="M625.969 222.964H852.766C851.68 218.966 845.718 205.275 815.378 210.518C817.924 208.427 819.888 205.715 821.081 202.645C822.274 199.574 822.655 196.249 822.188 192.988C821.826 191.007 820.907 189.17 819.538 187.692C818.214 186.495 816.652 185.593 814.954 185.044C802.976 180.754 782.043 197.225 782.043 197.225C807.693 156.948 737.791 140.053 737.314 191.002C737.314 191.002 727.059 172.704 715.85 177.762C711.293 180.41 714.101 188.354 716.142 191.638C683.39 175.749 653.606 185.494 667.465 203.633C635.296 204.401 625.969 222.964 625.969 222.964Z" fill="white"/>
<path d="M287.904 169.261H248.608V242.003H287.904V169.261Z" fill="white"/>
<path d="M248.608 187.692V194.709L287.904 190.207V187.692H248.608Z" fill="#9BB8CC"/>
<path d="M292.515 178.927H243.997V187.692H292.515V178.927Z" fill="#133B53"/>
<path d="M766.196 468.81H896.912C895.977 465.932 894.416 463.297 892.34 461.095C890.265 458.893 887.727 457.177 884.908 456.073C878.992 454.004 872.56 453.929 866.598 455.861C867.711 455.543 869.248 453.557 869.963 452.736C871.875 450.87 873.177 448.47 873.699 445.851C873.924 444.319 873.83 442.757 873.425 441.263C873.019 439.769 872.31 438.374 871.341 437.166C869.632 435.249 867.474 433.786 865.06 432.908C862.646 432.03 860.051 431.764 857.509 432.134H856.741C855.765 432.287 854.806 432.536 853.879 432.876C849.884 434.576 846.278 437.072 843.28 440.211C842.697 440.793 842.14 441.376 841.61 441.985C841.61 441.985 850.116 434.915 852.209 429.566C859.576 414.313 843.995 392.201 824.572 398.451C816.589 402.166 810.111 408.489 806.209 416.378C821.737 393.155 795.98 379.041 786.838 399.934C792.509 382.695 784.056 364.662 767.018 374.777L766.302 375.095L766.196 468.81Z" fill="#589600"/>
<path d="M766.196 468.81H843.2C842.654 467.113 841.735 465.56 840.511 464.264C839.287 462.967 837.788 461.96 836.125 461.316C832.641 460.095 828.853 460.048 825.34 461.184C826.049 459.367 826.016 457.344 825.248 455.552C824.48 453.759 823.038 452.339 821.233 451.598C819.463 451.075 817.601 450.936 815.773 451.192C813.944 451.448 812.192 452.092 810.634 453.081C813.557 451.517 815.767 448.891 816.808 445.746C821.154 436.769 811.959 423.74 800.538 427.421C795.827 429.619 792.004 433.355 789.7 438.013C798.842 424.323 783.685 416.008 778.306 428.321C783.606 414.843 773.43 406.951 766.196 409.997V468.81Z" fill="#A2DA52"/>
<path d="M846.036 395.3C844.604 396.44 842.803 397.015 840.975 396.915C841.222 394.988 842.075 393.189 843.412 391.778C844.844 390.638 846.645 390.063 848.474 390.163C848.221 392.089 847.368 393.886 846.036 395.3Z" fill="#589600"/>
<path d="M786.653 416.882C785.528 418.641 783.791 419.924 781.778 420.483C781.326 418.325 781.576 416.08 782.493 414.075C783.616 412.306 785.352 411.015 787.369 410.447C787.819 412.613 787.569 414.867 786.653 416.882Z" fill="#A2DA52"/>
<path d="M839.756 387.938C840.227 390.643 839.818 393.427 838.59 395.882C836.475 394.306 834.946 392.069 834.244 389.527C833.774 386.823 834.182 384.038 835.41 381.583C837.526 383.16 839.055 385.396 839.756 387.938Z" fill="#589600"/>
<path d="M630.924 146.064L352.719 141.298L191.584 296.236H315.436H663.278H787.104L630.924 146.064Z" fill="#1C75BB"/>
<path d="M773.351 296.236H592.581V457.821H773.351V296.236Z" fill="white"/>
<path d="M773.351 296.236H753.584V457.821H773.351V296.236Z" fill="#28A8DF"/>
<path d="M612.348 296.236H592.581V457.821H612.348V296.236Z" fill="#28A8DF"/>
<path d="M753.557 319.618H612.322V321.604H753.557V319.618Z" fill="#E1ECEF"/>
<path d="M753.557 342.391H612.322V344.377H753.557V342.391Z" fill="#E1ECEF"/>
<path d="M753.557 365.165H612.322V367.151H753.557V365.165Z" fill="#E1ECEF"/>
<path d="M753.557 387.912H612.322V389.898H753.557V387.912Z" fill="#E1ECEF"/>
<path d="M753.557 410.685H612.322V412.671H753.557V410.685Z" fill="#E1ECEF"/>
<path d="M753.557 433.458H612.322V435.444H753.557V433.458Z" fill="#E1ECEF"/>
<path d="M612.322 319.618H592.554V321.604H612.322V319.618Z" fill="#1C75BB"/>
<path d="M612.322 342.391H592.554V344.377H612.322V342.391Z" fill="#1C75BB"/>
<path d="M612.322 365.165H592.554V367.151H612.322V365.165Z" fill="#1C75BB"/>
<path d="M612.322 387.912H592.554V389.898H612.322V387.912Z" fill="#1C75BB"/>
<path d="M612.322 410.685H592.554V412.671H612.322V410.685Z" fill="#1C75BB"/>
<path d="M612.322 433.458H592.554V435.444H612.322V433.458Z" fill="#1C75BB"/>
<path d="M773.351 319.618H753.584V321.604H773.351V319.618Z" fill="#1C75BB"/>
<path d="M773.351 342.391H753.584V344.377H773.351V342.391Z" fill="#1C75BB"/>
<path d="M773.351 365.165H753.584V367.151H773.351V365.165Z" fill="#1C75BB"/>
<path d="M773.351 387.912H753.584V389.898H773.351V387.912Z" fill="#1C75BB"/>
<path d="M773.351 410.685H753.584V412.671H773.351V410.685Z" fill="#1C75BB"/>
<path d="M773.351 433.458H753.584V435.444H773.351V433.458Z" fill="#1C75BB"/>
<path d="M386.133 296.236H205.363V457.821H386.133V296.236Z" fill="white"/>
<path d="M384.596 319.618H205.363V321.604H384.596V319.618Z" fill="#E1ECEF"/>
<path d="M384.596 342.391H205.363V344.377H384.596V342.391Z" fill="#E1ECEF"/>
<path d="M384.596 365.165H205.363V367.151H384.596V365.165Z" fill="#E1ECEF"/>
<path d="M384.596 387.912H205.363V389.898H384.596V387.912Z" fill="#E1ECEF"/>
<path d="M384.596 410.685H205.363V412.671H384.596V410.685Z" fill="#E1ECEF"/>
<path d="M384.596 433.458H205.363V435.444H384.596V433.458Z" fill="#E1ECEF"/>
<path d="M355.263 329.469H236.233V457.847H355.263V329.469Z" fill="#28A8DF"/>
<path d="M355.263 335.109L236.233 354.414V329.469H355.263V335.109Z" fill="#1C75BB"/>
<path d="M386.133 457.821H378.21L383.165 296.236H386.133V457.821Z" fill="#9BB8CC"/>
<path d="M386.133 298.91L205.363 308.788V296.236H386.133V298.91Z" fill="#9BB8CC"/>
<path d="M612.322 296.236V307.702L753.583 299.996V296.236H612.322Z" fill="#9BB8CC"/>
<path d="M753.584 296.236V299.996L773.351 298.91V296.236H753.584Z" fill="#1C75BB"/>
<path d="M592.554 296.236V308.788L612.322 307.702V296.236H592.554Z" fill="#1C75BB"/>
<path d="M592.554 457.821H386.133V206.599L489.344 126.098L592.554 206.599V457.821Z" fill="white"/>
<path d="M489.344 126.098L386.133 206.599V224.818L484.548 148.792L592.554 233.027V206.599L489.344 126.098Z" fill="#9BB8CC"/>
<path d="M608.956 208.744L489.344 119.054L369.81 209.644L381.47 221.296L489.344 137.167L596.767 220.925L608.956 208.744Z" fill="white"/>
<path d="M778.969 457.82H193.465V468.889H778.969V457.82Z" fill="#BDBDBD"/>
<path d="M335.628 357.247H256.16V457.82H335.628V357.247Z" fill="white"/>
<path d="M292.913 361.855H261.91V452.233H292.913V361.855Z" fill="#133B53"/>
<path d="M329.586 361.855H298.583V452.233H329.586V361.855Z" fill="#133B53"/>
<path d="M335.628 355.844H256.186H255.391H254.411L253.43 457.821H256.186V357.247H335.628V355.844Z" fill="#1C75BB"/>
<path d="M739.381 357.247H625.809V425.593H739.381V357.247Z" fill="white"/>
<path d="M650.188 361.855H631.082V420.245H650.188V361.855Z" fill="#133B53"/>
<path d="M710.18 361.855H655.726V420.245H710.18V361.855Z" fill="#133B53"/>
<path d="M734.823 361.855H715.718V420.245H734.823V361.855Z" fill="#133B53"/>
<path d="M739.38 356.373H625.809H624.113L622.735 425.62H625.809V357.247H739.38V356.373Z" fill="#9BB8CC"/>
<path d="M625.809 425.037H739.38V426.653L622.735 431.578V425.037H625.809Z" fill="#9BB8CC"/>
<path d="M449.861 361.855H418.859V452.233H449.861V361.855Z" fill="#133B53"/>
<path d="M486.535 361.855H455.532V452.233H486.535V361.855Z" fill="#133B53"/>
<path d="M523.182 361.855H492.179V452.233H523.182V361.855Z" fill="#133B53"/>
<path d="M559.829 361.855H528.826V452.233H559.829V361.855Z" fill="#133B53"/>
<path d="M563.459 356.373H411.36L409.001 457.82H413.771V357.247H563.459V356.373Z" fill="#9BB8CC"/>
<path d="M486.535 208.214H455.532V298.592H486.535V208.214Z" fill="#133B53"/>
<path d="M523.182 208.214H492.179V298.592H523.182V208.214Z" fill="#133B53"/>
<path d="M528.19 202.733H448.298L445.939 304.18H450.709V203.607H528.19V202.733Z" fill="#9BB8CC"/>
<path d="M570.534 303.518H408.153V311.859H570.534V303.518Z" fill="#133B53"/>
<path d="M570.534 311.859H408.153V303.518L401.926 311.859V319.698L570.534 313.713V311.859Z" fill="#9BB8CC"/>
<path d="M417.878 280.798H415.255V303.518H417.878V280.798Z" fill="#BDBDBD"/>
<path d="M505.852 280.798H503.229V303.518H505.852V280.798Z" fill="#BDBDBD"/>
<path d="M476.518 280.798H473.895V303.518H476.518V280.798Z" fill="#BDBDBD"/>
<path d="M535.159 280.798H532.536V303.518H535.159V280.798Z" fill="#BDBDBD"/>
<path d="M447.211 280.798H444.588V303.518H447.211V280.798Z" fill="#BDBDBD"/>
<path d="M564.493 280.798H561.869V303.518H564.493V280.798Z" fill="#BDBDBD"/>
<path d="M417.878 280.798H415.255V282.942H417.878V280.798Z" fill="#4A938C"/>
<path d="M505.852 280.798H503.229V282.942H505.852V280.798Z" fill="#4A938C"/>
<path d="M476.518 280.798H473.895V282.942H476.518V280.798Z" fill="#4A938C"/>
<path d="M535.159 280.798H532.536V282.942H535.159V280.798Z" fill="#4A938C"/>
<path d="M447.211 280.798H444.588V282.942H447.211V280.798Z" fill="#4A938C"/>
<path d="M564.493 280.798H561.869V282.942H564.493V280.798Z" fill="#4A938C"/>
<path d="M155.342 468.76L157.092 444.006L143.092 428.163L143.944 427.488L152.21 434.397L153.408 427.488L154.72 427.825L154.49 436.422L157.852 439.617L159.141 414.345L152.279 406.042L153.039 405.411L160.154 410.97L160.615 397.76H162.457L163.677 413.985L165.473 430.143L174.73 420.354L175.605 420.894L172.22 426.093L178.092 426.003V426.97L171.667 427.938L165.358 437.592L166.809 468.76H155.342Z" fill="#994F61"/>
<path d="M214.033 380.041C214.272 376.99 213.781 373.926 212.598 371.095C211.992 369.68 211.042 368.433 209.832 367.462C208.621 366.491 207.186 365.826 205.654 365.526C204.764 365.366 203.846 365.431 202.99 365.717C202.133 366.003 201.364 366.499 200.758 367.159C204.421 363.011 207.132 358.137 208.705 352.868C209.491 350.242 209.639 347.472 209.137 344.78C208.634 342.088 207.496 339.55 205.813 337.369C204.011 335.414 201.74 333.934 199.207 333.062C196.673 332.191 193.958 331.957 191.308 332.381C185.996 333.317 181.194 336.075 177.76 340.164C178.124 331.956 180.037 323.681 178.534 315.563C177.031 307.444 170.451 299.393 162.094 299.773C156.424 300.019 151.665 304 148.045 308.294C140.52 317.294 135.968 328.334 134.997 339.941C132.953 336.911 130.493 334.171 127.688 331.8C126.283 330.613 124.644 329.723 122.873 329.184C121.103 328.646 119.238 328.47 117.396 328.669C111.407 329.63 107.582 335.647 106.125 341.439C104.557 347.668 104.777 354.202 106.762 360.315C110.041 370.357 117.692 378.319 125.138 385.923C123.372 385.311 121.438 385.361 119.707 386.062C117.976 386.764 116.569 388.068 115.757 389.725C113.479 394.198 115.757 399.365 118.785 402.921C121.515 405.834 124.804 408.19 128.462 409.854C148.614 419.784 173.138 418.352 193.471 409.72C200.746 406.556 206.688 401.027 210.299 394.064C212.654 389.745 213.934 384.94 214.033 380.041Z" fill="#4F8700"/>
<path d="M149.792 421.763C148.9 420.729 146.244 420.319 146.288 422.194C145.504 416.374 137.822 418.573 141.413 424.156C135.493 418.077 130.27 425.837 137.909 429.308C131.38 429.437 135.036 438.62 140.738 434.611C140.204 434.828 139.779 435.246 139.557 435.774C139.334 436.301 139.333 436.895 139.552 437.424C139.771 437.952 140.194 438.373 140.726 438.594C141.259 438.814 141.858 438.816 142.392 438.598C148.987 437.542 155.755 427.088 149.792 421.763Z" fill="#589600"/>
<path d="M138.303 403.883C137.679 402.284 137.439 400.562 137.602 398.855C137.699 398.005 138.003 397.19 138.487 396.483C138.971 395.775 139.621 395.195 140.381 394.792C140.814 394.544 141.305 394.413 141.805 394.413C142.304 394.413 142.795 394.544 143.228 394.792C140.632 393.205 138.4 391.095 136.676 388.597C135.842 387.317 135.32 385.861 135.152 384.345C134.983 382.829 135.172 381.295 135.705 379.865C136.334 378.549 137.283 377.408 138.466 376.546C139.649 375.684 141.029 375.128 142.482 374.927C145.444 374.583 148.432 375.3 150.909 376.947C149.373 372.615 147.024 368.507 146.527 363.95C146.029 359.394 148.198 354.029 152.717 352.906C154.258 352.657 155.835 352.727 157.348 353.114C158.861 353.5 160.276 354.194 161.505 355.151C166.934 358.766 171.12 363.943 173.502 369.988C174.089 368.049 174.94 366.199 176.032 364.489C176.582 363.635 177.303 362.904 178.151 362.34C178.998 361.776 179.954 361.392 180.958 361.212C184.279 360.785 187.261 363.456 188.978 366.24C190.813 369.314 191.751 372.835 191.689 376.408C191.689 382.289 188.82 387.632 186.109 392.974C186.945 392.368 187.977 392.091 189.007 392.194C190.037 392.298 190.992 392.775 191.689 393.535C192.497 394.604 192.978 395.882 193.074 397.216C193.17 398.549 192.878 399.882 192.231 401.055C191.253 403.04 189.895 404.816 188.232 406.285C179.195 414.747 166.024 417.845 153.892 416.431C149.582 415.88 145.594 413.875 142.595 410.752C140.64 408.83 139.169 406.477 138.303 403.883Z" fill="#A2DA52"/>
<path d="M115.356 382.826C116.105 384.366 116.289 386.106 115.877 387.76C114.203 387.207 112.769 386.128 111.807 384.694C111.072 383.15 110.898 381.412 111.311 379.76C112.983 380.306 114.411 381.388 115.356 382.826Z" fill="#589600"/>
<path d="M107.943 387.76C110.193 387.806 112.36 388.583 114.092 389.963C112.529 391.506 110.466 392.493 108.241 392.76C105.989 392.725 103.818 391.947 102.092 390.557C103.657 389.017 105.719 388.031 107.943 387.76Z" fill="#589600"/>
<path d="M179.73 428.565C179.009 428.222 178.432 427.654 178.092 426.955C178.856 426.695 179.69 426.695 180.453 426.955C181.168 427.306 181.744 427.872 182.092 428.565C181.328 428.825 180.494 428.825 179.73 428.565Z" fill="#589600"/>
<path d="M180.861 424.728C180.068 425.411 179.092 425.774 178.092 425.76C178.195 424.645 178.628 423.601 179.323 422.793C180.115 422.11 181.091 421.746 182.092 421.761C181.999 422.878 181.564 423.926 180.861 424.728Z" fill="#589600"/>
<path d="M179.683 357.735C178.69 358.947 177.425 359.661 176.095 359.76C176.07 358.847 176.181 357.936 176.421 357.083C176.661 356.23 177.026 355.452 177.494 354.797C177.961 354.143 178.521 353.625 179.139 353.274C179.758 352.924 180.422 352.749 181.092 352.761C181.05 354.589 180.553 356.343 179.683 357.735Z" fill="#A2DA52"/>
<path d="M139.633 370.991C140.705 371.499 141.571 372.344 142.092 373.39C140.962 373.828 139.714 373.879 138.551 373.534C137.48 373.024 136.614 372.18 136.092 371.135C137.22 370.691 138.471 370.64 139.633 370.991Z" fill="#A2DA52"/>
<path d="M172.746 352.398C173.294 354.495 173.188 356.739 172.447 358.76C171.549 358.326 170.74 357.692 170.068 356.896C169.396 356.1 168.875 355.159 168.537 354.13C168.199 353.101 168.051 352.006 168.102 350.911C168.153 349.816 168.401 348.744 168.833 347.76C170.57 348.76 171.951 350.396 172.746 352.398Z" fill="#A2DA52"/>
<path d="M145.261 435.709C144.594 435.777 143.921 435.777 143.255 435.709C142.268 435.645 141.346 435.245 140.684 434.592C140.415 434.305 140.23 433.964 140.145 433.598C140.06 433.233 140.077 432.854 140.196 432.496C140.607 431.493 142.073 431.744 142.767 430.992C142.933 430.769 143.046 430.519 143.099 430.256C143.152 429.994 143.144 429.724 143.075 429.465C142.96 428.946 142.96 428.412 143.075 427.892C143.126 427.635 143.283 427.403 143.516 427.243C143.749 427.083 144.041 427.005 144.335 427.026C144.798 427.026 145.055 427.482 145.338 427.756C145.417 427.848 145.518 427.924 145.633 427.979C145.749 428.034 145.876 428.066 146.006 428.075C147.112 428.075 147.369 426.593 148.577 426.776C149.785 426.958 150.454 428.097 150.788 429.055C151.099 429.86 151.173 430.722 151.002 431.56C150.831 432.398 150.421 433.183 149.811 433.84C148.614 434.95 146.989 435.617 145.261 435.709Z" fill="#A2DA52"/>
<path d="M566.877 280.797H411.651V275.051L566.877 276.375V280.797Z" fill="#BDBDBD"/>
<path d="M201.096 445.904H110.844V449.4H201.096V445.904Z" fill="#B6CCD8"/>
<path d="M201.096 460.098H110.844V463.593H201.096V460.098Z" fill="#B6CCD8"/>
<path d="M120.409 468.572H114.262C114.086 468.572 113.918 468.502 113.793 468.378C113.669 468.254 113.599 468.085 113.599 467.91V441.773C113.559 441.644 113.559 441.505 113.599 441.376L116.673 437.695C116.735 437.613 116.815 437.546 116.907 437.5C116.999 437.454 117.1 437.43 117.203 437.43C117.306 437.43 117.407 437.454 117.499 437.5C117.591 437.546 117.671 437.613 117.733 437.695L120.807 441.376C120.893 441.491 120.939 441.63 120.939 441.773V467.91C120.942 468.064 120.891 468.216 120.794 468.337C120.697 468.457 120.561 468.541 120.409 468.572Z" fill="white"/>
<path d="M133.181 468.572H127.06C126.882 468.572 126.711 468.503 126.582 468.38C126.454 468.256 126.378 468.088 126.371 467.91V441.773C126.369 441.7 126.382 441.627 126.409 441.558C126.436 441.49 126.478 441.428 126.53 441.376L129.578 437.695C129.642 437.613 129.725 437.546 129.819 437.5C129.913 437.454 130.016 437.43 130.121 437.43C130.226 437.43 130.329 437.454 130.423 437.5C130.517 437.546 130.6 437.613 130.664 437.695L133.738 441.376C133.779 441.506 133.779 441.644 133.738 441.773V467.91C133.74 468.069 133.685 468.223 133.583 468.344C133.481 468.466 133.338 468.546 133.181 468.572Z" fill="white"/>
<path d="M145.98 468.572H139.859C139.681 468.572 139.509 468.503 139.381 468.38C139.252 468.256 139.177 468.088 139.17 467.91V441.773C139.167 441.7 139.18 441.627 139.208 441.558C139.235 441.49 139.276 441.428 139.329 441.376L142.376 437.695C142.441 437.613 142.523 437.546 142.617 437.5C142.711 437.454 142.815 437.43 142.92 437.43C143.024 437.43 143.128 437.454 143.222 437.5C143.316 437.546 143.398 437.613 143.463 437.695L146.51 441.376C146.563 441.428 146.604 441.49 146.631 441.558C146.659 441.627 146.672 441.7 146.669 441.773V467.91C146.662 468.088 146.587 468.256 146.458 468.38C146.33 468.503 146.158 468.572 145.98 468.572Z" fill="white"/>
<path d="M158.779 468.572H152.658C152.479 468.572 152.308 468.503 152.18 468.38C152.051 468.256 151.976 468.088 151.969 467.91V441.773C151.969 441.63 152.015 441.491 152.101 441.376L155.149 437.695C155.213 437.613 155.295 437.546 155.39 437.5C155.484 437.454 155.587 437.43 155.692 437.43C155.796 437.43 155.9 437.454 155.994 437.5C156.088 437.546 156.171 437.613 156.235 437.695L159.282 441.376C159.335 441.428 159.376 441.49 159.404 441.558C159.431 441.627 159.444 441.7 159.441 441.773V467.91C159.435 468.083 159.363 468.248 159.24 468.371C159.117 468.493 158.952 468.565 158.779 468.572Z" fill="white"/>
<path d="M171.578 468.572H165.457C165.367 468.575 165.278 468.561 165.195 468.529C165.111 468.498 165.035 468.449 164.971 468.388C164.907 468.326 164.855 468.252 164.82 468.169C164.785 468.087 164.768 467.999 164.768 467.91V441.773C164.768 441.63 164.814 441.491 164.9 441.376L167.974 437.695C168.038 437.613 168.121 437.546 168.215 437.5C168.309 437.454 168.412 437.43 168.517 437.43C168.622 437.43 168.725 437.454 168.819 437.5C168.913 437.546 168.996 437.613 169.06 437.695L172.108 441.376C172.156 441.43 172.192 441.493 172.215 441.561C172.238 441.63 172.246 441.702 172.24 441.773V467.91C172.24 468.085 172.17 468.254 172.046 468.378C171.922 468.502 171.753 468.572 171.578 468.572Z" fill="white"/>
<path d="M184.296 468.572H178.228C178.053 468.572 177.884 468.502 177.76 468.378C177.636 468.254 177.566 468.085 177.566 467.91V441.773C177.525 441.644 177.525 441.505 177.566 441.376L180.64 437.695C180.701 437.613 180.781 437.546 180.873 437.5C180.965 437.454 181.067 437.43 181.17 437.43C181.273 437.43 181.374 437.454 181.466 437.5C181.558 437.546 181.638 437.613 181.7 437.695L184.773 441.376C184.859 441.491 184.906 441.63 184.906 441.773V467.91C184.906 468.076 184.844 468.237 184.731 468.36C184.618 468.483 184.463 468.558 184.296 468.572Z" fill="white"/>
<path d="M197.148 468.572H191.027C190.849 468.572 190.677 468.503 190.549 468.38C190.42 468.256 190.345 468.088 190.338 467.91V441.773C190.335 441.7 190.348 441.627 190.376 441.558C190.403 441.49 190.444 441.428 190.497 441.376L193.544 437.695C193.609 437.613 193.691 437.546 193.785 437.5C193.879 437.454 193.983 437.43 194.087 437.43C194.192 437.43 194.296 437.454 194.39 437.5C194.484 437.546 194.566 437.613 194.631 437.695L197.704 441.376C197.745 441.506 197.745 441.644 197.704 441.773V467.91C197.707 468.069 197.651 468.223 197.549 468.344C197.447 468.466 197.305 468.546 197.148 468.572Z" fill="white"/>
<path d="M887.638 445.904H759.705V449.4H887.638V445.904Z" fill="#B6CCD8"/>
<path d="M887.638 460.098H759.705V463.593H887.638V460.098Z" fill="#B6CCD8"/>
<path d="M769.27 468.572H763.149C763.06 468.575 762.971 468.561 762.887 468.529C762.804 468.497 762.728 468.449 762.664 468.387C762.599 468.325 762.548 468.251 762.513 468.169C762.478 468.087 762.46 467.999 762.46 467.91V441.773C762.46 441.63 762.507 441.491 762.593 441.376L765.666 437.695C765.728 437.613 765.808 437.546 765.9 437.5C765.992 437.454 766.094 437.43 766.196 437.43C766.299 437.43 766.401 437.454 766.493 437.5C766.585 437.546 766.665 437.613 766.726 437.695L769.8 441.376C769.886 441.491 769.933 441.63 769.933 441.773V467.91C769.933 468.085 769.863 468.254 769.739 468.378C769.614 468.502 769.446 468.572 769.27 468.572Z" fill="white"/>
<path d="M782.042 468.572H775.921C775.745 468.572 775.577 468.502 775.453 468.378C775.329 468.254 775.259 468.085 775.259 467.91V441.773C775.253 441.702 775.261 441.629 775.284 441.561C775.307 441.493 775.343 441.43 775.391 441.376L778.465 437.695C778.527 437.613 778.607 437.546 778.699 437.5C778.791 437.454 778.892 437.43 778.995 437.43C779.098 437.43 779.199 437.454 779.291 437.5C779.383 437.546 779.463 437.613 779.525 437.695L782.599 441.376C782.64 441.505 782.64 441.644 782.599 441.773V467.91C782.601 468.068 782.546 468.222 782.444 468.344C782.342 468.465 782.199 468.546 782.042 468.572Z" fill="white"/>
<path d="M794.842 468.572H788.721C788.542 468.572 788.371 468.503 788.242 468.38C788.114 468.256 788.038 468.088 788.032 467.91V441.773C788.029 441.7 788.042 441.627 788.069 441.558C788.097 441.49 788.138 441.428 788.191 441.376L791.238 437.695C791.302 437.613 791.385 437.546 791.479 437.5C791.573 437.454 791.676 437.43 791.781 437.43C791.886 437.43 791.989 437.454 792.083 437.5C792.177 437.546 792.26 437.613 792.324 437.695L795.398 441.376C795.484 441.491 795.531 441.63 795.531 441.773V467.91C795.524 468.088 795.448 468.256 795.32 468.38C795.191 468.503 795.02 468.572 794.842 468.572Z" fill="white"/>
<path d="M807.64 468.572H801.519C801.341 468.572 801.17 468.503 801.041 468.38C800.913 468.256 800.837 468.088 800.83 467.91V441.773C800.828 441.7 800.84 441.627 800.868 441.558C800.895 441.49 800.936 441.428 800.989 441.376L804.036 437.695C804.101 437.613 804.183 437.546 804.277 437.5C804.372 437.454 804.475 437.43 804.58 437.43C804.684 437.43 804.788 437.454 804.882 437.5C804.976 437.546 805.058 437.613 805.123 437.695L808.17 441.376C808.223 441.428 808.264 441.49 808.292 441.558C808.319 441.627 808.332 441.7 808.329 441.773V467.91C808.322 468.088 808.247 468.256 808.118 468.38C807.99 468.503 807.818 468.572 807.64 468.572Z" fill="white"/>
<path d="M820.438 468.572H814.317C814.228 468.575 814.139 468.561 814.056 468.529C813.972 468.498 813.896 468.449 813.832 468.388C813.767 468.326 813.716 468.252 813.681 468.169C813.646 468.087 813.628 467.999 813.628 467.91V441.773C813.628 441.63 813.675 441.491 813.761 441.376L816.835 437.695C816.899 437.613 816.982 437.546 817.076 437.5C817.17 437.454 817.273 437.43 817.378 437.43C817.483 437.43 817.586 437.454 817.68 437.5C817.774 437.546 817.857 437.613 817.921 437.695L820.968 441.376C821.021 441.428 821.062 441.49 821.09 441.558C821.117 441.627 821.13 441.7 821.127 441.773V467.91C821.121 468.088 821.045 468.256 820.916 468.38C820.788 468.503 820.617 468.572 820.438 468.572Z" fill="white"/>
<path d="M833.237 468.572H827.09C826.914 468.572 826.746 468.502 826.621 468.378C826.497 468.254 826.427 468.085 826.427 467.91V441.773C826.427 441.63 826.474 441.491 826.56 441.376L829.634 437.695C829.695 437.613 829.775 437.546 829.867 437.5C829.959 437.454 830.061 437.43 830.163 437.43C830.266 437.43 830.368 437.454 830.46 437.5C830.552 437.546 830.632 437.613 830.693 437.695L833.767 441.376C833.808 441.505 833.808 441.644 833.767 441.773V467.91C833.77 468.064 833.719 468.216 833.622 468.337C833.525 468.457 833.389 468.541 833.237 468.572Z" fill="white"/>
<path d="M846.009 468.572H839.888C839.712 468.572 839.544 468.502 839.419 468.378C839.295 468.254 839.225 468.085 839.225 467.91V441.773C839.174 441.646 839.174 441.504 839.225 441.376L842.273 437.695C842.337 437.613 842.42 437.546 842.514 437.5C842.608 437.454 842.711 437.43 842.816 437.43C842.921 437.43 843.024 437.454 843.118 437.5C843.212 437.546 843.295 437.613 843.359 437.695L846.433 441.376C846.519 441.491 846.565 441.63 846.565 441.773V467.91C846.567 468.069 846.512 468.223 846.41 468.344C846.308 468.466 846.166 468.546 846.009 468.572Z" fill="white"/>
<path d="M858.808 468.572H852.687C852.508 468.572 852.337 468.503 852.209 468.38C852.08 468.256 852.004 468.088 851.998 467.91V441.773C851.995 441.7 852.008 441.627 852.035 441.558C852.063 441.49 852.104 441.428 852.157 441.376L855.204 437.695C855.268 437.613 855.351 437.546 855.445 437.5C855.539 437.454 855.642 437.43 855.747 437.43C855.852 437.43 855.955 437.454 856.049 437.5C856.143 437.546 856.226 437.613 856.29 437.695L859.364 441.376C859.45 441.491 859.497 441.63 859.497 441.773V467.91C859.49 468.088 859.414 468.256 859.286 468.38C859.157 468.503 858.986 468.572 858.808 468.572Z" fill="white"/>
<path d="M871.606 468.572H865.485C865.307 468.572 865.136 468.503 865.007 468.38C864.879 468.256 864.803 468.088 864.796 467.91V441.773C864.794 441.7 864.806 441.627 864.834 441.558C864.861 441.49 864.903 441.428 864.955 441.376L868.002 437.695C868.067 437.613 868.149 437.546 868.243 437.5C868.338 437.454 868.441 437.43 868.546 437.43C868.65 437.43 868.754 437.454 868.848 437.5C868.942 437.546 869.024 437.613 869.089 437.695L872.136 441.376C872.189 441.428 872.23 441.49 872.258 441.558C872.285 441.627 872.298 441.7 872.295 441.773V467.91C872.288 468.088 872.213 468.256 872.084 468.38C871.956 468.503 871.784 468.572 871.606 468.572Z" fill="white"/>
<path d="M884.406 468.572H878.285C878.195 468.575 878.106 468.561 878.023 468.529C877.94 468.498 877.863 468.449 877.799 468.388C877.735 468.326 877.683 468.252 877.649 468.169C877.614 468.087 877.596 467.999 877.596 467.91V441.773C877.596 441.63 877.642 441.491 877.728 441.376L880.802 437.695C880.866 437.613 880.949 437.546 881.043 437.5C881.137 437.454 881.24 437.43 881.345 437.43C881.45 437.43 881.553 437.454 881.647 437.5C881.742 437.546 881.824 437.613 881.888 437.695L884.936 441.376C884.988 441.428 885.03 441.49 885.057 441.558C885.084 441.627 885.097 441.7 885.095 441.773V467.91C885.088 468.088 885.012 468.256 884.884 468.38C884.755 468.503 884.584 468.572 884.406 468.572Z" fill="white"/>
<path d="M900.092 467.592H102.497V470.24H900.092V467.592Z" fill="#133B53"/>
<path d="M193.306 126.548H330.54C329.877 124.112 326.274 115.824 307.91 119.001C309.452 117.741 310.641 116.103 311.361 114.246C312.081 112.39 312.307 110.379 312.018 108.409C311.817 107.223 311.262 106.125 310.428 105.258C309.666 104.541 308.764 103.991 307.778 103.643C300.544 100.994 287.878 111.004 287.878 111.004C303.379 86.642 261.088 76.4204 260.797 107.244C260.797 107.244 254.596 96.175 247.812 99.2997C245.163 100.862 246.752 105.602 247.998 107.694C228.177 98.0816 210.159 103.987 218.558 114.95C198.95 115.294 193.306 126.548 193.306 126.548Z" fill="white"/>
</svg>
