<svg width="650" height="368" viewBox="0 0 650 368" fill="none" xmlns="http://www.w3.org/2000/svg">
<path d="M39.2636 19.5618L0.363037 190.645L234.497 243.882L273.397 72.7987L39.2636 19.5618Z" fill="#2B3A8C"/>
<path d="M43.6433 26.4935L7.31689 186.256L230.1 236.912L266.427 77.1496L43.6433 26.4935Z" fill="#F0F0F1"/>
<path d="M16.2092 147.183L7.32275 186.265L230.106 236.921L238.993 197.839L16.2092 147.183Z" fill="#8CBF43"/>
<path d="M72.2985 152.89C72.7562 150.864 72.6403 148.75 71.9638 146.786C71.2873 144.821 70.0769 143.085 68.4684 141.77C69.5715 140.691 70.4389 139.396 71.016 137.965C71.5931 136.534 71.8672 135 71.8212 133.458C71.7751 131.915 71.4099 130.4 70.7485 129.006C70.0871 127.612 69.1439 126.371 67.9785 125.36C68.8144 124.601 69.5324 123.721 70.1084 122.75C72.4577 122.305 74.6024 121.118 76.2275 119.364C77.8527 117.61 78.8727 115.382 79.1379 113.005C79.403 110.629 78.8993 108.23 77.7007 106.161C76.5021 104.092 74.6718 102.462 72.4785 101.51C72.4751 101.447 72.4751 101.383 72.4785 101.32C72.8335 99.7271 72.8356 98.0758 72.4845 96.482C72.1334 94.8883 71.4376 93.3908 70.446 92.0946C69.4545 90.7984 68.1912 89.735 66.7448 88.9791C65.2985 88.2232 63.7042 87.793 62.0739 87.7189C60.4437 87.6448 58.8169 87.9285 57.308 88.5501C55.799 89.1717 54.4445 90.1161 53.3394 91.317C52.2344 92.5179 51.4056 93.9461 50.9113 95.5015C50.4171 97.0568 50.2693 98.7014 50.4784 100.32L49.9084 100.13C47.4682 99.5776 44.9132 99.8599 42.6523 100.931C40.3914 102.003 38.5553 103.802 37.4378 106.04C36.3202 108.279 35.9859 110.828 36.4882 113.279C36.9905 115.73 38.3005 117.941 40.2084 119.56C38.2625 120.85 36.7708 122.719 35.9437 124.903C35.1166 127.086 34.9959 129.474 35.5984 131.73C33.526 131.735 31.4962 132.318 29.7367 133.414C27.9772 134.509 26.5578 136.072 25.6376 137.929C24.7174 139.786 24.333 141.863 24.5275 143.926C24.7219 145.989 25.4876 147.958 26.7384 149.61L68.4584 159.1C70.3985 157.519 71.751 155.332 72.2985 152.89V152.89Z" fill="#8CBF43"/>
<path d="M218.998 212.49C219.458 210.465 219.345 208.351 218.67 206.387C217.995 204.422 216.786 202.685 215.178 201.37C216.281 200.291 217.149 198.996 217.726 197.565C218.303 196.134 218.577 194.6 218.531 193.058C218.485 191.516 218.12 190 217.458 188.606C216.797 187.212 215.854 185.971 214.688 184.96C215.535 184.203 216.263 183.323 216.848 182.35C219.195 181.904 221.336 180.717 222.959 178.965C224.581 177.212 225.599 174.985 225.863 172.611C226.127 170.238 225.623 167.842 224.425 165.775C223.228 163.709 221.399 162.081 219.208 161.13L219.268 160.94C219.931 158.049 219.419 155.013 217.843 152.5C216.268 149.987 213.759 148.203 210.868 147.54C207.977 146.877 204.942 147.389 202.429 148.965C199.916 150.54 198.131 153.049 197.468 155.94C197.18 157.226 197.12 158.553 197.288 159.86L196.618 159.67C194.178 159.118 191.623 159.4 189.362 160.472C187.101 161.543 185.265 163.342 184.148 165.581C183.03 167.819 182.696 170.368 183.198 172.819C183.7 175.27 185.01 177.482 186.918 179.1C184.529 180.682 182.842 183.125 182.208 185.92C181.801 187.684 181.835 189.522 182.308 191.27C180.24 191.28 178.215 191.865 176.46 192.959C174.705 194.053 173.288 195.613 172.368 197.466C171.448 199.318 171.061 201.39 171.25 203.45C171.439 205.509 172.196 207.476 173.438 209.13L215.168 218.62C217.093 217.061 218.441 214.903 218.998 212.49Z" fill="#8CBF43"/>
<path d="M198.508 85.47L113.318 66.1L89.6384 170.21L141.678 182.05L174.828 189.59L207.978 197.13L224.708 123.55L198.508 85.47Z" fill="#28A8DF"/>
<path d="M56.4985 162.68L73.2285 89.1L113.319 66.1L139.519 104.18L122.789 177.75L56.4985 162.68Z" fill="#2B3A8C"/>
<path d="M183.448 90.66L192.908 104.41L199.848 73.86L187.888 71.14L183.448 90.66Z" fill="#2B3A8C"/>
<path d="M199.845 73.8484L192.899 104.399L198.886 105.76L205.833 75.2097L199.845 73.8484Z" fill="#8CBF43"/>
<path d="M139.513 104.175L122.784 177.747L207.97 197.117L224.698 123.544L139.513 104.175Z" fill="#1C75BB"/>
<path d="M78.2762 97.7209L74.7065 113.42L80.9472 114.839L84.5169 99.1399L78.2762 97.7209Z" fill="#F0F0F1"/>
<path d="M86.0208 99.474L82.4512 115.173L88.6919 116.592L92.2615 100.893L86.0208 99.474Z" fill="#F0F0F1"/>
<path d="M74.3417 115.043L70.772 130.742L77.0127 132.161L80.5824 116.462L74.3417 115.043Z" fill="#F0F0F1"/>
<path d="M82.076 116.796L78.5063 132.495L84.747 133.914L88.3167 118.215L82.076 116.796Z" fill="#F0F0F1"/>
<path d="M70.4092 132.355L66.8396 148.055L73.0803 149.474L76.65 133.774L70.4092 132.355Z" fill="#F0F0F1"/>
<path d="M78.1415 134.118L74.5718 149.818L80.8125 151.236L84.3822 135.537L78.1415 134.118Z" fill="#F0F0F1"/>
<path d="M103.51 103.462L99.9399 119.161L106.181 120.58L109.75 104.881L103.51 103.462Z" fill="#F0F0F1"/>
<path d="M111.254 105.215L107.685 120.914L113.925 122.333L117.495 106.634L111.254 105.215Z" fill="#F0F0F1"/>
<path d="M99.575 120.784L96.0054 136.483L102.246 137.902L105.816 122.203L99.575 120.784Z" fill="#F0F0F1"/>
<path d="M107.319 122.537L103.75 138.236L109.99 139.655L113.56 123.956L107.319 122.537Z" fill="#F0F0F1"/>
<path d="M95.6424 138.096L92.0728 153.796L98.3135 155.215L101.883 139.515L95.6424 138.096Z" fill="#F0F0F1"/>
<path d="M103.385 139.859L99.8152 155.558L106.056 156.977L109.626 141.278L103.385 139.859Z" fill="#F0F0F1"/>
<path d="M145.681 113.048L142.111 128.747L148.352 130.166L151.922 114.467L145.681 113.048Z" fill="#F0F0F1"/>
<path d="M153.423 114.81L149.854 130.51L156.094 131.929L159.664 116.229L153.423 114.81Z" fill="#F0F0F1"/>
<path d="M141.746 130.36L138.177 146.059L144.417 147.478L147.987 131.779L141.746 130.36Z" fill="#F0F0F1"/>
<path d="M149.489 132.123L145.919 147.822L152.16 149.241L155.729 133.542L149.489 132.123Z" fill="#F0F0F1"/>
<path d="M137.811 147.682L134.242 163.381L140.482 164.8L144.052 149.101L137.811 147.682Z" fill="#F0F0F1"/>
<path d="M145.554 149.445L141.984 165.144L148.225 166.563L151.795 150.864L145.554 149.445Z" fill="#F0F0F1"/>
<path d="M166.834 117.85L151.72 184.323L179.579 190.658L194.693 124.185L166.834 117.85Z" fill="#2B3A8C"/>
<path d="M167.134 131.12L154.873 185.043L176.589 189.981L188.85 136.057L167.134 131.12Z" fill="black"/>
<path d="M183.178 124.52L177.248 123.13C176.212 122.893 175.14 122.863 174.092 123.041C173.044 123.219 172.041 123.602 171.141 124.167C170.242 124.733 169.462 125.47 168.847 126.337C168.232 127.204 167.794 128.184 167.558 129.22V129.22L189.278 134.16C189.741 132.073 189.36 129.888 188.217 128.082C187.074 126.275 185.262 124.995 183.178 124.52V124.52Z" fill="#F0F0F1"/>
<path d="M166.408 159.32C166.338 159.622 166.179 159.896 165.952 160.108C165.726 160.319 165.442 160.459 165.136 160.51C164.83 160.56 164.516 160.519 164.233 160.391C163.951 160.264 163.713 160.055 163.548 159.792C163.384 159.529 163.301 159.223 163.311 158.914C163.32 158.604 163.421 158.303 163.601 158.051C163.78 157.798 164.031 157.604 164.321 157.494C164.61 157.383 164.926 157.361 165.228 157.43C165.43 157.476 165.621 157.561 165.79 157.681C165.959 157.801 166.102 157.954 166.212 158.129C166.321 158.305 166.395 158.501 166.429 158.705C166.463 158.909 166.456 159.118 166.408 159.32V159.32Z" fill="#F0F0F1"/>
<path d="M37.6563 149.299L34.0967 165.155L85.6937 176.738L89.2533 160.882L37.6563 149.299Z" fill="#F0F0F1"/>
<path d="M41.1518 167.484L37.7285 182.54L40.5953 183.192L44.0186 168.136L41.1518 167.484Z" fill="#2B3A8C"/>
<path d="M74.28 175.018L70.8567 190.074L73.7235 190.726L77.1469 175.67L74.28 175.018Z" fill="#2B3A8C"/>
<path d="M45.3483 164.34C44.8377 164.08 44.3825 163.724 44.0083 163.29L45.0083 161.98C45.7016 162.73 46.6036 163.256 47.5983 163.49C48.0173 163.604 48.4593 163.604 48.8783 163.49C49.013 163.454 49.1353 163.381 49.2322 163.281C49.3291 163.181 49.3969 163.056 49.4283 162.92C49.4487 162.825 49.4486 162.727 49.4279 162.632C49.4072 162.537 49.3664 162.448 49.3083 162.37C49.162 162.187 48.9821 162.035 48.7783 161.92C48.5483 161.78 48.2383 161.62 47.8383 161.43C47.3328 161.185 46.842 160.911 46.3683 160.61C45.9903 160.359 45.6837 160.014 45.4783 159.61C45.2569 159.163 45.2105 158.649 45.3483 158.17C45.4465 157.691 45.6911 157.254 46.0483 156.92C46.4447 156.566 46.934 156.334 47.4583 156.25C48.1249 156.148 48.8052 156.182 49.4583 156.35C49.9902 156.465 50.5047 156.65 50.9883 156.9C51.443 157.117 51.8586 157.407 52.2183 157.76L51.3083 159.13C50.687 158.558 49.9296 158.156 49.1083 157.96C48.6937 157.839 48.2529 157.839 47.8383 157.96C47.7021 158.006 47.58 158.086 47.4837 158.193C47.3874 158.3 47.3201 158.43 47.2883 158.57C47.2557 158.712 47.268 158.86 47.3235 158.994C47.3791 159.129 47.4751 159.243 47.5983 159.32C47.9976 159.608 48.4267 159.853 48.8783 160.05C49.3854 160.288 49.8764 160.558 50.3483 160.86C50.7234 161.114 51.0292 161.458 51.2383 161.86C51.463 162.306 51.513 162.819 51.3783 163.3C51.2751 163.771 51.031 164.2 50.6783 164.53C50.2743 164.883 49.7786 165.116 49.2483 165.2C48.5817 165.302 47.9014 165.268 47.2483 165.1C46.5812 164.941 45.941 164.685 45.3483 164.34V164.34Z" fill="#1C75BB"/>
<path d="M58.1084 165.48L54.1884 164.59L53.1084 166.23L51.1084 165.77L56.7784 158.2L58.7084 158.63L60.5584 167.92L58.5084 167.46L58.1084 165.48ZM57.8284 163.86L57.2284 160.33L55.1584 163.25L57.8284 163.86Z" fill="#1C75BB"/>
<path d="M63.3084 159.69L65.3084 160.13L63.7484 166.98L67.9784 167.98L67.6184 169.57L61.3884 168.13L63.3084 159.69Z" fill="#1C75BB"/>
<path d="M75.5485 169.7L75.1985 171.26L68.6685 169.78L70.5785 161.34L76.9585 162.79L76.5985 164.36L72.1685 163.36L71.7485 165.19L75.6585 166.08L75.3185 167.6L71.3985 166.71L70.9585 168.71L75.5485 169.7Z" fill="#1C75BB"/>
<path d="M617.501 126.564L378.068 170.542L410.203 345.501L649.637 301.524L617.501 126.564Z" fill="#2B3A8C"/>
<path d="M614.917 136.683L386.068 177.612L415.42 341.728L644.269 300.799L614.917 136.683Z" fill="#F0F0F1"/>
<path d="M634.795 247.833L405.946 288.762L415.418 341.722L644.267 300.793L634.795 247.833Z" fill="#8CBF43"/>
<path d="M620.228 246.18C625.538 240.04 611.848 222.93 611.848 222.93C611.848 222.93 611.498 223.93 611.038 225.63C610.148 223.87 609.138 222.17 608.178 220.63C613.508 217.16 608.268 207.33 604.308 201.33C605.688 194.03 594.828 180.45 594.828 180.45C594.051 182.87 593.403 185.33 592.888 187.82C590.758 180.64 583.888 172.07 583.888 172.07C582.295 176.994 581.288 182.09 580.888 187.25C579.318 184.96 578.108 183.44 578.108 183.44C578.108 183.44 570.928 205.03 578.718 208.35C577.788 213.45 577.348 219.44 579.488 222.58C577.838 229.58 576.188 240.87 582.488 242.32C581.588 248.52 581.768 255.26 586.398 256.46L622.218 250.13C621.628 248.76 620.938 247.44 620.228 246.18Z" fill="#8CBF43"/>
<path d="M519.189 185.95L439.479 200.21L457.189 299.21L536.889 284.95L591.398 275.2L575.909 188.58L519.189 185.95Z" fill="#28A8DF"/>
<path d="M439.478 200.21L442.798 218.76L418.488 229.05L431.848 303.74L457.188 299.21L486.358 293.99L511.698 289.46L496.198 202.84L439.478 200.21Z" fill="#2B3A8C"/>
<path d="M575.455 188.667L496.202 202.841L511.695 289.467L590.948 275.293L575.455 188.667Z" fill="#1C75BB"/>
<path d="M452.461 231.95L429.181 236.113L430.603 244.067L453.884 239.903L452.461 231.95Z" fill="#F0F0F1"/>
<path d="M454.462 243.152L431.181 247.316L432.604 255.27L455.884 251.106L454.462 243.152Z" fill="#F0F0F1"/>
<path d="M456.461 254.336L433.18 258.499L434.602 266.453L457.883 262.289L456.461 254.336Z" fill="#F0F0F1"/>
<path d="M458.461 265.538L435.181 269.702L436.603 277.656L459.884 273.492L458.461 265.538Z" fill="#F0F0F1"/>
<path d="M460.472 276.74L437.191 280.903L438.613 288.857L461.894 284.693L460.472 276.74Z" fill="#F0F0F1"/>
<path d="M487.806 225.625L464.526 229.788L465.948 237.742L489.229 233.578L487.806 225.625Z" fill="#F0F0F1"/>
<path d="M489.815 236.816L466.534 240.98L467.957 248.934L491.238 244.77L489.815 236.816Z" fill="#F0F0F1"/>
<path d="M491.816 248.019L468.535 252.183L469.958 260.136L493.238 255.973L491.816 248.019Z" fill="#F0F0F1"/>
<path d="M493.816 259.222L470.536 263.386L471.958 271.34L495.239 267.176L493.816 259.222Z" fill="#F0F0F1"/>
<path d="M495.815 270.415L472.534 274.579L473.957 282.533L497.238 278.369L495.815 270.415Z" fill="#F0F0F1"/>
<path d="M569.125 211.085L545.844 215.249L547.267 223.203L570.547 219.039L569.125 211.085Z" fill="#F0F0F1"/>
<path d="M571.145 222.277L547.865 226.44L549.287 234.394L572.568 230.23L571.145 222.277Z" fill="#F0F0F1"/>
<path d="M573.146 233.479L549.865 237.643L551.288 245.597L574.568 241.433L573.146 233.479Z" fill="#F0F0F1"/>
<path d="M575.144 244.673L551.864 248.836L553.286 256.79L576.567 252.626L575.144 244.673Z" fill="#F0F0F1"/>
<path d="M577.145 255.865L553.865 260.029L555.287 267.983L578.568 263.819L577.145 255.865Z" fill="#F0F0F1"/>
<path d="M538.041 216.651L509.464 221.762L521.269 287.764L549.845 282.653L538.041 216.651Z" fill="#2B3A8C"/>
<path d="M535.121 220.664L527.827 221.968L538.339 280.746L545.633 279.441L535.121 220.664Z" fill="#F0F0F1"/>
<path d="M520.998 253.74C521.05 254.022 521.016 254.314 520.901 254.577C520.786 254.84 520.596 255.063 520.355 255.218C520.113 255.373 519.831 255.453 519.544 255.447C519.257 255.442 518.978 255.352 518.743 255.188C518.507 255.024 518.326 254.793 518.221 254.526C518.117 254.259 518.094 253.967 518.155 253.686C518.217 253.406 518.36 253.15 518.568 252.952C518.775 252.753 519.036 252.62 519.319 252.57C519.696 252.503 520.085 252.589 520.4 252.808C520.715 253.027 520.93 253.362 520.998 253.74V253.74Z" fill="#F0F0F1"/>
<path d="M507.428 265.59C507.428 265.59 498.228 293.23 511.928 290.78C525.628 288.33 507.428 265.59 507.428 265.59Z" fill="#8CBF43"/>
<path d="M469.108 272.44C469.108 272.44 459.908 300.08 473.608 297.63C487.308 295.18 469.108 272.44 469.108 272.44Z" fill="#8CBF43"/>
<path d="M602.736 267.26L565.832 273.86L569.587 294.857L606.491 288.256L602.736 267.26Z" fill="#2B3A8C"/>
<path d="M577.489 293.423L573.621 294.115L575.716 305.829L579.584 305.137L577.489 293.423Z" fill="#F0F0F1"/>
<path d="M602.453 288.967L598.584 289.659L600.679 301.373L604.548 300.681L602.453 288.967Z" fill="#F0F0F1"/>
<path d="M573.738 285.41C573.222 285.352 572.722 285.193 572.268 284.94L572.598 283.37C572.995 283.581 573.424 283.727 573.868 283.8C574.325 283.88 574.792 283.88 575.248 283.8C575.634 283.758 575.998 283.605 576.298 283.36C576.397 283.271 576.471 283.158 576.513 283.032C576.555 282.905 576.564 282.771 576.538 282.64C576.522 282.546 576.487 282.455 576.436 282.375C576.384 282.294 576.317 282.224 576.238 282.17C576.055 282.058 575.851 281.983 575.638 281.95C575.408 281.95 575.098 281.87 574.708 281.84C574.208 281.802 573.711 281.735 573.218 281.64C572.815 281.548 572.442 281.351 572.138 281.07C571.791 280.726 571.57 280.275 571.508 279.79C571.418 279.322 571.456 278.838 571.618 278.39C571.803 277.929 572.12 277.532 572.528 277.25C573.029 276.902 573.604 276.676 574.208 276.59C574.686 276.5 575.175 276.479 575.658 276.53C576.108 276.566 576.548 276.681 576.958 276.87L576.688 278.45C575.996 278.139 575.227 278.038 574.478 278.16C574.105 278.205 573.755 278.366 573.478 278.62C573.382 278.719 573.31 278.84 573.27 278.972C573.23 279.104 573.223 279.244 573.248 279.38C573.271 279.515 573.332 279.641 573.424 279.742C573.516 279.843 573.636 279.915 573.768 279.95C574.196 280.068 574.635 280.135 575.078 280.15C575.579 280.185 576.077 280.256 576.568 280.36C576.968 280.445 577.337 280.635 577.638 280.91C577.988 281.249 578.214 281.697 578.278 282.18C578.362 282.647 578.317 283.127 578.148 283.57C577.963 284.031 577.647 284.428 577.238 284.71C576.733 285.057 576.155 285.282 575.548 285.37C574.951 285.481 574.34 285.495 573.738 285.41Z" fill="#F0F0F1"/>
<path d="M584.518 281.75L581.018 282.37L580.678 284.3L578.888 284.62L580.738 275.57L582.458 275.26L587.338 283.11L585.508 283.44L584.518 281.75ZM583.708 280.36L581.928 277.36L581.318 280.81L583.708 280.36Z" fill="#F0F0F1"/>
<path d="M586.618 274.52L588.358 274.21L589.588 281.06L593.368 280.39L593.648 281.98L588.128 282.98L586.618 274.52Z" fill="#F0F0F1"/>
<path d="M600.178 279.19L600.458 280.76L594.628 281.81L593.108 273.35L598.798 272.35L599.078 273.91L595.078 274.62L595.408 276.46L598.908 275.83L599.178 277.35L595.678 277.98L596.028 279.98L600.178 279.19Z" fill="#F0F0F1"/>
<path d="M601.286 282.445L572.454 287.602L573.059 290.988L601.892 285.832L601.286 282.445Z" fill="#F0F0F1"/>
<path d="M406.168 367.93L245.498 368C240.959 368 236.605 366.198 233.393 362.99C230.181 359.782 228.374 355.43 228.368 350.89L228.218 17.35C228.218 12.8103 230.02 8.45626 233.228 5.24433C236.437 2.03241 240.789 0.225305 245.328 0.220005L405.998 0.130005C410.538 0.135305 414.89 1.94241 418.098 5.15433C421.306 8.36626 423.108 12.7203 423.108 17.26L423.258 350.8C423.258 355.336 421.459 359.687 418.255 362.899C415.051 366.11 410.704 367.919 406.168 367.93V367.93Z" fill="#2B3A8C"/>
<path d="M408.888 8.51001H360.458C359.426 8.51266 358.436 8.92472 357.707 9.65582C356.978 10.3869 356.568 11.3774 356.568 12.41V12.41C356.568 12.9217 356.467 13.4284 356.271 13.901C356.075 14.3736 355.788 14.8028 355.425 15.1642C355.063 15.5255 354.633 15.8119 354.16 16.0068C353.687 16.2017 353.18 16.3013 352.668 16.3H298.668C297.637 16.3 296.647 15.8902 295.918 15.1607C295.188 14.4311 294.778 13.4417 294.778 12.41C294.778 11.3774 294.369 10.3869 293.64 9.65582C292.91 8.92472 291.921 8.51266 290.888 8.51001H242.448C240.695 8.51001 239.014 9.20642 237.774 10.446C236.535 11.6857 235.838 13.3669 235.838 15.12L235.988 352.95C235.991 354.704 236.69 356.385 237.931 357.625C239.172 358.864 240.854 359.56 242.608 359.56L409.048 359.48C409.916 359.48 410.776 359.309 411.578 358.977C412.38 358.645 413.109 358.158 413.722 357.544C414.336 356.93 414.823 356.201 415.155 355.4C415.487 354.598 415.658 353.738 415.658 352.87L415.508 15.13C415.508 13.3743 414.811 11.6905 413.569 10.449C412.328 9.20747 410.644 8.51001 408.888 8.51001V8.51001Z" fill="#F0F0F1"/>
<path opacity="0.3" d="M311.858 8.55004C311.86 9.24665 311.656 9.92819 311.27 10.5084C310.884 11.0885 310.335 11.5413 309.692 11.8092C309.049 12.0772 308.341 12.1483 307.658 12.0136C306.974 11.8789 306.346 11.5445 305.853 11.0526C305.36 10.5607 305.023 9.93353 304.887 9.25044C304.75 8.56736 304.819 7.85909 305.085 7.21531C305.351 6.57153 305.803 6.02119 306.382 5.63397C306.961 5.24674 307.642 5.04004 308.338 5.04004C309.27 5.04004 310.164 5.40952 310.824 6.06749C311.484 6.72545 311.856 7.61821 311.858 8.55004V8.55004Z" fill="#F0F0F1"/>
<path opacity="0.3" d="M321.898 8.55005C321.9 9.24709 321.695 9.92902 321.309 10.5094C320.923 11.0898 320.374 11.5425 319.73 11.8102C319.086 12.0778 318.378 12.1484 317.694 12.0129C317.01 11.8774 316.382 11.5419 315.889 11.0491C315.397 10.5562 315.061 9.92805 314.926 9.24431C314.79 8.56057 314.861 7.85199 315.128 7.20838C315.396 6.56478 315.849 6.01513 316.429 5.62911C317.009 5.24309 317.691 5.03808 318.388 5.04005C319.318 5.04269 320.21 5.41334 320.867 6.07102C321.525 6.7287 321.896 7.61995 321.898 8.55005V8.55005Z" fill="#F0F0F1"/>
<path opacity="0.3" d="M345.489 11.026C346.863 9.65135 346.863 7.4226 345.489 6.04795C344.114 4.6733 341.885 4.67329 340.511 6.04794C339.136 7.4226 339.136 9.65136 340.511 11.026C341.885 12.4007 344.114 12.4007 345.489 11.026Z" fill="#F0F0F1"/>
<path d="M415.588 53.5099H235.918V330.79H415.588V53.5099Z" fill="#8CBF43"/>
<path d="M277.468 53.5299L277.588 254.07" stroke="#F0F0F1" stroke-width="11.3861" stroke-miterlimit="10"/>
<path d="M277.488 111.04L415.548 110.98" stroke="#F0F0F1" stroke-width="11.3861" stroke-miterlimit="10"/>
<path d="M415.568 167.5L277.518 167.56L235.908 167.57" stroke="#F0F0F1" stroke-width="11.3861" stroke-miterlimit="10"/>
<path d="M277.558 253.45L322.008 253.44L358.168 217.25L358.138 167.52" stroke="#F0F0F1" stroke-width="11.3861" stroke-miterlimit="10"/>
<path d="M358.168 217.25L415.598 217.23" stroke="#F0F0F1" stroke-width="11.3861" stroke-miterlimit="10"/>
<path d="M322.008 253.43L322.048 330.79" stroke="#F0F0F1" stroke-width="11.3861" stroke-miterlimit="10"/>
<path d="M322.028 294.92L415.628 294.88" stroke="#F0F0F1" stroke-width="11.3861" stroke-miterlimit="10"/>
<path d="M339.508 53.5001L339.528 111.02" stroke="#F0F0F1" stroke-width="11.3861" stroke-miterlimit="10"/>
<path d="M372.408 53.4901L372.428 111" stroke="#F0F0F1" stroke-width="11.3861" stroke-miterlimit="10"/>
<path d="M320.348 114.47C321.767 112.216 322.513 109.603 322.498 106.94C322.462 105.074 322.058 103.234 321.309 101.525C320.56 99.8158 319.481 98.2713 318.134 96.9799C316.787 95.6886 315.198 94.6759 313.459 93.9997C311.72 93.3236 309.864 92.9975 307.998 93.0399C305.543 93.1335 303.156 93.8715 301.077 95.1797C298.997 96.488 297.298 98.3205 296.151 100.493C295.004 102.666 294.449 105.102 294.541 107.557C294.634 110.012 295.371 112.4 296.678 114.48L305.788 130.48C306.065 130.96 306.462 131.358 306.942 131.635C307.421 131.913 307.965 132.058 308.518 132.058C309.072 132.058 309.616 131.913 310.095 131.635C310.574 131.358 310.972 130.96 311.248 130.48L320.348 114.47Z" fill="#28A8DF"/>
<path d="M308.508 101.41L302.848 104L302.858 113.98H306.798L306.788 108.75H310.228V113.98H314.168V103.99L308.508 101.41Z" fill="#F0F0F1"/>
<path d="M369.999 294.06C371.412 291.805 372.144 289.191 372.109 286.53C372.072 284.664 371.668 282.824 370.919 281.115C370.17 279.406 369.091 277.861 367.744 276.57C366.397 275.279 364.808 274.266 363.069 273.59C361.33 272.914 359.474 272.588 357.609 272.63C355.154 272.725 352.768 273.464 350.69 274.773C348.612 276.082 346.915 277.915 345.769 280.087C344.623 282.26 344.068 284.695 344.161 287.15C344.254 289.604 344.991 291.991 346.299 294.07L355.409 310.02C355.681 310.503 356.077 310.904 356.556 311.184C357.035 311.463 357.579 311.61 358.134 311.61C358.688 311.61 359.232 311.463 359.711 311.184C360.19 310.904 360.586 310.503 360.859 310.02L369.999 294.06Z" fill="#1C75BB"/>
<path d="M358.158 281L352.508 283.59V293.57H356.448V288.35L359.878 288.34L359.888 293.57H363.818V283.58L358.158 281Z" fill="#F0F0F1"/>
<path d="M282.538 269.44C284.532 266.259 285.573 262.574 285.538 258.82C285.486 256.191 284.916 253.598 283.861 251.189C282.806 248.78 281.286 246.603 279.388 244.783C277.491 242.962 275.253 241.534 272.802 240.579C270.352 239.625 267.737 239.163 265.108 239.22C260.005 239.409 255.174 241.569 251.63 245.247C248.087 248.925 246.108 253.833 246.108 258.94C246.103 262.662 247.161 266.309 249.158 269.45L261.998 291.94C262.384 292.62 262.943 293.186 263.618 293.579C264.294 293.973 265.062 294.18 265.843 294.18C266.625 294.18 267.393 293.973 268.068 293.579C268.744 293.186 269.303 292.62 269.688 291.94L282.538 269.44Z" fill="#1C75BB"/>
<path d="M265.848 251.02L257.878 254.68V268.75H263.428V261.38H268.278V268.75L273.828 268.74L273.818 254.67L265.848 251.02Z" fill="#F0F0F1"/>
<path d="M256.278 41.4801L250.588 36.9601L256.278 32.4401" stroke="#2B3A8C" stroke-width="2.00931" stroke-miterlimit="10"/>
<path d="M394.298 32.38L404.098 32.37" stroke="#2B3A8C" stroke-width="2.00931" stroke-miterlimit="10"/>
<path d="M394.298 36.9H404.098" stroke="#2B3A8C" stroke-width="2.00931" stroke-miterlimit="10"/>
<path d="M394.308 41.42H404.098" stroke="#2B3A8C" stroke-width="2.00931" stroke-miterlimit="10"/>
<path d="M295.598 37.49C295.145 37.3748 294.717 37.1746 294.338 36.9L294.888 35.67C295.579 36.1389 296.393 36.3929 297.228 36.4C297.573 36.4173 297.917 36.3486 298.228 36.2C298.33 36.1451 298.414 36.0643 298.474 35.966C298.534 35.8676 298.566 35.7551 298.568 35.64C298.568 35.5611 298.549 35.4833 298.515 35.4124C298.48 35.3414 298.43 35.2791 298.368 35.23C298.222 35.1011 298.047 35.0086 297.858 34.96C297.658 34.89 297.378 34.82 297.028 34.73C296.577 34.6335 296.133 34.5065 295.698 34.35C295.356 34.2237 295.053 34.0099 294.818 33.73C294.558 33.4129 294.426 33.0097 294.448 32.6C294.445 32.2021 294.559 31.8122 294.778 31.48C295.03 31.127 295.377 30.8529 295.778 30.69C296.299 30.4793 296.857 30.3805 297.418 30.4C297.867 30.3983 298.313 30.4521 298.748 30.56C299.147 30.652 299.529 30.8073 299.878 31.02L299.368 32.27C298.763 31.9105 298.073 31.7173 297.368 31.71C297.021 31.692 296.676 31.768 296.368 31.93C296.269 31.9923 296.187 32.0793 296.13 32.1828C296.074 32.2862 296.046 32.4024 296.048 32.52C296.048 32.6383 296.084 32.7539 296.152 32.8506C296.22 32.9474 296.317 33.0206 296.428 33.06C296.797 33.2196 297.183 33.337 297.578 33.41C298.118 33.54 298.578 33.67 298.908 33.79C299.248 33.9159 299.551 34.1257 299.788 34.4C300.049 34.7131 300.181 35.1133 300.158 35.52C300.16 35.9144 300.045 36.3006 299.828 36.63C299.576 36.9823 299.229 37.2561 298.828 37.42C298.305 37.634 297.743 37.7362 297.178 37.72C296.644 37.7163 296.112 37.6389 295.598 37.49Z" fill="black"/>
<path d="M306.828 36.2799V37.5899H301.348V30.5199H306.698V31.8299H302.968V33.3699H306.258V34.6399H302.968V36.2799H306.828Z" fill="black"/>
<path d="M312.798 36.0699H309.508L308.878 37.5899H307.198L310.358 30.5099H311.968L315.108 37.5899H313.388L312.798 36.0699ZM312.278 34.8299L311.158 32.1299L310.028 34.8399L312.278 34.8299Z" fill="black"/>
<path d="M320.388 37.59L319.028 35.59H317.518V37.59H315.878V30.51H318.938C319.501 30.4969 320.06 30.6025 320.578 30.82C320.9 30.9732 321.185 31.1924 321.416 31.4635C321.647 31.7345 321.818 32.0512 321.918 32.3929C322.018 32.7346 322.045 33.0936 321.997 33.4463C321.949 33.7991 321.826 34.1377 321.638 34.44C321.374 34.832 320.998 35.1352 320.558 35.31L322.108 37.59H320.388ZM319.968 32.13C319.644 31.8963 319.248 31.7832 318.848 31.81H317.518V34.28H318.848C319.251 34.305 319.649 34.1922 319.978 33.96C320.105 33.846 320.205 33.7052 320.271 33.5478C320.337 33.3904 320.367 33.2204 320.358 33.05C320.369 32.8769 320.339 32.7037 320.272 32.5441C320.204 32.3844 320.1 32.2427 319.968 32.13V32.13Z" fill="black"/>
<path d="M324.748 37.24C324.176 36.9401 323.698 36.4864 323.368 35.93C323.032 35.3613 322.859 34.7108 322.868 34.05C322.855 33.3962 323.023 32.7513 323.353 32.1866C323.683 31.622 324.162 31.1594 324.738 30.85C325.355 30.5282 326.043 30.3666 326.738 30.38C327.309 30.3704 327.875 30.4829 328.398 30.71C328.887 30.9101 329.316 31.23 329.648 31.64L328.598 32.64C328.384 32.3756 328.113 32.1634 327.804 32.0196C327.496 31.8757 327.159 31.8041 326.818 31.81C326.41 31.8038 326.007 31.9037 325.648 32.1C325.309 32.2862 325.029 32.5632 324.838 32.9C324.648 33.2601 324.551 33.6626 324.558 34.07C324.549 34.4822 324.649 34.8895 324.848 35.25C325.035 35.5865 325.312 35.8637 325.648 36.05C326.007 36.2464 326.41 36.3463 326.818 36.34C327.159 36.3441 327.497 36.2705 327.805 36.125C328.113 35.9795 328.385 35.7658 328.598 35.5L329.658 36.5C329.321 36.9112 328.889 37.2338 328.398 37.44C327.821 37.6795 327.198 37.791 326.573 37.7668C325.948 37.7427 325.336 37.5834 324.778 37.3L324.748 37.24Z" fill="black"/>
<path d="M337.218 30.5001V37.5801H335.578V34.6801H332.358V37.5801H330.718V30.5001H332.358V33.2901H335.578V30.5001H337.218Z" fill="black"/>
<path d="M338.898 30.5001H340.528V37.5801H338.888L338.898 30.5001Z" fill="black"/>
<path d="M348.708 30.4901V37.5701H347.368L343.828 33.2801V37.5801H342.208V30.5001H343.568L347.108 34.7901V30.4901H348.708Z" fill="black"/>
<path d="M355.168 33.92H356.668V36.79C356.267 37.0877 355.817 37.3143 355.338 37.46C354.843 37.6145 354.327 37.6921 353.808 37.69C353.112 37.7102 352.423 37.5482 351.808 37.22C351.233 36.9243 350.752 36.4741 350.418 35.92C350.09 35.3459 349.918 34.6962 349.918 34.035C349.918 33.3739 350.09 32.7241 350.418 32.15C350.755 31.5955 351.235 31.1428 351.808 30.84C352.427 30.5233 353.114 30.362 353.808 30.37C354.39 30.361 354.968 30.4664 355.508 30.68C355.996 30.8819 356.431 31.1933 356.778 31.59L355.728 32.59C355.496 32.3375 355.213 32.1366 354.897 32.0005C354.582 31.8644 354.242 31.7961 353.898 31.8C353.478 31.7897 353.062 31.886 352.688 32.08C352.347 32.2626 352.065 32.5405 351.878 32.88C351.674 33.2393 351.571 33.6469 351.578 34.06C351.572 34.473 351.676 34.8802 351.878 35.24C352.065 35.5795 352.347 35.8575 352.688 36.04C353.054 36.2363 353.464 36.3361 353.878 36.33C354.322 36.3393 354.759 36.2324 355.148 36.02L355.168 33.92Z" fill="black"/>
<path d="M480.409 108.86C479.986 113.446 478.213 117.804 475.314 121.383C472.415 124.962 468.52 127.601 464.121 128.966C459.723 130.332 455.018 130.362 450.602 129.054C446.186 127.746 442.257 125.158 439.312 121.617C436.366 118.076 434.537 113.742 434.055 109.161C433.573 104.581 434.459 99.9605 436.603 95.884C438.746 91.8075 442.05 88.4581 446.097 86.2592C450.144 84.0602 454.752 83.1105 459.339 83.5301C465.488 84.1033 471.16 87.0916 475.109 91.8399C479.059 96.5882 480.965 102.709 480.409 108.86V108.86Z" stroke="black" stroke-width="3" stroke-miterlimit="10"/>
<path d="M505.618 132.02C511.327 130.087 516.297 126.435 519.847 121.565C523.398 116.695 525.354 110.846 525.448 104.82L582.268 85.57C582.528 85.4819 582.767 85.3389 582.967 85.1509C583.167 84.9629 583.324 84.7341 583.428 84.48L587.428 74.81C587.604 74.3825 587.619 73.9056 587.47 73.468C587.321 73.0303 587.019 72.6615 586.618 72.43L577.618 67.15C577.382 67.0116 577.118 66.9256 576.846 66.898C576.573 66.8704 576.298 66.9018 576.038 66.99L569.038 69.37C568.797 69.4532 568.575 69.5847 568.385 69.7567C568.196 69.9286 568.044 70.1373 567.938 70.37L565.778 74.73C565.553 75.1859 565.155 75.5336 564.673 75.6967C564.192 75.8598 563.665 75.8251 563.208 75.6L560.128 74.08C559.672 73.855 559.145 73.8202 558.663 73.9833C558.182 74.1464 557.784 74.4941 557.558 74.95L556.038 78.03C555.928 78.2554 555.773 78.4567 555.585 78.6225C555.396 78.7882 555.177 78.9151 554.939 78.9959C554.701 79.0768 554.45 79.1099 554.199 79.0934C553.948 79.077 553.704 79.0112 553.478 78.9L549.108 76.75C548.884 76.6377 548.639 76.571 548.388 76.5538C548.138 76.5367 547.886 76.5693 547.648 76.65L542.988 78.23C542.746 78.3141 542.523 78.4459 542.332 78.6176C542.142 78.7894 541.987 78.9976 541.878 79.23L539.728 83.6C539.503 84.0559 539.105 84.4036 538.623 84.5667C538.142 84.7298 537.615 84.6951 537.158 84.47L532.078 81.96L530.338 77.13C530.244 76.8576 530.089 76.61 529.886 76.4055C529.683 76.201 529.436 76.0449 529.164 75.9489C528.892 75.8528 528.602 75.8192 528.316 75.8506C528.029 75.8819 527.753 75.9774 527.508 76.13L516.278 83.13C512.516 79.5853 507.881 77.1028 502.845 75.936C497.81 74.7692 492.555 74.96 487.617 76.4889C482.68 78.0177 478.236 80.8298 474.741 84.638C471.246 88.4461 468.824 93.1138 467.724 98.1641C466.623 103.214 466.883 108.467 468.476 113.384C470.069 118.301 472.939 122.707 476.793 126.152C480.647 129.597 485.346 131.957 490.41 132.992C495.474 134.026 500.723 133.698 505.618 132.04V132.02ZM481.238 101.61C482.628 101.14 484.127 101.092 485.544 101.474C486.961 101.855 488.233 102.648 489.199 103.752C490.166 104.856 490.783 106.222 490.973 107.677C491.164 109.132 490.918 110.61 490.268 111.926C489.618 113.242 488.592 114.335 487.321 115.067C486.05 115.8 484.59 116.14 483.126 116.043C481.661 115.946 480.259 115.417 479.095 114.523C477.932 113.629 477.059 112.41 476.588 111.02C476.274 110.097 476.145 109.121 476.209 108.148C476.273 107.175 476.528 106.224 476.96 105.35C477.392 104.476 477.992 103.695 478.727 103.053C479.461 102.412 480.314 101.921 481.238 101.61V101.61Z" fill="#2B3A8C"/>
<path d="M498.168 100.68C502.759 96.7864 506.035 91.5695 507.548 85.743C509.06 79.9165 508.736 73.765 506.618 68.13L552.388 29.34C552.597 29.1618 552.766 28.9413 552.883 28.693C553 28.4448 553.063 28.1745 553.068 27.9L553.188 17.45C553.194 16.9899 553.033 16.5434 552.735 16.1924C552.438 15.8415 552.023 15.6099 551.568 15.54L541.238 13.95C540.968 13.9063 540.69 13.9221 540.426 13.9964C540.162 14.0707 539.917 14.2016 539.708 14.38L534.108 19.13C533.725 19.4616 533.482 19.9262 533.428 20.43L533.028 25.29C533.008 25.5403 532.939 25.7841 532.824 26.0075C532.71 26.2309 532.553 26.4295 532.361 26.5921C532.17 26.7546 531.948 26.8778 531.709 26.9547C531.47 27.0316 531.219 27.0606 530.968 27.04L527.538 26.76C527.032 26.7185 526.53 26.8793 526.142 27.2074C525.754 27.5354 525.512 28.0038 525.468 28.51L525.108 31.93C525.068 32.4252 524.836 32.8851 524.463 33.2134C524.09 33.5416 523.605 33.7124 523.108 33.69L518.258 33.29C518.008 33.2658 517.754 33.2922 517.514 33.3678C517.273 33.4434 517.05 33.5666 516.858 33.73L513.108 36.91C512.916 37.0732 512.757 37.2731 512.642 37.4979C512.527 37.7228 512.458 37.9682 512.438 38.22L512.038 43.07C511.995 43.5763 511.753 44.0447 511.365 44.3727C510.977 44.7007 510.475 44.8616 509.968 44.82L504.328 44.36L501.088 40.53C500.9 40.3124 500.666 40.1396 500.402 40.0244C500.138 39.9091 499.852 39.8543 499.565 39.8639C499.277 39.8734 498.995 39.9472 498.74 40.0798C498.484 40.2124 498.262 40.4004 498.088 40.63L490.108 51.27C485.305 49.3528 480.079 48.7453 474.964 49.5094C469.849 50.2735 465.029 52.382 460.996 55.6193C456.963 58.8565 453.861 63.1066 452.009 67.935C450.156 72.7635 449.618 77.9973 450.451 83.1015C451.284 88.2057 453.457 92.9974 456.748 96.9868C460.039 100.976 464.33 104.02 469.183 105.808C474.036 107.596 479.276 108.063 484.369 107.162C489.461 106.261 494.224 104.024 498.168 100.68V100.68ZM464.318 81.35C465.439 80.3991 466.816 79.8019 468.276 79.6339C469.736 79.4659 471.214 79.7347 472.521 80.4062C473.828 81.0778 474.907 82.1219 475.621 83.4066C476.334 84.6912 476.651 86.1587 476.531 87.6235C476.411 89.0882 475.859 90.4843 474.945 91.6353C474.031 92.7863 472.796 93.6404 471.397 94.0896C469.998 94.5388 468.496 94.563 467.083 94.159C465.67 93.755 464.409 92.941 463.458 91.82C462.187 90.3163 461.564 88.3699 461.725 86.4073C461.886 84.4447 462.819 82.6261 464.318 81.35V81.35Z" fill="black"/>
<path d="M470.309 150.63L451.809 108.37C451.735 108.204 451.622 108.059 451.479 107.947C451.336 107.835 451.167 107.761 450.989 107.73L405.469 100.25C405.281 100.224 405.089 100.249 404.914 100.321C404.738 100.393 404.584 100.51 404.469 100.66L364.359 152.28C364.18 152.51 364.1 152.801 364.136 153.089C364.171 153.378 364.32 153.64 364.549 153.82L385.029 169.73C385.141 169.818 385.271 169.883 385.409 169.921C385.547 169.959 385.691 169.97 385.833 169.952C385.975 169.934 386.112 169.889 386.237 169.818C386.361 169.747 386.471 169.653 386.559 169.54L412.369 136.32C412.55 136.093 412.812 135.947 413.1 135.911C413.388 135.876 413.678 135.954 413.909 136.13L433.499 151.36C433.611 151.448 433.706 151.557 433.777 151.682C433.847 151.806 433.893 151.943 433.91 152.086C433.928 152.228 433.918 152.372 433.88 152.51C433.841 152.648 433.777 152.777 433.689 152.89L407.839 186.13C407.751 186.243 407.687 186.373 407.65 186.512C407.612 186.65 407.603 186.794 407.621 186.936C407.64 187.079 407.686 187.216 407.758 187.34C407.829 187.464 407.925 187.573 408.039 187.66L428.519 203.58C428.632 203.667 428.762 203.732 428.9 203.769C429.039 203.806 429.183 203.816 429.325 203.797C429.467 203.779 429.604 203.732 429.728 203.661C429.852 203.589 429.961 203.494 430.049 203.38L470.169 151.76C470.294 151.603 470.373 151.414 470.398 151.215C470.423 151.015 470.392 150.813 470.309 150.63V150.63ZM434.409 129.92C433.25 129.019 432.384 127.795 431.922 126.402C431.459 125.009 431.42 123.51 431.809 122.095C432.198 120.68 432.998 119.412 434.108 118.452C435.218 117.491 436.587 116.881 438.044 116.7C439.5 116.518 440.978 116.772 442.29 117.43C443.602 118.088 444.689 119.12 445.414 120.396C446.139 121.672 446.47 123.134 446.364 124.598C446.258 126.062 445.72 127.462 444.819 128.62C443.61 130.172 441.835 131.181 439.883 131.425C437.931 131.669 435.962 131.128 434.409 129.92V129.92Z" fill="#2B3A8C"/>
<path d="M311.014 310.912C336.121 285.805 336.121 245.099 311.014 219.992C285.907 194.885 245.201 194.885 220.094 219.992C194.987 245.099 194.987 285.805 220.094 310.912C245.201 336.019 285.907 336.019 311.014 310.912Z" stroke="black" stroke-width="15" stroke-miterlimit="10"/>
<path d="M205.018 287.11L158.948 303.59" stroke="black" stroke-width="15" stroke-miterlimit="10"/>
<path d="M158.948 303.59L81.2683 331.38" stroke="#1C75BB" stroke-width="24" stroke-linecap="round" stroke-linejoin="round"/>
</svg>
