<svg width="246" height="146" viewBox="0 0 246 146" fill="none" xmlns="http://www.w3.org/2000/svg">
<g clip-path="url(#clip0)">
<path d="M226.775 74.7662H204.975C204.617 74.7666 204.262 74.6964 203.93 74.5596C203.599 74.4227 203.298 74.2219 203.044 73.9686C202.791 73.7153 202.589 73.4145 202.452 73.0834C202.315 72.7523 202.244 72.3973 202.244 72.0389V41.8621C202.244 41.5037 202.315 41.1487 202.452 40.8176C202.589 40.4865 202.791 40.1857 203.044 39.9324C203.298 39.6791 203.599 39.4782 203.93 39.3414C204.262 39.2045 204.617 39.1344 204.975 39.1348H218.799L229.495 50.1665V72.0389C229.495 72.7609 229.209 73.4535 228.699 73.9648C228.189 74.4761 227.497 74.7642 226.775 74.7662Z" fill="#EBEBEB"/>
<path d="M218.799 39.1349V47.6266C218.799 47.9593 218.865 48.2887 218.993 48.5959C219.12 48.903 219.308 49.1818 219.544 49.4163C219.78 49.6507 220.06 49.8361 220.368 49.9617C220.676 50.0874 221.006 50.1509 221.339 50.1485H229.495L218.799 39.1349Z" fill="#F5F5F5"/>
<path d="M218.911 48.3723C218.911 48.3723 218.806 50.4331 221.148 51.1104C221.237 51.1348 221.327 51.154 221.418 51.1681C222.499 51.359 229.503 52.6092 229.503 52.447V50.1665H221.339C221.339 50.1665 219.3 50.0944 218.911 48.3723Z" fill="#E0E0E0"/>
<path d="M226.775 74.7662C226.775 74.7662 226.937 74.7662 227.247 74.7121C227.701 74.6264 228.126 74.4282 228.483 74.1357C228.769 73.8988 229.004 73.6054 229.172 73.2738C229.34 72.9421 229.438 72.5794 229.459 72.2082C229.459 71.3291 229.459 70.3095 229.459 69.1675C229.459 64.5992 229.438 58.0637 229.423 50.1665L229.448 50.2205L218.734 39.1961L218.799 39.2249H205.587C205.239 39.2096 204.889 39.2216 204.543 39.2609C203.959 39.3575 203.425 39.6479 203.027 40.0852C202.629 40.5225 202.39 41.0813 202.348 41.6712C202.348 42.154 202.348 42.6583 202.348 43.1483V51.8526C202.348 55.6247 202.348 59.2635 202.348 62.7293C202.348 64.4659 202.348 66.1556 202.348 67.7984V70.2231C202.348 70.623 202.348 71.0157 202.348 71.4084C202.33 71.7922 202.347 72.1769 202.399 72.5577C202.472 72.9192 202.62 73.2615 202.833 73.563C203.046 73.8644 203.319 74.1183 203.635 74.3086C203.941 74.4967 204.283 74.6194 204.64 74.6689C204.999 74.6968 205.36 74.7064 205.721 74.6977H209.835L222.254 74.7265H225.63H226.509H226.808H226.509H225.63L222.254 74.7445L209.835 74.7734H205.721C205.36 74.7842 204.999 74.7758 204.64 74.7481C204.062 74.6693 203.523 74.4126 203.098 74.0136C202.672 73.6147 202.381 73.0932 202.266 72.5216C202.211 72.1315 202.191 71.7372 202.208 71.3435V70.1582C202.208 69.3632 202.208 68.555 202.208 67.7336C202.208 66.0907 202.208 64.401 202.208 62.6645C202.208 59.1986 202.208 55.5598 202.208 51.7877C202.208 49.8999 202.208 47.9784 202.208 46.0233V43.0799C202.208 42.5863 202.208 42.0999 202.208 41.5883C202.253 40.9572 202.51 40.3597 202.936 39.8919C203.362 39.424 203.933 39.113 204.557 39.0087C204.916 38.967 205.277 38.9538 205.638 38.9691H218.889L218.914 38.9943L229.56 50.1233L229.582 50.1485V50.1809C229.582 58.0782 229.557 64.6136 229.549 69.1819C229.549 70.3239 229.549 71.3435 229.528 72.2298C229.49 72.846 229.244 73.4311 228.831 73.8894C228.417 74.3476 227.86 74.6516 227.251 74.7517C227.132 74.7741 227.011 74.7849 226.89 74.7842L226.775 74.7662Z" fill="#E0E0E0"/>
<path d="M229.495 50.1665C229.426 50.1718 229.356 50.1718 229.286 50.1665L228.685 50.1845L226.472 50.2133H223.19H221.252C220.706 50.1965 220.179 50.0106 219.744 49.6815C219.308 49.3524 218.986 48.8962 218.82 48.3759C218.719 48.0386 218.679 47.6861 218.701 47.3347C218.701 46.6646 218.701 46.0161 218.701 45.3964C218.701 44.1679 218.701 43.0583 218.723 42.1179C218.745 41.1776 218.745 40.4535 218.752 39.9058C218.752 39.6608 218.752 39.4627 218.752 39.3042C218.746 39.2346 218.746 39.1648 218.752 39.0952C218.768 39.1636 218.775 39.2339 218.773 39.3042C218.773 39.4627 218.773 39.6645 218.773 39.9058C218.773 40.4535 218.773 41.2028 218.802 42.1179C218.831 43.033 218.802 44.1679 218.802 45.3964C218.802 46.0161 218.802 46.6646 218.802 47.3347C218.775 47.6704 218.815 48.0081 218.92 48.328C219.025 48.6479 219.193 48.9435 219.415 49.1974C219.635 49.4493 219.905 49.6532 220.207 49.7963C220.51 49.9395 220.838 50.0189 221.173 50.0296H223.107L226.39 50.0512L228.602 50.08L229.203 50.0981C229.304 50.1024 229.403 50.1256 229.495 50.1665Z" fill="#E0E0E0"/>
<path d="M218.388 46.7115C218.388 46.7655 215.812 46.8051 212.624 46.8051C209.435 46.8051 206.859 46.7655 206.859 46.7115C206.859 46.6574 209.435 46.6178 212.624 46.6178C215.812 46.6178 218.388 46.661 218.388 46.7115Z" fill="#E0E0E0"/>
<path d="M223.847 50.9483C223.847 50.9987 220.049 51.042 215.366 51.042C210.682 51.042 206.885 50.9987 206.885 50.9483C206.885 50.8978 210.682 50.8546 215.366 50.8546C220.049 50.8546 223.847 50.8978 223.847 50.9483Z" fill="#E0E0E0"/>
<path d="M223.847 55.1852C223.847 55.2356 220.049 55.2788 215.366 55.2788C210.682 55.2788 206.885 55.2356 206.885 55.1852C206.885 55.1347 210.682 55.0915 215.366 55.0915C220.049 55.0915 223.847 55.1347 223.847 55.1852Z" fill="#E0E0E0"/>
<path d="M223.847 59.422C223.847 59.4725 220.049 59.5157 215.366 59.5157C210.682 59.5157 206.885 59.4725 206.885 59.422C206.885 59.3716 210.682 59.3284 215.366 59.3284C220.049 59.3284 223.847 59.3716 223.847 59.422Z" fill="#E0E0E0"/>
<path d="M223.847 63.6589C223.847 63.7093 220.049 63.7525 215.366 63.7525C210.682 63.7525 206.885 63.7093 206.885 63.6589C206.885 63.6084 210.682 63.5652 215.366 63.5652C220.049 63.5652 223.847 63.6084 223.847 63.6589Z" fill="#E0E0E0"/>
<path d="M223.847 68.8829C223.847 68.9369 220.049 68.9765 215.366 68.9765C210.682 68.9765 206.885 68.9369 206.885 68.8829C206.885 68.8288 210.682 68.7892 215.366 68.7892C220.049 68.7892 223.847 68.8324 223.847 68.8829Z" fill="#E0E0E0"/>
<path d="M214.353 60.5641H198.876C198.036 60.5641 197.355 61.2448 197.355 62.0845V67.3661C197.355 68.2058 198.036 68.8865 198.876 68.8865H214.353C215.193 68.8865 215.874 68.2058 215.874 67.3661V62.0845C215.874 61.2448 215.193 60.5641 214.353 60.5641Z" fill="#E0E0E0"/>
<path d="M199.503 63.277H200.944C201.974 63.277 202.681 63.8967 202.681 64.8478C202.681 65.7989 201.96 66.4222 200.944 66.4222H199.503V63.277ZM200.894 65.8241C201.027 65.8322 201.16 65.813 201.285 65.7677C201.41 65.7224 201.525 65.6519 201.622 65.5606C201.719 65.4693 201.796 65.3592 201.849 65.2369C201.902 65.1146 201.929 64.9828 201.929 64.8496C201.929 64.7164 201.902 64.5846 201.849 64.4623C201.796 64.34 201.719 64.2298 201.622 64.1386C201.525 64.0473 201.41 63.9768 201.285 63.9315C201.16 63.8862 201.027 63.8669 200.894 63.875H200.231V65.8241H200.894Z" fill="white"/>
<path d="M203.015 64.8478C202.996 64.5036 203.081 64.1618 203.259 63.8665C203.437 63.5711 203.699 63.3359 204.012 63.1912C204.324 63.0465 204.673 62.9989 205.014 63.0547C205.354 63.1105 205.669 63.267 205.919 63.5041C206.17 63.7411 206.343 64.0478 206.417 64.3844C206.491 64.721 206.462 65.072 206.334 65.3922C206.207 65.7123 205.986 65.9867 205.701 66.18C205.415 66.3732 205.078 66.4764 204.734 66.4762C204.512 66.489 204.291 66.4563 204.082 66.3802C203.874 66.304 203.683 66.1861 203.522 66.0335C203.361 65.881 203.233 65.697 203.146 65.4931C203.059 65.2892 203.014 65.0696 203.015 64.8478ZM205.717 64.8478C205.712 64.6544 205.651 64.4668 205.539 64.3084C205.428 64.15 205.273 64.0279 205.093 63.9573C204.913 63.8867 204.716 63.8708 204.527 63.9115C204.338 63.9523 204.165 64.0479 204.03 64.1864C203.895 64.3249 203.804 64.5001 203.768 64.6902C203.732 64.8803 203.753 65.0767 203.828 65.255C203.903 65.4332 204.029 65.5854 204.19 65.6924C204.351 65.7994 204.54 65.8565 204.734 65.8565C204.866 65.8602 204.998 65.8364 205.12 65.7867C205.243 65.737 205.354 65.6624 205.447 65.5676C205.539 65.4728 205.611 65.3599 205.657 65.236C205.704 65.1122 205.724 64.98 205.717 64.8478Z" fill="white"/>
<path d="M206.798 64.8478C206.815 64.5074 206.933 64.1798 207.136 63.9061C207.339 63.6324 207.618 63.4247 207.939 63.3093C208.26 63.1938 208.607 63.1756 208.938 63.2571C209.269 63.3385 209.568 63.5159 209.799 63.7669L209.334 64.1957C209.237 64.081 209.115 63.9893 208.978 63.927C208.841 63.8648 208.692 63.8335 208.542 63.8354C208.285 63.8508 208.044 63.9635 207.868 64.1507C207.691 64.3378 207.593 64.5853 207.593 64.8424C207.593 65.0995 207.691 65.3469 207.868 65.534C208.044 65.7212 208.285 65.834 208.542 65.8493C208.692 65.8525 208.842 65.8218 208.979 65.7595C209.116 65.6971 209.238 65.6047 209.334 65.4891L209.799 65.9214C209.568 66.1725 209.269 66.3499 208.938 66.4313C208.607 66.5127 208.26 66.4945 207.939 66.3791C207.618 66.2636 207.339 66.056 207.136 65.7822C206.933 65.5085 206.815 65.1809 206.798 64.8406V64.8478Z" fill="white"/>
<path d="M212.202 66.4222L211.446 65.3414L210.7 66.4222H209.864L211.028 64.8226L209.922 63.277H210.761L211.482 64.2966L212.202 63.277H212.988L211.907 64.7937L213.078 66.4222H212.202Z" fill="white"/>
<path d="M200.897 113.73L184.389 142.606L151.723 143.075C151.222 143.082 150.743 143.279 150.382 143.626C150.021 143.973 149.805 144.444 149.777 144.944L182.995 145.038L184.245 144.995L225.835 145.078L234.24 130.584L244.987 115.196C245.146 114.968 245.238 114.7 245.255 114.422C245.271 114.144 245.211 113.867 245.081 113.621C244.951 113.375 244.756 113.17 244.517 113.027C244.278 112.884 244.005 112.809 243.727 112.811L202.208 112.97C201.942 112.971 201.681 113.042 201.451 113.175C201.221 113.308 201.03 113.5 200.897 113.73Z" fill="#EBEBEB"/>
<path d="M244.987 113.892C244.923 113.908 244.856 113.916 244.789 113.914L244.206 113.932L241.957 113.971L233.7 114.036L206.438 114.108H204.456C204.163 114.081 203.867 114.134 203.601 114.261C203.334 114.387 203.107 114.584 202.943 114.829C202.316 115.955 201.7 117.067 201.095 118.165L197.586 124.491L191.63 135.195L187.581 142.401C187.109 143.226 186.734 143.874 186.464 144.35C186.342 144.552 186.244 144.71 186.161 144.851C186.131 144.909 186.093 144.964 186.05 145.013C186.065 144.948 186.091 144.886 186.125 144.829L186.392 144.307L187.44 142.322C188.388 140.578 189.728 138.103 191.375 135.058L197.258 124.311L200.742 117.974L202.601 114.609C202.804 114.309 203.082 114.068 203.408 113.911C203.734 113.753 204.095 113.685 204.456 113.712H206.438L233.689 113.77L241.947 113.838L244.195 113.874L244.778 113.896C244.847 113.884 244.918 113.883 244.987 113.892Z" fill="#E0E0E0"/>
<path d="M215.715 128.419C214.995 129.233 214.962 130.414 215.675 131.056C216.389 131.697 217.563 131.56 218.298 130.746C219.033 129.932 219.051 128.75 218.338 128.109C217.625 127.467 216.45 127.604 215.715 128.419Z" fill="white"/>
<path d="M5.51209 114.274V131.546H2.62988V133.419H5.51209V144.977H59.4022V134.457H55.4104V132.165H59.4022V128.732H61.1784V127.168H59.0852V114.274H5.51209Z" fill="#F5F5F5"/>
<path d="M45.0918 114.324V144.782H59.402V134.266H55.4101V132.165L59.402 132.237V128.8L61.2106 128.804L61.1781 127.028L59.0705 126.977V114.274L45.0918 114.324Z" fill="#E0E0E0"/>
<path d="M46.115 133.167C46.115 133.275 36.3623 133.358 24.3363 133.358C12.3103 133.358 2.55762 133.275 2.55762 133.167C2.55762 133.059 12.3031 132.987 24.3327 132.987C36.3623 132.987 46.115 133.062 46.115 133.167Z" fill="#E0E0E0"/>
<path d="M46.115 131.412C46.115 131.521 36.3623 131.607 24.3363 131.607C12.3103 131.607 2.55762 131.521 2.55762 131.412C2.55762 131.304 12.3067 131.221 24.3363 131.221C36.3659 131.221 46.115 131.308 46.115 131.412Z" fill="#E0E0E0"/>
<path d="M48.9106 126.693C48.9106 126.801 39.1579 126.884 27.1319 126.884C15.1059 126.884 5.34961 126.801 5.34961 126.693C5.34961 126.585 15.1023 126.502 27.1319 126.502C39.1615 126.502 48.9106 126.588 48.9106 126.693Z" fill="#E0E0E0"/>
<path d="M49.1775 139.558C49.1775 139.663 39.4284 139.749 27.3988 139.749C15.3692 139.749 5.62012 139.663 5.62012 139.558C5.62012 139.454 15.3692 139.367 27.3988 139.367C39.4284 139.367 49.1775 139.45 49.1775 139.558Z" fill="#E0E0E0"/>
<path d="M185.34 40.7741H164.044C163.337 40.7741 162.659 40.4932 162.159 39.9933C161.659 39.4933 161.378 38.8152 161.378 38.1081V8.63028C161.378 7.9232 161.659 7.24508 162.159 6.7451C162.659 6.24512 163.337 5.96423 164.044 5.96423H177.551L187.999 16.7401V38.1081C187.999 38.8139 187.719 39.4909 187.22 39.9907C186.722 40.4905 186.046 40.7722 185.34 40.7741Z" fill="#EBEBEB"/>
<path d="M177.551 5.96423V14.2506C177.551 14.908 177.812 15.5384 178.277 16.0033C178.742 16.4681 179.372 16.7293 180.029 16.7293H188.006L177.551 5.96423Z" fill="#F5F5F5"/>
<path d="M177.659 14.9891C177.659 14.9891 177.554 17.0031 179.846 17.6624C179.932 17.6876 180.019 17.7056 180.109 17.7236C181.15 17.9074 188.006 19.1287 188.006 18.9702V16.7401H180.03C180.03 16.7401 178.037 16.6752 177.659 14.9891Z" fill="#E0E0E0"/>
<path d="M185.34 40.7741C185.34 40.7741 185.502 40.7741 185.801 40.72C186.245 40.6364 186.66 40.4418 187.008 40.1544C187.289 39.9248 187.518 39.6393 187.683 39.3162C187.847 38.9931 187.943 38.6393 187.963 38.2774C187.963 37.4163 187.963 36.4183 187.963 35.3051C187.963 30.8413 187.941 24.4572 187.927 16.7401L187.948 16.7977C184.785 13.5552 181.255 9.90561 177.5 6.02904L177.565 6.05426H164.646C164.304 6.04191 163.962 6.05515 163.623 6.09389C163.053 6.18677 162.532 6.46936 162.144 6.89578C161.755 7.3222 161.522 7.8674 161.483 8.44289C161.465 8.91485 161.483 9.40843 161.483 9.884V18.3901C161.483 22.0757 161.483 25.6317 161.483 29.0183C161.483 30.6996 161.483 32.3484 161.483 33.9649C161.483 34.7671 161.483 35.5573 161.483 36.3355V37.5136C161.465 37.8878 161.482 38.2629 161.533 38.634C161.604 38.9873 161.747 39.3219 161.954 39.6166C162.161 39.9112 162.428 40.1594 162.736 40.3454C163.036 40.5322 163.371 40.6549 163.72 40.7056C164.069 40.7334 164.419 40.743 164.768 40.7345H168.785L180.92 40.7633H184.216H185.073H185.365H185.073H184.216L180.92 40.7813L168.785 40.8101H164.768C164.408 40.8217 164.047 40.8133 163.687 40.7849C163.125 40.7088 162.599 40.4601 162.184 40.0729C161.768 39.6858 161.483 39.1793 161.367 38.6232C161.314 38.2427 161.295 37.8579 161.313 37.4739V36.3355C161.313 35.5573 161.313 34.7683 161.313 33.9649C161.313 32.3604 161.313 30.7116 161.313 29.0183C161.313 25.6317 161.313 22.0757 161.313 18.3901C161.313 16.5455 161.313 14.6709 161.313 12.7662V9.884C161.313 9.40123 161.313 8.92566 161.313 8.44289C161.347 7.9367 161.522 7.45006 161.818 7.03781C162.247 6.44178 162.894 6.04014 163.619 5.92096C163.97 5.88285 164.322 5.8696 164.675 5.88133H177.616L177.645 5.91015C181.377 9.77231 184.901 13.4255 188.064 16.686L188.085 16.7112V16.7401C188.085 24.4572 188.06 30.8413 188.053 35.3051C188.053 36.4219 188.053 37.4127 188.031 38.281C188.007 38.6509 187.907 39.0119 187.736 39.3411C187.566 39.6703 187.329 39.9607 187.041 40.194C186.683 40.4813 186.257 40.67 185.805 40.7417C185.686 40.7645 185.565 40.7754 185.445 40.7741C185.41 40.7759 185.375 40.7759 185.34 40.7741Z" fill="#E0E0E0"/>
<path d="M188.007 16.7401C187.939 16.7563 187.87 16.7636 187.801 16.7617L187.214 16.7797L185.052 16.8086H181.849H179.954C179.602 16.7978 179.255 16.7148 178.936 16.5649C178.617 16.4149 178.332 16.2011 178.099 15.9367C177.861 15.6683 177.683 15.3528 177.576 15.0108C177.479 14.6814 177.439 14.3378 177.458 13.9948C177.458 13.3391 177.458 12.705 177.458 12.1034C177.458 10.9 177.458 9.8156 177.479 8.89689C177.501 7.97819 177.501 7.27205 177.508 6.73523C177.508 6.49745 177.508 6.3029 177.508 6.14798C177.504 6.07902 177.51 6.00986 177.526 5.94263C177.54 6.01021 177.546 6.07908 177.544 6.14798L177.562 6.73523C177.562 7.27205 177.58 8.00341 177.591 8.89689C177.602 9.79038 177.591 10.9 177.613 12.1034C177.613 12.705 177.613 13.3391 177.613 13.9948C177.589 14.3196 177.63 14.6459 177.732 14.955C177.835 15.2641 177.997 15.5499 178.211 15.7962C178.427 16.0412 178.691 16.2395 178.986 16.3789C179.282 16.5182 179.603 16.5958 179.929 16.6068H181.821L185.023 16.6284L187.185 16.6572H187.772C187.853 16.6776 187.931 16.7053 188.007 16.7401Z" fill="#E0E0E0"/>
<path d="M177.147 13.3751C177.147 13.4291 174.625 13.4688 171.53 13.4688C168.436 13.4688 165.91 13.4291 165.91 13.3751C165.91 13.3211 168.432 13.2814 171.53 13.2814C174.629 13.2814 177.147 13.3175 177.147 13.3751Z" fill="#E0E0E0"/>
<path d="M182.479 17.5075C182.479 17.5579 178.768 17.6012 174.193 17.6012C169.617 17.6012 165.906 17.5579 165.906 17.5075C165.906 17.4571 169.617 17.4138 174.193 17.4138C178.768 17.4138 182.479 17.4571 182.479 17.5075Z" fill="#E0E0E0"/>
<path d="M182.479 21.6615C182.479 21.7119 178.768 21.7552 174.193 21.7552C169.617 21.7552 165.906 21.7119 165.906 21.6615C165.906 21.611 169.617 21.5678 174.193 21.5678C178.768 21.5678 182.479 21.593 182.479 21.6615Z" fill="#E0E0E0"/>
<path d="M182.479 25.783C182.479 25.837 178.768 25.8767 174.193 25.8767C169.617 25.8767 165.906 25.837 165.906 25.783C165.906 25.729 169.617 25.6893 174.193 25.6893C178.768 25.6893 182.479 25.7326 182.479 25.783Z" fill="#E0E0E0"/>
<path d="M182.479 29.9226C182.479 29.9766 178.768 30.0163 174.193 30.0163C169.617 30.0163 165.906 29.9766 165.906 29.9226C165.906 29.8686 169.617 29.8289 174.193 29.8289C178.768 29.8289 182.479 29.8722 182.479 29.9226Z" fill="#E0E0E0"/>
<path d="M182.479 35.0278C182.479 35.0782 178.768 35.1214 174.193 35.1214C169.617 35.1214 165.906 35.0782 165.906 35.0278C165.906 34.9773 169.617 34.9341 174.193 34.9341C178.768 34.9341 182.479 34.9917 182.479 35.0278Z" fill="#E0E0E0"/>
<path d="M173.174 26.8998H158.125C157.285 26.8998 156.604 27.5805 156.604 28.4202V33.5073C156.604 34.347 157.285 35.0277 158.125 35.0277H173.174C174.013 35.0277 174.694 34.347 174.694 33.5073V28.4202C174.694 27.5805 174.013 26.8998 173.174 26.8998Z" fill="#E0E0E0"/>
<path d="M163.677 30.6684C163.677 31.3529 163.162 31.778 162.341 31.778H161.724V32.6247H161.004V29.5515H162.33C163.162 29.5515 163.677 29.9766 163.677 30.6684ZM162.957 30.6684C162.957 30.3297 162.737 30.1352 162.304 30.1352H161.724V31.198H162.304C162.737 31.1944 162.957 30.9998 162.957 30.6684Z" fill="white"/>
<path d="M164.181 29.5515H165.575C166.58 29.5515 167.268 30.1568 167.268 31.0863C167.268 32.0158 166.58 32.6211 165.575 32.6211H164.181V29.5515ZM165.539 32.0374C165.791 32.0374 166.033 31.9372 166.211 31.7588C166.39 31.5805 166.49 31.3385 166.49 31.0863C166.49 30.834 166.39 30.5921 166.211 30.4137C166.033 30.2354 165.791 30.1352 165.539 30.1352H164.89V32.0374H165.539Z" fill="white"/>
<path d="M168.515 30.1208V30.9314H169.935V31.5042H168.515V32.6211H167.795V29.5515H170.119V30.1208H168.515Z" fill="white"/>
<path d="M77.7691 27.8582H89.2764V8.02861H77.7691V27.8582Z" fill="#EBEBEB"/>
<path d="M45.6716 28.1716H54.7578V3.41705H45.6716V28.1716Z" fill="#EBEBEB"/>
<path d="M45.5674 5.20404C45.5674 5.12839 47.6426 5.06714 50.2077 5.06714C52.7729 5.06714 54.8481 5.12839 54.8481 5.20404C54.8481 5.2797 52.7693 5.34455 50.2077 5.34455C47.6462 5.34455 45.5674 5.2833 45.5674 5.20404Z" fill="#FAFAFA"/>
<path d="M46.0684 6.37854C46.0684 6.30289 48.0355 6.24164 50.4601 6.24164C52.8848 6.24164 54.8483 6.30289 54.8483 6.37854C54.8483 6.4542 52.8812 6.51905 50.4601 6.51905C48.0391 6.51905 46.0684 6.4542 46.0684 6.37854Z" fill="#FAFAFA"/>
<path d="M49.9553 23.2899C49.8796 23.2899 49.8184 20.0114 49.8184 15.9691C49.8184 11.9268 49.8796 8.64465 49.9553 8.64465C50.0309 8.64465 50.0778 11.934 50.0778 15.9691C50.0778 20.0042 50.0309 23.2899 49.9553 23.2899Z" fill="#FAFAFA"/>
<path d="M45.6719 25.556C45.6719 25.4804 47.6642 25.4155 50.1177 25.4155C52.5712 25.4155 54.5671 25.4804 54.5671 25.556C54.5671 25.6317 52.5748 25.6929 50.1177 25.6929C47.6606 25.6929 45.6719 25.6245 45.6719 25.556Z" fill="#FAFAFA"/>
<path d="M45.6719 26.6188C45.6719 26.5396 47.7146 26.4783 50.233 26.4783C52.7513 26.4783 54.7905 26.5396 54.7905 26.6188C54.7905 26.6981 52.7513 26.7557 50.233 26.7557C47.7146 26.7557 45.6719 26.7053 45.6719 26.6188Z" fill="#FAFAFA"/>
<path d="M54.7545 28.1716H62.0537V0.740192H54.7545V28.1716Z" fill="#E0E0E0"/>
<path d="M54.708 13.3391C55.11 13.5634 55.49 13.8252 55.8429 14.1208L58.4765 16.1168L61.1065 18.1235C61.4866 18.381 61.8402 18.6754 62.1621 19.0026C61.7483 18.8029 61.356 18.5614 60.9912 18.282C60.2923 17.8065 59.3376 17.1256 58.3108 16.3401C57.284 15.5547 56.3689 14.8234 55.7204 14.2758C55.3509 14.0001 55.0115 13.6861 54.708 13.3391Z" fill="#FAFAFA"/>
<path d="M54.675 9.05177C54.7218 8.99412 56.3971 10.3452 58.4075 12.0709C60.4178 13.7966 62.0102 15.2413 61.9634 15.3134C61.9165 15.3854 60.2413 14.02 58.2309 12.2943C56.2206 10.5685 54.6246 9.1022 54.675 9.05177Z" fill="#FAFAFA"/>
<path d="M23.0285 28.1932H26.5195L26.5195 2.0624H23.0285L23.0285 28.1932Z" fill="#EBEBEB"/>
<path d="M23.1758 5.61836C23.1758 5.70843 23.8963 5.78409 24.8114 5.78409C25.7265 5.78409 26.4471 5.70843 26.4471 5.61836C26.4471 5.52829 25.7265 5.45624 24.8114 5.45624C23.8963 5.45624 23.1758 5.52829 23.1758 5.61836Z" fill="#FAFAFA"/>
<path d="M23.1045 5.04915C23.1045 5.14282 23.825 5.21488 24.7401 5.21488C25.6553 5.21488 26.3758 5.14282 26.3758 5.04915C26.3758 4.95548 25.6553 4.88702 24.7401 4.88702C23.825 4.88702 23.1045 4.95908 23.1045 5.04915Z" fill="#FAFAFA"/>
<path d="M23.1758 26.1721C23.1758 26.2622 23.8963 26.3343 24.8114 26.3343C25.7265 26.3343 26.4471 26.2622 26.4471 26.1721C26.4471 26.0821 25.7265 26.0064 24.8114 26.0064C23.8963 26.0064 23.1758 26.0785 23.1758 26.1721Z" fill="#FAFAFA"/>
<path d="M23.1045 25.6029C23.1045 25.6929 23.825 25.765 24.7401 25.765C25.6553 25.765 26.3758 25.6929 26.3758 25.6029C26.3758 25.5128 25.6553 25.4371 24.7401 25.4371C23.825 25.4371 23.1045 25.5128 23.1045 25.6029Z" fill="#FAFAFA"/>
<path d="M24.8809 22.1875C24.9745 22.1875 25.0466 19.1972 25.0466 15.5044C25.0466 11.8115 24.9745 8.81763 24.8809 8.81763C24.7872 8.81763 24.7188 11.8115 24.7188 15.5044C24.7188 19.1972 24.7908 22.1875 24.8809 22.1875Z" fill="#FAFAFA"/>
<path d="M38.6751 28.0239H45.6572V1.89309H38.6751V28.0239Z" fill="#E0E0E0"/>
<path d="M43.6942 28.359C43.7264 28.3156 43.753 28.2684 43.7735 28.2185C43.8239 28.1212 43.8924 27.9771 43.9752 27.7826C44.2147 27.2144 44.3841 26.6191 44.4796 26.01C44.6584 25.0305 44.5156 24.0195 44.0725 23.1278C43.7779 22.5788 43.3537 22.1101 42.8368 21.7623C42.2455 21.365 41.5281 21.2007 40.8228 21.3012C40.4392 21.3616 40.0799 21.5275 39.7852 21.7804C39.6218 21.9118 39.4904 22.0787 39.4011 22.2685C39.3119 22.4582 39.267 22.6659 39.27 22.8756C39.2879 23.0918 39.3502 23.3019 39.4532 23.4929C39.5561 23.6838 39.6973 23.8515 39.8681 23.9852C40.2037 24.2706 40.6186 24.4466 41.057 24.4896C41.51 24.5259 41.9656 24.4642 42.3926 24.3088C42.8197 24.1534 43.2083 23.9079 43.5321 23.5889C44.2354 22.9262 44.6723 22.0293 44.7606 21.067C44.8595 20.0807 44.7364 19.0849 44.4004 18.1524C44.0915 17.1542 43.4964 16.2685 42.6891 15.6052C42.2565 15.2632 41.7326 15.0565 41.1831 15.0108C40.8988 14.9873 40.6127 15.0256 40.3447 15.1233C40.0766 15.2209 39.8329 15.3755 39.6303 15.5764C39.4166 15.7974 39.2888 16.0874 39.27 16.3942C39.2622 16.6978 39.3463 16.9967 39.5114 17.2517C39.8382 17.7425 40.3436 18.0863 40.9201 18.21C41.4777 18.32 42.0544 18.2829 42.5933 18.1022C43.1321 17.9215 43.6147 17.6035 43.9933 17.1796C44.6946 16.3516 45.1148 15.3221 45.193 14.2398C45.3111 13.2126 45.2079 12.1721 44.8903 11.1882C44.5872 10.224 43.948 9.40068 43.089 8.86805C42.6815 8.60598 42.2181 8.44335 41.7363 8.39328C41.2544 8.34322 40.7675 8.40712 40.3148 8.57983C40.0864 8.6659 39.8836 8.80858 39.7255 8.99448C39.5673 9.18038 39.4589 9.4034 39.4105 9.64264C39.3699 9.87266 39.3775 10.1086 39.4327 10.3356C39.4879 10.5625 39.5895 10.7756 39.7312 10.9613C40.0164 11.2868 40.3928 11.5192 40.8116 11.6284C41.2304 11.7376 41.6723 11.7185 42.0802 11.5737C42.8162 11.3245 43.466 10.8709 43.9536 10.2659C44.802 9.25834 45.2912 7.99726 45.3443 6.68117C45.368 5.69304 45.1373 4.71542 44.6742 3.84219C44.3975 3.29272 44.0323 2.79247 43.5934 2.36146C43.4791 2.25042 43.3588 2.14578 43.2331 2.04802C43.1919 2.01174 43.1458 1.98142 43.0962 1.95795C43.7022 2.50857 44.2007 3.16705 44.5661 3.89984C44.9894 4.76103 45.1878 5.71541 45.1425 6.67396C45.0755 7.94789 44.5891 9.1639 43.7591 10.1326C43.3017 10.6969 42.695 11.1213 42.0081 11.3576C41.6487 11.4804 41.261 11.4942 40.8937 11.3975C40.5265 11.3007 40.196 11.0975 39.9438 10.8135C39.8275 10.658 39.7444 10.4801 39.6998 10.2911C39.6552 10.1021 39.6499 9.90585 39.6844 9.7147C39.7259 9.52126 39.8157 9.3415 39.9455 9.19219C40.0753 9.04287 40.2408 8.92888 40.4265 8.86084C40.8399 8.70798 41.2833 8.6541 41.7213 8.70352C42.1593 8.75295 42.5795 8.90431 42.9485 9.14546C43.7424 9.64458 44.3316 10.4114 44.6093 11.3071C44.9068 12.2469 45.0013 13.2391 44.8867 14.2182C44.8086 15.2353 44.41 16.2015 43.7483 16.9779C43.4073 17.3575 42.9741 17.6428 42.4907 17.8062C42.0073 17.9697 41.49 18.0057 40.9886 17.911C40.4962 17.8057 40.0644 17.5122 39.7852 17.0932C39.6476 16.9056 39.5799 16.6758 39.5937 16.4436C39.6075 16.2114 39.702 15.9913 39.8609 15.8214C40.0328 15.654 40.2393 15.5262 40.4659 15.4472C40.6924 15.3682 40.9336 15.3397 41.1723 15.3638C41.6589 15.4032 42.1229 15.5863 42.5053 15.8898C43.2635 16.5135 43.8232 17.3449 44.1158 18.2821C44.4398 19.1699 44.5628 20.1186 44.476 21.0598C44.3982 21.9489 43.9985 22.7791 43.352 23.3944C43.0599 23.6882 42.7078 23.9157 42.3199 24.0612C41.9319 24.2066 41.5171 24.2668 41.1038 24.2374C40.3365 24.1726 39.5871 23.5889 39.5402 22.8828C39.5346 22.7101 39.5687 22.5384 39.6399 22.381C39.7111 22.2236 39.8175 22.0847 39.951 21.9749C40.2101 21.7489 40.5269 21.5993 40.8661 21.5426C41.5166 21.4471 42.1794 21.5974 42.7251 21.9641C43.2203 22.2865 43.6286 22.7257 43.914 23.2431C44.3463 24.0876 44.5002 25.0474 44.3535 25.9848C44.272 26.5875 44.1246 27.1795 43.914 27.7501C43.8303 27.9492 43.757 28.1524 43.6942 28.359Z" fill="#FAFAFA"/>
<path d="M26.4686 28.0347H38.5811V4.23487H26.4686L26.4686 28.0347Z" fill="#FAFAFA"/>
<path d="M26.8838 8.19075C26.8838 8.28082 29.5066 8.35648 32.7455 8.35648C35.9844 8.35648 38.6072 8.28082 38.6072 8.19075C38.6072 8.10068 35.9844 8.02502 32.7455 8.02502C29.5066 8.02502 26.8838 8.10068 26.8838 8.19075Z" fill="#E0E0E0"/>
<path d="M26.7324 9.99568C26.7324 10.0858 29.3228 10.1578 32.5185 10.1578C35.7141 10.1578 38.3081 10.0858 38.3081 9.99568C38.3081 9.90561 35.7177 9.82996 32.5185 9.82996C29.3192 9.82996 26.7324 9.90561 26.7324 9.99568Z" fill="#E0E0E0"/>
<path d="M26.3428 25.3435C26.3428 25.4371 29.0701 25.5092 32.4386 25.5092C35.8072 25.5092 38.5309 25.4371 38.5309 25.3435C38.5309 25.2498 35.8036 25.1813 32.4386 25.1813C29.0737 25.1813 26.3428 25.2642 26.3428 25.3435Z" fill="#E0E0E0"/>
<path d="M26.5049 23.225C26.5049 23.3151 29.1637 23.3872 32.4422 23.3872C35.7207 23.3872 38.3832 23.3151 38.3832 23.225C38.3832 23.135 35.7243 23.0593 32.4422 23.0593C29.1601 23.0593 26.5049 23.135 26.5049 23.225Z" fill="#E0E0E0"/>
<path d="M62.0432 27.8582H69.0254V1.72738H62.0432V27.8582Z" fill="#EBEBEB"/>
<path d="M67.0651 28.1933C67.0965 28.1482 67.1231 28.0999 67.1443 28.0492C67.1948 27.9555 67.2632 27.8078 67.3425 27.6132C67.5835 27.0466 67.7541 26.4525 67.8505 25.8443C68.0287 24.8648 67.8859 23.8539 67.4433 22.9621C67.1465 22.4135 66.7213 21.945 66.204 21.5966C65.6152 21.1964 64.8991 21.0283 64.1937 21.1247C63.809 21.1851 63.4486 21.351 63.1525 21.6038C62.9905 21.7371 62.8614 21.9058 62.7752 22.097C62.6889 22.2882 62.6479 22.4967 62.6553 22.7063C62.6722 22.9233 62.7337 23.1346 62.836 23.3267C62.9382 23.5189 63.0791 23.6879 63.2497 23.8231C63.5859 24.1105 64.0021 24.2878 64.4422 24.3311C64.8952 24.3662 65.3504 24.304 65.7773 24.1486C66.2042 23.9933 66.5929 23.7484 66.9173 23.4304C67.6177 22.7659 68.053 21.8698 68.1423 20.9085C68.241 19.9222 68.1179 18.9264 67.782 17.9939C67.4697 16.9973 66.8753 16.1126 66.0707 15.4467C65.6369 15.105 65.1116 14.8994 64.5611 14.8559C64.2751 14.8265 63.9862 14.8611 63.7152 14.9571C63.4441 15.053 63.1978 15.2079 62.9939 15.4107C62.778 15.6302 62.6499 15.9211 62.6337 16.2285C62.6234 16.5308 62.7064 16.8289 62.8714 17.0824C63.197 17.5794 63.7037 17.9297 64.2837 18.0587C64.8448 18.1678 65.4246 18.1289 65.966 17.9457C66.5074 17.7624 66.9918 17.4413 67.3713 17.0139C68.0716 16.1842 68.4905 15.1535 68.5674 14.0704C68.6867 13.0448 68.5848 12.0054 68.2684 11.0225C67.9658 10.058 67.3264 9.23448 66.467 8.70233C66.0608 8.43891 65.5982 8.27516 65.1167 8.22445C64.6352 8.17374 64.1486 8.23749 63.6965 8.41051C63.4671 8.50022 63.264 8.64627 63.106 8.83517C62.9479 9.02407 62.84 9.24973 62.7922 9.49134C62.7518 9.72055 62.7591 9.95562 62.8137 10.1819C62.8682 10.4081 62.9688 10.6207 63.1092 10.8063C63.3949 11.1324 63.7714 11.3659 64.1904 11.4769C64.6095 11.5879 65.0522 11.5715 65.4618 11.4296C66.1933 11.1758 66.837 10.7183 67.3173 10.111C68.1607 9.10282 68.646 7.84336 68.6971 6.52987C68.7235 5.72755 68.582 4.92856 68.2818 4.18407C67.9815 3.43959 67.529 2.76604 66.9534 2.20655C66.8393 2.09537 66.719 1.99073 66.5931 1.89311C66.5519 1.85745 66.5073 1.82606 66.4598 1.79944C67.0666 2.35334 67.5683 3.01245 67.9405 3.74493C68.3643 4.60468 68.5627 5.55802 68.517 6.51545C68.4464 7.78384 67.9587 8.99338 67.1299 9.95609C66.6742 10.523 66.0671 10.949 65.379 11.1846C65.02 11.3067 64.6331 11.3201 64.2665 11.2234C63.9 11.1266 63.5701 10.9239 63.3182 10.6406C63.2011 10.4855 63.1176 10.3076 63.0729 10.1185C63.0283 9.9293 63.0235 9.73291 63.0588 9.54178C63.0999 9.34913 63.1892 9.17006 63.3184 9.02135C63.4475 8.87264 63.6123 8.75915 63.7973 8.69152C64.2073 8.53967 64.6471 8.48631 65.0814 8.53575C65.5158 8.58519 65.9324 8.73605 66.2977 8.97614C67.0941 9.47341 67.6849 10.2407 67.9621 11.1378C68.2596 12.0788 68.3541 13.0722 68.2396 14.0524C68.1634 15.0657 67.7715 16.0296 67.1191 16.8085C66.7777 17.1875 66.3444 17.4721 65.861 17.6349C65.3777 17.7977 64.8605 17.8333 64.3594 17.7381C63.868 17.6326 63.4367 17.3407 63.1561 16.9238C63.0189 16.7354 62.9514 16.5052 62.9652 16.2726C62.979 16.0399 63.0732 15.8193 63.2317 15.6485C63.4024 15.4796 63.6078 15.3499 63.8336 15.2684C64.0595 15.1869 64.3003 15.1555 64.5395 15.1765C65.0273 15.2184 65.4921 15.4025 65.8761 15.7061C66.6316 16.3308 67.1908 17.1602 67.4866 18.0947C67.8106 18.9839 67.9337 19.9337 67.8469 20.8761C67.7674 21.7648 67.368 22.5944 66.7228 23.2107C66.432 23.502 66.0822 23.7276 65.6969 23.8724C65.3116 24.0172 64.8998 24.0778 64.4891 24.0501C63.7217 23.9889 62.9723 23.4016 62.9255 22.6955C62.9194 22.5231 62.9529 22.3516 63.0235 22.1942C63.0941 22.0368 63.1998 21.8977 63.3326 21.7876C63.594 21.5629 63.9115 21.4134 64.2513 21.3552C64.9017 21.2639 65.563 21.4138 66.1103 21.7768C66.6036 22.1014 67.0115 22.5401 67.2992 23.0557C67.7328 23.9103 67.8842 24.8803 67.7316 25.8263C67.6499 26.4294 67.5013 27.0215 67.2884 27.5916C67.2023 27.7877 67.1278 27.9886 67.0651 28.1933Z" fill="#FAFAFA"/>
<path d="M13.3261 27.8582H23.0283L23.0283 0.405161H13.3261L13.3261 27.8582Z" fill="#E0E0E0"/>
<path d="M69.0252 27.8582H78.1006V3.42067H69.0252V27.8582Z" fill="#E0E0E0"/>
<path d="M78.3311 15.6052C78.769 16.0034 79.2527 16.3481 79.7722 16.632C80.3437 16.914 80.9635 17.0851 81.5988 17.1364C82.375 17.1958 83.1539 17.0609 83.8649 16.7437C84.6287 16.4158 85.3312 15.9979 86.0266 15.7493C86.6542 15.4978 87.3417 15.4352 88.0045 15.5692C88.456 15.6655 88.8635 15.9072 89.1646 16.2573C89.2806 16.3777 89.3594 16.5291 89.3915 16.6932C89.3663 16.6932 89.2979 16.5419 89.0853 16.3329C88.7803 16.0357 88.3943 15.8351 87.9757 15.7565C87.3502 15.6571 86.7093 15.7371 86.1274 15.9871C85.4537 16.2321 84.762 16.6536 83.9658 16.9958C83.2148 17.3284 82.3914 17.4636 81.5735 17.3885C80.9087 17.3225 80.2642 17.1227 79.6785 16.8013C79.2853 16.588 78.9279 16.3145 78.6193 15.9907C78.5012 15.8802 78.4036 15.7497 78.3311 15.6052Z" fill="#FAFAFA"/>
<path d="M78.126 18.0226C78.5648 18.4198 79.0484 18.7644 79.5671 19.0494C80.1384 19.3327 80.7582 19.5051 81.3937 19.5574C82.1702 19.6138 82.9486 19.4777 83.6598 19.1611C84.4236 18.8333 85.1261 18.4153 85.8215 18.1704C86.4482 17.9151 87.1368 17.8524 87.7994 17.9902C88.246 18.0909 88.6479 18.3336 88.9451 18.682C89.0622 18.8025 89.1401 18.9558 89.1684 19.1215C89.1468 19.1215 89.0784 18.9702 88.8622 18.7612C88.5582 18.4646 88.1735 18.2641 87.7561 18.1848C87.1306 18.0872 86.4903 18.1671 85.9079 18.4153C85.2306 18.6639 84.5425 19.0819 83.7463 19.4241C82.9945 19.7582 82.1695 19.8934 81.3504 19.8168C80.6854 19.7519 80.0406 19.5521 79.4554 19.2296C79.0695 19.0166 78.7203 18.7429 78.4214 18.419C78.2984 18.3071 78.1981 18.1725 78.126 18.0226Z" fill="#FAFAFA"/>
<path d="M78.2773 10.1975C78.2773 10.1218 80.7741 10.0569 83.8544 10.0569C86.9348 10.0569 89.4351 10.1218 89.4351 10.1975C89.4351 10.2731 86.9384 10.3344 83.8544 10.3344C80.7705 10.3344 78.2773 10.2731 78.2773 10.1975Z" fill="#FAFAFA"/>
<path d="M74.1664 7.35489C73.9166 7.25157 73.6408 7.2289 73.3774 7.29004C73.2466 7.32663 73.1251 7.39093 73.0213 7.47857C72.9175 7.56622 72.8338 7.67517 72.7758 7.79803C72.7301 7.9527 72.7278 8.11696 72.7692 8.27283C72.8106 8.4287 72.8941 8.57018 73.0105 8.68178C73.127 8.79337 73.2719 8.87079 73.4293 8.90555C73.5868 8.94031 73.7509 8.93108 73.9034 8.87886C74.0246 8.8138 74.1303 8.72354 74.2136 8.61416C74.2969 8.50478 74.3557 8.37882 74.3862 8.24477C74.4352 7.97952 74.4025 7.70566 74.2925 7.45937C74.2925 7.45937 74.379 7.49179 74.4655 7.6287C74.5767 7.82671 74.6174 8.05665 74.5808 8.2808C74.556 8.45248 74.4922 8.61617 74.3941 8.75923C74.296 8.90229 74.1664 9.02088 74.0151 9.10583C73.815 9.1888 73.5949 9.21156 73.382 9.1713C73.1691 9.13105 72.9726 9.02954 72.8165 8.87922C72.6605 8.7289 72.5517 8.5363 72.5035 8.32505C72.4553 8.1138 72.4698 7.89308 72.5452 7.68995C72.6234 7.5357 72.7363 7.40173 72.8751 7.29857C73.0139 7.19541 73.1748 7.12589 73.345 7.09549C73.5686 7.0495 73.8012 7.08127 74.0043 7.18556C74.1268 7.26842 74.1737 7.34408 74.1664 7.35489Z" fill="#FAFAFA"/>
<path d="M73.579 25.4083C73.5033 25.4083 73.4385 21.9857 73.4385 17.7596C73.4385 13.5336 73.5033 10.1074 73.579 10.1074C73.6546 10.1074 73.7159 13.5336 73.7159 17.7596C73.7159 21.9857 73.6546 25.4083 73.579 25.4083Z" fill="#FAFAFA"/>
<path d="M98.7547 27.7177H4.83789V33.0786H98.7547V27.7177Z" fill="#EBEBEB"/>
<path d="M98.7546 27.7177H90.5547V33.0786H98.7546V27.7177Z" fill="#E0E0E0"/>
<path d="M103.478 27.307L103.038 64.2029C102.963 70.4789 104.119 79.6948 114.056 79.3813C122.645 78.4446 124.925 70.3132 124.99 64.4587C125.022 61.681 125.055 59.3644 125.077 59.0798C125.077 59.0798 134.48 58.3124 135.272 49.0245C135.658 44.5354 135.694 35.2259 135.633 26.8062C135.597 22.4434 133.921 18.2539 130.937 15.0709C127.953 11.888 123.88 9.94492 119.528 9.62826L118.635 9.56341C108.897 9.41209 103.352 17.594 103.478 27.307Z" fill="#FFBE9D"/>
<path d="M125.059 59.0797C125.059 59.0797 119.172 58.9969 113.217 54.6159C113.217 54.6159 115.674 61.6233 125.009 61.4612L125.059 59.0797Z" fill="#EB996E"/>
<path d="M119.734 30.6107C119.55 30.7981 118.476 29.937 116.92 29.8902C115.364 29.8433 114.204 30.6107 114.038 30.4126C113.959 30.3225 114.149 29.9802 114.657 29.6236C115.34 29.1661 116.15 28.9365 116.97 28.9679C117.783 28.9883 118.567 29.2728 119.204 29.7785C119.673 30.1748 119.824 30.5279 119.734 30.6107Z" fill="black"/>
<path d="M119.406 33.8316C119.384 34.1591 119.236 34.4653 118.993 34.6853C118.749 34.9053 118.429 35.0217 118.101 35.0097C117.941 35.0102 117.782 34.9786 117.633 34.9169C117.485 34.8551 117.351 34.7643 117.238 34.6499C117.125 34.5355 117.036 34.3997 116.977 34.2505C116.917 34.1013 116.888 33.9418 116.891 33.7812C116.911 33.454 117.059 33.1478 117.302 32.9277C117.545 32.7076 117.864 32.5912 118.191 32.6031C118.352 32.6021 118.512 32.6333 118.661 32.6949C118.809 32.7564 118.944 32.8471 119.057 32.9616C119.17 33.0761 119.259 33.212 119.319 33.3614C119.379 33.5108 119.408 33.6707 119.406 33.8316Z" fill="black"/>
<path d="M123.632 41.437C123.632 41.3541 124.529 41.2641 125.981 41.1884C126.341 41.1884 126.701 41.1272 126.781 40.8858C126.86 40.6444 126.781 40.2229 126.615 39.805C126.337 38.8971 126.046 37.9423 125.739 36.948C124.529 32.8804 123.682 29.5515 123.848 29.5046C124.014 29.4578 125.123 32.7111 126.334 36.7786C126.622 37.7802 126.898 38.7409 127.163 39.6608C127.271 40.086 127.472 40.5723 127.249 41.1019C127.186 41.227 127.096 41.3362 126.985 41.4211C126.874 41.506 126.745 41.5645 126.608 41.5919C126.402 41.6313 126.193 41.6458 125.984 41.6352C124.529 41.5775 123.632 41.5163 123.632 41.437Z" fill="black"/>
<path d="M119.07 24.7599C118.919 25.1201 117.676 24.8463 116.188 24.922C114.7 24.9976 113.468 25.3291 113.306 24.9976C113.23 24.8391 113.461 24.5185 113.969 24.2122C114.636 23.8338 115.385 23.6224 116.152 23.5962C116.917 23.5562 117.679 23.706 118.372 24.0321C118.89 24.2987 119.135 24.5977 119.07 24.7599Z" fill="black"/>
<path d="M133.849 27.6456C133.687 27.9266 132.473 27.6132 130.999 27.5664C129.526 27.5195 128.308 27.7105 128.153 27.4151C128.085 27.2782 128.326 27.026 128.841 26.8026C129.527 26.5255 130.265 26.4025 131.003 26.4423C131.753 26.4632 132.49 26.645 133.164 26.9755C133.687 27.2385 133.921 27.5087 133.849 27.6456Z" fill="black"/>
<path d="M103.737 34.2459C103.583 34.1666 97.4866 31.8897 97.2236 38.2594C96.9606 44.629 103.413 43.5806 103.431 43.3969C103.449 43.2132 103.737 34.2459 103.737 34.2459Z" fill="#FFBE9D"/>
<path d="M101.598 40.9039C101.569 40.8822 101.482 40.9759 101.291 41.0552C101.025 41.1635 100.726 41.1635 100.459 41.0552C99.7963 40.7814 99.2739 39.6897 99.2919 38.5332C99.2937 37.987 99.4168 37.4481 99.6522 36.9552C99.7177 36.7574 99.8308 36.5787 99.9816 36.4348C100.132 36.2909 100.316 36.1863 100.517 36.1302C100.646 36.1016 100.78 36.1187 100.898 36.1785C101.016 36.2383 101.109 36.3371 101.162 36.458C101.241 36.6418 101.194 36.7679 101.227 36.7787C101.259 36.7895 101.367 36.6778 101.327 36.4184C101.297 36.2604 101.215 36.117 101.093 36.0113C100.923 35.8709 100.704 35.8036 100.484 35.8239C100.221 35.8656 99.9725 35.9739 99.7625 36.1384C99.5526 36.303 99.3881 36.5184 99.2847 36.7643C98.9934 37.3051 98.8364 37.9082 98.8271 38.5224C98.8271 39.8086 99.4252 41.0444 100.333 41.3398C100.502 41.3977 100.682 41.4164 100.859 41.3946C101.036 41.3728 101.206 41.3109 101.356 41.2137C101.569 41.0588 101.598 40.9147 101.598 40.9039Z" fill="#EB996E"/>
<path d="M122.133 45.8468C122.202 45.6847 120.952 45.3136 120.076 44.1427C119.71 43.6289 119.413 43.0693 119.193 42.4783C119.01 42.0171 118.869 41.7253 118.797 41.7577C118.725 41.7901 118.75 42.0892 118.851 42.5935C118.986 43.2669 119.266 43.9027 119.673 44.4562C120.091 45.0126 120.654 45.4438 121.301 45.7027C121.773 45.8901 122.112 45.9009 122.133 45.8468Z" fill="black"/>
<path d="M147.947 18.4658C147.831 18.0907 147.572 17.7762 147.226 17.5903C146.505 17.158 145.662 17.2301 144.852 17.2048C142.371 17.156 139.953 16.4201 137.866 15.0792C136.893 13.6811 135.809 12.3642 134.624 11.1414C131.806 8.23756 129.49 6.26325 127.094 5.29771C123.995 4.05115 118.807 3.54316 115.565 4.39342C112.322 5.24367 109.44 7.86288 108.983 11.1738C107.181 9.64264 104.447 9.65345 102.242 10.5397L102.184 10.5181C99.7488 11.3936 98.3545 13.9912 97.634 16.4987C96.9134 19.0062 96.6 21.6867 95.2706 23.9312C94.9932 24.4032 94.6653 24.9652 94.9103 25.4552C95.0212 25.6343 95.1841 25.7753 95.3771 25.8596C95.5702 25.9439 95.7844 25.9675 95.9911 25.9271C96.4051 25.8363 96.7955 25.6596 97.1368 25.4083L96.3154 27.379C97.2083 27.5287 98.1239 27.467 98.9886 27.1989C99.511 29.5443 100.134 32.2212 100.736 33.81C101.766 33.81 102.707 33.882 103.341 34.4513C104.198 35.2259 104.584 36.6814 106.014 36.1302C106.735 35.8455 107.408 34.3288 107.653 33.5758C109.272 28.6331 109.807 23.3995 109.22 18.2316C110.244 17.1442 111.467 16.2636 112.823 15.6376L112.715 15.7349C115.309 14.8342 118.245 13.9335 120.71 15.1657C122.619 16.1096 123.743 18.0947 125.17 19.6763C126.489 21.1361 128.09 22.3139 129.876 23.1386C131.662 23.9633 133.597 24.418 135.564 24.4752C135.701 27.0908 135.481 30.7873 135.618 33.4029L137.808 29.2273C137.989 28.921 138.14 28.6112 138.284 28.3013L138.334 28.2077C138.552 27.6944 138.796 27.1929 139.066 26.7053L139.091 26.7269C140.507 27.9771 142.596 26.064 141.476 24.5401C141.254 24.2378 140.988 23.9706 140.687 23.7475C141.008 24.0575 141.403 24.2792 141.835 24.3909C142.267 24.5027 142.72 24.5007 143.151 24.3851C143.578 24.2557 143.95 23.9894 144.211 23.6274C144.471 23.2654 144.605 22.8278 144.592 22.382C144.558 22.0811 144.444 21.7946 144.263 21.5516C144.082 21.3087 143.84 21.1179 143.562 20.9985C144.714 21.0916 145.867 20.8408 146.877 20.278C147.525 19.9033 148.17 19.2908 147.947 18.4658Z" fill="black"/>
<path d="M111.927 12.2402C111.595 12.4988 111.285 12.7831 110.998 13.0905C110.257 13.977 109.76 15.0411 109.556 16.1781C109.397 16.9545 109.317 17.7452 109.319 18.5379C109.319 19.3953 109.383 20.3104 109.448 21.276C109.537 22.2894 109.561 23.3074 109.52 24.3239C109.49 24.8641 109.419 25.4012 109.308 25.9307C109.227 26.4984 109.001 27.0356 108.652 27.4907C108.492 27.6668 108.289 27.7995 108.064 27.8763C107.838 27.9532 107.597 27.9717 107.362 27.9303C106.907 27.8437 106.493 27.6094 106.184 27.2638C105.586 26.5648 105.438 25.6821 105.287 24.9003L105.485 24.9256C105.203 25.6246 104.822 26.2797 104.354 26.8711C103.902 27.418 103.257 27.7702 102.553 27.8546C102.224 27.8902 101.892 27.8328 101.594 27.6889C101.319 27.5452 101.093 27.3217 100.946 27.0476C100.806 26.7957 100.738 26.5105 100.748 26.2226C100.759 25.9546 100.865 25.6993 101.047 25.502L101.144 25.5885C100.59 26.221 99.91 26.7314 99.148 27.0872C98.9462 27.1782 98.7393 27.2576 98.5284 27.325C98.4577 27.3524 98.3839 27.3706 98.3086 27.379C98.376 27.345 98.4458 27.3161 98.5176 27.2926C98.6545 27.2349 98.8598 27.1521 99.1156 27.0224C99.8533 26.6495 100.509 26.1325 101.043 25.502L101.14 25.5885C100.989 25.7847 100.902 26.0229 100.891 26.2705C100.88 26.5181 100.946 26.7631 101.079 26.9719C101.214 27.2159 101.42 27.4131 101.67 27.5376C101.941 27.6648 102.241 27.7135 102.538 27.6781C103.196 27.5935 103.796 27.2594 104.214 26.745C104.663 26.1649 105.027 25.523 105.294 24.8391L105.431 24.5401L105.493 24.8643C105.64 25.6425 105.799 26.4928 106.343 27.1196C106.619 27.4295 106.99 27.6397 107.398 27.7177C107.6 27.7594 107.809 27.7481 108.004 27.685C108.2 27.6218 108.376 27.509 108.515 27.3574C108.834 26.9349 109.042 26.4396 109.12 25.9163C109.229 25.3974 109.299 24.8711 109.329 24.3419C109.37 23.3353 109.351 22.3271 109.272 21.3228C109.211 20.3573 109.149 19.435 109.16 18.5703C109.166 17.7658 109.255 16.9641 109.427 16.1781C109.645 15.0254 110.168 13.952 110.94 13.0689C111.219 12.7377 111.553 12.4573 111.927 12.2402Z" fill="#2B3A8C"/>
<path d="M140.67 21.2796C140.67 21.2796 140.648 21.3048 140.598 21.3444L140.363 21.5137C140.238 21.6066 140.107 21.6909 139.971 21.7659C139.789 21.8763 139.6 21.9749 139.405 22.0614C138.164 22.626 136.802 22.8736 135.442 22.7819C133.413 22.6474 131.465 21.9279 129.836 20.7103C127.981 19.3773 126.349 17.4102 125.019 15.1585C124.342 14.0344 123.791 12.8815 123.185 11.8151C122.63 10.7784 121.93 9.82615 121.107 8.98694C120.364 8.23018 119.444 7.67155 118.43 7.3621C117.97 7.23469 117.494 7.17999 117.017 7.19997C116.578 7.22324 116.144 7.30689 115.728 7.44856C114.45 7.88271 113.383 8.78345 112.741 9.9705C112.528 10.4151 112.367 10.883 112.262 11.3648C112.258 11.3325 112.258 11.2998 112.262 11.2675C112.262 11.1882 112.287 11.0946 112.305 10.9829C112.382 10.619 112.503 10.2657 112.665 9.93087C112.932 9.40673 113.284 8.93065 113.707 8.52219C114.268 7.97708 114.94 7.55929 115.677 7.29725C116.107 7.14741 116.556 7.05651 117.01 7.02704C117.506 7.00233 118.002 7.05583 118.48 7.18556C119.527 7.49513 120.479 8.06392 121.247 8.83923C122.091 9.69133 122.806 10.6624 123.369 11.7214C123.985 12.8023 124.536 13.9443 125.207 15.0576C126.525 17.2913 128.132 19.2368 129.955 20.559C131.551 21.7638 133.459 22.4853 135.453 22.6378C136.795 22.7467 138.144 22.5279 139.383 22.0001C139.826 21.7855 140.256 21.5449 140.67 21.2796Z" fill="#2B3A8C"/>
<path d="M141.516 17.1976C141.417 17.2897 141.305 17.3673 141.185 17.4282C140.87 17.6218 140.54 17.7892 140.197 17.929C139.692 18.1458 139.169 18.3182 138.634 18.4442C137.978 18.5936 137.31 18.6817 136.638 18.7072C135.964 18.7262 135.289 18.6804 134.624 18.5703C134.083 18.4797 133.552 18.3423 133.035 18.1596C132.685 18.0397 132.344 17.894 132.016 17.7236C131.887 17.6707 131.765 17.6004 131.655 17.5147C131.655 17.475 132.185 17.7416 133.068 18.0155C133.583 18.1737 134.109 18.2942 134.642 18.3757C135.296 18.4673 135.956 18.5059 136.616 18.491C137.275 18.465 137.931 18.3843 138.576 18.2496C139.103 18.1339 139.621 17.9797 140.125 17.7885C141.001 17.457 141.494 17.1616 141.516 17.1976Z" fill="#2B3A8C"/>
<path d="M133.921 31.198C133.734 31.3853 132.664 30.5206 131.108 30.4774C129.551 30.4342 128.387 31.198 128.225 30.9998C128.146 30.9097 128.337 30.5639 128.845 30.2108C129.527 29.7516 130.337 29.5207 131.158 29.5515C131.97 29.5745 132.752 29.8602 133.388 30.3657C133.856 30.7584 134.022 31.1151 133.921 31.198Z" fill="black"/>
<path d="M132.332 34.2711C132.312 34.599 132.164 34.9057 131.92 35.1259C131.677 35.3461 131.356 35.4621 131.028 35.4492C130.868 35.4502 130.709 35.4191 130.56 35.3577C130.412 35.2963 130.278 35.2059 130.165 35.0918C130.052 34.9776 129.963 34.8421 129.904 34.6931C129.844 34.5441 129.815 34.3848 129.818 34.2243C129.842 33.8952 129.993 33.5886 130.24 33.3698C130.487 33.151 130.81 33.0375 131.14 33.0534C131.459 33.0572 131.764 33.1875 131.988 33.4158C132.211 33.6441 132.335 33.9517 132.332 34.2711Z" fill="black"/>
<path d="M190.377 68.2524C190.377 65.5539 187.798 65.5539 187.798 65.5539C186.814 64.2605 185.708 64.7325 185.708 64.7325L181.532 67.5463C180.92 68.6019 176.867 72.5901 176.867 72.5901C175.761 71.7687 175.761 70.1258 174.439 68.1299C173.116 66.134 170.115 66.3718 170.115 66.3718C170.115 66.3718 172.45 71.6498 172.695 74.9355C172.94 78.2213 170.893 87.3867 170.893 87.3867L182.7 90.7048C182.7 90.7048 183.445 85.661 184.768 85.2719C186.36 84.7819 187.246 82.4329 187.246 82.4329C188.965 78.949 192.46 73.8799 192.953 71.3003C193.447 68.7208 190.377 68.2524 190.377 68.2524Z" fill="#FFBE9D"/>
<path d="M102.589 62.4159C110.108 67.1391 117.684 68.9009 125.358 65.8565L136.887 68.8036L148.236 144.642L81.6963 145.236L84.9748 127.622L93.2251 64.3398L102.589 62.4159Z" fill="#2B3A8C"/>
<path d="M136.904 68.8036C136.904 68.8036 145.875 72.5324 149.301 79.0571C152.728 85.5817 158.229 103.916 158.229 103.916L168.371 85.297L187.181 90.1139C187.181 90.1139 173.173 128.75 169.657 132.266C165.806 136.118 155.314 140.001 150.177 137.004C145.039 134.006 143.995 122.632 143.995 122.632L136.904 68.8036Z" fill="#2B3A8C"/>
<path d="M137.514 100.522C137.463 100.522 137.42 97.1573 137.42 93.0033C137.42 88.8494 137.463 85.4772 137.514 85.4772C137.564 85.4772 137.607 88.8458 137.607 93.0033C137.607 97.1609 137.568 100.522 137.514 100.522Z" fill="black"/>
<path d="M141.026 73.1377C140.908 73.5609 140.762 73.9761 140.59 74.3806C140.309 75.1408 139.931 76.182 139.567 77.3818C139.203 78.5815 138.912 79.6515 138.713 80.4369C138.628 80.8677 138.515 81.2925 138.375 81.7087C138.368 81.5875 138.38 81.4659 138.411 81.3484C138.443 81.125 138.504 80.8008 138.587 80.4009C138.749 79.6047 139.02 78.5094 139.387 77.3205C139.755 76.1316 140.151 75.076 140.468 74.3266C140.623 73.9663 140.756 73.6493 140.857 73.4439C140.901 73.3353 140.958 73.2324 141.026 73.1377Z" fill="black"/>
<path d="M92.0069 92.7187L94.0893 64.1452C94.0893 64.1452 78.4245 65.5863 73.2401 76.6504C68.8736 85.9635 56.8151 113.982 55.5253 117.816C51.7352 129.063 57.6438 144.516 82.0453 143.633L84.8266 128.339L92.0069 92.7187Z" fill="#2B3A8C"/>
<path d="M74.4688 131.546C74.5011 131.45 74.5434 131.359 74.5948 131.272L74.9911 130.505C75.3514 129.824 75.863 128.865 76.4863 127.691L76.9871 126.761C77.1581 126.407 77.4039 126.093 77.7076 125.843C78.0592 125.593 78.4835 125.466 78.9146 125.482C79.3537 125.502 79.7891 125.573 80.2116 125.695C81.1181 125.932 81.9972 126.264 82.8344 126.686C83.2808 126.907 83.7024 127.175 84.0917 127.485L84.2358 127.612C84.2917 127.666 84.3348 127.733 84.3619 127.806C84.4035 127.933 84.4301 128.065 84.4412 128.199C84.4574 128.458 84.4574 128.718 84.4412 128.977C84.3927 129.977 84.2941 130.974 84.1458 131.964C84.0161 132.926 83.8684 133.844 83.7207 134.723C83.4252 136.478 83.1334 138.049 82.8776 139.371C82.6218 140.693 82.4165 141.738 82.2687 142.495C82.1967 142.855 82.1426 143.132 82.0994 143.345C82.084 143.444 82.0636 143.543 82.0382 143.64C82.0337 143.539 82.0422 143.437 82.0634 143.338C82.0886 143.139 82.1318 142.851 82.1967 142.48L82.7479 139.346C82.9857 138.023 83.2667 136.463 83.5513 134.695C83.6918 133.819 83.8359 132.893 83.9656 131.938C84.0953 130.984 84.2178 129.989 84.2539 128.97C84.2701 128.72 84.2701 128.47 84.2539 128.22C84.2458 128.098 84.2228 127.977 84.1854 127.86C84.1707 127.815 84.1447 127.774 84.1097 127.741L83.9728 127.619C83.5934 127.315 83.1828 127.053 82.7479 126.837C81.9244 126.42 81.0599 126.089 80.1683 125.85C79.7591 125.73 79.337 125.658 78.911 125.637C78.5175 125.615 78.1277 125.723 77.8013 125.943C77.5152 126.181 77.283 126.477 77.1204 126.812L76.6088 127.734L75.0632 130.515L74.6345 131.268C74.5861 131.365 74.5307 131.457 74.4688 131.546Z" fill="black"/>
<path d="M63.1377 117.952C63.2 117.946 63.2627 117.946 63.325 117.952L63.851 117.97C64.305 117.996 64.9643 118.032 65.7785 118.107C66.7344 118.191 67.6848 118.329 68.6247 118.522C69.7806 118.757 70.9042 119.129 71.9717 119.631C73.0352 120.144 74.0252 120.797 74.9151 121.573C75.6502 122.208 76.261 122.974 76.7165 123.832C77.0155 124.412 77.199 125.045 77.2569 125.695C77.2706 125.871 77.2706 126.048 77.2569 126.224C77.2635 126.284 77.2635 126.345 77.2569 126.405C77.2353 126.405 77.2569 126.152 77.1885 125.684C77.1036 125.053 76.9046 124.442 76.6012 123.883C76.1427 123.052 75.5387 122.31 74.8179 121.692C73.9347 120.934 72.9561 120.294 71.9068 119.79C70.8542 119.292 69.7465 118.919 68.6067 118.68C67.6746 118.482 66.7331 118.332 65.7857 118.23C64.9751 118.136 64.3158 118.079 63.8618 118.035L63.3394 117.978C63.2713 117.98 63.2033 117.971 63.1377 117.952Z" fill="black"/>
<path d="M79.9021 116.511C79.8038 116.896 79.6736 117.272 79.513 117.635C79.2428 118.32 78.8429 119.253 78.3853 120.273C77.9278 121.292 77.5315 122.178 77.2108 122.899C77.0632 123.27 76.8924 123.631 76.6992 123.98C76.7929 123.593 76.9232 123.215 77.0883 122.852C77.3549 122.171 77.7548 121.238 78.2124 120.215C78.6699 119.192 79.0662 118.32 79.3905 117.603C79.5338 117.227 79.7048 116.862 79.9021 116.511Z" fill="black"/>
<path d="M88.5702 94.0229C88.5162 94.0229 88.4766 92.2215 88.4766 89.977C88.4766 87.7325 88.5162 85.9312 88.5702 85.9312C88.6243 85.9312 88.6639 87.7325 88.6639 89.977C88.6639 92.2215 88.6279 94.0229 88.5702 94.0229Z" fill="black"/>
<g opacity="0.3">
<path opacity="0.3" d="M77.2394 126.401C73.1179 127.842 70.3329 131.578 69.2052 135.797C69.09 136.237 69.0107 136.759 69.3061 137.108C69.4773 137.271 69.6987 137.37 69.9338 137.39C70.169 137.409 70.4038 137.348 70.5995 137.217C70.9832 136.939 71.2976 136.576 71.5182 136.157C73.5033 132.983 75.4416 130.033 77.2394 126.401Z" fill="black"/>
</g>
<g opacity="0.3">
<path opacity="0.3" d="M72.1265 118.252C69.9649 117.052 67.4934 116.54 65.0327 116.389C64.065 116.343 63.0956 116.428 62.1505 116.641C60.8643 116.911 59.3836 117.563 59.1025 118.486C62.0604 117.56 66.4162 118.169 69.4425 118.846C70.9402 119.156 72.3577 119.772 73.6062 120.656C74.8548 121.539 75.9075 122.671 76.6984 123.98C75.9256 121.576 74.2993 119.538 72.1265 118.252Z" fill="black"/>
</g>
<path d="M86.2645 81.8528C86.2033 81.7072 86.155 81.5565 86.1204 81.4025C86.0447 81.1106 85.9186 80.6819 85.7601 80.1739C85.3148 78.8357 84.7316 77.5474 84.0199 76.3298C83.298 75.1161 82.4529 73.98 81.498 72.9396C81.1377 72.5397 80.8243 72.219 80.6081 72.0173C80.4862 71.9093 80.3763 71.7885 80.2803 71.657C80.4105 71.7411 80.5313 71.8389 80.6405 71.9488C80.8747 72.1434 81.199 72.446 81.5809 72.8351C83.5756 74.8828 85.0464 77.3819 85.8682 80.1199C85.995 80.5309 86.1008 80.9482 86.1852 81.37C86.2295 81.5275 86.2561 81.6894 86.2645 81.8528Z" fill="black"/>
<path d="M92.0177 145.207L74.5767 103.084C73.7805 101.16 74.7784 99.6036 76.8104 99.6036H80.3195C81.7606 99.6036 82.7297 98.8146 82.8234 97.5825L82.9387 96.0333C83.0324 94.8011 84.0195 94.0121 85.4606 94.0121H102.149C103.604 94.0797 104.981 94.6888 106.011 95.7199L107.365 97.0313C108.383 98.0655 109.75 98.6822 111.199 98.7606H132.455C134.483 98.7606 136.757 100.317 137.531 102.241L154.825 145.215L92.0177 145.207Z" fill="#8CBF43"/>
<g opacity="0.3">
<path opacity="0.3" d="M92.0177 145.207L74.5767 103.084C73.7805 101.16 74.7784 99.6036 76.8104 99.6036H80.3195C81.7606 99.6036 82.7297 98.8146 82.8234 97.5825L82.9387 96.0333C83.0324 94.8011 84.0195 94.0121 85.4606 94.0121H102.149C103.604 94.0797 104.981 94.6888 106.011 95.7199L107.365 97.0313C108.383 98.0655 109.75 98.6822 111.199 98.7606H132.455C134.483 98.7606 136.757 100.317 137.531 102.241L154.825 145.215L92.0177 145.207Z" fill="black"/>
</g>
<path d="M89.1322 130.904L82.55 105.451C82.1177 103.776 83.2165 102.093 84.7441 102.093H136.343C136.868 102.118 137.37 102.319 137.768 102.662C138.166 103.006 138.438 103.472 138.541 103.988L148.124 142.3C148.545 143.982 147.872 144.991 146.344 144.973H94.4247C93.9074 144.942 93.4149 144.741 93.0239 144.401C92.633 144.06 92.3654 143.601 92.263 143.093L89.1322 130.904Z" fill="#E0E0E0"/>
<path d="M92.6987 144.055L89.8957 103.974C89.872 103.637 89.9177 103.3 90.0301 102.982C90.1425 102.664 90.319 102.373 90.5488 102.126C90.7786 101.879 91.0567 101.683 91.3659 101.548C91.675 101.413 92.0085 101.344 92.3456 101.344H145.814V144.055H92.6987Z" fill="#EBEBEB"/>
<path d="M92.1006 144.973L98.4631 103.65C98.6119 102.991 98.9814 102.403 99.5102 101.984C100.039 101.565 100.696 101.339 101.37 101.344H155.455C155.942 101.336 156.424 101.451 156.855 101.677C157.287 101.903 157.655 102.233 157.926 102.638C158.198 103.042 158.364 103.508 158.409 103.993C158.454 104.478 158.378 104.967 158.186 105.415L146.506 143.244L92.1006 144.973Z" fill="#FAFAFA"/>
<path d="M92.0176 145.189L105.135 106.489C105.387 105.712 105.877 105.035 106.535 104.553C107.193 104.071 107.987 103.809 108.803 103.804H164.541C164.967 103.817 165.384 103.93 165.758 104.134C166.133 104.338 166.454 104.626 166.696 104.977C166.938 105.328 167.095 105.73 167.153 106.152C167.211 106.574 167.169 107.004 167.031 107.407L154.832 145.207L92.0176 145.189Z" fill="#8CBF43"/>
<g opacity="0.3">
<path opacity="0.3" d="M118.977 138.708C118.977 138.708 116.873 138.805 115.9 138.87C111.257 139.183 106.607 138.359 102.354 136.467C101.043 135.883 99.6555 135.058 99.2556 133.679C98.8125 132.133 99.814 130.523 101.035 129.474C102.257 128.426 103.741 127.673 104.8 126.469C105.859 125.266 106.36 123.303 105.315 122.078L105.027 122.29C104.274 124.2 102.174 125.122 100.434 126.217C97.1785 128.28 94.7644 131.435 93.6245 135.116C93.012 137.119 92.8499 139.439 94.064 141.162C94.9251 142.376 96.3374 143.064 97.7316 143.579C101.95 145.143 106.458 145.204 110.957 145.207C112.377 145.207 116.722 145.15 116.722 145.15C118.094 144.79 118.545 144.069 119.373 142.905C120.148 141.842 119.971 139.54 118.977 138.708Z" fill="black"/>
</g>
<path d="M118.977 138.708L104.437 136.521L98.7874 133.279C98.4182 133.07 98.1064 132.774 97.88 132.415C97.6537 132.057 97.5198 131.648 97.4904 131.225C97.492 131.209 97.492 131.194 97.4904 131.178C97.4759 130.654 97.6211 130.138 97.9068 129.699C98.1925 129.259 98.6052 128.917 99.09 128.718C100.891 127.965 103.72 126.959 104.93 124.837C106.667 121.793 104.93 121.159 104.93 121.159L92.7852 126.015L84.189 131.866L82.4561 141.633L94.4497 145.55C94.4497 145.55 107.816 146.303 111.505 145.888C115.194 145.474 115.191 143.759 115.191 143.759C115.875 143.543 117.262 142.318 117.262 141.194C119.064 139.515 118.977 138.722 118.977 138.722" fill="#FFBE9D"/>
<path d="M100.376 142.909C100.579 142.925 100.78 142.963 100.974 143.024C101.356 143.114 101.907 143.237 102.592 143.384C106.165 144.097 109.83 144.235 113.447 143.795C114.142 143.712 114.701 143.633 115.086 143.568C115.286 143.524 115.49 143.503 115.695 143.503C115.503 143.575 115.306 143.63 115.104 143.665C114.722 143.755 114.164 143.86 113.472 143.968C109.838 144.505 106.137 144.361 102.556 143.543C101.871 143.381 101.324 143.233 100.949 143.111C100.752 143.063 100.56 142.995 100.376 142.909Z" fill="#EB996E"/>
<path d="M101.706 140.661C101.913 140.677 102.117 140.716 102.315 140.776C102.7 140.87 103.262 140.992 103.958 141.136C105.771 141.482 107.608 141.686 109.452 141.745C111.299 141.796 113.148 141.71 114.982 141.489C115.703 141.406 116.254 141.324 116.647 141.262C116.849 141.219 117.056 141.195 117.263 141.19C117.07 141.266 116.869 141.322 116.665 141.356C116.276 141.45 115.71 141.554 115.004 141.662C113.164 141.937 111.304 142.047 109.445 141.99C107.586 141.935 105.737 141.705 103.922 141.306C103.226 141.151 102.668 141.003 102.29 140.88C102.088 140.828 101.892 140.754 101.706 140.661Z" fill="#EB996E"/>
<path d="M187.473 86.8714L161.634 91.9765C160.778 92.1452 159.891 91.9681 159.166 91.484C158.44 90.9999 157.937 90.2481 157.764 89.3934L150.699 53.6288C150.53 52.7712 150.708 51.8814 151.194 51.1551C151.681 50.4288 152.436 49.9255 153.293 49.7558L169.689 46.5205L184.954 57.091L190.077 83.0129C190.242 83.8698 190.061 84.7572 189.573 85.4806C189.084 86.2039 188.329 86.704 187.473 86.8714Z" fill="#EBEBEB"/>
<path d="M169.689 46.5205L171.678 56.5866C171.756 56.9819 171.911 57.3581 172.134 57.6935C172.357 58.0288 172.644 58.3169 172.979 58.5411C173.313 58.7654 173.689 58.9214 174.084 59.0002C174.479 59.079 174.886 59.0791 175.281 59.0005L184.958 57.091L169.689 46.5205Z" fill="#F5F5F5"/>
<path d="M171.978 57.4297C171.978 57.4297 172.338 59.894 175.27 60.1498C175.379 60.1498 175.49 60.1498 175.602 60.1498C176.91 60.1282 185.52 59.9625 185.484 59.7895C185.448 59.6166 184.947 57.0875 184.947 57.0875L175.27 58.9969C175.27 58.9969 172.839 59.3824 171.978 57.4297Z" fill="#E0E0E0"/>
<path d="M187.473 86.8715L187.614 86.8318C187.753 86.7983 187.889 86.7537 188.021 86.6985C188.702 86.4302 189.274 85.9411 189.644 85.3095C190.014 84.6778 190.162 83.9402 190.064 83.2147C189.876 82.1663 189.62 80.9629 189.343 79.6119L184.861 57.0983L184.894 57.1451L169.622 46.589H169.69L160.233 48.4624L155.286 49.4388L154.032 49.6874C153.614 49.754 153.201 49.8515 152.797 49.9792C152.401 50.1256 152.038 50.349 151.728 50.6366C151.419 50.9241 151.17 51.2701 150.995 51.6545C150.749 52.189 150.659 52.7823 150.736 53.3658C150.826 53.9458 150.959 54.5403 151.071 55.1239L151.759 58.6114C152.213 60.922 152.661 63.1953 153.103 65.4314L155.646 78.3257C156.05 80.3841 156.444 82.386 156.828 84.3315C157.019 85.3043 157.206 86.2662 157.394 87.2137C157.487 87.6857 157.578 88.1541 157.671 88.6188C157.737 89.0785 157.847 89.5309 157.999 89.9699C158.171 90.3841 158.428 90.7582 158.752 91.0682C159.077 91.3783 159.462 91.6177 159.883 91.7712C160.293 91.9196 160.728 91.9822 161.162 91.955C161.593 91.906 162.022 91.8339 162.445 91.7388L167.323 90.7805L182.044 87.8983L186.05 87.1273L187.091 86.9291L187.452 86.8679C187.452 86.8679 187.333 86.9003 187.091 86.9507L186.05 87.1633L182.051 87.9703L167.341 90.9066L162.485 91.8757C162.057 91.9753 161.624 92.0498 161.188 92.0991C160.488 92.1426 159.791 91.9664 159.197 91.595C158.602 91.2235 158.138 90.6755 157.869 90.0275C157.707 89.5798 157.586 89.1178 157.509 88.6476C157.419 88.1829 157.325 87.7145 157.232 87.2426C157.044 86.2986 156.855 85.3379 156.662 84.3603L155.474 78.3581L152.919 65.4639C152.48 63.2302 152.031 60.9568 151.572 58.6438L150.912 55.1672C150.801 54.5799 150.667 54.0035 150.574 53.3982C150.497 52.784 150.592 52.1605 150.848 51.5968C151.032 51.1914 151.294 50.8262 151.619 50.5221C151.944 50.2179 152.326 49.9808 152.743 49.8243C153.156 49.6923 153.579 49.5924 154.007 49.5252L155.261 49.2767L160.208 48.3003L169.665 46.4341H169.701L169.733 46.4557L184.995 57.037H185.02V57.0658C186.854 66.433 188.374 74.1825 189.433 79.5975C189.693 80.9521 189.945 82.1519 190.125 83.2003C190.224 83.938 190.07 84.6877 189.688 85.3266C189.306 85.9654 188.718 86.4555 188.021 86.7166C187.888 86.7695 187.75 86.8104 187.61 86.8391L187.473 86.8715Z" fill="black"/>
<path d="M184.948 57.0766C184.868 57.1054 184.786 57.1271 184.703 57.1415L183.982 57.3L181.366 57.8476L177.483 58.633L175.184 59.087C174.538 59.1958 173.874 59.1005 173.284 58.8145C172.695 58.5285 172.209 58.0658 171.895 57.4909C171.698 57.1164 171.567 56.7104 171.509 56.2912C171.354 55.495 171.203 54.7276 171.063 53.9926C170.782 52.5335 170.529 51.2149 170.313 50.1017L169.827 47.4752C169.773 47.1798 169.733 46.942 169.701 46.7547C169.682 46.6719 169.673 46.5873 169.672 46.5025C169.702 46.5818 169.725 46.6638 169.74 46.7475L169.895 47.468C170.029 48.1057 170.216 48.9956 170.443 50.0836C170.67 51.1717 170.936 52.5119 171.232 53.9674C171.38 54.688 171.531 55.4662 171.689 56.2624C171.743 56.6621 171.865 57.0496 172.05 57.4081C172.25 57.7711 172.524 58.0888 172.853 58.3412C173.176 58.5885 173.546 58.7669 173.941 58.8654C174.336 58.9639 174.747 58.9805 175.148 58.914L177.443 58.4709L181.334 57.7251L183.964 57.2351L184.685 57.1126C184.771 57.091 184.859 57.0789 184.948 57.0766Z" fill="black"/>
<path d="M170.969 55.585C170.969 55.6355 167.935 56.2804 164.171 57.0261C160.406 57.7719 157.347 58.3304 157.325 58.2799C157.304 58.2295 160.359 57.5846 164.124 56.8388C167.889 56.093 170.958 55.5274 170.969 55.585Z" fill="black"/>
<path d="M178.427 59.3283C178.427 59.3788 173.945 60.3083 168.396 61.4035C162.848 62.4988 158.338 63.349 158.309 63.2986C158.28 63.2481 162.791 62.3186 168.342 61.2198C173.894 60.1209 178.416 59.2779 178.427 59.3283Z" fill="black"/>
<path d="M179.417 64.3506C179.417 64.401 174.935 65.3305 169.387 66.4258C163.838 67.521 159.328 68.3713 159.299 68.3208C159.27 68.2704 163.781 67.3373 169.333 66.242C174.885 65.1468 179.417 64.2965 179.417 64.3506Z" fill="black"/>
<path d="M160.322 73.3395C160.322 73.2891 164.804 72.3595 170.352 71.2643C175.901 70.1691 180.411 69.3188 180.422 69.3693C180.433 69.4197 175.94 70.3492 170.388 71.448C164.837 72.5469 160.322 73.3899 160.322 73.3395Z" fill="black"/>
<path d="M181.403 74.3915C181.403 74.4419 176.921 75.3714 171.372 76.4667C165.824 77.5619 161.314 78.4122 161.303 78.3617C161.292 78.3113 165.785 77.3818 171.333 76.2829C176.881 75.1841 181.392 74.3411 181.403 74.3915Z" fill="black"/>
<path d="M182.393 79.4138C182.393 79.4642 177.911 80.3937 172.363 81.4889C166.814 82.5842 162.304 83.4344 162.293 83.384C162.282 83.3336 166.775 82.4004 172.327 81.3052C177.879 80.21 182.382 79.3633 182.393 79.4138Z" fill="black"/>
<path d="M169.737 72.8943L150.775 76.6386C149.951 76.8013 149.415 77.601 149.578 78.4247L150.936 85.3029C151.099 86.1266 151.898 86.6626 152.722 86.4999L171.685 82.7555C172.508 82.5929 173.044 81.7932 172.882 80.9694L171.524 74.0913C171.361 73.2675 170.561 72.7316 169.737 72.8943Z" fill="#1C75BB"/>
<path d="M155.297 79.0715L156.99 78.7364C158.208 78.495 159.188 79.0643 159.411 80.1775C159.635 81.2908 158.943 82.2059 157.725 82.4472L156.032 82.7823L155.297 79.0715ZM157.541 81.7627C157.699 81.7394 157.85 81.6844 157.986 81.6009C158.122 81.5174 158.239 81.4072 158.331 81.277C158.423 81.1468 158.488 80.9993 158.521 80.8434C158.555 80.6875 158.556 80.5265 158.525 80.37C158.494 80.2136 158.432 80.0651 158.342 79.9334C158.253 79.8017 158.137 79.6896 158.003 79.6039C157.868 79.5182 157.718 79.4607 157.56 79.4348C157.403 79.4089 157.242 79.4152 157.087 79.4534L156.298 79.6083L156.756 81.9176L157.541 81.7627Z" fill="white"/>
<path d="M159.826 80.1091C159.722 79.7053 159.743 79.2798 159.884 78.8878C160.025 78.4957 160.281 78.155 160.618 77.9098C160.955 77.6646 161.358 77.5262 161.774 77.5124C162.191 77.4987 162.602 77.6102 162.954 77.8325C163.307 78.0549 163.584 78.3779 163.751 78.7598C163.918 79.1417 163.967 79.5649 163.89 79.9746C163.814 80.3843 163.617 80.7617 163.324 81.058C163.031 81.3543 162.655 81.5559 162.247 81.6366C161.987 81.704 161.716 81.7175 161.451 81.6762C161.186 81.635 160.932 81.5398 160.706 81.3967C160.479 81.2536 160.284 81.0655 160.132 80.844C159.981 80.6225 159.876 80.3724 159.826 80.1091ZM163.032 79.4786C162.978 79.2518 162.859 79.0458 162.69 78.8862C162.52 78.7265 162.307 78.6202 162.078 78.5805C161.848 78.5408 161.612 78.5694 161.398 78.6628C161.185 78.7562 161.004 78.9103 160.877 79.1059C160.75 79.3014 160.684 79.5299 160.686 79.7629C160.688 79.9958 160.759 80.2231 160.889 80.4163C161.019 80.6095 161.203 80.7603 161.418 80.8497C161.633 80.9392 161.87 80.9636 162.099 80.9197C162.259 80.8939 162.411 80.835 162.547 80.7466C162.682 80.6582 162.798 80.5423 162.886 80.4065C162.974 80.2707 163.032 80.1179 163.057 79.9581C163.082 79.7982 163.074 79.6349 163.032 79.4786Z" fill="white"/>
<path d="M164.318 79.2228C164.263 78.8167 164.328 78.4035 164.507 78.0345C164.685 77.6655 164.967 77.3569 165.319 77.1473C165.671 76.9377 166.077 76.8362 166.487 76.8555C166.896 76.8747 167.291 77.0139 167.621 77.2557L167.167 77.8645C167.026 77.7492 166.861 77.6668 166.684 77.6232C166.507 77.5796 166.323 77.5759 166.144 77.6124C165.988 77.6433 165.839 77.7049 165.706 77.7934C165.573 77.882 165.459 77.9959 165.37 78.1285C165.281 78.2611 165.22 78.41 165.188 78.5665C165.157 78.7231 165.157 78.8842 165.188 79.0408C165.219 79.1975 165.28 79.3464 165.369 79.4792C165.457 79.6121 165.571 79.7261 165.704 79.815C165.837 79.9038 165.985 79.9656 166.142 79.9969C166.298 80.0282 166.46 80.0284 166.616 79.9974C166.795 79.9634 166.965 79.8894 167.111 79.7809C167.258 79.6723 167.378 79.532 167.463 79.3705L168.119 79.7704C167.905 80.1202 167.593 80.3994 167.222 80.5734C166.851 80.7473 166.437 80.8084 166.032 80.7489C165.626 80.6893 165.247 80.5119 164.942 80.2386C164.636 79.9654 164.418 79.6084 164.314 79.212L164.318 79.2228Z" fill="white"/>
<path d="M183.409 60.2542C183.409 60.2542 185.318 57.8404 186.788 59.1734C188.258 60.5064 187.833 61.2198 186.428 63.3526C186.428 63.3526 189.548 63.1905 188.546 66.3934C188.546 66.3934 191.655 66.0331 191.356 68.6739C191.356 68.6739 193.705 70.9689 192.484 72.4496C191.263 73.9303 186.835 76.6036 185.718 76.1424C184.601 75.6813 184.59 74.0997 184.59 74.0997C184.59 74.0997 183.261 73.5016 182.893 72.7991C182.526 72.0965 183.156 71.1166 183.156 71.1166C183.156 71.1166 182.036 69.9709 181.759 69.6503C181.481 69.3296 181.91 67.8489 181.91 67.8489L183.711 66.1123C183.711 66.1123 181.247 67.1932 180.732 66.7753C180.217 66.3573 179.651 66.0115 180.188 65.2693C180.725 64.5271 182.71 62.8554 182.71 62.8554L183.409 60.2542Z" fill="#FFBE9D"/>
<path d="M184.847 74.3014C185.092 73.9549 185.363 73.6274 185.657 73.3215C186.295 72.504 187.064 71.799 187.934 71.2355C188.823 70.7455 189.678 70.1954 190.492 69.589C191.087 69.0954 191.321 68.6631 191.364 68.6919C191.407 68.7207 191.22 69.1891 190.644 69.7439C190.067 70.2987 189.112 70.868 188.122 71.4841C187.276 72.0399 186.508 72.705 185.837 73.462C185.556 73.7943 185.221 74.078 184.847 74.3014Z" fill="#EB996E"/>
<path d="M183.12 71.5957C183.063 71.5381 184.201 70.3024 185.678 68.836C186.399 68.1155 187.051 67.3949 187.595 66.9806C187.863 66.7159 188.192 66.5206 188.553 66.4114C188.575 66.451 188.218 66.6708 187.735 67.1319C187.253 67.5931 186.637 68.3064 185.887 69.0378C184.417 70.5113 183.178 71.6534 183.12 71.5957Z" fill="#EB996E"/>
<path d="M183.708 66.1268C183.651 66.0511 184.357 65.4891 185.149 64.7433C185.942 63.9975 186.338 63.2049 186.414 63.2337C186.49 63.2626 186.194 64.1741 185.358 64.9559C184.523 65.7377 183.741 66.1808 183.708 66.1268Z" fill="#EB996E"/>
<path d="M183.409 60.247C183.409 60.3082 183.399 60.3689 183.38 60.4272L183.258 60.9351C183.136 61.4155 182.967 62.0628 182.754 62.877C182.393 63.1941 181.986 63.558 181.55 63.9579C181.064 64.3903 180.619 64.8667 180.221 65.381C180.129 65.5128 180.081 65.6705 180.084 65.8313C180.113 65.9955 180.199 66.1445 180.325 66.2528C180.464 66.3818 180.611 66.5021 180.765 66.6131C180.837 66.6613 180.918 66.6947 181.004 66.7114C181.089 66.7281 181.177 66.7277 181.262 66.7104C182.098 66.5691 182.911 66.3171 183.68 65.961L184.256 65.7232L183.809 66.1591L182.026 67.8993L182.055 67.8633C181.917 68.1412 181.838 68.4445 181.822 68.7543C181.805 69.0641 181.853 69.3739 181.961 69.6646C182.331 70.2342 182.811 70.7241 183.373 71.1057L183.496 71.1958L183.38 71.3796C182.988 71.8407 182.714 72.5685 183.222 73.0152C183.723 73.4865 184.294 73.8767 184.915 74.1717L184.703 74.287V74.2437C184.742 74.287 184.62 74.1393 184.789 74.3698C185.193 74.1789 184.904 74.2906 184.995 74.2618V74.4779C184.999 74.5757 185.008 74.6731 185.023 74.7698C185.052 74.9666 185.105 75.1591 185.182 75.3426C185.255 75.5204 185.363 75.682 185.499 75.8182C185.622 75.9514 185.783 76.0433 185.96 76.0812C186.365 76.0918 186.767 76.0131 187.138 75.8506C187.539 75.6998 187.93 75.5241 188.309 75.3246C189.03 74.9483 189.727 74.5272 190.395 74.0636C191.049 73.6242 191.659 73.1236 192.218 72.5685C192.485 72.323 192.653 71.9886 192.69 71.6281C192.711 71.2685 192.645 70.909 192.499 70.5797C192.203 69.9092 191.787 69.2986 191.271 68.7784L191.227 68.7315V68.6631C191.272 68.3185 191.236 67.9683 191.123 67.6399C191 67.3298 190.779 67.0689 190.492 66.8977C189.903 66.5887 189.234 66.4632 188.572 66.5374H188.392L188.435 66.3609C188.482 66.1664 188.536 65.9754 188.576 65.7845C188.609 65.5954 188.625 65.4036 188.623 65.2116C188.634 64.8464 188.521 64.4882 188.302 64.1956C188.064 63.9465 187.774 63.7529 187.453 63.6283C187.131 63.5038 186.787 63.4515 186.443 63.4751H186.234L186.346 63.3022C186.708 62.7706 187.041 62.2197 187.344 61.6521C187.476 61.3977 187.562 61.1221 187.599 60.8379C187.621 60.5764 187.565 60.3142 187.437 60.0849C187.194 59.6569 186.859 59.2879 186.457 59.0041C186.282 58.9035 186.087 58.8409 185.886 58.8204C185.685 58.8 185.482 58.822 185.29 58.8852C184.748 59.077 184.256 59.3872 183.849 59.7931C183.701 59.9264 183.597 60.0381 183.525 60.1101C183.453 60.1822 183.417 60.2218 183.409 60.2182C183.432 60.1704 183.463 60.1266 183.499 60.0885C183.564 60.0092 183.662 59.8903 183.802 59.7282C183.977 59.5498 184.165 59.3848 184.364 59.2346C184.634 59.023 184.939 58.8597 185.265 58.7519C185.473 58.6781 185.694 58.6493 185.914 58.6673C186.133 58.6853 186.347 58.7498 186.54 58.8564L186.839 59.0761L187.109 59.3355C187.3 59.5242 187.465 59.7375 187.599 59.9696C187.747 60.2287 187.814 60.5261 187.79 60.8235C187.758 61.1302 187.668 61.4282 187.527 61.7025C187.227 62.2797 186.894 62.839 186.529 63.3778L186.432 63.2085C186.798 63.1987 187.164 63.251 187.513 63.3634C187.892 63.4779 188.229 63.7008 188.482 64.0047C188.735 64.3366 188.87 64.7438 188.864 65.1612C188.866 65.3699 188.85 65.5784 188.817 65.7845C188.777 65.9862 188.72 66.188 188.673 66.3969L188.536 66.2312C189.256 66.1475 189.985 66.2845 190.626 66.6239C190.963 66.8238 191.224 67.1306 191.368 67.4958C191.501 67.8659 191.545 68.2619 191.498 68.6523L191.458 68.537C192.001 69.0764 192.439 69.7116 192.751 70.4104C192.92 70.7816 192.994 71.1888 192.967 71.5957C192.948 71.8076 192.889 72.014 192.795 72.2046C192.695 72.3856 192.574 72.5538 192.434 72.7054C191.864 73.2778 191.239 73.793 190.568 74.2437C189.89 74.7158 189.182 75.1442 188.45 75.5263C188.06 75.7313 187.658 75.9118 187.246 76.0667C186.828 76.2474 186.375 76.3323 185.92 76.3153C185.691 76.2544 185.48 76.139 185.305 75.9791C185.13 75.8191 184.997 75.6193 184.915 75.3966C184.83 75.1922 184.771 74.978 184.739 74.7589C184.739 74.6509 184.714 74.5428 184.71 74.4347V74.1645C184.796 74.1321 184.512 74.2437 184.915 74.0528C185.085 74.2834 184.962 74.1357 184.998 74.1789V74.2654L184.977 74.4815L184.789 74.3807C184.137 74.0691 183.539 73.6556 183.017 73.1557C182.882 73.0166 182.778 72.8509 182.71 72.6693C182.655 72.4821 182.647 72.2838 182.689 72.0929C182.768 71.7389 182.935 71.4106 183.175 71.1382L183.197 71.3471C182.6 70.9399 182.093 70.4137 181.709 69.8015C181.55 69.4738 181.493 69.1065 181.543 68.7459C181.579 68.4052 181.667 68.0721 181.806 67.7588V67.7372H181.824L183.625 66.0078L183.755 66.2024C182.962 66.5656 182.121 66.8166 181.258 66.9482C181.032 66.9848 180.801 66.9318 180.614 66.8004C180.456 66.681 180.306 66.5522 180.163 66.4149C180.003 66.2731 179.898 66.0791 179.868 65.8673C179.86 65.6636 179.921 65.4633 180.041 65.2981C180.455 64.7746 180.918 64.2921 181.424 63.857C181.871 63.4535 182.282 63.0968 182.649 62.7762L182.631 62.8086C182.869 61.9835 183.06 61.3387 183.193 60.8703C183.258 60.6685 183.308 60.51 183.348 60.3731C183.365 60.3294 183.385 60.2872 183.409 60.247Z" fill="#EB996E"/>
<path d="M52.1998 79.666H29.9708C29.6054 79.6664 29.2435 79.5948 28.9059 79.4552C28.5682 79.3156 28.2614 79.1107 28.003 78.8524C27.7447 78.594 27.5398 78.2872 27.4002 77.9496C27.2606 77.6119 27.189 77.25 27.1895 76.8846V46.117C27.1895 45.3794 27.4825 44.6719 28.0041 44.1503C28.5257 43.6287 29.2331 43.3357 29.9708 43.3357H44.0684L54.9812 54.5835V76.8846C54.9812 77.6223 54.6881 78.3297 54.1665 78.8513C53.6449 79.3729 52.9375 79.666 52.1998 79.666Z" fill="#EBEBEB"/>
<path d="M44.0684 43.3501V51.9967C44.0684 52.6828 44.3409 53.3407 44.826 53.8259C45.3111 54.311 45.9691 54.5835 46.6551 54.5835H54.9811L44.0684 43.3501Z" fill="#F5F5F5"/>
<path d="M44.1804 52.7677C44.1804 52.7677 44.0723 54.8681 46.4646 55.5598C46.5545 55.5858 46.646 55.6062 46.7384 55.6211C47.8192 55.8156 54.9815 57.091 54.9815 56.9253V54.5979H46.6555C46.6555 54.5979 44.5767 54.5258 44.1804 52.7677Z" fill="#E0E0E0"/>
<path d="M52.1995 79.666C52.1995 79.666 52.3652 79.666 52.6787 79.6119C53.1418 79.5257 53.5756 79.3237 53.9396 79.0247C54.2323 78.7839 54.4721 78.4851 54.6439 78.1472C54.8156 77.8093 54.9156 77.4396 54.9376 77.0612C54.9376 76.1641 54.9376 75.1229 54.9376 73.9592C54.9376 69.3008 54.9376 62.6357 54.9052 54.5835L54.9268 54.6376L44.0068 43.3969L44.0717 43.4258H30.5973C30.2366 43.411 29.8752 43.4242 29.5165 43.4654C28.9221 43.5648 28.3783 43.8611 27.9726 44.3067C27.5668 44.7523 27.3226 45.3214 27.2792 45.9225C27.2792 46.416 27.2792 46.9312 27.2792 47.432C27.2792 48.436 27.2792 49.4364 27.2792 50.4331V56.2984C27.2792 60.1462 27.2792 63.8642 27.2792 67.3913C27.2792 69.1591 27.2792 70.8812 27.2792 72.5577V76.2397C27.2575 76.6307 27.2744 77.0229 27.3296 77.4106C27.4022 77.7819 27.5516 78.1339 27.7681 78.4441C27.9846 78.7543 28.2635 79.0159 28.587 79.212C28.9009 79.4012 29.2504 79.5239 29.6138 79.5723C29.9732 79.603 30.3341 79.6126 30.6946 79.6011H34.8882L47.5519 79.6299L50.9962 79.6479H51.8896H52.1959H51.8896H50.9962L47.5519 79.666L34.8882 79.6948H30.6946C30.3233 79.7048 29.9517 79.6952 29.5813 79.666C28.9922 79.587 28.4423 79.3263 28.0084 78.9201C27.5744 78.5139 27.278 77.9825 27.1603 77.3998C27.1065 77.0011 27.0884 76.5984 27.1062 76.1965C27.1062 75.7966 27.1062 75.3967 27.1062 74.9896V72.5145C27.1062 70.8332 27.1062 69.1111 27.1062 67.3481C27.1062 63.8138 27.1062 60.103 27.1062 56.2552V47.45C27.1062 46.942 27.1062 46.4449 27.1062 45.9261C27.1428 45.3986 27.3262 44.8919 27.6359 44.4633C27.8544 44.1552 28.1319 43.8934 28.4522 43.693C28.7725 43.4927 29.1293 43.3577 29.5021 43.2961C29.8668 43.2543 30.2342 43.2411 30.6009 43.2564H44.1077L44.1365 43.2816L55.0421 54.5403L55.0637 54.5619V54.5943C55.0637 62.6465 55.0385 69.3116 55.0277 73.97C55.0277 75.1373 55.0277 76.1713 55.0277 77.0756C54.9899 77.7041 54.7391 78.301 54.3167 78.7679C53.8943 79.2348 53.3255 79.544 52.7039 79.6443C52.5853 79.6682 52.4645 79.6791 52.3436 79.6768C52.2954 79.6765 52.2472 79.6729 52.1995 79.666Z" fill="black"/>
<path d="M54.9818 54.5979C54.9121 54.614 54.8406 54.6201 54.7692 54.6159L54.1531 54.634L51.8978 54.6628L48.5544 54.6844H46.5765C46.021 54.6664 45.4846 54.4771 45.0408 54.1423C44.5971 53.8076 44.2677 53.3438 44.0978 52.8146C43.9974 52.4697 43.956 52.1104 43.9753 51.7517C43.9753 51.0672 43.9753 50.4079 43.9753 49.7774C43.9753 48.5237 43.9753 47.3924 43.9753 46.4305C43.9753 45.4685 44.0005 44.7336 44.0077 44.1751V43.5627C43.9976 43.4922 43.9976 43.4206 44.0077 43.3501C44.0215 43.4201 44.0276 43.4914 44.0258 43.5627C44.0258 43.7248 44.0258 43.9229 44.0258 44.1751C44.0258 44.7336 44.0258 45.4973 44.0546 46.4305C44.0834 47.3636 44.0546 48.5237 44.0762 49.7774C44.0762 50.4079 44.0762 51.0672 44.0762 51.7517C44.0556 52.0912 44.0959 52.4316 44.1951 52.7569C44.2981 53.0889 44.4713 53.3949 44.7031 53.654C44.9288 53.9116 45.2053 54.1198 45.5153 54.2655C45.8253 54.4112 46.1621 54.4912 46.5045 54.5006H48.4788H51.8221L54.0775 54.5331L54.6935 54.5511C54.7918 54.5476 54.8897 54.5636 54.9818 54.5979Z" fill="black"/>
<path d="M43.6469 51.078C43.6469 51.1285 41.0205 51.1717 37.7852 51.1717C34.5499 51.1717 31.9199 51.1285 31.9199 51.078C31.9199 51.0276 34.5427 50.9844 37.7852 50.9844C41.0277 50.9844 43.6469 51.024 43.6469 51.078Z" fill="black"/>
<path d="M49.2132 55.3977C49.2132 55.4482 45.3402 55.4914 40.5666 55.4914C35.7929 55.4914 31.9199 55.4482 31.9199 55.3977C31.9199 55.3473 35.7893 55.3041 40.5666 55.3041C45.3438 55.3041 49.2132 55.3437 49.2132 55.3977Z" fill="black"/>
<path d="M49.2132 59.7175C49.2132 59.7679 45.3402 59.8111 40.5666 59.8111C35.7929 59.8111 31.9199 59.7679 31.9199 59.7175C31.9199 59.667 35.7893 59.6238 40.5666 59.6238C45.3438 59.6238 49.2132 59.6634 49.2132 59.7175Z" fill="black"/>
<path d="M49.2132 64.0371C49.2132 64.0876 45.3402 64.1308 40.5666 64.1308C35.7929 64.1308 31.9199 64.0876 31.9199 64.0371C31.9199 63.9867 35.7893 63.9435 40.5666 63.9435C45.3438 63.9435 49.2132 63.9831 49.2132 64.0371Z" fill="black"/>
<path d="M49.2132 68.3569C49.2132 68.4073 45.3402 68.4505 40.5666 68.4505C35.7929 68.4505 31.9199 68.4073 31.9199 68.3569C31.9199 68.3064 35.7893 68.2632 40.5666 68.2632C45.3438 68.2632 49.2132 68.3064 49.2132 68.3569Z" fill="black"/>
<path d="M49.2132 72.6766C49.2132 72.727 45.3402 72.7702 40.5666 72.7702C35.7929 72.7702 31.9199 72.727 31.9199 72.6766C31.9199 72.6261 35.7893 72.5829 40.5666 72.5829C45.3438 72.5829 49.2132 72.6261 49.2132 72.6766Z" fill="black"/>
<path d="M39.5648 65.2009H23.7235C22.8838 65.2009 22.2031 65.8816 22.2031 66.7212V72.165C22.2031 73.0047 22.8838 73.6854 23.7235 73.6854H39.5648C40.4045 73.6854 41.0852 73.0047 41.0852 72.165V66.7212C41.0852 65.8816 40.4045 65.2009 39.5648 65.2009Z" fill="#28A8DF"/>
<path d="M29.5968 69.1243C29.5968 69.8448 29.0599 70.2843 28.2061 70.2843H27.5576V71.167H26.8154V67.9642H28.2061C29.0599 67.9642 29.5968 68.4073 29.5968 69.1243ZM28.8438 69.1243C28.8438 68.764 28.6168 68.5658 28.1629 68.5658H27.5576V69.6791H28.1629C28.6168 69.6791 28.8438 69.4737 28.8438 69.1243Z" fill="white"/>
<path d="M30.1221 67.9642H31.5632C32.6116 67.9642 33.3321 68.5947 33.3321 69.5674C33.3321 70.5401 32.6116 71.167 31.5632 71.167H30.1221V67.9642ZM31.5416 70.5582C31.6769 70.5663 31.8125 70.5467 31.9401 70.5005C32.0676 70.4543 32.1843 70.3825 32.283 70.2896C32.3818 70.1966 32.4604 70.0844 32.5142 69.9599C32.568 69.8354 32.5957 69.7012 32.5957 69.5656C32.5957 69.43 32.568 69.2958 32.5142 69.1713C32.4604 69.0468 32.3818 68.9346 32.283 68.8416C32.1843 68.7487 32.0676 68.6769 31.9401 68.6307C31.8125 68.5845 31.6769 68.5649 31.5416 68.573H30.8642V70.5582H31.5416Z" fill="white"/>
<path d="M34.6474 68.5586V69.4053H36.1282V69.9997H34.6474V71.167H33.9053V67.9642H36.3263V68.5586H34.6474Z" fill="white"/>
<path d="M38.0412 130.382H16.0643C15.3353 130.382 14.6361 130.092 14.1206 129.577C13.605 129.061 13.3154 128.362 13.3154 127.633V97.1898C13.3145 96.4632 13.6012 95.7658 14.1129 95.25C14.6247 94.7342 15.3198 94.442 16.0463 94.4373H29.9962L40.8045 105.566V127.633C40.804 127.995 40.7321 128.354 40.5929 128.688C40.4537 129.022 40.2499 129.326 39.9932 129.581C39.7365 129.836 39.432 130.038 39.097 130.176C38.7621 130.313 38.4033 130.383 38.0412 130.382Z" fill="#EBEBEB"/>
<path d="M29.9961 94.4373V103.005C29.9956 103.341 30.0614 103.674 30.1898 103.985C30.3181 104.295 30.5065 104.578 30.744 104.816C30.9816 105.054 31.2638 105.242 31.5743 105.371C31.8849 105.5 32.2178 105.566 32.5541 105.566H40.7936L29.9961 94.4373Z" fill="#F5F5F5"/>
<path d="M30.1082 103.758C30.1082 103.758 30.0001 105.836 32.3635 106.517C32.453 106.545 32.5446 106.565 32.6373 106.579C33.7182 106.773 40.794 108.02 40.794 107.868V105.566H32.5545C32.5545 105.566 30.4973 105.498 30.1082 103.758Z" fill="#E0E0E0"/>
<path d="M38.0407 130.382C38.0407 130.382 38.2064 130.382 38.5163 130.328C38.9747 130.243 39.4038 130.042 39.7628 129.744C40.0519 129.507 40.2885 129.212 40.4578 128.878C40.6271 128.545 40.7254 128.18 40.7464 127.806C40.7464 126.916 40.7464 125.886 40.7464 124.737C40.7464 120.129 40.7464 113.536 40.714 105.566L40.7356 105.62L29.9273 94.5021L29.9921 94.5273H16.6619C16.3096 94.5149 15.9568 94.5281 15.6063 94.567C14.9098 94.685 14.2882 95.0735 13.877 95.6478C13.5926 96.0456 13.4242 96.5146 13.3906 97.0024C13.3906 97.4888 13.3906 98.0004 13.3906 98.494V118.244V123.353V126.995C13.3718 127.383 13.3899 127.771 13.4447 128.156C13.5524 128.701 13.8281 129.199 14.2332 129.581C14.6383 129.962 15.1524 130.207 15.7036 130.281C16.063 130.312 16.4239 130.322 16.7844 130.31H20.9384L33.4652 130.339L36.8698 130.357H37.7561H38.0587H37.7561H36.8698H33.4652L20.9204 130.465H16.7664C16.3987 130.478 16.0306 130.469 15.664 130.44C15.2829 130.394 14.9151 130.272 14.5831 130.079C14.2453 129.876 13.9533 129.605 13.7257 129.283C13.4981 128.961 13.3398 128.596 13.2609 128.21C13.2071 127.816 13.189 127.418 13.2069 127.021V118.244V107.267V98.494C13.2069 97.9932 13.2069 97.5032 13.2069 96.988C13.2531 96.3514 13.512 95.7489 13.9419 95.2771C14.3719 94.8054 14.9479 94.4918 15.5775 94.3868C15.9362 94.3461 16.2975 94.3316 16.6583 94.3436H30.0318L30.0606 94.3724L40.8473 105.509L40.8689 105.53V105.563C40.8689 113.532 40.8437 120.125 40.8365 124.733C40.8365 125.886 40.8365 126.895 40.8365 127.806C40.8107 128.188 40.7061 128.561 40.5294 128.901C40.3527 129.24 40.1077 129.54 39.8097 129.78C39.4426 130.077 39.004 130.272 38.5379 130.346C38.4193 130.37 38.2985 130.381 38.1776 130.378L38.0407 130.382Z" fill="black"/>
<path d="M40.7941 105.566C40.7244 105.582 40.6529 105.588 40.5815 105.584L39.9907 105.606L37.7606 105.635L34.4496 105.656H32.4753C32.1124 105.646 31.7554 105.562 31.4268 105.407C31.0982 105.253 30.8051 105.032 30.5659 104.759C30.32 104.484 30.1357 104.16 30.0254 103.808C29.9253 103.467 29.8839 103.111 29.903 102.756C29.903 102.079 29.903 101.427 29.903 100.8C29.903 99.5604 29.903 98.44 29.903 97.4925C29.903 96.5449 29.9282 95.8136 29.9354 95.2587C29.9354 95.0138 29.9354 94.812 29.9354 94.6535C29.9336 94.582 29.9409 94.5106 29.957 94.4409C29.9645 94.5116 29.9645 94.5828 29.957 94.6535C29.957 94.812 29.957 95.0138 29.957 95.2587C29.957 95.8136 29.957 96.5702 29.9858 97.4925C30.0146 98.4148 29.9858 99.5604 30.0074 100.8C30.0074 101.427 30.0074 102.079 30.0074 102.756C29.9876 103.092 30.0266 103.428 30.1227 103.75C30.2791 104.238 30.5821 104.664 30.9903 104.973C31.3985 105.281 31.892 105.455 32.4033 105.473H34.3524L37.6633 105.494L39.8934 105.523H40.5023C40.6011 105.523 40.6995 105.538 40.7941 105.566Z" fill="black"/>
<path d="M29.5784 102.082C29.5784 102.136 26.9808 102.176 23.778 102.176C20.5751 102.176 17.9775 102.136 17.9775 102.082C17.9775 102.028 20.5751 102.003 23.778 102.003C26.9808 102.003 29.5784 102.032 29.5784 102.082Z" fill="black"/>
<path d="M35.0835 106.359C35.0835 106.409 31.2537 106.452 26.5305 106.452C21.8073 106.452 17.9775 106.409 17.9775 106.359C17.9775 106.308 21.8073 106.265 26.5305 106.265C31.2537 106.265 35.0835 106.305 35.0835 106.359Z" fill="black"/>
<path d="M35.0835 110.65C35.0835 110.7 31.2537 110.743 26.5305 110.743C21.8073 110.743 17.9775 110.682 17.9775 110.65C17.9775 110.617 21.8073 110.556 26.5305 110.556C31.2537 110.556 35.0835 110.578 35.0835 110.65Z" fill="black"/>
<path d="M35.0835 114.905C35.0835 114.955 31.2537 114.998 26.5305 114.998C21.8073 114.998 17.9775 114.973 17.9775 114.905C17.9775 114.836 21.8073 114.811 26.5305 114.811C31.2537 114.811 35.0835 114.854 35.0835 114.905Z" fill="black"/>
<path d="M35.0835 119.177C35.0835 119.231 31.2537 119.271 26.5305 119.271C21.8073 119.271 17.9775 119.231 17.9775 119.177C17.9775 119.123 21.8073 119.084 26.5305 119.084C31.2537 119.084 35.0835 119.127 35.0835 119.177Z" fill="black"/>
<path d="M35.0835 123.454C35.0835 123.504 31.2537 123.548 26.5305 123.548C21.8073 123.548 17.9775 123.504 17.9775 123.454C17.9775 123.403 21.8073 123.36 26.5305 123.36C31.2537 123.36 35.0835 123.4 35.0835 123.454Z" fill="black"/>
<path d="M25.5252 116.057H9.8856C9.04593 116.057 8.36523 116.738 8.36523 117.578V122.931C8.36523 123.771 9.04593 124.452 9.8856 124.452H25.5252C26.3649 124.452 27.0456 123.771 27.0456 122.931V117.578C27.0456 116.738 26.3649 116.057 25.5252 116.057Z" fill="#8CBF43"/>
<path d="M15.6749 119.941C15.6749 120.662 15.1453 121.087 14.2987 121.087H13.661V121.962H12.9404V118.792H14.3131C15.1309 118.792 15.6749 119.232 15.6749 119.941ZM14.9328 119.941C14.9328 119.581 14.7058 119.39 14.259 119.39H13.661V120.489H14.259C14.7058 120.489 14.9328 120.287 14.9328 119.941Z" fill="white"/>
<path d="M18.9464 119.941C18.9464 120.662 18.4168 121.087 17.5702 121.087H16.9325V121.962H16.2119V118.792H17.5846C18.4168 118.792 18.9464 119.232 18.9464 119.941ZM18.2042 119.941C18.2042 119.581 17.9773 119.39 17.5305 119.39H16.9325V120.489H17.5305C17.9773 120.489 18.2042 120.287 18.2042 119.941Z" fill="white"/>
<path d="M20.0384 119.39H19.0225V118.792H21.7858V119.39H20.7734V121.962H20.0529L20.0384 119.39Z" fill="white"/>
<path d="M81.2854 43.4257H59.4454C58.7202 43.4257 58.0247 43.1376 57.5119 42.6248C56.999 42.112 56.7109 41.4165 56.7109 40.6912V10.428C56.7147 9.7053 57.0045 9.01347 57.5169 8.50376C58.0293 7.99406 58.7227 7.70794 59.4454 7.70795H73.3053L84.0199 18.7792V40.7057C84.0161 41.4284 83.7263 42.1202 83.2139 42.6299C82.7015 43.1396 82.0081 43.4257 81.2854 43.4257Z" fill="#EBEBEB"/>
<path d="M73.2911 7.70795V16.2213C73.2892 16.5565 73.3535 16.8888 73.4805 17.1991C73.6075 17.5093 73.7946 17.7914 74.0309 18.0292C74.2673 18.2669 74.5484 18.4555 74.8579 18.5843C75.1674 18.713 75.4994 18.7792 75.8346 18.7792H84.0201L73.2911 7.70795Z" fill="#F5F5F5"/>
<path d="M73.4021 16.9779C73.4021 16.9779 73.294 19.0459 75.6467 19.7232C75.7331 19.7484 75.8232 19.7664 75.9133 19.7845C76.9941 19.9754 84.0195 21.2256 84.0195 21.0634V18.7793H75.834C75.834 18.7793 73.7912 18.6964 73.4021 16.9779Z" fill="#E0E0E0"/>
<path d="M81.285 43.4258C81.285 43.4258 81.4471 43.4258 81.757 43.3681C82.2117 43.2825 82.6378 43.0843 82.9963 42.7917C83.2832 42.554 83.5182 42.26 83.6867 41.9279C83.8553 41.5957 83.9539 41.2324 83.9763 40.8606C83.9763 39.9815 83.9763 38.9583 83.9763 37.8127C83.9763 33.2335 83.9583 26.6837 83.9438 18.7648L83.9655 18.8189L73.2292 7.77281L73.2941 7.79803H60.0503C59.6992 7.78557 59.3476 7.79882 58.9983 7.83766C58.6552 7.89561 58.3271 8.02096 58.0327 8.20647C57.7384 8.39199 57.4837 8.63399 57.2834 8.91849C57.0003 9.31263 56.8331 9.77812 56.8006 10.2623C56.8006 10.7451 56.8006 11.2531 56.8006 11.7467V20.4653C56.8006 24.2446 56.8006 27.8942 56.8006 31.3673C56.8006 33.1038 56.8006 34.8007 56.8006 36.4472V38.8791C56.8006 39.279 56.8006 39.6753 56.8006 40.068C56.7827 40.4518 56.7996 40.8365 56.8511 41.2173C56.9602 41.7594 57.2352 42.2542 57.638 42.6331C58.0408 43.012 58.5514 43.2563 59.0992 43.3321C59.4587 43.3607 59.8196 43.3691 60.18 43.3573H64.3052L76.7527 43.3861H80.1357H81.0184H81.3174H81.0184H80.1357L76.7527 43.4041L64.3052 43.433H60.18C59.8195 43.4424 59.4587 43.4328 59.0992 43.4041C58.7184 43.3578 58.3508 43.2353 58.0184 43.0439C57.6827 42.842 57.3927 42.5725 57.167 42.2524C56.9412 41.9324 56.7845 41.5688 56.707 41.1848C56.652 40.7947 56.6327 40.4004 56.6493 40.0067V38.8178C56.6493 38.018 56.6493 37.2074 56.6493 36.386C56.6493 34.7395 56.6493 33.0426 56.6493 31.3061C56.6493 27.833 56.6493 24.1834 56.6493 20.4041C56.6493 18.5139 56.6493 16.5924 56.6493 14.6397V11.7395C56.6493 11.2387 56.6493 10.7523 56.6493 10.2407C56.6838 9.72121 56.8635 9.22186 57.1681 8.7996C57.3837 8.49689 57.657 8.23982 57.9724 8.04319C58.2877 7.84657 58.6388 7.71427 59.0055 7.65392C59.3642 7.61284 59.7255 7.59839 60.0864 7.61069H73.3661L73.3914 7.63951L84.1096 18.7036L84.1312 18.7288V18.7793C84.1312 26.7053 84.106 33.248 84.0988 37.8271C84.0988 38.9727 84.0988 39.9887 84.0807 40.8822C84.0563 41.2618 83.9529 41.6321 83.7774 41.9696C83.6019 42.307 83.3579 42.6042 83.0612 42.8421C82.6957 43.1369 82.26 43.3318 81.7966 43.4077C81.6776 43.4282 81.5571 43.4391 81.4363 43.4402L81.285 43.4258Z" fill="black"/>
<path d="M84.0194 18.7792C83.9498 18.7957 83.8784 18.803 83.8069 18.8009H83.2052L80.9895 18.8333L77.7002 18.8513H75.7547C75.3939 18.842 75.039 18.7581 74.7123 18.6049C74.3855 18.4518 74.094 18.2327 73.856 17.9614C73.6133 17.6862 73.4305 17.3635 73.3192 17.0139C73.2182 16.6754 73.178 16.3216 73.2003 15.9691C73.2003 15.2954 73.2003 14.6469 73.2003 14.0272C73.2003 12.795 73.2003 11.6818 73.2219 10.7379C73.2436 9.79395 73.2436 9.06979 73.2508 8.52217C73.2508 8.27718 73.2508 8.07903 73.2508 7.92051C73.2466 7.84916 73.2527 7.77758 73.2688 7.70795C73.2789 7.77844 73.2789 7.85002 73.2688 7.92051C73.2688 8.07903 73.2688 8.28079 73.2868 8.52217C73.2868 9.06979 73.3048 9.82277 73.3156 10.7379C73.3264 11.653 73.3156 12.795 73.3372 14.0272C73.3372 14.6469 73.3372 15.2954 73.3372 15.9691C73.3161 16.3021 73.3539 16.6363 73.4489 16.9562C73.6049 17.4398 73.9062 17.8636 74.3117 18.1698C74.7172 18.4761 75.2072 18.6499 75.7151 18.6675H77.6533L80.9427 18.6892L83.1584 18.718H83.76C83.8483 18.7301 83.9351 18.7506 84.0194 18.7792Z" fill="black"/>
<path d="M72.8765 15.3062C72.8765 15.3566 70.2969 15.3999 67.1121 15.3999C63.9272 15.3999 61.3477 15.3566 61.3477 15.3062C61.3477 15.2558 63.9308 15.2125 67.1121 15.2125C70.2933 15.2125 72.8765 15.2522 72.8765 15.3062Z" fill="black"/>
<path d="M78.3491 19.5502C78.3491 19.6043 74.541 19.6439 69.8502 19.6439C65.1594 19.6439 61.3477 19.6043 61.3477 19.5502C61.3477 19.4962 65.1522 19.4565 69.8502 19.4565C74.5482 19.4565 78.3491 19.4998 78.3491 19.5502Z" fill="black"/>
<path d="M78.3491 23.7979C78.3491 23.8483 74.541 23.8916 69.8502 23.8916C65.1594 23.8916 61.3477 23.8483 61.3477 23.7979C61.3477 23.7475 65.1522 23.7042 69.8502 23.7042C74.5482 23.7042 78.3491 23.7475 78.3491 23.7979Z" fill="black"/>
<path d="M78.3491 28.0456C78.3491 28.096 74.541 28.1392 69.8502 28.1392C65.1594 28.1392 61.3477 28.096 61.3477 28.0456C61.3477 27.9951 65.1522 27.9519 69.8502 27.9519C74.5482 27.9519 78.3491 27.9915 78.3491 28.0456Z" fill="black"/>
<path d="M78.3491 32.2896C78.3491 32.3436 74.541 32.3833 69.8502 32.3833C65.1594 32.3833 61.3477 32.3436 61.3477 32.2896C61.3477 32.2356 65.1522 32.1959 69.8502 32.1959C74.5482 32.1959 78.3491 32.2392 78.3491 32.2896Z" fill="black"/>
<path d="M78.3491 36.5373C78.3491 36.5913 74.541 36.6309 69.8502 36.6309C65.1594 36.6309 61.3477 36.5877 61.3477 36.5373C61.3477 36.4868 65.1522 36.4436 69.8502 36.4436C74.5482 36.4436 78.3491 36.4868 78.3491 36.5373Z" fill="black"/>
<path d="M68.8379 29.1876H53.3172C52.4776 29.1876 51.7969 29.8683 51.7969 30.708V36.0076C51.7969 36.8473 52.4776 37.528 53.3172 37.528H68.8379C69.6776 37.528 70.3583 36.8473 70.3583 36.0076V30.708C70.3583 29.8683 69.6776 29.1876 68.8379 29.1876Z" fill="#8CBF43"/>
<path d="M58.321 35.0529L57.5608 33.9721L56.8114 35.0529H55.9756L57.1393 33.4497L56.0332 31.9005H56.8619L57.5824 32.9237L58.303 31.9005H59.0848L58.0039 33.4209L59.1784 35.0529H58.321Z" fill="white"/>
<path d="M59.4453 31.9005H60.1659V34.4585H61.7439V35.0529H59.4453V31.9005Z" fill="white"/>
<path d="M61.9023 34.7431L62.1509 34.1919C62.4556 34.4038 62.8174 34.5182 63.1885 34.5197C63.6209 34.5197 63.7974 34.3756 63.7974 34.1847C63.7974 33.5938 61.9636 33.9973 61.9636 32.8264C61.9636 32.2932 62.3959 31.8465 63.293 31.8465C63.6721 31.8403 64.0457 31.9375 64.3738 32.1275L64.1469 32.6787C63.8822 32.5229 63.5821 32.4373 63.275 32.4301C62.8427 32.4301 62.6769 32.5958 62.6769 32.7904C62.6769 33.374 64.5072 32.9705 64.5072 34.1306C64.5072 34.6566 64.0712 35.107 63.1705 35.107C62.7208 35.1159 62.2789 34.9891 61.9023 34.7431Z" fill="white"/>
<path d="M216.454 134.655H194.253C193.517 134.655 192.81 134.362 192.289 133.841C191.768 133.32 191.476 132.614 191.476 131.877V101.146C191.476 100.409 191.768 99.7024 192.289 99.1815C192.81 98.6606 193.517 98.3679 194.253 98.3679H208.333L219.231 109.601V131.877C219.231 132.614 218.939 133.32 218.418 133.841C217.897 134.362 217.19 134.655 216.454 134.655Z" fill="#EBEBEB"/>
<path d="M208.333 98.3679V107.015C208.333 107.7 208.605 108.357 209.09 108.841C209.574 109.326 210.231 109.598 210.916 109.598H219.231L208.333 98.3679Z" fill="#F5F5F5"/>
<path d="M208.445 107.768C208.445 107.768 208.337 109.868 210.726 110.556C210.814 110.582 210.905 110.602 210.996 110.617C212.077 110.812 219.232 112.084 219.232 111.918V109.594H210.917C210.917 109.594 208.838 109.533 208.445 107.768Z" fill="#E0E0E0"/>
<path d="M216.454 134.655C216.454 134.655 216.619 134.655 216.933 134.597C217.396 134.51 217.829 134.308 218.194 134.01C218.485 133.769 218.724 133.471 218.895 133.134C219.066 132.797 219.166 132.428 219.188 132.05C219.188 131.153 219.188 130.115 219.188 128.955C219.188 124.301 219.188 117.646 219.156 109.601L219.177 109.655L208.272 98.4327L208.337 98.458H194.88C194.519 98.4448 194.158 98.458 193.799 98.4976C193.098 98.6131 192.471 99.0017 192.056 99.5784C191.767 99.9789 191.597 100.452 191.562 100.944C191.562 101.437 191.562 101.953 191.562 102.453C191.562 103.46 191.562 104.459 191.562 105.451V111.309C191.562 115.15 191.562 118.857 191.562 122.388C191.562 124.153 191.562 125.873 191.562 127.547V130.018C191.562 130.422 191.562 130.825 191.562 131.225C191.543 131.615 191.561 132.006 191.616 132.392C191.725 132.945 192.003 133.45 192.412 133.837C192.82 134.224 193.339 134.475 193.897 134.554C194.257 134.597 194.617 134.576 194.977 134.583H199.171L211.817 134.615H215.254H216.147H216.454H216.147H215.254L211.817 134.633L199.171 134.662H194.977C194.607 134.672 194.237 134.662 193.868 134.633C193.279 134.555 192.73 134.295 192.297 133.889C191.863 133.484 191.568 132.953 191.45 132.371C191.395 131.973 191.377 131.572 191.396 131.171C191.396 130.771 191.396 130.368 191.396 129.964V127.493C191.396 125.811 191.396 124.092 191.396 122.333C191.396 118.803 191.396 115.096 191.396 111.255V102.464C191.396 101.956 191.396 101.463 191.396 100.944C191.431 100.417 191.614 99.9099 191.922 99.4811C192.366 98.8618 193.037 98.4434 193.789 98.3174C194.147 98.2773 194.509 98.2628 194.869 98.2742H208.358L208.383 98.303L219.275 109.544L219.296 109.569V109.598C219.296 117.643 219.271 124.297 219.264 128.952C219.264 130.112 219.264 131.146 219.264 132.05C219.239 132.436 219.134 132.812 218.956 133.155C218.778 133.498 218.531 133.8 218.23 134.042C217.858 134.343 217.415 134.542 216.944 134.619C216.824 134.639 216.704 134.65 216.583 134.651L216.454 134.655Z" fill="black"/>
<path d="M219.231 109.601C219.16 109.618 219.088 109.625 219.015 109.623H218.402L216.151 109.655L212.811 109.673H210.837C210.281 109.658 209.745 109.47 209.301 109.136C208.857 108.801 208.529 108.337 208.361 107.807C208.261 107.463 208.22 107.105 208.239 106.748C208.239 106.063 208.239 105.404 208.239 104.774C208.239 103.523 208.239 102.392 208.257 101.434C208.275 100.475 208.279 99.7369 208.286 99.1821C208.286 98.9299 208.286 98.7281 208.304 98.5696C208.302 98.4969 208.309 98.4243 208.325 98.3535C208.331 98.4254 208.331 98.4977 208.325 98.5696L208.343 99.1821C208.343 99.7369 208.343 100.501 208.372 101.434C208.401 102.367 208.372 103.523 208.394 104.774C208.394 105.404 208.394 106.063 208.394 106.748C208.374 107.086 208.413 107.425 208.509 107.749C208.615 108.08 208.788 108.386 209.017 108.647C209.244 108.903 209.52 109.11 209.83 109.255C210.14 109.4 210.477 109.48 210.819 109.49H212.789L216.129 109.511L218.381 109.54L218.993 109.558C219.074 109.566 219.153 109.58 219.231 109.601Z" fill="black"/>
<path d="M207.912 106.085C207.912 106.139 205.289 106.179 202.057 106.179C198.826 106.179 196.199 106.139 196.199 106.085C196.199 106.031 198.822 105.991 202.057 105.991C205.293 105.991 207.912 106.035 207.912 106.085Z" fill="black"/>
<path d="M213.471 110.401C213.471 110.452 209.602 110.495 204.824 110.495C200.047 110.495 196.178 110.452 196.178 110.401C196.178 110.351 200.044 110.307 204.824 110.307C209.605 110.307 213.471 110.347 213.471 110.401Z" fill="black"/>
<path d="M213.471 114.714C213.471 114.768 209.602 114.807 204.824 114.807C200.047 114.807 196.178 114.768 196.178 114.714C196.178 114.66 200.044 114.62 204.824 114.62C209.605 114.62 213.471 114.663 213.471 114.714Z" fill="black"/>
<path d="M213.471 119.03C213.471 119.08 209.602 119.123 204.824 119.123C200.047 119.123 196.178 119.08 196.178 119.03C196.178 118.979 200.044 118.936 204.824 118.936C209.605 118.936 213.471 118.976 213.471 119.03Z" fill="black"/>
<path d="M213.471 123.342C213.471 123.396 209.602 123.436 204.824 123.436C200.047 123.436 196.178 123.396 196.178 123.342C196.178 123.288 200.044 123.249 204.824 123.249C209.605 123.249 213.471 123.292 213.471 123.342Z" fill="black"/>
<path d="M213.471 128.664C213.471 128.718 209.602 128.757 204.824 128.757C200.047 128.757 196.178 128.718 196.178 128.664C196.178 128.609 200.044 128.57 204.824 128.57C209.605 128.57 213.471 128.613 213.471 128.664Z" fill="black"/>
<path d="M203.834 120.19H188.017C187.178 120.19 186.497 120.871 186.497 121.71V127.143C186.497 127.983 187.178 128.664 188.017 128.664H203.834C204.673 128.664 205.354 127.983 205.354 127.143V121.71C205.354 120.871 204.673 120.19 203.834 120.19Z" fill="#8CBF43"/>
<path d="M188.68 122.953H190.121C191.169 122.953 191.886 123.584 191.886 124.556C191.886 125.529 191.166 126.156 190.121 126.156H188.68V122.953ZM190.099 125.547C190.235 125.555 190.37 125.536 190.498 125.489C190.625 125.443 190.742 125.371 190.841 125.278C190.939 125.186 191.018 125.073 191.072 124.949C191.126 124.824 191.153 124.69 191.153 124.555C191.153 124.419 191.126 124.285 191.072 124.16C191.018 124.036 190.939 123.924 190.841 123.831C190.742 123.738 190.625 123.666 190.498 123.62C190.37 123.573 190.235 123.554 190.099 123.562H189.422V125.547H190.099Z" fill="white"/>
<path d="M192.258 124.556C192.238 124.206 192.323 123.857 192.503 123.555C192.684 123.254 192.95 123.013 193.269 122.865C193.587 122.717 193.943 122.667 194.29 122.723C194.637 122.78 194.959 122.939 195.214 123.18C195.47 123.421 195.647 123.734 195.723 124.077C195.798 124.42 195.77 124.778 195.64 125.104C195.51 125.43 195.285 125.71 194.994 125.908C194.703 126.105 194.36 126.21 194.009 126.21C193.784 126.223 193.558 126.189 193.347 126.112C193.135 126.035 192.941 125.915 192.777 125.76C192.613 125.605 192.483 125.419 192.393 125.212C192.304 125.005 192.258 124.782 192.258 124.556ZM195.01 124.556C195.006 124.359 194.944 124.168 194.831 124.006C194.718 123.844 194.561 123.719 194.377 123.647C194.194 123.574 193.993 123.557 193.8 123.598C193.608 123.639 193.431 123.736 193.293 123.877C193.155 124.018 193.062 124.197 193.025 124.39C192.988 124.584 193.009 124.784 193.086 124.966C193.162 125.148 193.29 125.303 193.455 125.412C193.619 125.521 193.812 125.579 194.009 125.58C194.143 125.583 194.276 125.558 194.401 125.507C194.525 125.457 194.638 125.381 194.732 125.285C194.825 125.189 194.899 125.075 194.947 124.95C194.995 124.824 195.016 124.69 195.01 124.556Z" fill="white"/>
<path d="M196.116 124.556C196.14 124.213 196.263 123.883 196.472 123.609C196.68 123.335 196.964 123.127 197.289 123.012C197.613 122.897 197.965 122.88 198.299 122.962C198.634 123.045 198.937 123.223 199.171 123.476L198.696 123.915C198.596 123.799 198.472 123.707 198.332 123.645C198.193 123.583 198.041 123.552 197.889 123.555C197.627 123.57 197.382 123.685 197.202 123.876C197.023 124.066 196.923 124.318 196.923 124.58C196.923 124.842 197.023 125.093 197.202 125.284C197.382 125.475 197.627 125.589 197.889 125.605C198.043 125.606 198.196 125.572 198.335 125.507C198.475 125.442 198.598 125.346 198.696 125.226L199.171 125.662C198.938 125.918 198.635 126.1 198.3 126.184C197.964 126.268 197.611 126.252 197.285 126.136C196.959 126.021 196.674 125.812 196.466 125.535C196.258 125.259 196.136 124.927 196.116 124.582V124.556Z" fill="white"/>
<path d="M201.621 126.142L200.85 125.061L200.09 126.142H199.232L200.414 124.513L199.29 122.939H200.133L200.854 123.976L201.574 122.939H202.374L201.257 124.484L202.475 126.142H201.621Z" fill="white"/>
<path d="M240.564 145.207C240.564 145.258 186.71 145.301 120.289 145.301C53.8685 145.301 0 145.258 0 145.207C0 145.157 53.8433 145.114 120.289 145.114C186.735 145.114 240.564 145.157 240.564 145.207Z" fill="black"/>
</g>
<defs>
<clipPath id="clip0">
<rect width="245.254" height="145.595" fill="white" transform="translate(0 0.405151)"/>
</clipPath>
</defs>
</svg>
