<svg width="189" height="183" viewBox="0 0 189 183" fill="none" xmlns="http://www.w3.org/2000/svg">
<path d="M106.674 181.334C99.2986 177.841 96.3537 169.541 95.3135 161.806C95.138 160.522 94.7699 159.187 95.1894 157.954C95.6089 156.721 96.9016 155.711 98.1429 156.058C99.1745 156.344 99.778 157.385 100.467 158.198C101.386 159.301 102.599 160.122 103.964 160.565C104.85 160.852 105.908 160.937 106.64 160.36C107.641 159.559 107.496 158.005 107.29 156.734C106.871 154.354 106.453 151.977 106.036 149.603C105.746 148.34 105.661 147.04 105.784 145.75C105.976 144.466 106.661 143.182 107.817 142.651C108.972 142.12 110.595 142.548 111.061 143.756C111.201 144.276 111.304 144.805 111.37 145.339C111.494 145.866 111.84 146.409 112.367 146.469C112.893 146.529 113.351 146.084 113.672 145.648C114.773 144.137 115.385 142.326 115.941 140.532C116.498 138.739 117.02 136.911 117.979 135.302C118.937 133.692 120.401 132.305 122.212 131.877C124.023 131.449 126.163 132.262 126.921 133.983C127.678 135.704 126.946 137.707 126.064 139.355C124.734 141.803 123.057 144.046 121.086 146.016C120.69 146.338 120.408 146.779 120.282 147.274C120.145 148.173 121.095 148.879 121.994 149.016C122.995 149.175 124.014 148.901 125.029 148.849C126.043 148.798 127.199 149.055 127.734 149.932C128.474 151.148 127.614 152.702 126.694 153.785C124.848 155.946 122.643 157.77 120.174 159.178C119.293 159.683 118.355 160.15 117.709 160.937C117.063 161.725 116.801 162.953 117.409 163.775C118.017 164.597 119.246 164.687 120.196 164.336C121.146 163.985 121.938 163.304 122.82 162.791C124.459 161.832 126.745 161.571 128.128 162.898C128.559 163.362 128.877 163.919 129.056 164.527C129.235 165.135 129.27 165.776 129.159 166.399C128.931 167.642 128.455 168.825 127.759 169.879C125.544 173.69 122.356 176.843 118.522 179.018C114.67 181.12 110.984 182.139 106.691 181.342" fill="#F5F5F5"/>
<path d="M107.843 176.18C108.41 171.775 109.23 167.406 110.3 163.095L111.122 159.696C111.391 158.583 111.661 157.479 111.978 156.413C112.615 154.375 113.365 152.375 114.225 150.42C115.034 148.541 115.869 146.79 116.661 145.16C117.452 143.529 118.227 142.022 118.989 140.678C120.181 138.554 121.537 136.527 123.047 134.617C123.582 133.94 124.014 133.431 124.31 133.089L124.648 132.703C124.729 132.618 124.768 132.575 124.772 132.575C124.744 132.628 124.709 132.676 124.669 132.72C124.588 132.819 124.481 132.952 124.348 133.123C124.061 133.474 123.642 133.979 123.12 134.677C121.643 136.604 120.311 138.639 119.135 140.763C118.386 142.108 117.624 143.614 116.836 145.249C116.048 146.885 115.227 148.635 114.426 150.506C113.575 152.461 112.832 154.462 112.2 156.499C111.871 157.556 111.605 158.639 111.344 159.769L110.522 163.163C109.459 167.466 108.634 171.825 108.053 176.219" fill="#E0E0E0"/>
<path d="M112.058 156.392C111.964 156.227 111.89 156.052 111.84 155.869C111.716 155.527 111.549 155.013 111.352 154.41C110.954 153.168 110.466 151.413 109.935 149.526C109.404 147.638 108.895 145.892 108.48 144.659C108.274 144.042 108.103 143.546 107.983 143.203C107.911 143.029 107.855 142.849 107.816 142.664C107.923 142.821 108.007 142.99 108.069 143.169C108.219 143.503 108.416 143.991 108.638 144.603C109.096 145.823 109.636 147.544 110.166 149.457C110.697 151.371 111.151 153.053 111.51 154.358C111.677 154.949 111.819 155.441 111.939 155.839C112 156.018 112.04 156.203 112.058 156.392Z" fill="#E0E0E0"/>
<path d="M127.952 150.549C127.745 150.632 127.532 150.695 127.314 150.737C126.886 150.848 126.295 151.002 125.559 151.217C124.082 151.645 122.066 152.278 119.87 153.091C117.674 153.905 115.718 154.727 114.305 155.364C113.603 155.677 113.043 155.946 112.653 156.126C112.46 156.237 112.254 156.326 112.041 156.392C112.221 156.259 112.413 156.143 112.615 156.045C112.987 155.835 113.539 155.544 114.233 155.189C115.615 154.508 117.567 153.661 119.767 152.843C121.646 152.141 123.559 151.536 125.499 151.028C126.244 150.836 126.851 150.707 127.275 150.626C127.498 150.579 127.724 150.554 127.952 150.549Z" fill="#E0E0E0"/>
<path d="M107.992 175.842C107.937 175.788 107.888 175.728 107.847 175.662L107.466 175.114C107.136 174.639 106.678 173.937 106.126 173.064C105.013 171.318 103.558 168.856 101.987 166.121C100.416 163.386 98.9904 160.912 97.9074 159.144L96.6233 157.055L96.2808 156.486C96.2371 156.42 96.2012 156.35 96.1738 156.276C96.1738 156.276 96.2295 156.336 96.3194 156.46C96.4093 156.584 96.5505 156.785 96.7003 157.004C97.0299 157.479 97.4879 158.181 98.0444 159.054C99.153 160.8 100.613 163.262 102.184 166.001C103.755 168.741 105.18 171.206 106.259 172.974L107.543 175.063C107.68 175.294 107.795 175.491 107.889 175.637C107.933 175.7 107.967 175.769 107.992 175.842Z" fill="#E0E0E0"/>
<path d="M128.616 165.124C128.616 165.124 128.552 165.175 128.415 165.248L127.82 165.569L125.611 166.72C123.745 167.692 121.189 169.066 118.364 170.573C115.539 172.08 112.962 173.445 111.087 174.382C110.141 174.849 109.375 175.239 108.844 175.465L108.224 175.744C108.153 175.781 108.079 175.808 108.001 175.825C108.063 175.776 108.13 175.734 108.202 175.701L108.801 175.38L111.01 174.228C112.872 173.257 115.432 171.883 118.257 170.376C121.082 168.869 123.659 167.504 125.534 166.566C126.475 166.1 127.246 165.732 127.777 165.483L128.393 165.205C128.463 165.168 128.538 165.141 128.616 165.124Z" fill="#E0E0E0"/>
<path d="M53.1509 89.4579C53.1509 89.4579 48.0657 90.1642 50.9208 101.302C53.7759 112.44 56.1986 118.184 56.1986 118.184C56.1986 118.184 56.5796 120.705 54.5464 120.628C52.5131 120.551 48.3654 118.916 46.9614 121.095C45.5017 123.368 46.7773 126.112 49.9577 128.984C53.1381 131.856 59.9055 138.401 60.5133 138.992C61.1212 139.582 61.5663 140.811 60.1709 140.982C58.7755 141.153 48.879 139.989 48.6136 144.719C48.3482 149.449 58.5443 155.985 59.6444 156.704C60.7445 157.423 60.9286 158.018 60.6717 158.656C60.4149 159.294 57.1361 158.592 54.3067 158.378C51.4773 158.164 48.1599 158.408 48.2327 161.152C48.3054 163.895 53.6603 170.825 69.2883 175.975L76.685 177.888L82.1511 172.503C93.1519 160.27 94.3548 151.593 93.0578 149.179C91.7608 146.765 88.7773 148.195 86.4059 149.791C84.0345 151.388 81.5519 153.644 81.0211 153.194C80.4903 152.745 80.3533 152.175 80.944 150.99C81.5347 149.804 87.1379 139.064 84.5525 135.092C81.9671 131.12 73.954 137.048 72.657 137.596C71.3601 138.144 71.146 136.843 71.3729 136.042C71.5998 135.242 74.2194 126.197 75.5592 122.105C76.899 118.013 76.6464 115.017 74.2494 113.767C71.9379 112.56 69.1599 116.052 67.4306 117.131C65.7013 118.21 64.7853 115.847 64.7853 115.847C64.7853 115.847 64.0362 109.662 60.9756 98.5796C57.9151 87.4974 53.0439 89.4793 53.0439 89.4793" fill="#EBEBEB"/>
<path d="M76.6804 179.746C74.4674 171.613 70.7776 157.059 67.5416 144.569C64.3055 132.079 61.3734 120.821 59.2032 112.645C58.1117 108.574 57.2299 105.274 56.6349 102.984C56.3353 101.85 56.0999 100.968 55.9372 100.356C55.8601 100.065 55.8002 99.8337 55.7617 99.671C55.7232 99.5084 55.7061 99.4356 55.7061 99.4356C55.7061 99.4356 55.736 99.5127 55.7831 99.6668C55.8302 99.8209 55.8987 100.052 55.9843 100.343C56.1555 100.951 56.4123 101.833 56.7248 102.958C57.3669 105.231 58.2743 108.523 59.3787 112.602C61.596 120.735 64.5581 132.036 67.7898 144.509C71.0216 156.982 74.6857 171.544 76.8602 179.703" fill="#E0E0E0"/>
<path d="M52.6494 123.637C52.8209 123.707 52.9845 123.794 53.1374 123.898C53.4413 124.078 53.8779 124.352 54.4215 124.695C55.4874 125.384 56.9385 126.368 58.5179 127.49L62.5544 130.366L63.7786 131.222C63.9327 131.318 64.0762 131.43 64.2067 131.556C64.0336 131.492 63.8696 131.406 63.7187 131.299C63.4105 131.12 62.9782 130.846 62.4346 130.495C61.3773 129.797 59.9391 128.782 58.3596 127.674L54.306 124.827L53.0732 123.971C52.9204 123.875 52.7783 123.763 52.6494 123.637Z" fill="#E0E0E0"/>
<path d="M64.8449 131.205C64.7893 131.167 66.6941 128.089 69.0954 124.326C71.4968 120.564 73.4958 117.546 73.5514 117.58C73.6071 117.615 71.7023 120.692 69.2966 124.455C66.891 128.217 64.9006 131.239 64.8449 131.205Z" fill="#E0E0E0"/>
<path d="M68.9453 150.583C69.0714 150.436 69.2152 150.305 69.3734 150.193L70.5248 149.183C71.5007 148.327 72.8363 147.146 74.2659 145.785C75.6956 144.423 76.9541 143.152 77.853 142.219L78.9188 141.119C79.0484 140.977 79.1918 140.848 79.3469 140.734C79.2475 140.895 79.1313 141.046 79.0001 141.183C78.769 141.461 78.4223 141.855 77.9899 142.335C77.1339 143.298 75.8797 144.595 74.4414 145.956C73.0032 147.317 71.6506 148.49 70.6489 149.312C70.1438 149.718 69.7329 150.048 69.4418 150.262C69.2905 150.39 69.1237 150.497 68.9453 150.583Z" fill="#E0E0E0"/>
<path d="M56.4248 146.165C56.5977 146.183 56.7675 146.223 56.9299 146.285L58.2868 146.713C59.4254 147.077 60.9963 147.595 62.7257 148.182C64.455 148.768 66.0173 149.312 67.1431 149.714L68.4743 150.206C68.6414 150.255 68.8012 150.325 68.9495 150.416C68.7767 150.395 68.6071 150.354 68.4444 150.292L67.0917 149.864C65.9489 149.5 64.3779 148.982 62.6486 148.4C60.9193 147.818 59.3569 147.27 58.2312 146.863L56.8999 146.375C56.7342 146.323 56.5748 146.253 56.4248 146.165Z" fill="#E0E0E0"/>
<path d="M57.8721 163.733C58.0918 163.768 58.308 163.823 58.5184 163.895L60.2563 164.426C61.7202 164.884 63.7363 165.535 65.9622 166.262C68.188 166.99 70.1956 167.666 71.6466 168.163L73.3588 168.766C73.5736 168.83 73.7815 168.914 73.9795 169.019C73.7597 168.984 73.5434 168.929 73.3331 168.856L71.5953 168.334C70.1313 167.876 68.111 167.225 65.8851 166.498C63.6593 165.77 61.656 165.094 60.2049 164.597L58.4927 163.994C58.2773 163.928 58.0693 163.841 57.8721 163.733Z" fill="#E0E0E0"/>
<path d="M73.624 168.784C73.7747 168.599 73.9424 168.428 74.1248 168.274L75.5417 166.943C76.7359 165.813 78.3839 164.251 80.1475 162.474C81.911 160.698 83.4777 159.05 84.5992 157.856L85.9261 156.434C86.0823 156.253 86.2526 156.084 86.4355 155.929C86.3094 156.13 86.1662 156.319 86.0074 156.494C85.7164 156.85 85.2797 157.35 84.7233 157.967C83.6318 159.2 82.0908 160.865 80.3187 162.645C78.5466 164.426 76.8943 165.967 75.6572 167.063C75.0409 167.611 74.54 168.047 74.189 168.347C74.0138 168.509 73.8248 168.655 73.624 168.784Z" fill="#E0E0E0"/>
<path d="M31.0634 23.0377L26.8856 21.7321C26.8856 21.7321 25.7941 25.2379 22.1258 24.1635C21.4164 23.9695 20.7851 23.5595 20.3195 22.9903C19.8539 22.4211 19.5771 21.721 19.5275 20.9873C19.4777 20.3709 19.5743 19.7514 19.8093 19.1794C20.0444 18.6074 20.4113 18.099 20.8801 17.6957C21.9545 16.7497 23.8379 16.1718 26.4961 17.5458L29.4368 8.12881L25.3061 6.84467L23.594 12.3622C23.594 12.3622 17.3231 12.0454 15.3326 18.4319C13.4278 24.5401 18.4617 27.6649 20.8074 28.3968C22.6009 28.9576 28.8418 30.4301 31.0634 23.0377Z" fill="#F5F5F5"/>
<path d="M25.8594 4.88046L30.0518 6.18866L31.2733 2.27412L27.0808 0.965921L25.8594 4.88046Z" fill="#F5F5F5"/>
<path d="M42.5957 12.4007L44.2651 11.9726C44.214 11.7823 44.2016 11.5836 44.2286 11.3884C44.2557 11.1931 44.3217 11.0053 44.4227 10.8361C44.5237 10.6668 44.6576 10.5196 44.8166 10.403C44.9755 10.2865 45.1563 10.2031 45.3481 10.1577C45.6269 10.0729 45.9252 10.0772 46.2014 10.17C46.4777 10.2629 46.7181 10.4396 46.889 10.6756C47.0346 10.872 47.1318 11.0999 47.1727 11.3409C47.2136 11.5819 47.1971 11.8291 47.1244 12.0625C46.9661 12.6061 46.4567 13.1926 45.2753 13.2953L46.2726 17.0664L47.9249 16.6383L47.3428 14.4082C47.9697 14.0296 48.4547 13.4553 48.7231 12.7738C48.9915 12.0924 49.0284 11.3416 48.8281 10.6371C48.186 8.19296 45.8317 8.20152 44.9029 8.44979C44.1838 8.63813 41.7824 9.45998 42.5957 12.4007Z" fill="#EBEBEB"/>
<path d="M48.383 17.2013L46.6973 17.6531L47.1191 19.2268L48.8048 18.7749L48.383 17.2013Z" fill="#EBEBEB"/>
<path d="M180.769 55.7234L182.395 56.3141C182.462 56.1284 182.565 55.9579 182.698 55.8127C182.832 55.6675 182.993 55.5506 183.173 55.4688C183.353 55.387 183.547 55.342 183.744 55.3365C183.941 55.3309 184.137 55.365 184.321 55.4366C184.595 55.5259 184.834 55.6969 185.007 55.9265C185.18 56.1562 185.278 56.4334 185.289 56.7208C185.3 56.9664 185.252 57.2112 185.149 57.4346C185.047 57.658 184.892 57.8535 184.698 58.0049C184.27 58.3602 183.504 58.5571 182.476 57.9664L181.145 61.6348L182.755 62.2169L183.534 60.0767C184.264 60.1212 184.989 59.9251 185.597 59.5185C186.206 59.1119 186.664 58.5171 186.902 57.8251C187.759 55.4452 185.832 54.1183 184.916 53.7887C184.219 53.5361 181.779 52.8427 180.769 55.7234Z" fill="#EBEBEB"/>
<path d="M182.512 62.9768L180.878 62.385L180.325 63.9103L181.959 64.5022L182.512 62.9768Z" fill="#EBEBEB"/>
<path d="M8.13342 74.3563L11.5578 73.0293C11.5578 73.0293 10.4449 70.14 13.4284 68.9286C13.9994 68.687 14.6313 68.6285 15.2369 68.7611C15.8426 68.8938 16.3922 69.211 16.8099 69.6691C17.1654 70.05 17.4258 70.5095 17.5701 71.0101C17.7144 71.5107 17.7385 72.0383 17.6403 72.5499C17.4263 73.7399 16.4846 75.1182 14.0062 75.589L17.0026 83.3538L20.4055 82.0397L18.6548 77.4939C18.6548 77.4939 22.9353 74.4205 20.9235 69.1598C18.9844 64.1259 14.0191 64.6952 12.0886 65.44C10.6375 66.0307 5.74064 68.308 8.13342 74.3563Z" fill="#F5F5F5"/>
<path d="M21.0918 83.6256L17.6367 84.9567L18.8801 88.1841L22.3352 86.853L21.0918 83.6256Z" fill="#F5F5F5"/>
<path d="M182.108 87.4332L179.668 88.3749C179.668 88.3749 180.46 90.4252 178.345 91.2813C177.941 91.4544 177.492 91.4968 177.062 91.4024C176.633 91.308 176.243 91.0815 175.948 90.7548C175.696 90.4852 175.511 90.1597 175.408 89.8048C175.305 89.45 175.288 89.0758 175.358 88.713C175.512 87.8569 176.179 86.9024 177.926 86.5728L175.807 81.0724L173.393 82.0012L174.634 85.2244C173.757 85.8963 173.124 86.8378 172.833 87.9041C172.542 88.9705 172.61 90.1028 173.025 91.1272C174.399 94.6971 177.917 94.2905 179.287 93.764C180.344 93.3274 183.812 91.7136 182.108 87.4332Z" fill="#F5F5F5"/>
<path d="M172.939 80.8493L175.388 79.906L174.507 77.6213L172.059 78.5646L172.939 80.8493Z" fill="#F5F5F5"/>
<path d="M189 182.07C189 182.13 146.688 182.181 94.5043 182.181C42.321 182.181 0 182.13 0 182.07C0 182.01 42.3039 181.959 94.5043 181.959C146.705 181.959 189 182.006 189 182.07Z" fill="black"/>
<path d="M27.1424 170.954C27.5705 169.379 26.5175 167.799 25.3575 166.673C24.1975 165.548 22.8192 164.507 22.2156 162.996C21.2397 160.552 22.5538 157.385 20.8887 155.343C19.9084 154.14 18.1534 153.738 17.2845 152.458C16.8846 151.748 16.6191 150.97 16.5012 150.163C15.5771 146.091 13.5736 142.343 10.7011 139.312C10.5095 142.933 11.2945 146.539 12.9741 149.753C13.6504 151.037 14.4765 152.291 14.6863 153.721C15.0501 156.049 13.7531 158.429 14.3224 160.728C14.9773 163.339 17.9095 165.085 18.0507 167.773C18.1663 170.046 16.1844 172.054 16.3385 174.314C16.4545 175.281 16.801 176.206 17.3487 177.011C19.108 179.93 21.6891 181.946 25.6015 181.878L30.3956 182.044L27.1424 170.954Z" fill="#8CBF43"/>
<path opacity="0.3" d="M27.1424 170.954C27.5705 169.379 26.5175 167.799 25.3575 166.673C24.1975 165.548 22.8192 164.507 22.2156 162.996C21.2397 160.552 22.5538 157.385 20.8887 155.343C19.9084 154.14 18.1534 153.738 17.2845 152.458C16.8846 151.748 16.6191 150.97 16.5012 150.163C15.5771 146.091 13.5736 142.343 10.7011 139.312C10.5095 142.933 11.2945 146.539 12.9741 149.753C13.6504 151.037 14.4765 152.291 14.6863 153.721C15.0501 156.049 13.7531 158.429 14.3224 160.728C14.9773 163.339 17.9095 165.085 18.0507 167.773C18.1663 170.046 16.1844 172.054 16.3385 174.314C16.4545 175.281 16.801 176.206 17.3487 177.011C19.108 179.93 21.6891 181.946 25.6015 181.878L30.3956 182.044L27.1424 170.954Z" fill="black"/>
<path d="M31.3798 182.173C31.819 182.24 32.2667 182.23 32.7024 182.143C33.2337 182.066 33.7557 181.936 34.2605 181.753C34.9556 181.51 35.6052 181.153 36.1824 180.696C36.5309 180.417 36.8032 180.055 36.9743 179.643C37.1162 179.179 37.1926 178.698 37.2012 178.213C37.2095 177.694 37.2467 177.175 37.3125 176.66C37.4061 176.113 37.6037 175.59 37.8946 175.119C38.4639 174.126 39.4014 173.188 39.7053 171.84C40.0092 170.491 39.7952 169.079 39.5726 167.636C39.35 166.194 39.1445 164.64 39.6839 163.133C40.2232 161.627 41.2505 160.282 41.777 158.592C42.3035 156.901 42.0553 155.052 42.1666 153.241C42.2009 152.322 42.4132 151.417 42.7915 150.579C43.1767 149.723 43.7161 148.931 44.1356 148.036C44.9917 146.23 45.1372 144.184 45.3683 142.18C45.4853 141.17 45.6009 140.149 45.7151 139.116C45.7844 138.078 45.9623 137.051 46.2458 136.051C46.5692 135.04 46.9522 134.05 47.393 133.084C47.6189 132.58 47.8022 132.057 47.9409 131.522C48.0216 130.976 48.073 130.426 48.095 129.874C48.1484 128.767 48.1054 127.657 47.9666 126.557C47.8382 125.452 47.637 124.352 47.5385 123.244C47.5385 123.179 47.5385 123.115 47.5385 123.055V122.833L47.3416 122.931C46.3295 123.45 45.4506 124.196 44.7734 125.11C44.1095 126.003 43.5763 126.986 43.1896 128.029C42.3849 130.088 42.0981 132.25 41.6957 134.309C41.2933 136.367 40.7797 138.392 39.7267 140.104C39.2002 140.96 38.5667 141.735 38.0145 142.57C37.4188 143.38 37.0122 144.313 36.8245 145.301C36.542 147.33 37.6806 149.11 37.4238 150.904C37.3209 151.785 37.0289 152.633 36.5677 153.391C36.1396 154.157 35.6217 154.868 35.1337 155.583C34.6391 156.28 34.2093 157.02 33.8496 157.796C33.479 158.55 33.2484 159.365 33.169 160.201C33.0534 161.819 33.2846 163.352 33.169 164.798C33.0354 166.175 32.6341 167.513 31.9876 168.736C31.4054 169.918 30.7591 170.984 30.2197 172.015C29.9501 172.533 29.6975 173.038 29.4921 173.543C29.2976 174.032 29.1542 174.54 29.064 175.059C28.9208 175.964 28.9093 176.885 29.0298 177.794C29.1566 179.061 29.6306 180.268 30.3995 181.282C30.5175 181.436 30.6477 181.579 30.7891 181.711C30.8836 181.81 30.9883 181.899 31.1015 181.976C31.2813 182.109 31.3755 182.169 31.3755 182.169C31.035 181.896 30.725 181.587 30.4509 181.248C29.7138 180.233 29.2696 179.035 29.1668 177.785C29.0577 176.888 29.0779 175.98 29.2267 175.089C29.3186 174.582 29.4621 174.085 29.6547 173.608C29.8602 173.115 30.1127 172.615 30.3867 172.101C30.9303 171.078 31.5809 170.016 32.1759 168.826C32.8357 167.584 33.2471 166.224 33.3873 164.824C33.5114 163.347 33.2889 161.806 33.4087 160.227C33.4638 159.426 33.6594 158.64 33.9866 157.907C34.347 157.147 34.7769 156.422 35.2707 155.741C35.7544 155.03 36.2723 154.316 36.7175 153.536C37.2048 152.749 37.5171 151.866 37.6335 150.947C37.8647 149.033 36.7774 147.24 37.0428 145.356C37.2287 144.412 37.622 143.52 38.1943 142.745C38.7422 141.928 39.38 141.145 39.9065 140.271C40.998 138.512 41.5245 136.445 41.9226 134.377C42.3207 132.31 42.6203 130.169 43.4036 128.153C43.7833 127.137 44.3034 126.179 44.9489 125.307C45.6006 124.431 46.4459 123.718 47.4187 123.222L47.2004 123.098C47.2004 123.158 47.2004 123.226 47.2004 123.291C47.3202 124.412 47.5214 125.512 47.6498 126.604C47.7849 127.688 47.8265 128.782 47.774 129.874C47.7544 130.408 47.7059 130.941 47.6284 131.471C47.4927 131.983 47.3122 132.483 47.0891 132.965C46.647 133.94 46.2626 134.94 45.9377 135.961C45.6489 136.978 45.4667 138.022 45.394 139.077C45.2827 140.109 45.1672 141.132 45.0559 142.142C44.829 144.158 44.6749 146.17 43.8573 147.912C43.4293 148.768 42.9156 149.581 42.5176 150.459C42.1272 151.329 41.9092 152.267 41.8755 153.22C41.7685 155.069 42.0082 156.875 41.5116 158.515C41.0151 160.154 39.9664 161.511 39.4399 163.052C38.9134 164.593 39.106 166.232 39.3372 167.666C39.5683 169.1 39.7995 170.513 39.4913 171.788C39.1831 173.064 38.3013 174.006 37.7277 175.029C37.4271 175.519 37.225 176.062 37.1327 176.63C37.0682 177.151 37.0339 177.675 37.03 178.201C37.0296 178.671 36.9618 179.14 36.8288 179.592C36.6679 179.985 36.412 180.332 36.084 180.602C35.5317 181.054 34.9102 181.414 34.2434 181.668C33.7458 181.858 33.2313 182.002 32.7067 182.096C32.3857 182.152 32.0608 182.183 31.735 182.19C31.4953 182.169 31.3798 182.173 31.3798 182.173Z" fill="#263238"/>
<path d="M46.5243 125.705C46.5064 125.752 46.492 125.801 46.4815 125.85C46.4516 125.966 46.4173 126.107 46.3745 126.278C46.2804 126.655 46.1691 127.224 45.985 127.939C45.8009 128.654 45.3643 129.45 44.9919 130.443C44.5558 131.557 44.1758 132.691 43.8533 133.842C43.4852 135.126 43.1642 136.539 42.826 138.058C42.4879 139.578 42.124 141.204 41.2893 142.741C40.8955 143.52 40.4546 144.308 40.1036 145.168C39.7585 146.053 39.5269 146.978 39.4145 147.921C39.1731 149.87 38.8273 151.804 38.3786 153.716C37.4198 157.646 36.5038 161.387 35.6691 164.794L33.3876 173.83C32.7541 176.399 32.2404 178.462 31.8808 179.926C31.7139 180.628 31.5812 181.184 31.487 181.586C31.4485 181.762 31.4143 181.908 31.3929 182.015C31.3786 182.063 31.37 182.114 31.3672 182.164C31.3672 182.164 31.3929 182.117 31.4228 182.023C31.4528 181.929 31.4956 181.766 31.547 181.595C31.654 181.193 31.8081 180.645 31.975 179.947C32.3603 178.487 32.9039 176.42 33.5759 173.877C34.2479 171.335 35.0313 168.249 35.9088 164.858C36.7863 161.468 37.7108 157.719 38.6782 153.781C39.129 151.861 39.4734 149.917 39.7098 147.959C39.8202 147.04 40.0445 146.139 40.3776 145.275C40.7157 144.419 41.1524 143.649 41.5419 142.865C42.398 141.299 42.7361 139.621 43.0743 138.11C43.4124 136.599 43.7121 135.169 44.0631 133.893C44.4141 132.618 44.7822 131.484 45.1503 130.499C45.5184 129.515 45.9251 128.697 46.1006 127.965C46.2761 127.233 46.3617 126.681 46.4345 126.287C46.463 126.11 46.4887 125.967 46.5115 125.859C46.5243 125.761 46.5329 125.709 46.5243 125.705Z" fill="#263238"/>
<path d="M32.2278 182.186C35.3568 180.328 36.2557 174.678 34.9502 171.279C33.6446 167.88 31.3588 164.773 31.0078 161.147C30.7382 158.361 31.6499 155.501 31.0078 152.779C30.1517 149.102 26.5433 146.255 26.5861 142.476C26.5861 140.357 27.8146 138.362 27.7204 136.243C27.6006 133.645 25.6059 131.586 24.3731 129.296C22.4811 125.795 22.357 121.651 21.7106 117.739C21.0643 113.827 19.5704 109.606 16.0861 107.676C15.5725 111.01 14.695 113.292 14.9732 117.812C15.0716 119.434 16.955 122.52 17.2119 126.094C17.366 128.235 17.4687 130.345 17.6014 132.472C17.7341 134.6 17.8625 136.65 18.603 138.585C19.1723 140.07 20.0841 141.414 20.5078 142.947C21.2997 145.832 20.2553 148.939 20.8974 151.871C21.441 154.346 23.1532 156.473 23.5042 158.981C23.9964 162.504 21.7149 166.164 22.8792 169.528C23.4614 171.193 24.8311 172.525 25.2206 174.258C25.5245 175.594 25.195 177.006 25.4689 178.35C25.897 180.512 30.0362 182.203 32.2363 182.057" fill="#8CBF43"/>
<path d="M16.9418 110.976C16.9361 111.038 16.9361 111.101 16.9418 111.164C16.9418 111.305 16.9846 111.485 17.0145 111.712C17.083 112.196 17.1644 112.902 17.327 113.814C17.4897 114.725 17.9776 115.77 18.3543 117.02C18.731 118.27 19.1505 119.699 19.5015 121.3C19.8525 122.901 20.1607 124.686 20.4732 126.599C20.7856 128.513 21.1281 130.597 22.0783 132.592C22.5064 133.594 23.0115 134.595 23.3625 135.661C23.7238 136.758 23.9453 137.895 24.0217 139.047C24.1989 141.487 24.5061 143.916 24.942 146.324L27.643 160.253C28.499 164.533 29.3081 168.364 29.9758 171.6C30.6436 174.836 31.1915 177.417 31.5724 179.245C31.765 180.127 31.9149 180.825 32.0005 181.317C32.0518 181.544 32.0946 181.719 32.1246 181.856C32.1356 181.918 32.1528 181.978 32.176 182.036C32.1765 181.974 32.1693 181.912 32.1546 181.852C32.1546 181.711 32.0989 181.531 32.0604 181.308C31.9662 180.807 31.8335 180.11 31.6666 179.219C31.3113 177.392 30.8105 174.776 30.1684 171.557C29.5264 168.338 28.803 164.482 27.9511 160.201C27.0993 155.921 26.239 151.212 25.2759 146.277C24.8395 143.869 24.5309 141.44 24.3513 139C24.2702 137.826 24.0415 136.667 23.6707 135.55C23.2897 134.458 22.7889 133.453 22.3523 132.459C21.4063 130.499 21.0681 128.449 20.7386 126.544C20.409 124.639 20.1179 122.863 19.7284 121.249C19.3388 119.635 18.9493 118.201 18.5298 116.968C18.1103 115.736 17.6438 114.691 17.4597 113.792C17.2756 112.893 17.1772 112.183 17.0873 111.708L16.9846 111.164C16.9781 111.1 16.9637 111.037 16.9418 110.976Z" fill="#263238"/>
<path d="M167.902 21.5524H166.189C166.191 21.7464 166.153 21.9387 166.078 22.1178C166.004 22.2968 165.894 22.4591 165.755 22.5949C165.617 22.7307 165.452 22.8372 165.272 22.9081C165.091 22.979 164.898 23.0129 164.704 23.0078C164.418 23.0177 164.136 22.9387 163.897 22.7815C163.658 22.6243 163.473 22.3968 163.369 22.1303C163.278 21.9064 163.242 21.6644 163.264 21.424C163.286 21.1836 163.364 20.9518 163.493 20.7477C163.78 20.2725 164.413 19.8402 165.56 20.0414V16.189H163.878V18.4405C163.187 18.6438 162.581 19.0683 162.154 19.6491C161.727 20.2298 161.503 20.9345 161.515 21.6551C161.515 24.1464 163.75 24.7285 164.704 24.7285C165.44 24.7371 167.932 24.5573 167.902 21.5524Z" fill="#28A8DF"/>
<path d="M163.86 15.41H165.568V13.8134H163.86V15.41Z" fill="#28A8DF"/>
<path d="M177.233 19.2709C177.237 19.1997 177.237 19.1282 177.233 19.0569C177.233 18.8985 177.233 18.6888 177.211 18.4234C177.211 18.2822 177.211 18.1281 177.211 17.9568C177.211 17.7856 177.16 17.5973 177.13 17.3961C177.1 17.1949 177.07 16.9681 177.036 16.7455C177.002 16.5229 176.92 16.2746 176.856 16.0178C176.54 14.7626 176.019 13.568 175.315 12.4821C174.389 11.0364 173.179 9.79414 171.758 8.83088C170.019 7.67604 168.023 6.96474 165.945 6.75913C165.376 6.70875 164.804 6.69731 164.233 6.72488C163.946 6.72488 163.651 6.72488 163.377 6.78053L162.499 6.91322C161.289 7.1348 160.117 7.53436 159.024 8.09891C157.878 8.69971 156.825 9.46392 155.899 10.3676C154.95 11.3304 154.157 12.4352 153.549 13.6421C152.908 14.8876 152.494 16.2369 152.325 17.6272C152.271 17.9801 152.241 18.3362 152.235 18.6931C152.213 19.0509 152.213 19.4097 152.235 19.7675C152.331 22.0566 153.048 24.2763 154.311 26.1882V26.0598C153.717 27.5465 153.134 29.0019 152.56 30.4259L152.453 30.6827L152.723 30.6099L157.393 29.3258L157.277 29.3044C158.847 30.4893 160.674 31.2871 162.611 31.633C163.511 31.7998 164.428 31.8573 165.342 31.8042C165.782 31.7976 166.222 31.7561 166.656 31.68L167.294 31.5816C167.503 31.5431 167.722 31.4789 167.914 31.4275C170.783 30.6959 173.3 28.9697 175.015 26.5563C175.656 25.6653 176.17 24.6902 176.544 23.6584C176.625 23.4316 176.702 23.2304 176.779 23.0035C176.856 22.7767 176.886 22.5755 176.933 22.3829C176.98 22.1902 177.032 21.9976 177.074 21.8178C177.117 21.6381 177.13 21.4583 177.156 21.2956C177.194 20.966 177.254 20.6749 177.267 20.4395C177.28 20.2041 177.267 19.9729 177.288 19.7974C177.31 19.6219 177.288 19.5064 177.288 19.4036C177.293 19.3595 177.293 19.3151 177.288 19.2709C177.275 19.314 177.268 19.3586 177.267 19.4036C177.267 19.5064 177.267 19.6348 177.237 19.7932C177.207 19.9515 177.211 20.1827 177.194 20.431C177.177 20.6792 177.113 20.9703 177.062 21.2871C176.65 23.6653 175.555 25.8721 173.909 27.6374C172.263 29.4027 170.138 30.6499 167.794 31.2263C167.593 31.2734 167.392 31.3376 167.187 31.3761L166.557 31.4703C166.132 31.5391 165.703 31.5777 165.273 31.5859C164.376 31.6338 163.476 31.5735 162.594 31.4061C160.698 31.0612 158.91 30.2737 157.376 29.1075L157.324 29.069H157.26L152.59 30.3531L152.757 30.5372C153.326 29.116 153.913 27.6564 154.512 26.1711L154.542 26.1026L154.499 26.0427C153.659 24.7657 153.062 23.3452 152.736 21.8521C152.59 21.1584 152.501 20.4541 152.47 19.7461C152.456 19.3964 152.463 19.0462 152.492 18.6974C152.496 18.3491 152.525 18.0015 152.577 17.6572C152.741 16.2969 153.145 14.9765 153.772 13.7577C154.365 12.5776 155.138 11.4962 156.062 10.5516C156.967 9.66481 157.997 8.91366 159.118 8.3215C160.188 7.76718 161.333 7.37206 162.517 7.14865L163.373 7.01595C163.655 6.97315 163.946 6.97743 164.229 6.95603C164.787 6.92807 165.346 6.93665 165.902 6.98171C167.766 7.14742 169.568 7.73441 171.172 8.69839C172.776 9.66236 174.14 10.9781 175.161 12.5463C175.867 13.6132 176.396 14.7868 176.728 16.0221L176.92 16.7412C176.959 16.9723 176.993 17.1692 177.027 17.3875C177.062 17.6058 177.092 17.7728 177.117 17.9397C177.143 18.1067 177.139 18.265 177.151 18.4063C177.173 18.6717 177.186 18.8814 177.199 19.0355C177.203 19.1148 177.215 19.1936 177.233 19.2709Z" fill="#263238"/>
<path d="M49.5845 69.7549H74.3043C74.3043 69.7549 74.3043 48.9989 95.8736 48.6265C107.08 48.4338 112.888 55.7706 115.247 61.3951C117.986 67.9228 117.156 75.3623 113.488 81.4149C109.293 88.3278 100.261 95.275 83.6015 92.3386L83.4431 147.415H107.889V114.768C107.889 114.768 142.171 105.903 142.171 68.1112C142.171 31.9626 112.94 24.1507 97.2262 23.6499C88.4812 23.3717 85.3136 22.995 74.5012 24.5317C60.7266 26.5007 49.2935 42.4883 49.5845 69.7549Z" fill="#1C75BB"/>
<path d="M108.185 158.9H83.375V182.07H108.185V158.9Z" fill="#1C75BB"/>
<path d="M39.3463 69.7548H64.066C64.066 69.7548 64.066 48.9988 85.6353 48.6264C96.8373 48.4338 102.646 55.7705 105.009 61.3951C107.748 67.9228 106.918 75.3623 103.245 81.4149C99.0546 88.3278 89.8644 94.6115 73.2048 91.688V147.415H97.6506V114.768C97.6506 114.768 131.933 105.903 131.933 68.1111C131.933 31.9626 99.5169 23.5643 85.6396 23.5643C75.0283 23.5771 38.8797 26.1454 39.3463 69.7548Z" fill="#8CBF43"/>
<path d="M39.3463 69.7548H64.066C64.066 69.7548 64.066 48.9988 85.6353 48.6264C96.8373 48.4338 102.646 55.7705 105.009 61.3951C107.748 67.9228 106.918 75.3623 103.245 81.4149C99.0546 88.3278 89.8644 94.6115 73.2048 91.688V147.415H97.6506V114.768C97.6506 114.768 131.933 105.903 131.933 68.1111C131.933 31.9626 99.5169 23.5643 85.6396 23.5643C75.0283 23.5771 38.8797 26.1454 39.3463 69.7548Z" fill="#2B3A8C"/>
<path d="M97.9454 158.9H73.1357V182.07H97.9454V158.9Z" fill="#E8505B"/>
<path d="M97.9454 158.9H73.1357V182.07H97.9454V158.9Z" fill="#2B3A8C"/>
<path d="M88.426 48.7419C88.3035 48.7525 88.1804 48.7525 88.0579 48.7419C87.8139 48.7419 87.4629 48.6606 87.0049 48.6563C85.7101 48.5931 84.4122 48.6461 83.1268 48.8147C81.2215 49.0601 79.3466 49.5019 77.5322 50.1331C76.4631 50.5053 75.4217 50.953 74.416 51.4729C73.3298 52.0191 72.3064 52.6823 71.364 53.4505C70.4313 54.2264 69.5936 55.1101 68.8685 56.0829C68.1845 56.9861 67.5597 57.9327 66.998 58.9166C66.0609 60.5945 65.3184 62.3739 64.785 64.2201C64.4243 65.464 64.1751 66.7374 64.0402 68.0255C63.9888 68.4835 63.9759 68.8388 63.9631 69.0827C63.9634 69.2063 63.9519 69.3295 63.9289 69.4509C63.9195 69.3269 63.9195 69.2024 63.9289 69.0785C63.922 68.7257 63.9334 68.3728 63.9631 68.0212C64.0615 66.7176 64.2895 65.4271 64.6437 64.1688C65.1585 62.3029 65.8912 60.5041 66.8267 58.8096C67.3895 57.8134 68.0173 56.8554 68.7059 55.9417C69.437 54.9516 70.2849 54.0533 71.2314 53.2664C72.1843 52.4889 73.2209 51.8198 74.3219 51.2717C75.3379 50.7487 76.3908 50.3009 77.4723 49.9319C79.3026 49.3019 81.1955 48.8714 83.1182 48.6478C84.4119 48.4888 85.7181 48.4587 87.0177 48.5579C87.3706 48.5816 87.722 48.6231 88.0707 48.682C88.1906 48.6922 88.3094 48.7123 88.426 48.7419Z" fill="#263238"/>
<path d="M125.675 44.3288C125.645 44.2991 125.617 44.2661 125.594 44.2303L125.38 43.935C125.183 43.6567 124.909 43.2715 124.567 42.7792C124.387 42.531 124.203 42.2442 123.976 41.9488L123.205 41.0114L122.319 39.9199C121.998 39.5475 121.622 39.1836 121.249 38.7856C120.877 38.3875 120.483 37.9637 120.047 37.5528L118.664 36.3029C118.424 36.0889 118.189 35.8748 117.932 35.6523L117.136 35.023C116.592 34.595 116.053 34.1669 115.466 33.7389C112.911 31.9097 110.2 30.3098 107.363 28.9576L105.108 27.9346L102.869 27.0785C102.141 26.7788 101.396 26.5605 100.673 26.3251C99.9497 26.0897 99.252 25.8414 98.5329 25.6745L96.4868 25.1351C95.8233 24.9596 95.1641 24.8569 94.5349 24.7071C93.9057 24.5573 93.2978 24.4331 92.7029 24.3561L90.9907 24.1121C89.9077 23.928 88.9146 23.8895 88.05 23.7996C87.6219 23.7697 87.1939 23.7226 86.8386 23.7055L85.8199 23.6755L84.4073 23.6327H84.0392C83.9979 23.6371 83.9563 23.6371 83.915 23.6327H84.0392H85.8199H86.8429C87.2196 23.6327 87.6219 23.6841 88.0585 23.7097C88.9146 23.7868 89.9248 23.8125 91.0078 23.988L92.72 24.2234C93.315 24.2919 93.9228 24.446 94.5606 24.5616C95.1984 24.6771 95.8447 24.7927 96.521 24.9896L98.5757 25.5204C99.2862 25.683 99.9882 25.9484 100.716 26.1667C101.444 26.385 102.184 26.5948 102.92 26.9158L105.168 27.7719L107.436 28.7949C110.287 30.1535 113.009 31.7667 115.569 33.6148C116.16 34.0428 116.699 34.5008 117.243 34.8989L118.039 35.5367C118.296 35.7507 118.531 35.9647 118.771 36.1959L120.149 37.4586C120.577 37.8867 120.963 38.3147 121.344 38.7042C121.724 39.0938 122.088 39.479 122.409 39.8557L123.265 40.9515L124.027 41.9017C124.246 42.2014 124.43 42.4925 124.601 42.7578L125.38 43.9393L125.581 44.2474C125.615 44.271 125.647 44.2983 125.675 44.3288Z" fill="#263238"/>
<path d="M123.098 97.4024C123.049 97.4958 122.987 97.5822 122.914 97.6592L122.341 98.3698C122.097 98.678 121.789 99.0504 121.408 99.4656C121.027 99.8808 120.62 100.373 120.123 100.874C119.627 101.375 119.096 101.944 118.493 102.513C117.889 103.083 117.234 103.686 116.536 104.311C114.997 105.638 113.39 106.884 111.721 108.044C110.046 109.188 108.312 110.243 106.524 111.203C105.694 111.631 104.911 112.059 104.153 112.393C103.395 112.726 102.693 113.06 102.038 113.334C101.384 113.608 100.789 113.835 100.266 114.036C99.7441 114.238 99.2861 114.396 98.9094 114.516L98.0533 114.798C97.9523 114.833 97.8494 114.861 97.7451 114.884C97.8379 114.832 97.9354 114.789 98.0362 114.755L98.8923 114.434C99.2647 114.302 99.7184 114.135 100.232 113.921C100.746 113.707 101.349 113.493 101.991 113.189C102.633 112.885 103.344 112.594 104.084 112.226C104.825 111.858 105.617 111.455 106.443 111.023C108.074 110.128 109.833 109.075 111.61 107.86C113.386 106.644 114.987 105.364 116.404 104.157C117.101 103.536 117.773 102.958 118.364 102.381C118.955 101.803 119.516 101.268 120.008 100.767C120.5 100.266 120.932 99.7909 121.318 99.3843C121.703 98.9776 122.02 98.6138 122.277 98.3141L122.88 97.6336C122.947 97.5511 123.02 97.4738 123.098 97.4024Z" fill="#263238"/>
<path d="M97.2187 145.476C97.1545 145.476 97.1074 138.602 97.1074 130.122C97.1074 121.643 97.1545 114.764 97.2187 114.764C97.2829 114.764 97.33 121.638 97.33 130.122C97.33 138.606 97.2786 145.476 97.2187 145.476Z" fill="#263238"/>
<path d="M98.1601 180.499C98.1002 180.499 98.0488 175.675 98.0488 169.721C98.0488 163.767 98.1002 158.947 98.1601 158.947C98.2201 158.947 98.2714 163.771 98.2714 169.721C98.2714 175.671 98.2201 180.499 98.1601 180.499Z" fill="#263238"/>
<path d="M122.494 66.4587C122.066 67.3148 123.663 68.0126 124.583 68.2908C125.522 68.5248 126.494 68.5929 127.455 68.492C128.74 68.4235 130.054 68.3036 131.162 67.6701C132.134 67.0681 132.911 66.1966 133.397 65.1618C133.879 64.1327 134.259 63.0589 134.531 61.9557C134.531 61.9557 124.416 62.632 122.494 66.4587Z" fill="#8CBF43"/>
<path opacity="0.4" d="M122.494 66.4587C122.066 67.3148 123.663 68.0126 124.583 68.2908C125.522 68.5248 126.494 68.5929 127.455 68.492C128.74 68.4235 130.054 68.3036 131.162 67.6701C132.134 67.0681 132.911 66.1966 133.397 65.1618C133.879 64.1327 134.259 63.0589 134.531 61.9557C134.531 61.9557 124.416 62.632 122.494 66.4587Z" fill="black"/>
<path d="M151.063 63.7278C152.729 64.914 154.728 65.5418 156.773 65.5213C157.744 65.5213 158.776 65.3201 159.491 64.6652C159.82 64.3656 160.069 63.9804 160.407 63.6893C160.638 63.4924 160.908 63.3426 161.126 63.1285C161.241 63.0305 161.33 62.9051 161.385 62.7638C161.44 62.6225 161.458 62.4698 161.438 62.3195C161.355 61.9462 161.146 61.6125 160.848 61.3736C159.688 60.7144 158.301 60.7358 156.965 60.7657C155.629 60.825 154.308 61.0848 153.049 61.5362C152.013 61.8829 150.93 62.3923 150.403 63.334" fill="#8CBF43"/>
<path opacity="0.4" d="M161.438 62.3197C161.288 61.9579 161.022 61.6566 160.681 61.4636C159.521 60.8044 158.301 60.7402 156.965 60.7701C155.629 60.8294 154.308 61.0892 153.049 61.5406C152.013 61.8873 150.93 62.3967 150.403 63.3384L151.063 63.7322C152.729 64.9184 154.728 65.5463 156.773 65.5257C157.744 65.5257 158.776 65.3246 159.491 64.6696C159.82 64.37 160.069 63.9848 160.407 63.6937C160.638 63.4968 160.908 63.347 161.126 63.133C161.242 63.0345 161.332 62.9084 161.386 62.7663C161.441 62.6241 161.459 62.4706 161.438 62.3197Z" fill="black"/>
<path d="M131.32 79.0948L152.659 79.373C152.702 79.3736 152.745 79.364 152.783 79.3448C152.822 79.3257 152.856 79.2977 152.882 79.263C152.908 79.2284 152.925 79.1881 152.932 79.1454C152.94 79.1028 152.937 79.059 152.924 79.0177L150.42 71.2101C150.42 71.2101 150.788 67.3064 151.302 62.6107C152.072 55.488 153.104 46.5289 153.117 46.5546C151.657 42.4625 143.045 41.7648 143.045 41.7648L133.23 42.3512L132.887 41.7733L130.062 43.0874C129.447 43.3743 128.854 43.7077 128.29 44.0848C126.424 45.3347 121.929 48.194 121.107 51.3873C119.215 58.754 122.421 67.0067 122.421 67.0067L124.485 65.3973C125.004 64.9963 125.55 64.6316 126.12 64.3057L130.255 75.3836C130.009 75.5399 129.8 75.7488 129.645 75.9953C129.49 76.2418 129.391 76.5197 129.356 76.809C129.321 77.7036 129.784 78.7866 131.32 79.0948Z" fill="#8CBF43"/>
<path opacity="0.3" d="M140.468 66.0308C141.145 62.3924 140.789 58.6513 140.43 54.9701C139.244 57.9664 139.287 61.3908 138.033 64.3615C137.878 64.6746 137.765 65.0072 137.699 65.3502C137.666 65.5227 137.675 65.7004 137.725 65.8686C137.775 66.0368 137.864 66.1908 137.986 66.3176C138.324 66.6258 138.842 66.4589 139.291 66.4032C139.698 66.3292 140.093 66.204 140.468 66.0308Z" fill="black"/>
<path opacity="0.4" d="M132.61 74.4505C134.322 75.0498 136.145 73.9411 137.956 73.7442C139.154 73.6158 140.353 73.8897 141.543 74.0824C143.949 74.4723 146.397 74.5314 148.82 74.2579C149.191 74.2395 149.555 74.1463 149.89 73.9839C150.063 73.866 150.204 73.7077 150.302 73.5227C150.4 73.3377 150.451 73.1316 150.451 72.9224C146.418 72.4943 142.39 72.2589 138.358 71.848C137.355 71.6774 136.327 71.7094 135.336 71.9421C134.121 72.3188 133.196 73.2776 132.34 74.2193" fill="black"/>
<path d="M160.826 60.8942C159.08 56.9733 152.937 46.118 152.937 46.118L148.182 52.0807L149.29 63.7878C149.29 63.7878 151.803 60.9841 158.827 60.9285C159.338 60.9489 159.837 61.0833 160.289 61.3218C160.741 61.5603 161.133 61.8968 161.438 62.3068L160.826 60.8942Z" fill="#8CBF43"/>
<path d="M132.267 58.8353C131.928 58.0033 131.66 57.1442 131.466 56.267C131.197 55.4119 131.001 54.5355 130.88 53.6473C131.216 54.4801 131.484 55.3391 131.68 56.2156C131.947 57.0714 132.143 57.9475 132.267 58.8353Z" fill="#263238"/>
<path d="M147.822 51.3017C147.977 51.4105 148.121 51.5353 148.25 51.6741C148.627 52.0386 148.98 52.4276 149.307 52.8384C150.419 54.1835 151.201 55.7693 151.593 57.4699C151.796 58.4118 151.842 59.3808 151.73 60.3378C151.618 61.1939 151.452 61.9815 151.345 62.6364C151.237 63.2913 151.165 63.8135 151.13 64.1816C151.124 64.374 151.104 64.5657 151.071 64.7552C151.037 64.5646 151.027 64.3705 151.041 64.1774C151.059 63.6528 151.108 63.1297 151.186 62.6107C151.276 61.9515 151.426 61.1767 151.524 60.3121C151.623 59.3783 151.573 58.4348 151.374 57.5169C150.993 55.8437 150.249 54.2745 149.196 52.9197C148.404 51.8796 147.787 51.3317 147.822 51.3017Z" fill="#263238"/>
<path d="M143.465 78.1616C143.315 78.2254 143.159 78.2714 142.998 78.2985C142.815 78.3452 142.629 78.3809 142.442 78.4056C142.223 78.4355 141.975 78.4826 141.697 78.4954C141.045 78.5551 140.389 78.5551 139.736 78.4954C138.134 78.3447 136.58 77.8622 135.173 77.0786C134.601 76.7611 134.058 76.3929 133.551 75.9785C133.354 75.8232 133.166 75.6574 132.986 75.482C132.845 75.3473 132.712 75.2044 132.588 75.0539C132.473 74.9419 132.371 74.817 132.284 74.6815C132.314 74.6516 132.776 75.1652 133.65 75.833C134.161 76.2245 134.704 76.5738 135.272 76.8774C135.969 77.2451 136.696 77.5516 137.446 77.7934C138.202 78.0188 138.975 78.1792 139.758 78.2729C140.397 78.3425 141.042 78.3612 141.684 78.3285C142.784 78.2814 143.456 78.1188 143.465 78.1616Z" fill="#263238"/>
<path d="M150.052 75.7217C150.154 75.9149 150.211 76.1285 150.219 76.3467C150.287 76.8685 150.248 77.3988 150.103 77.9048C149.954 78.4213 149.656 78.8827 149.247 79.2317C148.935 79.4928 148.695 79.5742 148.682 79.5528C148.669 79.5314 148.875 79.3901 149.14 79.1247C149.486 78.7632 149.737 78.3222 149.872 77.8406C150.215 76.7319 149.971 75.726 150.052 75.7217Z" fill="#263238"/>
<path d="M148.891 77.2285C148.984 77.6687 148.947 78.1265 148.785 78.546C148.622 78.9655 148.341 79.3287 147.975 79.5913C147.928 79.5442 148.331 79.1204 148.575 78.4655C148.819 77.8106 148.827 77.2285 148.891 77.2285Z" fill="#263238"/>
<path d="M145.074 63.1415C144.848 63.5257 144.593 63.892 144.312 64.2373C144.092 64.6247 143.841 64.994 143.562 65.3416C143.799 64.4565 144.332 63.6796 145.074 63.1415Z" fill="#263238"/>
<path d="M130.426 52.7613C130.404 52.787 130.066 52.513 129.48 52.132C127.956 51.1349 126.229 50.49 124.425 50.2444C124.047 50.2166 123.671 50.168 123.299 50.0988C123.678 50.0437 124.063 50.0437 124.442 50.0988C126.296 50.2571 128.072 50.9187 129.578 52.0122C129.896 52.2184 130.182 52.4708 130.426 52.7613Z" fill="#263238"/>
<path d="M152.941 45.9854C152.166 46.6021 151.442 47.2791 150.775 48.01C150.168 48.7909 149.625 49.6197 149.152 50.4884C149.202 50.1965 149.302 49.9155 149.448 49.658C149.756 49.0141 150.146 48.4128 150.608 47.8688C151.065 47.3225 151.59 46.8363 152.17 46.422C152.401 46.2349 152.661 46.0874 152.941 45.9854Z" fill="#263238"/>
<path d="M144.128 42.4583C144.167 42.5214 144.198 42.5889 144.222 42.6594C144.306 42.853 144.373 43.0535 144.423 43.2587C144.603 44.0201 144.603 44.8131 144.423 45.5744C144.158 46.7148 143.548 47.746 142.677 48.528C141.579 49.4592 140.178 49.957 138.739 49.9277C137.305 49.9249 135.91 49.4595 134.762 48.6007C133.841 47.8938 133.093 46.9862 132.575 45.9468C132.227 45.2526 131.982 44.5115 131.847 43.7467C131.81 43.5385 131.784 43.3284 131.77 43.1174C131.758 43.0452 131.758 42.9714 131.77 42.8991C131.791 42.8991 131.817 43.1988 131.937 43.7296C132.103 44.4742 132.366 45.1938 132.72 45.8698C133.241 46.8783 133.983 47.7562 134.89 48.4381C136.005 49.2654 137.355 49.7152 138.743 49.7222C140.131 49.7496 141.482 49.2754 142.548 48.3867C143.39 47.6372 143.987 46.6511 144.26 45.5573C144.451 44.8172 144.477 44.0443 144.337 43.2929C144.252 42.745 144.102 42.4882 144.128 42.4583Z" fill="#263238"/>
<path opacity="0.3" d="M145.626 63.8906C145.626 63.6765 145.591 63.424 145.403 63.317C145.343 63.2869 145.277 63.2712 145.21 63.2712C145.144 63.2712 145.078 63.2869 145.018 63.317C144.899 63.383 144.793 63.47 144.705 63.5738C144.203 64.0982 143.814 64.7203 143.562 65.4016L145.66 65.2218C145.647 64.798 145.639 64.3443 145.626 63.8906Z" fill="black"/>
<path opacity="0.3" d="M152.59 59.4903C152.379 58.291 151.855 57.1687 151.07 56.2371C151.973 59.1992 151.67 60.8729 151.16 62.8975L151.271 62.615C151.854 61.4293 152.753 60.6888 152.59 59.4903Z" fill="black"/>
<path d="M148.4 158.994L147.12 178.192L138.773 178.094L137.459 158.134L148.4 158.994Z" fill="#FFBE9D"/>
<path d="M147.355 175.667V176.219C147.355 176.219 156.772 180.007 156.862 181.783L138.174 181.676L138.465 175.457C141.256 176.771 144.149 176.929 147.355 175.667Z" fill="#8CBF43"/>
<path d="M140.348 177.464C140.171 177.519 140.02 177.635 139.923 177.793C139.825 177.95 139.788 178.138 139.818 178.32C139.865 178.502 139.98 178.658 140.14 178.758C140.299 178.857 140.49 178.892 140.674 178.855C140.864 178.799 141.027 178.673 141.13 178.503C141.232 178.333 141.268 178.13 141.23 177.935C141.162 177.75 141.025 177.599 140.848 177.514C140.671 177.428 140.467 177.415 140.28 177.477" fill="white"/>
<path d="M138.178 181.685L138.246 180.187L156.134 180.842C156.134 180.842 156.965 181.205 156.866 181.792L138.178 181.685Z" fill="black"/>
<path d="M147.423 176.274C147.423 176.364 146.965 176.403 146.512 176.702C146.058 177.002 145.823 177.374 145.737 177.336C145.651 177.297 145.793 176.775 146.345 176.433C146.897 176.09 147.445 176.189 147.423 176.274Z" fill="#263238"/>
<path d="M149.388 177.096C149.388 177.182 149.011 177.336 148.699 177.721C148.387 178.106 148.297 178.513 148.207 178.509C148.117 178.505 148.057 177.987 148.455 177.516C148.853 177.045 149.388 177.006 149.388 177.096Z" fill="#263238"/>
<path d="M150.48 179.463C150.394 179.485 150.27 179.035 150.51 178.53C150.749 178.025 151.173 177.832 151.212 177.91C151.25 177.987 150.985 178.252 150.783 178.663C150.582 179.074 150.569 179.438 150.48 179.463Z" fill="#263238"/>
<path d="M146.875 18.5902C147.359 17.3917 146.773 15.9363 145.733 15.1658C144.641 14.4448 143.309 14.1833 142.026 14.4382C140.756 14.6967 139.525 15.1213 138.366 15.7009C137.827 15.1598 137.148 14.7789 136.406 14.6005C135.663 14.4222 134.886 14.4535 134.16 14.6909C133.434 14.9282 132.788 15.3624 132.294 15.9451C131.801 16.5277 131.478 17.236 131.363 17.991C130.902 17.8746 130.419 17.8856 129.964 18.0229C129.509 18.1602 129.101 18.4185 128.781 18.7703C128.462 19.1221 128.244 19.554 128.152 20.0199C128.059 20.4859 128.095 20.9682 128.255 21.4153L134.038 23.4443L140.356 34.5735C141.29 35.3701 142.482 35.7998 143.709 35.7824C144.936 35.765 146.115 35.3018 147.026 34.479C147.937 33.6562 148.517 32.5302 148.659 31.3111C148.8 30.0919 148.494 28.8628 147.796 27.8532C148.151 27.5378 148.452 27.1661 148.686 26.7531C149.191 26.4558 149.632 26.0607 149.982 25.5911C150.333 25.1214 150.586 24.5866 150.728 24.0179C151.28 21.5866 149.362 18.8813 146.875 18.5902Z" fill="#263238"/>
<path d="M143.045 41.7647C142.69 39.9584 142.437 38.717 142.441 38.7299C142.446 38.7427 145.866 37.4029 145.617 32.6345C145.502 30.2674 144.594 26.5305 143.76 23.4957C143.002 20.769 140.459 17.7555 137.767 18.6288L129.634 22.6096C128.812 22.8707 128.671 23.6412 128.864 24.4802V24.9082L132.035 38.0279L133.375 43.8964C133.668 45.0928 134.396 46.1374 135.416 46.8266C136.437 47.5159 137.678 47.8004 138.897 47.6247C139.562 47.5283 140.2 47.2977 140.772 46.947C141.345 46.5963 141.84 46.1328 142.228 45.5847C142.616 45.0366 142.889 44.4153 143.029 43.7586C143.169 43.1019 143.175 42.4235 143.045 41.7647Z" fill="#FFBE9D"/>
<path d="M143.704 26.6505C143.738 26.8018 143.713 26.9605 143.633 27.0936C143.553 27.2267 143.425 27.324 143.276 27.3653C143.202 27.3868 143.124 27.3935 143.048 27.3849C142.971 27.3762 142.897 27.3525 142.83 27.3151C142.763 27.2777 142.704 27.2273 142.656 27.1669C142.608 27.1064 142.573 27.0371 142.552 26.963C142.519 26.8111 142.545 26.6524 142.624 26.5188C142.704 26.3853 142.831 26.287 142.98 26.2438C143.055 26.2224 143.132 26.2159 143.209 26.2248C143.286 26.2337 143.36 26.2578 143.427 26.2956C143.495 26.3335 143.554 26.3843 143.601 26.4453C143.649 26.5062 143.683 26.5759 143.704 26.6505Z" fill="#263238"/>
<path d="M143.353 25.7558C143.293 25.85 142.779 25.6103 142.141 25.7558C141.504 25.9013 141.105 26.308 141.02 26.2438C140.934 26.1796 141.02 26.0597 141.195 25.8714C141.428 25.6155 141.735 25.4389 142.073 25.3663C142.404 25.2959 142.748 25.3319 143.057 25.469C143.284 25.5888 143.395 25.713 143.353 25.7558Z" fill="#263238"/>
<path d="M137.51 28.0887C137.544 28.24 137.519 28.3987 137.439 28.5318C137.36 28.6649 137.232 28.7622 137.082 28.8035C137.007 28.8253 136.927 28.8314 136.849 28.8214C136.771 28.8114 136.696 28.7856 136.628 28.7455C136.56 28.7054 136.502 28.6519 136.455 28.5883C136.409 28.5247 136.376 28.4522 136.359 28.3755C136.326 28.2242 136.352 28.066 136.431 27.9332C136.511 27.8003 136.638 27.7029 136.787 27.6606C136.862 27.6389 136.942 27.6328 137.02 27.6428C137.098 27.6528 137.173 27.6786 137.241 27.7187C137.309 27.7587 137.367 27.8122 137.414 27.8759C137.46 27.9395 137.493 28.0119 137.51 28.0887Z" fill="#263238"/>
<path d="M137.198 27.2668C137.143 27.3567 136.625 27.1213 135.987 27.2668C135.349 27.4124 134.951 27.819 134.865 27.7548C134.78 27.6906 134.865 27.575 135.045 27.3824C135.275 27.138 135.573 26.9693 135.901 26.8987C136.232 26.8263 136.577 26.8623 136.886 27.0015C137.13 27.0785 137.228 27.224 137.198 27.2668Z" fill="#263238"/>
<path d="M140.421 31.2905C140.735 31.1162 141.068 30.9811 141.414 30.8881C141.577 30.8368 141.723 30.7726 141.727 30.657C141.705 30.4852 141.632 30.324 141.517 30.1947C141.282 29.8351 141.033 29.4585 140.777 29.0604C139.741 27.4381 138.953 26.0897 139.017 26.064C139.082 26.0384 139.976 27.3011 141.016 28.9234C141.265 29.3258 141.509 29.7067 141.735 30.0706C141.88 30.2445 141.958 30.4648 141.954 30.6912C141.942 30.7536 141.916 30.8124 141.878 30.8635C141.84 30.9146 141.791 30.9566 141.735 30.9866C141.651 31.0285 141.562 31.0601 141.47 31.0808C141.131 31.1939 140.778 31.2644 140.421 31.2905Z" fill="#263238"/>
<path d="M142.441 38.73C140.276 39.2193 138.018 39.0978 135.918 38.379C135.918 38.379 138.161 41.3069 142.685 39.9072L142.441 38.73Z" fill="#EB996E"/>
<path d="M137.317 26.3594C137.274 26.5391 136.62 26.5349 135.875 26.7189C135.13 26.903 134.539 27.1855 134.424 27.04C134.368 26.9715 134.454 26.7917 134.68 26.6119C134.983 26.361 135.341 26.1851 135.725 26.0983C136.106 26.0035 136.504 26.0035 136.885 26.0983C137.18 26.1496 137.334 26.2695 137.317 26.3594Z" fill="#263238"/>
<path d="M143.109 23.7312C143.011 23.9024 142.458 23.8639 141.825 23.988C141.191 24.1122 140.695 24.3262 140.541 24.1978C140.472 24.1379 140.541 23.9752 140.725 23.7697C141.007 23.532 141.349 23.3752 141.714 23.316C142.073 23.2419 142.447 23.2685 142.792 23.3931C143.049 23.5172 143.156 23.6542 143.109 23.7312Z" fill="#263238"/>
<path d="M131.616 19.5405C131.711 20.0046 131.906 20.4422 132.188 20.8223C132.471 21.2023 132.834 21.5155 133.251 21.7394C133.668 21.9633 134.13 22.0926 134.602 22.118C135.075 22.1434 135.548 22.0642 135.987 21.8862C136.667 21.6123 137.365 21.0943 138.05 21.3426C138.735 21.5909 139.005 22.5668 139.677 22.9435C140.635 23.4829 141.791 22.5497 142.887 22.6439C143.743 22.7124 144.389 23.3716 145.053 23.9023C145.716 24.4331 146.637 24.8783 147.381 24.4759C147.21 23.7624 146.956 23.0715 146.624 22.417C146.288 21.7563 145.735 21.2317 145.057 20.9317C144.67 20.824 144.289 20.6969 143.914 20.5507C143.144 20.1526 142.797 19.2666 142.232 18.5946C141.864 18.1711 141.4 17.8412 140.879 17.6321C140.358 17.423 139.795 17.3406 139.236 17.3917C138.307 17.4902 137.429 17.9568 136.496 17.914C135.807 17.8883 135.148 17.5801 134.463 17.5929C133.119 17.5929 132.113 18.7872 131.368 19.9044" fill="#263238"/>
<path d="M136.119 20.5208C135.507 20.478 134.244 20.3496 133.829 19.9087C133.408 19.4366 132.869 19.0839 132.268 18.8863C131.667 18.6887 131.024 18.653 130.405 18.7829C129.79 18.9662 129.25 19.3422 128.865 19.8554C128.479 20.3686 128.269 20.992 128.265 21.6337C127.516 21.8165 126.83 22.1981 126.28 22.7383C125.73 23.2785 125.336 23.9573 125.14 24.7028C124.941 25.4826 124.934 26.2991 125.12 27.0821C125.307 27.8651 125.681 28.591 126.21 29.1973C126.468 29.5201 126.702 29.8605 126.912 30.216C126.622 30.5761 126.367 30.9631 126.15 31.3718C125.174 33.5377 127.828 34.3681 127.828 34.3681C127.828 35.8277 129.176 35.8192 130.037 35.8149C130.897 35.8106 131.372 38.105 132.044 38.0151L131.347 30.9309C131.446 30.9701 131.552 30.989 131.659 30.9865C133.281 31.0165 132.858 27.9474 132.335 27.1341C132.821 26.5385 133.229 25.8842 133.551 25.1865C133.846 24.1147 133.868 22.9859 133.615 21.9034C134.18 21.822 136.398 20.5422 136.119 20.5208Z" fill="#263238"/>
<path d="M131.59 31.299C131.535 31.0729 131.424 30.8645 131.266 30.6932C131.109 30.5219 130.91 30.3935 130.689 30.3199C130.469 30.2463 130.233 30.23 130.004 30.2725C129.775 30.315 129.561 30.4149 129.381 30.5628C128.953 30.9309 128.726 31.5473 128.983 32.5789C129.677 35.3355 132.301 34.0728 132.284 33.9915C132.266 33.9101 131.885 32.4377 131.59 31.299Z" fill="#FFBE9D"/>
<path d="M131.179 33.161C131.179 33.161 131.141 33.2038 131.068 33.2637C130.967 33.3413 130.839 33.3766 130.713 33.3622C130.396 33.3279 130.032 32.9341 129.895 32.4333C129.83 32.1979 129.817 31.951 129.857 31.7099C129.861 31.6175 129.888 31.5276 129.935 31.4478C129.982 31.368 130.048 31.3008 130.126 31.2519C130.178 31.2242 130.238 31.2151 130.295 31.226C130.353 31.2369 130.405 31.2672 130.443 31.3118C130.499 31.3803 130.494 31.4403 130.512 31.4403C130.529 31.4403 130.559 31.3803 130.512 31.2733C130.48 31.2089 130.427 31.1574 130.362 31.1278C130.317 31.1087 130.269 31.0989 130.221 31.0989C130.172 31.0989 130.124 31.1087 130.079 31.1278C129.972 31.1784 129.879 31.2558 129.81 31.3524C129.741 31.4491 129.698 31.5619 129.685 31.68C129.626 31.9475 129.635 32.2257 129.711 32.489C129.865 33.0412 130.28 33.4906 130.708 33.5034C130.789 33.5094 130.87 33.4958 130.945 33.4637C131.02 33.4317 131.085 33.3822 131.137 33.3194C131.192 33.2295 131.192 33.161 131.179 33.161Z" fill="#EB996E"/>
<path d="M146.392 27.4508C146.392 27.4508 146.64 27.2582 146.991 26.8258C147.477 26.2101 147.775 25.4667 147.847 24.6856C147.898 24.1501 147.84 23.6099 147.676 23.0975C147.491 22.5123 147.153 21.9875 146.696 21.578C146.164 21.1173 145.522 20.8041 144.831 20.6696C144.141 20.5352 143.427 20.5842 142.762 20.8118C142.634 20.8546 142.514 20.9188 142.394 20.9701C142.274 21.0215 142.167 21.0986 142.056 21.1585L141.885 21.2569V21.0857C141.88 20.7529 141.757 20.4326 141.538 20.1825C141.318 19.9393 141.048 19.7465 140.746 19.6175C140.164 19.3788 139.52 19.3323 138.91 19.4848C137.728 19.7545 136.727 20.2938 135.781 20.4008C135.039 20.5293 134.276 20.3767 133.64 19.9728C133.473 19.8567 133.328 19.7117 133.212 19.5447C133.174 19.4873 133.142 19.4255 133.118 19.3607C133.275 19.5709 133.464 19.7544 133.679 19.9043C134.304 20.2651 135.038 20.3882 135.746 20.251C136.239 20.1583 136.721 20.0148 137.185 19.823C137.728 19.604 138.286 19.421 138.854 19.2751C139.171 19.2021 139.496 19.1704 139.821 19.1809C140.164 19.1988 140.502 19.2756 140.819 19.4078C141.146 19.5491 141.439 19.761 141.675 20.0284C141.945 20.3155 142.1 20.6917 142.111 21.0857L141.94 20.9915C142.056 20.9231 142.171 20.8503 142.296 20.7861C142.42 20.7219 142.557 20.662 142.694 20.6191C143.392 20.3801 144.14 20.3286 144.864 20.4699C145.589 20.6111 146.263 20.9401 146.82 21.4239C147.299 21.8627 147.65 22.4234 147.834 23.0462C147.994 23.583 148.04 24.147 147.971 24.7027C147.882 25.5091 147.549 26.269 147.017 26.8815C146.875 27.042 146.716 27.1856 146.542 27.3095C146.496 27.3611 146.446 27.4083 146.392 27.4508Z" fill="#455A64"/>
<path d="M145.81 17.7727C145.533 17.6256 145.234 17.523 144.924 17.4688C144.569 17.4187 144.208 17.4509 143.867 17.563C143.43 17.7004 143.049 17.977 142.784 18.3506L142.677 18.5047L142.613 18.3335C142.389 17.8073 142.03 17.3502 141.571 17.0094C141.112 16.6685 140.57 16.4563 140.002 16.3944C139.11 16.3614 138.231 16.6149 137.493 17.1178C136.865 17.5262 136.199 17.8717 135.503 18.1494C135.023 18.3303 134.505 18.3905 133.996 18.3249C133.86 18.3029 133.727 18.2671 133.598 18.2179C133.552 18.2009 133.509 18.1778 133.47 18.1494C133.47 18.1494 133.662 18.2051 134.009 18.2393C134.502 18.2704 134.995 18.1884 135.452 17.9996C136.134 17.7085 136.787 17.3546 137.403 16.9423C137.783 16.7079 138.184 16.5115 138.602 16.3559C139.062 16.1883 139.553 16.1254 140.04 16.1718C140.647 16.2377 141.225 16.4672 141.712 16.8358C142.199 17.2044 142.577 17.6984 142.805 18.265H142.639C142.932 17.86 143.355 17.5671 143.837 17.4346C144.2 17.3267 144.583 17.3076 144.954 17.3789C145.192 17.4239 145.419 17.5109 145.626 17.6358C145.75 17.7042 145.815 17.7642 145.81 17.7727Z" fill="#455A64"/>
<path d="M140.172 32.5574C140.071 32.4686 139.951 32.4031 139.822 32.3654C139.693 32.3276 139.557 32.3187 139.423 32.3391C139.27 32.3693 139.125 32.432 138.998 32.5228C138.871 32.6136 138.765 32.7305 138.687 32.8656L138.661 32.8998C138.599 32.9961 138.57 33.1107 138.58 33.2252C138.599 33.3489 138.648 33.4661 138.723 33.5668C138.798 33.6674 138.895 33.7485 139.008 33.803C139.189 33.8947 139.394 33.9283 139.595 33.8992C139.795 33.8701 139.982 33.7797 140.13 33.6404C140.271 33.4981 140.354 33.3078 140.362 33.1072C140.37 32.9066 140.302 32.7104 140.172 32.5574Z" fill="#E8505B"/>
<path d="M140.399 33.8887C140.369 33.8887 140.326 33.7603 140.211 33.5805C140.061 33.3562 139.85 33.1794 139.603 33.0712C139.355 32.9612 139.079 32.927 138.811 32.9727C138.601 33.0027 138.473 33.0583 138.456 33.0284C138.439 32.9984 138.546 32.8957 138.773 32.8186C139.072 32.7152 139.398 32.7278 139.688 32.8538C139.979 32.9799 140.211 33.2102 140.339 33.4992C140.429 33.7346 140.399 33.8845 140.399 33.8887Z" fill="#263238"/>
<path d="M131.651 34.4152C131.672 34.4152 131.775 34.6292 131.612 34.9546C131.528 35.1214 131.392 35.2562 131.224 35.3384C131.056 35.4205 130.866 35.4456 130.683 35.4097C130.5 35.3738 130.333 35.279 130.209 35.1396C130.084 35.0002 130.009 34.824 129.994 34.6378C129.98 34.4263 130.043 34.2168 130.17 34.0471C130.392 33.7603 130.645 33.756 130.64 33.7817C130.636 33.8074 130.452 33.8759 130.302 34.1327C130.216 34.2784 130.18 34.4483 130.2 34.6164C130.216 34.7139 130.253 34.8067 130.309 34.8887C130.364 34.9706 130.436 35.0398 130.521 35.0915C130.604 35.1453 130.698 35.1804 130.796 35.1944C130.895 35.2084 130.995 35.2011 131.09 35.1729C131.247 35.1177 131.384 35.0144 131.479 34.8775C131.558 34.7325 131.616 34.5768 131.651 34.4152Z" fill="#E8505B"/>
<path d="M130.207 34.2526C130.229 34.2526 130.207 34.3981 130.006 34.488C129.895 34.5398 129.77 34.5518 129.651 34.5223C129.546 34.4967 129.451 34.4408 129.377 34.3615C129.303 34.2823 129.255 34.1832 129.237 34.0765C129.219 33.9699 129.233 33.8603 129.277 33.7615C129.321 33.6627 129.393 33.5789 129.484 33.5206C129.66 33.4136 129.797 33.4564 129.792 33.4864C129.788 33.5163 129.685 33.542 129.578 33.6448C129.514 33.7083 129.472 33.7906 129.457 33.8798C129.442 33.969 129.456 34.0605 129.497 34.1413C129.543 34.2186 129.611 34.2797 129.693 34.3158C129.776 34.3519 129.867 34.3612 129.955 34.3425C130.1 34.3082 130.178 34.2312 130.207 34.2526Z" fill="#E8505B"/>
<path d="M134.912 72.2674C134.912 72.2674 145.51 72.8838 151.777 72.9395C156.627 72.9865 158.793 71.6938 159.76 68.5776C160.578 65.9623 158.827 60.9413 158.827 60.9413C155.544 60.9413 153.519 61.4079 151.409 62.4009L151.969 64.6953L134.882 66.1677L134.912 72.2674Z" fill="#FFBE9D"/>
<path d="M155.535 67.1437C155.074 66.5456 154.536 66.0116 153.934 65.5556C153.291 65.1617 152.597 64.8565 151.871 64.6482C152.099 64.615 152.332 64.634 152.552 64.7038C153.09 64.8348 153.6 65.061 154.058 65.3716C154.517 65.6837 154.914 66.0768 155.231 66.5316C155.376 66.7108 155.48 66.9198 155.535 67.1437Z" fill="#EB996E"/>
<path d="M131.034 62.3838C131.034 62.3838 127.755 63.1714 125.35 64.7809L127.918 71.7409C128.774 74.0267 131.389 75.1653 133.483 73.9625C136.706 72.1219 137.844 66.7456 137.844 66.7456L141.384 51.3873L135.516 47.7103L131.06 62.3838" fill="#FFBE9D"/>
<path d="M135.49 47.7103L135.729 42.6594L134.419 37.5228C134.347 37.2403 134.308 36.885 134.539 36.7138C134.654 36.6259 134.795 36.5804 134.94 36.5851C135.084 36.5898 135.222 36.6443 135.331 36.7395C135.691 37.1247 137.403 41.6321 137.403 41.6321C137.403 41.6321 140.001 40.0697 140.463 39.9969C140.926 39.9241 141.508 41.3153 141.542 41.4266C141.559 41.7388 141.559 42.0518 141.542 42.364C141.542 42.364 143.147 42.4154 143.293 42.6337C143.41 43.0782 143.471 43.5353 143.477 43.9949C143.477 43.9949 144.158 44.2132 144.265 44.7311C144.372 45.2491 144.594 46.0923 144.265 46.2764C143.935 46.4604 143.267 46.8371 143.267 46.8371C143.267 46.8371 142.998 49.4568 142.925 49.6922C142.852 49.9276 141.35 51.4044 141.35 51.4044L135.49 47.7103Z" fill="#FFBE9D"/>
<path d="M130.032 74.0695C130.032 74.0695 130.195 74.1594 130.524 74.2664C131.014 74.422 131.532 74.463 132.04 74.3862C132.852 74.2713 133.613 73.92 134.227 73.376C135.041 72.6362 135.729 71.7688 136.265 70.8077C136.579 70.2373 136.845 69.6417 137.061 69.0271C137.284 68.3536 137.467 67.6675 137.609 66.9724C137.943 65.5285 138.304 63.9804 138.692 62.3281L141.26 51.3573V51.3273H141.281C141.577 51.0405 141.872 50.7409 142.167 50.437C142.313 50.2829 142.458 50.1288 142.595 49.9704C142.66 49.8891 142.732 49.8077 142.788 49.7264C142.844 49.6451 142.839 49.5723 142.861 49.461C142.976 48.6049 143.066 47.7189 143.16 46.8285V46.7686L143.212 46.7386L144.029 46.2806C144.089 46.2464 144.183 46.1993 144.222 46.1693C144.263 46.1328 144.291 46.0828 144.299 46.0281C144.321 45.8862 144.321 45.7419 144.299 45.6C144.258 45.2861 144.193 44.9757 144.106 44.6712C144.035 44.5387 143.938 44.4218 143.821 44.327C143.705 44.2322 143.57 44.1615 143.426 44.119L143.353 44.0933V44.0163C143.353 43.768 143.327 43.5154 143.297 43.2629C143.286 43.1364 143.267 43.0107 143.242 42.8862C143.232 42.8319 143.216 42.7788 143.195 42.7278C143.195 42.6979 143.195 42.7278 143.165 42.7022C143.143 42.6906 143.12 42.6806 143.096 42.6722C142.58 42.5588 142.054 42.4985 141.525 42.4924H141.414V42.3811C141.414 42.12 141.414 41.8247 141.414 41.525C141.396 41.4243 141.362 41.3273 141.311 41.2382C141.268 41.1355 141.217 41.0328 141.166 40.9343C141.072 40.7286 140.959 40.5323 140.828 40.3479C140.77 40.2644 140.697 40.1919 140.614 40.1339C140.582 40.1078 140.543 40.0914 140.502 40.0869C140.461 40.0823 140.419 40.0897 140.382 40.1082C140.176 40.1878 139.975 40.2793 139.779 40.3821C138.983 40.8102 138.204 41.2382 137.446 41.7048L137.33 41.7733L137.283 41.6534C136.881 40.639 136.479 39.6373 136.085 38.6571C135.888 38.1649 135.695 37.6769 135.498 37.1889C135.467 37.0812 135.406 36.9844 135.323 36.9089C135.24 36.8334 135.138 36.7822 135.028 36.7609C134.925 36.7277 134.815 36.7299 134.714 36.7672C134.613 36.8045 134.527 36.8746 134.471 36.9663C134.418 37.0584 134.396 37.1647 134.407 37.2702C134.407 37.3687 134.467 37.5099 134.497 37.6298L134.689 38.366C134.818 38.854 134.946 39.342 135.07 39.8214C135.324 40.7802 135.571 41.7219 135.811 42.6465V42.6765C135.725 44.4343 135.644 46.118 135.567 47.7274V47.7488C133.949 53.0138 132.609 57.3799 131.667 60.4404L130.567 63.9718L130.272 64.8964C130.203 65.1062 130.161 65.2132 130.161 65.2132C130.161 65.2132 130.186 65.1019 130.242 64.8878L130.512 63.9547C130.76 63.1286 131.115 61.93 131.565 60.4105L135.391 47.6975C135.466 46.0937 135.541 44.4101 135.618 42.6465V42.6765C135.373 41.7576 135.123 40.8159 134.869 39.8514C134.741 39.3719 134.612 38.8883 134.484 38.4003L134.291 37.6598C134.25 37.5338 134.219 37.4051 134.197 37.2745C134.181 37.1259 134.213 36.9761 134.287 36.8465C134.364 36.7108 134.487 36.6074 134.634 36.5554C134.774 36.5159 134.922 36.5159 135.062 36.5554C135.207 36.5847 135.342 36.6528 135.451 36.7523C135.559 36.8531 135.638 36.9799 135.682 37.1204C135.879 37.6084 136.072 38.0964 136.273 38.5886C136.667 39.5788 137.066 40.5776 137.472 41.5849L137.313 41.5336C138.08 41.0799 138.854 40.6261 139.663 40.2024C139.868 40.0917 140.08 39.9945 140.297 39.9113C140.365 39.887 140.438 39.8768 140.511 39.8813C140.585 39.8925 140.655 39.9203 140.716 39.9627C140.819 40.0351 140.91 40.1232 140.986 40.2238C141.129 40.4125 141.254 40.6147 141.358 40.8273C141.414 40.93 141.465 41.037 141.512 41.1441C141.573 41.2574 141.614 41.3805 141.632 41.5079C141.632 41.8118 141.632 42.0943 141.632 42.364L141.525 42.2484C142.076 42.2533 142.624 42.3179 143.16 42.441C143.199 42.4539 143.236 42.4696 143.272 42.4881C143.317 42.5151 143.354 42.5535 143.379 42.5994C143.413 42.6684 143.438 42.7419 143.452 42.8177C143.481 42.9504 143.494 43.0831 143.511 43.2158C143.541 43.4769 143.559 43.7337 143.567 43.9863L143.49 43.8878C143.665 43.9392 143.828 44.0256 143.968 44.1419C144.109 44.2582 144.224 44.4018 144.308 44.5642C144.401 44.888 144.47 45.2186 144.513 45.5529C144.543 45.7257 144.543 45.9024 144.513 46.0752C144.49 46.1782 144.434 46.2712 144.355 46.3406C144.285 46.3878 144.212 46.4307 144.136 46.469L143.319 46.927L143.374 46.8414C143.276 47.736 143.186 48.6178 143.066 49.4867L143.041 49.6494C143.03 49.7174 143.004 49.782 142.964 49.8377C142.898 49.9291 142.826 50.0164 142.75 50.0988C142.608 50.2657 142.458 50.4198 142.321 50.5739C142.022 50.8821 141.726 51.1818 141.431 51.4728L141.457 51.4215C140.515 55.3938 139.642 59.0835 138.859 62.3838C138.468 64.0332 138.101 65.5799 137.758 67.0238C137.611 67.7224 137.42 68.4114 137.189 69.087C136.97 69.7042 136.698 70.3014 136.376 70.8719C135.828 71.8438 135.124 72.7187 134.291 73.4616C133.657 74.0098 132.875 74.3596 132.044 74.4675C131.526 74.5359 131 74.4817 130.507 74.3092C130.381 74.2659 130.26 74.2115 130.144 74.1465L130.032 74.0695Z" fill="#EB996E"/>
<path d="M141.543 42.3427C141.543 42.3769 141.397 42.394 141.17 42.4026C140.882 42.4081 140.595 42.4425 140.314 42.5053C140.044 42.5727 139.794 42.7049 139.587 42.8906C139.432 43.0361 139.364 43.1603 139.33 43.1474C139.295 43.1346 139.33 42.9848 139.471 42.7878C139.671 42.5385 139.948 42.3624 140.259 42.287C140.559 42.2179 140.869 42.2034 141.175 42.2442C141.406 42.2742 141.543 42.3127 141.543 42.3427Z" fill="#EB996E"/>
<path d="M140.288 42.3897C140.228 42.3897 140.224 42.2356 140.288 42.0944C140.352 41.9531 140.429 41.8589 140.485 41.8803C140.54 41.9018 140.549 42.0344 140.485 42.1757C140.42 42.317 140.343 42.4111 140.288 42.3897Z" fill="#EB996E"/>
<path d="M143.55 43.9478C143.134 44.0732 142.701 44.1324 142.266 44.1233C142.13 44.1194 141.995 44.1481 141.872 44.2069C141.749 44.2657 141.642 44.353 141.56 44.4615C141.444 44.637 141.483 44.7825 141.448 44.7911C141.414 44.7996 141.312 44.6455 141.419 44.393C141.477 44.2472 141.585 44.1262 141.722 44.0505C141.882 43.9674 142.057 43.9165 142.236 43.9007C142.673 43.8345 143.119 43.8505 143.55 43.9478Z" fill="#EB996E"/>
<path d="M143.263 45.4845C143.323 45.4845 143.361 45.8055 143.34 46.1908C143.319 46.576 143.259 46.8928 143.199 46.8885C143.139 46.8842 143.1 46.5717 143.117 46.1822C143.134 45.7927 143.199 45.4845 143.263 45.4845Z" fill="#EB996E"/>
<path d="M145.044 57.0161L145.421 55.702C145.438 55.6415 145.471 55.5867 145.517 55.5431C145.562 55.4995 145.618 55.4685 145.679 55.4534C145.74 55.4382 145.804 55.4393 145.865 55.4567C145.925 55.474 145.98 55.5069 146.024 55.5522L146.521 56.0573L146.829 54.8245C146.847 54.753 146.887 54.6889 146.943 54.6407C146.998 54.5925 147.068 54.5627 147.141 54.5552C147.214 54.5477 147.288 54.563 147.353 54.5989C147.417 54.6348 147.469 54.6897 147.501 54.756L148.203 56.2199L145.044 57.0161Z" fill="white"/>
<path d="M148.208 56.7807C147.729 57.013 147.22 57.1772 146.697 57.2687C146.189 57.4316 145.662 57.5238 145.13 57.5426C145.609 57.3109 146.117 57.1453 146.641 57.0504C147.148 56.8878 147.675 56.797 148.208 56.7807Z" fill="white"/>
<path d="M122.752 49.4611C122.752 49.4611 122.593 49.628 122.371 49.9704C122.072 50.4658 121.875 51.0159 121.793 51.5885C121.671 52.4389 121.645 53.3005 121.716 54.1567C121.763 55.1241 121.84 56.19 121.96 57.3029C122.158 59.2019 122.456 61.0892 122.85 62.9574C123 63.6722 123.137 64.2415 123.235 64.6696C123.278 64.8451 123.312 64.9992 123.342 65.1276C123.372 65.256 123.377 65.2902 123.377 65.2902C123.377 65.2902 123.355 65.2346 123.325 65.1319L123.201 64.6781C123.094 64.2801 122.948 63.7022 122.773 62.9659C122.357 61.0972 122.047 59.2065 121.844 57.3029C121.724 56.1857 121.652 55.1198 121.609 54.1525C121.544 53.2955 121.576 52.4341 121.703 51.5842C121.794 51.0067 122.004 50.4544 122.319 49.9619C122.442 49.7774 122.587 49.6091 122.752 49.4611Z" fill="white"/>
<path d="M131.761 43.6439L131.663 43.6953L131.38 43.8323C131.136 43.9478 130.781 44.1191 130.357 44.3545C129.251 44.9674 128.178 45.639 127.143 46.3663C125.919 47.2224 124.836 47.9972 124.044 48.5622L123.106 49.2299L122.845 49.4054C122.785 49.444 122.755 49.4654 122.751 49.4611L122.837 49.3926L123.085 49.2L124.009 48.5151C124.788 47.933 125.867 47.1325 127.091 46.2893C128.13 45.5631 129.211 44.8985 130.327 44.2988C130.755 44.072 131.115 43.905 131.368 43.798L131.659 43.6782C131.691 43.6612 131.725 43.6496 131.761 43.6439Z" fill="white"/>
<path d="M152.175 46.4263C152.175 46.4263 152.149 46.4263 152.102 46.3749L151.909 46.208C151.672 46.0053 151.422 45.818 151.16 45.6473C150.293 45.0899 149.371 44.6237 148.408 44.2561C147.449 43.8765 146.47 43.5506 145.476 43.2802C145.095 43.1731 144.782 43.0961 144.568 43.0405L144.32 42.9805C144.29 42.9744 144.261 42.9643 144.234 42.9506C144.234 42.9506 144.264 42.9506 144.324 42.9506L144.573 42.9934C144.791 43.0362 145.108 43.1047 145.489 43.2031C146.492 43.458 147.479 43.7768 148.442 44.1577C149.409 44.5299 150.332 45.0079 151.194 45.5831C151.554 45.824 151.883 46.1071 152.175 46.4263Z" fill="white"/>
<path d="M131.881 79.1034C131.824 79.0893 131.768 79.0692 131.714 79.0435C131.565 78.9809 131.422 78.9049 131.286 78.8166C130.822 78.5365 130.486 78.0842 130.353 77.5582C130.235 77.0318 130.294 76.4812 130.52 75.9915C130.584 75.8388 130.668 75.695 130.768 75.5635C130.837 75.4736 130.884 75.4308 130.888 75.435C130.771 75.6165 130.668 75.8069 130.58 76.0043C130.377 76.4842 130.329 77.0155 130.443 77.5239C130.571 78.029 130.884 78.4675 131.321 78.7524C131.655 78.9921 131.89 79.0863 131.881 79.1034Z" fill="white"/>
<path d="M130.521 74.4676C130.615 74.6343 130.683 74.8148 130.722 75.0026C130.789 75.1841 130.83 75.3745 130.842 75.5677C130.676 75.2206 130.568 74.8491 130.521 74.4676Z" fill="white"/>
<path d="M136.307 170.436L149.362 170.372L149.127 125.23L149.003 79.3002L131.32 79.0819L128.14 85.0746C126.839 87.4855 126.009 90.1222 125.695 92.8436C125.473 94.9154 127.027 101.683 127.57 103.404L132.437 118.852L136.307 170.436Z" fill="black"/>
<path d="M152.835 79.3773L167.183 118.488C168.033 121.008 168.315 123.685 168.009 126.326C167.703 128.968 166.818 131.51 165.415 133.769L148.755 166.279L139.39 154.564L153.327 125.457L141.042 105.548L143.109 79.4372L148.897 79.3474L152.835 79.3773Z" fill="black"/>
<path d="M147.813 92.4797C147.813 92.4797 147.813 92.5482 147.835 92.6809C147.856 92.8136 147.856 93.0191 147.869 93.2673C147.899 93.7981 147.938 94.5515 147.989 95.536C148.087 97.5179 148.224 100.364 148.396 103.879C148.567 107.393 148.751 111.583 148.965 116.249C149.068 118.578 149.179 121.022 149.29 123.556C149.376 124.84 149.337 126.124 149.35 127.408C149.363 128.693 149.35 130.049 149.35 131.394C149.35 142.15 149.384 151.888 149.397 158.947C149.397 162.465 149.397 165.316 149.397 167.298C149.397 168.274 149.397 169.04 149.397 169.567C149.397 169.819 149.397 169.995 149.397 170.157C149.397 170.32 149.397 170.359 149.397 170.359C149.397 170.359 149.397 170.29 149.397 170.157V169.567C149.397 169.04 149.397 168.283 149.372 167.298C149.372 165.316 149.337 162.465 149.312 158.947C149.282 151.888 149.243 142.155 149.2 131.398C149.2 130.054 149.2 128.722 149.2 127.413C149.2 126.103 149.222 124.814 149.14 123.56C149.033 121.026 148.926 118.582 148.828 116.253C148.631 111.601 148.456 107.406 148.306 103.883C148.156 100.36 148.053 97.5221 147.972 95.5403C147.938 94.5643 147.912 93.7981 147.895 93.2716C147.895 93.0191 147.895 92.8436 147.895 92.6809C147.895 92.5183 147.813 92.4797 147.813 92.4797Z" fill="#455A64"/>
<path d="M147.483 80.1563C147.534 80.2941 147.566 80.4381 147.578 80.5844C147.62 80.8626 147.672 81.2607 147.732 81.7572C147.843 82.746 147.963 84.12 148.036 85.6396C148.108 87.1592 148.104 88.5375 148.083 89.5348C148.083 90.0314 148.053 90.4337 148.031 90.712C148.035 90.8564 148.018 91.0005 147.98 91.14C147.931 90.605 147.913 90.0676 147.924 89.5305C147.924 88.5332 147.877 87.1592 147.813 85.6439C147.749 84.1286 147.646 82.7588 147.573 81.7658C147.513 81.2314 147.483 80.6941 147.483 80.1563Z" fill="#455A64"/>
<path d="M144.607 81.0124C144.467 81.1447 144.368 81.3139 144.32 81.5004C144.299 81.5941 144.303 81.6916 144.332 81.7833C144.36 81.8749 144.412 81.9575 144.483 82.0226C144.569 82.0992 144.674 82.1504 144.788 82.1708C144.901 82.1912 145.018 82.1799 145.125 82.1382C145.228 82.0857 145.314 82.0053 145.373 81.906C145.432 81.8068 145.462 81.6929 145.459 81.5775C145.455 81.4817 145.426 81.3885 145.376 81.3068C145.326 81.2251 145.256 81.1576 145.172 81.1109C144.998 81.0266 144.804 80.9911 144.611 81.0082C144.611 81.0082 144.654 80.9525 144.765 80.9225C144.926 80.8793 145.096 80.896 145.245 80.9696C145.363 81.0205 145.466 81.1028 145.541 81.2077C145.617 81.3125 145.662 81.4359 145.673 81.5646C145.69 81.7245 145.656 81.8858 145.577 82.0255C145.497 82.1653 145.375 82.2764 145.229 82.3431C145.083 82.4099 144.919 82.4289 144.761 82.3975C144.604 82.3661 144.46 82.2859 144.35 82.1682C144.26 82.0774 144.195 81.9638 144.164 81.8394C144.133 81.7149 144.137 81.5844 144.175 81.4619C144.219 81.3034 144.315 81.1646 144.449 81.0681C144.538 81.0124 144.603 81.0124 144.607 81.0124Z" fill="#455A64"/>
<path d="M137.758 80.2547C137.822 80.3891 137.861 80.5342 137.873 80.6827C137.944 81.0667 137.957 81.4592 137.912 81.847C137.853 82.4265 137.686 82.9899 137.42 83.5079C137.099 84.1502 136.627 84.7046 136.043 85.1231C135.46 85.5415 134.783 85.8114 134.072 85.9092C133.502 85.992 132.922 85.9703 132.36 85.845C131.979 85.7557 131.613 85.6116 131.273 85.4169C131.142 85.3576 131.023 85.2749 130.922 85.173C131.393 85.391 131.887 85.5575 132.394 85.6695C133.003 85.7968 133.632 85.7962 134.241 85.668C134.849 85.5397 135.425 85.2865 135.93 84.9244C136.436 84.5623 136.861 84.0992 137.179 83.5643C137.496 83.0294 137.699 82.4345 137.775 81.8171C137.824 81.2971 137.818 80.7734 137.758 80.2547Z" fill="#455A64"/>
<path d="M154.555 84.0088C154.277 84.0437 153.995 84.0099 153.733 83.9103C153.084 83.7115 152.501 83.3401 152.047 82.8359C151.589 82.3344 151.274 81.7196 151.135 81.0553C151.068 80.7825 151.068 80.4976 151.135 80.2249C151.178 80.2249 151.178 80.5416 151.306 81.0167C151.482 81.6359 151.797 82.2068 152.227 82.6861C152.66 83.162 153.198 83.5312 153.797 83.7648C154.243 83.9275 154.559 83.9617 154.555 84.0088Z" fill="#455A64"/>
<path d="M159.661 126.167C159.447 126.411 159.19 126.614 158.904 126.766C158.604 126.959 158.276 127.103 157.932 127.194C157.5 127.309 157.044 127.297 156.618 127.16C155.872 126.875 155.232 126.367 154.786 125.705C154.581 125.454 154.413 125.176 154.285 124.879C154.515 125.101 154.725 125.345 154.91 125.606C155.367 126.209 155.982 126.673 156.686 126.946C157.046 127.043 157.421 127.065 157.79 127.01C158.158 126.956 158.511 126.826 158.827 126.629C159.096 126.46 159.375 126.306 159.661 126.167Z" fill="#455A64"/>
<path d="M156.387 128.663C155.425 127.573 154.58 126.385 153.866 125.119C154.823 126.213 155.667 127.4 156.387 128.663Z" fill="#455A64"/>
<path d="M134.45 93.9951C134.39 94.0208 134.24 93.7725 134.107 93.4472C133.975 93.1219 133.919 92.8351 133.975 92.8137C134.03 92.7923 134.184 93.0363 134.317 93.3616C134.45 93.6869 134.505 93.9737 134.45 93.9951Z" fill="#FAFAFA"/>
<path d="M142.736 95.1808C142.676 95.1808 142.625 94.971 142.625 94.7057C142.625 94.4403 142.676 94.2348 142.736 94.2348C142.796 94.2348 142.848 94.4445 142.848 94.7057C142.848 94.9668 142.796 95.1808 142.736 95.1808Z" fill="#FAFAFA"/>
<path d="M139.33 99.6796C139.27 99.6796 139.201 99.4228 139.18 99.0975C139.158 98.7722 139.18 98.5025 139.248 98.4982C139.317 98.4939 139.381 98.755 139.402 99.0804C139.424 99.4057 139.394 99.6753 139.33 99.6796Z" fill="#FAFAFA"/>
<path d="M133.122 102.997C133.071 103.031 132.896 102.877 132.664 102.71C132.433 102.543 132.236 102.423 132.236 102.363C132.236 102.304 132.523 102.363 132.78 102.53C133.037 102.697 133.157 102.963 133.122 102.997Z" fill="#FAFAFA"/>
<path d="M144.076 107.179C144.025 107.145 144.076 106.956 144.222 106.751C144.367 106.545 144.5 106.421 144.551 106.456C144.603 106.49 144.551 106.678 144.406 106.884C144.26 107.089 144.127 107.213 144.076 107.179Z" fill="#FAFAFA"/>
<path d="M137.292 108.365C137.228 108.365 137.177 108.009 137.177 107.573C137.177 107.136 137.228 106.785 137.292 106.785C137.357 106.785 137.404 107.136 137.404 107.573C137.404 108.009 137.352 108.365 137.292 108.365Z" fill="#FAFAFA"/>
<path d="M135.088 113.163C135.054 113.214 134.831 113.112 134.591 112.94C134.352 112.769 134.185 112.585 134.223 112.534C134.262 112.482 134.48 112.585 134.72 112.761C134.96 112.936 135.126 113.116 135.088 113.163Z" fill="#FAFAFA"/>
<path d="M141.949 114.828C141.971 114.884 141.834 114.999 141.637 115.085C141.44 115.171 141.26 115.201 141.239 115.145C141.217 115.089 141.35 114.969 141.547 114.884C141.744 114.798 141.923 114.781 141.949 114.828Z" fill="#FAFAFA"/>
<path d="M137.292 122.649C137.236 122.679 137.014 122.345 136.795 121.912C136.577 121.48 136.444 121.099 136.5 121.056C136.556 121.013 136.778 121.356 136.997 121.792C137.162 122.05 137.264 122.344 137.292 122.649Z" fill="#FAFAFA"/>
<path d="M144.868 121.938C144.812 121.912 144.911 121.621 145.086 121.296C145.262 120.971 145.446 120.727 145.514 120.757C145.583 120.787 145.472 121.073 145.3 121.399C145.129 121.724 144.919 121.968 144.868 121.938Z" fill="#FAFAFA"/>
<path d="M141.551 128.568C141.491 128.568 141.495 128.222 141.426 127.819C141.358 127.417 141.26 127.1 141.315 127.07C141.371 127.04 141.581 127.344 141.649 127.785C141.718 128.226 141.611 128.581 141.551 128.568Z" fill="#FAFAFA"/>
<path d="M137.998 132.378C137.955 132.417 137.741 132.258 137.523 132.019C137.304 131.779 137.163 131.548 137.21 131.509C137.257 131.471 137.471 131.629 137.69 131.869C137.908 132.108 138.045 132.318 137.998 132.378Z" fill="#FAFAFA"/>
<path d="M146.624 133.795C146.576 133.752 146.735 133.521 146.975 133.281C147.214 133.042 147.441 132.879 147.484 132.922C147.527 132.965 147.368 133.196 147.133 133.44C146.897 133.684 146.666 133.842 146.624 133.795Z" fill="#FAFAFA"/>
<path d="M141.684 139.467C141.624 139.467 141.624 139.133 141.684 138.739C141.744 138.345 141.838 138.037 141.902 138.045C141.966 138.054 141.962 138.379 141.902 138.773C141.842 139.167 141.722 139.479 141.684 139.467Z" fill="#FAFAFA"/>
<path d="M138.327 142.223C138.272 142.257 138.088 142.035 137.899 141.731C137.711 141.427 137.621 141.157 137.672 141.127C137.724 141.097 137.916 141.316 138.101 141.62C138.285 141.924 138.379 142.189 138.327 142.223Z" fill="#FAFAFA"/>
<path d="M146.363 145.695C146.401 145.746 146.183 145.96 145.879 146.178C145.575 146.397 145.297 146.534 145.258 146.487C145.22 146.439 145.442 146.217 145.746 145.999C146.05 145.78 146.328 145.648 146.363 145.695Z" fill="#FAFAFA"/>
<path d="M139.668 150.202C139.608 150.181 139.668 149.834 139.723 149.41C139.779 148.986 139.745 148.631 139.809 148.623C139.873 148.614 139.984 148.969 139.946 149.432C139.907 149.894 139.723 150.223 139.668 150.202Z" fill="#FAFAFA"/>
<path d="M142.343 156.67C142.292 156.708 142.112 156.563 141.941 156.344C141.769 156.126 141.662 155.916 141.709 155.882C141.756 155.848 141.941 155.989 142.112 156.208C142.283 156.426 142.39 156.631 142.343 156.67Z" fill="#FAFAFA"/>
<path d="M139.419 161.014C139.372 161.049 139.137 160.792 138.897 160.445C138.658 160.098 138.503 159.786 138.555 159.747C138.606 159.709 138.837 159.97 139.077 160.317C139.317 160.663 139.471 160.976 139.419 161.014Z" fill="#FAFAFA"/>
<path d="M147.471 155.565C147.415 155.544 147.419 155.386 147.471 155.21C147.522 155.035 147.633 154.915 147.693 154.936C147.753 154.958 147.745 155.116 147.693 155.291C147.642 155.467 147.531 155.587 147.471 155.565Z" fill="#FAFAFA"/>
<path d="M143.923 165.907C143.863 165.877 143.97 165.573 144.055 165.192C144.141 164.811 144.171 164.49 144.235 164.486C144.299 164.482 144.364 164.824 144.274 165.239C144.184 165.655 143.974 165.937 143.923 165.907Z" fill="#FAFAFA"/>
<path d="M146.23 99.7523C146.174 99.778 146.037 99.6025 145.926 99.367C145.815 99.1316 145.768 98.9133 145.823 98.8876C145.879 98.8619 146.016 99.0332 146.127 99.2729C146.238 99.5126 146.286 99.7223 146.23 99.7523Z" fill="#FAFAFA"/>
<path d="M140.288 86.4188C140.322 86.4744 140.022 86.7141 139.701 87.0566C139.38 87.399 139.162 87.7115 139.106 87.6815C139.051 87.6515 139.196 87.2535 139.534 86.9025C139.872 86.5515 140.258 86.3674 140.288 86.4188Z" fill="#FAFAFA"/>
<path d="M145.579 86.2602C145.515 86.2602 145.417 86.0205 145.267 85.7252C145.117 85.4298 144.98 85.1987 145.027 85.1559C145.074 85.1131 145.305 85.3014 145.455 85.6267C145.605 85.952 145.639 86.2517 145.579 86.2602Z" fill="#FAFAFA"/>
<path d="M129.1 90.6092C129.044 90.6092 129.1 90.3053 129.232 89.9757C129.365 89.6461 129.515 89.4021 129.57 89.4235C129.626 89.445 129.57 89.7317 129.438 90.0571C129.305 90.3824 129.159 90.6349 129.1 90.6092Z" fill="#FAFAFA"/>
<path d="M129.635 97.077C129.596 97.124 129.352 96.9828 129.087 96.7645C128.821 96.5462 128.659 96.3364 128.684 96.2851C128.71 96.2337 128.971 96.3792 129.232 96.5933C129.493 96.8073 129.673 97.0299 129.635 97.077Z" fill="#FAFAFA"/>
<path d="M140.447 81.2907C140.391 81.2907 140.271 81.1537 140.186 80.9354C140.1 80.7171 140.074 80.5074 140.13 80.5074C140.186 80.5074 140.306 80.6444 140.391 80.8627C140.477 81.081 140.502 81.265 140.447 81.2907Z" fill="#FAFAFA"/>
<path d="M150.801 84.4368C150.741 84.4368 150.746 84.1672 150.801 83.859C150.857 83.5508 150.968 83.3196 151.028 83.3325C151.088 83.3453 151.084 83.6021 151.028 83.9061C150.972 84.21 150.861 84.4625 150.801 84.4368Z" fill="#FAFAFA"/>
<path d="M153.24 89.3379C153.18 89.3379 153.24 88.9955 153.412 88.6274C153.583 88.2593 153.733 87.9767 153.793 87.9981C153.852 88.0196 153.793 88.3406 153.617 88.713C153.442 89.0854 153.292 89.3636 153.24 89.3379Z" fill="#FAFAFA"/>
<path d="M151.499 93.2888C151.443 93.3145 151.238 93.0191 151.045 92.6253C150.852 92.2315 150.732 91.8933 150.788 91.8677C150.844 91.842 151.045 92.1331 151.242 92.5269C151.439 92.9207 151.554 93.2588 151.499 93.2888Z" fill="#FAFAFA"/>
<path d="M155.21 97.2354C155.15 97.2097 155.21 96.9657 155.3 96.6789C155.389 96.3921 155.544 96.1867 155.603 96.2081C155.663 96.2295 155.603 96.4777 155.509 96.7603C155.415 97.0428 155.265 97.2782 155.21 97.2354Z" fill="#FAFAFA"/>
<path d="M151.893 101.101C151.842 101.135 151.709 101.019 151.602 100.844C151.495 100.668 151.448 100.501 151.499 100.471C151.551 100.442 151.683 100.553 151.79 100.728C151.897 100.904 151.957 101.071 151.893 101.101Z" fill="#FAFAFA"/>
<path d="M152.599 109.075C152.556 109.118 152.29 108.904 152.004 108.6C151.717 108.296 151.528 108.014 151.576 107.971C151.623 107.928 151.884 108.142 152.171 108.446C152.457 108.75 152.646 109.032 152.599 109.075Z" fill="#FAFAFA"/>
<path d="M156.944 104.495C156.897 104.534 156.661 104.315 156.422 104.011C156.182 103.708 156.028 103.429 156.075 103.391C156.122 103.352 156.357 103.571 156.597 103.874C156.837 104.178 156.995 104.457 156.944 104.495Z" fill="#FAFAFA"/>
<path d="M159.328 110.817C159.272 110.792 159.371 110.471 159.546 110.098C159.722 109.726 159.906 109.452 159.974 109.478C160.043 109.503 159.936 109.824 159.76 110.197C159.585 110.569 159.384 110.843 159.328 110.817Z" fill="#FAFAFA"/>
<path d="M154.26 116.018C154.208 116.052 154.007 115.817 153.733 115.564C153.459 115.312 153.207 115.136 153.237 115.072C153.267 115.008 153.584 115.119 153.883 115.397C154.183 115.676 154.311 115.992 154.26 116.018Z" fill="#FAFAFA"/>
<path d="M154.577 121.386C154.577 121.45 154.363 121.497 154.102 121.497C153.841 121.497 153.631 121.45 153.631 121.386C153.631 121.322 153.841 121.275 154.102 121.275C154.363 121.275 154.577 121.326 154.577 121.386Z" fill="#FAFAFA"/>
<path d="M159.786 119.888C159.73 119.853 159.841 119.588 159.922 119.25C160.004 118.912 160.038 118.629 160.102 118.625C160.166 118.621 160.235 118.929 160.141 119.306C160.047 119.682 159.837 119.922 159.786 119.888Z" fill="#FAFAFA"/>
<path d="M164.961 121.677C164.905 121.698 164.747 121.399 164.61 121.009C164.473 120.62 164.409 120.286 164.464 120.264C164.52 120.243 164.683 120.547 164.82 120.936C164.957 121.326 165.021 121.677 164.961 121.677Z" fill="#FAFAFA"/>
<path d="M164.139 129.048C164.083 129.022 164.216 128.663 164.43 128.247C164.644 127.832 164.858 127.52 164.922 127.55C164.986 127.58 164.845 127.935 164.631 128.35C164.417 128.765 164.19 129.078 164.139 129.048Z" fill="#FAFAFA"/>
<path d="M159.413 133.376C159.357 133.401 159.182 133.102 159.019 132.712C158.857 132.323 158.775 131.989 158.835 131.967C158.895 131.946 159.066 132.241 159.229 132.631C159.392 133.02 159.469 133.354 159.413 133.376Z" fill="#FAFAFA"/>
<path d="M154.183 135.045C154.183 135.105 154.007 135.156 153.789 135.156C153.57 135.156 153.391 135.105 153.391 135.045C153.391 134.985 153.57 134.934 153.789 134.934C154.007 134.934 154.183 134.981 154.183 135.045Z" fill="#FAFAFA"/>
<path d="M157.183 141.911C157.123 141.911 157.004 141.675 156.918 141.346C156.832 141.016 156.807 140.742 156.867 140.725C156.927 140.708 157.042 140.96 157.132 141.29C157.222 141.62 157.239 141.894 157.183 141.911Z" fill="#FAFAFA"/>
<path d="M153.391 139.621C153.339 139.591 153.391 139.385 153.532 139.171C153.673 138.957 153.814 138.799 153.866 138.833C153.917 138.867 153.866 139.064 153.724 139.283C153.583 139.501 153.446 139.655 153.391 139.621Z" fill="#FAFAFA"/>
<path d="M153.314 147.197C153.254 147.197 153.169 146.91 153.126 146.542C153.083 146.174 153.096 145.866 153.156 145.857C153.216 145.849 153.301 146.144 153.344 146.517C153.387 146.889 153.374 147.193 153.314 147.197Z" fill="#FAFAFA"/>
</svg>
