<svg width="22" height="34" fill="none" xmlns="http://www.w3.org/2000/svg"><path d="M11 11.165h11V.465H0v21.677c0 2.912 1.155 5.705 3.21 7.764a10.948 10.948 0 007.748 3.216c.012 0 .02-2.402.024-5.631H11a5.334 5.334 0 003.775-1.567 5.355 5.355 0 000-7.565A5.333 5.333 0 0011 16.792h-.017c0-2.546-.007-4.655-.015-5.631l.032.004zm-.6 16.29c0 2.295-.008 4.172-.015 5.067a10.38 10.38 0 01-6.96-3.238 10.42 10.42 0 01-2.842-7.142c0-5.682 4.333-10.515 9.62-10.941l.182-.009c.008.975.012 3.09.015 5.638a5.332 5.332 0 00-3.382 1.75 5.352 5.352 0 000 7.126 5.332 5.332 0 003.382 1.75z" fill="#2B3A8C"/></svg>