<svg width="119" height="50" fill="none" xmlns="http://www.w3.org/2000/svg"><path d="M16.842 16.383h16.841V0H0v33.19c0 4.458 1.768 8.734 4.914 11.886A16.763 16.763 0 0016.777 50c.019 0 .032-3.678.038-8.622h.027a8.166 8.166 0 005.78-2.399 8.198 8.198 0 000-11.582 8.166 8.166 0 00-5.78-2.399h-.026c0-3.898-.012-7.127-.023-8.622l.049.007zm-.92 24.94c0 3.515-.012 6.389-.022 7.759a15.894 15.894 0 01-10.655-4.959A15.955 15.955 0 01.893 33.19c0-8.7 6.634-16.1 14.729-16.752l.278-.014c.012 1.493.019 4.73.024 8.632a8.164 8.164 0 00-5.18 2.678 8.194 8.194 0 000 10.911 8.164 8.164 0 005.18 2.679h-.002zm34.196-16.551h-.515v24.046h.515V24.772zm28.012 2.634h-.537a4.252 4.252 0 00-.701-1.19c-.34-.42-.658-.65-.955-.69a10.66 10.66 0 00-1.178-.068h-1.514v3.76h.968c.24.004.48-.026.712-.09.203-.062.387-.175.535-.328a1.72 1.72 0 00.34-.566c.094-.217.16-.446.196-.68h.521v4.038h-.52a2.572 2.572 0 00-.215-.742 2.173 2.173 0 00-.315-.578 1.186 1.186 0 00-.51-.321 2.317 2.317 0 00-.74-.105h-.966v3.179a.852.852 0 00.093.416.657.657 0 00.353.281c.134.05.273.088.414.112.17.034.351.06.524.078v.528h-5.25v-.527l.528-.058c.156-.012.31-.043.46-.092a.637.637 0 00.339-.264.887.887 0 00.095-.433v-6.77a.879.879 0 00-.085-.402.66.66 0 00-.353-.287 2.96 2.96 0 00-.509-.15 6.636 6.636 0 00-.48-.088v-.527h8.744l.005 2.564zm12.495.182h-.534a5.825 5.825 0 00-.68-1.318c-.311-.47-.6-.722-.865-.758a8.857 8.857 0 00-.541-.048 8.902 8.902 0 00-.553-.02h-.323v7.528a.985.985 0 00.09.43c.076.14.2.244.35.294.16.055.324.097.49.126.227.043.415.074.565.092v.527h-5.43v-.527l.56-.058c.167-.01.331-.041.49-.092a.645.645 0 00.357-.29.984.984 0 00.088-.434v-7.596h-.32c-.157 0-.34 0-.555.02-.216.02-.394.029-.54.048-.265.035-.553.288-.865.758a5.941 5.941 0 00-.68 1.318h-.534v-2.746h9.43v2.746zM78.129 41.763h-.536a4.238 4.238 0 00-.701-1.19c-.34-.422-.655-.652-.956-.693a10.569 10.569 0 00-1.178-.066h-1.513v3.761h.967a2.42 2.42 0 00.713-.092 1.24 1.24 0 00.535-.328c.149-.164.264-.356.339-.564.095-.218.16-.446.197-.68h.52v4.038h-.52a2.572 2.572 0 00-.214-.742 2.172 2.172 0 00-.316-.578 1.177 1.177 0 00-.509-.321 2.31 2.31 0 00-.74-.104h-.967v3.186a.852.852 0 00.094.415c.08.133.206.232.353.28.134.05.272.088.414.113.17.034.35.06.524.078v.527h-5.25v-.527l.527-.058a1.88 1.88 0 00.46-.091.637.637 0 00.34-.264.882.882 0 00.095-.434v-6.775a.89.89 0 00-.087-.405.669.669 0 00-.353-.287 2.834 2.834 0 00-.509-.148 5.804 5.804 0 00-.48-.088v-.529h8.744l.007 2.566zm14.353-2.036a7.969 7.969 0 00-.572.09 1.626 1.626 0 00-.627.249.953.953 0 00-.37.608c-.084.435-.12.877-.107 1.32v3.57c0 1.05-.361 1.896-1.083 2.537-.722.64-1.677.96-2.868.96-1.384 0-2.459-.308-3.224-.926-.764-.618-1.144-1.48-1.138-2.584v-4.91a.842.842 0 00-.092-.407.822.822 0 00-.353-.304 1.905 1.905 0 00-.44-.142 4.675 4.675 0 00-.425-.074v-.51h5.114v.51c-.15.008-.298.026-.446.05a3.082 3.082 0 00-.458.111.542.542 0 00-.352.27.995.995 0 00-.088.427v4.844c0 .952.212 1.644.636 2.076.425.432 1.041.649 1.85.65.792 0 1.414-.24 1.867-.718.452-.478.678-1.181.678-2.11V42.06a5.218 5.218 0 00-.118-1.296 1.153 1.153 0 00-.369-.619 1.746 1.746 0 00-.62-.27c-.296-.08-.51-.13-.622-.148V39.2h4.224l.003.528zm13.167 0c-.128.014-.311.038-.549.073a1.465 1.465 0 00-.644.266 1.02 1.02 0 00-.36.625 5.927 5.927 0 00-.107 1.303v6.858h-1.22l-6.063-7.413v4.506c-.013.428.025.856.114 1.275.049.248.177.472.366.64.178.124.379.214.59.263.213.063.428.115.645.156v.527h-4.184v-.527a4.25 4.25 0 00.614-.098 1.62 1.62 0 00.579-.24 1 1 0 00.368-.592c.08-.438.114-.884.099-1.33v-4.554a1.942 1.942 0 00-.106-.64 1.311 1.311 0 00-.34-.51 1.836 1.836 0 00-.552-.362 3.39 3.39 0 00-.71-.205v-.543h3.664l5.327 6.485v-3.63a5.314 5.314 0 00-.116-1.289 1.169 1.169 0 00-.371-.626 1.764 1.764 0 00-.589-.266 6.7 6.7 0 00-.631-.152V39.2h4.176v.528zm10.751.46a4.4 4.4 0 011.441 1.53 4.65 4.65 0 01.548 2.343 4.368 4.368 0 01-.496 2.123 4.304 4.304 0 01-1.299 1.48c-.569.39-1.2.677-1.867.85a8.423 8.423 0 01-2.191.28h-4.904v-.527c.148 0 .329-.019.55-.04.149-.009.296-.036.438-.082a.65.65 0 00.339-.274.838.838 0 00.097-.417v-6.8a.95.95 0 00-.09-.417.65.65 0 00-.35-.301 1.992 1.992 0 00-.551-.155 7.912 7.912 0 00-.45-.054v-.529h5.188a8.277 8.277 0 011.775.21 5.539 5.539 0 011.822.78zm-1.391 6.879a3.97 3.97 0 00.49-1.287 8.58 8.58 0 00.154-1.723 6.786 6.786 0 00-.207-1.737 3.985 3.985 0 00-.602-1.34 2.734 2.734 0 00-.991-.859 2.895 2.895 0 00-1.347-.304c-.17 0-.34 0-.547.008l-.454.017v7.286c-.004.146.018.291.064.43.045.126.122.24.222.328.113.1.245.175.389.22.194.058.396.084.599.078.46.012.916-.085 1.33-.284a2.27 2.27 0 00.9-.833z" fill="#2B3A8C"/></svg>