<svg width="93" height="106" fill="none" xmlns="http://www.w3.org/2000/svg"><mask id="a" maskUnits="userSpaceOnUse" x="-.6" y="5.543" width="72.108" height="101.806" fill="#000"><path fill="#fff" d="M-.6 5.543h72.108v101.806H-.6z"/><path d="M63.46 77.507l-14.268-7.836c-3.373-1.853-7.54-1.034-9.903 1.95 0 0-.012.013-.012.015l-.04.05a.202.202 0 01-.145.082.151.151 0 01-.123-.044 39.392 39.392 0 01-8.916-12.183 39.357 39.357 0 01-3.71-14.64.135.135 0 01.04-.108.176.176 0 01.136-.052l.084.001c3.818.087 7.115-2.609 7.839-6.408l3.31-17.369a5.813 5.813 0 00-2.842-6.145 15.211 15.211 0 00-2.517-1.168c-8.042-2.89-16.917 1.01-20.204 8.88-.203.492-.379.997-.543 1.503l-.002.006c-.608 1.76-.858 2.825-1.237 4.434l-.08.341c-.092.384-2.25 9.453-1.811 15.313.682 9.09 3.224 17.997 7.353 25.758 4.36 8.198 10.284 14.945 17.603 20.053 1.857 1.296 3.88-1.594 2.02-2.893-6.857-4.784-12.411-11.116-16.507-18.816-3.9-7.335-6.304-15.76-6.95-24.367-.399-5.307 1.7-14.136 1.724-14.231l.082-.352c.33-1.402.707-2.768 1.155-4.137l.006-.021c.132-.423.282-.838.45-1.248 2.566-6.124 9.479-9.156 15.746-6.904a11.58 11.58 0 011.963.913 2.288 2.288 0 011.124 2.422l-3.31 17.369c-.4 2.099-2.205 3.588-4.289 3.542l-.07-.002a3.718 3.718 0 00-2.763 1.119 3.679 3.679 0 00-1.034 2.764 42.846 42.846 0 004.042 15.946 42.883 42.883 0 009.71 13.269 3.7 3.7 0 002.8.97 3.752 3.752 0 002.646-1.426l.037-.047c1.291-1.628 3.578-2.07 5.438-1.048L61.76 80.6c1.74.956 2.367 3.189 1.886 5.024-.85 3.2-3.653 5.944-6.588 7.29a12.432 12.432 0 01-9.434.399c-2.131-.766-3.33 2.551-1.195 3.319a15.933 15.933 0 0012.099-.512c3.896-1.786 7.408-5.374 8.529-9.591l.02-.08c.89-3.348-.515-7.236-3.617-8.94z"/></mask><path d="M63.46 77.507l-14.268-7.836c-3.373-1.853-7.54-1.034-9.903 1.95 0 0-.012.013-.012.015l-.04.05a.202.202 0 01-.145.082.151.151 0 01-.123-.044 39.392 39.392 0 01-8.916-12.183 39.357 39.357 0 01-3.71-14.64.135.135 0 01.04-.108.176.176 0 01.136-.052l.084.001c3.818.087 7.115-2.609 7.839-6.408l3.31-17.369a5.813 5.813 0 00-2.842-6.145 15.211 15.211 0 00-2.517-1.168c-8.042-2.89-16.917 1.01-20.204 8.88-.203.492-.379.997-.543 1.503l-.002.006c-.608 1.76-.858 2.825-1.237 4.434l-.08.341c-.092.384-2.25 9.453-1.811 15.313.682 9.09 3.224 17.997 7.353 25.758 4.36 8.198 10.284 14.945 17.603 20.053 1.857 1.296 3.88-1.594 2.02-2.893-6.857-4.784-12.411-11.116-16.507-18.816-3.9-7.335-6.304-15.76-6.95-24.367-.399-5.307 1.7-14.136 1.724-14.231l.082-.352c.33-1.402.707-2.768 1.155-4.137l.006-.021c.132-.423.282-.838.45-1.248 2.566-6.124 9.479-9.156 15.746-6.904a11.58 11.58 0 011.963.913 2.288 2.288 0 011.124 2.422l-3.31 17.369c-.4 2.099-2.205 3.588-4.289 3.542l-.07-.002a3.718 3.718 0 00-2.763 1.119 3.679 3.679 0 00-1.034 2.764 42.846 42.846 0 004.042 15.946 42.883 42.883 0 009.71 13.269 3.7 3.7 0 002.8.97 3.752 3.752 0 002.646-1.426l.037-.047c1.291-1.628 3.578-2.07 5.438-1.048L61.76 80.6c1.74.956 2.367 3.189 1.886 5.024-.85 3.2-3.653 5.944-6.588 7.29a12.432 12.432 0 01-9.434.399c-2.131-.766-3.33 2.551-1.195 3.319a15.933 15.933 0 0012.099-.512c3.896-1.786 7.408-5.374 8.529-9.591l.02-.08c.89-3.348-.515-7.236-3.617-8.94z" fill="#F0F0F1"/><path d="M49.192 69.671l-.24.438.24-.438zm-9.903 1.95l.332.374.033-.03.027-.034-.392-.31zm-.012.015l.392.31.074-.094.024-.116-.49-.1zm-.04.05l-.393-.309-.002.002.395.308zm-.145.082l.037.499.011-.001-.048-.498zm-.123-.044l.353-.354-.007-.007-.006-.006-.34.367zm-8.916-12.183l-.452.213.452-.213zm-3.71-14.64l.499-.028-.001-.007-.499.035zm.04-.108l-.357-.35-.003.003.36.347zm.136-.052l-.015.5h.004l.01-.5zm.084.001l.011-.5-.01.5zm7.839-6.408l-.492-.094.492.094zm3.31-17.369l.49.094-.49-.094zM34.91 14.82l-.252.431.005.004.247-.435zm-2.517-1.168l.17-.47-.17.47zm-20.204 8.88l-.461-.193v.002l.461.19zm-.543 1.503l.473.16.002-.005-.475-.155zm-.002.006l.473.163v-.003l-.473-.16zm-1.237 4.434l.487.115-.487-.115zm-.08.341l.486.117v-.002l-.487-.114zM8.515 44.13l-.5.038.5-.038zm7.353 25.758l-.442.235.442-.235zM33.472 89.94l-.286.41.286-.41zm2.02-2.893l.287-.41-.287.41zM18.985 68.231l-.442.234.442-.234zm-6.95-24.367l.498-.037-.498.037zm1.724-14.231l.486.119v-.005l-.486-.114zm.082-.352l-.486-.114.486.114zm1.155-4.137l.475.155.002-.007-.478-.148zm.006-.021l-.477-.15v.002l.477.148zm.45-1.248l-.461-.193-.002.004.463.19zm15.746-6.904l-.17.47.17-.47zm1.937.898l.267-.423-.007-.005-.007-.004-.253.432zm.026.015l-.25.433.004.003.246-.436zm1.124 2.422l-.491-.094.49.094zm-3.31 17.369l.491.093-.49-.093zm-4.289 3.542l-.016.5h.005l.011-.5zm-.07-.002l.017-.5h-.002l-.014.5zm-2.763 1.119l.359.348-.359-.348zm-1.034 2.764l.5-.027-.5.027zm4.042 15.946l.452-.213-.452.213zm9.71 13.269l.34-.367-.34.367zm2.8.97l.04.499-.04-.499zm2.646-1.426l-.39-.312-.003.003.393.309zm.037-.047l.392.312v-.001l-.392-.31zm5.438-1.048l-.24.439.24-.439zM61.76 80.6l.24-.439-.24.439zm1.886 5.024l.483.128v-.001l-.483-.127zm-6.588 7.29l.208.454-.208-.454zm-9.434.399l.17-.47-.17.47zM46.43 96.63l-.169.47.17-.47zm12.099-.512l.208.455-.208-.455zm8.529-9.591l.483.128-.483-.129zm.02-.08l-.483-.127.483.128zm-3.376-9.379l-14.268-7.836-.481.877 14.267 7.836.482-.877zm-14.268-7.836c-3.584-1.969-8.018-1.1-10.536 2.077l.784.62c2.21-2.788 6.107-3.558 9.27-1.82l.482-.877zm-10.475 2.013a.46.46 0 00-.025.024l-.01.01a.292.292 0 00-.007.008l-.008.008-.01.013-.015.018-.016.022a.516.516 0 00-.042.073.487.487 0 00-.038.113l.98.201c-.012.058-.032.1-.038.113a.48.48 0 01-.041.07l-.014.02-.005.006-.002.002-.002.003-.004.005-.007.007-.009.01-.024.023-.663-.749zm-.074.08l-.04.051.785.62.04-.052-.785-.619zm-.042.053a.298.298 0 01.202-.109l.096.995a.701.701 0 00.49-.27l-.788-.616zm.213-.11a.342.342 0 01.267.1l-.705.71a.65.65 0 00.512.188l-.074-.998zm.254.088a38.893 38.893 0 01-8.803-12.03l-.905.427A39.892 39.892 0 0038.63 72.09l.679-.734zm-8.803-12.03a38.858 38.858 0 01-3.665-14.453l-.998.055a39.86 39.86 0 003.758 14.825l.905-.426zM26.84 44.867a.363.363 0 01-.099.274l-.72-.694a.635.635 0 00-.178.49l.997-.07zm-.102.278a.33.33 0 01-.235.096l.029-1a.675.675 0 00-.507.202l.713.702zm-.23.096l.084.002.02-1-.084-.001-.02 1zm.083.002c4.066.093 7.572-2.78 8.34-6.814l-.982-.188c-.678 3.564-3.767 6.084-7.336 6.002l-.022 1zm8.34-6.814l3.31-17.37-.982-.186-3.31 17.368.983.188zm3.31-17.37a6.313 6.313 0 00-3.085-6.673l-.494.87a5.313 5.313 0 012.597 5.617l.983.187zm-3.08-6.67c-.8-.468-1.674-.873-2.599-1.207l-.34.941a14.7 14.7 0 012.434 1.13l.506-.864zm-2.6-1.207c-8.292-2.98-17.444 1.041-20.834 9.158l.923.385c3.184-7.623 11.78-11.402 19.573-8.602l.339-.94zm-20.835 9.16c-.21.509-.39 1.027-.557 1.54l.951.309c.163-.5.334-.992.53-1.467l-.924-.382zm-.555 1.534l-.002.006.948.32.002-.005-.948-.321zm0 .003c-.617 1.785-.873 2.87-1.252 4.482l.974.23c.377-1.606.623-2.65 1.223-4.386l-.946-.326zM9.92 28.36l-.081.341.973.23.08-.341-.972-.23zm-.08.34a84.566 84.566 0 00-1.113 5.639c-.497 3.055-.935 6.836-.711 9.828l.997-.075c-.215-2.868.206-6.552.701-9.593a83.631 83.631 0 011.098-5.566L9.84 28.7zM8.016 44.167c.688 9.156 3.248 18.13 7.41 25.955l.883-.47c-4.094-7.697-6.618-16.537-7.296-25.56l-.997.075zm7.41 25.955c4.398 8.265 10.374 15.073 17.76 20.228l.572-.82c-7.251-5.06-13.122-11.746-17.448-19.877l-.883.47zm17.76 20.228c.58.405 1.205.498 1.772.351a2.37 2.37 0 001.328-.948c.31-.445.49-1.004.434-1.573-.058-.582-.36-1.137-.941-1.543l-.573.82c.348.244.49.538.519.822.03.297-.064.623-.259.901a1.372 1.372 0 01-.758.553c-.277.072-.602.04-.95-.203l-.572.82zm2.593-3.713C28.989 81.9 23.486 75.63 19.425 67.996l-.883.47c4.132 7.767 9.738 14.16 16.663 18.992l.572-.82zM19.425 67.996c-3.866-7.27-6.252-15.628-6.893-24.17l-.997.075c.651 8.674 3.073 17.167 7.007 24.564l.883-.47zm-6.893-24.17c-.194-2.589.222-6.072.699-8.95a88.002 88.002 0 01.986-5.013 21.028 21.028 0 01.024-.103l.002-.009-.971-.237c-.014.057-.547 2.3-1.028 5.198-.478 2.887-.913 6.472-.709 9.19l.997-.075zm1.712-14.079l.083-.351-.973-.23-.083.352.973.23zm.083-.351c.328-1.39.7-2.742 1.143-4.097l-.95-.31a50.976 50.976 0 00-1.166 4.178l.973.229zm1.145-4.104l.007-.022-.956-.295-.006.022.955.295zm.006-.02c.128-.409.273-.81.435-1.207l-.925-.38c-.173.423-.328.852-.464 1.289l.954.297zm.434-1.203c2.463-5.879 9.098-8.79 15.116-6.628l.338-.94c-6.516-2.342-13.707.81-16.377 7.181l.923.387zm15.116-6.628c.67.241 1.294.531 1.853.86l.506-.864a12.084 12.084 0 00-2.021-.937l-.338.941zm1.839.85l.043.026.5-.866a.839.839 0 00-.01-.005c-.001-.001 0-.001 0 0l-.533.845zm.047.029a1.787 1.787 0 01.879 1.892l.982.188a2.787 2.787 0 00-1.37-2.952l-.491.872zm.879 1.892l-3.31 17.37.982.186 3.31-17.368-.982-.188zm-3.31 17.369c-.356 1.868-1.956 3.177-3.786 3.136l-.023 1c2.337.052 4.347-1.619 4.791-3.949l-.982-.187zm-3.781 3.136l-.07-.002-.033 1 .07.002.033-1zm-.072-.002a4.218 4.218 0 00-3.136 1.27l.717.697a3.218 3.218 0 012.39-.968l.029-1zm-3.136 1.27a4.179 4.179 0 00-1.175 3.141l.998-.056a3.178 3.178 0 01.894-2.388l-.717-.697zm-1.175 3.141a43.34 43.34 0 004.089 16.131l.904-.426a42.341 42.341 0 01-3.995-15.76l-.998.055zm4.089 16.131a43.382 43.382 0 009.823 13.423l.679-.735a42.381 42.381 0 01-9.598-13.114l-.904.426zM36.23 74.68a4.2 4.2 0 003.18 1.103l-.079-.997a3.2 3.2 0 01-2.42-.84l-.68.734zm3.18 1.103a4.252 4.252 0 003-1.616l-.787-.618a3.251 3.251 0 01-2.292 1.237l.08.997zm2.997-1.613l.038-.047-.782-.623-.038.046.782.624zm.038-.048c1.135-1.432 3.153-1.828 4.805-.92l.482-.877c-2.067-1.135-4.623-.65-6.07 1.176l.783.62zm4.805-.92l14.268 7.836.482-.877-14.268-7.836-.482.877zm14.268 7.836c1.489.818 2.083 2.783 1.643 4.46l.968.253c.523-1.995-.136-4.494-2.13-5.59l-.481.877zm1.644 4.458c-.802 3.02-3.477 5.663-6.313 6.963l.416.91c3.034-1.391 5.966-4.237 6.863-7.617l-.966-.256zm-6.313 6.963a11.932 11.932 0 01-9.057.383l-.338.941a12.932 12.932 0 009.811-.415l-.416-.909zm-9.057.383c-.667-.24-1.293-.165-1.802.124a2.37 2.37 0 00-1.034 1.262 2.365 2.365 0 00-.009 1.631c.208.547.645 1.003 1.312 1.243l.339-.94c-.4-.145-.614-.391-.716-.658-.106-.28-.1-.618.014-.937.115-.32.327-.584.588-.732.249-.141.571-.195.97-.052l.338-.94zm-1.533 4.26a16.433 16.433 0 009.843.422l-.259-.965a15.44 15.44 0 01-9.245-.398l-.339.941zm9.843.422c.895-.24 1.776-.557 2.633-.95l-.417-.908c-.806.369-1.634.667-2.475.892l.259.966zm2.633-.95c4.004-1.835 7.638-5.528 8.804-9.917l-.967-.257c-1.075 4.046-4.465 7.53-8.254 9.266l.417.909zm8.804-9.917l.02-.079-.966-.256-.02.078.966.257zm.02-.079c.942-3.544-.533-7.68-3.86-9.508l-.48.877c2.877 1.58 4.211 5.222 3.374 8.374l.967.257z" fill="#F0F0F1" mask="url(#a)"/><path d="M54.506 53.832h0a2.018 2.018 0 00-1.128-.083h0l-7.55 1.605.318-8.54c.021-.58-.192-1.186-.423-1.743-.065-.158-.132-.31-.197-.46-.172-.398-.333-.768-.426-1.117-2.176-8.12 2.669-16.5 10.801-18.68 8.132-2.178 16.518 2.656 18.694 10.777 2.176 8.12-2.67 16.5-10.801 18.68a15.176 15.176 0 01-9.288-.439zM44.13 59.844l-.052-.245.052.245 9.527-2.026a19.194 19.194 0 0011.18.354c10.287-2.757 16.416-13.355 13.664-23.628-2.753-10.273-13.36-16.387-23.646-13.63C44.57 23.668 38.44 34.267 41.194 44.54c.236.88.535 1.748.895 2.59l-.398 10.664s0 0 0 0c-.048 1.292 1.194 2.314 2.44 2.049z" fill="#F0F0F1" stroke="#F0F0F1" stroke-width=".5"/><path d="M55.862 41.502h0a2.068 2.068 0 00-2.532-1.538 2.071 2.071 0 00-1.45 2.512 2.072 2.072 0 002.512 1.45 2.07 2.07 0 001.47-2.424zM42.235 92.026h0a2.07 2.07 0 00-2.531-1.538A2.072 2.072 0 0038.252 93a2.072 2.072 0 002.513 1.45 2.07 2.07 0 001.47-2.424zM62.82 39.637a2.066 2.066 0 00-2.531-1.537 2.069 2.069 0 00-1.452 2.512 2.071 2.071 0 002.513 1.45h0a2.068 2.068 0 001.47-2.425zm0 0l-.244.054.244-.054s0 0 0 0zm6.46-1.73a2.066 2.066 0 00-2.532-1.538 2.071 2.071 0 00-1.45 2.512h0a2.073 2.073 0 002.512 1.45 2.07 2.07 0 001.47-2.425zm0 0l-.244.053.244-.054s0 0 0 0z" fill="#F0F0F1" stroke="#F0F0F1" stroke-width=".5"/></svg>