<svg width="824" height="457" fill="none" xmlns="http://www.w3.org/2000/svg"><path d="M717.091 215.492l-109.502 25.019 16.864 73.81 109.502-25.019-16.864-73.81z" fill="#F0F0F1"/><path d="M717.655 216.265c-.232.432-.5.844-.8 1.232l-2.463 3.374-9.126 12.315c-7.844 10.406-18.583 24.63-30.491 40.405l-.247.332-.381-.184-.899-.444-46.144-22.4-13.941-6.897-3.756-1.921a8.822 8.822 0 01-1.293-.726c.477.134.939.316 1.38.541l3.842 1.749 14.076 6.601 46.267 22.167.911.431-.628.16 30.787-40.221c3.904-5.036 7.093-9.15 9.384-12.081l2.586-3.263c.271-.421.584-.813.936-1.17z" fill="#F0F0F1"/><path d="M625.047 315.092c-.246-.123 5.678-12.117 13.227-26.797 7.549-14.679 13.891-26.464 14.137-26.329.246.135-5.677 12.13-13.226 26.797-7.549 14.667-13.928 26.465-14.138 26.329zm63.521-62.374c.172-.21 10.603 7.967 23.3 18.287 12.696 10.32 22.831 18.854 22.647 19.064-.185.209-10.603-7.956-23.3-18.276-12.697-10.32-22.832-18.854-22.647-19.075zM229.286 14.8l-10.042 43.497 64.532 14.899 10.042-43.498L229.286 14.8z" fill="#F0F0F1"/><path d="M293.925 30.286a5.91 5.91 0 01-.738.43l-2.156 1.159-8.004 4.174-26.563 13.547-.222.11-.16-.197-.37-.455-18.706-23.731-5.615-7.241-1.503-1.983a4.187 4.187 0 01-.492-.726c.214.197.408.416.578.652l1.601 1.91 5.764 7.13 18.854 23.644.369.468-.369-.074 26.649-13.436 8.079-3.99 2.216-1.059a3.23 3.23 0 01.788-.332z" fill="#000"/><path d="M219.346 58.869c-.099-.123 6.157-4.926 13.916-10.813 7.758-5.886 14.174-10.455 14.273-10.332.098.123-6.158 4.926-13.916 10.813-7.759 5.886-14.175 10.467-14.273 10.332zm49.802-16.736c.148 0 3.584 6.958 7.66 15.702 4.076 8.743 7.253 15.874 7.106 16.01-.148.135-3.572-6.959-7.648-15.702-4.076-8.744-7.303-15.936-7.118-16.01z" fill="#000"/><path d="M638.374 25.71l-47.148 20.257 13.655 31.783 47.149-20.257-13.656-31.783z" fill="#F0F0F1"/><path d="M638.667 25.976a3.32 3.32 0 01-.258.615c-.21.431-.481.998-.813 1.712-.751 1.527-1.81 3.695-3.091 6.268l-10.382 20.665-.086.172h-.184l-.444-.123-22.573-6.317-6.835-1.946-1.847-.554-.64-.222c.226.012.449.053.665.123l1.872.48 6.871 1.749 22.61 6.157.444.124-.259.11 10.492-20.59c1.343-2.599 2.463-4.704 3.227-6.158l.887-1.674a4.49 4.49 0 01.344-.591z" fill="#F0F0F1"/><path d="M605.171 78.019c-.123 0 1.552-5.912 3.695-13.128 2.143-7.217 4.064-13.042 4.187-12.992.123.049-1.552 5.91-3.694 13.127-2.143 7.217-4.015 13.03-4.188 12.993zm23.423-33.263c.062-.11 5.431 2.71 11.983 6.306 6.551 3.596 11.81 6.588 11.748 6.699-.062.11-5.419-2.71-11.97-6.293-6.552-3.584-11.822-6.564-11.761-6.712z" fill="#F0F0F1"/><path d="M700.784 347.16a38.964 38.964 0 00-16.625-5.739c-2.722-.283-5.702-.197-7.894 1.453a1.646 1.646 0 00-.602.61c-.142.254-.215.54-.211.831.136.409.411.757.776.985a23.88 23.88 0 0024.63 1.86m-.505-.468a81.273 81.273 0 01-10.776-9.483 27.095 27.095 0 01-6.749-12.487 5.038 5.038 0 01.53-4.187c8.62 6.712 15.332 15.381 16.995 26.157" fill="#8CBF43"/><path d="M700.698 347.098a38.775 38.775 0 01.197-14.15 19.179 19.179 0 017.537-11.674c1.478 3.473.85 7.475-.197 11.083a53.667 53.667 0 01-7.475 15.726m8.362 14.101c-5.123.628-9.569 3.313-13.387 6.774a25.292 25.292 0 00-7.647 13.139c5.012-.307 9.261-3.842 12.315-7.807 3.054-3.966 5.221-8.313 8.62-12.032m1.921 2.34a33.042 33.042 0 013.805-31.218c2.919 10.369 1.847 22.068-3.805 31.218zm11.12 13.251a23.837 23.837 0 00-22.807 13.103c-.283.567-.53 1.293-.16 1.798a1.725 1.725 0 001.514.443c4.495-.295 8.485-3.004 11.773-6.083 3.289-3.079 6.158-6.638 9.852-9.298m-.516-.689a42.395 42.395 0 01-.431-23.731c.838-3.054 2.241-6.28 5.061-7.709a.783.783 0 01.73-.111.792.792 0 01.502.542 14.165 14.165 0 011.231 6.81 42.186 42.186 0 01-1.059 6.897c-.899 4.211-1.367 8.743-3.694 12.314a25.37 25.37 0 00-1.466 2.722c-.443.924-.443 1.231-.837 1.983m29.407 4.679c-2.179-8.3.136-18.362 5.37-25.172.382-.505.886-1.034 1.514-.973.973.086 1.232 1.367 1.232 2.34a45.418 45.418 0 01-8.054 23.805m2.598 1.81a36.612 36.612 0 0030.036-6.157 24.293 24.293 0 00-16.268-1.995c-5.431 1.231-10.394 3.694-13.768 8.103m2.229-5.481c5.652-9.199 16.477-15.208 27.265-15.763-1.232 4.384-4.852 7.796-8.916 9.852a49.253 49.253 0 01-13.091 3.818c-1.736.345-4.125.714-5.258 2.081m-4.322-26.797a79.342 79.342 0 003.485-16.009 26.525 26.525 0 00-3.189-15.788c-5.271 10.209-5.801 22.167-.456 32.302m17.918-9.483c6.158-11.206 18.756-20.172 31.489-21.428-4.926 12.241-18.312 21.687-31.489 21.428zm-3.892 2.143c9.211 1.404 17.043 7.278 25.639 10.837a11.482 11.482 0 005.801 1.121 4.527 4.527 0 004.224-3.024 4.533 4.533 0 00-1.392-5.005 12.318 12.318 0 00-4.199-2.549c-9.372-3.904-19.409-4.003-29.273-1.638" fill="#8CBF43"/><path d="M760.277 350.657c2.082.604 2.796 1.675 4.446 3.079a47.893 47.893 0 0019.445 9.988c.739.184 1.712.258 2.081-.407.37-.665-.086-1.293-.505-1.822a26.79 26.79 0 00-11.736-7.968c-4.482-1.675-8.374-3.695-13.731-3.251m-6.01-38.583a36.798 36.798 0 0028.213 9.594c.45-.012.883-.172 1.232-.456.714-.776-.148-1.97-.973-2.611-8.288-6.465-18.337-9.15-28.521-6.527" fill="#8CBF43"/><path d="M761.398 309.083a39.289 39.289 0 0135.196-5.801 27.976 27.976 0 01-16.773 7.389 52.836 52.836 0 01-18.472-1.551m-2.783-17.919c-.813-8.276-.284-14.778-.863-23.127 0-.665-.184-1.466-.812-1.7-.862-.332-1.589.727-1.872 1.613a26.531 26.531 0 003.534 23.029" fill="#8CBF43"/><path d="M757.975 292.087a48.676 48.676 0 0013.706-13.324c2.709-3.695 4.926-8.14 4.372-12.697a13.16 13.16 0 00-9.852 4.926 27.55 27.55 0 00-5.037 10.148c-1.096 3.694-1.872 7.388-3.152 10.96m13.422-3.756a110.237 110.237 0 0033.743-19.888c-4.027-1.626-8.621-.653-12.672.972a39.979 39.979 0 00-21.243 18.83m-9.519 8.362a68.674 68.674 0 0018.731.086c6.084-1.01 11.822-3.423 17.5-5.812.512-.127.955-.45 1.231-.899a1.365 1.365 0 00-.419-1.491 3.552 3.552 0 00-1.49-.702c-6.157-1.724-12.832-.923-18.903 1.121a87.946 87.946 0 00-16.65 7.697m-35.553 15.356c-4.249-8.62-3.978-18.595-.308-27.437 2.586 3.94 2.906 8.952 2.463 13.644-.443 4.692-1.909 9.508-1.995 14.212m-17.142-8.99a38.29 38.29 0 00-15.489 3.063 38.292 38.292 0 00-12.934 9.055 26.624 26.624 0 0015.566-2.894 78.264 78.264 0 0013.337-8.928m-11.884-4.113c-5.197-.419-10.185-1.059-15.185.468a18.157 18.157 0 00-6.86 3.66 18.153 18.153 0 00-4.703 6.192 27.547 27.547 0 0014.223-2.697 81.717 81.717 0 0012.525-7.599m16.897.21c-4.668-3.066-9.471-6.157-14.901-7.45-5.431-1.293-11.737-.333-15.529 3.768 4.396 2.586 9.741 2.894 14.777 2.882 5.037-.013 11.367-.062 16.17 1.65" fill="#8CBF43"/><path d="M714.724 300.019c-7.98-7.845-11.009-21.921-7.795-32.647a49.771 49.771 0 017.795 32.647m21.958-22.216c1.502-3.498 2.561-7.168 3.903-10.739a30.934 30.934 0 015.591-9.852 14.67 14.67 0 019.852-5.123 39.874 39.874 0 01-19.199 25.861m-4.125 4.483c-2.463-3.436-5.37-8.079-8.744-10.64-3.374-2.562-7.783-4.113-11.908-3.128a27.706 27.706 0 0020.652 13.768m.801-4.347a58.444 58.444 0 01-3.941-12.746 19.872 19.872 0 011.995-12.967c4.384 8.275 5.788 17.167 2.167 25.861m2.993-25.861c2.463-8.215 9.999-14.261 18.115-17.032a6.731 6.731 0 013.177-.48 2.743 2.743 0 012.34 1.958c.296 1.391-.85 2.648-1.946 3.571a61.69 61.69 0 01-21.686 11.983m.086-6.737c.32-5.295.653-10.664 2.364-15.677 1.712-5.012 5.05-9.716 9.852-11.92.825 5.344-1.539 10.664-4.384 15.27-2.844 4.606-6.28 8.941-7.98 14.076m.025 1.945c-2.057-5.985-2.266-13.546-5.85-18.792-2.463-3.695-6.514-6.158-8.62-9.987a15.243 15.243 0 00.505 11.329 32.685 32.685 0 006.637 9.495c2.648 2.832 4.926 4.926 7.389 7.955" fill="#8CBF43"/><path d="M736.719 425.532c-.16 0-.296-39.925-.308-89.16-.012-49.235.111-89.159.271-89.159.16 0 .296 39.912.308 89.159.012 49.248-.111 89.16-.271 89.16z" fill="#000"/><path d="M771.595 305.979c-.483.23-.985.416-1.502.554l-4.138 1.392c-3.473 1.231-8.263 2.906-13.46 5.037-5.197 2.13-9.987 4.002-12.746 6.391a9.473 9.473 0 00-2.561 3.387c-.395.936-.468 1.515-.518 1.502-.049-.012 0-.148 0-.419a6.16 6.16 0 01.296-1.157 9.044 9.044 0 012.463-3.621 22.329 22.329 0 015.529-3.436 178.787 178.787 0 0120.825-8.103c1.761-.554 3.202-.948 4.199-1.231a7.43 7.43 0 011.613-.296z" fill="#000"/><path d="M783.035 277.865a2.476 2.476 0 01-.419.443l-1.231 1.231-4.864 4.274c-4.138 3.694-9.729 8.62-15.924 14.174-6.194 5.554-11.576 10.812-15.295 14.778a161.531 161.531 0 00-4.335 4.778l-1.157 1.318c-.125.164-.27.313-.431.443 0 0 .098-.185.345-.505.246-.32.591-.8 1.071-1.391.948-1.232 2.377-2.894 4.199-4.926a205.314 205.314 0 0115.222-14.938 2253.51 2253.51 0 0116.009-14.052l4.926-4.211 1.355-1.121a2.61 2.61 0 01.529-.295z" fill="#000"/><path d="M753.935 303.651c-.172-.073 1.133-3.066 2.463-6.859s1.921-6.983 2.082-6.958a23.687 23.687 0 01-1.54 7.143 46.347 46.347 0 01-1.933 4.803c-.269.67-.63 1.3-1.072 1.871zm-17.179 24.163a6.863 6.863 0 01-.961-1.109l-2.463-3.14a1167.576 1167.576 0 00-8.103-10.369c-3.177-4.027-6.157-7.635-8.251-10.246a93.365 93.365 0 01-2.463-3.103 7.584 7.584 0 01-.862-1.232 7.7 7.7 0 011.035 1.047c.64.69 1.539 1.712 2.647 2.98 2.205 2.549 5.197 6.158 8.399 10.148a259.403 259.403 0 017.968 10.48c.997 1.367 1.786 2.463 2.315 3.251.284.408.532.841.739 1.293z" fill="#000"/><path d="M729.109 317.999a14.065 14.065 0 01-3.214-5.998 17.397 17.397 0 01-.727-6.046h.259c-.111.468-.197.714-.246.702a1.676 1.676 0 010-.739h.246a28.07 28.07 0 001.022 5.874 43.456 43.456 0 002.66 6.207zm-9.877-12.426c-.694-.5-1.447-.914-2.241-1.232a14.939 14.939 0 00-6.157-.504 39.264 39.264 0 00-6.256 1.009c-.845.261-1.704.471-2.574.628a8.519 8.519 0 012.463-1.009 27.866 27.866 0 016.317-1.232 13.454 13.454 0 016.404.69c.849.302 1.57.884 2.044 1.65zm-2.34-3.005c0 .086-1.305-.53-3.436-1.232a34.488 34.488 0 00-17.241-1.318c-2.216.394-3.546.813-3.583.715.282-.174.589-.303.911-.382a20.336 20.336 0 012.586-.727 30.63 30.63 0 0117.5 1.33 21.66 21.66 0 012.463 1.109c.289.13.558.3.8.505zm19.79-12.733a68.956 68.956 0 01-2.463-8.621 69.734 69.734 0 01-1.946-8.829 71.19 71.19 0 012.463 8.682 72.133 72.133 0 011.946 8.768z" fill="#000"/><path d="M736.842 289.835a42.007 42.007 0 00-2.771-5.197 22.718 22.718 0 00-4.089-4.212 3.697 3.697 0 011.577.813 12.688 12.688 0 012.98 3.066 11.638 11.638 0 012.303 5.53zm-.123 114.417s-.185-.961-.628-2.66a37.723 37.723 0 00-2.673-6.946 95.389 95.389 0 00-14.149-19.938c-3.165-3.608-6.232-7.019-8.83-10.282a71.363 71.363 0 01-6.318-9.101 45.095 45.095 0 01-3.189-6.761c-.284-.825-.505-1.478-.616-1.933a3.303 3.303 0 01-.172-.69s.344.924 1.009 2.549a49.059 49.059 0 003.325 6.625 76.73 76.73 0 006.367 8.978c2.623 3.227 5.69 6.613 8.855 10.234 6.391 7.179 11.403 14.42 14.088 20.147a34.14 34.14 0 012.463 7.032c.157.661.277 1.332.357 2.007.062.242.099.489.111.739zm31.526-35.603c-.534.337-1.085.645-1.65.924a35.093 35.093 0 00-4.286 2.832 48.464 48.464 0 00-5.628 5.136c-1.983 2.081-4.014 4.507-6.096 7.105-4.15 5.21-8.029 9.852-10.356 13.547a50.998 50.998 0 00-2.599 4.445 14.723 14.723 0 01-.911 1.663s0-.172.148-.468c.147-.296.295-.739.554-1.293a42.39 42.39 0 012.463-4.569 146.37 146.37 0 0110.258-13.632c2.081-2.611 4.138-5.037 6.157-7.118a46.167 46.167 0 015.776-5.099 29.39 29.39 0 014.421-2.697c.554-.283.998-.443 1.232-.579.234-.135.505-.221.517-.197z" fill="#000"/><path d="M768.86 380.201a25.774 25.774 0 01-3.497.505 46.067 46.067 0 00-8.276 1.625 25.02 25.02 0 00-7.389 3.892c-1.712 1.33-2.525 2.463-2.598 2.352.118-.298.294-.57.517-.8a12.42 12.42 0 011.822-1.86 22.37 22.37 0 017.488-4.125 36.853 36.853 0 018.423-1.49 18.89 18.89 0 013.51-.099z" fill="#000"/><path d="M748.098 387.258c-.185-.099 1.391-2.463 2.611-5.739 1.219-3.276 1.416-6.157 1.613-6.096.105.62.105 1.252 0 1.872a20.958 20.958 0 01-1.022 4.421 22 22 0 01-2.032 4.052 5.64 5.64 0 01-1.17 1.49zm30.356-49.63a2.32 2.32 0 01-.567.296l-1.637.751c-.715.308-1.589.702-2.574 1.231-.985.53-2.082 1.023-3.313 1.786l-1.909 1.084c-.652.382-1.305.837-2.007 1.231-1.404.85-2.808 1.897-4.31 2.968a74.066 74.066 0 00-16.613 17.241c-1.022 1.539-2.02 2.98-2.82 4.421-.407.702-.838 1.367-1.232 2.044l-1.022 1.946c-.677 1.232-1.157 2.389-1.638 3.387-.48.997-.849 1.884-1.133 2.623l-.689 1.662a2.71 2.71 0 01-.271.567c.027-.209.086-.412.172-.604.148-.455.345-1.022.579-1.712.234-.689.591-1.637 1.047-2.66.455-1.022.911-2.204 1.576-3.448.308-.628.64-1.293.985-1.97s.776-1.367 1.17-2.081c.801-1.453 1.786-2.919 2.808-4.471a70.996 70.996 0 0116.687-17.376c1.527-1.071 2.955-2.118 4.384-2.955.702-.431 1.367-.875 2.032-1.232l1.933-1.059c1.232-.702 2.389-1.231 3.399-1.687 1.01-.456 1.884-.85 2.623-1.133l1.687-.64c.208-.097.428-.167.653-.21z" fill="#000"/><path d="M753.504 354.352a3.953 3.953 0 011.367-2.044 8.618 8.618 0 015.529-2.118c1.994-.013 3.97.373 5.813 1.133a8.01 8.01 0 012.204 1.071 13.375 13.375 0 01-2.327-.69 18.072 18.072 0 00-5.665-.948 9.037 9.037 0 00-5.283 1.86 14.694 14.694 0 00-1.638 1.736zm-3.732 3.842a14.776 14.776 0 001.232-10.431c.334.433.557.94.653 1.478.332 1.278.424 2.605.271 3.916a10.446 10.446 0 01-1.17 3.695c-.505.923-.924 1.379-.986 1.342z" fill="#000"/><path d="M709.146 409.966c.863 15.258 5.456 30.787 12.525 46.464h30.787c6.749-15.529 11.083-31.021 11.785-46.464h-55.097z" fill="#1C75BB"/><path d="M759.279 434.657c0 .16-10.135.296-22.622.296s-22.61-.136-22.61-.296c0-.16 10.123-.283 22.61-.283s22.622.123 22.622.283zm-.738 5.554c0 .16-9.495.283-21.206.283-11.712 0-21.157-.148-21.157-.283 0-.135 9.495-.283 21.194-.283s21.169.098 21.169.283z" fill="#fff"/><path d="M622.363 136.021H184.717c-9.909 0-17.943 8.034-17.943 17.943v277.257c0 9.91 8.034 17.943 17.943 17.943h437.646c9.91 0 17.943-8.033 17.943-17.943V153.964c0-9.909-8.033-17.943-17.943-17.943z" fill="#1C75BB"/><path d="M148.266 428.931h513.037v5.48a21.92 21.92 0 01-21.92 21.92H170.186a21.919 21.919 0 01-21.92-21.92v-5.48z" fill="#1C75BB"/><path d="M626.267 148.459H179.483v264.438h446.784V148.459zM356.866 426l6.355 10.123h89.59L458.723 426H356.866z" fill="#000"/><path d="M613.964 157.412H192.721a4.027 4.027 0 00-4.027 4.027v246.593a4.027 4.027 0 004.027 4.027h421.243a4.027 4.027 0 004.027-4.027V161.439a4.027 4.027 0 00-4.027-4.027z" fill="#F0F0F1"/><path d="M617.523 412.429H188.227l.468-235.99h428.828v235.99z" fill="#fff"/><path d="M223.903 167.252a3.44 3.44 0 01-2.121 3.174 3.441 3.441 0 01-3.744-.744 3.439 3.439 0 01-.745-3.745 3.436 3.436 0 016.61 1.315zm-20.787 0a3.436 3.436 0 11-3.424-3.436 3.418 3.418 0 012.425 1.007 3.418 3.418 0 01.999 2.429zm9.974 0a3.435 3.435 0 11-6.606-1.323 3.433 3.433 0 013.183-2.113 3.418 3.418 0 013.166 2.122c.172.417.259.863.257 1.314zM636.23 426c0 .172-105.095.308-234.709.308-129.615 0-234.747-.136-234.747-.308 0-.173 105.083-.308 234.747-.308 129.663 0 234.709.135 234.709.308z" fill="#000"/><path d="M326.153 268.628l174.662-1.625 5.111 118.728-180.857-1.293 1.084-115.81zm0 0l82.51-67.054a9.49 9.49 0 0111.995 0l80.145 65.416" fill="#8CBF43"/><path opacity=".3" d="M326.153 268.628l82.51-67.054a9.49 9.49 0 0111.995 0l80.145 65.416" fill="#000"/><path d="M325.07 384.437c-.21-.209 13.731-15.504 31.156-34.161 17.426-18.657 31.736-33.632 32.019-33.423.283.209-13.731 15.492-31.169 34.161-17.438 18.67-31.785 33.62-32.006 33.423zm180.856 1.293c-.222.197-13.867-14.778-30.48-33.336-16.613-18.559-29.9-33.866-29.679-34.076.222-.209 13.867 14.778 30.492 33.349 16.625 18.571 29.888 33.866 29.667 34.063z" fill="#000"/><path opacity=".5" d="M500.815 267.003l-87.559 70.244-87.103-68.619" fill="#000"/><path d="M334.97 275.106l-.394-54.555 152.939-2.131 1.834 57.4-76.105 60.503-78.274-61.217z" fill="#fff"/><path d="M334.971 275.093l1.453 1.096 4.162 3.215 15.837 12.314 56.981 44.42h-.32l76.069-60.564-.111.258c-.357-10.948-.726-22.425-1.096-34.124-.259-7.857-.505-15.64-.751-23.263l.32.308-152.926 2.007.197-.209c.074 17.154.148 30.787.185 40.122v10.763c0-2.463-.074-6.034-.123-10.689-.087-9.372-.222-23.017-.382-40.196v-.21h.197l152.926-2.241h.32v.308c.246 7.623.493 15.406.751 23.275.37 11.687.739 23.177 1.084 34.125v.16l-.123.098-76.155 60.466-.16.123-.16-.123-56.92-44.666-15.775-12.389-4.101-3.251c-.924-.739-1.379-1.133-1.379-1.133z" fill="#000"/><path d="M463.402 245.945c0 .172-23.398.505-52.227.739-28.829.234-52.252.283-52.252.11 0-.172 23.398-.517 52.24-.751 28.841-.234 52.239-.283 52.239-.098zm.025 15.405c0 .172-23.398.505-52.227.739-28.829.234-52.24.283-52.24.111 0-.173 23.398-.518 52.24-.752 28.841-.234 52.227-.283 52.227-.098zm.038 17.758c0 .172-23.399.505-52.228.751s-52.19.259-52.19.099 23.398-.505 52.24-.752c28.841-.246 52.178-.32 52.178-.098zm.036 17.759c0 .172-22.302.504-49.826.726-27.524.222-49.838.259-49.838.086 0-.172 22.302-.505 49.838-.726 27.536-.222 49.826-.259 49.826-.086zm-19.482 15.627c-.2.056-.408.081-.616.074l-1.761.074-6.453.16-21.317.382c-8.325.16-15.874.209-21.329.209h-8.214a2.442 2.442 0 01-.616 0c.2-.056.408-.081.616-.074l1.748-.074 6.466-.16 21.317-.394c8.325-.148 15.861-.197 21.317-.197h8.226c.205-.026.411-.026.616 0zm-19.704 15.024a94.465 94.465 0 01-11.083.344c-3.697.11-7.398.011-11.084-.295a97.63 97.63 0 0111.084-.345 98.538 98.538 0 0111.083.296zm399.002 127.767c0 .172-184.156.32-411.317.32-227.16 0-411.316-.148-411.316-.32 0-.173 184.119-.296 411.316-.296 227.197 0 411.317.123 411.317.296zM444.93 217.94c.173 0 .246.726.16 1.564-.086.837-.283 1.527-.468 1.502-.184-.025-.246-.714-.16-1.564.086-.85.283-1.515.468-1.502zm1.638-11.995a14.305 14.305 0 01-.912 5.985 14.321 14.321 0 01.912-5.985zm2.377-11.859a7.392 7.392 0 01-.332 3.03 7.563 7.563 0 01-.973 2.881c.018-2.04.463-4.053 1.305-5.911zm3.325-11.65a7.69 7.69 0 01-.566 2.993 7.491 7.491 0 01-1.232 2.795 7.601 7.601 0 01.579-2.992 7.135 7.135 0 011.219-2.796zm4.224-11.341a7.632 7.632 0 01-.825 2.931 7.38 7.38 0 01-1.416 2.684 7.667 7.667 0 01.825-2.931 7.295 7.295 0 011.416-2.684zm5.246-10.899a14.579 14.579 0 01-2.759 5.381 7.505 7.505 0 011.096-2.844c.764-1.49 1.503-2.623 1.663-2.537zm6.33-10.32a7.399 7.399 0 01-1.416 2.685c-.887 1.416-1.737 2.463-1.884 2.389a7.144 7.144 0 011.342-2.734c.936-1.404 1.81-2.438 1.958-2.34zm7.462-9.532a7.8 7.8 0 01-1.687 2.537c-1.071 1.231-2.044 2.229-2.192 2.118-.148-.111.616-1.231 1.7-2.537 1.083-1.305 2.044-2.241 2.179-2.118zm8.523-8.584c.123.136-.764 1.232-1.971 2.316-1.207 1.083-2.29 1.97-2.463 1.847-.172-.123.752-1.158 1.971-2.315 1.219-1.158 2.352-1.983 2.463-1.848zm9.532-7.462c.099.148-.911 1.059-2.253 2.044a7.624 7.624 0 01-2.624 1.539c-.11-.147.899-1.059 2.254-2.056a7.392 7.392 0 012.623-1.527zm10.442-6.133a14.665 14.665 0 01-5.332 2.894c-.086-.16 1.034-.936 2.463-1.724a7.4 7.4 0 012.869-1.17zm11.207-4.557a7.382 7.382 0 01-2.734 1.343 7.55 7.55 0 01-2.955.726 7.31 7.31 0 012.734-1.33 7.505 7.505 0 012.955-.739zm11.773-2.734a7.616 7.616 0 01-2.919.813 7.392 7.392 0 01-3.017.308 7.4 7.4 0 012.894-.936 6.893 6.893 0 013.042-.185zm12.081-.701a7.143 7.143 0 01-3.018.357 7.499 7.499 0 01-3.029-.284 14.434 14.434 0 016.047-.073zm12.069 1.441a7.611 7.611 0 01-3.042-.16 7.808 7.808 0 01-2.943-.801 7.453 7.453 0 013.042.173 7.373 7.373 0 012.943.788zm11.538 3.484a7.178 7.178 0 01-2.968-.69 7.64 7.64 0 01-2.758-1.231 7.277 7.277 0 012.968.69c.992.221 1.93.64 2.758 1.231zm10.776 5.469a7.397 7.397 0 01-2.784-1.232c-1.453-.825-2.549-1.613-2.463-1.773a7.2 7.2 0 012.784 1.231c1.453.838 2.561 1.626 2.463 1.774zm9.482 7.499a7.728 7.728 0 01-2.463-1.761c-1.231-1.096-2.167-2.093-2.056-2.229.111-.135 1.231.641 2.463 1.749 1.231 1.108 2.179 2.118 2.056 2.241zm5.985 6.897c-.148.098-.677-.357-1.232-1.022-.554-.665-.825-1.306-.689-1.417.135-.11.665.345 1.231 1.023.567.677.838 1.256.69 1.416zm56.945 74.197a7.818 7.818 0 01-2.919-1.01c-1.552-.714-2.746-1.429-2.66-1.589a7.764 7.764 0 012.931 1.01c1.515.714 2.746 1.416 2.648 1.589zm11.625 4.039a7.398 7.398 0 01-3.03-.591 7.735 7.735 0 01-2.857-1.232 7.894 7.894 0 013.042.591 7.64 7.64 0 012.845 1.232zm12.154 1.933a14.773 14.773 0 01-6.157-.665 7.734 7.734 0 013.091 0 7.994 7.994 0 013.066.665zm12.291-.381c-.963.4-2 .589-3.042.554a7.634 7.634 0 01-3.103-.086 8.05 8.05 0 013.054-.554 7.905 7.905 0 013.091.086zm12.056-2.266a7.563 7.563 0 01-2.919 1.046 7.387 7.387 0 01-3.091.296 8.272 8.272 0 012.956-.924 8.076 8.076 0 013.054-.418zm11.465-4.532c.086.16-1.109.862-2.66 1.576a7.72 7.72 0 01-2.931.997 7.903 7.903 0 012.66-1.576 7.79 7.79 0 012.931-.997zm10.209-6.859c.11.135-.85 1.145-2.217 2.179a6.784 6.784 0 01-2.697 1.527c-.099-.148.961-1.022 2.315-2.044a8.726 8.726 0 012.599-1.662zm8.374-8.991a6.759 6.759 0 01-1.638 2.636c-1.096 1.33-2.155 2.229-2.278 2.118-.123-.111.714-1.231 1.786-2.463 1.071-1.231 1.982-2.401 2.13-2.291zm5.763-10.837a6.51 6.51 0 01-.85 2.981 6.601 6.601 0 01-1.65 2.635 8.96 8.96 0 011.059-2.894 9.151 9.151 0 011.441-2.722zm2.278-11.982a6.506 6.506 0 01.136 3.103 6.379 6.379 0 01-.764 3.017 9.582 9.582 0 01.123-3.078 9.369 9.369 0 01.505-3.042zm-1.772-12.204a6.71 6.71 0 011.108 2.906c.332.995.421 2.055.259 3.091a9.141 9.141 0 01-.887-2.955 9.282 9.282 0 01-.48-3.042zm-5.357-11.047c.135-.098 1.071.961 1.933 2.463a6.487 6.487 0 011.158 2.882 9.505 9.505 0 01-1.712-2.549 9.341 9.341 0 01-1.379-2.796zm-8.548-8.768c.099-.147 1.33.542 2.623 1.663 1.293 1.121 2.155 2.241 2.032 2.364-.123.124-1.231-.775-2.463-1.871-1.231-1.096-2.29-2.02-2.192-2.156zm-11.168-5.012a6.155 6.155 0 013.079.505 6.161 6.161 0 012.77 1.416 10.06 10.06 0 01-2.967-.812c-1.01-.226-1.981-.6-2.882-1.109zm-12.204.197a6.166 6.166 0 012.98-.887 6.231 6.231 0 013.116.087c-2 .471-4.043.739-6.096.8zm-10.616 5.948c-.135-.111.714-1.231 2.106-2.303a5.807 5.807 0 012.783-1.416c.086.16-1.071.911-2.463 1.934-1.391 1.022-2.291 1.884-2.426 1.785zm-4.877 11.047a5.615 5.615 0 01.185-3.116 5.427 5.427 0 011.293-2.832 13.402 13.402 0 01-.677 2.992 11.842 11.842 0 01-.801 2.956zm2.402 11.945a6.071 6.071 0 01-1.49-2.733 5.829 5.829 0 01-.517-3.079c.509.898.886 1.864 1.121 2.869.436.933.735 1.925.886 2.943zm8.054 9.125a6.152 6.152 0 01-2.624-1.675c-1.305-1.145-2.105-2.302-1.97-2.462.136-.161 1.133.825 2.389 1.933 1.256 1.108 2.303 2.081 2.205 2.204zm11.181 5.038a6.407 6.407 0 01-3.054-.567 6.538 6.538 0 01-2.771-1.416 9.234 9.234 0 012.968.813 9.583 9.583 0 012.857 1.17zm12.217 1.12a11.368 11.368 0 01-6.157-.135 9.314 9.314 0 013.079-.148 8.95 8.95 0 013.078.283zm12.069-2.192a6.772 6.772 0 01-2.882 1.17 6.67 6.67 0 01-3.078.344 21.204 21.204 0 015.96-1.514z" fill="#000"/><path d="M734.65 169.371a7.708 7.708 0 01-2.574 1.724 7.48 7.48 0 01-2.869 1.145 8.03 8.03 0 012.574-1.724 7.38 7.38 0 012.869-1.145zm9.852-7.341c.123.135-.85 1.121-2.167 2.204-1.318 1.084-2.463 1.848-2.586 1.7-.124-.148.874-1.121 2.179-2.205a7.704 7.704 0 012.574-1.699zm8.411-9.002c.135.111-.653 1.232-1.761 2.549-1.109 1.318-2.119 2.254-2.242 2.131-.123-.123.653-1.232 1.749-2.549 1.096-1.318 2.106-2.242 2.254-2.131zm6.761-10.27a7.64 7.64 0 01-1.306 2.795c-.886 1.466-1.711 2.574-1.859 2.463a7.52 7.52 0 011.305-2.795 7.852 7.852 0 011.86-2.463zm5-11.257a7.92 7.92 0 01-.825 2.981c-.616 1.601-1.232 2.82-1.453 2.746a8.808 8.808 0 01.849-2.98 7.486 7.486 0 011.429-2.747zm3.435-11.809a7.458 7.458 0 01-.455 3.054 7.704 7.704 0 01-1.084 2.906 7.714 7.714 0 01.456-3.066 7.698 7.698 0 011.083-2.894zm2.155-12.13a7.378 7.378 0 01-.148 3.091 7.85 7.85 0 01-.776 3.005 7.5 7.5 0 01.148-3.103 7.943 7.943 0 01.776-2.993zm1.134-12.252a7.457 7.457 0 01.098 3.09 7.291 7.291 0 01-.554 3.042 7.848 7.848 0 01-.086-3.091 7.756 7.756 0 01.542-3.042zm.394-12.304c.302.996.39 2.045.258 3.078a7.385 7.385 0 01-.381 3.08 8.066 8.066 0 01-.259-3.092 7.819 7.819 0 01.382-3.066zm-.086-12.315c.33.987.456 2.03.369 3.067a7.484 7.484 0 01-.283 3.09 7.634 7.634 0 01-.357-3.078 7.758 7.758 0 01.271-3.079zm-.186-7.574c.173 0 .333.308.345.69.012.382-.123.714-.308.727-.185.012-.332-.308-.332-.702 0-.394.123-.715.295-.715z" fill="#000"/><path d="M798.503 26.552l-83.704 9.093 6.13 56.428 83.704-9.093-6.13-56.428z" fill="#8CBF43"/><path d="M720.895 92.132l-6.158-56.464 83.741-9.088 6.158 56.451-83.741 9.1zm-6.059-56.427l6.157 56.353 83.643-9.076-6.158-56.365-83.642 9.088z" fill="#000"/><path d="M798.848 27.232a4.977 4.977 0 01-.702.837l-2.106 2.29c-1.909 2.033-4.581 4.927-7.869 8.35l-26.219 27.425-.209.222-.271-.16-.64-.406-32.339-20.702-9.852-6.342-2.636-1.749a6.476 6.476 0 01-.899-.665c.347.141.677.319.986.53l2.709 1.638 9.852 6.157 32.597 20.48.641.406-.481.062 26.379-27.265 8.041-8.214 2.205-2.205c.251-.252.523-.483.813-.69z" fill="#000"/><path d="M721.264 92.747c-.173-.123 5.283-8.534 12.179-18.805 6.897-10.27 12.648-18.472 12.82-18.373.172.098-5.271 8.534-12.18 18.804-6.908 10.27-12.647 18.559-12.819 18.374zm52.794-40.897c.16-.148 7.216 6.847 15.763 15.628 8.546 8.78 15.357 16.009 15.209 16.181-.148.173-7.204-6.86-15.763-15.64-8.559-8.78-15.406-16.021-15.209-16.169zm-357.81 145.758c.173 0 .431.628.579 1.478.148.849.111 1.539-.061 1.564-.173.024-.431-.628-.579-1.466-.148-.837-.111-1.502.061-1.576zm-1.969-11.97c.464.921.736 1.927.8 2.956.266.995.325 2.035.173 3.054a7.403 7.403 0 01-.801-2.956 7.528 7.528 0 01-.172-3.054zm-1.762-12.044a7.39 7.39 0 01.739 2.968 7.61 7.61 0 01.111 3.054 7.39 7.39 0 01-.739-2.968 7.574 7.574 0 01-.111-3.054zm-1.379-12.105c.409.945.626 1.962.641 2.992a7.34 7.34 0 010 3.067 7.52 7.52 0 01-.628-2.993 7.701 7.701 0 01-.013-3.066zm-.85-12.143a7.39 7.39 0 01.493 3.018 7.377 7.377 0 01-.148 3.066 7.672 7.672 0 01-.492-3.029 7.53 7.53 0 01.147-3.055zm-.122-12.179c.302.988.402 2.026.295 3.054a7.738 7.738 0 01-.332 3.042 7.267 7.267 0 01-.308-3.054 7.383 7.383 0 01.345-3.042zm.763-12.142a7.796 7.796 0 01.061 3.066 7.638 7.638 0 01-.566 3.005 7.391 7.391 0 01-.074-3.067 7.374 7.374 0 01.579-3.004zm1.823-12.032a7.197 7.197 0 01-.209 3.054 7.395 7.395 0 01-.85 2.943 7.572 7.572 0 01.222-3.054 7.58 7.58 0 01.837-2.943zm3.115-11.773a7.777 7.777 0 01-.567 3.017 7.554 7.554 0 01-1.17 2.82 7.386 7.386 0 01.555-3.005 7.451 7.451 0 011.182-2.832zm4.545-11.28a7.588 7.588 0 01-.936 2.918 7.393 7.393 0 01-1.515 2.647 7.605 7.605 0 01.936-2.906 7.394 7.394 0 011.515-2.66zm5.935-10.629a7.622 7.622 0 01-1.231 2.784c-.862 1.428-1.687 2.463-1.847 2.463a7.602 7.602 0 011.305-2.771c.8-1.478 1.625-2.562 1.773-2.476zm7.303-9.777a7.534 7.534 0 01-1.651 2.573c-1.059 1.306-2.019 2.266-2.167 2.168a7.574 7.574 0 011.663-2.574c1.059-1.268 2.031-2.241 2.155-2.167zm8.657-8.51c.111.135-.801 1.17-2.032 2.29-1.232 1.12-2.34 1.946-2.463 1.823-.123-.123.788-1.158 2.032-2.29 1.244-1.134 2.352-1.934 2.463-1.823zm9.951-6.994c.086.16-.985 1.01-2.402 1.908a7.49 7.49 0 01-2.734 1.367c-.098-.148.973-.997 2.39-1.908a7.55 7.55 0 012.746-1.367zm11.084-4.989a7.4 7.4 0 01-2.722 1.404 7.45 7.45 0 01-2.943.813 7.482 7.482 0 012.721-1.429 7.39 7.39 0 012.944-.788zm8.891-2.191c0 .172-.616.443-1.441.603-.825.16-1.54.148-1.577 0-.037-.147.616-.443 1.454-.603.837-.16 1.539-.172 1.564 0z" fill="#000"/><path d="M406.727.608l-22.255 57.557 85.387 33.017 22.256-57.557L406.727.608z" fill="#8CBF43"/><path d="M469.881 91.232L384.44 58.18 406.718.57l85.416 33.03-22.253 57.633zm-85.367-33.077l85.367 32.991 22.167-57.498L406.743.644l-22.229 57.51z" fill="#000"/><path d="M492.121 34.424a6.34 6.34 0 01-1.084.468l-3.189 1.157-11.81 4.138-38.965 13.399-.32.11-.123-.295-.419-.714-20.935-36.181-6.342-11.01-1.663-3.005a6.83 6.83 0 01-.542-1.083c.255.312.482.645.678.997l1.81 2.931 6.478 10.874c5.468 9.298 12.93 22.007 21.169 36.058l.419.714-.493-.184 39.1-13.165 11.847-3.891 3.239-1.01a7.876 7.876 0 011.145-.308z" fill="#000"/><path d="M384.477 58.968c-.111-.21 9.359-5.616 21.156-12.081 11.798-6.466 21.441-11.54 21.552-11.342.11.197-9.36 5.603-21.157 12.068-11.798 6.465-21.441 11.551-21.551 11.355zm71.376-13.165c.222-.073 3.535 10.222 7.389 22.968 3.855 12.745 6.835 23.152 6.613 23.213-.221.062-3.534-10.221-7.388-22.967-3.855-12.746-6.835-23.152-6.614-23.214zm-75.465 165.352c.172 0 .259.714.197 1.564-.061.85-.271 1.527-.443 1.515-.173-.013-.271-.727-.197-1.564.074-.838.271-1.515.443-1.515zm.307-12.549c.32 1.01.428 2.074.321 3.128a8.217 8.217 0 01-.333 3.14 15.785 15.785 0 010-6.268h.012zm-.848-12.5c.61 2.022.806 4.145.579 6.244a7.902 7.902 0 01-.604-3.091 8.12 8.12 0 01.025-3.153zm-2.082-12.352a15.528 15.528 0 011.232 6.158 8.002 8.002 0 01-.911-3.005 7.687 7.687 0 01-.321-3.153zm-3.411-12.056a7.803 7.803 0 011.232 2.894c.415.978.629 2.029.628 3.091a15.365 15.365 0 01-1.872-5.985h.012zm-4.791-11.564a7.498 7.498 0 011.577 2.722 7.98 7.98 0 01.997 2.992 8.069 8.069 0 01-1.576-2.734 7.837 7.837 0 01-.998-2.98zm-6.218-10.873c.148-.099 1.034 1.01 1.97 2.463a8.095 8.095 0 011.33 2.857c-.16.086-.997-1.035-1.884-2.463a8.057 8.057 0 01-1.416-2.857zm-7.673-9.901c.135-.111 1.145.874 2.253 2.204a8.268 8.268 0 011.761 2.611c-.147.111-1.145-.874-2.253-2.192a7.84 7.84 0 01-1.761-2.623zm-8.941-8.708c.111-.135 1.232.702 2.537 1.86 1.305 1.157 2.229 2.204 2.106 2.34a8.264 8.264 0 01-2.537-1.86c-1.33-1.157-2.278-2.204-2.106-2.34zm-10.208-7.327a8.243 8.243 0 012.783 1.478c1.441.961 2.537 1.86 2.463 1.995a7.72 7.72 0 01-2.783-1.465c-1.466-.948-2.562-1.847-2.463-2.008zm-11.158-5.615a7.666 7.666 0 012.98 1.01 8.053 8.053 0 012.71 1.613 8.37 8.37 0 01-2.98-1.022c-1-.351-1.92-.895-2.71-1.601zm-11.884-3.842a7.833 7.833 0 013.116.505 8.247 8.247 0 012.943 1.12 7.755 7.755 0 01-3.115-.505 7.982 7.982 0 01-2.944-1.12zm-12.475-1.589a12.41 12.41 0 016.244.504 20.492 20.492 0 01-6.244-.504zm-12.486.862a8.087 8.087 0 013.078-.69 7.895 7.895 0 013.153 0 8.336 8.336 0 01-3.079.69 8.193 8.193 0 01-3.152 0zm-12.094 3.214a7.891 7.891 0 012.894-1.231 8.132 8.132 0 013.078-.653 7.794 7.794 0 01-2.894 1.231 7.898 7.898 0 01-3.078.653zm-11.28 5.431a15.527 15.527 0 015.517-2.98 8.237 8.237 0 01-2.611 1.773 8.08 8.08 0 01-2.906 1.207zm-10 7.524c-.123-.135.862-1.145 2.192-2.254 1.33-1.108 2.463-1.908 2.623-1.761.16.148-.886 1.146-2.204 2.254a8.202 8.202 0 01-2.611 1.761zm-8.165 9.446a7.06 7.06 0 011.589-2.722c1.071-1.379 2.118-2.352 2.241-2.229.124.123-.677 1.232-1.736 2.623-1.059 1.392-1.97 2.426-2.094 2.328zm-4.593 8.14c-.16-.074 0-.763.382-1.527.381-.763.8-1.33.96-1.231.16.098 0 .763-.382 1.527-.381.763-.8 1.293-.96 1.231zm-78.249 72.67c0-.173.652-.407 1.49-.505.837-.099 1.539 0 1.564.135.024.136-.628.394-1.49.505-.862.111-1.552.037-1.564-.135zm-12.192-1.38a9.76 9.76 0 013.054.456c1.029.113 2.034.383 2.981.801a6.331 6.331 0 01-3.116-.173 6.436 6.436 0 01-2.919-1.084zm-11.022-5.455a9.108 9.108 0 012.746 1.404 9.446 9.446 0 012.549 1.749 6.503 6.503 0 01-2.869-1.232c-1.478-.886-2.537-1.773-2.426-1.921zm-9.175-8.226c.136-.111 1.146.825 2.34 2.031 1.195 1.207 2.118 2.217 2.008 2.353-.111.135-1.232-.678-2.463-1.909-1.232-1.232-2.02-2.365-1.885-2.475zm-7.24-9.975c.16-.086 1.034.985 1.958 2.463a7.908 7.908 0 011.428 2.758c-.147.111-1.022-.972-1.958-2.401a7.697 7.697 0 01-1.428-2.82zm-5.321-11.12a7.595 7.595 0 011.503 2.709c.509.933.823 1.959.923 3.017a14.907 14.907 0 01-2.463-5.677l.037-.049zm-3.534-11.823a7.706 7.706 0 011.096 2.907c.364.979.524 2.023.468 3.066a7.851 7.851 0 01-1.096-2.906 7.667 7.667 0 01-.468-3.067zm-2.143-12.155c.453.941.717 1.962.776 3.005a7.77 7.77 0 01.148 3.104 7.627 7.627 0 01-.776-3.005 7.49 7.49 0 01-.148-3.104zm-1.183-12.29c.392.97.585 2.009.567 3.054a7.819 7.819 0 01-.074 3.104 7.812 7.812 0 01-.566-3.054 7.551 7.551 0 01.073-3.104zm-.516-9.236c.185 0 .357.665.394 1.514.037.85-.074 1.552-.246 1.552-.173 0-.357-.665-.394-1.515-.037-.849.074-1.551.246-1.551z" fill="#000"/><path d="M158.181 53.242l-102.395 4.83 3.255 69.021 102.395-4.829-3.255-69.022z" fill="#1C75BB"/><path d="M59.006 127.118l-3.251-69.087 102.435-4.827 3.251 69.049-102.435 4.865zm-3.19-68.964l3.252 68.964 102.336-4.828-3.251-68.963-102.337 4.827z" fill="#000"/><path d="M158.548 54.054c-.272.35-.577.671-.912.96l-2.734 2.636-10.135 9.569-33.94 31.366-.283.258-.258-.221-.739-.542-37.893-27.56-11.404-8.45-3.066-2.327a6.753 6.753 0 01-1.035-.862c.4.207.784.446 1.146.714l3.177 2.192 11.637 8.19 37.93 27.35.752.543h-.592l34.088-31.17 10.332-9.322 2.857-2.463a6.32 6.32 0 011.072-.862z" fill="#000"/><path d="M59.4 127.894c-.197-.148 7.057-9.975 16.207-21.933S92.343 84.422 92.54 84.582c.197.16-7.044 9.975-16.194 21.896-9.15 11.921-16.736 21.576-16.946 21.416zm67.142-45.774c.197-.173 8.251 8.866 17.98 20.171 9.728 11.305 17.474 20.615 17.24 20.787-.234.173-8.238-8.866-17.979-20.184-9.741-11.317-17.487-20.615-17.241-20.775zm59.406 259.893c.057.234.086.474.086.714 0 .542.074 1.232.135 2.057.087 1.884.222 4.445.382 7.586.308 6.477.739 15.27 1.232 24.999.492 9.729.837 18.62 1.022 25.024.098 3.202.16 5.788.185 7.586v2.069c.032.237.032.477 0 .714a3.02 3.02 0 01-.087-.714c0-.542-.074-1.232-.135-2.057-.086-1.884-.222-4.446-.382-7.586-.308-6.478-.739-15.283-1.231-24.999-.493-9.717-.825-18.62-1.022-25.024-.099-3.202-.161-5.8-.185-7.586v-2.069a2.667 2.667 0 010-.714z" fill="#000"/></svg>