<svg width="189" height="192" fill="none" xmlns="http://www.w3.org/2000/svg"><g clip-path="url(#clip0)"><path d="M175.542 181.972c0 .06-38.666.112-86.333.112s-86.358-.052-86.358-.112c0-.06 38.657-.111 86.358-.111 47.701 0 86.333.047 86.333.111z" fill="#000"/><path d="M91.756 14.201l20.562-.857a6.656 6.656 0 014.841 1.8 6.69 6.69 0 012.108 4.725l.727 31.837a6.698 6.698 0 01-1.667 4.57 6.668 6.668 0 01-4.317 2.228 2.214 2.214 0 00-1.983 2.296l2.565 67.256a8.361 8.361 0 01-2.192 5.971 8.319 8.319 0 01-5.754 2.687l-78.532 3.466a2.216 2.216 0 01-2.11-1.295 2.23 2.23 0 01-.203-.847L22.327 21.303a2.217 2.217 0 01.57-1.554 2.208 2.208 0 011.486-.724L91.756 14.2z" fill="#2B3A8C"/><path opacity=".3" d="M25.737 135.819l.065 2.206 84.567-7.797-1.616-116.747S88.239 16.6 87.85 16.6c-.389 0-62.113 119.219-62.113 119.219z" fill="#000"/><path d="M81.05 7.938l24.541-1.5 2.534 121.006-86.38 8.781L9.027 15.855 81.05 7.937z" fill="#EBEBEB"/><path d="M81.05 7.938s-.427.056-1.282.15l-3.735.428-14.335 1.594-52.663 5.826.073-.094c3.419 32.253 7.855 74.148 12.749 120.375l-.12-.098 19.36-1.971 67.032-6.811-.094.107c-1.102-52.905-1.991-96.3-2.495-121.018l.055.047-18.266 1.092-4.702.275-1.585.085s.534-.043 1.585-.111l4.702-.3 18.262-1.14h.055v.052c.526 24.705 1.458 68.113 2.565 121.005v.098h-.099l-66.993 6.837-19.36 1.967h-.112v-.112C16.771 89.999 12.352 48.103 8.954 15.846v-.086h.081l52.654-5.744L76.037 8.46l3.74-.399 1.273-.124z" fill="#000"/><path d="M4.735 11.832L16.43 133.617l90.461-8.542L93.846 3.385l-89.11 8.447z" fill="#fff"/><path d="M4.735 11.832l89.102-8.538h.09v.086c3.667 34.163 8.185 76.252 13.066 121.69v.112h-.112l-.641.06-89.803 8.473h-.098v-.103C9.462 61.516 4.821 12.719 4.735 11.832c.086.887 4.809 49.692 11.792 121.776l-.107-.094 89.82-8.491.641-.06-.102.124c-4.864-45.45-9.368-87.53-13.023-121.694l.099.081-89.12 8.358z" fill="#000"/><path d="M74.114 104.195a13.389 13.389 0 012.264-7.42 13.342 13.342 0 015.996-4.91A13.306 13.306 0 0196.9 94.797a13.382 13.382 0 012.855 14.574 13.356 13.356 0 01-4.927 5.986 13.312 13.312 0 01-7.414 2.234A13.335 13.335 0 0178 113.65a13.397 13.397 0 01-3.886-9.455zm26.421.065a13.15 13.15 0 00-2.188-7.296 13.098 13.098 0 00-5.863-4.848 13.062 13.062 0 00-14.274 2.808 13.15 13.15 0 00-2.872 14.294 13.115 13.115 0 004.808 5.9 13.07 13.07 0 007.268 2.229c3.47.004 6.8-1.371 9.26-3.824a13.154 13.154 0 003.861-9.263z" fill="#E0E0E0"/><path d="M75.648 104.2a11.674 11.674 0 011.974-6.472 11.634 11.634 0 015.228-4.281 11.604 11.604 0 0112.668 2.555 11.68 11.68 0 012.493 12.708 11.654 11.654 0 01-4.294 5.222 11.615 11.615 0 01-6.466 1.95 11.635 11.635 0 01-8.21-3.437 11.688 11.688 0 01-3.393-8.245zm21.544.051a9.953 9.953 0 00-1.657-5.526 9.92 9.92 0 00-4.44-3.672 9.894 9.894 0 00-10.813 2.128 9.96 9.96 0 00-2.175 10.827 9.935 9.935 0 003.643 4.469 9.895 9.895 0 005.506 1.687 9.912 9.912 0 007.002-2.903 9.958 9.958 0 002.917-7.01h.017z" fill="#E0E0E0"/><path d="M78.494 104.371a8.54 8.54 0 01.924-3.856l1.53.776a6.918 6.918 0 001.488 8.176 6.882 6.882 0 008.252.82l.893 1.469a8.586 8.586 0 01-8.702.155 8.609 8.609 0 01-3.214-3.171 8.637 8.637 0 01-1.17-4.365v-.004zm4.633-7.634a8.59 8.59 0 0110.296 1.814 8.638 8.638 0 01.957 10.434l-1.453-.917a6.922 6.922 0 00-.77-8.35 6.88 6.88 0 00-8.238-1.457l-.792-1.524z" fill="#E0E0E0"/><path d="M91.7 34.699c0 .064-17.06 1.714-38.123 3.723-21.061 2.009-38.144 3.56-38.148 3.508-.005-.051 17.061-1.713 38.127-3.718 21.066-2.005 38.14-3.56 38.145-3.513zm-41.384-.942c0 .06-7.872.856-17.595 1.777-9.723.921-17.609 1.615-17.617 1.555-.009-.06 7.872-.856 17.596-1.777 9.723-.921 17.608-1.62 17.616-1.555zm41.718 5.919c0 .06-17.066 1.714-38.123 3.719-21.058 2.005-38.145 3.56-38.149 3.5-.004-.06 17.062-1.714 38.127-3.723 21.066-2.009 38.14-3.56 38.145-3.495zm.333 4.961c0 .06-17.065 1.714-38.123 3.718-21.057 2.005-38.144 3.56-38.148 3.5-.005-.06 17.06-1.713 38.127-3.722 21.066-2.01 38.14-3.556 38.144-3.496zm.333 4.961c0 .06-17.065 1.714-38.122 3.723-21.058 2.009-38.145 3.555-38.15 3.495-.003-.06 17.062-1.713 38.128-3.718s38.14-3.56 38.145-3.5zm.334 4.961c0 .064-17.066 1.713-38.127 3.722-21.062 2.01-38.14 3.56-38.15 3.496-.008-.064 17.062-1.714 38.128-3.718 21.066-2.005 38.14-3.56 38.15-3.5zm.329 4.986c0 .06-17.061 1.714-38.123 3.718-21.062 2.005-38.144 3.539-38.144 3.479 0-.06 17.061-1.714 38.127-3.723 21.066-2.009 38.136-3.56 38.14-3.474zm.333 4.939c0 .06-16.839 1.714-37.61 3.676-20.77 1.962-37.644 3.508-37.648 3.427-.005-.081 16.839-1.714 37.631-3.671 20.793-1.958 37.623-3.492 37.627-3.432zM64.31 74.029c0 .06-10.168 1.028-22.717 2.163-12.548 1.135-22.732 2-22.737 1.94-.004-.06 10.164-1.032 22.716-2.141 12.553-1.11 22.729-2.022 22.737-1.962zm-12.352 41.013c0 .06-6.185.638-13.826 1.285-7.642.647-13.835 1.127-13.843 1.067-.009-.06 6.184-.639 13.826-1.285 7.641-.647 13.838-1.127 13.843-1.067zm-11.89 4.738c0 .06-3.466.407-7.753.771-4.287.364-7.77.613-7.779.553-.008-.06 3.47-.407 7.758-.776 4.286-.368 7.77-.608 7.774-.548z" fill="#000"/><path d="M39.115 84.858c0 .06-4.078.514-9.125 1.011-5.048.497-9.142.857-9.146.793-.005-.065 4.077-.514 9.124-1.016 5.048-.5 9.142-.852 9.147-.788z" fill="#2B3A8C"/><path opacity=".3" d="M14.565 113.011l8.305-1.61 4.641-7.017-13.232 4.356.286 4.271z" fill="#000"/><path d="M0 104.041l22.173-2.103 5.338 2.446-4.261 4.806-22.523 2.433L0 104.041z" fill="#2B3A8C"/><path d="M67.233 84.31a.41.41 0 01.077.025.956.956 0 01.213.099c.267.166.508.37.714.608.776.92 1.386 1.97 1.8 3.102a13.12 13.12 0 01.931 5.594 8.686 8.686 0 01-.303 1.714 11.36 11.36 0 01-.684 1.714 11.472 11.472 0 01-2.368 3.204 11.792 11.792 0 01-3.663 2.403 10.035 10.035 0 01-4.68.737 10.237 10.237 0 01-4.879-1.858 10.28 10.28 0 01-3.335-4.024 8.537 8.537 0 01-.744-2.72 6.439 6.439 0 01.3-2.87 4.605 4.605 0 011.709-2.4 3.29 3.29 0 011.419-.535 3.46 3.46 0 011.521.18 4.486 4.486 0 012.347 1.95c.522.91.839 1.922.927 2.968a12.954 12.954 0 01-.91 6.237 12.314 12.314 0 01-3.774 5.034 11.311 11.311 0 01-5.659 2.279c-1.986.239-4-.089-5.808-.947a9.942 9.942 0 01-4.128-3.855 9.7 9.7 0 01-1.398-5.192c.005-.88.175-1.753.5-2.57a5.056 5.056 0 011.458-2.057 3.023 3.023 0 012.32-.685 3.469 3.469 0 012.043 1.14 4.382 4.382 0 011.026 2.008 5.667 5.667 0 010 2.164 11.152 11.152 0 01-1.522 3.684 17.508 17.508 0 01-2.137 2.844c-.7.76-1.46 1.462-2.273 2.099a19.614 19.614 0 01-2.163 1.444 16.5 16.5 0 01-3.282 1.452c-.782.249-1.205.334-1.205.334l.303-.098c.197-.064.504-.137.889-.279a17.207 17.207 0 003.252-1.486 20.725 20.725 0 002.137-1.448 19.7 19.7 0 002.244-2.099 17.735 17.735 0 002.107-2.836 11.157 11.157 0 001.487-3.641 5.506 5.506 0 000-2.1 4.172 4.172 0 00-.991-1.927 3.268 3.268 0 00-1.94-1.08 2.832 2.832 0 00-2.176.656 4.864 4.864 0 00-1.402 1.983 6.836 6.836 0 00-.478 2.49 9.487 9.487 0 001.41 5.101 9.742 9.742 0 004.047 3.761 10.363 10.363 0 005.672.913 11.098 11.098 0 005.556-2.236 12.091 12.091 0 003.688-4.957 12.825 12.825 0 00.898-6.126 7.033 7.033 0 00-.898-2.878 4.276 4.276 0 00-2.226-1.86 3.186 3.186 0 00-1.428-.166 3.06 3.06 0 00-1.325.496 4.386 4.386 0 00-1.628 2.288 6.163 6.163 0 00-.29 2.78c.088.92.332 1.818.721 2.656a10.09 10.09 0 003.265 3.95 10.056 10.056 0 004.779 1.833 9.794 9.794 0 004.599-.711 11.737 11.737 0 003.633-2.352 11.37 11.37 0 002.35-3.157c.27-.542.498-1.105.68-1.683.16-.548.26-1.11.303-1.68a13.021 13.021 0 00-.885-5.547c-.4-1.13-.993-2.18-1.752-3.106a3.313 3.313 0 00-.688-.617 2.33 2.33 0 00-.303-.141z" fill="#000"/><path d="M74.062 24.384s0-.073-.03-.21-.042-.347-.072-.609c-.06-.544-.146-1.332-.261-2.356l-.957-8.837.072.06-46.158 4.879.099-.124c.427 4.125.854 8.139 1.248 12.016l-.116-.073 32.94-3.427 9.7-.985 2.616-.257.68-.065h.24l-.223.03-.667.077-2.59.283-9.672 1.045-32.998 3.492h-.111v-.107c-.428-3.856-.825-7.895-1.257-12.02v-.108h.111l46.158-4.79h.069v.07c.38 3.808.684 6.815.889 8.884.098 1.02.175 1.803.226 2.343.026.257.043.454.056.596.013.141.008.193.008.193z" fill="#8CBF43"/><path d="M125.759 45.066c.052-.258.194-.488.402-.647a2.714 2.714 0 011.71-.429c.353-.71.589-1.474.696-2.262a1.42 1.42 0 01-.799-.227.681.681 0 01-.133-.042c-.572-.262-.628-1.114-.269-1.633a3.273 3.273 0 011.56-1.002 5.57 5.57 0 00-1.205.428c-.427.129-.992 0-1.039-.428a.877.877 0 01.064-.386c.082-.252.159-.505.24-.762a.857.857 0 01.333-.531 2.17 2.17 0 01.428-.103c.478-.129.73-.715 1.209-.857a2.19 2.19 0 011.073.163c.359.081.829 0 .94-.338a3.418 3.418 0 01-1.222-1.033 1.184 1.184 0 01.115-1.482c.358-.23.79-.32 1.21-.248.47.021 1.055.128 1.179.582a1.218 1.218 0 011.334.5c.094.142.158.301.188.468l1.209-.12c-.337-.368-.816-.587-1.111-.99-.295-.402-.235-1.13.248-1.233.182-.002.363-.018.543-.047.119-.047.222-.159.35-.163a.474.474 0 01.265.103l2.564 1.67-.692-1.61c-.214-.497-.376-1.178.064-1.487.44-.308 1.056.133 1.146.647a.822.822 0 01.97.767.851.851 0 01.957.285.86.86 0 01.034 1c.432.01.852.136 1.218.364a.739.739 0 01.848-.672.733.733 0 01.362.171 1.285 1.285 0 01.188-.732.421.421 0 01.312-.193.423.423 0 01.346.12.859.859 0 01.899-1.064.852.852 0 01.49.207l.428-.514a1.133 1.133 0 011.089.566c.176.398-.119.968-.551.929.304 0 .235.48.056.724-.244.347-.492.69-.74 1.032a.953.953 0 011.176-.102.72.72 0 01.53-.227.736.736 0 01.529.227.593.593 0 01.893-.11.591.591 0 01.172.29c.077-.197.35-.21.56-.189.309-.001.61.102.854.291.214.215.214.66-.072.763.26-.146.594.141.598.428-.014.148-.06.292-.134.42-.073.13-.173.242-.293.33a2.548 2.548 0 00-.607.647c.253-.163.557-.229.855-.184a3.23 3.23 0 011.547.312c.089-.21.38-.223.607-.175a3.594 3.594 0 011.807 1.045c.236.24.449.6.287.895a.917.917 0 01-.338.3l-1.658 1.02c.896.282 1.681.84 2.244 1.593.329.193.743.21 1.043.45.299.24.273.857-.107.857a.696.696 0 01.201.81.668.668 0 01-.257.286.894.894 0 01-.179.202 1.218 1.218 0 01-.428.231.857.857 0 01-.735.339c.312.262.577.576.782.93a1.47 1.47 0 010 1.507c0 .026-.043.043-.06.064a.707.707 0 01-.316.458.581.581 0 01.06.399 1.6 1.6 0 011.023 1.3 1.61 1.61 0 01-.664 1.514c-.376.27-1.077.219-1.111-.244a1.256 1.256 0 01-.949.694 1.22 1.22 0 01.048.972 1.209 1.209 0 01-.681.695 1.29 1.29 0 01-.401 2.112.991.991 0 01-.987 1.357.986.986 0 01-.877-.71 2.088 2.088 0 01-.739.925.722.722 0 01-1.022-.266 1.337 1.337 0 01-.841.795 1.343 1.343 0 01-1.146-.152.877.877 0 01-1.744.154l-2.261-.021a7.943 7.943 0 01-1.495-.108 4.045 4.045 0 01-1.71-.796 1.41 1.41 0 00-.521-.322 1.395 1.395 0 00-.693.107 3.654 3.654 0 01-3.474-.822 1.81 1.81 0 00-.462-.368 1.655 1.655 0 00-.667-.09 6.634 6.634 0 01-1.641-.24 1.731 1.731 0 01-1.162-.763c-.214-.428.038-1.08.517-1.075a1.038 1.038 0 00-.252-.857.621.621 0 00-.855-.034.422.422 0 00-.112.423.426.426 0 00.317.3c-.513.357-1.308-.14-1.321-.762a1.216 1.216 0 011.227-1.144 2.803 2.803 0 01-.034-1.37 1.01 1.01 0 01-1.372.154 1.744 1.744 0 01-1.12.81 1.044 1.044 0 01-1.15-.63.756.756 0 01.116-.661.756.756 0 01.598-.303.898.898 0 01.791-1.285 1.389 1.389 0 01.855-1.478.738.738 0 01-.877-.135.732.732 0 01-.166-.268c-.287.454-.988.343-1.449.069a.971.971 0 01-.603-1.075z" fill="#000"/><path d="M125.759 45.066a.674.674 0 00-.025.184.797.797 0 00.171.523 1.752 1.752 0 001.337.616.729.729 0 00.599-.317h-.052a.768.768 0 00.443.469.762.762 0 00.643-.04l-.03-.056a1.44 1.44 0 00-.876 1.517l.043-.048a.853.853 0 00-.778.429.881.881 0 00-.056.938l.043-.064a.741.741 0 00-.757.57.82.82 0 00.381.938 1.194 1.194 0 001.09.102 1.96 1.96 0 00.884-.753h-.081a1.064 1.064 0 001.449-.163l-.098-.047c-.106.46-.094.94.034 1.396l.055-.073a1.333 1.333 0 00-1.153.675 1.17 1.17 0 00-.129.452.976.976 0 00.449.857.855.855 0 00.966.051l.145-.103h-.171a.354.354 0 01-.26-.291.372.372 0 01.008-.137.388.388 0 01.428-.313.608.608 0 01.517.313c.106.2.147.427.115.651l.068-.06a.591.591 0 00-.448.21.851.851 0 00-.141.921c.071.15.174.284.303.39.253.2.544.345.855.428.311.09.628.155.949.197.641.133 1.38-.128 1.799.467a3.778 3.778 0 002.881 1.007c.354-.043.703-.12 1.042-.231a.636.636 0 01.462.055c.15.093.293.196.427.309.297.222.622.405.966.544a5.818 5.818 0 002.206.317h2.269l-.085-.073a.963.963 0 001.037.841.963.963 0 00.877-1.008l-.136.073a1.433 1.433 0 001.782-.158c.156-.149.277-.33.354-.532h-.166a.656.656 0 00.483.403.97.97 0 00.637-.073 2.15 2.15 0 00.803-.977h-.167a1.08 1.08 0 001.372.664 1.08 1.08 0 00.663-1.375l-.06.12a1.284 1.284 0 00.82-.981 1.28 1.28 0 00-.384-1.285l-.026.158a1.277 1.277 0 00.744-.746 1.293 1.293 0 00-.064-1.053l-.069.137a1.344 1.344 0 001.022-.74l-.18-.035c.009.118.06.23.146.313a.65.65 0 00.299.154c.21.047.429.03.628-.052a1.612 1.612 0 00.812-.942 1.652 1.652 0 00-.068-1.285 1.711 1.711 0 00-.936-.857l.06.111a.695.695 0 00-.069-.467l-.034.129a.82.82 0 00.359-.518v.043a1.433 1.433 0 00.184-1.431 3.148 3.148 0 00-.915-1.204l-.073.167a.962.962 0 00.821-.377l-.047.034c.273-.074.51-.242.671-.475l-.026.03a.716.716 0 00.351-.596.78.78 0 00-.291-.655l-.06.171a.378.378 0 00.308-.154.586.586 0 00.098-.308.71.71 0 00-.243-.575 7.002 7.002 0 00-1.052-.458l.03.026a4.577 4.577 0 00-2.29-1.628l.021.176.752-.467.569-.352a4.85 4.85 0 00.572-.38.59.59 0 00.184-.348.729.729 0 00-.06-.377 1.71 1.71 0 00-.427-.561 3.713 3.713 0 00-1.795-.917.94.94 0 00-.363 0 .423.423 0 00-.33.24l.137-.047a2.781 2.781 0 00-1.244-.308h-.628c-.23-.001-.454.07-.641.205l.15.12c.183-.364.628-.557.893-.964a.726.726 0 00.09-.724.655.655 0 00-.274-.274.426.426 0 00-.406 0l.081.172a.419.419 0 00.257-.279.632.632 0 000-.355.615.615 0 00-.175-.313.952.952 0 00-.291-.18 2.495 2.495 0 00-.62-.124 1.1 1.1 0 00-.333 0 .396.396 0 00-.299.235h.188a.644.644 0 00-.56-.518.626.626 0 00-.688.308h.158a.831.831 0 00-.931-.192.827.827 0 00-.274.192h.128a1.04 1.04 0 00-1.282.112l.141.124.628-.857c.124-.147.213-.32.261-.505a.662.662 0 000-.313.307.307 0 00-.103-.159.273.273 0 00-.184-.055v.188a.64.64 0 00.607-.377.787.787 0 00.026-.702 1.222 1.222 0 00-1.163-.6h-.042l-.069-.004-.427.51h.132a.95.95 0 00-1.48.357.96.96 0 00-.058.576l.162-.077a.423.423 0 00-.427-.145.613.613 0 00-.376.231c-.14.232-.208.5-.197.771l.154-.06a.82.82 0 00-1.329.553l.137-.077a2.492 2.492 0 00-1.283-.377l.073.141a.933.933 0 00-1.064-1.422l.12.081a.93.93 0 00-.362-.692.92.92 0 00-.763-.165l.112.069a1.013 1.013 0 00-.347-.578.882.882 0 00-.632-.232.668.668 0 00-.539.403c-.08.209-.098.437-.051.655.096.4.24.787.427 1.153l.471 1.1.124-.102-1.582-1.032-.773-.506a2.152 2.152 0 00-.428-.24.37.37 0 00-.273.047c-.073.039-.133.086-.188.107-.139.038-.284.05-.428.035a.594.594 0 00-.427.218 1 1 0 00-.094.925c.133.277.336.513.59.686.229.164.446.344.649.54l.047-.129-1.209.124.081.065a1.287 1.287 0 00-1.067-1.048 1.279 1.279 0 00-.527.028l.09.047a.86.86 0 00-.616-.54 3.072 3.072 0 00-.778-.098 2.26 2.26 0 00-.773.086.953.953 0 00-.582.514 1.435 1.435 0 00.253 1.43 4.09 4.09 0 001.111.857l-.056-.077a.508.508 0 01-.427.308c-.192.03-.388.014-.573-.047a3.647 3.647 0 00-.585-.145.874.874 0 00-.603.115c-.346.21-.551.557-.855.711-.149.082-.333.06-.525.137a.693.693 0 00-.359.429l-.317.998a.637.637 0 00.039.531.728.728 0 00.427.287c.166.037.338.037.504 0 .156-.039.306-.095.449-.167a2.39 2.39 0 01.855-.295l-.021-.09a5.561 5.561 0 00-.992.475 1.854 1.854 0 00-.697.745 1.366 1.366 0 00-.064.934.821.821 0 00.599.6c.244.158.53.239.82.232l-.034-.04a7.21 7.21 0 01-.684 2.254h.022a4.296 4.296 0 00-1.133.137 1.649 1.649 0 00-.688.403 1.124 1.124 0 00-.244.403.55.55 0 00-.034.15c.047-.202.149-.386.295-.532a1.55 1.55 0 01.68-.385 4.115 4.115 0 011.124-.124c.361-.71.601-1.477.709-2.267v-.038h-.038a1.393 1.393 0 01-.782-.223.77.77 0 01-.548-.552 1.29 1.29 0 01.069-.857 1.76 1.76 0 01.671-.703 5.55 5.55 0 01.974-.467l.282-.111-.299.021a2.443 2.443 0 00-.876.296 2.27 2.27 0 01-.427.163 1.035 1.035 0 01-.458 0 .632.632 0 01-.371-.24.522.522 0 01-.026-.429c.107-.32.209-.65.32-.99a.602.602 0 01.295-.377c.182-.03.36-.077.535-.136.359-.176.568-.527.884-.711a1.302 1.302 0 011.09.047c.203.066.418.084.628.051a.624.624 0 00.522-.394v-.047l-.043-.03c-.407-.23-.77-.53-1.073-.887a1.295 1.295 0 01-.231-1.285.817.817 0 01.501-.428 2 2 0 01.726-.077c.249 0 .498.032.739.094a.687.687 0 01.518.428l.021.073h.073a1.148 1.148 0 011.228.475c.088.13.148.275.178.429v.069h.094l1.209-.125h.154l-.107-.115a5.869 5.869 0 00-.666-.557 1.536 1.536 0 01-.535-.617.86.86 0 01.064-.771.428.428 0 01.334-.159c.158.014.317 0 .47-.043.162-.081.261-.184.363-.145.131.058.254.131.368.218l.773.506 1.577 1.032.231.154-.107-.257c-.158-.36-.312-.728-.47-1.096a5.352 5.352 0 01-.406-1.118 1 1 0 01.039-.553.496.496 0 01.401-.304.826.826 0 01.791.668v.099l.09-.03a.753.753 0 01.902.685v.133l.119-.052a.781.781 0 01.855.236.772.772 0 010 .917l-.102.141h.175c.415.008.82.13 1.171.351l.145.09v-.167a.645.645 0 011.03-.428l.145.146v-.206a1.285 1.285 0 01.163-.673c.115-.162.427-.23.521-.081l.257.343-.094-.429a.768.768 0 01.807-.926c.159.012.31.074.432.177l.073.06.055-.069c.141-.171.282-.338.428-.514l-.069.034a1.05 1.05 0 01.992.497c.167.317-.09.857-.449.81v.188c.06 0 .081 0 .103.082a.474.474 0 010 .218 1.062 1.062 0 01-.231.429l-.628.856.141.125a.85.85 0 011.051-.095l.073.052.055-.065a.643.643 0 01.919 0l.098.12.06-.14a.51.51 0 01.488-.197.502.502 0 01.397.346l.043.484.141-.458c.038-.125.252-.15.427-.129.194.013.385.05.569.112a.53.53 0 01.35.35c.047.168 0 .365-.145.43l.081.175c.132-.081.333.034.427.197a.524.524 0 01-.077.527c-.213.351-.662.54-.901.98l-.231.43.376-.3c.282-.228.735-.155 1.137-.146.402.004.798.101 1.158.282l.098.06.039-.102c.051-.138.286-.159.478-.12a3.453 3.453 0 011.697.87c.16.133.29.3.381.488a.429.429 0 01-.077.51c-.173.13-.355.248-.543.355l-.569.355-.752.467-.184.112.206.064c.878.274 1.646.82 2.196 1.56.353.119.697.262 1.03.428a.504.504 0 01.167.428c0 .159-.085.287-.209.279h-.308l.248.188a.615.615 0 01.218.497.532.532 0 01-.265.428 1.013 1.013 0 01-.569.399h-.03v.025a.76.76 0 01-.649.3l-.291-.025.218.192c.373.3.667.687.855 1.127a1.237 1.237 0 01-.145 1.238v.026a.632.632 0 01-.27.394l-.077.047.039.081a.504.504 0 01.051.339v.077l.077.03c.367.144.665.423.833.78a1.496 1.496 0 01-.641 1.949.852.852 0 01-.517.043.346.346 0 01-.299-.296l-.021-.373-.158.339a1.158 1.158 0 01-.855.638h-.141l.068.12a1.134 1.134 0 01.042.893 1.133 1.133 0 01-.623.64l-.163.052.137.111a1.199 1.199 0 01-.376 1.95l-.09.03.03.09a.934.934 0 01-.585 1.152.94.94 0 01-1.103-.566l-.068-.201-.099.188a1.963 1.963 0 01-.722.9c-.312.163-.773.069-.855-.227l-.085-.257-.081.257a1.278 1.278 0 01-.789.73 1.28 1.28 0 01-1.066-.126l-.145-.107v.18a.818.818 0 01-.753.81.828.828 0 01-.816-.673v-.069h-2.346a5.584 5.584 0 01-2.137-.304 4.093 4.093 0 01-.928-.518 4.133 4.133 0 00-.427-.326.812.812 0 00-.573-.064 5.28 5.28 0 01-1.021.227c-.339.03-.68.01-1.013-.06a3.545 3.545 0 01-1.753-.895 1.793 1.793 0 00-.401-.33 1.148 1.148 0 00-.509-.12 7.964 7.964 0 01-.97-.056 6.775 6.775 0 01-.932-.192 2.168 2.168 0 01-.816-.395.798.798 0 01-.321-.75.575.575 0 01.509-.539h-.056v-.064a1.195 1.195 0 00-.136-.737.743.743 0 00-.629-.381.527.527 0 00-.564.428.49.49 0 00.368.574l-.03-.116a.736.736 0 01-.825-.051.854.854 0 01-.393-.728 1.189 1.189 0 011.162-1.02h.077v-.073a2.833 2.833 0 01-.034-1.345l.056-.24-.158.193a.95.95 0 01-1.283.15l-.047-.039-.03.052a1.813 1.813 0 01-.833.715 1.082 1.082 0 01-1-.085.74.74 0 01-.346-.831.668.668 0 01.658-.51h.09l-.047-.077a.863.863 0 01.039-.826.855.855 0 01.717-.408h.047v-.051a1.377 1.377 0 01.825-1.444l-.03-.056a.704.704 0 01-.996-.385v-.06l-.034.051a.692.692 0 01-.551.3 1.625 1.625 0 01-.573-.09 1.841 1.841 0 01-.744-.497.828.828 0 01-.179-.505c-.039-.09-.021-.15-.026-.15z" fill="#8CBF43"/><path d="M146.466 46.93a7.227 7.227 0 00-4.261-6.988 7.187 7.187 0 00-2.808-.625 7.408 7.408 0 00-5.098 1.912 7.445 7.445 0 00-2.424 4.886c-.295 3.363-.517 6.756-.427 7.977.282 3.68 2.564 4.973 3.483 5.346a4.92 4.92 0 001 .176.031.031 0 01.022.03l-.56 4.283c-.197 2.798-.808 12.3 2.025 12.522 2.834.223 7.266-9.184 7.51-11.995l1.538-17.525z" fill="#FFBE9D"/><path d="M132.986 48.78a.584.584 0 00.522.634.572.572 0 00.658-.48.596.596 0 00-.526-.634.568.568 0 00-.654.48zm-.183-1.722c.068.081.542-.21 1.183-.159.642.051 1.082.403 1.159.33.077-.073-.026-.176-.218-.338a1.71 1.71 0 00-.919-.36 1.62 1.62 0 00-.953.223c-.21.132-.287.265-.252.304zm6.154 2.206a.597.597 0 00.526.638.57.57 0 00.581-.268.592.592 0 00.077-.212.597.597 0 00-.526-.638.567.567 0 00-.581.268.574.574 0 00-.077.212zm.12-1.598c.068.082.547-.21 1.184-.158.636.051 1.081.402 1.158.33.077-.073-.026-.176-.218-.339a1.638 1.638 0 00-.919-.36 1.582 1.582 0 00-.949.223c-.209.133-.291.265-.256.304zm-2.706 4.485a4.461 4.461 0 00-1.025-.265c-.159-.03-.312-.073-.329-.184a.796.796 0 01.145-.467l.585-1.187c.817-1.714 1.419-3.084 1.351-3.119-.068-.034-.786 1.316-1.603 2.999l-.564 1.195a.924.924 0 00-.137.626.405.405 0 00.248.257c.09.03.183.05.278.06a3.95 3.95 0 001.051.085z" fill="#000"/><path d="M135.961 59.618s2.449.39 5.689-1.195c-.193.098-1.129 3.714-5.843 2.347l.154-1.152zm.556-5.929a1.17 1.17 0 011.064-.339 1.042 1.042 0 01.697.429.651.651 0 010 .754.789.789 0 01-.855.141 2.373 2.373 0 01-.778-.544.685.685 0 01-.167-.201.196.196 0 01.022-.231" fill="#EB996E"/><path d="M138.218 52.734c-.107 0-.163.668-.8 1.11-.636.44-1.363.303-1.376.398-.013.094.154.145.462.18.406.038.812-.066 1.149-.296.322-.218.546-.553.624-.934.052-.283-.012-.458-.059-.458zm.88-7.107c.051.176.692.146 1.436.291.744.146 1.334.399 1.445.253.051-.068-.039-.24-.27-.428a2.48 2.48 0 00-1.051-.459 2.557 2.557 0 00-1.145.043c-.287.082-.436.219-.415.3zm-5.966-.219c.098.155.551.04 1.081.073.53.035.97.172 1.086.03.051-.068 0-.218-.193-.368a1.583 1.583 0 00-1.748-.081c-.196.128-.273.27-.226.346z" fill="#000"/><path d="M130.896 41.673c.015-.206.045-.41.09-.613.111-.297.299-.56.543-.762.774-.767 1.594-1.555 2.564-1.808.599-.154 1.218-.098 1.817-.244.369-.113.731-.246 1.085-.398a8.912 8.912 0 014.608-.249 7.31 7.31 0 012.478.806 8.92 8.92 0 012.219 2.026 13.61 13.61 0 012.474 3.992 6.672 6.672 0 01.355 3.77c-.295 1.255-1.18 2.382-2.265 2.57l-.376-.514-.607-.767c.102.309 0 .283-.252.429a.52.52 0 01-.599-.088.512.512 0 01-.119-.178c-.218.249-.646-.06-.556-.398-.252.115-.543-.24-.427-.54-.291.086-.428-.386-.543-.703a4.44 4.44 0 00-.248-.488 3.191 3.191 0 01-.321-1.713 3.115 3.115 0 01-.393-1.714c0-.377-.03-.754-.043-1.13-.064-.095-.124-.19-.188-.28a.612.612 0 01-.448.548 1.323 1.323 0 01-.68-.067l-.654-.185-.427.086a1.68 1.68 0 01-.227 1.062 1.04 1.04 0 01-.427.579.317.317 0 01-.428-.377.342.342 0 01-.298.065.352.352 0 01-.236-.194 1.15 1.15 0 01-.094-.702 2.95 2.95 0 01.667-1.581l-1.248.994a.547.547 0 01-.299.154.312.312 0 01-.222.304.304.304 0 01-.133.009.805.805 0 01-.406-.33c-.256-.321-.513-.857-.235-1.165a.267.267 0 01-.083-.071.258.258 0 01-.044-.208.243.243 0 01.046-.098l-1.398.895c.137-.064.265.15.222.321a.704.704 0 01-.307.369c.103.195.139.42.102.638.252-.197.577.231.475.566a.753.753 0 01-.744.484.51.51 0 01-.551-.429c-.295.039-.543-.381-.428-.698-.222.12-.376-.27-.363-.557.023-.5.134-.992.329-1.452a.07.07 0 01-.082.017.07.07 0 01-.025-.017.084.084 0 01-.025-.056l-.834 1.636a4.329 4.329 0 00-.53 1.478c-.021.215-.068.51-.252.514a.251.251 0 01-.141-.047 2.748 2.748 0 01-1.073-1.482 2.1 2.1 0 01-.128-.651 8.45 8.45 0 01.333-1.358z" fill="#000"/><path d="M145.761 49.08c.064 0 2.564-.587 2.325 1.919-.239 2.506-2.697 1.752-2.697 1.68 0-.074.372-3.6.372-3.6z" fill="#FFBE9D"/><path d="M146.244 51.804s.043.035.111.073c.099.055.216.07.325.039a1.088 1.088 0 00.59-.921 1.439 1.439 0 00-.06-.639.513.513 0 00-.299-.364.213.213 0 00-.265.094c-.043.065-.03.116-.043.12-.013.005-.051-.047 0-.15a.296.296 0 01.115-.145.334.334 0 01.244-.043.613.613 0 01.427.428c.086.228.115.474.086.716a1.135 1.135 0 01-.74 1.02.466.466 0 01-.388-.104c-.103-.064-.112-.124-.103-.124z" fill="#EB996E"/><path d="M136.692 41.099a.625.625 0 01-.141-.334.435.435 0 01.145-.369.483.483 0 01.487-.085l.103.047-.034-.107a.471.471 0 01.795-.467l.089-.073a.14.14 0 01-.029-.064.28.28 0 01.059-.232.312.312 0 01.214-.111.506.506 0 01.252.03.664.664 0 00.274.086c.119 0 .184-.095.248-.129a.773.773 0 01.205-.103c.13-.046.268-.066.406-.06.205.01.403.077.573.193.119.082.17.146.179.142.009-.005-.034-.078-.154-.176a1.035 1.035 0 00-.59-.236 1.113 1.113 0 00-.448.047c-.08.027-.156.063-.227.107-.077.048-.137.112-.197.112a.638.638 0 01-.23-.086.655.655 0 00-.304-.038.425.425 0 00-.29.15.419.419 0 00-.082.33c.01.038.026.074.047.106l.09-.072a.576.576 0 00-.974.56l.064-.06a.547.547 0 00-.577.112.511.511 0 00-.034.698c.047.069.077.108.081.082zm-2.859.488a.76.76 0 01-.184-.334.547.547 0 01.06-.428.6.6 0 01.47-.287h.081l-.051-.069a.702.702 0 01-.137-.63.37.37 0 01.244-.23.296.296 0 01.329.072l.29.364-.196-.428a.583.583 0 010-.493.536.536 0 01.427-.3.58.58 0 01.372.073l.124.073-.039-.141c-.059-.197.154-.429.351-.429.21.002.414.073.581.202l.103.068-.026-.12a.428.428 0 01.171-.39.716.716 0 01.397-.137 1.85 1.85 0 01.718.077c.205.068.402.158.586.27 0 0-.038-.047-.133-.111a1.747 1.747 0 00-.427-.219 1.904 1.904 0 00-.739-.102.852.852 0 00-.453.145.507.507 0 00-.21.484l.077-.051a1.047 1.047 0 00-.645-.223.52.52 0 00-.346.167.428.428 0 00-.107.39l.085-.064a.681.681 0 00-.949.278.707.707 0 000 .587l.094-.056a.421.421 0 00-.427-.107.477.477 0 00-.312.3.802.802 0 00.167.72l.034-.073a.66.66 0 00-.526.334.606.606 0 00-.047.471.563.563 0 00.15.258.236.236 0 00.043.09zm-6.074.005a.426.426 0 01.176-.295.528.528 0 01.384-.104c.183.026.359.084.522.172l.06.03v-.069a.482.482 0 01.427-.428c.275-.01.548.058.786.197l.338.163-.278-.249a.405.405 0 01.077-.574.902.902 0 01.714-.103h.034l.218.039-.171-.142a.44.44 0 01-.099-.168.442.442 0 01-.014-.194.44.44 0 01.22-.31.649.649 0 01.714.133l.213.201-.132-.261a.982.982 0 01.085-.99.928.928 0 01.701-.368c.183-.01.364.03.526.115.111.06.162.108.167.103.004-.004 0 0-.035-.043a.8.8 0 00-.115-.09.994.994 0 00-.543-.145.964.964 0 00-.769.377 1.06 1.06 0 00-.111 1.088l.081-.065a.75.75 0 00-.855-.154.56.56 0 00-.265.647.488.488 0 00.141.214l.047-.098h-.034a1.005 1.005 0 00-.803.133.576.576 0 00-.201.355.433.433 0 00.119.381l.06-.085a1.483 1.483 0 00-.855-.197.57.57 0 00-.495.54l.055-.04a1.541 1.541 0 00-.551-.162.592.592 0 00-.427.129.425.425 0 00-.146.235.2.2 0 00.034.082zm3.655-5.484s.042.039.145.069a1.9 1.9 0 00.427.06c.216-.003.429.048.62.15a.391.391 0 01.197.291.294.294 0 01-.141.321l.072.065c.034-.146.222-.223.389-.304a1.89 1.89 0 01.547-.18.67.67 0 01.53.128.43.43 0 01.197.429l-.03.137.115-.086a1.28 1.28 0 01.761-.24c.216.002.429.051.624.146.167.096.321.214.457.351a.418.418 0 00-.085-.129 1.108 1.108 0 00-.342-.278 1.421 1.421 0 00-.65-.18 1.357 1.357 0 00-.829.249l.086.051a.582.582 0 00-.235-.548.819.819 0 00-.612-.154c-.203.034-.399.1-.581.197a2.14 2.14 0 00-.256.137.43.43 0 00-.193.24v.102l.094-.042a.39.39 0 00.201-.429.498.498 0 00-.248-.355 1.308 1.308 0 00-.666-.138 2.223 2.223 0 01-.428-.03c-.115-.012-.162-.034-.166-.03zm5.778-1.688c.099.012.197.035.291.07a.707.707 0 01.269.2.636.636 0 01.145.399v.06h.06a.37.37 0 01.393.265c.047.208.037.424-.03.626l-.055.218.154-.167.025-.03a.477.477 0 01.402-.124.518.518 0 01.355.193.86.86 0 01.166.685 1.601 1.601 0 01-.166.454 1.002 1.002 0 00-.086.172s.056-.047.124-.15c.101-.147.173-.313.21-.489.03-.132.03-.27.001-.402a.929.929 0 00-.172-.364.64.64 0 00-.443-.238.633.633 0 00-.476.16l-.03.035.102.047c.073-.223.081-.463.022-.69a.474.474 0 00-.517-.321l.059.047a.711.711 0 00-.183-.428.777.777 0 00-.308-.202.572.572 0 00-.231-.034c-.055-.004-.081.004-.081.009zm4.637 3.86c.049.01.1.01.15 0a.997.997 0 00.363-.21c.156-.146.262-.338.303-.548a.54.54 0 01.103-.3c.073-.073.214-.111.308-.236a.577.577 0 00-.077-.78v.086c.226-.165.41-.38.538-.63a.721.721 0 00.107-.303s-.055.107-.158.274c-.143.225-.329.42-.547.574l-.056.038.056.047a.467.467 0 01.051.622c-.064.094-.192.128-.295.227a.623.623 0 00-.128.364.982.982 0 01-.256.505 1.549 1.549 0 01-.462.27zm1.368 1.131h.089c.091.011.183.011.274 0 .321-.037.622-.178.855-.403h-.073a.993.993 0 00.637.429c.141.03.286.03.427 0a.628.628 0 00.385-.253c.03-.06.038-.116.06-.158a.247.247 0 01.077-.099.762.762 0 01.273-.094c.104-.016.205-.048.299-.094a.315.315 0 00.184-.266l-.077.043a.99.99 0 00.688.077c.178-.04.342-.125.479-.244a.944.944 0 00.209-.274c.035-.078.043-.116.039-.12a1.28 1.28 0 01-.286.347 1.057 1.057 0 01-.458.205.915.915 0 01-.619-.081l-.073-.039v.082a.236.236 0 01-.044.105.22.22 0 01-.089.07.846.846 0 01-.269.082.768.768 0 00-.316.107.348.348 0 00-.12.15.939.939 0 01-.051.145.522.522 0 01-.316.197.852.852 0 01-.376 0 .878.878 0 01-.573-.355l-.034-.047-.039.038a1.549 1.549 0 01-.816.429c-.214.021-.346-.005-.346.021zm8.62 4.241a.125.125 0 000-.039 1.219 1.219 0 00.026-.574 2.728 2.728 0 00-.252-.66 2.626 2.626 0 00-.218-.38.696.696 0 00-.184-.168.298.298 0 00-.278-.025l.068.055a.76.76 0 00-.753-.894.757.757 0 00-.418.132l.09.051a.537.537 0 00-.175-.428.503.503 0 00-.474-.103.556.556 0 00-.24.15l.099.047a.326.326 0 00-.014-.149.306.306 0 00-.081-.125.424.424 0 00-.247-.129.977.977 0 00-.492.082l.064.026a.799.799 0 00-.457-.382 1.086 1.086 0 00-.556-.047 2.798 2.798 0 00-.889.351l.056.056a.209.209 0 000-.201.309.309 0 00-.133-.116.535.535 0 00-.295-.073 1.548 1.548 0 00-.461.099 1.21 1.21 0 00-.351.188s.124-.068.364-.145c.145-.047.296-.073.448-.078a.545.545 0 01.261.073c.081.043.15.133.098.215l-.072.12.128-.065a2.88 2.88 0 01.855-.33c.168-.023.34-.005.5.052.17.056.313.175.397.334l.022.043h.047a.938.938 0 01.427-.073c.133 0 .269.146.248.274l-.034.197.132-.15a.38.38 0 01.184-.115.389.389 0 01.372.077.43.43 0 01.137.342v.125l.102-.069a.663.663 0 01.752 0 .673.673 0 01.261.643v.09l.081-.039c.129-.06.27.051.355.158.083.114.156.234.218.36.115.201.204.416.265.639.042.19.048.386.017.578zm-.919 3.26s.026 0 .064-.064c.058-.069.109-.142.154-.219a.805.805 0 00.124-.407.558.558 0 00-.064-.265.426.426 0 00-.231-.214v.064a.532.532 0 00.073-.557.548.548 0 00-.564-.304l.047.086a.433.433 0 00.025-.506.632.632 0 00-.465-.266h-.253a.228.228 0 01-.145-.15.943.943 0 00-.124-.257.479.479 0 00-.252-.17 2.752 2.752 0 00-.603-.065.648.648 0 01-.474-.184c-.051-.065-.086-.15-.137-.232a.553.553 0 00-.478-.26.592.592 0 00-.265.063l.059.077a.452.452 0 000-.526.655.655 0 00-.406-.249 2.094 2.094 0 00-.748.03c-.156.033-.309.08-.457.141a.483.483 0 00-.149.078c.202-.068.409-.121.619-.159a1.97 1.97 0 01.718 0 .54.54 0 01.346.218.36.36 0 010 .429l-.136.167.196-.094a.494.494 0 01.428 0 .464.464 0 01.175.162c.042.083.089.163.141.24a.62.62 0 00.256.172c.096.031.195.05.295.055.194.002.387.023.577.06.078.024.146.07.197.133a.83.83 0 01.111.231.325.325 0 00.218.215c.089.013.179.022.269.025a.512.512 0 01.385.21.326.326 0 010 .382l-.098.107h.145a.426.426 0 01.461.24.452.452 0 01-.047.466l-.034.048h.051a.432.432 0 01.257.428.77.77 0 01-.098.381c-.09.137-.171.236-.163.24zm.355 6.156a.242.242 0 00.111-.026c.105-.038.2-.1.278-.18a.86.86 0 00.051-1.118v.06a1.49 1.49 0 00.342-.535.627.627 0 00-.089-.543.457.457 0 00-.155-.126v.1a.66.66 0 00.359-.58.733.733 0 00-.085-.38.588.588 0 00-.274-.258.227.227 0 01-.107-.088.227.227 0 01-.034-.134.904.904 0 00-.047-.339 1.135 1.135 0 00-.384-.488l-.398-.343a1.933 1.933 0 00-.662-.385 1 1 0 00-.21-.035h-.072s.102 0 .269.073c.23.096.441.233.624.403l.389.351c.152.12.271.276.346.454a.87.87 0 01.039.304.303.303 0 00.042.193c.04.053.091.095.15.124a.596.596 0 01.03 1.011l-.103.052.107.047a.45.45 0 01.187.237.461.461 0 01-.003.303 1.6 1.6 0 01-.316.505l-.026.03.026.03a.787.787 0 01.175.583.766.766 0 01-.197.428 1.084 1.084 0 01-.363.27zm-9.484-10.003a.825.825 0 00.346-.107.946.946 0 00.325-.236.627.627 0 00.154-.484.6.6 0 00-.038-.124l-.03.077a.56.56 0 00.312-.35.49.49 0 00-.043-.374c-.107-.192-.252-.222-.252-.21a.78.78 0 01.184.245.43.43 0 010 .308.457.457 0 01-.257.279h-.051l.021.055c.013.03.022.062.026.095a.552.552 0 01-.12.398 1.006 1.006 0 01-.282.236c-.171.12-.303.175-.295.192zm-2.526-1.448a.646.646 0 01-.047-.428.484.484 0 01.3-.334.5.5 0 01.534.133l.064.072.026-.094a.945.945 0 01.158-.325.423.423 0 01.299-.176c.184 0 .372.176.308.321l.106.03a.862.862 0 01.359-.54.853.853 0 01.5-.14c.164.014.324.059.471.132 0 0-.03-.039-.107-.086a.883.883 0 00-.915.026.953.953 0 00-.427.595l.102.03a.321.321 0 00-.085-.338.451.451 0 00-.329-.137.546.546 0 00-.385.223 1.04 1.04 0 00-.171.364h.09a.599.599 0 00-.641-.146.544.544 0 00-.334.403.563.563 0 00.039.338c.047.052.081.081.085.077z" fill="#8CBF43"/><path d="M116.724 171.28l-1.436 7.107-4.739.445-1.996-2.356 1.825-8.482 6.346 3.286z" fill="#FFBE9D"/><path d="M107.608 175.688v.553s-9.073 3.512-9.214 5.294l17.805.429-.099-6.225c-2.697 1.234-5.47 1.307-8.492-.051z" fill="#2B3A8C"/><path opacity=".6" d="M114.233 177.693a.772.772 0 01.483.887.696.696 0 01-.83.509.81.81 0 01-.508-.938.724.724 0 01.923-.428" fill="#fff"/><path d="M116.181 181.977v-1.495l-17.061.124a1.617 1.617 0 00-.855 1.465l17.916-.094zm-8.654-5.685c0 .09.427.146.855.45.427.304.641.694.722.659.081-.034-.039-.565-.551-.925-.513-.36-1.043-.27-1.026-.184zm-1.885.767c-.026.086.35.253.637.642.286.39.363.806.449.806.085 0 .153-.519-.214-1.003-.368-.484-.872-.535-.872-.445zm-1.115 2.317c.077 0 .209-.428 0-.933-.21-.506-.612-.716-.65-.643-.038.073.205.351.376.767.171.415.188.801.274.809z" fill="#000"/><path d="M144.278 169.614c.068.231 0 9.09 0 9.09l-2.658 1.645-3.475-2.185-.735-8.568 6.868.018z" fill="#FFBE9D"/><path d="M137.897 177.397s4.731 3.526 7.018.476l.598 1.478 2.693 10.534a1.433 1.433 0 01-.757 1.688 1.25 1.25 0 01-1.376-.275c-1.949-1.944-9.069-9.128-9.001-10.101l.026-2.57a1.33 1.33 0 01.799-1.212v-.018z" fill="#2B3A8C"/><path d="M147.214 191.645l-10.146-11.347v.565a1.51 1.51 0 00.479 1.247 110.372 110.372 0 008.547 9.561c.312.317.907.039 1.137-.026h-.017z" fill="#000"/><path opacity=".6" d="M138.555 178.635a.861.861 0 01.218 1.08.738.738 0 01-1.017.235.909.909 0 01-.227-1.143.766.766 0 011.086-.125" fill="#fff"/><path d="M144.291 185.832c.072.039.355-.664 1.107-1.041.752-.377 1.449-.218 1.461-.3.013-.081-.149-.137-.427-.18a1.973 1.973 0 00-1.141.219 2.077 2.077 0 00-.855.822c-.158.274-.179.471-.145.48zm.91 1.799c.06.056.466-.376 1.124-.578.658-.201 1.218-.09 1.24-.171.021-.082-.577-.351-1.321-.107s-1.107.805-1.043.856zm-2.603-4.078c.06.06.68-.612 1.676-1.015.996-.403 1.88-.381 1.88-.471 0-.09-.923-.253-1.983.197s-1.637 1.251-1.573 1.289zm-.226-3.204c.034.081.735-.232 1.65-.27.914-.039 1.637.188 1.662.107.026-.081-.696-.45-1.679-.398-.983.051-1.684.497-1.633.561z" fill="#000"/><path d="M144.539 180.049a1.19 1.19 0 00-.073-.501 3.449 3.449 0 00-.607-1.225 1.474 1.474 0 00-.752-.604.497.497 0 00-.316.023.512.512 0 00-.24.208.925.925 0 00-.094.634 1.855 1.855 0 001.898 1.444 2.163 2.163 0 001.855-1.56.813.813 0 00-.081-.642.508.508 0 00-.577-.176 1.851 1.851 0 00-.74.613 3.922 3.922 0 00-.671 1.186 1.222 1.222 0 00-.111.472 6.145 6.145 0 01.928-1.538c.173-.224.399-.4.658-.514a.26.26 0 01.316.094.554.554 0 01.03.428 1.923 1.923 0 01-1.624 1.328 1.607 1.607 0 01-1.628-1.199.674.674 0 01.047-.429.28.28 0 01.307-.137c.262.097.487.272.646.501.366.48.646 1.019.829 1.594zm4.739-83.569a44.684 44.684 0 013.3 8.962c1.462 5.535 3.103 8.315 2.509 18.515-.308 5.209-4.603 19.337-5.591 24.31-.816 4.091-3.363 23.326-4.654 28.411h-7.381l-.752-56.932s-11.757 33.225-13.249 37.063c-1.492 3.839-6.723 19.055-6.723 19.055l-9.197-2.451 7-34.013c1.398-6.777 5.197-25.913 6.813-31.675 1.615-5.761 3.145-11.836 3.145-11.836l24.78.591z" fill="#000"/><path d="M148.377 106.56c.01.098.036.193.077.283.09.247.202.487.333.715a6.118 6.118 0 001.71 1.919 5.787 5.787 0 002.312 1.011c.249.048.502.073.756.073.18 0 .278 0 .278-.026 0-.025-.393-.051-1.004-.197a6.488 6.488 0 01-2.227-1.036 6.786 6.786 0 01-1.71-1.825c-.342-.548-.491-.934-.525-.917zm-27.772 4.134s.094.043.269.081c.25.053.505.08.761.082.382.009.764-.028 1.137-.112.458-.108.9-.278 1.312-.505a6.469 6.469 0 001.932-1.714c.231-.276.424-.583.572-.912a9.164 9.164 0 00-.683.814 7.24 7.24 0 01-1.915 1.606 5.344 5.344 0 01-2.355.656c-.633.034-1.026-.035-1.03.004zm15.989-3.213a1.836 1.836 0 00-.082.459c-.038.299-.081.728-.128 1.263a49.632 49.632 0 00-.145 4.186c.013 1.615.111 3.118.218 4.185.051.535.102.964.149 1.259.012.156.041.309.086.459a2.026 2.026 0 000-.467c-.022-.343-.051-.767-.081-1.264a74.243 74.243 0 01-.159-4.172 77.006 77.006 0 01.086-4.173c.026-.501.047-.921.064-1.285.013-.15.01-.301-.008-.45zm9.894-43.888l6.697 3.205-.932 12.239s-.791.93-2.077 7.488c-1.287 6.558 2.992 19.328 2.992 19.328l-31.503.814s3.697-26.482 4.124-29.987l1.573-13.408 6.338-.347h1.829l1.573 11.412 7.932-11.065 1.454.321z" fill="#8CBF43"/><path d="M117.352 87.339c.082-.233.115-.479.099-.724a5.201 5.201 0 00-.291-1.735 5.146 5.146 0 00-.855-1.517c-.286-.338-.504-.501-.521-.48a8.74 8.74 0 011.18 2.074 8.87 8.87 0 01.388 2.382z" fill="#000"/><path d="M104.556 84.301l11.228-.098 4.248-12.569a49.2 49.2 0 012.223-4.434c2.248-4.147 5.107-3.928 5.107-3.928l3.445 5.372-3.659 8.23s-3.5 15.515-7.56 16.2c-6.736 1.131-18.805-3.538-18.805-3.538l3.773-5.235z" fill="#8CBF43"/><path opacity=".2" d="M124.268 88.153c0-.429-.12-.977.248-1.161a1.23 1.23 0 01.957.072c9.3 3.303 14.685-.535 23.985 2.772l1.898 9.579c-4.129.034-6.018-.934-10.074-2.236-4.141-1.328-8.283-2.656-12.343-4.233a11.228 11.228 0 01-3.193-1.675 4.06 4.06 0 01-1.478-3.118z" fill="#000"/><path d="M126.507 72.315a3.077 3.077 0 01-.213.634c-.17.506-.3 1.025-.389 1.55-.223 1.239-.265 2.267-.329 2.267a6.64 6.64 0 01.106-2.305 7.06 7.06 0 01.462-1.572c.075-.217.2-.413.363-.574z" fill="#000"/><path d="M183.832 84.582l2.564.066a2.673 2.673 0 012.597 2.74l-.008.317a2.674 2.674 0 01-.829 1.87 2.664 2.664 0 01-1.905.734l-2.564-.066.145-5.661zM71.186 82.16l22.985-2.326 86.367 2.227a1.517 1.517 0 011.382.977c.072.187.106.386.101.587l-.21 8.139a1.53 1.53 0 01-.472 1.067 1.527 1.527 0 01-1.088.42L93.555 91 71.08 86.38l.107-4.22z" fill="#2B3A8C"/><path d="M71.152 83.346l-2.116-.056-1.795.613c-.145.111-.111.253 0 .407l1.804.587 2.073.055.034-1.606zm24.816-3.474l-1.79-.046-.287 11.177 1.79.046.287-11.177z" fill="#000"/><path d="M182.316 82.554a2.002 2.002 0 01-.616 1.393 1.977 1.977 0 01-1.419.547l-43.089-1.114a1.977 1.977 0 01-1.388-.618 2.004 2.004 0 01-.544-1.42 1.994 1.994 0 012.034-1.941l43.09 1.135a1.983 1.983 0 011.932 2.018z" fill="#2B3A8C"/><path d="M182.316 82.553a2.15 2.15 0 00-.244-.955 1.952 1.952 0 00-1.568-1.037c-.274 0-.573 0-.881-.02l-10.578-.24-15.685-.382-9.261-.24-4.898-.124-1.248-.034a4.556 4.556 0 00-1.218.051 1.876 1.876 0 00-.099 3.594c.398.092.806.13 1.214.116l1.252.03 4.898.128 9.266.244 15.681.429 10.574.308c.312 0 .611.026.884 0a1.98 1.98 0 00.735-.167c.368-.164.677-.438.885-.784.168-.289.267-.613.291-.947a1.38 1.38 0 010 .258 1.884 1.884 0 01-.248.753 2.01 2.01 0 01-.893.823 2.05 2.05 0 01-.765.184h-.885l-10.574-.235-15.689-.382-9.262-.231-4.906-.159-1.248-.034h-.628a2.098 2.098 0 01-2.09-2.16 2.104 2.104 0 011.547-1.974c.213-.054.434-.077.654-.068h.628l1.248.03 4.902.128 9.262.245 15.681.428 10.573.308c.312 0 .607 0 .885.035.263.024.519.101.752.227.367.19.666.489.855.856a1.91 1.91 0 01.201.999z" fill="#000"/><path d="M182.038 83.072l2.214 1.131-.167 6.421-2.278 1.281.231-8.833z" fill="#000"/><path d="M155.924 87.591l-4.893-7.556-.428-.677-.658-1.024 2.872-11.73s2.453 1.132 3.804 3a44.632 44.632 0 012.992 5.35s4.787 10.975 5.577 12.616c.791 1.64 2.056 4.67 0 6.37-2.056 1.7-15.813 1.756-15.813 1.756l-.928-6.935 7.475-1.17z" fill="#8CBF43"/><path d="M149.894 77.109c.034 0-.073-.519-.115-1.345a10.636 10.636 0 011.568-6.17c.427-.706.774-1.1.744-1.121-.03-.022-.103.08-.261.252-.219.249-.42.512-.603.788a9.715 9.715 0 00-1.594 6.263c.028.33.08.659.154.981.02.122.056.24.107.352z" fill="#000"/><path d="M146.842 90.055a4.733 4.733 0 00-1.239-1.641c-.902-.784-2.885-1.392-3.141-2.142-.257-.75-1.005-.167-.83.771.112.595 1.338 2.142 1.338 2.142s-1.44.364-2.397-.193c-.958-.557-4.313-1.546-4.672-1.075-.359.471.47.707.855.92.286.164 2.517 1.286 2.517 1.286s-4.44-.15-5 .06c-.56.21 0 .767.295.78.179 0 .936.69 1.474 1.19.366.343.846.535 1.346.54h1.03l-3.132.33s-.539.497.213.754c.338.116 9.018.904 9.758.878 1.667-.055 3.996-.171 3.996-.171l-.406-4.712-2.005.282z" fill="#FFBE9D"/><path d="M134.487 91.018c.662.33 1.374.547 2.107.643a6.786 6.786 0 002.201.128c0-.06-.979-.115-2.163-.33-1.184-.214-2.128-.497-2.145-.44z" fill="#EB996E"/><path opacity=".3" d="M101.719 85.557c.854-.184 1.675.36 2.38.878.445.31.865.656 1.257 1.032 1.081 1.084 1.649 2.57 2.564 3.8l-5.129-.78-1.072-4.93z" fill="#000"/><path d="M109.557 91.481l-2.231-.467s-2.013-3.213-3.069-3.602l-.594-.266s-.773-1.714-1.829-1.487c-.624-.428-1.188-.244-1.248.382 0 0-.312-1.427-1.474-.857-1.163.57 1.611 5.526 1.611 5.526s.97 2.532 2.18 1.684c0 0 1.209.282 2.017-.168 0 0 .748 1.054 2.517.249l2.12-.994z" fill="#FFBE9D"/><path d="M104.71 91.674s-.038.081 0 .24c.042.219.151.42.312.574.234.24.544.391.876.428.394.038.791-.004 1.167-.124a7.253 7.253 0 001.919-.857 2.74 2.74 0 00.684-.531c-.841.487-1.733.882-2.658 1.178-.353.11-.722.156-1.09.137a1.367 1.367 0 01-.799-.334 1.305 1.305 0 01-.411-.711zm-2.137-1.157c.052-.034-.619-1.007-1.192-2.326-.573-1.32-.855-2.472-.906-2.459-.001.26.04.52.12.767a10.782 10.782 0 001.495 3.414c.126.227.289.432.483.604zm1.283-.107c.051-.03-.513-1.041-1.065-2.348-.551-1.306-.884-2.42-.944-2.403a12.485 12.485 0 002.009 4.75zm-1.71 1.144c-.056 0 0 .428.359.715s.769.283.765.227c-.004-.055-.329-.124-.633-.385-.303-.261-.453-.574-.491-.557zm3.086-1.851a8.028 8.028 0 00-.723-1.25 8.112 8.112 0 00-.773-1.217c.113.475.316.925.598 1.323.225.434.53.823.898 1.144z" fill="#EB996E"/></g><path d="M38.582 20.175l-.074-.708-2.264.238.294 2.785.938-.1-.094-.89 1.162-.123-.075-.708-1.161.123-.05-.478 1.324-.14zm2.082 1.944c.907-.095 1.507-.778 1.418-1.621-.089-.844-.818-1.386-1.725-1.29-.907.095-1.507.777-1.418 1.62.09.844.818 1.387 1.725 1.291zm-.08-.76c-.346.037-.652-.196-.698-.63-.046-.433.205-.725.551-.762.346-.036.653.197.698.63.046.434-.205.726-.551.762zm3.771.307l1.003-.106-.675-.797a.94.94 0 00.433-.93c-.068-.645-.604-.999-1.38-.917l-1.34.141.293 2.785.938-.1-.073-.7.254-.026.547.65zm-.186-1.734c.021.203-.09.34-.348.367l-.342.035-.069-.652.343-.036c.258-.027.394.083.416.286zm4.945 1.233l-.302-2.784-.771.081-.727 1.577-1.063-1.388-.772.081.293 2.785.855-.09-.129-1.226.708.911.413-.043.498-1.082.141 1.268.856-.09zm1.912-.137c.855-.09 1.306-.625 1.218-1.46l-.161-1.532-.923.098.158 1.503c.045.426-.101.602-.364.63-.262.028-.442-.114-.487-.54l-.158-1.504-.94.1.162 1.53c.088.836.64 1.265 1.495 1.175zm1.9-.265l2.195-.231-.076-.728-1.257.132-.217-2.056-.939.099.294 2.784zm4.697-.495l.971-.102-1.51-2.656-.923.097-.924 2.913.954-.1.136-.506 1.058-.111.239.465zm-1.108-1.057l.196-.729.345.672-.541.057zm4.015.751l1.002-.105-.675-.798a.937.937 0 00.433-.93c-.068-.645-.604-.999-1.38-.917l-1.34.141.293 2.785.94-.1-.075-.7.255-.026.547.65zm-.187-1.734c.022.203-.089.34-.347.366l-.342.037-.069-.653.342-.036c.259-.027.395.083.416.286zm2.649.739l1.117-1.614-.06-.577-2.455.259.076.727 1.234-.13-1.118 1.614.061.577 2.558-.27-.077-.727-1.336.14z" fill="#000"/><defs><clipPath id="clip0"><path fill="#fff" d="M0 0h189v191.821H0z"/></clipPath></defs></svg>