<svg width="189" height="160" fill="none" xmlns="http://www.w3.org/2000/svg"><path d="M52.766 62.331a1.428 1.428 0 01-1.75-1.011l-3.214-11.985a1.183 1.183 0 01.88-1.409l1.129-.302a1.234 1.234 0 00.899-.928l.109-.557a1.223 1.223 0 01.899-.928l5.35-1.437a1.245 1.245 0 011.161.269l.364.346a1.244 1.244 0 001.16.273l6.821-1.82a1.187 1.187 0 011.5.764l3.276 12.262a1.426 1.426 0 01-1.012 1.747L52.766 62.33z" fill="#E0E0E0"/><path d="M59.092 44.829l-4.342 1.154-.583-.619a1.544 1.544 0 00-1.532-.411l-4.24 1.153a1.376 1.376 0 00-1.023 1.65l.131.494 3.494 13.015a1.557 1.557 0 001.94 1.037l17.23-4.622a1.558 1.558 0 001.16-1.87L68.03 43.514a1.03 1.03 0 00-1.26-.728l-7.678 2.042z" fill="#EBEBEB"/><path d="M110.955 43.271a1.712 1.712 0 01-1.07-.776 1.726 1.726 0 01-.204-1.305l3.523-14.588a1.429 1.429 0 011.758-.997l1.372.331a1.474 1.474 0 001.492-.465l.437-.525a1.472 1.472 0 011.492-.466l6.511 1.573a1.493 1.493 0 011.092.957l.197.582a1.495 1.495 0 001.091.961l8.302 2.002a1.433 1.433 0 011.092 1.692l-3.603 14.922a1.727 1.727 0 01-2.082 1.27l-21.4-5.168z" fill="#E0E0E0"/><path d="M127.798 28.353l-5.277-1.285-.258-.979a1.878 1.878 0 00-1.391-1.32l-5.16-1.25a1.66 1.66 0 00-1.749.58 1.674 1.674 0 00-.29.578l-.145.6-3.825 15.84a1.878 1.878 0 001.456 2.224l20.97 5.044a1.883 1.883 0 002.315-1.31l3.614-14.962a1.247 1.247 0 00-.917-1.503l-9.343-2.257z" fill="#EBEBEB"/><path d="M70.305 24.033a1.936 1.936 0 01-2.137-1.714L66.327 5.577a1.605 1.605 0 011.477-1.722l1.576-.174a1.67 1.67 0 001.398-1.06l.262-.727a1.66 1.66 0 011.401-1.06l7.472-.822a1.681 1.681 0 011.5.6l.43.543a1.681 1.681 0 001.517.6L92.888.711a1.605 1.605 0 011.82 1.361l1.881 17.124a1.943 1.943 0 01-1.714 2.14l-24.57 2.697z" fill="#E0E0E0"/><path d="M82.406 1.86l-6.063.652-.652-.953A2.104 2.104 0 0073.72.693l-5.925.647a1.86 1.86 0 00-1.711 1.998l.076.692 1.999 18.18a2.118 2.118 0 002.39 1.794l24.065-2.646a2.118 2.118 0 001.947-2.271l-1.89-17.175A1.393 1.393 0 0093.132.678L82.406 1.861z" fill="#F5F5F5"/><path d="M83.476 12.623a2.355 2.355 0 001.154-2.314 2.21 2.21 0 10-4.367.462 2.347 2.347 0 001.634 2.027c-3.316.877-2.76 4.524-2.76 4.524l7.975-.837s-.24-3.723-3.636-3.862zm-28.952 8.84a4.096 4.096 0 011.048-.316l.32-.965 1.674.168.124 1.008c.343.13.667.304.965.517l.91-.451 1.062 1.299-.622.819c.151.333.257.686.313 1.048l.965.324-.168 1.67-1.008.124c-.128.345-.302.67-.517.968l.455.906-1.303 1.067-.8-.648a4.185 4.185 0 01-1.049.317l-.32.964-1.674-.167-.124-1.008a4.183 4.183 0 01-.965-.517l-.91.451-1.062-1.3.622-.8a4.192 4.192 0 01-.316-1.048l-.961-.324.167-1.663 1.008-.128c.129-.343.303-.667.517-.964l-.451-.91 1.303-1.067.8.627h-.003zm.626 2.326a1.82 1.82 0 102.29 2.829 1.82 1.82 0 00-2.29-2.829zM63 89.457c.15.007.298-.016.437-.069a.929.929 0 00.408-.331.901.901 0 00.127-.313c.022-.117.033-.251.051-.39.142-1.128.342-2.74.59-4.731l.2-1.565.11-.834.054-.425c.025-.14.035-.281.029-.423a.835.835 0 00-.444-.651 1.14 1.14 0 00-.415-.102l-.466-.062-1.929-.247-8.575-1.121a.814.814 0 00-.913.702l-.037.28c-.025.186-.05.364-.072.557-.099.728-.197 1.456-.292 2.184-.189 1.434-.364 2.817-.55 4.135-.043.33-.083.655-.127.971a.826.826 0 00.364.75c.119.082.257.13.4.142l.46.062.895.12 3.275.44 4.732.652 1.28.185.332.055a.884.884 0 01.113.022.406.406 0 01-.117 0l-.334-.037-1.285-.149-4.764-.575-3.276-.418-.895-.117-.459-.058a.993.993 0 01-.906-1.067c.044-.323.084-.65.127-.982.171-1.318.364-2.7.539-4.138.09-.728.19-1.456.284-2.184.025-.186.05-.364.073-.557l.04-.28a1.004 1.004 0 011.125-.866l8.574 1.135 1.925.259.462.062c.165.01.326.051.474.123a.979.979 0 01.538.765 2 2 0 01-.033.454c0 .146-.04.288-.058.43-.036.28-.076.56-.113.83-.072.546-.141 1.066-.21 1.565l-.652 4.731c-.022.142-.033.27-.058.397a.954.954 0 01-.586.644.878.878 0 01-.339.051.383.383 0 01-.113-.01z" fill="#E0E0E0"/><path d="M63.255 87.998s-.044-.044-.11-.139l-.28-.415-1.004-1.55c-.207-.335-.437-.692-.684-1.092-.058-.098-.12-.193-.186-.295a.273.273 0 00-.236-.116c-.099 0-.164.069-.266.156l-.291.248-.604.517c-.054.05-.112.095-.175.134a.44.44 0 01-.488-.054.32.32 0 01-.087-.099l-.058-.087-.954-1.456a62.793 62.793 0 00-.484-.728c-.08-.12-.16-.24-.236-.364a.258.258 0 00-.27-.123.24.24 0 00-.134.069l-.15.145c-.094.099-.193.193-.287.288l-.572.557-1.954 1.921-1.321 1.3-.364.342a.65.65 0 01-.135.109s.033-.05.11-.138l.342-.364 1.284-1.325c.557-.56 1.209-1.223 1.926-1.95l.56-.561.288-.291.145-.146a.45.45 0 01.494-.09c.082.037.15.097.198.174l.236.364.484.728.95 1.455a.302.302 0 00.539.07l.608-.51.29-.248c.055-.04.088-.076.157-.123a.436.436 0 01.594.127l.185.299.666 1.091.95 1.584c.098.174.182.316.251.436.03.047.055.097.073.15zm-2.547-6.013a2.045 2.045 0 01-.033-.262 1.091 1.091 0 00-.324-.597.998.998 0 10-.211 1.594c.204-.108.368-.28.465-.491.073-.153.088-.248.103-.244.014.004.021.098-.033.27-.08.244-.245.45-.466.582a1.135 1.135 0 01-1.092.04 1.161 1.161 0 01.284-2.184 1.139 1.139 0 011.03.353c.178.185.285.428.302.684.022.164-.015.255-.025.255zm58.956-64.489c.134.066.28.106.43.117a.9.9 0 00.749-.368c.069-.098.135-.218.208-.338l2.478-4.066c.262-.43.535-.88.823-1.346.142-.237.291-.473.44-.728l.226-.364c.079-.114.146-.236.2-.364a.831.831 0 00-.138-.775 1.1 1.1 0 00-.339-.266l-.4-.244-1.656-1.019-7.363-4.538a.813.813 0 00-1.121.265l-.145.24-.299.481-1.161 1.889-2.184 3.548-.527.82a.833.833 0 00.018.83.855.855 0 00.309.294c.131.08.262.16.39.244l.768.473 2.791 1.74 4.036 2.525 1.092.696c.117.08.211.138.284.185.073.047.095.066.091.07a.501.501 0 01-.102-.052l-.291-.17-1.092-.663-4.069-2.479-2.806-1.717-.768-.474-.393-.24a1.032 1.032 0 01-.364-.345 1.004 1.004 0 01-.025-1.001l.516-.841 2.184-3.556 1.158-1.878.294-.477.15-.24a1.008 1.008 0 011.383-.328l7.355 4.55 1.634 1.034.401.247c.139.076.263.179.363.302a.989.989 0 01.161.928 1.972 1.972 0 01-.219.4l-.229.364c-.149.244-.298.48-.444.728-.288.466-.568.914-.834 1.34l-2.547 4.036c-.077.12-.138.233-.215.338a.952.952 0 01-.808.364.885.885 0 01-.327-.09.501.501 0 01-.066-.08z" fill="#E0E0E0"/><path d="M118.663 9.752l.674 1.346a.366.366 0 01-.008.39.364.364 0 01-.356.16l-1.533-.048-1.492-.047a.367.367 0 01-.34-.195.366.366 0 01.034-.39l.841-1.286.848-1.295a.363.363 0 01.534-.121c.056.04.1.096.125.16l.673 1.326z" fill="#E0E0E0"/><path d="M174.674 159.838c0 .055-39.099.095-87.337.095-48.238 0-87.337-.04-87.337-.095s39.091-.095 87.337-.095 87.337.044 87.337.095z" fill="#263238"/><path d="M117.517 30.573H62.203v129.265h55.314V30.573z" fill="#2B3A8C"/><path opacity=".3" d="M77.326 30.573H62.203v129.265h15.123V30.573z" fill="#000"/><path d="M92.575 36.029v-1.034l-.502.845h-.248l-.498-.816v1.005h-.51v-1.933h.455l.684 1.128.67-1.128h.455v1.951l-.506-.018zm1.944-.699v.699h-.553v-.706l-.728-1.245h.582l.462.775.462-.775h.535l-.76 1.252zm2.249-.826v.43h.862v.429h-.862v.666h-.553v-1.933h1.532v.426l-.98-.018zm1.237-.408h.55v1.951h-.55v-1.95zm.943 0h.553v1.514h.932v.437h-1.485v-1.95zm3.268 1.507v.426h-1.565v-1.933h1.529v.426h-.986v.302h.866v.411h-.866v.364l1.022.004zm.171.251l.179-.407c.192.123.415.19.644.192.229 0 .32-.061.32-.156 0-.31-1.092-.084-1.092-.812 0-.364.284-.63.863-.63.247-.003.49.055.71.168l-.171.411a1.132 1.132 0 00-.539-.149c-.233 0-.317.077-.317.175 0 .298 1.092.073 1.092.793 0 .342-.284.63-.862.63a1.534 1.534 0 01-.827-.215z" fill="#F0F0F1"/><path d="M115.526 64.992v-1.834c0-1.194 0-2.937-.022-5.172 0-4.462-.022-10.864-.04-18.638l.076.077H79.458l.095-.095v25.644l-.084-.087 26.012.043 7.413.022h2.657-2.62l-7.396.026-26.066.04h-.113V39.195h36.261v.077c0 7.796-.029 14.194-.04 18.685v6.504c0 .31-.051.531-.051.531z" fill="#263238"/><path opacity=".3" d="M105.168 55.11h-14.69v2.487h14.69V55.11z" fill="#000"/><path d="M102.467 44.05h-7.573c-.5 0-.907.406-.907.907v5.379c0 .5.406.906.907.906h7.573a.907.907 0 00.907-.906v-5.38c0-.5-.406-.906-.907-.906z" fill="#F0F0F1"/><path d="M102.766 50.176a2.315 2.315 0 01-.339-.364l-.87-.997-.593-.703-.16-.193a.17.17 0 00-.16-.05c-.062 0-.095.05-.16.127l-.186.207-.364.422a.404.404 0 01-.305.182.364.364 0 01-.27-.12l-.05-.058-.82-.946-.433-.484-.2-.237a.164.164 0 00-.255 0l-.09.12-.183.23-.364.45-1.219 1.555-.837 1.037c-.098.13-.206.252-.324.364a2.31 2.31 0 01.266-.411l.79-1.074 1.186-1.576.364-.455c.058-.076.117-.156.178-.233l.091-.12a.327.327 0 01.168-.116.364.364 0 01.364.109l.204.236.415.48.815.95c.109.157.236.154.364 0l.385-.421.186-.2a.436.436 0 01.258-.179.33.33 0 01.31.11l.16.196c.207.255.397.495.575.728l.823 1.048c.104.12.198.25.28.386zm-2.384-4.069c-.018 0-.022-.07-.062-.179a.756.756 0 00-.287-.386.73.73 0 00-.666-.083.692.692 0 000 1.295.728.728 0 00.666-.083.762.762 0 00.287-.382c.04-.113.044-.182.062-.182.018 0 .029.069 0 .2a.786.786 0 01-.28.473.84.84 0 01-.805.138.859.859 0 01.421-1.658.836.836 0 01.384.177.779.779 0 01.28.473c.029.138.007.197 0 .197z" fill="#263238"/><path opacity=".4" d="M110.478 66.921H79.022v24.44h31.456V66.92z" fill="#000"/><path d="M97.452 67.85h-5.98l-.364-.601a1.318 1.318 0 00-1.135-.652h-4.397a1.313 1.313 0 00-1.31 1.252h-1.569a1.23 1.23 0 00-1.23 1.23v3.047h17.215v-3.047a1.23 1.23 0 00-1.23-1.23z" fill="#E0E0E0"/><path d="M100.607 67.85h-5.965l-.364-.601a1.31 1.31 0 00-1.132-.652h-4.41a1.317 1.317 0 00-1.315 1.252h-1.568a1.23 1.23 0 00-1.23 1.23v3.047h17.215v-3.047a1.23 1.23 0 00-1.231-1.23z" fill="#EBEBEB"/><path d="M104.709 67.85h-5.976l-.364-.601a1.307 1.307 0 00-1.132-.652h-4.414a1.313 1.313 0 00-1.31 1.252H89.94a1.23 1.23 0 00-1.23 1.23v3.047h17.215v-3.047a1.233 1.233 0 00-1.216-1.23z" fill="#F5F5F5"/><path d="M90.84 83.75V69.094a1.27 1.27 0 011.32-1.208h1.263a1.337 1.337 0 001.201-.706l.27-.54a1.336 1.336 0 011.2-.701h5.995a1.35 1.35 0 011.135.593l.295.458a1.354 1.354 0 001.139.594h7.643a1.27 1.27 0 011.321 1.212V83.75H90.839z" fill="#2B3A8C"/><path opacity=".3" d="M90.84 83.75V69.094a1.27 1.27 0 011.32-1.208h1.263a1.336 1.336 0 001.201-.706l.27-.54a1.337 1.337 0 011.2-.701h5.995a1.348 1.348 0 011.135.593l.295.458a1.354 1.354 0 001.139.594h7.643a1.27 1.27 0 011.322 1.212V83.75H90.839z" fill="#000"/><path d="M95.629 71.813V60.232a1.725 1.725 0 011.725-1.725h18.438a1.727 1.727 0 011.725 1.725v11.26l-21.888.32z" fill="#F0F0F1"/><path d="M96.35 75.19V60.534a1.267 1.267 0 011.32-1.209h1.263a1.335 1.335 0 001.198-.702l.273-.542a1.336 1.336 0 011.197-.703h5.994a1.342 1.342 0 011.14.597l.294.455a1.347 1.347 0 001.136.597h7.643a1.268 1.268 0 011.321 1.208V75.19h-22.78z" fill="#2B3A8C"/><path d="M96.35 75.19h1.684l4.684-.022 16.411-.043-.087.087v-14.62a5.09 5.09 0 000-.524 1.125 1.125 0 00-.572-.782 1.258 1.258 0 00-.44-.15 3.58 3.58 0 00-.488 0h-7.352a1.515 1.515 0 01-.495-.076 1.393 1.393 0 01-.771-.604l-.251-.393a1.224 1.224 0 00-.291-.317 1.31 1.31 0 00-.808-.258h-6.148a1.31 1.31 0 00-.702.316c-.382.331-.422 1.005-.924 1.336a1.487 1.487 0 01-.787.273h-.79c-.253-.007-.507 0-.76.018a1.28 1.28 0 00-.644.288c-.18.15-.306.352-.364.578-.035.234-.046.47-.033.706v2.763c0 3.52-.029 6.369-.036 8.349v.044c0-1.984-.022-4.845-.037-8.371v-2.781a3.747 3.747 0 01.033-.728c.065-.257.209-.487.411-.659a1.43 1.43 0 01.728-.323c.26-.022.522-.03.783-.022h.706c.253-.01.497-.096.702-.244.444-.284.462-.903.906-1.325.221-.2.498-.327.794-.364.302-.03.571 0 .859 0h5.31c.33-.006.652.098.917.295.133.1.246.223.335.364l.251.39c.153.253.394.442.677.53.141.047.288.069.437.066h7.33c.17-.014.342-.014.513 0a1.5 1.5 0 01.509.171 1.303 1.303 0 01.663.914 4.31 4.31 0 010 .556V75.31h-.084l-16.48-.087h-6.3v-.033z" fill="#263238"/><path d="M106.766 58.7c-.803.095-1.613.127-2.421.094-.808.033-1.617.001-2.42-.095a15.752 15.752 0 012.42-.094 15.77 15.77 0 012.421.094z" fill="#F0F0F1"/><path d="M103.439 81.348V66.692c0-.666.67-1.208 1.492-1.208h1.431a1.541 1.541 0 001.354-.707l.305-.538a1.546 1.546 0 011.358-.703h6.773a1.585 1.585 0 011.285.594l.335.458a1.59 1.59 0 001.284.593h8.637c.823 0 1.492.543 1.492 1.212v14.955h-25.746z" fill="#2B3A8C"/><path d="M103.439 81.348h1.911l5.306-.047 18.515-.04-.088.087V66.291a1.087 1.087 0 00-.538-.778 1.71 1.71 0 00-.987-.237h-8.371a1.934 1.934 0 01-1.019-.23 1.517 1.517 0 01-.411-.334c-.109-.142-.196-.27-.298-.408a1.397 1.397 0 00-.728-.575 2.427 2.427 0 00-.936-.102h-6.518a1.63 1.63 0 00-.793.251 1.369 1.369 0 00-.303.273 3.895 3.895 0 00-.218.364c-.073.128-.138.248-.218.364a1.388 1.388 0 01-.31.328c-.238.177-.517.29-.811.327-.575.037-1.092 0-1.653 0a1.521 1.521 0 00-1.303.623 1.094 1.094 0 00-.156.695v2.206c0 3.777-.026 6.838-.036 8.96v.044c0-2.13-.022-5.198-.037-8.99v-2.213c-.025-.27.037-.542.179-.775a1.647 1.647 0 011.426-.692c.535 0 1.092 0 1.631-.021.264-.035.515-.138.728-.299a1.88 1.88 0 00.484-.659c.069-.126.147-.247.233-.364.096-.122.211-.228.342-.313.26-.167.56-.264.87-.28h6.536a2.69 2.69 0 01.997.113c.331.119.613.344.801.64.095.132.197.274.291.397.103.119.226.218.364.291.284.155.606.225.928.204h8.371c.382-.023.762.068 1.092.262a1.275 1.275 0 01.63.921V81.45h-.088l-18.561-.044-5.296-.025h-1.878l-.08-.033z" fill="#263238"/><path d="M115.857 65.058a27.364 27.364 0 01-3.195.094 27.494 27.494 0 01-3.2-.094 26.577 26.577 0 013.2-.095 26.453 26.453 0 013.195.095z" fill="#F0F0F1"/><path d="M101.914 71.805H79.022V91.54h22.892V71.805z" fill="#2B3A8C"/><path opacity=".3" d="M101.914 71.805H79.022V91.54h22.892V71.805z" fill="#2B3A8C"/><path d="M138 66.597h-36.086v25.644H138V66.597z" fill="#2B3A8C"/><path d="M137.996 92.241v-1.83c0-1.194 0-2.941-.021-5.172 0-4.466-.022-10.864-.041-18.642l.077.08h-36.082l.094-.094v25.644l-.083-.088 26.011.044 7.414.026h2.657-2.621l-7.395.021-26.085.099h-.087V66.488h.087l36.083.018h.08v.077c-.018 7.796-.033 14.216-.04 18.689 0 2.223 0 3.963-.022 5.153v1.347c0 .31-.026.47-.026.47z" fill="#263238"/><path opacity=".3" d="M130.273 83.492h-16.741v2.486h16.741v-2.486z" fill="#000"/><path d="M125.145 73.873h-7.574c-.5 0-.906.405-.906.906v5.379c0 .5.406.906.906.906h7.574a.906.906 0 00.906-.906v-5.38c0-.5-.405-.905-.906-.905z" fill="#F0F0F1"/><path d="M118.663 76.002h1.918v.644h-.098a.583.583 0 00-.258-.466.808.808 0 00-.364-.076v1.666a.323.323 0 00.062.233c.076.05.168.07.258.059v.08h-1.139v-.08a.362.362 0 00.247-.059.324.324 0 00.055-.11.317.317 0 00.007-.123v-1.68a.827.827 0 00-.364.075.532.532 0 00-.258.466h-.066v-.63zm5.481.171c-.999.126-2.01.126-3.009 0 .494-.096 1-.127 1.503-.095.504-.033 1.01 0 1.506.095zm.059 1.343c-.999.13-2.011.13-3.01 0 .999-.126 2.01-.126 3.01 0zm.404 1.346c-.933.096-1.87.128-2.807.095-.936.033-1.874.001-2.806-.095a21.14 21.14 0 012.806-.094c.937-.03 1.874 0 2.807.094zm-9.081 41.939v-1.831c0-1.194 0-2.941-.022-5.172 0-4.462-.022-10.864-.04-18.638l.076.077-36.096.003.094-.094v25.64l-.084-.084 26.012.04 7.414.026h2.657-2.621l-7.395.022-26.067.043h-.098V95.011h.099l36.082.018h.08v.077c0 7.795-.029 14.212-.04 18.685v6.5c0 .309-.051.51-.051.51z" fill="#263238"/><path opacity=".3" d="M105.743 110.923H90.479v2.486h15.264v-2.486z" fill="#000"/><path d="M102.162 101.26h-7.574c-.5 0-.906.406-.906.906v5.379c0 .501.405.907.906.907h7.574c.5 0 .906-.406.906-.907v-5.379c0-.5-.406-.906-.906-.906z" fill="#F0F0F1"/><path d="M97.721 105.93a.56.56 0 01-.843.182.559.559 0 01-.01-.863.557.557 0 01.853.681z" fill="#263238"/><path d="M97.736 105.729a3.132 3.132 0 01-.186-1.281c-.03-.43-.01-.863.062-1.288.12.417.164.852.131 1.285a7.41 7.41 0 01-.007 1.284z" fill="#263238"/><path d="M99.374 103.484a1.538 1.538 0 01-1.616-.04c-.15-.113-.19-.233-.168-.244.022-.011.095.058.24.131.194.089.4.143.612.16.506.051.932-.065.932-.007zm.113 2.769a.555.555 0 01-.837.177.55.55 0 01-.01-.855.555.555 0 01.907.471.552.552 0 01-.06.207z" fill="#263238"/><path d="M99.501 106.053a3.138 3.138 0 01-.186-1.281c-.032-.43-.01-.863.066-1.288.115.418.158.852.127 1.284.035.428.033.858-.007 1.285z" fill="#263238"/><path d="M99.4 103.862a1.453 1.453 0 01-1.726-.094c.03-.048.386.12.859.142.473.021.84-.102.866-.048zm16.126 44.85v-1.83c0-1.198 0-2.941-.022-5.176 0-4.462-.022-10.864-.04-18.638l.076.077-36.082.018.095-.095v25.644l-.084-.087 26.012.044 7.413.022h2.657-2.62l-7.396.025-26.066.04h-.113v-25.822h.099l36.082.018h.08v.076c0 7.796-.029 14.213-.04 18.686v6.503c0 .31-.051.495-.051.495z" fill="#263238"/><path opacity=".3" d="M105.743 138.831H90.479v2.486h15.264v-2.486z" fill="#000"/><path d="M102.162 129.077h-7.574c-.5 0-.906.406-.906.906v5.379c0 .501.405.907.906.907h7.574c.5 0 .906-.406.906-.907v-5.379c0-.5-.406-.906-.906-.906z" fill="#F0F0F1"/><path d="M98.879 131.883l.728.43a.212.212 0 01.1.182.216.216 0 01-.1.182l-.728.458-.728.444a.211.211 0 01-.11.031.212.212 0 01-.191-.107.217.217 0 01-.03-.109v-1.758a.217.217 0 01.106-.19.218.218 0 01.218 0l.735.437z" fill="#263238"/><path d="M168.525 26.453a1.207 1.207 0 01-1.444 1.185 1.207 1.207 0 01-.436-2.19 1.211 1.211 0 011.526.15c.227.227.354.535.354.855z" fill="#F0F0F1"/><path d="M168.525 26.453s-.018-.105-.073-.284a1.205 1.205 0 00-.444-.622 1.145 1.145 0 00-1.074-.146 1.123 1.123 0 00-.53 1.695 1.124 1.124 0 001.085.473c.187-.025.365-.096.519-.206.211-.154.367-.373.444-.622.055-.179.058-.288.073-.288.028.1.028.206 0 .306a1.21 1.21 0 01-.437.728 1.272 1.272 0 01-1.835-.269 1.29 1.29 0 01.623-1.962 1.264 1.264 0 011.212.2c.228.182.383.44.437.728a.558.558 0 010 .27z" fill="#263238"/><path d="M178.999 28.106c5.522 0 9.998-4.477 9.998-9.998 0-5.522-4.476-9.998-9.998-9.998-5.521 0-9.997 4.476-9.997 9.998 0 5.521 4.476 9.998 9.997 9.998z" fill="#F0F0F1"/><path d="M188.997 18.108a1.5 1.5 0 01-.018-.164l-.033-.473c0-.104-.007-.226-.022-.364 0-.127-.04-.266-.065-.415a7.086 7.086 0 00-.211-1.03 9.448 9.448 0 00-1.11-2.65 9.918 9.918 0 00-13.19-3.646c-.211.113-.411.247-.619.364a4.72 4.72 0 00-.597.41c-.394.294-.77.613-1.124.954a11.84 11.84 0 00-.987 1.165 9.542 9.542 0 00-1.415 2.73 10.542 10.542 0 00-.514 3.126c.018 1.059.195 2.11.525 3.116a9.566 9.566 0 001.415 2.733c.296.404.62.787.968 1.146.354.344.729.664 1.125.957.188.153.388.29.597.412.207.123.408.255.619.364.417.217.849.407 1.292.567a9.96 9.96 0 005.208.434 9.963 9.963 0 006.697-4.666 9.425 9.425 0 001.11-2.646 7.1 7.1 0 00.211-1.03c.025-.15.051-.288.065-.415.015-.128 0-.244.022-.364l.033-.477a1.45 1.45 0 01.018-.16 1.07 1.07 0 010 .16v.841c0 .138-.036.27-.055.419-.038.35-.104.699-.196 1.04a9.471 9.471 0 01-1.092 2.683 10.072 10.072 0 01-6.769 4.768c-1.772.333-3.6.186-5.296-.426a10.734 10.734 0 01-1.317-.575c-.215-.117-.419-.252-.63-.364a5.696 5.696 0 01-.612-.419 11.49 11.49 0 01-1.142-.972 11.45 11.45 0 01-.994-1.168 9.86 9.86 0 01-1.456-2.78 10.848 10.848 0 01-.549-3.185c.013-1.082.189-2.156.524-3.185.33-1 .821-1.94 1.456-2.78.302-.413.633-.803.99-1.169.359-.35.742-.674 1.146-.971.195-.154.4-.294.615-.419.211-.124.415-.258.63-.364.424-.23.863-.43 1.314-.6a10.017 10.017 0 019.524 1.455 9.935 9.935 0 012.548 2.868c.5.834.868 1.74 1.092 2.686.091.34.157.687.196 1.038.018.152.044.294.055.422.011.127 0 .244 0 .364v.477c.011.058.017.118.018.178z" fill="#263238"/><path d="M178.461 20.175a3.027 3.027 0 01-2.963-3.617 3.025 3.025 0 015.991.593 3.031 3.031 0 01-3.028 3.024zm0-5.685a2.66 2.66 0 10.007 5.32 2.66 2.66 0 00-.007-5.32z" fill="#263238"/><path d="M180.184 19.418l-.295.214 1.735 2.389.294-.214-1.734-2.389z" fill="#263238"/><path d="M177.016 16.033a1.734 1.734 0 00-.025 2.1c.149.202.34.37.56.491" fill="#F0F0F1"/><path d="M177.551 18.625c0 .022-.182-.03-.401-.211a1.695 1.695 0 01-.414-2.028c.127-.254.265-.363.28-.363.014 0-.069.156-.157.403a1.82 1.82 0 00.401 1.89c.163.192.305.283.291.309zm-9.456 32.42c-.546-9.746-4.899-14.277-6.187-21.895-.641-3.825-.477-7.741-3.188-10.51-.979-1.002-2.795-2.028-4.182-2.185-.761-.094-1.936-.065-2.624.259-1.285-.19-1.864-.251-2.766 0-1.07.298-2.548 1.125-3.276 1.983-1.932 2.359-2.333 5.602-2.362 8.652a50.689 50.689 0 002.035 14.58c.082.464.321.886.677 1.197.418.284.971.23 1.455.15 1.897-.3 3.76-.786 5.562-1.45a1.77 1.77 0 00.695-.385c.495-.503.287-1.329.062-1.995l4.938-4.225c-.327 2.937-1.273 5.776-1.692 8.702-.5 3.51-.235 7.087.779 10.485a16.065 16.065 0 015.823-.13c.466.076 1.219 3.74 1.631 3.511.695-.4 2.686-5.932 2.62-6.744z" fill="#263238"/><path d="M150.567 18.81l1.401-.156 5.351 2.154a1.499 1.499 0 011.412 1.456l-.033 17.415a4.868 4.868 0 01-.946 3.148l-.75.994c-1.714 2.26-5.241 2.075-6.595-.418a1.803 1.803 0 01-.189-.452 3.047 3.047 0 01-.08-.39 12.5 12.5 0 01-.171-2.62c-.095-1.54-.124-2.183-.124-2.158 0 .026-3.276-.364-4.167-4.582-.441-2.093-.506-5.558-.47-8.393.026-2.551 2.209-5.998 5.361-5.998z" fill="#FFBE9D"/><path d="M146.207 28.124a.546.546 0 00.553.513.517.517 0 00.535-.517.545.545 0 00-.549-.524.52.52 0 00-.499.323.534.534 0 00-.04.205zm5.445-.342a.549.549 0 00.553.524.52.52 0 00.493-.319.52.52 0 00.042-.202.545.545 0 00-.553-.52.514.514 0 00-.494.314.52.52 0 00-.041.203zm-5.645-1.223c.069.065.466-.259 1.052-.288.586-.03 1.03.244 1.092.171.062-.073-.044-.16-.241-.287a1.51 1.51 0 00-.873-.222 1.433 1.433 0 00-.833.316c-.179.15-.244.28-.197.31zm5.554-.302c.073.065.459-.273 1.045-.317.585-.044 1.033.215 1.091.138.059-.076-.051-.156-.247-.28a1.508 1.508 0 00-.881-.196 1.457 1.457 0 00-.826.342c-.167.145-.218.284-.182.313zm-1.66 4.563a4.049 4.049 0 00-.961-.123c-.149 0-.291-.03-.323-.131a.755.755 0 01.08-.448l.382-1.16c.535-1.65.91-3.007.844-3.025-.065-.018-.553 1.3-1.092 2.951-.127.408-.251.794-.364 1.165a.868.868 0 00-.047.59.367.367 0 00.258.207c.084.02.17.026.255.022.324.026.649.01.968-.047z" fill="#263238"/><path d="M149.843 37.769a10.806 10.806 0 005.605-1.82s-1.281 3.01-5.547 2.824l-.058-1.005zm.375-5.551a1.058 1.058 0 01.928-.437.957.957 0 01.681.324.622.622 0 01.083.696.724.724 0 01-.76.232 2.235 2.235 0 01-.768-.41.642.642 0 01-.179-.165.201.201 0 010-.218" fill="#EB996E"/><path d="M151.645 31.14c-.099 0-.066.634-.586 1.115-.521.48-1.201.44-1.205.53-.004.092.16.114.444.11.372-.015.727-.16 1.005-.408.266-.239.428-.574.451-.931.029-.266-.066-.422-.109-.415zm-.088-7.009c.088.146.575-.054 1.19-.116.616-.062 1.14 0 1.183-.16.018-.073-.102-.2-.331-.302a1.837 1.837 0 00-.935-.128 1.76 1.76 0 00-.87.339c-.197.142-.277.302-.237.367zm-5.677.208c.109.127.506-.03.99-.062.484-.033.899.047.986-.098.04-.07-.033-.2-.218-.317a1.432 1.432 0 00-1.594.131c-.164.146-.215.277-.164.346z" fill="#263238"/><path d="M157.901 29.39c0-.316.313-1.092.622-1.143.827-.17 2.33-.178 2.45 1.937.164 2.89-2.77 2.456-2.781 2.376a91.69 91.69 0 01-.291-3.17z" fill="#FFBE9D"/><path d="M159.015 31.414s.05.033.138.066a.5.5 0 00.364 0c.302-.128.531-.627.513-1.15a1.676 1.676 0 00-.182-.728.577.577 0 00-.4-.364.257.257 0 00-.288.156c-.036.08 0 .138-.029.146-.029.007-.062-.048-.047-.168a.32.32 0 01.102-.185.363.363 0 01.276-.091.71.71 0 01.55.418c.138.244.215.517.222.797 0 .582-.255 1.143-.666 1.289a.526.526 0 01-.462-.051c-.084-.066-.102-.128-.091-.135z" fill="#EB996E"/><path d="M159.426 25.056c.2-1.15-.233-2.766-.531-3.895a4.22 4.22 0 00-1.733-2.27 7.041 7.041 0 00-4.367-1.318l-.579.19c-.852-.07-1.769.112-2.238.8l-.018.022v-.794c-1.555.19-2.912 1.223-3.815 2.504-.902 1.281-1.405 2.795-1.819 4.31 1.91-1.711 3.981-3.6 5.575-5.616 1.671 2.183 4.142 3.588 6.399 5.222.4 1.064.581 2.198.531 3.334 0 2.839.6 5.405.823 8.24.127 1.63.116 3.028 1.787 2.886.218-5.244-.899-8.469-.015-13.615z" fill="#263238"/><path d="M161.337 24.837a2.67 2.67 0 01-.801.146 8.006 8.006 0 01-1.965-.08 9.006 9.006 0 01-1.889-.543 2.824 2.824 0 01-.728-.363c.025-.066 1.157.465 2.646.727.907.112 1.823.15 2.737.113zm-.455-1.554c-.155.01-.31 0-.463-.029a14.565 14.565 0 01-1.244-.186 21.468 21.468 0 01-4.004-1.179 21.334 21.334 0 01-3.683-1.936 17.185 17.185 0 01-1.026-.728 2 2 0 01-.364-.302c.139.067.271.149.393.244.244.167.604.4 1.055.677a24.703 24.703 0 003.724 1.878c1.279.514 2.598.922 3.945 1.22.517.116.939.2 1.23.247.148.018.294.05.437.094zm-15.708.339c-.175.297-.401.56-.67.775-.404.393-.761.68-.797.64.172-.294.398-.555.666-.767.223-.265.495-.485.801-.648z" fill="#000"/><path d="M149.876 42.831c.32-.56.076-2.872.076-2.872l-.746 1.354c-1.583.615-3.763 1.493-4.367 1.922-.914.64-2.151 3.341-2.151 3.341l-7.643 9.674-14.307-2.504-1.347 7.155 4.83 1.001 8.484 1.092c2.384.517 4.706.706 6.573-.859l.127-.247c-.673 9.644.255 20.275.571 29.938a5.246 5.246 0 00.404 2.213c.484.954 2.29 1.456 3.352 1.314 1.063-.142.728-.819.95-1.863.124-.572-.411-1.365-.484-1.947l-3.115-25.179c-.037-.517-.069-.997-.106-1.423-.364-4.436-.418-5.638-.225-7.668.316-3.134 6.947-10.646 9.124-14.442z" fill="#8CBF43"/><path d="M141.887 49.084a2.73 2.73 0 01-.218.436c-.153.27-.364.67-.605 1.172a19.941 19.941 0 00-1.969 8.404c0 .557 0 1.008.022 1.318.017.162.017.325 0 .487a2.297 2.297 0 01-.076-.48 14.287 14.287 0 01-.077-1.325 17.98 17.98 0 01.47-4.367 18.176 18.176 0 011.51-4.11 12.8 12.8 0 01.663-1.153 2.18 2.18 0 01.28-.382z" fill="#263238"/><path opacity=".3" d="M140.864 50.754c-1.117 1.613-2.147 3.345-2.638 5.252-.492 1.907-.179 2.988-.222 4.99l1.146.258c-.244-3.588-.105-5.957 1.714-10.5z" fill="#000"/><path d="M140.457 56.006a.667.667 0 010-.189c.019-.18.049-.358.087-.535.151-.647.345-1.283.582-1.903a56.989 56.989 0 012.719-5.97 84.48 84.48 0 01.994-1.87l.025-.047h.051l1.205-.022-.077.124a1.197 1.197 0 00-.469-.532l-.084-.05.062-.077a28.29 28.29 0 012.588-2.712c.334-.305.607-.542.797-.695.092-.086.193-.163.302-.229a2.19 2.19 0 01-.266.27l-.764.727a33.586 33.586 0 00-2.526 2.748l-.022-.127c.237.143.426.353.542.604l.055.12h-.135l-1.201.033.077-.047a95.647 95.647 0 00-.987 1.866c-1.168 2.272-2.154 4.368-2.758 5.93-.247.612-.46 1.238-.637 1.874-.099.455-.142.71-.16.71z" fill="#263238"/><path d="M154.96 142.652l4.692 7.545s-6.1 7.305-5.372 8.786l14.973-8.564-6.828-12.068-7.465 4.301z" fill="#2B3A8C"/><path d="M163.91 146.921a.729.729 0 01.822.459.68.68 0 01-.444.819.75.75 0 01-.869-.488.704.704 0 01.556-.8" fill="#E0E0E0"/><path opacity=".6" d="M169.253 150.419l-.728-1.19-14.082 8.666s-.498.669-.156 1.092l14.966-8.568z" fill="#F0F0F1"/><path d="M159.364 150.266c.047.073.429-.102.924-.073.495.03.863.226.914.157.051-.069-.302-.426-.899-.451-.597-.026-.994.298-.939.367zm-1.197 1.551c.025.08.411.022.837.189s.684.455.757.408c.073-.048-.12-.484-.655-.681-.535-.197-.976.011-.939.084zm.185 2.384c.073-.022-.032-.444-.451-.728-.419-.284-.848-.255-.844-.175.003.08.338.171.677.415.338.244.542.528.618.488zm.135-5.773c.069.048.346-.243.775-.455.43-.211.826-.262.83-.345.004-.084-.459-.168-.961.083s-.713.666-.644.717z" fill="#263238"/><path d="M155.612 145.753l.506 8.877s-8.855 3.497-8.921 5.146l17.248-.364-.222-13.866-8.611.207z" fill="#2B3A8C"/><path d="M161.435 153.771a.701.701 0 01.502.794.681.681 0 01-.782.509.726.726 0 01-.528-.844.698.698 0 01.873-.437" fill="#E0E0E0"/><path opacity=".6" d="M164.445 159.416l-.077-1.397-16.508.869s-.761.364-.663.888l17.248-.36z" fill="#F0F0F1"/><path d="M155.834 154.564c0 .084.426.113.848.364.422.252.648.612.728.579.08-.033-.059-.52-.572-.83-.513-.309-1.022-.204-1.004-.113zm-1.795.772c0 .084.364.218.645.568.28.349.385.728.469.728.084 0 .128-.484-.247-.914-.375-.429-.863-.462-.867-.382zm-.979 2.187c.077 0 .186-.407-.04-.862-.225-.455-.626-.633-.658-.564-.033.069.214.313.393.691.178.379.222.728.305.735zm2.883-5.007c.036.072.422-.051.899-.03.477.022.851.168.891.095.04-.073-.32-.364-.88-.386-.561-.022-.95.255-.91.321zM142.746 79.43s-.79 37.782-.076 40.399c.713 2.617 15.3 29.356 15.3 29.356l8.811-4.327-11.686-28.236 2.595-36.304-14.944-.888z" fill="#263238"/><path d="M162.072 77.32s5.066 8.268 4.167 13.233c-.364 2.034-3.137 6.55-3.137 6.55v24.225l2.147 32.323h-10.285l-4.407-28.512s-1.544-2.617-2.14-4.877c-.597-2.26-2.523-28.952-2.523-28.952l-3.075-10.857 19.253-3.134z" fill="#263238"/><path d="M164.234 136.574a4.075 4.075 0 000 .681c0 .437.047 1.07.091 1.849.087 1.565.244 3.72.422 6.1.178 2.38.338 4.535.437 6.096.051.753.094 1.376.123 1.849.006.227.029.453.07.677a4.553 4.553 0 000-.681c0-.44-.022-1.092-.055-1.852-.062-1.565-.197-3.724-.364-6.104-.167-2.38-.364-4.498-.488-6.096-.062-.75-.116-1.372-.156-1.845a4.133 4.133 0 00-.08-.674zm-3.258-55.026a1.614 1.614 0 01-.276.313 6.14 6.14 0 01-.881.728 7.018 7.018 0 01-7.163.419 5.906 5.906 0 01-.957-.604 1.531 1.531 0 01-.309-.277c.022-.033.473.364 1.328.76a7.28 7.28 0 007.028-.41c.797-.517 1.205-.954 1.23-.929zm-14.994 7.603c.009.045.015.09.018.135 0 .098.018.226.033.39.025.363.062.862.109 1.506l.382 5.547c.328 4.684.728 11.155 1.365 18.288.087.972.182 1.929.295 2.868.061.47.109.939.211 1.38.119.442.262.877.429 1.303.637 1.707 1.314 3.315 1.958 4.826l1.671 10.736c.215 1.3.382 2.33.498 3.047.062.342.11.611.142.804.026.091.046.183.059.277a2.11 2.11 0 01-.084-.27c-.04-.182-.106-.451-.171-.8-.138-.703-.324-1.733-.546-3.039a799.897 799.897 0 01-1.74-10.726v.025a105.654 105.654 0 01-1.972-4.829 11.826 11.826 0 01-.437-1.318c-.109-.469-.157-.935-.219-1.405a87.271 87.271 0 01-.294-2.875c-.626-7.137-1.019-13.612-1.311-18.296l-.32-5.55-.076-1.51v-.394a.802.802 0 010-.12z" fill="#000"/><path d="M149.992 41.561s-.109 1.66 1.234 1.66c1.893 0 5.863-3.64 5.863-3.64l-7.643 18.241v22.06l-6.474.68s-.757-.11-.91-1.2c-.306-2.137-.262-6.032-.51-7.644-.768-4.986-2.282-7.701-2.071-11.646.321-5.871 8.579-16.014 8.579-16.014l1.932-2.497z" fill="#F0F0F1"/><path d="M157.97 37.281a49.306 49.306 0 01-3.192 5.186C153.13 44.764 142.662 60.8 142.662 60.8l4.182 32.53.466 2.755a1.372 1.372 0 001.093 1.126c.182.035.37.034.552-.005l18.489-3.25a1.675 1.675 0 001.374-1.441c.03-.236.009-.476-.06-.703l-8.24-23.206 5.328-20.592s-.193-2.995-3.439-6.038c-.619-.579-3.174-2.697-3.592-3.276l-.845-1.419z" fill="#8CBF43"/><path opacity=".3" d="M143.976 71.012s8.509 6.748 12.655 6.813c4.145.066 6.296-3.447 6.296-3.447l-8.334.23-10.919-6.002.302 2.406z" fill="#000"/><path d="M137.658 64.624s7.679 5.074 9.099 6.035c1.419.96 8.12 4.851 8.993 5.135.874.284 6.293.317 7.279-1.525.986-1.842 1.663-5.772 1.663-5.772l1.318-18.387a7.387 7.387 0 00-1.321-4.812c-.794-1.12-1.842-2.132-2.977-1.965-2.421.364-7.625 6.213-7.374 9.22.251 3.005.255 11.38.255 11.38l-13.71-4.539-3.225 5.23z" fill="#8CBF43"/><path d="M164.689 45.277a7 7 0 01.833 1.481c.257.629.426 1.29.502 1.966.063.913.042 1.83-.062 2.74-.287 4.098-.691 9.932-1.175 16.913-.138.786-.307 1.58-.506 2.384-.195.82-.438 1.628-.728 2.42a4.992 4.992 0 01-.582 1.18 2.88 2.88 0 01-1.048.833c-.816.4-1.693.66-2.595.768a11.08 11.08 0 01-2.781.076 3.895 3.895 0 01-1.379-.364c-.423-.215-.838-.444-1.256-.673a270.18 270.18 0 01-5.044-2.912c-2.031-1.179-3.92-2.511-5.798-3.741l-5.459-3.64-.073-.047.043-.076 3.232-5.325.037-.058.065.022 13.703 4.647-.084.055.659-8.007c.08-.928.142-1.645.182-2.137.022-.24.04-.422.051-.553.011-.13.025-.185.025-.185v.189c0 .124-.018.313-.032.553-.037.491-.088 1.212-.153 2.14-.138 1.874-.342 4.593-.601 8.007v.08l-.076-.025-13.725-4.612.099-.036a1333.516 1333.516 0 00-3.221 5.332l-.03-.12 5.46 3.621c1.881 1.227 3.763 2.548 5.79 3.73a208.8 208.8 0 005.037 2.912c.419.23.834.463 1.249.674.412.203.859.326 1.317.364.909.09 1.826.066 2.73-.07a8.04 8.04 0 002.547-.75 2.79 2.79 0 00.99-.778c.234-.354.422-.735.561-1.136.289-.785.532-1.588.728-2.402.196-.797.364-1.59.506-2.366.509-6.977.939-12.814 1.241-16.909.11-.904.138-1.816.083-2.726a7.315 7.315 0 00-1.033-3.075c-.069-.124-.131-.211-.171-.273l-.058-.091z" fill="#263238"/><path d="M144.995 57.182a.983.983 0 01.164-.193l.499-.539 1.819-1.976 2.73-2.912c1.048-1.092 2.165-2.307 3.487-3.465v.135l-.113-.124-.921-1.019-.153-.17h.226l1.714.09-.084.048a4418.74 4418.74 0 013.443-5.995c.426-.728.768-1.317 1.019-1.74l.281-.462a.9.9 0 01.105-.156.669.669 0 01-.076.17l-.255.478-.972 1.769c-.855 1.517-2.031 3.613-3.388 6.027l-.026.047h-.058l-1.711-.087.073-.157.925 1.023.109.12.065.073-.072.065c-1.3 1.14-2.432 2.362-3.48 3.44l-2.762 2.89a145.96 145.96 0 01-1.871 1.936c-.226.225-.4.4-.52.513a1.818 1.818 0 01-.197.17z" fill="#263238"/><path opacity=".3" d="M144.38 58.2l10.409-9.815-.884-.972h.884l.233-1.339-.582 1.03-1.714-.087 1.011.928-8.651 9.146-.706 1.11z" fill="#000"/><path d="M150.953 83.78c.057-.019.116-.033.175-.044l.527-.117 2.013-.418 7.013-1.427h.062l.033.055 1.936 3.148.069.116-.134.026-.226.043-10.234 1.922h-.051l-.018-.047-.874-2.406c-.091-.262-.167-.473-.222-.633a1.942 1.942 0 01-.069-.211c.038.074.071.15.098.229.066.16.153.364.259.637l.924 2.34-.069-.04 10.22-1.984.229-.043-.065.142-1.926-3.152.095.044-6.966 1.324-2.046.364-.553.099a1.453 1.453 0 01-.2.032z" fill="#263238"/><path opacity=".3" d="M151.069 84.085l.739 3.822 10.599-1.911-.299-.884-9.932 1.896-1.107-2.923z" fill="#000"/><path d="M157.268 67.132c-.051.025-.492-.848-1.285-1.74-.794-.891-1.594-1.455-1.561-1.495.658.33 1.239.796 1.703 1.368a5.13 5.13 0 011.143 1.867z" fill="#263238"/><path d="M119.107 55.29s-2.653-1.595-3.716-2.61c0 0-1.546-.488-2.256.487 0 0-1.638.451-1.86.757-.222.306-1.59 2.428-1.59 2.428s.727 2.53.793 2.653c.135.277.429.571.681.266a.54.54 0 00.12-.364v-.168l.4-.28s.175.983.706.83c.531-.153 1.725-1.037 1.725-1.037s1.682.957 2.57 1.051c.981.168 1.953.387 2.911.656l.892-4.812-1.376.142z" fill="#FFBE9D"/><path d="M111.202 58.954s-.062.07-.211.04a.544.544 0 01-.364-.437 7.831 7.831 0 010-1.848c.065-.612.161-1.219.288-1.82a2.84 2.84 0 01.2-.728c.062 0-.146 1.154-.302 2.548-.069.597-.091 1.2-.066 1.801a.475.475 0 00.27.393c.109.066.182.037.185.051zm3.116-4.149a2.127 2.127 0 01-1.256.583l.076-.07-.021.091c-.087.486-.235.96-.441 1.409.024-.494.109-.983.255-1.456l.022-.095v-.058h.062a9.523 9.523 0 001.303-.404z" fill="#EB996E"/><path d="M116.48 55.136a1.31 1.31 0 00-1.456-.298l-.28.364-2.093 1.747c-.388.279-.709.64-.939 1.059a1.095 1.095 0 00.218 1.3c.426.33 1.067.145 1.485-.197.419-.342.728-.808 1.157-1.128.677-.495 1.66-.63 2.075-1.358a1.307 1.307 0 00-.167-1.489z" fill="#FFBE9D"/><path d="M114.856 54.477c.026.268-.039.536-.185.761-.14.252-.318.48-.528.677a6.27 6.27 0 01-.822.64c-.528.31-.997.713-1.383 1.187-.14.213-.261.437-.364.67a1.188 1.188 0 01.243-.728c.155-.242.344-.46.561-.648.262-.226.54-.433.83-.622.281-.187.551-.391.808-.612.204-.179.383-.386.531-.615.125-.226.229-.464.309-.71z" fill="#EB996E"/><path d="M125.4 62.885s.073-2.61.728-3.381c.655-.772 4.546-1.75 4.546-1.75l9.696 2.248-2.253 3.64-.681-.64s-3.068.913-4.578.574a17.07 17.07 0 01-2.646-.808l-1.58.11s-1.139 1.175-1.507 1.175c-.367 0-.771-.327-.589-.695l-.332-.553s-.655.407-.804.08z" fill="#FFBE9D"/><path d="M130.492 61.069c-.21.129-.447.21-.692.236-.571.068-1.137.178-1.692.331-.527.211-.96.607-1.216 1.114a3.78 3.78 0 01-.364.623c.043-.242.127-.475.248-.688.117-.242.266-.468.444-.67.224-.25.506-.442.822-.557a8.115 8.115 0 011.74-.287c.437-.048.699-.142.71-.102zm-.772-1.936c0 .029-.306.08-.786.247-.28.097-.554.21-.822.335-.329.14-.638.324-.918.546a2.13 2.13 0 00-.313.44c-.094.153-.178.31-.251.459a4.318 4.318 0 00-.313.822c-.127.484-.105.805-.142.805a1.695 1.695 0 010-.837 3.89 3.89 0 01.288-.867c.073-.156.153-.316.247-.476.091-.178.206-.342.342-.488a4.01 4.01 0 01.976-.564c.278-.12.564-.22.855-.302a2.11 2.11 0 01.837-.12z" fill="#EB996E"/></svg>