<svg width="189" height="136" fill="none" xmlns="http://www.w3.org/2000/svg"><g clip-path="url(#clip0)"><path d="M184.826 107.144h-21.394v28.073h21.394v-28.073z" fill="#F5F5F5"/><path d="M184.826 107.144h-10.031v28.073h10.031v-28.073zm-14.982 3.8h-1.924v4.65h1.924v-4.65zm0 18.202h-1.924v4.649h1.924v-4.649zm4.951-11.726c0 .04-2.544.072-5.68.072-3.135 0-5.691-.032-5.691-.072 0-.04 2.544-.072 5.683-.072 3.14 0 5.688.032 5.688.072zm-4.951 2.695h-1.924v4.65h1.924v-4.65zm4.951 6.471c0 .041-2.544.077-5.679.077-3.136 0-5.684-.036-5.684-.077 0-.04 2.544-.072 5.684-.072 3.139 0 5.679.036 5.679.072z" fill="#EBEBEB"/><path d="M178.848 110.944h-1.924v4.65h1.924v-4.65zm4.175 0h-1.924v4.65h1.924v-4.65zm-4.175 8.827h-1.924v4.649h1.924v-4.649zm4.175 0h-1.924v4.649h1.924v-4.649zm-4.175 8.822h-1.924v4.65h1.924v-4.65zm4.175 0h-1.924v4.65h1.924v-4.65zm3.413-22.427h-24.61v1.013h24.61v-1.013z" fill="#E0E0E0"/><path d="M184.975 107.276c0 .04-4.778.072-10.679.072-5.901 0-10.679-.032-10.679-.072 0-.04 4.782-.072 10.679-.072s10.679.032 10.679.072z" fill="#F5F5F5"/><path d="M139.687 36.227h-38.143v99.326h38.143V36.227z" fill="#EBEBEB"/><path d="M139.687 36.227h-19.071v99.326h19.071V36.227z" fill="#E0E0E0"/><path d="M119.368 24.421h-13.469v11.806h13.469V24.421z" fill="#EBEBEB"/><path d="M119.368 24.421h-3.208v11.806h3.208V24.421z" fill="#E0E0E0"/><path d="M140.798 35.538H98.364v.69h42.434v-.69z" fill="#E0E0E0"/><path d="M112.3 41.377h-3.229v6.772h3.229v-6.772z" fill="#fff"/><path d="M120.616 50.808c0 .069-4.271.129-9.536.129s-9.536-.06-9.536-.129c0-.068 4.271-.132 9.536-.132s9.536.06 9.536.132z" fill="#E0E0E0"/><path d="M131.536 41.377h-3.228v6.772h3.228v-6.772z" fill="#F5F5F5"/><path d="M139.852 50.808c0 .069-4.271.129-9.536.129s-9.535-.06-9.535-.129c0-.068 4.266-.132 9.535-.132s9.536.06 9.536.132z" fill="#EBEBEB"/><path d="M131.536 54.821h-3.228v6.772h3.228v-6.772z" fill="#F5F5F5"/><path d="M139.852 64.252c0 .073-4.271.133-9.536.133s-9.535-.06-9.535-.133c0-.072 4.266-.128 9.535-.128s9.536.056 9.536.128z" fill="#EBEBEB"/><path d="M131.536 68.674h-3.228v6.772h3.228v-6.772z" fill="#F5F5F5"/><path d="M139.852 78.093c0 .072-4.271.132-9.536.132s-9.535-.06-9.535-.132c0-.072 4.266-.128 9.535-.128s9.536.068 9.536.128z" fill="#EBEBEB"/><path d="M131.536 82.526h-3.228v6.772h3.228v-6.772z" fill="#F5F5F5"/><path d="M139.852 91.957c0 .073-4.271.133-9.536.133s-9.535-.06-9.535-.133c0-.072 4.266-.128 9.535-.128s9.536.056 9.536.129z" fill="#EBEBEB"/><path d="M131.536 95.982h-3.228v6.772h3.228v-6.772z" fill="#F5F5F5"/><path d="M139.852 105.414c0 .072-4.271.132-9.536.132s-9.535-.06-9.535-.132c0-.073 4.266-.129 9.535-.129s9.536.06 9.536.129z" fill="#EBEBEB"/><path d="M131.536 109.494h-3.228v6.772h3.228v-6.772zm0 13.689h-3.228v6.772h3.228v-6.772z" fill="#F5F5F5"/><path d="M139.852 118.942c0 .072-4.271.128-9.536.128s-9.535-.056-9.535-.128c0-.072 4.266-.129 9.535-.129s9.536.041 9.536.129z" fill="#EBEBEB"/><path d="M112.3 55.03h-3.229v6.772h3.229v-6.773z" fill="#fff"/><path d="M120.616 64.477c0 .072-4.271.132-9.536.132s-9.536-.06-9.536-.132c0-.072 4.271-.128 9.536-.128s9.536.04 9.536.128z" fill="#E0E0E0"/><path d="M112.3 68.682h-3.229v6.772h3.229v-6.772z" fill="#fff"/><path d="M120.616 78.093c0 .072-4.271.132-9.536.132s-9.536-.06-9.536-.132c0-.072 4.271-.128 9.536-.128s9.536.076 9.536.128z" fill="#E0E0E0"/><path d="M112.3 82.33h-3.229v6.772h3.229V82.33z" fill="#fff"/><path d="M120.616 91.761c0 .072-4.271.132-9.536.132s-9.536-.06-9.536-.132c0-.072 4.271-.128 9.536-.128s9.536.076 9.536.128z" fill="#E0E0E0"/><path d="M112.3 95.982h-3.229v6.772h3.229v-6.772z" fill="#fff"/><path d="M120.616 105.414c0 .072-4.271.132-9.536.132s-9.536-.06-9.536-.132c0-.073 4.271-.129 9.536-.129s9.536.06 9.536.129z" fill="#E0E0E0"/><path d="M112.3 109.635h-3.229v6.772h3.229v-6.772z" fill="#fff"/><path d="M120.616 119.066c0 .072-4.271.132-9.536.132s-9.536-.06-9.536-.132c0-.073 4.271-.125 9.552-.125s9.52.056 9.52.125z" fill="#E0E0E0"/><path d="M112.3 123.287h-3.229v6.772h3.229v-6.772z" fill="#fff"/><path d="M86.534 97H57.287v38.381h29.247V96.999z" fill="#EBEBEB"/><path d="M86.534 97H72.82v38.381h13.714V96.999z" fill="#E0E0E0"/><path d="M66.05 102.194h-2.63v6.355h2.629v-6.355zm0 24.881h-2.63v6.356h2.629v-6.356zm6.77-16.031c0 .072-3.478.132-7.764.132-4.287 0-7.77-.06-7.77-.132 0-.072 3.479-.128 7.77-.128 4.29 0 7.764.06 7.764.128zm-6.77 3.685h-2.63v6.355h2.629v-6.355zm6.77 8.85c0 .072-3.478.128-7.764.128-4.287 0-7.77-.056-7.77-.128 0-.072 3.479-.128 7.77-.128 4.29 0 7.764.056 7.764.128zm5.543-21.385h-2.629v6.355h2.629v-6.355zm5.704 0h-2.629v6.355h2.629v-6.355zm-5.704 12.062h-2.629v6.355h2.629v-6.355zm5.704 0h-2.629v6.355h2.629v-6.355zm-5.704 12.062h-2.629v6.356h2.629v-6.356zm5.704 0h-2.629v6.356h2.629v-6.356z" fill="#F5F5F5"/><path d="M88.736 95.662H55.089v1.385h33.647v-1.385z" fill="#E0E0E0"/><path d="M86.74 97.175c0 .073-6.538.133-14.6.133-8.063 0-14.6-.06-14.6-.133 0-.072 6.537-.128 14.6-.128 8.062 0 14.6.056 14.6.129zm62.125-47.768l25.922.108s-2.455-5.607-7.7-5.607c-4.001 0-4.178 2.475-6.578 3.184-2.399.709-7.466-3.608-11.644 2.315z" fill="#EBEBEB"/><path d="M36.996 21.958l45.57.188s-4.32-9.823-13.538-9.827c-7.032 0-7.346 4.353-11.564 5.606-4.218 1.254-13.122-6.383-20.468 4.033z" fill="#F5F5F5"/><path d="M128.404 7.26l34.335.145S159.467 0 152.519 0c-5.297 0-5.534 3.28-8.714 4.217-3.18.937-9.886-4.802-15.401 3.044z" fill="#FAFAFA"/><path d="M189 135.233c0 .06-42.313.104-94.496.104-52.183 0-94.504-.044-94.504-.104s42.305-.104 94.504-.104c52.199 0 94.496.048 94.496.104z" fill="#2B3A8C"/><path d="M169.647 77.1h-22.304v58.081h22.304V77.1z" fill="#1C75BB"/><path d="M169.647 77.1h-11.15v58.081h11.15V77.1z" fill="#2B3A8C"/><path d="M157.768 70.2h-7.877v6.904h7.877V70.2z" fill="#1C75BB"/><path d="M157.764 70.2h-1.875v6.904h1.875V70.2z" fill="#2B3A8C"/><path d="M170.303 76.7h-24.816v.404h24.816v-.405z" fill="#1C75BB"/><path d="M153.634 80.111h-1.887v3.961h1.887v-3.96zm4.863 5.515c0 .044-2.496.076-5.575.076s-5.579-.032-5.579-.076 2.5-.072 5.579-.072c3.079 0 5.575.032 5.575.072z" fill="#2B3A8C"/><path d="M164.885 80.111h-1.888v3.961h1.888v-3.96zm4.858 5.515c0 .044-2.495.076-5.575.076-3.079 0-5.574-.032-5.574-.076s2.495-.072 5.574-.072c3.08 0 5.575.032 5.575.072zm-4.858 2.351h-1.888v3.96h1.888v-3.96zm4.858 5.514c0 .04-2.495.076-5.575.076-3.079 0-5.574-.036-5.574-.076s2.495-.076 5.574-.076c3.08 0 5.575.032 5.575.076zm-4.858 2.587h-1.888v3.961h1.888v-3.96zm4.858 5.515c0 .04-2.495.072-5.575.072-3.079 0-5.574-.032-5.574-.072 0-.04 2.495-.076 5.574-.076 3.08 0 5.575.032 5.575.076zm-4.858 2.583h-1.888v3.961h1.888v-3.961zm4.858 5.515c0 .044-2.495.076-5.575.076-3.079 0-5.574-.036-5.574-.076s2.495-.076 5.574-.076c3.08 0 5.575.036 5.575.076zm-4.858 2.354h-1.888v3.961h1.888v-3.961zm4.858 5.515c0 .044-2.495.076-5.575.076-3.079 0-5.574-.032-5.574-.076s2.495-.076 5.574-.076c3.08 0 5.575.036 5.575.076zm-4.858 2.387h-1.888v3.96h1.888v-3.96zm0 8.001h-1.888v3.961h1.888v-3.961zm4.858-2.487c0 .04-2.495.076-5.575.076-3.079 0-5.574-.036-5.574-.076s2.495-.076 5.574-.076c3.08 0 5.575.032 5.575.076z" fill="#1C75BB"/><path d="M153.634 88.097h-1.887v3.96h1.887v-3.96zm4.863 5.515c0 .04-2.496.076-5.575.076s-5.579-.037-5.579-.076c0-.04 2.5-.077 5.579-.077 3.079 0 5.575.032 5.575.077zm-4.863 2.466h-1.887v3.961h1.887v-3.96zm4.863 5.515c0 .044-2.496.076-5.575.076s-5.579-.032-5.579-.076 2.5-.076 5.579-.076c3.079 0 5.575.036 5.575.076zm-4.863 2.471h-1.887v3.96h1.887v-3.96zm4.863 5.514c0 .04-2.496.076-5.575.076s-5.579-.036-5.579-.076 2.5-.076 5.579-.076c3.079 0 5.575.032 5.575.076zm-4.863 2.467h-1.887v3.961h1.887v-3.961zm4.863 5.515c0 .044-2.496.076-5.575.076s-5.579-.032-5.579-.076 2.5-.076 5.579-.076c3.079 0 5.575.036 5.575.076zm-4.863 2.467h-1.887v3.961h1.887v-3.961zm4.863 5.518c0 .04-2.496.072-5.575.072s-5.579-.032-5.579-.072c0-.04 2.5-.076 5.579-.076 3.079 0 5.575.032 5.575.076zm-4.863 2.467h-1.887v3.961h1.887v-3.961z" fill="#2B3A8C"/><path d="M113.801 56.343h-29.84v78.862h29.84V56.343z" fill="#1C75BB"/><path d="M113.801 56.343h-11.452v78.862h11.452V56.343z" fill="#2B3A8C"/><path d="M109.208 62.57h-2.266v4.758h2.266v-4.757zm0 8.346h-2.266v4.758h2.266v-4.758zm0 9.347h-2.266v4.758h2.266v-4.758zm0 8.931h-2.266v4.758h2.266v-4.758zm0 8.935h-2.266v4.757h2.266v-4.757zm0 8.93h-2.266v4.758h2.266v-4.758zm0 8.935h-2.266v4.758h2.266v-4.758zm0 9.82h-2.266v4.757h2.266v-4.757z" fill="#1C75BB"/><path d="M115.286 55.85H81.362v.922h33.924v-.921z" fill="#2B3A8C"/><path d="M108.077 50.3h-12.08v6.011h12.08V50.3z" fill="#2B3A8C"/><path d="M102.349 50.3h-6.352v5.55h6.352V50.3z" fill="#1C75BB"/><path d="M90.475 62.374h-2.266v4.758h2.266v-4.758zm6.034 0h-2.267v4.758h2.267v-4.758zm-6.034 9.063h-2.266v4.758h2.266v-4.758zm6.034 0h-2.267v4.758h2.267v-4.758zM90.475 80.5h-2.266v4.757h2.266V80.5zm6.034 0h-2.267v4.757h2.267V80.5zm-6.034 9.063h-2.266v4.757h2.266v-4.757zm6.034 0h-2.267v4.757h2.267v-4.757zm-6.034 9.062h-2.266v4.758h2.266v-4.758zm6.034 0h-2.267v4.758h2.267v-4.758zm-6.034 9.063h-2.266v4.758h2.266v-4.758zm6.034 0h-2.267v4.758h2.267v-4.758zm-6.034 9.063h-2.266v4.758h2.266v-4.758zm6.034 0h-2.267v4.758h2.267v-4.758zm-6.034 9.063h-2.266v4.757h2.266v-4.757zm6.034 0h-2.267v4.757h2.267v-4.757zm5.84-56.816c0 .08-4.114.144-9.194.144-5.08 0-9.193-.064-9.193-.144 0-.08 4.114-.14 9.194-.14 5.08 0 9.193.064 9.193.14zm0 9.095c0 .08-4.114.144-9.194.144-5.08 0-9.193-.064-9.193-.144 0-.08 4.114-.14 9.194-.14 5.08 0 9.193.064 9.193.14zm0 9.211c0 .076-4.114.14-9.194.14-5.08 0-9.193-.064-9.193-.14 0-.076 4.114-.144 9.194-.144 5.08 0 9.193.06 9.193.144zm0 9.131c0 .08-4.114.144-9.194.144-5.08 0-9.193-.064-9.193-.144 0-.08 4.114-.14 9.194-.14 5.08 0 9.193.064 9.193.14zm0 9.006c0 .081-4.114.145-9.194.145-5.08 0-9.193-.064-9.193-.145 0-.08 4.114-.14 9.194-.14 5.08 0 9.193.064 9.193.14zm0 8.763c0 .08-4.114.144-9.194.144-5.08 0-9.193-.064-9.193-.144 0-.08 4.114-.14 9.194-.14 5.08 0 9.193.072 9.193.14zm0 9.715c0 .076-4.114.14-9.194.14-5.08 0-9.193-.064-9.193-.14 0-.076 4.114-.144 9.194-.144 5.08 0 9.193.064 9.193.144z" fill="#2B3A8C"/><path d="M113.668 68.998c0 .08-2.451.144-5.474.144s-5.474-.064-5.474-.144c0-.08 2.451-.14 5.474-.14s5.474.064 5.474.14zm0 9.095c0 .08-2.451.144-5.474.144s-5.474-.064-5.474-.144c0-.08 2.451-.14 5.474-.14s5.474.064 5.474.14zm0 9.095c0 .08-2.451.144-5.474.144s-5.474-.064-5.474-.144c0-.08 2.451-.14 5.474-.14s5.474.064 5.474.14zm-.117 9.247c0 .08-2.451.144-5.474.144s-5.474-.064-5.474-.144c0-.08 2.447-.14 5.474-.14s5.474.064 5.474.14zm0 9.006c0 .081-2.451.145-5.474.145s-5.474-.064-5.474-.145c0-.08 2.447-.14 5.474-.14s5.474.064 5.474.14zm0 9.011c0 .076-2.451.14-5.474.14s-5.474-.064-5.474-.14c0-.076 2.447-.144 5.474-.144s5.474.064 5.474.144zm0 9.467c0 .076-2.451.14-5.474.14s-5.474-.064-5.474-.14c0-.076 2.447-.144 5.474-.144s5.474.064 5.474.144z" fill="#1C75BB"/><path d="M119.303 107.764h-12.031v27.469h12.031v-27.469z" fill="#8CBF43"/><path opacity=".2" d="M119.303 107.764h-12.031v27.469h12.031v-27.469z" fill="#000"/><path d="M104.458 107.652h29.686l5.547-7.837 5.817 8.057 6.83-.108-7.362-9.867-33.103.136-7.415 9.619z" fill="#8CBF43"/><path opacity=".2" d="M104.458 107.652h29.686l5.547-7.837 5.817 8.057 6.83-.108-7.362-9.867-33.103.136-7.415 9.619z" fill="#fff"/><path d="M119.303 107.764v27.469h29.646v-27.469h-3.397l-5.861-7.95-5.563 7.83-14.825.12z" fill="#8CBF43"/><path opacity=".2" d="M123.494 135.233v-11.91h6.931v11.91" fill="#000"/><path opacity=".7" d="M145.507 122.99h-10.924v6.732h10.924v-6.732zm0-13.476h-10.924v6.732h10.924v-6.732zm-15.806.064h-6.888v6.488h6.888v-6.488z" fill="#fff"/><path d="M137.739 122.99v6.793m4.54-6.793v6.793m-4.54-3.192h4.54m-4.54-17.077v6.796m4.54-6.796v6.796m-4.54-3.191h4.54m-16.02-3.541v6.488m-3.446-3.084h6.892" stroke="#8CBF43" stroke-width=".25" stroke-miterlimit="10"/><path opacity=".7" d="M141.136 105.061a1.455 1.455 0 01-1.746 1.426 1.465 1.465 0 01-1.148-1.142 1.455 1.455 0 011.433-1.738c.388 0 .759.153 1.033.426.274.273.428.642.428 1.028z" fill="#fff"/><path d="M129.258 103.279l1.843-2.263v-5.442h-3.86v7.745l2.017-.04z" fill="#8CBF43"/><path opacity=".2" d="M129.258 103.279v-7.705h1.843v5.442l-1.843 2.263z" fill="#000"/><path d="M131.363 94.773h-4.553v.8h4.553v-.8zm-11.713 25.009H96.92v15.455h22.73v-15.455z" fill="#8CBF43"/><path opacity=".2" d="M110.935 119.782H96.919v15.455h14.016v-15.455z" fill="#000"/><path d="M107.98 135.209a1.27 1.27 0 01-.02-.204v-.581c0-.533-.02-1.266-.032-2.171 0-1.882-.024-4.481-.04-7.489l.108.109h-8.3l.113-.109c0 3.008-.032 5.607-.044 7.489 0 .909-.024 1.638-.032 2.175v.577a.836.836 0 01-.02.204.829.829 0 010-.204v-.577c0-.537-.02-1.266-.033-2.175 0-1.882-.024-4.481-.044-7.489v-.112h8.526v.112c0 3.008-.033 5.607-.041 7.489 0 .905-.024 1.638-.032 2.171 0 .236 0 .428-.02.581a.82.82 0 01-.089.204z" fill="#2B3A8C"/><path opacity=".2" d="M118.591 124.368h-5.905v1.498h5.905v-1.498z" fill="#000"/><path d="M104.458 107.652v.797h29.67v-.805l-29.67.008zm29.67.797l5.547-7.749.016-.885-5.547 7.837-.016.797zm18.069-.685h-6.645v.513h6.645v-.513z" fill="#8CBF43"/><path d="M128.062 121.5h-2.451v.93h2.451v-.93z" fill="#2B3A8C"/><path opacity=".3" d="M104.458 107.652v.797h29.67v-.805l-29.67.008zm29.67.797l5.547-7.749.016-.885-5.547 7.837-.016.797zm18.069-.685h-6.645v.513h6.645v-.513z" fill="#000"/><path d="M129.87 129.354c-.025 0-.021-.152-.186-.268a.343.343 0 00-.318-.036.33.33 0 00-.206.304c0 .065.02.129.057.183a.316.316 0 00.149.121.351.351 0 00.318-.036c.165-.116.161-.276.186-.268.024.008.068.168-.125.348a.446.446 0 01-.728-.348.444.444 0 01.305-.425.448.448 0 01.423.076c.193.157.137.349.125.349z" fill="#2B3A8C"/><path d="M73.436 89.707s-6.24 23.628-14.636 28.065c-5.53 2.924-10.409-.564-13.685-6.095L33.28 92.73a4.385 4.385 0 01.346-3.226 4.421 4.421 0 012.472-2.116l9.854-3.42 9.833 17.433L68.36 86.183" fill="#EB996E"/><path d="M12.007 91.36c.222 1.538 4.114 12.844 4.114 12.844s17.659-4.97 17.473-5.847c-.148-.705-2.914-11.966-6.597-18.314a9.024 9.024 0 00-2.833-3.054 9.081 9.081 0 00-3.91-1.463c-.78-.088-2.515.633-2.99.869-3.763 1.87-6.94 3.087-5.257 14.966z" fill="#1C75BB"/><path d="M39.705 74.777c6.782 1.878 7.084 4.942 10.465 10.356l5.378 9.692-8.912 5.651-1.61 3.644-.886 31.337-35.908-.176 6.44-25.366-2.596-16.676c-.234-2.627-.999-7.537-.181-10.072 2.548-7.921 12.047-8.77 17.892-9.968 1.207-.248 2.37.132 3.353.425" fill="#8CBF43"/><path d="M44.905 105.726a4.818 4.818 0 01-.024-.801c0-.561 0-1.306.024-2.203v-.04a19.53 19.53 0 001.172-2.467 5.512 5.512 0 00.297-3.18c-.293-1.201-.962-2.21-1.404-3.203a9.656 9.656 0 01-.805-2.804 8.965 8.965 0 01-.053-1.95c.013-.177.034-.354.065-.529a.528.528 0 01.044-.18s0 .256-.02.713c-.015.643.027 1.286.125 1.922.146.943.427 1.86.833 2.724.447.977 1.127 2.002 1.437 3.243a5.611 5.611 0 01-.322 3.308 17.57 17.57 0 01-1.208 2.475v-.04c-.04.897-.076 1.638-.1 2.203 0 .271-.021.541-.06.809zM39.986 73.66c.028.077.047.158.057.24.046.234.072.47.08.709a6.419 6.419 0 01-.434 2.583 6.917 6.917 0 01-2.351 3.084 6.732 6.732 0 01-4.589 1.201 7.725 7.725 0 01-2.415-.653 7.278 7.278 0 01-1.916-1.305 8.432 8.432 0 01-2.11-3.264 8.811 8.811 0 01-.494-3.28c0-.084.009-.167.028-.248.024 0 0 .344.052.957a9.39 9.39 0 00.572 2.519 8.427 8.427 0 002.097 3.163c.55.516 1.181.94 1.868 1.254a7.505 7.505 0 002.334.629 6.579 6.579 0 004.428-1.126 6.866 6.866 0 002.323-2.971 6.73 6.73 0 00.499-2.523c.02-.633-.06-.965-.029-.97zM53.91 91.881a7.312 7.312 0 01-1.059.657c-.668.4-1.61.913-2.596 1.518s-1.904 1.17-2.556 1.578a6.912 6.912 0 01-1.083.629c.305-.287.636-.543.99-.765a43.824 43.824 0 012.528-1.642 41.959 41.959 0 012.637-1.462c.361-.209.743-.38 1.139-.513zm-40.8.417c.028.069.051.14.069.212.04.152.1.36.173.625.149.564.358 1.37.628 2.403.539 2.082 1.304 5.05 2.23 8.654l-.11-.068 16.613-5.158.402-.148-.072.132a71.74 71.74 0 00-3.256-10.873c-1.284-3.236-2.762-6.043-4.428-8.066a10.72 10.72 0 00-2.629-2.347 5.654 5.654 0 00-2.495-.877 3.965 3.965 0 00-.515-.04l-.455.024c-.141 0-.274 0-.403.028l-.318.069-.435.088-.149.02a1.13 1.13 0 01.145-.044l.431-.113.318-.076c.117-.024.25-.024.403-.04l.462-.036c.177 0 .353.01.528.032.906.08 1.781.372 2.552.853a10.79 10.79 0 012.685 2.355c1.718 2.03 3.22 4.846 4.52 8.09a69.75 69.75 0 013.3 10.893l.025.1-.097.032-.402.148c-6.223 1.962-11.995 3.696-16.633 5.122l-.096.028-.024-.096c-.894-3.604-1.635-6.584-2.15-8.674-.25-1.025-.447-1.834-.583-2.403l-.145-.629a1.298 1.298 0 01-.089-.22z" fill="#2B3A8C"/><path d="M32.532 96.7c0 .06-3.816 1.165-8.558 2.466-4.741 1.302-8.606 2.303-8.622 2.243-.016-.06 3.816-1.166 8.562-2.467 4.746-1.302 8.602-2.303 8.618-2.243z" fill="#2B3A8C"/><path d="M31.07 45.434c-1.098-2.37-4.121-3.488-6.67-2.86-2.547.63-4.564 2.68-5.646 5.083-1.083 2.403-1.345 5.046-1.353 7.657a20.831 20.831 0 01-.221 4.133c-.282 1.353-.954 2.69-2.118 3.444-.921.593-2.044.765-3.03 1.241-.987.477-1.896 1.478-1.65 2.54.293 1.269 1.891 1.653 3.195 1.785.022.784.266 1.545.704 2.197a4.173 4.173 0 001.772 1.485 4.197 4.197 0 004.407-.63c-.402 1.602 1.019 3.252 2.653 3.444 1.634.192 3.22-.825 4.126-2.202.905-1.378 1.171-3.06 1.235-4.698.065-1.638-.06-3.28.105-4.91" fill="#000"/><path d="M49.619 48.418s1.183-8.05-9.926-8.198c-12.458-.164-14.704 10.412-12.567 15.983l6.187-6.107 16.306-1.678z" fill="#000"/><path d="M39.85 74.777l.217-3.889s6.372.148 7.31-5.35c.938-5.499 2.012-18.306 2.012-18.306a16.791 16.791 0 00-9.358-2.665 16.787 16.787 0 00-9.266 2.97l-.52.36-4.025 25.426a6.801 6.801 0 001.214 5.061 6.867 6.867 0 007.299 2.608 6.88 6.88 0 002.552-1.275 6.838 6.838 0 001.81-2.199 6.804 6.804 0 00.755-2.741z" fill="#FFBE9D"/><path d="M47.115 56.976a.692.692 0 01-.518.56.7.7 0 01-.722-.251.69.69 0 01.624-1.11.709.709 0 01.602.522.697.697 0 01.014.279z" fill="#2B3A8C"/><path d="M47.63 56.315c-.1.084-.563-.4-1.304-.54-.74-.14-1.344.184-1.413.071-.032-.048.08-.208.343-.352a1.831 1.831 0 012.17.373c.2.224.253.412.204.448zm-7.986-.052a.696.696 0 01-.518.567.704.704 0 01-.729-.25.694.694 0 01.232-1.043.703.703 0 01.663.012.708.708 0 01.352.714z" fill="#2B3A8C"/><path d="M40.015 55.638c-.101.08-.564-.42-1.309-.54-.744-.12-1.344.184-1.408.072-.033-.048.076-.209.342-.353a1.836 1.836 0 011.147-.18c.393.067.752.261 1.022.553.202.224.254.412.206.448zm.958 5.727c.415-.025.832.004 1.24.088.189.028.374.036.438-.092a1.1 1.1 0 00.02-.62c-.056-.53-.116-1.082-.18-1.663-.242-2.363-.363-4.28-.275-4.293.089-.012.359 1.895.596 4.253.056.581.109 1.138.157 1.666.057.27.025.551-.092.801a.486.486 0 01-.379.212c-.11.002-.22-.01-.326-.036a4.556 4.556 0 01-1.2-.316z" fill="#2B3A8C"/><path d="M40.083 70.884a13.4 13.4 0 01-6.911-3.26s1.352 4.378 6.815 4.738l.096-1.478zm.169-7.336a1.453 1.453 0 00-.728-1.17 1.163 1.163 0 00-.962-.104.825.825 0 00-.548.761.946.946 0 00.68.801c.364.098.743.12 1.115.064a.853.853 0 00.302-.068.273.273 0 00.153-.252" fill="#EB996E"/><path d="M38.642 61.553c-.056 0-.177.184-.197.549-.02.485.142.96.455 1.334.305.37.733.618 1.207.7.362.048.584-.028.58-.084 0-.124-.866-.168-1.465-.897-.6-.729-.48-1.59-.58-1.602z" fill="#2B3A8C"/><path d="M29.48 55.054c-.096-.065-3.171-1.39-4.057 2.214-.885 3.605 3.341 3.248 3.374 3.148.032-.1.684-5.362.684-5.362z" fill="#FFBE9D"/><path d="M27.915 58.906s-.08.032-.205.056a.747.747 0 01-.512-.096c-.378-.228-.575-.905-.434-1.562a2.07 2.07 0 01.402-.86.803.803 0 01.628-.377.347.347 0 01.358.256c.029.112 0 .18 0 .192 0 .012.101-.044.105-.2a.399.399 0 00-.08-.248.549.549 0 00-.355-.169 1 1 0 00-.845.401c-.24.273-.407.602-.483.957-.153.733.084 1.502.608 1.77a.808.808 0 00.644.036c.14-.068.181-.144.169-.156z" fill="#EB996E"/><path d="M48.126 44.681a3.81 3.81 0 011.376 1.851 3.79 3.79 0 01.052 2.302c-.547 1.73-2.173 3.604-6.677 3.544l1.022-1.133a7.997 7.997 0 01-7.217 1.258l1.264-2.443s-5.704 6.007-8.904 6.287l.402-6.408c.77-6.047 3.378-7.86 7.318-8.185a20.444 20.444 0 014.392.076 15.108 15.108 0 016.971 2.851zm-22.288-5.238c.302.07.589.195.845.368a7.32 7.32 0 011.723 1.394c.495.55.902 1.173 1.207 1.846.15.27.245.567.282.873-.068.032-.519-1.31-1.67-2.563a12.739 12.739 0 00-2.387-1.918zM14.366 59.931s-.08-.08-.254-.188a1.508 1.508 0 00-.853-.216 1.616 1.616 0 00-1.207.588 1.837 1.837 0 00-.198 1.743 2.12 2.12 0 001.683 1.29 2.968 2.968 0 002.39-.702 4.345 4.345 0 001.458-2.403c.107-.49.107-.998 0-1.49a6.872 6.872 0 00-.536-1.47c-.229-.484-.47-.964-.66-1.46a6.434 6.434 0 01-.358-1.535 7.326 7.326 0 01.342-2.927 9.927 9.927 0 012.725-4.141 17.997 17.997 0 012.661-2.05c.334-.213.596-.373.777-.477a1.43 1.43 0 01.282-.148 1.511 1.511 0 01-.258.188l-.753.513a19.988 19.988 0 00-2.596 2.09 9.879 9.879 0 00-2.632 4.089 7.174 7.174 0 00-.318 2.843c.052.504.168 1 .346 1.474.185.48.402.953.652 1.446.243.482.428.992.551 1.518a3.68 3.68 0 010 1.581 4.514 4.514 0 01-1.541 2.515 3.14 3.14 0 01-2.56.725 2.296 2.296 0 01-1.804-1.421 1.957 1.957 0 01.25-1.879 1.67 1.67 0 011.312-.596c.313-.008.62.085.878.264a.855.855 0 01.221.236z" fill="#000"/><path d="M28.945 47.857a1.655 1.655 0 01-.221-.709 4.631 4.631 0 01.805-3.424c.274-.372.5-.553.52-.533a7.824 7.824 0 00-1.035 2.22c-.322 1.329.008 2.434-.069 2.446z" fill="#2B3A8C"/><path d="M25.62 59.555a1.77 1.77 0 00-.479.68 1.06 1.06 0 00.073.842 1.15 1.15 0 00.87.536 1.216 1.216 0 00.99-.288 1.109 1.109 0 00.33-.8 1.597 1.597 0 00-.258-.802s.085.032.185.156c.14.18.223.398.238.625a1.244 1.244 0 01-.342.941 1.398 1.398 0 01-1.172.365 1.344 1.344 0 01-1.03-.665 1.195 1.195 0 01.37-1.526c.133-.056.221-.072.226-.064z" fill="#1C75BB"/><path d="M50.54 50.26c-.044 0 .138-.617.138-1.602a7.133 7.133 0 00-1.002-3.716 7.181 7.181 0 00-2.79-2.664c-.886-.48-1.51-.616-1.494-.656.149.002.296.03.435.08.392.107.772.252 1.135.432a6.97 6.97 0 012.914 2.69 6.92 6.92 0 01.967 3.838 6.024 6.024 0 01-.162 1.201 1.29 1.29 0 01-.14.397zm-10.167 3.968c-.028.024-.177-.116-.455-.284a2.863 2.863 0 00-1.18-.4 2.914 2.914 0 00-1.235.156c-.306.112-.483.216-.503.188-.02-.028.129-.18.438-.336a2.426 2.426 0 012.573.264c.27.208.382.396.362.412zm7.097.677a4.582 4.582 0 01-1.442 0 4.542 4.542 0 01-1.42-.216 4.582 4.582 0 011.44 0c.483-.004.962.07 1.421.216z" fill="#000"/><path d="M73.436 89.707s2.286-5.395-.805-4.806c-4.73.897-4.025 5.475-4.025 5.475l4.83-.67z" fill="#EB996E"/><path d="M77.832 65.518a4.198 4.198 0 00-1.236-.236c2.568 1.898 3.264 6.784 1.47 11.718-1.756 4.805-5.306 8.081-8.454 8.061l-.25-.064c-2.5-1.942-3.163-6.768-1.384-11.646 1.779-4.878 5.434-8.21 8.614-8.07a4.035 4.035 0 00-1.059-.576c-3.417-1.233-7.829 2.275-9.853 7.83-1.965 5.402-.942 10.736 2.25 12.166h-.06l-6.296 16.019c-.135.34-.128.72.019 1.055a1.392 1.392 0 001.824.714c.337-.146.602-.42.737-.76l6.348-16.06c3.417 1.234 7.829-2.274 9.853-7.828 2.025-5.555.898-11.09-2.523-12.323z" fill="#2B3A8C"/><path d="M74.99 80.007c.047-.169.112-.333.193-.489.161-.348.354-.78.588-1.293.67-1.41 1.19-2.887 1.553-4.405.35-1.514.35-3.088 0-4.602a12.575 12.575 0 00-.664-1.806c.113.133.21.28.286.437.226.423.407.868.54 1.33a9.768 9.768 0 01.068 4.689 19.501 19.501 0 01-1.634 4.405c-.266.54-.496.97-.657 1.266-.07.167-.162.325-.273.468zm-.66 1.29c.048.048-.15.312-.435.596-.286.285-.555.481-.6.437-.044-.044.15-.312.435-.597.286-.284.555-.488.6-.436z" fill="#2B3A8C"/><path d="M67.467 87.304c-.492-.917-1.059-2.183-1.916-2.775-.858-.593-2.045-1.278-3.056-.4a63.667 63.667 0 013.518 5.578l1.454-2.403z" fill="#EB996E"/><path d="M74.169 85.702s-.19-1.065-1.755-.597c-1.566.469-6.489 1.49-5.54 2.531.95 1.041 2.625.573 2.625.573s-2.729.585-2.471 1.157c.257.573.72 1.554 1.884.937 1.163-.616 4.391-1.666 4.391-1.666l.866-2.935z" fill="#EB996E"/><path d="M73.992 88.06s.02-.103 0-.268a.563.563 0 00-.37-.5 2.07 2.07 0 00-1.027.156l-1.308.348a75.7 75.7 0 01-2.391.585 4.251 4.251 0 01-1.007.176c.307-.147.63-.258.962-.332.604-.18 1.445-.4 2.375-.653l1.312-.328c.36-.143.755-.18 1.136-.104a.647.647 0 01.402.656c-.012.189-.076.269-.084.265z" fill="#2B3A8C"/><path d="M32.017 99.398l4.75 8.763L60.35 96.347s3.47-6.632 4.025-6.548c.556.084 3.124 1.173 3.124 1.173s3.623-1.946 4.404-1.413c.78.532 1.835 6.936 1.15 8.918-.684 1.983-7.844 5.971-7.844 5.971s-19.322 12.627-27.718 17.061c-5.535 2.919-10.413-.565-13.686-6.096l-5.57-11.762" fill="#FFBE9D"/></g><defs><clipPath id="clip0"><path fill="#fff" d="M0 0h189v135.553H0z"/></clipPath></defs></svg>