<svg width="189" height="191" fill="none" xmlns="http://www.w3.org/2000/svg"><path d="M73.552 0v48.373h-62.48L8.82.34 73.551 0z" fill="#E0E0E0"/><path d="M8.824.282v48.091h62.48V.282H8.825z" fill="#F5F5F5"/><path d="M71.538 48.611H8.582V.044h62.956v48.568zm-62.476-.475h62V.52h-62v47.616z" fill="#E0E0E0"/><path d="M64.533 5.225H15.587v36.822h48.946V5.225z" fill="#fff"/><path d="M64.533 5.225h-3.568l-10.063.062-35.315.057.114-.11v36.813l-.127-.123H64.52l-.101.1.053-26.737c0-3.207 0-5.727.026-7.44V5.206v2.596c0 1.718 0 4.225.022 7.424 0 6.432.03 15.644.053 26.799v.101H15.464V5.11h.11l35.39.058 10.014.03h3.343l.212.027z" fill="#E0E0E0"/><path d="M8.811.167c.373.182.728.4 1.058.652.634.44 1.502 1.031 2.44 1.723.939.692 1.789 1.352 2.366 1.863.334.246.64.529.912.842a6.606 6.606 0 01-1.022-.705L12.173 2.78 9.776.96a6.08 6.08 0 01-.965-.793zM71.3.282a34.929 34.929 0 01-3.308 2.568 35.567 35.567 0 01-3.459 2.375 35.643 35.643 0 013.313-2.582A34.941 34.941 0 0171.3.282zm-7.013 41.761a46.483 46.483 0 013.59 3.084 43.014 43.014 0 013.423 3.255 45.323 45.323 0 01-3.59-3.084 44 44 0 01-3.423-3.255zm-55.476 6.33a41.408 41.408 0 013.27-3.114 40.134 40.134 0 013.431-2.93 42.357 42.357 0 01-3.269 3.115 39.357 39.357 0 01-3.432 2.93zm42.58-36.363c0 .075-4.846.132-10.811.132s-10.816-.057-10.816-.132c0-.075 4.846-.128 10.816-.128 5.97 0 10.811.057 10.811.128zm4.873 12.177c0 .07-7.256.128-16.2.128-8.943 0-16.203-.058-16.203-.128s7.251-.128 16.204-.128c8.952 0 16.199.057 16.199.128zm0 3.009c0 .07-7.256.128-16.2.128-8.943 0-16.203-.058-16.203-.128s7.251-.132 16.204-.132c8.952 0 16.199.061 16.199.132zm-34.011-9.133a1.94 1.94 0 012.061-1.947 1.983 1.983 0 011.608.709l-.674.608a1.104 1.104 0 00-.88-.44 1.071 1.071 0 000 2.136 1.106 1.106 0 00.88-.44l.674.607a1.978 1.978 0 01-1.608.705 1.938 1.938 0 01-2.061-1.938zm7.145 1.057v.82h-3.004v-3.745h2.934v.82h-1.886v.63h1.661v.793h-1.66v.682h1.955zm2.225-.176h-.577v.996H29.99v-3.745h1.731c1.023 0 1.666.533 1.666 1.388a1.242 1.242 0 01-.732 1.18l.807 1.177h-1.155l-.682-.996zm0-1.912h-.577v1.097h.59c.441 0 .657-.203.657-.546 0-.344-.22-.55-.656-.55h-.014zm3.067.005h-1.15v-.842h3.352v.841h-1.145v2.904H34.69v-2.904zm2.6-.842h1.06v3.745h-1.06v-3.745zm2.871.82v.823h1.652v.82h-1.652v1.282h-1.057v-3.745h2.934v.82h-1.877zm2.375-.82h1.08v3.745h-1.08v-3.745zm1.621 1.868a1.938 1.938 0 012.062-1.947 1.987 1.987 0 011.608.709l-.687.612a1.105 1.105 0 00-.881-.44 1.071 1.071 0 000 2.136 1.106 1.106 0 00.881-.44l.674.608a1.982 1.982 0 01-1.608.705 1.938 1.938 0 01-2.049-1.943zm6.587 1.15h-1.586l-.291.727h-1.084l1.652-3.745h1.044l1.657 3.745h-1.102l-.29-.727zm-.313-.78l-.48-1.198-.48 1.198h.96zm2.617-1.396h-1.15v-.842h3.353v.841h-1.146v2.904h-1.057v-2.904zm5.604 2.083v.82h-3.005v-3.745h2.947v.82h-1.89v.63h1.666v.793h-1.666v.682h1.948zM44.311 34.672a3.771 3.771 0 11-7.542 0 3.771 3.771 0 017.542 0z" fill="#E0E0E0"/><path d="M40.531 38.456a3.785 3.785 0 110-7.569 3.785 3.785 0 010 7.57zm0-7.542a3.758 3.758 0 100 7.517 3.758 3.758 0 000-7.517zm-7.661 3.758a40.5 40.5 0 01-4.542.132 40.47 40.47 0 01-4.538-.132c1.51-.128 3.027-.17 4.542-.128 1.514-.042 3.03 0 4.538.128zm24.914 0a50.76 50.76 0 01-5.084.128c-1.695.042-3.39 0-5.08-.128 1.69-.128 3.385-.17 5.08-.128a50.73 50.73 0 015.084.128z" fill="#E0E0E0"/><path d="M30.522 33.963a1.2 1.2 0 01-.053-.313 3.31 3.31 0 01.053-.908c.09-.478.285-.93.573-1.321a.776.776 0 01.387-.265.581.581 0 01.498.11.904.904 0 01.317.983c-.12.36-.31.693-.555.982-.24.326-.52.622-.832.881a2.53 2.53 0 01-1.199.551 1.93 1.93 0 01-1.37-.308 1.49 1.49 0 01-.603-1.322 4.35 4.35 0 01.41-1.467 1.73 1.73 0 01.488-.674 1.08 1.08 0 01.829-.207.806.806 0 01.625.621c.06.284.044.58-.048.855a5.076 5.076 0 01-.745 1.44c-.309.436-.72.789-1.198 1.027a2.44 2.44 0 01-1.524.194 1.815 1.815 0 01-1.203-.85 2.37 2.37 0 01-.322-1.37c.031-.44.145-.868.335-1.265a1.41 1.41 0 01.837-.916.547.547 0 01.573.268c.095.17.148.36.154.555a3.733 3.733 0 01-.44 1.86c-.22.425-.52.805-.882 1.119a3.442 3.442 0 01-.762.493c-.092.05-.192.085-.295.106.353-.184.683-.409.982-.67.338-.317.616-.694.82-1.11.279-.545.415-1.15.396-1.762a1.027 1.027 0 00-.132-.467.361.361 0 00-.379-.177.745.745 0 00-.4.3 2.422 2.422 0 00-.278.507 2.608 2.608 0 000 2.418 1.572 1.572 0 001.053.736c.462.085.939.02 1.361-.185a3.92 3.92 0 001.806-2.309 1.44 1.44 0 00.049-.718.545.545 0 00-.44-.44.842.842 0 00-.63.163 1.424 1.424 0 00-.42.55 4.243 4.243 0 00-.374 1.384 1.242 1.242 0 00.494 1.136 1.7 1.7 0 001.202.278c.407-.076.786-.26 1.097-.533.303-.244.574-.526.807-.837a2.69 2.69 0 00.537-.881.73.73 0 00-.238-.806.465.465 0 00-.678.119c-.282.37-.482.797-.586 1.25-.08.393-.113.794-.097 1.195zm26.072-.603a.358.358 0 01-.101.052c-.066.03-.163.084-.3.137a9.99 9.99 0 01-1.202.414 11.344 11.344 0 01-3.26.414 13.393 13.393 0 00-1.401-.035.956.956 0 00-.613.308.595.595 0 00-.075.652c.124.235.271.456.44.66.181.217.367.441.56.653.194.211.401.44.613.652.202.228.452.41.731.533a.621.621 0 00.718-.255c.172-.26.247-.572.212-.882-.3-2.911.023-5.853.947-8.63l.11-.326.128.317c.292.717.465 1.478.51 2.251a7.22 7.22 0 01-1.272 4.53c-.261.465-.682.82-1.185 1a.727.727 0 01-.776-.278 1.444 1.444 0 01-.207-.754 8.137 8.137 0 01.044-1.431 7.932 7.932 0 01.771-2.59l.08-.164.11.145a1.735 1.735 0 11-2.644-.079.957.957 0 01.44-.304.471.471 0 01.507.141.72.72 0 01.124.476c-.01.15-.043.3-.097.44a5.555 5.555 0 01-1.392 2.203c-.165.16-.342.307-.529.44a1.284 1.284 0 01-.198.129 1.13 1.13 0 01.176-.155 5.898 5.898 0 001.82-2.643.909.909 0 000-.78c-.172-.211-.52-.066-.71.177a1.625 1.625 0 00-.114 1.912 1.582 1.582 0 002.066.44 1.568 1.568 0 00.405-2.23h.19a7.631 7.631 0 00-.785 3.904c-.004.22.05.435.159.626a.48.48 0 00.52.18c.219-.066.418-.183.581-.343.164-.173.312-.36.44-.56.282-.414.519-.857.706-1.321a7.167 7.167 0 00.498-3.031 6.986 6.986 0 00-.49-2.168h.239a20.561 20.561 0 00-.96 8.547c.03.355-.064.71-.265 1.004a.93.93 0 01-.44.326.775.775 0 01-.538 0 2.167 2.167 0 01-.767-.586c-.216-.22-.44-.44-.617-.665-.176-.224-.378-.44-.56-.665a3.454 3.454 0 01-.48-.71.771.771 0 01.11-.845 1.15 1.15 0 01.723-.362c.25-.028.5-.028.75 0 .233 0 .44.036.682.04a11.656 11.656 0 003.23-.348c.41-.102.814-.226 1.211-.37.138-.074.28-.139.427-.194z" fill="#EBEBEB"/><path d="M189 190.264c0 .067-42.294.115-94.496.115S0 190.322 0 190.264c0-.057 42.294-.114 94.509-.114s94.491.053 94.491.114z" fill="#2B3A8C"/><path d="M74.428 190.264c-.247-.973 6.864-36.826 6.864-36.826l38.06-5.441s15.42 9.406 15.931 17.182c.511 7.776 4.075 25.072 4.075 25.072h-36.831l-1.163-1.515-.749 1.387-26.187.141z" fill="#2B3A8C"/><path d="M104.347 183.132v.066a.98.98 0 01-.045.185c-.08.234-.214.447-.392.621a2.13 2.13 0 01-1.013.564 2.255 2.255 0 01-1.529-.154 3.47 3.47 0 01-1.392-1.238 5.766 5.766 0 01-.784-1.987c-.159-.736-.251-1.511-.366-2.313-.114-.802-.229-1.63-.348-2.481-.44-3.387-.88-6.454-1.172-8.714-.136-1.092-.25-1.987-.33-2.643-.03-.295-.057-.533-.08-.723a1.752 1.752 0 010-.251.84.84 0 01.058.247c.035.189.075.44.123.714.102.652.234 1.546.401 2.643.322 2.256.758 5.318 1.243 8.705.114.852.227 1.679.339 2.481.114.802.198 1.577.352 2.3.123.681.373 1.334.736 1.925.322.512.78.925 1.322 1.194a2.144 2.144 0 002.41-.326c.219-.23.38-.51.467-.815zm-3.186-21.557a.653.653 0 01.419-.061 1.408 1.408 0 011.004.541 1.66 1.66 0 01.19 1.675 1.934 1.934 0 01-1.688 1.167 1.708 1.708 0 01-1.7-1.123 1.588 1.588 0 01-.084-.93c.062-.27.198-.517.392-.714a1.652 1.652 0 011.031-.502.694.694 0 01.414.053s-.15 0-.405.035c-.356.069-.68.253-.92.524a1.372 1.372 0 00-.234 1.459 1.528 1.528 0 001.493.969 1.767 1.767 0 001.507-1.022 1.514 1.514 0 00-.124-1.494 1.415 1.415 0 00-.881-.55c-.246-.044-.409-.005-.414-.027z" fill="#000"/><path d="M125.833 60.683h-20.099l-2.233 5.912-12.746 17.468-10.005 72.115 12.746 2.357a23.92 23.92 0 006.709.282l19.147-1.894.573-64.322 9.322-25.874-3.414-6.044z" fill="#F5F5F5"/><path d="M110.58 73.344s0 .075-.053.22c-.052.146-.101.362-.18.63l-.718 2.428a220.06 220.06 0 00-1.119 3.838c-.423 1.497-.925 3.207-1.428 5.101-.502 1.895-1.079 3.965-1.639 6.208a961.717 961.717 0 00-1.762 7.154 437.593 437.593 0 00-3.524 16.513c-1.137 5.881-2.027 11.52-2.78 16.657-.357 2.569-.71 5.009-.978 7.3-.269 2.291-.538 4.428-.75 6.379-.21 1.952-.383 3.719-.537 5.287-.154 1.569-.277 2.89-.365 3.965-.088 1.075-.172 1.934-.22 2.516a38.83 38.83 0 01-.067.656 9.021 9.021 0 01-.026.225 2.165 2.165 0 010-.225c0-.158.022-.379.04-.656.043-.586.1-1.436.18-2.525.08-1.088.176-2.431.326-3.987.15-1.555.286-3.321.502-5.286.216-1.965.44-4.093.723-6.384.282-2.291.608-4.736.956-7.309a406.58 406.58 0 012.762-16.671c1.106-5.89 2.344-11.454 3.525-16.516.616-2.52 1.189-4.921 1.762-7.155a327.91 327.91 0 011.665-6.199c.524-1.89 1.062-3.564 1.503-5.084.44-1.52.828-2.78 1.158-3.828l.758-2.415c.088-.264.154-.475.203-.625l.083-.212zm-24.032 77.129c.011 1.249.159 2.493.44 3.709a17.525 17.525 0 001.437 3.446 3.834 3.834 0 01-.643-.908 10.043 10.043 0 01-1.322-5.141 3.856 3.856 0 01.088-1.106zm1.123 7.428a2.171 2.171 0 01-.731-.353 6.752 6.752 0 01-1.49-1.277 6.863 6.863 0 01-1.065-1.652 2.142 2.142 0 01-.247-.771 9.834 9.834 0 003.524 4.053h.01zm15.508-6.789c.077.37.104.75.079 1.128a12.346 12.346 0 01-1.299 5.26 4.122 4.122 0 01-.591.96c.124-.353.271-.697.441-1.031.363-.821.658-1.671.881-2.542.209-.868.348-1.752.414-2.643.001-.379.026-.757.075-1.132zm.85-85.909s-12.27 5.185-14.036 5.524c-1.767.34-7.952 1.89-7.952 1.89s-4.75 8.503-4.309 13.362c.44 4.86 3.771 39.765 3.771 39.765s-5.414 30.152-5.524 32.359c-.11 2.208-4.75 23.306-3.864 23.196.886-.11 4.956-4.635 4.956-4.635l13.473-74.111s3.524-17.01 6.168-22.534c2.643-5.525 7.3-12.702 7.3-12.702l.017-2.114z" fill="#2B3A8C"/><path d="M86.037 127.348a1.029 1.029 0 010-.172c0-.128 0-.295-.031-.511 0-.463-.048-1.119-.088-1.965-.062-1.718-.15-4.181-.264-7.225a759.675 759.675 0 01-.304-10.719 316.037 316.037 0 01-.093-6.331c.104-2.275.47-4.531 1.093-6.723.965-3.727 2.176-7.225 3.34-10.463a181.635 181.635 0 013.44-8.79v-.021l3.405-2.85.08.132-2.476.982-.23.088.15-.194 2.838-3.577c.321-.405.577-.718.757-.943l.199-.238.07-.079s0 .03-.057.088l-.185.251-.731.965-2.785 3.617-.075-.101 2.498-1.005.44-.176-.36.308-3.388 2.873.022-.035a201.915 201.915 0 00-3.401 8.81c-1.168 3.248-2.362 6.728-3.322 10.447a29.657 29.657 0 00-1.11 6.656c0 2.203.04 4.309.079 6.327.097 4.031.185 7.666.255 10.719.07 3.053.146 5.507.194 7.229 0 .842.031 1.502.044 1.965v.511c.002.05.001.1-.004.15z" fill="#000"/><path d="M82.04 72.617s-4.043 3.084-4.735 6.565c-.692 3.48-1.727 18.208-1.727 18.208s-1.727 1.96-1.727 2.304c0 .344-.833 9.591-.833 9.591l-12.983-16.3-11.785 11.132s15.292 26.729 21.358 29.104c9.217 3.612 11.97-1.63 11.97-1.63l1.384-21.535-.921-37.439z" fill="#2B3A8C"/><path d="M79.045 87.293a.441.441 0 01.027.118c0 .093.035.207.057.349l.198 1.343c.168 1.168.401 2.86.674 4.957.538 4.185 1.243 9.978 1.617 16.41.176 3.221.234 6.291.198 9.085-.04 1.396-.057 2.722-.145 3.965-.035.621-.062 1.22-.106 1.793-.044.572-.101 1.128-.145 1.652-.08 1.053-.216 2-.313 2.833-.053.414-.101.801-.15 1.158-.048.357-.11.679-.158.97-.093.568-.172 1.017-.225 1.343l-.066.348a.44.44 0 01-.027.115.35.35 0 010-.119c0-.093.027-.212.044-.353.045-.326.106-.775.181-1.348.044-.29.088-.616.141-.969.053-.352.08-.744.128-1.159.088-.837.211-1.762.277-2.832.044-.523.089-1.074.133-1.652.04-.573.061-1.172.092-1.789.08-1.238.093-2.564.123-3.965.023-2.789-.04-5.855-.215-9.067-.375-6.423-1.053-12.217-1.551-16.406-.251-2.08-.44-3.771-.6-4.961-.065-.573-.118-1.026-.153-1.352 0-.142-.027-.256-.036-.349a.382.382 0 010-.118zm-2.388 34.777a2.2 2.2 0 01-.057-.52 39.235 39.235 0 00-.123-1.423 27.08 27.08 0 00-2.52-9.013 31.336 31.336 0 00-.635-1.278 2.39 2.39 0 01-.22-.476c.117.135.217.283.3.441.18.286.44.713.7 1.251a23.527 23.527 0 012.555 9.062c.04.604.058 1.093.049 1.432.002.176-.014.352-.049.524zm1.476-3.242c-.04 0-.066-.63-.246-1.626a14.37 14.37 0 00-3.432-7.014c-.679-.749-1.163-1.158-1.137-1.189.132.069.253.157.361.26.312.253.606.527.881.819a12.966 12.966 0 013.485 7.111c.061.399.097.803.106 1.207.014.144.008.289-.018.432zm7.904 8.52a.524.524 0 010 .137c0 .101-.035.229-.057.392-.062.357-.146.859-.252 1.493l-.956 5.498c-.832 4.653-1.973 11.05-3.238 18.116-1.264 7.067-2.458 13.464-3.308 18.112-.44 2.304-.784 4.172-1.027 5.48-.123.635-.224 1.132-.29 1.489-.036.159-.062.287-.084.388-.022.101-.031.132-.035.128a.503.503 0 010-.132c0-.102.035-.229.057-.392.062-.357.145-.882.25-1.494l.957-5.498c.833-4.648 1.974-11.049 3.238-18.12 1.264-7.071 2.458-13.459 3.309-18.107.44-2.304.784-4.172 1.026-5.485.124-.63.225-1.133.29-1.485l.085-.388a.487.487 0 01.035-.132z" fill="#000"/><path d="M126.93 62.687l-11.098 24.284s-5.754 15.741-6.19 17.697c-.436 1.956-6.168 26.813-6.168 26.813l3.78 36.813s.485 12.807 4.15 13.895c3.666 1.088 31.337-3.599 31.337-3.599l-4.56-30.721s-1.735-23.556-1.735-23.882c0-.326 4.996-35.17 4.996-35.17l3.304-13.455-9.384-3.806-8.432-8.869z" fill="#2B3A8C"/><path d="M105.347 125.56a.873.873 0 01.066-.172l.211-.503c.207-.44.498-1.083.881-1.898l3.274-6.944 10.934-22.86 8.811-18.288.089.137h-4.054l.252-.159 3.727-2.326-.031.062-.225-5.468c0-.62-.035-1.105-.048-1.45v-.497a.682.682 0 010 .128c0 .094.009.217.026.37 0 .34.049.824.084 1.45.07 1.277.167 3.127.286 5.462v.04l-.035.022-3.714 2.353-.044-.159h3.873l-.067.136-8.776 18.284c-8.498 17.706-14.974 31.13-15.52 32.28zm27.288-27.584a2.066 2.066 0 01-.52 0 57.388 57.388 0 00-1.406-.084 38.436 38.436 0 00-4.625.075 37.68 37.68 0 00-4.582.661 56.74 56.74 0 00-1.375.3 2.02 2.02 0 01-.511.092c.156-.077.32-.138.489-.18.317-.102.78-.23 1.362-.37a29.56 29.56 0 019.256-.732c.594.049 1.07.101 1.401.154.172.011.344.04.511.084z" fill="#000"/><path d="M132.022 97.857c1.534.058-.264-4.643-.964-6.917-.133-.44-.362-.925-.807-.969a1.16 1.16 0 00-.757.313c-2.987 2.203-5.485 5.216-7.719 8.19 0 0 7.058-.736 10.247-.617z" fill="#E0E0E0"/><path d="M108.941 133.221c-.676.308-1.4.495-2.141.555a6.512 6.512 0 01-2.202 0c0-.066.982-.084 2.202-.242 1.221-.159 2.124-.379 2.141-.313zm28.672 14.776c0 .062-3.454.626-7.732 1.256-4.278.63-7.754 1.097-7.762 1.031-.009-.066 3.449-.626 7.731-1.256 4.283-.63 7.754-1.092 7.763-1.031zm-16.539 29.222s-.026-.039-.066-.127l-.158-.392-.608-1.511a66.073 66.073 0 01-.917-2.406c-.339-.947-.748-2.009-1.141-3.212-.392-1.202-.854-2.506-1.282-3.929a422.882 422.882 0 01-1.343-4.547 163.334 163.334 0 01-2.529-10.573c-.767-3.78-1.322-7.415-1.762-10.728-.199-1.661-.397-3.238-.52-4.718-.124-1.481-.251-2.86-.335-4.12-.084-1.26-.137-2.401-.189-3.401-.053-1-.071-1.868-.084-2.573-.013-.705 0-1.242-.027-1.63v-.44a.555.555 0 010-.141.665.665 0 010 .141v.44l.071 1.626c.022.705.057 1.568.123 2.568s.106 2.142.22 3.402c.115 1.26.203 2.643.362 4.11.158 1.467.339 3.049.537 4.705a178.819 178.819 0 001.762 10.71c.741 3.776 1.639 7.34 2.507 10.574.441 1.603.881 3.136 1.322 4.551.44 1.414.855 2.735 1.256 3.929.4 1.194.779 2.274 1.11 3.221.33.947.625 1.762.881 2.418l.625 1.498c.062.168.106.3.141.401a.77.77 0 01.044.154z" fill="#000"/><path d="M142.741 178.59l-.194.039-.572.088-2.203.318-8.151 1.127-12.089 1.639-3.493.472-1.806.242a6.605 6.605 0 01-1.877.101 3.995 3.995 0 01-3.027-2.242 4.58 4.58 0 01-.308-.938l-.238-.952c-.159-.635-.326-1.273-.441-1.925a113.657 113.657 0 01-2.004-14.812c-.362-4.577-.608-8.705-.903-12.168-.296-3.463-.617-6.247-.882-8.173-.127-.964-.251-1.705-.321-2.202a37.82 37.82 0 01-.079-.578 1.635 1.635 0 010-.198s0 .066.039.194l.106.573c.084.502.22 1.247.366 2.203.282 1.92.634 4.714.942 8.172.309 3.458.586 7.591.956 12.164a114.625 114.625 0 002.018 14.781c.128.652.295 1.286.441 1.92.132.628.311 1.245.533 1.846a3.753 3.753 0 002.85 2.115 6.28 6.28 0 001.815-.097l1.807-.238 3.498-.462 12.093-1.595 8.159-1.053 2.203-.273.577-.066.185-.022z" fill="#000"/><path d="M106.14 71.604l.475 5.586 4.864 1.992 5.661-5.503-3.744-2.075h-2.794l-2.471-.877-1.991.877z" fill="#8CBF43"/><path d="M106.615 77.186s-14.979 38.968-17.076 57.304l6.102 13.507 6.507-9.578 9.494-60.061-5.027-1.172z" fill="#8CBF43"/><path d="M111.462 79.345a13.753 13.753 0 00-2.309-1.269 13.091 13.091 0 00-2.573-.568 5.93 5.93 0 014.882 1.837zm2.202-7.723c-.239.34-.517.652-.828.93A18.5 18.5 0 01107.937 76a5.114 5.114 0 01-1.154.467 9.15 9.15 0 011.079-.608 25.971 25.971 0 004.846-3.423c.3-.294.619-.566.956-.815z" fill="#2B3A8C"/><path d="M111.021 78.882a1 1 0 01-.026.18c-.027.133-.058.305-.102.53-.097.47-.233 1.15-.409 2.017-.357 1.762-.881 4.291-1.476 7.432a529.627 529.627 0 00-5.948 38.298c-.251 2.102-.506 4.097-.846 5.952a35.537 35.537 0 01-1.299 5.045 21.375 21.375 0 01-3.551 6.687 12.816 12.816 0 01-1.943 1.987.764.764 0 01.128-.132l.383-.374c.483-.486.939-.998 1.366-1.534a21.85 21.85 0 003.467-6.67 35.91 35.91 0 001.251-5.062c.335-1.846.582-3.841.824-5.938a573.254 573.254 0 011.762-13.658 510.753 510.753 0 014.216-24.65 366.65 366.65 0 011.547-7.418c.194-.881.348-1.538.44-2.01.049-.224.093-.396.124-.523a.893.893 0 01.092-.159z" fill="#2B3A8C"/><path d="M106.616 101.197a11.917 11.917 0 01-.767-1.296 79.122 79.122 0 00-1.837-3.128 109.408 109.408 0 00-1.952-3.053c-.295-.405-.564-.83-.806-1.269 0 0 .11.097.273.3.163.203.392.502.665.881a46.667 46.667 0 012.018 3.027 37.91 37.91 0 011.762 3.167c.212.419.375.758.481.996.074.115.129.242.163.375zm-2.807 17.005a2.808 2.808 0 01-.277-.515l-.697-1.432a246.057 246.057 0 00-2.317-4.714 228.659 228.659 0 00-2.427-4.652c-.295-.564-.547-1.036-.745-1.41a3.049 3.049 0 01-.251-.529c.128.149.239.311.33.485.199.321.476.788.811 1.374a109.142 109.142 0 014.749 9.375c.273.617.485 1.115.626 1.468.084.176.151.361.198.55zm-1.846 15.054c-.057.031-2.07-3.146-4.502-7.102-2.432-3.956-4.362-7.203-4.31-7.203.054 0 2.071 3.146 4.503 7.102 2.432 3.956 4.362 7.168 4.309 7.203zm-3.568 10.367c-.049.035-1.93-2.644-4.199-5.93-2.269-3.287-4.066-6.027-4.013-6.063.052-.035 1.934 2.622 4.202 5.93 2.27 3.309 4.062 6.063 4.01 6.063zm10.11-53.004a5.572 5.572 0 01-.718-.806l-1.67-1.987-1.705-1.956a5.095 5.095 0 01-.682-.833c.294.209.563.451.801.722a35.112 35.112 0 011.763 1.917 36.463 36.463 0 011.625 2.035c.232.278.429.583.586.908zm-1.136-10.525c-.062.026-.234-.251-.525-.502-.29-.252-.586-.397-.564-.441.022-.044.384 0 .714.286.331.287.432.64.375.657zm.612 1.431c-.044.044-.247-.088-.44-.295-.194-.207-.34-.41-.296-.44.045-.031.252.083.441.29.189.207.344.423.295.445zm2.26 1.767a4.116 4.116 0 01-1.035-.912 4.232 4.232 0 01-.881-1.066c.393.243.743.55 1.035.908.351.305.648.667.881 1.07zm.19-9.132c-.049.052-.837-.626-1.943-1.247-1.106-.621-2.088-.956-2.071-1.022.784.119 1.534.4 2.203.823.694.356 1.31.848 1.811 1.445zm4.163 1.84c-.057.04-.516-.647-1.212-1.374-.696-.727-1.343-1.238-1.321-1.29.568.263 1.071.65 1.471 1.132.463.426.825.95 1.062 1.533z" fill="#FAFAFA"/><path d="M106.615 82.891c.212-.89.495-1.763.846-2.608.283-.87.636-1.716 1.058-2.529a16.233 16.233 0 01-.842 2.608 15.87 15.87 0 01-1.062 2.53zm.582 3.384c.018-.403.077-.803.176-1.194.146-.727.37-1.731.652-2.829a49.15 49.15 0 01.806-2.788c.108-.39.256-.768.441-1.128a6.68 6.68 0 01-.269 1.176l-.736 2.798c-.268 1.057-.515 2.013-.718 2.81-.082.395-.2.782-.352 1.155z" fill="#2B3A8C"/><path opacity=".3" d="M107.056 77.6v.058c.278.07.441.154.441.44a2.091 2.091 0 01-.177.828c-.295.82-.59 1.635-.881 2.454-.075.207-.119.503.079.595.199.093.379-.097.503-.26l1.022-1.37c-.163.784-.322 1.568-.485 2.357-.048.234-.079.524.115.67a.44.44 0 00.533-.07 1.23 1.23 0 00.291-.499l.709-1.762c.147-.427.35-.833.603-1.207.259-.377.654-.64 1.102-.731-1.102-1.022-2.357-1.3-3.855-1.503z" fill="#000"/><path d="M104.029 66.644a.9.9 0 01.031.154c0 .119.031.269.053.44.044.44.101 1.005.181 1.736.141 1.52.343 3.661.586 6.243l-.185-.027 1.343-3.634v-.044h.044l1.992-.881h.083l2.472.88h2.806l5.349 2.944-.133.03 4.882-6.167 1.401-1.763.379-.44a.852.852 0 01.141-.154.99.99 0 01-.115.171l-.352.48-1.357 1.79c-1.19 1.537-2.851 3.696-4.811 6.238l-.057.07-.075-.044-5.349-2.92h.058-2.816l-2.471-.882h.079l-1.991.881.057-.061c-.489 1.295-.951 2.52-1.366 3.625l-.154.406-.035-.44c-.207-2.583-.383-4.724-.507-6.248-.053-.731-.092-1.322-.123-1.762 0-.185-.022-.335-.026-.44a.685.685 0 01-.014-.181zm-29.601 123.62c-.247-.973 6.864-36.826 6.864-36.826l38.06-5.441s15.42 9.406 15.931 17.182c.511 7.776 4.075 25.072 4.075 25.072h-36.831l-1.163-1.515-.749 1.387-26.187.141z" fill="#2B3A8C"/><path d="M104.347 183.132v.066a.98.98 0 01-.045.185c-.08.234-.214.447-.392.621a2.13 2.13 0 01-1.013.564 2.255 2.255 0 01-1.529-.154 3.47 3.47 0 01-1.392-1.238 5.766 5.766 0 01-.784-1.987c-.159-.736-.251-1.511-.366-2.313-.114-.802-.229-1.63-.348-2.481-.44-3.387-.88-6.454-1.172-8.714-.136-1.092-.25-1.987-.33-2.643-.03-.295-.057-.533-.08-.723a1.752 1.752 0 010-.251.84.84 0 01.058.247c.035.189.075.44.123.714.102.652.234 1.546.401 2.643.322 2.256.758 5.318 1.243 8.705.114.852.227 1.679.339 2.481.114.802.198 1.577.352 2.3.123.681.373 1.334.736 1.925.322.512.78.925 1.322 1.194a2.144 2.144 0 002.41-.326c.219-.23.38-.51.467-.815zm-3.186-21.557a.653.653 0 01.419-.061 1.408 1.408 0 011.004.541 1.66 1.66 0 01.19 1.675 1.934 1.934 0 01-1.688 1.167 1.708 1.708 0 01-1.7-1.123 1.588 1.588 0 01-.084-.93c.062-.27.198-.517.392-.714a1.652 1.652 0 011.031-.502.694.694 0 01.414.053s-.15 0-.405.035c-.356.069-.68.253-.92.524a1.372 1.372 0 00-.234 1.459 1.528 1.528 0 001.493.969 1.767 1.767 0 001.507-1.022 1.514 1.514 0 00-.124-1.494 1.415 1.415 0 00-.881-.55c-.246-.044-.409-.005-.414-.027z" fill="#000"/><path d="M125.833 60.683h-20.099l-2.233 5.912-12.746 17.468-10.005 72.115 12.746 2.357a23.92 23.92 0 006.709.282l19.147-1.894.573-64.322 9.322-25.874-3.414-6.044z" fill="#F5F5F5"/><path d="M110.58 73.344s0 .075-.053.22c-.052.146-.101.362-.18.63l-.718 2.428a220.06 220.06 0 00-1.119 3.838c-.423 1.497-.925 3.207-1.428 5.101-.502 1.895-1.079 3.965-1.639 6.208a961.717 961.717 0 00-1.762 7.154 437.593 437.593 0 00-3.524 16.513c-1.137 5.881-2.027 11.52-2.78 16.657-.357 2.569-.71 5.009-.978 7.3-.269 2.291-.538 4.428-.75 6.379-.21 1.952-.383 3.719-.537 5.287-.154 1.569-.277 2.89-.365 3.965-.088 1.075-.172 1.934-.22 2.516a38.83 38.83 0 01-.067.656 9.021 9.021 0 01-.026.225 2.165 2.165 0 010-.225c0-.158.022-.379.04-.656.043-.586.1-1.436.18-2.525.08-1.088.176-2.431.326-3.987.15-1.555.286-3.321.502-5.286.216-1.965.44-4.093.723-6.384.282-2.291.608-4.736.956-7.309a406.58 406.58 0 012.762-16.671c1.106-5.89 2.344-11.454 3.525-16.516.616-2.52 1.189-4.921 1.762-7.155a327.91 327.91 0 011.665-6.199c.524-1.89 1.062-3.564 1.503-5.084.44-1.52.828-2.78 1.158-3.828l.758-2.415c.088-.264.154-.475.203-.625l.083-.212zm-24.032 77.129c.011 1.249.159 2.493.44 3.709a17.525 17.525 0 001.437 3.446 3.834 3.834 0 01-.643-.908 10.043 10.043 0 01-1.322-5.141 3.856 3.856 0 01.088-1.106zm1.123 7.428a2.171 2.171 0 01-.731-.353 6.752 6.752 0 01-1.49-1.277 6.863 6.863 0 01-1.065-1.652 2.142 2.142 0 01-.247-.771 9.834 9.834 0 003.524 4.053h.01zm15.508-6.789c.077.37.104.75.079 1.128a12.346 12.346 0 01-1.299 5.26 4.122 4.122 0 01-.591.96c.124-.353.271-.697.441-1.031.363-.821.658-1.671.881-2.542.209-.868.348-1.752.414-2.643.001-.379.026-.757.075-1.132zm.85-85.909s-12.27 5.185-14.036 5.524c-1.767.34-7.952 1.89-7.952 1.89s-4.75 8.503-4.309 13.362c.44 4.86 3.771 39.765 3.771 39.765s-5.414 30.152-5.524 32.359c-.11 2.208-4.75 23.306-3.864 23.196.886-.11 4.956-4.635 4.956-4.635l13.473-74.111s3.524-17.01 6.168-22.534c2.643-5.525 7.3-12.702 7.3-12.702l.017-2.114z" fill="#2B3A8C"/><path d="M86.037 127.348a1.029 1.029 0 010-.172c0-.128 0-.295-.031-.511 0-.463-.048-1.119-.088-1.965-.062-1.718-.15-4.181-.264-7.225a759.675 759.675 0 01-.304-10.719 316.037 316.037 0 01-.093-6.331c.104-2.275.47-4.531 1.093-6.723.965-3.727 2.176-7.225 3.34-10.463a181.635 181.635 0 013.44-8.79v-.021l3.405-2.85.08.132-2.476.982-.23.088.15-.194 2.838-3.577c.321-.405.577-.718.757-.943l.199-.238.07-.079s0 .03-.057.088l-.185.251-.731.965-2.785 3.617-.075-.101 2.498-1.005.44-.176-.36.308-3.388 2.873.022-.035a201.915 201.915 0 00-3.401 8.81c-1.168 3.248-2.362 6.728-3.322 10.447a29.657 29.657 0 00-1.11 6.656c0 2.203.04 4.309.079 6.327.097 4.031.185 7.666.255 10.719.07 3.053.146 5.507.194 7.229 0 .842.031 1.502.044 1.965v.511c.002.05.001.1-.004.15z" fill="#000"/><path d="M82.04 72.617s-4.043 3.084-4.735 6.565c-.692 3.48-1.727 18.208-1.727 18.208s-1.727 1.96-1.727 2.304c0 .344-.833 9.591-.833 9.591l-12.983-16.3-11.785 11.132s15.292 26.729 21.358 29.104c9.217 3.612 11.97-1.63 11.97-1.63l1.384-21.535-.921-37.439z" fill="#2B3A8C"/><path d="M79.045 87.293a.441.441 0 01.027.118c0 .093.035.207.057.349l.198 1.343c.168 1.168.401 2.86.674 4.957.538 4.185 1.243 9.978 1.617 16.41.176 3.221.234 6.291.198 9.085-.04 1.396-.057 2.722-.145 3.965-.035.621-.062 1.22-.106 1.793-.044.572-.101 1.128-.145 1.652-.08 1.053-.216 2-.313 2.833-.053.414-.101.801-.15 1.158-.048.357-.11.679-.158.97-.093.568-.172 1.017-.225 1.343l-.066.348a.44.44 0 01-.027.115.35.35 0 010-.119c0-.093.027-.212.044-.353.045-.326.106-.775.181-1.348.044-.29.088-.616.141-.969.053-.352.08-.744.128-1.159.088-.837.211-1.762.277-2.832.044-.523.089-1.074.133-1.652.04-.573.061-1.172.092-1.789.08-1.238.093-2.564.123-3.965.023-2.789-.04-5.855-.215-9.067-.375-6.423-1.053-12.217-1.551-16.406-.251-2.08-.44-3.771-.6-4.961-.065-.573-.118-1.026-.153-1.352 0-.142-.027-.256-.036-.349a.382.382 0 010-.118zm-2.388 34.777a2.2 2.2 0 01-.057-.52 39.235 39.235 0 00-.123-1.423 27.08 27.08 0 00-2.52-9.013 31.336 31.336 0 00-.635-1.278 2.39 2.39 0 01-.22-.476c.117.135.217.283.3.441.18.286.44.713.7 1.251a23.527 23.527 0 012.555 9.062c.04.604.058 1.093.049 1.432.002.176-.014.352-.049.524zm1.476-3.242c-.04 0-.066-.63-.246-1.626a14.37 14.37 0 00-3.432-7.014c-.679-.749-1.163-1.158-1.137-1.189.132.069.253.157.361.26.312.253.606.527.881.819a12.966 12.966 0 013.485 7.111c.061.399.097.803.106 1.207.014.144.008.289-.018.432zm7.904 8.52a.524.524 0 010 .137c0 .101-.035.229-.057.392-.062.357-.146.859-.252 1.493l-.956 5.498c-.832 4.653-1.973 11.05-3.238 18.116-1.264 7.067-2.458 13.464-3.308 18.112-.44 2.304-.784 4.172-1.027 5.48-.123.635-.224 1.132-.29 1.489-.036.159-.062.287-.084.388-.022.101-.031.132-.035.128a.503.503 0 010-.132c0-.102.035-.229.057-.392.062-.357.145-.882.25-1.494l.957-5.498c.833-4.648 1.974-11.049 3.238-18.12 1.264-7.071 2.458-13.459 3.309-18.107.44-2.304.784-4.172 1.026-5.485.124-.63.225-1.133.29-1.485l.085-.388a.487.487 0 01.035-.132z" fill="#000"/><path d="M126.93 62.687l-11.098 24.284s-5.754 15.741-6.19 17.697c-.436 1.956-6.168 26.813-6.168 26.813l3.78 36.813s.485 12.807 4.15 13.895c3.666 1.088 31.337-3.599 31.337-3.599l-4.56-30.721s-1.735-23.556-1.735-23.882c0-.326 4.996-35.17 4.996-35.17l3.304-13.455-9.384-3.806-8.432-8.869z" fill="#2B3A8C"/><path d="M105.347 125.56a.873.873 0 01.066-.172l.211-.503c.207-.44.498-1.083.881-1.898l3.274-6.944 10.934-22.86 8.811-18.288.089.137h-4.054l.252-.159 3.727-2.326-.031.062-.225-5.468c0-.62-.035-1.105-.048-1.45v-.497a.682.682 0 010 .128c0 .094.009.217.026.37 0 .34.049.824.084 1.45.07 1.277.167 3.127.286 5.462v.04l-.035.022-3.714 2.353-.044-.159h3.873l-.067.136-8.776 18.284c-8.498 17.706-14.974 31.13-15.52 32.28zm27.288-27.584a2.066 2.066 0 01-.52 0 57.388 57.388 0 00-1.406-.084 38.436 38.436 0 00-4.625.075 37.68 37.68 0 00-4.582.661 56.74 56.74 0 00-1.375.3 2.02 2.02 0 01-.511.092c.156-.077.32-.138.489-.18.317-.102.78-.23 1.362-.37a29.56 29.56 0 019.256-.732c.594.049 1.07.101 1.401.154.172.011.344.04.511.084z" fill="#000"/><path d="M132.022 97.857c1.534.058-.264-4.643-.964-6.917-.133-.44-.362-.925-.807-.969a1.16 1.16 0 00-.757.313c-2.987 2.203-5.485 5.216-7.719 8.19 0 0 7.058-.736 10.247-.617z" fill="#E0E0E0"/><path d="M108.941 133.221c-.676.308-1.4.495-2.141.555a6.512 6.512 0 01-2.202 0c0-.066.982-.084 2.202-.242 1.221-.159 2.124-.379 2.141-.313zm28.672 14.776c0 .062-3.454.626-7.732 1.256-4.278.63-7.754 1.097-7.762 1.031-.009-.066 3.449-.626 7.731-1.256 4.283-.63 7.754-1.092 7.763-1.031zm-16.539 29.222s-.026-.039-.066-.127l-.158-.392-.608-1.511a66.073 66.073 0 01-.917-2.406c-.339-.947-.748-2.009-1.141-3.212-.392-1.202-.854-2.506-1.282-3.929a422.882 422.882 0 01-1.343-4.547 163.334 163.334 0 01-2.529-10.573c-.767-3.78-1.322-7.415-1.762-10.728-.199-1.661-.397-3.238-.52-4.718-.124-1.481-.251-2.86-.335-4.12-.084-1.26-.137-2.401-.189-3.401-.053-1-.071-1.868-.084-2.573-.013-.705 0-1.242-.027-1.63v-.44a.555.555 0 010-.141.665.665 0 010 .141v.44l.071 1.626c.022.705.057 1.568.123 2.568s.106 2.142.22 3.402c.115 1.26.203 2.643.362 4.11.158 1.467.339 3.049.537 4.705a178.819 178.819 0 001.762 10.71c.741 3.776 1.639 7.34 2.507 10.574.441 1.603.881 3.136 1.322 4.551.44 1.414.855 2.735 1.256 3.929.4 1.194.779 2.274 1.11 3.221.33.947.625 1.762.881 2.418l.625 1.498c.062.168.106.3.141.401a.77.77 0 01.044.154z" fill="#000"/><path d="M142.741 178.59l-.194.039-.572.088-2.203.318-8.151 1.127-12.089 1.639-3.493.472-1.806.242a6.605 6.605 0 01-1.877.101 3.995 3.995 0 01-3.027-2.242 4.58 4.58 0 01-.308-.938l-.238-.952c-.159-.635-.326-1.273-.441-1.925a113.657 113.657 0 01-2.004-14.812c-.362-4.577-.608-8.705-.903-12.168-.296-3.463-.617-6.247-.882-8.173-.127-.964-.251-1.705-.321-2.202a37.82 37.82 0 01-.079-.578 1.635 1.635 0 010-.198s0 .066.039.194l.106.573c.084.502.22 1.247.366 2.203.282 1.92.634 4.714.942 8.172.309 3.458.586 7.591.956 12.164a114.625 114.625 0 002.018 14.781c.128.652.295 1.286.441 1.92.132.628.311 1.245.533 1.846a3.753 3.753 0 002.85 2.115 6.28 6.28 0 001.815-.097l1.807-.238 3.498-.462 12.093-1.595 8.159-1.053 2.203-.273.577-.066.185-.022z" fill="#000"/><path d="M106.14 71.604l.475 5.586 4.864 1.992 5.661-5.503-3.744-2.075h-2.794l-2.471-.877-1.991.877z" fill="#8CBF43"/><path d="M106.615 77.186s-14.979 38.968-17.076 57.304l6.102 13.507 6.507-9.578 9.494-60.061-5.027-1.172z" fill="#8CBF43"/><path d="M111.462 79.345a13.753 13.753 0 00-2.309-1.269 13.091 13.091 0 00-2.573-.568 5.93 5.93 0 014.882 1.837zm2.202-7.723c-.239.34-.517.652-.828.93A18.5 18.5 0 01107.937 76a5.114 5.114 0 01-1.154.467 9.15 9.15 0 011.079-.608 25.971 25.971 0 004.846-3.423c.3-.294.619-.566.956-.815z" fill="#2B3A8C"/><path d="M111.021 78.882a1 1 0 01-.026.18c-.027.133-.058.305-.102.53-.097.47-.233 1.15-.409 2.017-.357 1.762-.881 4.291-1.476 7.432a529.627 529.627 0 00-5.948 38.298c-.251 2.102-.506 4.097-.846 5.952a35.537 35.537 0 01-1.299 5.045 21.375 21.375 0 01-3.551 6.687 12.816 12.816 0 01-1.943 1.987.764.764 0 01.128-.132l.383-.374c.483-.486.939-.998 1.366-1.534a21.85 21.85 0 003.467-6.67 35.91 35.91 0 001.251-5.062c.335-1.846.582-3.841.824-5.938a573.254 573.254 0 011.762-13.658 510.753 510.753 0 014.216-24.65 366.65 366.65 0 011.547-7.418c.194-.881.348-1.538.44-2.01.049-.224.093-.396.124-.523a.893.893 0 01.092-.159z" fill="#2B3A8C"/><path d="M106.616 101.197a11.917 11.917 0 01-.767-1.296 79.122 79.122 0 00-1.837-3.128 109.408 109.408 0 00-1.952-3.053c-.295-.405-.564-.83-.806-1.269 0 0 .11.097.273.3.163.203.392.502.665.881a46.667 46.667 0 012.018 3.027 37.91 37.91 0 011.762 3.167c.212.419.375.758.481.996.074.115.129.242.163.375zm-2.807 17.005a2.808 2.808 0 01-.277-.515l-.697-1.432a246.057 246.057 0 00-2.317-4.714 228.659 228.659 0 00-2.427-4.652c-.295-.564-.547-1.036-.745-1.41a3.049 3.049 0 01-.251-.529c.128.149.239.311.33.485.199.321.476.788.811 1.374a109.142 109.142 0 014.749 9.375c.273.617.485 1.115.626 1.468.084.176.151.361.198.55zm-1.846 15.054c-.057.031-2.07-3.146-4.502-7.102-2.432-3.956-4.362-7.203-4.31-7.203.054 0 2.071 3.146 4.503 7.102 2.432 3.956 4.362 7.168 4.309 7.203zm-3.568 10.367c-.049.035-1.93-2.644-4.199-5.93-2.269-3.287-4.066-6.027-4.013-6.063.052-.035 1.934 2.622 4.202 5.93 2.27 3.309 4.062 6.063 4.01 6.063zm10.11-53.004a5.572 5.572 0 01-.718-.806l-1.67-1.987-1.705-1.956a5.095 5.095 0 01-.682-.833c.294.209.563.451.801.722a35.112 35.112 0 011.763 1.917 36.463 36.463 0 011.625 2.035c.232.278.429.583.586.908zm-1.136-10.525c-.062.026-.234-.251-.525-.502-.29-.252-.586-.397-.564-.441.022-.044.384 0 .714.286.331.287.432.64.375.657zm.612 1.431c-.044.044-.247-.088-.44-.295-.194-.207-.34-.41-.296-.44.045-.031.252.083.441.29.189.207.344.423.295.445zm2.26 1.767a4.116 4.116 0 01-1.035-.912 4.232 4.232 0 01-.881-1.066c.393.243.743.55 1.035.908.351.305.648.667.881 1.07zm.19-9.132c-.049.052-.837-.626-1.943-1.247-1.106-.621-2.088-.956-2.071-1.022.784.119 1.534.4 2.203.823.694.356 1.31.848 1.811 1.445zm4.163 1.84c-.057.04-.516-.647-1.212-1.374-.696-.727-1.343-1.238-1.321-1.29.568.263 1.071.65 1.471 1.132.463.426.825.95 1.062 1.533z" fill="#FAFAFA"/><path d="M106.615 82.891c.212-.89.495-1.763.846-2.608.283-.87.636-1.716 1.058-2.529a16.233 16.233 0 01-.842 2.608 15.87 15.87 0 01-1.062 2.53zm.582 3.384c.018-.403.077-.803.176-1.194.146-.727.37-1.731.652-2.829a49.15 49.15 0 01.806-2.788c.108-.39.256-.768.441-1.128a6.68 6.68 0 01-.269 1.176l-.736 2.798c-.268 1.057-.515 2.013-.718 2.81-.082.395-.2.782-.352 1.155z" fill="#2B3A8C"/><path opacity=".3" d="M107.056 77.6v.058c.278.07.441.154.441.44a2.091 2.091 0 01-.177.828c-.295.82-.59 1.635-.881 2.454-.075.207-.119.503.079.595.199.093.379-.097.503-.26l1.022-1.37c-.163.784-.322 1.568-.485 2.357-.048.234-.079.524.115.67a.44.44 0 00.533-.07 1.23 1.23 0 00.291-.499l.709-1.762c.147-.427.35-.833.603-1.207.259-.377.654-.64 1.102-.731-1.102-1.022-2.357-1.3-3.855-1.503z" fill="#000"/><path d="M104.029 66.644a.9.9 0 01.031.154c0 .119.031.269.053.44.044.44.101 1.005.181 1.736.141 1.52.343 3.661.586 6.243l-.185-.027 1.343-3.634v-.044h.044l1.992-.881h.083l2.472.88h2.806l5.349 2.944-.133.03 4.882-6.167 1.401-1.763.379-.44a.852.852 0 01.141-.154.99.99 0 01-.115.171l-.352.48-1.357 1.79c-1.19 1.537-2.851 3.696-4.811 6.238l-.057.07-.075-.044-5.349-2.92h.058-2.816l-2.471-.882h.079l-1.991.881.057-.061c-.489 1.295-.951 2.52-1.366 3.625l-.154.406-.035-.44c-.207-2.583-.383-4.724-.507-6.248-.053-.731-.092-1.322-.123-1.762 0-.185-.022-.335-.026-.44a.685.685 0 01-.014-.181z" fill="#2B3A8C"/><path d="M96.923 33.139a3.788 3.788 0 01-1.881-5.978c.44-.534.996-.97 1.269-1.595.581-1.344-.467-2.886-.207-4.33.238-1.323 1.528-2.226 2.797-2.706 1.269-.48 2.644-.74 3.758-1.542 1.009-.736 1.666-1.864 2.617-2.67a5.45 5.45 0 014.917-1.061c1.727.489 3.176 1.828 4.956 2.03 1.3.146 2.582-.339 3.886-.44a6.511 6.511 0 016.524 4.846c.291 1.269.582 2.37 1.397 3.384 1.062 1.321 2.899 1.762 3.732 3.224.497.882.339 1.979.044 2.94-.296.96-.714 1.92-.696 2.929a3.57 3.57 0 002.78 3.348 3.531 3.531 0 01-1.846 2.203c.665.37 1.42.549 2.18.515a7.226 7.226 0 01-3.864 4.216 7.219 7.219 0 01-5.718.084" fill="#E0E0E0"/><path d="M125.533 39.54c.141-.066 5.754-1.815 5.67 3.965-.084 5.78-5.846 4.485-5.855 4.322-.009-.163.185-8.287.185-8.287z" fill="#FFBE9D"/><path d="M127.137 45.651c.026 0 .101.07.268.154.238.103.505.112.749.027.613-.216 1.141-1.177 1.181-2.203a3.31 3.31 0 00-.26-1.44 1.142 1.142 0 00-.744-.776.516.516 0 00-.595.264c-.08.159-.044.278-.075.287-.031.008-.123-.102-.071-.335a.631.631 0 01.229-.361.764.764 0 01.56-.137 1.407 1.407 0 011.035.907c.237.504.348 1.057.322 1.613-.053 1.159-.661 2.233-1.498 2.463a1.08 1.08 0 01-.916-.163c-.177-.159-.203-.291-.185-.3z" fill="#BC8579"/><path d="M96.364 51.294c-.124-4.066.308-12.454.788-20.045a15.692 15.692 0 0115.384-14.702h.811c8.772.357 13.362 8.005 12.776 16.742l-.762 28.91-15.01 9.308-5.286-4.137v-6.502s-8.45-1.159-8.701-9.574z" fill="#FFBE9D"/><path d="M105.047 60.868s5.331.339 10.921-3.313c0 0-2.427 6.198-10.842 5.586l-.079-2.273z" fill="#BC8579"/><path d="M100.126 37.047a1.202 1.202 0 001.203 1.194 1.148 1.148 0 00.842-.297 1.162 1.162 0 00.378-.81 1.202 1.202 0 00-1.22-1.193 1.153 1.153 0 00-1.098.667 1.15 1.15 0 00-.105.439zm13.137-.154a1.205 1.205 0 001.181 1.194 1.156 1.156 0 001.22-1.106 1.206 1.206 0 00-1.18-1.194 1.152 1.152 0 00-1.221 1.106zm-14.3-1.208c.15.154 1.049-.537 2.344-.555 1.295-.018 2.251.608 2.388.44.07-.07-.088-.352-.507-.647a3.303 3.303 0 00-1.916-.55 3.177 3.177 0 00-1.864.634c-.392.339-.52.625-.445.678zm13.001-.511c.163.146 1.017-.599 2.308-.7 1.291-.101 2.287.467 2.415.3.061-.075-.111-.349-.551-.613a3.255 3.255 0 00-1.947-.44 3.184 3.184 0 00-1.82.753c-.37.33-.467.639-.405.7zm-4.736 9.856c0-.075-.802-.199-2.111-.344-.33-.026-.643-.088-.7-.313-.035-.34.035-.683.203-.982.295-.806.607-1.648.929-2.533 1.295-3.604 2.203-6.57 2.08-6.609-.124-.04-1.322 2.829-2.604 6.437a163.99 163.99 0 00-.881 2.546 1.886 1.886 0 00-.146 1.322.833.833 0 00.551.471c.183.047.371.07.56.07 1.299.018 2.114.01 2.119-.065zm3.824.828c-.212 0-.19 1.397-1.375 2.414-1.185 1.018-2.683.882-2.692 1.084 0 .088.34.269.974.273a3.494 3.494 0 002.247-.824 3.06 3.06 0 001.062-2.022c.039-.59-.124-.934-.216-.925z" fill="#2B3A8C"/><path d="M111.391 29.694c.163.34 1.432.044 2.961.07 1.528.027 2.788.318 2.96 0 .071-.158-.172-.467-.7-.753a5.138 5.138 0 00-4.512-.04c-.528.26-.779.547-.709.723zm-12.265 2.533c.233.29 1.119-.03 2.203-.062 1.084-.03 1.982.163 2.203-.15.088-.15-.058-.44-.441-.713a3.181 3.181 0 00-3.524.172c-.406.308-.525.612-.441.753z" fill="#E0E0E0"/><path d="M106.351 15.86c2.93-1.277 5.965-.77 9.146-.44a14.43 14.43 0 016.824 2.436c3.287 2.247 5.005 5.952 5.318 9.917a37.022 37.022 0 01-.837 11.437l-.313-.057c.229.96.441 1.982.15 2.925-.291.943-1.357 1.714-2.278 1.348-1.075-.44-1.163-1.886-1.106-3.04.149-3.897.024-7.8-.374-11.68-.269-2.902-2.057-6.4-4.37-7.696-5.212-2.885-9.054 0-10.807.71-2.882-2.3-5.957-.815-7.596 1.321.516-3.176 3.309-5.89 6.243-7.18z" fill="#E0E0E0"/><path d="M129.423 25.134c0 .176-.33.396-1.022.507a6.746 6.746 0 01-2.886-.326 15.45 15.45 0 01-3.74-1.86c-1.278-.832-2.555-1.793-3.917-2.568a8.64 8.64 0 00-3.894-1.264 8.136 8.136 0 00-3.326.568c-1.873.727-2.829 1.762-3.163 1.515-.08-.052-.102-.171-.071-.365.055-.264.154-.517.291-.75a6.318 6.318 0 012.026-2.105 8.336 8.336 0 016.913-1.07 11.72 11.72 0 012.573 1.088 32.237 32.237 0 014.031 2.898 25.842 25.842 0 003.035 2.128c.714.41 1.459.76 2.229 1.049.582.211.912.357.921.555zm.207 4.692a2.878 2.878 0 01-1.097.233 6.982 6.982 0 01-5.044-1.639 2.918 2.918 0 01-.749-.828c.307.209.601.435.881.679a7.973 7.973 0 004.917 1.595c.665-.01 1.083-.084 1.092-.04zm2.538 5.767a1.531 1.531 0 01-.441-.106c-.277-.08-.669-.22-1.15-.414a18 18 0 01-3.524-1.956 18.251 18.251 0 01-3.018-2.688 13.827 13.827 0 01-.771-.947c-.167-.233-.26-.37-.242-.379.017-.009.44.44 1.158 1.194a22.538 22.538 0 003.032 2.6 22.907 22.907 0 003.458 2c.912.431 1.498.651 1.498.696z" fill="#fff"/><path d="M112.096 14.71c-.407.211-.825.4-1.251.568a7.781 7.781 0 00-2.622 1.904 4.637 4.637 0 00-1.114 2.965c.026.447.1.89.22 1.321 0 0-.092-.1-.189-.326a3.073 3.073 0 01-.225-1 4.563 4.563 0 011.097-3.15 7.049 7.049 0 012.758-1.903c.42-.193.867-.32 1.326-.379z" fill="#fff"/><path d="M108.981 12.882c.027.04-.44.313-1.031.93a5.99 5.99 0 00-1.365 6.128c.273.81.577 1.25.537 1.277-.04.027-.106-.088-.242-.29a4.915 4.915 0 01-.476-.921 5.73 5.73 0 011.41-6.349c.251-.239.527-.45.824-.63a.992.992 0 01.343-.145zm17.521 27.486c0 .07-.951 0-1.907-.63-.956-.63-1.406-1.467-1.322-1.498.084-.03.586.683 1.489 1.27.903.585 1.758.78 1.74.858zm.348 1.102c0 .066-1.035.132-2.141-.44-1.106-.573-1.648-1.48-1.586-1.507.062-.027.665.727 1.714 1.264 1.048.538 2.044.6 2.013.683zM99.452 24.297a1.445 1.445 0 01-.762-.264 3.815 3.815 0 01-1.89-3.26 1.54 1.54 0 01.145-.793c.034.26.05.521.049.784a4.269 4.269 0 001.802 3.084c.387.295.674.41.656.449zm.859-1.67c-.053.049-.74-.643-1.322-1.678a5.146 5.146 0 01-.78-2.005c.075-.026.441.855 1.01 1.86.568 1.004 1.154 1.77 1.092 1.823z" fill="#fff"/><path d="M119.74 35.434c.035.053-.348.357-.908.573a1.842 1.842 0 01-1.053.19c.308-.173.635-.31.974-.406.312-.16.644-.28.987-.357zm.912 1.274a3.696 3.696 0 01-1.26.035 3.585 3.585 0 01-1.243-.194c.415-.09.842-.101 1.26-.035a3.49 3.49 0 011.243.194zm-21.905.88c0 .062-.308.12-.692.12-.383 0-.691-.045-.691-.106 0-.062.308-.12.691-.124.384-.004.692.049.692.11zm-.326-.652c-.03.053-.295-.044-.59-.22-.296-.176-.503-.366-.472-.44.031-.075.3.043.59.22.291.176.507.387.472.44zm13.296-11.467c0 .04-.405.127-1.035.379-.63.25-1.463.67-2.428 1.088a6.69 6.69 0 01-2.612.617c-.275 0-.549-.034-.815-.102-.185-.048-.282-.097-.278-.11.005-.013.419.084 1.088.049a7.459 7.459 0 002.529-.666c.947-.41 1.802-.823 2.463-1.03a3.08 3.08 0 011.088-.225zm-1.705-.189a7.58 7.58 0 01-5.26.766c0-.07 1.207.084 2.643-.132 1.436-.216 2.591-.705 2.617-.635zm2.661 20.9c-.057.03-.26-.441-.802-.683a2.433 2.433 0 00-1.053-.053c0-.027.084-.123.291-.19a1.257 1.257 0 011.48.586c.106.194.11.335.084.34zm1.093-.26c-.062 0-.19-.533-.74-.881a2.818 2.818 0 00-1.102-.318s.124-.096.357-.114a1.51 1.51 0 011.445.938c.079.225.066.37.04.375z" fill="#BC8579"/><path d="M100.606 41.047s.212 0 .591-.075a4.33 4.33 0 001.546-.55 4.413 4.413 0 001.714-1.816 4.17 4.17 0 00.44-1.458c.053-.533 0-1.119.027-1.714l.105.102h-9.89l.11-.106c-.026.638-.007 1.277.057 1.912.091.57.297 1.115.604 1.604a4.406 4.406 0 002.203 1.762 5.02 5.02 0 001.85.29h.507a.7.7 0 01.176 0 .515.515 0 01-.176 0h-.507a4.731 4.731 0 01-1.899-.233 4.459 4.459 0 01-2.934-3.467 12.92 12.92 0 01-.075-1.947v-.11h10.12v.105c0 .6 0 1.168-.044 1.736a4.305 4.305 0 01-.476 1.52 4.687 4.687 0 01-.837 1.128c-.3.31-.639.58-1.009.802a4.185 4.185 0 01-1.604.506 2.81 2.81 0 01-.44 0c-.106.018-.159.018-.159.01zm13.939 0s.212 0 .591-.075a4.373 4.373 0 001.551-.55 4.65 4.65 0 00.942-.714c.318-.326.585-.697.793-1.102.235-.455.385-.95.441-1.458.053-.533.022-1.12.026-1.714l.106.101h-9.891l.111-.105c-.027.638-.007 1.276.057 1.912a4.335 4.335 0 002.784 3.374 5.025 5.025 0 001.851.291h.506a.71.71 0 01.176 0 .51.51 0 01-.176 0h-.506a4.728 4.728 0 01-1.899-.233 4.458 4.458 0 01-2.934-3.468 12.924 12.924 0 01-.075-1.947v-.11h10.119v.106c0 .599 0 1.167-.044 1.736a4.305 4.305 0 01-.475 1.52 4.664 4.664 0 01-.838 1.127 4.83 4.83 0 01-1.013.793 4.186 4.186 0 01-1.603.507 2.848 2.848 0 01-.441 0c-.093.018-.159.018-.159.009z" fill="#000"/><path d="M109.003 36.751c-.031 0-.176-.198-.493-.44a2.491 2.491 0 00-1.454-.547 2.454 2.454 0 00-1.467.472c-.331.238-.485.44-.516.44-.03 0 .084-.268.415-.56a2.347 2.347 0 011.572-.572 2.38 2.38 0 011.547.643c.321.296.418.556.396.564zm18.495 2.124a8.351 8.351 0 01-1.26-.247c-.771-.171-1.842-.4-3.027-.625-1.185-.225-2.264-.388-3.049-.507a8.082 8.082 0 01-1.264-.224c.43-.023.861 0 1.286.066a37.777 37.777 0 016.107 1.132c.415.094.819.23 1.207.405z" fill="#000"/><path d="M100.263 40.505c-.364.049-.733.02-1.084-.084a5.054 5.054 0 01-2.318-1.211 4.405 4.405 0 01-1.321-2.265 2.277 2.277 0 01-.036-1.083c.04 0 .022.414.194 1.044.237.82.694 1.559 1.322 2.136.63.57 1.385.987 2.203 1.216.63.185 1.04.212 1.04.247zm14.141-.26a3.595 3.595 0 01-1.035-.114 5.757 5.757 0 01-2.348-.974 3.381 3.381 0 01-1.322-2.15 2.175 2.175 0 01.027-.78c.039-.176.083-.268.097-.264-.025.338-.013.678.035 1.013.189.802.657 1.51 1.322 1.996.674.47 1.432.809 2.233.996.337.067.669.16.991.277z" fill="#fff"/><path d="M115.647 67.265s-.102 0-.243-.093a1.153 1.153 0 01-.414-.581 4.89 4.89 0 01-.207-1.01 1.321 1.321 0 00-.515-.986 11.379 11.379 0 01-1.137-.52 1.698 1.698 0 01-.599-.881 1.136 1.136 0 01.048-.947c-.017.297.019.596.106.88.11.303.308.565.569.754.281.22.713.247 1.136.498.198.13.351.318.441.537.078.195.13.4.154.608.021.335.071.666.15.992.076.302.257.567.511.749zm1.951-.622a1.449 1.449 0 01-.828-.537 2.243 2.243 0 01-.484-.978 1.959 1.959 0 01-.04-.652c.022-.22.07-.44.079-.652a1.24 1.24 0 00-.55-1.009 5.664 5.664 0 01-.41-.397 1.227 1.227 0 01-.251-.462.834.834 0 01.083-.74c.124-.137.234-.146.238-.137.005.009-.083.057-.167.19a.788.788 0 000 .634c.052.143.133.273.238.383.129.131.266.255.409.37.167.138.315.297.441.472.139.206.206.452.189.7 0 .247-.061.467-.083.674-.022.196-.014.393.022.586.062.332.201.644.405.912.211.241.449.457.709.643z" fill="#BC8579"/><path d="M59.079 94.438c-.18-.119-6.96-8.37-6.96-8.37s-.063-1.921-2.345-4.023c-2.282-2.101-8.287-8.529-8.287-8.529l-6.784-.718s-.837 1.141 0 2.163l.127.15c-.533-.062-2.127-.119-2.229 1.529-.119 1.982.48 2.582.48 2.582a8.783 8.783 0 00-.78 2.823 7.932 7.932 0 00.243 2.34s-.18.542 0 2.282a3.422 3.422 0 001.26 2.463 3.357 3.357 0 00-.3 2.52c.441 1.321 2.102 2.202 2.102 2.202s3.3 1.498 4.141 1.622c.842.123 6.071 1.048 6.071 1.048l4.049 5.987 9.212-8.07z" fill="#FFBE9D"/><path d="M54.735 93.095a1.639 1.639 0 01-.846-.212 3.196 3.196 0 01-.797-.524 7.42 7.42 0 01-.758-.881 2.273 2.273 0 00-.82-.696 2.541 2.541 0 01-.85-.44.675.675 0 01-.18-.64c.061-.163.158-.194.163-.185.004.009-.053.07-.075.207a.622.622 0 00.207.498c.252.163.529.285.82.361.362.168.678.424.916.745.222.308.463.603.722.881.217.21.462.39.727.533.454.247.78.317.771.353zm.899-.507s-.035-.088-.128-.194a1.005 1.005 0 00-.546-.26 3.084 3.084 0 01-.978-.207.882.882 0 01-.388-.507 5.608 5.608 0 01-.11-.62 1.07 1.07 0 00-.194-.52 1.426 1.426 0 00-.414-.326 2.883 2.883 0 01-.828-.547.88.88 0 01-.256-.639c0-.167.101-.233.106-.229.004.005 0 .093 0 .234a.82.82 0 00.286.52c.245.199.518.36.81.475.188.09.355.217.49.375.136.18.22.393.242.617.057.44.093.828.383.986a3.4 3.4 0 00.881.23.96.96 0 01.582.365c.093.146.07.247.062.247z" fill="#BC8579"/><path d="M39.333 91.478l.282 13.287h-3.053V92.883l.731-1.03 2.04-.375z" fill="#000"/><path d="M34.509 74.56c.47.39.96.75 1.471 1.084a8.08 8.08 0 004.168 1.168h.44l-.026.14a5.287 5.287 0 00.85 3.935c.343.46.731.883 1.16 1.264a1.764 1.764 0 01-.393-.251 4.589 4.589 0 01-.881-.92 5.287 5.287 0 01-.842-1.723 5.114 5.114 0 01-.105-2.357l.114.136h-.321a7.784 7.784 0 01-4.247-1.26 6.92 6.92 0 01-1.062-.841 1.795 1.795 0 01-.326-.375z" fill="#BC8579"/><path d="M33.104 79.186s.097-.07.295-.132c.286-.088.582-.138.88-.15a7.25 7.25 0 012.838.547c.878.358 1.78.653 2.7.88.273.065.559.036.811-.083.172-.097.247-.19.26-.172.014.018-.04.115-.216.247a1.229 1.229 0 01-.88.172 14.85 14.85 0 01-2.785-.829 8.025 8.025 0 00-2.753-.599c-.386.017-.77.057-1.15.12zm-.454 5.12c.11-.101.241-.177.383-.225.381-.148.79-.213 1.198-.19.52 0 1.115.133 1.762.203.648.07 1.397.18 2.16.26.37.044.741.069 1.114.075h.528c.16-.011.318-.047.468-.106a3.02 3.02 0 00.793-.44 1.46 1.46 0 00.29-.273c.066-.105.114-.22.141-.34a2.5 2.5 0 000-1.154 2.055 2.055 0 00-.154-.4s.154.092.242.374c.12.396.137.816.049 1.22-.029.138-.08.27-.15.392a1.53 1.53 0 01-.321.33 3.248 3.248 0 01-.838.503c-.17.066-.347.109-.528.127h-.542c-.37 0-.75-.03-1.137-.07-.775-.084-1.498-.207-2.159-.282-.66-.075-1.26-.216-1.762-.251a3.522 3.522 0 00-1.537.247zm1.273 4.824a1.04 1.04 0 01.278-.353 1.53 1.53 0 01.44-.295c.217-.09.446-.146.679-.168l.824-.079a9.12 9.12 0 01.956-.062c.67 0 1.405.031 2.167 0 .364.004.726-.046 1.075-.15.314-.097.585-.297.771-.568a1.94 1.94 0 00.212-1.621 3.288 3.288 0 00-.538-1.03 2.861 2.861 0 01-.264-.353s.14.083.33.295c.28.299.492.653.626 1.04a2.066 2.066 0 01-.19 1.762 1.657 1.657 0 01-.88.67 3.853 3.853 0 01-1.146.162c-.776 0-1.511-.03-2.172-.026a10.6 10.6 0 00-.939.04l-.824.048c-.39.003-.768.134-1.075.375-.211.202-.33.326-.33.312z" fill="#BC8579"/><path d="M35.743 91.826c0-.04.44.053 1.167 0a5.728 5.728 0 002.643-.797 2.853 2.853 0 001.058-1.04 1.505 1.505 0 00.132-1.159 1.295 1.295 0 00-.44-.678c-.155-.12-.26-.154-.256-.172.004-.018.123 0 .308.101.257.162.448.41.538.7a1.638 1.638 0 01-.102 1.322c-.266.48-.661.875-1.14 1.141a5.385 5.385 0 01-2.75.763c-.295 0-.59-.029-.88-.084a.883.883 0 01-.278-.097zm6.335-10.084a9.39 9.39 0 00-.34 1.797 6.74 6.74 0 001.168 4.132 7.463 7.463 0 003.423 2.644c.577.199 1.166.362 1.763.489a1.859 1.859 0 01-.498-.022 6.454 6.454 0 01-1.322-.313 7.304 7.304 0 01-3.538-2.648 6.653 6.653 0 01-1.14-4.295c.04-.451.137-.896.29-1.322.042-.163.108-.318.194-.462z" fill="#BC8579"/><path d="M51.541 103.501H24.663v8.362H51.54v-8.362z" fill="#000"/><path d="M29.077 103.589l-.176-.027a2.568 2.568 0 00-.48 0 3.27 3.27 0 00-.697.163 9.015 9.015 0 00-.806.344c-.264.128-.537.24-.815.335a3.129 3.129 0 01-.705.136 2.12 2.12 0 01-.484-.026.794.794 0 01-.172-.049s.061 0 .172.036c.16.019.32.019.48 0 .238-.018.474-.066.7-.141a6.75 6.75 0 00.811-.335c.264-.127.535-.241.81-.339.227-.081.462-.134.701-.159.162-.021.327-.021.49 0a.866.866 0 01.17.062zm-2.802 2.092l-.247.049a3.858 3.858 0 00-1.137.414l-.22.123.053-.044.154-.101a3.67 3.67 0 01.556-.26c.191-.07.389-.121.59-.154a1.28 1.28 0 01.185-.022l.066-.005zm5.216-2.176h-.128a1.383 1.383 0 00-.334.088 2.447 2.447 0 00-.44.238c-.164.11-.331.243-.512.379-.164.136-.34.257-.524.361a1.753 1.753 0 01-.49.185 1.16 1.16 0 01-.352.027.857.857 0 01-.123-.022h.128c.115.005.231-.007.343-.035.168-.039.328-.103.476-.19a4.27 4.27 0 00.524-.357c.177-.141.348-.273.511-.379a2.15 2.15 0 01.468-.238c.11-.039.226-.065.343-.079l.11.022zm3.353 1.348v-.181a.979.979 0 00-.137-.462.938.938 0 00-.55-.441 1.712 1.712 0 00-.882.049 7.487 7.487 0 00-1.497.599c-.181.101-.326.185-.441.247l-.115.07-.04.022.036-.026.11-.075c.097-.066.238-.154.44-.256a6.81 6.81 0 011.499-.612 1.67 1.67 0 01.88-.044.942.942 0 01.565.44.983.983 0 01.127.472.82.82 0 01.005.198z" fill="#2B3A8C"/><path d="M33.782 104.853a1.406 1.406 0 00-.145-.101.83.83 0 00-.419-.084c-.15.01-.298.038-.44.084a.77.77 0 01-.177.048c.054-.028.11-.052.168-.07.142-.052.29-.083.44-.093a.761.761 0 01.44.097.47.47 0 01.107.08c.01.011.02.025.026.039zm-7.437 1.815s-.1 0-.255.044a2.324 2.324 0 00-.59.203 2.272 2.272 0 00-.512.361c-.114.11-.176.19-.184.185a1.716 1.716 0 01.167-.202c.15-.149.323-.273.51-.371.19-.098.394-.165.604-.198.064-.004.127-.004.19 0l.07-.022zm.868 5.195h.066l.181-.067a2.1 2.1 0 00.621-.348.972.972 0 00.287-.392 1.173 1.173 0 000-.555 1.943 1.943 0 00-.613-1.128 2.65 2.65 0 00-1.145-.555 3.99 3.99 0 00-1.058-.07 6.578 6.578 0 00-.713.088l-.19.035h-.066.066l.19-.044a6.36 6.36 0 01.713-.097 3.64 3.64 0 011.062.066 2.57 2.57 0 011.168.564c.334.293.56.691.639 1.128a1.24 1.24 0 01-.027.568 1.028 1.028 0 01-.295.401 2.197 2.197 0 01-.634.344 1.963 1.963 0 01-.252.062z" fill="#2B3A8C"/><path d="M25.839 110.955a.633.633 0 00-.225-.132.564.564 0 00-.3 0 .396.396 0 00-.282.26.378.378 0 00.098.44.687.687 0 00.529.102 1.629 1.629 0 001.052-.688.88.88 0 00.15-.625.62.62 0 00-.344-.48 1.149 1.149 0 00-.55-.067 2.567 2.567 0 00-.485.08 2.817 2.817 0 00-.67.251 1.538 1.538 0 00-.167.092l-.062.031s.075-.053.225-.136c.211-.113.434-.202.665-.265a3.85 3.85 0 01.49-.083c.192-.024.387 0 .567.07a.665.665 0 01.361.498.917.917 0 01-.153.652 1.636 1.636 0 01-1.075.7.693.693 0 01-.551-.11.407.407 0 01-.101-.467.436.436 0 01.3-.268.54.54 0 01.308 0c.062.022.12.055.171.096a.19.19 0 01.049.049zm10.952-.788a3.642 3.642 0 01-.322.114 4.636 4.636 0 01-.912.167 10.17 10.17 0 01-1.374 0c-.52-.03-1.084-.088-1.683-.083a5.585 5.585 0 00-2.92.753 5.603 5.603 0 00-.763.524c-.088.066-.15.124-.194.163l-.066.053s.084-.083.251-.224c.237-.2.49-.378.758-.534.89-.517 1.9-.788 2.93-.784.599 0 1.167.058 1.682.088.458.033.918.033 1.375 0 .309-.019.614-.07.912-.154.101-.031.185-.053.238-.075l.088-.008z" fill="#2B3A8C"/><path d="M38.505 111.14h-.141l-.396.022-.626.026a.759.759 0 01-.392-.035.145.145 0 01-.076-.082.145.145 0 01.005-.112.329.329 0 01.194-.127 9.306 9.306 0 012.15-.221c.107 0 .212.029.304.084a.225.225 0 01.048.304.627.627 0 01-.246.22l-.146.075-.15.066c-.429.17-.886.258-1.348.26a11.681 11.681 0 01-2.643-.37 7.11 7.11 0 00-2.14-.185 3.351 3.351 0 00-1.384.414 2.881 2.881 0 00-.33.22l-.107.089.102-.093c.104-.082.213-.159.326-.229a3.423 3.423 0 011.388-.441 7.068 7.068 0 012.154.185c.855.218 1.73.341 2.612.366.453-.008.9-.096 1.322-.26l.15-.066.145-.075a.582.582 0 00.234-.202.195.195 0 00-.044-.265.494.494 0 00-.282-.079 9.32 9.32 0 00-2.146.211.286.286 0 00-.176.119.116.116 0 00.021.136.112.112 0 00.04.027.8.8 0 00.38.036l.625-.022h.397l.176.004zm4.85-.89h-.04l-.114.04c-.101.035-.246.092-.44.167-.353.15-.81.405-1.322.683-.255.137-.507.255-.74.357a4.435 4.435 0 01-.634.22c-.2.053-.406.084-.613.093h.168a2.698 2.698 0 00.44-.093 4.38 4.38 0 00.63-.22c.23-.102.476-.225.736-.361.51-.278.974-.529 1.322-.675.197-.084.4-.155.608-.211zm4.247.247h-.061l-.168-.027a1.956 1.956 0 00-.264-.031c-.101 0-.22-.026-.352-.03a7.073 7.073 0 00-.921 0 7.87 7.87 0 00-1.11.185 7.651 7.651 0 00-1.062.365 6.292 6.292 0 00-.815.441c-.115.061-.212.132-.3.189l-.216.154-.136.102-.049.035c.216-.185.446-.353.688-.502a6.292 6.292 0 011.885-.811 6.672 6.672 0 011.115-.18c.308-.025.617-.025.925 0 .283.014.564.05.841.11zm3.648-3.855l-.075.048-.22.141a3.746 3.746 0 00-.753.582 1.992 1.992 0 00-.37.542 1.32 1.32 0 00-.12.731c.032.264.137.529.195.815.03.145.03.295 0 .441a.757.757 0 01-.23.396c-.242.183-.515.32-.806.405l-.784.3a2.899 2.899 0 00-.357.154.493.493 0 00-.233.26.295.295 0 00.048.309.42.42 0 00.287.101c.318.002.636-.02.951-.066l.256-.04h.092a3.18 3.18 0 01-.348.071 5.948 5.948 0 01-.951.079.475.475 0 01-.304-.11.324.324 0 01-.058-.335.543.543 0 01.247-.278c.116-.061.237-.112.361-.154l.78-.304c.288-.084.558-.22.798-.401.11-.1.187-.232.22-.379a1.124 1.124 0 000-.44c-.053-.282-.154-.546-.19-.815a1.413 1.413 0 01.128-.749c.093-.201.22-.384.375-.542a3.88 3.88 0 01.762-.582l.224-.132.075-.048zm.049 5.26l-.027-.035-.061-.106c-.049-.092-.124-.225-.203-.396a3.691 3.691 0 01-.357-1.423 2.26 2.26 0 01.414-1.397c.088-.122.192-.231.309-.326.041-.034.085-.065.132-.093l-.124.102a1.775 1.775 0 00-.3.33 2.324 2.324 0 00-.4 1.379c.022.49.14.97.348 1.414.075.177.145.309.194.406l.057.105.018.04zm-14.614-6.128a.94.94 0 00.234-.37 1.09 1.09 0 00.048-.476 1.375 1.375 0 00-.215-.542 2.2 2.2 0 00-.816-.678 4.45 4.45 0 00-.295-.146l-.11-.052h.031l.084.03c.07.031.176.075.3.137.33.153.617.388.832.683.116.164.19.355.216.555a.994.994 0 01-.216.771.441.441 0 01-.093.088zm14.861.339l-.124-.092a3.895 3.895 0 00-.374-.234 3.957 3.957 0 00-1.555-.414 8.347 8.347 0 00-2.388.238c-.44.092-.908.203-1.397.286-.501.091-1.007.156-1.515.194-.984.074-1.972.053-2.952-.062a6.315 6.315 0 01-1.26-.273 3.076 3.076 0 01-.987-.533 3.47 3.47 0 01-.612-.696 5.156 5.156 0 00-.44-.546 1.646 1.646 0 00-.336-.286l-.097-.058-.035-.022a1.613 1.613 0 01.476.357c.16.172.306.354.44.546.173.256.379.487.613.688.291.236.625.415.982.528.409.132.83.222 1.256.269.977.113 1.962.133 2.943.062a14.578 14.578 0 001.515-.194c.485-.084.952-.19 1.397-.282a8.525 8.525 0 012.392-.238 3.823 3.823 0 011.56.441c.13.069.256.148.374.237l.124.084z" fill="#2B3A8C"/><path d="M45.452 104.386s-.33.031-.916.053a9.815 9.815 0 01-1.057 0 5.067 5.067 0 01-1.322-.278h-.048.048a10.584 10.584 0 014.181 0 .558.558 0 01.357.159.245.245 0 01.03.198.355.355 0 01-.105.168.725.725 0 01-.357.141l-.366.057c-.484.07-.956.137-1.41.167a6.306 6.306 0 01-2.378-.202 3.842 3.842 0 01-1.419-.758 2.413 2.413 0 01-.308-.317 1.572 1.572 0 01-.097-.119l.101.114c.096.112.2.217.313.313.415.344.896.597 1.414.745a6.406 6.406 0 002.375.198c.44-.035.92-.101 1.405-.176l.366-.053a.698.698 0 00.339-.132.262.262 0 00.07-.326.545.545 0 00-.339-.146 10.668 10.668 0 00-4.168 0v-.026c.427.149.871.243 1.322.277.35.026.702.034 1.053.022.295 0 .524-.022.678-.03l.238-.049zm6.028.221a4.734 4.734 0 01-.653.03 6.75 6.75 0 01-1.568-.211 6.572 6.572 0 01-1.476-.577 4.483 4.483 0 01-.555-.348h.04l.11.07c.097.057.238.141.418.234.468.243.962.434 1.472.568.51.131 1.033.203 1.56.216h.651v.018zm0-.723h-.283a5.187 5.187 0 01-.682 0 4.949 4.949 0 01-.675-.106l-.202-.057-.07-.022h.074l.203.039c.223.046.448.078.674.097.226.015.453.015.678 0h.207l.075.049z" fill="#2B3A8C"/><path d="M49.158 105.065H26.967v5.344h22.19v-5.344z" fill="#F5F5F5"/><path d="M49.157 105.955l-.035.066-.097.194a2.76 2.76 0 01-.163.304c-.07.114-.145.246-.242.383-.097.136-.198.295-.322.44-.123.146-.26.318-.405.485a8.709 8.709 0 01-1.066.987 9.24 9.24 0 01-1.22.775c-.203.097-.392.194-.578.265l-.264.105-.251.088c-.159.058-.308.093-.44.128-.11.033-.222.06-.335.079l-.212.045h-.075.07l.212-.049.335-.084c.128-.039.273-.075.44-.136l.252-.088.264-.106c.185-.075.37-.172.573-.269a8.72 8.72 0 001.216-.775c.38-.296.736-.623 1.062-.978a6.37 6.37 0 00.405-.485c.128-.15.229-.304.326-.44.097-.137.172-.274.242-.384.07-.11.128-.216.172-.299l.101-.19.035-.061zm-.097 3.255h-.127l-.353.053a6.079 6.079 0 00-2.163.842 5.067 5.067 0 00-.295.193l-.08.058h-.03l.026-.022.075-.062a5.447 5.447 0 011.335-.736 5.8 5.8 0 011.128-.313c.15 0 .269-.039.352-.044h.097l.036.031z" fill="#E0E0E0"/><path d="M45.818 107.598l-.136.075a.944.944 0 01-.441.119.536.536 0 01-.304-.115.333.333 0 01-.097-.361.839.839 0 01.256-.361c.116-.119.241-.23.374-.331a3.544 3.544 0 011.018-.52c.201-.068.41-.115.62-.14.112-.016.225-.016.336 0a.624.624 0 01.313.149.445.445 0 01.127.326.878.878 0 01-.114.344c-.13.21-.277.407-.44.59a5.283 5.283 0 01-.556.533 4.804 4.804 0 01-.643.441c-.446.27-.928.476-1.432.612a5.13 5.13 0 01-.727.132c-.239.03-.48-.007-.7-.105a.715.715 0 01-.406-.525 1.18 1.18 0 01.133-.621 5.53 5.53 0 011.722-2.172 4.33 4.33 0 01.502-.339l-.132.088a5.034 5.034 0 00-.366.26 5.644 5.644 0 00-1.705 2.172 1.198 1.198 0 00-.127.608.677.677 0 00.392.502c.213.098.45.134.683.102a5.125 5.125 0 002.15-.741c.222-.132.435-.28.639-.44.195-.164.379-.34.55-.529a4.27 4.27 0 00.44-.586c.063-.1.1-.213.11-.33a.4.4 0 00-.118-.308.813.813 0 00-.621-.155 3.58 3.58 0 00-.622.137 3.643 3.643 0 00-1.008.515 4.05 4.05 0 00-.375.326.835.835 0 00-.25.353.307.307 0 00.092.343.48.48 0 00.29.115.94.94 0 00.44-.11l.133-.053zm-2.37-2.304c0 .087-.007.174-.022.26a2.556 2.556 0 01-.207.682 3.68 3.68 0 01-.59.882 7.5 7.5 0 01-.965.881c-.361.282-.714.542-1.018.797a5.704 5.704 0 00-.749.74 3.6 3.6 0 00-.396.586c-.04.075-.07.132-.088.176a.303.303 0 01-.031.058c.03-.082.066-.161.105-.238.11-.212.241-.411.392-.595.225-.273.476-.524.75-.749.303-.26.656-.515 1.017-.797a7.42 7.42 0 00.96-.881 3.72 3.72 0 00.591-.882 2.6 2.6 0 00.216-.674c0-.083 0-.149.026-.193.027-.044.01-.053.01-.053zm-9.943 5.04a9.2 9.2 0 011.515-.388c.471-.093 1.044-.176 1.67-.3.313-.061.639-.136.969-.233a7.198 7.198 0 001.938-.903 8.51 8.51 0 00.794-.608 7.503 7.503 0 001.722-2.225c.062-.123.101-.22.137-.282a.872.872 0 01.044-.101s-.053.136-.168.383c-.17.342-.366.67-.586.982a7.15 7.15 0 01-2.863 2.415 7.41 7.41 0 01-1.01.383c-.334.097-.66.172-.973.233-.625.119-1.198.203-1.67.291-.375.063-.747.146-1.114.247l-.3.088-.105.018zm-2.441-1.384a.664.664 0 01.026-.207c.067-.192.186-.363.344-.493.254-.196.54-.345.846-.441a3.896 3.896 0 011.987-.163c.13.024.257.062.379.115a.74.74 0 01.321.251.533.533 0 01.102.41.679.679 0 01-.243.365 1.937 1.937 0 01-.383.234c-.141.062-.277.128-.44.185-.595.245-1.212.433-1.842.56a9.514 9.514 0 01-1.022.149l-.529.04a1.6 1.6 0 01-.537-.062.772.772 0 01-.44-.321 1.007 1.007 0 01-.155-.511 1.4 1.4 0 01.37-.948c.221-.252.476-.473.758-.656.263-.183.543-.339.837-.467a7.674 7.674 0 011.687-.524c.507-.094 1.019-.16 1.533-.199.467-.039.881-.035 1.27-.083.313-.033.615-.141.88-.313.17-.11.31-.262.405-.441a.805.805 0 00.062-.145.35.35 0 000-.048.896.896 0 01-.075.198c-.096.178-.235.33-.405.44a1.943 1.943 0 01-.881.322c-.37.048-.797.048-1.269.088-.512.038-1.02.105-1.524.203a7.44 7.44 0 00-1.688.524 4.801 4.801 0 00-.806.485c-.278.18-.53.398-.749.647a1.371 1.371 0 00-.365.93.936.936 0 00.15.493.73.73 0 00.41.313 1.6 1.6 0 00.523.057c.177 0 .353 0 .525-.039a9.775 9.775 0 002.885-.723c.285-.1.555-.24.802-.414a.615.615 0 00.234-.348.495.495 0 00-.093-.392 1.037 1.037 0 00-.687-.353 3.783 3.783 0 00-1.978.155c-.305.095-.59.244-.842.44a1.065 1.065 0 00-.343.485.795.795 0 00-.04.202z" fill="#E0E0E0"/><path d="M33.645 105.197s-.1.066-.29.163c-.19.097-.467.238-.815.392-.348.154-.78.321-1.247.511-.51.203-1.005.438-1.485.705-.477.27-.91.61-1.286 1.009a3.66 3.66 0 00-.705 1.132 2.81 2.81 0 00-.19 1.128v.083a.676.676 0 010-.083 2.725 2.725 0 01.185-1.128 3.65 3.65 0 01.701-1.141 5.376 5.376 0 011.295-1.018c.48-.267.978-.503 1.49-.705l1.246-.506c.366-.15.63-.282.82-.379l.22-.115.061-.048zm-6.418 1.475h.04l.105-.022c.088 0 .22-.044.383-.079a6.414 6.414 0 001.225-.44 6.277 6.277 0 001.097-.697c.132-.101.233-.189.304-.251l.08-.07.03-.027-.026.031-.075.075a3.695 3.695 0 01-.3.26 5.704 5.704 0 01-2.33 1.146 4.127 4.127 0 01-.388.074h-.146z" fill="#E0E0E0"/><path d="M32.84 106.699v.08a.439.439 0 00-.23.061c-.04.031-.057.106-.057.229v1.379a.73.73 0 01-.185.533.715.715 0 01-.52.19.568.568 0 01-.383-.128.373.373 0 01-.146-.278.237.237 0 01.146-.234.223.223 0 01.088-.017.204.204 0 01.154.066.23.23 0 01.062.155.301.301 0 01-.04.149.266.266 0 00-.035.084.077.077 0 00.035.071.137.137 0 00.088.022.2.2 0 00.11-.019.2.2 0 00.084-.074.465.465 0 00.026-.185v-1.762a.184.184 0 00-.097-.19.593.593 0 00-.224-.035v-.079l1.123-.018zm1.202 0v.08a.433.433 0 00-.251.057.313.313 0 00-.062.233v1.071a.966.966 0 00.057.379.396.396 0 00.401.246.493.493 0 00.498-.273.989.989 0 00.07-.418v-.978a.33.33 0 00-.06-.238.373.373 0 00-.248-.079v-.08h.7v.08a.44.44 0 00-.197.07.269.269 0 00-.053.198v1.022a.907.907 0 01-.194.63.78.78 0 01-.621.221.83.83 0 01-.754-.326.881.881 0 01-.105-.441v-1.097a.35.35 0 00-.049-.225.403.403 0 00-.216-.066v-.079l1.084.013zm1.286 1.414h.093c.03.194.116.374.247.52a.56.56 0 00.392.163.347.347 0 00.362-.204.344.344 0 00.03-.144.32.32 0 00-.093-.234 1.163 1.163 0 00-.255-.154l-.203-.106a1.386 1.386 0 01-.44-.299.56.56 0 01-.124-.37c0-.162.058-.318.163-.441a.618.618 0 01.507-.202c.114-.001.227.017.335.052l.185.053a.075.075 0 00.041-.005.078.078 0 00.034-.025.24.24 0 00.03-.08h.097v.696h-.092a.963.963 0 00-.22-.418.502.502 0 00-.384-.172.342.342 0 00-.25.088.282.282 0 00-.098.225.288.288 0 00.088.224c.118.09.245.165.38.225l.237.119a.886.886 0 01.251.176.61.61 0 01.177.441.676.676 0 01-.19.44.755.755 0 01-.603.212 1 1 0 01-.19 0 1.438 1.438 0 01-.194-.053l-.044-.022h-.074a.068.068 0 00-.04.006.072.072 0 00-.031.025.375.375 0 00-.031.079h-.093v-.815zm1.749-1.414h1.926v.643h-.093a.57.57 0 00-.26-.467.746.746 0 00-.357-.074v1.682a.323.323 0 00.062.234.39.39 0 00.256.057v.084h-1.137v-.084a.376.376 0 00.251-.057.331.331 0 00.062-.234v-1.682a.79.79 0 00-.362.074.538.538 0 00-.255.467h-.093v-.643zm2.102 2.075a.429.429 0 00.194-.031.19.19 0 00.077-.079.19.19 0 00.02-.11v-1.551a.192.192 0 00-.093-.189.537.537 0 00-.198-.035v-.08h1.119v.08a.506.506 0 00-.207.035.19.19 0 00-.093.189v1.551a.185.185 0 00.075.176.44.44 0 00.225.044v.084h-1.119v-.084zm2.833-2.044c.074.03.15.055.229.075a.115.115 0 00.054-.013.113.113 0 00.043-.035.23.23 0 00.048-.097h.088v.749h-.083a1.66 1.66 0 00-.234-.384.661.661 0 00-.506-.26.47.47 0 00-.44.278 2.076 2.076 0 00-.058 1.322.552.552 0 00.55.414.814.814 0 00.44-.137 1.51 1.51 0 00.292-.255l.092.079a1.932 1.932 0 01-.33.304.992.992 0 01-.56.163c-.29.01-.572-.089-.793-.278a1.055 1.055 0 01-.357-.837 1.123 1.123 0 01.34-.846 1.095 1.095 0 01.78-.304c.137-.002.274.018.405.062zm.722 2.128v-.084a.444.444 0 00.194-.035.2.2 0 00.07-.081.2.2 0 00.018-.104v-1.551a.198.198 0 00-.092-.189.492.492 0 00-.19-.035v-.08h1.842v.643h-.08a.681.681 0 00-.207-.44.91.91 0 00-.532-.115.337.337 0 00-.186.031.143.143 0 00-.04.119v.74a.501.501 0 00.37-.097.768.768 0 00.15-.374h.08v1.079h-.075a.678.678 0 00-.14-.383.524.524 0 00-.179-.096.52.52 0 00-.2-.019v.776a.164.164 0 00.052.141.444.444 0 00.216.035.941.941 0 00.498-.119c.153-.112.272-.264.343-.441h.088l-.127.666-1.873.013z" fill="#2B3A8C"/><path d="M36.042 67.243l.776-9.05h1.934l.78 9.05h-3.49z" fill="#000"/><path d="M54.013 69.52a1.093 1.093 0 001.321-1.462c-.18-.384-.59-.697-1.423-.75-2.238-.15-27.755-.44-32.376-.484a1.516 1.516 0 00-1.472.881.93.93 0 00.18.828c.574.44 1.076.247 1.86-.326 1.004-.731 12.816.309 14.133.758h2.727s2.203-.736 10.098-.762c4.604 0 3.736.639 4.538 1.207l.414.11z" fill="#000"/><path d="M38.959 68.683l.334 2.41-.418.278.419 1.925-3.609-.384.877-1.541-.34-.459.155-2.198 2.582-.03zm-1.172-9.749a2.824 2.824 0 100-5.648 2.824 2.824 0 000 5.648z" fill="#000"/><path d="M25.275 68.19c.158.577.841 3.013 2.128 7.613 1.321 4.846 3.203 11.555 5.33 19.221l.045.163H18.86l.035-.154c1.811-7.679 3.42-14.41 4.56-19.235 1.102-4.6 1.683-7.049 1.82-7.608-.132.59-.696 3.084-1.762 7.762l-4.37 19.138-.124-.158H32.6l-.123.163c-2.036-7.635-3.842-14.332-5.128-19.134a4129.291 4129.291 0 01-2.075-7.771z" fill="#2B3A8C"/><path d="M17.402 94.491h17.481s-.854 6.476-8.81 6.441c-7.847-.044-8.67-6.44-8.67-6.44z" fill="#000"/><path d="M28.015 99.967a1.308 1.308 0 01-.388.106c-.357.068-.72.104-1.083.11a8.259 8.259 0 01-1.617-.106 9.106 9.106 0 01-3.661-1.475 8.299 8.299 0 01-1.243-1.045 6.438 6.438 0 01-.704-.832c-.146-.212-.22-.33-.203-.344.017-.013.37.44 1.035 1.049a9.45 9.45 0 001.247.973 10.4 10.4 0 001.714.881c.6.236 1.221.417 1.854.542a9.953 9.953 0 001.578.159c.903.022 1.462-.066 1.471-.018z" fill="#fff"/><path d="M51.572 68.19c.163.577.841 3.013 2.128 7.613l5.335 19.221.044.163H45.157l.036-.154c1.824-7.679 3.418-14.41 4.564-19.235 1.097-4.6 1.678-7.049 1.815-7.608-.132.59-.696 3.084-1.762 7.762-1.097 4.802-2.644 11.495-4.375 19.138l-.123-.158h13.595l-.123.163c-2.049-7.635-3.85-14.332-5.142-19.134-1.25-4.696-1.912-7.185-2.07-7.771z" fill="#2B3A8C"/><path d="M43.699 94.491h17.486s-.86 6.476-8.811 6.441c-7.851-.044-8.675-6.44-8.675-6.44z" fill="#000"/><path d="M54.312 99.967a1.197 1.197 0 01-.388.106c-.357.068-.72.104-1.083.11a8.26 8.26 0 01-1.617-.106 9.877 9.877 0 01-1.912-.537 10.06 10.06 0 01-1.763-.938 8.526 8.526 0 01-1.242-1.045 6.01 6.01 0 01-.7-.832c-.15-.212-.22-.33-.207-.344.013-.013.37.44 1.035 1.049a9.7 9.7 0 001.247.973c.543.346 1.116.64 1.713.881.603.237 1.225.418 1.86.542a9.878 9.878 0 001.572.159c.921.022 1.476-.066 1.485-.018z" fill="#fff"/><path d="M137.296 110.061s-.78 8.934-.489 11.331c.291 2.396 2.643 15.891 5.168 17.776 2.524 1.886 5.374 4.503 9.075 4.142 3.701-.362 5.52-.948 6.102-2.763.581-1.815 3.414-8.859 2.758-11.978-.657-3.12-3.049-7.992-3.049-7.992s-1.89-14.596-2.833-15.393l-.942-.798s1.599-5.727 1.453-7.49c-.145-1.761-2.105-16.86-5.264-19.124a19.664 19.664 0 00-4.846-2.542l-3.34 13.825-3.793 21.006z" fill="#2B3A8C"/><path d="M156.465 123.89a3.028 3.028 0 01-.41-.52c-.344-.49-.662-.997-.952-1.52a18.3 18.3 0 01-1.123-2.414 16.055 16.055 0 00-1.322-2.939 9.563 9.563 0 00-2.242-2.273l-2.124-1.591-1.423-1.083a4.413 4.413 0 01-.506-.419c.196.098.382.214.555.348l1.471 1.022c.613.441 1.348.956 2.155 1.555a9.362 9.362 0 012.304 2.318 15.44 15.44 0 011.322 2.987c.307.826.664 1.632 1.07 2.414.348.665.665 1.19.881 1.546.128.181.243.371.344.569zm-5.512-1.379a1.856 1.856 0 01-.264.44 9.444 9.444 0 01-.881 1.093 8.013 8.013 0 01-3.93 2.396 5.717 5.717 0 01-4.489-.823 4.206 4.206 0 01-1.009-.992 1.49 1.49 0 01-.251-.44 5.35 5.35 0 005.696 2.035 8.282 8.282 0 003.868-2.286c.82-.833 1.225-1.459 1.26-1.423zm.441-18.403c0 .036-.56-.092-1.458-.242a25.117 25.117 0 00-3.525-.343 25.38 25.38 0 00-3.551.171c-.903.111-1.463.212-1.467.177.119-.06.247-.102.379-.124.251-.061.612-.136 1.066-.211a19.127 19.127 0 013.577-.243c1.199.028 2.392.166 3.565.415.44.097.806.185 1.053.264.125.029.247.075.361.136zm-1.877-4.445a14 14 0 01-1.392.392 27.618 27.618 0 00-6.424 2.644c-.41.255-.834.488-1.268.7 0 0 .097-.101.299-.251.203-.15.502-.352.881-.59a21.49 21.49 0 016.468-2.644c.44-.097.793-.167 1.039-.202a1.21 1.21 0 01.397-.049z" fill="#000"/><path d="M146.288 79.882a.922.922 0 01-.084.234c-.079.172-.172.383-.286.647a52.75 52.75 0 00-1.027 2.384 50.485 50.485 0 00-1.321 3.604 79.626 79.626 0 00-1.3 4.524c-.419 1.626-.692 3.185-.921 4.617a52.28 52.28 0 00-.467 3.816 70.305 70.305 0 00-.181 2.59l-.044.705a.759.759 0 01-.03.242 1.133 1.133 0 010-.247v-.704c0-.617.03-1.503.105-2.6a45.11 45.11 0 01.441-3.837 58.75 58.75 0 01.903-4.64c.392-1.634.881-3.158 1.322-4.532.44-1.375.947-2.595 1.387-3.604.441-1.01.811-1.81 1.093-2.357.132-.256.242-.44.326-.63.023-.072.051-.143.084-.212z" fill="#000"/><path d="M149.35 117.629c-.04-.176-.855-3.965-3.362-6.286-2.507-2.322-5.89-8.538-5.89-8.538s-1.551-2.754-1.427-5.26c.123-2.508 2.26-5.926.978-6.477-1.282-.55-4.155.062-5.129 5.494-.973 5.432-.674 7.705-.674 7.705s-6.229.357-6.167 2.741c.061 2.383 1.577 3.11 1.577 3.11s-1.577 1.762-.784 2.749c.793.987 2.321.978 2.321.978s-.978.304.062 1.952a3.906 3.906 0 002.643 1.832 2.846 2.846 0 00.366 2.261c.731 1.22 1.22 1.282 1.762 1.22.542-.062 3.525-.608 3.525-.608s.365 1.357 2.26 2.084l-.124 1.211s-.123 3.666 4.274 2.507c4.397-1.159 4.643-4.886 3.789-8.675z" fill="#FFBE9D"/><path d="M139.305 102.21c0 .022-.198-.053-.551-.088a3.53 3.53 0 00-1.489.215c-.7.282-1.364.645-1.978 1.084-.378.253-.769.486-1.172.696a6.424 6.424 0 01-1.383.494c-.978.22-1.908.379-2.749.546a4.397 4.397 0 00-1.128.379 1.96 1.96 0 00-.753.67 2.245 2.245 0 00-.348 1.427c.03.357.105.546.083.551-.022.004-.031-.04-.066-.132a2.276 2.276 0 01.194-1.935c.195-.315.47-.573.797-.748a4.32 4.32 0 011.177-.415c.846-.185 1.762-.352 2.736-.568a7.523 7.523 0 002.498-1.141 8.883 8.883 0 012.044-1.062 3.395 3.395 0 011.546-.154c.14.023.278.062.41.115a.39.39 0 01.132.066zm-.172 3.767c-.461.248-.94.463-1.432.643l-3.524 1.427c-1.37.551-2.613 1.058-3.503 1.441-.44.189-.801.352-1.048.467a1.506 1.506 0 01-.388.163 6.092 6.092 0 011.37-.78c.881-.441 2.111-.952 3.485-1.502 1.375-.551 2.643-1.031 3.525-1.366.491-.205.998-.37 1.515-.493zm5.696 8.613a1.261 1.261 0 01-.246.418 3.276 3.276 0 01-1.009.846 5.249 5.249 0 01-1.859.604c-.787.092-1.579.133-2.37.123a15.624 15.624 0 00-4.217.595c-1.053.299-1.674.581-1.687.542.136-.095.284-.17.441-.225.394-.184.8-.341 1.216-.472a13.904 13.904 0 014.26-.669c.784.011 1.568-.023 2.348-.101a5.522 5.522 0 001.811-.538c.512-.277.96-.66 1.312-1.123zm1.124 3.374s.048.106.035.313c-.035.293-.155.57-.343.797-.281.335-.65.583-1.067.714a8.951 8.951 0 01-1.511.322 46.477 46.477 0 01-2.758.374 3.875 3.875 0 01-1.158 0c0-.031.44-.066 1.136-.181l2.741-.44a9.599 9.599 0 001.484-.295 2.2 2.2 0 001.009-.617c.244-.276.395-.621.432-.987zm1 1.679a2.022 2.022 0 01-.582.749 4.035 4.035 0 01-4.308.749 2.066 2.066 0 01-.798-.507c.022-.031.322.167.855.357a4.404 4.404 0 002.172.185 4.365 4.365 0 001.974-.903c.44-.361.656-.652.687-.63zm-.088-3.49a10.878 10.878 0 00-3.489-5.515c.299.142.573.333.81.564a8.213 8.213 0 011.551 1.801c.429.675.754 1.41.965 2.181.104.313.159.64.163.969zm1.216-.727a21.262 21.262 0 01-1.533-2.264c.376.274.69.626.92 1.031.291.362.5.783.613 1.233zm-7.393-4.3c0 .04-.577.045-1.489.194a22.48 22.48 0 00-3.524.881l-3.446 1.177c-.47.185-.955.332-1.449.44.45-.23.917-.426 1.397-.586.881-.326 2.07-.788 3.427-1.238a17.978 17.978 0 013.56-.837 8.693 8.693 0 011.106-.061c.14-.01.281 0 .418.03zm-1.78-1.841a1.13 1.13 0 01-.784.353c-.533.097-1.277-.071-2.017.092-.366.088-.688.304-1.036.441-.312.083-.64.083-.951 0a1.546 1.546 0 00-.591 0c-.132.035-.198.084-.211.07-.013-.013.039-.088.185-.154.203-.07.421-.09.634-.057.294.053.597.032.881-.062.34-.166.688-.313 1.044-.44.38-.077.769-.096 1.155-.058.3.028.602.037.903.027.27-.039.535-.11.788-.212zm6.168 2.088c-.057.04-.63-.727-1.564-1.431a1.6 1.6 0 01-.572-.666c-.106-.246-.155-.471-.216-.647a1.443 1.443 0 00-.318-.503s.071 0 .168.058a.9.9 0 01.299.383c.089.181.155.405.26.621.12.233.299.429.52.569a4.361 4.361 0 011.423 1.616z" fill="#BC8579"/></svg>