<svg width="191" height="182" fill="none" xmlns="http://www.w3.org/2000/svg"><g clip-path="url(#clip0)"><path d="M49.779 6.106l.178.292c.192.326.473.589.81.759l.303.154-.291.174c-.326.192-.59.473-.761.811l-.15.304-.174-.292a2.025 2.025 0 00-.81-.762l-.303-.15.291-.174c.323-.195.585-.476.757-.811l.15-.305zM92.702 28.51l.178.291c.192.325.473.588.81.759l.307.154-.291.174c-.326.191-.59.473-.76.81l-.15.305-.175-.292a2.026 2.026 0 00-.809-.762l-.304-.15.288-.175c.324-.194.587-.474.76-.81l.146-.305zM18.867 90.77l.174.293c.193.324.474.587.81.758l.303.154-.29.174a1.965 1.965 0 00-.758.811l-.154.305-.174-.293a1.973 1.973 0 00-.809-.762l-.303-.15.29-.174c.325-.194.589-.475.762-.811l.15-.304zm115.759 78.348l.174.292c.192.325.473.588.809.758l.304.154-.287.175a1.983 1.983 0 00-.761.811l-.15.304-.178-.292a1.991 1.991 0 00-.81-.763l-.307-.15.291-.174c.325-.193.589-.474.761-.811l.154-.304zm32.955-86.923l.385.637a4.347 4.347 0 001.801 1.662l.668.329-.64.385a4.364 4.364 0 00-1.659 1.808l-.328.665-.384-.636a4.347 4.347 0 00-1.801-1.663l-.668-.332.635-.382a4.397 4.397 0 001.664-1.808l.327-.665zM130.935.734l.381.636a4.332 4.332 0 001.805 1.663l.663.332-.635.382a4.35 4.35 0 00-1.659 1.808l-.332.665-.381-.637a4.357 4.357 0 00-1.805-1.662l-.68-.333.636-.38a4.364 4.364 0 001.659-1.81l.348-.664zM52.466 159.419l.405.636a4.348 4.348 0 001.801 1.663l.668.332-.636.381a4.394 4.394 0 00-1.663 1.809l-.328.669-.384-.641a4.372 4.372 0 00-1.801-1.662l-.668-.329.64-.385a4.388 4.388 0 001.659-1.808l.307-.665z" fill="#E0E0E0"/><path d="M156.67 54.638s-3.261 1.622-7.531 4.148c-5.205 3.098-15.917 9.185-22.765 4.376l-6.269-12.331s4.023 1.849 10.146 1.054c5.46-.71 9.835-3.596 11.801-4.922.81-.536 1.842-1.265 2.667-1.76 1.376-.811 3.024-2.028 5.432-3.212l6.519 12.647z" fill="#668141"/><path d="M139.999 61.491c2.732-.48 4.579-2.975 4.124-5.573-.454-2.599-3.038-4.316-5.77-3.837-2.732.48-4.578 2.975-4.124 5.574.455 2.598 3.038 4.316 5.77 3.836z" fill="#F5F5F5"/><path d="M137.54 54.85l-.405-.629.498-.32.405.608c.461-.27.993-.393 1.525-.353l.166.86a2.27 2.27 0 00-1.214.227l.599.932c.652-.202 1.4-.405 1.914.406.381.592.324 1.346-.404 1.954l.404.62-.497.321-.405-.608c-.372.205-.79.313-1.214.312l-.19-.852c.326.004.649-.064.947-.198l-.628-.957c-.647.21-1.384.405-1.894-.406-.356-.563-.319-1.31.393-1.918zm.368 1.354c.126.194.336.207.603.154l-.494-.77a.467.467 0 00-.109.616zm1.72.81l.51.812a.492.492 0 00.101-.653c-.125-.227-.34-.24-.615-.175l.004.017z" fill="#668141"/><path d="M127.05 63.227l.085.052c.202.118 5.087 2.904 13.796-1.062a66.71 66.71 0 009.353-5.227c1.886-1.216 3.238-2.116 4.743-2.514l.405-.101-5.65-11.605-.319.223c-.093.065-9.284 6.488-13.38 8.15-3.238 1.334-9.401 3.244-14.039 1.111l-.891-.405 5.897 11.378zm9.288-11.463c2.958-1.217 8.337-4.716 11.332-6.736a2.16 2.16 0 002.042.953 2.13 2.13 0 00.791-.255l3.084 6.354a1.76 1.76 0 00-1.02 1.164c-.128.5-.099 1.028.081 1.512-.81.45-1.688 1.01-2.704 1.666a64.349 64.349 0 01-9.264 5.183c-4.374 1.99-7.725 2.181-9.769 1.99a12.466 12.466 0 01-1.579-.25 3.028 3.028 0 00-2.606-2.26l-3.318-6.345c.335-.025.773-.227.862-1.083 4.37.82 9.284-.742 12.068-1.893z" fill="#F5F5F5"/><path d="M45.623 12.647s-3.262 1.622-7.532 4.148c-5.204 3.098-15.917 9.184-22.765 4.375L9.057 8.84s4.023 1.848 10.146 1.05c5.46-.71 9.835-3.593 11.802-4.919.81-.54 1.841-1.265 2.667-1.76 1.376-.81 3.023-2.027 5.43-3.211l6.52 12.647z" fill="#668141"/><path d="M28.952 19.499c2.732-.48 4.579-2.975 4.124-5.574-.454-2.598-3.037-4.316-5.77-3.836-2.732.48-4.578 2.975-4.124 5.574.455 2.598 3.038 4.316 5.77 3.836z" fill="#F5F5F5"/><path d="M26.492 12.854l-.405-.625.498-.32.405.608c.458-.27.988-.393 1.518-.353l.166.86a2.234 2.234 0 00-1.215.227l.591.94c.652-.206 1.4-.405 1.915.406.38.592.323 1.35-.405 1.959l.405.62-.498.32-.405-.608c-.371.206-.79.313-1.214.308l-.19-.847c.326.003.65-.064.947-.199l-.611-.953c-.648.211-1.384.406-1.895-.405-.372-.58-.32-1.326.393-1.938zm.368 1.338c.126.198.336.21.603.158l-.493-.774a.47.47 0 00-.11.616zm1.72.81l.51.812a.49.49 0 00.102-.65c-.126-.214-.345-.222-.612-.161z" fill="#668141"/><path d="M16.002 21.235l.085.049c.203.121 5.087 2.907 13.797-1.059a66.261 66.261 0 009.373-5.222c1.886-1.217 3.237-2.113 4.743-2.51l.405-.106L38.735.78l-.32.223c-.093.064-9.284 6.487-13.38 8.146-3.237 1.334-9.401 3.244-14.04 1.115l-.89-.406 5.897 11.378zm9.309-11.463c2.958-1.216 8.336-4.716 11.331-6.739a2.105 2.105 0 002.797.702l3.055 6.353a1.756 1.756 0 00-1.02 1.164c-.127.5-.098 1.028.081 1.513-.809.446-1.687 1.01-2.703 1.666a64.443 64.443 0 01-9.248 5.178c-4.374 1.995-7.726 2.186-9.773 1.995a11.73 11.73 0 01-1.579-.255 3.034 3.034 0 00-2.606-2.255l-3.286-6.35c.336-.028.773-.23.862-1.082 4.37.823 9.264-.742 12.068-1.89h.02z" fill="#F5F5F5"/><path d="M161.826 152.461s-3.266 1.622-7.535 4.144c-5.205 3.098-15.917 9.184-22.765 4.379l-6.269-12.347s4.023 1.849 10.146 1.054c5.464-.709 9.834-3.592 11.801-4.922.81-.535 1.842-1.265 2.667-1.76 1.376-.811 3.028-2.027 5.432-3.211l6.523 12.663z" fill="#668141"/><path d="M139.381 155.461c-.457-2.595 1.388-5.093 4.12-5.571 2.732-.479 5.318 1.216 5.771 3.836.454 2.619-1.392 5.093-4.124 5.575-2.731.483-5.313-1.241-5.767-3.84z" fill="#F5F5F5"/><path d="M142.696 152.655l-.405-.628.498-.32.405.608c.46-.271.993-.393 1.525-.349l.166.856a2.264 2.264 0 00-1.214.227l.603.932c.648-.202 1.396-.405 1.91.406.381.592.328 1.346-.404 1.954l.404.621-.497.32-.405-.608c-.372.205-.79.313-1.214.312l-.194-.848c.326.001.649-.068.947-.202l-.612-.949c-.643.211-1.384.405-1.894-.406-.388-.571-.331-1.309.381-1.926zm.364 1.355c.126.194.336.206.603.154l-.494-.771a.473.473 0 00-.109.617zm1.72.811l.51.811a.506.506 0 00.105-.653c-.129-.227-.344-.239-.615-.175v.017z" fill="#668141"/><path d="M132.206 161.037l.081.048c.202.118 5.087 2.904 13.796-1.062a66.324 66.324 0 009.353-5.227c1.886-1.216 3.238-2.112 4.743-2.51l.405-.105-5.638-11.605-.319.227c-.093.061-9.284 6.464-13.38 8.146-3.238 1.334-9.401 3.244-14.039 1.115l-.891-.405 5.889 11.378zm9.284-11.467c2.958-1.217 8.337-4.716 11.332-6.735a2.116 2.116 0 002.796.701l3.084 6.35a1.774 1.774 0 00-1.02 1.164c-.127.5-.099 1.028.081 1.512-.809.45-1.687 1.01-2.703 1.671a64.426 64.426 0 01-9.264 5.178c-4.375 1.995-7.726 2.185-9.766 1.991a11.758 11.758 0 01-1.582-.252 3.027 3.027 0 00-2.606-2.258l-3.291-6.35c.336-.024.777-.227.862-1.083 4.379.827 9.276-.738 12.077-1.889z" fill="#F5F5F5"/><path d="M39.848 114.346s-3.266 1.621-7.532 4.148c-5.2 3.102-15.921 9.188-22.769 4.367l-6.269-12.319s4.047 1.849 10.15 1.054c5.46-.713 9.83-3.596 11.797-4.922.81-.539 1.846-1.265 2.667-1.76 1.38-.811 3.028-2.027 5.436-3.211l6.52 12.643z" fill="#668141"/><path d="M17.402 117.366c-.453-2.599 1.393-5.093 4.124-5.575 2.732-.483 5.314 1.241 5.768 3.84.453 2.599-1.393 5.093-4.12 5.571-2.728.479-5.318-1.237-5.772-3.836z" fill="#F5F5F5"/><path d="M20.717 114.556l-.405-.624.498-.32.405.608c.46-.272.993-.395 1.526-.353l.165.86a2.217 2.217 0 00-1.214.227l.567.932c.647-.206 1.4-.405 1.914.406.38.596.324 1.35-.405 1.958l.405.621-.498.32-.404-.608c-.372.206-.79.312-1.215.308l-.194-.848c.327.005.65-.063.947-.198l-.607-.953c-.647.211-1.388.405-1.894-.406-.356-.571-.303-1.33.409-1.93zm.364 1.359c.126.194.34.206.607.154l-.498-.775a.483.483 0 00-.109.621zm1.724.811l.51.79a.497.497 0 00.101-.648c-.125-.211-.348-.223-.61-.159v.017z" fill="#668141"/><path d="M10.227 122.938l.085.048c.202.122 5.087 2.908 13.793-1.058a65.964 65.964 0 009.352-5.231c1.886-1.216 3.238-2.112 4.743-2.51l.405-.105-5.645-11.601-.324.223c-.093.065-9.28 6.488-13.38 8.146-3.238 1.334-9.401 3.244-14.035 1.115l-.89-.405 5.896 11.378zm9.284-11.463c2.958-1.217 8.341-4.716 11.332-6.739a2.1 2.1 0 002.792.701l3.088 6.354a1.77 1.77 0 00-1.024 1.164 2.542 2.542 0 00.085 1.512c-.81.45-1.691 1.01-2.703 1.667a65.309 65.309 0 01-9.264 5.182c-4.379 1.991-7.73 2.181-9.77 1.991a11.7 11.7 0 01-1.578-.256 3.03 3.03 0 00-2.606-2.254l-3.29-6.35c.335-.024.773-.227.858-1.083 4.387.823 9.28-.738 12.08-1.889z" fill="#F5F5F5"/><path d="M140.559 116.373s6.257-7.343 18.548-2.611c.466.181.948.317 1.44.405 1.4.28 2.848.176 4.193-.3 2.396-.965 5.8-2.368 5.8-2.368l10.522 6.24s-4.411 3.244-8.689 3.5c-4.278.255-9.308-3.244-14.225-2.028a12.297 12.297 0 00-6.476 3.731l-11.113-6.569z" fill="#668141"/><path d="M165.93 117.995c-.473.426-3.327.036-6.37-.872s-5.128-1.983-4.654-2.408c.473-.426 3.327-.033 6.37.871 3.043.905 5.14 1.979 4.654 2.409z" fill="#F5F5F5"/><path d="M161.697 117.184l.194.203-.639-.138-.19-.203a16.855 16.855 0 01-1.733-.495l.126-.178c.447.158.902.294 1.364.405l-.288-.304c-.761-.207-1.618-.45-1.865-.709-.182-.195.153-.252 1.133-.061l-.19-.207.639.142.186.199c.494.117.996.259 1.409.405l-.11.154c-.376-.125-.74-.231-1.068-.312l.295.312c.753.203 1.599.442 1.842.702.198.198-.134.255-1.105.085zm-1.404-.949l-.247-.259c-.32-.053-.405-.033-.344.028.183.105.383.177.591.215v.016zm1.517.681a1.853 1.853 0 00-.583-.227l.239.252c.304.036.417.02.344-.041v.016z" fill="#668141"/><path d="M170.402 112.253l-.117.057a37.2 37.2 0 01-6.152 2.356c-1.469.373-2.161.251-3.411.032l-.81-.134a16.236 16.236 0 01-2.165-.604c-1.591-.511-3.566-1.151-5.545-1.216h-.032c-.053 0-5.504-.471-9.927 3.094l-.263.21 9.462 5.742.129-.122c.053-.048 5.128-4.638 11.988-2.911.809.203 1.566.406 2.274.592 5.557 1.472 8.349 2.21 13.934-1.151l.34-.203-9.705-5.742zm-4.452 6.642c-.712-.187-1.465-.406-2.278-.592-4.666-1.176-8.535.466-10.66 1.756a2.55 2.55 0 00-3.056.279l-5.532-3.353c1.064-.932.441-1.739.081-2.072a15.037 15.037 0 017.633-1.691c1.946.053 3.905.681 5.483 1.188.731.261 1.479.469 2.239.625l.809.134c1.275.219 2.023.352 3.61-.045a32.143 32.143 0 004.646-1.658c.405.344 1.441.993 2.991.219l5.641 3.345c-.404.198-1.052.721-.048 1.861-4.185 1.942-6.86 1.253-11.579.004h.02z" fill="#F5F5F5"/><path d="M45.327 63.944s-.101-9.654 12.27-14.192c.472-.167.927-.38 1.357-.636a7.963 7.963 0 002.966-2.989c1.17-2.303 2.833-5.603 2.833-5.603l12.032-2.222s-1.214 5.336-4.257 8.353c-3.044 3.016-9.159 3.694-12.069 7.825a12.334 12.334 0 00-2.428 7.076l-12.704 2.388z" fill="#668141"/><path d="M65.526 48.455c-.08.633-2.485 2.218-5.374 3.536-2.89 1.318-5.168 1.881-5.087 1.249.08-.633 2.48-2.214 5.37-3.536s5.168-1.882 5.091-1.249z" fill="#F5F5F5"/><path d="M61.783 50.628l.279.029-.575.316-.27-.029c-.526.286-1.066.542-1.62.767v-.203c.38-.15.862-.369 1.295-.592l-.404-.04c-.705.34-1.51.721-1.866.689-.267-.024-.053-.292.81-.811l-.276-.028.575-.317.271.029c.445-.236.919-.463 1.32-.625l.02.187c-.365.154-.705.312-1.008.47l.425.04c.704-.344 1.497-.721 1.85-.685.242.05.028.304-.826.803zm-1.68.211l-.356-.036c-.275.17-.324.243-.243.251.21-.038.413-.11.6-.215zm1.59-.482a1.734 1.734 0 00-.586.206l.344.037c.263-.162.324-.24.243-.243z" fill="#668141"/><path d="M65.122 41.193l-.049.121a37.45 37.45 0 01-3.092 5.827c-.866 1.245-1.465 1.622-2.55 2.27l-.692.406c-.653.366-1.329.69-2.023.97-1.538.66-3.444 1.48-4.978 2.736l-.04.033c-.041.032-4.452 3.268-5.456 8.868l-.057.332 10.879-1.881.02-.175c0-.069.81-6.873 7.127-10.088.745-.376 1.446-.726 2.105-1.05 5.168-2.526 7.746-3.828 9.77-10.04l.12-.377-11.084 2.048zm.995 7.943c-.66.328-1.36.673-2.108 1.054-4.29 2.186-6.124 5.973-6.88 8.337a2.56 2.56 0 00-2.121 2.23l-6.37 1.111c.194-1.407-.81-1.622-1.295-1.622a15.098 15.098 0 014.646-6.3c1.501-1.238 3.391-2.053 4.913-2.71.72-.284 1.419-.619 2.092-1.001a9.09 9.09 0 01.688-.406c1.105-.673 1.769-1.074 2.692-2.408a32.738 32.738 0 002.428-4.306c.526 0 1.74-.203 2.396-1.809l6.447-1.192c-.186.43-.32 1.217 1.186 1.436-1.866 4.2-4.347 5.429-8.714 7.586z" fill="#F5F5F5"/><path d="M134.921 21.96s5.917-7.634 18.398-3.498c.475.161.964.275 1.461.34a7.924 7.924 0 004.173-.499c2.347-1.078 5.666-2.643 5.666-2.643l10.814 5.73s-4.254 3.433-8.499 3.908c-4.246.474-9.466-2.794-14.307-1.375a12.298 12.298 0 00-6.289 4.055l-11.417-6.017z" fill="#668141"/><path d="M160.349 22.358c-.449.45-3.318.195-6.402-.563-3.084-.759-5.217-1.736-4.764-2.182.454-.446 3.319-.194 6.403.564 3.084.758 5.217 1.719 4.763 2.181z" fill="#F5F5F5"/><path d="M156.071 21.742l.203.194-.648-.109-.198-.19a17.5 17.5 0 01-1.752-.406l.133-.154c.455.138.917.25 1.384.336l-.303-.288c-.769-.17-1.619-.373-1.894-.62-.195-.186.137-.26 1.125-.117l-.203-.195.648.11.198.19c.494.093 1.004.21 1.421.332l-.097.159a14.702 14.702 0 00-1.085-.26l.308.296c.764.17 1.618.369 1.877.612.191.175-.137.264-1.117.11zm-1.448-.884l-.259-.248c-.32-.036-.405 0-.344.05.188.099.392.166.603.198zm1.546.632a1.864 1.864 0 00-.591-.202l.251.243c.303.016.388-.004.34-.04z" fill="#668141"/><path d="M164.53 16.414l-.113.06a36.633 36.633 0 01-6.031 2.648c-1.453.447-2.145.357-3.407.2l-.81-.094a16.57 16.57 0 01-2.185-.503c-1.619-.434-3.642-.977-5.601-.945h-.049c-.056 0-5.524-.207-9.769 3.564l-.255.227 9.713 5.272.125-.13c.049-.049 4.897-4.866 11.834-3.483.809.166 1.582.332 2.302.482 5.646 1.217 8.455 1.833 13.874-1.816l.332-.219-9.96-5.263zm-4.136 6.848c-.721-.154-1.486-.316-2.307-.482-4.715-.953-8.499.876-10.559 2.262a2.558 2.558 0 00-3.047.43l-5.666-3.085c1.024-.986.36-1.76 0-2.076a15.019 15.019 0 017.511-2.064c1.947-.041 3.934.494 5.532.924a16.36 16.36 0 002.263.515l.809.097c1.2.237 2.44.161 3.602-.219a32.274 32.274 0 004.565-1.865c.405.325 1.49.925 2.995.073l5.787 3.07c-.404.223-1.015.77.041 1.865-4.059 2.153-6.767 1.577-11.526.555z" fill="#F5F5F5"/><path d="M182.438 181.894c0 .061-38.2.106-85.308.106-47.108 0-85.316-.045-85.316-.106 0-.06 38.188-.105 85.316-.105s85.308.049 85.308.105z" fill="#263238"/><path d="M174.522 95.39l.259.425c.289.48.711.864 1.214 1.107l.441.22-.425.255a2.935 2.935 0 00-1.104 1.216l-.219.446-.255-.426a2.929 2.929 0 00-1.214-1.107l-.445-.219.404-.26a2.866 2.866 0 001.105-1.216l.239-.442zM51.175 174.64l.247.406c.279.462.683.835 1.166 1.074l.433.215-.405.248a2.836 2.836 0 00-1.072 1.167l-.215.43-.247-.405a2.832 2.832 0 00-1.165-1.079l-.433-.211.404-.247c.462-.28.834-.687 1.073-1.172l.214-.426zM26.355 39.615l.445.738a5.03 5.03 0 002.096 1.935l.773.385-.74.446a5.11 5.11 0 00-1.93 2.1l-.381.775-.445-.742a5.131 5.131 0 00-2.097-1.934l-.777-.382.74-.446a5.056 5.056 0 001.931-2.1l.385-.775zm89.391-25.955l.446.739a5.077 5.077 0 002.096 1.934l.777.385-.741.446a5.059 5.059 0 00-1.93 2.1l-.384.775-.446-.742a5.078 5.078 0 00-2.096-1.934l-.773-.381.741-.447a5.088 5.088 0 001.906-2.1l.404-.774zm67.558 65.1l.178.292c.192.327.473.592.81.763l.303.15-.291.174a2 2 0 00-.761.811l-.15.304-.174-.292a2.024 2.024 0 00-.809-.762l-.304-.15.292-.174c.322-.195.584-.476.757-.811l.149-.305zM34.27 77.078l.183.3c.203.337.498.608.85.782l.311.159-.3.178a2.057 2.057 0 00-.78.852l-.158.316-.178-.3a2.078 2.078 0 00-.854-.787l-.312-.154.3-.182c.336-.205.608-.5.785-.852l.154-.312zm30.847-52.721l.178.3c.201.34.497.613.85.787l.316.154-.3.182c-.337.203-.61.499-.785.852l-.153.316-.183-.304a2.058 2.058 0 00-.85-.782l-.311-.155.3-.182c.336-.203.607-.499.78-.851l.158-.317z" fill="#A7E351"/><path d="M135.326 118.052c0 .438 2.611 11.982 2.611 11.982s5.435-3.706 7.499-5.446c2.064-1.739 12.064-11.001 12.064-11.001l5.978 5.543s-19.831 27.03-26.853 28.652c-3.606.835-7.608-1.898-8.381-3.824-1.732-4.306-4.403-22.654-4.403-22.654l3.889-1.728 7.596-1.524z" fill="#FFBE9D"/><path d="M138.167 130.058a6.305 6.305 0 00-1.214.324 5.118 5.118 0 00-2.258 1.999 11.216 11.216 0 00-1.17 2.839 8.84 8.84 0 01-.38 1.241c.033-.434.109-.863.226-1.282a9.781 9.781 0 011.138-2.931 4.923 4.923 0 012.387-2.028c.301-.116.618-.184.939-.203a.81.81 0 01.332.041z" fill="#EB996E"/><path d="M155.91 115.055s5.467-6.131 7.669-5.952c2.201.178 5.378.652 6.257.502a24.023 24.023 0 013.351 0s5.726-3.11 6.782-2.866c0 0 .984-.049 1.324.507 0 0 2.177-1.379 3.747-.519l-5.71 4.78 1.744-.219s5.128-2.712 6.747-.847l-3.869 2.084s3.237-.049 3.703 1.261l-7.212 1.164s-13.703 1.123-14.42 1.423c-.716.3-3.642 4.055-3.642 4.055l-6.471-5.373z" fill="#FFBE9D"/><path d="M181.37 107.278a2.305 2.305 0 01-.344.333c-.231.202-.575.49-1.008.811a33.013 33.013 0 01-3.57 2.432c-.688.406-1.343.771-1.983 1.067a2.668 2.668 0 01-1.861.251l.101-.057a1.624 1.624 0 01-1.02 1.038 1.398 1.398 0 01-.405.073h-.141a3.42 3.42 0 00.506-.141 1.568 1.568 0 00.894-.998l.024-.077.077.02a2.565 2.565 0 001.732-.279c.616-.296 1.275-.678 1.959-1.071a46.252 46.252 0 003.586-2.348c.405-.304.761-.563 1.048-.77.122-.112.258-.207.405-.284zm-2.04 4.318a2.605 2.605 0 01-.761.596 6.597 6.597 0 01-2.181.844c-.454.093-.891.105-1.263.178-.333.066-.654.18-.955.337a1.73 1.73 0 01-.927.272c.295-.117.581-.252.858-.406.304-.188.636-.325.984-.405.404-.082.809-.102 1.262-.191a10.026 10.026 0 002.983-1.225zm4.917.499c-.224.24-.485.443-.773.6a8.955 8.955 0 01-4.492 1.363c-.327.03-.657.006-.975-.073a16.58 16.58 0 003.237-.523 16.294 16.294 0 003.003-1.367z" fill="#EB996E"/><path d="M73.985 150.746c-5.913 9.224-12.777 20.772-16.962 31.149h71.229l-8.499-31.149H73.985z" fill="#000"/><path d="M29.876 117.03s5.034 7.392 6.742 9.326c1.708 1.934 8.904 12.27 12.647 16.414 3.744 4.144 7.827 6.447 10.47 6.447 2.712 0 5.455-.929 7.608-5.993 3.105-7.299 5.723-28.789 5.723-28.789l-12.141-4.46-4.416 22.256c-1.181-1.188-19.891-18.652-19.891-18.652l-4.286 1.776-2.456 1.675z" fill="#FFBE9D"/><path d="M14.274 107.927s.288-.515 1.886-.288c1.599.227 4.4 1.889 5.03 1.889.632 0 7.658.232 9.03.572 1.372.341 3.5.552 4.759 1.869l2.023 1.805-6.799 3.746a2.845 2.845 0 00-2.169-1.119c-1.542-.117-8.628-.458-8.628-.458l-5.488-1.261-6.957-3.378a1.744 1.744 0 012-1.013c1.428.344 4.115 1.318 4.115 1.318l2.34.709-6.172-2.96a3.018 3.018 0 013.144-.746c1.943.633 5.261 2.121 5.261 2.121l.458-.175-3.833-2.631z" fill="#FFBE9D"/><path d="M21.988 111.994a4.531 4.531 0 01-2.093-.345 4.426 4.426 0 01-1.809-1.099c.037-.049.81.511 1.882.904 1.073.394 2.024.459 2.02.54zm-1.291 1.772c-.299.07-.606.093-.91.069a8.21 8.21 0 01-2.178-.361 8.33 8.33 0 01-2.004-.933 2.863 2.863 0 01-.712-.572c.878.53 1.809.968 2.776 1.306.99.27 2.004.435 3.028.491zm-12.235-1.728a1.373 1.373 0 00-.773 1.294 39.992 39.992 0 007.115 1.642m45.991 26.612c-.04 0 .04-.617-.02-1.602a10.846 10.846 0 00-.255-1.711 10.662 10.662 0 00-1.757-3.828c-.34-.466-.717-.902-1.129-1.305-.708-.69-1.214-1.03-1.214-1.063.133.058.258.131.373.219.14.093.275.193.404.3.18.135.35.28.514.434.434.398.83.833 1.186 1.302a10.22 10.22 0 011.81 3.896c.123.575.195 1.16.214 1.748v.677c-.004.17-.02.339-.045.507a1.625 1.625 0 01-.08.426z" fill="#EB996E"/><path d="M72.406 88.395c-1.68 1.038-5.56 4.184-9.58 12.699-5.341 11.329-6.73 18.397-6.73 18.397l14.21 5.081 4.306-37.248s-1.651.73-2.206 1.07z" fill="#8CBF43"/><path d="M69.318 100.263s.336 12.015.336 15.283c0 3.268 1.461 27.808 1.461 27.808s0 8.081 5.007 7.955c5.006-.125 13.565.844 16.949.844 2.497 0 16.69.166 24.161-.503 3.545-.316 4.905-2.048 5.997-4.866l.15-.381c2.141-5.271.486-27.828.486-27.828l-2.651-20.392-6.042-12.039-34.198-.105c-10.96.762-10.984 5.267-11.656 14.224z" fill="#8CBF43"/><path d="M129.474 96.01c-5.633-9.37-14.302-9.857-14.302-9.857l5.115 42.239 4.047-1.128c.3-.101 15.177-6.041 15.177-6.041s-6.573-19.447-10.037-25.213z" fill="#8CBF43"/><path d="M119.437 99.039a.262.262 0 01.049.08l.129.252c.106.223.276.543.462.977a38.816 38.816 0 011.449 3.698 57.167 57.167 0 012.614 12.826c.378 4.354.513 8.727.405 13.097a244.991 244.991 0 01-.097 3.969c-.021.454-.033.811-.045 1.079v.373a.242.242 0 010-.093v-1.363c0-.953.02-2.307.037-3.965.066-4.364-.087-8.729-.458-13.077a59.826 59.826 0 00-2.545-12.797 46.92 46.92 0 00-1.38-3.714c-.174-.434-.332-.763-.429-.994l-.106-.255a.375.375 0 01-.085-.093z" fill="#263238"/><path opacity=".3" d="M94.556 126.936a16.368 16.368 0 016.415-3.97c3.197-1.038 12.667-3.017 15.176-3.937a21.037 21.037 0 007.414-4.684l11.118 9.148a34.429 34.429 0 01-6.322 4.497c-3.578 1.926-12.396 1.938-17.147 4.789-3.072 1.849-7.054 7.266-7.054 7.266l-9.6-13.109zm15.302 49.505a16.351 16.351 0 01-7.172-2.324c-2.86-1.768-10.502-7.704-12.829-9.03a29.611 29.611 0 00-8.377-3.142l-.243-13.888c2.57.351 5.093.991 7.52 1.91 3.78 1.48 9.502 8.203 14.751 9.979 3.396 1.151 10.089.677 10.089.677l-3.739 15.818zm-49.706-69.645c2.833.957 6.422-.669 8.24-3.05 1.817-2.38 3.59-5.433 4.022-8.397-2.076 0-4.892.154-6.969.15l-5.293 11.297z" fill="#000"/><path d="M70.014 110.06c.016.11.024.221.025.332l.036.961.097 3.52c.077 2.992.186 7.091.308 11.617.121 4.525.275 8.644.404 11.617.07 1.468.126 2.664.17 3.515 0 .406.033.718.045.957.01.112.01.225 0 .337a2.201 2.201 0 01-.044-.333c0-.239-.05-.555-.086-.957a144.64 144.64 0 01-.234-3.515c-.17-2.968-.336-7.076-.47-11.613-.133-4.538-.21-8.649-.247-11.621 0-1.472-.024-2.672-.032-3.524v-.957a1.547 1.547 0 01.028-.336z" fill="#263238"/><path opacity=".3" d="M70.379 135.195c-3.695-8.369-3.145-17.679-.38-26.401.404 8.495.59 17.898.38 26.401z" fill="#000"/><path d="M114.504 46.022a11.954 11.954 0 00-5.913-7.076c-3.092-1.577-6.77-1.71-10.15-.932-3.38.778-6.5 2.408-9.45 4.233-1.655 1.026-3.302 2.145-4.451 3.702-2.13 2.838-4.185 7.481-4.294 11.037-.09 2.875 1.214 10.028 2.497 12.599.457.916 1.525 1.727 2.833 2.408a24.456 24.456 0 005.382 6.727c.613-1.946 1.222-3.893 1.83-5.839l21.716-26.859z" fill="#263238"/><path d="M112.756 42.531l-5.666-.852c3.294 7.279 4.609 24.09 6.596 31.83 1.996-3.085 6.565-12.44 6.205-16.097-.361-3.657-.446-15.696-7.135-14.881z" fill="#263238"/><path d="M86.34 55.551c.178-4.314 2.858-7.92 6.998-9.107l12.906-3.694c5.601-.766 9.551 6.05 10.081 11.69.587 6.265 1.028 12.882.429 17.586-1.214 9.468-8.373 10.887-8.373 10.887l.202 7.234-7.657 15.996-11.89-19.167-2.708-31.307c-.028-.163 0 .1.012-.118z" fill="#FFBE9D"/><path d="M112.723 61.361a1.213 1.213 0 01-1.125 1.253 1.154 1.154 0 01-1.275-1.05 1.214 1.214 0 011.125-1.253 1.149 1.149 0 011.275 1.05zm2.295-3.187c-.146.163-1.081-.486-2.376-.446-1.295.04-2.23.726-2.375.568-.069-.065.073-.357.477-.669a3.321 3.321 0 011.894-.653 3.182 3.182 0 011.898.552c.401.296.555.575.482.648zm-13.497 3.187a1.218 1.218 0 01-1.125 1.253 1.153 1.153 0 01-1.275-1.05 1.218 1.218 0 011.125-1.253 1.149 1.149 0 011.275 1.05zm1.178-2.834c-.146.162-1.081-.486-2.38-.446-1.3.04-2.226.726-2.372.568-.073-.065.07-.357.478-.67a3.299 3.299 0 011.894-.652c.675-.022 1.34.17 1.898.551.405.292.55.576.482.65zm4.346 10.093c0-.074.81-.24 2.093-.447.331-.044.643-.121.692-.348a1.665 1.665 0 00-.251-.978l-1.057-2.497c-1.473-3.556-2.549-6.488-2.404-6.54.146-.053 1.453 2.777 2.922 6.333.357.876.697 1.711 1.016 2.514.222.392.298.85.215 1.293a.805.805 0 01-.53.503 2.254 2.254 0 01-.563.097c-1.311.11-2.129.142-2.133.07z" fill="#263238"/><path d="M95.819 79.92s3.237 6.382 12.622 5.21l-.06-2.213a23.652 23.652 0 01-12.562-2.997z" fill="#EB996E"/><path d="M102.156 53.84c-.117.356-1.416.23-2.934.462-1.517.231-2.736.681-2.946.373-.097-.15.11-.49.595-.847a5.146 5.146 0 014.48-.633c.566.207.854.474.805.645zm12.324.369c-.219.304-1.121.024-2.194.044-1.072.02-1.979.26-2.201-.044-.093-.146.04-.446.429-.738a3.174 3.174 0 013.541 0c.388.292.522.592.425.738z" fill="#263238"/><path d="M113.525 45.913c-.616-1.4-2.19-2.206-3.72-2.243-1.529-.036-2.999.588-4.298 1.391-5.508 3.402-8.163 11.317-13.598 14.833-1.34.863-3.132.158-4.257 1.285-1.125 1.127-1.826 2.891-1.146 4.33a13.11 13.11 0 01-2.023-3.195 4.466 4.466 0 01.048-3.677c.458-.844 1.283-1.5 1.49-2.433.182-.811-.166-1.67-.154-2.514a5.52 5.52 0 01.81-2.433c2.055-3.9 4.937-7.46 8.717-9.732a15.864 15.864 0 018.187-2.376 12.166 12.166 0 017.94 2.9c1.271 1.119 2.607 2.278 2.024 3.864" fill="#263238"/><path d="M87.822 62.339c-.106-.264-5.063-1.898-4.978 3.325.08 5.076 5.164 3.933 5.168 3.787.004-.146-.19-7.112-.19-7.112z" fill="#FFBE9D"/><path d="M86.413 67.557c-.024 0-.089.065-.235.134a.884.884 0 01-.66.028c-.537-.186-1.007-1.03-1.047-1.946a2.941 2.941 0 01.222-1.27 1.018 1.018 0 01.652-.688.449.449 0 01.526.23c.069.143.04.244.065.252.024.008.109-.09.064-.296a.58.58 0 00-.206-.316.662.662 0 00-.49-.118 1.214 1.214 0 00-.906.811c-.208.443-.303.93-.28 1.42.053 1.021.591 1.97 1.328 2.169a.95.95 0 00.81-.15c.15-.138.173-.252.157-.26z" fill="#EB996E"/><path d="M85.733 59.792c.104-.054.204-.115.3-.182.19-.126.485-.3.834-.564a17.519 17.519 0 002.662-2.57 48.075 48.075 0 003.218-4.46 40.225 40.225 0 014.047-5.333 16.003 16.003 0 012.639-2.214 13.17 13.17 0 012.873-1.407 14.315 14.315 0 015.346-.81 13.77 13.77 0 013.614.6c.405.117.729.247.947.324.108.046.221.081.336.105a2.589 2.589 0 00-.32-.15 8.584 8.584 0 00-.938-.365 13.154 13.154 0 00-3.643-.681 14.397 14.397 0 00-5.423.774c-1.03.353-2.014.83-2.93 1.42-.971.647-1.87 1.4-2.68 2.242a38.914 38.914 0 00-4.046 5.377 52.358 52.358 0 01-3.17 4.46 18.64 18.64 0 01-2.593 2.603c-.336.276-.623.458-.81.6a1.576 1.576 0 00-.263.231z" fill="#8CBF43"/><path d="M85.863 68.47a.995.995 0 00-1.126.77 1 1 0 00.696 1.174.994.994 0 001.213-.623 1 1 0 00-.544-1.252" fill="#fff"/><path d="M86.102 68.526c.222.17.388.403.473.67a.864.864 0 01-.174.81.886.886 0 01-1.57-.454.87.87 0 01.275-.774 1.37 1.37 0 01.757-.313s-.081-.048-.239-.048c-.23.008-.45.092-.627.239a1.017 1.017 0 00-.377.928 1.091 1.091 0 001.42.928c.208-.068.39-.196.523-.368a1.027 1.027 0 00.17-.99 1.05 1.05 0 00-.405-.534c-.125-.094-.222-.094-.226-.094zm.942-7.335c-.036 1.387-.06 2.839.616 4.055.675 1.217 2.306 2.007 3.492 1.285.963-.592 1.214-1.857 1.356-2.984.405-3.244.514-6.516.93-9.76l-6.394 7.404z" fill="#263238"/><path d="M112.209 43.536c0 .029-.449-.072-1.262-.077a8.687 8.687 0 00-3.331.71c-.729.307-1.424.69-2.072 1.144-.74.53-1.446 1.104-2.117 1.719a26.217 26.217 0 00-4.112 4.703c-.615.92-1.157 1.87-1.752 2.75a13.166 13.166 0 01-1.963 2.343 22.613 22.613 0 01-4.2 2.993c-1.276.721-2.344 1.216-3.08 1.585l-.859.406c-.097.05-.2.09-.307.117.087-.068.182-.125.283-.17l.81-.442c.724-.385 1.776-.925 3.035-1.667a23.146 23.146 0 004.116-3.004 12.918 12.918 0 001.914-2.312c.583-.867 1.125-1.816 1.748-2.753a25.714 25.714 0 014.173-4.736 21.937 21.937 0 012.157-1.719c.666-.454 1.38-.835 2.129-1.135a8.395 8.395 0 013.411-.633c.316.01.63.045.939.106a1.1 1.1 0 01.34.072zM86.818 58.06c-.133.124-.281.23-.441.317l-1.259.79-.405.26a1.37 1.37 0 01-.55.199.541.541 0 01-.344-.069.446.446 0 01-.198-.333c.003-.232.08-.458.218-.644l1.42-2.433.207.182a5.35 5.35 0 01-1.619.86 5.187 5.187 0 01-1.805.264 1.45 1.45 0 01-.465-.065.615.615 0 01-.405-.333.553.553 0 01.069-.515c.084-.115.177-.224.28-.324a10.664 10.664 0 001.663-2.23c.397-.765.742-1.556 1.032-2.368a2.653 2.653 0 01-.142.689 9.427 9.427 0 01-.712 1.776c-.44.845-.997 1.624-1.651 2.315-.183.187-.365.406-.288.556.077.15.356.227.62.223a5.145 5.145 0 003.237-1.067l.59-.462-.384.64-1.453 2.434a.983.983 0 00-.202.502.243.243 0 00.3.207c.323-.075.628-.213.898-.405l1.303-.718a2.02 2.02 0 01.486-.247z" fill="#8CBF43"/><path d="M102.177 71.158a1.693 1.693 0 011.711-1.338 1.763 1.763 0 011.389.928 2.166 2.166 0 01.125 1.695l-.02.126a1.93 1.93 0 01-2.157.523 1.809 1.809 0 01-1.048-1.934z" fill="#EB996E"/><path d="M104.415 72.986s-.053.134-.259.256c-.302.17-.654.223-.992.15a1.706 1.706 0 01-1.166-.94 2.226 2.226 0 01-.214-.912 2.226 2.226 0 01.182-.918c.119-.306.303-.582.538-.81a1.088 1.088 0 01.931-.264c.473.144.909.389 1.279.718.635.482 1.012.81.975.855-.036.045-.465-.186-1.145-.608a3.549 3.549 0 00-1.17-.58.683.683 0 00-.594.187 1.92 1.92 0 00-.405.665 1.914 1.914 0 000 1.5 1.4 1.4 0 001.74.81c.166-.048.267-.109.3-.109z" fill="#263238"/><path d="M135.5 63.45a16.915 16.915 0 016.297 4.618c2.239 2.668 7.823 11 9.685 13.057a21.784 21.784 0 007.378 5.3l-4.428 14.252a35.635 35.635 0 01-6.77-4.327c-3.238-2.688-6.686-11.158-11.267-14.597-2.967-2.238-9.713-3.953-9.713-3.953l8.818-14.35z" fill="#A7E351"/><path d="M157.998 86.85c-.041-.028-4.452-2.53-6.322-4.61-1.323-1.464-3.363-4.246-5.338-6.938-1.497-2.028-2.91-3.966-3.97-5.271-3.4-4.177-6.107-5.024-6.22-5.057l-.263-.077-7.714 12.027.486.125c.048 0 5.014 1.363 7.357 3.078 3.116 2.283 4.921 5.316 6.666 8.252 1.246 2.1 2.428 4.083 4.047 5.818a27.747 27.747 0 004.804 4.1c.695.48 1.424.908 2.181 1.281l.38.174 3.906-12.902zm-21.555-7.299c-1.392-1.017-3.586-1.89-5.261-2.465.273-.357.408-.8.38-1.249-.19-.73-.809-.884-1.44-.584l5.01-7.813.036.064c.773 1.083 2.287.15 2.388-.969l.081.053a19.067 19.067 0 014.164 3.921c1.053 1.29 2.461 3.212 3.95 5.243l.514.701c-1.141-.527-2.65-.275-4.067 1.72-1.311 1.845-1.497 4.338-1.153 6.248a19.83 19.83 0 00-4.602-4.886v.016zm10.814 14.164c-1.566-1.679-2.724-3.65-3.95-5.677-.117-.195-.235-.406-.348-.584a3.932 3.932 0 004.452-1.674c.947-1.594 1.853-3.881 1.214-6.176.963 1.273 1.845 2.388 2.541 3.159 1.32 1.463 3.598 3.199 4.97 4.192a.807.807 0 00-.586.708.798.798 0 00.036.322c.089.454.506 1.006 1.02.896l.064-.024-2.626 8.673c-.405-1.216-1.744-.653-1.534.544a26.555 26.555 0 01-5.253-4.376v.017z" fill="#fff"/><path d="M143.813 84.636l-.466.746-.59-.373.453-.722a3.103 3.103 0 01-1.145-1.455l.833-.608c.168.469.464.882.854 1.192l.692-1.111c-.542-.593-1.125-1.298-.53-2.25.437-.706 1.271-1.027 2.283-.56l.461-.738.591.369-.453.725c.411.297.738.697.947 1.16l-.81.633a2.642 2.642 0 00-.688-.913l-.708 1.132c.55.584 1.121 1.28.534 2.218-.429.693-1.25 1.01-2.258.555zm1.258-1.07c.146-.231.053-.467-.137-.726l-.575.916a.55.55 0 00.712-.19zm0-2.243l.587-.944a.59.59 0 00-.744.218c-.158.236-.061.47.141.726h.016zm-49.965 39.571a16.923 16.923 0 016.633-4.116c3.311-1.074 13.117-3.122 15.715-4.075a21.834 21.834 0 007.69-4.865l11.514 9.476a35.658 35.658 0 01-6.549 4.655c-3.703 1.995-12.833 2.007-17.754 4.963-3.185 1.91-7.285 7.517-7.285 7.517l-9.964-13.555z" fill="#A7E351"/><path d="M125.204 108.811c-.04.028-4.014 3.175-6.645 4.136-1.849.677-5.192 1.524-8.422 2.343-2.448.621-4.763 1.217-6.37 1.703-5.14 1.586-6.94 3.779-7.018 3.873l-.17.215 8.24 11.682.304-.406c.028-.04 3.144-4.148 5.609-5.677 3.286-2.027 6.771-2.566 10.142-3.081 2.408-.369 4.687-.714 6.904-1.565a27.987 27.987 0 005.597-2.916 17.837 17.837 0 002.004-1.545l.307-.288-10.482-8.474zm-14.877 17.257c-1.465.908-3.096 2.619-4.257 3.958a1.865 1.865 0 00-1.012-.811c-.749-.098-1.121.405-1.085 1.119l-5.338-7.591h.073c1.295-.308.996-2.068 0-2.579l.081-.057a19.029 19.029 0 015.193-2.388c1.59-.49 3.893-1.078 6.333-1.695l.842-.215c-.919.86-1.251 2.356.061 4.424 1.214 1.914 3.448 3.021 5.342 3.418a19.948 19.948 0 00-6.233 2.417zm17.156-4.708c-2.141.811-4.383 1.164-6.751 1.525l-.671.101a3.947 3.947 0 00.137-4.748c-1.117-1.476-2.889-3.179-5.261-3.434 1.538-.406 2.906-.811 3.877-1.172 1.85-.673 4.31-2.137 5.747-3.037a.806.806 0 00.432.816c.097.05.204.08.313.088.453.085 1.121-.097 1.214-.612a.445.445 0 000-.073l7.034 5.705c-1.279-.065-1.255 1.37-.073 1.622a26.77 26.77 0 01-5.998 3.219z" fill="#fff"/><path d="M117.827 121.178l.514.709-.567.406-.498-.693a3.077 3.077 0 01-1.776.51l-.247-1.001c.496.023.989-.097 1.42-.345l-.765-1.058c-.753.284-1.619.555-2.278-.353-.49-.673-.47-1.569.34-2.331l-.51-.706.566-.405.498.693c.43-.269.922-.422 1.429-.446l.283.989a2.683 2.683 0 00-1.105.296l.781 1.079c.745-.288 1.619-.552 2.255.341.477.665.461 1.565-.34 2.315zm-2.595-2.401l-.651-.9a.586.586 0 00-.081.775c.162.219.437.219.732.125zm2.077.811c-.158-.223-.405-.223-.721-.142l.632.876a.557.557 0 00.089-.705v-.029zM96.154 4.055L82.374 2.21l-1.432.15c-2.493.34-4.485.945-7.451 4.091-2.89 3.062-4.1 10.883-4.1 10.883s3.424-1.768 8.697-1.646c5.274.122 7.192 1.038 7.192 1.038s.032-5.271 2.29-7.915c2.81-3.276 8.585-4.756 8.585-4.756z" fill="#A7E351"/><path opacity=".2" d="M96.154 4.055L82.374 2.21l-1.432.15c-2.493.34-4.485.945-7.451 4.091-2.89 3.062-4.1 10.883-4.1 10.883s3.424-1.768 8.697-1.646c5.274.122 7.192 1.038 7.192 1.038s.032-5.271 2.29-7.915c2.81-3.276 8.585-4.756 8.585-4.756z" fill="#000"/><path d="M80.942 2.36s3.237-.458 8.357 3.95c3.282 2.813 8.903 11.45 8.903 11.45a14.685 14.685 0 014.339-3.974c4.565-2.716 7.187-3.402 7.187-3.402s-2.885-4.363-7.256-6.082C91.933.102 80.942 2.36 80.942 2.36z" fill="#A7E351"/><path d="M85.211 1.829c.716.405 4.946 1.885 7.872 1.622 2.926-.264 3.622-.734 2.46-1.042a21.323 21.323 0 00-5.026-.686 43.527 43.527 0 00-5.306.106z" fill="#fff"/><path d="M108.215 9.452a29.702 29.702 0 00-6.633-5.247 35.54 35.54 0 00-1.62-.811 36.696 36.696 0 00-5.754-1.265c1.845.405 4.241.6 7.317 2.717a43.375 43.375 0 014.395 3.52c-.482.275-.49 1.24-.15 1.621a19.817 19.817 0 00-3.618 1.84 34.523 34.523 0 00-3.035 2.251c.087-.18.12-.38.097-.58-.113-.636-1.012-1.054-1.619-.88a.663.663 0 00-.522.463c-1.736-2.526-4.61-6.545-6.273-7.94a22.25 22.25 0 00-5.524-3.296h-.045c-.712.045-1.274.126-1.833.182a22.166 22.166 0 016.88 3.767c2.343 1.971 7.495 9.817 7.548 9.898l.263.406.36-.325a38.517 38.517 0 014.169-3.244A18.778 18.778 0 01108 10.137l.704-.158-.489-.527z" fill="#fff"/><path d="M46.023 101.966l12.45 2.129 1.306-.085c2.275-.231 4.1-.714 6.88-3.475 2.72-2.684 4.072-9.731 4.072-9.731s-3.16 1.492-7.949 1.216c-4.787-.276-6.475-1.176-6.475-1.176s-.202 4.793-2.335 7.112c-2.659 2.867-7.949 4.01-7.949 4.01z" fill="#A7E351"/><path opacity=".2" d="M46.023 101.966l12.45 2.129 1.306-.085c2.275-.231 4.1-.714 6.88-3.475 2.72-2.684 4.072-9.731 4.072-9.731s-3.16 1.492-7.949 1.216c-4.787-.276-6.475-1.176-6.475-1.176s-.202 4.793-2.335 7.112c-2.659 2.867-7.949 4.01-7.949 4.01z" fill="#000"/><path d="M59.78 104.01s-2.943.312-7.464-3.856c-2.885-2.664-7.689-10.685-7.689-10.685a13.455 13.455 0 01-4.083 3.471c-4.234 2.316-6.634 2.838-6.634 2.838s2.477 4.055 6.39 5.771c9.426 4.156 19.48 2.461 19.48 2.461z" fill="#A7E351"/><path d="M55.886 104.351c-.64-.369-4.427-1.87-7.094-1.716-2.667.154-3.315.552-2.267.868 1.477.444 3.002.706 4.541.783a39.35 39.35 0 004.82.065z" fill="#fff"/><path d="M35.246 96.687a26.75 26.75 0 005.848 4.975c.465.276.955.539 1.457.791a34.098 34.098 0 005.204 1.35c-1.659-.442-3.828-.681-6.552-2.705a38.664 38.664 0 01-3.877-3.337c.445-.235.482-1.11.186-1.468a18.362 18.362 0 003.347-1.549 30.736 30.736 0 002.833-1.95.942.942 0 00-.105.523c.081.584.886.994 1.449.852a.594.594 0 00.49-.406c1.493 2.348 3.974 6.082 5.439 7.412a20.212 20.212 0 004.885 3.163h.04c.648 0 1.162-.069 1.672-.105a20.09 20.09 0 01-6.12-3.65c-2.064-1.865-6.475-9.155-6.536-9.232l-.226-.373-.336.28a35.448 35.448 0 01-3.873 2.813 17.137 17.137 0 01-4.99 1.991l-.644.122.409.503z" fill="#fff"/><path d="M135.241 28.428s2.91-2.372 6.613-5.912c4.517-4.314 13.882-12.906 21.854-9.658l9.139 10.948s-4.452-.929-10.438 1.285c-5.31 1.975-9.025 5.884-10.708 7.672-.676.722-1.563 1.699-2.275 2.384-1.214 1.148-2.57 2.75-4.719 4.46l-9.466-11.179z" fill="#A7E351"/><path d="M156.97 20.456c1.056 2.506-.223 5.442-2.857 6.553-2.635 1.111-5.626 0-6.682-2.522s.227-5.438 2.857-6.553c2.631-1.115 5.626.017 6.682 2.522z" fill="#fff"/><path d="M154.453 23.806l.55.523-.405.454-.534-.523c-.402.38-.911.625-1.457.705l-.36-.81a2.31 2.31 0 001.174-.507l-.81-.811c-.607.357-1.315.721-2.023.036-.518-.507-.636-1.281-.053-2.06l-.567-.539.425-.438.535.523a2.523 2.523 0 011.165-.596l.405.811a2.323 2.323 0 00-.907.406l.834.81c.599-.36 1.303-.717 1.991-.044.494.519.611 1.281.037 2.06zm-2.595-1.679l-.696-.681a.522.522 0 00.049.681c.174.175.392.126.647 0zm1.915.406c-.17-.167-.405-.13-.644 0l.66.64a.49.49 0 000-.644l-.016.004z" fill="#A7E351"/><path d="M163.028 12.951l-.097-.032c-.23-.073-5.779-1.744-13.618 4.257a67.935 67.935 0 00-8.191 7.412c-1.619 1.67-2.781 2.88-4.189 3.621l-.372.199 8.324 10.356.272-.3c.076-.09 7.839-8.645 11.566-11.28 2.963-2.093 8.701-5.446 13.853-4.368l.988.207-8.536-10.072zm-6.689 13.665c-2.696 1.905-7.285 6.666-9.847 9.39a2.175 2.175 0 00-2.97-.056l-4.566-5.677a1.818 1.818 0 00.761-1.407 2.62 2.62 0 00-.433-1.5c.729-.64 1.465-1.403 2.335-2.303a66.993 66.993 0 018.123-7.335c3.938-3.017 7.264-3.982 9.357-4.262a12.26 12.26 0 011.647-.11 3.117 3.117 0 003.136 1.663l4.764 5.62c-.332.105-.729.405-.615 1.29-4.586.182-9.143 2.882-11.692 4.687z" fill="#fff"/><path d="M19.232 133.176s2.905 2.376 7.114 5.296c5.132 3.556 15.428 11.004 13.87 19.499l-8.843 11.183s0-4.574-3.371-9.983c-3.011-4.821-7.589-7.704-9.673-8.965-.846-.519-1.975-1.188-2.792-1.751-1.364-.937-3.206-1.967-5.338-3.723l9.033-11.556z" fill="#A7E351"/><path d="M31.42 152.888c2.237-1.543 2.736-4.707 1.114-7.066-1.621-2.359-4.748-3.02-6.985-1.477s-2.736 4.706-1.115 7.065c1.622 2.359 4.75 3.021 6.986 1.478z" fill="#fff"/><path d="M27.593 151.066l-.405.645-.514-.329.405-.628a2.685 2.685 0 01-.983-1.286l.732-.523c.138.414.393.778.733 1.05l.619-.965c-.474-.523-.976-1.143-.445-1.97.404-.613 1.12-.884 1.999-.471l.405-.64.514.328-.405.633c.353.263.632.614.81 1.017l-.705.548a2.331 2.331 0 00-.595-.811l-.619.989c.474.515.963 1.132.445 1.947-.392.604-1.117.871-1.991.466zm1.109-.925c.13-.202.052-.405-.113-.636l-.51.811a.49.49 0 00.623-.175zm0-1.962l.522-.811a.51.51 0 00-.652.182c-.121.195-.04.406.138.629h-.008z" fill="#A7E351"/><path d="M39.985 157.326v-.097c.024-.243.534-6.025-6.916-12.501a68.1 68.1 0 00-8.904-6.54c-1.959-1.241-3.375-2.141-4.387-3.374l-.267-.324-8.426 10.267.348.206c.101.057 10.037 5.941 13.355 9.067 2.647 2.481 7.083 7.432 7.075 12.704v1.013l8.122-10.421zm-14.711-3.795c-2.428-2.258-7.993-5.806-11.174-7.761a2.18 2.18 0 00-.542-2.923l4.617-5.628a1.805 1.805 0 001.526.462 2.631 2.631 0 001.38-.726c.773.58 1.668 1.152 2.72 1.821a66.686 66.686 0 018.827 6.487c3.743 3.244 5.358 6.322 6.07 8.317.182.521.33 1.053.441 1.593a3.135 3.135 0 00-1.003 3.37l-4.545 5.831c-.17-.304-.547-.629-1.384-.341-1.089-4.46-4.655-8.385-6.933-10.522v.02z" fill="#fff"/><path d="M0 66.04s6.447-7.574 19.122-2.696c.48.185.978.321 1.486.406a8.16 8.16 0 004.322-.309c2.469-.993 5.982-2.433 5.982-2.433l10.854 6.435s-4.55 3.326-8.956 3.605c-4.408.28-9.616-3.333-14.671-2.116a12.707 12.707 0 00-6.678 3.848L0 66.04z" fill="#A7E351"/><path d="M26.168 67.715c-.485.438-3.427.037-6.564-.9-3.136-.937-5.29-2.027-4.8-2.481.49-.455 3.428-.037 6.569.896 3.14.932 5.285 2.04 4.795 2.485z" fill="#fff" opacity=".2"/><path d="M21.794 66.856l.198.21-.66-.162-.194-.203a17.09 17.09 0 01-1.785-.514l.142-.15c.404.141.922.3 1.408.405l-.3-.316c-.776-.211-1.663-.463-1.918-.734-.19-.199.158-.26 1.166-.061l-.198-.21.663.145.195.207c.506.118 1.02.263 1.444.405l-.109.159c-.405-.13-.76-.236-1.1-.32l.303.32c.777.21 1.647.458 1.902.725.182.227-.158.288-1.157.094zm-1.45-.978l-.254-.267c-.328-.057-.405-.033-.356.028a1.9 1.9 0 00.61.24zm1.563.702a1.966 1.966 0 00-.595-.235l.243.263c.3.049.409.033.352-.028z" fill="#A7E351"/><path d="M30.758 61.787l-.117.06a38.2 38.2 0 01-6.346 2.434c-1.514.385-2.226.26-3.517.036-.251-.044-.522-.093-.81-.138a17.65 17.65 0 01-2.23-.624c-1.639-.531-3.678-1.188-5.718-1.249h-.053c-.056 0-5.666-.482-10.235 3.191l-.27.22 9.752 5.915.134-.122c.053-.048 5.286-4.784 12.36-3.004.838.21 1.619.405 2.347.612 5.727 1.517 8.604 2.279 14.363-1.188l.352-.21-10.012-5.933zm-4.59 6.849l-2.347-.613c-4.812-1.216-8.798.487-10.988 1.813-1.619-.848-2.744-.085-3.156.292l-5.703-3.459c1.101-.981.478-1.792.073-2.137a15.473 15.473 0 017.872-1.743c2.003.052 4.047.701 5.666 1.216.752.266 1.521.48 2.302.64.3.045.571.094.81.139 1.311.227 2.104.364 3.72-.045a33.151 33.151 0 004.79-1.711c.405.353 1.486 1.026 3.085.223l5.82 3.45c-.438.207-1.09.743-.053 1.919-4.278 2.03-7.038 1.305-11.89.016z" fill="#fff"/><path d="M148.123 168.218s-.761-9.926 11.652-15.429a8.029 8.029 0 001.351-.75 8.244 8.244 0 002.833-3.276 633.351 633.351 0 002.513-5.957l12.231-3.114s-.883 5.571-3.813 8.888-9.17 4.428-11.878 8.876a12.712 12.712 0 00-2.023 7.445l-12.866 3.317z" fill="#A7E351"/><path d="M167.844 150.896c-.04.657-2.404 2.433-5.289 4.01-2.886 1.577-5.184 2.287-5.148 1.622.036-.665 2.404-2.433 5.285-4.006 2.882-1.574 5.189-2.279 5.152-1.626z" fill="#fff"/><path d="M164.141 153.389h.292l-.571.365h-.283c-.523.33-1.063.63-1.619.9v-.21c.442-.211.873-.443 1.291-.698h-.433c-.7.406-1.506.852-1.874.84-.275 0-.073-.292.781-.868h-.287l.571-.361h.279c.445-.272.914-.535 1.315-.734l.037.191c-.369.182-.709.373-1.008.551h.441c.7-.405 1.489-.839 1.858-.811.255-.02.056.264-.79.835zm-1.716.333h-.368c-.271.194-.316.272-.231.276.214-.058.416-.152.599-.276zm1.619-.608c-.21.05-.41.136-.591.255h.361c.242-.17.299-.251.218-.255h.012z" fill="#A7E351"/><path d="M166.934 143.455l-.045.126a38.255 38.255 0 01-2.784 6.204c-.809 1.346-1.392 1.759-2.465 2.514-.21.146-.437.304-.684.486-.649.423-1.325.802-2.023 1.136-1.538.782-3.444 1.759-4.934 3.154l-.04.037c-.041.036-4.363 3.649-5.006 9.496l-.037.349 11.077-2.705v-.182c0-.069.376-7.125 6.645-10.863a95.762 95.762 0 012.093-1.217c5.131-2.976 7.689-4.46 9.344-10.996l.102-.406-11.243 2.867zm1.566 8.11l-2.096 1.216c-4.266 2.543-5.897 6.565-6.512 9.051-1.744.543-2.003 1.877-2.024 2.432l-6.475 1.582c.105-1.46-.939-1.594-1.445-1.573a15.583 15.583 0 014.351-6.8c1.461-1.379 3.351-2.348 4.856-3.127a17.115 17.115 0 002.085-1.171l.68-.483c1.088-.766 1.748-1.216 2.606-2.664a33.542 33.542 0 002.189-4.598c.543-.041 1.777-.325 2.344-2.028l6.552-1.67c-.162.454-.247 1.293 1.315 1.395-1.615 4.468-4.083 5.912-8.426 8.43v.008z" fill="#fff" opacity=".2"/><path d="M166.238 69.994s-2.736-9.577 8.292-17.468a8.52 8.52 0 003.299-4.797c.53-2.611 1.258-6.346 1.258-6.346l11.332-5.526s.263 5.636-1.934 9.476c-2.198 3.84-8.095 6.196-9.839 11.102a12.727 12.727 0 00-.477 7.704l-11.931 5.855z" fill="#A7E351"/><path d="M182.05 49.035c.093.649-1.862 2.887-4.367 4.995-2.505 2.109-4.618 3.293-4.715 2.644-.097-.649 1.858-2.887 4.367-4.995 2.509-2.109 4.617-3.293 4.715-2.644z" fill="#fff"/><path d="M178.929 52.226l.284-.049-.482.47-.279.05c-.449.43-.921.836-1.413 1.216l-.044-.203a16.19 16.19 0 001.121-.949l-.425.077c-.607.535-1.303 1.136-1.667 1.217-.272.048-.134-.276.586-1.01l-.283.049.486-.47.279-.05c.362-.347.742-.676 1.137-.985l.073.179c-.32.255-.615.507-.874.746l.433-.077c.607-.535 1.291-1.127 1.651-1.192.267-.065.13.251-.583.98zm-1.618.673l-.365.065c-.226.243-.255.328-.17.316.2-.096.382-.225.539-.381h-.004zm1.448-.92a1.964 1.964 0 00-.526.368l.352-.06c.219-.231.259-.325.178-.309h-.004z" fill="#A7E351"/><path d="M179.654 41.93v.13a38.536 38.536 0 01-1.473 6.646c-.514 1.476-1.012 2.003-1.911 2.96-.174.187-.364.406-.57.617a17.084 17.084 0 01-1.748 1.516c-1.344 1.083-3.016 2.433-4.193 4.095l-.029.04c-.036.046-3.533 4.482-2.982 10.32l.032.345 10.304-4.894-.032-.178c0-.074-1.069-7.056 4.314-11.99.635-.584 1.214-1.12 1.801-1.623 4.419-3.953 6.641-5.94 6.928-12.667v-.405l-10.441 5.089zm3.169 7.62c-.563.502-1.166 1.042-1.805 1.622-3.643 3.353-4.452 7.623-4.545 10.185a2.64 2.64 0 00-1.498 2.798l-6.022 2.859c-.198-1.448-1.242-1.367-1.736-1.245a15.604 15.604 0 012.886-7.542c1.153-1.646 2.808-2.98 4.14-4.055a17.826 17.826 0 001.801-1.573c.206-.227.405-.426.566-.608.915-.974 1.465-1.562 2.024-3.139.528-1.616.934-3.27 1.214-4.947.518-.15 1.672-.677 1.882-2.433l6.071-2.964c-.069.475.02 1.318 1.574 1.1-.68 4.687-2.805 6.592-6.552 9.942z" fill="#fff"/><path d="M48.913 37.548a16.94 16.94 0 01-7.426-2.4c-2.963-1.834-10.875-7.98-13.287-9.355a30.561 30.561 0 00-8.673-3.244l-.25-14.383a35.592 35.592 0 017.786 1.971c3.913 1.533 9.838 8.515 15.274 10.332 3.516 1.192 10.453.701 10.453.701l-3.877 16.378z" fill="#A7E351"/><path d="M20.211 21.969l.26.073c.044 0 4.762 1.37 7.199 2.753 1.712.973 4.524 2.976 7.24 4.91 2.06 1.464 4.003 2.839 5.423 3.755 4.537 2.9 7.37 2.839 7.487 2.839h.276l3.553-13.843-.498.028c-.049 0-5.188.288-7.949-.604-3.674-1.188-6.337-3.504-8.903-5.742-1.841-1.602-3.582-3.114-5.666-4.253a27.703 27.703 0 00-5.844-2.38 17.478 17.478 0 00-2.473-.532l-.404-.048.3 13.044zm22.769.604c1.619.531 3.998.67 5.767.685-.147.425-.137.888.028 1.306.405.637 1.044.584 1.554.105l-2.31 8.986a.213.213 0 00-.057-.049c-1.073-.81-2.218.576-1.963 1.67l-.093-.024a19.127 19.127 0 01-5.18-2.433c-1.405-.896-3.343-2.274-5.395-3.734l-.708-.503c1.25.142 2.602-.572 3.326-2.911.668-2.153.061-4.586-.866-6.273a19.815 19.815 0 005.897 3.175zM28.273 12.525c2.023 1.103 3.727 2.591 5.536 4.164l.514.447a3.93 3.93 0 00-3.687 2.984c-.404 1.812-.546 4.265.81 6.24-1.312-.904-2.501-1.687-3.4-2.201-1.712-.974-4.42-1.902-6.03-2.413a.81.81 0 00.198-1.156c-.226-.405-.809-.81-1.246-.527a.217.217 0 00-.057.045l-.222-9.063c.78 1.022 1.857.07 1.287-1.001a26.718 26.718 0 016.297 2.481z" fill="#fff"/><path d="M34.4 20.051l.21-.851.676.162-.202.81a3.107 3.107 0 011.542 1.022l-.607.86a2.615 2.615 0 00-1.186-.86l-.307 1.27c.7.405 1.473.88 1.214 1.97-.195.811-.887 1.37-1.991 1.25l-.207.842-.692-.17.203-.81a2.92 2.92 0 01-1.263-.812l.587-.86c.261.283.582.505.938.65l.316-1.294c-.704-.381-1.46-.868-1.214-1.942.186-.791.87-1.35 1.983-1.237zm-.858 1.411c-.065.268.093.462.36.649l.255-1.054a.554.554 0 00-.631.405h.016zm.716 2.125l-.263 1.082a.59.59 0 00.64-.442c.049-.267-.117-.462-.393-.64h.017zm75.661 147.546a16.962 16.962 0 01-7.431-2.4c-2.958-1.833-10.87-7.988-13.282-9.355a30.61 30.61 0 00-8.67-3.268l-.246-14.382c2.66.363 5.27 1.025 7.782 1.974 3.918 1.537 9.843 8.515 15.274 10.336 3.521 1.192 10.454.701 10.454.701l-3.881 16.394z" fill="#A7E351"/><path d="M81.213 155.555l.259.073c.048 0 4.763 1.37 7.2 2.753 1.715.973 4.524 2.972 7.24 4.906 2.06 1.468 4.006 2.838 5.423 3.759 4.536 2.899 7.369 2.838 7.491 2.838h.271l3.557-13.843-.497.029c-.053 0-5.193.283-7.953-.605-3.675-1.188-6.338-3.503-8.903-5.741-1.842-1.602-3.582-3.114-5.666-4.254a27.807 27.807 0 00-5.86-2.384 17.542 17.542 0 00-2.473-.527l-.405-.049.316 13.045zm22.769.604c1.639.531 3.998.669 5.767.685a1.87 1.87 0 00.028 1.306c.405.636 1.044.584 1.554.101l-2.307 8.994-.056-.045c-1.077-.811-2.222.576-1.967 1.666l-.093-.024a19.193 19.193 0 01-5.181-2.412c-1.404-.897-3.339-2.275-5.395-3.735l-.704-.503c1.247.146 2.603-.567 3.323-2.911.668-2.161.06-4.59-.862-6.293a19.889 19.889 0 005.893 3.171zm-14.704-10.048c2.024 1.103 3.724 2.591 5.533 4.164.174.146.344.296.514.446a3.926 3.926 0 00-3.687 2.985c-.405 1.808-.542 4.265.81 6.24-1.316-.904-2.502-1.691-3.404-2.202-1.712-.973-4.42-1.902-6.03-2.433a.814.814 0 00.334-.857.813.813 0 00-.136-.294c-.223-.406-.81-.811-1.247-.531a.653.653 0 00-.056.048l-.223-9.062c.781 1.022 1.862.069 1.287-1.002a26.813 26.813 0 016.305 2.498z" fill="#fff"/><path d="M95.39 153.637l.206-.856.68.166-.202.831a3.079 3.079 0 011.538 1.022l-.6.84a2.664 2.664 0 00-1.181-.864l-.312 1.273c.704.406 1.473.876 1.214 1.967-.198.811-.886 1.374-1.99 1.249l-.207.847-.68-.166.202-.811a2.922 2.922 0 01-1.263-.811l.567-.856c.263.283.585.505.943.649l.316-1.293c-.704-.386-1.465-.868-1.215-1.943.203-.798.89-1.362 1.984-1.244zm-.862 1.411c-.065.267.097.462.36.644l.255-1.05a.56.56 0 00-.615.406zm.72 2.124l-.263 1.079a.59.59 0 00.64-.438c.064-.268-.114-.462-.377-.641zM80.788 53.633c-2.59.065-7.342-.037-11.83-2.1-5.564-2.555-7.972-6.229-7.972-6.229L59.77 58.965c3.238 7.647 16.104 8.179 22.101 8.316-1.59-6.617-1.999-9.703-1.084-13.648z" fill="#A7E351"/><path d="M78.749 62.147c.982-2.423-.287-5.228-2.834-6.264-2.547-1.037-5.408.088-6.39 2.511-.983 2.424.286 5.229 2.833 6.265 2.548 1.036 5.409-.088 6.391-2.512z" fill="#fff"/><path d="M73.511 57.85v-.738h.587v.718c.53.016 1.042.192 1.469.506l-.312.811a2.248 2.248 0 00-1.145-.454v1.103c.656.17 1.384.406 1.396 1.346 0 .698-.433 1.306-1.36 1.436v.734h-.586v-.722a2.425 2.425 0 01-1.194-.406l.283-.81c.273.174.581.288.903.332v-1.123c-.652-.163-1.372-.406-1.385-1.326-.012-.67.425-1.273 1.344-1.407zm-.405 1.33c0 .23.174.352.43.45v-.908c-.284.073-.434.247-.43.478v-.02zm1.028 1.577v.937a.494.494 0 00.425-.495c.012-.231-.162-.353-.425-.442z" fill="#A7E351"/><path d="M81.516 65.737a48.39 48.39 0 01-8.956-.552c-4.723-.628-7.637-2.234-9.252-3.47a11.98 11.98 0 01-1.214-1.047 3.013 3.013 0 00-1.008-3.268l.571-7.068c.296.154.77.215 1.291-.454 3.238 2.993 8.171 4.258 11.13 4.769a46.18 46.18 0 006.41.405l.126-.722a45.962 45.962 0 01-6.39-.36c-3.433-.593-9.604-2.218-12.377-6.46l-.534-.81-1.012 12.679.04.085c.11.206 2.753 5.121 12.142 6.374 3.02.46 6.074.647 9.126.555l-.093-.656z" fill="#fff"/></g><defs><clipPath id="clip0"><path fill="#fff" d="M0 0h190.443v182H0z"/></clipPath></defs></svg>