<svg width="126" height="206" fill="none" xmlns="http://www.w3.org/2000/svg"><path d="M115.147 72.746l5.689-7.021-5.689 7.02z" fill="#fff"/><path d="M120.813 65.725a42.298 42.298 0 01-2.752 3.587 42.844 42.844 0 01-2.937 3.434 42.942 42.942 0 012.752-3.583 43.577 43.577 0 012.937-3.438zM22.567 0a23.868 23.868 0 01-2.622 2.232 24.133 24.133 0 01-2.784 2.042 23.879 23.879 0 012.622-2.232A24.8 24.8 0 0122.567 0z" fill="#E0E0E0"/><path d="M22.53 34.391l-5.569-4.506 5.569 4.506z" fill="#fff"/><path d="M16.97 29.885c1 .655 1.956 1.376 2.86 2.158.952.72 1.854 1.505 2.7 2.348a26.31 26.31 0 01-2.859-2.148 26.175 26.175 0 01-2.7-2.358z" fill="#E0E0E0"/><path d="M75.61 23.848a13.629 13.629 0 001.716-6.636A13.459 13.459 0 0063.943 3.671c-1.202 0-2.398.164-3.555.487a13.583 13.583 0 010 26.104 13.253 13.253 0 0010.65-1.569l6.288 2.436-1.717-7.28z" fill="#EBEBEB"/><path d="M18.622 183.062l.376 11.546 2.933 9.049a1.185 1.185 0 01-.088.939 1.181 1.181 0 01-1.306.58 1.167 1.167 0 01-.5-.252c-1.855-1.591-8.645-7.476-8.626-8.32 0-.979-1.211-12.154-1.211-12.154l8.422-1.388z" fill="#1C75BB"/><path d="M21.115 205.17l-9.746-9.346.028.487c.022.424.195.826.487 1.133.78.821 2.984 3.039 8.126 7.485a1.182 1.182 0 001.09.241h.015z" fill="#E0E0E0"/><path d="M13.546 191.972a.712.712 0 01.245.929.685.685 0 01-.928.25.75.75 0 01-.26-.979.722.722 0 01.98-.158" fill="#fff"/><path d="M18.195 200.279c.066.028.293-.589.961-.956a3.6 3.6 0 011.313-.325c0-.032-.139-.111-.413-.134a1.883 1.883 0 00-1.022.24 1.882 1.882 0 00-.736.748c-.14.246-.14.418-.102.427zm.891 1.499c.32-.205.651-.389.994-.552a9.874 9.874 0 011.118-.209 1.324 1.324 0 00-1.207-.033c-.65.237-.951.766-.905.794zm-2.533-3.402c.471-.351.966-.67 1.48-.956a11.53 11.53 0 011.69-.491 2.613 2.613 0 00-1.797.259 2.676 2.676 0 00-1.373 1.188zm-.409-3.494c.037.07.66-.232 1.485-.311.826-.079 1.5.088 1.518 0a2.263 2.263 0 00-1.54-.264 2.32 2.32 0 00-1.463.575zm-.194-3.388a5.639 5.639 0 011.535-.362 5.57 5.57 0 011.55.297s-.116-.162-.39-.301a2.57 2.57 0 00-2.32.051c-.264.148-.394.292-.375.315zm1.48-1.006a1 1 0 000-.437 3.036 3.036 0 00-.409-1.123 1.363 1.363 0 00-.612-.612.46.46 0 00-.53.134.753.753 0 00-.152.534 1.66 1.66 0 001.55 1.462 1.945 1.945 0 001.856-1.119.674.674 0 000-.561.462.462 0 00-.501-.218 1.64 1.64 0 00-.738.436 3.37 3.37 0 00-.738.928c-.08.124-.132.263-.153.409a5.367 5.367 0 011.007-1.216c.186-.172.41-.296.654-.362a.253.253 0 01.274.116.458.458 0 010 .371 1.747 1.747 0 01-1.615.951 1.448 1.448 0 01-1.332-1.225.545.545 0 01.093-.376.257.257 0 01.131-.087.255.255 0 01.157.008c.224.11.409.287.529.506.262.459.44.96.529 1.481z" fill="#263238"/><path d="M41.12 184.779l-.598 8.632s8.58 3.508 8.622 5.105l-16.785-.562.38-13.49 8.381.315z" fill="#1C75BB"/><path d="M35.357 192.511a.697.697 0 00-.492.761.663.663 0 00.756.501.723.723 0 00.524-.817.671.671 0 00-.84-.431m-2.946 5.443l.093-1.36 16.06 1.045s.734.352.632.877l-16.785-.562z" fill="#E0E0E0"/><path d="M40.8 193.337c0 .083-.418.106-.83.357-.414.251-.636.585-.71.552-.075-.032.06-.506.565-.798.506-.292.993-.176.975-.111zm1.736.784c0 .083-.344.209-.636.548-.293.338-.38.7-.464.696-.084-.005-.116-.464.25-.887.367-.422.85-.431.85-.357zm.928 2.144c-.075 0-.177-.399.05-.84.228-.441.613-.608.646-.538.032.069-.21.301-.39.663-.181.362-.223.71-.306.715zm-2.748-4.91c-.037.07-.408-.056-.872-.037-.464.019-.83.149-.872.079-.042-.07.315-.353.863-.367.547-.014.923.26.881.325zm.089-1.745a1.582 1.582 0 01-.836-.051 3.957 3.957 0 01-.872-.301 4.603 4.603 0 01-.464-.27 1.064 1.064 0 01-.246-.208.354.354 0 01-.023-.437.46.46 0 01.366-.176 1 1 0 01.311.056 2.907 2.907 0 011.276.728c.376.376.502.687.464.701-.037.014-.222-.237-.608-.548a3.595 3.595 0 00-.733-.464 3.627 3.627 0 00-.464-.162c-.176-.051-.33-.06-.376 0-.046.06 0 .042 0 .093a.79.79 0 00.181.153c.141.097.287.187.437.269.257.135.526.249.802.339.269.071.531.164.785.278z" fill="#263238"/><path d="M40.693 189.722a1.357 1.357 0 01-.195-.817 2.785 2.785 0 01.376-1.42.712.712 0 01.552-.408.388.388 0 01.344.246c.04.099.065.204.074.311.03.187.03.378 0 .566a1.935 1.935 0 01-.385.858c-.344.423-.687.511-.696.464-.01-.046.264-.19.534-.603a1.98 1.98 0 00.292-.78c.02-.161.02-.325 0-.487 0-.176-.084-.325-.153-.306a.611.611 0 00-.302.264c-.09.147-.165.302-.223.464a2.9 2.9 0 00-.19.831c-.06.497.019.808-.028.817zM6.613 99.555L9.09 192.39l13.244-.399L25.49 96.39 6.614 99.555z" fill="#263238"/><path d="M34.136 96.232s9.829 39.357 10.13 46.068c.302 6.71-2.102 48.652-2.102 48.652H29.198l1.086-47.766-9.847-40.406 2.362-6.339 11.337-.209z" fill="#263238"/><path d="M26.136 101.068a.513.513 0 010 .125v.367c0 .343-.028.816-.051 1.392-.056 1.248-.14 3.016-.242 5.197-.222 4.404-.533 10.46-.877 17.147-.343 6.687-.705 12.743-.928 17.147-.134 2.177-.241 3.949-.315 5.193l-.098 1.415c0 .149 0 .27-.032.367a.593.593 0 010 .125.601.601 0 010-.13v-.366c0-.339.032-.812.055-1.392.056-1.249.14-3.021.237-5.198.227-4.408.538-10.464.877-17.17.339-6.706.705-12.743.951-17.17.13-2.177.237-3.949.316-5.193l.097-1.392c0-.153 0-.274.033-.367a.334.334 0 01-.023-.097z" fill="#28A8DF"/><path d="M24.679 45.77s4.812 23.871 4.882 30.596c.07 6.724 2.431 19.866 2.431 19.866H11.156l-.464-36.368-1.485-10.845 3.128-4.465 12.344 1.216z" fill="#F5F5F5"/><path d="M24.934 46.476s4.97 1.457 6.283 3.294c1.035 1.453 2.436 28.911 2.436 28.911l2.14 24.183-2.084-.195-2.942-9.054-5.833-47.14z" fill="#1C75BB"/><path d="M31.217 49.77L45.25 62.648l17.268-5.592 3.439 7.249-18.428 8.353c-2.632 1.123-4.284.506-6.112-.956l-9.662-7.736-.538-14.196z" fill="#1C75BB"/><path d="M59.307 59.367a.378.378 0 11-.669.353.372.372 0 01.154-.51.386.386 0 01.515.157z" fill="#263238"/><path d="M58.996 59.933a.319.319 0 01-.116 0 .4.4 0 01-.232-.185.413.413 0 01-.028-.297.38.38 0 01.19-.233.367.367 0 01.297-.027.38.38 0 01.19.6.366.366 0 01-.12.096.361.361 0 01-.181.046zm0-.756a.39.39 0 00-.172.041.376.376 0 00-.19.36.36.36 0 00.042.137.353.353 0 00.218.181.367.367 0 00.278-.028.377.377 0 00.177-.218.368.368 0 00-.353-.464v-.01zm1.754-.157a.377.377 0 11-.664.356.372.372 0 01.154-.51.38.38 0 01.51.153z" fill="#263238"/><path d="M60.42 59.59a.319.319 0 01-.116 0 .4.4 0 01-.232-.186.395.395 0 01.46-.561c.098.031.181.1.232.19a.394.394 0 01-.162.529.361.361 0 01-.182.028zm0-.757a.39.39 0 00-.171.042.372.372 0 00.07.678.385.385 0 00.278-.028.367.367 0 00.148-.497.352.352 0 00-.33-.195h.005zm1.708-.088a.372.372 0 01-.153.51.385.385 0 01-.515-.157.378.378 0 01.668-.353z" fill="#263238"/><path d="M61.78 59.312a.319.319 0 01-.116 0 .38.38 0 01-.19-.6.367.367 0 01.12-.097.39.39 0 01.53.158.395.395 0 01-.163.53.362.362 0 01-.18.009zm0-.757a.39.39 0 00-.172.042.375.375 0 00-.176.218c-.014.046-.019.094-.014.142a.362.362 0 00.042.136.362.362 0 00.216.182.362.362 0 00.28-.029.367.367 0 00.149-.496.363.363 0 00-.325-.195z" fill="#263238"/><path d="M62.69 57.418l1.336-.492 3.068 6.46-1.304.557-3.1-6.525z" fill="#E0E0E0"/><path d="M31.667 54.861c.047.237.074.478.08.72.05.51.12 1.17.203 1.967.19 1.703.464 3.977.734 6.497.269 2.52.505 4.836.607 6.497.056.835.08 1.513.084 1.981.025.243.025.487 0 .729a4.45 4.45 0 01-.07-.724 79.208 79.208 0 00-.162-1.972 331.85 331.85 0 00-.678-6.497c-.283-2.543-.529-4.83-.663-6.497a46.297 46.297 0 01-.126-1.977 3.719 3.719 0 01-.009-.724z" fill="#263238"/><path d="M34.735 58.082a26.989 26.989 0 01-.882 3.462 26.915 26.915 0 01-1.11 3.392c.215-1.172.508-2.329.878-3.462a25.602 25.602 0 011.114-3.392zm10.367 8.919a1.555 1.555 0 01-.311-.617 4.432 4.432 0 01.204-3.249c.19-.385.362-.589.385-.57a8.57 8.57 0 00-.557 2.195c-.004.756.09 1.51.279 2.241z" fill="#263238"/><path d="M43.496 81.916l1.796.14-.71 7.494-1.736-.2.65-7.434z" fill="#E0E0E0"/><path d="M12.353 45.074L2.668 51.27a6.284 6.284 0 00-2.343 7.133L7.75 81.74l-2.678 21.207 21.226-.9-.52-9.281-1.8-16.632a33.013 33.013 0 00-2.279-8.975l-9.346-22.085z" fill="#1C75BB"/><path d="M2.237 59.664L11.92 79.93a6.004 6.004 0 004.029 3.248l26.878 6.367.687-7.829-20.516-7.708-10.321-19.81a5.897 5.897 0 00-8.27-2.321 5.898 5.898 0 00-2.171 7.787z" fill="#1C75BB"/><path d="M43.515 81.72a.363.363 0 01-.112-.027l-.315-.107-1.216-.436-4.502-1.657-15.17-5.67h-.041l-.024-.042c-.57-1.137-1.174-2.32-1.786-3.54a261.27 261.27 0 00-4.924-9.143 335.617 335.617 0 00-2.255-3.935l-1.044-1.787a15.361 15.361 0 00-.51-.816 6.85 6.85 0 00-.548-.734 6.451 6.451 0 00-2.58-1.856 5.825 5.825 0 00-2.381-.427 4.287 4.287 0 00-1.996.534l.112-.08a1.81 1.81 0 01.357-.194 4.14 4.14 0 011.522-.353 5.829 5.829 0 012.432.395 6.9 6.9 0 013.248 2.631c.186.26.358.538.52.821l1.053 1.764a321.842 321.842 0 012.279 3.926 276.246 276.246 0 014.947 9.142c.617 1.21 1.22 2.404 1.782 3.545l-.065-.06 15.142 5.745 4.474 1.726 1.202.464.31.13.089.042zm-4.567 4.883a.38.38 0 11-.762 0 .38.38 0 01.762 0z" fill="#263238"/><path d="M38.577 87.002a.394.394 0 11-.01-.788.394.394 0 01.01.788zm0-.761a.372.372 0 10.367.371.366.366 0 00-.367-.38v.009zm1.81.761a.38.38 0 11-.762 0 .38.38 0 01.762 0z" fill="#263238"/><path d="M40.006 87.368a.39.39 0 110-.78.39.39 0 010 .78zm0-.756a.367.367 0 100 .733.367.367 0 000-.733zm1.346 1.151a.38.38 0 100-.761.38.38 0 000 .761z" fill="#263238"/><path d="M41.361 87.772a.39.39 0 110-.78.39.39 0 010 .78zm0-.756a.366.366 0 100 .733.366.366 0 000-.733zm1.467 2.534l-.13-.024-.376-.083-1.448-.348-5.318-1.309c-4.487-1.1-10.673-2.659-17.55-4.25-.86-.205-1.709-.367-2.548-.595a5.568 5.568 0 01-2.32-1.146 6.62 6.62 0 01-1.393-2.042l-1.011-2.116-3.472-7.341-2.32-4.956-.617-1.35-.158-.354a.755.755 0 01-.046-.125s.027.037.07.112l.176.348.663 1.331c.571 1.18 1.392 2.854 2.395 4.924l3.522 7.314c.33.687.673 1.392 1.016 2.111a6.56 6.56 0 001.36 1.968 5.35 5.35 0 002.204 1.09c.822.223 1.68.386 2.539.594 6.872 1.592 13.058 3.175 17.536 4.32l5.3 1.393 1.434.39.371.106c.042.008.082.02.12.038zM21.12 88.278s-.103.111-.321.27c-.218.157-.53.389-.928.654a14.891 14.891 0 01-3.341 1.735 7.577 7.577 0 01-3.74.376 5.104 5.104 0 01-1.105-.316 1.392 1.392 0 01-.367-.2c.492.143.99.26 1.494.349a8.126 8.126 0 003.639-.436 17.85 17.85 0 003.327-1.652c.43-.289.878-.549 1.341-.78zm1.178 2.692c.03.055.051.114.065.176.053.17.095.344.125.52a5.813 5.813 0 010 1.967 6.033 6.033 0 01-1.206 2.655 5.954 5.954 0 01-6.553 1.856 6.032 6.032 0 01-2.409-1.648 5.703 5.703 0 01-1.039-1.675 5.277 5.277 0 01-.162-.506c-.028-.12-.042-.185-.033-.185.307.83.768 1.593 1.36 2.25a6.033 6.033 0 002.357 1.555 5.815 5.815 0 006.302-1.763 5.963 5.963 0 001.211-2.548 7.072 7.072 0 00-.018-2.654z" fill="#263238"/><path d="M13.397 26.6l.06 17.29a5.142 5.142 0 005.416 5.105 5.151 5.151 0 004.854-5.15v-2.52s4.4-.432 4.701-4.79c.149-2.106.093-6.468 0-10.413a8.13 8.13 0 00-7.67-7.93h-.423c-4.534-.01-7.072 3.842-6.938 8.408z" fill="#FFBE9D"/><path d="M23.755 41.264a10.125 10.125 0 01-5.569-1.94s1.165 3.216 5.537 3.072l.032-1.132z" fill="#AA6550"/><path d="M27.37 28.688a.622.622 0 01-.64.594.596.596 0 01-.608-.599.627.627 0 01.635-.594.605.605 0 01.613.6zm.12-.733c-.078.074-.533-.302-1.201-.339-.669-.037-1.184.274-1.249.186-.065-.088.052-.181.274-.325.302-.185.654-.27 1.007-.246.34.022.665.15.928.366.223.172.283.32.242.358zm-6.635.682a.622.622 0 01-.636.594.594.594 0 01-.608-.599.622.622 0 01.636-.594.593.593 0 01.608.599zm-.033-.835c-.083.079-.533-.302-1.206-.334-.673-.033-1.179.269-1.249.18-.07-.088.056-.176.279-.32a1.712 1.712 0 011.958.116c.195.158.255.325.218.358zm2.121 5.267a4.75 4.75 0 011.1-.135c.171 0 .338-.032.37-.148a.88.88 0 00-.083-.51 161.45 161.45 0 01-.431-1.333c-.599-1.898-1.021-3.452-.928-3.476.093-.023.608 1.495 1.22 3.384.14.464.279.928.409 1.336a.984.984 0 01.05.678.432.432 0 01-.296.232c-.097.02-.195.029-.293.027a4.19 4.19 0 01-1.118-.055zm-1.852-6.659c-.079.18-.742.055-1.531.106-.789.051-1.443.228-1.536.056-.042-.08.079-.246.343-.404a2.66 2.66 0 012.32-.125c.302.13.437.283.404.366zm6.349-.056c-.126.144-.58-.037-1.133-.079-.552-.042-1.03.046-1.132-.12-.042-.08.042-.228.255-.363.283-.157.606-.225.928-.195.326.024.636.15.887.358.195.167.246.33.195.399z" fill="#263238"/><path d="M13.569 29.848c-.075-.037-2.947-1.053-3.021 1.93-.075 2.985 2.937 2.446 2.947 2.363.009-.084.074-4.293.074-4.293z" fill="#FFBE9D"/><path d="M12.59 32.985s-.051.038-.14.075a.51.51 0 01-.39 0 1.286 1.286 0 01-.566-1.17 1.706 1.706 0 01.163-.738.594.594 0 01.403-.39.264.264 0 01.302.149c.037.083 0 .144.033.148.032.005.065-.046.046-.171a.352.352 0 00-.25-.26.383.383 0 00-.149-.014.732.732 0 00-.557.464 1.769 1.769 0 00-.2.826 1.346 1.346 0 00.73 1.309.544.544 0 00.463-.065c.112-.088.144-.158.112-.163z" fill="#AA6550"/><path d="M11.917 29.653a1.573 1.573 0 011.392.817c.167.436.186.928.353 1.36a1.054 1.054 0 001.044.766.928.928 0 00.668-.646c.08-.313.101-.639.06-.96-.092-1.392-.31-2.784-.282-4.205a7.178 7.178 0 011.109-4.004 3.936 3.936 0 013.6-1.764c.929.13 1.745.66 2.655.84a3.637 3.637 0 003.086-.835c.048-.038.097-.074.149-.107a.803.803 0 00.338-.928.733.733 0 00-.157-.292c-1.731-1.796-4.998-2.455-7.425-1.982a8.718 8.718 0 00-5.973 4.242c-1.165 2.204-1.04 5.364-.594 7.684m9.42 3.959c.112 0 .112.72.734 1.234.622.515 1.392.437 1.392.534 0 .098-.172.144-.501.153-.426.005-.84-.14-1.17-.408a1.578 1.578 0 01-.556-1.012c-.028-.33.055-.506.102-.501z" fill="#263238"/><path d="M63.06 58.151s3.272-2.872 3.89-3.081c.617-.209 5.568-.306 5.875-.056.306.25 5.318 2.98 4.492 3.397-.826.418-4.284-1.54-4.284-1.54l-.58.078s3.017 1.61 3.55 2.228c.534.617 0 1.258-.538.993-.538-.264-3.15-1.754-3.355-1.698-.204.055 2.757 1.79 3.03 2.111.367.432.13 1.267-.44 1.026-.335-.144-3.063-1.954-3.063-1.954a27.48 27.48 0 012.209 2.023c.24.464-.223.882-.701.59-.325-.2-1.731-1.578-2.167-1.857 0 0-.464-.032-1.193.724-.728.757-3.518 1.796-3.518 1.796l-3.206-4.78z" fill="#FFBE9D"/><path d="M77.303 58.42a2.53 2.53 0 01-1.058-.064 6.16 6.16 0 01-1.11-.334c-.384-.181-.807-.4-1.252-.622l-.928-.464h.065a15.22 15.22 0 01-2.534-.07 14.67 14.67 0 012.529-.181h.06l.928.464 1.235.636c.34.152.693.277 1.053.376.613.18 1.017.218 1.012.26z" fill="#AA6550"/><path d="M64.277 58.982a1.118 1.118 0 001.23.427c.463-.097.867-.348 1.313-.464 1.34-.385 2.83.33 4.148-.12.186-.061.39-.2.372-.39-.019-.19-.223-.27-.395-.325l-4.4-1.392" fill="#FFBE9D"/><path d="M66.546 56.694c.167.016.332.05.492.102.31.084.756.214 1.309.376l1.93.585.557.172c.176.07.431.083.599.357a.395.395 0 01-.07.431.785.785 0 01-.316.205 2.97 2.97 0 01-.668.148c-.83.015-1.66-.03-2.483-.135a3.521 3.521 0 00-1.034.098c-.311.088-.6.223-.873.32a1.626 1.626 0 01-1.392 0c-.297-.176-.343-.385-.334-.385.107.12.236.22.38.292a1.563 1.563 0 001.263-.093c.287-.134.581-.253.881-.357a3.554 3.554 0 011.105-.13 20.59 20.59 0 002.445.116c.204-.022.405-.067.599-.134.18-.065.306-.195.25-.279-.055-.083-.25-.167-.464-.227l-.556-.181-1.89-.627a24.241 24.241 0 01-1.284-.464 1.856 1.856 0 01-.446-.19z" fill="#AA6550"/><path d="M44.484 82.097l5.425-.534s7.175 4.91 6.497 5.991c-.677 1.081-1.856 0-1.856 0s1.28 1.573-.784 2.065c0 0-.492 1.081-1.277.984h-.491s-.465 1.369-1.11 1.077c-.645-.293-2.663-2.066-2.663-2.066l-5.569-.492 1.828-7.025z" fill="#FFBE9D"/><path d="M47.858 87.693s-1.392.534-1.675 1.091c-.283.557-.464 1.856.436 2.111.528.037 1.058.02 1.583-.05l-.344-1.458c.259-.302.535-.588.826-.858.297-.246-.027-1.207-.826-.836z" fill="#FFBE9D"/><path d="M49.422 88.436s-1.392.533-1.675 1.09a1.22 1.22 0 00.798 1.731c.478.038.96.023 1.434-.046l-.148-.283c-.279-.548-.4-.993.092-1.36.028 0 .307-.278.325-.297a.603.603 0 00-.826-.835z" fill="#FFBE9D"/><path d="M49.756 91.179a.817.817 0 01-.111-.956c.183-.299.476-.512.817-.594a.607.607 0 01.63.102.531.531 0 01.093.417c-.09.381-.278.732-.547 1.017-.13.162-.288.338-.497.334-.208-.005-.362-.2-.464-.371" fill="#FFBE9D"/><path d="M20.437 47.422l1.216-.464 1.058 1.889-.59 2.019-1.243.306-1.24-1.564.8-2.186z" fill="#1C75BB"/><path d="M20.878 51.172s1.582 8.683 2.896 14.79c0 0 1.08 5.104 1.517 6.26a17.171 17.171 0 001.991 3.248l1.527.59-.928-8.58-5.755-16.633-1.248.325z" fill="#1C75BB"/><path opacity=".4" d="M20.437 47.422l1.216-.464 1.058 1.889-.59 2.018-1.243.307-1.24-1.564.8-2.186z" fill="#000"/><path opacity=".4" d="M20.878 51.172s1.582 8.683 2.896 14.79c0 0 1.239 5.04 1.517 6.26.163.714 1.991 3.248 1.991 3.248l1.527.59-.928-8.58-5.755-16.633-1.248.325z" fill="#000"/><path d="M13.114 42.146l7.323 5.276-1.582 4.353-6.664-6.859.923-2.77zm8.539 4.812l2.046-4.561 1.16 3.763-1.61 3.958-1.596-3.16z" fill="#F5F5F5"/><path d="M20.437 47.422a1.431 1.431 0 01-.084.335c-.083.25-.18.552-.297.928-.26.775-.64 1.856-1.1 3.146l-.06.176-.13-.139-1.703-1.884a277.652 277.652 0 01-3.369-3.791l-1.002-1.17a2.65 2.65 0 01-.344-.464c.151.116.29.246.413.39l1.059 1.114c.886.928 2.097 2.273 3.42 3.745.598.668 1.169 1.308 1.698 1.893l-.19.037a150.14 150.14 0 011.178-3.114l.358-.89a1.12 1.12 0 01.153-.312zm4.423-1.257a5.396 5.396 0 01-.344 1.067 89.24 89.24 0 01-.984 2.515l-.171.418-.121.297-.102-.302a20.772 20.772 0 00-1.462-2.997c.244.218.451.475.613.76.444.674.805 1.399 1.076 2.158h-.227c.055-.134.116-.278.171-.422.4-.974.77-1.856 1.05-2.487.127-.354.295-.692.5-1.007z" fill="#263238"/><path d="M117.932 183.573l2.821 11.203 4.784 8.241a1.187 1.187 0 01-.496 1.662 1.182 1.182 0 01-1.081 0c-2.154-1.16-10.043-5.467-10.21-6.298-.185-.965-3.763-11.624-3.763-11.624l7.945-3.184z" fill="#1C75BB"/><path opacity=".6" d="M125.041 204.655l-11.49-7.068.13.464c.111.409.365.764.714 1.003.928.636 3.564 2.32 9.528 5.569a1.196 1.196 0 001.118 0v.032zm-10.2-11.295a.718.718 0 01.464.849.69.69 0 01-.84.464.747.747 0 01-.464-.9.713.713 0 01.928-.362" fill="#fff"/><path d="M121.152 200.493c.167-.424.417-.81.733-1.137.363-.277.776-.48 1.216-.599 0-.032-.162-.079-.432-.046a1.894 1.894 0 00-.928.464 1.853 1.853 0 00-.561.891c-.088.255-.061.422-.028.427zm1.202 1.271c.069.033.325-.427.854-.752.34-.168.69-.315 1.049-.44a1.323 1.323 0 00-1.184.222c-.598.367-.784.956-.719.97zm-3.207-2.775a10.98 10.98 0 011.239-1.248c.494-.32 1.01-.602 1.546-.845a2.619 2.619 0 00-1.699.64 2.59 2.59 0 00-1.086 1.453zm-1.146-3.336c.051.06.594-.367 1.392-.618.798-.25 1.481-.232 1.485-.311a2.323 2.323 0 00-1.564.07c-.525.123-.99.427-1.313.859zm-.91-3.267a5.77 5.77 0 011.425-.683 5.714 5.714 0 011.578-.037c0-.028-.149-.134-.464-.213a2.581 2.581 0 00-2.256.543c-.213.204-.306.371-.283.39zm1.23-1.3a.988.988 0 00-.097-.427 3.154 3.154 0 00-.641-1.011 1.358 1.358 0 00-.728-.464.465.465 0 00-.488.246.764.764 0 00-.037.552 1.672 1.672 0 001.824 1.1 1.949 1.949 0 001.569-1.485.677.677 0 00-.121-.548.467.467 0 00-.534-.111 1.694 1.694 0 00-.631.584c-.235.326-.411.69-.52 1.077a1.077 1.077 0 00-.065.432c.173-.498.419-.967.729-1.393.144-.207.337-.376.561-.491a.241.241 0 01.293.055.473.473 0 01.056.367 1.737 1.737 0 01-1.393 1.271 1.448 1.448 0 01-1.564-.928.578.578 0 010-.385.262.262 0 01.27-.139 1.2 1.2 0 01.621.385c.376.38.679.825.896 1.313z" fill="#263238"/><path d="M82.932 185.666l.598 8.636s-8.575 3.508-8.622 5.105l16.785-.566-.376-13.458-8.385.283z" fill="#1C75BB"/><path d="M88.695 193.402a.685.685 0 01.502.766.658.658 0 01-.757.501.72.72 0 01-.524-.812.683.683 0 01.844-.437m2.933 5.42l-.088-1.355-16.06 1.044s-.739.349-.637.873l16.785-.562z" fill="#E0E0E0"/><path d="M83.257 194.223c0 .083.417.107.826.357.408.251.64.585.715.552.074-.032-.065-.505-.567-.798-.5-.292-.993-.185-.974-.111zm-1.736.789c0 .079.344.204.631.543.288.339.385.701.464.696.08-.004.121-.464-.25-.886-.371-.423-.845-.432-.845-.353zm-.933 2.139c.08 0 .177-.399-.046-.84-.223-.441-.617-.608-.65-.538-.032.07.214.302.395.668.18.367.222.706.301.71zm2.752-4.91c.037.075.409-.051.873-.037.464.014.83.149.868.079.037-.07-.316-.353-.864-.362-.547-.009-.923.255-.877.32zm-.088-1.753c.278.065.568.054.84-.033a3.808 3.808 0 001.332-.571c.094-.056.178-.127.25-.208a.36.36 0 00.024-.437.46.46 0 00-.367-.176 1.029 1.029 0 00-.315.056 3.18 3.18 0 00-.516.195 3.045 3.045 0 00-.756.533c-.38.376-.501.687-.464.701.037.014.218-.237.603-.548.225-.185.473-.341.738-.464.15-.068.305-.124.464-.167.177-.051.325-.06.376 0 .051.061 0 .042 0 .098a.932.932 0 01-.186.148c-.14.098-.285.188-.436.269a4.726 4.726 0 01-.798.339c-.27.066-.534.155-.789.265z" fill="#263238"/><path d="M83.359 190.608c.032 0 .185-.288.195-.817a2.785 2.785 0 00-.144-.928 2.716 2.716 0 00-.232-.501.697.697 0 00-.548-.408.388.388 0 00-.343.246 1.096 1.096 0 00-.08.31 1.91 1.91 0 000 .567c.058.314.192.608.39.858.344.422.688.511.692.464.005-.046-.264-.19-.529-.598a1.967 1.967 0 01-.292-.785 1.712 1.712 0 010-.487c0-.176.083-.325.148-.306a.637.637 0 01.307.264c.086.149.16.304.222.464.104.266.168.546.19.831.056.506-.018.817.024.826z" fill="#263238"/><path d="M78.352 91.726l2.7 100.493 13.24-.395-1.016-86.255 16.873 88.65 11.959-3.119-15.439-99.183-28.317-.19z" fill="#263238"/><path d="M85.61 192.344c-.07 0-.121-20.832-.121-46.522 0-25.691.051-46.527.12-46.527.07 0 .121 20.827.121 46.527 0 25.699-.055 46.522-.12 46.522zm28.316 1.856c-.065 0-3.155-19.955-6.905-44.606-3.749-24.651-6.724-44.647-6.673-44.656.051-.01 3.16 19.954 6.91 44.61 3.75 24.655 6.738 44.652 6.668 44.652z" fill="#28A8DF"/><path d="M97.327 28.883a20.55 20.55 0 001.119-3.202c.157-.83.408-2.084.074-2.863-.334-.78-1.146-1.527-2.167-1.318a4.868 4.868 0 00-2.808-3.8 12.474 12.474 0 00-4.64-1.207 4.02 4.02 0 00-1.745.218 2.233 2.233 0 00-1.044 1.146 3.834 3.834 0 00-3.411-.547c-1.281.348-2.738 1.034-3.3 2.236a3.74 3.74 0 00-.097 2.831c.246.78 1.072 2.005 1.856 1.717" fill="#263238"/><path d="M90.872 50.555a5.73 5.73 0 01-5.606-6.033c.079-1.606.153-2.9.153-2.9s-4.371-.567-4.534-4.915c-.162-4.348.344-14.363.344-14.363a15.13 15.13 0 0115.244 1.546l.654.464-.403 20.567a5.733 5.733 0 01-5.852 5.634z" fill="#FFBE9D"/><path d="M85.41 41.58a10.145 10.145 0 005.634-1.755s-1.341 3.374-5.694 3.091l.06-1.336z" fill="#EB996E"/><path d="M96.705 28.892c.075-.032 2.97-.96 2.947 2.019-.023 2.98-3.002 2.343-3.007 2.255-.005-.088.06-4.274.06-4.274z" fill="#FFBE9D"/><path d="M97.559 32.048s.056.037.14.075a.52.52 0 00.39 0 1.29 1.29 0 00.602-1.151 1.67 1.67 0 00-.144-.743.589.589 0 00-.385-.399.265.265 0 00-.306.14c-.042.083-.023.143-.037.148-.014.004-.065-.051-.042-.177a.37.37 0 01.12-.185.39.39 0 01.288-.07.724.724 0 01.539.464c.125.258.184.544.171.83a1.346 1.346 0 01-.765 1.282.571.571 0 01-.464-.084c-.102-.06-.116-.125-.107-.13z" fill="#EB996E"/><path d="M82.356 29.157a.626.626 0 00.618.613.594.594 0 00.617-.576.621.621 0 00-.617-.612.599.599 0 00-.618.575zm-.157-.692c.079.08.543-.283 1.21-.297.67-.014 1.17.307 1.24.223.07-.083-.046-.18-.265-.334a1.754 1.754 0 00-.993-.278 1.634 1.634 0 00-.96.338c-.2.163-.265.311-.232.348zm6.711.687a.626.626 0 00.616.613.598.598 0 00.627-.575.621.621 0 00-.613-.613.593.593 0 00-.63.575zm-.131-.728c.084.079.543-.283 1.211-.297.668-.014 1.17.306 1.24.223.069-.084-.047-.181-.265-.33a1.698 1.698 0 00-.993-.278 1.601 1.601 0 00-.961.334c-.204.162-.27.31-.232.348zm-2.302 5.021a4.342 4.342 0 00-1.09-.172c-.172 0-.334-.042-.367-.158a.927.927 0 01.102-.51 45.8 45.8 0 00.464-1.309c.655-1.856 1.124-3.406 1.05-3.434-.075-.028-.669 1.471-1.323 3.341l-.464 1.318a.989.989 0 00-.075.673.432.432 0 00.288.241.987.987 0 00.292.033c.374.041.752.034 1.123-.023zm1.982.413c-.112 0-.093.719-.7 1.253-.609.533-1.393.464-1.393.57 0 .107.176.14.506.14.424-.006.833-.16 1.155-.436.31-.269.505-.646.543-1.054.024-.302-.06-.478-.111-.473zm.084-8.052c.07.181.737.08 1.522.153.784.075 1.429.274 1.526.107.047-.079-.07-.246-.33-.418a2.648 2.648 0 00-2.32-.194c-.287.12-.426.292-.398.352zm-6.14.715c.12.149.575 0 1.132-.042.557-.041 1.026.08 1.128-.083.046-.08-.033-.228-.242-.367a1.629 1.629 0 00-1.819.102c-.195.158-.255.32-.2.39z" fill="#263238"/><path d="M97.36 24.716c-.028 1.267.292 2.673.097 3.926-.028.185-.501.7-.543.89-.227 1.11-.673 1.593-1.355.465-.264-.432-.464-1.643-.566-2.13l-.891-3.977a6.961 6.961 0 01-3.29.867 3.388 3.388 0 01-2.868-1.596 3.518 3.518 0 01-5.43.85 1.466 1.466 0 01-1.926.463 1.745 1.745 0 01-.756-1.902c.274-1.072 1.392-1.675 2.446-2.014 4.106-1.323 8.71-.464 12.483 1.61a6.295 6.295 0 011.531 1.09c.436.465 1.04.99 1.072 1.616" fill="#263238"/><path d="M94.232 24.354c.228 0 .456.035.673.107.227.098.437.233.621.399.214.186.423.427.678.663.236.245.525.432.845.548.27.077.556.077.826 0 .464-.125.64-.38.621-.394a6.176 6.176 0 01-.658.218c-.24.04-.485.02-.715-.056a2.188 2.188 0 01-.747-.496c-.242-.223-.464-.465-.696-.66a2.234 2.234 0 00-.715-.39c-.469-.125-.756.061-.733.061zm.496 1.313c0 .037.223 0 .464.21.142.129.27.273.38.43.153.212.345.39.567.525.406.264.894.373 1.374.306.357-.05.543-.185.529-.213-.014-.028-.219.032-.548.037a2.26 2.26 0 01-1.202-.325c-.427-.241-.64-.691-.979-.89-.339-.2-.585-.112-.585-.08zm-11.467-8.464a.71.71 0 00-.385.037 1.666 1.666 0 00-.835.631c-.534.747-.66 2.075-.246 3.355a4.72 4.72 0 002.135 2.622c.291.172.603.308.928.404.119.049.247.07.376.065a12.317 12.317 0 01-1.235-.622 4.827 4.827 0 01-1.981-2.548c-.395-1.215-.302-2.482.148-3.174.176-.277.427-.5.724-.64.237-.093.371-.107.371-.13zm-3.605 1.81c-.05.279-.038.566.037.84a5.23 5.23 0 002.204 3.313c.223.175.484.297.761.357a8.552 8.552 0 01-1.981-1.953c-.868-1.267-.938-2.576-1.021-2.557z" fill="#28A8DF"/><path d="M55.66 79.656l-6.368.325a1.504 1.504 0 00-1.434 1.526c.033 1.457.279 3.448 1.393 3.249l.724-3.17 5.308 4.673a3.833 3.833 0 001.903.928l1.244-.13-2.77-7.401z" fill="#FFBE9D"/><path d="M86.106 45.552l-3.327 1.1-1.652 27.64v24.511l20.432 2.265.237-35.352-1.318-17.597-3.123-3.731-11.249 1.164z" fill="#E0E0E0"/><path d="M85.08 46.875v-2.678l12.145-1.69-.487 6.168-2.79 4.84-4.561.256-3.295-2.038-1.011-4.858z" fill="#E0E0E0"/><path d="M86.171 46.564a3.141 3.141 0 01-.07-1.225 3.26 3.26 0 01.172-1.216c.104.4.127.816.07 1.225a3.25 3.25 0 01-.172 1.216zm3.035-.223a4.059 4.059 0 01-.042-1.369 3.842 3.842 0 01.205-1.35c.094.458.106.93.037 1.392.012.45-.055.9-.2 1.327zm2.938-.306a4.42 4.42 0 010-1.448 4.24 4.24 0 01.227-1.43c.077.48.077.969 0 1.449.002.485-.075.968-.227 1.429zm2.821-.465a3.289 3.289 0 01-.107-1.392 3.27 3.27 0 01.232-1.354c.061.452.061.911 0 1.364.021.464-.021.93-.125 1.383zm-1.35 11.686a1.859 1.859 0 01-.163.464c-.116.287-.297.696-.534 1.197a44.834 44.834 0 01-2.037 3.81 45.754 45.754 0 01-2.376 3.606 18.54 18.54 0 01-.789 1.044c-.09.133-.2.254-.325.357-.027 0 .362-.58.975-1.499a97.28 97.28 0 002.32-3.633 67.45 67.45 0 002.093-3.764c.249-.543.528-1.071.836-1.582z" fill="#263238"/><path d="M97.295 43.96l3.294 1.587 6.367 1.546a5.307 5.307 0 014.353 5.898l-3.336 25.987 3.981 25.199-15.778-.464-.928-9.374V68.352l2.047-24.392z" fill="#28A8DF"/><path d="M95.248 74.352a2.31 2.31 0 01.046-.325l.181-.928.701-3.35 2.409-11.036.765-3.439.033.107-1.095-1.146-.06-.06.046-.075 1.833-3.053v.088l-2.023-4.9-.548-1.393a3.334 3.334 0 01-.177-.496c.092.147.17.302.233.464.148.338.352.789.603 1.355l2.102 4.91v.05l-.028.042c-.561.928-1.17 1.973-1.814 3.068v-.14l1.095 1.142.046.042v.065a931.516 931.516 0 00-.76 3.443l-2.479 11.017c-.32 1.392-.585 2.515-.775 3.332-.093.371-.167.673-.223.905a1.625 1.625 0 01-.111.31z" fill="#263238"/><path d="M55.928 78.607l13.96-7.782 6.742-18.238a9.825 9.825 0 015.416-5.638l1.795-.747v48.03l.358 11.374-7.564-2.265 3.86-22.868-1.336-11.254-1.323 5.444a7.378 7.378 0 01-3.448 4.64l-14.53 7.55-3.93-8.246z" fill="#28A8DF"/><path d="M56.096 78.964l-1.175.348 3.304 7.88 1.541-.598-3.67-7.63z" fill="#E0E0E0"/><path d="M72.412 74.064a10.03 10.03 0 00-1.044-1.764c-.47-.5-.988-.954-1.546-1.355a3.908 3.908 0 012.59 3.119zM57.603 78.71c0 .032-.07.097-.078.231a.21.21 0 00.16.24.208.208 0 00.197-.347c-.079-.11-.181-.116-.186-.153-.004-.037.13-.102.306.028a.419.419 0 01.115.51.414.414 0 01-.76-.32c.08-.204.246-.218.246-.19zm1.124-.474c0 .032-.07.093-.075.227-.004.135.08.293.265.237a.2.2 0 00.093-.339c-.08-.111-.181-.12-.19-.153-.01-.032.13-.102.31.028a.413.413 0 11-.645.19c.08-.209.242-.241.242-.19zm25.133-3.142a1.468 1.468 0 01-.06-.297c-.033-.223-.08-.506-.13-.858-.107-.77-.25-1.857-.427-3.151-.344-2.692-.808-6.358-1.323-10.414a179.25 179.25 0 00-.209-1.698v-.061c.353-.895.697-1.763 1.021-2.594v.088l-1.007-2.32v-.07c.622-2.236 1.142-4.116 1.513-5.47.186-.637.334-1.152.441-1.532a3.82 3.82 0 01.181-.538 3.647 3.647 0 01-.116.556c-.093.386-.223.9-.385 1.546-.353 1.36-.845 3.248-1.425 5.49v-.07l1.026 2.292v.088c-.32.836-.66 1.704-1.007 2.6v-.061c.07.557.139 1.128.213 1.703.487 4.056.928 7.727 1.249 10.423.148 1.309.269 2.385.352 3.16l.084.863c.017.108.02.217.009.325zm-3.36 5.513a1.097 1.097 0 01-.046-.227c-.023-.176-.056-.395-.093-.654-.074-.608-.172-1.425-.297-2.418a594.407 594.407 0 00-1.011-7.968c-.418-3.11-.826-5.922-1.123-7.954l-.353-2.409-.084-.658a.74.74 0 010-.233c.027.074.048.15.06.228.033.176.08.39.13.65.107.561.256 1.392.427 2.394.344 2.028.78 4.84 1.198 7.95.417 3.109.738 5.935.928 7.981.102 1.026.176 1.856.223 2.427 0 .265.032.464.041.66a.735.735 0 010 .231zm-1.925 17.068c.087.145.195.276.32.39a1.472 1.472 0 001.276.288 2.152 2.152 0 001.392-1.36c.255-.808.386-1.65.39-2.496.1-.838.013-1.688-.255-2.488a4.535 4.535 0 00-1.267-1.6 6.085 6.085 0 01-.965-1.05 1.278 1.278 0 01-.228-.464s.098.158.302.418c.304.357.642.684 1.007.98a4.53 4.53 0 011.355 1.637c.297.829.397 1.715.292 2.59a8.215 8.215 0 01-.422 2.566 2.321 2.321 0 01-1.55 1.443 1.532 1.532 0 01-1.392-.385 1.015 1.015 0 01-.228-.325c-.028-.088-.037-.144-.028-.144zm-5.193-18.019s.464-5.323 4.677-5.815c.005 0 .084 4.344-4.677 5.815z" fill="#263238"/><path d="M95.977 99.587l12.274 8.028 1.392-1.109.655-17.991-11.69-8.86-1.606.553-1.025 19.38z" fill="#1C75BB"/><path d="M98.469 79.911l.482 19.477h-2.58l.863-19.092 1.235-.385z" fill="#E0E0E0"/><path d="M102.334 103.857a1.519 1.519 0 001.393.928c.032 0 .069.028.102.083a1.394 1.394 0 001.164.724 2.514 2.514 0 001.318-.376c.641-.394 1.782-2.956 1.782-2.956l2.706-6.032-4.548-1.23-5.787 1.8c0 .107-1.35 5.569-1.35 5.569a1.393 1.393 0 001.624-.863c.293-.66.634-1.298 1.021-1.907l.431 2.459-1.647.566a1.091 1.091 0 00.705 1.249l1.086-.014z" fill="#FFBE9D"/><path d="M104.376 61.525l7.578 13.945-6.167 18.312 6.854 3.86 8.715-20.385a5.76 5.76 0 00-.069-4.71L110.59 49.574l-6.214 11.95z" fill="#28A8DF"/><path d="M105.782 93.782l-.636 1.415 6.469 3.49.678-1.244-6.511-3.661z" fill="#E0E0E0"/><path d="M105.787 93.782v-.098c0-.065.046-.157.079-.269l.329-1.035c.302-.928.729-2.222 1.258-3.847 1.095-3.285 2.622-7.86 4.367-13.1v.097a250.927 250.927 0 01-2.706-4.715 191.217 191.217 0 01-4.515-8.515c-.65-1.337-1.253-2.608-1.764-3.824a7.632 7.632 0 01-.631-3.615 8.325 8.325 0 01.673-2.96 5.857 5.857 0 011.341-1.857 4.635 4.635 0 011.207-.798c.148-.072.304-.128.464-.167a5.277 5.277 0 00-1.62 1.035 5.738 5.738 0 00-1.276 1.856 8.273 8.273 0 00-.631 2.914 7.567 7.567 0 00.645 3.527 83.693 83.693 0 001.782 3.8c1.318 2.65 2.859 5.518 4.529 8.502.928 1.63 1.815 3.216 2.692 4.71l.028.052v.046c-1.782 5.23-3.332 9.796-4.451 13.077-.556 1.615-1.007 2.91-1.322 3.824-.158.432-.279.775-.367 1.021l-.102.264c.005.047-.009.075-.009.075z" fill="#263238"/><path d="M117.078 75.34a4.996 4.996 0 01-.748-.26 5.323 5.323 0 00-3.684.112 5.479 5.479 0 01-.729.31c.18-.204.406-.363.659-.463a4.502 4.502 0 011.894-.465c.656-.02 1.31.1 1.916.353.258.086.494.227.692.413zm-14.219-17.138l5.443 18.224.77-5.991-6.213-12.233zM111.852 94c0 .033-.069.093-.074.232a.208.208 0 00.265.237.21.21 0 00.143-.251.207.207 0 00-.051-.093c-.079-.11-.181-.116-.185-.153-.005-.037.125-.102.306.028a.422.422 0 01.158.339.433.433 0 01-.551.356.433.433 0 01-.206-.133.418.418 0 01-.046-.372c.079-.227.241-.227.241-.19zm.548-1.313c0 .032-.07.097-.075.232a.202.202 0 00.159.241.2.2 0 00.106-.01.199.199 0 00.147-.247.193.193 0 00-.054-.091c-.079-.107-.186-.116-.19-.153-.005-.037.129-.102.31.028a.411.411 0 01.158.338.405.405 0 01-.306.357.385.385 0 01-.497-.505c.079-.204.242-.218.242-.19zm7.448-23.208c-.812.427-1.095 1.624-1.002 2.538.093.915.431 1.801.408 2.72a11.495 11.495 0 01-.348 1.93 3.307 3.307 0 00.056 1.935 1.481 1.481 0 001.536.97l.645-1.3a7.169 7.169 0 00-.093-6.524l-1.202-2.269z" fill="#263238"/><path d="M54.467 3.676c.078-.009.158-.009.236 0h.696a6.96 6.96 0 011.123.11c.223.033.464.057.715.108l.803.2a13.388 13.388 0 018 19.699 13.457 13.457 0 01-6.45 5.61 13.212 13.212 0 01-4.474.984 12.798 12.798 0 01-4.678-.585l-.139-.042h.107l-7.82 2.71-.315.112.097-.32c.703-2.25 1.38-4.415 2.033-6.497l.033.158a13.385 13.385 0 01-3.137-11.602 13.15 13.15 0 012.018-4.817 13.416 13.416 0 013.096-3.248 14.513 14.513 0 011.62-1.054 15.943 15.943 0 011.558-.705c.454-.185.919-.34 1.392-.464.397-.11.8-.193 1.207-.25.367-.047.691-.103.97-.13h1.295a.552.552 0 01-.149.023l-.431.032-.706.051c-.278.033-.598.098-.96.153a8.718 8.718 0 00-1.188.274c-.474.123-.94.278-1.393.464-.521.212-1.031.452-1.526.72-.552.315-1.082.667-1.587 1.053a13.49 13.49 0 00-3.017 3.206 12.939 12.939 0 00-1.949 4.739 13.105 13.105 0 003.11 11.309l.064.07-.027.087c-.644 2.089-1.317 4.254-2.02 6.497l-.217-.209 7.838-2.663h.111l.135.041c1.47.47 3.016.663 4.557.571a12.888 12.888 0 004.362-.956 13.207 13.207 0 006.306-5.462 13.202 13.202 0 00-.162-13.685 12.993 12.993 0 00-3.824-3.972 13.147 13.147 0 00-3.787-1.759l-.788-.213c-.251-.056-.465-.084-.706-.121a7.471 7.471 0 00-1.114-.144l-.691-.051a1.174 1.174 0 01-.227-.032z" fill="#fff"/><path d="M46.605 17.94l2.056-2.055 3.968 3.527 7.787-7.495 1.912 2.056-9.992 9.406-5.73-5.438z" fill="#fff"/></svg>