<svg width="189" height="191" fill="none" xmlns="http://www.w3.org/2000/svg"><path d="M141.63 93.796c-.334.248-.706.44-1.101.568a4.944 4.944 0 01-3.342-.043 5.028 5.028 0 01-1.956-1.28 5.13 5.13 0 01-1.246-2.399 4.857 4.857 0 01-.102-1.472 4.912 4.912 0 01.344-1.502 5.092 5.092 0 012.041-2.467 5.061 5.061 0 013.104-.756c.514.034 1.02.15 1.497.346a5.117 5.117 0 012.874 2.915c.285.743.391 1.543.31 2.334a4.98 4.98 0 01-1.432 3.035c-.286.3-.619.551-.987.742-.021-.03.37-.247.91-.819a4.984 4.984 0 001.305-2.987 4.856 4.856 0 00-.327-2.228 4.884 4.884 0 00-1.539-2.057 4.46 4.46 0 00-1.212-.692 4.628 4.628 0 00-1.416-.324 4.827 4.827 0 00-2.928.724 4.852 4.852 0 00-1.932 2.323 4.577 4.577 0 00-.336 1.421c-.041.467-.011.938.09 1.396a4.87 4.87 0 003.014 3.563 4.962 4.962 0 003.236.129c.748-.244 1.114-.5 1.131-.47z" fill="#E0E0E0"/><path d="M142.531 100.428l.132.12.379.371 1.5 1.481h-.059l3.929-2.493-.03.086a325.19 325.19 0 00-.936-2.66v-.046l.039-.038a11.472 11.472 0 001.734-2.463l.022-.043h2.865l-.097.082c.323-1.434.671-2.954 1.033-4.55l.064.128-2.551-1.22-.064-.035v-.072a11.27 11.27 0 00-.498-2.966v-.073l.056-.05 1.989-1.99v.158l-2.466-3.956.158.055-2.653.93-.077.03-.06-.055a11.39 11.39 0 00-2.44-1.745l-.072-.039v-2.906l.11.137-4.558-1.067.162-.077a229.7 229.7 0 00-1.221 2.56l-.038.077h-.089c-1 .03-1.991.196-2.947.491-.063 0 .145.038-.144-.034l-.03-.034-.06-.06-.127-.128-.247-.252-.497-.503-.987-.999.179.021-3.946 2.471.06-.166c.31.896.621 1.784.922 2.663l.03.081-.059.06a11.408 11.408 0 00-1.739 2.445l-.039.077h-2.895l.132-.107c-.357 1.554-.708 3.069-1.051 4.546l-.072-.15 2.53 1.233.072.035v.076c.029 1.007.194 2.005.489 2.967l.022.072-.056.056-1.994 1.98v-.15l2.453 3.965-.131-.047 2.657-.922.055-.021.047.043a11.426 11.426 0 002.441 1.762l.051.026v.055c0 1.025 0 1.951-.022 2.821l-.068-.081 4.529 1.071-.073.035c.494-1.012.898-1.84 1.238-2.531v-.026h.025a11.64 11.64 0 002.262-.277l.549-.133a.936.936 0 01.183-.042 1.66 1.66 0 01-.179.064c-.119.038-.298.098-.54.158a10.94 10.94 0 01-2.271.324l.039-.026-1.204 2.561-.021.047h-.051l-4.532-1.033h-.068v-2.978l.051.085a11.535 11.535 0 01-2.496-1.776l.106.022-2.653.934-.081.03-.047-.077-2.47-3.951-.051-.082.068-.068 1.99-1.989-.03.128a11.573 11.573 0 01-.506-3.034l.072.111-2.551-1.225-.093-.047.025-.102 1.042-4.545.026-.107h2.916l-.123.077a11.487 11.487 0 011.782-2.51l-.03.145c-.306-.879-.612-1.766-.927-2.663l-.038-.106.097-.06 3.942-2.475.098-.06.08.081.987.999.497.503.247.252.123.124.064.064.03.03-.14-.034c.98-.305 1.997-.476 3.023-.508l-.124.08 1.225-2.56.047-.102.114.025 4.563 1.106.106.025v2.932l-.077-.124a11.456 11.456 0 012.496 1.793l-.136-.03 2.653-.926.102-.034.056.09c.85 1.378 1.7 2.718 2.457 3.96l.051.09-.072.072-1.994 1.98.03-.123c.3.984.467 2.005.497 3.034l-.068-.103 2.53 1.23.081.038-.022.09-1.058 4.545v.077h-2.891l.085-.048a11.652 11.652 0 01-1.786 2.489l.021-.086.91 2.668.021.055-.051.03-3.954 2.445-.034.022-.026-.026-1.449-1.502-.37-.393a1.145 1.145 0 01-.141-.162z" fill="#E0E0E0"/><path fill-rule="evenodd" clip-rule="evenodd" d="M151.792 66.666a16.21 16.21 0 01-4.226.709l-1.727 3.589-6.403-1.49v-3.986a16.179 16.179 0 01-3.487-2.496l-3.75 1.31-3.482-5.595 2.823-2.808a16.198 16.198 0 01-.706-4.242l-3.567-1.725 1.48-6.427h3.971a16.081 16.081 0 012.492-3.495l-1.31-3.764 5.561-3.496 2.794 2.834a16.052 16.052 0 014.231-.708l1.726-3.59 6.403 1.486v3.99a16.154 16.154 0 013.487 2.497l3.75-1.31 3.482 5.582-2.819 2.808c.422 1.376.658 2.803.702 4.242l3.58 1.733-1.484 6.427h-3.971a16.126 16.126 0 01-2.492 3.504l1.31 3.764-5.575 3.49-2.793-2.833zm-1.276-9.389a7.064 7.064 0 002.684-3.102 7.1 7.1 0 00-1.315-7.751 7.025 7.025 0 00-7.637-1.747 7.054 7.054 0 00-3.235 2.517 7.1 7.1 0 001.672 9.868 7.028 7.028 0 007.831.224v-.009z" fill="#E0E0E0"/><path fill-rule="evenodd" clip-rule="evenodd" d="M166.873 87.915a8.47 8.47 0 01-2.245.38l-.931 1.916-3.401-.79v-2.133a8.395 8.395 0 01-1.854-1.332l-1.999.7-1.849-2.987 1.501-1.494a8.357 8.357 0 01-.374-2.258l-1.905-.921.791-3.415h2.125a8.552 8.552 0 011.323-1.86l-.693-2.006 2.976-1.857 1.488 1.507a8.355 8.355 0 012.249-.376l.919-1.912 3.401.79V72c.675.358 1.3.804 1.858 1.327l1.995-.7 1.853 2.987-1.501 1.494c.224.733.349 1.492.375 2.258l1.9.922-.786 3.414h-2.126a8.548 8.548 0 01-1.327 1.865l.714 2.006-2.976 1.856-1.488-1.506-.013-.009zm-.676-4.989a3.779 3.779 0 00.749-5.778 3.753 3.753 0 00-4.066-.943 3.764 3.764 0 00-2.423 3.41c-.022.745.176 1.48.57 2.112a3.753 3.753 0 002.335 1.68 3.741 3.741 0 002.835-.472v-.009z" fill="#EBEBEB"/><path d="M189 189.679c0 .06-42.31.111-94.494.111-52.183 0-94.506-.051-94.506-.111 0-.06 42.302-.111 94.506-.111 52.205 0 94.494.051 94.494.111z" fill="#000"/><path d="M53.404 56.27s1.156-6.96 1.432-7.49c.277-.53 3.474-3.785 3.848-3.84.375-.056 5.417-1.652 5.14-.854-.276.798-3.826 1.852-3.826 1.852l-.336.426s3.02-.985 3.772-.96c.689 0 .812.743.272.952-.54.21-3.202.986-3.3 1.152-.097.167 2.977-.708 3.347-.695.518.025.892.682.365.904-.31.133-3.274.816-3.274.816a25.85 25.85 0 012.751-.214c.455.124.425.674-.085.811-.34.09-2.151.166-2.61.29 0 0-.34.295-.328 1.212.013.918-1.178 3.372-1.178 3.372l-5.99 2.266z" fill="#FFBE9D"/><path d="M63.82 44.077a2.528 2.528 0 01-.743.649 6.099 6.099 0 01-.944.52c-.375.141-.791.282-1.225.427l-.931.316.05-.03c-.53.58-1.105 1.114-1.721 1.6a14.52 14.52 0 011.56-1.75h.034l.915-.32 1.224-.426c.322-.13.635-.283.935-.457.532-.32.804-.555.847-.529z" fill="#EB996E"/><path d="M130.958 132.726l-68.643-7.093a3.822 3.822 0 01-2.566-1.399 3.853 3.853 0 01-.835-2.809L70.819 5.608a5.457 5.457 0 011.972-3.67 5.415 5.415 0 013.98-1.191l65.416 6.764a5.424 5.424 0 013.653 1.982 5.465 5.465 0 011.19 3.993l-11.888 115.826a3.846 3.846 0 01-1.392 2.572 3.814 3.814 0 01-2.792.842z" fill="#28A8DF"/><path opacity=".4" d="M130.958 132.726l-68.643-7.093a3.822 3.822 0 01-2.566-1.399 3.853 3.853 0 01-.835-2.809L70.819 5.608a5.457 5.457 0 011.972-3.67 5.415 5.415 0 013.98-1.191l65.416 6.764a5.424 5.424 0 013.653 1.982 5.465 5.465 0 011.19 3.993l-11.888 115.826a3.846 3.846 0 01-1.392 2.572 3.814 3.814 0 01-2.792.842z" fill="#000"/><path d="M124.023 132.013l-68.634-7.097a3.818 3.818 0 01-2.566-1.399 3.851 3.851 0 01-.835-2.809L63.893 4.891a5.456 5.456 0 011.974-3.667A5.416 5.416 0 0169.845.03l65.437 6.764a5.429 5.429 0 013.652 1.983 5.472 5.472 0 011.191 3.992l-11.906 115.818a3.846 3.846 0 01-1.391 2.585 3.814 3.814 0 01-2.805.841z" fill="#28A8DF"/><path d="M89.124 100.49l-23.668-2.447a1.03 1.03 0 00-1.129.922l-.959 9.348a1.032 1.032 0 00.918 1.133l23.668 2.446a1.03 1.03 0 001.13-.921l.959-9.348a1.031 1.031 0 00-.919-1.133z" fill="#28A8DF"/><path opacity=".4" d="M89.124 100.49l-23.668-2.447a1.03 1.03 0 00-1.129.922l-.96 9.348a1.032 1.032 0 00.919 1.133l23.668 2.446a1.03 1.03 0 001.13-.921l.958-9.348a1.031 1.031 0 00-.918-1.133z" fill="#000"/><path d="M68.645 12.976L66.012 38.64l65.177 6.737 2.633-25.662-65.177-6.737z" fill="#FAFAFA"/><path d="M131.191 45.379s0-.158.039-.457l.127-1.331c.115-1.166.285-2.886.506-5.096.425-4.426 1.089-10.836 1.884-18.778l.072.085-65.177-6.713.12-.102c-.923 8.962-1.816 17.647-2.637 25.662l-.098-.116 46.707 4.878 13.547 1.434 3.631.389.939.106.323.039-.31-.026-.931-.09-3.61-.358-13.529-1.374-46.771-4.784h-.106v-.107c.82-8.015 1.7-16.687 2.627-25.662v-.11h.111l65.177 6.763h.076v.077c-.85 7.968-1.505 14.387-1.972 18.821-.234 2.206-.426 3.913-.54 5.079l-.145 1.314c-.034.303-.06.457-.06.457z" fill="#000"/><path d="M78.804 50.3l-9.318-.963a.885.885 0 00-.97.792l-.96 9.352a.887.887 0 00.79.974l9.317.963c.486.05.92-.304.97-.792l.96-9.352a.887.887 0 00-.789-.974z" fill="#28A8DF"/><path opacity=".4" d="M78.804 50.3l-9.318-.963a.885.885 0 00-.97.792l-.96 9.352a.887.887 0 00.79.974l9.317.963c.486.05.92-.304.97-.792l.96-9.352a.887.887 0 00-.789-.974z" fill="#000"/><path d="M77.092 50.125l-9.318-.963a.885.885 0 00-.97.792l-.96 9.352a.887.887 0 00.79.974l9.317.963c.486.05.92-.304.97-.792l.96-9.352a.887.887 0 00-.79-.974z" fill="#000"/><path d="M72.89 52.92l-.476 4.634-1.068-.11.387-3.773-.927-.094.09-.854 1.994.197z" fill="#fff"/><path d="M94.254 51.897l-9.318-.963a.885.885 0 00-.97.792l-.96 9.353a.887.887 0 00.79.974l9.317.963c.486.05.92-.305.97-.792l.96-9.353a.887.887 0 00-.79-.974z" fill="#28A8DF"/><path opacity=".4" d="M94.254 51.897l-9.318-.963a.885.885 0 00-.97.792l-.96 9.353a.887.887 0 00.79.974l9.317.963c.486.05.92-.305.97-.792l.96-9.353a.887.887 0 00-.79-.974z" fill="#000"/><path d="M92.541 51.722l-9.317-.963a.885.885 0 00-.97.792l-.96 9.352a.887.887 0 00.789.974l9.317.963c.486.05.92-.304.97-.792l.96-9.352a.887.887 0 00-.789-.974z" fill="#000"/><path d="M89.62 58.468l-.088.875-3.491-.363.072-.692 1.956-1.506c.446-.346.544-.58.565-.802.039-.367-.19-.602-.676-.653a1.136 1.136 0 00-1.007.362l-.727-.584a2.176 2.176 0 011.926-.67c1.024.106 1.658.708 1.573 1.549-.047.448-.217.853-.923 1.383l-1.165.896 1.986.205z" fill="#fff"/><path d="M110.268 53.552l-9.318-.963a.885.885 0 00-.97.792l-.96 9.353a.887.887 0 00.79.974l9.317.963c.486.05.92-.305.97-.792l.96-9.353a.887.887 0 00-.789-.974z" fill="#28A8DF"/><path opacity=".4" d="M110.268 53.552l-9.318-.963a.885.885 0 00-.97.792l-.96 9.353a.887.887 0 00.79.974l9.317.963c.486.05.92-.305.97-.792l.96-9.353a.887.887 0 00-.789-.974z" fill="#000"/><path d="M108.56 53.377l-9.318-.963a.885.885 0 00-.97.792l-.96 9.353a.887.887 0 00.79.974l9.317.963c.486.05.92-.305.97-.792l.96-9.353a.887.887 0 00-.789-.974z" fill="#000"/><path d="M105.65 59.556c-.08.781-.752 1.434-2.066 1.28a3.143 3.143 0 01-1.701-.678l.502-.777c.355.317.802.511 1.276.555.531.055.884-.132.922-.508.039-.375-.195-.597-.803-.657l-.489-.051.072-.709 1.063-.981-1.969-.205.09-.854 3.231.333-.072.696-1.161 1.084a1.315 1.315 0 011.105 1.472z" fill="#fff"/><path d="M126.286 55.208l-9.317-.963a.885.885 0 00-.97.792l-.96 9.352a.887.887 0 00.789.974l9.318.963c.486.05.92-.304.97-.792l.96-9.352a.887.887 0 00-.79-.974z" fill="#28A8DF"/><path opacity=".4" d="M126.286 55.208l-9.317-.963a.885.885 0 00-.97.792l-.96 9.352a.887.887 0 00.789.974l9.318.963c.486.05.92-.304.97-.792l.96-9.352a.887.887 0 00-.79-.974z" fill="#000"/><path d="M124.612 55.032l-9.317-.963a.886.886 0 00-.971.792l-.959 9.353a.887.887 0 00.789.974l9.318.963c.485.05.92-.305.97-.792l.96-9.353a.887.887 0 00-.79-.974z" fill="#000"/><path d="M116.878 59.46l-.044.425 4.949.512.043-.425-4.948-.511zm3.48-1.611a.811.811 0 01-1.042.694.808.808 0 01-.566-.7.814.814 0 01.428-.793.806.806 0 011.003.206c.135.167.198.38.177.593zm-.455 4.327a.807.807 0 01-1.037.686.8.8 0 01-.562-.695.81.81 0 01.423-.788.8.8 0 011.147.483c.03.102.04.209.029.314z" fill="#fff"/><path d="M77.133 66.593l-9.317-.964a.885.885 0 00-.97.793l-.96 9.352a.887.887 0 00.789.974l9.317.963c.486.05.92-.304.97-.792l.96-9.352a.887.887 0 00-.789-.974z" fill="#28A8DF"/><path opacity=".4" d="M77.133 66.593l-9.317-.964a.885.885 0 00-.97.793l-.96 9.352a.887.887 0 00.789.974l9.317.963c.486.05.92-.304.97-.792l.96-9.352a.887.887 0 00-.789-.974z" fill="#000"/><path d="M75.425 66.418l-9.317-.963a.885.885 0 00-.97.792l-.96 9.352a.887.887 0 00.789.974l9.317.963c.486.05.92-.304.97-.792l.96-9.352a.887.887 0 00-.789-.974z" fill="#000"/><path d="M72.188 73.008l-.752-.077-.098.973-1.042-.111.098-.973-2.487-.256.076-.721 2.48-2.715 1.117.116-2.304 2.56 1.241.128.09-.853 1.007.107-.089.853.757.085-.094.884z" fill="#fff"/><path d="M92.583 68.186l-9.318-.964a.885.885 0 00-.97.793l-.96 9.352a.887.887 0 00.79.974l9.317.963c.486.05.92-.304.97-.792l.96-9.352a.887.887 0 00-.79-.974z" fill="#28A8DF"/><path opacity=".4" d="M92.583 68.186l-9.318-.963a.885.885 0 00-.97.792l-.96 9.352a.887.887 0 00.79.974l9.317.963c.486.05.92-.304.97-.792l.96-9.352a.887.887 0 00-.79-.974z" fill="#000"/><path d="M90.87 68.01l-9.317-.963a.885.885 0 00-.97.793l-.96 9.352a.887.887 0 00.789.974l9.318.963c.486.05.92-.304.97-.792l.96-9.352a.887.887 0 00-.79-.974z" fill="#000"/><path d="M87.5 74.1c-.086.824-.762 1.477-2.08 1.34a3.233 3.233 0 01-1.7-.678l.505-.777a2.25 2.25 0 001.276.55c.531.056.884-.136.923-.511.038-.376-.175-.628-1.012-.713l-1.182-.124.506-2.582 2.819.29-.09.854-1.926-.196-.161.853.374.039c1.352.166 1.837.836 1.747 1.656z" fill="#fff"/><path d="M108.597 69.84l-9.318-.962a.885.885 0 00-.97.792l-.96 9.352a.887.887 0 00.79.974l9.317.963a.886.886 0 00.971-.792l.959-9.352a.887.887 0 00-.789-.974z" fill="#28A8DF"/><path opacity=".4" d="M108.597 69.84l-9.318-.962a.885.885 0 00-.97.792l-.96 9.352a.887.887 0 00.79.974l9.317.963a.886.886 0 00.971-.792l.959-9.352a.887.887 0 00-.789-.974z" fill="#000"/><path d="M106.889 69.666l-9.318-.963a.885.885 0 00-.97.792l-.96 9.352a.887.887 0 00.79.974l9.317.963c.486.05.92-.304.971-.792l.959-9.352a.887.887 0 00-.789-.974z" fill="#000"/><path d="M103.839 75.786c-.098.943-.931 1.46-1.909 1.362-1.276-.133-1.981-1.016-1.828-2.514.166-1.6 1.22-2.394 2.61-2.25.457.022.898.17 1.276.428l-.476.746a1.56 1.56 0 00-.851-.32c-.769-.08-1.313.325-1.437 1.208a1.561 1.561 0 011.182-.29 1.466 1.466 0 011.072.5 1.487 1.487 0 01.361 1.13zm-1.042-.055a.693.693 0 00-.424-.721.694.694 0 00-.29-.056.727.727 0 00-.771.335.753.753 0 00-.101.28c-.038.396.23.716.745.772a.69.69 0 00.841-.61z" fill="#fff"/><path d="M124.616 71.496l-9.318-.963a.885.885 0 00-.97.792l-.96 9.352a.887.887 0 00.789.974l9.318.963c.486.05.92-.304.97-.792l.96-9.352a.887.887 0 00-.789-.974z" fill="#28A8DF"/><path opacity=".4" d="M124.616 71.496l-9.318-.963a.885.885 0 00-.97.792l-.96 9.352a.887.887 0 00.789.974l9.318.963c.486.05.92-.304.97-.792l.96-9.352a.887.887 0 00-.789-.974z" fill="#000"/><path d="M122.899 71.32l-9.317-.962a.886.886 0 00-.971.792l-.959 9.352a.887.887 0 00.789.974l9.317.963a.886.886 0 00.971-.792l.959-9.352a.887.887 0 00-.789-.974z" fill="#000"/><path d="M119.491 74.689l-3.906 3.092.263.335 3.906-3.092-.263-.335z" fill="#fff"/><path d="M116.27 74.347l-.33.27 3.138 3.873.33-.27-3.138-3.873z" fill="#fff"/><path d="M75.476 82.746l-9.318-.963a.885.885 0 00-.97.792l-.96 9.353a.887.887 0 00.79.974l9.317.963c.486.05.92-.305.97-.792l.96-9.353a.887.887 0 00-.79-.974z" fill="#28A8DF"/><path opacity=".4" d="M75.476 82.746l-9.318-.963a.885.885 0 00-.97.792l-.96 9.352a.887.887 0 00.79.974l9.317.964c.486.05.92-.305.97-.792l.96-9.353a.887.887 0 00-.79-.974z" fill="#000"/><path d="M73.764 82.567l-9.318-.963a.885.885 0 00-.97.792l-.96 9.353a.887.887 0 00.79.974l9.317.963c.486.05.92-.305.97-.792l.96-9.353a.887.887 0 00-.789-.974z" fill="#000"/><path d="M70.292 85.44l-.068.695-2.126 3.76-1.16-.12 2.04-3.588-1.53-.158-.077.755-.948-.098.166-1.63 3.703.384z" fill="#fff"/><path d="M90.925 84.344l-9.317-.963a.885.885 0 00-.97.792l-.96 9.352a.887.887 0 00.789.974l9.317.963c.486.05.92-.304.97-.792l.96-9.352a.887.887 0 00-.789-.974z" fill="#28A8DF"/><path opacity=".4" d="M90.925 84.344l-9.317-.963a.885.885 0 00-.97.792l-.96 9.352a.887.887 0 00.789.974l9.317.963c.486.05.92-.304.97-.792l.96-9.352a.887.887 0 00-.789-.974z" fill="#000"/><path d="M89.213 84.169l-9.318-.964a.885.885 0 00-.97.793l-.96 9.352a.887.887 0 00.79.974l9.317.963c.486.05.92-.304.97-.792l.96-9.352a.887.887 0 00-.789-.974z" fill="#000"/><path d="M86.203 90.412c-.09.853-.923 1.34-2.097 1.22-1.173-.12-1.883-.75-1.794-1.626a1.194 1.194 0 01.812-1.02 1.07 1.07 0 01-.35-.445 1.08 1.08 0 01-.075-.562c.085-.815.85-1.25 1.913-1.14 1.063.112 1.735.692 1.65 1.507a1.082 1.082 0 01-.638.896 1.18 1.18 0 01.579 1.17zm-1.076-.145c.042-.427-.268-.7-.804-.756-.536-.055-.884.167-.927.576-.042.41.264.7.791.756.527.055.897-.167.94-.576zm-1.382-2.134c-.038.35.217.597.655.64.438.043.748-.141.782-.495.034-.354-.23-.61-.663-.657-.434-.047-.736.149-.757.516l-.017-.004z" fill="#fff"/><path d="M106.94 85.999l-9.318-.963a.885.885 0 00-.97.792l-.96 9.352a.887.887 0 00.79.974l9.317.963c.486.05.92-.304.97-.792l.96-9.352a.887.887 0 00-.789-.974z" fill="#28A8DF"/><path opacity=".4" d="M106.94 85.999l-9.318-.963a.885.885 0 00-.97.792l-.96 9.352a.887.887 0 00.79.974l9.317.963c.486.05.92-.304.97-.792l.96-9.352a.887.887 0 00-.789-.974z" fill="#000"/><path d="M104.943 85.163l-9.273-.94a.88.88 0 00-.964.79l-.936 9.307a.882.882 0 00.787.968l9.273.94a.881.881 0 00.964-.79l.937-9.308a.883.883 0 00-.788-.967z" fill="#000"/><path d="M102.151 90.975c-.166 1.6-1.212 2.399-2.61 2.254a2.473 2.473 0 01-1.246-.453l.476-.747c.243.194.54.308.85.325.766.076 1.314-.329 1.442-1.217a1.583 1.583 0 01-1.19.295 1.462 1.462 0 01-1.373-1.007 1.479 1.479 0 01-.07-.598c.094-.947.928-1.464 1.906-1.361 1.284.132 1.968 1.011 1.815 2.51zm-1.11-.926c.039-.397-.225-.721-.735-.772a.691.691 0 00-.85.61.709.709 0 00.423.72c.092.04.191.059.291.057a.72.72 0 00.871-.615z" fill="#fff"/><path d="M122.954 87.654l-9.318-.963a.885.885 0 00-.97.792l-.96 9.352a.887.887 0 00.79.974l9.317.964c.486.05.92-.305.97-.792l.96-9.353a.887.887 0 00-.789-.974z" fill="#28A8DF"/><path opacity=".4" d="M122.954 87.654l-9.318-.963a.885.885 0 00-.97.792l-.96 9.352a.887.887 0 00.79.974l9.317.964c.486.05.92-.305.97-.792l.96-9.353a.887.887 0 00-.789-.974z" fill="#000"/><path d="M121.242 87.479l-9.318-.963a.885.885 0 00-.97.792l-.96 9.352a.887.887 0 00.789.974l9.318.963c.486.05.92-.304.97-.792l.96-9.352a.887.887 0 00-.789-.974z" fill="#000"/><path d="M113.569 92.097l-.044.424 4.949.512.043-.425-4.948-.511z" fill="#fff"/><path d="M105.268 102.296l-9.318-.963a.884.884 0 00-.97.792l-.96 9.352a.886.886 0 00.79.974l9.317.963c.486.05.92-.304.97-.792l.96-9.352a.886.886 0 00-.789-.974z" fill="#28A8DF"/><path opacity=".4" d="M105.268 102.296l-9.318-.963a.884.884 0 00-.97.792l-.96 9.352a.886.886 0 00.79.974l9.317.963c.486.05.92-.304.97-.792l.96-9.352a.886.886 0 00-.789-.974z" fill="#000"/><path d="M103.556 102.121l-9.318-.964a.886.886 0 00-.97.792l-.96 9.353a.888.888 0 00.79.974l9.317.963c.486.05.92-.305.97-.792l.96-9.353a.886.886 0 00-.789-.973z" fill="#000"/><path d="M121.282 103.955l-9.317-.963a.886.886 0 00-.971.792l-.959 9.352a.886.886 0 00.789.974l9.317.963a.885.885 0 00.971-.792l.959-9.352a.886.886 0 00-.789-.974z" fill="#28A8DF"/><path opacity=".4" d="M121.282 103.955l-9.317-.963a.886.886 0 00-.971.792l-.959 9.352a.886.886 0 00.789.974l9.317.963a.885.885 0 00.971-.792l.959-9.352a.886.886 0 00-.789-.974z" fill="#000"/><path d="M119.57 103.78l-9.317-.963a.886.886 0 00-.971.792l-.959 9.352a.886.886 0 00.789.974l9.317.963a.885.885 0 00.971-.792l.959-9.352a.886.886 0 00-.789-.974z" fill="#2B3A8C"/><path d="M111.961 107.787l-.043.424 4.948.512.044-.425-4.949-.511zm-.196 1.891l-.043.425 4.948.511.044-.424-4.949-.512z" fill="#fff"/><path d="M87.016 100.27l-24.629-2.546a1.064 1.064 0 00-1.166.952l-.952 9.28c-.06.586.364 1.11.948 1.171l24.629 2.546a1.064 1.064 0 001.166-.952l.952-9.28a1.066 1.066 0 00-.948-1.171z" fill="#000"/><path d="M73.132 104.371c.158-1.527 1.089-2.308 2.224-2.189 1.135.12 1.888 1.071 1.73 2.599-.157 1.528-1.08 2.313-2.223 2.194-1.144-.12-1.9-1.071-1.73-2.604zm2.883.299c.106-1.05-.217-1.528-.753-1.583-.535-.056-.94.346-1.05 1.4-.11 1.054.217 1.528.744 1.579.528.051.936-.342 1.046-1.396h.013zm22.385.027l-.583 4.959.423.05.583-4.959-.423-.05z" fill="#fff"/><path d="M95.876 106.738l-.044.424 4.949.512.043-.425-4.948-.511z" fill="#fff"/><path d="M93.541 28.645l-.71 6.93-.327-.033.68-6.624-1.735-.18.03-.306 2.062.213zm5.689 7.281l-.034.307-4.677-.486.026-.235 3.265-2.685c.935-.764 1.165-1.25 1.22-1.813.098-.922-.484-1.584-1.7-1.707a2.542 2.542 0 00-2.156.618l-.204-.243a2.934 2.934 0 012.42-.661c1.321.136 2.087.904 1.972 2.023-.064.652-.332 1.207-1.33 2.022l-2.977 2.446 4.175.414zm5.468-1.067c-.115 1.148-1.008 1.878-2.525 1.707a3.11 3.11 0 01-2.3-1.208l.203-.218a2.888 2.888 0 002.126 1.119c1.323.136 2.08-.427 2.182-1.447.102-1.02-.502-1.707-1.961-1.874l-.386-.038.025-.24 2.441-2.585-3.827-.393.034-.307 4.252.427-.026.239-2.466 2.62c1.633.166 2.347 1.054 2.228 2.198zm6.794.623l-1.5-.154-.205 1.998-.327-.035.208-1.997-3.967-.427.026-.239 4.299-4.297.382.043-4.252 4.242 3.542.38.179-1.763.327.034-.183 1.763 1.501.153-.03.299zm1.442 1.869c-.02.123-.053.243-.098.358l-.489 1.28-.259-.029.446-1.332a.33.33 0 01-.192-.132.338.338 0 01-.022-.349.31.31 0 01.081-.098.309.309 0 01.24-.07.321.321 0 01.286.24.325.325 0 01.007.132zm6.841-1.011l-1.501-.158-.204 2.001-.327-.034.208-2.001-3.967-.427.026-.235 4.298-4.297.383.038-4.252 4.242 3.529.367.179-1.762.327.034-.183 1.762 1.501.154-.017.316zm5.124.567c-.115 1.131-.987 1.92-2.551 1.759a3.137 3.137 0 01-2.292-1.208l.213-.218a2.856 2.856 0 002.125 1.118c1.353.141 2.084-.503 2.186-1.485.11-1.067-.455-1.767-2.428-1.972l-1.344-.136.702-3.23 3.559.366-.03.308-3.282-.338-.579 2.62 1.063.112c2.105.217 2.764 1.08 2.658 2.304z" fill="#000"/><path d="M49.48 178.843l-2.705 10.029 8.784.807 1.846-9.551-7.926-1.285z" fill="#28A8DF"/><path d="M55.814 188.864a6.716 6.716 0 01-1.275-.047 71.2 71.2 0 01-3.083-.337l-3.074-.427a7.359 7.359 0 01-1.276-.222 6.327 6.327 0 011.276.047c.79.068 1.88.188 3.083.346l3.07.426c.432.029.86.1 1.28.214z" fill="#000"/><path opacity=".6" d="M46.775 188.872l8.784.807.145-.734-8.674-1.11-.247.939" fill="#fff"/><path d="M51.137 188.429a76.6 76.6 0 011.871-7.64 36.805 36.805 0 01-.85 3.841 38.119 38.119 0 01-1.02 3.799z" fill="#000"/><path d="M55.33 188.795a4.283 4.283 0 00.02-1.865 3.744 3.744 0 00-.96-1.745 3.599 3.599 0 00-2.19-1.007 3.717 3.717 0 00-2.351.538c-.57.364-1.04.866-1.37 1.459a5.172 5.172 0 00-.552 1.788v-.132a2.704 2.704 0 010-.384 4.14 4.14 0 011.82-2.894 3.866 3.866 0 012.474-.58 3.621 3.621 0 012.126.912c.59.529.992 1.236 1.144 2.016.095.464.095.943 0 1.408a2.066 2.066 0 01-.11.367c-.026.081-.043.124-.051.119z" fill="#000"/><path d="M85.722 177.699l-.523 7.9s7.836 2.612 7.879 4.08l-15.307.111.31-12.342 7.641.251z" fill="#28A8DF"/><path opacity=".6" d="M80.488 184.792a.62.62 0 00-.45.7.597.597 0 00.688.457.656.656 0 00.485-.73.628.628 0 00-.77-.397m-2.67 4.968l.08-1.242 14.738.427a1.06 1.06 0 01.57.832l-15.388-.017z" fill="#fff"/><path d="M85.463 185.531c0 .072-.379.098-.753.324s-.582.542-.65.508c-.068-.034.06-.461.514-.73.455-.269.889-.171.889-.102zm1.573.712c0 .073-.315.192-.578.5-.264.307-.345.644-.426.64-.08-.005-.106-.427.226-.811.331-.384.778-.401.778-.329zm.85 1.964c-.068 0-.157-.363.047-.769.204-.405.557-.554.587-.495.03.06-.196.278-.358.615-.161.337-.2.649-.276.649zm-2.516-4.49c-.035.068-.375-.047-.796-.03-.42.017-.757.137-.795.072-.038-.064.289-.324.787-.337.497-.012.841.235.803.295z" fill="#000"/><path opacity=".3" d="M85.616 179.266l-.09 1.408-7.517-.299.025-1.271 7.582.162z" fill="#000"/><path d="M85.463 182.121a1.442 1.442 0 01-.766-.03 3.437 3.437 0 01-.795-.269 3.7 3.7 0 01-.425-.248 1.051 1.051 0 01-.225-.187.334.334 0 01-.022-.402.427.427 0 01.332-.162.921.921 0 01.285.051 2.641 2.641 0 011.165.662c.344.341.46.627.425.64-.034.013-.2-.218-.553-.499a3.045 3.045 0 00-1.097-.559c-.161-.047-.297-.052-.34.021-.042.073-.021.038 0 .085a.71.71 0 00.166.137c.127.09.261.172.4.243.232.129.477.233.731.312.245.048.485.116.719.205z" fill="#000"/><path d="M85.344 182.232a1.23 1.23 0 01-.18-.747 2.547 2.547 0 01.341-1.315.626.626 0 01.502-.371.345.345 0 01.31.222c.038.091.062.188.072.286a1.71 1.71 0 010 .516 1.79 1.79 0 01-.348.786c-.31.388-.625.469-.634.426-.008-.042.243-.175.48-.55.141-.217.233-.461.269-.717.02-.142.02-.285 0-.427 0-.162-.073-.299-.137-.282a.566.566 0 00-.276.244 2.904 2.904 0 00-.374 1.19c-.055.44.017.739-.025.739z" fill="#000"/><path d="M52.532 54.627s-1.658 9.09-2.976 14.591c-1.034 4.268-3.716 12.278 1.135 14.604 4.851 2.326 11.378-7.058 11.378-7.058l2.768-21.394c-1.93.362-4.112 2.603-6.438 5.902l.426-8.109-6.293 1.464z" fill="#2B3A8C"/><path d="M119.295 68.066l-2.551 1.225-2.369-3.7 1.374-2.855c.132-.265.272-.564.425-.905a3.97 3.97 0 00.306-1.255 6.192 6.192 0 00-.042-1.609c-.128-.474.374-.853.718-.589.345.265.719 1.584.468 3.158-.251 1.575 1.569-.098 2.245-.691.676-.593 2.849-2.343 3.193-2.275.502.103.485.67-.204 1.25-.689.581-2.632 2.468-2.309 2.818a1.914 1.914 0 011.667 1.493c.174.777.315 1.848-.119 2.198-.895.64-1.831 1.22-2.802 1.737zM69.829 33.574l-.069 22.24 9.508.456.272-5.412s3.376.675 4.252-2.47c.557-2.01.425-17.55.425-17.55l-14.388 2.736z" fill="#FFBE9D"/><path d="M86.351 33.032c-.638 1.327-3.69 3.76-3.69 3.76l-1.374 3.704c-1.199-.939-2.806-.887-3.108 1.225-.22 1.524 1.667 1.831 1.667 1.831-1.097 1.882-1.845 3.414-3.444 5.185-1.735 1.934-2.704 2.134-4.584 2.16h-2.087s-4.252-3.555-3.402-12.923c.85-9.367 9.231-6.636 11.234-8.962 3.274-3.832 10.927-.418 8.788 4.02z" fill="#000"/><path d="M66.814 45.805h.268c.253-.007.504-.035.752-.085a5.38 5.38 0 002.432-1.28 13.651 13.651 0 002.47-3.316c.408-.713.852-1.404 1.332-2.07a7.918 7.918 0 011.866-1.865 7.74 7.74 0 012.424-1.037c.825-.218 1.637-.35 2.402-.5 1.53-.281 2.904-.708 3.827-1.438a4.183 4.183 0 001.556-2.253c.058-.248.087-.501.09-.755v-.265s0 .09.025.265a2.96 2.96 0 01-.077.763 4.153 4.153 0 01-1.547 2.292c-.94.734-2.326 1.161-3.848 1.46-.766.153-1.578.286-2.398.503-.851.2-1.661.547-2.394 1.025a7.822 7.822 0 00-1.846 1.843 24.03 24.03 0 00-1.335 2.062 13.575 13.575 0 01-2.496 3.32 5.346 5.346 0 01-2.47 1.28 3.85 3.85 0 01-.757.069l-.276-.018z" fill="#2B3A8C"/><path d="M66.33 38.188s.148-.06.424-.158a6.316 6.316 0 011.301-.308 2.921 2.921 0 012.041.427 1.703 1.703 0 01.74 1.114 1.538 1.538 0 01-.425 1.391c-.206.184-.469.29-.744.303a1.579 1.579 0 01-.812-.217 2.474 2.474 0 01-1.089-1.383 3.526 3.526 0 01-.08-1.895 3.306 3.306 0 011.024-1.707 3.42 3.42 0 011.918-.853 5.932 5.932 0 012.185.285c.722.232 1.46.409 2.207.53a8.875 8.875 0 002.33 0 7.588 7.588 0 002.24-.62 2.658 2.658 0 001.506-1.583 2.06 2.06 0 00-.502-1.997 1.736 1.736 0 00-1.917-.286 1.444 1.444 0 00-.71.666c-.145.292-.199.62-.154.943a2.19 2.19 0 00.97 1.528c.5.306 1.073.469 1.658.47a5 5 0 001.62-.27 5.72 5.72 0 002.356-1.442 5.977 5.977 0 001.22-1.707c.187-.41.33-.84.425-1.28.06-.299.094-.457.094-.457s0 .158-.077.461a6.095 6.095 0 01-1.645 2.987 5.878 5.878 0 01-2.373 1.498 5.084 5.084 0 01-1.616.248 3.234 3.234 0 01-1.7-.478 2.248 2.248 0 01-1.004-1.58 1.713 1.713 0 01.157-.99c.167-.314.435-.562.761-.703a1.827 1.827 0 012.012.298 2.136 2.136 0 01.523 2.087 2.731 2.731 0 01-1.548 1.635 7.615 7.615 0 01-2.262.631c-.78.103-1.57.103-2.351 0a14.967 14.967 0 01-2.224-.537 5.767 5.767 0 00-2.151-.282 3.308 3.308 0 00-2.444 1.511 3.338 3.338 0 00-.354 2.86 2.389 2.389 0 001.02 1.343c.235.14.502.212.774.21a1.1 1.1 0 00.706-.282 1.482 1.482 0 00.425-1.336 1.648 1.648 0 00-.701-1.058 2.895 2.895 0 00-2.007-.427 6.66 6.66 0 00-1.302.29l-.446.12z" fill="#2B3A8C"/><path d="M60.058 98.73l-12.654 83.42 10.51 1.34 14.831-69.974 3.733 70.443 11.391-.2-1.888-84.834-25.923-.197z" fill="#000"/><path d="M76.279 184.178v-.205l-3.661-68.83-14.537 68.582-10.92-1.391 12.714-83.818 26.315.196 1.896 85.261-11.807.205zm-3.402-72.283l3.827 71.848 10.974-.193-1.88-84.415-25.51-.192-12.641 83.024 10.102 1.28 15.128-71.352z" fill="#000"/><path d="M84.485 183.627c-.06 0-.11-16.716-.11-37.329 0-20.614.05-37.33.11-37.33s.11 16.708.11 37.33c0 20.621-.05 37.329-.11 37.329zm-28.883-.303a.978.978 0 01.025-.183c.026-.128.056-.303.098-.529.09-.474.221-1.153.391-2.028.353-1.766.85-4.31 1.488-7.443a1912.251 1912.251 0 015.158-24.518c2.075-9.559 4.03-18.206 5.472-24.454.731-3.111 1.323-5.633 1.73-7.391.213-.854.375-1.537.49-2.006.055-.222.097-.393.131-.521a.8.8 0 01.051-.175c-.006.06-.016.12-.03.179-.03.128-.063.303-.11.525-.106.474-.255 1.148-.446 2.015-.396 1.762-.961 4.289-1.663 7.408a3863.912 3863.912 0 00-5.408 24.467 3541.91 3541.91 0 00-5.221 24.501l-1.557 7.43-.425 2.023-.119.521a.9.9 0 01-.055.179zm20.876-69.88c-.157.04-.318.061-.48.065l-1.314.093c-1.11.073-2.64.15-4.324.316-1.684.167-3.206.393-4.307.538l-1.306.166a2.38 2.38 0 01-.484.035 2.02 2.02 0 01.472-.12 71.653 71.653 0 015.604-.841c1.696-.179 3.227-.217 4.337-.252.556 0 1.007-.025 1.318-.021.161-.013.324-.005.484.021zm9.725-5.419a.812.812 0 01-.328.085 4.342 4.342 0 01-.918.038 5.3 5.3 0 01-2.836-.999 5.333 5.333 0 01-1.841-2.385 4.285 4.285 0 01-.255-.883.972.972 0 01-.026-.338c.038 0 .11.466.425 1.161a5.656 5.656 0 001.833 2.266 5.717 5.717 0 002.725 1.025c.74.072 1.216-.022 1.22.03zm-28.305-7.661l29.112-.094-1.594-19.286c-.174-4.413-.149-4.938-.255-9.013 0 0 4.132 5.019 7.381 8.535a6.6 6.6 0 007.687 1.48l17.008-11.91-3.181-8.194-15.46 9.5c-.705-.427-6.726-9.06-10.884-13.269a14.69 14.69 0 00-10.03-4.34 73.548 73.548 0 00-9.389.38 9.812 9.812 0 00-5.99 2.924 9.88 9.88 0 00-2.756 6.085c-.297 3.606-.06 7.793-.06 14.907l-1.59 22.295z" fill="#2B3A8C"/><path d="M59.263 65.091v3.244c0 2.006.093 4.775.178 7.835.085 3.06.102 5.83.026 7.836a50.572 50.572 0 01-.128 2.373c-.021.256-.038.47-.05.644a1.483 1.483 0 01-.026.222v-.226c0-.15 0-.384.034-.645.038-.559.072-1.37.098-2.368.063-2.006.033-4.776-.052-7.836-.085-3.06-.157-5.83-.153-7.835 0-1.003 0-1.814.03-2.373v-.645l.043-.226zm38.696 9.061a1.78 1.78 0 01.064-.401c.047-.244.123-.585.208-.957.085-.37.17-.712.234-.955.028-.134.07-.264.123-.389a1.892 1.892 0 01-.06.427c-.05.248-.123.585-.212.956-.09.371-.17.708-.234.952a1.65 1.65 0 01-.123.367zm1.535.243a14.14 14.14 0 01-.395-1.54 14.727 14.727 0 01-.31-1.554c.162.503.294 1.016.394 1.536.132.513.236 1.033.31 1.558zm-13.606-1.698l-.157-.15-.426-.427c-.382-.38-.935-.926-1.594-1.63a26.293 26.293 0 01-2.173-2.599 15.29 15.29 0 01-1.977-3.645 10.247 10.247 0 01-.65-4.088 8.563 8.563 0 01.73-3.303 4.84 4.84 0 011.953-2.108l.187-.103s-.264.14-.685.474a4.857 4.857 0 00-1.395 1.767 8.482 8.482 0 00-.744 3.29c-.057 1.38.165 2.759.655 4.05a15.307 15.307 0 001.956 3.632c.665.91 1.383 1.78 2.151 2.603a50.76 50.76 0 001.578 1.648l.425.448c.058.044.113.09.166.14z" fill="#000"/><path d="M66.95 64.758a5.08 5.08 0 01-1-1.083 5.03 5.03 0 01-.824-1.225c.386.31.723.677 1 1.088.334.362.613.774.824 1.22zm6.607 7.542a10.07 10.07 0 01-1.381 1.536 9.756 9.756 0 01-1.535 1.382 9.77 9.77 0 011.377-1.54c.46-.516.977-.978 1.54-1.379zm6.416 10.814c-.063.021-.297-.64-.73-1.374-.435-.734-.885-1.28-.851-1.31a4.408 4.408 0 011.569 2.684h.012zm-16.62-1.224a6.144 6.144 0 01-.68-2.135 6.24 6.24 0 01-.086-2.245c.069 0 .09 1 .302 2.207.213 1.208.545 2.15.464 2.172zm8.835 4.745a3.98 3.98 0 01-.484-1.801 4.103 4.103 0 01.157-1.857c.064 0-.03.832.064 1.84.093 1.007.323 1.818.263 1.818zm-3.486 6.939a12.006 12.006 0 01-2.003-1.122 11.533 11.533 0 01-1.88-1.315c.7.312 1.37.689 2 1.127.667.376 1.298.815 1.883 1.31zm13.704-2.048c.03.06-.957.554-2.1 1.28-1.145.725-2.016 1.404-2.055 1.353a11.522 11.522 0 014.154-2.633zm-17.238 7.822a10.684 10.684 0 01-2.147-.316 10.637 10.637 0 01-2.1-.533c.717.033 1.43.139 2.126.316.723.106 1.434.284 2.121.533zm9.189-1.502a3.891 3.891 0 01-1.012-1.336c-.3-.48-.493-1.02-.566-1.583.064-.021.323.674.761 1.477.438.802.868 1.404.817 1.442zm10.34.738a3.108 3.108 0 01-.663.97c-.425.494-.782.853-.83.823.16-.362.385-.69.664-.969.413-.508.782-.875.83-.824zM65.785 69.235c.034.052-.349.363-.85.7a2.764 2.764 0 01-.97.517c-.034-.052.345-.363.85-.7.286-.236.616-.411.97-.517zm7.173-8.049a9.645 9.645 0 01-.766-2.193 9.55 9.55 0 01-.425-2.288c.265.727.48 1.472.642 2.228.235.737.418 1.49.549 2.253zm6.892 7.328c-.025.06-.646-.18-1.445-.333-.8-.153-1.463-.162-1.463-.226a3.042 3.042 0 011.505 0 3 3 0 011.403.559zm4.737-6.205a3.293 3.293 0 01-1.624.051 3.339 3.339 0 01-1.531-.538c.025-.064.697.188 1.565.32.867.133 1.585.081 1.59.167zm4.847 6.921a10.65 10.65 0 01.744-4.621c.064 0-.209 1.033-.425 2.305-.217 1.271-.255 2.317-.32 2.317zm5.693 8.174A9.616 9.616 0 0193.614 76a9.743 9.743 0 01-1.353-1.563c.553.414 1.06.885 1.514 1.405.505.47.958.994 1.352 1.562zm4.737-.628c-.187.5-.443.97-.761 1.396-.26.468-.58.898-.953 1.28.19-.498.448-.968.765-1.395.256-.47.575-.9.949-1.28zm5.497-2.688a8.002 8.002 0 01-.918-1.643 8.132 8.132 0 01-.719-1.737c.37.509.678 1.06.919 1.643.306.549.547 1.131.718 1.737zm7.484-3.108a8.999 8.999 0 01-1.952-.234 8.8 8.8 0 01-1.913-.457 8.99 8.99 0 011.951.235c.653.08 1.295.233 1.914.457zm-59.441 7.973a9.902 9.902 0 01.79-1.942c.263-.65.594-1.271.987-1.852a10.124 10.124 0 01-.787 1.946 10.167 10.167 0 01-.99 1.848zm3.966-7.008a7.24 7.24 0 01-1.275-1.28 7.206 7.206 0 01-1.123-1.421c.474.375.902.805 1.276 1.28.43.427.806.904 1.123 1.421zm-.327 11.275c.038.048-.26.36-.659.692-.4.333-.761.572-.8.525-.038-.047.256-.359.66-.696.404-.337.757-.559.8-.52zm1.34-18.739c.046.038-.132.341-.4.679-.268.337-.523.563-.583.563-.06 0 .132-.341.4-.679.268-.337.532-.601.583-.563z" fill="#FAFAFA"/><path opacity=".3" d="M80.603 66.423c1.798 5.672 3.184 11.625 4.983 17.297l-.425-11.75a28.052 28.052 0 01-4.558-5.547z" fill="#000"/><path d="M51.346 73.832a.848.848 0 01.055-.141l.174-.393a51.8 51.8 0 01.668-1.434 79.414 79.414 0 015.12-9.069 52.16 52.16 0 01.88-1.31l.246-.354c.06-.077.09-.12.093-.12l-.076.133-.234.358-.85 1.327a82.456 82.456 0 00-2.683 4.46 119.562 119.562 0 00-2.432 4.605l-.693 1.417-.188.388a.624.624 0 01-.08.133z" fill="#000"/><path d="M54.215 68.412s-.178.072-.463.196a5.907 5.907 0 00-1.973 1.379c-.212.221-.331.375-.344.366a.478.478 0 01.068-.12 4.978 4.978 0 011.14-1.11 5.07 5.07 0 011.084-.575 4.01 4.01 0 01.353-.11.5.5 0 01.136-.026z" fill="#000"/><path d="M54.615 59.658a13.044 13.044 0 01-1.275 1.985c-.435.66-.927 1.28-1.471 1.852.362-.7.79-1.364 1.275-1.984.43-.664.923-1.284 1.471-1.853z" fill="#FAFAFA"/><path d="M57.685 52.715a1.017 1.017 0 001.08-.512c.238-.355.349-.786.561-1.157.63-1.114 2.067-1.6 2.645-2.748.08-.158.132-.38 0-.491-.132-.11-.319-.034-.463.038l-3.789 1.904" fill="#FFBE9D"/><path d="M57.71 49.749a1.79 1.79 0 01.388-.248c.259-.145.633-.35 1.1-.597l1.646-.854.477-.243a.848.848 0 01.616-.15.349.349 0 01.23.33.726.726 0 01-.073.336 2.73 2.73 0 01-.344.525 15.932 15.932 0 01-1.7 1.511 3.219 3.219 0 00-.617.73c-.15.256-.251.53-.37.772a1.494 1.494 0 01-.897.892.54.54 0 01-.464-.038c.144.007.288-.01.425-.051a1.452 1.452 0 00.77-.875c.102-.24.196-.517.349-.803a3.36 3.36 0 01.642-.793 19.384 19.384 0 001.68-1.498c.122-.144.227-.303.31-.474.076-.158.076-.32 0-.341-.077-.022-.273.05-.426.132l-.48.239-1.697.828c-.476.226-.85.427-1.135.529-.135.068-.28.116-.43.14z" fill="#EB996E"/></svg>