<svg width="190" height="192" fill="none" xmlns="http://www.w3.org/2000/svg"><g clip-path="url(#clip0)"><path d="M175.924 181.972c0 .06-38.666.112-86.333.112s-86.358-.052-86.358-.112c0-.06 38.657-.111 86.358-.111 47.701 0 86.333.047 86.333.111z" fill="#000"/><path d="M92.138 14.201l20.562-.857a6.656 6.656 0 014.842 1.8 6.686 6.686 0 012.108 4.725l.726 31.837a6.694 6.694 0 01-1.667 4.57 6.663 6.663 0 01-4.316 2.228 2.217 2.217 0 00-1.983 2.296l2.564 67.256a8.357 8.357 0 01-2.192 5.971 8.319 8.319 0 01-5.753 2.687l-78.533 3.466a2.216 2.216 0 01-2.11-1.295 2.23 2.23 0 01-.202-.847L22.709 21.303a2.218 2.218 0 01.57-1.554 2.208 2.208 0 011.486-.724L92.138 14.2z" fill="#28A8DF"/><path opacity=".3" d="M26.12 135.819l.064 2.206 84.567-7.797-1.615-116.747S88.621 16.6 88.232 16.6c-.389 0-62.112 119.219-62.112 119.219z" fill="#000"/><path d="M81.432 7.938l24.541-1.5 2.534 121.006-86.38 8.781L9.41 15.855l72.023-7.917z" fill="#EBEBEB"/><path d="M81.432 7.938s-.427.056-1.282.15l-3.735.428L62.08 10.11 9.417 15.936l.073-.094c3.42 32.253 7.856 74.148 12.75 120.375l-.12-.098 19.36-1.971 67.032-6.811-.094.107c-1.103-52.905-1.992-96.3-2.496-121.018l.055.047-18.266 1.092-4.701.275-1.586.085s.534-.043 1.585-.111l4.702-.3 18.262-1.14h.056v.052c.525 24.705 1.457 68.113 2.564 121.005v.098h-.098l-66.994 6.837-19.36 1.967h-.111v-.112A768980.21 768980.21 0 019.336 15.846v-.086h.081l52.655-5.744L76.419 8.46l3.74-.399 1.273-.124z" fill="#000"/><path d="M5.118 11.832L16.81 133.617l90.461-8.542L94.228 3.385l-89.11 8.447z" fill="#fff"/><path d="M5.118 11.832L94.22 3.294h.09v.086c3.666 34.163 8.184 76.252 13.065 121.69v.112h-.111l-.641.06-89.803 8.473h-.099v-.103C9.845 61.516 5.203 12.719 5.118 11.832c.085.887 4.808 49.692 11.791 121.776l-.107-.094 89.821-8.491.641-.06-.103.124c-4.864-45.45-9.368-87.53-13.023-121.694l.099.081-89.12 8.358z" fill="#000"/><path d="M74.496 104.195a13.387 13.387 0 012.264-7.42 13.34 13.34 0 015.996-4.91 13.306 13.306 0 0114.526 2.932 13.392 13.392 0 012.855 14.574 13.355 13.355 0 01-4.926 5.986 13.312 13.312 0 01-7.415 2.234 13.335 13.335 0 01-9.414-3.941 13.397 13.397 0 01-3.886-9.455zm26.421.065a13.137 13.137 0 00-2.188-7.296 13.098 13.098 0 00-5.863-4.848 13.062 13.062 0 00-14.274 2.808 13.148 13.148 0 00-2.872 14.294 13.115 13.115 0 004.808 5.9 13.07 13.07 0 007.268 2.229c3.47.004 6.8-1.371 9.26-3.824a13.15 13.15 0 003.861-9.263z" fill="#E0E0E0"/><path d="M76.03 104.2a11.675 11.675 0 011.974-6.472 11.635 11.635 0 015.229-4.281A11.604 11.604 0 0195.9 96.002a11.68 11.68 0 012.493 12.708 11.653 11.653 0 01-4.295 5.222 11.615 11.615 0 01-6.465 1.95 11.635 11.635 0 01-8.21-3.437 11.688 11.688 0 01-3.394-8.245zm21.545.051a9.953 9.953 0 00-1.657-5.526 9.92 9.92 0 00-4.441-3.672 9.894 9.894 0 00-10.812 2.128 9.96 9.96 0 00-2.175 10.827 9.935 9.935 0 003.643 4.469 9.896 9.896 0 005.505 1.687 9.912 9.912 0 007.003-2.903 9.958 9.958 0 002.917-7.01h.017z" fill="#E0E0E0"/><path d="M78.876 104.371a8.54 8.54 0 01.924-3.856l1.53.776a6.918 6.918 0 001.489 8.176 6.882 6.882 0 008.25.82l.894 1.469a8.586 8.586 0 01-8.702.155 8.609 8.609 0 01-3.213-3.171 8.637 8.637 0 01-1.172-4.365v-.004zm4.634-7.634a8.59 8.59 0 0110.295 1.814 8.637 8.637 0 01.958 10.434l-1.454-.917a6.923 6.923 0 00-.77-8.35 6.88 6.88 0 00-8.238-1.457l-.791-1.524z" fill="#E0E0E0"/><path d="M92.083 34.699c0 .064-17.061 1.714-38.123 3.723-21.062 2.009-38.145 3.56-38.149 3.508-.004-.051 17.061-1.713 38.127-3.718 21.066-2.005 38.14-3.56 38.145-3.513zm-41.384-.942c0 .06-7.873.856-17.596 1.777-9.723.921-17.608 1.615-17.617 1.555-.008-.06 7.873-.856 17.596-1.777 9.723-.921 17.608-1.62 17.617-1.555zm41.717 5.919c0 .06-17.065 1.714-38.123 3.719-21.057 2.005-38.144 3.56-38.148 3.5-.005-.06 17.06-1.714 38.127-3.723 21.066-2.009 38.14-3.56 38.144-3.495zm.334 4.961c0 .06-17.066 1.714-38.123 3.718-21.058 2.005-38.145 3.56-38.15 3.5-.003-.06 17.062-1.713 38.128-3.722 21.066-2.01 38.14-3.556 38.145-3.496zm.333 4.961c0 .06-17.066 1.714-38.123 3.723-21.058 2.009-38.145 3.555-38.149 3.495-.004-.06 17.061-1.713 38.127-3.718 21.066-2.005 38.14-3.56 38.145-3.5zm.333 4.961c0 .064-17.065 1.713-38.127 3.722-21.062 2.01-38.14 3.56-38.149 3.496-.008-.064 17.062-1.714 38.127-3.718 21.066-2.005 38.14-3.56 38.15-3.5zm.329 4.986c0 .06-17.061 1.714-38.123 3.718-21.062 2.005-38.144 3.539-38.144 3.479 0-.06 17.061-1.714 38.127-3.723 21.066-2.009 38.136-3.56 38.14-3.474zm.334 4.939c0 .06-16.84 1.714-37.61 3.676-20.772 1.962-37.645 3.508-37.65 3.427-.003-.081 16.84-1.714 37.632-3.671 20.793-1.958 37.623-3.492 37.628-3.432zm-29.387 9.545c0 .06-10.168 1.028-22.716 2.163-12.548 1.135-22.733 2-22.737 1.94-.005-.06 10.163-1.032 22.716-2.141 12.552-1.11 22.728-2.022 22.737-1.962zM52.34 115.042c0 .06-6.184.638-13.826 1.285-7.642.647-13.835 1.127-13.843 1.067-.009-.06 6.184-.639 13.826-1.285 7.642-.647 13.839-1.127 13.843-1.067zm-11.89 4.738c0 .06-3.466.407-7.753.771-4.287.364-7.77.613-7.778.553-.009-.06 3.47-.407 7.757-.776 4.286-.368 7.77-.608 7.774-.548z" fill="#000"/><path d="M39.497 84.858c0 .06-4.077.514-9.125 1.011-5.047.497-9.142.857-9.146.793-.004-.065 4.077-.514 9.125-1.016 5.047-.5 9.142-.852 9.146-.788z" fill="#28A8DF"/><path opacity=".3" d="M14.948 113.011l8.304-1.61 4.641-7.017-13.232 4.356.287 4.271z" fill="#000"/><path d="M.382 104.041l22.173-2.103 5.338 2.446-4.26 4.806-22.524 2.433-.727-7.582z" fill="#28A8DF"/><path d="M67.615 84.31a.407.407 0 01.077.025.956.956 0 01.214.099c.267.166.507.37.713.608.777.92 1.386 1.97 1.8 3.102a13.118 13.118 0 01.931 5.594 8.686 8.686 0 01-.303 1.714c-.18.589-.41 1.162-.684 1.714a11.474 11.474 0 01-2.368 3.204 11.79 11.79 0 01-3.662 2.403c-1.48.616-3.084.868-4.68.737a10.237 10.237 0 01-4.88-1.858 10.278 10.278 0 01-3.335-4.024 8.534 8.534 0 01-.743-2.72 6.439 6.439 0 01.299-2.87 4.605 4.605 0 011.71-2.4c.424-.286.91-.47 1.418-.535a3.46 3.46 0 011.522.18 4.485 4.485 0 012.346 1.95c.522.91.839 1.922.928 2.968a12.953 12.953 0 01-.91 6.237 12.314 12.314 0 01-3.775 5.034 11.311 11.311 0 01-5.658 2.279c-1.987.239-4-.089-5.809-.947a9.941 9.941 0 01-4.128-3.855 9.7 9.7 0 01-1.398-5.192c.006-.88.175-1.753.5-2.57a5.056 5.056 0 011.458-2.057 3.024 3.024 0 012.32-.685 3.469 3.469 0 012.044 1.14 4.38 4.38 0 011.025 2.008 5.667 5.667 0 010 2.164 11.15 11.15 0 01-1.521 3.684 17.513 17.513 0 01-2.137 2.844c-.7.76-1.46 1.462-2.274 2.099a19.633 19.633 0 01-2.163 1.444 16.501 16.501 0 01-3.282 1.452c-.782.249-1.205.334-1.205.334l.303-.098c.197-.064.505-.137.89-.279a17.204 17.204 0 003.252-1.486 20.725 20.725 0 002.137-1.448 19.71 19.71 0 002.243-2.099 17.74 17.74 0 002.108-2.836 11.155 11.155 0 001.487-3.641 5.502 5.502 0 000-2.1 4.172 4.172 0 00-.992-1.927 3.268 3.268 0 00-1.94-1.08 2.832 2.832 0 00-2.175.656 4.865 4.865 0 00-1.402 1.983 6.836 6.836 0 00-.479 2.49 9.488 9.488 0 001.41 5.101 9.742 9.742 0 004.048 3.761 10.363 10.363 0 005.671.913 11.098 11.098 0 005.556-2.236 12.09 12.09 0 003.689-4.957 12.827 12.827 0 00.897-6.126 7.033 7.033 0 00-.897-2.878 4.276 4.276 0 00-2.227-1.86 3.185 3.185 0 00-1.428-.166c-.474.06-.928.23-1.324.496a4.386 4.386 0 00-1.629 2.288 6.165 6.165 0 00-.29 2.78c.088.92.332 1.818.722 2.656a10.09 10.09 0 003.264 3.95 10.056 10.056 0 004.78 1.833 9.794 9.794 0 004.598-.711 11.737 11.737 0 003.633-2.352 11.37 11.37 0 002.35-3.157c.27-.542.498-1.105.68-1.683.16-.548.261-1.11.303-1.68a13.021 13.021 0 00-.884-5.547c-.4-1.13-.994-2.18-1.752-3.106a3.31 3.31 0 00-.689-.617 2.323 2.323 0 00-.303-.141z" fill="#000"/><path d="M74.445 24.384s0-.073-.03-.21-.043-.347-.073-.609c-.06-.544-.145-1.332-.26-2.356l-.958-8.837.073.06-46.158 4.879.098-.124c.427 4.125.855 8.139 1.248 12.016l-.116-.073 32.94-3.427 9.701-.985 2.616-.257.68-.065h.239l-.223.03-.666.077-2.59.283-9.672 1.045-32.999 3.492h-.111v-.107c-.427-3.856-.825-7.895-1.257-12.02v-.108h.112l46.158-4.79h.068v.07c.38 3.808.684 6.815.889 8.884l.227 2.343c.025.257.042.454.055.596.013.141.009.193.009.193z" fill="#2B3A8C"/><path d="M126.142 45.066a1.08 1.08 0 01.401-.647 2.714 2.714 0 011.71-.429 7.27 7.27 0 00.696-2.262 1.42 1.42 0 01-.799-.227.672.672 0 01-.132-.042c-.573-.262-.628-1.114-.269-1.633a3.265 3.265 0 011.559-1.002c-.416.096-.821.24-1.205.428-.427.129-.991 0-1.038-.428a.849.849 0 01.064-.386c.081-.252.158-.505.239-.762a.854.854 0 01.334-.531c.138-.049.281-.083.427-.103.479-.129.731-.715 1.209-.857.366-.036.735.02 1.073.163.359.081.829 0 .94-.338a3.418 3.418 0 01-1.222-1.033 1.184 1.184 0 01.115-1.482c.359-.23.79-.32 1.21-.248.47.021 1.056.128 1.18.582a1.216 1.216 0 011.333.5c.094.142.158.301.188.468l1.21-.12c-.338-.368-.817-.587-1.112-.99-.295-.402-.235-1.13.248-1.233.182-.002.363-.018.543-.047.12-.047.222-.159.351-.163a.471.471 0 01.264.103l2.565 1.67-.693-1.61c-.213-.497-.376-1.178.065-1.487.44-.308 1.055.133 1.145.647a.822.822 0 01.97.767.852.852 0 01.957.285.853.853 0 01.035 1c.431.01.851.136 1.218.364a.725.725 0 01.45-.626.726.726 0 01.759.125 1.293 1.293 0 01.188-.732.435.435 0 01.312-.193.429.429 0 01.346.12.859.859 0 01.899-1.064.858.858 0 01.491.207l.427-.514a1.133 1.133 0 011.09.566c.175.398-.12.968-.552.929.304 0 .235.48.056.724-.244.347-.492.69-.739 1.032a.95.95 0 011.175-.102.73.73 0 01.818-.168.741.741 0 01.242.168.59.59 0 011.064.18c.077-.197.35-.21.56-.189.309-.001.61.102.855.291.213.215.213.66-.073.763.261-.146.594.141.598.428a1.06 1.06 0 01-.427.75 2.566 2.566 0 00-.607.647c.253-.163.557-.229.855-.184a3.23 3.23 0 011.547.312c.09-.21.38-.223.607-.175a3.601 3.601 0 011.808 1.045c.235.24.449.6.286.895a.917.917 0 01-.338.3l-1.658 1.02c.896.282 1.681.84 2.244 1.593.329.193.744.21 1.043.45.299.24.273.857-.107.857a.696.696 0 01.201.81.662.662 0 01-.257.286.87.87 0 01-.179.202 1.223 1.223 0 01-.427.231.86.86 0 01-.736.339c.313.262.577.576.783.93a1.48 1.48 0 010 1.507c0 .026-.043.043-.06.064a.732.732 0 01-.317.459.576.576 0 01.06.398 1.61 1.61 0 011.024 1.3 1.61 1.61 0 01-.665 1.514c-.376.27-1.077.219-1.111-.244a1.263 1.263 0 01-.949.694 1.204 1.204 0 01.048.972 1.206 1.206 0 01-.68.695 1.282 1.282 0 01.368 1.165 1.291 1.291 0 01-.77.947.992.992 0 01-.592 1.306.988.988 0 01-1.271-.66 2.084 2.084 0 01-.74.926.716.716 0 01-.831-.041.721.721 0 01-.19-.225 1.347 1.347 0 01-1.988.643.88.88 0 01-.798.912.873.873 0 01-.945-.758l-2.261-.021a7.947 7.947 0 01-1.496-.108 4.05 4.05 0 01-1.71-.796 1.41 1.41 0 00-.521-.322 1.391 1.391 0 00-.692.107 3.658 3.658 0 01-3.475-.822 1.81 1.81 0 00-.462-.368 1.65 1.65 0 00-.666-.09 6.642 6.642 0 01-1.642-.24 1.733 1.733 0 01-1.162-.763c-.214-.428.038-1.08.517-1.075a1.038 1.038 0 00-.252-.857.621.621 0 00-.855-.034.43.43 0 00.205.724c-.513.355-1.308-.142-1.32-.763a1.215 1.215 0 011.226-1.143 2.815 2.815 0 01-.034-1.371 1.008 1.008 0 01-1.372.154 1.754 1.754 0 01-1.12.81 1.045 1.045 0 01-1.149-.63.743.743 0 01.116-.661.744.744 0 01.597-.303.899.899 0 01.791-1.285 1.391 1.391 0 01.855-1.478.738.738 0 01-.877-.135.732.732 0 01-.166-.268c-.286.454-.987.343-1.449.069a.971.971 0 01-.602-1.075z" fill="#000"/><path d="M126.142 45.066a.803.803 0 00.145.707c.201.236.46.414.752.518.187.07.386.103.586.098a.735.735 0 00.598-.317h-.051a.766.766 0 00.443.469.755.755 0 00.642-.04l-.03-.056a1.448 1.448 0 00-.876 1.517l.043-.048a.855.855 0 00-.778.429.882.882 0 00-.055.938l.042-.064a.743.743 0 00-.756.57.819.819 0 00.38.938 1.198 1.198 0 001.09.102c.364-.156.672-.419.885-.753h-.082a1.064 1.064 0 001.449-.163l-.098-.047c-.106.46-.094.94.034 1.396l.056-.073a1.338 1.338 0 00-.855.313 1.152 1.152 0 00-.427.814.965.965 0 00.448.857.855.855 0 00.966.051l.146-.103h-.171a.35.35 0 01-.253-.428.393.393 0 01.428-.313.605.605 0 01.517.313c.107.2.147.427.115.651l.069-.06a.592.592 0 00-.449.21.862.862 0 00-.141.921c.071.15.175.284.303.39.253.2.544.345.855.428.311.09.628.155.949.197.641.133 1.38-.128 1.799.467a3.78 3.78 0 002.881 1.007c.354-.043.703-.12 1.043-.231a.637.637 0 01.461.055c.15.093.293.196.428.309.297.222.621.405.966.544a5.813 5.813 0 002.205.317h2.269l-.085-.073a.962.962 0 001.915-.167l-.137.073a1.438 1.438 0 002.137-.69h-.167a.658.658 0 00.483.403.97.97 0 00.637-.073c.36-.237.64-.578.803-.977h-.166a1.078 1.078 0 001.372.664 1.079 1.079 0 00.662-1.375l-.06.12a1.278 1.278 0 00.821-.981 1.289 1.289 0 00-.385-1.285l-.026.158a1.277 1.277 0 00.744-.746 1.293 1.293 0 00-.064-1.053l-.068.137a1.345 1.345 0 001.021-.74l-.179-.035c.008.118.06.23.145.313.084.076.188.13.299.154.21.047.429.03.628-.052a1.6 1.6 0 00.812-.942 1.67 1.67 0 00-.068-1.285 1.711 1.711 0 00-.936-.857l.06.111a.689.689 0 00-.069-.467l-.034.129a.795.795 0 00.359-.518v.043c.155-.201.253-.44.285-.691a1.422 1.422 0 00-.101-.74 3.128 3.128 0 00-.915-1.204l-.072.167a.96.96 0 00.82-.377l-.047.034c.273-.074.511-.242.671-.475l-.025.03a.721.721 0 00.35-.596.793.793 0 00-.29-.655l-.06.171a.371.371 0 00.307-.154.596.596 0 00.099-.308.71.71 0 00-.244-.575 6.99 6.99 0 00-1.051-.458l.03.026a4.58 4.58 0 00-2.291-1.628l.021.176.752-.467.569-.352c.2-.113.391-.24.573-.38a.584.584 0 00.183-.348.739.739 0 00-.059-.377 1.726 1.726 0 00-.428-.561 3.713 3.713 0 00-1.795-.917.94.94 0 00-.363 0 .423.423 0 00-.329.24l.137-.047a2.785 2.785 0 00-1.244-.308h-.628c-.23-.001-.455.07-.642.205l.15.12c.184-.364.628-.557.893-.964a.724.724 0 00.09-.724.653.653 0 00-.273-.274.432.432 0 00-.407 0l.082.172a.423.423 0 00.256-.279.632.632 0 000-.355.615.615 0 00-.175-.313.94.94 0 00-.291-.18 2.42 2.42 0 00-.619-.124 1.106 1.106 0 00-.334 0 .4.4 0 00-.299.235h.188a.644.644 0 00-.56-.518.626.626 0 00-.688.308h.158a.827.827 0 00-1.205 0h.128a1.04 1.04 0 00-1.282.112l.141.124.628-.857c.124-.147.213-.32.261-.505a.637.637 0 000-.313.296.296 0 00-.103-.159.27.27 0 00-.183-.055v.188a.638.638 0 00.607-.377.787.787 0 00.025-.703 1.219 1.219 0 00-1.162-.599h-.043l-.068-.004-.428.51h.133a.953.953 0 00-1.539.933l.163-.077a.433.433 0 00-.428-.145.618.618 0 00-.376.231c-.139.232-.208.5-.197.771l.154-.06a.816.816 0 00-1.17.149.826.826 0 00-.159.404l.137-.077a2.488 2.488 0 00-1.282-.377l.072.141a.933.933 0 00-1.064-1.422l.12.081a.93.93 0 00-.362-.692.914.914 0 00-.762-.165l.111.069a1.011 1.011 0 00-.346-.578.885.885 0 00-.633-.232.672.672 0 00-.538.403 1.155 1.155 0 00-.052.655c.097.4.24.787.428 1.153l.47 1.1.124-.102-1.581-1.032-.774-.506a2.144 2.144 0 00-.427-.24.373.373 0 00-.274.047c-.073.039-.132.086-.188.107a1.15 1.15 0 01-.427.035.586.586 0 00-.428.218.987.987 0 00-.161.451.986.986 0 00.067.474c.133.277.337.513.59.686.229.164.446.344.65.54l.047-.129-1.21.124.081.065a1.27 1.27 0 00-.573-.862 1.28 1.28 0 00-1.021-.158l.09.047a.858.858 0 00-.616-.54 3.07 3.07 0 00-.777-.098 2.266 2.266 0 00-.774.086.949.949 0 00-.581.514 1.424 1.424 0 00.252 1.43 4.12 4.12 0 001.111.857l-.055-.077a.503.503 0 01-.428.308 1.24 1.24 0 01-.572-.047 3.658 3.658 0 00-.586-.145.876.876 0 00-.603.115c-.346.21-.551.557-.854.711-.15.082-.334.06-.526.137a.704.704 0 00-.359.429l-.316.998a.622.622 0 00.038.531.728.728 0 00.427.287c.167.037.339.037.505 0 .155-.039.306-.095.449-.167a2.39 2.39 0 01.854-.295l-.021-.09a5.628 5.628 0 00-.992.475 1.852 1.852 0 00-.696.745 1.36 1.36 0 00-.064.934.826.826 0 00.598.6c.244.158.53.239.821.232l-.035-.04a7.234 7.234 0 01-.683 2.254h.021a4.296 4.296 0 00-1.133.137 1.655 1.655 0 00-.688.403 1.136 1.136 0 00-.243.403.517.517 0 00-.035.15c.047-.202.149-.386.295-.532a1.55 1.55 0 01.68-.385 4.115 4.115 0 011.124-.124c.361-.71.601-1.477.709-2.267v-.038h-.038a1.395 1.395 0 01-.782-.223.766.766 0 01-.547-.552 1.289 1.289 0 01.068-.857c.154-.293.386-.536.671-.703.309-.187.635-.343.975-.467l.282-.111-.299.021a2.442 2.442 0 00-.877.296 2.218 2.218 0 01-.427.163 1.03 1.03 0 01-.457 0 .631.631 0 01-.372-.24.522.522 0 01-.026-.429c.107-.32.21-.65.321-.99a.586.586 0 01.295-.376c.181-.032.36-.078.534-.137.359-.176.568-.527.885-.711a1.3 1.3 0 011.089.047c.203.066.418.084.629.051a.624.624 0 00.521-.394v-.047l-.043-.03c-.407-.23-.77-.53-1.072-.887a1.287 1.287 0 01-.231-1.285.817.817 0 01.5-.428c.235-.07.482-.096.726-.077.25 0 .498.032.74.094a.697.697 0 01.517.428l.021.073h.073a1.149 1.149 0 011.228.475c.088.13.148.275.178.429v.069h.094l1.21-.125h.153l-.106-.115a5.793 5.793 0 00-.667-.557 1.526 1.526 0 01-.534-.617.853.853 0 01.064-.771.423.423 0 01.333-.159c.158.014.317 0 .47-.043.163-.081.261-.184.364-.145.13.058.254.131.367.218l.774.506 1.577 1.032.231.154-.107-.257c-.158-.36-.312-.728-.47-1.096a5.296 5.296 0 01-.406-1.118.991.991 0 01.038-.553.496.496 0 01.402-.304.828.828 0 01.79.668v.099l.09-.03a.753.753 0 01.902.685v.133l.12-.052a.78.78 0 01.854.236.772.772 0 010 .917l-.102.141h.175c.415.008.82.13 1.171.351l.145.09v-.167a.656.656 0 01.393-.51.643.643 0 01.637.082l.146.146v-.206a1.294 1.294 0 01.162-.673c.116-.162.428-.23.522-.081l.256.343-.094-.429a.768.768 0 01.807-.926c.159.012.31.074.432.177l.073.06.056-.069.427-.514-.068.034a1.047 1.047 0 01.991.497c.167.317-.09.857-.449.81v.188c.06 0 .082 0 .103.082a.474.474 0 010 .218 1.038 1.038 0 01-.231.429l-.628.856.141.125a.853.853 0 011.051-.095l.073.052.056-.065a.633.633 0 01.459-.194.637.637 0 01.459.194l.099.12.06-.14a.5.5 0 01.734-.08c.07.061.122.14.15.229l.043.484.141-.458c.039-.125.252-.15.427-.129.194.013.385.05.569.112a.534.534 0 01.35.35c.047.168 0 .365-.145.43l.081.175c.133-.081.334.034.428.197a.524.524 0 01-.077.527c-.214.351-.663.54-.902.98l-.231.43.376-.3c.282-.228.735-.155 1.137-.146a2.63 2.63 0 011.158.282l.099.06.038-.102c.051-.138.286-.159.479-.12a3.443 3.443 0 011.696.87c.16.133.29.3.381.488a.429.429 0 01-.077.51c-.173.13-.354.248-.543.355l-.568.355-.753.467-.183.112.205.064a4.36 4.36 0 012.197 1.56c.352.119.696.262 1.03.428a.513.513 0 01.166.428c0 .159-.085.287-.209.279h-.308l.248.188a.615.615 0 01.218.497.532.532 0 01-.265.428 1.014 1.014 0 01-.568.399h-.03v.025a.771.771 0 01-.65.3l-.291-.025.218.192c.374.3.667.687.855 1.127a1.237 1.237 0 01-.145 1.238v.026a.63.63 0 01-.269.394l-.077.047.038.081a.498.498 0 01.051.339v.077l.077.03c.367.144.665.423.834.78a1.497 1.497 0 01-.641 1.95.853.853 0 01-.517.042.345.345 0 01-.3-.296l-.021-.373-.158.339a1.158 1.158 0 01-.855.638h-.141l.068.12a1.117 1.117 0 01.042.893 1.118 1.118 0 01-.623.64l-.162.052.137.111a1.207 1.207 0 01.084 1.6 1.2 1.2 0 01-.461.35l-.089.03.03.09a.94.94 0 01-.586 1.152.938.938 0 01-1.103-.566l-.068-.201-.098.188a1.965 1.965 0 01-.723.9c-.312.163-.773.069-.854-.227l-.086-.257-.081.257a1.288 1.288 0 01-.788.73 1.285 1.285 0 01-1.067-.126l-.145-.107v.18a.816.816 0 01-.752.81.828.828 0 01-.817-.673v-.069h-2.346a5.587 5.587 0 01-2.137-.304 4.087 4.087 0 01-.927-.518 4.145 4.145 0 00-.428-.326.81.81 0 00-.573-.064 5.28 5.28 0 01-1.021.227c-.339.03-.68.01-1.013-.06a3.538 3.538 0 01-1.752-.895 1.799 1.799 0 00-.402-.33 1.148 1.148 0 00-.509-.12 7.964 7.964 0 01-.97-.056 6.761 6.761 0 01-.931-.192 2.172 2.172 0 01-.817-.395.798.798 0 01-.32-.75.57.57 0 01.508-.539h-.055v-.064a1.202 1.202 0 00-.137-.737.748.748 0 00-.628-.381.53.53 0 00-.564.428.486.486 0 00.367.574l-.03-.116a.736.736 0 01-.825-.051.863.863 0 01-.393-.728 1.185 1.185 0 011.163-1.02h.077v-.073a2.82 2.82 0 01-.035-1.345l.056-.24-.158.193a.95.95 0 01-1.282.15l-.047-.039-.03.052a1.82 1.82 0 01-.834.715 1.082 1.082 0 01-1-.085.734.734 0 01-.346-.831.667.667 0 01.658-.51h.09l-.047-.077a.862.862 0 01.346-1.122.85.85 0 01.41-.112h.047v-.051a1.377 1.377 0 01.825-1.444l-.03-.056a.704.704 0 01-.995-.385v-.06l-.035.051a.68.68 0 01-.551.3 1.625 1.625 0 01-.573-.09 1.831 1.831 0 01-.743-.497.822.822 0 01-.18-.505c-.038-.09-.021-.15-.025-.15z" fill="#2B3A8C"/><path d="M146.849 46.93a7.246 7.246 0 00-1.921-5.313 7.212 7.212 0 00-5.148-2.3 7.412 7.412 0 00-5.099 1.912 7.443 7.443 0 00-2.423 4.886c-.295 3.363-.518 6.756-.428 7.977.282 3.68 2.565 4.973 3.483 5.346a4.93 4.93 0 001.001.176.03.03 0 01.015.01.031.031 0 01.006.02l-.56 4.283c-.197 2.798-.808 12.3 2.026 12.522 2.833.223 7.265-9.184 7.509-11.995l1.539-17.525z" fill="#FFBE9D"/><path d="M133.369 48.78a.58.58 0 00.521.634.572.572 0 00.658-.48.595.595 0 00-.525-.634.567.567 0 00-.654.48zm-.184-1.722c.068.081.543-.21 1.184-.159.641.051 1.081.403 1.158.33.077-.073-.025-.176-.218-.338a1.706 1.706 0 00-.919-.36 1.622 1.622 0 00-.953.223c-.209.132-.286.265-.252.304zm6.154 2.206a.597.597 0 00.526.638.574.574 0 00.658-.48.597.597 0 00-.526-.638.567.567 0 00-.581.268.592.592 0 00-.077.212zm.12-1.598c.068.082.547-.21 1.184-.158.637.051 1.081.402 1.158.33.077-.073-.026-.176-.218-.339a1.638 1.638 0 00-.919-.36 1.584 1.584 0 00-.949.223c-.209.133-.29.265-.256.304zm-2.705 4.485a4.483 4.483 0 00-1.026-.265c-.158-.03-.312-.073-.329-.184a.796.796 0 01.145-.467l.586-1.187c.816-1.714 1.419-3.084 1.35-3.119-.068-.034-.786 1.316-1.602 2.999l-.565 1.195a.924.924 0 00-.136.626.4.4 0 00.247.257c.091.03.184.05.278.06.345.075.699.104 1.052.085z" fill="#000"/><path d="M136.343 59.618s2.449.39 5.689-1.195c-.192.098-1.128 3.714-5.843 2.347l.154-1.152zm.556-5.929a1.176 1.176 0 011.064-.339 1.053 1.053 0 01.697.429.652.652 0 010 .754.786.786 0 01-.855.141 2.373 2.373 0 01-.778-.544.682.682 0 01-.166-.201.192.192 0 01-.027-.12.189.189 0 01.048-.111" fill="#EB996E"/><path d="M138.6 52.734c-.107 0-.162.668-.799 1.11-.637.44-1.364.303-1.376.398-.013.094.153.145.461.18a1.75 1.75 0 001.15-.296c.322-.218.546-.553.624-.934.051-.283-.013-.458-.06-.458zm.881-7.107c.051.176.692.146 1.436.291.743.146 1.333.399 1.444.253.051-.068-.038-.24-.269-.428a2.48 2.48 0 00-1.052-.459 2.558 2.558 0 00-1.145.043c-.286.082-.436.219-.414.3zm-5.967-.219c.098.155.551.04 1.081.073.53.035.97.172 1.086.03.051-.068 0-.218-.193-.368a1.582 1.582 0 00-1.748-.081c-.196.128-.273.27-.226.346z" fill="#000"/><path d="M131.279 41.673c.014-.206.044-.41.089-.613.112-.297.299-.56.543-.762.774-.767 1.594-1.555 2.565-1.808.598-.154 1.218-.098 1.816-.244a10.77 10.77 0 001.086-.398 8.907 8.907 0 014.607-.249 7.322 7.322 0 012.479.806 8.933 8.933 0 012.218 2.026 13.589 13.589 0 012.474 3.992 6.664 6.664 0 01.355 3.77c-.295 1.255-1.179 2.382-2.265 2.57l-.376-.514-.607-.767c.103.309 0 .283-.252.429a.516.516 0 01-.718-.266c-.218.249-.646-.06-.556-.398-.252.115-.543-.24-.427-.54-.291.086-.428-.386-.543-.703a4.271 4.271 0 00-.248-.488 3.182 3.182 0 01-.32-1.713 3.116 3.116 0 01-.394-1.714c0-.377-.03-.754-.042-1.13-.064-.095-.124-.19-.188-.28a.619.619 0 01-.449.548 1.323 1.323 0 01-.68-.067l-.654-.185-.427.086c.044.37-.035.743-.227 1.062-.069.238-.22.443-.427.579a.314.314 0 01-.332-.054.316.316 0 01-.095-.323.352.352 0 01-.535-.129 1.157 1.157 0 01-.094-.702 2.95 2.95 0 01.667-1.581l-1.248.994a.547.547 0 01-.299.154.312.312 0 01-.221.304.31.31 0 01-.134.009.805.805 0 01-.406-.33c-.256-.321-.513-.857-.235-1.165a.253.253 0 01-.081-.377l-1.398.895c.137-.064.265.15.223.321a.71.71 0 01-.308.369c.103.195.139.42.103.638.252-.197.576.231.474.566a.748.748 0 01-.744.484.51.51 0 01-.551-.429c-.295.039-.543-.381-.427-.698-.223.12-.377-.27-.364-.557.023-.5.134-.992.329-1.452a.065.065 0 01-.024.017.07.07 0 01-.058 0 .084.084 0 01-.05-.073l-.834 1.636a4.329 4.329 0 00-.53 1.478c-.021.215-.068.51-.252.514a.254.254 0 01-.141-.047 2.741 2.741 0 01-1.072-1.482 2.102 2.102 0 01-.129-.651c.074-.461.185-.915.334-1.358z" fill="#000"/><path d="M146.143 49.08c.064 0 2.565-.587 2.325 1.919-.239 2.506-2.697 1.752-2.697 1.68 0-.074.372-3.6.372-3.6z" fill="#FFBE9D"/><path d="M146.626 51.804s.043.035.111.073c.099.055.216.07.325.039a1.088 1.088 0 00.59-.921 1.424 1.424 0 00-.06-.639.5.5 0 00-.299-.364.213.213 0 00-.265.094c-.043.065-.03.116-.043.12-.013.005-.051-.047 0-.15a.298.298 0 01.116-.145.331.331 0 01.243-.043.622.622 0 01.428.428c.085.228.115.474.085.716a1.136 1.136 0 01-.739 1.02.465.465 0 01-.389-.104c-.103-.064-.111-.124-.103-.124z" fill="#EB996E"/><path d="M137.074 41.099a.625.625 0 01-.141-.334.425.425 0 01.145-.369.487.487 0 01.488-.085l.102.047-.034-.107a.471.471 0 01.795-.467l.09-.073a.153.153 0 01-.03-.064.282.282 0 01.06-.231.297.297 0 01.213-.112.51.51 0 01.253.03.66.66 0 00.273.086c.12 0 .184-.095.248-.129a.773.773 0 01.205-.103c.13-.046.268-.066.406-.06.205.01.403.077.573.193.119.082.171.146.179.142.009-.005-.034-.078-.154-.176a1.035 1.035 0 00-.589-.236 1.11 1.11 0 00-.449.047 1.125 1.125 0 00-.227.107c-.077.048-.136.112-.196.112a.643.643 0 01-.231-.086.652.652 0 00-.303-.038.427.427 0 00-.291.15.434.434 0 00-.081.33.328.328 0 00.047.106l.089-.072a.573.573 0 00-.709-.107.578.578 0 00-.265.668l.064-.06a.547.547 0 00-.577.111.518.518 0 00-.034.698c.047.069.077.108.081.082zm-2.859.488a.77.77 0 01-.184-.334.547.547 0 01.06-.428.61.61 0 01.47-.287h.081l-.051-.069a.697.697 0 01-.137-.63.382.382 0 01.244-.23.3.3 0 01.329.072l.291.364-.197-.428a.583.583 0 010-.493.536.536 0 01.427-.3.58.58 0 01.372.073l.124.073-.038-.141c-.06-.197.154-.429.35-.429a.96.96 0 01.581.202l.103.068-.026-.12a.428.428 0 01.171-.39.72.72 0 01.398-.137 1.85 1.85 0 01.718.077c.205.068.401.158.585.27 0 0-.038-.047-.132-.111a1.772 1.772 0 00-.428-.219 1.904 1.904 0 00-.739-.102.852.852 0 00-.453.145.507.507 0 00-.209.484l.077-.051a1.052 1.052 0 00-.646-.223.521.521 0 00-.346.167.426.426 0 00-.107.39l.086-.064a.684.684 0 00-.745.033.657.657 0 00-.268.539c0 .101.022.201.064.293l.094-.056a.429.429 0 00-.428-.107.484.484 0 00-.312.3.79.79 0 00-.004.38.792.792 0 00.171.34l.034-.073a.653.653 0 00-.525.334.607.607 0 00-.047.471.553.553 0 00.149.258.251.251 0 00.043.09zm-6.073.005a.423.423 0 01.175-.295.53.53 0 01.385-.104c.182.026.359.084.521.172l.06.03v-.069a.488.488 0 01.427-.428c.276-.01.548.058.787.197l.337.163-.277-.249a.407.407 0 01-.083-.303.408.408 0 01.16-.271.896.896 0 01.713-.103h.034l.218.039-.171-.142a.425.425 0 01-.112-.362.425.425 0 01.219-.31.649.649 0 01.714.133l.214.201-.133-.261a.993.993 0 01.086-.99.924.924 0 01.701-.368c.182-.01.363.03.525.115.111.06.163.108.167.103.004-.004 0 0-.034-.043a.869.869 0 00-.116-.09.99.99 0 00-.542-.145.958.958 0 00-.77.377 1.07 1.07 0 00-.111 1.088l.081-.065a.744.744 0 00-.854-.154.55.55 0 00-.278.39.487.487 0 00.154.471l.047-.098h-.034a1.005 1.005 0 00-.804.133.58.58 0 00-.201.355.434.434 0 00.12.381l.06-.085a1.487 1.487 0 00-.855-.197.568.568 0 00-.496.54l.056-.04a1.54 1.54 0 00-.552-.162.593.593 0 00-.427.129.429.429 0 00-.145.235c.005.03.016.058.034.082zm3.654-5.484a.4.4 0 00.145.069 1.9 1.9 0 00.428.06c.215-.003.429.048.619.15a.394.394 0 01.197.291.292.292 0 01-.141.322l.073.064c.034-.146.222-.223.388-.304.173-.088.357-.148.548-.18a.665.665 0 01.529.128.43.43 0 01.197.429l-.03.137.116-.086c.221-.159.488-.243.76-.24.216.002.43.051.624.146.168.096.322.214.458.351a.44.44 0 00-.086-.129 1.096 1.096 0 00-.342-.278 1.42 1.42 0 00-.649-.18 1.36 1.36 0 00-.83.249l.086.051a.568.568 0 00-.235-.548.814.814 0 00-.611-.154c-.203.034-.399.1-.582.197a2.14 2.14 0 00-.256.137.425.425 0 00-.192.24v.102l.094-.042a.393.393 0 00.201-.429.5.5 0 00-.248-.355 1.313 1.313 0 00-.667-.138 2.212 2.212 0 01-.427-.03c-.116-.012-.163-.034-.167-.03zm5.778-1.688c.099.012.197.035.291.07a.707.707 0 01.269.2.63.63 0 01.145.399v.06h.06a.374.374 0 01.393.265c.047.208.037.424-.029.626l-.056.218.154-.167.025-.03a.473.473 0 01.402-.124.518.518 0 01.355.193.857.857 0 01.167.685 1.635 1.635 0 01-.167.454 1.08 1.08 0 00-.086.172s.056-.047.124-.15a1.34 1.34 0 00.21-.489.913.913 0 00-.171-.766.64.64 0 00-.443-.238.633.633 0 00-.476.16l-.03.035.103.047c.073-.223.08-.463.021-.69a.47.47 0 00-.517-.321l.06.047a.712.712 0 00-.184-.428.777.777 0 00-.308-.202.572.572 0 00-.231-.034c-.055-.004-.081.004-.081.009zm4.637 3.86c.05.01.101.01.15 0a.98.98 0 00.667-.758.539.539 0 01.102-.3c.073-.073.214-.111.308-.236a.577.577 0 00-.077-.78v.086c.226-.165.41-.38.539-.63a.734.734 0 00.106-.303s-.055.107-.158.274c-.143.225-.328.42-.547.574l-.055.038.055.047a.466.466 0 01.052.621c-.065.095-.193.13-.295.228a.617.617 0 00-.129.364.975.975 0 01-.256.505 1.536 1.536 0 01-.462.27zm1.368 1.131h.09c.091.011.183.011.273 0a1.47 1.47 0 00.855-.403h-.072a.99.99 0 00.636.429c.141.03.287.03.428 0a.626.626 0 00.384-.253c.03-.06.039-.116.06-.158a.256.256 0 01.077-.099.76.76 0 01.274-.094c.104-.016.205-.048.299-.094a.321.321 0 00.184-.266l-.077.043a.99.99 0 00.688.077c.177-.04.342-.125.478-.244a.965.965 0 00.21-.274c.034-.078.043-.116.038-.12a1.28 1.28 0 01-.286.347 1.058 1.058 0 01-.457.205.918.918 0 01-.62-.081l-.073-.039v.082a.224.224 0 01-.132.175.862.862 0 01-.269.082.777.777 0 00-.317.107.346.346 0 00-.119.15.943.943 0 01-.052.145.52.52 0 01-.316.197.852.852 0 01-.376 0 .883.883 0 01-.573-.355l-.034-.047-.038.038a1.555 1.555 0 01-.817.429c-.213.021-.346-.005-.346.021zm8.62 4.241a.125.125 0 000-.039 1.219 1.219 0 00.026-.574 2.687 2.687 0 00-.252-.66 2.536 2.536 0 00-.218-.38.696.696 0 00-.184-.168.298.298 0 00-.278-.025l.069.055a.757.757 0 00-1.171-.763l.09.052a.523.523 0 00-.4-.54.502.502 0 00-.25.009.553.553 0 00-.239.15l.098.047a.313.313 0 00-.094-.274.426.426 0 00-.248-.129.978.978 0 00-.492.082l.065.026a.8.8 0 00-.458-.382 1.082 1.082 0 00-.555-.047 2.789 2.789 0 00-.889.351l.055.056a.209.209 0 000-.201.312.312 0 00-.132-.116.54.54 0 00-.295-.073 1.548 1.548 0 00-.462.099 1.23 1.23 0 00-.269.128.306.306 0 00-.081.06s.124-.068.363-.145c.145-.047.296-.073.449-.078a.552.552 0 01.261.073c.081.043.149.133.098.215l-.073.12.128-.065a2.89 2.89 0 01.855-.33c.169-.023.34-.005.5.052a.697.697 0 01.398.334l.021.043h.047a.938.938 0 01.427-.073c.133 0 .27.146.248.274l-.034.197.133-.15a.373.373 0 01.183-.115.39.39 0 01.372.077.426.426 0 01.137.343v.124l.103-.069a.658.658 0 01.752 0 .68.68 0 01.26.643v.09l.082-.039c.128-.06.269.051.354.158.083.114.156.234.218.36.115.201.204.416.265.639.042.19.048.386.017.578zm-.918 3.26s.025 0 .064-.064a1.66 1.66 0 00.154-.219.805.805 0 00.124-.407.571.571 0 00-.065-.265.424.424 0 00-.23-.214v.064a.54.54 0 00.072-.557.543.543 0 00-.564-.304l.047.086a.42.42 0 00.095-.249.425.425 0 00-.069-.257.635.635 0 00-.466-.266h-.252a.223.223 0 01-.145-.15.943.943 0 00-.124-.257.481.481 0 00-.253-.17 2.743 2.743 0 00-.602-.065.642.642 0 01-.475-.184c-.051-.065-.085-.15-.136-.232a.563.563 0 00-.479-.26.592.592 0 00-.265.063l.06.077a.46.46 0 000-.526.66.66 0 00-.406-.249 2.093 2.093 0 00-.748.03c-.157.033-.31.08-.457.141a.488.488 0 00-.15.078 4.44 4.44 0 01.62-.159 1.97 1.97 0 01.718 0 .544.544 0 01.346.218.359.359 0 010 .429l-.137.167.197-.094a.486.486 0 01.427 0 .457.457 0 01.175.162c.042.083.089.163.141.24.07.078.158.137.257.172.095.031.194.05.295.055a3.2 3.2 0 01.577.06.4.4 0 01.196.133.82.82 0 01.111.231.325.325 0 00.218.215c.09.013.179.022.27.025a.508.508 0 01.384.21.326.326 0 010 .382l-.098.107h.145a.43.43 0 01.462.24.461.461 0 01-.047.466l-.034.048h.051a.428.428 0 01.256.428.77.77 0 01-.098.381c-.09.137-.171.236-.162.24zm.354 6.156a.239.239 0 00.111-.026c.105-.038.2-.1.278-.18a.855.855 0 00.051-1.118v.06a1.49 1.49 0 00.342-.535.611.611 0 000-.364.462.462 0 00-.243-.305v.1a.652.652 0 00.359-.58.733.733 0 00-.086-.38.581.581 0 00-.273-.258.222.222 0 01-.141-.222.904.904 0 00-.047-.339 1.145 1.145 0 00-.385-.488l-.397-.343a1.937 1.937 0 00-.663-.385.98.98 0 00-.209-.035h-.073s.103 0 .269.073c.231.096.442.233.624.403l.389.351c.152.12.271.276.346.454a.87.87 0 01.039.304.297.297 0 00.043.193c.039.053.09.095.149.124a.59.59 0 01.03 1.011l-.102.052.106.047a.45.45 0 01.187.237.449.449 0 01-.003.303c-.072.187-.18.358-.316.505l-.026.03.026.03a.792.792 0 01.175.583.772.772 0 01-.196.428 1.088 1.088 0 01-.364.27zm-9.483-10.003a.83.83 0 00.346-.107.965.965 0 00.325-.236.652.652 0 00.127-.226.641.641 0 00.026-.258.6.6 0 00-.038-.124l-.03.077a.564.564 0 00.312-.35.491.491 0 00-.043-.374c-.107-.192-.252-.222-.252-.21.077.069.14.152.184.245a.43.43 0 010 .308.459.459 0 01-.257.278h-.051l.022.056c.013.03.021.062.025.095a.533.533 0 01-.119.398 1.01 1.01 0 01-.283.236c-.171.12-.303.175-.294.192zm-2.526-1.448a.64.64 0 01-.047-.428.47.47 0 01.299-.334.504.504 0 01.534.133l.064.072.026-.094a.963.963 0 01.158-.325.435.435 0 01.299-.176c.184 0 .372.176.308.321l.107.03a.854.854 0 01.359-.54.853.853 0 01.5-.14c.163.014.323.059.47.132 0 0-.03-.039-.107-.086a.883.883 0 00-.915.026.937.937 0 00-.427.595l.103.03a.323.323 0 00-.086-.338.457.457 0 00-.329-.137.536.536 0 00-.385.223 1.077 1.077 0 00-.171.364h.09a.599.599 0 00-.641-.146.535.535 0 00-.333.403.562.562 0 00.038.338c.047.052.081.081.086.077z" fill="#2B3A8C"/><path d="M117.106 171.28l-1.436 7.107-4.739.445-1.996-2.356 1.825-8.482 6.346 3.286z" fill="#FFBE9D"/><path d="M107.99 175.688v.553s-9.073 3.512-9.214 5.294l17.805.429-.098-6.225c-2.697 1.234-5.471 1.307-8.493-.051z" fill="#28A8DF"/><path opacity=".6" d="M114.615 177.693a.768.768 0 01.483.887.694.694 0 01-.829.509.813.813 0 01-.509-.938.72.72 0 01.923-.428" fill="#fff"/><path d="M116.564 181.977v-1.495l-17.062.124a1.624 1.624 0 00-.855 1.465l17.917-.094zm-8.655-5.685c0 .09.427.146.855.45.427.304.641.694.722.659.081-.034-.038-.565-.551-.925-.513-.36-1.043-.27-1.026-.184zm-1.885.767c-.025.086.351.253.637.642.287.39.364.806.449.806.086 0 .154-.519-.214-1.003-.367-.484-.872-.535-.872-.445zm-1.115 2.317c.077 0 .209-.428 0-.933-.21-.506-.611-.716-.65-.643-.038.073.205.351.376.767.171.415.188.801.274.809z" fill="#000"/><path d="M144.66 169.614c.069.231 0 9.09 0 9.09l-2.658 1.645-3.475-2.185-.735-8.568 6.868.018z" fill="#FFBE9D"/><path d="M138.279 177.397s4.732 3.526 7.018.476l.599 1.478 2.692 10.534a1.434 1.434 0 01-.756 1.688 1.25 1.25 0 01-1.377-.275c-1.949-1.944-9.069-9.128-9-10.101l.025-2.57a1.323 1.323 0 01.799-1.212v-.018z" fill="#28A8DF"/><path d="M147.596 191.645l-10.146-11.347v.565a1.51 1.51 0 00.479 1.247 110.384 110.384 0 008.548 9.561c.312.317.906.039 1.136-.026h-.017z" fill="#000"/><path opacity=".6" d="M138.938 178.635a.861.861 0 01.218 1.08.74.74 0 01-1.018.235.902.902 0 01-.226-1.143.75.75 0 01.517-.291.76.76 0 01.568.166" fill="#fff"/><path d="M144.673 185.832c.073.039.355-.664 1.107-1.041.752-.377 1.449-.218 1.462-.3.013-.081-.15-.137-.428-.18a1.975 1.975 0 00-1.141.219 2.09 2.09 0 00-.855.822c-.158.274-.179.471-.145.48zm.91 1.799c.06.056.466-.376 1.124-.578.659-.201 1.219-.09 1.24-.171.021-.082-.577-.351-1.321-.107-.743.244-1.107.805-1.043.856zm-2.602-4.078c.059.06.679-.612 1.675-1.015.996-.403 1.881-.381 1.881-.471 0-.09-.924-.253-1.984.197-1.059.45-1.636 1.251-1.572 1.289zm-.227-3.204c.034.081.735-.232 1.65-.27.914-.039 1.637.188 1.662.107.026-.081-.696-.45-1.679-.398-.983.051-1.684.497-1.633.561z" fill="#000"/><path d="M144.921 180.049a1.173 1.173 0 00-.073-.501 3.432 3.432 0 00-.607-1.225 1.474 1.474 0 00-.752-.604.497.497 0 00-.555.231.914.914 0 00-.094.634c.096.426.34.804.687 1.067a1.85 1.85 0 001.21.377 2.16 2.16 0 001.855-1.56.814.814 0 00-.081-.642.508.508 0 00-.577-.176 1.842 1.842 0 00-.739.613 3.88 3.88 0 00-.671 1.186 1.206 1.206 0 00-.112.472 6.145 6.145 0 01.928-1.538c.173-.224.4-.4.658-.514a.263.263 0 01.316.094.554.554 0 01.03.428c-.113.355-.327.67-.616.905a1.915 1.915 0 01-1.008.423 1.608 1.608 0 01-1.628-1.199.674.674 0 01.047-.429.28.28 0 01.307-.137c.262.097.487.272.646.501.366.48.646 1.019.829 1.594zm4.74-83.569a44.742 44.742 0 013.299 8.962c1.462 5.535 3.103 8.315 2.509 18.515-.308 5.209-4.603 19.337-5.59 24.31-.817 4.091-3.364 23.326-4.655 28.411h-7.381l-.752-56.932s-11.757 33.225-13.249 37.063c-1.491 3.839-6.723 19.055-6.723 19.055l-9.197-2.451 7.001-34.013c1.397-6.777 5.197-25.913 6.812-31.675 1.616-5.761 3.146-11.836 3.146-11.836l24.78.591z" fill="#000"/><path d="M148.759 106.56c.01.098.036.193.077.283.091.247.202.487.333.715a6.118 6.118 0 001.71 1.919 5.793 5.793 0 002.312 1.011c.249.048.503.073.757.073.179 0 .277 0 .277-.026 0-.025-.393-.051-1.004-.197a6.488 6.488 0 01-2.227-1.036 6.767 6.767 0 01-1.709-1.825c-.342-.548-.492-.934-.526-.917zm-27.772 4.134s.094.043.27.081c.25.053.505.08.76.082.382.009.764-.028 1.137-.112.458-.108.9-.278 1.312-.505a6.445 6.445 0 001.932-1.714 3.98 3.98 0 00.573-.912 9.008 9.008 0 00-.684.814 7.209 7.209 0 01-1.915 1.606 5.344 5.344 0 01-2.355.656c-.632.034-1.025-.035-1.03.004zm15.989-3.213a1.79 1.79 0 00-.081.459c-.039.299-.082.728-.129 1.263a49.632 49.632 0 00-.145 4.186c.013 1.615.111 3.118.218 4.185.051.535.103.964.15 1.259.012.156.04.309.085.459a1.92 1.92 0 000-.467c-.021-.343-.051-.767-.081-1.264a75.344 75.344 0 01-.158-4.172 76.124 76.124 0 01.085-4.173c.026-.501.047-.921.064-1.285.013-.15.01-.301-.008-.45zm9.894-43.888l6.697 3.205-.932 12.239s-.79.93-2.077 7.488c-1.286 6.558 2.992 19.328 2.992 19.328l-31.503.814s3.697-26.482 4.124-29.987l1.573-13.408 6.338-.347h1.83l1.572 11.412 7.933-11.065 1.453.321z" fill="#2B3A8C"/><path d="M117.735 87.339a1.82 1.82 0 00.098-.724 5.176 5.176 0 00-.291-1.735 5.121 5.121 0 00-.854-1.517c-.287-.338-.505-.501-.522-.48a8.671 8.671 0 011.18 2.074 8.91 8.91 0 01.389 2.382z" fill="#000"/><path d="M104.939 84.301l11.227-.098 4.249-12.569a49.192 49.192 0 012.222-4.434c2.248-4.147 5.107-3.928 5.107-3.928l3.445 5.372-3.658 8.23s-3.501 15.515-7.561 16.2c-6.735 1.131-18.805-3.538-18.805-3.538l3.774-5.235z" fill="#2B3A8C"/><path opacity=".2" d="M124.65 88.153c0-.429-.12-.977.248-1.161a1.23 1.23 0 01.957.072c9.3 3.303 14.685-.535 23.985 2.772l1.898 9.579c-4.129.034-6.018-.934-10.074-2.236-4.141-1.328-8.282-2.656-12.343-4.233a11.21 11.21 0 01-3.192-1.675 4.05 4.05 0 01-1.479-3.118z" fill="#000"/><path d="M126.89 72.315a3.08 3.08 0 01-.214.634 10.47 10.47 0 00-.389 1.55c-.222 1.239-.265 2.267-.329 2.267a6.64 6.64 0 01.107-2.305c.092-.54.247-1.068.461-1.572.076-.217.2-.413.364-.574z" fill="#000"/><path d="M184.215 84.582l2.563.066a2.664 2.664 0 011.865.83c.487.515.751 1.202.733 1.91l-.008.317a2.68 2.68 0 01-.83 1.87 2.663 2.663 0 01-1.905.734l-2.563-.066.145-5.661zM71.568 82.16l22.985-2.326 86.367 2.227a1.513 1.513 0 011.065.474 1.524 1.524 0 01.418 1.09l-.209 8.139a1.531 1.531 0 01-.975 1.385 1.52 1.52 0 01-.585.101l-86.696-2.249L71.46 86.38l.107-4.22z" fill="#28A8DF"/><path d="M71.534 83.346l-2.116-.056-1.795.613c-.145.111-.11.253 0 .407l1.804.587 2.073.055.034-1.606zm24.816-3.474l-1.79-.046-.286 11.177 1.79.046.286-11.177z" fill="#000"/><path d="M182.698 82.554a2.001 2.001 0 01-.615 1.393 1.987 1.987 0 01-1.419.547l-43.09-1.114a1.981 1.981 0 01-1.931-2.039 1.985 1.985 0 012.034-1.94l43.089 1.135a1.983 1.983 0 011.932 2.018z" fill="#28A8DF"/><path d="M182.698 82.553a2.136 2.136 0 00-.244-.955 1.952 1.952 0 00-1.568-1.037c-.274 0-.573 0-.881-.02l-10.577-.24-15.686-.382-9.261-.24-4.898-.124-1.248-.034a4.556 4.556 0 00-1.218.051 1.876 1.876 0 00-.098 3.594c.397.092.806.13 1.213.116l1.253.03 4.898.128 9.265.244 15.681.429 10.574.308c.312 0 .611.026.885 0 .253-.008.502-.065.735-.167a1.97 1.97 0 00.884-.784c.168-.289.267-.613.291-.947.009.086.009.172 0 .258a1.884 1.884 0 01-.248.753 2.01 2.01 0 01-.893.823 2.05 2.05 0 01-.765.184h-.885l-10.573-.235-15.69-.382-9.261-.231-4.907-.159-1.248-.034h-.628a2.102 2.102 0 01-1.642-3.404 2.1 2.1 0 011.099-.73 2.29 2.29 0 01.654-.068h.628l1.248.03 4.902.128 9.262.245 15.681.428 10.573.308c.312 0 .607 0 .885.035.264.024.519.101.752.227.367.19.666.489.855.856.115.226.183.472.201.724.01.092.01.183 0 .275z" fill="#000"/><path d="M182.42 83.072l2.214 1.131-.167 6.421-2.278 1.281.231-8.833z" fill="#000"/><path d="M156.307 87.591l-4.894-7.556-.427-.677-.658-1.024 2.872-11.73s2.453 1.132 3.803 3a44.494 44.494 0 012.992 5.35s4.787 10.975 5.578 12.616c.79 1.64 2.055 4.67 0 6.37-2.056 1.7-15.814 1.756-15.814 1.756l-.927-6.935 7.475-1.17z" fill="#2B3A8C"/><path d="M150.276 77.109c.034 0-.073-.519-.115-1.345a10.636 10.636 0 011.568-6.17c.428-.706.774-1.1.744-1.121-.03-.022-.103.08-.261.252-.219.249-.42.512-.602.788a9.71 9.71 0 00-1.595 6.263c.028.33.08.659.154.981.02.122.056.24.107.352z" fill="#000"/><path d="M147.225 90.055a4.735 4.735 0 00-1.24-1.641c-.902-.784-2.885-1.392-3.141-2.142-.257-.75-1.004-.167-.829.771.111.595 1.338 2.142 1.338 2.142s-1.441.364-2.398-.193c-.958-.557-4.313-1.546-4.672-1.075-.359.471.471.707.855.92.287.164 2.518 1.286 2.518 1.286s-4.441-.15-5.001.06c-.56.21 0 .767.295.78.18 0 .936.69 1.475 1.19.365.343.845.535 1.346.54h1.03l-3.133.33s-.538.497.214.754c.337.116 9.018.904 9.757.878 1.667-.055 3.996-.171 3.996-.171l-.406-4.712-2.004.282z" fill="#FFBE9D"/><path d="M134.869 91.018c.662.33 1.374.547 2.107.643a6.788 6.788 0 002.201.128c0-.06-.979-.115-2.163-.33-1.183-.214-2.128-.497-2.145-.44z" fill="#EB996E"/><path opacity=".3" d="M102.101 85.557c.855-.184 1.675.36 2.38.878.445.31.866.656 1.257 1.032 1.081 1.084 1.65 2.57 2.564 3.8l-5.128-.78-1.073-4.93z" fill="#000"/><path d="M109.939 91.481l-2.231-.467s-2.013-3.213-3.068-3.602l-.594-.266s-.774-1.714-1.83-1.487c-.624-.428-1.188-.244-1.248.382 0 0-.312-1.427-1.474-.857-1.163.57 1.611 5.526 1.611 5.526s.97 2.532 2.18 1.684c0 0 1.209.282 2.017-.168 0 0 .748 1.054 2.517.249l2.12-.994z" fill="#FFBE9D"/><path d="M105.093 91.674s-.039.081 0 .24c.042.219.151.42.312.574.233.24.543.391.876.428a2.92 2.92 0 001.167-.124 7.268 7.268 0 001.919-.857c.254-.14.485-.319.684-.531-.842.487-1.733.882-2.659 1.178a3.11 3.11 0 01-1.09.137 1.372 1.372 0 01-.799-.334 1.31 1.31 0 01-.41-.711zm-2.137-1.157c.051-.034-.62-1.007-1.193-2.326-.572-1.32-.855-2.472-.906-2.459 0 .26.04.52.12.767.145.608.345 1.202.598 1.773.251.572.552 1.121.898 1.641.125.227.289.432.483.604zm1.282-.107c.051-.03-.513-1.041-1.064-2.348-.552-1.306-.885-2.42-.945-2.403a12.485 12.485 0 002.009 4.75zm-1.71 1.144c-.055 0 0 .428.359.715s.77.283.765.227c-.004-.055-.329-.124-.632-.385-.304-.261-.453-.574-.492-.557zm3.086-1.851a8.022 8.022 0 00-.722-1.25 8.039 8.039 0 00-.774-1.217c.113.475.316.925.599 1.323a3.9 3.9 0 00.897 1.144z" fill="#EB996E"/></g><path d="M38.965 20.175l-.075-.708-2.263.238.293 2.785.939-.1-.094-.89 1.161-.123-.074-.708-1.162.123-.05-.478 1.325-.14zm2.081 1.944c.907-.095 1.507-.778 1.418-1.621-.088-.844-.817-1.386-1.724-1.29-.907.095-1.507.777-1.418 1.62.089.844.817 1.387 1.724 1.291zm-.08-.76c-.346.037-.652-.196-.697-.63-.046-.433.205-.725.55-.762.347-.036.653.197.699.63.045.434-.206.726-.551.762zm3.772.307l1.002-.106-.675-.797a.94.94 0 00.433-.93c-.068-.645-.604-.999-1.38-.917l-1.34.141.293 2.785.939-.1-.074-.7.255-.026.547.65zm-.187-1.734c.022.203-.089.34-.347.367l-.342.035-.07-.652.343-.036c.259-.027.395.083.416.286zm4.945 1.233l-.301-2.784-.772.081-.727 1.577-1.063-1.388-.772.081.294 2.785.855-.09-.13-1.226.708.911.414-.043.497-1.082.142 1.268.855-.09zm1.913-.137c.855-.09 1.305-.625 1.217-1.46l-.16-1.532-.924.098.159 1.503c.044.426-.102.602-.364.63-.263.028-.443-.114-.488-.54l-.158-1.504-.939.1.161 1.53c.089.836.64 1.265 1.496 1.175zm1.9-.265l2.195-.231-.077-.728-1.257.132-.216-2.056-.94.099.294 2.784zm4.697-.495l.97-.102-1.51-2.656-.923.097-.924 2.913.955-.1.136-.506 1.058-.111.238.465zm-1.109-1.057l.197-.729.344.672-.541.057zm4.016.751l1.002-.105-.675-.798c.316-.206.475-.529.433-.93-.068-.645-.604-.999-1.38-.917l-1.34.141.293 2.785.938-.1-.073-.7.254-.026.547.65zm-.187-1.734c.021.203-.09.34-.348.366l-.342.037-.069-.653.343-.036c.258-.027.395.083.416.286zm2.648.739l1.117-1.614-.06-.577-2.455.259.077.727 1.233-.13-1.117 1.614.06.577 2.558-.27-.076-.727-1.337.14z" fill="#000"/><defs><clipPath id="clip0"><path fill="#fff" transform="translate(.382)" d="M0 0h189v191.821H0z"/></clipPath></defs></svg>