<svg width="218" height="184" fill="none" xmlns="http://www.w3.org/2000/svg"><path d="M61.226 72.169a1.635 1.635 0 01-2.005-1.159l-3.68-13.723a1.355 1.355 0 011.01-1.612l1.291-.346a1.412 1.412 0 001.03-1.063l.124-.637a1.401 1.401 0 011.03-1.063l6.126-1.646a1.424 1.424 0 011.329.308l.417.396a1.425 1.425 0 001.329.313l7.81-2.084a1.36 1.36 0 011.716.875l3.75 14.04a1.634 1.634 0 01-1.158 2l-20.12 5.4z" fill="#E0E0E0"/><path d="M68.469 52.128l-4.972 1.321-.667-.708a1.766 1.766 0 00-1.754-.47l-4.855 1.32a1.576 1.576 0 00-1.17 1.888l.15.567 4 14.902a1.784 1.784 0 002.22 1.187l19.728-5.292a1.784 1.784 0 001.33-2.142l-3.776-14.077a1.18 1.18 0 00-1.442-.833l-8.792 2.337z" fill="#EBEBEB"/><path d="M127.851 50.345a1.965 1.965 0 01-1.49-1.613 1.944 1.944 0 01.032-.77l4.034-16.703a1.64 1.64 0 012.012-1.142l1.572.38a1.684 1.684 0 001.708-.534l.5-.6a1.688 1.688 0 011.709-.534l7.455 1.8a1.716 1.716 0 011.25 1.097l.225.666a1.724 1.724 0 001.25 1.1l9.506 2.293a1.642 1.642 0 011.25 1.937l-4.126 17.086a1.974 1.974 0 01-2.383 1.454l-24.504-5.917z" fill="#E0E0E0"/><path d="M147.137 33.264l-6.042-1.472-.296-1.12a2.152 2.152 0 00-1.592-1.513l-5.909-1.43a1.895 1.895 0 00-2.334 1.326l-.167.687-4.379 18.136a2.152 2.152 0 001.667 2.546l24.011 5.776a2.155 2.155 0 002.65-1.5l4.139-17.132a1.432 1.432 0 00-1.051-1.721l-10.697-2.584z" fill="#EBEBEB"/><path d="M81.308 28.317a2.216 2.216 0 01-2.447-1.963L76.753 7.185a1.838 1.838 0 011.692-1.971l1.804-.2a1.913 1.913 0 001.6-1.213l.3-.833a1.9 1.9 0 011.605-1.213l8.555-.942a1.925 1.925 0 011.717.688l.492.62a1.925 1.925 0 001.737.689l10.91-1.196a1.837 1.837 0 012.084 1.558l2.154 19.607a2.227 2.227 0 01-1.963 2.45l-28.132 3.088z" fill="#E0E0E0"/><path d="M95.164 2.93l-6.943.746-.746-1.092a2.409 2.409 0 00-2.258-.991l-6.785.741a2.129 2.129 0 00-1.958 2.288l.087.792 2.288 20.815a2.425 2.425 0 002.738 2.055l27.553-3.03a2.425 2.425 0 002.23-2.6l-2.163-19.665a1.598 1.598 0 00-1.141-1.36 1.6 1.6 0 00-.622-.053L95.164 2.93z" fill="#F5F5F5"/><path d="M96.389 15.253a2.697 2.697 0 001.32-2.65 2.528 2.528 0 10-5 .529 2.688 2.688 0 001.871 2.32c-3.796 1.005-3.159 5.18-3.159 5.18l9.131-.958s-.275-4.263-4.163-4.421zm-33.15 10.122a4.691 4.691 0 011.2-.363l.367-1.104 1.916.192.142 1.154c.392.15.763.348 1.104.592l1.042-.517 1.217 1.488-.713.938c.174.382.294.785.359 1.2l1.104.37-.192 1.913-1.154.142a4.66 4.66 0 01-.592 1.109l.521 1.037-1.492 1.221-.916-.742a4.798 4.798 0 01-1.2.363l-.367 1.104-1.917-.191-.142-1.155a4.786 4.786 0 01-1.104-.591l-1.042.516-1.217-1.488.713-.916a4.796 4.796 0 01-.363-1.2l-1.1-.371.192-1.905 1.154-.146c.147-.392.346-.764.592-1.104l-.517-1.042 1.492-1.22.917.716h-.004zm.716 2.663a2.084 2.084 0 102.623 3.239 2.084 2.084 0 00-2.623-3.24zm8.989 75.189c.17.008.34-.019.5-.079a1.07 1.07 0 00.467-.379c.07-.11.12-.231.146-.359.025-.133.037-.287.058-.446.163-1.292.392-3.138.675-5.417l.23-1.792c.041-.313.083-.63.124-.954l.063-.488c.029-.16.04-.321.033-.483a.955.955 0 00-.508-.746 1.304 1.304 0 00-.475-.117l-.534-.07-2.208-.284-9.818-1.284a.933.933 0 00-1.046.805l-.042.32c-.029.213-.058.417-.083.638-.113.834-.225 1.667-.334 2.5-.216 1.642-.416 3.226-.629 4.734-.05.38-.096.75-.146 1.113a.949.949 0 00.417.858c.136.094.294.15.458.163l.526.071 1.025.137 3.75.505 5.417.746 1.467.212.38.063a.816.816 0 01.129.025.497.497 0 01-.134 0l-.383-.042-1.471-.171-5.455-.658-3.75-.48-1.026-.133-.525-.067a1.137 1.137 0 01-1.037-1.221c.05-.371.096-.746.146-1.125.196-1.508.416-3.092.616-4.738.105-.833.217-1.667.325-2.5.03-.213.059-.417.084-.638l.046-.32a1.15 1.15 0 011.288-.992l9.817 1.3 2.205.296.529.07c.188.012.372.06.542.142a1.12 1.12 0 01.616.875 2.27 2.27 0 01-.037.521c0 .167-.046.33-.067.492-.041.32-.087.642-.129.95-.083.625-.163 1.22-.242 1.792l-.746 5.417c-.025.163-.037.309-.066.454a1.087 1.087 0 01-.671.738.984.984 0 01-.388.058.432.432 0 01-.129-.012z" fill="#E0E0E0"/><path d="M73.236 101.556s-.05-.05-.125-.158l-.321-.475-1.15-1.776c-.238-.383-.5-.791-.784-1.25-.066-.112-.137-.22-.212-.337a.313.313 0 00-.271-.134c-.113 0-.188.08-.304.18l-.334.283-.692.592a1.25 1.25 0 01-.2.154.503.503 0 01-.558-.063.367.367 0 01-.1-.112l-.067-.1-1.091-1.667c-.188-.288-.376-.567-.555-.834-.091-.137-.183-.275-.27-.416a.296.296 0 00-.309-.142.275.275 0 00-.154.08l-.17.166c-.11.112-.222.22-.33.329l-.654.638-2.238 2.2-1.513 1.488-.417.391a.708.708 0 01-.154.125s.038-.058.125-.158l.392-.417 1.47-1.517c.639-.641 1.385-1.4 2.205-2.233l.642-.642.33-.333.166-.167a.517.517 0 01.565-.102c.094.041.173.11.227.198l.27.416.555.834 1.088 1.667a.345.345 0 00.616.079l.696-.583.334-.284c.062-.046.1-.087.179-.141a.5.5 0 01.68.145l.212.342c.27.446.525.863.762 1.25l1.088 1.813c.112.2.208.363.287.5a.84.84 0 01.084.171zm-2.917-6.884c-.02-.1-.032-.2-.038-.3a1.25 1.25 0 00-.37-.684 1.142 1.142 0 10-.242 1.825 1.22 1.22 0 00.533-.562c.083-.175.1-.284.117-.28.016.005.025.113-.038.309-.09.28-.28.516-.533.667a1.3 1.3 0 01-1.25.045 1.33 1.33 0 01.325-2.5 1.305 1.305 0 011.179.404c.204.213.327.49.346.784.025.187-.017.292-.03.292zm67.504-73.839c.154.075.321.12.492.133a1.032 1.032 0 00.859-.42c.079-.113.154-.25.237-.388l2.838-4.655c.3-.492.613-1.009.942-1.542.162-.27.333-.542.504-.834l.258-.416a2.35 2.35 0 00.23-.417.948.948 0 00-.159-.888 1.252 1.252 0 00-.387-.304l-.459-.279-1.896-1.167-8.43-5.196a.934.934 0 00-1.284.304l-.166.275-.342.55-1.329 2.163-2.501 4.063-.604.937a.949.949 0 00.375 1.288c.15.092.3.184.446.28l.879.541 3.197 1.992 4.621 2.892 1.25.796c.134.092.242.158.325.212.084.055.109.075.104.08a.548.548 0 01-.116-.059l-.334-.196-1.25-.758-4.659-2.838-3.213-1.967-.879-.542-.45-.275a1.185 1.185 0 01-.417-.395 1.145 1.145 0 01-.029-1.146l.592-.963 2.5-4.071 1.325-2.15.338-.547.171-.275a1.154 1.154 0 011.583-.375l8.422 5.21 1.871 1.183.459.283c.16.088.301.205.416.346a1.139 1.139 0 01.184 1.063 2.33 2.33 0 01-.25.458l-.263.417c-.171.279-.342.55-.508.833-.329.534-.65 1.046-.955 1.534l-2.917 4.621c-.087.138-.158.267-.245.388-.085.109-.19.2-.309.27a1.04 1.04 0 01-.992.042.691.691 0 01-.075-.091z" fill="#E0E0E0"/><path d="M136.678 11.965l.77 1.542a.41.41 0 01-.186.598.414.414 0 01-.23.031l-1.755-.054-1.708-.054a.418.418 0 01-.35-.671l.962-1.471.971-1.484a.42.42 0 01.392-.217.418.418 0 01.363.263l.771 1.517z" fill="#E0E0E0"/><path d="M200.809 183.812c0 .063-44.768.109-100 .109-55.231 0-100-.046-100-.109 0-.062 44.76-.108 100-.108 55.241 0 100 .05 100 .108z" fill="#263238"/><path d="M135.365 35.806H72.031v148.007h63.334V35.806z" fill="#2B3A8C"/><path opacity=".3" d="M89.346 35.806H72.031v148.007h17.315V35.806z" fill="#000"/><path d="M106.807 42.052V40.87l-.575.967h-.284l-.571-.934v1.15h-.583V39.84h.521l.783 1.292.767-1.292h.521v2.234l-.579-.02zm2.225-.8v.8h-.633v-.808l-.834-1.425h.667l.529.887.53-.887h.612l-.871 1.433zm2.576-.946v.492h.987v.492h-.987v.762h-.634V39.84h1.755v.488l-1.121-.02zm1.416-.466h.63v2.233h-.63v-2.234zm1.08 0h.633v1.733h1.067v.5h-1.7v-2.234zm3.742 1.725v.487h-1.792V39.84h1.75v.488h-1.129v.346h.992v.47h-.992v.417l1.171.005zm.196.287l.204-.467c.22.142.476.218.738.221.262 0 .366-.07.366-.179 0-.354-1.25-.096-1.25-.93 0-.416.325-.72.988-.72a1.7 1.7 0 01.812.191l-.196.471a1.292 1.292 0 00-.616-.17c-.267 0-.363.087-.363.2 0 .341 1.25.083 1.25.908 0 .392-.325.721-.987.721a1.751 1.751 0 01-.946-.246z" fill="#F0F0F1"/><path d="M133.085 75.215v-2.1c0-1.367 0-3.363-.025-5.922 0-5.109-.025-12.44-.046-21.34l.088.087H91.788l.108-.108v29.362l-.095-.1 29.783.05 8.488.025h3.042-3l-8.468.03-29.845.045h-.13V45.678h41.518v.087c0 8.926-.033 16.252-.045 21.395v7.447c0 .354-.059.608-.059.608z" fill="#263238"/><path opacity=".3" d="M121.225 63.9h-16.819v2.847h16.819v-2.846z" fill="#000"/><path d="M118.133 51.237h-8.672c-.573 0-1.037.464-1.037 1.037v6.16c0 .573.464 1.037 1.037 1.037h8.672c.574 0 1.038-.464 1.038-1.037v-6.16c0-.573-.464-1.037-1.038-1.037z" fill="#F0F0F1"/><path d="M118.475 58.25a2.58 2.58 0 01-.387-.417l-.996-1.141-.68-.805-.183-.22a.198.198 0 00-.183-.059c-.071 0-.109.059-.184.146l-.212.238-.417.483a.463.463 0 01-.35.208.417.417 0 01-.221-.062.503.503 0 01-.087-.075l-.059-.067-.937-1.083-.496-.555-.229-.27a.188.188 0 00-.292 0l-.104.137-.209.263-.416.516-1.396 1.78-.959 1.187a3.396 3.396 0 01-.371.417c.085-.167.187-.325.304-.47l.905-1.23 1.358-1.805.417-.52c.067-.088.133-.18.204-.267l.104-.138a.377.377 0 01.192-.133.416.416 0 01.417.125l.233.27.475.55.934 1.089c.125.179.27.175.416 0l.442-.484.213-.229a.497.497 0 01.295-.204.375.375 0 01.355.125l.183.225c.238.291.454.567.658.833l.942 1.2c.12.138.227.286.321.442zm-2.729-4.659c-.021 0-.025-.079-.071-.204a.872.872 0 00-.329-.442.834.834 0 00-.763-.096.792.792 0 000 1.484.832.832 0 00.763-.096.878.878 0 00.329-.437c.046-.13.05-.209.071-.209.021 0 .033.08 0 .23a.907.907 0 01-.321.541.96.96 0 01-.921.159.981.981 0 01-.479-1.5.981.981 0 01.961-.399.954.954 0 01.439.203.896.896 0 01.321.541c.033.159.008.225 0 .225z" fill="#263238"/><path opacity=".4" d="M127.305 77.424H91.288v27.982h36.017V77.424z" fill="#000"/><path d="M112.391 78.486h-6.847l-.417-.687a1.502 1.502 0 00-1.3-.746h-5.034a1.504 1.504 0 00-1.5 1.433h-1.796a1.409 1.409 0 00-1.409 1.409v3.488H113.8v-3.488a1.409 1.409 0 00-1.408-1.409z" fill="#E0E0E0"/><path d="M116.004 78.486h-6.83l-.417-.687a1.503 1.503 0 00-1.296-.746h-5.051a1.509 1.509 0 00-1.504 1.433H99.11a1.409 1.409 0 00-1.409 1.409v3.488h19.711v-3.488a1.409 1.409 0 00-1.408-1.409z" fill="#EBEBEB"/><path d="M120.7 78.486h-6.842l-.417-.687a1.487 1.487 0 00-1.296-.746h-5.055a1.503 1.503 0 00-1.5 1.433h-1.8a1.408 1.408 0 00-1.409 1.409v3.488h19.711v-3.488a1.41 1.41 0 00-1.392-1.409z" fill="#F5F5F5"/><path d="M104.819 96.693V79.91a1.454 1.454 0 011.513-1.383h1.446a1.527 1.527 0 001.375-.809l.308-.616a1.534 1.534 0 011.376-.805h6.863a1.541 1.541 0 011.3.68l.338.525a1.553 1.553 0 001.304.679h8.751a1.453 1.453 0 011.513 1.388v17.123h-26.087z" fill="#2B3A8C"/><path opacity=".3" d="M104.819 96.693V79.91a1.454 1.454 0 011.513-1.383h1.446a1.527 1.527 0 001.375-.809l.308-.616a1.534 1.534 0 011.376-.805h6.863a1.541 1.541 0 011.3.68l.338.525a1.553 1.553 0 001.304.679h8.751a1.453 1.453 0 011.513 1.388v17.123h-26.087z" fill="#000"/><path d="M110.303 83.024v-13.26a1.973 1.973 0 011.975-1.975h21.112a1.974 1.974 0 011.975 1.975v12.894l-25.062.366z" fill="#F0F0F1"/><path d="M111.128 86.891V70.11a1.451 1.451 0 011.513-1.383h1.446a1.53 1.53 0 001.371-.805l.312-.62a1.53 1.53 0 011.371-.805h6.864a1.539 1.539 0 011.304.683l.338.521a1.546 1.546 0 001.3.684h8.751a1.451 1.451 0 011.513 1.383v17.123h-26.083z" fill="#2B3A8C"/><path d="M111.128 86.891h1.93l5.363-.025 18.79-.05-.1.1V70.177c.011-.2.011-.4 0-.6a1.285 1.285 0 00-.654-.895 1.444 1.444 0 00-.505-.171 4.09 4.09 0 00-.558 0h-8.418a1.739 1.739 0 01-.567-.088 1.596 1.596 0 01-.883-.691l-.288-.45a1.37 1.37 0 00-.333-.363 1.495 1.495 0 00-.925-.296h-7.039a1.502 1.502 0 00-.804.363c-.437.379-.483 1.15-1.058 1.53a1.701 1.701 0 01-.9.312h-.905a8.499 8.499 0 00-.871.02 1.467 1.467 0 00-.737.33 1.275 1.275 0 00-.417.662c-.04.268-.052.539-.037.809v3.163c0 4.03-.034 7.292-.042 9.56v.048c0-2.27-.025-5.546-.042-9.584v-3.184a4.303 4.303 0 01.038-.834c.074-.294.239-.558.471-.754.237-.2.526-.328.833-.37.298-.026.597-.034.896-.026h.808c.29-.012.57-.109.805-.279.508-.325.529-1.033 1.037-1.517a1.67 1.67 0 01.909-.416c.346-.034.654 0 .983 0h6.08c.378-.007.747.111 1.05.337.152.115.282.256.384.417l.287.446c.176.29.452.507.775.608.162.053.331.078.5.075h8.393a3.52 3.52 0 01.588 0c.204.03.402.096.583.196a1.485 1.485 0 01.759 1.046c.014.212.014.425 0 .638v16.81h-.096l-18.869-.1h-7.214v-.038z" fill="#263238"/><path d="M123.055 68.01c-.92.11-1.846.145-2.771.108-.925.038-1.852.001-2.772-.108.92-.107 1.847-.144 2.772-.109.925-.035 1.851.002 2.771.109z" fill="#F0F0F1"/><path d="M119.246 93.942V77.161c0-.763.767-1.383 1.709-1.383h1.637a1.762 1.762 0 001.551-.809l.35-.617a1.766 1.766 0 011.554-.804h7.755a1.821 1.821 0 011.471.68l.384.524a1.82 1.82 0 001.471.68h9.888c.942 0 1.709.62 1.709 1.387v17.123h-29.479z" fill="#2B3A8C"/><path d="M119.246 93.942h2.188l6.076-.054 21.198-.046-.1.1V76.703a1.256 1.256 0 00-.616-.892 1.959 1.959 0 00-1.13-.271h-9.584c-.406.021-.81-.07-1.167-.263a1.719 1.719 0 01-.471-.383c-.125-.163-.225-.308-.342-.467a1.603 1.603 0 00-.833-.658 2.776 2.776 0 00-1.071-.117h-7.464a1.872 1.872 0 00-.908.288 1.537 1.537 0 00-.346.312 4.245 4.245 0 00-.25.417c-.083.146-.158.283-.25.417a1.61 1.61 0 01-.354.375 1.992 1.992 0 01-.93.375c-.658.041-1.25 0-1.892 0a1.738 1.738 0 00-1.491.712 1.251 1.251 0 00-.18.796v2.526c0 4.325-.029 7.83-.041 10.26v.048c0-2.437-.025-5.95-.042-10.293v-2.532c-.029-.31.043-.622.204-.888a1.888 1.888 0 011.634-.792c.612 0 1.25 0 1.867-.025.302-.04.59-.157.833-.341.238-.208.427-.466.554-.755.08-.144.169-.283.267-.416.11-.14.242-.262.392-.359a2.04 2.04 0 01.996-.32h7.484c.385-.03.773.014 1.142.129.378.136.701.394.917.733.108.15.225.313.333.454.117.136.259.249.417.334.325.176.693.257 1.062.233h9.585a2.19 2.19 0 011.25.3 1.466 1.466 0 01.721 1.054V94.06h-.1l-21.253-.05-6.063-.03h-2.15l-.092-.037z" fill="#263238"/><path d="M133.464 75.29a31.342 31.342 0 01-3.658.108 31.459 31.459 0 01-3.663-.108 30.25 30.25 0 013.663-.108 30.303 30.303 0 013.658.108z" fill="#F0F0F1"/><path d="M117.5 83.016H91.288v22.595H117.5V83.016z" fill="#2B3A8C"/><path opacity=".3" d="M117.5 83.016H91.288v22.595H117.5V83.016z" fill="#2B3A8C"/><path d="M158.818 77.053H117.5v29.362h41.318V77.053z" fill="#2B3A8C"/><path d="M158.814 106.415v-2.096c0-1.367 0-3.367-.025-5.922 0-5.113-.025-12.439-.046-21.344l.087.091h-41.313l.108-.108v29.362l-.096-.1 29.783.05 8.489.029h3.042-3.001l-8.467.025-29.867.113h-.1V76.928h.1l41.314.02h.092v.088c-.021 8.926-.038 16.277-.046 21.399 0 2.546 0 4.538-.025 5.901v1.541c0 .355-.029.538-.029.538z" fill="#263238"/><path opacity=".3" d="M149.971 96.397h-19.169v2.846h19.169v-2.846z" fill="#000"/><path d="M144.099 85.383h-8.672c-.573 0-1.037.464-1.037 1.038v6.159c0 .573.464 1.037 1.037 1.037h8.672c.573 0 1.038-.464 1.038-1.037v-6.16c0-.573-.465-1.037-1.038-1.037z" fill="#F0F0F1"/><path d="M136.677 87.82h2.197v.738h-.113a.68.68 0 00-.296-.533.921.921 0 00-.417-.088v1.91a.374.374 0 00.071.266c.088.056.193.08.296.066v.092h-1.304v-.092a.41.41 0 00.283-.066.353.353 0 00.071-.267v-1.925a.949.949 0 00-.417.087.606.606 0 00-.296.534h-.075v-.721zm6.276.197a13.75 13.75 0 01-3.446 0 6.78 6.78 0 011.721-.109 6.803 6.803 0 011.725.109zm.067 1.537a13.25 13.25 0 01-3.446 0 13.75 13.75 0 013.446 0zm.462 1.542a23.42 23.42 0 01-3.212.108 23.397 23.397 0 01-3.213-.108 24.199 24.199 0 013.213-.108 24.257 24.257 0 013.212.108zm-10.397 48.019v-2.096c0-1.367 0-3.367-.025-5.922 0-5.109-.025-12.439-.046-21.34l.088.088-41.33.004.108-.109v29.358l-.096-.095 29.783.045 8.489.03h3.042-3.001l-8.467.025-29.846.05h-.113v-29.567h.113l41.314.021h.091v.088c0 8.926-.033 16.273-.045 21.394v7.443c0 .354-.059.583-.059.583z" fill="#263238"/><path opacity=".3" d="M121.884 127.805h-17.478v2.846h17.478v-2.846z" fill="#000"/><path d="M117.783 116.741h-8.672c-.573 0-1.037.465-1.037 1.038v6.159c0 .573.464 1.038 1.037 1.038h8.672c.573 0 1.038-.465 1.038-1.038v-6.159c0-.573-.465-1.038-1.038-1.038z" fill="#F0F0F1"/><path d="M112.699 122.088a.642.642 0 01-.62.345.634.634 0 01-.555-.443.641.641 0 01.54-.826.629.629 0 01.364.07.63.63 0 01.271.854z" fill="#263238"/><path d="M112.716 121.859a3.593 3.593 0 01-.212-1.467 6.28 6.28 0 01.07-1.475c.137.477.188.975.15 1.471.04.489.037.981-.008 1.471z" fill="#263238"/><path d="M114.591 119.288a1.76 1.76 0 01-1.85-.046c-.171-.129-.217-.267-.192-.28.025-.012.109.067.275.151.221.101.458.163.7.183.58.058 1.067-.075 1.067-.008zm.13 3.171a.635.635 0 01-1.166-.101.629.629 0 01.195-.676.64.64 0 01.893.077.635.635 0 01.078.7z" fill="#263238"/><path d="M114.737 122.229a3.586 3.586 0 01-.212-1.466 5.795 5.795 0 01.075-1.476c.131.479.18.976.145 1.471.04.49.037.982-.008 1.471z" fill="#263238"/><path d="M114.62 119.721a1.663 1.663 0 01-1.975-.109c.033-.054.442.138.983.163.542.025.963-.117.992-.054zm18.465 51.353v-2.097c0-1.371 0-3.367-.025-5.925 0-5.109-.025-12.44-.046-21.341l.088.088-41.314.021.108-.109v29.363l-.095-.1 29.783.05 8.488.025h3.042-3l-8.468.029-29.845.046h-.13v-29.567h.113l41.314.021h.091v.087c0 8.927-.033 16.273-.045 21.395v7.447c0 .354-.059.567-.059.567z" fill="#263238"/><path opacity=".3" d="M121.884 159.759h-17.478v2.846h17.478v-2.846z" fill="#000"/><path d="M117.783 148.591h-8.672c-.573 0-1.037.465-1.037 1.038v6.159c0 .573.464 1.038 1.037 1.038h8.672c.573 0 1.038-.465 1.038-1.038v-6.159c0-.573-.465-1.038-1.038-1.038z" fill="#F0F0F1"/><path d="M114.024 151.804l.834.492a.259.259 0 01.085.089.25.25 0 01-.085.328l-.834.525-.833.508a.252.252 0 01-.251.004.24.24 0 01-.093-.091.24.24 0 01-.035-.125v-2.013a.247.247 0 01.246-.251.25.25 0 01.125.034l.841.5z" fill="#263238"/><path d="M193.768 31.088a1.383 1.383 0 11-2.767 0 1.383 1.383 0 012.767 0z" fill="#F0F0F1"/><path d="M193.768 31.088s-.02-.12-.083-.325a1.383 1.383 0 00-.508-.713 1.319 1.319 0 00-1.23-.166 1.283 1.283 0 00-.837 1.206 1.285 1.285 0 00.837 1.207 1.325 1.325 0 001.23-.167 1.4 1.4 0 00.508-.713c.063-.204.067-.329.083-.329a.631.631 0 010 .35c-.06.33-.238.625-.5.834a1.458 1.458 0 01-2.101-.308 1.48 1.48 0 011.437-2.312c.243.04.472.141.664.294.261.21.439.505.5.834a.62.62 0 010 .308z" fill="#263238"/><path d="M205.762 32.98c6.322 0 11.447-5.125 11.447-11.447 0-6.322-5.125-11.448-11.447-11.448-6.322 0-11.448 5.126-11.448 11.448s5.126 11.447 11.448 11.447z" fill="#F0F0F1"/><path d="M217.209 21.533a1.48 1.48 0 01-.021-.188l-.037-.541c0-.12-.009-.259-.025-.417 0-.146-.046-.304-.075-.475a8.033 8.033 0 00-.242-1.18 10.792 10.792 0 00-1.271-3.033 11.356 11.356 0 00-15.102-4.176c-.242.13-.471.284-.709.417a5.407 5.407 0 00-.683.47c-.452.337-.882.702-1.288 1.093-.404.42-.782.865-1.129 1.333a10.922 10.922 0 00-1.621 3.126 12.091 12.091 0 00-.588 3.58c.02 1.211.223 2.414.601 3.566a10.927 10.927 0 001.621 3.13c.338.462.709.901 1.108 1.313.404.393.835.76 1.288 1.096.215.174.444.331.683.47.238.142.467.292.709.417.478.25.972.467 1.479.65a11.41 11.41 0 005.963.496 11.401 11.401 0 007.668-5.342 10.765 10.765 0 001.271-3.03c.11-.386.191-.78.242-1.18.029-.17.058-.328.075-.474.016-.146 0-.28.025-.417l.037-.546c.004-.061.01-.123.021-.183.004.06.004.122 0 .183v.963c0 .158-.042.308-.063.479-.044.402-.119.8-.225 1.192a10.812 10.812 0 01-1.25 3.071 11.529 11.529 0 01-7.751 5.46 11.563 11.563 0 01-6.063-.489 12.359 12.359 0 01-1.509-.658c-.245-.133-.479-.287-.721-.417a6.585 6.585 0 01-.7-.479c-.46-.342-.897-.713-1.308-1.112a13.04 13.04 0 01-1.138-1.338 11.287 11.287 0 01-1.667-3.184 12.458 12.458 0 01-.629-3.646 12.27 12.27 0 01.6-3.646 11.03 11.03 0 011.667-3.184c.346-.472.725-.92 1.134-1.338.411-.4.85-.772 1.312-1.113a6.09 6.09 0 01.704-.479c.242-.141.476-.296.721-.417a12.33 12.33 0 011.505-.687 11.472 11.472 0 0110.905 1.667 11.374 11.374 0 012.917 3.284c.573.954.994 1.992 1.251 3.075.104.39.18.787.225 1.188.02.175.05.337.062.483.013.146 0 .28 0 .417v.546c.013.067.02.135.021.204z" fill="#263238"/><path d="M205.145 23.9a3.463 3.463 0 11.008-6.926 3.463 3.463 0 01-.008 6.926zm0-6.51a3.045 3.045 0 10.008 6.09 3.045 3.045 0 00-.008-6.09z" fill="#263238"/><path d="M207.118 23.033l-.337.245 1.985 2.735.338-.245-1.986-2.735z" fill="#263238"/><path d="M203.49 19.157a1.996 1.996 0 00.613 2.967" fill="#F0F0F1"/><path d="M204.103 22.125c0 .025-.208-.034-.458-.242a1.938 1.938 0 01-.475-2.321c.145-.292.304-.417.32-.417.017 0-.079.18-.179.463a2.086 2.086 0 00.459 2.162c.187.221.35.325.333.355zm-10.827 37.121c-.625-11.16-5.609-16.348-7.084-25.07-.733-4.38-.546-8.864-3.65-12.035-1.121-1.146-3.201-2.321-4.788-2.5-.871-.109-2.217-.075-3.005.296-1.471-.217-2.134-.288-3.167 0-1.225.341-2.917 1.287-3.751 2.27-2.212 2.701-2.671 6.414-2.704 9.906a58.062 58.062 0 002.329 16.694c.095.532.368 1.016.776 1.371.479.325 1.112.263 1.666.171a33.607 33.607 0 006.368-1.659 2.01 2.01 0 00.796-.441c.567-.575.329-1.521.071-2.284l5.655-4.838c-.375 3.363-1.459 6.613-1.938 9.964a28.11 28.11 0 00.892 12.005 18.39 18.39 0 016.667-.15c.534.088 1.396 4.284 1.867 4.022.796-.459 3.076-6.793 3-7.722z" fill="#263238"/><path d="M173.207 22.337l1.605-.179 6.125 2.467a1.714 1.714 0 011.617 1.667l-.037 19.94a5.568 5.568 0 01-1.084 3.605l-.858 1.137c-1.963 2.588-6.001 2.376-7.551-.479a2.062 2.062 0 01-.217-.517 3.97 3.97 0 01-.092-.446 14.427 14.427 0 01-.195-3c-.109-1.763-.142-2.5-.142-2.471 0 .029-3.751-.417-4.772-5.247-.504-2.396-.579-6.363-.537-9.61.029-2.92 2.529-6.867 6.138-6.867z" fill="#FFBE9D"/><path d="M168.215 33.001a.62.62 0 00.633.588.59.59 0 00.613-.592.63.63 0 00-.865-.56.605.605 0 00-.381.564zm6.234-.391a.629.629 0 00.634.6.6.6 0 00.612-.597.62.62 0 00-.633-.596.59.59 0 00-.613.592zm-6.463-1.401c.079.075.533-.296 1.204-.33.671-.033 1.179.28 1.25.197.071-.084-.05-.184-.275-.33a1.733 1.733 0 00-1-.254 1.641 1.641 0 00-.954.363c-.204.17-.279.32-.225.354zm6.359-.346c.083.075.525-.312 1.196-.362.671-.05 1.183.245 1.25.158.067-.087-.058-.18-.283-.32a1.726 1.726 0 00-1.009-.226 1.67 1.67 0 00-.946.392c-.191.167-.25.325-.208.358zm-1.9 5.226a4.64 4.64 0 00-1.1-.142c-.171 0-.334-.033-.371-.15a.867.867 0 01.091-.512l.438-1.33c.612-1.887 1.042-3.442.967-3.463-.075-.02-.634 1.488-1.25 3.38-.146.467-.288.909-.417 1.334a.988.988 0 00-.054.675.42.42 0 00.295.237c.096.022.194.03.292.025.37.03.743.012 1.109-.054z" fill="#263238"/><path d="M172.378 44.044a12.368 12.368 0 006.417-2.084s-1.466 3.447-6.35 3.234l-.067-1.15zm.429-6.354a1.21 1.21 0 011.063-.501 1.095 1.095 0 01.779.37.704.704 0 01.096.797.834.834 0 01-.871.267 2.567 2.567 0 01-.879-.471.717.717 0 01-.204-.188.224.224 0 010-.25" fill="#EB996E"/><path d="M174.441 36.456c-.113 0-.075.725-.671 1.275-.596.55-1.375.504-1.379.608-.004.104.183.13.508.125a1.836 1.836 0 001.15-.466c.306-.275.491-.658.517-1.067.033-.304-.075-.484-.125-.475zm-.1-8.026c.1.166.658-.063 1.363-.134.704-.07 1.304 0 1.354-.183.021-.083-.117-.23-.379-.346a2.107 2.107 0 00-1.071-.146 2.012 2.012 0 00-.996.388c-.225.162-.317.346-.271.42zm-6.501.237c.125.146.579-.033 1.134-.07.554-.038 1.029.054 1.129-.113.046-.08-.038-.23-.25-.363a1.64 1.64 0 00-1.825.15c-.188.167-.246.317-.188.396z" fill="#263238"/><path d="M181.604 34.451c0-.362.359-1.25.713-1.308.946-.196 2.667-.205 2.804 2.217.188 3.308-3.171 2.813-3.183 2.72-.013-.09-.255-2.379-.334-3.629z" fill="#FFBE9D"/><path d="M182.879 36.768s.059.038.159.075a.57.57 0 00.416 0c.346-.146.609-.717.588-1.317a1.918 1.918 0 00-.208-.833.665.665 0 00-.459-.417.29.29 0 00-.329.18c-.042.091 0 .158-.033.166-.034.008-.071-.054-.055-.192a.368.368 0 01.117-.212.416.416 0 01.317-.104.807.807 0 01.629.479c.159.278.246.592.254.912 0 .667-.291 1.309-.762 1.476a.602.602 0 01-.53-.059c-.095-.075-.116-.145-.104-.154z" fill="#EB996E"/><path d="M183.35 29.488c.23-1.317-.266-3.167-.608-4.459a4.824 4.824 0 00-1.984-2.6 8.061 8.061 0 00-5-1.509l-.663.217c-.975-.08-2.025.13-2.563.917l-.021.025v-.909c-1.779.217-3.333 1.4-4.367 2.867-1.033 1.467-1.608 3.2-2.083 4.934 2.187-1.958 4.558-4.121 6.384-6.43 1.912 2.5 4.742 4.11 7.326 5.98a9.647 9.647 0 01.608 3.817c0 3.25.688 6.189.942 9.435.146 1.867.133 3.467 2.046 3.305.25-6.005-1.029-9.698-.017-15.59z" fill="#263238"/><path d="M185.538 29.238a3.053 3.053 0 01-.917.167 9.158 9.158 0 01-2.25-.092 10.318 10.318 0 01-2.163-.62 3.228 3.228 0 01-.833-.418c.029-.075 1.325.534 3.029.834 1.04.128 2.088.171 3.134.129zm-.521-1.779a2.181 2.181 0 01-.529-.034 16.605 16.605 0 01-1.425-.212 24.586 24.586 0 01-4.584-1.35 24.395 24.395 0 01-4.217-2.217 19.67 19.67 0 01-1.176-.834 2.263 2.263 0 01-.416-.346c.159.077.31.17.45.28.279.191.691.458 1.208.775a28.285 28.285 0 004.263 2.15 28.658 28.658 0 004.518 1.396c.591.133 1.075.23 1.408.283.17.021.337.057.5.109zm-17.986.387c-.199.34-.459.641-.766.888-.463.45-.871.78-.913.733.198-.337.456-.636.763-.879.255-.303.566-.555.916-.742z" fill="#000"/><path d="M172.416 49.84c.366-.641.087-3.287.087-3.287l-.854 1.55c-1.813.704-4.309 1.709-5.001 2.2-1.046.734-2.463 3.826-2.463 3.826l-8.751 11.076-16.381-2.867-1.542 8.193 5.53 1.146 9.714 1.25c2.729.592 5.388.808 7.526-.983l.146-.284c-.771 11.043.291 23.216.654 34.28a5.978 5.978 0 00.462 2.533c.555 1.092 2.622 1.667 3.838 1.505 1.217-.163.834-.938 1.088-2.134.142-.654-.471-1.563-.554-2.229l-3.567-28.83c-.042-.59-.08-1.14-.121-1.629-.417-5.08-.479-6.455-.259-8.78.363-3.588 7.956-12.189 10.448-16.535z" fill="#1C75BB"/><path d="M163.268 57a3.028 3.028 0 01-.25.5c-.175.308-.416.767-.691 1.342a22.816 22.816 0 00-2.255 9.622c0 .638 0 1.154.025 1.508.019.186.019.373 0 .559a2.56 2.56 0 01-.087-.55 16.646 16.646 0 01-.088-1.517 20.575 20.575 0 012.267-9.705c.23-.454.483-.895.759-1.321.091-.157.198-.304.32-.438z" fill="#263238"/><path opacity=".3" d="M162.098 58.913c-1.28 1.846-2.459 3.83-3.022 6.013-.562 2.184-.204 3.421-.254 5.713l1.313.296c-.279-4.109-.121-6.822 1.963-12.022z" fill="#000"/><path d="M161.631 64.926a.786.786 0 010-.216 5.77 5.77 0 01.1-.613c.172-.74.395-1.47.666-2.18a65.093 65.093 0 013.113-6.834c.384-.742.763-1.458 1.138-2.142l.029-.054h.058l1.38-.025-.088.142a1.367 1.367 0 00-.537-.609l-.096-.058.071-.088a32.313 32.313 0 012.963-3.104c.383-.35.696-.621.912-.796.106-.1.222-.187.346-.263a2.474 2.474 0 01-.304.309l-.875.833a38.41 38.41 0 00-2.892 3.146l-.025-.145c.271.163.487.404.621.691l.062.138h-.154l-1.375.037.087-.054c-.371.68-.746 1.396-1.129 2.138-1.338 2.6-2.467 5-3.159 6.788a20.543 20.543 0 00-.729 2.147c-.113.52-.163.812-.183.812z" fill="#263238"/><path d="M178.237 164.135l5.372 8.639s-6.985 8.363-6.151 10.059l17.144-9.805-7.818-13.819-8.547 4.926z" fill="#2B3A8C"/><path d="M188.484 169.023a.838.838 0 01.942.525.779.779 0 01-.508.938.858.858 0 01-.996-.559.805.805 0 01.637-.916" fill="#E0E0E0"/><path opacity=".6" d="M194.602 173.028l-.834-1.363-16.123 9.922s-.571.767-.179 1.25l17.136-9.809z" fill="#F0F0F1"/><path d="M183.279 172.853c.055.083.492-.117 1.059-.084.567.034.988.259 1.046.18.058-.08-.346-.488-1.029-.517-.684-.029-1.138.342-1.076.421zm-1.371 1.775c.03.092.471.025.959.217.487.192.783.521.867.467.083-.055-.138-.555-.75-.78-.613-.225-1.117.013-1.076.096zm.213 2.73c.083-.025-.037-.509-.517-.834-.479-.325-.971-.292-.967-.2.005.092.388.196.776.475.387.279.621.604.708.559zm.154-6.61c.079.055.396-.279.888-.52.491-.242.946-.3.95-.396.004-.096-.525-.192-1.1.096-.575.287-.817.762-.738.82z" fill="#263238"/><path d="M178.983 167.685l.579 10.164s-10.139 4.005-10.214 5.893l19.749-.417-.254-15.877-9.86.237z" fill="#2B3A8C"/><path d="M185.651 176.866a.802.802 0 01.575.909.778.778 0 01-.896.583.834.834 0 01-.605-.967.807.807 0 011.001-.5" fill="#E0E0E0"/><path opacity=".6" d="M189.097 183.329l-.088-1.6-18.902.996s-.871.417-.759 1.017l19.749-.413z" fill="#F0F0F1"/><path d="M179.237 177.774c0 .096.488.129.971.417.484.288.742.7.834.663.091-.038-.067-.596-.654-.951-.588-.354-1.171-.233-1.151-.129zm-2.054.884c0 .096.417.25.737.65.321.4.442.833.538.833.096 0 .146-.554-.283-1.046-.43-.491-.988-.529-.992-.437zm-1.121 2.504c.087 0 .212-.466-.046-.987-.258-.521-.717-.725-.754-.646-.038.079.246.358.45.791.204.434.254.834.35.842zm3.3-5.734c.042.084.484-.058 1.029-.033.546.025.976.192 1.021.108.046-.083-.366-.417-1.008-.442-.642-.025-1.088.292-1.042.367zm-15.11-83.682s-.904 43.26-.088 46.256c.817 2.997 17.519 33.613 17.519 33.613l10.089-4.955-13.381-32.329 2.971-41.568-17.11-1.017z" fill="#263238"/><path d="M186.38 89.33s5.801 9.467 4.772 15.151c-.417 2.33-3.593 7.501-3.593 7.501v27.737l2.459 37.009h-11.777l-5.046-32.646s-1.767-2.996-2.45-5.584c-.684-2.588-2.888-33.15-2.888-33.15l-3.522-12.43 22.045-3.589z" fill="#263238"/><path d="M188.855 157.176c-.022.259-.022.52 0 .779 0 .5.054 1.225.104 2.117.1 1.792.28 4.259.484 6.984.204 2.726.387 5.193.5 6.98.058.863.108 1.576.141 2.117.007.26.034.519.08.775.02-.259.02-.52 0-.779 0-.504-.025-1.25-.063-2.121-.071-1.792-.225-4.263-.417-6.988-.191-2.726-.416-5.151-.558-6.981-.071-.858-.133-1.571-.179-2.112a4.76 4.76 0 00-.092-.771zm-3.729-63.004a1.957 1.957 0 01-.317.358 7.03 7.03 0 01-1.009.833 8.032 8.032 0 01-8.201.48 6.79 6.79 0 01-1.096-.692 1.744 1.744 0 01-.354-.317c.025-.037.542.417 1.521.871a8.335 8.335 0 008.047-.47c.913-.593 1.379-1.093 1.409-1.063zm-17.169 8.705c.01.051.017.102.021.154 0 .113.02.259.037.446.029.417.071.988.125 1.725l.438 6.351c.375 5.363.833 12.773 1.562 20.94.1 1.113.209 2.209.338 3.284.071.538.125 1.075.242 1.58.136.505.3 1.004.491 1.491.73 1.955 1.505 3.797 2.242 5.526.784 5.03 1.446 9.285 1.913 12.293.246 1.488.438 2.667.571 3.488.071.392.125.7.163.921.029.104.052.21.066.317a2.812 2.812 0 01-.096-.308c-.045-.209-.12-.517-.195-.917a145.42 145.42 0 01-.626-3.48 932.084 932.084 0 01-1.992-12.281v.03c-.745-1.73-1.525-3.572-2.258-5.53a13.602 13.602 0 01-.5-1.509c-.125-.537-.179-1.071-.25-1.608-.129-1.08-.242-2.18-.338-3.292-.717-8.172-1.167-15.586-1.5-20.949l-.367-6.355-.087-1.729v-.451a.784.784 0 010-.137z" fill="#000"/><path d="M172.549 48.386s-.125 1.9 1.413 1.9c2.167 0 6.713-4.167 6.713-4.167l-8.751 20.886v25.258l-7.414.78s-.866-.126-1.041-1.376c-.35-2.446-.3-6.905-.584-8.751-.879-5.71-2.613-8.818-2.371-13.335.367-6.722 9.822-18.336 9.822-18.336l2.213-2.859z" fill="#F0F0F1"/><path d="M181.684 43.486a56.798 56.798 0 01-3.655 5.938c-1.888 2.63-13.873 20.99-13.873 20.99l4.788 37.247.534 3.155a1.584 1.584 0 00.667 1.044 1.576 1.576 0 001.216.239l21.17-3.721a1.921 1.921 0 001.504-2.455l-9.434-26.57 6.1-23.578s-.22-3.43-3.938-6.913c-.708-.663-3.633-3.088-4.113-3.75l-.966-1.626z" fill="#1C75BB"/><path opacity=".3" d="M165.66 82.108s9.743 7.726 14.49 7.8c4.746.076 7.209-3.946 7.209-3.946l-9.543.263-12.502-6.872.346 2.755z" fill="#000"/><path d="M158.426 74.794s8.793 5.809 10.418 6.91c1.626 1.1 9.297 5.554 10.298 5.88 1 .324 7.205.362 8.334-1.747 1.129-2.109 1.904-6.61 1.904-6.61l1.509-21.052a8.458 8.458 0 00-1.513-5.51c-.908-1.283-2.108-2.441-3.409-2.25-2.771.417-8.73 7.114-8.442 10.556.287 3.442.291 13.031.291 13.031l-15.698-5.196-3.692 5.988z" fill="#1C75BB"/><path d="M189.376 52.641a7.991 7.991 0 01.954 1.696c.295.72.488 1.477.575 2.25a17.314 17.314 0 01-.07 3.138c-.33 4.693-.792 11.373-1.346 19.365-.159.9-.352 1.81-.58 2.73-.223.94-.501 1.865-.833 2.771a5.722 5.722 0 01-.667 1.35c-.32.408-.731.735-1.2.955a9.241 9.241 0 01-2.971.879 12.688 12.688 0 01-3.184.087 4.455 4.455 0 01-1.579-.416c-.484-.246-.959-.509-1.438-.771a308.217 308.217 0 01-5.776-3.334c-2.325-1.35-4.488-2.875-6.638-4.284l-6.251-4.167-.083-.054.05-.088 3.7-6.096.042-.067.075.025 15.689 5.321-.096.063c.321-3.917.58-7.03.755-9.168.091-1.063.162-1.883.208-2.446.025-.275.046-.483.058-.634.013-.15.03-.212.03-.212v.217c0 .141-.021.358-.038.633-.042.563-.1 1.388-.175 2.45-.158 2.147-.392 5.26-.687 9.168v.092l-.088-.03-15.715-5.28.113-.04c-1.181 1.944-2.41 3.979-3.688 6.104l-.033-.137 6.25 4.146c2.155 1.404 4.309 2.917 6.63 4.272a238.56 238.56 0 005.768 3.333c.479.263.954.53 1.429.771.472.233.984.374 1.509.417a12.62 12.62 0 003.125-.08 9.22 9.22 0 002.917-.858 3.197 3.197 0 001.134-.892c.267-.404.482-.841.641-1.3.332-.9.61-1.818.834-2.75.225-.913.417-1.821.579-2.709.584-7.988 1.075-14.673 1.421-19.36.126-1.036.158-2.08.096-3.122a8.383 8.383 0 00-.546-2.238 7.876 7.876 0 00-.637-1.283c-.08-.142-.15-.242-.196-.313l-.067-.104z" fill="#263238"/><path d="M166.827 66.272a1.14 1.14 0 01.188-.22l.571-.618 2.083-2.262 3.126-3.334c1.2-1.25 2.479-2.642 3.992-3.967v.154l-.129-.142-1.055-1.167-.175-.196h.259l1.962.105-.095.054c1.575-2.746 2.946-5.134 3.942-6.864.487-.833.879-1.508 1.167-1.992l.32-.529a1.07 1.07 0 01.121-.179.776.776 0 01-.087.196l-.292.546-1.113 2.025c-.979 1.738-2.325 4.138-3.879 6.9l-.029.055h-.067l-1.959-.1.084-.18 1.058 1.172.125.137.075.084-.083.075c-1.488 1.304-2.784 2.704-3.984 3.938l-3.163 3.309c-.896.941-1.629 1.7-2.142 2.217-.258.258-.458.458-.596.587-.07.07-.145.136-.225.196z" fill="#263238"/><path opacity=".3" d="M166.123 67.439l11.918-11.24-1.012-1.112h1.012l.267-1.533-.667 1.179-1.963-.1 1.159 1.063-9.906 10.472-.808 1.27z" fill="#000"/><path d="M173.649 96.726c.066-.02.132-.037.2-.05l.604-.133 2.305-.48 8.03-1.633h.071l.037.062 2.217 3.605.079.133-.154.03-.258.05-11.718 2.2h-.059l-.021-.054-1-2.755c-.104-.3-.191-.541-.254-.725a2.055 2.055 0 01-.079-.242c.043.085.081.173.112.263.075.183.175.417.296.73l1.059 2.679-.079-.046 11.701-2.271.263-.05-.075.162-2.205-3.608.109.05-7.976 1.516-2.342.417-.634.113c-.075.017-.152.03-.229.037z" fill="#263238"/><path opacity=".3" d="M173.782 97.076l.846 4.376 12.135-2.188-.342-1.013-11.372 2.171-1.267-3.346z" fill="#000"/><path d="M180.879 77.665c-.058.03-.563-.97-1.471-1.992-.908-1.02-1.825-1.667-1.788-1.713a5.95 5.95 0 011.951 1.567 5.864 5.864 0 011.308 2.138z" fill="#263238"/><path d="M137.186 64.105s-3.038-1.825-4.255-2.988c0 0-1.771-.558-2.584.559 0 0-1.875.516-2.129.866s-1.821 2.78-1.821 2.78.833 2.896.908 3.038c.155.317.492.654.78.304a.617.617 0 00.137-.417v-.191l.459-.321s.2 1.125.808.95c.608-.175 1.975-1.188 1.975-1.188s1.926 1.096 2.942 1.204c1.124.192 2.237.442 3.334.75l1.021-5.508-1.575.162z" fill="#FFBE9D"/><path d="M128.135 68.302s-.071.079-.242.045a.627.627 0 01-.417-.5 9.03 9.03 0 010-2.117c.075-.7.184-1.395.33-2.083.039-.287.116-.567.229-.834.071 0-.167 1.321-.346 2.917a13.162 13.162 0 00-.075 2.063.543.543 0 00.308.45c.125.075.209.042.213.059zm3.567-4.752a2.437 2.437 0 01-1.438.668l.088-.08-.026.105a6.662 6.662 0 01-.504 1.612 6.743 6.743 0 01.292-1.667l.025-.108v-.067h.071a10.859 10.859 0 001.492-.462z" fill="#EB996E"/><path d="M134.177 63.93a1.495 1.495 0 00-1.667-.342l-.321.417-2.396 2c-.444.32-.811.734-1.075 1.213a1.251 1.251 0 00.25 1.488c.488.379 1.221.166 1.7-.225.48-.392.834-.925 1.326-1.292.775-.567 1.9-.721 2.375-1.554a1.496 1.496 0 00-.192-1.705z" fill="#FFBE9D"/><path d="M132.319 63.176c.029.306-.046.613-.213.87-.159.29-.363.55-.604.776-.294.27-.608.515-.942.733a5.884 5.884 0 00-1.583 1.359c-.16.244-.299.5-.417.766a1.37 1.37 0 01.279-.833c.177-.277.393-.527.642-.742.3-.258.618-.496.95-.712a9.48 9.48 0 00.925-.7 3.34 3.34 0 00.608-.705 4.72 4.72 0 00.355-.812z" fill="#EB996E"/><path d="M144.391 72.802s.083-2.988.834-3.871c.75-.884 5.204-2.005 5.204-2.005l11.102 2.576-2.58 4.167-.779-.734s-3.513 1.046-5.242.659a19.61 19.61 0 01-3.03-.925l-1.808.125s-1.305 1.346-1.726 1.346c-.421 0-.883-.375-.675-.796l-.379-.634s-.75.467-.921.092z" fill="#FFBE9D"/><path d="M150.221 70.723c-.241.148-.511.24-.792.27-.654.078-1.302.205-1.938.38a2.67 2.67 0 00-1.391 1.275 4.46 4.46 0 01-.417.713 2.48 2.48 0 01.283-.788 3.41 3.41 0 01.509-.767c.256-.287.58-.506.941-.637a9.285 9.285 0 011.992-.33c.5-.054.8-.162.813-.116zm-.883-2.217c0 .033-.35.091-.901.283-.32.111-.634.24-.941.383-.377.161-.73.371-1.05.626a2.43 2.43 0 00-.359.504 5.991 5.991 0 00-.287.525c-.152.3-.272.616-.359.942-.146.554-.121.92-.162.92a1.92 1.92 0 010-.958 4.46 4.46 0 01.329-.992c.083-.179.175-.362.283-.546a2.45 2.45 0 01.392-.558c.34-.267.716-.485 1.117-.646.318-.137.645-.252.979-.346.307-.11.633-.156.959-.137z" fill="#EB996E"/></svg>