<svg width="693" height="609" fill="none" xmlns="http://www.w3.org/2000/svg"><g clip-path="url(#clip0)"><path d="M63.912 59.035l.611 1.118a7.544 7.544 0 003.059 3.062l1.131.612-1.131.613a7.65 7.65 0 00-3.058 3.062l-.612 1.117-.612-1.255a7.65 7.65 0 00-3.058-3.062l-1.131-.613 1.131-.612a7.543 7.543 0 003.058-3.062l.612-.98zm139.765 51.197l1.177 2.113a14.223 14.223 0 005.688 5.649l2.141 1.164-2.141 1.163a14.229 14.229 0 00-5.657 5.695l-1.178 2.113-1.162-2.113a14.185 14.185 0 00-5.703-5.649l-2.14-1.164 2.14-1.163a14.185 14.185 0 005.703-5.649l1.132-2.159zm455.868 194.436l1.163 2.129a14.362 14.362 0 005.703 5.649l2.14 1.148-2.14 1.164a14.179 14.179 0 00-5.703 5.649l-1.163 2.128-1.177-2.128a14.223 14.223 0 00-5.688-5.649l-2.14-1.164 2.14-1.148a14.427 14.427 0 005.688-5.649l1.177-2.129zM168.097 18.816l.535.95a6.241 6.241 0 002.615 2.525l.963.536-.963.52a6.237 6.237 0 00-2.553 2.527l-.536.949-.519-.95a6.446 6.446 0 00-2.554-2.525l-.963-.52.963-.537a6.445 6.445 0 002.554-2.526l.458-.95zm397.874 239.693h74.844s-6.62-12.064-25.885-10.304c-18.348 1.669-19.327-5.94-28.684-6.874-9.358-.934-17.155 6.247-20.275 17.178zM473.299 80.607h146.279s-12.936-23.562-50.595-20.133c-35.946 3.277-37.781-11.59-56.068-13.426-18.286-1.838-33.515 12.201-39.616 33.559zM59.157 129.614h83.911s-7.416-13.518-29.051-11.543c-20.626 1.883-21.681-6.66-32.109-7.655-10.427-.996-19.22 6.95-22.751 19.198z" fill="#EBEBEB"/><path d="M641.565 184.21c0 .153-1.942.658-4.862 2.112a31.639 31.639 0 00-9.939 7.808l-.306.353-.367.444-.305-.475a23.358 23.358 0 00-9.083-8.176c-2.844-1.423-4.801-1.791-4.77-1.929.471-.031.944.031 1.391.184 1.247.282 2.462.693 3.624 1.225a22.3 22.3 0 019.541 8.237h-.673l.306-.368a29.165 29.165 0 0110.321-7.808 24.895 24.895 0 013.7-1.317 4.937 4.937 0 011.422-.29zM63.33 170.599c0 .107-1.528.505-3.73 1.623a24.045 24.045 0 00-7.645 5.986l-.23.26-.275.337-.244-.367a17.78 17.78 0 00-6.865-6.247c-2.172-1.102-3.685-1.378-3.655-1.531a2.72 2.72 0 011.07.138c.953.213 1.881.526 2.768.934a17.164 17.164 0 017.324 6.323h-.52l.23-.276a22.396 22.396 0 017.904-5.986 20.617 20.617 0 012.844-1.01c.33-.112.676-.174 1.025-.184zm68.377 37.953c0 .138-1.941.644-4.877 2.113a31.323 31.323 0 00-9.923 7.808l-.306.352-.367.429-.306-.474a23.219 23.219 0 00-9.097-8.161c-2.829-1.423-4.801-1.791-4.755-1.944a4.55 4.55 0 011.391.184c1.246.284 2.46.694 3.624 1.224a22.356 22.356 0 019.541 8.253h-.673l.306-.353a29.056 29.056 0 0110.32-7.808 24.157 24.157 0 013.701-1.332 3.985 3.985 0 011.421-.291zM426.359 0c0 .138-1.957.658-4.877 2.113a31.417 31.417 0 00-9.939 7.808l-.29.352-.382.444-.306-.49a23.187 23.187 0 00-9.082-8.16C398.639.658 396.682.29 396.712.137c.471-.011.94.05 1.392.185 1.246.288 2.461.704 3.623 1.24a22.194 22.194 0 019.572 8.236h-.673l.306-.367a29.156 29.156 0 0110.29-7.9 24.319 24.319 0 013.715-1.317c.461-.142.94-.215 1.422-.214z" fill="#263238"/><path d="M609.272 133.87l.306.552c.35.648.881 1.18 1.529 1.531l.566.306-.566.306a3.636 3.636 0 00-1.529 1.531l-.306.566-.305-.566a3.752 3.752 0 00-1.529-1.531l-.566-.306.566-.306a3.895 3.895 0 001.529-1.531l.305-.552zM57.612 289.68l.306.551a3.636 3.636 0 001.53 1.531l.565.306-.566.306a3.788 3.788 0 00-1.529 1.531l-.306.552-.305-.552a3.927 3.927 0 00-1.53-1.531l-.55-.306.55-.306a3.776 3.776 0 001.53-1.531l.305-.551zm422.644-81.618l1.055 1.93a12.996 12.996 0 005.137 5.144l1.927 1.056-1.927 1.056a12.999 12.999 0 00-5.137 5.145l-1.055 1.929-1.055-1.929a12.992 12.992 0 00-5.137-5.145l-1.927-1.056 1.927-1.056a12.99 12.99 0 005.137-5.144l1.055-1.93zM238.783 18.877l1.055 1.945a12.851 12.851 0 005.137 5.205l1.927 1.072-1.927 1.056a12.79 12.79 0 00-5.137 5.144l-1.055 1.914-1.055-1.93a12.887 12.887 0 00-5.138-5.143l-1.926-1.057 1.926-1.071a12.946 12.946 0 005.138-5.13l1.055-2.005zm124.551 495.538s-.214.168-.657.459l-2.019 1.286a40.664 40.664 0 01-8.486 3.476 51.26 51.26 0 01-14.403 1.684 88.207 88.207 0 01-19.051-2.542c-6.957-1.531-14.388-4.011-22.445-6.2-8.058-2.19-16.819-4.21-26.207-3.981-4.789.129-9.542.87-14.144 2.205a131.582 131.582 0 00-14.143 5.052c-4.74 1.914-9.556 3.95-14.586 5.634a62.41 62.41 0 01-15.779 3.368 61.767 61.767 0 01-16.085-1.331c-5.199-1.057-10.214-2.511-15.137-3.95-9.786-2.879-19.388-5.589-28.776-5.558a100.15 100.15 0 00-26.222 4.057c-8.073 2.189-15.474 4.593-22.324 6.568a131.704 131.704 0 01-18.776 4.149c-4.81.654-9.679.747-14.51.276a48.64 48.64 0 01-8.975-1.853l-2.248-.811a8.068 8.068 0 01-.749-.306l.78.229 2.263.735c2.93.829 5.93 1.398 8.96 1.7 4.827.406 9.684.267 14.48-.414a132.404 132.404 0 0018.668-4.241c6.835-1.959 14.235-4.44 22.308-6.66a100.413 100.413 0 0126.299-4.164c9.526 0 19.204 2.695 29.051 5.558 9.847 2.863 20.137 5.879 30.962 5.236a62.644 62.644 0 0015.565-3.338c5-1.669 9.801-3.69 14.556-5.603a132.89 132.89 0 0114.235-5.053 56.796 56.796 0 0114.327-2.22c9.495-.199 18.348 1.899 26.405 4.088 8.058 2.189 15.474 4.67 22.385 6.293a88.799 88.799 0 0018.929 2.648 51.57 51.57 0 0014.311-1.531 41.985 41.985 0 008.501-3.322l2.049-1.21.688-.413zm184.565 78.969l-.704.474-2.094 1.332a41.996 41.996 0 01-8.807 3.614 53.015 53.015 0 01-14.954 1.76 92.618 92.618 0 01-19.831-2.633c-7.217-1.654-14.923-4.164-23.286-6.43-8.364-2.266-17.492-4.379-27.216-4.134-4.97.144-9.902.916-14.679 2.296a141.945 141.945 0 00-14.693 5.252c-4.908 1.99-9.908 4.103-15.137 5.864a65.618 65.618 0 01-16.376 3.506 64.44 64.44 0 01-16.696-1.378c-5.413-1.103-10.627-2.618-15.719-4.088-10.167-3.062-20.136-5.803-29.891-5.772a103.582 103.582 0 00-27.216 4.226c-8.379 2.281-16.07 4.807-23.18 6.828a137.252 137.252 0 01-19.479 4.287 65.92 65.92 0 01-15.061.306 52.338 52.338 0 01-9.327-1.929l-2.339-.842-.78-.322.811.245 2.354.75a55.421 55.421 0 009.312 1.776 65.792 65.792 0 0014.953-.444 137.32 137.32 0 0019.388-4.409c7.094-2.036 14.77-4.593 23.164-6.92a104.334 104.334 0 0127.415-4.333c9.877 0 19.877 2.787 30.106 5.757 10.229 2.97 20.886 6.124 32.109 5.419a64.491 64.491 0 0016.176-3.46c5.184-1.73 10.168-3.827 15.092-5.817a137.546 137.546 0 0114.785-5.267 59.04 59.04 0 0114.862-2.297c9.877-.229 19.051 1.96 27.415 4.226 8.363 2.266 16.084 4.838 23.255 6.537a92.999 92.999 0 0019.755 2.787 53.474 53.474 0 0014.862-1.531 43.87 43.87 0 008.822-3.46l2.125-1.256c.444-.398.704-.52.704-.52z" fill="#455A64"/><path d="M603.401 536.997a2.005 2.005 0 01-.413-.138l-1.147-.49a39.322 39.322 0 00-4.495-1.531 51.296 51.296 0 00-17.354-1.194c-7.385.506-15.978 2.634-25.656 4.272a75.89 75.89 0 01-15.382 1.163 65.026 65.026 0 01-16.284-3.062c-5.443-1.531-10.703-3.414-15.84-4.593a41.519 41.519 0 00-15.107-1.025 51.056 51.056 0 00-13.164 4.026c-3.991 1.745-7.645 3.583-10.994 5.114a48.559 48.559 0 01-16.819 5.098c-1.597.099-3.2.038-4.785-.184l-1.223-.184a1.33 1.33 0 01-.413-.091h.413l1.238.091a26.24 26.24 0 004.74 0 49.396 49.396 0 0016.574-5.297c3.349-1.531 6.957-3.429 10.948-5.205a51.04 51.04 0 0113.348-4.164 41.97 41.97 0 0115.397.995c5.244 1.179 10.473 3.062 15.886 4.593a65.923 65.923 0 0016.085 3.062 77.023 77.023 0 0015.29-1.118c9.632-1.531 18.348-3.659 25.733-4.088a49.754 49.754 0 0117.491 1.455 27.191 27.191 0 015.933 2.495zM693 402.392c0 .23-155.147.398-346.485.398C155.177 402.79 0 402.652 0 402.392s155.116-.398 346.515-.398c191.399 0 346.485.184 346.485.398z" fill="#263238"/><path d="M326.394 75.555L6.269 401.825l199.028-.061 121.097-285.378V75.555z" fill="#8CBF43"/><path opacity=".9" d="M326.394 75.555L6.269 401.825l199.028-.061 121.097-285.378V75.555z" fill="#fff"/><path d="M247.987 458.534c29.846 1.408 60.288 2.909 88.07 11.298 10.825 3.277 21.635 7.655 33.286 7.349 17.477-.444 32.522-11.314 49.998-10.931 15.504.337 28.547 9.446 43.928 10.931 18.149 1.746 34.907-7.318 52.934-9.66 25.458-3.307 52.704 8.374 76.893.918 9.648-2.97-.933-7.946-9.556-8.16 0 0-31.926-.429-40.549-6.691-8.624-6.261-15.29-6.996-20.29-8.466-5-1.47-13.134 1.776-13.134 1.776l-99.384 1.286-74.63-5.955-66.619 3.796-20.947 12.509z" fill="#EBEBEB"/><path d="M315.614 161.367l-7.645 246.812 95.211-1.148-8.333-245.664h-79.233z" fill="#8CBF43"/><path d="M401.36 150.604h-93.391v10.763h93.391v-10.763z" fill="#455A64"/><path d="M326.394 150.604V74.85l25.457-11.1h6.132l25.931 11.805v75.049h-57.52z" fill="#8CBF43"/><path d="M383.914 75.555h-57.52v40.831h57.52V75.555z" fill="#EBEBEB"/><path d="M351.852 63.75v-8.267h5.657v8.268H352.8" fill="#8CBF43"/><path opacity=".4" d="M396.941 223.204h-83.253l-1.759 56.172h86.924l-1.912-56.172z" fill="#fff"/><path d="M391.147 150.604a3.177 3.177 0 010-.903c0-.674 0-1.531-.077-2.618 0-2.373-.076-5.649-.138-9.707l.291.291c-8.975.123-22.048.123-36.497.123-14.449 0-27.522 0-36.421-.123l.276-.291c0 4.058-.092 7.334-.123 9.707 0 1.072 0 1.944-.076 2.618.008.303-.018.606-.077.903a3.251 3.251 0 010-.903c0-.674 0-1.531-.076-2.618 0-2.373 0-5.649-.138-9.707v-.275h.291c8.944-.092 21.971-.138 36.42-.138 14.449 0 27.522 0 36.436.138h.184v.275c0 4.058-.092 7.334-.123 9.707v2.618a4.12 4.12 0 01-.152.903z" fill="#263238"/><path d="M370.383 150.604a26.716 26.716 0 01-.413-6.614 26.813 26.813 0 01.413-6.614c.42 2.178.564 4.4.428 6.614a26.289 26.289 0 01-.428 6.614zm-26.895 0a26.196 26.196 0 01-.428-6.614 26.338 26.338 0 01.428-6.614c.41 2.179.549 4.401.413 6.614a26.764 26.764 0 01-.413 6.614zm-.505-34.248c-.244 0-.428-9.186-.428-20.424 0-11.237.184-20.408.428-20.408.245 0 .413 9.186.413 20.408 0 11.222-.183 20.424-.413 20.424zm22.599 0c-.245 0-.428-9.186-.428-20.424 0-11.237.183-20.408.428-20.408s.413 9.186.413 20.408c0 11.222-.184 20.424-.413 20.424z" fill="#263238"/><path d="M383.914 96.07c-.746.137-1.504.199-2.263.184l-6.116.184c-5.198.107-12.4.214-20.335.245-7.936.03-15.137 0-20.336-.108-2.817.09-5.637-.08-8.424-.505l28.76-.23h26.451a11.7 11.7 0 012.263.23z" fill="#263238"/><path opacity=".4" d="M310.11 338.167h90.73l1.927 56.417-94.4-.383 1.743-56.034z" fill="#fff"/><path d="M314.544 202.704a32.593 32.593 0 015.015-.276c3.058 0 7.492-.122 12.446-.137l-.413.413v-7.027l.413.398c-4.954 0-9.327 0-12.446-.138a37.022 37.022 0 01-5.015-.26 32.468 32.468 0 015.015-.276c3.058 0 7.492-.122 12.446-.138h.413v7.854h-.413c-4.954 0-9.327 0-12.446-.137a32.593 32.593 0 01-5.015-.276zm46.91-75.953a9.594 9.594 0 01-.138-1.791c0-1.209-.122-3.062-.153-5.236v-.306h.291c4.434 0 10.626-.123 17.461-.123-.367-.367.52.506.428.429v7.41h-.398c-5.152 0-9.587-.107-12.675-.184l-3.593-.107a6.045 6.045 0 01-1.208-.107c.461-.067.926-.102 1.391-.107l3.685-.107c3.058-.077 7.416-.169 12.4-.184l-.413.398v-6.997c-.091-.092.795.781.413.414-6.834 0-13.027 0-17.461-.123l.291-.291c0 2.098-.107 3.828-.153 5.053-.015.656-.071 1.31-.168 1.959z" fill="#263238"/><path d="M351.209 133.916a8.15 8.15 0 01-.137-1.791c0-1.194-.123-3.062-.153-5.236v-.291h.306c4.418 0 10.611-.122 17.461-.122l.412.413v7.41h-.397c-5.153 0-9.572-.122-12.66-.199l-3.593-.107a3.808 3.808 0 01-1.208-.107 9.252 9.252 0 011.391-.092l3.67-.107c3.058 0 7.431-.169 12.4-.199l-.398.398v-6.966l.413.413c-6.85 0-13.042 0-17.461-.122l.291-.291c0 2.112-.107 3.842-.169 5.067-.019.646-.076 1.29-.168 1.929zM310.492 322.26a32.399 32.399 0 015-.276c3.058-.077 7.508-.123 12.461-.138l-.412.414v-7.043l.412.413c-4.969 0-9.326 0-12.461-.137a32.399 32.399 0 01-5-.276 33.829 33.829 0 015-.26c3.058-.077 7.492-.138 12.461-.153h.413v7.869h-.413c-4.953 0-9.326 0-12.461-.138a32.524 32.524 0 01-5-.275zm32.996-111.84a17.397 17.397 0 01-.137-2.128c0-1.347-.107-3.246-.153-5.588l.29.291c-5.229 0-12.828.122-21.268.122l.413-.413v7.732l-.398-.399c6.116 0 11.315.108 15.107.184l4.464.123c.567-.004 1.134.026 1.697.092a7.749 7.749 0 01-1.529.107l-4.372.107c-3.777 0-9.174.168-15.382.199h-.398v-8.099l.413-.413c8.44 0 16.039 0 21.268.137h.276v.276c0 2.48-.107 4.44-.153 5.756-.001.641-.047 1.28-.138 1.914zm21.818 89.839a21.02 21.02 0 01-.122-2.143c0-1.332-.122-3.231-.153-5.573l.275.276c-5.213.091-12.812.137-21.253.137l.413-.413v7.686l-.397-.399c6.116 0 11.299.108 15.091.184l4.48.107c.562.005 1.124.04 1.682.108a9.206 9.206 0 01-1.529.107l-4.388.107a870.71 870.71 0 01-15.29.184h-.398v-8.053l.428-.429c8.44 0 16.039 0 21.253.138h.291v.275c0 2.465-.107 4.425-.153 5.741-.023.659-.1 1.314-.23 1.96z" fill="#263238"/><path d="M337.601 329.976a17.659 17.659 0 01-.137-2.144c0-1.332-.107-3.23-.153-5.572l.29.275c-5.229.092-12.828.138-21.268.138-.367.383.505-.505.413-.413v7.685l-.398-.398c6.116 0 11.315.107 15.107.184l4.464.107c.568.005 1.134.041 1.698.107a9.673 9.673 0 01-1.529.107l-4.373.107c-3.777.077-9.174.169-15.382.184h-.398v-8.083l.413-.414c8.44 0 16.039 0 21.269.123h.29v.275c0 2.465-.107 4.44-.153 5.757a13.332 13.332 0 01-.153 1.975zm51.298 39.882a20.462 20.462 0 01-.122-2.143c0-1.332-.123-3.231-.153-5.573l.275.276c-5.229.091-12.828.137-21.253.137l.413-.413v7.686l-.413-.398c6.116 0 11.315.107 15.107.183l4.479.107c.563.005 1.124.04 1.682.108a9.418 9.418 0 01-1.529.107l-4.388.107c-3.761.076-9.174.168-15.381.184h-.398v-8.084c-.092.092.795-.796.428-.413 8.425 0 16.024 0 21.253.122h.291v.276c0 2.48-.092 4.44-.153 5.756a11.07 11.07 0 01-.138 1.975z" fill="#263238"/><path d="M402.293 377.927a20.178 20.178 0 01-.122-2.128c0-1.348-.123-3.246-.153-5.589l.275.291c-5.214.077-12.813.138-21.253.138-.382.368.505-.52.413-.429v7.686l-.398-.398c6.116 0 11.299.107 15.091.184l4.48.122c.562-.004 1.124.026 1.682.092a6.08 6.08 0 01-1.529.107l-4.388.123c-3.761.076-9.174.153-15.29.183h-.382v-8.099c-.077.092.795-.78.428-.413 8.44 0 16.039 0 21.253.138h.29v.275c0 2.481-.107 4.44-.152 5.757a11.855 11.855 0 01-.245 1.96zm-16.024-130.671a17.613 17.613 0 01-.138-2.128c0-1.347-.107-3.246-.152-5.588l.29.291c-5.229 0-12.828.138-21.268.138l.428-.429v7.655l-.413-.398c6.116 0 11.315.107 15.107.183l4.464.123c.567-.005 1.134.026 1.697.092a6.373 6.373 0 01-1.529.107l-4.373.107c-3.776.092-9.173.169-15.381.199h-.398v-8.099l.413-.413c8.44 0 16.039 0 21.268.138h.291v.275c0 2.48-.092 4.44-.153 5.757a13.534 13.534 0 01-.153 1.99z" fill="#263238"/><path opacity=".4" d="M315.614 161.367l54.769 12.371 4.082 233.293h28.715l-8.333-245.664h-79.233z" fill="#000"/><path d="M276.748 439.549c0 .23-18.348.414-40.901.414-22.553 0-40.916-.184-40.916-.414 0-.229 18.348-.428 40.916-.428 22.568 0 40.901.183 40.901.428zm169.305-32.702c-.853.267-1.728.457-2.615.567l-7.171 1.224c-6.116.98-14.449 2.297-23.714 3.705l-3.609.536.245-.122-9.801 10.487-.092.092h-.122l-11.452 1.623-3.211.398a4.08 4.08 0 01-1.147 0 5.95 5.95 0 011.116-.276l3.181-.597 11.406-1.913-.199.107 9.709-10.579.092-.108h.153l3.608-.551c9.266-1.408 17.66-2.633 23.761-3.475l7.201-.949a17.811 17.811 0 012.661-.169z" fill="#263238"/><path d="M227.453 420.458a11.386 11.386 0 017.094-.873 5.918 5.918 0 013.502 1.531 2.515 2.515 0 010 3.506 3.36 3.36 0 01-2.217.551c-1.866 0-3.96-.352-5.459.781-.856.643-1.422 1.715-2.446 2.036a2.425 2.425 0 01-2.661-1.179 4.232 4.232 0 01-.29-3.062 4.588 4.588 0 012.477-3.291zm-4.939-9.569c1.315 1.898 3.884 1.271 5.061.122a9.69 9.69 0 002.156-4.424c1.039-3.629 2.094-7.456 1.33-11.161a6.342 6.342 0 00-1.437-3.062 3.244 3.244 0 00-3.058-1.026 4.777 4.777 0 00-2.676 2.817 26.632 26.632 0 00-2.63 11.421 9.196 9.196 0 001.254 5.282m-3.623 2.741a6.87 6.87 0 001.055-6.308 12.136 12.136 0 00-3.731-5.435 20.224 20.224 0 00-6.697-3.965 7.263 7.263 0 00-3.058-.505 3.138 3.138 0 00-2.523 1.531 4.727 4.727 0 00.703 4.302 50.068 50.068 0 004.389 6.705 11.728 11.728 0 004.846 4.149c2.003.781 4.083.689 5.153-.704" fill="#8CBF43"/><path d="M222.422 439.396c.062-.282.103-.569.122-.857 0-.628.123-1.409.215-2.343.091-.934.259-2.158.535-3.429.305-1.383.719-2.74 1.238-4.057a15.525 15.525 0 012.064-3.659 7.97 7.97 0 012.615-2.174 7.636 7.636 0 012.202-.689 4.12 4.12 0 00.856-.123 3.534 3.534 0 00-.872 0 7.045 7.045 0 00-2.293.597 7.896 7.896 0 00-2.752 2.19 14.54 14.54 0 00-2.141 3.751 23.926 23.926 0 00-1.238 4.118 28.64 28.64 0 00-.459 3.475 31.716 31.716 0 00-.107 2.358c-.03.28-.025.563.015.842z" fill="#263238"/><path d="M222.575 437.574a1.156 1.156 0 000-.398v-5.328c.092-3.521.383-7.333.979-12.676.55-5.037 1.3-10.901 2.079-14.713.169-.873.337-1.654.505-2.327.168-.674.275-1.286.413-1.761.137-.475.183-.811.26-1.102a1.109 1.109 0 000-.398l-.138.382a35.54 35.54 0 01-.321 1.087 30.653 30.653 0 00-.474 1.746c-.168.689-.367 1.454-.55 2.312a126.46 126.46 0 00-2.187 13.656 135.579 135.579 0 00-.871 13.779v5.328c.075.156.178.296.305.413z" fill="#263238"/><path d="M222.606 428.143a10.34 10.34 0 000-1.194 29.423 29.423 0 00-.367-3.215 38.718 38.718 0 00-1.04-4.7 37.246 37.246 0 00-1.957-5.542 29.083 29.083 0 00-5.764-8.972c-.421-.452-.87-.877-1.346-1.271-.214-.168-.397-.352-.581-.49l-.519-.352a5.758 5.758 0 00-1.01-.643 32.005 32.005 0 013.288 2.924 31.405 31.405 0 015.611 8.942 49.74 49.74 0 011.973 5.496c.504 1.73.841 3.307 1.1 4.593.26 1.286.398 2.434.474 3.184.008.417.054.832.138 1.24zm101.846-190.425h-6.162v9.538h6.162v-9.538zm0 12.156h-6.162v9.538h6.162v-9.538z" fill="#263238"/><path d="M429.967 388.123c.077-2.419 2.217-4.256 4.343-5.404 2.125-1.149 4.587-2.037 6.009-3.935 2.416-3.062 1.865-8.176 5.091-10.395 1.896-1.302 4.587-1.149 6.346-2.618a10.122 10.122 0 002.079-2.955 34.509 34.509 0 0112.782-13.075 30.228 30.228 0 01-7.645 13.978 19.917 19.917 0 00-4.113 4.96c-1.529 3.17-.642 7.135-2.4 10.166-2.018 3.46-6.942 4.731-8.257 8.513-1.116 3.199.887 6.889-.275 10.074a9.174 9.174 0 01-2.569 3.429c-3.73 3.445-8.256 5.251-13.76 3.521l-6.911-1.73 9.28-14.529z" fill="#8CBF43"/><path opacity=".3" d="M429.967 388.123c.077-2.419 2.217-4.256 4.343-5.404 2.125-1.149 4.587-2.037 6.009-3.935 2.416-3.062 1.865-8.176 5.091-10.395 1.896-1.302 4.587-1.149 6.346-2.618a10.122 10.122 0 002.079-2.955 34.509 34.509 0 0112.782-13.075 30.228 30.228 0 01-7.645 13.978 19.917 19.917 0 00-4.113 4.96c-1.529 3.17-.642 7.135-2.4 10.166-2.018 3.46-6.942 4.731-8.257 8.513-1.116 3.199.887 6.889-.275 10.074a9.174 9.174 0 01-2.569 3.429c-3.73 3.445-8.256 5.251-13.76 3.521l-6.911-1.73 9.28-14.529z" fill="#000"/><path d="M419.249 402.392a5.497 5.497 0 01-1.896-.551 11.086 11.086 0 01-4.418-3.521 4.049 4.049 0 01-.704-1.868 7.699 7.699 0 01.26-2.174 8.226 8.226 0 00.291-4.593 17.372 17.372 0 01-1.239-5.481c.245-2.11.905-4.149 1.942-6.002a13.185 13.185 0 001.682-6.415c-.107-2.327-1.04-4.7-1.101-7.379-.061-2.679 1.086-5.236 1.667-7.854.33-1.305.403-2.663.214-3.996-.199-1.363-.627-2.725-.872-4.195a28.58 28.58 0 01.673-8.956c.26-1.531.52-3.062.795-4.593.321-1.511.49-3.049.505-4.593a41.783 41.783 0 00-.398-4.7 14.502 14.502 0 01-.153-2.481c.117-.824.275-1.641.474-2.449a51.635 51.635 0 013.593-9.186l.107-.26.23-.552.443.398a13.791 13.791 0 013.884 9.186 55.467 55.467 0 01-.489 9.63c-.421 3.01-.292 6.07.382 9.033.749 2.817 2.385 5.604 1.987 8.712-.397 3.108-2.813 5.174-3.21 7.777-.398 2.603.581 5.144 1.33 7.563a13.374 13.374 0 01.749 7.456c-.505 2.389-1.529 4.486-1.911 6.583a15.623 15.623 0 000 6.124c.336 1.914.81 3.706 1.146 5.42a14.44 14.44 0 01.352 4.853 14.134 14.134 0 01-1.116 3.95 10.333 10.333 0 01-3.456 4.425 4.761 4.761 0 01-1.773.811 15.53 15.53 0 001.682-.949 10.526 10.526 0 003.256-4.409 14.63 14.63 0 001.01-3.873 14.274 14.274 0 00-.413-4.716c-.367-1.684-.856-3.475-1.208-5.42a16.076 16.076 0 01-.092-6.292c.444-2.189 1.392-4.302 1.866-6.583a12.87 12.87 0 00-.78-7.119c-.398-1.21-.841-2.45-1.162-3.767a9.917 9.917 0 01-.23-4.149c.49-2.893 2.814-5.006 3.165-7.655.352-2.648-1.162-5.465-1.987-8.405a25.796 25.796 0 01-.444-9.324c.449-3.142.608-6.32.474-9.492a12.894 12.894 0 00-3.608-8.604l.657-.153-.107.275a52.209 52.209 0 00-3.547 9.186 22.77 22.77 0 00-.459 2.312c-.013.778.033 1.556.138 2.327.23 1.588.368 3.188.413 4.792a23.892 23.892 0 01-.535 4.716 432.37 432.37 0 00-.795 4.593 27.453 27.453 0 00-.704 8.696c.214 1.393.642 2.771.856 4.195a11.16 11.16 0 01-.244 4.287c-.627 2.709-1.728 5.174-1.697 7.655.03 2.48.948 4.883 1.055 7.348a13.595 13.595 0 01-1.789 6.691 15.803 15.803 0 00-1.942 5.787 17.152 17.152 0 001.147 5.328c.226.842.289 1.721.183 2.587-.122.827-.352 1.531-.52 2.297a7.019 7.019 0 00-.29 2.036c.057.619.267 1.213.611 1.73a11.164 11.164 0 004.22 3.537c.604.192 1.223.33 1.85.413z" fill="#263238"/><path d="M421.145 315.385c.077 0 0 1.225 0 3.414 0 .552 0 1.149.107 1.807.107.658.184 1.393.26 2.189.17 1.776.247 3.56.229 5.344 0 1.975-.122 4.149-.259 6.46a26.18 26.18 0 00.259 7.288c.23 1.271.536 2.587.689 3.981a17.45 17.45 0 01-.153 4.271l-.321 2.128c0 .72-.123 1.439-.199 2.159-.138 1.531-.26 2.924-.398 4.424-.611 12.019-1.009 22.965-1.345 30.819-.184 3.843-.337 7.012-.444 9.339-.076 1.026-.122 1.853-.168 2.527-.01.298-.046.595-.107.888a2.874 2.874 0 010-.888v-2.542c0-2.327.107-5.496.184-9.354.183-7.885.474-18.801 1.085-30.85.133-1.5.27-2.985.413-4.455.076-.735.138-1.531.214-2.189l.321-2.128a16.56 16.56 0 00.168-4.058c-.122-1.332-.428-2.633-.657-3.919a26.985 26.985 0 01-.184-7.487c.169-2.311.322-4.455.367-6.43.046-1.975 0-3.735-.122-5.297 0-.781-.122-1.531-.183-2.174-.062-.643 0-1.301 0-1.853.017-.85.088-1.699.214-2.541a3.36 3.36 0 01.03-.873z" fill="#263238"/><path d="M418.026 402.055c-3.7-3.965-2.63-12.416.658-16.718 3.287-4.302 7.843-7.808 9.846-12.845 1.529-3.874 1.438-8.344 3.502-11.958 2.782-4.899 9.097-7.471 10.611-12.891.841-3.062 0-6.399.978-9.385 1.254-3.659 4.954-5.771 7.645-8.527 4.159-4.226 6.116-10.089 8.609-15.433 2.492-5.343 6.452-10.717 12.231-12.049-.657 4.991-.351 8.62-2.629 14.958-.826 2.281-4.801 5.925-6.651 10.901-1.101 2.985-2.141 5.986-3.211 8.972a30.425 30.425 0 01-3.976 8.313 69.537 69.537 0 00-4.587 5.45c-2.339 3.782-2.14 8.681-4.281 12.585-1.804 3.307-5.137 5.634-6.682 9.079-2.171 4.838-.428 11.023-3.501 15.31-1.529 2.143-4.036 3.49-5.306 5.787-.993 1.776-1.116 3.95-2.064 5.741-1.529 2.909-8.119 3.598-11.207 2.48" fill="#8CBF43"/><path d="M469.523 306.628a4.603 4.603 0 01-.398 1.026c-.29.673-.688 1.653-1.284 2.893-.596 1.241-1.743 2.557-2.783 4.18-1.04 1.623-2.232 3.506-3.394 5.649-1.162 2.144-2.324 4.593-3.578 7.181a33.084 33.084 0 01-4.786 7.93c-1.039 1.256-2.156 2.481-3.058 3.843a20.144 20.144 0 00-2.339 4.593l-.948 2.48a125.75 125.75 0 00-1.116 2.496 555.62 555.62 0 00-2.294 5.067c-3.379 6.691-6.666 13.029-9.663 18.801-2.997 5.772-5.779 10.855-8.088 15.218l-5.52 10.243-1.529 2.755a4.617 4.617 0 01-.581.934c.106-.351.25-.69.428-1.01.367-.72.826-1.669 1.407-2.832 1.284-2.542 3.058-6.124 5.275-10.365 2.217-4.241 4.969-9.569 7.935-15.31 2.967-5.742 6.193-12.126 9.587-18.801.78-1.699 1.529-3.368 2.278-5.037l1.116-2.45c.337-.842.658-1.668.979-2.495a20.58 20.58 0 012.431-4.685c1.009-1.408 2.141-2.649 3.18-3.873a33.057 33.057 0 004.771-7.747c1.254-2.588 2.462-5.007 3.669-7.15a62.621 62.621 0 013.532-5.634c1.101-1.623 2.233-2.878 2.875-4.072.642-1.195 1.055-2.098 1.422-2.802.12-.358.279-.702.474-1.026z" fill="#263238"/><path d="M441.206 460.83a50.593 50.593 0 0033.836-2.434 39.21 39.21 0 017.844-2.572c13.562-2.679 27.002 5.297 40.809 5.435 8.287.076 16.299-2.649 24.464-4.073-7.309-5.159-16.345-11.451-16.345-11.451l-2.355-5.696-20.32-6.124-24.082-15.692-15.122-2.098-16.528-8.88-50.227-8.665h-97.107l-27.2 17.025-58.698 3.383-25.106 19.826-36.91 9.86-16.284 12.34c4.111.388 8.243.515 12.37.383 20.977-.812 41.16-10.181 62.107-9.186 22.614 1.041 44.188 14.085 66.603 11.023 17.859-2.434 34.005-14.927 51.986-13.488 16.712 1.332 31.008 14.621 47.781 14.651 9.892 0 19.097-4.593 28.623-7.272 11.131-3.138 18.516.536 29.861 3.705zm175.773-52.054c0 .184-13.073.337-29.204.337s-29.204-.153-29.204-.337c0-.183 13.073-.337 29.204-.337s29.204.123 29.204.337zm-9.037 6.629c0 .199-8.379.353-18.7.353-10.32 0-18.714-.154-18.714-.353 0-.199 8.363-.336 18.714-.336 10.352 0 18.7.153 18.7.336zm-15.244 7.15c-1.9.449-3.879.449-5.779 0 1.9-.449 3.879-.449 5.779 0zm10.412-34.493v-17.239h-13.929v-9.355h-3.914v9.814h-2.033v-9.706h-3.456v9.186h-21.284v2.817h2.967c-.123 1.531-.199 4.593-.199 8.068 0 2.434 0 4.593.107 6.277l-14.923.077 13.165 14.651h54.157l10.336-14.575-20.994-.015zm-41.282-14.422h6.697c-.107 1.531-.184 4.593-.184 8.068 0 2.419 0 4.593.092 6.231h-6.514c0-1.638.092-3.843.092-6.277-.03-3.506-.107-6.476-.214-8.022h.031zm15.29 14.269h-8.18c0-1.638.091-3.812.091-6.231 0-3.491-.076-6.523-.183-8.069h8.272v14.3z" fill="#455A64"/></g><defs><clipPath id="clip0"><path fill="#fff" d="M0 0h693v609H0z"/></clipPath></defs></svg>