<svg width="687" height="391" fill="none" xmlns="http://www.w3.org/2000/svg"><g opacity=".4"><path opacity=".41" d="M334.44 58.162c6.617-10.554 19.918-13.613 29.769-6.766 9.851 6.847 19.201 25.507 12.584 36.061-6.617 10.555-22.326.5-34.112-.338-16.495-1.231-14.858-18.416-8.241-28.957z" fill="#fff"/><path d="M146.504 169.119a7.713 7.713 0 1015.351 1.519 7.713 7.713 0 00-15.351-1.519z" fill="#fff"/><path d="M328.784 269.819a2.817 2.817 0 01-2.6-1.738 2.81 2.81 0 01.61-3.067 2.819 2.819 0 013.067-.61 2.814 2.814 0 01-1.077 5.415zm0-4.276a1.465 1.465 0 00-1.35.902 1.455 1.455 0 00.317 1.593 1.464 1.464 0 001.592.317 1.459 1.459 0 00.902-1.351 1.462 1.462 0 00-1.461-1.461z" fill="#F0F0F1"/><path d="M286.16 243.582a4.99 4.99 0 01-4.81-3.738 4.994 4.994 0 018.413-4.736 4.996 4.996 0 01.7 6.052 5.035 5.035 0 01-4.303 2.422zm0-8.647a3.643 3.643 0 00-3.605 3.154 3.64 3.64 0 103.633-3.154h-.028z" fill="#fff"/><path d="M70.444 295.867a5.237 5.237 0 11-.026-10.475 5.237 5.237 0 01.026 10.475zm0-7.754a2.535 2.535 0 00-2.497 3.016 2.528 2.528 0 001.985 1.996 2.538 2.538 0 002.602-1.074 2.529 2.529 0 00-2.09-3.938z" fill="#F0F0F1"/><path d="M264.917 180.521a52.921 52.921 0 01-89.307 13.288l-18.943 2.909 10.067-18.213a52.882 52.882 0 0150.599-71.436 52.879 52.879 0 0147.625 73.452h-.041z" fill="#BDBDBD"/><path d="M241.724 141.917h-50.309a1.353 1.353 0 010-2.707h50.309a1.353 1.353 0 010 2.707zm0 16.9h-50.309a1.352 1.352 0 110-2.706h50.309a1.352 1.352 0 110 2.706zm0 18.321h-50.309a1.352 1.352 0 110-2.706h50.309a1.357 1.357 0 011.354 1.353 1.353 1.353 0 01-1.354 1.353z" fill="#F0F0F1"/><path d="M274.714 190.156h-33.707c-8.527 0-15.439 6.912-15.439 15.439v.135c0 8.527 6.912 15.439 15.439 15.439h33.707c8.526 0 15.439-6.912 15.439-15.439v-.135c0-8.527-6.913-15.439-15.439-15.439z" fill="#BDBDBD"/><path d="M240.655 210.29a3.837 3.837 0 01-3.56-2.363 3.839 3.839 0 012.792-5.248 3.841 3.841 0 013.949 1.632 3.842 3.842 0 01-3.181 5.979zm0-6.333a2.5 2.5 0 00-1.386.413 2.492 2.492 0 00-.392 3.833 2.49 2.49 0 101.778-4.246zm17.212 6.333a3.838 3.838 0 01-3.56-2.363 3.84 3.84 0 01.824-4.192 3.848 3.848 0 014.19-.839 3.842 3.842 0 01-1.454 7.394zm0-6.333a2.494 2.494 0 00-2.457 2.968 2.487 2.487 0 003.393 1.824 2.492 2.492 0 00.816-4.058 2.494 2.494 0 00-1.752-.734zm17.145 6.333a3.843 3.843 0 11-.002-7.688 3.843 3.843 0 01.002 7.688zm0-6.333a2.49 2.49 0 102.489 2.49 2.5 2.5 0 00-2.489-2.49z" fill="#fff"/><path d="M698.176 171.243H542.552a2.179 2.179 0 00-2.178 2.179v47.021c0 1.203.975 2.179 2.178 2.179h155.624a2.179 2.179 0 002.178-2.179v-47.021a2.179 2.179 0 00-2.178-2.179z" fill="#BDBDBD"/><path d="M575.493 204.18c4.544-4.544 4.544-11.912 0-16.457-4.545-4.544-11.913-4.544-16.458 0-4.544 4.545-4.544 11.913.001 16.457 4.544 4.545 11.912 4.545 16.457 0z" fill="#fff"/><path d="M566.273 201.702a1.366 1.366 0 01-.534-.122 1.366 1.366 0 01-.441-.324l-5.142-5.819a1.36 1.36 0 01-.245-1.52 1.362 1.362 0 01.798-.702 1.35 1.35 0 011.477.436l4.181 4.723 10.338-10.406a1.358 1.358 0 011.481-.296 1.358 1.358 0 01.834 1.25c0 .357-.141.7-.393.954l-11.353 11.434a1.353 1.353 0 01-1.001.392z" fill="#828282"/><path d="M678.163 189.118h-81.865a.676.676 0 110-1.353h81.865a.688.688 0 01.676.677.676.676 0 01-.676.676zm-45.29 9.716h-36.534a.677.677 0 110-1.353h36.534a.677.677 0 110 1.353zm0 11.041h-36.534a.677.677 0 110-1.353h36.534a.677.677 0 110 1.353zm45.29-11.041h-36.534a.677.677 0 110-1.353h36.534a.677.677 0 110 1.353zm-21.447 17.591H501.092a2.178 2.178 0 00-2.178 2.178v47.021c0 1.204.975 2.179 2.178 2.179h155.624a2.178 2.178 0 002.178-2.179v-47.021a2.178 2.178 0 00-2.178-2.178z" fill="#fff"/><path d="M525.814 252.783c6.427 0 11.637-5.21 11.637-11.637 0-6.427-5.21-11.637-11.637-11.637-6.427 0-11.637 5.21-11.637 11.637 0 6.427 5.21 11.637 11.637 11.637z" fill="#BDBDBD"/><path opacity=".69" d="M636.703 234.313h-81.837a.677.677 0 110-1.353h81.864a.677.677 0 110 1.353h-.027zm-45.303 9.688h-36.534a.688.688 0 01-.677-.676.677.677 0 01.677-.677H591.4a.677.677 0 110 1.353zm0 11.069h-36.534a.677.677 0 110-1.353H591.4a.677.677 0 110 1.353zm45.303-11.069h-36.534a.677.677 0 110-1.353h36.534a.677.677 0 01.677.677.692.692 0 01-.677.676z" fill="#828282"/><path d="M506.789 92.6c0 34.369-62.244 90.443-62.244 90.443S382.3 126.969 382.3 92.599a62.244 62.244 0 01124.489 0z" fill="#BDBDBD"/><path opacity=".24" d="M444.531 156.995s-50.202-45.222-60.445-79.334a62.43 62.43 0 00-1.813 14.884c0 34.37 62.244 90.444 62.244 90.444s62.244-56.074 62.244-90.444a61.67 61.67 0 00-1.827-14.884c-10.202 34.112-60.403 79.334-60.403 79.334z" fill="#828282"/><path d="M444.531 132.178a39.014 39.014 0 01-36.043-24.085 39.006 39.006 0 018.463-42.515 39.008 39.008 0 0160.023 5.926 39.016 39.016 0 016.568 21.677 39.053 39.053 0 01-39.011 38.997zm0-75.301a36.306 36.306 0 1036.304 36.304 36.355 36.355 0 00-36.304-36.304zm-77.738 84.489a2.99 2.99 0 100-5.981 2.99 2.99 0 000 5.981zm139.996 154.339a2.99 2.99 0 10-.001-5.981 2.99 2.99 0 00.001 5.981zM210.764 46.376a2.99 2.99 0 100-5.981 2.99 2.99 0 000 5.981zm397.564 61.175a2.99 2.99 0 100-5.98 2.99 2.99 0 100 5.98z" fill="#fff"/><path d="M482.189 195.383a1.506 1.506 0 01-.93 1.389 1.506 1.506 0 01-1.639-.332 1.508 1.508 0 01-.317-1.641 1.506 1.506 0 012.777.01c.074.183.111.378.109.574z" fill="#828282"/><path d="M550.292 151.325a4.181 4.181 0 100-8.362 4.181 4.181 0 000 8.362zm129.697 132.079a2.366 2.366 0 01-4.037 1.693 2.368 2.368 0 114.037-1.693zM246.04 212.581a2.083 2.083 0 10.002-4.166 2.083 2.083 0 00-.002 4.166zm112.323-106.518a1.501 1.501 0 10.001-3.003 1.501 1.501 0 00-.001 3.003z" fill="#fff"/><path d="M563.214 64.21l-6.995 9.35-.271-11.893-8.335-7.104 11.258-1.57 7.266-9.607.433 12.205 8.011 8.065-11.367.555z" fill="#BDBDBD"/><path opacity=".47" d="M302.994 34.09l-4.56 6.103-.19-7.767-5.439-4.642 7.347-1.014 4.75-6.293.284 7.984 5.236 5.264-7.428.365z" fill="#fff"/><path opacity=".47" d="M671.343 134.736l-3.112 4.167-.122-5.29-3.721-3.167 5.02-.703 3.234-4.276.19 5.439 3.572 3.586-5.061.244z" fill="#BDBDBD"/><path d="M139.122 6.418a2.99 2.99 0 100-5.98 2.99 2.99 0 000 5.98zM94.415 166.142a1.502 1.502 0 100-3.003 1.502 1.502 0 000 3.003zM134.63 107.7a1.502 1.502 0 100-3.004 1.502 1.502 0 000 3.004zm11.664 11.732a2.086 2.086 0 01-3.558 1.474 2.087 2.087 0 01.316-3.207 2.084 2.084 0 013.242 1.733z" fill="#fff"/><path opacity=".47" d="M97.77 59.394l1.191 7.536-5.683-5.29-7.131.676 4.398-5.994-1.205-7.78 5.927 5.358 7.415-.081-4.912 5.575z" fill="#BDBDBD"/><path d="M391.339 187.927l-3.558 4.75-.136-6.035-4.235-3.613 5.71-.798 3.694-4.885.217 6.211 4.073 4.086-5.765.284zm246.433 143.094l-3.545 4.75-.149-6.035-4.236-3.613 5.724-.785 3.694-4.885.217 6.198 4.073 4.1-5.778.27zM293.132 96.779l-1.583 5.71-2.327-5.575-5.264-1.813 5.034-2.828 1.664-5.886 2.463 5.696 5.277 2.328-5.264 2.368zm86.273-89.332a1.502 1.502 0 100-3.005 1.502 1.502 0 000 3.005zm104.286 16.86a2.99 2.99 0 100-5.981 2.99 2.99 0 000 5.98z" fill="#fff"/></g></svg>