<svg width="835" height="396" fill="none" xmlns="http://www.w3.org/2000/svg"><path d="M15.41 54.699c.44.091.867.232 1.274.42.79.294 1.937.766 3.338 1.353 2.815 1.174 6.65 2.91 10.84 4.9l10.727 5.105 3.261 1.53c.413.16.806.366 1.172.613a6.229 6.229 0 01-1.274-.408 78.037 78.037 0 01-3.337-1.378c-2.803-1.213-6.612-2.986-10.803-4.977l-10.764-5.104c-1.274-.613-2.383-1.11-3.262-1.519a6.245 6.245 0 01-1.171-.535zM65.04 111.7c.226-.395.496-.763.803-1.098l2.306-2.871c1.936-2.424 4.611-5.78 7.427-9.596a300.623 300.623 0 006.993-9.927l2.064-3.037a4.91 4.91 0 01.815-1.085 7.23 7.23 0 01-.624 1.2c-.446.752-1.095 1.837-1.923 3.151a168.178 168.178 0 01-6.867 10.043c-2.828 3.828-5.554 7.146-7.643 9.507-1.02 1.186-1.847 2.131-2.446 2.756-.266.35-.57.671-.904.957zm-31.414-5.257a5.132 5.132 0 011.274.076l3.376.434c2.853.383 6.777.957 11.095 1.621 4.319.663 8.255 1.276 11.083 1.799l3.338.6c.434.056.861.158 1.273.306a5.131 5.131 0 01-1.273-.076l-3.376-.434c-2.84-.383-6.777-.957-11.096-1.621-4.318-.663-8.242-1.276-11.083-1.799l-3.337-.6a6.063 6.063 0 01-1.274-.306zm10.714 40.974a8.248 8.248 0 011.593.115l4.331.536c3.644.472 8.675 1.174 14.242 1.978s10.574 1.556 14.217 2.131l4.293.714a9.01 9.01 0 011.567.332 7.084 7.084 0 01-1.593-.115l-4.33-.536c-3.644-.472-8.689-1.161-14.243-1.965s-10.573-1.557-14.216-2.144l-4.293-.701a9.127 9.127 0 01-1.567-.345zm39.325 5.397c.274-.503.599-.978.969-1.416l2.79-3.739c2.356-3.165 5.592-7.541 9.031-12.48 3.44-4.938 6.446-9.481 8.599-12.76l2.548-3.918c.293-.491.62-.96.981-1.404a8.424 8.424 0 01-.79 1.519c-.548.97-1.363 2.335-2.408 4.02a267.687 267.687 0 01-17.643 25.291c-1.274 1.557-2.23 2.795-2.93 3.637a9.733 9.733 0 01-1.147 1.25z" fill="#E0E0E0"/><path d="M294.01 260.935l64.968-64.428c0 2.858-.56 133.629-.56 133.629l-64.408-69.201z" fill="#EBEBEB"/><path d="M781.998 219.604H75.218v103.884h706.78V219.604z" fill="#8CBF43"/><path opacity=".5" d="M781.998 219.604H75.218v103.884h706.78V219.604z" fill="#000"/><path d="M174.766 390.907c37.555-2.532 65.951-35.08 63.423-72.699-2.527-37.619-35.02-66.063-72.575-63.531-37.555 2.532-65.95 35.08-63.423 72.699 2.527 37.619 35.02 66.063 72.575 63.531z" fill="#000"/><path d="M102.06 321.637v.179a68.34 68.34 0 0019.268 48.561 68.104 68.104 0 0047.904 20.691 68.1 68.1 0 0048.479-19.301 68.333 68.333 0 0020.655-47.986v-.178l-136.306-1.966z" fill="#000"/><path d="M122.353 322.11a47.992 47.992 0 007.67 26.746 47.881 47.881 0 0021.213 17.969 47.774 47.774 0 0027.604 3.134 47.822 47.822 0 0024.689-12.756 47.96 47.96 0 0013.453-24.348 48.008 48.008 0 00-2.32-27.73 47.911 47.911 0 00-17.309-21.766 47.798 47.798 0 00-26.465-8.464 47.805 47.805 0 00-34.027 13.541 47.966 47.966 0 00-14.508 33.674z" fill="#FAFAFA"/><path d="M170.888 274.87a47.802 47.802 0 00-34.027 13.54 47.968 47.968 0 00-14.508 33.674l95.682 1.378a47.972 47.972 0 00-13.531-34.073 47.809 47.809 0 00-33.616-14.519z" fill="#E0E0E0"/><path d="M141.054 322.378a29.23 29.23 0 004.68 16.29 29.151 29.151 0 0012.926 10.939 29.1 29.1 0 0016.816 1.902 29.128 29.128 0 0015.036-7.777 29.235 29.235 0 006.768-31.726 29.184 29.184 0 00-10.549-13.255 29.126 29.126 0 00-16.123-5.149 29.12 29.12 0 00-20.726 8.258 29.216 29.216 0 00-8.828 20.518zm554.257 68.514c37.577-2.183 66.272-34.467 64.092-72.108-2.18-37.64-34.409-66.384-71.985-64.201-37.577 2.184-66.272 34.468-64.092 72.109 2.18 37.64 34.409 66.384 71.985 64.2z" fill="#000"/><path d="M623.208 321.637v.179a68.374 68.374 0 004.812 26.2 68.267 68.267 0 0014.456 22.361 68.104 68.104 0 0047.904 20.691 68.1 68.1 0 0048.479-19.301 68.333 68.333 0 0020.655-47.986v-.178l-136.306-1.966z" fill="#000"/><path d="M643.501 322.11a47.992 47.992 0 007.67 26.746 47.881 47.881 0 0021.213 17.969 47.774 47.774 0 0027.604 3.134 47.822 47.822 0 0024.689-12.756 47.96 47.96 0 0013.453-24.348 48.008 48.008 0 00-2.32-27.73 47.911 47.911 0 00-17.309-21.766 47.798 47.798 0 00-26.465-8.464 47.805 47.805 0 00-34.027 13.541 47.97 47.97 0 00-14.508 33.674z" fill="#FAFAFA"/><path d="M692.036 274.87a47.804 47.804 0 00-34.027 13.54 47.972 47.972 0 00-14.508 33.674l95.682 1.378a47.972 47.972 0 00-13.531-34.073 47.809 47.809 0 00-33.616-14.519z" fill="#E0E0E0"/><path d="M662.201 322.377a29.236 29.236 0 004.681 16.29 29.16 29.16 0 0012.926 10.94 29.099 29.099 0 0016.816 1.902 29.132 29.132 0 0015.036-7.777 29.239 29.239 0 006.768-31.727 29.188 29.188 0 00-10.549-13.254 29.118 29.118 0 00-16.123-5.149 29.137 29.137 0 00-20.722 8.261 29.237 29.237 0 00-8.833 20.514z" fill="#000"/><path d="M259.525 161.173s-100.357 7.414-137.58 15.772c-26.191 5.921-76.74 16.04-76.128 47.903l4.013 22.829s-18.764 8.588-18.764 30.472-4.574 55.853 39.197 57.206c7.21.229 20.917 0 20.917 0s-8.407-93.37 77.236-96.1c87.109-2.782 81.325 95.245 81.325 95.245h363.606s-14.93-95.488 78.854-95.641c93.784-.153 79.516 96.266 79.516 96.266s34.497 2.986 50.561-26.057c16.063-29.043 11.872-49.766 11.872-49.766l-.535-18.363a11.9 11.9 0 00-3.447-7.987 11.862 11.862 0 00-7.954-3.497s6.268-46.232-3.35-54.233c-9.618-8.001-62.319-56.261-62.319-56.261l2.548-1.583a5.922 5.922 0 002.71-5.711 5.924 5.924 0 00-3.984-4.905c-20.013-6.891-59.58-20.52-68.879-23.786a17.252 17.252 0 00-4.319-.906c-5.554-.434-21.274-1.43-50.114-1.736-35.16-.37-174.702 0-174.702 0s-48.025 3.956-74.777 15.76c-28.115 12.416-125.503 65.079-125.503 65.079z" fill="#8CBF43"/><path opacity=".4" d="M56.518 275.622c-3.644-.74-9.223-.817-12 1.659-2.064 1.838-2.548 4.798-2.918 7.542a32.157 32.157 0 00.255 11.318 13.735 13.735 0 006.37 9.022c3.325 1.812 7.885 1.518 10.471-1.276 2.37-2.552 2.637-6.38 2.548-9.8-.09-4.926.306-9.099-.599-13.935a6.84 6.84 0 00-1.274-2.807 3.817 3.817 0 00-2.904-1.748" fill="#000"/><path d="M49.831 247.677c10.65 0 20.981-.587 31.618-1.276a3.818 3.818 0 004.4-2.914 3.835 3.835 0 00-.056-1.922c0-5.717-.23-12.212-4.56-15.938-2.65-2.285-6.28-2.986-9.746-3.318a63.034 63.034 0 00-25.668 2.552l4.012 22.816z" fill="#FAFAFA"/><path d="M271.053 331.578s0-.307-.089-.906c-.089-.6-.102-1.519-.178-2.68-.127-2.374-.319-5.844-.561-10.298-.242-4.453-.547-9.94-1.184-16.27a128.812 128.812 0 00-3.822-21.22 96.814 96.814 0 00-10.191-23.939 75.234 75.234 0 00-19.822-22.153c-17.197-12.237-40.42-19.141-64.713-19.46-24.293-.319-47.491 7.414-64.243 20.264a94.366 94.366 0 00-20.866 21.31 100.941 100.941 0 00-12.204 22.969 93.29 93.29 0 00-5.159 20.889 87.827 87.827 0 00-.624 16.257 80.806 80.806 0 001.274 10.209c.204 1.148.37 2.029.471 2.641.102.613.14.906.14.906s-.076-.306-.204-.893c-.127-.587-.305-1.493-.535-2.629a74.3 74.3 0 01-1.375-10.208 86.3 86.3 0 01.51-16.321 94.028 94.028 0 015.095-21.004 101.329 101.329 0 0112.204-23.16 94.364 94.364 0 0120.942-21.489c16.841-12.952 40.128-20.736 64.625-20.417 24.497.319 47.732 7.261 65.057 19.639a75.418 75.418 0 0119.911 22.369 96.89 96.89 0 0110.191 24.092 128.22 128.22 0 013.669 21.31c.611 6.38.866 11.816 1.07 16.295.204 4.479.344 7.925.446 10.298 0 1.174.076 2.055.102 2.68.025.625.063.919.063.919z" fill="#fff"/><path d="M274.914 333.173v-.766l-.077-2.271c0-2.004-.152-4.964-.28-8.818-.216-7.733-.535-19.064-.942-33.458-.408-14.394-.879-31.902-1.427-51.936-.128-5.019-.268-10.191-.421-15.516a52.73 52.73 0 01.357-8.103c.191-1.353.382-2.731.573-4.109.191-1.378.561-2.731.854-4.109a85.727 85.727 0 0114.993-31.902l62.969-39.736 16.994-10.732a134.264 134.264 0 0118-10.055 183.202 183.202 0 0119.579-7.912c3.338-1.174 6.765-2.143 10.191-3.164a110.528 110.528 0 0110.459-2.552 237.073 237.073 0 0140.586-5.105 379.982 379.982 0 0139.287.14h.369l-.076.37c-6.038 27.015-11.72 52.472-16.93 75.824a82.871 82.871 0 00-7.58 16.283 44.366 44.366 0 00-2.548 16.856c.434 5.602.586 11.077.727 16.398.14 5.321.203 10.489.305 15.491.293 20.034.37 37.516.421 51.91.051 14.394 0 25.7 0 33.433 0-7.733-.115-19.039-.191-33.433-.077-14.394-.23-31.901-.561-51.897a3345.63 3345.63 0 01-.331-15.492c-.153-5.321-.319-10.782-.764-16.371a45.031 45.031 0 012.547-17.074 82.658 82.658 0 017.644-16.41v.089c5.184-23.352 10.853-48.822 16.853-75.836l.293.396a382.155 382.155 0 00-39.21-.115 238.11 238.11 0 00-40.472 5.104c-3.516.715-6.968 1.697-10.42 2.552s-6.828 1.978-10.191 3.152a184.465 184.465 0 00-19.478 7.784 133.52 133.52 0 00-18.127 10.145l-17.019 10.719-62.994 39.71h.063a81.498 81.498 0 00-9.223 15.313 82.544 82.544 0 00-5.656 16.232c-2.866 10.935-1.414 21.693-1.401 31.722.497 20.034.93 37.516 1.274 51.923.344 14.407.611 25.726.79 33.471.089 3.828.153 6.814.191 8.818v3.037z" fill="#000"/><path d="M506.176 95.226h2.344l6.764-.166 25.083-.498 84.573-1.543h.166l.102.114 11.847 14.535 33.835 41.561 3.821 4.734a26.093 26.093 0 015.707 16.142 26.366 26.366 0 01-2.051 10.426l-3.821 8.932c-4.93 11.484-8.918 20.672-11.695 27.103a1677.989 1677.989 0 00-3.21 7.351l-.853 1.901c-.192.434-.306.638-.306.638s.076-.23.242-.664c.165-.434.458-1.097.79-1.927.726-1.722 1.758-4.211 3.095-7.401 2.726-6.38 6.65-15.733 11.465-27.18 2.191-5.78 6.051-11.842 5.784-19.243a26.096 26.096 0 00-2.548-10.859 26.753 26.753 0 00-3.108-4.964l-3.822-4.721c-10.42-12.761-21.86-26.797-33.873-41.523l-11.821-14.432.254.114-84.56 1.277-25.096.306h-9.108v-.013zm-42.688 112.638s.356 0 1.006-.153a7.076 7.076 0 002.688-1.059 6.915 6.915 0 002.713-3.56 7.68 7.68 0 00.357-2.808 7.025 7.025 0 00-.79-3.037 6.784 6.784 0 00-5.872-3.573h-28.268a6.656 6.656 0 00-4.432 1.699 6.677 6.677 0 00-2.179 4.222 7.41 7.41 0 00.815 4.505 6.722 6.722 0 003.248 2.909c1.363.464 2.808.638 4.242.511h11.656l10.841.102h2.943c.345-.006.69.015 1.032.063a4.944 4.944 0 01-1.032 0l-2.943.064-10.841.102h-13.86a7.264 7.264 0 01-5.847-3.675 8.176 8.176 0 01-.904-4.887 7.344 7.344 0 012.39-4.647 7.323 7.323 0 014.871-1.874h28.28a7.234 7.234 0 016.268 3.905 7.422 7.422 0 01.802 3.254 8.146 8.146 0 01-.42 2.935 7.061 7.061 0 01-2.93 3.649 6.914 6.914 0 01-2.802.983 3.966 3.966 0 01-1.032.37z" fill="#000"/><path d="M651.934 207.864s.357 0 1.007-.153a7.076 7.076 0 002.688-1.059 6.92 6.92 0 002.713-3.56 7.68 7.68 0 00.357-2.808 7.054 7.054 0 00-.79-3.037 6.784 6.784 0 00-5.873-3.573h-28.267a6.654 6.654 0 00-4.432 1.699 6.678 6.678 0 00-2.18 4.222 7.41 7.41 0 00.816 4.505 6.714 6.714 0 003.248 2.909c1.363.464 2.808.638 4.242.511h11.656l10.841.102h2.943c.345-.006.69.015 1.031.063a4.935 4.935 0 01-1.031 0l-2.943.064-10.841.102h-13.86a7.26 7.26 0 01-3.386-1.098 7.286 7.286 0 01-2.461-2.577 8.176 8.176 0 01-.904-4.887 7.323 7.323 0 017.261-6.521h28.28a7.23 7.23 0 016.268 3.905 7.422 7.422 0 01.802 3.254 8.146 8.146 0 01-.42 2.935 7.066 7.066 0 01-2.93 3.649 6.924 6.924 0 01-2.803.983 3.94 3.94 0 01-1.032.37z" fill="#000"/><path d="M817.183 177.06h-37.707a13.883 13.883 0 00-12.306 7.452 13.977 13.977 0 00-.42 12.11l14.789 33.636 37.746-.37s8.038-42.646-2.102-52.828z" fill="#FAFAFA"/><path d="M293.5 172.3l194.561-3.586 126.625-2.335 41.758-24.143a6.503 6.503 0 003.076-7.079 6.49 6.49 0 00-1.153-2.479l-26-34.21a14.417 14.417 0 00-11.388-5.704l-141.631-1.162s-53.325-3.1-95.338 20.417C339.78 136.927 293.5 172.3 293.5 172.3z" fill="#000"/><path d="M382.672 95.137s9.745 4.453 3.401 8.587c-6.344 4.135-104.917 66.356-104.917 66.356l-22.663-10.183c40.14-22.472 80.676-44.229 124.179-64.76z" fill="#2B3A8C"/><path d="M284.34 171.662s-.204.064-.612.153l-1.796.383-6.917 1.442a1031.344 1031.344 0 01-25.478 4.734c-21.656 3.726-51.618 8.065-84.955 10.961-8.344.728-16.485 1.276-24.357 1.838-7.873.561-15.465.995-22.675 1.659-14.434 1.276-27.35 3.356-37.848 6.495a106.836 106.836 0 00-23.86 9.966c-2.713 1.429-4.636 2.833-6.012 3.675l-1.554.995-.536.319c.159-.137.325-.264.497-.382l1.516-1.034a70.478 70.478 0 015.962-3.828 104.386 104.386 0 0123.86-10.209c10.51-3.19 23.478-5.346 37.911-6.648 7.223-.676 14.828-1.174 22.688-1.697 7.86-.523 16.013-1.123 24.344-1.85 33.325-2.884 63.325-7.159 84.943-10.758a1314.844 1314.844 0 0025.567-4.53l6.93-1.276 1.809-.331c.356-.064.573-.077.573-.077zm547.913 87.27c0 .179-12.968.332-28.955.332-15.988 0-28.969-.153-28.969-.332 0-.179 12.968-.332 28.969-.332 16 0 28.955.153 28.955.332zm-237.236 33.152c0 .178-73.197.331-163.478.331s-163.491-.153-163.491-.331c0-.179 73.185-.332 163.491-.332 90.306 0 163.478.14 163.478.332zM82.48 260.029c0 .179-10.357.332-23.12.332-12.765 0-23.11-.153-23.11-.332 0-.179 10.345-.332 23.11-.332 12.763 0 23.12.153 23.12.332z" fill="#000"/><path d="M755.502 117.634s-8.688 9.749-5.274 16.895c3.414 7.146 38.714 32.169 38.714 32.169l25.618 4.824-59.058-53.888zm-243.568-17.431l-5.758 62.31 103.083-2.948 41.541-24.181-26.892-35.181H511.934zm-194.001 65.5s62.191-44.994 86.727-53.926c23.681-8.639 36.025-10.796 58.267-11.485 21.261-.6 34.217 0 34.217 0l-16.459 63.433-162.752 1.978z" fill="#2B3A8C"/><path d="M308.812 165.907a10.915 10.915 0 015.554-9.507l14.293-8.039a27.101 27.101 0 0113.337-3.496 27.192 27.192 0 018.484 1.352 15.486 15.486 0 017.425 5.492 15.527 15.527 0 012.983 8.749A15.777 15.777 0 01356.502 172a15.737 15.737 0 01-11.346 4.83h-25.478a10.885 10.885 0 01-7.69-3.209 10.92 10.92 0 01-3.176-7.714z" fill="#8CBF43"/><path d="M308.812 165.907s0 .485.165 1.391a10.924 10.924 0 001.274 3.739 11.208 11.208 0 004.382 4.313c1.144.604 2.386.998 3.669 1.161 1.35.153 2.853 0 4.395.077l21.796-.064c2.066.05 4.122-.288 6.064-.995a15.57 15.57 0 005.466-3.503 15.601 15.601 0 003.566-5.43 15.895 15.895 0 00.942-6.75 15.434 15.434 0 00-6.433-11.485 16.378 16.378 0 00-5.898-2.488 26.29 26.29 0 00-6.165-.727 26.704 26.704 0 00-11.185 2.399c-1.643.727-3.147 1.659-4.637 2.462l-4.255 2.374-7.325 4.071a10.749 10.749 0 00-4.344 4.338 11.097 11.097 0 00-1.274 3.739c-.127.906-.114 1.378-.153 1.378a6.879 6.879 0 010-1.391c.14-1.34.538-2.64 1.172-3.828a11.048 11.048 0 014.421-4.53l7.274-4.147 4.229-2.412c1.478-.817 2.981-1.761 4.662-2.552a27.338 27.338 0 0111.465-2.552 26.894 26.894 0 016.37.727 17.203 17.203 0 016.14 2.552 16.161 16.161 0 016.713 11.906 16.442 16.442 0 01-.993 7.044 16.11 16.11 0 01-9.427 9.315 16.804 16.804 0 01-6.28 1.021l-21.796-.077a42.003 42.003 0 01-4.446-.127 11.014 11.014 0 01-3.822-1.276 11.475 11.475 0 01-4.433-4.53 10.688 10.688 0 01-1.159-3.828 8.184 8.184 0 01-.14-1.315z" fill="#000"/><path d="M787.998 332.164v-.893c0-.587.089-1.467.166-2.552.076-1.085.203-2.552.28-4.211.076-1.659.127-3.586.204-5.755.076-2.169 0-4.568 0-7.21 0-2.641-.191-5.499-.548-8.549a110.78 110.78 0 00-3.732-20.596 91.25 91.25 0 00-4.052-11.421 76.149 76.149 0 00-6.152-11.599 78.992 78.992 0 00-19.924-20.825 94.118 94.118 0 00-28.561-14.101c-10.624-3.266-22.191-4.453-33.961-4.53a110.967 110.967 0 00-33.886 4.939 94.205 94.205 0 00-15.057 6.265 86.387 86.387 0 00-13.096 8.563 109.446 109.446 0 00-20.178 20.723 82.58 82.58 0 00-6.701 11.28 110.87 110.87 0 00-4.611 11.217 133.616 133.616 0 00-7.351 35.806c-.203 4.326-.191 7.656-.076 9.966.064 1.123.115 1.99.153 2.552.038.561 0 .893 0 .893s0-.306-.102-.88c-.102-.575-.115-1.468-.217-2.552a99.11 99.11 0 010-9.992 131.656 131.656 0 017.172-35.947 111.89 111.89 0 014.624-11.28 80.375 80.375 0 016.714-11.382 109.808 109.808 0 0120.242-20.889 88.112 88.112 0 0113.185-8.652 95.232 95.232 0 0115.172-6.291 111.6 111.6 0 0134.089-4.977c11.822.077 23.44 1.276 34.153 4.569a94.363 94.363 0 0128.739 14.24 86.48 86.48 0 0111.261 9.89 68.917 68.917 0 018.752 11.127 75.304 75.304 0 016.153 11.689 92.198 92.198 0 014.051 11.484 110.244 110.244 0 013.592 20.621c.344 3.076.344 5.947.497 8.588.153 2.642 0 5.104 0 7.223 0 2.118-.179 4.083-.255 5.755-.076 1.671-.255 3.075-.344 4.211-.089 1.135-.191 1.978-.242 2.552a5.504 5.504 0 01-.153.931zM477.959 172.3H476.8l-3.312.064-12.229.23c-10.306.191-24.561.574-40.306.995-15.746.421-30 .74-40.319.817h-16.701 1.16l3.312-.077 12.216-.217c10.319-.191 24.574-.574 40.319-1.008 15.745-.434 30-.727 40.319-.804h16.407c.204-.025.293-.012.293 0zm-16.892 19.192c-3.71.329-7.436.44-11.159.332a95.107 95.107 0 01-11.159-.332 92.157 92.157 0 0111.159-.332 92.163 92.163 0 0111.159.332zm4.103-68.295c.063.179-13.784 5.959-30.943 12.914-17.159 6.954-31.121 12.454-31.198 12.288-.076-.166 13.784-5.946 30.956-12.914 17.172-6.967 31.121-12.454 31.185-12.288zm-28.077 4.365c.076.165-13.121 5.984-29.452 13.003-16.332 7.018-29.657 12.556-29.733 12.39-.076-.166 13.121-5.997 29.465-13.003 16.344-7.005 29.656-12.556 29.72-12.39zm178.038-6.776c.077.178-13.783 5.946-30.942 12.914-17.16 6.967-31.121 12.454-31.185 12.288-.064-.166 13.783-5.946 30.943-12.914 17.159-6.967 31.121-12.454 31.184-12.288zm-28.063 4.364c.063.166-13.122 5.984-29.465 13.003-16.344 7.018-29.657 12.556-29.733 12.39-.077-.166 13.121-5.997 29.465-13.003 16.344-7.005 29.656-12.556 29.733-12.39zm30.777 47.137c0 .192-27.554.498-61.542.702-33.987.204-61.541.217-61.541 0s27.541-.498 61.541-.702c34-.204 61.542-.178 61.542 0zm30.509 18.133c0 .191-7.719.408-17.261.498-9.541.089-17.261 0-17.261-.179s7.72-.396 17.261-.485c9.542-.089 17.261-.013 17.261.166zm-527.581-9.43a2.791 2.791 0 01-.751.14l-2.153.281c-.943.115-2.09.255-3.414.472-1.325.217-2.841.409-4.497.74-3.325.575-7.249 1.455-11.567 2.552-4.319 1.098-8.917 2.693-13.77 4.556a144.994 144.994 0 00-13.198 6.048c-3.95 2.093-7.427 4.122-10.191 5.96-1.44.88-2.688 1.773-3.822 2.552-1.134.778-2.064 1.416-2.828 1.978l-1.77 1.276a2.628 2.628 0 01-.65.395c.171-.19.364-.362.573-.51l1.694-1.353c.739-.599 1.656-1.276 2.764-2.08 1.109-.804 2.332-1.697 3.758-2.552 2.803-1.888 6.268-3.981 10.191-6.112a125.381 125.381 0 0127.109-10.642c4.331-1.123 8.293-1.953 11.643-2.476 1.669-.306 3.185-.472 4.522-.651 1.338-.178 2.548-.281 3.44-.357l2.166-.153c.246-.057.499-.078.751-.064zm227.479-30.102a16.417 16.417 0 00-1.274-1.187 8.359 8.359 0 00-4.204-1.71c-2.29-.181-4.593.07-6.79.74a50.958 50.958 0 00-8.025 2.731 52.266 52.266 0 00-13.045 8.128c-3.032 2.552-4.637 4.428-4.726 4.339a7.937 7.937 0 011.07-1.366 43.493 43.493 0 013.35-3.33 48.557 48.557 0 0113.083-8.384 49.984 49.984 0 018.14-2.718 18.01 18.01 0 017.007-.599 8.262 8.262 0 014.305 1.965c.323.292.609.622.854.982.217.255.28.396.255.409z" fill="#fff"/><path d="M758.393 117.187c-1.777.42-3.601.605-5.427.549a32.37 32.37 0 01-6.369-.791 55.513 55.513 0 01-8.102-2.553c-2.943-1.11-6.089-2.552-9.478-3.968l-5.286-2.144c-1.822-.727-3.733-1.353-5.682-2.054a218.376 218.376 0 00-25.962-7.095 298.006 298.006 0 00-48.522-6.049c-3.134-.166-5.962-.178-8.446-.242h-6.369l-4.026.09h-1.414c.119-.013.238-.013.357 0h1.044l4.039-.218 6.369-.115c2.548 0 5.325 0 8.459.14a283.211 283.211 0 0148.649 5.87 217.723 217.723 0 0126.026 7.159c1.949.728 3.822 1.366 5.694 2.106l5.287 2.169c3.388 1.48 6.51 2.909 9.427 4.045a59.69 59.69 0 008.012 2.552c2.067.49 4.173.789 6.293.894a26.63 26.63 0 004.013-.154l1.045-.127c.118-.043.243-.064.369-.064z" fill="#000"/><path d="M145.487 118.935c-5.095-27.92-8.509-32.208-11.401-41.816-2.892-9.609-7.452-15.849-13.147-18.044-3.821-1.48-23.006-8.409-29.694-6.112a83.156 83.156 0 00-18.51 9.315 24.813 24.813 0 00-9.656 12.365l-10.19 28.801 17.91 17.928 8.994-19.141 9.758 22.906-1.44 23.16 55.975 15.083c5.057-8.154 4.293-28.596 1.401-44.445z" fill="#28A8DF"/><path opacity=".2" d="M130.913 88.437c-2.471 14.535-2.866 16.589-5.338 31.072-.853 4.99-3.324 12.761-6.879 16.372-2.624 2.667-5.197 5.245-8.84 6.113-3.402.803-8.548.893-11.746-.524-3.197-1.416-5.91-7.656-4.598-10.846 4.751 1.008 6.216 2.552 10.305 0 3.58-2.272 8.637-7.299 10.574-11.064 8.178-15.835 10.42-16.397 16.56-31.123" fill="#000"/><path d="M90.404 116.638a36.614 36.614 0 01-2.472-3.828l-5.758-9.43c-2.267-3.56-4.305-6.789-5.91-9.328a34.872 34.872 0 01-2.383-3.918c.315.272.586.59.803.945.484.625 1.16 1.556 1.962 2.718 1.63 2.31 3.821 5.563 6.089 9.238 2.267 3.675 4.242 7.057 5.605 9.533.688 1.276 1.274 2.258 1.58 2.96.305.702.535 1.085.484 1.11zm39.056 26.07c-.402.218-.83.385-1.274.498-.521.181-1.053.33-1.592.446-.624.141-1.338.332-2.14.447a35.28 35.28 0 01-5.656.51 36.434 36.434 0 01-13.656-2.552 34.997 34.997 0 01-5.096-2.488 21.41 21.41 0 01-1.834-1.174c-.442-.3-.867-.624-1.274-.97-.7-.574-1.083-.893-1.045-.931.038-.039 1.644 1.135 4.446 2.666a40.192 40.192 0 005.096 2.323 42.772 42.772 0 006.611 1.812c2.255.402 4.538.615 6.828.638 1.87.013 3.739-.107 5.593-.357 3.044-.383 4.93-.983 4.993-.868z" fill="#000"/><path d="M107.002 99.207c-.089.51-6.114 12.506-6.114 12.506L72.505 96.732l-2.891-12.25a7.655 7.655 0 00-3.433-4.73 7.632 7.632 0 00-5.765-.923l-8.37 3.432a2.241 2.241 0 00-1.375 1.62c-.115.626 0 1.277 1.108 1.137 2.077-.153 6.37-.626 6.37-.626l-1.975 6.98a7.425 7.425 0 00.56 5.475l1.274 2.424 2.79 4.479s27.58 28.38 43.07 30.23c9.313 1.11 19.86-25.036 19.86-25.036l-16.726-9.737z" fill="#FFBE9D"/><path d="M57.945 84.865s.216-.294.688-.613a3.817 3.817 0 012.153-.663 2.266 2.266 0 011.898 1.276c.267.574.089.97 0 .944-.09-.026 0-.37-.306-.804a2.166 2.166 0 00-1.669-.944 4.16 4.16 0 00-1.974.497c-.446.192-.752.358-.79.307zm3.578 4.351s-.19-.23-.458-.561a3.223 3.223 0 00-1.274-.983 3.344 3.344 0 00-1.63-.191c-.434.063-.688.166-.727.102-.038-.064.204-.243.663-.383a2.912 2.912 0 011.847.076c.59.234 1.085.661 1.401 1.213.204.42.23.714.178.727z" fill="#EB996E"/><path d="M112.837 61.347l-7.643 36.482 20.382 12.302 7.822-22.42s-3.236-27.257-20.561-26.364z" fill="#28A8DF"/><path d="M123.869 61.998a2.42 2.42 0 01-.509.319l-1.554.816c-1.351.702-3.325 1.66-5.822 2.77a85.156 85.156 0 01-20.242 6.38 50.413 50.413 0 01-21.121-.702 36.1 36.1 0 01-6.077-2.182c-.7-.307-1.273-.613-1.566-.791-.293-.18-.523-.307-.51-.332a21.93 21.93 0 012.178.88 40.995 40.995 0 006.09 1.965 52.422 52.422 0 0020.942.523 92.631 92.631 0 0020.128-6.176c2.547-1.046 4.496-1.94 5.885-2.552.7-.364 1.429-.671 2.178-.918z" fill="#EBEBEB"/><path d="M129.231 66.017s-.178.166-.56.421c-.382.255-1.019.651-1.694 1.085a31.38 31.38 0 01-2.752 1.595c-1.095.587-2.318 1.276-3.745 1.914l-2.229 1.034c-.777.344-1.618.638-2.472.982-1.694.715-3.567 1.276-5.541 1.927a76.578 76.578 0 01-26.56 3.152c-2.064-.166-4.026-.28-5.835-.587-.917-.128-1.796-.217-2.637-.383l-2.395-.472c-1.542-.268-2.905-.676-4.102-.983a31.377 31.377 0 01-3.006-.918l-1.899-.651a2.365 2.365 0 01-.636-.28c.233.032.462.083.688.152l1.923.536c.828.255 1.86.536 3.057.804 1.198.268 2.548.638 4.102.88l2.395.434c.828.14 1.707.217 2.548.345 1.809.268 3.822.357 5.796.51a79.887 79.887 0 0026.37-3.126c1.949-.625 3.821-1.174 5.516-1.85.853-.332 1.681-.613 2.458-.957l2.23-.97c1.439-.587 2.675-1.276 3.821-1.812 1.147-.536 2.038-1.06 2.79-1.506l1.745-.97c.198-.122.407-.224.624-.306z" fill="#EBEBEB"/><path d="M125.576 110.131a9.817 9.817 0 01-1.657-.843l-4.484-2.552-15.286-8.843-.191-.115v-.217c.547-2.73 1.133-5.653 1.745-8.677.93-4.53 1.809-8.856 2.548-12.76.42-1.965.764-3.828 1.146-5.59.346-1.645.898-3.24 1.643-4.746a9.485 9.485 0 015.262-4.824 6.358 6.358 0 011.949-.332c.227-.009.455.017.675.077a8.4 8.4 0 00-4.522 1.538 8.42 8.42 0 00-2.956 3.757 20.68 20.68 0 00-1.516 4.645c-.331 1.761-.7 3.624-1.083 5.59-.789 3.942-1.656 8.268-2.547 12.76-.612 3.012-1.274 5.934-1.758 8.665l-.153-.345a4203.603 4203.603 0 0015.197 9.047l4.395 2.693c.558.316 1.09.674 1.593 1.072zm6.243-23.531c.096 1.132.062 2.27-.102 3.394a52.777 52.777 0 01-4.166 15.849 14.294 14.294 0 01-1.579 2.999 20.698 20.698 0 011.146-3.178 76.579 76.579 0 004.128-15.72 21.88 21.88 0 01.573-3.344z" fill="#000"/><path d="M21.296 289.519l-.178 19.485s-19.835 6.304-20.23 9.902l37.644 1.774 1.592-30.345-18.828-.816z" fill="#2B3A8C"/><path d="M32.799 307.919a1.544 1.544 0 01.98 1.812 1.479 1.479 0 01-1.783.983 1.595 1.595 0 01-1.02-1.914 1.544 1.544 0 011.963-.83m5.592 12.711v-3.063l-36.153-.574s-1.72.651-1.58 1.837l37.733 1.8z" fill="#E0E0E0"/><path d="M20.468 308.774c0 .192.917.319 1.796.957.88.638 1.274 1.43 1.49 1.366.217-.064 0-1.149-1.12-1.902-1.121-.752-2.204-.587-2.166-.421zm-4.026 1.455c0 .179.727.523 1.274 1.34.548.817.726 1.646.918 1.646.19 0 .343-1.046-.408-2.029-.752-.982-1.77-1.135-1.784-.957zm-2.472 4.632c.165 0 .458-.868 0-1.888-.459-1.021-1.274-1.481-1.35-1.277-.077.205.42.715.751 1.57.331.855.408 1.57.599 1.595zm7.045-10.514c0 .166.917 0 1.961.077 1.045.076 1.835.485 1.937.331.102-.153-.65-.842-1.873-.969-1.223-.128-2.115.408-2.025.561z" fill="#000"/><path opacity=".3" d="M21.257 293.372l-.05 3.471 18.535.715.178-3.114-18.663-1.072z" fill="#000"/><path d="M21.117 300.416a3.425 3.425 0 001.885.077 8.083 8.083 0 002-.511c.385-.15.76-.325 1.122-.523.216-.107.414-.25.585-.421a.78.78 0 00.128-.97.968.968 0 00-.777-.459 2.044 2.044 0 00-.714.064 5.67 5.67 0 00-1.197.344 6.62 6.62 0 00-1.796 1.059c-.918.766-1.274 1.442-1.185 1.48.09.039.535-.484 1.452-1.122a8.094 8.094 0 011.733-.868 7.261 7.261 0 011.095-.281c.408-.089.752-.076.841.115.09.191 0 .089 0 .204a1.798 1.798 0 01-.433.306c-.33.192-.67.367-1.02.524-.6.26-1.222.464-1.86.612-.627.078-1.249.202-1.859.37z" fill="#000"/><path d="M21.36 300.697a3.077 3.077 0 00.585-1.812 6.39 6.39 0 00-.166-2.08 7.704 7.704 0 00-.42-1.174 1.585 1.585 0 00-1.16-1.008.884.884 0 00-.814.485 2.43 2.43 0 00-.23.689 4.347 4.347 0 00.65 3.267c.688 1.008 1.452 1.276 1.465 1.212.013-.063-.56-.485-1.07-1.454a4.337 4.337 0 01-.522-1.8 4.455 4.455 0 01.089-1.084c.076-.409.242-.728.395-.677.153.051.497.332.624.651.17.336.311.686.42 1.047a6.85 6.85 0 01.28 1.914c0 1.11-.229 1.786-.127 1.824zm76.751-152.196s-58.866-24.73-77.096-25.789c-11.465-.663-20.076 6.7-18.522 18.541.777 5.921 17.045 75.288 17.045 75.288l24.815-11.344-11.911-47.967 48.408 23.543 17.261-32.272z" fill="#000"/><path d="M25.003 145.095c-.191.166 1.77 2.692 3.821 6.023 2.051 3.33 3.44 6.201 3.67 6.099.228-.102-.829-3.164-2.93-6.559-2.103-3.394-4.396-5.717-4.561-5.563z" fill="#2B3A8C"/><path d="M20.187 147.851c-.127.217 2.841 2.105 6.37 4.683s6.178 4.836 6.37 4.658c.19-.179-2.294-2.757-5.835-5.36s-6.803-4.173-6.905-3.981z" fill="#2B3A8C"/><path d="M144.047 163.38s-7.414 9.558-14.472 12.174c-8.917 3.279-74.471 34.288-74.471 34.288s-11.898 88.533-10.956 84.845l-27.452-.664 2.98-81.553c.37-10.451 8.714-22.433 17.695-27.767l60.74-36.201 45.936 14.878z" fill="#000"/><path d="M19.155 227.387a4.27 4.27 0 00.115-1.11c0-.829.102-1.888.165-3.215.157-3.922.523-7.832 1.096-11.715a40.428 40.428 0 015.924-16.167 30.589 30.589 0 017.057-7.299 82.747 82.747 0 019.261-5.908c13.21-7.58 24.624-15.313 33.045-20.609a961.213 961.213 0 019.987-6.278l2.739-1.684a5.59 5.59 0 00.917-.626 4.86 4.86 0 00-1.006.472c-.65.345-1.605.855-2.816 1.557-2.433 1.366-5.898 3.42-10.19 6.036-8.523 5.104-19.988 12.761-33.122 20.417a80.852 80.852 0 00-9.401 5.985 31.2 31.2 0 00-7.21 7.528 40.386 40.386 0 00-5.873 16.513 92.035 92.035 0 00-.815 11.816v3.152c.01.381.053.761.127 1.135zm100.663-54.666a24.992 24.992 0 00-1.682-2.271 16.418 16.418 0 01-2.547-12.761 20.67 20.67 0 00.662-2.743 6.036 6.036 0 00-1.274 2.552 14.674 14.674 0 002.675 13.258 6.107 6.107 0 002.166 1.965z" fill="#2B3A8C"/><path d="M26.787 294.023c.041-.15.067-.304.076-.459 0-.345.102-.791.166-1.276.14-1.276.318-2.974.547-5.105.459-4.555 1.083-11.012 1.873-18.975.382-4.019.79-8.409 1.274-13.117.484-4.709.93-9.749 1.274-15.045.344-5.296.904-10.859 1.872-16.589a67.875 67.875 0 015.096-17.023 56.955 56.955 0 019.898-14.636 89.801 89.801 0 0112.433-10.974 253.022 253.022 0 0123.898-15.006c6.968-4.007 12.523-7.427 16.217-10.005 1.847-1.276 3.261-2.309 4.191-3.037l1.057-.842c.238-.187.353-.289.344-.306-.14.066-.272.147-.395.242l-1.108.766c-.968.676-2.407 1.672-4.28 2.897-3.745 2.488-9.325 5.806-16.331 9.749a244.179 244.179 0 00-24.064 14.827 89.626 89.626 0 00-12.573 11.038 57.768 57.768 0 00-10.192 14.854 68.642 68.642 0 00-5.095 17.252c-.968 5.729-1.452 11.319-1.847 16.589-.395 5.27-.79 10.349-1.21 15.057-.42 4.709-.79 9.098-1.134 13.105-.663 7.976-1.274 14.445-1.593 19.001-.165 2.195-.293 3.93-.382 5.168 0 .549 0 .995-.089 1.352a1.56 1.56 0 00.077.498z" fill="#2B3A8C"/><path d="M91.423 8.046a10.726 10.726 0 00-4.915-5.575 10.697 10.697 0 00-7.352-1.035 13.318 13.318 0 01-3.414.74 25.57 25.57 0 01-4.153-1.097 6.22 6.22 0 00-4.394.917 6.24 6.24 0 00-2.638 3.638 8.457 8.457 0 00-6.994 1.39 5.526 5.526 0 00-1.643 6.61c.497.932 1.274 1.673 1.77 2.63.752 1.57.408 3.458.93 5.104a6.914 6.914 0 002.358 2.989 6.897 6.897 0 003.579 1.286c2.594.129 5.19-.244 7.643-1.098" fill="#000"/><path d="M79.614 58.527a280.555 280.555 0 01-.535-4.198s-8.216 0-11.465-10.209c-1.643-5.104-2.739-13.628-3.401-20.66a11.195 11.195 0 012.602-8.346 11.162 11.162 0 017.805-3.916l21.81-1.149.47 3.395 5.746 41.995a11.672 11.672 0 01-2.276 8.659 11.631 11.631 0 01-7.737 4.484 11.615 11.615 0 01-8.587-2.329 11.654 11.654 0 01-4.432-7.726z" fill="#FFBE9D"/><path d="M67.233 29.445a1.366 1.366 0 001.503 1.149 1.272 1.272 0 001.154-.912 1.28 1.28 0 00.043-.518 1.366 1.366 0 00-1.503-1.148 1.273 1.273 0 00-1.197 1.43zm-.537-1.888c.192.153 1.083-.766 2.548-.983 1.465-.217 2.548.32 2.739.115.191-.204-.153-.37-.662-.638a3.816 3.816 0 00-2.23-.32 3.617 3.617 0 00-1.974 1.009c-.42.447-.523.753-.42.817zm14.217-.37a1.365 1.365 0 001.516 1.148 1.274 1.274 0 001.185-1.43 1.366 1.366 0 00-1.503-1.148 1.273 1.273 0 00-1.198 1.43zm-.025-1.608c.191.14 1.096-.766 2.548-.995 1.452-.23 2.547.331 2.739.127.19-.204-.166-.383-.676-.638a3.626 3.626 0 00-2.229-.319 3.526 3.526 0 00-1.974 1.008c-.395.409-.497.753-.408.817zm-3.529 11.523c-.8-.1-1.608-.1-2.408 0-.369 0-.726 0-.828-.243a1.942 1.942 0 010-1.123l.65-2.986a46.906 46.906 0 001.274-7.656 50.12 50.12 0 00-1.898 7.656c-.204 1.047-.395 2.042-.586 2.986a2.122 2.122 0 000 1.48.932.932 0 00.688.434c.21.033.426.033.637 0a9.065 9.065 0 002.471-.548z" fill="#000"/><path d="M79.08 54.328a26.844 26.844 0 0013.375-5.959s-2.255 7.72-12.853 8.397l-.523-2.438z" fill="#EB996E"/><path d="M81.754 37.395c-.23 0 0 1.595-1.146 2.922-1.147 1.328-2.854 1.417-2.828 1.634.025.217.42.242 1.12.153a3.96 3.96 0 002.37-1.276 3.41 3.41 0 00.866-2.425c-.038-.65-.28-1.008-.382-1.008zm-2.141-17.418c.217.37 1.618 0 3.338-.102s3.16.179 3.338-.217c0-.179-.23-.51-.841-.804a5.444 5.444 0 00-2.548-.46 5.585 5.585 0 00-2.548.703c-.56.357-.828.714-.739.88zm-13.057 3.382c.306.293 1.274-.205 2.434-.409 1.159-.204 2.242-.127 2.42-.51.076-.179-.14-.485-.624-.728a3.586 3.586 0 00-3.911.753c-.37.332-.446.69-.319.894z" fill="#000"/><path d="M63.067 18.841s5.77 1.94 12.395-2.488c4.356-2.91 9.618-4.734 10.93-3.956 1.312.779 2.178 5.551 6.955 6.38 0 0 .84 9.188 4.433 8.397 2.548-.561 1.07-10.693 0-16.474a5.03 5.03 0 00-1.655-2.89 5.015 5.015 0 00-3.096-1.219l-6.726-.255-8.383 2.335-8.993 2.463-6.841 2.846.98 4.861z" fill="#000"/><path d="M96.977 23.448c.14-.102 5.694-3.037 6.726 3.05 1.032 6.086-5.274 5.87-5.312 5.69-.038-.178-1.414-8.74-1.414-8.74z" fill="#FFBE9D"/><path d="M99.856 29.573s.114 0 .305.102a1.02 1.02 0 00.79-.115 2.646 2.646 0 00.815-2.552 3.493 3.493 0 00-.547-1.467 1.275 1.275 0 00-.943-.69.56.56 0 00-.573.409v.306c0 .013-.14-.076-.14-.332a.702.702 0 01.178-.42.774.774 0 01.56-.256 1.476 1.476 0 011.274.753c.355.48.583 1.042.663 1.633a2.778 2.778 0 01-1.109 2.884 1.154 1.154 0 01-.993 0c-.255-.09-.306-.242-.28-.255z" fill="#EB996E"/><path d="M65.984 3.414s.204.319.637.816a5.413 5.413 0 002.305 1.48 7.634 7.634 0 004.039.18 34.796 34.796 0 004.904-1.57 13.407 13.407 0 015.21-.932c1.5.051 2.92.693 3.95 1.787a4.24 4.24 0 011.273 2.667 1.79 1.79 0 01-.178 1.059s0-.383-.076-1.034a4.264 4.264 0 00-1.274-2.36A5.422 5.422 0 0083.118 4c-1.698 0-3.38.324-4.956.957a33.22 33.22 0 01-5.006 1.531c-1.443.3-2.942.18-4.319-.345a5.097 5.097 0 01-2.344-1.76 1.902 1.902 0 01-.51-.97z" fill="#2B3A8C"/><path d="M86.505 9.245s-.306-.332-.943-.765a5.573 5.573 0 00-3.057-.906 9.885 9.885 0 00-4.637 1.135 48.014 48.014 0 01-5.529 2.552 13.76 13.76 0 01-10.879-1.2 11.965 11.965 0 01-2.688-2.015 3.828 3.828 0 01-.764-.97 24.116 24.116 0 003.669 2.616 13.864 13.864 0 0010.459.97 56.06 56.06 0 005.477-2.552 9.935 9.935 0 014.918-1.047 5.498 5.498 0 013.184 1.174c.355.253.63.603.79 1.008z" fill="#2B3A8C"/><path d="M67.64 112.938L38.06 87.672l-9.758 2.207s10.28 21.413 17.72 29.261c0 0 7.35 9.863 19.478 5.601 12.127-4.262 2.14-11.803 2.14-11.803z" fill="#FFBE9D"/><path d="M35.83 59.867H23.257a3.18 3.18 0 00-2.413 1.306 3.194 3.194 0 00-.504 2.7l12.637 24.68a2.882 2.882 0 002.547 1.556h15.287a2.176 2.176 0 001.707-1.17 2.185 2.185 0 00-.038-2.071L40.289 62.712a5.013 5.013 0 00-4.459-2.845z" fill="#2B3A8C"/><path d="M34.977 61.347H22.391a2.113 2.113 0 00-2.112 2.031c-.014.362.064.721.227 1.044l12.344 24.13a2.88 2.88 0 002.547 1.557h15.16a1.27 1.27 0 001.242-1.186 1.278 1.278 0 00-.108-.613L39.474 64.192a5.025 5.025 0 00-4.497-2.845z" fill="#000"/><path d="M33.855 71.453l-7.643 3.063-1.643 6.176 3.681 9.188 13.53 1.977-3.963-4.058.51-3.521s3.822-1.187 3.822-1.774-.472-2.552-1.045-2.552a29.542 29.542 0 00-4.535 1.378s4.688-3.713 4.548-4.313c-.14-.6-.624-2.118-1.567-2.284-.943-.166-8.484 3.394-8.484 3.394l-1.274 2.807-1.07-4.479s6.84-1.94 5.133-5.002z" fill="#FFBE9D"/><path d="M34.874 85.885s-.19-.268-.267-.765a4.14 4.14 0 011.274-3.548c.382-.332.675-.46.7-.42a9.373 9.373 0 00-1.414 2.168 8.538 8.538 0 00-.293 2.565zm-3.642-1.275c.146-.66.248-1.33.306-2.004a9.539 9.539 0 01.382-2.233c.154-.44.396-.845.713-1.187.36-.352.796-.618 1.274-.778a105.576 105.576 0 014.675-1.595 10.917 10.917 0 011.987-.549c-.602.326-1.233.595-1.885.804-1.184.46-2.84 1.046-4.637 1.697a3.402 3.402 0 00-1.12.69 3.09 3.09 0 00-.638 1.046 9.81 9.81 0 00-.446 2.13 4.101 4.101 0 01-.611 1.978zm-1.758-1.404a3.184 3.184 0 010-1.506c.14-.817.331-1.468.446-1.442.12.495.12 1.011 0 1.506-.14.817-.331 1.467-.446 1.442z" fill="#EB996E"/><path d="M29.27 66.004a1.61 1.61 0 00.991 1.486 1.602 1.602 0 002.189-1.172 1.61 1.61 0 00-1.575-1.921 1.604 1.604 0 00-1.605 1.607z" fill="#FAFAFA"/></svg>