<svg width="901" height="471" fill="none" xmlns="http://www.w3.org/2000/svg"><g style="mix-blend-mode:luminosity" opacity=".4"><path opacity=".41" d="M327.54 49.912c-5.634-8.987-16.96-11.591-25.348-5.761-8.388 5.83-16.35 21.718-10.715 30.705 5.634 8.987 19.01.427 29.046-.288 14.045-1.048 12.651-15.68 7.017-24.656z" fill="#fff"/><path d="M487.565 144.39a6.567 6.567 0 11-13.07 1.296 6.567 6.567 0 0113.07-1.296z" fill="#fff"/><path d="M332.356 230.135a2.398 2.398 0 10-.002-4.795 2.398 2.398 0 00.002 4.795zm0-3.641a1.243 1.243 0 011.22 1.487 1.24 1.24 0 01-.978.978 1.247 1.247 0 01-1.487-1.221c0-.33.131-.646.365-.879.233-.234.55-.365.88-.365z" fill="#F0F0F1"/><path d="M368.649 207.794a4.25 4.25 0 002.066-7.956 4.252 4.252 0 00-5.73 5.894 4.278 4.278 0 003.664 2.062zm0-7.362a3.098 3.098 0 01.821 6.087 3.095 3.095 0 01-3.673-1.771 3.097 3.097 0 011.262-3.878 3.058 3.058 0 011.567-.438h.023z" fill="#fff"/><path d="M552.329 252.314a4.463 4.463 0 004.385-5.326 4.445 4.445 0 00-1.221-2.285 4.453 4.453 0 00-6.865.682 4.457 4.457 0 003.701 6.929zm0-6.602a2.16 2.16 0 011.999 1.323 2.15 2.15 0 01-.46 2.351 2.152 2.152 0 01-3.318-.321 2.154 2.154 0 011.779-3.353z" fill="#F0F0F1"/><path d="M334.833 118.443a45.06 45.06 0 0076.044 11.315l16.13 2.477-8.572-15.509a45.027 45.027 0 10-83.636 1.717h.034z" fill="#E0E0E0"/><path d="M354.582 85.572h42.837a1.152 1.152 0 100-2.305h-42.837a1.152 1.152 0 100 2.305zm0 14.39h42.837a1.152 1.152 0 100-2.304h-42.837a1.152 1.152 0 100 2.304zm0 15.601h42.837a1.153 1.153 0 000-2.305h-42.837a1.153 1.153 0 000 2.305z" fill="#F0F0F1"/><path d="M326.491 126.647h28.701c7.261 0 13.146 5.885 13.146 13.146v.115c0 7.261-5.885 13.147-13.146 13.147h-28.701c-7.26 0-13.146-5.886-13.146-13.147v-.115c0-7.261 5.886-13.146 13.146-13.146z" fill="#E0E0E0"/><path d="M355.491 143.791a3.279 3.279 0 003.032-2.012 3.274 3.274 0 00-2.377-4.469 3.272 3.272 0 10-.655 6.481zm0-5.392a2.125 2.125 0 011.967 1.3 2.12 2.12 0 11-1.967-1.3zm-14.655 5.392a3.276 3.276 0 003.031-2.012 3.266 3.266 0 00-.702-3.57 3.276 3.276 0 00-3.567-.714 3.262 3.262 0 00-1.47 1.205 3.27 3.27 0 002.708 5.091zm0-5.392a2.125 2.125 0 011.967 1.3 2.119 2.119 0 01-2.764 2.779 2.114 2.114 0 01-1.312-1.959 2.12 2.12 0 012.109-2.12zm-14.598 5.392c.647 0 1.279-.192 1.818-.551a3.278 3.278 0 001.391-3.36 3.271 3.271 0 10-3.209 3.911zm0-5.392a2.116 2.116 0 011.958 1.309 2.125 2.125 0 01-1.545 2.89 2.115 2.115 0 01-2.176-.901 2.122 2.122 0 01-.357-1.178 2.13 2.13 0 012.12-2.12z" fill="#fff"/><path d="M17.824 146.199h132.511c1.025 0 1.855.831 1.855 1.855v40.038c0 1.025-.83 1.855-1.855 1.855H17.824a1.855 1.855 0 01-1.856-1.855v-40.038c0-1.024.831-1.855 1.856-1.855z" fill="#E0E0E0"/><path d="M122.287 174.245c-3.869-3.87-3.869-10.144 0-14.013 3.87-3.87 10.144-3.87 14.013 0 3.87 3.869 3.87 10.143 0 14.013-3.869 3.869-10.143 3.869-14.013 0z" fill="#fff"/><path d="M124.812 172.135a1.168 1.168 0 01-.83-.381l-4.378-4.954a1.142 1.142 0 01-.246-.391 1.146 1.146 0 01.717-1.502 1.17 1.17 0 01.902.078c.137.073.258.173.355.294l3.561 4.021 8.802-8.86a1.147 1.147 0 01.818-.341 1.142 1.142 0 01.818.341 1.15 1.15 0 010 1.624l-9.666 9.736a1.162 1.162 0 01-.853.335z" fill="#BDBDBD"/><path d="M34.864 161.419h69.707a.573.573 0 00.576-.576.575.575 0 00-.576-.576H34.864a.59.59 0 00-.576.576.575.575 0 00.576.576zm38.563 8.273h31.109a.578.578 0 00.408-.983.578.578 0 00-.408-.169H73.427a.576.576 0 000 1.152zm0 9.402h31.109a.578.578 0 00.408-.984.577.577 0 00-.408-.168H73.427a.575.575 0 100 1.152zm-38.563-9.402h31.109a.577.577 0 000-1.152H34.864a.577.577 0 000 1.152zm18.262 14.978h132.512c1.024 0 1.855.831 1.855 1.855v40.038a1.855 1.855 0 01-1.855 1.855H53.126a1.855 1.855 0 01-1.855-1.855v-40.038c0-1.024.83-1.855 1.855-1.855z" fill="#fff"/><path d="M164.588 215.629c-5.473 0-9.909-4.436-9.909-9.909 0-5.472 4.436-9.908 9.909-9.908 5.472 0 9.909 4.436 9.909 9.908 0 5.473-4.437 9.909-9.909 9.909z" fill="#E0E0E0"/><path opacity=".69" d="M70.167 199.902h69.684a.577.577 0 000-1.152H70.144a.577.577 0 000 1.152h.023zm38.575 8.25h31.109a.59.59 0 00.576-.577.577.577 0 00-.576-.576h-31.109a.575.575 0 00-.407.984.575.575 0 00.407.169zm0 9.424h31.109a.576.576 0 100-1.152h-31.109a.575.575 0 000 1.152zm-38.575-9.424h31.108a.578.578 0 000-1.153H70.167a.577.577 0 00-.576.576.59.59 0 00.576.577z" fill="#BDBDBD"/><path d="M180.787 79.235c0 29.265 53 77.011 53 77.011s53-47.746 53-77.011a53.002 53.002 0 00-53-53 52.999 52.999 0 00-53 53z" fill="#E0E0E0"/><path opacity=".24" d="M233.799 134.067s42.745-38.506 51.467-67.552a53.075 53.075 0 011.544 12.674c0 29.265-53 77.011-53 77.011s-53-47.746-53-77.011a52.519 52.519 0 011.556-12.674c8.687 29.046 51.433 67.552 51.433 67.552z" fill="#BDBDBD"/><path d="M233.799 112.936a33.223 33.223 0 0030.69-20.508 33.22 33.22 0 00-7.206-36.202 33.22 33.22 0 00-51.109 5.047 33.215 33.215 0 00-5.592 18.457 33.253 33.253 0 0033.217 33.206zm0-64.119a30.91 30.91 0 0128.56 19.083 30.917 30.917 0 01-6.701 33.689 30.921 30.921 0 01-33.689 6.701 30.913 30.913 0 01-19.083-28.56 30.957 30.957 0 0130.913-30.913zm66.192 71.942a2.546 2.546 0 110-5.092 2.546 2.546 0 010 5.092zM180.787 252.176a2.546 2.546 0 110-5.092 2.546 2.546 0 010 5.092zM2.638 222.358a2.546 2.546 0 110-5.093 2.546 2.546 0 010 5.093zm430.21-182.482a2.546 2.546 0 110-5.092 2.546 2.546 0 010 5.092zm-338.52 52.09a2.546 2.546 0 110-5.092 2.546 2.546 0 010 5.092z" fill="#fff"/><path d="M201.734 166.754a1.282 1.282 0 00.792 1.183 1.275 1.275 0 001.395-.283 1.28 1.28 0 00-.206-1.969 1.285 1.285 0 00-1.202-.112 1.262 1.262 0 00-.779 1.181z" fill="#BDBDBD"/><path d="M143.745 129.239a3.56 3.56 0 110-7.12 3.56 3.56 0 010 7.12zM33.309 241.703a2.015 2.015 0 104.03.023 2.015 2.015 0 00-4.03-.023zm369.502-60.305a1.774 1.774 0 110-3.547 1.774 1.774 0 010 3.547zm-95.642-90.699a1.28 1.28 0 110-2.558 1.28 1.28 0 010 2.558z" fill="#fff"/><path d="M132.742 55.062l5.956 7.962.231-10.128 7.097-6.049-9.586-1.337-6.187-8.18-.369 10.393-6.821 6.867 9.679.472z" fill="#E0E0E0"/><path opacity=".47" d="M354.316 29.415l3.883 5.196.161-6.613 4.632-3.952-6.256-.864-4.044-5.358-.242 6.798-4.459 4.482 6.325.31z" fill="#fff"/><path opacity=".47" d="M40.671 115.113l2.65 3.549.104-4.505 3.169-2.696-4.275-.599-2.754-3.641-.161 4.632-3.042 3.053 4.31.207z" fill="#E0E0E0"/><path opacity=".41" d="M561.472 205.79c5.449-11.165 1.221-24.853-9.46-30.556-10.68-5.703-31.108-5.231-36.604 5.945-5.496 11.176 10.98 20.739 17.697 31.109 9.356 14.471 22.917 4.678 28.367-6.498z" fill="#E0E0E0"/><path d="M493.85 5.853a2.546 2.546 0 110-5.093 2.546 2.546 0 010 5.093zm38.068 136.002a1.279 1.279 0 110-2.558 1.279 1.279 0 010 2.558zm-34.242-49.762a1.28 1.28 0 110-2.558 1.28 1.28 0 010 2.558zm-9.932 9.989a1.775 1.775 0 103.55 0 1.775 1.775 0 00-3.55 0z" fill="#fff"/><path opacity=".47" d="M529.061 50.96l-1.014 6.418 4.839-4.505 6.072.576-3.744-5.104 1.025-6.625-5.046 4.563-6.314-.07 4.182 4.747z" fill="#E0E0E0"/><path d="M279.091 160.405l3.03 4.045.115-5.139 3.607-3.076-4.863-.68-3.145-4.16-.184 5.289-3.468 3.479 4.908.242zM69.257 282.248l3.018 4.044.127-5.139 3.606-3.076-4.873-.668-3.146-4.16-.184 5.277-3.468 3.491 4.92.231zm345.733-64.775l1.348 4.862 1.982-4.747 4.482-1.544-4.286-2.408-1.417-5.012-2.097 4.85-4.494 1.982 4.482 2.017zM289.253 6.728a1.28 1.28 0 110-2.558 1.28 1.28 0 010 2.558zm-88.798 14.356a2.546 2.546 0 110-5.092 2.546 2.546 0 010 5.092z" fill="#fff"/></g><path d="M625.969 222.964h226.797c-1.086-3.998-7.048-17.689-37.388-12.446a19.177 19.177 0 006.81-17.53 10.596 10.596 0 00-2.65-5.296 12.626 12.626 0 00-4.584-2.648c-11.978-4.29-32.911 12.181-32.911 12.181 25.65-40.277-44.252-57.172-44.729-6.223 0 0-10.255-18.298-21.464-13.24-4.557 2.648-1.749 10.592.292 13.876-32.752-15.889-62.536-6.144-48.677 11.995-32.169.768-41.496 19.331-41.496 19.331zm-338.065-53.703h-39.296v72.742h39.296v-72.742z" fill="#fff"/><path d="M248.608 187.692v7.017l39.296-4.502v-2.515h-39.296z" fill="#9BB8CC"/><path d="M292.515 178.927h-48.518v8.765h48.518v-8.765z" fill="#133B53"/><path d="M766.196 468.81h130.716a20.469 20.469 0 00-12.004-12.737 28.683 28.683 0 00-18.31-.212c1.113-.318 2.65-2.304 3.365-3.125a13.235 13.235 0 003.736-6.885 11.275 11.275 0 00-2.358-8.685 15.522 15.522 0 00-6.281-4.258 15.544 15.544 0 00-7.551-.774h-.768a15.11 15.11 0 00-2.862.742 31.963 31.963 0 00-10.599 7.335 34.664 34.664 0 00-1.67 1.774s8.506-7.07 10.599-12.419c7.367-15.253-8.214-37.365-27.637-31.115a38.7 38.7 0 00-18.363 17.927c15.528-23.223-10.229-37.337-19.371-16.444 5.671-17.239-2.782-35.272-19.82-25.157l-.716.318-.106 93.715z" fill="#589600"/><path d="M766.196 468.81H843.2a11.979 11.979 0 00-7.075-7.494 16.893 16.893 0 00-10.785-.132 7.436 7.436 0 00-4.107-9.586 12.938 12.938 0 00-10.599 1.483 12.927 12.927 0 006.174-7.335c4.346-8.977-4.849-22.006-16.27-18.325a22.888 22.888 0 00-10.838 10.592c9.142-13.69-6.015-22.005-11.394-9.692 5.3-13.478-4.876-21.37-12.11-18.324v58.813z" fill="#A2DA52"/><path d="M846.036 395.3a7.471 7.471 0 01-5.061 1.615 9.162 9.162 0 012.437-5.137 7.472 7.472 0 015.062-1.615 9.248 9.248 0 01-2.438 5.137z" fill="#589600"/><path d="M786.653 416.882a8.482 8.482 0 01-4.875 3.601 10.318 10.318 0 01.715-6.408 8.504 8.504 0 014.876-3.628c.45 2.166.2 4.42-.716 6.435z" fill="#A2DA52"/><path d="M839.756 387.938a12.835 12.835 0 01-1.166 7.944 11.864 11.864 0 01-4.346-6.355 12.843 12.843 0 011.166-7.944 11.857 11.857 0 014.346 6.355z" fill="#589600"/><path d="M630.924 146.064l-278.205-4.766-161.135 154.938h595.52l-156.18-150.172z" fill="#1C75BB"/><path d="M773.351 296.236h-180.77v161.585h180.77V296.236z" fill="#fff"/><path d="M773.351 296.236h-19.767v161.585h19.767V296.236zm-161.003 0h-19.767v161.585h19.767V296.236z" fill="#28A8DF"/><path d="M753.557 319.618H612.322v1.986h141.235v-1.986zm0 22.773H612.322v1.986h141.235v-1.986zm0 22.774H612.322v1.986h141.235v-1.986zm0 22.747H612.322v1.986h141.235v-1.986zm0 22.773H612.322v1.986h141.235v-1.986zm0 22.773H612.322v1.986h141.235v-1.986z" fill="#E1ECEF"/><path d="M612.322 319.618h-19.768v1.986h19.768v-1.986zm0 22.773h-19.768v1.986h19.768v-1.986zm0 22.774h-19.768v1.986h19.768v-1.986zm0 22.747h-19.768v1.986h19.768v-1.986zm0 22.773h-19.768v1.986h19.768v-1.986zm0 22.773h-19.768v1.986h19.768v-1.986zm161.029-113.84h-19.767v1.986h19.767v-1.986zm0 22.773h-19.767v1.986h19.767v-1.986zm0 22.774h-19.767v1.986h19.767v-1.986zm0 22.747h-19.767v1.986h19.767v-1.986zm0 22.773h-19.767v1.986h19.767v-1.986zm0 22.773h-19.767v1.986h19.767v-1.986z" fill="#1C75BB"/><path d="M386.133 296.236h-180.77v161.585h180.77V296.236z" fill="#fff"/><path d="M384.596 319.618H205.363v1.986h179.233v-1.986zm0 22.773H205.363v1.986h179.233v-1.986zm0 22.774H205.363v1.986h179.233v-1.986zm0 22.747H205.363v1.986h179.233v-1.986zm0 22.773H205.363v1.986h179.233v-1.986zm0 22.773H205.363v1.986h179.233v-1.986z" fill="#E1ECEF"/><path d="M355.263 329.469h-119.03v128.378h119.03V329.469z" fill="#28A8DF"/><path d="M355.263 335.109l-119.03 19.305v-24.945h119.03v5.64z" fill="#1C75BB"/><path d="M386.133 457.821h-7.923l4.955-161.585h2.968v161.585z" fill="#9BB8CC"/><path d="M386.133 298.91l-180.77 9.878v-12.552h180.77v2.674zm226.189-2.674v11.466l141.261-7.706v-3.76H612.322z" fill="#9BB8CC"/><path d="M753.584 296.236v3.76l19.767-1.086v-2.674h-19.767zm-161.03 0v12.552l19.768-1.086v-11.466h-19.768z" fill="#1C75BB"/><path d="M592.554 457.821H386.133V206.599l103.211-80.501 103.21 80.501v251.222z" fill="#fff"/><path d="M489.344 126.098l-103.211 80.501v18.219l98.415-76.026 108.006 84.235v-26.428l-103.21-80.501z" fill="#9BB8CC"/><path d="M608.956 208.744l-119.612-89.69-119.534 90.59 11.66 11.652 107.874-84.129 107.423 83.758 12.189-12.181z" fill="#fff"/><path d="M778.969 457.82H193.465v11.069h585.504V457.82z" fill="#BDBDBD"/><path d="M335.628 357.247H256.16V457.82h79.468V357.247z" fill="#fff"/><path d="M292.913 361.855H261.91v90.378h31.003v-90.378zm36.673 0h-31.003v90.378h31.003v-90.378z" fill="#133B53"/><path d="M335.628 355.844h-81.217l-.981 101.977h2.756V357.247h79.442v-1.403z" fill="#1C75BB"/><path d="M739.381 357.247H625.809v68.346h113.572v-68.346z" fill="#fff"/><path d="M650.188 361.855h-19.106v58.39h19.106v-58.39zm59.992 0h-54.454v58.39h54.454v-58.39zm24.643 0h-19.105v58.39h19.105v-58.39z" fill="#133B53"/><path d="M739.38 356.373H624.113l-1.378 69.247h3.074v-68.373H739.38v-.874z" fill="#9BB8CC"/><path d="M625.809 425.037H739.38v1.616l-116.645 4.925v-6.541h3.074z" fill="#9BB8CC"/><path d="M449.861 361.855h-31.002v90.378h31.002v-90.378zm36.674 0h-31.003v90.378h31.003v-90.378zm36.647 0h-31.003v90.378h31.003v-90.378zm36.647 0h-31.003v90.378h31.003v-90.378z" fill="#133B53"/><path d="M563.459 356.373H411.36l-2.359 101.447h4.77V357.247h149.688v-.874z" fill="#9BB8CC"/><path d="M486.535 208.214h-31.003v90.378h31.003v-90.378zm36.647 0h-31.003v90.378h31.003v-90.378z" fill="#133B53"/><path d="M528.19 202.733h-79.892l-2.359 101.447h4.77V203.607h77.481v-.874z" fill="#9BB8CC"/><path d="M570.534 303.518H408.153v8.341h162.381v-8.341z" fill="#133B53"/><path d="M570.534 311.859H408.153v-8.341l-6.227 8.341v7.839l168.608-5.985v-1.854z" fill="#9BB8CC"/><path d="M417.878 280.798h-2.623v22.72h2.623v-22.72zm87.974 0h-2.623v22.72h2.623v-22.72zm-29.334 0h-2.623v22.72h2.623v-22.72zm58.641 0h-2.623v22.72h2.623v-22.72zm-87.948 0h-2.623v22.72h2.623v-22.72zm117.282 0h-2.624v22.72h2.624v-22.72z" fill="#BDBDBD"/><path d="M417.878 280.798h-2.623v2.144h2.623v-2.144zm87.974 0h-2.623v2.144h2.623v-2.144zm-29.334 0h-2.623v2.144h2.623v-2.144zm58.641 0h-2.623v2.144h2.623v-2.144zm-87.948 0h-2.623v2.144h2.623v-2.144zm117.282 0h-2.624v2.144h2.624v-2.144z" fill="#4A938C"/><path d="M155.342 468.76l1.75-24.754-14-15.843.852-.675 8.266 6.909 1.198-6.909 1.312.337-.23 8.597 3.362 3.195 1.289-25.272-6.862-8.303.76-.631 7.115 5.559.461-13.21h1.842l1.22 16.225 1.796 16.158 9.257-9.789.875.54-3.385 5.199 5.872-.09v.967l-6.425.968-6.309 9.654 1.451 31.168h-11.467z" fill="#994F61"/><path d="M214.033 380.041a19.287 19.287 0 00-1.435-8.946 9.413 9.413 0 00-2.766-3.633 9.642 9.642 0 00-4.178-1.936 5.4 5.4 0 00-2.664.191 5.31 5.31 0 00-2.232 1.442 38.03 38.03 0 007.947-14.291c.786-2.626.934-5.396.432-8.088a17.344 17.344 0 00-3.324-7.411 16.112 16.112 0 00-6.606-4.307 16.359 16.359 0 00-7.899-.681c-5.312.936-10.114 3.694-13.548 7.783.364-8.208 2.277-16.483.774-24.601-1.503-8.119-8.083-16.17-16.44-15.79-5.67.246-10.429 4.227-14.049 8.521-7.525 9-12.077 20.04-13.048 31.647a39.83 39.83 0 00-7.309-8.141 13.59 13.59 0 00-4.815-2.616 13.761 13.761 0 00-5.477-.515c-5.989.961-9.814 6.978-11.271 12.77a34.114 34.114 0 00.637 18.876c3.279 10.042 10.93 18.004 18.376 25.608a7.737 7.737 0 00-5.431.139 7.548 7.548 0 00-3.95 3.663c-2.278 4.473 0 9.64 3.028 13.196a30.654 30.654 0 009.677 6.933c20.152 9.93 44.676 8.498 65.009-.134 7.275-3.164 13.217-8.693 16.828-15.656a30.573 30.573 0 003.734-14.023z" fill="#4F8700"/><path d="M149.792 421.763c-.892-1.034-3.548-1.444-3.504.431-.784-5.82-8.466-3.621-4.875 1.962-5.92-6.079-11.143 1.681-3.504 5.152-6.529.129-2.873 9.312 2.829 5.303a2.161 2.161 0 00-1.181 1.163 2.136 2.136 0 00-.005 1.65c.219.528.642.949 1.174 1.17.533.22 1.132.222 1.666.004 6.595-1.056 13.363-11.51 7.4-16.835z" fill="#589600"/><path d="M138.303 403.883a10.963 10.963 0 01-.701-5.028c.097-.85.401-1.665.885-2.372a5.301 5.301 0 011.894-1.691 2.866 2.866 0 012.847 0 21.728 21.728 0 01-6.552-6.195 9.757 9.757 0 01-.971-8.732 8.809 8.809 0 012.761-3.319 8.887 8.887 0 014.016-1.619 12.6 12.6 0 018.427 2.02c-1.536-4.332-3.885-8.44-4.382-12.997-.498-4.556 1.671-9.921 6.19-11.044a11.371 11.371 0 018.788 2.245 31.87 31.87 0 0111.997 14.837 22.13 22.13 0 012.53-5.499 7.38 7.38 0 012.119-2.149 7.431 7.431 0 012.807-1.128c3.321-.427 6.303 2.244 8.02 5.028a19.186 19.186 0 012.711 10.168c0 5.881-2.869 11.224-5.58 16.566a4.222 4.222 0 015.58.561 6.918 6.918 0 01.542 7.52 17.009 17.009 0 01-3.999 5.23c-9.037 8.462-22.208 11.56-34.34 10.146a19.001 19.001 0 01-11.297-5.679 17.33 17.33 0 01-4.292-6.869z" fill="#A2DA52"/><path d="M115.356 382.826c.749 1.54.933 3.28.521 4.934a7.857 7.857 0 01-4.07-3.066 7.325 7.325 0 01-.496-4.934 7.683 7.683 0 014.045 3.066zm-7.413 4.934a10.21 10.21 0 016.149 2.203 10.027 10.027 0 01-5.851 2.797 10.06 10.06 0 01-6.149-2.203 10.077 10.077 0 015.851-2.797zm71.787 40.805a3.473 3.473 0 01-1.638-1.61 3.67 3.67 0 012.361 0 3.605 3.605 0 011.639 1.61c-.764.26-1.598.26-2.362 0zm1.131-3.837c-.793.683-1.769 1.046-2.769 1.032.103-1.115.536-2.159 1.231-2.967.792-.683 1.768-1.047 2.769-1.032-.093 1.117-.528 2.165-1.231 2.967z" fill="#589600"/><path d="M179.683 357.735c-.993 1.212-2.258 1.926-3.588 2.025a9.018 9.018 0 01.326-2.677 7.367 7.367 0 011.073-2.286c.467-.654 1.027-1.172 1.645-1.523a3.81 3.81 0 011.953-.513c-.042 1.828-.539 3.582-1.409 4.974zm-40.05 13.256a5.254 5.254 0 012.459 2.399 5.489 5.489 0 01-3.541.144 5.277 5.277 0 01-2.459-2.399 5.41 5.41 0 013.541-.144zm33.113-18.593a10.715 10.715 0 01-.299 6.362 7.254 7.254 0 01-2.379-1.864 8.3 8.3 0 01-1.531-2.766 8.993 8.993 0 01-.435-3.219 8.876 8.876 0 01.731-3.151c1.737 1 3.118 2.636 3.913 4.638zm-27.485 83.311a9.888 9.888 0 01-2.006 0c-.987-.064-1.909-.464-2.571-1.117a2.174 2.174 0 01-.539-.994 2.026 2.026 0 01.051-1.102c.411-1.003 1.877-.752 2.571-1.504.166-.223.279-.473.332-.736a1.733 1.733 0 00-.024-.791 3.63 3.63 0 010-1.573c.051-.257.208-.489.441-.649.233-.16.525-.238.819-.217.463 0 .72.456 1.003.73a.9.9 0 00.295.223c.116.055.243.087.373.096 1.106 0 1.363-1.482 2.571-1.299 1.208.182 1.877 1.321 2.211 2.279.311.805.385 1.667.214 2.505a4.752 4.752 0 01-1.191 2.28c-1.197 1.11-2.822 1.777-4.55 1.869z" fill="#A2DA52"/><path d="M566.877 280.797H411.651v-5.746l155.226 1.324v4.422z" fill="#BDBDBD"/><path d="M201.096 445.904h-90.252v3.496h90.252v-3.496zm0 14.194h-90.252v3.495h90.252v-3.495z" fill="#B6CCD8"/><path d="M120.409 468.572h-6.147a.666.666 0 01-.663-.662v-26.137a.672.672 0 010-.397l3.074-3.681a.669.669 0 01.53-.265.66.66 0 01.53.265l3.074 3.681a.662.662 0 01.132.397v26.137a.663.663 0 01-.53.662zm12.772 0h-6.121a.693.693 0 01-.689-.662v-26.137a.549.549 0 01.159-.397l3.048-3.681a.692.692 0 01.845-.195.692.692 0 01.241.195l3.074 3.681a.656.656 0 010 .397v26.137a.66.66 0 01-.557.662zm12.799 0h-6.121a.691.691 0 01-.689-.662v-26.137a.528.528 0 01.159-.397l3.047-3.681a.702.702 0 01.544-.265.69.69 0 01.543.265l3.047 3.681a.528.528 0 01.159.397v26.137a.688.688 0 01-.689.662zm12.799 0h-6.121a.69.69 0 01-.689-.662v-26.137c0-.143.046-.282.132-.397l3.048-3.681a.684.684 0 01.543-.265.69.69 0 01.543.265l3.047 3.681a.53.53 0 01.159.397v26.137a.686.686 0 01-.662.662zm12.799 0h-6.121a.665.665 0 01-.689-.662v-26.137c0-.143.046-.282.132-.397l3.074-3.681a.692.692 0 01.845-.195.692.692 0 01.241.195l3.048 3.681a.537.537 0 01.132.397v26.137a.663.663 0 01-.662.662zm12.718 0h-6.068a.663.663 0 01-.662-.662v-26.137a.656.656 0 010-.397l3.074-3.681a.657.657 0 01.53-.265.66.66 0 01.53.265l3.073 3.681a.663.663 0 01.133.397v26.137a.665.665 0 01-.61.662zm12.852 0h-6.121a.691.691 0 01-.689-.662v-26.137a.528.528 0 01.159-.397l3.047-3.681a.702.702 0 01.543-.265.69.69 0 01.544.265l3.073 3.681a.656.656 0 010 .397v26.137a.662.662 0 01-.556.662z" fill="#fff"/><path d="M887.638 445.904H759.705v3.496h127.933v-3.496zm0 14.194H759.705v3.495h127.933v-3.495z" fill="#B6CCD8"/><path d="M769.27 468.572h-6.121a.671.671 0 01-.485-.185.657.657 0 01-.204-.477v-26.137c0-.143.047-.282.133-.397l3.073-3.681a.669.669 0 01.53-.265.665.665 0 01.53.265l3.074 3.681a.663.663 0 01.133.397v26.137a.663.663 0 01-.663.662zm12.772 0h-6.121a.661.661 0 01-.662-.662v-26.137a.527.527 0 01.132-.397l3.074-3.681a.669.669 0 01.53-.265.66.66 0 01.53.265l3.074 3.681a.656.656 0 010 .397v26.137a.664.664 0 01-.557.662zm12.8 0h-6.121a.687.687 0 01-.689-.662v-26.137a.53.53 0 01.159-.397l3.047-3.681a.692.692 0 01.845-.195.692.692 0 01.241.195l3.074 3.681a.663.663 0 01.133.397v26.137a.693.693 0 01-.689.662zm12.798 0h-6.121a.693.693 0 01-.689-.662v-26.137a.531.531 0 01.159-.397l3.047-3.681a.702.702 0 01.544-.265.69.69 0 01.543.265l3.047 3.681a.53.53 0 01.159.397v26.137a.688.688 0 01-.689.662zm12.798 0h-6.121a.663.663 0 01-.689-.662v-26.137c0-.143.047-.282.133-.397l3.074-3.681a.692.692 0 01.845-.195.692.692 0 01.241.195l3.047 3.681a.53.53 0 01.159.397v26.137a.69.69 0 01-.689.662zm12.799 0h-6.147a.666.666 0 01-.663-.662v-26.137c0-.143.047-.282.133-.397l3.074-3.681a.657.657 0 01.529-.265.665.665 0 01.53.265l3.074 3.681a.656.656 0 010 .397v26.137a.663.663 0 01-.53.662zm12.772 0h-6.121a.666.666 0 01-.663-.662v-26.137a.534.534 0 010-.397l3.048-3.681a.692.692 0 01.845-.195.692.692 0 01.241.195l3.074 3.681a.662.662 0 01.132.397v26.137a.66.66 0 01-.556.662zm12.799 0h-6.121a.69.69 0 01-.689-.662v-26.137a.53.53 0 01.159-.397l3.047-3.681a.692.692 0 01.845-.195.692.692 0 01.241.195l3.074 3.681a.663.663 0 01.133.397v26.137a.693.693 0 01-.689.662zm12.798 0h-6.121a.693.693 0 01-.689-.662v-26.137a.531.531 0 01.159-.397l3.047-3.681a.702.702 0 01.544-.265.69.69 0 01.543.265l3.047 3.681a.53.53 0 01.159.397v26.137a.688.688 0 01-.689.662zm12.8 0h-6.121a.665.665 0 01-.689-.662v-26.137c0-.143.046-.282.132-.397l3.074-3.681a.692.692 0 01.845-.195.684.684 0 01.241.195l3.048 3.681a.542.542 0 01.159.397v26.137a.693.693 0 01-.689.662z" fill="#fff"/><path d="M900.092 467.592H102.497v2.648h797.595v-2.648z" fill="#133B53"/><path d="M193.306 126.548H330.54c-.663-2.436-4.266-10.724-22.63-7.547a11.517 11.517 0 004.108-10.592 5.99 5.99 0 00-1.59-3.151 7.518 7.518 0 00-2.65-1.615c-7.234-2.649-19.9 7.361-19.9 7.361 15.501-24.362-26.79-34.584-27.081-3.76 0 0-6.201-11.069-12.985-7.944-2.649 1.562-1.06 6.302.186 8.394-19.821-9.612-37.839-3.707-29.44 7.256-19.608.344-25.252 11.598-25.252 11.598z" fill="#fff"/></svg>