<svg width="509" height="761" fill="none" xmlns="http://www.w3.org/2000/svg"><g filter="url(#filter0_d)"><path d="M152.481 55.418l7.692 1.868 22.463-19.356 3.718-15.28s12.072 2.155 5.807 21.936c-6.265 19.78-3.515 15.026-3.515 15.026s25.248 6.197 26.81 8.914c1.137 1.953-4.245 27.166-7.267 40.885-1.528 6.894-7.267 12.242-14.025 12.327a12.834 12.834 0 01-2.818-.289C185.047 119.921 154.094 107 154.094 107l-13.294-3.209 11.681-48.373zm-21.02-9.542l-7.997 53.789 13.175 3.192 12.48-51.599-17.658-5.382zm178.47-4.826l5.008-1.698 5.756-19.016-3.396-10.017s7.607-3.142 11.173 10.306c3.565 13.447 3.344 9.729 3.344 9.729s16.504-5.553 18.372-4.585c1.341.696 7.385 16.98 10.577 25.757a10.19 10.19 0 01-3.48 12.021c-.53.351-1.1.636-1.698.85-4.126 1.391-26.283 5.212-26.283 5.212l-8.677 2.971-10.696-31.53zm-15.332 2.157l14.805 33.312 8.608-2.937-11.477-33.67-11.936 3.295zm118.242 106.832l2.321 2.558 12.887-1.506 5.115-4.642s3.862 3.737-3.262 9.374c-7.125 5.638-4.956 4.537-4.956 4.537s7.623 8.437 7.53 9.808c-.067.984-8.244 8.845-12.67 13.042a6.652 6.652 0 01-8.105 1.047 5.14 5.14 0 01-.951-.796c-1.908-2.108-9.966-14.383-9.966-14.383l-4.039-4.421 16.096-14.618zm-5.284-8.62l-16.094 17.542 4.001 4.39 17.174-15.642-5.081-6.29zm-2.595 502.649l-27.846 79.869h13.923l48.729-79.869h-34.806zm-49.678-499.184a5.419 5.419 0 01-6.473 5.312 5.415 5.415 0 011.056-10.728 5.394 5.394 0 015.417 5.416zM244.418 41.459a5.417 5.417 0 11-5.416-5.417 5.404 5.404 0 015.009 3.341c.271.658.41 1.364.407 2.076zm182.296 180.064a5.418 5.418 0 01-6.473 5.312 5.418 5.418 0 011.057-10.729 5.416 5.416 0 015.416 5.417zm14.882 133.932a5.422 5.422 0 01-3.343 5.004 5.418 5.418 0 11-2.073-10.421 5.417 5.417 0 015.416 5.417zM197.543 236.404a5.419 5.419 0 01-6.473 5.312 5.422 5.422 0 01-2.774-1.482 5.423 5.423 0 01-1.174-5.903 5.416 5.416 0 0110.421 2.073z" fill="#fff"/><path d="M342.683 241.992c-4.466 11.121-4.33 34.094 3.107 43.5 3.871 4.907 9.135 8.812 11.885 14.449 3.617 7.369 2.072 16.537-2.445 23.38-4.516 6.842-11.63 11.63-19.118 14.992-8.337 3.752-18.541 5.841-26.317 1.019-5.943-3.668-9.101-10.544-11.003-17.268-5.314-18.812-3.395-39.051 2.157-57.864 5.552-18.812 14.534-36.3 23.465-53.704" fill="#000"/><path d="M367.456 397.841l39.798-24.297s-30.171-58.237-34.772-60.326c-4.602-2.088-65.556-11.104-65.556-11.104-18.558 29.187-41.785 22.073-65.199 2.53-2.088.408-38.932 8.812-48.559 10.069-9.627 1.256-37.354 45.435-37.354 45.435l31.462 54.995 2.377 56.981s1.698 40.528-4.941 61.446l166.75 5.416a213.939 213.939 0 01-3.837-26.334c-.629-7.08-2.564-14.143-1.104-23.244 4.669-28.745 20.935-91.567 20.935-91.567z" fill="#8CBF43"/><path d="M175.356 331.997c2.496 8.388 23.771 20.816 31.225 16.164 2.377-1.477 4.397-3.684 7.131-4.211 3.395-.679 6.689 1.495 10 2.598 7.76 2.564 17.743-.305 23.346 5.654 2.751 2.937 4.517 7.929 8.49 7.81a19.52 19.52 0 004.159-1.171c4.517-1.104 8.88 2.343 13.584 2.666 2.429.02 4.843-.388 7.131-1.206l33.261-9.763c2.428-.696 5.094-1.698 6.147-3.956a17.93 17.93 0 01-12.157-.509 35.69 35.69 0 00-6.52-2.734c-5.875-1.205-11.223 3.396-17.064 4.839-6.146 1.443-12.479-.866-18.371-3.124l-30.171-11.597c-8.32-3.192-16.844-6.519-23.465-12.479-2.089-1.885-9.984 2.088-12.463.713a78.6 78.6 0 01-8.167-6.333c-.526-.374-5.093 3.752-7.114 5.926-2.02 2.173-8.982 10.713-8.982 10.713zm14.365 140.195c7.386-3.124 20.103-8.048 27.998-9.525a54.014 54.014 0 0117.709-.883c2.937.424 5.977 1.222 8.829.373 2.852-.849 4.771-2.92 7.284-4.159 7.216-3.566 15.841.866 23.77-.17a8.004 8.004 0 005.264-2.462 3.94 3.94 0 00-.102-5.365 5.631 5.631 0 00-3.192-1.036 73.393 73.393 0 00-11.427.153l-6.112.39a23.384 23.384 0 01-7.624-.339 49.116 49.116 0 01-6.961-3.124c-8.167-3.6-17.573-1.987-26.419-.748-4.38.86-8.881.906-13.278.136a15.64 15.64 0 00-4.55-.781c-2.581.153-4.771 2.072-7.335 2.496-2.564.425-2.717-4.499-5.094-5.094l1.24 30.138zm162.369-76.354a9.375 9.375 0 01-2.972 1.273c-4.805.662-7.759-7.793-12.36-6.248-1.8.594-2.938 2.649-4.822 2.869-1.885.221-3.634-1.901-5.552-2.767-3.396-1.528-7.25 1.222-11.003 1.528-4.244.322-9.219-2.326-12.377.526-1.24 1.104-1.953 2.954-3.566 3.396-1.613.441-3.005-.662-4.516-1.121-4.601-1.375-8.846 3.073-13.583 3.888-5.382.934-11.885-2.716-15.926.9-1.461 1.274-2.36 3.396-4.211 3.889-1.851.492-3.532-.578-5.331-.595-4.143 0-7.947 5.467-11.444 3.226a4.905 4.905 0 004.448 3.481 23.941 23.941 0 005.994-.509c11.732-1.444 23.651 6.197 35.027 2.988 3.124-.9 6.079-2.581 9.322-2.819 6.061-.441 11.579 4.279 17.658 4.058 4.737-.186 9.134-3.395 13.854-2.818 4.72.577 8.354 4.805 12.768 6.893 5.281 2.513 11.461 1.698 17.268 1.002l1.698-.391a116.44 116.44 0 005.824-23.074 18.344 18.344 0 00-16.198.425zm-13.669 101.618a12.377 12.377 0 00-6.333 2.564 10.372 10.372 0 01-6.435 2.207c-4.16-.441-7.912-5.569-11.546-3.498a20.423 20.423 0 00-2.564 2.31c-2.547 2.088-6.604 1.511-9.032 3.735-1.257 1.138-1.936 2.937-3.481 3.667-2.904 1.359-5.654-2.003-8.591-3.311-4.585-2.054-9.797 1.121-14.823 1.036-2.547 0-5.246-.934-7.573.119a25.23 25.23 0 00-3.395 2.411c-3.838 2.564-8.999 1.375-13.295-.34-4.295-1.714-8.778-3.871-13.311-2.971-1.257.255-2.683 1.036-2.666 2.326.052.494.227.967.509 1.376 2.7 4.414 7.828 6.689 12.803 8.132 5.45 1.562 11.206 2.496 16.045 5.451 3.073 1.85 6.316 4.618 9.779 3.667 2.734-.747 4.432-3.599 7.064-4.618 3.752-1.443 8.183 1.171 11.885-.374 1.239-.509 2.258-1.46 3.531-1.918 3.26-1.189 6.928 1.205 10.324.424a16.087 16.087 0 013.599-.934c3.243 0 5.348 4.466 8.49 4.024 1.986-.254 3.395-2.343 5.297-2.699 2.581-.493 5.535 2.139 7.623.543.476-.357.866-.934 1.461-.985.594-.051 1.341.832 1.85 1.494 2.275 3.04 9.288 1.087 12.819-.288l-2.309-20.375c.153-2.615-5.416-3.175-7.725-3.175z" fill="#fff"/><path opacity=".3" d="M195.374 332.71c-3.158 9.984-4.414 20.918-1.256 30.902a117.118 117.118 0 005.824 13.311 98.075 98.075 0 018.489 48.305 2.768 2.768 0 00.221 1.698c.662 1.103 2.343.696 3.514.153l7.522-3.396c3.26 2.649 3.735 7.895 7.352 10.034 3.616 2.14 8.608-.254 12.191-2.869 7.895-5.79 15.4-12.513 19.984-21.173a82.496 82.496 0 006.384-19.05c1.426-5.756 2.852-11.512 3.735-17.369a97.764 97.764 0 00-14.194-66.727" fill="#000"/><path d="M354.806 341.657c.153.28.272.576.356.883.238.68.527 1.545.9 2.598a2404.37 2404.37 0 003.107 9.593l4.466 14.245a110.234 110.234 0 014.295 17.862 55.552 55.552 0 01-.9 18.337 97.549 97.549 0 01-4.278 14.381 191.405 191.405 0 01-3.803 9.356l-1.138 2.496a3.381 3.381 0 01-.442.849c.053-.318.15-.627.289-.917l.968-2.564c.849-2.224 2.122-5.433 3.549-9.423a108.408 108.408 0 004.057-14.33 56.008 56.008 0 00.815-18.083 113.104 113.104 0 00-4.193-17.726l-4.313-14.296-2.852-9.678c-.289-1.07-.527-1.936-.73-2.649a3.362 3.362 0 01-.153-.934z" fill="#000"/><path opacity=".3" d="M369.493 391.865a40.07 40.07 0 00-.832-24.976 95.713 95.713 0 00-11.817-22.429c2.343 16.062 9.695 31.173 11.155 47.354M233.934 494.722a66.794 66.794 0 0127.828-21.682 131.495 131.495 0 0134.467-9.049c4.669-.68 9.746-1.172 13.838 1.205 4.092 2.377 6.027 8.761 2.462 11.885a11.137 11.137 0 01-6.792 2.004c-16.333 1.188-33.601 1.239-47.71 9.542-5.586 3.294-10.544 7.81-16.725 9.797-2.784.9-6.927.39-7.216-2.53" fill="#000"/><path d="M317.198 461.801a4.586 4.586 0 01-.985.085h-4.873l-2.411.152c-1.698.136-3.735.204-5.892.527l-3.395.424c-1.189.17-2.411.425-3.668.645-2.547.408-5.212 1.104-8.031 1.698a134.958 134.958 0 00-17.794 6.164 151.758 151.758 0 00-16.741 8.608c-2.479 1.511-4.839 2.937-6.961 4.414-2.123 1.477-4.109 2.802-5.875 4.092a151.805 151.805 0 00-4.72 3.566c-1.324 1.053-2.564 2.003-3.515 2.784l-2.207 1.698c-.24.221-.509.41-.798.561 0 0 .221-.255.679-.697l2.106-1.901a80.138 80.138 0 013.395-2.904c1.342-1.086 2.887-2.394 4.67-3.684 1.782-1.29 3.684-2.785 5.84-4.211 2.157-1.426 4.466-2.954 6.945-4.499a143.42 143.42 0 0116.826-8.727 128.49 128.49 0 0117.929-6.147c2.836-.628 5.535-1.324 8.099-1.698 1.274-.203 2.513-.458 3.702-.611l3.395-.373c2.191-.289 4.177-.306 5.926-.391.883 0 1.698-.085 2.445-.085h2.037l2.836.102c.363.084.712.222 1.036.408z" fill="#000"/><path opacity=".3" d="M179.465 371.371c-4.312 5.994-4.805 14.076-3.039 21.241 1.766 7.165 5.586 13.583 9.338 20.001.51-6.365.017-12.77-1.46-18.982-1.698-7.437-4.958-14.687-4.941-22.328" fill="#000"/><path d="M300.423 141.8c.102-5.417 6.282-9.254 11.63-8.354 5.349.9 9.509 5.264 12.022 10.069 2.512 4.805 3.701 10.187 5.586 15.281 5.093 13.583 15.094 25.281 18.676 39.408a59.79 59.79 0 01-.917 30.358 135.952 135.952 0 01-12.004 28.185 103.87 103.87 0 00-7.912 16.809 29.392 29.392 0 00-.543 18.269c.377.752.462 1.617.238 2.428-.544 1.172-2.174 1.222-3.396.9-6.231-1.596-10.561-7.726-11.631-14.076-1.069-6.35.578-12.836 2.836-18.863 2.258-6.028 5.212-11.885 6.893-18.015 3.668-13.583 1.121-27.981.476-42.056-.357-7.93-.102-15.944-1.698-23.771-1.596-7.827-5.281-15.518-11.885-19.95-2.564-1.698-5.519-2.954-7.675-5.094-2.156-2.139-3.243-5.976-1.29-8.37" fill="#000"/><path d="M305.992 299.364s-.17-8.218-.17-8.133c0 .085 24.314-4.635 28.626-36.607 2.14-15.892.73-41.852-1.103-63.059-1.698-19.067-14.874-42.226-33.958-39.765l-59.019 16.351c-5.773.747-7.657 5.688-7.419 11.512l-.408 2.733 4.924 91.16 1.698 15.281c.866 17.318 15.943 35.656 34.518 36.131 17.913.883 32.565-6.503 32.311-25.604z" fill="#FFBE9D"/><path d="M322.461 212.058a4.076 4.076 0 01-3.837 4.211 3.905 3.905 0 01-4.228-3.498 4.076 4.076 0 013.837-4.211 3.908 3.908 0 014.228 3.498zm5.399-6.078c-.492.543-3.633-1.698-8.031-1.562-4.397.136-7.572 2.394-8.065 1.868-.238-.238.255-1.206 1.698-2.276a11.16 11.16 0 016.418-2.139 10.712 10.712 0 016.418 1.902c1.324 1.035 1.817 1.986 1.562 2.207zm-42.769 8.252c-.493.543-3.651-1.698-8.048-1.545-4.398.152-7.556 2.377-8.048 1.85-.238-.22.237-1.205 1.698-2.258a11.198 11.198 0 016.435-2.156 10.92 10.92 0 016.418 1.901c1.29 1.019 1.782 1.97 1.545 2.208zm16.469 24.959c0-.238 2.7-.781 7.114-1.443 1.121-.153 2.174-.391 2.343-1.172a5.781 5.781 0 00-.832-3.396l-3.514-8.489c-4.907-12.072-8.49-22.073-7.98-22.191.509-.119 4.839 9.423 9.746 21.495a980.743 980.743 0 003.395 8.489 6.382 6.382 0 01.68 4.381 2.825 2.825 0 01-1.8 1.698 8.625 8.625 0 01-1.902.305c-4.465.493-7.233.578-7.25.323z" fill="#000"/><path d="M305.907 291.146a81.056 81.056 0 01-42.923-10.374s11.291 22.225 43.093 18.507l-.17-8.133z" fill="#EB996E"/><path d="M284.921 203.111c-.509 1.171-4.856.322-10.034.628-5.179.305-9.441 1.443-10.052.339-.288-.526.51-1.613 2.258-2.665a16.78 16.78 0 017.573-2.123c2.655-.163 5.31.314 7.742 1.393 1.851.883 2.734 1.901 2.513 2.428zm42.277-10.714c-.883 1.019-4.499 0-8.812.119s-7.929.866-8.795-.153c-.391-.509.17-1.511 1.698-2.496a13.924 13.924 0 017.131-1.817c2.478-.03 4.918.609 7.063 1.851 1.579 1.036 2.105 2.054 1.715 2.496z" fill="#000"/><path d="M298.283 248.427a7.24 7.24 0 00-5.484-2.751 8.615 8.615 0 00-6.316 3.023l-.102.101c0 .085-.17.153-.237.238h.101a4.088 4.088 0 00-1.086 2.377 6.112 6.112 0 002.614 5.094 7.7 7.7 0 004.378 1.576 7.683 7.683 0 004.485-1.237 6.28 6.28 0 001.647-8.421z" fill="#EB996E"/><path d="M286.874 244.165c.255 0 .458 1.019 1.154 2.462a10.192 10.192 0 009.899 5.909c1.613 0 2.615-.374 2.717-.153.102.221-.781.934-2.547 1.324a9.558 9.558 0 01-11.172-6.655c-.493-1.766-.255-2.887-.051-2.887zm19.864-91.94a9.931 9.931 0 00.632 4.724 9.926 9.926 0 002.764 3.884 47.898 47.898 0 007.997 5.399c8.49 5.297 12.683 16.877 16.656 26.063 6.996-13.329-3.769-30.562-12.649-41.004a19.106 19.106 0 00-5.484-4.737 8.07 8.07 0 00-7.114-.425" fill="#000"/><path d="M334.873 258.614c.082-.408.207-.807.374-1.188.305-.832.713-1.936 1.205-3.311.985-2.887 2.411-7.08 3.684-12.412a119.172 119.172 0 002.327-42.447 95.055 95.055 0 00-5.502-22.735 40.152 40.152 0 00-10.679-15.62 28.88 28.88 0 00-11.189-6.147 45.348 45.348 0 00-4.653-.865 5.712 5.712 0 011.24 0c1.178.09 2.347.272 3.497.543a27.864 27.864 0 0111.512 5.993 40.184 40.184 0 0110.952 15.791 93.424 93.424 0 015.62 22.972 115.198 115.198 0 01-2.581 42.617 113.832 113.832 0 01-3.973 12.395 93.772 93.772 0 01-1.359 3.243 6.039 6.039 0 01-.475 1.171z" fill="#000"/><path d="M337.742 281.468a1.582 1.582 0 01-.153-.374l-.373-1.137a21.88 21.88 0 01-.73-4.483 32.884 32.884 0 013.82-16.198c3.005-6.468 8.489-12.954 13.753-20.578a52.463 52.463 0 006.655-12.836 39.502 39.502 0 00-2.394-30.069 57.885 57.885 0 00-8.489-11.75c-6.231-6.876-12.463-12.598-16.554-18.422a38.502 38.502 0 01-6.996-15.145 19.896 19.896 0 01-.407-6.112c.107 2.029.356 4.049.747 6.044a39.355 39.355 0 007.216 14.823c4.092 5.704 10.34 11.341 16.656 18.235a58.077 58.077 0 018.608 11.885 40.149 40.149 0 012.428 30.8 52.302 52.302 0 01-6.791 13.023c-5.331 7.657-10.816 14.058-13.855 20.374a33.49 33.49 0 00-4.041 15.892 30.02 30.02 0 00.9 6.028zm-36.131-145.934c-5.45-3.871-12.48-4.737-19.169-4.635-17.981.255-36.25 7.131-48.305 20.511-10.187 11.274-25.129 32.956-27.964 47.846-6.911 36.25 15.994 46.403-2.666 102.994-3.396 10.187-7.606 20.154-9.678 30.698a53.326 53.326 0 00-1.036 11.393c-2.19 6.638-.849 14.279 1.851 20.867 3.158 7.742 8.014 14.703 11.053 22.497 3.04 7.793 9.712 20.578 5.264 27.641 6.299-1.698 6.52-8.252 11.511-12.445a32.814 32.814 0 01-.135 17.148 35.82 35.82 0 0021.155-8.795c11.648-10.187 15.281-26.741 17.098-42.158 3.905-33.72.085-66.031-8.846-98.766l-.17.169c-6.486-20.934-18.795-40.273-7.742-44.875 19.237-8.031 1.698-16.486 8.999-36.725 2.292-6.316 4.839-13.006 10.187-16.979 6.418-4.788 15.094-4.533 23.091-4.975 7.997-.441 17.064-2.546 20.816-9.61l.493-4.244c2.903-6.096-.357-13.685-5.807-17.557z" fill="#000"/><path d="M214.781 269.549a7.245 7.245 0 001.393-1.427 8.713 8.713 0 001.086-5.552c-.543-5.093-3.073-11.885-6.384-20.374a81.303 81.303 0 01-4.312-14.229 30.765 30.765 0 0112.785-31.75c5.416-3.905 12.819-4.499 17.352-9.797 4.652-5.094 6.792-11.647 8.761-17.794a77.364 77.364 0 013.396-9.032 45.933 45.933 0 014.754-7.947 46.443 46.443 0 0112.496-11.596 28.866 28.866 0 017.03-3.396 20.378 20.378 0 017.131-.832 37.98 37.98 0 0111.885 2.954 90.188 90.188 0 018.489 3.804 12.88 12.88 0 014.466 3.769c.373.583.643 1.227.798 1.902a15.153 15.153 0 00-1.036-1.698 13.189 13.189 0 00-4.482-3.566c-2.241-1.171-5.094-2.326-8.49-3.65a37.918 37.918 0 00-11.749-2.785 19.551 19.551 0 00-6.91.866 28.742 28.742 0 00-6.792 3.294 45.852 45.852 0 00-16.877 19.305 82.106 82.106 0 00-3.396 8.948c-2.003 6.129-4.092 12.87-8.931 18.116a22.47 22.47 0 01-8.659 5.654 43.08 43.08 0 00-8.846 4.279 30.008 30.008 0 00-12.547 30.885 80.75 80.75 0 004.177 14.143c3.226 8.489 5.687 15.434 6.129 20.561a8.59 8.59 0 01-1.274 5.671c-.308.414-.68.775-1.103 1.07l-.34.204z" fill="#000"/><path d="M242.813 228.375c-.475-6.792-7.963-11.138-13.753-7.624-3.192 1.936-5.586 5.739-5.093 12.938 1.205 19.169 20.205 14.008 20.205 13.448 0-.561-.781-10.833-1.359-18.762z" fill="#FFBE9D"/><path d="M237.822 240.243c-.085 0-.323.255-.866.543a3.398 3.398 0 01-2.496.221c-2.072-.628-3.973-3.735-4.279-7.182-.158-1.64.057-3.294.628-4.839a3.835 3.835 0 012.343-2.717 1.697 1.697 0 012.038.781c.288.527.187.917.288.934.102.017.391-.339.187-1.12a2.169 2.169 0 00-.815-1.155 2.58 2.58 0 00-1.884-.373 4.743 4.743 0 00-3.311 3.192 11.29 11.29 0 00-.815 5.416c.356 3.854 2.563 7.352 5.382 7.98a3.656 3.656 0 003.022-.696c.578-.527.645-.951.578-.985z" fill="#EB996E"/><path d="M245.122 253.334s.136.373 0 1.053a4.296 4.296 0 01-1.698 2.36 4.848 4.848 0 01-4.313.492 6.35 6.35 0 01-3.837-3.718 8.983 8.983 0 011.698-9.101 4.841 4.841 0 013.396-1.902 10.18 10.18 0 00-2.92 2.31 8.841 8.841 0 00-1.698 3.599 8.39 8.39 0 00.339 4.754 5.605 5.605 0 003.243 3.277 4.115 4.115 0 003.685-.255 4.282 4.282 0 001.698-1.918c.305-.594.339-.968.407-.951z" fill="#fff"/><path d="M303.004 155.162a27.113 27.113 0 00-4.058-3.396 22.073 22.073 0 00-13.889-2.92 25.831 25.831 0 00-9.491 2.801 36.14 36.14 0 00-9.016 6.996 60.239 60.239 0 00-7.657 10.187c-2.344 3.752-4.449 7.827-6.639 12.004-2.191 4.177-4.398 8.235-6.792 11.885a57.257 57.257 0 01-8.167 9.95c-2.92 2.869-5.823 5.433-8.336 8.031a37.51 37.51 0 00-6.079 7.912 20.377 20.377 0 00-2.428 13.94 16.247 16.247 0 002.106 4.856 9.96 9.96 0 01-.849-1.104 12.736 12.736 0 01-1.579-3.667 20.375 20.375 0 012.207-14.314 36.403 36.403 0 016.095-8.115c2.513-2.666 5.417-5.247 8.303-8.116a58.677 58.677 0 008.014-9.848c2.428-3.701 4.601-7.742 6.792-11.885 2.19-4.143 4.312-8.252 6.672-12.038a61.834 61.834 0 017.811-10.188 36.235 36.235 0 019.27-7.08 26.583 26.583 0 019.695-2.801 22.067 22.067 0 0114.126 3.192 16.38 16.38 0 013.006 2.631c.322.339.617.702.883 1.087z" fill="#000"/><path d="M158.53 362.712l3.566-17.216-32.769-14.975-.849 2.818c-4.686 15.604-28.049 90.803-29.476 96.423-5.28 20.867-4.108 62.16 4.228 69.885 6.656 6.18 19.441 10.731 27.897 9.797 8.455-.934 31.75-30.936 31.75-30.936l21.393-68.492-25.74-47.304z" fill="#FFBE9D"/><path d="M159.974 352.474a8.537 8.537 0 01-.153 1.324c-.17.951-.374 2.207-.645 3.804-.612 3.395-1.461 8.098-2.496 13.905-1.036 5.807-2.292 12.87-3.396 20.68a198.802 198.802 0 00-1.987 25.469 106.884 106.884 0 002.87 25.349c1.868 7.641 3.565 14.67 3.396 20.731a27.337 27.337 0 01-3.532 13.583 14.041 14.041 0 01-3.294 4.007 24.667 24.667 0 006.197-17.675c.102-5.942-1.697-12.87-3.548-20.51a104.049 104.049 0 01-2.971-25.553c.113-8.577.805-17.137 2.071-25.621 1.104-7.828 2.411-14.823 3.532-20.681 1.12-5.857 2.105-10.492 2.784-13.854.34-1.579.594-2.819.798-3.77.094-.405.218-.802.374-1.188z" fill="#EB996E"/><path d="M193.847 317.022l-6.35-7.03v-8.353l-6.605-9.474-13.091 2.105-4.024.34 2.683-19.187a79.874 79.874 0 015.908-14.211c4.687-9.372-2.852-13.668-2.852-13.668l-14.092 24.654-4.687 16.384-2.003-13.362s2.377-13.006 2.037-19.696c-.339-6.689-7.063-5.739-7.063-5.739l-5.348 29.442v14.72l-4.686-8.71s-1.002-7.352-1.698-14.041c-.696-6.69-6.028-4.686-6.028-4.686v21.75l6.028 20.069s-3.956 25.892-4.619 26.894l31.004 21.699s6.791-5.094 8.099-5.45c1.307-.357 18.065-12.717 18.065-12.717l11.699-12.378s2.003-1.341 2.003-2.666c0-1.324-4.38-6.689-4.38-6.689zm-16.045 8.014l-6.69-3.006-3.65-9.083 2.716-4.958.968-1.698 1.222-.849 4.449.849s2.02 6.367 1.698 9.372c-.323 3.006 3.684 6.011 3.684 6.011l-4.397 3.362z" fill="#FFBE9D"/><path d="M172.369 305.459c0 .102-.612.153-1.545-.136a6.788 6.788 0 01-4.534-5.535c-.119-.967 0-1.545.17-1.528a13.459 13.459 0 002.004 4.381 13.853 13.853 0 003.905 2.818zm17.215 17.336a18.236 18.236 0 010-4.873 19.785 19.785 0 01.408-4.873c.532 1.607.689 3.314.458 4.991a10.837 10.837 0 01-.866 4.755zm-10.323 12.649s-.849-.544-1.8-1.834a8.595 8.595 0 01-1.698-6.028 3.774 3.774 0 01.832-1.782c.391-.425.798-.815 1.189-1.172a25.262 25.262 0 012.173-1.698c1.274-.917 2.207-1.341 2.275-1.205a15.25 15.25 0 01-1.884 1.698 34.563 34.563 0 00-2.004 1.833c-.384.364-.746.75-1.087 1.155a2.703 2.703 0 00-.611 1.358 7.055 7.055 0 00.306 3.107c.264.85.629 1.665 1.086 2.428.481.669.891 1.386 1.223 2.14zm8.287-26.3a10.442 10.442 0 01-2.224 6.893 5.95 5.95 0 01-2.292 1.902 3.823 3.823 0 01-2.445.237c-1.444-.373-1.817-1.341-1.698-1.358.119-.017.611.594 1.816.747a3.64 3.64 0 002.004-.356 5.793 5.793 0 001.919-1.698 32.27 32.27 0 002.92-6.367zm-8.983 6.061c-.204 0-.697-2.955-1.698-6.571a36.898 36.898 0 01-.883-4.754c-.119-1.24 0-2.021.085-2.021s.254.73.543 1.919c.39 1.698.747 3.107 1.121 4.652.967 3.634 1.086 6.775.832 6.775z" fill="#EB996E"/><path d="M189.585 324.832a15.469 15.469 0 01-7.624-2.717 9.398 9.398 0 01-2.479-2.088 6.007 6.007 0 01-1.137-2.428 3.493 3.493 0 01.135-2.394c.153 0 0 .917.476 2.241a7.147 7.147 0 003.396 3.905c3.803 2.343 7.301 3.158 7.233 3.481zm-27.574 7.402a33.111 33.111 0 00-17.556-15.094 9.519 9.519 0 013.396.883 25.473 25.473 0 0112.751 10.968 9.693 9.693 0 011.409 3.243zm-11.206-31.173c0 .272-2.445.476-5.281 1.461-2.835.984-4.89 2.326-5.093 2.122a9.449 9.449 0 014.754-2.954 9.711 9.711 0 015.62-.629z" fill="#EB996E"/><path d="M204.543 673.884s-99.19 27.454-103.18 28.864c-5.977 2.105-4.958 24.008 4.329 23.668 4.398-.17 76.201 2.666 85.268 2.106 9.067-.561 33.482-10.188 33.482-10.188l-19.899-44.45z" fill="#000"/><path d="M163.285 711.729c-.509 0-1.172-5.178-4.381-10.645-3.209-5.468-7.318-8.745-7.012-9.135.306-.391 5.094 2.411 8.49 8.303 3.395 5.891 3.259 11.528 2.903 11.477zm10.288-4.686c-.492.085-1.494-4.601-4.143-9.78-2.648-5.178-5.756-8.812-5.399-9.151.357-.34 4.143 2.92 6.893 8.489 2.751 5.569 3.074 10.408 2.649 10.442zm9.696-2.597c-.493 0-.119-4.992-2.326-10.476-2.208-5.484-5.739-8.914-5.4-9.288.34-.373 4.653 2.7 6.962 8.676 2.309 5.977 1.154 11.224.764 11.088z" fill="#000"/><path d="M181.503 691.576c-.17 0-1.053-2.717-1.053-7.369.013-2.73.349-5.448 1.002-8.099a32.687 32.687 0 011.477-4.601 5.534 5.534 0 011.579-2.428 2.647 2.647 0 013.396.169 4.28 4.28 0 011.324 2.802c.103.868.148 1.741.136 2.615a22.088 22.088 0 01-.628 4.856 29.43 29.43 0 01-3.039 7.589c-2.326 4.024-4.313 6.079-4.466 5.977-.153-.102 1.443-2.479 3.396-6.52a32.325 32.325 0 002.615-7.386c.316-1.485.475-2.998.475-4.516 0-1.528 0-3.396-.917-4.177a.95.95 0 00-1.307-.102 4.106 4.106 0 00-1.087 1.698 34.531 34.531 0 00-1.511 4.38 39.613 39.613 0 00-1.307 7.743c-.255 4.584.187 7.369-.085 7.369z" fill="#000"/><path d="M181.639 690.625c0-.187 2.343-1.002 6.401-1.036 2.37-.004 4.731.287 7.029.866 1.417.303 2.783.806 4.058 1.494a4.162 4.162 0 012.241 4.534 4.963 4.963 0 01-3.582 3.531 9.15 9.15 0 01-4.449 0 16.973 16.973 0 01-6.435-3.175 17.406 17.406 0 01-4.618-4.533c.17-.221 2.054 1.409 5.28 3.565a17.474 17.474 0 006.096 2.632 7.657 7.657 0 003.667 0 3.396 3.396 0 002.428-2.343 2.598 2.598 0 00-1.477-2.785 15.394 15.394 0 00-3.6-1.392 34.496 34.496 0 00-6.689-1.171c-3.888-.323-6.316.085-6.35-.187zm-33.635 22.174c-.493 0 0-4.296-1.953-8.948-1.952-4.652-5.178-7.386-4.856-7.776.323-.391 4.296 1.952 6.384 7.148 2.089 5.195.798 9.746.425 9.576zm69.205 4.567a20.192 20.192 0 01-3.837 1.817 86.743 86.743 0 01-11.053 3.396c-9.475 2.394-23.007 3.752-37.863 3.599-14.857-.153-28.27-.849-37.982-1.239l-11.495-.612a19.789 19.789 0 01-4.21-.441 19.8 19.8 0 014.227-.204l11.512.085 37.948.747a177.6 177.6 0 0037.608-3.073c9.491-1.936 15.026-4.397 15.145-4.075z" fill="#000"/><path d="M220.129 719.641c-.136.221-2.835-1.358-7.42-3.395a34.609 34.609 0 00-18.778-3.107c-7.471 1.137-12.768 6.163-16.232 9.644-3.464 3.48-5.518 6.01-5.705 5.84a30.73 30.73 0 014.856-6.638 38.317 38.317 0 016.571-6.147 23.604 23.604 0 0110.187-4.346 32.735 32.735 0 0119.526 3.701c4.618 2.343 7.097 4.279 6.995 4.448zm-99.513 4.279c-.17-.119.662-1.426 1.443-3.735a18.147 18.147 0 00-3.276-17.777c-1.563-1.885-2.819-2.818-2.683-2.988.136-.17 1.562.526 3.396 2.343a16.983 16.983 0 013.395 18.761c-1.001 2.361-2.156 3.498-2.275 3.396z" fill="#000"/><path d="M194.882 533.757l-17.811 43.907s-88.595-32.412-140.449-22.972c-19.712 3.599-40.75 48.339-12.089 77.067 28.032 28.032 78.103 67.644 172.2 80.48 2.343.322 40.868 8.591 38.491 8.302-2.377-.288 54.01 8.643 54.01 8.643l13.277-50.037 105.048 16.486c61.905-4.227 92.196-70.428 54.927-91.686-34.79-19.882-100.175-21.478-100.175-21.478l-16.062-43.771-151.367-4.941z" fill="#000"/><path d="M291.322 731l2.547-15.604c.849-4.991 1.868-11.07 3.192-18.065.679-3.498 1.409-7.233 2.309-11.155.442-1.97.934-3.973 1.494-6.028.306-1.018.612-2.054.985-3.09a9.125 9.125 0 011.596-3.09l.153.764c-22.361-7.946-50.308-18.422-80.106-30.986-18.32-7.794-35.656-15.655-50.801-23.856a163.921 163.921 0 01-20.833-12.921c-6.18-4.567-11.682-9.117-16.843-13.09-10.187-8.065-19.492-13.278-26.419-15.485a40.465 40.465 0 00-4.635-1.375c-1.116-.32-2.25-.57-3.396-.747l-2.14-.391a3.456 3.456 0 01-.73-.17c.249-.022.499-.022.747 0l2.174.289c1.179.137 2.347.352 3.497.645 1.587.329 3.152.754 4.687 1.274a61.744 61.744 0 0112.156 5.416 125.891 125.891 0 0114.602 9.864c5.213 3.94 10.748 8.49 16.979 12.972a166.685 166.685 0 0020.782 12.751c15.179 8.116 32.464 15.944 50.75 23.771 29.764 12.547 57.728 23.108 79.97 31.173l.612.221-.459.526a9.003 9.003 0 00-1.375 2.734c-.374 1.001-.679 2.02-.985 3.022a129.814 129.814 0 00-1.528 5.977 298.293 298.293 0 00-2.377 11.104 961.373 961.373 0 00-3.396 18.031c-.9 4.992-1.698 8.778-2.139 11.495-.255 1.324-.458 2.326-.628 3.005a6.619 6.619 0 01-.442 1.019z" fill="#000"/><path d="M442.043 609.941h-.56l-1.698-.271c-1.443-.187-3.531-.731-6.282-.985a120.23 120.23 0 00-23.295-.832 173.158 173.158 0 00-34.043 5.62 289.836 289.836 0 00-19.559 5.993c-6.707 2.326-13.583 4.992-20.562 7.794a188.718 188.718 0 01-20.952 6.91c-6.876 1.902-13.583 3.396-20.018 4.618-12.853 2.513-24.534 4.058-34.348 5.247-9.814 1.188-17.777 2.003-23.278 2.564l-6.333.628-1.698.136h-.577l.56-.119 1.698-.238 6.316-.832 23.227-2.92c9.797-1.308 21.445-2.938 34.247-5.484 6.401-1.257 13.09-2.768 19.933-4.67a191.405 191.405 0 0020.833-6.893c6.995-2.785 13.872-5.467 20.612-7.793a273.093 273.093 0 0119.662-5.96 169.597 169.597 0 0134.314-5.416c7.825-.402 15.67-.004 23.414 1.188 2.75.34 4.822.951 6.248 1.206l1.698.373c.153.023.302.069.441.136zm-161.825-18.015c0 .747-4.686 1.936-12.564 2.666a164.262 164.262 0 01-61.039-6.588c-7.539-2.377-11.885-4.567-11.716-5.28.493-1.579 19.102 3.396 42.447 5.807 23.346 2.411 42.736 1.731 42.872 3.395zm83.044-8.795c-1.103.408-2.239.72-3.396.934a47.031 47.031 0 00-4.058 1.052c-1.562.476-3.395.934-5.314 1.698a130.976 130.976 0 00-13.413 5.315 180.49 180.49 0 00-15.587 8.336 246.944 246.944 0 00-26.3 18.49 321.2 321.2 0 00-7.556 6.181 23.44 23.44 0 01-2.835 2.207 19.77 19.77 0 012.547-2.547 193.015 193.015 0 017.334-6.452 211.253 211.253 0 0126.233-18.847 166.164 166.164 0 0115.739-8.302 116.605 116.605 0 0113.583-5.094c1.97-.662 3.787-1.086 5.383-1.477s2.988-.713 4.125-.883a23.285 23.285 0 013.515-.611zm-98.477 44.145a25.945 25.945 0 01-6.232-1.782 134.245 134.245 0 01-14.211-6.418l-13.787-7.216a46.594 46.594 0 01-5.654-3.074 29.97 29.97 0 016.011 2.36c3.633 1.698 8.489 4.16 13.94 6.928 5.45 2.767 10.34 5.094 14.007 6.673 3.668 1.579 5.977 2.309 5.926 2.529z" fill="#000"/><path d="M274.36 536.338c.17 0-.136 4.041-.458 10.544-.323 6.503-.629 15.484-.476 25.468.153 9.984.73 18.915 1.274 25.383.543 6.469.95 10.476.781 10.51a12.705 12.705 0 01-.561-2.75c-.305-1.8-.662-4.398-1.018-7.641-.747-6.469-1.444-15.484-1.698-25.468-.255-9.984.271-19.016.815-25.468.271-3.26.543-5.875.781-7.675a14.35 14.35 0 01.56-2.903zm9.865 17.216c0 .102-.374.34-.917.985a6.142 6.142 0 00-1.392 3.209 6.006 6.006 0 001.358 4.754 5.582 5.582 0 008.069-.659 5.585 5.585 0 001.184-2.736 5.91 5.91 0 00-2.054-4.483 6.244 6.244 0 00-3.141-1.528c-.832-.119-1.325 0-1.342-.136-.017-.136.459-.288 1.376-.305a6.156 6.156 0 013.616 1.358 6.644 6.644 0 012.598 5.094 6.552 6.552 0 01-7.862 5.803 6.548 6.548 0 01-3.208-1.695 6.628 6.628 0 01-1.375-5.586 6.071 6.071 0 011.85-3.395 2.428 2.428 0 011.24-.68zm18.864 124.218s100.668 15.281 104.743 16.215c6.129 1.358 7.708 22.989-1.46 23.77-4.347.357-74.538 11.58-83.519 12.089-8.982.509-37.133-6.792-37.133-6.792l17.369-45.282z" fill="#000"/><path d="M348.133 710.099c.492 0 .543-5.229 3.039-10.985 2.496-5.756 6.163-9.44 5.824-9.797-.34-.357-4.737 2.971-7.335 9.152-2.598 6.18-1.936 11.783-1.528 11.63zm-10.713-3.395c.492 0 .916-4.704 2.903-10.188 1.986-5.484 4.635-9.321 4.245-9.61-.391-.288-3.736 3.396-5.79 9.05-2.055 5.654-1.783 10.782-1.358 10.748zm-9.831-1.409c.492-.085-.476-4.907 1.035-10.561 1.512-5.654 4.602-9.441 4.228-9.763-.373-.323-4.245 3.192-5.807 9.338-1.562 6.147.17 11.172.544 10.986z" fill="#000"/><path d="M327.809 692.51c.187 0 .713-2.802.17-7.386a33.946 33.946 0 00-1.936-7.828 32.688 32.688 0 00-1.986-4.346 5.652 5.652 0 00-1.851-2.207 2.63 2.63 0 00-3.396.577 4.317 4.317 0 00-.968 2.903c.01.864.072 1.725.187 2.581.21 1.607.603 3.186 1.172 4.703a29.035 29.035 0 003.888 7.097c2.751 3.685 4.958 5.468 5.094 5.332.135-.136-1.698-2.241-4.109-5.994a31.69 31.69 0 01-3.396-6.927 21.32 21.32 0 01-1.002-4.398c-.136-1.511-.39-3.395.408-4.21a.967.967 0 011.273-.255c.554.407.993.951 1.274 1.579a33.864 33.864 0 011.986 4.126 39.677 39.677 0 012.207 7.453c.832 4.381.713 7.183.985 7.2z" fill="#000"/><path d="M327.572 691.575c0-.186-2.428-.713-6.418-.254a27.787 27.787 0 00-6.792 1.698 15.258 15.258 0 00-3.803 1.952 4.122 4.122 0 00-1.698 4.72 4.948 4.948 0 003.922 3.056 9.145 9.145 0 004.364-.543 16.636 16.636 0 005.96-3.871 16.974 16.974 0 004.024-5.06c-.204-.187-1.851 1.698-4.772 4.143a17.545 17.545 0 01-5.67 3.311 7.963 7.963 0 01-3.617.373 3.292 3.292 0 01-2.649-2.037 2.515 2.515 0 011.121-2.886 15.542 15.542 0 013.396-1.8 32.765 32.765 0 016.435-1.936c3.752-.747 6.18-.645 6.197-.866zm35.655 17.777c.476-.119-.492-4.228.866-9.016 1.359-4.788 4.211-7.861 3.871-8.201-.339-.339-4.007 2.411-5.45 7.76-1.443 5.348.34 9.678.713 9.457zm-67.507 12.632a19.526 19.526 0 003.99 1.325 85.877 85.877 0 0011.24 2.071 156.353 156.353 0 0037.625-.934c14.585-1.918 27.675-4.16 37.167-5.671l11.223-1.952a22.683 22.683 0 004.075-.934 20.152 20.152 0 00-4.177.289l-11.291 1.443-37.218 5.195a175.202 175.202 0 01-37.353 1.393c-9.424-.798-15.145-2.53-15.281-2.225z" fill="#000"/><path d="M293.156 724.548c.17.221 2.649-1.698 6.911-4.177a34.093 34.093 0 0118.065-5.28c7.488.254 13.278 4.567 17.081 7.572a59.572 59.572 0 006.299 5.094c.136-.153-1.834-2.53-5.552-5.96a38.807 38.807 0 00-7.182-5.263 23.102 23.102 0 00-10.578-3.056 32.402 32.402 0 00-18.677 5.925 26.576 26.576 0 00-6.367 5.145z" fill="#000"/><path d="M360.749 425.007c-.374 2.479-1.698 69.613 2.326 75.709 6.299 9.678 26.606 26.996 39.238 22.259 20.477-7.691 25.112-51.038 24.755-42.99l-16.231-136.969H379.63l-2.598 49.12-9.101 5.552a90.274 90.274 0 01-3.396 16.843l-3.786 10.476z" fill="#FFBE9D"/><path d="M379.629 342.948s-12.462-12.326-12.462-15.06c0-2.733-4.873-4.262-4.873-4.262l-7.913-3.888s-5.093-4.856-3.956-7.589a7.203 7.203 0 013.396-3.651s.408-6.689 5.383-8.489c0 0-4.67-5.094 0-8.812 4.669-3.719 5.789-2.139 5.789-2.139s-.526-3.957 2.225-4.245c2.75-.289 22.276-5.179 22.276-5.179a39.048 39.048 0 017.827 5.179c2.428 2.428 3.65 3.939 3.65 3.939a29.41 29.41 0 004.856-9.118c1.223-4.567 3.057-18.252 16.742-17.641v3.396a37 37 0 00-5.485 13.379c-1.816 8.49-5.093 27.353-5.093 27.353l-1.036 36.98-31.326-.153z" fill="#FFBE9D"/><path d="M367.608 479.578a8.61 8.61 0 01-.272-1.376c-.136-.917-.407-2.241-.526-3.99a85.428 85.428 0 01-.221-14.788 178.932 178.932 0 012.937-21.75c1.478-8.116 3.396-16.979 4.975-26.352 2.921-18.795 3.294-36.063 3.769-48.525.221-6.163.391-11.189.527-14.755l.204-4.024c.01-.466.05-.931.118-1.392.044.469.044.94 0 1.409v4.007c0 3.583-.135 8.609-.237 14.772a369.057 369.057 0 01-3.498 48.61c-1.511 9.424-3.548 18.27-5.094 26.369a188.607 188.607 0 00-3.107 21.631 94.434 94.434 0 000 14.72c.085 1.698.289 3.09.357 3.99.07.478.093.961.068 1.444zm21.784-192.609c0 .119-1.358.085-3.532.356-2.173.272-5.195.612-8.489.917-4.02.512-8.072.728-12.123.645a86.073 86.073 0 0112.055-1.528 264.43 264.43 0 018.489-.645 7.978 7.978 0 013.6.255zm-5.756 14.602a17.951 17.951 0 01-3.514-.119c-2.157-.136-5.094-.187-8.49-.272a67.73 67.73 0 01-8.489-.628 10.79 10.79 0 01-3.396-.866 20.377 20.377 0 013.515.238c2.156.187 5.093.306 8.489.373 3.396.068 6.333.238 8.49.527 1.164.068 2.31.32 3.395.747zm-4.482 11.8a14.83 14.83 0 01-3.634-.424 155.493 155.493 0 01-8.489-1.698c-3.26-.747-6.35-1.358-8.49-1.885a15.988 15.988 0 01-3.395-1.036 14.798 14.798 0 013.599.425c2.207.373 5.23.951 8.574 1.698 3.345.747 6.333 1.358 8.49 1.901 1.151.208 2.274.55 3.345 1.019z" fill="#EB996E"/></g><defs><filter id="filter0_d" x=".516" y="0" width="508.242" height="761" filterUnits="userSpaceOnUse" color-interpolation-filters="sRGB"><feFlood flood-opacity="0" result="BackgroundImageFix"/><feColorMatrix in="SourceAlpha" values="0 0 0 0 0 0 0 0 0 0 0 0 0 0 0 0 0 0 127 0"/><feOffset dx="10" dy="10"/><feGaussianBlur stdDeviation="10"/><feColorMatrix values="0 0 0 0 0 0 0 0 0 0 0 0 0 0 0 0 0 0 0.15 0"/><feBlend in2="BackgroundImageFix" result="effect1_dropShadow"/><feBlend in="SourceGraphic" in2="effect1_dropShadow" result="shape"/></filter></defs></svg>