<svg width="22" height="34" viewBox="0 0 22 34" fill="none" xmlns="http://www.w3.org/2000/svg">
<path d="M11 11.1654H22V0.464844H0V22.1425C0.000293889 25.0543 1.15488 27.8468 3.20982 29.9057C5.26476 31.9647 8.05176 33.1215 10.9579 33.1218C10.9701 33.1218 10.9789 30.7199 10.9823 27.4906H11C12.4159 27.4906 13.7739 26.927 14.7751 25.9239C15.7763 24.9207 16.3387 23.5601 16.3387 22.1414C16.3387 20.7227 15.7763 19.3621 14.7751 18.359C13.7739 17.3558 12.4159 16.7922 11 16.7922H10.9834C10.9834 14.2459 10.9756 12.1371 10.9679 11.161L11 11.1654ZM10.3993 27.4551C10.3993 29.7504 10.3915 31.6271 10.3849 32.5222C7.73769 32.372 5.24798 31.2134 3.42568 29.2836C1.60337 27.3539 0.586369 24.7991 0.582973 22.1425C0.582973 16.4602 4.91647 11.6274 10.2031 11.201L10.3849 11.1921C10.3926 12.1671 10.3971 14.2814 10.4004 16.83C9.09652 16.9765 7.89224 17.5993 7.01771 18.5793C6.14317 19.5594 5.65971 20.8279 5.65971 22.1425C5.65971 23.4571 6.14317 24.7257 7.01771 25.7057C7.89224 26.6857 9.09652 27.3085 10.4004 27.4551H10.3993Z" fill="#2B3A8C"/>
</svg>
