<svg width="119" height="50" viewBox="0 0 119 50" fill="none" xmlns="http://www.w3.org/2000/svg">
<path d="M16.8417 16.3833H33.6834V0H0V33.19C0.000449963 37.6481 1.7682 41.9236 4.91444 45.076C8.06069 48.2284 12.3278 49.9995 16.7772 50C16.7959 50 16.8095 46.3224 16.8146 41.3782H16.8417C19.0096 41.3782 21.0887 40.5153 22.6216 38.9794C24.1545 37.4435 25.0157 35.3604 25.0157 33.1883C25.0157 31.0161 24.1545 28.933 22.6216 27.3971C21.0887 25.8612 19.0096 24.9983 16.8417 24.9983H16.8163C16.8163 21.0997 16.8044 17.871 16.7925 16.3765L16.8417 16.3833ZM15.922 41.3238C15.922 44.8381 15.9101 47.7115 15.8999 49.0819C11.8469 48.8519 8.03501 47.078 5.24494 44.1235C2.45486 41.169 0.89777 37.2574 0.892571 33.19C0.892571 24.4899 7.52744 17.0906 15.6217 16.4377L15.8999 16.4241C15.9118 17.9169 15.9186 21.1541 15.9237 25.0561C13.9274 25.2805 12.0835 26.234 10.7446 27.7345C9.4056 29.235 8.66539 31.1772 8.66539 33.19C8.66539 35.2027 9.4056 37.1449 10.7446 38.6454C12.0835 40.1459 13.9274 41.0994 15.9237 41.3238H15.922Z" fill="#2B3A8C"/>
<path d="M50.1177 24.7722H49.6035V48.8184H50.1177V24.7722Z" fill="#2B3A8C"/>
<path d="M78.1291 27.4057H77.5929C77.4256 26.9734 77.1889 26.5713 76.892 26.2156C76.5527 25.7962 76.2342 25.5661 75.9367 25.5253C75.7992 25.5066 75.6177 25.4913 75.3886 25.4777C75.1595 25.4641 74.9508 25.4573 74.759 25.4573H73.2454V29.2182H74.2126C74.4533 29.2224 74.6933 29.192 74.9253 29.128C75.1283 29.0656 75.3122 28.9527 75.4599 28.7999C75.6088 28.6352 75.7241 28.4429 75.7992 28.2337C75.8941 28.0166 75.9603 27.788 75.9961 27.5536H76.517V31.5917H75.9961C75.9625 31.3352 75.8904 31.0853 75.7823 30.8504C75.707 30.6427 75.6006 30.4478 75.4666 30.2723C75.3273 30.1232 75.152 30.0125 74.9576 29.9509C74.7183 29.8759 74.4684 29.8403 74.2177 29.8455H73.2505V33.0249C73.2457 33.1695 73.2779 33.3129 73.3438 33.4415C73.4248 33.5738 73.5498 33.6731 73.6968 33.722C73.831 33.7721 73.9697 33.8097 74.1108 33.8342C74.2805 33.8682 74.4621 33.8938 74.6352 33.9125V34.4395H69.385V33.9125L69.9127 33.8547C70.0691 33.8425 70.2235 33.8117 70.3726 33.7628C70.5128 33.717 70.6327 33.6239 70.712 33.4993C70.7799 33.3652 70.8126 33.216 70.807 33.0657V26.2955C70.8107 26.1569 70.7817 26.0194 70.7221 25.8942C70.6422 25.7596 70.5171 25.6578 70.3692 25.6069C70.2043 25.5419 70.0339 25.4918 69.8601 25.4573C69.6497 25.4131 69.4885 25.3825 69.3799 25.3689V24.8418H78.124L78.1291 27.4057Z" fill="#2B3A8C"/>
<path d="M90.625 27.5876H90.0905C89.9212 27.1212 89.6931 26.6784 89.4117 26.27C89.0995 25.8007 88.811 25.548 88.5463 25.5117C88.4003 25.493 88.2188 25.4777 88.005 25.4641C87.7912 25.4505 87.6062 25.4437 87.4518 25.4437H87.1294V32.9722C87.1266 33.1206 87.1573 33.2677 87.2193 33.4024C87.2945 33.5412 87.4194 33.6464 87.5689 33.6965C87.7288 33.7513 87.8928 33.7934 88.0593 33.8224C88.2855 33.8654 88.4739 33.896 88.6243 33.9142V34.4412H83.1943V33.9142L83.7542 33.8564C83.9208 33.8456 84.0854 33.8148 84.2446 33.7645C84.395 33.7148 84.5219 33.6113 84.601 33.4738C84.6629 33.3379 84.6931 33.1896 84.6892 33.0403V25.4437H84.3685C84.2124 25.4437 84.0291 25.4437 83.8136 25.4641C83.5981 25.4845 83.4199 25.493 83.274 25.5117C83.0093 25.5468 82.7208 25.7996 82.4086 26.27C82.128 26.6789 81.9 27.1216 81.7298 27.5876H81.1953V24.8418H90.625V27.5876Z" fill="#2B3A8C"/>
<path d="M78.1288 41.7627H77.5926C77.4256 41.3302 77.1888 40.9281 76.8918 40.5725C76.5524 40.1508 76.2368 39.9213 75.9364 39.8805C75.799 39.8635 75.6174 39.8465 75.3883 39.8329C75.1593 39.8193 74.9505 39.8142 74.7588 39.8142H73.2452V43.5751H74.2124C74.4532 43.5796 74.6933 43.5487 74.9251 43.4833C75.1284 43.4215 75.3124 43.3086 75.4596 43.1551C75.6088 42.9912 75.7241 42.7994 75.799 42.5907C75.8938 42.3735 75.9599 42.1449 75.9958 41.9106H76.5168V45.9486H75.9958C75.9622 45.6921 75.8901 45.4422 75.782 45.2073C75.7068 44.9996 75.6003 44.8047 75.4664 44.6292C75.327 44.4801 75.1517 44.3694 74.9573 44.3079C74.7179 44.2334 74.4681 44.1984 74.2175 44.2042H73.2502V47.3904C73.2458 47.5343 73.2779 47.6771 73.3436 47.8052C73.4245 47.9375 73.5495 48.0369 73.6965 48.0858C73.8308 48.1359 73.9694 48.1734 74.1106 48.198C74.2803 48.232 74.4618 48.2575 74.6349 48.2762V48.8033H69.3847V48.2762L69.9124 48.2184C70.069 48.2071 70.2234 48.1763 70.3723 48.1266C70.5125 48.0808 70.6324 47.9876 70.7117 47.863C70.7798 47.729 70.8125 47.5798 70.8067 47.4295V40.6541C70.81 40.5143 70.7804 40.3756 70.7202 40.2495C70.6396 40.1153 70.5148 40.0136 70.3672 39.9621C70.2025 39.897 70.0321 39.8475 69.8581 39.8142C69.6477 39.7683 69.4865 39.7394 69.3779 39.7258V39.197H78.122L78.1288 41.7627Z" fill="#2B3A8C"/>
<path d="M92.4823 39.7273C92.3499 39.7409 92.1599 39.7715 91.9104 39.8174C91.6861 39.8553 91.4723 39.9398 91.2826 40.0656C91.0853 40.2129 90.9527 40.4311 90.9127 40.6743C90.8286 41.1088 90.7927 41.5513 90.8057 41.9936V45.5641C90.8057 46.6148 90.4449 47.4604 89.7231 48.1008C89.0014 48.7412 88.0455 49.0615 86.8554 49.0615C85.4707 49.0615 84.396 48.7526 83.6313 48.1348C82.8665 47.5171 82.487 46.6556 82.4926 45.5505V40.6403C82.4966 40.4993 82.4651 40.3595 82.401 40.2339C82.3151 40.1005 82.1925 39.9948 82.048 39.9296C81.9078 39.8649 81.7602 39.8176 81.6085 39.7885C81.4389 39.7511 81.2929 39.7273 81.1826 39.7137V39.2036H86.2971V39.7137C86.1475 39.7225 85.9985 39.7396 85.8508 39.7647C85.6955 39.7898 85.5423 39.8267 85.3926 39.8752C85.3184 39.8929 85.2487 39.9261 85.1881 39.9727C85.1276 40.0193 85.0776 40.0782 85.0414 40.1455C84.9808 40.2795 84.9506 40.4252 84.9531 40.5723V45.4162C84.9531 46.3683 85.1652 47.0603 85.5895 47.4922C86.0137 47.924 86.6302 48.1405 87.4391 48.1416C88.231 48.1416 88.8532 47.9025 89.3057 47.4241C89.7582 46.9458 89.9845 46.2425 89.9845 45.3142V42.06C89.9991 41.6248 89.9592 41.1896 89.8657 40.7644C89.8121 40.524 89.683 40.3071 89.4974 40.1455C89.31 40.0157 89.099 39.9239 88.8764 39.8752C88.5811 39.7953 88.3673 39.7443 88.2553 39.7273V39.1985H92.4789L92.4823 39.7273Z" fill="#2B3A8C"/>
<path d="M105.649 39.7273C105.521 39.7409 105.338 39.7647 105.1 39.8004C104.867 39.8358 104.646 39.9268 104.456 40.0656C104.264 40.2232 104.136 40.4457 104.096 40.6913C104.012 41.1201 103.977 41.5569 103.989 41.9936V48.8523H102.769L96.706 41.4394V45.945C96.6928 46.373 96.7309 46.8012 96.8196 47.2201C96.8686 47.4677 96.9973 47.6923 97.1862 47.8594C97.3643 47.9843 97.5648 48.0738 97.7767 48.1229C97.9888 48.1861 98.204 48.2383 98.4215 48.2794V48.8064H94.237V48.2794C94.4439 48.2615 94.6492 48.2286 94.8512 48.1807C95.0578 48.1392 95.2544 48.0578 95.4299 47.941C95.6195 47.7945 95.7502 47.5844 95.7981 47.3493C95.8788 46.911 95.9118 46.4652 95.8965 46.0198V41.4649C95.8975 41.2474 95.8619 41.0313 95.7913 40.8256C95.72 40.6311 95.6037 40.4563 95.4519 40.3155C95.2909 40.1623 95.1035 40.0396 94.8988 39.9534C94.6705 39.8592 94.4327 39.7902 94.1895 39.7477V39.2053H97.8531L103.18 45.6899V42.06C103.194 41.6273 103.155 41.1945 103.064 40.7712C103.01 40.5284 102.88 40.3092 102.693 40.1455C102.514 40.0208 102.315 39.9303 102.104 39.8786C101.842 39.8055 101.632 39.7545 101.473 39.7273V39.1985H105.649V39.7273Z" fill="#2B3A8C"/>
<path d="M116.4 40.1865C116.997 40.5725 117.491 41.0976 117.841 41.7167C118.226 42.4359 118.415 43.244 118.389 44.0596C118.406 44.7981 118.235 45.5288 117.893 46.1832C117.58 46.7703 117.135 47.2766 116.594 47.6624C116.025 48.0525 115.394 48.3402 114.727 48.5125C114.012 48.7018 113.276 48.7961 112.536 48.7931H107.632V48.266C107.78 48.266 107.961 48.2473 108.182 48.2252C108.331 48.2172 108.478 48.1898 108.62 48.1436C108.761 48.094 108.881 47.9974 108.959 47.8698C109.027 47.7417 109.06 47.5982 109.056 47.4533V40.6524C109.058 40.5085 109.027 40.3661 108.966 40.2359C108.89 40.0962 108.766 39.9892 108.616 39.9349C108.441 39.8571 108.255 39.805 108.065 39.7802C107.87 39.753 107.726 39.7343 107.615 39.7258V39.197H112.803C113.4 39.2029 113.995 39.2736 114.578 39.4078C115.227 39.5556 115.844 39.8194 116.4 40.1865ZM115.009 47.0656C115.246 46.6689 115.412 46.2332 115.499 45.7786C115.608 45.2111 115.66 44.6341 115.653 44.0562C115.659 43.4705 115.59 42.8865 115.446 42.3186C115.33 41.8386 115.126 41.3843 114.844 40.9789C114.588 40.6164 114.248 40.3217 113.853 40.1202C113.435 39.9116 112.973 39.8072 112.506 39.8159C112.336 39.8159 112.166 39.8159 111.959 39.8244L111.505 39.8414V47.1268C111.501 47.2729 111.523 47.4184 111.569 47.557C111.614 47.6834 111.691 47.7963 111.791 47.8851C111.904 47.9848 112.036 48.0595 112.18 48.1045C112.374 48.1626 112.576 48.189 112.779 48.1827C113.239 48.195 113.695 48.0977 114.109 47.8987C114.48 47.7091 114.791 47.4209 115.009 47.0656Z" fill="#2B3A8C"/>
</svg>
