<svg width="93" height="106" viewBox="0 0 93 106" fill="none" xmlns="http://www.w3.org/2000/svg">
<mask id="path-1-outside-1" maskUnits="userSpaceOnUse" x="-0.600233" y="5.54347" width="72.1076" height="101.806" fill="black">
<rect fill="white" x="-0.600233" y="5.54347" width="72.1076" height="101.806"/>
<path d="M63.4601 77.5074L49.1924 69.6713C45.8185 67.818 41.6528 68.6372 39.2891 71.6204C39.2882 71.6212 39.277 71.6344 39.2767 71.6356L39.2365 71.6866C39.1884 71.7482 39.1319 71.7639 39.0921 71.7678C39.0221 71.773 38.9832 71.738 38.9693 71.7242C35.2315 68.2652 32.2324 64.1662 30.0534 59.5408C27.8752 54.9141 26.6257 49.9886 26.3423 44.9013C26.3411 44.884 26.339 44.8381 26.3824 44.793C26.4181 44.7568 26.4633 44.7391 26.5187 44.7406L26.6031 44.7424C30.4206 44.8292 33.7181 42.1331 34.4416 38.334L37.7515 20.9653C38.2179 18.5176 37.0759 16.0504 34.9101 14.8199C34.138 14.3682 33.2916 13.9755 32.3934 13.6516C24.3508 10.7612 15.4762 14.6615 12.1894 22.5317C11.9861 23.0237 11.8101 23.5288 11.6459 24.0353L11.644 24.0409C11.0361 25.8016 10.7855 26.8662 10.4072 28.4746L10.3264 28.8165C10.2347 29.1999 8.07606 38.2692 8.51553 44.1292C9.19826 53.2187 11.7404 62.1263 15.8688 69.8873C20.2299 78.0853 26.1529 84.8321 33.4717 89.9398C35.3291 91.236 37.3521 88.3458 35.4924 87.0474C28.6349 82.2627 23.0806 75.9311 18.9849 68.2305C15.0843 60.8964 12.6806 52.4715 12.0346 43.8641C11.636 38.5565 13.7355 29.7281 13.7587 29.6329L13.8415 29.2814C14.1717 27.8791 14.5481 26.5133 14.9955 25.1442L15.0022 25.1226C15.134 24.7001 15.2841 24.2847 15.4517 23.8754C18.0177 17.7507 24.931 14.7188 31.1977 16.9708C31.8954 17.2214 32.547 17.5241 33.1349 17.8687C33.1431 17.8739 33.1518 17.8789 33.1606 17.8839C34.0169 18.3669 34.469 19.3408 34.2848 20.3061L30.9754 37.6747C30.5749 39.7736 28.7699 41.2633 26.6865 41.2168L26.6167 41.2145C25.5803 41.1856 24.573 41.5933 23.8533 42.3336C23.1388 43.068 22.7617 44.0753 22.8191 45.0983C23.1275 50.6403 24.4878 56.0048 26.861 61.0441C29.233 66.0808 32.4994 70.5446 36.5712 74.3125C37.3256 75.0116 38.3463 75.3649 39.3718 75.2834C40.4066 75.2005 41.3692 74.683 42.0172 73.857L42.0545 73.8102C43.3455 72.1817 45.6322 71.7407 47.4921 72.7624L61.7598 80.5985C63.5008 81.5552 64.1273 83.7876 63.646 85.6232C62.7962 88.8236 59.9929 91.5675 57.0581 92.9128C54.0696 94.2815 50.719 94.4243 47.6242 93.3118C45.4926 92.5459 44.2948 95.8634 46.4295 96.6307C49.5368 97.7472 52.8446 97.8788 55.9736 97.0404C56.8413 96.8079 57.6961 96.5001 58.5275 96.1192C62.4238 94.3333 65.936 90.7453 67.0566 86.5275L67.0774 86.4488C67.9664 83.1002 66.5621 79.2115 63.4601 77.5074V77.5074Z"/>
</mask>
<path d="M63.4601 77.5074L49.1924 69.6713C45.8185 67.818 41.6528 68.6372 39.2891 71.6204C39.2882 71.6212 39.277 71.6344 39.2767 71.6356L39.2365 71.6866C39.1884 71.7482 39.1319 71.7639 39.0921 71.7678C39.0221 71.773 38.9832 71.738 38.9693 71.7242C35.2315 68.2652 32.2324 64.1662 30.0534 59.5408C27.8752 54.9141 26.6257 49.9886 26.3423 44.9013C26.3411 44.884 26.339 44.8381 26.3824 44.793C26.4181 44.7568 26.4633 44.7391 26.5187 44.7406L26.6031 44.7424C30.4206 44.8292 33.7181 42.1331 34.4416 38.334L37.7515 20.9653C38.2179 18.5176 37.0759 16.0504 34.9101 14.8199C34.138 14.3682 33.2916 13.9755 32.3934 13.6516C24.3508 10.7612 15.4762 14.6615 12.1894 22.5317C11.9861 23.0237 11.8101 23.5288 11.6459 24.0353L11.644 24.0409C11.0361 25.8016 10.7855 26.8662 10.4072 28.4746L10.3264 28.8165C10.2347 29.1999 8.07606 38.2692 8.51553 44.1292C9.19826 53.2187 11.7404 62.1263 15.8688 69.8873C20.2299 78.0853 26.1529 84.8321 33.4717 89.9398C35.3291 91.236 37.3521 88.3458 35.4924 87.0474C28.6349 82.2627 23.0806 75.9311 18.9849 68.2305C15.0843 60.8964 12.6806 52.4715 12.0346 43.8641C11.636 38.5565 13.7355 29.7281 13.7587 29.6329L13.8415 29.2814C14.1717 27.8791 14.5481 26.5133 14.9955 25.1442L15.0022 25.1226C15.134 24.7001 15.2841 24.2847 15.4517 23.8754C18.0177 17.7507 24.931 14.7188 31.1977 16.9708C31.8954 17.2214 32.547 17.5241 33.1349 17.8687C33.1431 17.8739 33.1518 17.8789 33.1606 17.8839C34.0169 18.3669 34.469 19.3408 34.2848 20.3061L30.9754 37.6747C30.5749 39.7736 28.7699 41.2633 26.6865 41.2168L26.6167 41.2145C25.5803 41.1856 24.573 41.5933 23.8533 42.3336C23.1388 43.068 22.7617 44.0753 22.8191 45.0983C23.1275 50.6403 24.4878 56.0048 26.861 61.0441C29.233 66.0808 32.4994 70.5446 36.5712 74.3125C37.3256 75.0116 38.3463 75.3649 39.3718 75.2834C40.4066 75.2005 41.3692 74.683 42.0172 73.857L42.0545 73.8102C43.3455 72.1817 45.6322 71.7407 47.4921 72.7624L61.7598 80.5985C63.5008 81.5552 64.1273 83.7876 63.646 85.6232C62.7962 88.8236 59.9929 91.5675 57.0581 92.9128C54.0696 94.2815 50.719 94.4243 47.6242 93.3118C45.4926 92.5459 44.2948 95.8634 46.4295 96.6307C49.5368 97.7472 52.8446 97.8788 55.9736 97.0404C56.8413 96.8079 57.6961 96.5001 58.5275 96.1192C62.4238 94.3333 65.936 90.7453 67.0566 86.5275L67.0774 86.4488C67.9664 83.1002 66.5621 79.2115 63.4601 77.5074V77.5074Z" fill="#F0F0F1"/>
<path d="M49.1924 69.6713L48.9516 70.1095L48.9517 70.1096L49.1924 69.6713ZM39.2891 71.6204L39.6207 71.9946L39.6537 71.9654L39.681 71.9309L39.2891 71.6204ZM39.2767 71.6356L39.6694 71.9451L39.7428 71.852L39.7666 71.736L39.2767 71.6356ZM39.2365 71.6866L38.8438 71.3771L38.8424 71.3789L39.2365 71.6866ZM39.0921 71.7678L39.129 72.2666L39.1404 72.2655L39.0921 71.7678ZM38.9693 71.7242L39.3219 71.3697L39.3155 71.3633L39.3089 71.3572L38.9693 71.7242ZM30.0534 59.5408L29.601 59.7538L29.6011 59.7539L30.0534 59.5408ZM26.3423 44.9013L26.8416 44.8734L26.841 44.866L26.3423 44.9013ZM26.3824 44.793L26.0263 44.4421L26.0226 44.4459L26.3824 44.793ZM26.5187 44.7406L26.5044 45.2405L26.5083 45.2405L26.5187 44.7406ZM26.6031 44.7424L26.6145 44.2425L26.6135 44.2425L26.6031 44.7424ZM34.4416 38.334L33.9504 38.2404L33.9504 38.2405L34.4416 38.334ZM37.7515 20.9653L38.2427 21.0589L38.2427 21.0589L37.7515 20.9653ZM34.9101 14.8199L34.6575 15.2515L34.6631 15.2546L34.9101 14.8199ZM32.3934 13.6516L32.563 13.1813L32.5625 13.1811L32.3934 13.6516ZM12.1894 22.5317L11.728 22.339L11.7273 22.3407L12.1894 22.5317ZM11.6459 24.0353L12.1195 24.1957L12.1215 24.1896L11.6459 24.0353ZM11.644 24.0409L12.1166 24.2041L12.1176 24.2013L11.644 24.0409ZM10.4072 28.4746L10.8938 28.5896L10.8939 28.5891L10.4072 28.4746ZM10.3264 28.8165L10.8127 28.9329L10.813 28.9315L10.3264 28.8165ZM8.51553 44.1292L8.01693 44.1666L8.01693 44.1666L8.51553 44.1292ZM15.8688 69.8873L15.4273 70.1221L15.4273 70.1221L15.8688 69.8873ZM33.4717 89.9398L33.1856 90.3499L33.1856 90.3499L33.4717 89.9398ZM35.4924 87.0474L35.7786 86.6375L35.7785 86.6374L35.4924 87.0474ZM18.9849 68.2305L18.5434 68.4653L18.5434 68.4653L18.9849 68.2305ZM12.0346 43.8641L12.5332 43.8267L12.5332 43.8267L12.0346 43.8641ZM13.7587 29.6329L14.2445 29.7515L14.2454 29.7475L13.7587 29.6329ZM13.8415 29.2814L13.3548 29.1668L13.3548 29.1668L13.8415 29.2814ZM14.9955 25.1442L15.4708 25.2995L15.4732 25.2917L14.9955 25.1442ZM15.0022 25.1226L14.5249 24.9736L14.5245 24.975L15.0022 25.1226ZM15.4517 23.8754L14.9905 23.6821L14.989 23.6859L15.4517 23.8754ZM31.1977 16.9708L31.0286 17.4414L31.0287 17.4414L31.1977 16.9708ZM33.1349 17.8687L33.4019 17.446L33.3949 17.4415L33.3878 17.4373L33.1349 17.8687ZM33.1606 17.8839L32.9107 18.317L32.9149 18.3195L33.1606 17.8839ZM34.2848 20.3061L33.7936 20.2123L33.7936 20.2125L34.2848 20.3061ZM30.9754 37.6747L31.4665 37.7684L31.4665 37.7683L30.9754 37.6747ZM26.6865 41.2168L26.6702 41.7166L26.6753 41.7167L26.6865 41.2168ZM26.6167 41.2145L26.633 40.7148L26.6306 40.7147L26.6167 41.2145ZM23.8533 42.3336L24.2116 42.6823L24.2118 42.6821L23.8533 42.3336ZM22.8191 45.0983L23.3184 45.0705L23.3184 45.0702L22.8191 45.0983ZM26.861 61.0441L27.3134 60.831L27.3134 60.831L26.861 61.0441ZM36.5712 74.3125L36.9111 73.9458L36.9108 73.9455L36.5712 74.3125ZM39.3718 75.2834L39.4114 75.7818L39.4117 75.7818L39.3718 75.2834ZM42.0172 73.857L41.6262 73.5453L41.6238 73.5484L42.0172 73.857ZM42.0545 73.8102L42.4455 74.1219L42.4464 74.1208L42.0545 73.8102ZM47.4921 72.7624L47.2513 73.2006L47.2514 73.2007L47.4921 72.7624ZM61.7598 80.5985L62.0006 80.1603L62.0005 80.1603L61.7598 80.5985ZM63.646 85.6232L64.1293 85.7515L64.1297 85.75L63.646 85.6232ZM57.0581 92.9128L57.2663 93.3673L57.2665 93.3673L57.0581 92.9128ZM47.6242 93.3118L47.7933 92.8412L47.7932 92.8412L47.6242 93.3118ZM46.4295 96.6307L46.2604 97.1012L46.2604 97.1012L46.4295 96.6307ZM58.5275 96.1192L58.7357 96.5738L58.7358 96.5737L58.5275 96.1192ZM67.0566 86.5275L67.5398 86.6559L67.5399 86.6557L67.0566 86.5275ZM67.0774 86.4488L66.5942 86.3205L66.5941 86.3207L67.0774 86.4488ZM63.7008 77.0692L49.4331 69.2331L48.9517 70.1096L63.2194 77.9457L63.7008 77.0692ZM49.4331 69.2331C45.8492 67.2644 41.4151 68.1321 38.8972 71.3099L39.681 71.9309C41.8906 69.1422 45.7878 68.3716 48.9516 70.1095L49.4331 69.2331ZM38.9575 71.2462C38.9447 71.2575 38.9353 71.267 38.9327 71.2697C38.9287 71.2738 38.9255 71.2772 38.9237 71.2791C38.92 71.283 38.9171 71.2863 38.9157 71.2879C38.9125 71.2914 38.9099 71.2944 38.9083 71.2962C38.9049 71.3002 38.9013 71.3045 38.8978 71.3086C38.8949 71.3122 38.8894 71.3188 38.8834 71.3266C38.8809 71.3299 38.8743 71.3384 38.8667 71.3493C38.8632 71.3543 38.8552 71.3661 38.846 71.3817C38.8414 71.3894 38.8334 71.4035 38.8247 71.4218C38.8188 71.4344 38.7989 71.4768 38.7869 71.5352L39.7666 71.736C39.7546 71.7943 39.7347 71.8367 39.7289 71.8491C39.7203 71.8673 39.7123 71.8812 39.7078 71.8888C39.6989 71.9041 39.691 71.9155 39.6879 71.9199C39.681 71.9299 39.6753 71.9372 39.6739 71.939C39.6717 71.9419 39.67 71.944 39.6693 71.9449C39.6684 71.9459 39.6678 71.9467 39.6675 71.947C39.667 71.9476 39.6664 71.9484 39.6653 71.9496C39.6649 71.9501 39.6633 71.952 39.661 71.9546C39.6599 71.9557 39.6574 71.9586 39.654 71.9622C39.6523 71.964 39.6492 71.9673 39.6453 71.9713C39.6428 71.9738 39.6335 71.9833 39.6207 71.9946L38.9575 71.2462ZM38.884 71.3261L38.8438 71.3771L39.6292 71.9961L39.6694 71.9451L38.884 71.3261ZM38.8424 71.3789C38.8662 71.3485 38.9008 71.3193 38.944 71.2985C38.9849 71.2788 39.0213 71.2723 39.0439 71.2701L39.1404 72.2655C39.2762 72.2523 39.476 72.1923 39.6306 71.9943L38.8424 71.3789ZM39.0553 71.2692C39.1147 71.2648 39.1752 71.2777 39.2281 71.3034C39.2778 71.3275 39.3097 71.3575 39.3219 71.3697L38.6167 72.0787C38.6773 72.139 38.8507 72.287 39.1289 72.2665L39.0553 71.2692ZM39.3089 71.3572C35.6185 67.942 32.6575 63.8953 30.5057 59.3277L29.6011 59.7539C31.8073 64.4371 34.8446 68.5884 38.6297 72.0912L39.3089 71.3572ZM30.5058 59.3279C28.3548 54.759 27.1214 49.8964 26.8415 44.8735L25.843 44.9291C26.1301 50.0809 27.3956 55.0692 29.601 59.7538L30.5058 59.3279ZM26.841 44.866C26.8417 44.8758 26.8449 44.9213 26.831 44.9775C26.8162 45.0374 26.786 45.0948 26.7423 45.1401L26.0226 44.4459C25.8334 44.6421 25.8384 44.8643 25.8435 44.9365L26.841 44.866ZM26.7386 45.144C26.7097 45.1732 26.6709 45.2007 26.6235 45.219C26.5768 45.2371 26.5348 45.2413 26.5044 45.2404L26.533 44.2408C26.3484 44.2356 26.166 44.3003 26.0263 44.4421L26.7386 45.144ZM26.5083 45.2405L26.5927 45.2423L26.6135 44.2425L26.5291 44.2408L26.5083 45.2405ZM26.5917 45.2423C30.6582 45.3348 34.1644 42.462 34.9328 38.4275L33.9504 38.2405C33.2717 41.8042 30.1829 44.3237 26.6145 44.2425L26.5917 45.2423ZM34.9327 38.4276L38.2427 21.0589L37.2604 20.8717L33.9504 38.2404L34.9327 38.4276ZM38.2427 21.0589C38.7492 18.4008 37.5088 15.7213 35.157 14.3852L34.6631 15.2546C36.6431 16.3795 37.6866 18.6345 37.2603 20.8717L38.2427 21.0589ZM35.1626 14.3883C34.3623 13.9201 33.488 13.5147 32.563 13.1813L32.2238 14.122C33.0953 14.4362 33.9137 14.8162 34.6575 15.2514L35.1626 14.3883ZM32.5625 13.1811C24.2702 10.2009 15.1178 14.2222 11.728 22.339L12.6508 22.7244C15.8346 15.1008 24.4315 11.3215 32.2243 14.1222L32.5625 13.1811ZM11.7273 22.3407C11.5171 22.8496 11.3365 23.3684 11.1703 23.8811L12.1215 24.1896C12.2837 23.6893 12.4552 23.1978 12.6515 22.7226L11.7273 22.3407ZM11.1723 23.875L11.1704 23.8806L12.1176 24.2013L12.1195 24.1957L11.1723 23.875ZM11.1714 23.8777C10.5547 25.6635 10.2995 26.7487 9.9205 28.3602L10.8939 28.5891C11.2714 26.9838 11.5174 25.9396 12.1166 24.2041L11.1714 23.8777ZM9.92062 28.3597L9.83984 28.7015L10.813 28.9315L10.8938 28.5896L9.92062 28.3597ZM9.84018 28.7001C9.79284 28.8979 9.2272 31.2741 8.72826 34.3388C8.23093 37.3935 7.79254 41.1745 8.01693 44.1666L9.01413 44.0918C8.79905 41.2238 9.22022 37.5402 9.71527 34.4994C10.2087 31.4686 10.7683 29.1186 10.8127 28.9329L9.84018 28.7001ZM8.01693 44.1666C8.70465 53.3226 11.2652 62.2977 15.4273 70.1221L16.3102 69.6525C12.2156 61.9549 9.69187 53.1149 9.01412 44.0917L8.01693 44.1666ZM15.4273 70.1221C19.8241 78.3871 25.7992 85.195 33.1856 90.3499L33.7579 89.5298C26.5066 84.4692 20.6357 77.7835 16.3102 69.6525L15.4273 70.1221ZM33.1856 90.3499C33.7667 90.7554 34.3911 90.8478 34.9576 90.7014C35.5108 90.5585 35.9748 90.1978 36.2857 89.7531C36.5967 89.3084 36.7762 88.7488 36.72 88.1802C36.6624 87.5977 36.3601 87.0434 35.7786 86.6375L35.2061 87.4574C35.5545 87.7006 35.6967 87.9945 35.7248 88.2786C35.7543 88.5765 35.6607 88.9019 35.4662 89.1801C35.2717 89.4582 34.998 89.6582 34.7075 89.7332C34.4305 89.8048 34.1055 89.7724 33.7579 89.5298L33.1856 90.3499ZM35.7785 86.6374C28.9888 81.8999 23.4865 75.6296 19.4263 67.9957L18.5434 68.4653C22.6747 76.2327 28.281 82.6254 35.2062 87.4575L35.7785 86.6374ZM19.4263 67.9957C15.5595 60.7251 13.1742 52.3678 12.5332 43.8267L11.536 43.9015C12.187 52.5753 14.6091 61.0677 18.5434 68.4653L19.4263 67.9957ZM12.5332 43.8267C12.3387 41.237 12.7545 37.7538 13.2317 34.8756C13.4693 33.443 13.72 32.1718 13.9128 31.253C14.0092 30.7937 14.091 30.4227 14.1494 30.1641C14.1786 30.0347 14.2019 29.9335 14.2182 29.8633C14.2263 29.8283 14.2327 29.801 14.2372 29.7819C14.2395 29.7724 14.2413 29.7649 14.2425 29.7596C14.2439 29.7538 14.2445 29.7515 14.2445 29.7515L13.273 29.5142C13.2592 29.5707 12.7257 31.8142 12.2452 34.7121C11.7665 37.5988 11.3319 41.1836 11.536 43.9016L12.5332 43.8267ZM14.2454 29.7475L14.3282 29.396L13.3548 29.1668L13.272 29.5183L14.2454 29.7475ZM14.3282 29.396C14.6556 28.0059 15.0282 26.6537 15.4708 25.2995L14.5203 24.9888C14.0679 26.3728 13.6879 27.7524 13.3548 29.1668L14.3282 29.396ZM15.4732 25.2917L15.4799 25.2701L14.5245 24.975L14.5178 24.9966L15.4732 25.2917ZM15.4795 25.2715C15.6069 24.8631 15.7521 24.4612 15.9144 24.0648L14.989 23.6859C14.8161 24.1082 14.6611 24.5371 14.5249 24.9736L15.4795 25.2715ZM15.9129 24.0686C18.3756 18.1904 25.0112 15.279 31.0286 17.4414L31.3668 16.5003C24.8508 14.1587 17.6598 17.311 14.9905 23.6821L15.9129 24.0686ZM31.0287 17.4414C31.6994 17.6823 32.3227 17.9722 32.8821 18.3001L33.3878 17.4373C32.7713 17.076 32.0914 16.7606 31.3667 16.5003L31.0287 17.4414ZM32.8679 18.2914C32.8861 18.3029 32.9036 18.313 32.9107 18.317L33.4104 17.4509C33.4057 17.4481 33.4035 17.4468 33.4016 17.4457C33.4 17.4448 33.4004 17.445 33.4019 17.446L32.8679 18.2914ZM32.9149 18.3195C33.5845 18.6971 33.9376 19.4581 33.7936 20.2123L34.7759 20.3998C35.0004 19.2235 34.4494 18.0367 33.4062 17.4484L32.9149 18.3195ZM33.7936 20.2125L30.4842 37.5811L31.4665 37.7683L34.7759 20.3997L33.7936 20.2125ZM30.4842 37.581C30.1278 39.4489 28.528 40.7578 26.6976 40.7169L26.6753 41.7167C29.0118 41.7688 31.022 40.0984 31.4665 37.7684L30.4842 37.581ZM26.7027 40.7171L26.633 40.7148L26.6004 41.7143L26.6702 41.7165L26.7027 40.7171ZM26.6306 40.7147C25.4552 40.6819 24.3125 41.1438 23.4947 41.9851L24.2118 42.6821C24.8334 42.0427 25.7054 41.6893 26.6028 41.7143L26.6306 40.7147ZM23.4949 41.9849C22.6829 42.8196 22.2546 43.9635 22.3199 45.1263L23.3184 45.0702C23.2687 44.1872 23.5946 43.3165 24.2116 42.6823L23.4949 41.9849ZM22.3199 45.1261C22.6318 50.7326 24.0081 56.16 26.4087 61.2571L27.3134 60.831C24.9674 55.8497 23.6231 50.5481 23.3184 45.0705L22.3199 45.1261ZM26.4087 61.2571C28.8079 66.3517 32.1125 70.8678 36.2316 74.6795L36.9108 73.9455C32.8863 70.2214 29.6581 65.8099 27.3134 60.831L26.4087 61.2571ZM36.2314 74.6793C37.0885 75.4735 38.2469 75.8744 39.4114 75.7818L39.3322 74.785C38.4457 74.8554 37.5627 74.5496 36.9111 73.9458L36.2314 74.6793ZM39.4117 75.7818C40.5867 75.6877 41.6771 75.1006 42.4106 74.1657L41.6238 73.5484C41.0613 74.2654 40.2265 74.7134 39.3319 74.785L39.4117 75.7818ZM42.4081 74.1687L42.4455 74.1219L41.6636 73.4985L41.6262 73.5453L42.4081 74.1687ZM42.4464 74.1208C43.5811 72.6893 45.5986 72.2927 47.2513 73.2006L47.7328 72.3242C45.6659 71.1887 43.1098 71.674 41.6627 73.4996L42.4464 74.1208ZM47.2514 73.2007L61.5192 81.0368L62.0005 80.1603L47.7328 72.3242L47.2514 73.2007ZM61.519 81.0367C63.0078 81.8549 63.6018 83.8205 63.1624 85.4964L64.1297 85.75C64.6528 83.7548 63.9937 81.2556 62.0006 80.1603L61.519 81.0367ZM63.1628 85.4948C62.3605 88.5159 59.6856 91.1584 56.8498 92.4582L57.2665 93.3673C60.3002 91.9767 63.2318 89.1313 64.1293 85.7515L63.1628 85.4948ZM56.8499 92.4582C53.9801 93.7725 50.765 93.9095 47.7933 92.8412L47.455 93.7823C50.673 94.9391 54.159 94.7904 57.2663 93.3673L56.8499 92.4582ZM47.7932 92.8412C47.1264 92.6016 46.4996 92.6755 45.9909 92.9647C45.4943 93.247 45.1406 93.7163 44.9566 94.2267C44.7726 94.7371 44.7455 95.3241 44.9484 95.8583C45.1563 96.4054 45.593 96.8613 46.2604 97.1012L46.5986 96.1602C46.1987 96.0164 45.9846 95.7699 45.8832 95.5031C45.777 95.2234 45.7823 94.885 45.8973 94.5659C46.0124 94.2467 46.2244 93.9823 46.4852 93.834C46.7339 93.6926 47.0562 93.639 47.4551 93.7823L47.7932 92.8412ZM46.2604 97.1012C49.4633 98.2521 52.8752 98.3883 56.103 97.5234L55.8442 96.5575C52.814 97.3694 49.6103 97.2424 46.5986 96.1601L46.2604 97.1012ZM56.103 97.5234C56.9979 97.2836 57.8792 96.9662 58.7357 96.5738L58.3192 95.6646C57.5131 96.034 56.6846 96.3323 55.8442 96.5575L56.103 97.5234ZM58.7358 96.5737C62.74 94.7384 66.3737 91.0453 67.5398 86.6559L66.5733 86.3992C65.4984 90.4454 62.1077 93.9282 58.3191 95.6647L58.7358 96.5737ZM67.5399 86.6557L67.5607 86.577L66.5941 86.3207L66.5733 86.3994L67.5399 86.6557ZM67.5607 86.5771C68.5017 83.0325 67.0271 78.8964 63.7009 77.0692L63.2194 77.9457C66.0971 79.5265 67.4311 83.1678 66.5942 86.3205L67.5607 86.5771Z" fill="#F0F0F1" mask="url(#path-1-outside-1)"/>
<path d="M54.5058 53.8323L54.5058 53.8323C54.1459 53.698 53.7542 53.6685 53.3784 53.749L53.3779 53.7491L45.8273 55.3541L46.1458 46.8144C46.1674 46.2344 45.9541 45.6279 45.723 45.0708C45.6577 44.9133 45.5912 44.7602 45.5265 44.6111C45.3536 44.2125 45.193 43.8426 45.0997 43.4943C42.9237 35.3733 47.7687 26.994 55.901 24.8149C64.0333 22.6359 72.4194 27.47 74.5954 35.591C76.7711 43.7109 71.9259 52.0915 63.7936 54.2705C60.703 55.0986 57.4918 54.9471 54.5058 53.8323ZM44.1306 59.8438L44.0786 59.5993L44.1306 59.8438L53.658 57.8177C57.2736 59.0426 61.1268 59.1661 64.8389 58.1715C75.1247 55.4154 81.254 44.8165 78.5016 34.5443C75.7489 24.2711 65.1414 18.1573 54.8556 20.9134C44.5697 23.6695 38.4414 34.2676 41.1941 44.5408C41.4297 45.4203 41.7295 46.2891 42.0885 47.1308L41.6915 57.795C41.6915 57.795 41.6915 57.795 41.6915 57.795C41.643 59.0874 42.8848 60.1087 44.1306 59.8438Z" fill="#F0F0F1" stroke="#F0F0F1" stroke-width="0.5"/>
<path d="M55.8623 41.5017L55.8623 41.5015C55.6133 40.3776 54.4455 39.6658 53.3305 39.9645C52.251 40.2538 51.5902 41.3971 51.8792 42.4759C52.1684 43.5552 53.3129 44.2154 54.3921 43.9262C55.4402 43.6454 56.0957 42.5575 55.8623 41.5017Z" fill="#F0F0F1" stroke="#F0F0F1" stroke-width="0.5"/>
<path d="M42.2354 92.0257L42.2354 92.0256C41.9868 90.9031 40.817 90.1899 39.7036 90.4883C38.6239 90.7776 37.9634 91.9216 38.2523 92.9999C38.5414 94.0788 39.686 94.7391 40.7651 94.45C41.8131 94.1691 42.469 93.0823 42.2354 92.0257Z" fill="#F0F0F1" stroke="#F0F0F1" stroke-width="0.5"/>
<path d="M62.8198 39.6373C62.5709 38.5136 61.4061 37.8007 60.2886 38.1001C59.2069 38.39 58.5471 39.5306 58.8367 40.6116C59.1262 41.6921 60.27 42.3512 61.3501 42.0618L61.3504 42.0617C62.3994 41.7793 63.0541 40.6944 62.8198 39.6373ZM62.8198 39.6373L62.576 39.6913L62.8198 39.6373C62.8198 39.6373 62.8198 39.6373 62.8198 39.6373Z" fill="#F0F0F1" stroke="#F0F0F1" stroke-width="0.5"/>
<path d="M69.2802 37.9065C69.0324 36.7818 67.8642 36.0702 66.7482 36.3693C65.669 36.6584 65.0081 37.8018 65.2972 38.8806L65.2972 38.8807C65.587 39.9596 66.7315 40.6199 67.8097 40.331C68.8591 40.0498 69.5135 38.9622 69.2802 37.9065ZM69.2802 37.9065L69.0361 37.9603L69.2802 37.9063C69.2802 37.9064 69.2802 37.9065 69.2802 37.9065Z" fill="#F0F0F1" stroke="#F0F0F1" stroke-width="0.5"/>
</svg>
