<?xml version="1.0" encoding="utf-8"?>
<!-- Generator: Adobe Illustrator 24.2.3, SVG Export Plug-In . SVG Version: 6.00 Build 0)  -->
<svg version="1.1" id="Layer_1" xmlns="http://www.w3.org/2000/svg" xmlns:xlink="http://www.w3.org/1999/xlink" x="0px" y="0px"
	 viewBox="0 0 16.1 16.1" style="enable-background:new 0 0 16.1 16.1;" xml:space="preserve">
<path d="M12.1,4.9c0.6,0,1-0.4,1-1c0-0.6-0.4-1-1-1c-0.6,0-1,0.4-1,1C11.1,4.5,11.6,4.9,12.1,4.9z"/>
<path d="M8,12c-2.2,0-4-1.8-4-4c0-2.2,1.8-4,4-4c2.2,0,4,1.8,4,4C12,10.2,10.2,12,8,12z M8,6C6.9,6,6,6.9,6,8c0,1.1,0.9,2,2,2
	c1.1,0,2-0.9,2-2C10,6.9,9.1,6,8,6z"/>
<path d="M12,16.1H4c-2.1,0-4-1.9-4-4V4c0-2.1,1.9-4,4-4h8c2.1,0,4,1.9,4,4v8C16.1,14.2,14.2,16.1,12,16.1z M4,2C3.1,2,2,3.1,2,4v8
	c0,1,1,2,2,2h8c0.9,0,2-1.1,2-2V4c0-0.9-1.1-2-2-2H4z"/>
</svg>
