<?xml version="1.0" encoding="utf-8"?>
<!-- Generator: Adobe Illustrator 24.2.3, SVG Export Plug-In . SVG Version: 6.00 Build 0)  -->
<svg version="1.1" id="Layer_1" xmlns="http://www.w3.org/2000/svg" xmlns:xlink="http://www.w3.org/1999/xlink" x="0px" y="0px"
	 viewBox="0 0 14 14" style="enable-background:new 0 0 14 14;" xml:space="preserve">
<path d="M1.7,0c1,0,1.7,0.7,1.7,1.6c0,0.9-0.6,1.6-1.7,1.6h0C0.7,3.3,0,2.5,0,1.6C0,0.7,0.7,0,1.7,0z M10.5,4.3c2,0,3.5,1.4,3.5,4.3
	V14h-3V8.9c0-1.3-0.4-2.1-1.5-2.1C8.7,6.8,8.2,7.4,7.9,8C7.9,8.2,7.8,8.4,7.8,8.7V14h-3c0,0,0-8.6,0-9.4h3v1.3
	C8.2,5.2,9,4.3,10.5,4.3z M7.8,5.9C7.8,5.9,7.8,5.9,7.8,5.9L7.8,5.9L7.8,5.9z M0.2,4.6h3V14h-3V4.6z"/>
</svg>
