<?xml version="1.0" encoding="utf-8"?>
<!-- Generator: Adobe Illustrator 24.2.3, SVG Export Plug-In . SVG Version: 6.00 Build 0)  -->
<svg version="1.1" id="Layer_1" xmlns="http://www.w3.org/2000/svg" xmlns:xlink="http://www.w3.org/1999/xlink" x="0px" y="0px"
	 viewBox="0 0 52 42.1" style="enable-background:new 0 0 52 42.1;" xml:space="preserve">
<path d="M51.9,6.1c-3.5,2.7-6.2,5.5-8.1,8.3c-1.8,2.7-2.8,5.3-2.8,7.7c0.4-0.2,0.9-0.3,1.5-0.3c0.7-0.1,1.3-0.1,1.7-0.1
	c2.2,0,4.1,0.9,5.5,2.8c1.5,1.7,2.3,3.9,2.3,6.5c0,3.2-1.1,5.9-3.2,8c-2.1,2.1-4.8,3.2-8,3.2c-3.4,0-6.1-1.2-8-3.6
	c-1.9-2.5-2.9-5.9-2.9-10c0-4.9,1.5-9.8,4.5-14.7C37.4,9,41.8,4.4,47.6,0L51.9,6.1z M21.9,6.1c-3.5,2.7-6.2,5.5-8.1,8.3
	C12,17.1,11,19.7,11,22.1c0.4-0.2,0.9-0.3,1.5-0.3c0.7-0.1,1.3-0.1,1.7-0.1c2.2,0,4.1,0.9,5.5,2.8c1.5,1.7,2.3,3.9,2.3,6.5
	c0,3.2-1.1,5.9-3.2,8c-2.1,2.1-4.8,3.2-8,3.2c-3.4,0-6.1-1.2-8-3.6C1,36,0,32.6,0,28.5c0-4.9,1.5-9.8,4.5-14.7
	C7.5,9,11.9,4.4,17.7,0L21.9,6.1z"/>
</svg>
