<?xml version="1.0" encoding="utf-8"?>
<!-- Generator: Adobe Illustrator 24.2.3, SVG Export Plug-In . SVG Version: 6.00 Build 0)  -->
<svg version="1.1" id="Layer_1" xmlns="http://www.w3.org/2000/svg" xmlns:xlink="http://www.w3.org/1999/xlink" x="0px" y="0px"
	 viewBox="0 0 20 13" style="enable-background:new 0 0 20 13;" xml:space="preserve">
<style type="text/css">
	.st0{fill-rule:evenodd;clip-rule:evenodd;}
</style>
<path class="st0" d="M19.6,2c-0.3-0.8-0.9-1.4-1.8-1.6C16.3,0,10,0,10,0S3.7,0,2.2,0.3C1.3,0.6,0.6,1.2,0.4,2C0,3.5,0,6.5,0,6.5
	s0,3,0.4,4.5c0.3,0.8,0.9,1.4,1.8,1.6C3.8,13,10,13,10,13s6.3,0,7.8-0.4c0.9-0.2,1.6-0.8,1.8-1.6C20,9.5,20,6.5,20,6.5
	S20,3.5,19.6,2z M8,9.3V3.7l5.2,2.8L8,9.3z"/>
</svg>
