<svg width="693" height="609" viewBox="0 0 693 609" fill="none" xmlns="http://www.w3.org/2000/svg">
<g clip-path="url(#clip0)">
<path d="M63.9119 59.0353L64.5235 60.1529C65.2223 61.4507 66.2854 62.5152 67.5815 63.2149L68.713 63.8273L67.5815 64.4397C66.2891 65.1444 65.2273 66.2076 64.5235 67.5017L63.9119 68.6193L63.3003 67.3639C62.5966 66.0698 61.5348 65.0066 60.2424 64.3019L59.1109 63.6895L60.2424 63.0771C61.5385 62.3774 62.6016 61.3129 63.3003 60.0151L63.9119 59.0353Z" fill="#EBEBEB"/>
<path d="M203.677 110.232L204.854 112.345C206.17 114.735 208.144 116.696 210.542 117.994L212.683 119.158L210.542 120.321C208.149 121.636 206.186 123.614 204.885 126.016L203.707 128.129L202.545 126.016C201.227 123.623 199.247 121.661 196.842 120.367L194.702 119.203L196.842 118.04C199.247 116.746 201.227 114.784 202.545 112.391L203.677 110.232Z" fill="#EBEBEB"/>
<path d="M659.545 304.668L660.708 306.797C662.034 309.184 664.012 311.144 666.411 312.446L668.551 313.594L666.411 314.758C664.006 316.052 662.026 318.013 660.708 320.407L659.545 322.535L658.368 320.407C657.052 318.017 655.078 316.056 652.68 314.758L650.54 313.594L652.68 312.446C655.071 311.139 657.043 309.18 658.368 306.797L659.545 304.668Z" fill="#EBEBEB"/>
<path d="M168.097 18.8159L168.632 19.7651C169.234 20.8483 170.144 21.7276 171.247 22.2913L172.21 22.8271L171.247 23.3477C170.167 23.921 169.279 24.7995 168.694 25.8738L168.158 26.823L167.639 25.8738C167.044 24.8064 166.158 23.9303 165.085 23.3477L164.122 22.8271L165.085 22.2913C166.158 21.7087 167.044 20.8326 167.639 19.7651L168.097 18.8159Z" fill="#EBEBEB"/>
<path d="M565.971 258.509H640.815C640.815 258.509 634.195 246.445 614.93 248.205C596.582 249.874 595.603 242.265 586.246 241.331C576.888 240.397 569.091 247.578 565.971 258.509Z" fill="#EBEBEB"/>
<path d="M473.299 80.607H619.578C619.578 80.607 606.642 57.0449 568.983 60.4743C533.037 63.7507 531.202 48.8847 512.915 47.0475C494.629 45.2103 479.4 59.2495 473.299 80.607Z" fill="#EBEBEB"/>
<path d="M59.1569 129.614H143.068C143.068 129.614 135.652 116.096 114.017 118.071C93.391 119.954 92.336 111.411 81.9083 110.416C71.4805 109.42 62.6888 117.366 59.1569 129.614Z" fill="#EBEBEB"/>
<path d="M641.565 184.21C641.565 184.363 639.623 184.868 636.703 186.322C632.899 188.229 629.519 190.885 626.764 194.13L626.458 194.483L626.091 194.927L625.786 194.452C623.536 190.968 620.402 188.146 616.703 186.276C613.859 184.853 611.902 184.485 611.933 184.347C612.404 184.316 612.877 184.378 613.324 184.531C614.571 184.813 615.786 185.224 616.948 185.756C620.853 187.526 624.166 190.386 626.489 193.993H625.816L626.122 193.625C628.935 190.282 632.462 187.613 636.443 185.817C637.64 185.281 638.877 184.841 640.143 184.5C640.6 184.334 641.079 184.236 641.565 184.21Z" fill="#263238"/>
<path d="M63.3307 170.599C63.3307 170.706 61.8017 171.104 59.6 172.222C56.6719 173.676 54.0706 175.713 51.955 178.208L51.7257 178.468L51.4505 178.805L51.2058 178.438C49.5102 175.784 47.1411 173.628 44.3407 172.191C42.1695 171.089 40.6558 170.813 40.6864 170.66C41.0488 170.634 41.4128 170.681 41.7567 170.798C42.7094 171.011 43.637 171.324 44.5241 171.732C47.5205 173.093 50.0628 175.288 51.848 178.055H51.3281L51.5575 177.779C53.7126 175.218 56.4138 173.172 59.4624 171.793C60.3845 171.387 61.335 171.05 62.3063 170.783C62.6369 170.671 62.9821 170.609 63.3307 170.599Z" fill="#263238"/>
<path d="M131.707 208.552C131.707 208.69 129.766 209.196 126.83 210.665C123.027 212.567 119.651 215.223 116.907 218.473L116.601 218.825L116.234 219.254L115.928 218.78C113.678 215.295 110.536 212.477 106.831 210.619C104.002 209.196 102.03 208.828 102.076 208.675C102.546 208.664 103.015 208.726 103.467 208.859C104.713 209.143 105.927 209.553 107.091 210.083C110.996 211.86 114.309 214.725 116.632 218.336H115.959L116.265 217.983C119.075 214.637 122.603 211.968 126.585 210.175C127.78 209.631 129.018 209.186 130.286 208.843C130.738 208.66 131.22 208.561 131.707 208.552Z" fill="#263238"/>
<path d="M426.359 4.63926e-06C426.359 0.137794 424.402 0.658333 421.482 2.11278C417.675 4.01458 414.294 6.67101 411.543 9.92086L411.253 10.273L410.871 10.717L410.565 10.2271C408.32 6.74358 405.184 3.92587 401.483 2.06685C398.639 0.658333 396.682 0.290894 396.712 0.137794C397.183 0.125715 397.652 0.187711 398.104 0.321514C399.35 0.610241 400.565 1.02577 401.727 1.56162C405.647 3.32148 408.972 6.18286 411.299 9.79838H410.626L410.932 9.43095C413.726 6.05766 417.243 3.35758 421.222 1.531C422.423 0.992276 423.665 0.551947 424.937 0.214344C425.398 0.071595 425.877 -0.000667017 426.359 4.63926e-06Z" fill="#263238"/>
<path d="M609.272 133.87L609.578 134.422C609.928 135.07 610.459 135.602 611.107 135.953L611.673 136.259L611.107 136.565C610.454 136.908 609.921 137.442 609.578 138.096L609.272 138.662L608.967 138.096C608.618 137.446 608.087 136.914 607.438 136.565L606.872 136.259L607.438 135.953C608.082 135.597 608.612 135.067 608.967 134.422L609.272 133.87Z" fill="#455A64"/>
<path d="M57.6125 289.68L57.9183 290.231C58.2612 290.885 58.7944 291.419 59.4473 291.762L60.013 292.068L59.4473 292.374C58.7995 292.725 58.268 293.257 57.9183 293.905L57.6125 294.457L57.3067 293.905C56.9507 293.262 56.4208 292.731 55.7777 292.374L55.2272 292.068L55.7777 291.762C56.4255 291.412 56.9569 290.88 57.3067 290.231L57.6125 289.68Z" fill="#455A64"/>
<path d="M480.256 208.062L481.311 209.992C482.5 212.161 484.282 213.946 486.448 215.136L488.375 216.192L486.448 217.248C484.282 218.439 482.5 220.223 481.311 222.393L480.256 224.322L479.201 222.393C478.013 220.223 476.23 218.439 474.064 217.248L472.137 216.192L474.064 215.136C476.23 213.946 478.013 212.161 479.201 209.992L480.256 208.062Z" fill="#455A64"/>
<path d="M238.783 18.8772L239.838 20.8216C241.011 23.0183 242.795 24.8266 244.975 26.027L246.902 27.0987L244.975 28.155C242.802 29.3361 241.017 31.123 239.838 33.2992L238.783 35.2129L237.728 33.2839C236.544 31.1108 234.76 29.325 232.59 28.1397L230.664 27.0833L232.59 26.0116C234.756 24.8277 236.539 23.0481 237.728 20.8828L238.783 18.8772Z" fill="#455A64"/>
<path d="M363.334 514.415C363.334 514.415 363.12 514.583 362.677 514.874L360.658 516.16C357.969 517.635 355.123 518.801 352.172 519.636C347.475 520.877 342.626 521.444 337.769 521.32C331.346 521.169 324.957 520.317 318.718 518.778C311.761 517.247 304.33 514.767 296.273 512.578C288.215 510.388 279.454 508.368 270.066 508.597C265.277 508.726 260.524 509.467 255.922 510.802C251.116 512.215 246.394 513.902 241.779 515.854C237.039 517.768 232.223 519.804 227.193 521.488C222.1 523.289 216.796 524.421 211.414 524.856C206.017 525.118 200.609 524.67 195.329 523.525C190.13 522.468 185.115 521.014 180.192 519.575C170.406 516.696 160.804 513.986 151.416 514.017C142.534 514.2 133.716 515.565 125.194 518.074C117.121 520.263 109.72 522.667 102.87 524.642C96.7209 526.481 90.4455 527.867 84.0944 528.791C79.2847 529.445 74.4154 529.538 69.5843 529.067C66.541 528.733 63.536 528.113 60.6091 527.214L58.3615 526.403C58.1067 526.314 57.8567 526.211 57.6123 526.097L58.3921 526.326L60.655 527.061C63.5859 527.89 66.5842 528.459 69.6149 528.761C74.4416 529.167 79.2987 529.028 84.0944 528.347C90.4113 527.386 96.6505 525.968 102.763 524.106C109.598 522.147 116.998 519.666 125.071 517.446C133.614 514.897 142.458 513.496 151.37 513.282C160.896 513.282 170.574 515.977 180.421 518.84C190.268 521.703 200.558 524.719 211.383 524.076C216.692 523.63 221.922 522.508 226.948 520.738C231.948 519.069 236.749 517.048 241.504 515.135C246.15 513.182 250.902 511.495 255.739 510.082C260.4 508.733 265.215 507.987 270.066 507.862C279.561 507.663 288.414 509.761 296.471 511.95C304.529 514.139 311.945 516.62 318.856 518.243C325.052 519.804 331.398 520.692 337.785 520.891C342.603 521.052 347.42 520.537 352.096 519.36C355.042 518.565 357.892 517.451 360.597 516.038L362.646 514.828L363.334 514.415Z" fill="#455A64"/>
<path d="M547.899 593.384L547.195 593.858L545.101 595.19C542.311 596.725 539.357 597.937 536.294 598.804C531.418 600.099 526.383 600.692 521.34 600.564C514.654 600.405 508.005 599.522 501.509 597.931C494.292 596.277 486.586 593.767 478.223 591.501C469.859 589.235 460.731 587.122 451.007 587.367C446.037 587.511 441.105 588.283 436.328 589.663C431.338 591.143 426.433 592.896 421.635 594.915C416.727 596.905 411.727 599.018 406.498 600.779C401.211 602.642 395.708 603.821 390.122 604.285C384.52 604.554 378.908 604.091 373.426 602.907C368.013 601.804 362.799 600.289 357.707 598.819C347.54 595.757 337.571 593.016 327.816 593.047C318.596 593.238 309.444 594.659 300.6 597.273C292.221 599.554 284.53 602.08 277.42 604.101C271.039 606.001 264.529 607.433 257.941 608.388C252.949 609.065 247.896 609.168 242.88 608.694C239.719 608.336 236.597 607.69 233.553 606.765L231.214 605.923L230.434 605.601L231.245 605.846L233.599 606.596C236.647 607.453 239.762 608.047 242.911 608.372C247.896 608.793 252.913 608.644 257.864 607.928C264.425 606.929 270.904 605.455 277.252 603.519C284.346 601.483 292.022 598.926 300.416 596.599C309.321 593.94 318.541 592.483 327.831 592.266C337.708 592.266 347.708 595.053 357.937 598.023C368.166 600.993 378.823 604.147 390.046 603.442C395.564 602.988 401 601.825 406.222 599.982C411.406 598.252 416.39 596.155 421.314 594.165C426.138 592.129 431.075 590.371 436.099 588.898C440.935 587.502 445.929 586.73 450.961 586.601C460.838 586.372 470.012 588.561 478.376 590.827C486.739 593.093 494.46 595.665 501.631 597.364C508.098 598.999 514.721 599.933 521.386 600.151C526.387 600.339 531.39 599.823 536.248 598.62C539.305 597.789 542.263 596.628 545.07 595.16L547.195 593.904C547.639 593.506 547.899 593.384 547.899 593.384Z" fill="#455A64"/>
<path d="M603.401 536.997C603.259 536.966 603.12 536.92 602.988 536.859L601.841 536.369C600.375 535.769 598.874 535.257 597.346 534.838C591.671 533.455 585.802 533.051 579.992 533.644C572.607 534.15 564.014 536.278 554.336 537.916C549.261 538.825 544.107 539.215 538.954 539.079C533.418 538.757 527.946 537.728 522.67 536.017C517.227 534.486 511.967 532.603 506.83 531.424C501.9 530.159 496.779 529.812 491.723 530.399C487.174 531.14 482.746 532.495 478.559 534.425C474.568 536.17 470.914 538.008 467.565 539.539C462.315 542.247 456.616 543.975 450.746 544.637C449.149 544.736 447.546 544.675 445.961 544.453L444.738 544.269C444.596 544.261 444.457 544.23 444.325 544.178H444.738L445.976 544.269C447.553 544.412 449.139 544.412 450.716 544.269C456.51 543.498 462.121 541.705 467.29 538.972C470.639 537.441 474.247 535.543 478.238 533.767C482.476 531.773 486.967 530.372 491.586 529.603C496.735 528.98 501.956 529.318 506.983 530.598C512.227 531.777 517.456 533.66 522.869 535.191C528.083 536.876 533.486 537.905 538.954 538.253C544.075 538.39 549.197 538.015 554.244 537.135C563.876 535.604 572.592 533.476 579.977 533.047C585.847 532.492 591.77 532.984 597.468 534.502C599.537 535.096 601.529 535.933 603.401 536.997Z" fill="#263238"/>
<path d="M693 402.392C693 402.622 537.853 402.79 346.515 402.79C155.177 402.79 0 402.652 0 402.392C0 402.132 155.116 401.994 346.515 401.994C537.914 401.994 693 402.178 693 402.392Z" fill="#263238"/>
<path d="M326.394 75.5547L6.26868 401.825L205.297 401.764L326.394 116.386V75.5547Z" fill="#8CBF43"/>
<path opacity="0.9" d="M326.394 75.5547L6.26868 401.825L205.297 401.764L326.394 116.386V75.5547Z" fill="white"/>
<path d="M247.987 458.534C277.833 459.942 308.275 461.443 336.057 469.832C346.882 473.109 357.692 477.487 369.343 477.181C386.82 476.737 401.865 465.867 419.341 466.25C434.845 466.587 447.888 475.696 463.269 477.181C481.418 478.927 498.176 469.863 516.203 467.521C541.661 464.214 568.907 475.895 593.096 468.439C602.744 465.469 592.163 460.493 583.54 460.279C583.54 460.279 551.614 459.85 542.991 453.588C534.367 447.327 527.701 446.592 522.701 445.122C517.701 443.652 509.567 446.898 509.567 446.898L410.183 448.184L335.553 442.229L268.934 446.025L247.987 458.534Z" fill="#EBEBEB"/>
<path d="M315.614 161.367L307.969 408.179L403.18 407.031L394.847 161.367H315.614Z" fill="#8CBF43"/>
<path d="M401.36 150.604H307.969V161.367H401.36V150.604Z" fill="#455A64"/>
<path d="M326.394 150.604V74.8505L351.851 63.7507H357.983L383.914 75.5547V150.604H326.394Z" fill="#8CBF43"/>
<path d="M383.914 75.5547H326.394V116.386H383.914V75.5547Z" fill="#EBEBEB"/>
<path d="M351.852 63.7507V55.4833H357.509V63.7507H352.8" fill="#8CBF43"/>
<path opacity="0.4" d="M396.941 223.204H313.688L311.929 279.376H398.853L396.941 223.204Z" fill="white"/>
<path d="M391.147 150.604C391.104 150.305 391.104 150 391.147 149.701C391.147 149.027 391.147 148.17 391.07 147.083C391.07 144.71 390.994 141.434 390.932 137.376L391.223 137.667C382.248 137.79 369.175 137.79 354.726 137.79C340.277 137.79 327.204 137.79 318.305 137.667L318.581 137.376C318.581 141.434 318.489 144.71 318.458 147.083C318.458 148.155 318.458 149.027 318.382 149.701C318.39 150.004 318.364 150.307 318.305 150.604C318.263 150.305 318.263 150 318.305 149.701C318.305 149.027 318.305 148.17 318.229 147.083C318.229 144.71 318.229 141.434 318.091 137.376V137.101H318.382C327.326 137.009 340.353 136.963 354.802 136.963C369.251 136.963 382.324 136.963 391.238 137.101H391.422V137.376C391.422 141.434 391.33 144.71 391.299 147.083C391.299 148.155 391.299 149.027 391.299 149.701C391.282 150.007 391.231 150.31 391.147 150.604Z" fill="#263238"/>
<path d="M370.383 150.604C369.971 148.425 369.833 146.203 369.97 143.99C369.834 141.777 369.972 139.555 370.383 137.376C370.803 139.554 370.947 141.776 370.811 143.99C370.948 146.204 370.804 148.427 370.383 150.604Z" fill="#263238"/>
<path d="M343.488 150.604C343.066 148.427 342.922 146.204 343.06 143.99C342.924 141.776 343.067 139.554 343.488 137.376C343.898 139.555 344.037 141.777 343.901 143.99C344.038 146.203 343.899 148.425 343.488 150.604Z" fill="#263238"/>
<path d="M342.983 116.356C342.739 116.356 342.555 107.17 342.555 95.9322C342.555 84.6947 342.739 75.524 342.983 75.524C343.228 75.524 343.396 84.71 343.396 95.9322C343.396 107.154 343.213 116.356 342.983 116.356Z" fill="#263238"/>
<path d="M365.582 116.356C365.337 116.356 365.154 107.17 365.154 95.9322C365.154 84.6947 365.337 75.524 365.582 75.524C365.827 75.524 365.995 84.71 365.995 95.9322C365.995 107.154 365.811 116.356 365.582 116.356Z" fill="#263238"/>
<path d="M383.914 96.0701C383.168 96.2071 382.41 96.2686 381.651 96.2538L375.535 96.4376C370.337 96.5447 363.135 96.6519 355.2 96.6825C347.264 96.7131 340.063 96.6825 334.864 96.5753C332.047 96.6644 329.227 96.4953 326.44 96.0701L355.2 95.8405H375.535H381.651C382.411 95.8433 383.169 95.9202 383.914 96.0701Z" fill="#263238"/>
<path opacity="0.4" d="M310.11 338.167H400.84L402.767 394.584L308.367 394.201L310.11 338.167Z" fill="white"/>
<path d="M314.544 202.704C316.206 202.483 317.883 202.391 319.559 202.428C322.617 202.428 327.051 202.306 332.005 202.291L331.592 202.704V195.677L332.005 196.075C327.051 196.075 322.678 196.075 319.559 195.937C317.883 195.964 316.208 195.877 314.544 195.677C316.206 195.456 317.883 195.363 319.559 195.401C322.617 195.401 327.051 195.279 332.005 195.263H332.418V195.677C332.418 196.81 332.418 197.988 332.418 199.183C332.418 200.377 332.418 201.571 332.418 202.704V203.117H332.005C327.051 203.117 322.678 203.117 319.559 202.98C317.883 203.017 316.206 202.925 314.544 202.704Z" fill="#263238"/>
<path d="M361.454 126.751C361.352 126.16 361.306 125.56 361.316 124.96C361.316 123.751 361.194 121.898 361.163 119.724V119.418H361.454C365.888 119.418 372.08 119.295 378.915 119.295C378.548 118.928 379.435 119.801 379.343 119.724V123.322C379.343 124.501 379.343 125.634 379.343 126.736V127.134H378.945C373.793 127.134 369.358 127.027 366.27 126.95L362.677 126.843C362.272 126.848 361.867 126.812 361.469 126.736C361.93 126.669 362.395 126.634 362.86 126.629L366.545 126.522C369.603 126.445 373.961 126.353 378.945 126.338L378.532 126.736C378.532 125.634 378.532 124.501 378.532 123.322V119.739C378.441 119.647 379.327 120.52 378.945 120.153C372.111 120.153 365.918 120.153 361.484 120.03L361.775 119.739C361.775 121.837 361.668 123.567 361.622 124.792C361.607 125.448 361.551 126.102 361.454 126.751Z" fill="#263238"/>
<path d="M351.209 133.916C351.098 133.326 351.051 132.725 351.072 132.125C351.072 130.931 350.949 129.063 350.919 126.889V126.598H351.225C355.643 126.598 361.836 126.476 368.686 126.476L369.098 126.889V130.472C369.098 131.65 369.098 132.799 369.098 133.886V134.299H368.701C363.548 134.299 359.129 134.177 356.041 134.1L352.448 133.993C352.042 134.022 351.634 133.986 351.24 133.886C351.701 133.82 352.166 133.79 352.631 133.794L356.301 133.687C359.359 133.687 363.732 133.518 368.701 133.488L368.303 133.886C368.303 132.799 368.303 131.65 368.303 130.472V126.92L368.716 127.333C361.866 127.333 355.674 127.333 351.255 127.211L351.546 126.92C351.546 129.032 351.439 130.762 351.377 131.987C351.358 132.633 351.301 133.277 351.209 133.916Z" fill="#263238"/>
<path d="M310.492 322.26C312.149 322.039 313.821 321.947 315.492 321.984C318.55 321.907 323 321.861 327.953 321.846L327.541 322.26V315.217L327.953 315.63C322.984 315.63 318.627 315.63 315.492 315.493C313.821 315.53 312.149 315.438 310.492 315.217C312.15 315.007 313.821 314.92 315.492 314.957C318.55 314.88 322.984 314.819 327.953 314.804H328.366V322.673H327.953C323 322.673 318.627 322.673 315.492 322.535C313.821 322.572 312.149 322.48 310.492 322.26Z" fill="#263238"/>
<path d="M343.488 210.42C343.399 209.714 343.353 209.004 343.351 208.292C343.351 206.945 343.244 205.046 343.198 202.704L343.488 202.995C338.259 202.995 330.66 203.117 322.22 203.117L322.633 202.704V206.685C322.633 207.971 322.633 209.226 322.633 210.436L322.235 210.037C328.351 210.037 333.55 210.145 337.342 210.221L341.806 210.344C342.373 210.34 342.94 210.37 343.503 210.436C342.999 210.522 342.486 210.558 341.974 210.543L337.602 210.65C333.825 210.65 328.428 210.818 322.22 210.849H321.822V210.436C321.822 209.226 321.822 207.971 321.822 206.685V202.75L322.235 202.337C330.675 202.337 338.274 202.337 343.503 202.474H343.779V202.75C343.779 205.23 343.672 207.19 343.626 208.506C343.625 209.147 343.579 209.786 343.488 210.42Z" fill="#263238"/>
<path d="M365.306 300.259C365.229 299.547 365.188 298.832 365.184 298.116C365.184 296.784 365.062 294.885 365.031 292.543L365.306 292.819C360.093 292.91 352.494 292.956 344.053 292.956L344.466 292.543V296.462C344.466 297.764 344.466 299.019 344.466 300.229L344.069 299.83C350.185 299.83 355.368 299.938 359.16 300.014L363.64 300.121C364.202 300.126 364.764 300.161 365.322 300.229C364.816 300.307 364.305 300.343 363.793 300.336L359.405 300.443C355.643 300.519 350.231 300.611 344.115 300.627H343.717V296.462C343.717 295.819 343.717 295.176 343.717 294.503V292.574L344.145 292.145C352.585 292.145 360.184 292.145 365.398 292.283H365.689V292.558C365.689 295.023 365.582 296.983 365.536 298.299C365.513 298.958 365.436 299.613 365.306 300.259Z" fill="#263238"/>
<path d="M337.601 329.976C337.512 329.265 337.466 328.549 337.464 327.832C337.464 326.5 337.357 324.602 337.311 322.26L337.601 322.535C332.372 322.627 324.773 322.673 316.333 322.673C315.966 323.056 316.838 322.168 316.746 322.26V326.179C316.746 327.48 316.746 328.736 316.746 329.945L316.348 329.547C322.464 329.547 327.663 329.654 331.455 329.731L335.919 329.838C336.487 329.843 337.053 329.879 337.617 329.945C337.11 330.021 336.599 330.057 336.088 330.052L331.715 330.159C327.938 330.236 322.541 330.328 316.333 330.343H315.935V329.945C315.935 328.736 315.935 327.48 315.935 326.179V322.26L316.348 321.846C324.788 321.846 332.387 321.846 337.617 321.969H337.907V322.244C337.907 324.709 337.8 326.684 337.754 328.001C337.752 328.662 337.701 329.322 337.601 329.976Z" fill="#263238"/>
<path d="M388.899 369.858C388.821 369.146 388.78 368.431 388.777 367.715C388.777 366.383 388.654 364.484 388.624 362.142L388.899 362.418C383.67 362.509 376.071 362.555 367.646 362.555L368.059 362.142V364.117C368.059 364.775 368.059 365.418 368.059 366.077V369.828L367.646 369.43C373.762 369.43 378.961 369.537 382.753 369.613L387.232 369.72C387.795 369.725 388.356 369.76 388.914 369.828C388.409 369.905 387.897 369.941 387.385 369.935L382.997 370.042C379.236 370.118 373.823 370.21 367.616 370.226H367.218V369.828C367.218 368.618 367.218 367.363 367.218 366.077V362.142C367.126 362.234 368.013 361.346 367.646 361.729C376.071 361.729 383.67 361.729 388.899 361.851H389.19V362.127C389.19 364.607 389.098 366.567 389.037 367.883C389.05 368.544 389.004 369.205 388.899 369.858Z" fill="#263238"/>
<path d="M402.293 377.927C402.215 377.22 402.174 376.51 402.171 375.799C402.171 374.451 402.048 372.553 402.018 370.21L402.293 370.501C397.079 370.578 389.48 370.639 381.04 370.639C380.658 371.007 381.545 370.119 381.453 370.21V374.145C381.453 375.431 381.453 376.687 381.453 377.896L381.055 377.498C387.171 377.498 392.354 377.605 396.146 377.682L400.626 377.804C401.188 377.8 401.75 377.83 402.308 377.896C401.805 377.996 401.291 378.032 400.779 378.003L396.391 378.126C392.63 378.202 387.217 378.279 381.101 378.309H380.719V370.21C380.642 370.302 381.514 369.43 381.147 369.797C389.587 369.797 397.186 369.797 402.4 369.935H402.69V370.21C402.69 372.691 402.583 374.65 402.538 375.967C402.511 376.626 402.429 377.282 402.293 377.927Z" fill="#263238"/>
<path d="M386.269 247.256C386.18 246.55 386.134 245.839 386.131 245.128C386.131 243.781 386.024 241.882 385.979 239.54L386.269 239.831C381.04 239.831 373.441 239.969 365.001 239.969L365.429 239.54V247.195L365.016 246.797C371.132 246.797 376.331 246.904 380.123 246.98L384.587 247.103C385.154 247.098 385.721 247.129 386.284 247.195C385.781 247.292 385.267 247.328 384.755 247.302L380.382 247.409C376.606 247.501 371.209 247.578 365.001 247.608H364.603V247.195C364.603 245.985 364.603 244.73 364.603 243.444V239.509L365.016 239.096C373.456 239.096 381.055 239.096 386.284 239.234H386.575V239.509C386.575 241.989 386.483 243.949 386.422 245.266C386.42 245.932 386.369 246.597 386.269 247.256Z" fill="#263238"/>
<path opacity="0.4" d="M315.614 161.367L370.383 173.738L374.465 407.031H403.18L394.847 161.367H315.614Z" fill="black"/>
<path d="M276.748 439.549C276.748 439.779 258.4 439.963 235.847 439.963C213.294 439.963 194.931 439.779 194.931 439.549C194.931 439.32 213.279 439.121 235.847 439.121C258.415 439.121 276.748 439.304 276.748 439.549Z" fill="#263238"/>
<path d="M446.053 406.847C445.2 407.114 444.325 407.304 443.438 407.414L436.267 408.638C430.151 409.618 421.818 410.935 412.553 412.343L408.944 412.879L409.189 412.757L399.388 423.244L399.296 423.336H399.174L387.722 424.959L384.511 425.357C384.131 425.411 383.744 425.411 383.364 425.357C383.726 425.229 384.1 425.137 384.48 425.081L387.661 424.484L399.067 422.571L398.868 422.678L408.577 412.099L408.669 411.991H408.822L412.43 411.44C421.696 410.032 430.09 408.807 436.191 407.965L443.392 407.016C444.274 406.893 445.163 406.837 446.053 406.847Z" fill="#263238"/>
<path d="M227.453 420.458C229.663 419.413 232.15 419.107 234.547 419.585C235.851 419.694 237.083 420.232 238.049 421.116C238.505 421.585 238.761 422.214 238.761 422.869C238.761 423.524 238.505 424.153 238.049 424.622C237.397 425.059 236.612 425.254 235.832 425.173C233.966 425.173 231.872 424.821 230.373 425.954C229.517 426.597 228.951 427.669 227.927 427.99C227.416 428.107 226.88 428.056 226.401 427.843C225.922 427.631 225.524 427.269 225.266 426.811C224.789 425.863 224.685 424.77 224.976 423.749C225.104 423.045 225.395 422.381 225.825 421.81C226.255 421.238 226.812 420.775 227.453 420.458Z" fill="#8CBF43"/>
<path d="M222.514 410.889C223.829 412.787 226.398 412.16 227.575 411.011C228.662 409.747 229.405 408.223 229.731 406.587C230.77 402.958 231.825 399.131 231.061 395.426C230.868 394.294 230.371 393.235 229.624 392.364C229.248 391.941 228.768 391.623 228.231 391.443C227.695 391.263 227.121 391.227 226.566 391.338C225.947 391.594 225.39 391.976 224.929 392.462C224.468 392.947 224.114 393.524 223.89 394.155C222.176 397.719 221.278 401.621 221.26 405.576C221.137 407.423 221.574 409.264 222.514 410.858" fill="#8CBF43"/>
<path d="M218.891 413.599C219.565 412.712 220.013 411.675 220.197 410.576C220.381 409.477 220.295 408.349 219.946 407.291C219.227 405.169 217.936 403.288 216.215 401.856C214.26 400.113 211.985 398.766 209.518 397.891C208.547 397.505 207.504 397.332 206.46 397.386C205.946 397.415 205.448 397.57 205.008 397.837C204.569 398.104 204.201 398.475 203.937 398.917C203.7 399.637 203.64 400.405 203.762 401.154C203.885 401.903 204.186 402.611 204.64 403.219C205.922 405.568 207.389 407.81 209.029 409.924C210.231 411.729 211.908 413.165 213.875 414.073C215.878 414.854 217.958 414.762 219.028 413.369" fill="#8CBF43"/>
<path d="M222.422 439.396C222.484 439.114 222.525 438.827 222.544 438.539C222.544 437.911 222.667 437.13 222.759 436.196C222.85 435.262 223.018 434.038 223.294 432.767C223.599 431.384 224.013 430.027 224.532 428.71C225.051 427.402 225.746 426.171 226.596 425.051C227.302 424.146 228.193 423.405 229.211 422.877C229.906 422.537 230.648 422.305 231.413 422.188C231.702 422.177 231.989 422.136 232.269 422.065C231.98 422.029 231.687 422.029 231.397 422.065C230.605 422.133 229.829 422.335 229.104 422.662C228.034 423.176 227.093 423.924 226.352 424.852C225.456 425.988 224.734 427.253 224.211 428.603C223.676 429.935 223.261 431.314 222.973 432.721C222.749 433.869 222.596 435.03 222.514 436.196C222.437 437.191 222.407 437.988 222.407 438.554C222.377 438.834 222.382 439.117 222.422 439.396Z" fill="#263238"/>
<path d="M222.575 437.574C222.598 437.442 222.598 437.308 222.575 437.176V436.028C222.575 435.048 222.575 433.609 222.575 431.848C222.667 428.327 222.958 424.515 223.554 419.172C224.104 414.135 224.854 408.271 225.633 404.459C225.802 403.586 225.97 402.805 226.138 402.132C226.306 401.458 226.413 400.846 226.551 400.371C226.688 399.896 226.734 399.56 226.811 399.269C226.835 399.137 226.835 399.002 226.811 398.871L226.673 399.253C226.597 399.529 226.49 399.896 226.352 400.34C226.214 400.784 226.046 401.397 225.878 402.086C225.71 402.775 225.511 403.54 225.328 404.398C224.35 408.906 223.621 413.465 223.141 418.054C222.617 422.629 222.326 427.228 222.27 431.833C222.27 433.594 222.27 435.033 222.27 436.013C222.27 436.487 222.27 436.855 222.27 437.161C222.345 437.317 222.448 437.457 222.575 437.574Z" fill="#263238"/>
<path d="M222.606 428.143C222.629 427.746 222.629 427.347 222.606 426.949C222.543 425.872 222.42 424.798 222.239 423.734C221.99 422.147 221.643 420.578 221.199 419.034C220.694 417.138 220.039 415.285 219.242 413.492C217.89 410.171 215.935 407.129 213.478 404.52C213.057 404.068 212.608 403.643 212.132 403.249C211.918 403.081 211.735 402.897 211.551 402.759L211.032 402.407C210.719 402.158 210.38 401.943 210.022 401.764C211.184 402.662 212.282 403.639 213.31 404.688C215.671 407.33 217.568 410.353 218.921 413.63C219.686 415.421 220.344 417.257 220.894 419.126C221.398 420.856 221.735 422.433 221.994 423.719C222.254 425.005 222.392 426.153 222.468 426.903C222.476 427.32 222.522 427.735 222.606 428.143Z" fill="#263238"/>
<path d="M324.452 237.718H318.29V247.256H324.452V237.718Z" fill="#263238"/>
<path d="M324.452 249.874H318.29V259.412H324.452V249.874Z" fill="#263238"/>
<path d="M429.967 388.123C430.044 385.704 432.184 383.867 434.31 382.719C436.435 381.57 438.897 380.682 440.319 378.784C442.735 375.722 442.184 370.608 445.41 368.389C447.306 367.087 449.997 367.24 451.756 365.771C452.62 364.919 453.325 363.918 453.835 362.816C456.844 357.386 461.26 352.869 466.617 349.741C465.364 355.001 462.724 359.828 458.972 363.719C457.341 365.138 455.952 366.813 454.859 368.679C453.33 371.849 454.217 375.814 452.459 378.845C450.441 382.305 445.517 383.576 444.202 387.358C443.086 390.557 445.089 394.247 443.927 397.432C443.353 398.762 442.473 399.937 441.358 400.861C437.628 404.306 433.102 406.112 427.598 404.382L420.687 402.652L429.967 388.123Z" fill="#8CBF43"/>
<g opacity="0.3">
<path opacity="0.3" d="M429.967 388.123C430.044 385.704 432.184 383.867 434.31 382.719C436.435 381.57 438.897 380.682 440.319 378.784C442.735 375.722 442.184 370.608 445.41 368.389C447.306 367.087 449.997 367.24 451.756 365.771C452.62 364.919 453.325 363.918 453.835 362.816C456.844 357.386 461.26 352.869 466.617 349.741C465.364 355.001 462.724 359.828 458.972 363.719C457.341 365.138 455.952 366.813 454.859 368.679C453.33 371.849 454.217 375.814 452.459 378.845C450.441 382.305 445.517 383.576 444.202 387.358C443.086 390.557 445.089 394.247 443.927 397.432C443.353 398.762 442.473 399.937 441.358 400.861C437.628 404.306 433.102 406.112 427.598 404.382L420.687 402.652L429.967 388.123Z" fill="black"/>
</g>
<path d="M419.249 402.392C418.589 402.324 417.947 402.138 417.353 401.841C415.602 401.069 414.079 399.856 412.935 398.32C412.548 397.766 412.306 397.123 412.231 396.452C412.214 395.718 412.301 394.986 412.491 394.278C413.023 392.806 413.124 391.212 412.782 389.685C412.074 387.937 411.656 386.086 411.543 384.204C411.788 382.094 412.448 380.055 413.485 378.202C414.583 376.242 415.162 374.034 415.167 371.787C415.06 369.46 414.127 367.087 414.066 364.408C414.005 361.729 415.152 359.172 415.733 356.554C416.063 355.249 416.136 353.891 415.947 352.558C415.748 351.195 415.32 349.833 415.075 348.363C414.826 345.361 415.053 342.338 415.748 339.407C416.008 337.876 416.268 336.345 416.543 334.814C416.864 333.303 417.033 331.765 417.048 330.221C417.004 328.648 416.871 327.079 416.65 325.521C416.528 324.7 416.477 323.87 416.497 323.04C416.614 322.216 416.772 321.399 416.971 320.591C417.873 317.421 419.076 314.345 420.564 311.405L420.671 311.145L420.901 310.593L421.344 310.991C423.739 313.46 425.124 316.737 425.228 320.177C425.345 323.396 425.181 326.618 424.739 329.807C424.318 332.817 424.447 335.877 425.121 338.84C425.87 341.657 427.506 344.444 427.108 347.552C426.711 350.66 424.295 352.726 423.898 355.329C423.5 357.932 424.479 360.473 425.228 362.892C426.183 365.255 426.443 367.842 425.977 370.348C425.472 372.737 424.448 374.834 424.066 376.931C423.662 378.953 423.662 381.034 424.066 383.055C424.402 384.969 424.876 386.761 425.212 388.475C425.603 390.061 425.722 391.702 425.564 393.328C425.386 394.693 425.01 396.023 424.448 397.278C423.726 399.044 422.53 400.576 420.992 401.703C420.463 402.093 419.859 402.369 419.219 402.514C419.799 402.233 420.36 401.916 420.901 401.565C422.356 400.409 423.48 398.888 424.157 397.156C424.67 395.917 425.009 394.614 425.167 393.283C425.293 391.699 425.153 390.105 424.754 388.567C424.387 386.883 423.898 385.092 423.546 383.147C423.101 381.076 423.07 378.938 423.454 376.855C423.898 374.666 424.846 372.553 425.32 370.272C425.739 367.873 425.468 365.404 424.54 363.153C424.142 361.943 423.699 360.703 423.378 359.386C423.009 358.035 422.931 356.621 423.148 355.237C423.638 352.344 425.962 350.231 426.313 347.582C426.665 344.934 425.151 342.117 424.326 339.177C423.612 336.122 423.462 332.962 423.882 329.853C424.331 326.711 424.49 323.533 424.356 320.361C424.269 317.142 422.982 314.073 420.748 311.757L421.405 311.604L421.298 311.879C419.829 314.823 418.641 317.898 417.751 321.065C417.558 321.828 417.405 322.599 417.292 323.377C417.279 324.155 417.325 324.933 417.43 325.704C417.66 327.292 417.798 328.892 417.843 330.496C417.822 332.082 417.642 333.662 417.308 335.212C417.032 336.743 416.772 338.274 416.513 339.805C415.816 342.647 415.579 345.583 415.809 348.501C416.023 349.894 416.451 351.272 416.665 352.696C416.862 354.127 416.779 355.583 416.421 356.983C415.794 359.692 414.693 362.157 414.724 364.638C414.754 367.118 415.672 369.521 415.779 371.986C415.77 374.334 415.154 376.639 413.99 378.677C412.973 380.461 412.313 382.427 412.048 384.464C412.144 386.29 412.531 388.088 413.195 389.792C413.421 390.634 413.484 391.513 413.378 392.379C413.256 393.206 413.026 393.91 412.858 394.676C412.662 395.337 412.564 396.023 412.568 396.712C412.625 397.331 412.835 397.925 413.179 398.442C414.269 399.956 415.72 401.171 417.399 401.979C418.003 402.171 418.622 402.309 419.249 402.392Z" fill="#263238"/>
<path d="M421.145 315.385C421.222 315.385 421.145 316.61 421.145 318.799C421.145 319.351 421.145 319.948 421.252 320.606C421.359 321.264 421.436 321.999 421.512 322.795C421.682 324.571 421.759 326.355 421.741 328.139C421.741 330.114 421.619 332.288 421.482 334.599C421.228 337.029 421.315 339.482 421.741 341.887C421.971 343.158 422.277 344.474 422.43 345.868C422.554 347.292 422.503 348.727 422.277 350.139L421.956 352.267C421.956 352.987 421.833 353.706 421.757 354.426C421.619 355.957 421.497 357.35 421.359 358.85C420.748 370.869 420.35 381.815 420.014 389.669C419.83 393.512 419.677 396.681 419.57 399.008C419.494 400.034 419.448 400.861 419.402 401.535C419.392 401.833 419.356 402.13 419.295 402.423C419.249 402.128 419.249 401.829 419.295 401.535C419.295 400.861 419.295 400.004 419.295 398.993C419.295 396.666 419.402 393.497 419.479 389.639C419.662 381.754 419.953 370.838 420.564 358.789C420.697 357.289 420.834 355.804 420.977 354.334C421.053 353.599 421.115 352.803 421.191 352.145L421.512 350.017C421.734 348.676 421.791 347.314 421.68 345.959C421.558 344.627 421.252 343.326 421.023 342.04C420.614 339.565 420.552 337.045 420.839 334.553C421.008 332.242 421.161 330.098 421.206 328.123C421.252 326.148 421.206 324.388 421.084 322.826C421.084 322.045 420.962 321.295 420.901 320.652C420.839 320.009 420.901 319.351 420.901 318.799C420.918 317.949 420.989 317.1 421.115 316.258C421.087 315.967 421.097 315.674 421.145 315.385Z" fill="#263238"/>
<path d="M418.026 402.055C414.326 398.09 415.396 389.639 418.684 385.337C421.971 381.035 426.527 377.529 428.53 372.492C430.059 368.618 429.968 364.148 432.032 360.534C434.814 355.635 441.129 353.063 442.643 347.643C443.484 344.581 442.643 341.244 443.621 338.258C444.875 334.599 448.575 332.487 451.266 329.731C455.425 325.505 457.382 319.642 459.875 314.298C462.367 308.955 466.327 303.581 472.106 302.249C471.449 307.24 471.755 310.869 469.477 317.207C468.651 319.488 464.676 323.132 462.826 328.108C461.725 331.093 460.685 334.094 459.615 337.08C458.719 340.037 457.379 342.84 455.639 345.393C454.018 347.13 452.487 348.949 451.052 350.843C448.713 354.625 448.912 359.524 446.771 363.428C444.967 366.735 441.634 369.062 440.089 372.507C437.918 377.345 439.661 383.53 436.588 387.817C435.059 389.96 432.552 391.307 431.282 393.604C430.289 395.38 430.166 397.554 429.218 399.345C427.689 402.254 421.099 402.943 418.011 401.825" fill="#8CBF43"/>
<path d="M469.523 306.628C469.432 306.985 469.298 307.329 469.125 307.654C468.835 308.327 468.437 309.307 467.841 310.547C467.245 311.788 466.098 313.104 465.058 314.727C464.018 316.35 462.826 318.233 461.664 320.376C460.502 322.52 459.34 324.969 458.086 327.557C456.87 330.412 455.259 333.082 453.3 335.487C452.261 336.743 451.144 337.968 450.242 339.33C449.269 340.754 448.483 342.298 447.903 343.923L446.955 346.403C446.573 347.23 446.206 348.057 445.839 348.899C445.074 350.568 444.31 352.252 443.545 353.966C440.166 360.657 436.879 366.995 433.882 372.767C430.885 378.539 428.103 383.622 425.794 387.985L420.274 398.228L418.745 400.983C418.589 401.317 418.394 401.63 418.164 401.917C418.27 401.566 418.414 401.227 418.592 400.907C418.959 400.187 419.418 399.238 419.999 398.075C421.283 395.533 423.057 391.951 425.274 387.71C427.491 383.469 430.243 378.141 433.209 372.4C436.176 366.658 439.402 360.274 442.796 353.599C443.576 351.9 444.325 350.231 445.074 348.562L446.19 346.112C446.527 345.27 446.848 344.444 447.169 343.617C447.775 341.957 448.592 340.383 449.6 338.932C450.609 337.524 451.741 336.283 452.78 335.059C454.72 332.709 456.325 330.102 457.551 327.312C458.805 324.724 460.013 322.305 461.22 320.162C462.297 318.222 463.476 316.342 464.752 314.528C465.853 312.905 466.985 311.65 467.627 310.456C468.269 309.261 468.682 308.358 469.049 307.654C469.169 307.296 469.328 306.952 469.523 306.628Z" fill="#263238"/>
<path d="M441.206 460.83C452.429 463.937 464.378 463.077 475.042 458.396C477.559 457.265 480.188 456.403 482.886 455.824C496.448 453.145 509.888 461.121 523.695 461.259C531.982 461.335 539.994 458.61 548.159 457.186C540.85 452.027 531.814 445.735 531.814 445.735L529.459 440.039L509.139 433.915L485.057 418.223L469.935 416.125L453.407 407.245L403.18 398.58H306.073L278.873 415.605L220.175 418.988L195.069 438.814L158.159 448.674L141.875 461.014C145.986 461.402 150.118 461.529 154.245 461.397C175.222 460.585 195.405 451.216 216.352 452.211C238.966 453.252 260.54 466.296 282.955 463.234C300.814 460.8 316.96 448.307 334.941 449.746C351.653 451.078 365.949 464.367 382.722 464.397C392.614 464.397 401.819 459.804 411.345 457.125C422.476 453.987 429.861 457.661 441.206 460.83Z" fill="#455A64"/>
<path d="M616.979 408.776C616.979 408.96 603.906 409.113 587.775 409.113C571.644 409.113 558.571 408.96 558.571 408.776C558.571 408.593 571.644 408.439 587.775 408.439C603.906 408.439 616.979 408.562 616.979 408.776Z" fill="#455A64"/>
<path d="M607.942 415.405C607.942 415.604 599.563 415.758 589.242 415.758C578.922 415.758 570.528 415.604 570.528 415.405C570.528 415.206 578.891 415.069 589.242 415.069C599.594 415.069 607.942 415.222 607.942 415.405Z" fill="#455A64"/>
<path d="M592.698 422.555C590.798 423.004 588.819 423.004 586.919 422.555C588.819 422.106 590.798 422.106 592.698 422.555Z" fill="#455A64"/>
<path d="M603.11 388.062V370.823H589.181V361.468H585.267V371.282H583.234V361.576H579.778V370.762H558.494V373.579H561.461C561.338 375.11 561.262 378.172 561.262 381.647C561.262 384.081 561.262 386.24 561.369 387.924L546.446 388.001L559.611 402.652H613.768L624.104 388.077L603.11 388.062ZM561.828 373.64H568.525C568.418 375.171 568.341 378.233 568.341 381.708C568.341 384.127 568.341 386.301 568.433 387.939H561.919C561.919 386.301 562.011 384.096 562.011 381.662C561.981 378.156 561.904 375.186 561.797 373.64H561.828ZM577.118 387.909H568.938C568.938 386.271 569.029 384.097 569.029 381.678C569.029 378.187 568.953 375.155 568.846 373.609H577.118V387.909Z" fill="#455A64"/>
</g>
<defs>
<clipPath id="clip0">
<rect width="693" height="609" fill="white"/>
</clipPath>
</defs>
</svg>
