<svg width="165" height="136" viewBox="0 0 165 136" fill="none" xmlns="http://www.w3.org/2000/svg">
<path d="M45.537 130.71L57.177 125.11L50.777 106.19L36.707 102.97C35.397 102.68 33.937 102.32 32.317 101.87C30.4139 101.338 28.6127 100.493 26.987 99.3697C24.9211 98.0495 23.044 96.4549 21.407 94.6297C20.077 92.8197 17.257 93.4997 17.257 95.5097C17.257 97.5197 20.807 102.59 27.117 106.18C33.427 109.77 22.267 111.5 18.227 112.18C14.187 112.86 1.76701 115.65 1.02701 117.06C-0.0529905 119.12 2.02701 120.7 6.02701 119.91C10.027 119.12 22.317 117.56 22.637 119.7V119.76C21.6505 121.303 21.1712 123.116 21.2662 124.945C21.3612 126.774 22.0259 128.527 23.167 129.96C25.427 132.79 28.817 136.34 31.307 135.8C35.997 134.78 45.537 130.71 45.537 130.71Z" fill="#FFBE9D"/>
<path d="M44.8271 97.4197L55.7072 134.31L140.417 108.57C144.741 107.249 148.758 105.078 152.234 102.186C155.709 99.2936 158.572 95.7371 160.656 91.7246C162.74 87.7121 164.003 83.3242 164.371 78.8178C164.738 74.3114 164.203 69.7769 162.797 65.4797L142.027 0.849731L96.9171 12.0497L121.707 71.8397L44.8271 97.4197Z" fill="#1C75BB"/>
<path d="M142.357 107.97L141.947 108.12L140.727 108.51L135.987 109.97L118.207 115.37L56.5471 134.08L56.317 134.15L56.2371 133.92C52.4671 122.64 48.8071 110.24 44.5771 97.4997L44.4971 97.2597L44.7471 97.1797L46.8771 96.4697L121.637 71.6397L121.517 71.9097C115.517 57.4097 110.657 45.5297 107.257 37.2497C105.577 33.1297 104.257 29.9097 103.357 27.6997C102.927 26.6097 102.587 25.7697 102.357 25.1897C102.127 24.6097 102.037 24.3297 102.037 24.3297L102.417 25.1697C102.657 25.7497 103.017 26.5697 103.477 27.6497C104.397 29.8497 105.747 33.0597 107.477 37.1597C110.917 45.4197 115.857 57.2797 121.897 71.7597L121.977 71.9597L121.767 72.0297L47.037 96.9697L44.9071 97.6797L45.067 97.3497C49.307 110.1 52.9471 122.5 56.7071 133.77L56.4071 133.61L118.117 115.09L135.937 109.78L140.697 108.39L141.937 108.04L142.357 107.97Z" fill="#263238"/>
<path d="M137.367 82.5997C137.287 82.5997 136.727 81.6697 135.597 80.2597C132.623 76.5835 128.591 73.9095 124.047 72.5997C122.307 72.0997 121.187 71.9597 121.197 71.8697C121.461 71.8222 121.732 71.8222 121.997 71.8697C122.717 71.942 123.432 72.0622 124.137 72.2297C126.473 72.7956 128.693 73.7633 130.697 75.0897C132.703 76.416 134.459 78.0847 135.887 80.0197C136.319 80.6029 136.707 81.218 137.047 81.8597C137.198 82.0849 137.306 82.3357 137.367 82.5997Z" fill="#263238"/>
<path d="M116.837 15.1898C116.574 13.3791 116.487 11.5472 116.577 9.71976C116.487 7.89231 116.574 6.06045 116.837 4.24976C117.094 6.06101 117.181 7.89231 117.097 9.71976C117.181 11.5472 117.094 13.3785 116.837 15.1898Z" fill="#FAFAFA"/>
<path d="M133.847 16.0597C133.069 14.3755 132.453 12.6209 132.007 10.8197C131.392 9.06929 130.943 7.2646 130.667 5.42975C131.443 7.11485 132.059 8.86923 132.507 10.6697C133.122 12.4202 133.571 14.2249 133.847 16.0597Z" fill="#FAFAFA"/>
<path d="M123.297 31.4098C119.795 31.3827 116.37 30.3783 113.407 28.5097C113.477 28.3697 115.567 29.3597 118.297 30.1497C121.027 30.9397 123.307 31.2598 123.297 31.4098Z" fill="#FAFAFA"/>
<path d="M142.537 39.8698C142.576 38.1095 142.79 36.3575 143.177 34.6398C143.391 32.8929 143.776 31.1712 144.327 29.4998C144.282 31.2596 144.068 33.011 143.687 34.7298C143.473 36.4767 143.088 38.1983 142.537 39.8698Z" fill="#FAFAFA"/>
<path d="M135.647 53.6297C134.67 52.1122 133.839 50.5049 133.167 48.8297C132.337 47.2333 131.667 45.5585 131.167 43.8297C132.144 45.3472 132.975 46.9545 133.647 48.6297C134.479 50.2253 135.149 51.9003 135.647 53.6297Z" fill="#FAFAFA"/>
<path d="M132.837 65.6897C131.19 65.186 129.598 64.5159 128.087 63.6897C126.506 63.0174 124.995 62.1901 123.577 61.2197C125.22 61.7266 126.808 62.3966 128.317 63.2197C129.899 63.8965 131.413 64.7237 132.837 65.6897Z" fill="#FAFAFA"/>
<path d="M154.477 62.4797C153.937 64.0484 153.299 65.5814 152.567 67.0697C151.996 68.6233 151.328 70.1396 150.567 71.6097C150.841 69.9643 151.353 68.3675 152.087 66.8697C152.668 65.299 153.473 63.8204 154.477 62.4797Z" fill="#FAFAFA"/>
<path d="M148.457 91.5297C148.01 89.6961 147.735 87.8246 147.637 85.9397C147.366 84.0728 147.269 82.1847 147.347 80.2997C147.782 82.1354 148.053 84.0061 148.157 85.8897C148.429 87.7567 148.529 89.6445 148.457 91.5297Z" fill="#FAFAFA"/>
<path d="M133.177 100.7C131.734 99.7399 130.394 98.6341 129.177 97.3997C127.851 96.2967 126.638 95.0639 125.557 93.7197C127 94.6795 128.341 95.7854 129.557 97.0197C130.883 98.1228 132.096 99.3556 133.177 100.7Z" fill="#FAFAFA"/>
<path d="M106.777 103.33C104.886 106.504 102.696 109.491 100.237 112.25C101.105 110.618 102.13 109.074 103.297 107.64C104.319 106.097 105.484 104.654 106.777 103.33Z" fill="#FAFAFA"/>
<path d="M115.147 90.9697C113.631 89.9909 112.266 88.7948 111.097 87.4197C109.806 86.1546 108.714 84.7015 107.857 83.1097C107.977 83.0197 109.467 84.8997 111.477 87.1097C113.487 89.3197 115.247 90.8397 115.147 90.9697Z" fill="#FAFAFA"/>
<path d="M95.2271 93.7697C93.9596 94.2802 92.5804 94.4492 91.2271 94.2598C89.8646 94.2426 88.5291 93.8778 87.3472 93.1998C87.4072 93.0498 89.0971 93.5897 91.2571 93.7397C93.4171 93.8897 95.1971 93.6197 95.2271 93.7697Z" fill="#FAFAFA"/>
<path d="M82.6269 115.65C82.1276 114.26 81.792 112.817 81.6269 111.35C81.2888 109.911 81.1243 108.437 81.1369 106.96C81.9721 109.788 82.4722 112.705 82.6269 115.65Z" fill="#FAFAFA"/>
<path d="M67.707 123.19C65.9581 122.384 64.2848 121.424 62.707 120.32C61.0227 119.355 59.4266 118.244 57.937 117C59.6853 117.811 61.3585 118.774 62.937 119.88C64.621 120.841 66.2171 121.949 67.707 123.19Z" fill="#FAFAFA"/>
<path d="M73.0572 96.5697C73.1672 96.6697 71.7172 98.3897 70.0572 100.63C68.3972 102.87 67.2472 104.78 67.1172 104.71C67.721 103.125 68.5678 101.644 69.6272 100.32C70.5634 98.8949 71.7214 97.629 73.0572 96.5697Z" fill="#FAFAFA"/>
<path d="M61.557 101.62C59.5396 101.004 57.6398 100.054 55.937 98.8097C57.9544 99.4252 59.8542 100.375 61.557 101.62Z" fill="#FAFAFA"/>
<path opacity="0.2" d="M120.997 70.3197C125.517 70.7797 129.997 71.2497 134.557 71.8197C136.13 71.9343 137.679 72.271 139.157 72.8197C139.892 73.1061 140.561 73.538 141.125 74.0896C141.689 74.6413 142.135 75.3012 142.437 76.0297C142.719 76.7683 142.75 77.5793 142.524 78.337C142.298 79.0946 141.828 79.7564 141.187 80.2197C140.547 80.5477 139.832 80.7036 139.113 80.672C138.394 80.6404 137.696 80.4226 137.087 80.0397C135.876 79.2693 134.744 78.3817 133.707 77.3897C131.673 75.7074 129.309 74.4708 126.767 73.7597C125.609 73.5396 124.49 73.1487 123.447 72.5997C122.925 72.3113 122.506 71.8674 122.248 71.3297C121.99 70.7921 121.906 70.1874 122.007 69.5997" fill="black"/>
</svg>
