<?xml version="1.0" encoding="utf-8"?>
<!-- Generator: Adobe Illustrator 24.2.3, SVG Export Plug-In . SVG Version: 6.00 Build 0)  -->
<svg version="1.1" id="Layer_1" xmlns="http://www.w3.org/2000/svg" xmlns:xlink="http://www.w3.org/1999/xlink" x="0px" y="0px"
	 viewBox="0 0 163.7 312.1" style="enable-background:new 0 0 163.7 312.1;" xml:space="preserve">
<style type="text/css">
	.st0{clip-path:url(#SVGID_2_);fill:#1C75BB;}
	.st1{clip-path:url(#SVGID_2_);}
	.st2{opacity:0.3;clip-path:url(#SVGID_2_);}
	.st3{opacity:0.3;enable-background:new    ;}
	.st4{clip-path:url(#SVGID_2_);fill:#FAFAFA;}
	.st5{clip-path:url(#SVGID_2_);fill:#FFBE9D;}
	.st6{clip-path:url(#SVGID_2_);fill:#AA6550;}
	.st7{fill:#FFBE9D;}
	.st8{fill:#1C75BB;}
	.st9{fill:#263238;}
	.st10{fill:#FAFAFA;}
	.st11{opacity:0.2;enable-background:new    ;}
</style>
<g>
	<g>
		<defs>
			<rect id="SVGID_1_" x="41.8" width="103" height="312.1"/>
		</defs>
		<clipPath id="SVGID_2_">
			<use xlink:href="#SVGID_1_"  style="overflow:visible;"/>
		</clipPath>
		<path class="st0" d="M141.2,152.9l-33.5,32.6l-30.8,58.8l-34.7,66.6l-42.6-20l-46.1-23.6L-17,211l18.3-63
			c-12.9,8.6-37,20.3-65.7,14.2c-31.1-6.6-16.2-124-16.2-124l34.2-0.9l3.4,82.8L-4.3,103l0.1,0.1c2.3-1,4.4-2,5.5-2.5
			c21.4-11.7,35.4-13.1,58.4-4.9l33.1,11C101.2,110.7,132.6,126.2,141.2,152.9"/>
		<path class="st1" d="M24,93.2c0,0-0.8,0.4-2.1,1.4c-1.8,1.3-3.4,2.9-4.8,4.7c-2,2.7-3.6,5.6-4.7,8.8c-1.4,3.9-2.6,7.8-3.5,11.8
			L3,141.5c-0.8,2.7-1.4,4.9-1.9,6.5c-0.2,0.7-0.4,1.3-0.5,1.8c0,0.2-0.1,0.4-0.2,0.6c0-0.2,0.1-0.4,0.1-0.6
			c0.1-0.5,0.2-1.1,0.4-1.8c0.4-1.6,1-3.9,1.7-6.6c1.5-5.6,3.5-13.2,5.7-21.7c1-4,2.2-7.9,3.6-11.8c1.2-3.2,2.8-6.2,4.9-8.8
			c1.4-1.8,3.1-3.4,5-4.7c0.5-0.3,1-0.7,1.6-0.9C23.6,93.4,23.8,93.3,24,93.2z"/>
		<g class="st2">
			<path class="st3" d="M42,91.4c4.1,64.9,8.1,129.8,12.2,194.7l-12,24.7L42,91.4z"/>
		</g>
		<path class="st4" d="M79.7,158.7c-0.1,0-1.4-3-3.1-6.7c-1.7-3.7-3.2-6.6-3.1-6.7c0.5,0.5,0.9,1.2,1.2,1.8c0.7,1.2,1.5,2.8,2.4,4.7
			c0.9,1.9,1.6,3.6,2,4.8C79.4,157.3,79.6,158,79.7,158.7z"/>
		<path class="st4" d="M107,145c-2.1,1.6-4.2,3.1-6.5,4.4c-2.2,1.5-4.4,2.8-6.8,3.9c2.1-1.6,4.2-3,6.5-4.4
			C102.4,147.5,104.6,146.2,107,145z"/>
		<path class="st4" d="M95.1,135.2c-0.3-1.7-0.5-3.5-0.5-5.3c-0.2-1.8-0.2-3.6,0-5.3c0.4,1.8,0.5,3.5,0.5,5.3
			C95.3,131.6,95.3,133.4,95.1,135.2z"/>
		<path class="st4" d="M122.3,133.3c-1.7-0.8-3.4-1.7-4.9-2.7c-1.6-0.9-3.2-2-4.6-3.2c1.7,0.8,3.4,1.7,4.9,2.7
			C119.3,131,120.9,132.1,122.3,133.3z"/>
		<path class="st4" d="M80.8,187.2c0.7-2.4,1.6-4.7,2.7-6.9c0.9-2.3,2-4.5,3.2-6.7c-0.7,2.4-1.6,4.7-2.7,6.9
			C83,182.8,82,185,80.8,187.2z"/>
		<path class="st4" d="M68.7,199.5c-1-1.3-1.8-2.8-2.4-4.3c-0.8-1.4-1.5-3-2-4.5c1,1.3,1.8,2.8,2.4,4.3
			C67.5,196.4,68.2,197.9,68.7,199.5z"/>
		<path class="st4" d="M78.8,216c-1.6,0.7-3.4,1.1-5.1,1.3c-1.7,0.3-3.5,0.4-5.3,0.2c0-0.1,2.3-0.3,5.2-0.7S78.7,215.8,78.8,216z"/>
		<path class="st4" d="M91.8,197.9c0.4-1.7,1-3.3,1.7-4.8c0.6-1.6,1.3-3.2,2.2-4.6c-0.4,1.7-1,3.3-1.8,4.8
			C93.4,194.9,92.7,196.4,91.8,197.9z"/>
		<path class="st4" d="M60.2,236.1c-0.1,0.1-1.6-2-3.6-4.3c-2-2.3-3.8-4.1-3.7-4.2C55.9,229.9,58.4,232.8,60.2,236.1z"/>
		<path class="st4" d="M54.5,195.1c-0.7,1.7-1.6,3.4-2.6,5c-0.9,1.7-1.9,3.3-3.1,4.8c0.7-1.7,1.6-3.4,2.6-5
			C52.3,198.2,53.3,196.6,54.5,195.1z"/>
		<path class="st4" d="M58.5,180.9c-1.9-0.2-3.8-0.6-5.6-1.2c-1.8-0.4-3.7-0.9-5.4-1.6c1.9,0.2,3.8,0.6,5.6,1.2
			C55,179.7,56.8,180.2,58.5,180.9z"/>
		<path class="st4" d="M58.3,151.9c1.1,1.3,2.1,2.6,3,4.1c1,1.3,2,2.7,2.8,4.2c-1.2-1.2-2.3-2.5-3.2-3.9
			C59.8,155,59,153.5,58.3,151.9z"/>
		<path class="st4" d="M49.1,150.5c-1,1.2-2.2,2.4-3.5,3.4c-1.2,1.1-2.4,2.1-3.8,3c1-1.2,2.2-2.4,3.5-3.3
			C46.4,152.4,47.7,151.4,49.1,150.5z"/>
		<path class="st4" d="M56.4,135.3c-1.7-1.3-3.3-2.8-4.6-4.4c-1.5-1.6-2.7-3.4-3.7-5.3c0.1-0.1,1.8,2.3,4.1,4.9
			C54.4,133.2,56.5,135.2,56.4,135.3z"/>
		<path class="st4" d="M81.9,130.7c-1.8,0.8-3.7,1.5-5.6,2c-1.9,0.7-3.8,1.2-5.8,1.5c1.8-0.8,3.7-1.5,5.6-2
			C78.1,131.5,80,131,81.9,130.7z"/>
		<path class="st4" d="M45.9,106.3c-0.2,0-0.1-2.3-0.4-5.1c-0.4-2.8-1-5-0.8-5c0.8,1.6,1.2,3.3,1.3,5
			C46.3,102.9,46.3,104.6,45.9,106.3z"/>
		<path class="st4" d="M23.2,178.8c-0.7,0.6-1.5,1.2-2.3,1.7c-1.5,1-3.5,2.5-5.7,4.2s-4.1,3.3-5.4,4.5c-0.7,0.7-1.4,1.3-2.2,1.8
			c0.6-0.8,1.3-1.5,2-2.1c1.7-1.6,3.5-3.2,5.3-4.6c1.9-1.5,3.8-2.8,5.8-4.1C21.4,179.7,22.3,179.2,23.2,178.8z"/>
		<path class="st4" d="M21.9,170.8c-0.1,0.1-1.8-2.5-4.1-5.6c-2.3-3.1-4.4-5.4-4.3-5.5c0.6,0.4,1.1,0.9,1.5,1.4
			c1.1,1.2,2.2,2.5,3.2,3.8c1,1.3,1.9,2.7,2.8,4.1C21.3,169.5,21.6,170.2,21.9,170.8z"/>
		<path class="st4" d="M27.9,139.2c-3.1,2.1-6.4,3.9-9.8,5.4c1.5-1.1,3.1-2.1,4.8-2.9C24.5,140.7,26.2,139.9,27.9,139.2z"/>
		<path class="st4" d="M21.9,125.4c-0.6-0.4-1.2-0.8-1.7-1.3c-1.3-1.2-2.5-2.5-3.6-3.8c-1.1-1.4-2.1-2.8-3.1-4.3
			c-0.4-0.6-0.8-1.2-1-1.9c0.1-0.1,1.8,2.8,4.4,5.9C19.6,123,22,125.3,21.9,125.4z"/>
		<path class="st4" d="M32.3,125.1c0.5-1.5,1.1-3,1.8-4.4c0.6-1.5,1.4-2.9,2.3-4.2c-0.5,1.5-1.1,3-1.8,4.4
			C34,122.4,33.2,123.8,32.3,125.1z"/>
		<path class="st4" d="M29.5,109.3c-0.2,0,0-3.1-0.6-6.9c-0.6-3.8-1.7-6.7-1.5-6.7c0.4,0.6,0.7,1.2,0.8,1.9c0.6,1.5,1,3.1,1.2,4.8
			c0.2,1.6,0.4,3.3,0.3,4.9C29.8,108,29.7,108.7,29.5,109.3z"/>
		<path class="st4" d="M32.1,189c-0.1-1-0.1-2,0-2.9c0.1-1.8,0.1-4.3,0.1-7c-0.1-2.7-0.3-5.2-0.4-7c-0.1-1-0.2-1.9-0.2-2.9
			c0.3,0.9,0.5,1.9,0.5,2.9c0.3,2.3,0.5,4.7,0.6,7.1c0.1,2.3,0,4.7-0.1,7C32.5,187.1,32.3,188,32.1,189z"/>
		<path class="st4" d="M30.6,213.9c-1.4-1.3-2.9-2.5-4.4-3.6c-1.6-0.9-3.4-1.8-5.1-2.5c1.9,0.3,3.7,1,5.4,2.1
			C28.1,210.9,29.5,212.3,30.6,213.9z"/>
		<path class="st4" d="M43.1,229.3c-2.2,1.4-4.5,2.7-6.9,3.8c-2.3,1.3-4.7,2.4-7.1,3.4c2.2-1.4,4.5-2.7,6.9-3.8
			C38.3,231.3,40.6,230.2,43.1,229.3z"/>
		<path class="st4" d="M7.9,236.1c-1.8-2-3.5-4.2-5.1-6.4c-1.7-2.1-3.2-4.4-4.6-6.8c1.8,2,3.5,4.2,5.1,6.4
			C4.9,231.5,6.5,233.7,7.9,236.1z"/>
		<path class="st4" d="M-3,207.7c-0.2-0.7-0.2-1.4-0.2-2.1c-0.1-1.3-0.1-3,0-5s0.3-3.7,0.4-4.9c0-0.7,0.2-1.4,0.4-2
			c0.2,0-0.2,3.1-0.3,7S-2.9,207.6-3,207.7z"/>
		<path class="st4" d="M-14.7,256.2c-2-1.4-4-2.9-5.8-4.5c-1.9-1.5-3.8-3.2-5.5-4.9c2,1.4,4,2.9,5.8,4.5
			C-18.3,252.8-16.4,254.4-14.7,256.2z"/>
		<path class="st4" d="M-7.7,254.7c-0.3-2.6-0.5-5.2-0.5-7.8c-0.1-2.6-0.1-5.2,0.1-7.9c0.3,2.6,0.5,5.2,0.5,7.8
			C-7.5,249.5-7.5,252.1-7.7,254.7z"/>
		<path class="st4" d="M6.2,284.8c0,0.1-1.2-0.4-3.3-1.1c-5.2-1.7-10.7-2.4-16.2-2.2c-2.1,0.1-3.4,0.2-3.4,0.1
			c0.3-0.1,0.6-0.2,0.9-0.2c0.6-0.1,1.4-0.2,2.5-0.3c5.6-0.4,11.1,0.3,16.4,2.2c0.8,0.3,1.6,0.6,2.3,1C5.7,284.5,6,284.6,6.2,284.8z
			"/>
		<path class="st4" d="M17.7,290.3c0.8,0.4,1.6,0.9,2.3,1.6c1.7,1.4,3.4,2.8,4.9,4.4c1.6,1.6,3,3.2,4.4,4.9c0.6,0.7,1.1,1.4,1.6,2.3
			c-0.7-0.6-1.3-1.3-1.8-2c-1.1-1.3-2.7-3-4.5-4.8c-1.8-1.8-3.5-3.4-4.8-4.5C19,291.6,18.3,291,17.7,290.3z"/>
		<path class="st4" d="M22.6,238.2c-1-1.9-1.9-3.8-2.6-5.8c-0.9-1.9-1.6-3.9-2.1-6c1,1.9,1.9,3.8,2.6,5.8
			C21.4,234.2,22.1,236.2,22.6,238.2z"/>
		<path class="st4" d="M0.7,121.6c-0.1-1.8-0.1-3.7,0.2-5.5c0-1.8,0.3-3.7,0.7-5.5c0.1,1.8,0.1,3.7-0.2,5.5
			C1.3,118,1.1,119.8,0.7,121.6z"/>
		<g class="st2">
			<path class="st3" d="M11.5,109.8c-9.6,25.9-26.8,40.4-51.2,53.4c14.4-1.6,28.2-6.6,40.2-14.7"/>
		</g>
		<path class="st4" d="M-17.5,136.9c-0.4,0.6-0.9,1.2-1.5,1.7c-2.7,2.5-5.7,4.5-9.1,6c-0.7,0.4-1.4,0.6-2.1,0.8
			c-0.1-0.2,3.1-1.5,6.6-3.9C-20.1,139.1-17.6,136.7-17.5,136.9z"/>
		<path class="st4" d="M-15,126.3c-0.2-1.5-0.2-3,0-4.5c0-1.5,0.1-3,0.5-4.4c0.2,1.5,0.2,3,0.1,4.5C-14.4,123.3-14.6,124.8-15,126.3
			z"/>
		<path class="st4" d="M-34.9,135.2c-1.8-0.5-3.5-1.2-5.2-2.1c-1.7-0.7-3.4-1.6-5-2.6c1.8,0.5,3.5,1.2,5.2,2.1
			C-38.2,133.3-36.5,134.2-34.9,135.2z"/>
		<path class="st4" d="M-45.5,156.4c-2-0.5-4-1.4-5.7-2.5c-1.8-1-3.5-2.3-4.9-3.9c0.1-0.1,2.2,1.7,5.2,3.4
			C-48,155.2-45.5,156.2-45.5,156.4z"/>
		<path class="st4" d="M-60.3,136c-1.3,1.8-2.7,3.4-4.3,5c-1.4,1.7-3,3.3-4.6,4.7c1.3-1.8,2.7-3.5,4.3-5.1
			C-63.6,139-62,137.4-60.3,136z"/>
		<path class="st4" d="M-61.6,117.8c-1.7-0.6-3.3-1.5-4.7-2.6c-1.5-1-2.8-2.3-3.8-3.7c0.1-0.1,1.8,1.6,4.1,3.3
			C-63.6,116.5-61.5,117.7-61.6,117.8z"/>
		<path class="st4" d="M-70.9,121.6c-0.6,1.1-1.3,2.1-2.1,2.9c-0.7,1-1.6,1.8-2.5,2.6C-74.3,125.1-72.7,123.2-70.9,121.6z"/>
		<path class="st4" d="M-50.9,87.8c-1.2,1.8-2.5,3.6-3.9,5.2c-1.3,1.7-2.7,3.4-4.3,4.9c1.2-1.8,2.5-3.6,3.9-5.2
			C-53.9,90.9-52.5,89.3-50.9,87.8z"/>
		<path class="st4" d="M-68.1,91.6c-1.5-1.4-3-2.9-4.3-4.5c-1.4-1.5-2.7-3.1-3.9-4.8c1.5,1.4,3,2.9,4.3,4.5
			C-70.5,88.3-69.2,89.9-68.1,91.6z"/>
		<path class="st4" d="M-59.5,69.9c-1.1-1.5-2.2-3.1-3-4.7c-1-1.6-1.8-3.3-2.5-5c1.1,1.5,2.1,3.1,3,4.8
			C-61,66.5-60.2,68.2-59.5,69.9z"/>
		<path class="st4" d="M-59.9,55.9c-0.1-0.1,1.4-2,2.6-4.7c1.2-2.7,1.6-5.1,1.8-5c0,1.8-0.5,3.6-1.3,5.2
			C-57.6,53.1-58.6,54.6-59.9,55.9z"/>
		<path class="st4" d="M-76.5,55.1c-0.2-2.1,0.3-4.2,1.2-6.1c0.6-1.4,1.4-2.6,2.4-3.7c0.4-0.5,0.9-0.9,1.4-1.2
			c-1.3,1.6-2.4,3.3-3.4,5.1C-75.6,51.1-76.1,53.1-76.5,55.1z"/>
		<path class="st1" d="M67.7,31.3c-0.5-4.1-0.5-8.3-0.2-12.5c0.4-4.2,2-8.2,4.6-11.4c2.7-3.2,6.9-5.2,11.1-4.7
			c2.6,0.3,5,1.6,7.6,1.5c3-0.1,5.6-1.9,8.3-3.2c4.3-1.9,9.1-2.4,13.6-1.4c2.4,0.5,4.7,1.6,6.4,3.3c0.9,0.8,1.5,1.9,1.9,3.1
			c0.4,1.2,0.4,2.4,0.2,3.6c3-0.1,6,0.1,9,0.8c3,0.7,5.5,2.5,7.2,5c1.5,2.6,1.4,6.2-0.8,8.4c1.4-0.2,2.8,0.2,4,1s2,2,2.3,3.4
			c0.3,1.4,0.1,2.8-0.4,4.2c-0.5,1.3-1.4,2.5-2.6,3.3c-2.8,1.7-6.1,2.4-9.4,1.9c-2.8-0.5-6-1.3-8.2-3"/>
		<path class="st5" d="M65.6,125.5c5.5,1.4,11.4,0.6,16.3-2.3c4.9-2.9,8.5-7.6,9.9-13.1c1.7-6.4,3.1-11.8,3.1-11.8s16.7,2.9,22.2-13
			c5.5-15.9,15-53.2,15-53.2c-7.7-6.9-17.2-11.6-27.3-13.6c-10.2-2-20.7-1.3-30.5,2l-3,1L50.1,98.8c-0.8,2.8-1,5.7-0.6,8.5
			c0.4,2.8,1.3,5.6,2.7,8.1c1.4,2.5,3.4,4.7,5.7,6.4C60.2,123.5,62.8,124.8,65.6,125.5z"/>
		<path class="st6" d="M95,98.1c-7.4-2.3-13.9-6.8-18.7-12.8c0,0,1.1,13.1,17.4,17L95,98.1z"/>
		<path class="st5" d="M67.8,38.6c-0.2-0.2-9.8-6.9-13.1,4.1c-3.3,11,8.4,12,8.5,11.7S67.8,38.6,67.8,38.6z"/>
		<path class="st6" d="M61.1,49.3c0,0-0.2,0.1-0.6,0.1c-0.5,0.1-1-0.1-1.4-0.4c-1-0.8-1.5-2.9-0.9-4.9c0.3-1,0.7-1.8,1.4-2.6
			c0.2-0.3,0.5-0.6,0.8-0.7c0.3-0.2,0.7-0.3,1.1-0.3c0.2,0,0.5,0.1,0.7,0.2c0.2,0.2,0.3,0.4,0.3,0.6c0.1,0.4-0.1,0.6,0,0.6
			c0.1,0,0.3-0.1,0.3-0.6c0-0.3-0.1-0.6-0.2-0.8c-0.1-0.2-0.3-0.3-0.4-0.4s-0.4-0.2-0.6-0.2c-0.5,0-1,0-1.4,0.2
			c-0.4,0.2-0.8,0.5-1.1,0.9c-0.8,0.8-1.3,1.8-1.6,2.9c-0.6,2.2-0.1,4.6,1.4,5.6c0.3,0.2,0.6,0.3,0.9,0.3c0.3,0,0.6,0,0.9-0.1
			C61,49.5,61.1,49.3,61.1,49.3z"/>
		<path class="st1" d="M118.7,55c-0.2,0.6-0.6,1.1-1.2,1.4c-0.6,0.3-1.2,0.3-1.8,0.2c-0.3-0.1-0.6-0.2-0.8-0.4
			c-0.2-0.2-0.4-0.4-0.6-0.7c-0.2-0.3-0.3-0.6-0.3-0.9c0-0.3,0-0.6,0.1-0.9c0.2-0.6,0.6-1.1,1.2-1.4c0.6-0.3,1.2-0.4,1.8-0.2
			c0.3,0.1,0.6,0.2,0.8,0.4c0.2,0.2,0.4,0.4,0.6,0.7c0.2,0.3,0.3,0.6,0.3,0.9S118.7,54.7,118.7,55z"/>
		<path class="st1" d="M121.6,53.5c-0.4,0.2-1.7-1.6-4.1-2.5c-2.4-0.8-4.7-0.2-4.8-0.6c-0.1-0.2,0.4-0.6,1.4-0.9
			c1.3-0.4,2.7-0.3,4,0.1c1.3,0.4,2.4,1.2,3.1,2.3C121.7,52.8,121.8,53.4,121.6,53.5z"/>
		<path class="st1" d="M94.7,47c-0.2,0.6-0.6,1.1-1.2,1.4c-0.6,0.3-1.2,0.4-1.8,0.2c-0.3-0.1-0.6-0.2-0.8-0.4
			c-0.2-0.2-0.4-0.4-0.6-0.7c-0.2-0.3-0.3-0.6-0.3-0.9c0-0.3,0-0.6,0.1-0.9c0.2-0.6,0.6-1.1,1.1-1.4c0.6-0.3,1.2-0.4,1.8-0.2
			c0.3,0.1,0.6,0.2,0.8,0.4c0.2,0.2,0.5,0.4,0.6,0.7c0.2,0.3,0.3,0.6,0.3,0.9C94.8,46.3,94.7,46.7,94.7,47z"/>
		<path class="st1" d="M97.5,45.9c-0.4,0.2-1.7-1.6-4.1-2.5c-2.4-0.8-4.6-0.2-4.8-0.6c-0.1-0.2,0.4-0.6,1.4-0.9
			c1.3-0.4,2.7-0.4,4,0.1c1.3,0.4,2.4,1.2,3.2,2.3C97.6,45.2,97.7,45.8,97.5,45.9z"/>
		<path class="st1" d="M100.3,67c0-0.1,1.6,0.1,4.2,0.6c0.6,0.2,1.3,0.2,1.5-0.2c0.3-0.6,0.3-1.3,0.2-2c-0.1-1.7-0.2-3.5-0.2-5.4
			c-0.3-7.6-0.3-13.8,0-13.8c0.3,0,0.8,6.2,1.1,13.8c0.1,1.9,0.1,3.7,0.2,5.4c0.1,0.9,0,1.8-0.5,2.5c-0.2,0.2-0.4,0.3-0.6,0.4
			c-0.2,0.1-0.5,0.1-0.7,0.1c-0.4,0-0.8-0.1-1.1-0.2C101.8,67.6,100.2,67.1,100.3,67z"/>
		<path class="st1" d="M92.5,66.2c0.4,0.1-0.5,2.8,1.2,5.4s4.6,3.3,4.4,3.7c0,0.2-0.8,0.3-2-0.1c-1.6-0.5-2.9-1.5-3.8-2.9
			c-0.8-1.3-1.1-2.9-0.8-4.5C91.8,66.7,92.3,66.2,92.5,66.2z"/>
		<path class="st1" d="M122.2,48.9c-0.6,0.4-2.1-0.7-4.1-1.4s-3.9-0.9-4.1-1.6c-0.1-0.3,0.4-0.8,1.3-1.1c1.2-0.3,2.5-0.2,3.7,0.2
			c1.2,0.4,2.2,1.2,2.9,2.2C122.4,48,122.4,48.7,122.2,48.9z"/>
		<path class="st1" d="M97.3,36c-0.4,0.2-1-0.1-1.7-0.6c-0.9-0.5-1.9-1-2.9-1.4c-1-0.4-2.1-0.6-3.1-0.8c-0.8-0.2-1.5-0.3-1.7-0.7
			c-0.2-0.4,0.3-1,1.4-1.4c1.4-0.5,3-0.4,4.4,0.1c1.4,0.5,2.6,1.5,3.4,2.8C97.7,35.1,97.6,35.8,97.3,36z"/>
		<path class="st1" d="M131.3,37.3c-8.4-0.5-16.3-3.7-22.8-9c-7.2-5.9-16.2-10-18.6-8.8s-4.8,9.4-13.4,10c0,0-3.1,16-9.3,14
			s3.3-25.8,3.3-25.8l17.2-4.1l17.7,0.7l15.9,3.6l13.7,7.9L131.3,37.3z"/>
	</g>
	<path class="st7" d="M44.8,282.5l11.6-5.6L50,258L36,254.7c-1.3-0.3-2.8-0.7-4.4-1.1c-1.9-0.5-3.7-1.4-5.3-2.5
		c-2.1-1.3-3.9-2.9-5.6-4.7c-1.3-1.8-4.1-1.1-4.1,0.9c0,2,3.5,7.1,9.9,10.7c6.3,3.6-4.9,5.3-8.9,6c-4,0.7-16.5,3.5-17.2,4.9
		c-1.1,2.1,1,3.6,5,2.9c4-0.8,16.3-2.4,16.6-0.2v0.1c-1,1.5-1.5,3.4-1.4,5.2c0.1,1.8,0.8,3.6,1.9,5c2.3,2.8,5.6,6.4,8.1,5.8
		C35.3,286.6,44.8,282.5,44.8,282.5z"/>
	<path class="st8" d="M44.1,249.2L55,286.1l84.7-25.7c4.3-1.3,8.3-3.5,11.8-6.4c3.5-2.9,6.3-6.4,8.4-10.5s3.3-8.4,3.7-12.9
		c0.4-4.5-0.2-9-1.6-13.3l-20.8-64.6l-45.1,11.2l24.8,59.8L44.1,249.2z"/>
	<path class="st9" d="M141.6,259.7l-0.4,0.2l-1.2,0.4l-4.7,1.5l-17.8,5.4l-61.7,18.7l-0.2,0.1l-0.1-0.2
		c-3.8-11.3-7.4-23.7-11.7-36.4l-0.1-0.2L44,249l2.1-0.7l74.8-24.8l-0.1,0.3c-6-14.5-10.9-26.4-14.3-34.7c-1.7-4.1-3-7.3-3.9-9.6
		c-0.4-1.1-0.8-1.9-1-2.5c-0.2-0.6-0.3-0.9-0.3-0.9l0.4,0.8c0.2,0.6,0.6,1.4,1.1,2.5c0.9,2.2,2.3,5.4,4,9.5
		c3.4,8.3,8.4,20.1,14.4,34.6l0.1,0.2l-0.2,0.1l-74.7,24.9l-2.1,0.7l0.2-0.3c4.2,12.8,7.9,25.2,11.6,36.4l-0.3-0.2l61.7-18.5
		l17.8-5.3l4.8-1.4l1.2-0.4L141.6,259.7z"/>
	<path class="st9" d="M136.6,234.4c-0.1,0-0.6-0.9-1.8-2.3c-3-3.7-7-6.4-11.6-7.7c-1.7-0.5-2.9-0.6-2.8-0.7c0.3,0,0.5,0,0.8,0
		c0.7,0.1,1.4,0.2,2.1,0.4c2.3,0.6,4.6,1.5,6.6,2.9c2,1.3,3.8,3,5.2,4.9c0.4,0.6,0.8,1.2,1.2,1.8
		C136.5,233.9,136.6,234.1,136.6,234.4z"/>
	<path class="st10" d="M116.1,167c-0.3-1.8-0.3-3.6-0.3-5.5c-0.1-1.8,0-3.7,0.3-5.5c0.3,1.8,0.3,3.6,0.3,5.5
		C116.4,163.3,116.4,165.1,116.1,167z"/>
	<path class="st10" d="M133.1,167.8c-0.8-1.7-1.4-3.4-1.8-5.2c-0.6-1.8-1.1-3.6-1.3-5.4c0.8,1.7,1.4,3.4,1.8,5.2
		C132.4,164.2,132.8,166,133.1,167.8z"/>
	<path class="st10" d="M122.6,183.2c-3.5,0-6.9-1-9.9-2.9c0.1-0.1,2.2,0.9,4.9,1.6C120.3,182.7,122.6,183,122.6,183.2z"/>
	<path class="st10" d="M141.8,191.6c0-1.8,0.3-3.5,0.6-5.2c0.2-1.7,0.6-3.5,1.1-5.1c0,1.8-0.3,3.5-0.6,5.2
		C142.7,188.2,142.3,190,141.8,191.6z"/>
	<path class="st10" d="M134.9,205.4c-1-1.5-1.8-3.1-2.5-4.8c-0.8-1.6-1.5-3.3-2-5c1,1.5,1.8,3.1,2.5,4.8
		C133.7,202,134.4,203.7,134.9,205.4z"/>
	<path class="st10" d="M132.1,217.5c-1.6-0.5-3.2-1.2-4.8-2c-1.6-0.7-3.1-1.5-4.5-2.5c1.6,0.5,3.2,1.2,4.7,2
		C129.2,215.7,130.7,216.5,132.1,217.5z"/>
	<path class="st10" d="M153.7,214.3c-0.5,1.6-1.2,3.1-1.9,4.6c-0.6,1.6-1.2,3.1-2,4.5c0.3-1.6,0.8-3.2,1.5-4.7
		C151.9,217.1,152.7,215.6,153.7,214.3z"/>
	<path class="st10" d="M147.7,243.3c-0.4-1.8-0.7-3.7-0.8-5.6c-0.3-1.9-0.4-3.8-0.3-5.6c0.4,1.8,0.7,3.7,0.8,5.6
		C147.7,239.5,147.8,241.4,147.7,243.3z"/>
	<path class="st10" d="M132.4,252.5c-1.4-1-2.8-2.1-4-3.3c-1.3-1.1-2.5-2.3-3.6-3.7c1.4,1,2.8,2.1,4,3.3
		C130.1,249.9,131.4,251.1,132.4,252.5z"/>
	<path class="st10" d="M106,255.1c-1.9,3.2-4.1,6.2-6.5,8.9c0.9-1.6,1.9-3.2,3.1-4.6C103.6,257.9,104.7,256.4,106,255.1z"/>
	<path class="st10" d="M114.4,242.7c-1.5-1-2.9-2.2-4.1-3.6c-1.3-1.3-2.4-2.7-3.2-4.3c0.1-0.1,1.6,1.8,3.6,4
		C112.7,241.1,114.5,242.6,114.4,242.7z"/>
	<path class="st10" d="M94.5,245.5c-1.3,0.5-2.6,0.7-4,0.5c-1.4,0-2.7-0.4-3.9-1.1c0.1-0.2,1.7,0.4,3.9,0.5
		C92.7,245.7,94.5,245.4,94.5,245.5z"/>
	<path class="st10" d="M81.9,267.4c-0.5-1.4-0.8-2.8-1-4.3c-0.3-1.4-0.5-2.9-0.5-4.4C81.2,261.6,81.7,264.5,81.9,267.4z"/>
	<path class="st10" d="M67,275c-1.7-0.8-3.4-1.8-5-2.9c-1.7-1-3.3-2.1-4.8-3.3c1.7,0.8,3.4,1.8,5,2.9C63.9,272.6,65.5,273.7,67,275z
		"/>
	<path class="st10" d="M72.3,248.3c0.1,0.1-1.3,1.8-3,4.1c-1.7,2.2-2.8,4.1-2.9,4.1c0.6-1.6,1.5-3.1,2.5-4.4
		C69.8,250.7,71,249.4,72.3,248.3z"/>
	<path class="st10" d="M60.8,253.4c-2-0.6-3.9-1.6-5.6-2.8C57.2,251.2,59.1,252.1,60.8,253.4z"/>
	<path class="st11" d="M120.3,222.1c4.5,0.5,9,0.9,13.6,1.5c1.6,0.1,3.1,0.5,4.6,1c0.7,0.3,1.4,0.7,2,1.3c0.6,0.6,1,1.2,1.3,1.9
		c0.3,0.7,0.3,1.5,0.1,2.3c-0.2,0.8-0.7,1.4-1.3,1.9c-0.6,0.3-1.4,0.5-2.1,0.5c-0.7,0-1.4-0.2-2-0.6c-1.2-0.8-2.3-1.7-3.4-2.7
		c-2-1.7-4.4-2.9-6.9-3.6c-1.2-0.2-2.3-0.6-3.3-1.2c-0.5-0.3-0.9-0.7-1.2-1.3c-0.3-0.5-0.3-1.1-0.2-1.7"/>
</g>
</svg>
