<svg width="228" height="312" viewBox="0 0 228 312" fill="none" xmlns="http://www.w3.org/2000/svg">
<path d="M225.357 153.75L191.887 186.33L161.047 245.18L126.367 311.73L83.7572 291.73L37.7072 268.18L67.1672 211.9L85.4772 148.9C72.5372 157.48 48.5272 169.17 19.7772 163.07C-11.3628 156.47 3.58719 39.0697 3.58719 39.0697L37.8072 38.1897L41.2072 120.97L79.8872 103.89L79.9472 104.03C82.2772 103.03 84.3172 102.03 85.3972 101.48C106.787 89.8097 120.827 88.3997 143.777 96.5897L176.887 107.59C185.397 111.59 216.767 127.04 225.357 153.79" fill="#1C75BB"/>
<path d="M108.217 94.0897C108.217 94.0897 107.447 94.5297 106.147 95.4597C104.324 96.7853 102.707 98.3723 101.347 100.17C99.3499 102.852 97.7595 105.814 96.627 108.96C95.2491 112.827 94.0709 116.762 93.097 120.75L87.2169 142.38C86.4469 145.09 85.8269 147.31 85.3669 148.91C85.1569 149.64 84.977 150.23 84.847 150.69C84.7975 150.898 84.7236 151.099 84.627 151.29C84.64 151.075 84.6803 150.864 84.7469 150.66C84.8569 150.19 84.9969 149.6 85.1769 148.86C85.5869 147.24 86.1769 145.01 86.8569 142.28C88.3369 136.68 90.357 129.05 92.597 120.61C93.5771 116.608 94.7722 112.663 96.1769 108.79C97.3464 105.613 98.9918 102.632 101.057 99.9497C102.466 98.141 104.154 96.568 106.057 95.2897C106.57 94.9426 107.104 94.6286 107.657 94.3497C107.837 94.2498 108.024 94.1629 108.217 94.0897Z" fill="black"/>
<g opacity="0.3">
<path opacity="0.3" d="M126.227 92.2397C130.28 157.16 134.334 222.07 138.387 286.97L126.387 311.71L126.227 92.2397Z" fill="black"/>
</g>
<path d="M163.917 159.6C163.777 159.65 162.557 156.6 160.847 152.9C159.137 149.2 157.617 146.28 157.747 146.21C158.218 146.76 158.618 147.369 158.937 148.02C159.607 149.18 160.467 150.82 161.317 152.68C162.167 154.54 162.867 156.25 163.317 157.51C163.613 158.175 163.815 158.879 163.917 159.6Z" fill="#FAFAFA"/>
<path d="M191.157 145.9C189.095 147.503 186.923 148.96 184.657 150.26C182.487 151.716 180.222 153.026 177.877 154.18C179.951 152.589 182.126 151.132 184.387 149.82C186.557 148.369 188.819 147.06 191.157 145.9Z" fill="#FAFAFA"/>
<path d="M179.337 136.04C178.99 134.291 178.81 132.513 178.797 130.73C178.629 128.95 178.629 127.159 178.797 125.38C179.156 127.13 179.337 128.913 179.337 130.7C179.511 132.475 179.511 134.264 179.337 136.04Z" fill="#FAFAFA"/>
<path d="M206.527 134.14C204.815 133.382 203.175 132.471 201.627 131.42C199.988 130.505 198.435 129.444 196.987 128.25C198.703 129.004 200.347 129.914 201.897 130.97C203.536 131.879 205.086 132.941 206.527 134.14Z" fill="#FAFAFA"/>
<path d="M164.957 188.08C165.696 185.713 166.598 183.401 167.657 181.16C168.563 178.853 169.625 176.611 170.837 174.45C170.102 176.817 169.199 179.13 168.137 181.37C167.234 183.677 166.171 185.919 164.957 188.08Z" fill="#FAFAFA"/>
<path d="M152.847 200.34C151.887 198.995 151.069 197.554 150.407 196.04C149.584 194.6 148.914 193.079 148.407 191.5C149.369 192.845 150.19 194.286 150.857 195.8C151.68 197.238 152.347 198.76 152.847 200.34Z" fill="#FAFAFA"/>
<path d="M162.977 216.84C161.344 217.546 159.609 217.988 157.837 218.15C156.091 218.487 154.301 218.541 152.537 218.31C152.537 218.16 154.887 218.05 157.767 217.64C160.647 217.23 162.937 216.69 162.977 216.84Z" fill="#FAFAFA"/>
<path d="M175.967 198.79C176.39 197.131 176.973 195.517 177.707 193.97C178.298 192.348 179.052 190.79 179.957 189.32C179.529 190.991 178.936 192.616 178.187 194.17C177.606 195.781 176.862 197.329 175.967 198.79Z" fill="#FAFAFA"/>
<path d="M144.377 236.97C144.247 237.05 142.777 234.97 140.757 232.69C138.737 230.41 136.937 228.61 137.047 228.5C140.049 230.786 142.545 233.67 144.377 236.97Z" fill="#FAFAFA"/>
<path d="M138.647 195.97C137.938 197.716 137.064 199.39 136.037 200.97C135.163 202.648 134.135 204.241 132.967 205.73C133.689 203.988 134.566 202.315 135.587 200.73C136.459 199.053 137.483 197.459 138.647 195.97Z" fill="#FAFAFA"/>
<path d="M142.707 181.8C140.813 181.571 138.942 181.176 137.117 180.62C135.268 180.233 133.457 179.681 131.707 178.97C133.602 179.192 135.473 179.587 137.297 180.15C139.146 180.538 140.956 181.09 142.707 181.8Z" fill="#FAFAFA"/>
<path d="M142.487 152.82C143.586 154.104 144.589 155.467 145.487 156.9C146.517 158.228 147.446 159.632 148.267 161.1C147.038 159.942 145.962 158.631 145.067 157.2C144.017 155.86 143.15 154.387 142.487 152.82Z" fill="#FAFAFA"/>
<path d="M133.277 151.4C132.244 152.637 131.084 153.763 129.817 154.76C128.659 155.891 127.386 156.896 126.017 157.76C127.043 156.518 128.203 155.395 129.477 154.41C130.632 153.273 131.906 152.263 133.277 151.4Z" fill="#FAFAFA"/>
<path d="M140.547 136.23C138.811 134.964 137.257 133.467 135.927 131.78C134.472 130.195 133.241 128.418 132.267 126.5C132.397 126.42 134.037 128.76 136.327 131.44C138.617 134.12 140.707 136.12 140.547 136.23Z" fill="#FAFAFA"/>
<path d="M166.127 131.56C164.319 132.39 162.442 133.059 160.517 133.56C158.645 134.224 156.717 134.719 154.757 135.04C156.568 134.217 158.444 133.548 160.367 133.04C162.24 132.378 164.167 131.883 166.127 131.56Z" fill="#FAFAFA"/>
<path d="M130.117 107.21C129.967 107.21 130.037 104.91 129.677 102.13C129.317 99.3498 128.677 97.1298 128.857 97.1298C129.614 98.6973 130.069 100.394 130.197 102.13C130.484 103.813 130.457 105.536 130.117 107.21Z" fill="#FAFAFA"/>
<path d="M107.357 179.71C106.62 180.349 105.834 180.931 105.007 181.45C103.527 182.45 101.507 183.94 99.347 185.64C97.187 187.34 95.287 188.95 93.927 190.13C93.2316 190.795 92.4898 191.41 91.707 191.97C92.2955 191.184 92.9659 190.463 93.707 189.82C95.4088 188.185 97.1946 186.639 99.057 185.19C100.911 183.731 102.837 182.366 104.827 181.1C105.625 180.559 106.472 180.093 107.357 179.71Z" fill="#FAFAFA"/>
<path d="M106.047 171.69C105.917 171.76 104.237 169.15 101.907 166.1C99.5773 163.05 97.5173 160.73 97.6273 160.62C98.1928 161.011 98.701 161.478 99.1372 162.01C100.266 163.213 101.331 164.475 102.327 165.79C103.323 167.098 104.251 168.456 105.107 169.86C105.504 170.423 105.821 171.039 106.047 171.69Z" fill="#FAFAFA"/>
<path d="M112.137 140.08C109.051 142.192 105.769 144.004 102.337 145.49C103.837 144.369 105.437 143.388 107.117 142.56C108.707 141.575 110.388 140.744 112.137 140.08Z" fill="#FAFAFA"/>
<path d="M106.107 126.28C105.477 125.911 104.901 125.457 104.397 124.93C103.101 123.747 101.895 122.47 100.787 121.11C99.668 119.752 98.6487 118.315 97.7368 116.81C97.3151 116.213 96.9785 115.56 96.7368 114.87C96.8768 114.79 98.5868 117.63 101.177 120.78C103.767 123.93 106.217 126.16 106.107 126.28Z" fill="#FAFAFA"/>
<path d="M116.487 125.97C116.942 124.451 117.559 122.986 118.327 121.6C118.944 120.137 119.719 118.745 120.637 117.45C120.187 118.97 119.57 120.436 118.797 121.82C118.184 123.285 117.409 124.677 116.487 125.97Z" fill="#FAFAFA"/>
<path d="M113.707 110.2C113.547 110.2 113.707 107.09 113.127 103.34C112.547 99.5898 111.437 96.6898 111.587 96.6298C111.965 97.2022 112.251 97.8296 112.437 98.4898C112.989 100.038 113.394 101.635 113.647 103.26C113.896 104.884 114 106.527 113.957 108.17C113.983 108.855 113.899 109.541 113.707 110.2Z" fill="#FAFAFA"/>
<path d="M116.277 189.89C116.21 188.914 116.21 187.935 116.277 186.96C116.347 185.16 116.397 182.67 116.327 179.96C116.257 177.25 116.077 174.73 115.927 172.96C115.791 171.993 115.731 171.016 115.747 170.04C116.024 170.979 116.208 171.944 116.297 172.92C116.609 175.261 116.792 177.618 116.847 179.98C116.927 182.311 116.881 184.644 116.707 186.97C116.669 187.956 116.525 188.935 116.277 189.89Z" fill="#FAFAFA"/>
<path d="M114.757 214.74C113.36 213.454 111.88 212.261 110.327 211.17C108.68 210.22 106.973 209.378 105.217 208.65C107.134 208.975 108.965 209.682 110.604 210.728C112.243 211.774 113.655 213.138 114.757 214.74Z" fill="#FAFAFA"/>
<path d="M127.277 230.14C125.074 231.567 122.779 232.847 120.407 233.97C118.116 235.256 115.741 236.386 113.297 237.35C115.502 235.924 117.797 234.641 120.167 233.51C122.459 232.229 124.834 231.103 127.277 230.14Z" fill="#FAFAFA"/>
<path d="M92.0569 236.97C90.2323 234.939 88.542 232.791 86.9969 230.54C85.3088 228.39 83.759 226.136 82.3569 223.79C84.1771 225.828 85.8671 227.979 87.4169 230.23C89.1009 232.379 90.6506 234.63 92.0569 236.97Z" fill="#FAFAFA"/>
<path d="M81.1869 208.54C81.0161 207.867 80.9387 207.174 80.9569 206.48C80.9069 205.21 80.8869 203.48 80.9569 201.48C81.0269 199.48 81.2269 197.79 81.3969 196.53C81.4447 195.848 81.5826 195.175 81.8069 194.53C81.9569 194.53 81.6569 197.67 81.4769 201.53C81.2969 205.39 81.3369 208.53 81.1869 208.54Z" fill="#FAFAFA"/>
<path d="M69.4569 257.08C67.4084 255.709 65.4571 254.199 63.6169 252.56C61.6674 251.051 59.8262 249.407 58.1069 247.64C60.1562 249.009 62.1076 250.519 63.9469 252.16C65.8966 253.669 67.7378 255.313 69.4569 257.08Z" fill="#FAFAFA"/>
<path d="M76.497 255.59C76.1739 252.989 76.0236 250.37 76.047 247.75C75.9025 245.134 75.9293 242.512 76.127 239.9C76.4501 242.5 76.6004 245.119 76.577 247.74C76.7214 250.355 76.6947 252.978 76.497 255.59Z" fill="#FAFAFA"/>
<path d="M90.3971 285.7C90.3971 285.78 89.1471 285.29 87.1371 284.64C81.9024 282.955 76.4116 282.207 70.9171 282.43C68.8071 282.51 67.5071 282.66 67.4971 282.57C67.7854 282.457 68.0885 282.386 68.3971 282.36C68.9771 282.25 69.8371 282.15 70.8971 282.06C76.4475 281.638 82.0243 282.401 87.257 284.3C88.0508 284.592 88.8286 284.926 89.5871 285.3C89.8757 285.391 90.1488 285.526 90.3971 285.7Z" fill="#FAFAFA"/>
<path d="M101.847 291.2C102.661 291.626 103.42 292.15 104.107 292.76C105.84 294.119 107.487 295.585 109.037 297.15C110.602 298.703 112.071 300.349 113.437 302.08C114.042 302.768 114.563 303.527 114.987 304.34C114.326 303.719 113.711 303.05 113.147 302.34C112.047 301.07 110.487 299.34 108.677 297.53C106.867 295.72 105.137 294.17 103.867 293.06C103.149 292.49 102.474 291.869 101.847 291.2Z" fill="#FAFAFA"/>
<path d="M106.837 239.1C105.817 237.23 104.951 235.28 104.247 233.27C103.384 231.33 102.678 229.323 102.137 227.27C103.154 229.145 104.02 231.098 104.727 233.11C105.59 235.047 106.295 237.05 106.837 239.1Z" fill="#FAFAFA"/>
<path d="M84.8772 122.49C84.7612 120.645 84.8181 118.794 85.0472 116.96C85.0959 115.112 85.3236 113.273 85.7272 111.47C85.8439 113.314 85.7903 115.165 85.5672 117C85.5115 118.847 85.2805 120.686 84.8772 122.49Z" fill="#FAFAFA"/>
<g opacity="0.3">
<path opacity="0.3" d="M95.7071 110.68C86.1371 136.59 68.9271 151.07 44.5571 164.05C58.9449 162.456 72.7336 157.406 84.7471 149.33" fill="black"/>
</g>
<path d="M66.7072 137.75C66.2815 138.378 65.766 138.941 65.1772 139.42C62.4984 141.892 59.4393 143.918 56.1172 145.42C55.4473 145.776 54.7301 146.035 53.9872 146.19C53.9272 146.04 57.0972 144.68 60.6072 142.33C64.1172 139.98 66.5572 137.63 66.7072 137.75Z" fill="#FAFAFA"/>
<path d="M69.2272 127.15C69.048 125.668 69.048 124.171 69.2272 122.69C69.2039 121.196 69.3617 119.705 69.6972 118.25C69.8801 119.73 69.8969 121.226 69.7472 122.71C69.7423 124.205 69.5678 125.694 69.2272 127.15Z" fill="#FAFAFA"/>
<path d="M49.2872 136.05C47.4957 135.517 45.7581 134.817 44.0972 133.96C42.355 133.259 40.6812 132.398 39.0972 131.39C40.8879 131.929 42.6252 132.632 44.2872 133.49C46.0301 134.185 47.7041 135.042 49.2872 136.05Z" fill="#FAFAFA"/>
<path d="M38.7072 157.25C36.6816 156.739 34.7553 155.894 33.0072 154.75C31.1684 153.752 29.5144 152.447 28.1172 150.89C28.2172 150.77 30.3472 152.56 33.2672 154.31C36.1872 156.06 38.7072 157.1 38.7072 157.25Z" fill="#FAFAFA"/>
<path d="M23.857 136.9C22.5691 138.675 21.1448 140.346 19.597 141.9C18.1731 143.583 16.6219 145.154 14.957 146.6C16.2391 144.805 17.6637 143.116 19.217 141.55C20.6368 139.878 22.1885 138.323 23.857 136.9Z" fill="#FAFAFA"/>
<path d="M22.5869 118.67C20.8833 118.094 19.3002 117.209 17.9169 116.06C16.4353 115.049 15.1452 113.782 14.1069 112.32C14.2169 112.21 15.8969 113.9 18.2369 115.64C20.5769 117.38 22.7069 118.54 22.5869 118.67Z" fill="#FAFAFA"/>
<path d="M13.2572 122.49C12.6908 123.56 11.9735 124.544 11.1272 125.41C10.4088 126.387 9.55718 127.259 8.59717 128C9.87857 125.949 11.4479 124.094 13.2572 122.49Z" fill="#FAFAFA"/>
<path d="M33.2669 88.6497C32.1027 90.4771 30.7952 92.2092 29.3569 93.8297C28.0525 95.5624 26.6112 97.1876 25.0469 98.6897C26.2123 96.86 27.5196 95.1247 28.9569 93.4997C30.2628 91.7714 31.704 90.1496 33.2669 88.6497Z" fill="#FAFAFA"/>
<path d="M16.1068 92.4997C14.5647 91.131 13.1398 89.6358 11.8468 88.0297C10.4292 86.5396 9.13806 84.9341 7.98682 83.2297C9.5306 84.593 10.9557 86.0851 12.2468 87.6897C13.6651 89.1829 14.9562 90.7918 16.1068 92.4997Z" fill="#FAFAFA"/>
<path d="M24.7072 70.7797C23.5574 69.2997 22.5528 67.7123 21.7072 66.0397C20.7164 64.4519 19.8697 62.7785 19.1772 61.0397C20.3228 62.5263 21.3272 64.1165 22.1772 65.7897C23.169 67.3736 24.0157 69.0437 24.7072 70.7797Z" fill="#FAFAFA"/>
<path d="M24.2573 56.7698C24.1373 56.6698 25.6372 54.7698 26.8272 52.0898C28.0172 49.4098 28.4472 47.0198 28.6072 47.0898C28.5701 48.9159 28.1224 50.7102 27.2972 52.3398C26.6239 54.023 25.5857 55.536 24.2573 56.7698Z" fill="#FAFAFA"/>
<path d="M7.70707 55.9697C7.5517 53.8558 7.97702 51.7395 8.93707 49.8497C9.55778 48.4936 10.3805 47.2393 11.3771 46.1297C11.7586 45.6411 12.2305 45.2303 12.7671 44.9197C11.4704 46.5144 10.3442 48.2405 9.40707 50.0697C8.62944 51.9694 8.05947 53.9476 7.70707 55.9697Z" fill="#FAFAFA"/>
<path d="M151.927 32.1497C151.467 28.0047 151.417 23.8245 151.777 19.6697C152.15 15.4896 153.751 11.513 156.377 8.2397C159.107 5.0797 163.307 3.0497 167.437 3.5797C169.997 3.9097 172.437 5.1697 174.987 5.0997C177.987 5.0097 180.557 3.1697 183.267 1.9397C187.539 0.000300288 192.325 -0.501459 196.907 0.509703C199.322 0.964894 201.558 2.09524 203.357 3.7697C204.243 4.61458 204.9 5.67096 205.266 6.83951C205.631 8.00805 205.694 9.25039 205.447 10.4497C208.469 10.317 211.495 10.5827 214.447 11.2397C217.404 11.9059 219.983 13.6999 221.637 16.2397C223.127 18.8497 223.017 22.4797 220.887 24.5897C222.295 24.4131 223.719 24.7624 224.885 25.5707C226.051 26.379 226.878 27.5893 227.207 28.9697C227.474 30.367 227.333 31.8115 226.801 33.1308C226.269 34.4501 225.368 35.5884 224.207 36.4097C221.41 38.1219 218.098 38.7879 214.857 38.2897C212.077 37.7597 208.857 36.9797 206.627 35.2897" fill="black"/>
<path d="M149.757 126.35C155.274 127.767 161.127 126.945 166.041 124.064C170.954 121.183 174.53 116.476 175.987 110.97C177.677 104.56 179.057 99.1897 179.057 99.1897C179.057 99.1897 195.767 102.06 201.297 86.1897C206.827 70.3197 216.297 32.9797 216.297 32.9797C208.566 26.0814 199.136 21.3698 188.978 19.3307C178.819 17.2917 168.301 17.999 158.507 21.3797L155.507 22.3797L134.277 99.6997C133.514 102.466 133.311 105.357 133.679 108.204C134.047 111.05 134.979 113.794 136.42 116.276C137.862 118.757 139.784 120.927 142.074 122.656C144.364 124.386 146.976 125.642 149.757 126.35Z" fill="#FFBE9D"/>
<path d="M179.157 98.9697C171.78 96.6451 165.26 92.1792 160.427 86.1397C160.427 86.1397 161.487 99.2097 177.817 103.14L179.157 98.9697Z" fill="#AA6550"/>
<path d="M151.977 39.5097C151.747 39.3097 142.147 32.6197 138.857 43.5997C135.567 54.5797 147.257 55.5997 147.367 55.3097C147.477 55.0197 151.977 39.5097 151.977 39.5097Z" fill="#FFBE9D"/>
<path d="M145.267 50.1497C145.267 50.0997 145.037 50.2197 144.667 50.2697C144.153 50.3275 143.637 50.1841 143.227 49.8697C142.227 49.0997 141.777 46.9597 142.317 44.9697C142.58 44.0158 143.055 43.1337 143.707 42.3897C143.918 42.085 144.198 41.8353 144.526 41.6613C144.853 41.4873 145.217 41.3942 145.587 41.3897C145.83 41.3873 146.065 41.4732 146.249 41.6315C146.433 41.7897 146.553 42.0094 146.587 42.2497C146.647 42.5997 146.507 42.7997 146.587 42.8397C146.667 42.8797 146.877 42.7197 146.917 42.2397C146.937 41.9527 146.859 41.6673 146.697 41.4297C146.579 41.2676 146.43 41.1309 146.258 41.0278C146.086 40.9247 145.896 40.8573 145.697 40.8297C145.219 40.7816 144.737 40.8576 144.298 41.0503C143.858 41.243 143.475 41.5459 143.187 41.9297C142.432 42.738 141.89 43.7206 141.607 44.7897C141.007 47.0197 141.517 49.4297 142.967 50.3697C143.237 50.5429 143.543 50.6535 143.861 50.6933C144.179 50.7331 144.503 50.7011 144.807 50.5997C145.167 50.3997 145.297 50.1797 145.267 50.1497Z" fill="#AA6550"/>
<path d="M202.847 55.8997C202.652 56.5011 202.228 57.0013 201.666 57.2915C201.104 57.5818 200.451 57.6386 199.847 57.4497C199.551 57.3754 199.273 57.2427 199.029 57.0593C198.785 56.876 198.58 56.6457 198.426 56.382C198.273 56.1184 198.173 55.8267 198.134 55.524C198.095 55.2214 198.116 54.9139 198.197 54.6197C198.39 54.0164 198.814 53.5139 199.376 53.2217C199.938 52.9295 200.592 52.8712 201.197 53.0597C201.494 53.1351 201.772 53.2689 202.016 53.4533C202.26 53.6376 202.465 53.8688 202.619 54.1332C202.772 54.3977 202.872 54.6901 202.911 54.9934C202.95 55.2967 202.928 55.6048 202.847 55.8997Z" fill="black"/>
<path d="M205.807 54.3597C205.427 54.5597 204.137 52.7197 201.697 51.8997C199.257 51.0797 197.047 51.7097 196.887 51.3197C196.797 51.1497 197.267 50.7097 198.237 50.3997C199.548 50.0183 200.946 50.0533 202.237 50.4997C203.508 50.9206 204.612 51.737 205.387 52.8297C205.917 53.6597 205.987 54.2797 205.807 54.3597Z" fill="black"/>
<path d="M178.847 47.8397C178.654 48.4316 178.238 48.9252 177.687 49.2163C177.137 49.5074 176.495 49.5732 175.897 49.3997C175.601 49.3254 175.323 49.1927 175.079 49.0093C174.835 48.826 174.63 48.5957 174.476 48.3321C174.323 48.0684 174.223 47.7767 174.184 47.474C174.144 47.1714 174.166 46.8639 174.247 46.5697C174.43 45.9689 174.842 45.4643 175.394 45.1649C175.946 44.8654 176.594 44.7953 177.197 44.9697C177.497 45.0436 177.78 45.1776 178.027 45.3636C178.274 45.5497 178.481 45.7839 178.635 46.0521C178.79 46.3203 178.888 46.617 178.924 46.9242C178.961 47.2315 178.934 47.5429 178.847 47.8397Z" fill="black"/>
<path d="M181.707 46.7697C181.327 46.9697 180.027 45.1197 177.587 44.3097C175.147 43.4997 172.947 44.1097 172.777 43.7197C172.697 43.5497 173.157 43.1097 174.137 42.8097C175.447 42.4224 176.846 42.4539 178.137 42.8997C179.41 43.3237 180.516 44.1392 181.297 45.2297C181.767 46.0597 181.847 46.6797 181.707 46.7697Z" fill="black"/>
<path d="M184.447 67.8398C184.447 67.6998 186.087 67.9398 188.647 68.4498C189.297 68.5998 189.927 68.6698 190.177 68.2798C190.444 67.6486 190.514 66.9513 190.377 66.2798C190.297 64.5698 190.217 62.7898 190.127 60.9098C189.837 53.2998 189.847 47.1198 190.127 47.1098C190.407 47.0998 190.917 53.2698 191.207 60.8798C191.267 62.7598 191.317 64.5398 191.367 66.2498C191.511 67.131 191.337 68.0346 190.877 68.7998C190.713 68.9896 190.508 69.1396 190.278 69.2383C190.047 69.3371 189.797 69.382 189.547 69.3698C189.169 69.3508 188.796 69.2801 188.437 69.1598C185.947 68.4898 184.407 67.9698 184.447 67.8398Z" fill="black"/>
<path d="M176.707 67.1197C177.107 67.2297 176.227 69.8797 177.867 72.5197C179.507 75.1597 182.417 75.8197 182.317 76.1897C182.317 76.3697 181.507 76.4997 180.317 76.1297C178.758 75.6309 177.426 74.5965 176.557 73.2097C175.715 71.882 175.428 70.277 175.757 68.7397C176.007 67.5997 176.517 67.0397 176.707 67.1197Z" fill="black"/>
<path d="M206.347 49.7697C205.737 50.1797 204.247 49.0397 202.237 48.3297C200.227 47.6197 198.377 47.4497 198.177 46.7397C198.097 46.3997 198.557 45.9297 199.477 45.6597C200.693 45.3672 201.97 45.443 203.143 45.8775C204.316 46.3119 205.334 47.0854 206.067 48.0997C206.587 48.9097 206.627 49.5597 206.347 49.7697Z" fill="black"/>
<path d="M181.447 36.8797C181.077 37.0797 180.447 36.7497 179.737 36.3197C178.817 35.771 177.854 35.2994 176.857 34.9097C175.846 34.5459 174.806 34.2715 173.747 34.0897C172.897 33.9197 172.237 33.7897 172.087 33.3897C171.937 32.9897 172.417 32.3897 173.497 31.9897C174.934 31.5358 176.482 31.5745 177.895 32.0998C179.308 32.6251 180.505 33.607 181.297 34.8897C181.847 35.9697 181.797 36.6897 181.447 36.8797Z" fill="black"/>
<path d="M215.467 38.1698C207.11 37.6696 199.129 34.5168 192.687 29.1698C185.507 23.2898 176.517 19.1698 174.067 20.3298C171.617 21.4898 169.287 29.7298 160.707 30.3298C160.707 30.3298 157.647 46.3298 151.427 44.3298C145.207 42.3298 154.777 18.5598 154.777 18.5598L172.027 14.4998L189.697 15.1498L205.567 18.7498L219.297 26.6398L215.467 38.1698Z" fill="black"/>
</svg>
