<?xml version="1.0" encoding="utf-8"?>
<!-- Generator: Adobe Illustrator 24.2.3, SVG Export Plug-In . SVG Version: 6.00 Build 0)  -->
<svg version="1.1" id="Layer_1" xmlns="http://www.w3.org/2000/svg" xmlns:xlink="http://www.w3.org/1999/xlink" x="0px" y="0px"
	 viewBox="0 0 90.2 306.2" style="enable-background:new 0 0 90.2 306.2;" xml:space="preserve">
<style type="text/css">
	.st0{clip-path:url(#SVGID_2_);fill:#F5F5F5;}
	.st1{clip-path:url(#SVGID_2_);fill:#E0E0E0;}
	.st2{clip-path:url(#SVGID_2_);fill:#EBEBEB;}
	.st3{clip-path:url(#SVGID_2_);fill:#8CBF43;}
	.st4{clip-path:url(#SVGID_2_);fill:#263238;}
</style>
<g>
	<defs>
		<rect id="SVGID_1_" width="90.2" height="306.2"/>
	</defs>
	<clipPath id="SVGID_2_">
		<use xlink:href="#SVGID_1_"  style="overflow:visible;"/>
	</clipPath>
	<path class="st0" d="M42.9,0.4c2.1-0.5,4.3-0.5,6.4-0.1c2.1,0.4,4.1,1.2,5.9,2.4C58.9,5,61.8,8.2,64,12c4.4,7.1,5.9,16.5,6,24.8
		c-9.2-0.5-17-7.8-20.8-11.8C43.3,18.8,36.5,3.9,42.9,0.4z"/>
	<path class="st0" d="M84.8,42.5c-1.8-1.6-3.2-3.6-4-5.9c-0.8-2.3-1-4.7-0.5-7.1c0.5-2.4,1.4-4.6,2.8-6.6c1.4-2,3.1-3.7,5.1-5
		c1.8-1.2,4.1-2.2,6.2-1.6c1,0.4,1.8,1,2.5,1.8C97.5,19,98,20,98.1,21c0.3,2.1,0,4.2-0.8,6.1C95,33.8,91.4,39.9,84.8,42.5"/>
	<path class="st1" d="M90.2,62.6c-1-1.5-1.9-3.1-2.6-4.8c-0.8-1.8-1.5-3.7-1.8-5.7c-0.5-2.4-0.9-4.8-1.2-7.2
		c-0.4-4.5,0.3-9,2.1-13.1c0.5-1.2,1.2-2.4,2-3.5c0.6-0.8,1-1.1,1-1.1c0,0-1.2,1.7-2.4,4.9c-1.5,4.1-2.1,8.5-1.8,12.8
		c0.2,2.4,0.6,4.8,1.1,7.1c0.3,1.9,0.9,3.8,1.6,5.6C89.4,60.6,90.3,62.6,90.2,62.6z"/>
	<path class="st1" d="M49.2,11.3c0.7,0.6,1.4,1.3,1.9,2c1.2,1.3,2.9,3.3,5,5.7c4.2,4.9,9.9,11.6,16,19.2s11.4,14.7,15.1,19.9
		c1.9,2.6,3.4,4.7,4.4,6.2c0.6,0.7,1.1,1.5,1.5,2.3c-0.7-0.7-1.2-1.4-1.8-2.1l-4.6-6c-3.9-5.1-9.3-12.1-15.4-19.7L55.6,19.4
		l-4.8-5.9C50.2,12.8,49.6,12.1,49.2,11.3z"/>
	<path class="st0" d="M78.5,51.5c-4.2-2.9-9-4.7-14.1-5.3c-5-0.6-10.2-0.1-14.9,1.7c-2.4,0.9-5,2.6-5.1,5.2
		c-0.1,2.6,2.5,4.4,4.9,5.4c5,2,10.5,2.4,15.8,1.3c5.3-1.1,10.1-3.8,13.9-7.7"/>
	<path class="st1" d="M56,51.8c0.4-0.2,0.9-0.4,1.4-0.5c0.9-0.3,2.2-0.5,3.9-0.9c4.3-0.8,8.8-0.9,13.2-0.1c2.4,0.5,4.7,1.4,6.8,2.6
		c2.9,1.7,5.3,4.1,7.1,6.9c0.3,0.4,0.5,0.8,0.7,1.3c-0.1,0.1-1.3-1.6-3.6-4c-3.1-3-7-5.1-11.2-5.9c-4.3-0.7-8.6-0.8-12.9-0.1
		C58.1,51.5,56,52,56,51.8z"/>
	<path class="st2" d="M92.1,254.5c29.8-14.5,41.5-48.3,45.4-79.8c0.7-5.2,2.1-10.7,0.3-15.6s-7.1-9-12.1-7.6
		c-4.2,1.2-6.6,5.4-9.3,8.8c-3.7,4.5-8.6,7.9-14.1,9.8c-3.6,1.2-7.9,1.6-10.9-0.7c-4.1-3.2-3.7-9.5-2.8-14.7l4.8-29
		c0.9-5.2,1.7-10.5,0.9-15.7c-0.8-5.2-3.7-10.3-8.4-12.5c-4.7-2.2-11.3-0.3-13.1,4.6c-0.8,2-0.7,4.3-1.2,6.4c-0.5,2.1-1.9,4.4-4,4.6
		c-2.1,0.3-4-1.5-5.3-3.3c-4.5-6.1-7.1-13.4-9.4-20.7c-2.3-7.3-4.5-14.7-8.5-21.1S34.4,56,27,54.4c-7.4-1.6-16,1.7-19.1,8.7
		c-3.1,7,0,15.1,3.7,21.8c5.5,9.9,12.4,18.9,20.5,26.8c1.4,1.4,3,3,3.3,5c0.6,3.6-3.2,6.6-6.8,7.1c-4.1,0.7-8.2-0.4-12.3-0.6
		c-4.1-0.2-8.8,0.9-10.9,4.5c-3,5,0.6,11.2,4.4,15.6c7.6,8.7,16.6,16,26.7,21.6c3.6,2,7.4,3.9,10.1,7.1c2.7,3.2,3.8,8.1,1.3,11.5
		c-2.4,3.4-7.4,3.8-11.3,2.4c-3.9-1.4-7.1-4.1-10.7-6.2c-6.7-3.8-16-4.8-21.6,0.6c-3.6,3.6-4.8,9.2-4.1,14.2s3.2,9.7,5.8,14.1
		c9.3,15.2,22.2,28.4,37.9,36.8C59.6,253.9,74.6,257.9,92.1,254.5"/>
	<path class="st1" d="M87.8,256.2c0.8-12.6,1.4-6-0.7-22.6c-2.1-16.6-5.9-34.4-10.5-53l-3.5-13.8c-1.1-4.5-2.3-9-3.7-13.3
		c-2.7-8.3-5.8-16.4-9.4-24.3c-3.3-7.6-6.8-14.7-10.1-21.3c-3.3-6.6-6.5-12.7-9.6-18.1c-4.9-8.6-10.5-16.8-16.7-24.5
		c-2.2-2.7-4-4.8-5.2-6.2l-1.4-1.6c-0.1-0.2-0.3-0.4-0.5-0.5c0.1,0.2,0.3,0.4,0.4,0.6l1.3,1.6c1.2,1.4,2.9,3.5,5,6.3
		c6.1,7.8,11.6,16,16.5,24.6c3.1,5.4,6.2,11.5,9.5,18.1c3.3,6.6,6.7,13.7,10,21.3c3.5,7.9,6.6,16,9.3,24.2c1.4,4.3,2.5,8.7,3.6,13.3
		c1.2,4.5,2.3,9.1,3.5,13.8c4.6,18.6,8.4,36.5,10.6,52.9s1.7,9.9,0.9,22.4"/>
	<path class="st1" d="M69.2,153.4c0.4-0.7,0.6-1.4,0.9-2.1c0.5-1.4,1.2-3.4,1.9-6c1.6-5.1,3.5-12.1,5.6-19.9s4.1-14.8,5.7-19.8
		c0.8-2.5,1.5-4.5,2-5.9c0.3-0.7,0.5-1.5,0.6-2.2c-0.4,0.7-0.7,1.3-1,2.1c-0.6,1.4-1.4,3.3-2.3,5.8c-1.8,5-3.9,12-6,19.8
		s-3.9,14.6-5.3,20c-0.6,2.4-1.2,4.4-1.6,6C69.5,151.9,69.3,152.7,69.2,153.4z"/>
	<path class="st1" d="M4.4,130.3c0.8,0.3,1.7,0.6,2.6,0.8c1.7,0.4,4.1,1,7.1,1.9c6,1.6,14.2,4.2,23.2,7.4c9,3.2,16.9,6.5,22.6,9
		c2.9,1.2,5.2,2.3,6.7,3c0.8,0.4,1.6,0.8,2.5,1.1c-0.7-0.5-1.5-1-2.3-1.4c-1.5-0.8-3.8-2-6.6-3.3c-5.6-2.7-13.6-6.1-22.6-9.3
		c-7.7-2.8-15.4-5.2-23.3-7.1c-3-0.8-5.5-1.2-7.2-1.6C6.2,130.5,5.3,130.4,4.4,130.3z"/>
	<path class="st1" d="M86.5,232.3c0,0,0.2-0.2,0.6-0.7l1.5-2.2c1.3-1.9,3.1-4.8,5.4-8.4c4.4-7.1,10.3-17.2,16.5-28.4
		c6.3-11.2,12-21.3,16.3-28.5c2.1-3.5,3.8-6.4,5.1-8.5c0.6-0.9,1-1.7,1.4-2.3c0.2-0.3,0.3-0.5,0.4-0.9c-0.2,0.2-0.4,0.5-0.6,0.7
		l-1.5,2.2c-1.3,1.9-3.2,4.8-5.4,8.4c-4.4,7.1-10.3,17.2-16.5,28.4c-6.3,11.2-12,21.3-16.3,28.5c-2.1,3.5-3.8,6.4-5.1,8.5l-1.4,2.3
		C86.7,231.7,86.6,232,86.5,232.3z"/>
	<path class="st1" d="M2.3,189.5c0.2,0.2,0.5,0.4,0.8,0.5l2.4,1.3c2.3,1.2,5.3,2.7,9,4.6c7.6,3.9,18.1,9.4,29.6,15.4
		c11.5,6.1,22,11.5,29.7,15.2c3.8,1.9,7,3.3,9.2,4.3l2.5,1.1c0.3,0.1,0.6,0.3,0.9,0.3c-0.2-0.2-0.5-0.4-0.8-0.5l-2.4-1.3
		c-2.3-1.2-5.3-2.7-9-4.6c-7.6-3.9-18.1-9.4-29.6-15.4c-11.5-6.1-22-11.5-29.7-15.2c-3.9-1.9-7-3.3-9.2-4.3l-2.5-1.1
		C2.9,189.7,2.6,189.6,2.3,189.5z"/>
	<path class="st3" d="M28.3,174.2c0,0,6.9-4.7,15.5,11.9s11.9,26.1,11.9,26.1s2.3,3.5,4.6,1.2c2.4-2.3,5.6-8.8,9.7-7.6
		c4.1,1.1,5.7,5.9,4.9,12.8S73.1,240.6,73,242c-0.1,1.4,0.7,3.3,2.6,2s12.5-13.4,18-8c5.4,5.4,0.2,24.3-0.3,26.4
		c-0.5,2.1-0.1,3,0.9,3.5s4.2-3.9,7.4-7.2c3.2-3.3,7.4-6.6,10.3-3.2c2.9,3.4,3.9,17.6-9.3,40.7l-6.9,10.3l-12.4-0.6
		c-26.5-2.9-37.4-12-38.4-16.3c-1-4.3,4.1-5.8,8.7-6.5s10-0.6,10.2-1.7c0.2-1.1-0.3-1.9-2.3-2.7S41,271,39.8,263.3
		c-1.2-7.6,14.9-9.1,17.1-9.9s1-2.5-0.1-3.3s-14.1-8.8-20.1-12.2s-9-7.4-7.5-11.5c1.5-4,8.6-2.8,11.9-3.3c3.3-0.6,1.8-4.4,1.8-4.4
		s-5.8-8.3-14.1-25s-0.3-19.6-0.3-19.6"/>
	<path class="st4" d="M36,189c0.1,0.1,0.1,0.2,0.2,0.3l0.5,0.9l1.8,3.4c1.5,3,3.7,7.3,6.4,12.6c5.5,10.6,13,25.2,21.2,41.4
		s15.8,30.8,21.1,41.5c2.6,5.3,4.8,9.6,6.3,12.6l1.7,3.5l0.4,0.9c0.1,0.2,0.1,0.3,0.1,0.3s-0.1-0.1-0.2-0.3l-0.5-0.9l-1.8-3.4
		l-6.4-12.6C81.5,278.6,74,264,65.6,247.8S49.8,217,44.5,206.3l-6.3-12.6c-0.7-1.5-1.3-2.6-1.7-3.4l-0.4-0.9
		C36.1,189.2,36,189.1,36,189z"/>
	<path class="st4" d="M65.9,215c-0.2,1.1-0.4,2.2-0.7,3.3c-0.5,2.1-1.1,4.8-1.8,7.8c-0.7,3-1.3,5.8-1.9,7.8c-0.3,1-0.5,1.8-0.7,2.3
		c-0.1,0.3-0.2,0.6-0.3,0.8c0.2-1.1,0.4-2.2,0.7-3.3l1.7-7.8c0.7-3.1,1.4-5.8,1.9-7.8c0.3-1,0.5-1.8,0.7-2.3
		C65.6,215.5,65.7,215.2,65.9,215z"/>
	<path class="st4" d="M59.4,237.3c0,0.1-5.7-1.3-12.7-3.3c-7-1.9-12.6-3.6-12.6-3.7c0-0.1,5.7,1.3,12.7,3.3
		C53.8,235.5,59.4,237.1,59.4,237.3z"/>
	<path class="st4" d="M75.4,265.1c-0.3,0.1-0.6,0.1-0.9,0.1c-0.6,0.1-1.4,0.1-2.5,0.2c-2.1,0.1-5,0.2-8.2,0.1
		c-3.2-0.1-6.1-0.3-8.2-0.5c-1-0.1-1.9-0.2-2.5-0.3c-0.3,0-0.6-0.1-0.9-0.2c1.1,0,2.3,0,3.4,0.2c2.1,0.1,5,0.3,8.2,0.4
		c3.2,0.1,6.1,0.1,8.2,0.1C73.1,265,74.3,265,75.4,265.1z"/>
	<path class="st4" d="M85.7,246.2c-0.4,1-0.9,1.9-1.4,2.8c-0.9,1.7-2.2,4.1-3.7,6.6c-1.4,2.6-2.8,4.9-3.8,6.6
		c-0.5,0.9-1.1,1.8-1.7,2.7c0.4-1,0.9-1.9,1.4-2.8c0.9-1.7,2.2-4.1,3.7-6.6c1.4-2.6,2.8-4.9,3.8-6.6C84.5,247.9,85.1,247,85.7,246.2
		z"/>
	<path class="st4" d="M103,269c-0.1,0.4-0.3,0.7-0.5,1l-1.4,2.6c-1.2,2.2-2.9,5.2-4.8,8.5s-3.6,6.3-4.9,8.4c-0.6,1-1.1,1.8-1.5,2.5
		c-0.2,0.3-0.4,0.6-0.6,0.9c0.1-0.4,0.3-0.7,0.4-1l1.4-2.6c1.2-2.2,2.9-5.2,4.8-8.5s3.6-6.2,4.9-8.4c0.6-1,1.1-1.8,1.5-2.5
		C102.6,269.5,102.8,269.2,103,269z"/>
	<path class="st4" d="M89.5,292.1c-0.4,0.1-0.8,0.1-1.2,0.1c-0.8,0-1.8,0-3.2,0.1c-2.7,0-6.3,0-10.4-0.3c-4.1-0.3-7.7-0.6-10.4-0.9
		c-1.3-0.2-2.4-0.3-3.1-0.4c-0.4,0-0.8-0.1-1.1-0.2c0.4,0,0.8,0,1.2,0l3.1,0.3c2.6,0.2,6.3,0.5,10.4,0.7c4.1,0.2,7.7,0.3,10.4,0.4
		l3.2,0.1C88.7,292,89.1,292,89.5,292.1z"/>
</g>
</svg>
