<svg width="139" height="307" viewBox="0 0 139 307" fill="none" xmlns="http://www.w3.org/2000/svg">
<path d="M42.9366 0.394183C45.039 -0.0813237 47.2157 -0.127131 49.3363 0.259512C51.4568 0.646155 53.4773 1.45727 55.2766 2.64418C58.8599 5.0406 61.8436 8.22957 63.9966 11.9642C68.3766 19.0342 69.8566 28.4942 69.9966 36.8042C60.7666 36.3442 52.9966 29.0142 49.2166 25.0542C43.3266 18.7842 36.4766 3.86418 42.9366 0.394183Z" fill="#F5F5F5"/>
<path d="M84.8064 42.5142C82.969 40.9533 81.5774 38.934 80.773 36.6612C79.9686 34.3885 79.78 31.9434 80.2264 29.5742C80.7101 27.2102 81.6594 24.9662 83.0192 22.9729C84.3789 20.9796 86.1219 19.2769 88.1464 17.9642C89.9964 16.7342 92.2664 15.7542 94.3964 16.4042C95.3712 16.7683 96.2315 17.3854 96.8888 18.1921C97.5461 18.9988 97.9767 19.9659 98.1364 20.9942C98.4156 23.0631 98.1502 25.1692 97.3664 27.1042C94.9664 33.8042 91.4264 39.8542 84.8064 42.4742" fill="#F5F5F5"/>
<path d="M90.1666 62.6242C89.1352 61.1032 88.2607 59.4816 87.5566 57.7842C86.7155 55.9584 86.0977 54.0379 85.7166 52.0642C85.1741 49.6788 84.7899 47.2602 84.5666 44.8242C84.1765 40.3433 84.8907 35.8351 86.6466 31.6942C87.1912 30.4619 87.8614 29.289 88.6466 28.1942C89.2466 27.4442 89.6466 27.0642 89.6466 27.1042C89.6466 27.1442 88.4466 28.8442 87.1966 31.9542C85.667 36.0373 85.0658 40.4098 85.4366 44.7542C85.6572 47.152 86.0111 49.5357 86.4966 51.8942C86.8323 53.8215 87.3686 55.7084 88.0966 57.5242C89.4466 60.6342 90.3066 62.5642 90.1666 62.6242Z" fill="#E0E0E0"/>
<path d="M49.1567 11.2942C49.862 11.9014 50.5113 12.5708 51.0967 13.2942C52.2867 14.6242 53.9967 16.5742 56.0967 18.9942C60.2667 23.8442 65.9567 30.6042 72.0967 38.2142C78.2367 45.8242 83.4767 52.8942 87.2267 58.0842C89.0967 60.6742 90.5867 62.7842 91.5867 64.2742C92.1507 65.0128 92.6493 65.7991 93.0767 66.6242C92.4244 65.962 91.829 65.2462 91.2967 64.4842L86.6967 58.4842C82.8167 53.4042 77.4167 46.4242 71.3167 38.8142L55.5767 19.4142L50.8167 13.5342C50.2048 12.8328 49.6498 12.0837 49.1567 11.2942Z" fill="#E0E0E0"/>
<path d="M78.5166 51.5042C74.3184 48.6397 69.4983 46.8163 64.4552 46.185C59.4122 45.5538 54.2914 46.1328 49.5166 47.8742C47.0966 48.7742 44.5166 50.4642 44.3966 53.0442C44.2766 55.6242 46.8566 57.4642 49.2466 58.4642C54.2651 60.4513 59.7599 60.9067 65.0371 59.773C70.3142 58.6392 75.1371 55.9672 78.8966 52.0942" fill="#F5F5F5"/>
<path d="M55.9966 51.7942C56.4312 51.5627 56.9007 51.4039 57.3866 51.3242C58.2866 51.0642 59.6166 50.7742 61.2666 50.4642C65.6066 49.6268 70.0631 49.5895 74.4166 50.3542C76.816 50.8501 79.1191 51.7315 81.2366 52.9642C84.1036 54.6802 86.5392 57.0304 88.3566 59.8342C88.6603 60.22 88.9001 60.6522 89.0666 61.1142C88.9166 61.2242 87.7766 59.4742 85.4166 57.1642C82.3374 54.1544 78.4496 52.1046 74.2266 51.2642C69.9745 50.538 65.6344 50.4874 61.3666 51.1142C58.0666 51.5442 55.9966 51.9642 55.9966 51.7942Z" fill="#E0E0E0"/>
<path d="M92.0567 254.514C121.877 240.034 133.507 206.204 137.417 174.754C138.077 169.504 139.527 164.094 137.767 159.114C136.007 154.134 130.717 150.114 125.687 151.544C121.527 152.744 119.117 156.994 116.357 160.374C112.668 164.891 107.776 168.271 102.247 170.124C98.6467 171.314 94.3667 171.714 91.3667 169.384C87.2567 166.184 87.7167 159.874 88.5767 154.684L93.3767 125.684C94.2367 120.494 95.0967 115.194 94.2667 110.004C93.4367 104.814 90.5967 99.6742 85.8767 97.5042C81.1567 95.3342 74.5967 97.2142 72.7467 102.124C71.9667 104.124 72.0567 106.434 71.5667 108.574C71.0767 110.714 69.6967 112.934 67.5667 113.204C65.4367 113.474 63.5667 111.684 62.2467 109.914C57.7267 103.814 55.1567 96.4842 52.8267 89.2242C50.4967 81.9642 48.2767 74.5642 44.3167 68.0742C40.3567 61.5842 34.3567 55.9642 26.9967 54.3642C19.6367 52.7642 10.9967 56.0942 7.92667 63.0942C4.85667 70.0942 7.92667 78.2242 11.6667 84.8942C17.1664 94.7826 24.0642 103.826 32.1467 111.744C33.5967 113.164 35.1467 114.744 35.4867 116.744C36.0667 120.384 32.2367 123.304 28.6367 123.894C24.5667 124.564 20.4267 123.494 16.2967 123.334C12.1667 123.174 7.50667 124.254 5.36667 127.834C2.36667 132.834 5.94667 139.074 9.73667 143.414C17.3236 152.108 26.3525 159.428 36.4267 165.054C40.0167 167.054 43.8467 168.924 46.4967 172.104C49.1467 175.284 50.2667 180.244 47.8267 183.604C45.3867 186.964 40.4167 187.374 36.5367 185.994C32.6567 184.614 29.4167 181.874 25.8267 179.834C19.1267 176.004 9.82667 175.024 4.27667 180.464C0.626673 184.024 -0.533327 189.624 0.216673 194.704C0.966673 199.784 3.38667 204.424 6.04667 208.784C15.3467 224.024 28.2667 237.164 43.9167 245.544C59.5667 253.924 74.6467 257.914 92.0567 254.544" fill="#EBEBEB"/>
<path d="M87.8266 256.174C88.6666 243.604 89.2266 250.174 87.1066 233.614C84.9866 217.054 81.2166 199.184 76.6066 180.614L73.1366 166.854C71.9866 162.344 70.8566 157.854 69.4666 153.554C66.7964 145.283 63.6682 137.168 60.0966 129.244C56.7466 121.614 53.2866 114.534 49.9966 107.964C46.7066 101.394 43.5066 95.2842 40.3666 89.8642C35.4462 81.2745 29.852 73.0889 23.6366 65.3842C21.4466 62.6642 19.6366 60.6142 18.4566 59.2342L17.0566 57.6742C16.9082 57.4872 16.7406 57.3163 16.5566 57.1642C16.6813 57.3707 16.8253 57.5649 16.9866 57.7442L18.3066 59.3642C19.4766 60.7742 21.1966 62.8742 23.3066 65.6242C29.4016 73.3921 34.9069 81.605 39.7766 90.1942C42.8766 95.6242 46.0166 101.714 49.2866 108.304C52.5566 114.894 55.9966 121.964 59.2866 129.574C62.8212 137.475 65.9192 145.564 68.5666 153.804C69.9366 158.094 71.0566 162.534 72.2066 167.064C73.3566 171.594 74.4966 176.174 75.6666 180.814C80.2766 199.404 84.0866 217.274 86.2266 233.734C88.3666 250.194 87.8966 243.604 87.1466 256.134" fill="#E0E0E0"/>
<path d="M69.2065 153.434C69.5656 152.752 69.8538 152.035 70.0665 151.294C70.5665 149.904 71.2165 147.874 71.9965 145.294C73.5565 140.234 75.4665 133.184 77.5465 125.404C79.6265 117.624 81.6365 110.604 83.2665 105.594C84.0665 103.084 84.7465 101.054 85.2665 99.6642C85.5642 98.9538 85.7822 98.2126 85.9165 97.4542C85.5118 98.1073 85.1767 98.8011 84.9165 99.5242C84.3265 100.884 83.5465 102.874 82.6565 105.374C80.8565 110.374 78.7365 117.374 76.6565 125.144C74.5765 132.914 72.7865 139.784 71.3765 145.144C70.7365 147.534 70.1865 149.554 69.7465 151.144C69.4729 151.882 69.2916 152.652 69.2065 153.434Z" fill="#E0E0E0"/>
<path d="M4.4165 130.324C5.26389 130.657 6.14123 130.908 7.0365 131.074C8.7165 131.494 11.1665 132.074 14.1665 132.934C20.1665 134.574 28.3965 137.114 37.3465 140.324C46.2965 143.534 54.2665 146.814 59.9665 149.324C62.8265 150.574 65.1165 151.644 66.6965 152.324C67.4965 152.759 68.3372 153.114 69.2065 153.384C68.472 152.845 67.6886 152.377 66.8665 151.984C65.3265 151.154 63.0765 149.984 60.2465 148.654C54.6065 145.964 46.6465 142.584 37.6765 139.354C30.0235 136.577 22.2333 134.194 14.3365 132.214C11.3365 131.464 8.8265 130.964 7.1065 130.644C6.22116 130.458 5.32091 130.35 4.4165 130.324Z" fill="#E0E0E0"/>
<path d="M86.4766 232.254C86.4766 232.254 86.7066 232.024 87.0666 231.514L88.5966 229.284C89.9066 227.334 91.7366 224.474 93.9566 220.904C98.3966 213.764 104.217 203.714 110.487 192.534C116.757 181.354 122.487 171.264 126.767 164.044C128.867 160.544 130.587 157.654 131.867 155.514C132.417 154.584 132.867 153.814 133.247 153.184C133.424 152.921 133.566 152.635 133.667 152.334C133.437 152.553 133.239 152.802 133.077 153.074L131.557 155.304C130.237 157.254 128.407 160.114 126.187 163.684C121.747 170.824 115.927 180.874 109.657 192.054C103.387 203.234 97.6566 213.324 93.3766 220.544C91.2766 224.044 89.5566 226.934 88.2766 229.074L86.9066 231.404C86.7239 231.666 86.5792 231.952 86.4766 232.254Z" fill="#E0E0E0"/>
<path d="M2.30664 189.544C2.55606 189.747 2.83192 189.915 3.12664 190.044L5.56664 191.314C7.82664 192.464 10.8666 194.024 14.5666 195.904C22.1766 199.784 32.6266 205.264 44.1566 211.334C55.6866 217.404 66.1566 222.794 73.8966 226.514C77.7366 228.374 80.8966 229.844 83.0466 230.824L85.5666 231.964C85.8551 232.109 86.1609 232.217 86.4766 232.284C86.2272 232.081 85.9514 231.913 85.6566 231.784L83.2166 230.514C80.9566 229.364 77.9166 227.804 74.2166 225.924C66.6066 222.044 56.1566 216.564 44.6266 210.494C33.0966 204.424 22.6266 199.034 14.8966 195.314C10.9966 193.424 7.90664 191.964 5.72664 190.964L3.20664 189.864C2.92195 189.719 2.61936 189.611 2.30664 189.544Z" fill="#E0E0E0"/>
<path d="M28.2568 174.234C28.2568 174.234 35.1568 169.574 43.7768 186.104C52.3968 202.634 55.6968 212.184 55.6968 212.184C55.6968 212.184 57.9668 215.644 60.3368 213.344C62.7068 211.044 65.9168 204.564 69.9968 205.694C74.0768 206.824 75.6568 211.544 74.9168 218.464C74.1768 225.384 73.1168 240.604 72.9968 241.964C72.8768 243.324 73.6968 245.294 75.5568 243.964C77.4168 242.634 88.1068 230.534 93.5568 235.964C99.0068 241.394 93.7868 260.314 93.2468 262.394C92.7068 264.474 93.1368 265.394 94.1268 265.864C95.1168 266.334 98.3268 261.954 101.507 258.634C104.687 255.314 108.957 252.004 111.837 255.394C114.717 258.784 115.767 272.944 102.497 296.084L95.6468 306.404L83.2168 305.834C56.6868 302.984 45.8368 293.834 44.7968 289.504C43.7568 285.174 48.9168 283.664 53.4768 283.044C58.0368 282.424 63.4768 282.414 63.6668 281.314C63.8568 280.214 63.3668 279.364 61.3668 278.574C59.3668 277.784 40.9968 270.964 39.8268 263.324C38.6568 255.684 54.7268 254.204 56.8868 253.454C59.0468 252.704 57.8868 250.914 56.7468 250.194C55.6068 249.474 42.6368 241.384 36.6068 237.964C30.5768 234.544 27.6068 230.594 29.1568 226.484C30.6368 222.484 37.7668 223.734 41.0268 223.164C44.2868 222.594 42.8068 218.724 42.8068 218.724C42.8068 218.724 37.0068 210.454 28.6968 193.724C20.3868 176.994 28.4068 174.154 28.4068 174.154" fill="#8CBF43"/>
<path d="M35.9966 189.024C36.0586 189.118 36.1154 189.214 36.1666 189.314L36.6366 190.204L38.3866 193.614C39.9066 196.614 42.0966 200.904 44.7866 206.194C50.2366 216.814 57.7866 231.444 66.0366 247.614C74.2866 263.784 81.8566 278.444 87.1766 289.104C89.8166 294.424 91.9466 298.744 93.4366 301.754L95.1066 305.204L95.5366 306.114C95.6266 306.314 95.6666 306.424 95.6666 306.424C95.6666 306.424 95.5966 306.334 95.4866 306.134L95.0266 305.254L93.2666 301.834L86.8766 289.254C81.4866 278.634 73.9966 263.964 65.6266 247.834C57.2566 231.704 49.8166 216.964 44.4866 206.344L38.2266 193.694C37.5166 192.214 36.9566 191.054 36.5566 190.244L36.1366 189.344C36.0756 189.244 36.0285 189.137 35.9966 189.024Z" fill="#263238"/>
<path d="M65.8664 214.964C65.7101 216.065 65.4796 217.154 65.1763 218.224C64.6963 220.354 64.0763 223.054 63.3863 226.054C62.6963 229.054 62.0463 231.884 61.5163 233.874C61.2463 234.874 61.0163 235.664 60.8363 236.214C60.7636 236.507 60.6527 236.79 60.5063 237.054C60.6739 235.956 60.9009 234.868 61.1863 233.794L62.9163 225.964C63.6163 222.904 64.2963 220.144 64.8463 218.154C65.1263 217.154 65.3664 216.364 65.5464 215.824C65.609 215.523 65.7169 215.233 65.8664 214.964Z" fill="#263238"/>
<path d="M59.3764 237.264C59.3764 237.384 53.6564 235.924 46.6764 233.994C39.6964 232.064 34.0764 230.384 34.1164 230.254C34.1564 230.124 39.8264 231.594 46.8064 233.524C53.7864 235.454 59.4064 237.134 59.3764 237.264Z" fill="#263238"/>
<path d="M75.4166 265.084C75.1205 265.168 74.8144 265.212 74.5066 265.214C73.9266 265.274 73.0766 265.334 72.0266 265.384C69.9266 265.484 67.0266 265.554 63.8066 265.464C60.5866 265.374 57.7066 265.144 55.6166 264.924C54.6166 264.814 53.7266 264.704 53.1366 264.614C52.8325 264.592 52.533 264.528 52.2466 264.424C53.3788 264.407 54.511 264.46 55.6366 264.584C57.7366 264.724 60.6366 264.894 63.8266 264.984C67.0166 265.074 69.9166 265.064 72.0166 265.044C73.1496 264.985 74.2853 264.998 75.4166 265.084Z" fill="#263238"/>
<path d="M85.7368 246.184C85.3448 247.145 84.8801 248.074 84.3468 248.964C83.4268 250.674 82.1368 253.024 80.6868 255.604C79.2368 258.184 77.8968 260.514 76.9068 262.184C76.4139 263.11 75.8488 263.997 75.2168 264.834C75.6069 263.86 76.0716 262.917 76.6068 262.014C77.5268 260.304 78.8168 257.954 80.2668 255.374C81.7168 252.794 83.0568 250.474 84.0468 248.804C84.5433 247.889 85.1082 247.014 85.7368 246.184Z" fill="#263238"/>
<path d="M102.996 268.964C102.889 269.315 102.738 269.651 102.546 269.964L101.136 272.554C99.9364 274.724 98.2464 277.714 96.3564 281.004C94.4664 284.294 92.7264 287.264 91.4464 289.394C90.8364 290.394 90.3264 291.234 89.9164 291.914C89.7366 292.229 89.5291 292.527 89.2964 292.804C89.4036 292.453 89.5548 292.117 89.7464 291.804L91.1564 289.214C92.3564 287.034 94.0464 284.044 95.9364 280.754C97.8264 277.464 99.5664 274.504 100.846 272.374C101.446 271.374 101.966 270.534 102.376 269.854C102.553 269.538 102.761 269.239 102.996 268.964Z" fill="#263238"/>
<path d="M89.4764 292.104C89.0988 292.185 88.7124 292.219 88.3264 292.204C87.5764 292.204 86.4964 292.254 85.1664 292.264C82.5064 292.264 78.8164 292.264 74.7564 291.994C70.6964 291.724 67.0164 291.424 64.3764 291.114C63.0464 290.964 61.9764 290.814 61.2464 290.704C60.8588 290.672 60.4762 290.595 60.1064 290.474C60.4923 290.439 60.8806 290.439 61.2664 290.474L64.4064 290.734C67.0564 290.964 70.7264 291.254 74.7764 291.474C78.8264 291.694 82.5064 291.814 85.1664 291.884L88.3264 291.974C88.7131 291.98 89.0983 292.023 89.4764 292.104Z" fill="#263238"/>
</svg>
