<svg width="824" height="457" viewBox="0 0 824 457" fill="none" xmlns="http://www.w3.org/2000/svg">
<path d="M717.091 215.492L607.589 240.511L624.453 314.321L733.955 289.302L717.091 215.492Z" fill="#F0F0F1"/>
<path d="M717.655 216.265C717.423 216.697 717.155 217.109 716.855 217.497L714.392 220.871L705.266 233.186C697.422 243.592 686.683 257.816 674.775 273.591L674.528 273.923L674.147 273.739L673.248 273.295L627.104 250.895L613.163 243.998L609.407 242.077C608.957 241.872 608.524 241.629 608.114 241.351C608.591 241.485 609.053 241.667 609.494 241.892L613.336 243.641L627.412 250.242L673.679 272.409L674.59 272.84L673.962 273L704.749 232.779C708.653 227.743 711.842 223.629 714.133 220.698L716.719 217.435C716.99 217.014 717.303 216.622 717.655 216.265V216.265Z" fill="#F0F0F1"/>
<path d="M625.047 315.092C624.801 314.969 630.725 302.975 638.274 288.295C645.823 273.616 652.165 261.831 652.411 261.966C652.657 262.101 646.734 274.096 639.185 288.763C631.636 303.43 625.257 315.228 625.047 315.092Z" fill="#F0F0F1"/>
<path d="M688.568 252.718C688.74 252.508 699.171 260.685 711.868 271.005C724.564 281.325 734.699 289.859 734.515 290.069C734.33 290.278 723.912 282.113 711.215 271.793C698.518 261.473 688.383 252.939 688.568 252.718Z" fill="#F0F0F1"/>
<path d="M229.286 14.8001L219.244 58.2974L283.776 73.1957L293.818 29.6985L229.286 14.8001Z" fill="#F0F0F1"/>
<path d="M293.925 30.2859C293.69 30.4471 293.443 30.5912 293.187 30.7169L291.031 31.8745L283.027 36.0492L256.464 49.5956L256.242 49.7064L256.082 49.5094L255.712 49.0537L237.006 25.323L231.391 18.0818L229.888 16.0991C229.699 15.8748 229.534 15.6312 229.396 15.3726C229.61 15.5702 229.804 15.7889 229.974 16.0252L231.575 17.9341L237.339 25.0644L256.193 48.7089L256.562 49.1769L256.193 49.103L282.842 35.6675L290.921 31.6775L293.137 30.6184C293.384 30.4728 293.649 30.361 293.925 30.2859V30.2859Z" fill="black"/>
<path d="M219.346 58.8688C219.247 58.7456 225.503 53.9428 233.262 48.0563C241.02 42.1698 247.436 37.601 247.535 37.7241C247.633 37.8473 241.377 42.6501 233.619 48.5366C225.86 54.4231 219.444 59.0042 219.346 58.8688Z" fill="black"/>
<path d="M269.148 42.1333C269.296 42.1333 272.732 49.0912 276.808 57.8348C280.884 66.5783 284.061 73.7086 283.914 73.8441C283.766 73.9796 280.342 66.8862 276.266 58.1426C272.19 49.3991 268.963 42.2072 269.148 42.1333Z" fill="black"/>
<path d="M638.374 25.7099L591.226 45.9666L604.881 77.7498L652.03 57.4931L638.374 25.7099Z" fill="#F0F0F1"/>
<path d="M638.667 25.9756C638.602 26.1889 638.515 26.3951 638.409 26.5913C638.199 27.0224 637.928 27.5888 637.596 28.3031C636.845 29.8301 635.786 31.9976 634.505 34.5714L624.123 55.2357L624.037 55.4081H623.853L623.409 55.285L600.836 48.9675L594.001 47.0217L592.154 46.4675L591.514 46.2459C591.74 46.258 591.963 46.2994 592.179 46.369L594.051 46.8493L600.922 48.598L623.532 54.7554L623.976 54.8786L623.717 54.9894L634.209 34.399C635.552 31.8005 636.672 29.6947 637.436 28.2415L638.323 26.5667C638.422 26.3612 638.538 26.1635 638.667 25.9756V25.9756Z" fill="#F0F0F1"/>
<path d="M605.171 78.0186C605.048 78.0186 606.723 72.1075 608.866 64.8909C611.009 57.6744 612.93 51.8495 613.053 51.8987C613.176 51.948 611.501 57.8099 609.359 65.0264C607.216 72.2429 605.344 78.0555 605.171 78.0186Z" fill="#F0F0F1"/>
<path d="M628.594 44.7563C628.656 44.6455 634.025 47.4656 640.577 51.0615C647.128 54.6575 652.387 57.65 652.325 57.7608C652.263 57.8717 646.906 55.0516 640.355 51.4679C633.803 47.8843 628.533 44.9041 628.594 44.7563Z" fill="#F0F0F1"/>
<path d="M700.784 347.16C695.752 344.005 690.066 342.042 684.159 341.421C681.437 341.138 678.457 341.224 676.265 342.874C676.014 343.021 675.806 343.231 675.663 343.484C675.521 343.738 675.448 344.024 675.452 344.315C675.588 344.724 675.863 345.072 676.228 345.3C679.774 347.826 683.943 349.334 688.284 349.662C692.625 349.99 696.973 349.124 700.858 347.16" fill="#8CBF43"/>
<path d="M700.353 346.692C696.488 343.855 692.883 340.682 689.577 337.209C686.258 333.721 683.928 329.41 682.828 324.722C682.609 324.028 682.542 323.293 682.634 322.571C682.725 321.848 682.972 321.153 683.358 320.535C691.978 327.247 698.69 335.916 700.353 346.692" fill="#8CBF43"/>
<path d="M700.698 347.098C699.895 342.41 699.962 337.613 700.895 332.948C701.86 328.251 704.549 324.086 708.432 321.274C709.91 324.747 709.282 328.749 708.235 332.357C706.616 337.971 704.091 343.283 700.76 348.083" fill="#8CBF43"/>
<path d="M709.122 362.184C703.999 362.812 699.553 365.497 695.735 368.958C691.899 372.45 689.229 377.037 688.088 382.097C693.1 381.79 697.349 378.255 700.403 374.29C703.457 370.324 705.624 365.977 709.023 362.258" fill="#8CBF43"/>
<path d="M710.944 364.598C708.934 359.488 708.23 353.958 708.894 348.507C709.559 343.056 711.571 337.857 714.749 333.38C717.668 343.749 716.596 355.448 710.944 364.598Z" fill="#8CBF43"/>
<path d="M722.064 377.849C717.396 377.555 712.745 378.641 708.69 380.971C704.635 383.301 701.354 386.772 699.257 390.952C698.974 391.519 698.727 392.245 699.097 392.75C699.296 392.939 699.537 393.078 699.8 393.155C700.064 393.232 700.342 393.245 700.611 393.193C705.106 392.898 709.096 390.189 712.384 387.11C715.673 384.031 718.542 380.472 722.236 377.812" fill="#8CBF43"/>
<path d="M721.72 377.123C719.32 369.415 719.17 361.182 721.289 353.392C722.127 350.338 723.53 347.112 726.35 345.683C726.454 345.606 726.574 345.556 726.702 345.537C726.829 345.517 726.959 345.53 727.08 345.572C727.202 345.615 727.311 345.686 727.399 345.781C727.486 345.875 727.549 345.99 727.582 346.114C728.549 348.247 728.972 350.587 728.813 352.924C728.651 355.248 728.297 357.555 727.754 359.821C726.855 364.032 726.387 368.564 724.06 372.135C723.516 373.012 723.027 373.921 722.594 374.857C722.151 375.781 722.151 376.088 721.757 376.84" fill="#8CBF43"/>
<path d="M751.164 381.519C748.985 373.219 751.3 363.157 756.534 356.347C756.916 355.842 757.42 355.313 758.048 355.374C759.021 355.46 759.28 356.741 759.28 357.714C758.888 366.249 756.096 374.499 751.226 381.519" fill="#8CBF43"/>
<path d="M753.824 383.329C758.978 384.535 764.332 384.609 769.518 383.546C774.703 382.483 779.596 380.308 783.86 377.172C778.832 374.643 773.082 373.937 767.592 375.177C762.161 376.408 757.198 378.871 753.824 383.28" fill="#8CBF43"/>
<path d="M756.053 377.799C761.705 368.6 772.53 362.591 783.318 362.036C782.086 366.42 778.466 369.832 774.402 371.888C770.236 373.762 765.831 375.046 761.311 375.706C759.575 376.051 757.186 376.42 756.053 377.787" fill="#8CBF43"/>
<path d="M751.731 350.99C753.442 345.788 754.61 340.423 755.216 334.981C755.815 329.515 754.701 323.998 752.027 319.193C746.756 329.402 746.226 341.36 751.571 351.495" fill="#8CBF43"/>
<path d="M769.489 342.012C775.647 330.806 788.245 321.84 800.978 320.584C796.052 332.825 782.666 342.271 769.489 342.012Z" fill="#8CBF43"/>
<path d="M765.597 344.155C774.808 345.559 782.64 351.433 791.236 354.992C793.039 355.865 795.038 356.252 797.037 356.113C797.966 356.103 798.87 355.808 799.625 355.267C800.381 354.726 800.952 353.966 801.261 353.089C801.57 352.213 801.602 351.263 801.353 350.367C801.104 349.472 800.586 348.675 799.869 348.084C798.655 346.961 797.226 346.094 795.67 345.535C786.298 341.631 776.261 341.532 766.397 343.897" fill="#8CBF43"/>
<path d="M760.277 350.657C762.359 351.261 763.073 352.332 764.723 353.736C770.348 358.52 777.003 361.938 784.168 363.724C784.907 363.908 785.88 363.982 786.249 363.317C786.619 362.652 786.163 362.024 785.744 361.495C782.619 357.833 778.565 355.08 774.008 353.527C769.526 351.852 765.634 349.832 760.277 350.276" fill="#8CBF43"/>
<path d="M754.267 311.693C758.041 315.171 762.5 317.822 767.359 319.474C772.218 321.126 777.369 321.743 782.48 321.287C782.93 321.275 783.363 321.115 783.712 320.831C784.426 320.055 783.564 318.861 782.739 318.22C774.451 311.755 764.402 309.07 754.218 311.693" fill="#8CBF43"/>
<path d="M761.398 309.083C766.391 305.407 772.182 302.966 778.3 301.957C784.417 300.949 790.686 301.403 796.594 303.282C791.991 307.559 786.083 310.161 779.821 310.671C773.62 311.247 767.366 310.721 761.349 309.12" fill="#8CBF43"/>
<path d="M758.566 291.201C757.753 282.925 758.282 276.423 757.703 268.074C757.703 267.409 757.519 266.608 756.891 266.374C756.029 266.042 755.302 267.101 755.019 267.987C753.817 271.842 753.51 275.92 754.122 279.911C754.735 283.901 756.25 287.7 758.553 291.016" fill="#8CBF43"/>
<path d="M757.975 292.087C763.379 288.595 768.038 284.067 771.681 278.763C774.39 275.068 776.607 270.623 776.053 266.066C774.152 266.126 772.287 266.598 770.586 267.448C768.886 268.299 767.389 269.508 766.201 270.992C763.837 273.989 762.122 277.445 761.164 281.14C760.068 284.834 759.292 288.528 758.012 292.1" fill="#8CBF43"/>
<path d="M771.434 288.344C783.779 283.782 795.207 277.046 805.177 268.456C801.15 266.83 796.556 267.803 792.505 269.428C783.359 272.895 775.801 279.594 771.262 288.258" fill="#8CBF43"/>
<path d="M761.743 296.62C767.954 297.504 774.256 297.533 780.474 296.706C786.558 295.696 792.296 293.283 797.974 290.894C798.486 290.767 798.929 290.444 799.205 289.995C799.294 289.733 799.302 289.451 799.227 289.185C799.152 288.918 798.999 288.681 798.786 288.504C798.352 288.157 797.841 287.916 797.296 287.802C791.139 286.078 784.464 286.879 778.393 288.923C772.59 290.901 767.01 293.481 761.743 296.62" fill="#8CBF43"/>
<path d="M726.19 311.976C721.941 303.356 722.212 293.381 725.882 284.539C728.468 288.479 728.788 293.491 728.345 298.183C727.902 302.875 726.436 307.691 726.35 312.395" fill="#8CBF43"/>
<path d="M709.208 303.405C703.888 303.339 698.613 304.382 693.719 306.468C688.826 308.555 684.42 311.639 680.785 315.523C686.147 316.159 691.576 315.15 696.351 312.629C701.091 310.118 705.56 307.126 709.688 303.701" fill="#8CBF43"/>
<path d="M697.804 299.588C692.607 299.169 687.619 298.529 682.619 300.056C680.095 300.766 677.755 302.015 675.759 303.716C673.763 305.416 672.158 307.528 671.056 309.908C675.953 310.293 680.863 309.362 685.279 307.211C689.673 305.058 693.865 302.515 697.804 299.612" fill="#8CBF43"/>
<path d="M714.701 299.822C710.033 296.756 705.23 293.665 699.8 292.372C694.369 291.079 688.063 292.039 684.271 296.14C688.667 298.726 694.012 299.034 699.048 299.022C704.085 299.009 710.415 298.96 715.218 300.672" fill="#8CBF43"/>
<path d="M714.724 300.019C706.744 292.174 703.715 278.098 706.929 267.372C713.229 277.023 715.984 288.562 714.724 300.019" fill="#8CBF43"/>
<path d="M736.682 277.803C738.184 274.305 739.243 270.635 740.585 267.064C741.826 263.464 743.722 260.124 746.176 257.212C748.662 254.279 752.2 252.44 756.028 252.089C754.802 257.498 752.461 262.591 749.155 267.044C745.849 271.497 741.652 275.211 736.829 277.95" fill="#8CBF43"/>
<path d="M732.704 282.433C730.241 278.997 727.334 274.354 723.96 271.793C720.586 269.231 716.177 267.68 712.052 268.665C714.187 272.408 717.165 275.601 720.75 277.991C724.335 280.381 728.428 281.902 732.704 282.433" fill="#8CBF43"/>
<path d="M733.505 278.086C731.709 274.002 730.387 269.725 729.564 265.34C728.742 260.917 729.445 256.345 731.559 252.373C735.943 260.648 737.347 269.54 733.726 278.234" fill="#8CBF43"/>
<path d="M736.719 252.373C739.182 244.158 746.718 238.112 754.834 235.341C755.839 234.927 756.929 234.762 758.011 234.861C758.551 234.919 759.062 235.136 759.478 235.485C759.895 235.833 760.198 236.298 760.351 236.819C760.647 238.21 759.501 239.467 758.405 240.39C752.061 245.81 744.684 249.886 736.719 252.373" fill="#8CBF43"/>
<path d="M736.805 245.636C737.125 240.341 737.458 234.972 739.169 229.959C740.881 224.947 744.219 220.243 749.021 218.039C749.846 223.383 747.482 228.703 744.637 233.309C741.793 237.915 738.357 242.25 736.657 247.385" fill="#8CBF43"/>
<path d="M736.682 249.33C734.625 243.345 734.416 235.784 730.832 230.538C728.369 226.843 724.318 224.38 722.212 220.551C720.917 224.252 721.098 228.309 722.717 231.88C724.346 235.415 726.594 238.63 729.354 241.375C732.002 244.207 734.28 246.301 736.743 249.33" fill="#8CBF43"/>
<path d="M736.719 425.532C736.559 425.532 736.423 385.607 736.411 336.372C736.399 287.137 736.522 247.213 736.682 247.213C736.842 247.213 736.978 287.125 736.99 336.372C737.002 385.62 736.879 425.532 736.719 425.532Z" fill="black"/>
<path d="M771.595 305.979C771.112 306.209 770.61 306.395 770.093 306.533L765.955 307.925C762.482 309.156 757.692 310.831 752.495 312.962C747.298 315.092 742.508 316.964 739.749 319.353C738.65 320.274 737.774 321.432 737.188 322.74C736.793 323.676 736.72 324.255 736.67 324.242C736.621 324.23 736.67 324.094 736.67 323.823C736.731 323.429 736.83 323.041 736.966 322.666C737.478 321.275 738.324 320.032 739.429 319.045C741.094 317.636 742.957 316.478 744.958 315.609C747.175 314.575 749.626 313.504 752.236 312.432C757.446 310.289 762.261 308.627 765.783 307.506C767.544 306.952 768.985 306.558 769.982 306.275C770.507 306.117 771.048 306.018 771.595 305.979V305.979Z" fill="black"/>
<path d="M783.035 277.865C782.914 278.029 782.774 278.178 782.616 278.308L781.385 279.539L776.521 283.813C772.383 287.507 766.792 292.433 760.597 297.987C754.403 303.541 749.021 308.799 745.302 312.765C743.43 314.748 741.965 316.398 740.967 317.543L739.81 318.861C739.685 319.025 739.54 319.174 739.379 319.304C739.379 319.304 739.477 319.119 739.724 318.799C739.97 318.479 740.315 317.999 740.795 317.408C741.743 316.176 743.172 314.514 744.994 312.482C749.806 307.242 754.887 302.256 760.216 297.544C766.447 292.014 772.124 287.064 776.225 283.492L781.151 279.281L782.506 278.16C782.67 278.042 782.848 277.942 783.035 277.865V277.865Z" fill="black"/>
<path d="M753.935 303.651C753.763 303.578 755.068 300.585 756.398 296.792C757.728 292.999 758.319 289.809 758.48 289.834C758.339 292.28 757.82 294.69 756.94 296.977C756.386 298.613 755.74 300.216 755.007 301.78C754.738 302.45 754.377 303.08 753.935 303.651V303.651Z" fill="black"/>
<path d="M736.756 327.814C736.397 327.48 736.075 327.108 735.795 326.705L733.332 323.565C731.276 320.893 728.406 317.223 725.229 313.196C722.052 309.169 719.072 305.561 716.978 302.95C715.969 301.719 715.131 300.672 714.515 299.847C714.188 299.466 713.899 299.054 713.653 298.615C714.031 298.93 714.377 299.281 714.688 299.662C715.328 300.352 716.227 301.374 717.335 302.642C719.54 305.191 722.532 308.8 725.734 312.79C728.936 316.78 731.732 320.536 733.702 323.27C734.699 324.637 735.488 325.733 736.017 326.521C736.301 326.929 736.549 327.362 736.756 327.814Z" fill="black"/>
<path d="M729.109 317.999C727.563 316.293 726.459 314.233 725.895 312.001C725.299 310.044 725.053 307.997 725.168 305.955H725.427C725.316 306.423 725.23 306.669 725.181 306.657C725.126 306.413 725.126 306.161 725.181 305.918H725.427C725.558 307.907 725.901 309.876 726.449 311.792C727.173 313.927 728.063 316.002 729.109 317.999V317.999Z" fill="black"/>
<path d="M719.232 305.573C718.538 305.073 717.785 304.659 716.991 304.341C714.996 303.746 712.899 303.574 710.834 303.837C708.725 304.004 706.632 304.342 704.578 304.846C703.733 305.107 702.874 305.317 702.004 305.474C702.767 305.011 703.598 304.67 704.467 304.465C706.518 303.812 708.638 303.398 710.784 303.233C712.943 302.941 715.141 303.178 717.188 303.923C718.037 304.225 718.758 304.807 719.232 305.573V305.573Z" fill="black"/>
<path d="M716.892 302.568C716.892 302.654 715.587 302.038 713.456 301.336C707.915 299.44 701.981 298.986 696.215 300.018C693.999 300.412 692.669 300.831 692.632 300.733C692.914 300.559 693.221 300.43 693.543 300.351C694.388 300.052 695.252 299.809 696.129 299.624C701.967 298.351 708.05 298.813 713.629 300.954C714.472 301.272 715.294 301.642 716.092 302.063C716.381 302.193 716.65 302.363 716.892 302.568V302.568Z" fill="black"/>
<path d="M736.682 289.835C735.675 287.018 734.852 284.138 734.219 281.214C733.38 278.316 732.73 275.367 732.273 272.385C733.277 275.224 734.099 278.123 734.736 281.067C735.566 283.946 736.216 286.874 736.682 289.835V289.835Z" fill="black"/>
<path d="M736.842 289.835C736.041 288.04 735.115 286.303 734.071 284.638C732.896 283.063 731.521 281.647 729.982 280.426C730.566 280.565 731.107 280.844 731.559 281.239C732.719 282.085 733.726 283.122 734.539 284.305C735.776 285.916 736.57 287.822 736.842 289.835V289.835Z" fill="black"/>
<path d="M736.719 404.252C736.719 404.252 736.534 403.291 736.091 401.592C735.431 399.194 734.536 396.868 733.418 394.646C729.577 387.421 724.821 380.72 719.269 374.708C716.104 371.1 713.037 367.689 710.439 364.426C708.1 361.56 705.988 358.518 704.121 355.325C702.873 353.164 701.806 350.902 700.932 348.564C700.648 347.739 700.427 347.086 700.316 346.631C700.234 346.407 700.176 346.176 700.144 345.941C700.144 345.941 700.488 346.865 701.153 348.49C702.093 350.779 703.204 352.994 704.478 355.115C706.383 358.257 708.511 361.257 710.845 364.093C713.468 367.32 716.535 370.706 719.7 374.327C726.091 381.506 731.103 388.747 733.788 394.474C734.863 396.721 735.689 399.079 736.251 401.506C736.408 402.167 736.528 402.838 736.608 403.513C736.67 403.755 736.707 404.002 736.719 404.252V404.252Z" fill="black"/>
<path d="M768.245 368.649C767.711 368.986 767.16 369.294 766.595 369.573C765.099 370.411 763.666 371.358 762.309 372.405C760.301 373.967 758.419 375.684 756.681 377.541C754.698 379.622 752.667 382.048 750.585 384.646C746.435 389.856 742.556 394.498 740.229 398.193C739.288 399.63 738.421 401.114 737.63 402.638C737.362 403.212 737.058 403.767 736.719 404.301C736.719 404.301 736.719 404.129 736.867 403.833C737.014 403.537 737.162 403.094 737.421 402.54C738.148 400.968 738.97 399.443 739.884 397.971C743.035 393.231 746.461 388.68 750.142 384.339C752.223 381.728 754.28 379.302 756.299 377.221C758.079 375.363 760.011 373.658 762.075 372.122C763.466 371.095 764.946 370.192 766.496 369.425C767.05 369.142 767.494 368.982 767.728 368.846C767.962 368.711 768.233 368.625 768.245 368.649Z" fill="black"/>
<path d="M768.86 380.201C767.707 380.449 766.539 380.618 765.363 380.706C762.56 380.993 759.79 381.538 757.087 382.331C754.423 383.205 751.926 384.521 749.698 386.223C747.986 387.553 747.173 388.686 747.1 388.575C747.218 388.277 747.394 388.005 747.617 387.775C748.158 387.093 748.768 386.469 749.439 385.915C751.647 384.071 754.189 382.671 756.927 381.79C759.668 380.968 762.494 380.468 765.35 380.3C766.515 380.158 767.69 380.125 768.86 380.201V380.201Z" fill="black"/>
<path d="M748.098 387.258C747.913 387.159 749.489 384.795 750.709 381.519C751.928 378.243 752.125 375.362 752.322 375.423C752.427 376.043 752.427 376.675 752.322 377.295C752.142 378.801 751.8 380.284 751.3 381.716C750.764 383.133 750.083 384.491 749.268 385.768C748.965 386.327 748.569 386.831 748.098 387.258V387.258Z" fill="black"/>
<path d="M778.454 337.628C778.28 337.752 778.089 337.852 777.887 337.924L776.25 338.675C775.535 338.983 774.661 339.377 773.676 339.906C772.691 340.436 771.594 340.929 770.363 341.692L768.454 342.776C767.802 343.158 767.149 343.613 766.447 344.007C765.043 344.857 763.639 345.904 762.137 346.975C755.701 351.783 750.09 357.606 745.524 364.216C744.502 365.755 743.504 367.196 742.704 368.637C742.297 369.339 741.866 370.004 741.472 370.681L740.45 372.627C739.773 373.859 739.293 375.016 738.812 376.014C738.332 377.011 737.963 377.898 737.679 378.637L736.99 380.299C736.922 380.498 736.831 380.688 736.719 380.866C736.746 380.657 736.805 380.454 736.891 380.262C737.039 379.807 737.236 379.24 737.47 378.55C737.704 377.861 738.061 376.913 738.517 375.89C738.972 374.868 739.428 373.686 740.093 372.442C740.401 371.814 740.733 371.149 741.078 370.472C741.423 369.795 741.854 369.105 742.248 368.391C743.049 366.938 744.034 365.472 745.056 363.92C749.588 357.22 755.231 351.343 761.743 346.544C763.27 345.473 764.698 344.426 766.127 343.589C766.829 343.158 767.494 342.714 768.159 342.357L770.092 341.298C771.324 340.596 772.481 340.067 773.491 339.611C774.501 339.155 775.375 338.761 776.114 338.478L777.801 337.838C778.009 337.741 778.229 337.671 778.454 337.628V337.628Z" fill="black"/>
<path d="M753.504 354.352C753.731 353.543 754.209 352.827 754.871 352.308C756.406 350.971 758.365 350.221 760.4 350.19C762.394 350.177 764.37 350.563 766.213 351.323C766.998 351.565 767.742 351.926 768.417 352.394C767.622 352.235 766.843 352.004 766.09 351.704C764.264 351.088 762.352 350.768 760.425 350.756C758.511 350.801 756.662 351.452 755.142 352.616C754.55 353.149 754.002 353.73 753.504 354.352Z" fill="black"/>
<path d="M749.772 358.194C751.446 354.985 751.885 351.274 751.004 347.763C751.338 348.196 751.561 348.703 751.657 349.241C751.989 350.519 752.081 351.846 751.928 353.157C751.772 354.451 751.375 355.704 750.758 356.852C750.253 357.775 749.834 358.231 749.772 358.194Z" fill="black"/>
<path d="M709.146 409.966C710.009 425.224 714.602 440.753 721.671 456.43H752.458C759.207 440.901 763.541 425.409 764.243 409.966H709.146Z" fill="#1C75BB"/>
<path d="M759.279 434.657C759.279 434.817 749.144 434.953 736.657 434.953C724.17 434.953 714.047 434.817 714.047 434.657C714.047 434.497 724.17 434.374 736.657 434.374C749.144 434.374 759.279 434.497 759.279 434.657Z" fill="white"/>
<path d="M758.541 440.211C758.541 440.371 749.046 440.494 737.335 440.494C725.623 440.494 716.178 440.346 716.178 440.211C716.178 440.076 725.673 439.928 737.372 439.928C749.071 439.928 758.541 440.026 758.541 440.211Z" fill="white"/>
<path d="M622.363 136.021H184.717C174.808 136.021 166.774 144.055 166.774 153.964V431.221C166.774 441.131 174.808 449.164 184.717 449.164H622.363C632.273 449.164 640.306 441.131 640.306 431.221V153.964C640.306 144.055 632.273 136.021 622.363 136.021Z" fill="#1C75BB"/>
<path d="M148.266 428.931H661.303V434.411C661.303 440.224 658.994 445.8 654.883 449.911C650.772 454.022 645.196 456.331 639.383 456.331H170.186C164.372 456.331 158.797 454.022 154.686 449.911C150.575 445.8 148.266 440.224 148.266 434.411V428.931V428.931Z" fill="#1C75BB"/>
<path d="M626.267 148.459H179.483V412.897H626.267V148.459Z" fill="black"/>
<path d="M356.866 426L363.221 436.123H452.811L458.723 426H356.866Z" fill="black"/>
<path d="M613.964 157.412H192.721C190.497 157.412 188.694 159.215 188.694 161.439V408.032C188.694 410.256 190.497 412.059 192.721 412.059H613.964C616.188 412.059 617.991 410.256 617.991 408.032V161.439C617.991 159.215 616.188 157.412 613.964 157.412Z" fill="#F0F0F1"/>
<path d="M617.523 412.429H188.227L188.695 176.439H617.523V412.429Z" fill="white"/>
<path d="M223.903 167.252C223.903 167.932 223.701 168.596 223.324 169.161C222.946 169.726 222.41 170.166 221.782 170.426C221.154 170.686 220.463 170.754 219.797 170.622C219.13 170.489 218.518 170.162 218.038 169.682C217.557 169.201 217.23 168.589 217.097 167.922C216.965 167.256 217.033 166.565 217.293 165.937C217.553 165.309 217.993 164.773 218.558 164.395C219.123 164.018 219.788 163.816 220.467 163.816C221.378 163.816 222.252 164.178 222.897 164.822C223.541 165.467 223.903 166.341 223.903 167.252Z" fill="black"/>
<path d="M203.116 167.252C203.116 167.932 202.914 168.597 202.536 169.162C202.158 169.727 201.621 170.168 200.992 170.428C200.363 170.687 199.672 170.755 199.005 170.621C198.338 170.487 197.726 170.159 197.246 169.677C196.766 169.195 196.44 168.582 196.309 167.915C196.177 167.247 196.247 166.556 196.509 165.929C196.771 165.301 197.213 164.765 197.78 164.389C198.347 164.013 199.012 163.814 199.692 163.816C200.143 163.816 200.589 163.905 201.005 164.078C201.421 164.251 201.799 164.504 202.117 164.823C202.436 165.142 202.687 165.521 202.859 165.938C203.03 166.355 203.117 166.801 203.116 167.252V167.252Z" fill="black"/>
<path d="M213.09 167.252C213.09 167.932 212.889 168.597 212.511 169.162C212.132 169.727 211.595 170.168 210.967 170.428C210.338 170.687 209.647 170.755 208.98 170.621C208.313 170.487 207.701 170.159 207.221 169.677C206.741 169.195 206.414 168.582 206.283 167.915C206.152 167.247 206.222 166.556 206.484 165.929C206.746 165.301 207.188 164.765 207.755 164.389C208.321 164.013 208.987 163.814 209.667 163.816C210.118 163.816 210.564 163.905 210.98 164.078C211.396 164.251 211.774 164.504 212.092 164.823C212.41 165.142 212.662 165.521 212.833 165.938C213.005 166.355 213.092 166.801 213.09 167.252Z" fill="black"/>
<path d="M636.23 426C636.23 426.172 531.135 426.308 401.521 426.308C271.906 426.308 166.774 426.172 166.774 426C166.774 425.827 271.857 425.692 401.521 425.692C531.184 425.692 636.23 425.827 636.23 426Z" fill="black"/>
<path d="M326.153 268.628L500.815 267.003L505.926 385.731L325.069 384.438L326.153 268.628Z" fill="#8CBF43"/>
<path d="M326.153 268.628L408.663 201.574C410.357 200.193 412.475 199.44 414.66 199.44C416.845 199.44 418.964 200.193 420.658 201.574L500.803 266.99" fill="#8CBF43"/>
<g opacity="0.3">
<path opacity="0.3" d="M326.153 268.628L408.663 201.574C410.357 200.193 412.475 199.44 414.66 199.44C416.845 199.44 418.964 200.193 420.658 201.574L500.803 266.99" fill="black"/>
</g>
<path d="M325.07 384.437C324.86 384.228 338.801 368.933 356.226 350.276C373.652 331.619 387.962 316.644 388.245 316.853C388.528 317.062 374.514 332.345 357.076 351.014C339.638 369.684 325.291 384.634 325.07 384.437Z" fill="black"/>
<path d="M505.926 385.73C505.704 385.927 492.059 370.952 475.446 352.394C458.833 333.835 445.546 318.528 445.767 318.318C445.989 318.109 459.634 333.096 476.259 351.667C492.884 370.238 506.147 385.533 505.926 385.73Z" fill="black"/>
<g opacity="0.5">
<path opacity="0.5" d="M500.815 267.003L413.256 337.247L326.153 268.628" fill="black"/>
</g>
<path d="M334.97 275.106L334.576 220.551L487.515 218.42L489.349 275.82L413.244 336.323L334.97 275.106Z" fill="white"/>
<path d="M334.971 275.093L336.424 276.189L340.586 279.404L356.423 291.718L413.404 336.138H413.084L489.153 275.574L489.042 275.832C488.685 264.884 488.316 253.407 487.946 241.708C487.687 233.851 487.441 226.068 487.195 218.445L487.515 218.753L334.589 220.76L334.786 220.551C334.86 237.705 334.934 251.338 334.971 260.673C334.971 265.34 334.971 268.936 334.971 271.387C334.971 272.618 334.971 273.517 334.971 274.157C334.971 274.798 334.971 275.093 334.971 275.093C334.971 275.093 334.971 274.798 334.971 274.182C334.971 273.566 334.971 272.63 334.971 271.436C334.971 268.973 334.897 265.402 334.848 260.747C334.761 251.375 334.626 237.73 334.466 220.551V220.341H334.663L487.589 218.1H487.909V218.408C488.155 226.031 488.402 233.814 488.66 241.683C489.03 253.37 489.399 264.86 489.744 275.808V275.968L489.621 276.066L413.466 336.532L413.306 336.655L413.146 336.532L356.226 291.866L340.451 279.477L336.35 276.226C335.426 275.487 334.971 275.093 334.971 275.093Z" fill="black"/>
<path d="M463.402 245.945C463.402 246.117 440.004 246.45 411.175 246.684C382.346 246.918 358.923 246.967 358.923 246.794C358.923 246.622 382.321 246.277 411.163 246.043C440.004 245.809 463.402 245.76 463.402 245.945Z" fill="black"/>
<path d="M463.427 261.35C463.427 261.522 440.029 261.855 411.2 262.089C382.371 262.323 358.96 262.372 358.96 262.2C358.96 262.027 382.358 261.682 411.2 261.448C440.041 261.214 463.427 261.165 463.427 261.35Z" fill="black"/>
<path d="M463.465 279.108C463.465 279.28 440.066 279.613 411.237 279.859C382.408 280.105 359.047 280.118 359.047 279.958C359.047 279.798 382.445 279.453 411.287 279.206C440.128 278.96 463.465 278.886 463.465 279.108Z" fill="black"/>
<path d="M463.501 296.867C463.501 297.039 441.199 297.371 413.675 297.593C386.151 297.815 363.837 297.852 363.837 297.679C363.837 297.507 386.139 297.174 413.675 296.953C441.211 296.731 463.501 296.694 463.501 296.867Z" fill="black"/>
<path d="M444.019 312.494C443.819 312.55 443.611 312.575 443.403 312.568L441.642 312.642L435.189 312.802L413.872 313.184C405.547 313.344 397.998 313.393 392.543 313.393H386.09H384.329C384.124 313.419 383.917 313.419 383.713 313.393C383.913 313.337 384.121 313.312 384.329 313.319L386.077 313.245L392.543 313.085L413.86 312.691C422.185 312.543 429.721 312.494 435.177 312.494H441.642H443.403C443.608 312.468 443.814 312.468 444.019 312.494Z" fill="black"/>
<path d="M424.315 327.518C420.631 327.849 416.93 327.965 413.232 327.862C409.535 327.972 405.834 327.873 402.148 327.567C405.833 327.242 409.534 327.127 413.232 327.222C416.929 327.113 420.629 327.211 424.315 327.518V327.518Z" fill="black"/>
<path d="M823.317 455.285C823.317 455.457 639.161 455.605 412 455.605C184.84 455.605 0.683594 455.457 0.683594 455.285C0.683594 455.112 184.803 454.989 412 454.989C639.197 454.989 823.317 455.112 823.317 455.285Z" fill="black"/>
<path d="M444.93 217.94C445.103 217.94 445.176 218.666 445.09 219.504C445.004 220.341 444.807 221.031 444.622 221.006C444.438 220.981 444.376 220.292 444.462 219.442C444.548 218.592 444.745 217.927 444.93 217.94Z" fill="black"/>
<path d="M446.568 205.945C446.694 207.982 446.384 210.023 445.656 211.93C445.53 209.893 445.841 207.852 446.568 205.945V205.945Z" fill="black"/>
<path d="M448.945 194.086C449.046 195.108 448.933 196.14 448.613 197.116C448.487 198.132 448.156 199.113 447.64 199.997C447.658 197.957 448.103 195.944 448.945 194.086V194.086Z" fill="black"/>
<path d="M452.27 182.436C452.283 183.462 452.09 184.479 451.704 185.429C451.49 186.435 451.07 187.387 450.472 188.224C450.461 187.198 450.658 186.18 451.051 185.232C451.251 184.223 451.667 183.269 452.27 182.436V182.436Z" fill="black"/>
<path d="M456.494 171.095C456.419 172.117 456.138 173.114 455.669 174.026C455.388 175.009 454.906 175.923 454.253 176.71C454.329 175.688 454.61 174.691 455.078 173.779C455.357 172.795 455.839 171.88 456.494 171.095V171.095Z" fill="black"/>
<path d="M461.74 160.196C461.206 162.163 460.267 163.996 458.981 165.577C459.148 164.564 459.521 163.596 460.077 162.733C460.841 161.243 461.58 160.11 461.74 160.196Z" fill="black"/>
<path d="M468.07 149.876C467.789 150.859 467.306 151.774 466.654 152.561C465.767 153.977 464.917 155.024 464.77 154.95C465.016 153.953 465.473 153.02 466.112 152.216C467.048 150.812 467.922 149.778 468.07 149.876Z" fill="black"/>
<path d="M475.532 140.344C475.142 141.292 474.569 142.154 473.845 142.881C472.774 144.112 471.801 145.11 471.653 144.999C471.505 144.888 472.269 143.768 473.353 142.462C474.436 141.157 475.397 140.221 475.532 140.344Z" fill="black"/>
<path d="M484.055 131.76C484.178 131.896 483.291 132.992 482.084 134.076C480.877 135.159 479.794 136.046 479.621 135.923C479.449 135.8 480.373 134.765 481.592 133.608C482.811 132.45 483.944 131.625 484.055 131.76Z" fill="black"/>
<path d="M493.587 124.298C493.686 124.446 492.676 125.357 491.334 126.342C490.571 127.026 489.679 127.55 488.71 127.881C488.6 127.734 489.609 126.822 490.964 125.825C491.723 125.14 492.617 124.62 493.587 124.298V124.298Z" fill="black"/>
<path d="M504.029 118.165C502.473 119.491 500.657 120.476 498.697 121.059C498.611 120.899 499.731 120.123 501.16 119.335C502.023 118.747 503.001 118.348 504.029 118.165V118.165Z" fill="black"/>
<path d="M515.236 113.608C514.428 114.241 513.497 114.698 512.502 114.951C511.577 115.391 510.571 115.638 509.547 115.677C510.355 115.047 511.286 114.594 512.281 114.347C513.205 113.901 514.211 113.65 515.236 113.608V113.608Z" fill="black"/>
<path d="M527.009 110.874C526.1 111.338 525.108 111.614 524.09 111.687C523.117 111.997 522.089 112.102 521.073 111.995C521.963 111.486 522.948 111.167 523.967 111.059C524.955 110.771 525.994 110.708 527.009 110.874V110.874Z" fill="black"/>
<path d="M539.09 110.173C538.121 110.507 537.092 110.629 536.072 110.53C535.054 110.643 534.023 110.547 533.043 110.246C535.031 109.795 537.091 109.77 539.09 110.173V110.173Z" fill="black"/>
<path d="M551.159 111.614C550.145 111.766 549.11 111.712 548.117 111.454C547.093 111.383 546.093 111.111 545.174 110.653C546.189 110.501 547.224 110.559 548.216 110.826C549.241 110.881 550.243 111.149 551.159 111.614V111.614Z" fill="black"/>
<path d="M562.697 115.098C561.67 115.083 560.658 114.848 559.729 114.408C558.737 114.185 557.799 113.767 556.971 113.177C557.998 113.195 559.009 113.43 559.939 113.867C560.931 114.088 561.869 114.507 562.697 115.098V115.098Z" fill="black"/>
<path d="M573.473 120.567C572.469 120.354 571.522 119.934 570.689 119.335C569.236 118.51 568.14 117.722 568.226 117.562C569.231 117.769 570.18 118.189 571.01 118.793C572.463 119.631 573.571 120.419 573.473 120.567Z" fill="black"/>
<path d="M582.955 128.066C582.026 127.647 581.189 127.049 580.492 126.305C579.261 125.209 578.325 124.212 578.436 124.076C578.547 123.941 579.667 124.717 580.899 125.825C582.13 126.933 583.078 127.943 582.955 128.066Z" fill="black"/>
<path d="M588.94 134.963C588.792 135.061 588.263 134.606 587.708 133.941C587.154 133.276 586.883 132.635 587.019 132.524C587.154 132.414 587.684 132.869 588.25 133.547C588.817 134.224 589.088 134.803 588.94 134.963Z" fill="black"/>
<path d="M645.885 209.16C644.854 209.021 643.862 208.677 642.966 208.15C641.414 207.436 640.22 206.721 640.306 206.561C641.341 206.697 642.338 207.041 643.237 207.571C644.752 208.285 645.983 208.987 645.885 209.16Z" fill="black"/>
<path d="M657.51 213.199C656.469 213.217 655.437 213.016 654.48 212.608C653.454 212.395 652.482 211.976 651.623 211.376C652.666 211.37 653.7 211.571 654.665 211.967C655.687 212.179 656.656 212.598 657.51 213.199Z" fill="black"/>
<path d="M669.664 215.132C667.588 215.348 665.489 215.121 663.507 214.467C664.527 214.259 665.578 214.259 666.598 214.467C667.654 214.484 668.696 214.71 669.664 215.132V215.132Z" fill="black"/>
<path d="M681.955 214.751C680.992 215.151 679.955 215.34 678.913 215.305C677.884 215.489 676.827 215.46 675.81 215.219C676.782 214.838 677.819 214.65 678.864 214.665C679.89 214.49 680.94 214.519 681.955 214.751V214.751Z" fill="black"/>
<path d="M694.011 212.485C693.121 213.031 692.127 213.388 691.092 213.531C690.094 213.848 689.041 213.948 688.001 213.827C688.919 213.336 689.922 213.022 690.957 212.903C691.938 212.569 692.975 212.427 694.011 212.485V212.485Z" fill="black"/>
<path d="M705.476 207.953C705.562 208.113 704.367 208.815 702.816 209.529C701.916 210.056 700.919 210.395 699.885 210.526C700.659 209.831 701.563 209.295 702.545 208.95C703.445 208.425 704.442 208.086 705.476 207.953Z" fill="black"/>
<path d="M715.685 201.094C715.795 201.229 714.835 202.239 713.468 203.273C712.699 203.983 711.776 204.506 710.771 204.8C710.672 204.652 711.732 203.778 713.086 202.756C713.847 202.052 714.727 201.489 715.685 201.094V201.094Z" fill="black"/>
<path d="M724.059 192.103C723.725 193.097 723.164 193.999 722.421 194.739C721.325 196.069 720.266 196.968 720.143 196.857C720.02 196.746 720.857 195.626 721.929 194.394C723 193.163 723.911 191.993 724.059 192.103Z" fill="black"/>
<path d="M729.822 181.266C729.783 182.314 729.491 183.336 728.972 184.247C728.64 185.244 728.074 186.147 727.322 186.882C727.505 185.863 727.864 184.884 728.381 183.988C728.704 183.006 729.191 182.086 729.822 181.266V181.266Z" fill="black"/>
<path d="M732.1 169.284C732.395 170.292 732.442 171.357 732.236 172.387C732.234 173.441 731.972 174.477 731.472 175.404C731.347 174.378 731.388 173.339 731.595 172.326C731.594 171.291 731.765 170.263 732.1 169.284V169.284Z" fill="black"/>
<path d="M730.328 157.08C730.92 157.948 731.299 158.944 731.436 159.986C731.768 160.981 731.857 162.041 731.695 163.077C731.234 162.149 730.934 161.15 730.808 160.122C730.48 159.141 730.317 158.113 730.328 157.08V157.08Z" fill="black"/>
<path d="M724.971 146.033C725.106 145.935 726.042 146.994 726.904 148.496C727.518 149.349 727.915 150.338 728.062 151.378C727.357 150.627 726.779 149.766 726.35 148.829C725.737 147.981 725.271 147.036 724.971 146.033V146.033Z" fill="black"/>
<path d="M716.423 137.265C716.522 137.118 717.753 137.807 719.046 138.928C720.339 140.049 721.201 141.169 721.078 141.292C720.955 141.416 719.847 140.517 718.615 139.421C717.384 138.325 716.325 137.401 716.423 137.265Z" fill="black"/>
<path d="M705.255 132.253C706.307 132.154 707.368 132.328 708.334 132.758C709.363 132.985 710.317 133.473 711.104 134.174C710.079 134.057 709.078 133.783 708.137 133.362C707.127 133.136 706.156 132.762 705.255 132.253V132.253Z" fill="black"/>
<path d="M693.051 132.45C693.952 131.905 694.978 131.599 696.031 131.563C697.06 131.328 698.132 131.357 699.147 131.65C697.147 132.121 695.104 132.389 693.051 132.45V132.45Z" fill="black"/>
<path d="M682.435 138.398C682.3 138.287 683.149 137.167 684.541 136.095C685.322 135.378 686.284 134.888 687.324 134.679C687.41 134.839 686.253 135.59 684.861 136.613C683.47 137.635 682.57 138.497 682.435 138.398Z" fill="black"/>
<path d="M677.558 149.445C677.324 148.41 677.388 147.329 677.743 146.329C677.888 145.279 678.338 144.294 679.036 143.497C678.926 144.517 678.698 145.521 678.359 146.489C678.221 147.505 677.952 148.498 677.558 149.445V149.445Z" fill="black"/>
<path d="M679.96 161.39C679.234 160.624 678.721 159.682 678.47 158.657C678.021 157.697 677.842 156.632 677.953 155.578C678.462 156.476 678.839 157.442 679.074 158.447C679.51 159.38 679.809 160.372 679.96 161.39V161.39Z" fill="black"/>
<path d="M688.014 170.515C687.01 170.191 686.107 169.614 685.39 168.84C684.085 167.695 683.285 166.538 683.42 166.378C683.556 166.217 684.553 167.203 685.809 168.311C687.065 169.419 688.112 170.392 688.014 170.515Z" fill="black"/>
<path d="M699.195 175.553C698.146 175.617 697.097 175.423 696.141 174.986C695.117 174.744 694.166 174.258 693.37 173.57C694.398 173.673 695.401 173.948 696.338 174.383C697.347 174.616 698.312 175.011 699.195 175.553V175.553Z" fill="black"/>
<path d="M711.412 176.673C709.386 177.195 707.256 177.149 705.255 176.538C706.266 176.318 707.306 176.268 708.334 176.39C709.369 176.305 710.41 176.401 711.412 176.673V176.673Z" fill="black"/>
<path d="M723.481 174.481C722.624 175.089 721.638 175.49 720.599 175.651C719.614 176.005 718.56 176.124 717.521 175.995C719.423 175.204 721.431 174.693 723.481 174.481V174.481Z" fill="black"/>
<path d="M734.65 169.371C733.918 170.114 733.042 170.7 732.076 171.095C731.21 171.672 730.233 172.062 729.207 172.24C729.945 171.504 730.819 170.918 731.781 170.516C732.646 169.936 733.624 169.546 734.65 169.371V169.371Z" fill="black"/>
<path d="M744.502 162.03C744.625 162.165 743.652 163.151 742.335 164.234C741.017 165.318 739.872 166.082 739.749 165.934C739.625 165.786 740.623 164.813 741.928 163.729C742.663 162.995 743.538 162.417 744.502 162.03V162.03Z" fill="black"/>
<path d="M752.913 153.028C753.048 153.139 752.26 154.26 751.152 155.577C750.043 156.895 749.033 157.831 748.91 157.708C748.787 157.585 749.563 156.476 750.659 155.159C751.755 153.841 752.765 152.917 752.913 153.028Z" fill="black"/>
<path d="M759.674 142.758C759.433 143.769 758.989 144.72 758.368 145.553C757.482 147.019 756.657 148.127 756.509 148.016C756.746 147.004 757.191 146.052 757.814 145.221C758.265 144.285 758.897 143.448 759.674 142.758Z" fill="black"/>
<path d="M764.674 131.501C764.598 132.539 764.317 133.552 763.849 134.482C763.233 136.083 762.617 137.302 762.396 137.228C762.501 136.192 762.788 135.183 763.245 134.248C763.525 133.243 764.011 132.307 764.674 131.501Z" fill="black"/>
<path d="M768.109 119.692C768.172 120.731 768.017 121.771 767.654 122.746C767.493 123.778 767.125 124.767 766.57 125.652C766.513 124.61 766.668 123.567 767.026 122.586C767.188 121.558 767.556 120.573 768.109 119.692V119.692Z" fill="black"/>
<path d="M770.264 107.562C770.434 108.591 770.383 109.645 770.116 110.653C770.06 111.696 769.796 112.718 769.34 113.658C769.172 112.624 769.223 111.567 769.488 110.555C769.548 109.516 769.812 108.499 770.264 107.562Z" fill="black"/>
<path d="M771.398 95.3091C771.646 96.3212 771.68 97.3742 771.496 98.4001C771.531 99.442 771.342 100.479 770.942 101.442C770.709 100.427 770.679 99.3767 770.856 98.3509C770.831 97.3109 771.015 96.2765 771.398 95.3091V95.3091Z" fill="black"/>
<path d="M771.792 83.0056C772.094 84.0022 772.182 85.0513 772.05 86.0843C772.143 87.126 772.012 88.1754 771.669 89.1631C771.383 88.1591 771.296 87.1094 771.41 86.072C771.332 85.0347 771.462 83.9922 771.792 83.0056V83.0056Z" fill="black"/>
<path d="M771.706 70.6914C772.036 71.6777 772.162 72.7212 772.075 73.7578C772.198 74.7966 772.101 75.8496 771.792 76.8488C771.464 75.8577 771.342 74.81 771.435 73.7701C771.318 72.7361 771.41 71.6892 771.706 70.6914V70.6914Z" fill="black"/>
<path d="M771.52 63.1174C771.693 63.1174 771.853 63.4253 771.865 63.8071C771.877 64.1888 771.742 64.5213 771.557 64.5336C771.372 64.546 771.225 64.2258 771.225 63.8317C771.225 63.4376 771.348 63.1174 771.52 63.1174Z" fill="black"/>
<path d="M798.503 26.5523L714.799 35.6455L720.929 92.0728L804.633 82.9796L798.503 26.5523Z" fill="#8CBF43"/>
<path d="M720.895 92.1317L714.737 35.668L798.478 26.5796L804.636 83.031L720.895 92.1317ZM714.836 35.7049L720.993 92.0578L804.636 82.9817L798.478 26.6165L714.836 35.7049Z" fill="black"/>
<path d="M798.848 27.2317C798.645 27.536 798.41 27.8169 798.146 28.0691L796.04 30.3597C794.131 32.3916 791.459 35.2856 788.171 38.7092L761.952 66.1344L761.743 66.356L761.472 66.196L760.832 65.7896L728.493 45.0883L718.641 38.7461L716.005 36.9974C715.687 36.8022 715.386 36.5797 715.106 36.3324C715.453 36.4732 715.783 36.6507 716.092 36.8619L718.801 38.4998L728.653 44.6572L761.25 65.1369L761.891 65.5433L761.41 65.6048L787.789 38.3397L795.83 30.1257L798.035 27.9213C798.286 27.669 798.558 27.4383 798.848 27.2317V27.2317Z" fill="black"/>
<path d="M721.264 92.7471C721.091 92.624 726.547 84.2129 733.443 73.9423C740.34 63.6717 746.091 55.47 746.263 55.5685C746.435 55.667 740.992 64.1027 734.083 74.3733C727.175 84.6439 721.436 92.9318 721.264 92.7471Z" fill="black"/>
<path d="M774.058 51.85C774.218 51.7022 781.274 58.697 789.821 67.4775C798.367 76.258 805.178 83.4869 805.03 83.6593C804.882 83.8317 797.826 76.7999 789.267 68.0194C780.708 59.2389 773.861 51.9977 774.058 51.85Z" fill="black"/>
<path d="M416.248 197.608C416.421 197.608 416.679 198.236 416.827 199.086C416.975 199.935 416.938 200.625 416.766 200.65C416.593 200.674 416.335 200.022 416.187 199.184C416.039 198.347 416.076 197.682 416.248 197.608Z" fill="black"/>
<path d="M414.279 185.638C414.743 186.559 415.015 187.565 415.079 188.594C415.345 189.589 415.404 190.629 415.252 191.648C414.782 190.729 414.509 189.723 414.451 188.692C414.185 187.697 414.127 186.657 414.279 185.638Z" fill="black"/>
<path d="M412.517 173.594C412.968 174.521 413.219 175.532 413.256 176.562C413.499 177.562 413.537 178.601 413.367 179.616C412.916 178.689 412.665 177.678 412.628 176.648C412.384 175.648 412.346 174.609 412.517 173.594Z" fill="black"/>
<path d="M411.138 161.489C411.547 162.434 411.764 163.451 411.779 164.481C411.995 165.492 411.995 166.537 411.779 167.548C411.367 166.604 411.153 165.585 411.151 164.555C410.941 163.544 410.937 162.501 411.138 161.489Z" fill="black"/>
<path d="M410.288 149.346C410.661 150.307 410.829 151.335 410.781 152.364C410.947 153.385 410.897 154.429 410.633 155.43C410.267 154.464 410.099 153.433 410.141 152.401C409.98 151.383 410.031 150.344 410.288 149.346Z" fill="black"/>
<path d="M410.166 137.167C410.468 138.155 410.568 139.193 410.461 140.221C410.554 141.247 410.441 142.281 410.129 143.263C409.81 142.278 409.705 141.237 409.821 140.209C409.722 139.182 409.84 138.145 410.166 137.167V137.167Z" fill="black"/>
<path d="M410.929 125.025C411.152 126.033 411.173 127.075 410.99 128.091C411.006 129.121 410.813 130.143 410.424 131.096C410.185 130.09 410.16 129.046 410.35 128.029C410.331 126.998 410.528 125.975 410.929 125.025V125.025Z" fill="black"/>
<path d="M412.752 112.993C412.902 114.014 412.831 115.056 412.543 116.047C412.468 117.076 412.179 118.079 411.693 118.99C411.558 117.968 411.634 116.928 411.915 115.936C411.991 114.908 412.276 113.907 412.752 112.993V112.993Z" fill="black"/>
<path d="M415.867 101.22C415.88 102.253 415.688 103.279 415.3 104.237C415.106 105.247 414.708 106.206 414.13 107.057C414.104 106.028 414.292 105.004 414.685 104.052C414.878 103.036 415.281 102.072 415.867 101.22V101.22Z" fill="black"/>
<path d="M420.412 89.9392C420.302 90.9657 419.983 91.9589 419.476 92.8578C419.16 93.8362 418.645 94.7379 417.961 95.5055C418.073 94.4835 418.392 93.4948 418.897 92.5992C419.211 91.6165 419.727 90.7104 420.412 89.9392V89.9392Z" fill="black"/>
<path d="M426.347 79.3114C426.128 80.3126 425.709 81.2593 425.116 82.0946C424.254 83.5231 423.429 84.5576 423.269 84.5576C423.511 83.555 423.956 82.6123 424.574 81.7867C425.374 80.3089 426.199 79.2252 426.347 79.3114Z" fill="black"/>
<path d="M433.65 69.5335C433.281 70.4952 432.72 71.3711 431.999 72.1073C430.94 73.4127 429.98 74.3732 429.832 74.2747C430.205 73.3126 430.771 72.4368 431.495 71.7009C432.554 70.4325 433.526 69.4596 433.65 69.5335Z" fill="black"/>
<path d="M442.307 61.0237C442.418 61.1591 441.506 62.1936 440.275 63.3142C439.043 64.4349 437.935 65.26 437.812 65.1368C437.689 65.0137 438.6 63.9792 439.844 62.8463C441.088 61.7133 442.196 60.9128 442.307 61.0237Z" fill="black"/>
<path d="M452.258 54.0295C452.344 54.1896 451.273 55.0394 449.856 55.9383C449.049 56.5768 448.118 57.0422 447.122 57.3053C447.024 57.1575 448.095 56.3078 449.512 55.3965C450.324 54.7577 451.259 54.2924 452.258 54.0295V54.0295Z" fill="black"/>
<path d="M463.342 49.0413C462.542 49.6941 461.615 50.1724 460.62 50.4452C459.706 50.9164 458.703 51.1931 457.677 51.2579C458.475 50.5987 459.402 50.1122 460.398 49.8294C461.314 49.3651 462.316 49.0966 463.342 49.0413V49.0413Z" fill="black"/>
<path d="M472.233 46.8501C472.233 47.0225 471.617 47.2934 470.792 47.4535C469.967 47.6136 469.252 47.6013 469.215 47.4535C469.178 47.3057 469.831 47.0102 470.669 46.8501C471.506 46.69 472.208 46.6777 472.233 46.8501Z" fill="black"/>
<path d="M406.727 0.608379L384.472 58.1653L469.859 91.1822L492.115 33.6253L406.727 0.608379Z" fill="#8CBF43"/>
<path d="M469.881 91.2324L384.44 58.1793L406.718 0.570312L492.134 33.5988L469.881 91.2324ZM384.514 58.1547L469.881 91.1462L492.048 33.6481L406.743 0.644202L384.514 58.1547Z" fill="black"/>
<path d="M492.121 34.4239C491.775 34.6133 491.412 34.77 491.037 34.8919L487.848 36.0495L476.038 40.1873L437.073 53.5858L436.753 53.6967L436.63 53.4011L436.211 52.6868L415.276 16.5057L408.934 5.49625L407.271 2.49142C407.059 2.1472 406.877 1.78449 406.729 1.40771C406.984 1.71954 407.211 2.05335 407.407 2.40522L409.217 5.33616L415.695 16.2102C421.163 25.5079 428.625 38.2169 436.864 52.2681L437.283 52.9824L436.79 52.7977L475.89 39.6331L487.737 35.7416L490.976 34.7318C491.349 34.6006 491.732 34.4977 492.121 34.4239V34.4239Z" fill="black"/>
<path d="M384.477 58.9675C384.366 58.7582 393.836 53.3519 405.633 46.8866C417.431 40.4213 427.074 35.3476 427.185 35.5446C427.295 35.7417 417.825 41.1479 406.028 47.6132C394.23 54.0785 384.587 59.1645 384.477 58.9675Z" fill="black"/>
<path d="M455.853 45.8034C456.075 45.7295 459.388 56.0247 463.242 68.7706C467.097 81.5165 470.077 91.9226 469.855 91.9842C469.634 92.0457 466.321 81.7628 462.467 69.0169C458.612 56.271 455.632 45.8649 455.853 45.8034Z" fill="black"/>
<path d="M380.388 211.155C380.56 211.155 380.647 211.869 380.585 212.719C380.524 213.569 380.314 214.246 380.142 214.234C379.969 214.221 379.871 213.507 379.945 212.67C380.019 211.832 380.216 211.155 380.388 211.155Z" fill="black"/>
<path d="M380.695 198.606C381.015 199.616 381.123 200.68 381.016 201.734C381.109 202.792 380.996 203.859 380.683 204.874C380.264 202.806 380.264 200.674 380.683 198.606H380.695Z" fill="black"/>
<path d="M379.847 186.106C380.457 188.128 380.653 190.251 380.426 192.35C380.019 191.37 379.814 190.319 379.822 189.259C379.624 188.216 379.633 187.145 379.847 186.106Z" fill="black"/>
<path d="M377.765 173.754C378.591 175.702 379.01 177.797 378.997 179.912C378.498 178.98 378.188 177.959 378.086 176.907C377.761 175.89 377.652 174.816 377.765 173.754Z" fill="black"/>
<path d="M374.354 161.698C374.957 162.569 375.376 163.554 375.586 164.592C376.001 165.57 376.215 166.621 376.214 167.683C375.185 165.838 374.548 163.8 374.342 161.698H374.354Z" fill="black"/>
<path d="M369.563 150.134C370.275 150.92 370.813 151.847 371.14 152.856C371.668 153.777 372.007 154.794 372.137 155.848C371.437 155.05 370.902 154.121 370.561 153.114C370.031 152.199 369.691 151.185 369.563 150.134V150.134Z" fill="black"/>
<path d="M363.345 139.261C363.493 139.162 364.379 140.271 365.315 141.724C365.941 142.58 366.393 143.55 366.645 144.581C366.485 144.667 365.648 143.546 364.761 142.118C364.103 141.269 363.622 140.298 363.345 139.261V139.261Z" fill="black"/>
<path d="M355.672 129.36C355.807 129.249 356.817 130.234 357.925 131.564C358.674 132.314 359.272 133.2 359.686 134.175C359.539 134.286 358.541 133.301 357.433 131.983C356.674 131.237 356.075 130.345 355.672 129.36V129.36Z" fill="black"/>
<path d="M346.731 120.652C346.842 120.517 347.963 121.354 349.268 122.512C350.573 123.669 351.497 124.716 351.374 124.852C350.417 124.4 349.556 123.769 348.837 122.992C347.507 121.835 346.559 120.788 346.731 120.652Z" fill="black"/>
<path d="M336.523 113.325C337.537 113.634 338.482 114.136 339.306 114.803C340.747 115.764 341.843 116.663 341.769 116.798C340.751 116.506 339.803 116.007 338.986 115.333C337.52 114.385 336.424 113.486 336.523 113.325Z" fill="black"/>
<path d="M325.365 107.71C326.418 107.837 327.432 108.181 328.345 108.72C329.346 109.074 330.267 109.622 331.055 110.333C330.006 110.184 328.994 109.837 328.075 109.311C327.075 108.96 326.155 108.416 325.365 107.71V107.71Z" fill="black"/>
<path d="M313.481 103.868C314.543 103.823 315.603 103.995 316.597 104.373C317.641 104.554 318.64 104.934 319.54 105.493C318.478 105.54 317.418 105.368 316.425 104.988C315.379 104.814 314.378 104.433 313.481 103.868V103.868Z" fill="black"/>
<path d="M301.006 102.279C303.096 101.91 305.246 102.084 307.25 102.783C305.155 102.936 303.049 102.766 301.006 102.279Z" fill="black"/>
<path d="M288.52 103.141C289.49 102.711 290.537 102.477 291.598 102.451C292.638 102.239 293.711 102.239 294.751 102.451C293.778 102.875 292.733 103.109 291.672 103.141C290.631 103.345 289.561 103.345 288.52 103.141V103.141Z" fill="black"/>
<path d="M276.426 106.355C277.298 105.755 278.282 105.336 279.32 105.124C280.294 104.708 281.34 104.486 282.398 104.471C281.527 105.074 280.543 105.492 279.504 105.702C278.532 106.124 277.485 106.346 276.426 106.355V106.355Z" fill="black"/>
<path d="M265.146 111.786C266.763 110.428 268.64 109.414 270.663 108.806C269.915 109.56 269.028 110.162 268.052 110.579C267.172 111.168 266.184 111.578 265.146 111.786V111.786Z" fill="black"/>
<path d="M255.146 119.31C255.023 119.175 256.008 118.165 257.338 117.056C258.668 115.948 259.801 115.148 259.961 115.295C260.121 115.443 259.075 116.441 257.757 117.549C257.009 118.299 256.122 118.897 255.146 119.31Z" fill="black"/>
<path d="M246.981 128.756C247.299 127.74 247.842 126.81 248.57 126.034C249.641 124.655 250.688 123.682 250.811 123.805C250.935 123.928 250.134 125.037 249.075 126.428C248.016 127.82 247.105 128.854 246.981 128.756Z" fill="black"/>
<path d="M242.388 136.896C242.228 136.822 242.388 136.133 242.77 135.369C243.151 134.606 243.57 134.039 243.73 134.138C243.89 134.236 243.73 134.901 243.348 135.665C242.967 136.428 242.548 136.958 242.388 136.896Z" fill="black"/>
<path d="M164.139 209.566C164.139 209.393 164.791 209.159 165.629 209.061C166.466 208.962 167.168 209.061 167.193 209.196C167.217 209.332 166.565 209.59 165.703 209.701C164.841 209.812 164.151 209.738 164.139 209.566Z" fill="black"/>
<path d="M151.947 208.186C152.983 208.175 154.014 208.329 155.001 208.642C156.03 208.755 157.035 209.025 157.982 209.443C156.945 209.646 155.874 209.587 154.866 209.27C153.819 209.153 152.817 208.781 151.947 208.186V208.186Z" fill="black"/>
<path d="M140.925 202.731C141.914 203.04 142.842 203.514 143.671 204.135C144.611 204.574 145.472 205.165 146.22 205.884C145.178 205.712 144.193 205.29 143.351 204.652C141.873 203.766 140.814 202.879 140.925 202.731Z" fill="black"/>
<path d="M131.75 194.505C131.886 194.394 132.896 195.33 134.09 196.536C135.285 197.743 136.208 198.753 136.098 198.889C135.987 199.024 134.866 198.211 133.635 196.98C132.403 195.748 131.615 194.615 131.75 194.505Z" fill="black"/>
<path d="M124.51 184.53C124.67 184.444 125.544 185.515 126.468 186.993C127.122 187.809 127.607 188.747 127.896 189.751C127.749 189.862 126.874 188.779 125.938 187.35C125.272 186.519 124.786 185.559 124.51 184.53V184.53Z" fill="black"/>
<path d="M119.189 173.41C119.871 174.2 120.382 175.122 120.692 176.119C121.201 177.052 121.515 178.078 121.615 179.136C120.406 177.437 119.567 175.503 119.152 173.459L119.189 173.41Z" fill="black"/>
<path d="M115.655 161.587C116.214 162.472 116.587 163.461 116.751 164.494C117.115 165.473 117.275 166.517 117.219 167.56C116.664 166.674 116.291 165.686 116.123 164.654C115.76 163.674 115.6 162.631 115.655 161.587V161.587Z" fill="black"/>
<path d="M113.512 149.432C113.965 150.373 114.229 151.394 114.288 152.437C114.546 153.451 114.596 154.507 114.436 155.541C113.974 154.603 113.71 153.58 113.66 152.536C113.394 151.523 113.344 150.466 113.512 149.432Z" fill="black"/>
<path d="M112.329 137.142C112.721 138.112 112.914 139.151 112.896 140.196C113.079 141.225 113.054 142.281 112.822 143.3C112.431 142.33 112.238 141.291 112.256 140.246C112.065 139.217 112.09 138.16 112.329 137.142Z" fill="black"/>
<path d="M111.813 127.906C111.998 127.906 112.17 128.571 112.207 129.42C112.244 130.27 112.133 130.972 111.961 130.972C111.788 130.972 111.604 130.307 111.567 129.457C111.53 128.608 111.641 127.906 111.813 127.906Z" fill="black"/>
<path d="M158.181 53.2425L55.7861 58.0713L59.0411 127.093L161.436 122.264L158.181 53.2425Z" fill="#1C75BB"/>
<path d="M59.006 127.118L55.7549 58.0313L158.19 53.2039L161.441 122.253L59.006 127.118ZM55.8165 58.1544L59.0676 127.118L161.404 122.29L158.153 53.327L55.8165 58.1544Z" fill="black"/>
<path d="M158.548 54.0542C158.276 54.4035 157.971 54.7252 157.636 55.0148L154.902 57.6501L144.767 67.2188L110.827 98.5848L110.544 98.8434L110.286 98.6217L109.547 98.0799L71.6538 70.5192L60.2503 62.0712L57.1839 59.7437C56.8112 59.4915 56.4646 59.2027 56.1494 58.8816C56.5496 59.0888 56.9326 59.3276 57.2947 59.5959L60.4719 61.7879L72.1095 69.9773L110.039 97.3287L110.791 97.8705H110.199L144.287 66.7016L154.619 57.3792L157.476 54.9162C157.801 54.5908 158.16 54.3018 158.548 54.0542V54.0542Z" fill="black"/>
<path d="M59.4004 127.894C59.2034 127.746 66.4568 117.919 75.6068 105.961C84.7567 94.0032 92.3427 84.4222 92.5397 84.5823C92.7368 84.7424 85.4956 94.5573 76.3457 106.478C67.1957 118.399 59.6098 128.054 59.4004 127.894Z" fill="black"/>
<path d="M126.542 82.1191C126.739 81.9467 134.793 90.9858 144.522 102.291C154.25 113.596 161.996 122.906 161.762 123.078C161.528 123.251 153.524 114.212 143.783 102.894C134.042 91.5769 126.296 82.2792 126.542 82.1191Z" fill="black"/>
<path d="M185.948 342.013C186.005 342.247 186.034 342.487 186.034 342.727C186.034 343.269 186.108 343.959 186.169 344.784C186.256 346.668 186.391 349.229 186.551 352.37C186.859 358.847 187.29 367.64 187.783 377.369C188.275 387.098 188.62 395.989 188.805 402.393C188.903 405.595 188.965 408.181 188.99 409.979V412.048C189.022 412.285 189.022 412.525 188.99 412.762C188.932 412.528 188.904 412.288 188.903 412.048C188.903 411.506 188.829 410.816 188.768 409.991C188.682 408.107 188.546 405.545 188.386 402.405C188.078 395.927 187.647 387.122 187.155 377.406C186.662 367.689 186.33 358.786 186.133 352.382C186.034 349.18 185.972 346.582 185.948 344.796V342.727C185.916 342.49 185.916 342.25 185.948 342.013V342.013Z" fill="black"/>
</svg>
