<svg version="1.1" id="Layer_1" xmlns="http://www.w3.org/2000/svg" xmlns:xlink="http://www.w3.org/1999/xlink" x="0" y="0" viewBox="0 0 163.7 312.1" xml:space="preserve"><style>.st1,.st2{clip-path:url(#SVGID_2_)}.st2,.st3{opacity:.3}.st3{enable-background:new}.st4{fill:#fafafa}.st4,.st5,.st6{clip-path:url(#SVGID_2_)}.st5{fill:#ffbe9d}.st6{fill:#aa6550}.st9{fill:#263238}</style><defs><path id="SVGID_1_" d="M41.8 0h103v312.1h-103z"/></defs><clipPath id="SVGID_2_"><use xlink:href="#SVGID_1_" overflow="visible"/></clipPath><path d="M141.2 152.9l-33.5 32.6-30.8 58.8-34.7 66.6-42.6-20-46.1-23.6L-17 211l18.3-63c-12.9 8.6-37 20.3-65.7 14.2-31.1-6.6-16.2-124-16.2-124l34.2-.9 3.4 82.8L-4.3 103l.1.1c2.3-1 4.4-2 5.5-2.5 21.4-11.7 35.4-13.1 58.4-4.9l33.1 11c8.4 4 39.8 19.5 48.4 46.2" clip-path="url(#SVGID_2_)" fill="#1c75bb"/><path class="st1" d="M24 93.2s-.8.4-2.1 1.4c-1.8 1.3-3.4 2.9-4.8 4.7-2 2.7-3.6 5.6-4.7 8.8-1.4 3.9-2.6 7.8-3.5 11.8L3 141.5c-.8 2.7-1.4 4.9-1.9 6.5-.2.7-.4 1.3-.5 1.8 0 .2-.1.4-.2.6 0-.2.1-.4.1-.6.1-.5.2-1.1.4-1.8.4-1.6 1-3.9 1.7-6.6 1.5-5.6 3.5-13.2 5.7-21.7 1-4 2.2-7.9 3.6-11.8 1.2-3.2 2.8-6.2 4.9-8.8 1.4-1.8 3.1-3.4 5-4.7.5-.3 1-.7 1.6-.9l.6-.3z"/><g class="st2"><path class="st3" d="M42 91.4c4.1 64.9 8.1 129.8 12.2 194.7l-12 24.7L42 91.4z"/></g><path class="st4" d="M79.7 158.7c-.1 0-1.4-3-3.1-6.7-1.7-3.7-3.2-6.6-3.1-6.7.5.5.9 1.2 1.2 1.8.7 1.2 1.5 2.8 2.4 4.7.9 1.9 1.6 3.6 2 4.8.3.7.5 1.4.6 2.1zM107 145c-2.1 1.6-4.2 3.1-6.5 4.4-2.2 1.5-4.4 2.8-6.8 3.9 2.1-1.6 4.2-3 6.5-4.4 2.2-1.4 4.4-2.7 6.8-3.9zm-11.9-9.8c-.3-1.7-.5-3.5-.5-5.3-.2-1.8-.2-3.6 0-5.3.4 1.8.5 3.5.5 5.3.2 1.7.2 3.5 0 5.3zm27.2-1.9c-1.7-.8-3.4-1.7-4.9-2.7-1.6-.9-3.2-2-4.6-3.2 1.7.8 3.4 1.7 4.9 2.7 1.6.9 3.2 2 4.6 3.2zm-41.5 53.9c.7-2.4 1.6-4.7 2.7-6.9.9-2.3 2-4.5 3.2-6.7-.7 2.4-1.6 4.7-2.7 6.9-1 2.3-2 4.5-3.2 6.7zm-12.1 12.3c-1-1.3-1.8-2.8-2.4-4.3-.8-1.4-1.5-3-2-4.5 1 1.3 1.8 2.8 2.4 4.3.8 1.4 1.5 2.9 2 4.5zM78.8 216c-1.6.7-3.4 1.1-5.1 1.3-1.7.3-3.5.4-5.3.2 0-.1 2.3-.3 5.2-.7s5.1-1 5.2-.8zm13-18.1c.4-1.7 1-3.3 1.7-4.8.6-1.6 1.3-3.2 2.2-4.6-.4 1.7-1 3.3-1.8 4.8-.5 1.6-1.2 3.1-2.1 4.6zm-31.6 38.2c-.1.1-1.6-2-3.6-4.3s-3.8-4.1-3.7-4.2c3 2.3 5.5 5.2 7.3 8.5zm-5.7-41c-.7 1.7-1.6 3.4-2.6 5-.9 1.7-1.9 3.3-3.1 4.8.7-1.7 1.6-3.4 2.6-5 .9-1.7 1.9-3.3 3.1-4.8zm4-14.2c-1.9-.2-3.8-.6-5.6-1.2-1.8-.4-3.7-.9-5.4-1.6 1.9.2 3.8.6 5.6 1.2 1.9.4 3.7.9 5.4 1.6zm-.2-29c1.1 1.3 2.1 2.6 3 4.1 1 1.3 2 2.7 2.8 4.2-1.2-1.2-2.3-2.5-3.2-3.9-1.1-1.3-1.9-2.8-2.6-4.4zm-9.2-1.4c-1 1.2-2.2 2.4-3.5 3.4-1.2 1.1-2.4 2.1-3.8 3 1-1.2 2.2-2.4 3.5-3.3 1.1-1.2 2.4-2.2 3.8-3.1zm7.3-15.2c-1.7-1.3-3.3-2.8-4.6-4.4-1.5-1.6-2.7-3.4-3.7-5.3.1-.1 1.8 2.3 4.1 4.9 2.2 2.7 4.3 4.7 4.2 4.8zm25.5-4.6c-1.8.8-3.7 1.5-5.6 2-1.9.7-3.8 1.2-5.8 1.5 1.8-.8 3.7-1.5 5.6-2 2-.7 3.9-1.2 5.8-1.5zm-36-24.4c-.2 0-.1-2.3-.4-5.1-.4-2.8-1-5-.8-5 .8 1.6 1.2 3.3 1.3 5 .3 1.7.3 3.4-.1 5.1zm-22.7 72.5c-.7.6-1.5 1.2-2.3 1.7-1.5 1-3.5 2.5-5.7 4.2s-4.1 3.3-5.4 4.5c-.7.7-1.4 1.3-2.2 1.8.6-.8 1.3-1.5 2-2.1 1.7-1.6 3.5-3.2 5.3-4.6 1.9-1.5 3.8-2.8 5.8-4.1.7-.5 1.6-1 2.5-1.4zm-1.3-8c-.1.1-1.8-2.5-4.1-5.6-2.3-3.1-4.4-5.4-4.3-5.5.6.4 1.1.9 1.5 1.4 1.1 1.2 2.2 2.5 3.2 3.8 1 1.3 1.9 2.7 2.8 4.1.3.5.6 1.2.9 1.8zm6-31.6c-3.1 2.1-6.4 3.9-9.8 5.4 1.5-1.1 3.1-2.1 4.8-2.9 1.6-1 3.3-1.8 5-2.5zm-6-13.8c-.6-.4-1.2-.8-1.7-1.3-1.3-1.2-2.5-2.5-3.6-3.8-1.1-1.4-2.1-2.8-3.1-4.3-.4-.6-.8-1.2-1-1.9.1-.1 1.8 2.8 4.4 5.9 2.7 3 5.1 5.3 5 5.4zm10.4-.3c.5-1.5 1.1-3 1.8-4.4.6-1.5 1.4-2.9 2.3-4.2-.5 1.5-1.1 3-1.8 4.4-.6 1.5-1.4 2.9-2.3 4.2zm-2.8-15.8c-.2 0 0-3.1-.6-6.9-.6-3.8-1.7-6.7-1.5-6.7.4.6.7 1.2.8 1.9.6 1.5 1 3.1 1.2 4.8.2 1.6.4 3.3.3 4.9.1.7 0 1.4-.2 2zm2.6 79.7c-.1-1-.1-2 0-2.9.1-1.8.1-4.3.1-7-.1-2.7-.3-5.2-.4-7-.1-1-.2-1.9-.2-2.9.3.9.5 1.9.5 2.9.3 2.3.5 4.7.6 7.1.1 2.3 0 4.7-.1 7-.1.9-.3 1.8-.5 2.8zm-1.5 24.9c-1.4-1.3-2.9-2.5-4.4-3.6-1.6-.9-3.4-1.8-5.1-2.5 1.9.3 3.7 1 5.4 2.1 1.6 1 3 2.4 4.1 4zm12.5 15.4c-2.2 1.4-4.5 2.7-6.9 3.8-2.3 1.3-4.7 2.4-7.1 3.4 2.2-1.4 4.5-2.7 6.9-3.8 2.3-1.4 4.6-2.5 7.1-3.4zm-35.2 6.8c-1.8-2-3.5-4.2-5.1-6.4-1.7-2.1-3.2-4.4-4.6-6.8 1.8 2 3.5 4.2 5.1 6.4 1.6 2.2 3.2 4.4 4.6 6.8zM-3 207.7c-.2-.7-.2-1.4-.2-2.1-.1-1.3-.1-3 0-5s.3-3.7.4-4.9c0-.7.2-1.4.4-2 .2 0-.2 3.1-.3 7s-.2 6.9-.3 7zm-11.7 48.5c-2-1.4-4-2.9-5.8-4.5-1.9-1.5-3.8-3.2-5.5-4.9 2 1.4 4 2.9 5.8 4.5 1.9 1.5 3.8 3.1 5.5 4.9zm7-1.5c-.3-2.6-.5-5.2-.5-7.8-.1-2.6-.1-5.2.1-7.9.3 2.6.5 5.2.5 7.8.1 2.7.1 5.3-.1 7.9zm13.9 30.1c0 .1-1.2-.4-3.3-1.1-5.2-1.7-10.7-2.4-16.2-2.2-2.1.1-3.4.2-3.4.1.3-.1.6-.2.9-.2.6-.1 1.4-.2 2.5-.3 5.6-.4 11.1.3 16.4 2.2.8.3 1.6.6 2.3 1 .3.2.6.3.8.5zm11.5 5.5c.8.4 1.6.9 2.3 1.6 1.7 1.4 3.4 2.8 4.9 4.4 1.6 1.6 3 3.2 4.4 4.9.6.7 1.1 1.4 1.6 2.3-.7-.6-1.3-1.3-1.8-2-1.1-1.3-2.7-3-4.5-4.8-1.8-1.8-3.5-3.4-4.8-4.5-.8-.6-1.5-1.2-2.1-1.9zm4.9-52.1c-1-1.9-1.9-3.8-2.6-5.8-.9-1.9-1.6-3.9-2.1-6 1 1.9 1.9 3.8 2.6 5.8.9 2 1.6 4 2.1 6zM.7 121.6c-.1-1.8-.1-3.7.2-5.5 0-1.8.3-3.7.7-5.5.1 1.8.1 3.7-.2 5.5-.1 1.9-.3 3.7-.7 5.5z"/><g class="st2"><path class="st3" d="M11.5 109.8c-9.6 25.9-26.8 40.4-51.2 53.4 14.4-1.6 28.2-6.6 40.2-14.7"/></g><path class="st4" d="M-17.5 136.9c-.4.6-.9 1.2-1.5 1.7-2.7 2.5-5.7 4.5-9.1 6-.7.4-1.4.6-2.1.8-.1-.2 3.1-1.5 6.6-3.9 3.5-2.4 6-4.8 6.1-4.6zm2.5-10.6c-.2-1.5-.2-3 0-4.5 0-1.5.1-3 .5-4.4.2 1.5.2 3 .1 4.5 0 1.4-.2 2.9-.6 4.4zm-19.9 8.9c-1.8-.5-3.5-1.2-5.2-2.1-1.7-.7-3.4-1.6-5-2.6 1.8.5 3.5 1.2 5.2 2.1 1.7.7 3.4 1.6 5 2.6zm-10.6 21.2c-2-.5-4-1.4-5.7-2.5-1.8-1-3.5-2.3-4.9-3.9.1-.1 2.2 1.7 5.2 3.4 2.9 1.8 5.4 2.8 5.4 3zM-60.3 136c-1.3 1.8-2.7 3.4-4.3 5-1.4 1.7-3 3.3-4.6 4.7 1.3-1.8 2.7-3.5 4.3-5.1 1.3-1.6 2.9-3.2 4.6-4.6zm-1.3-18.2c-1.7-.6-3.3-1.5-4.7-2.6-1.5-1-2.8-2.3-3.8-3.7.1-.1 1.8 1.6 4.1 3.3 2.4 1.7 4.5 2.9 4.4 3zm-9.3 3.8c-.6 1.1-1.3 2.1-2.1 2.9-.7 1-1.6 1.8-2.5 2.6 1.2-2 2.8-3.9 4.6-5.5zm20-33.8c-1.2 1.8-2.5 3.6-3.9 5.2-1.3 1.7-2.7 3.4-4.3 4.9 1.2-1.8 2.5-3.6 3.9-5.2 1.3-1.8 2.7-3.4 4.3-4.9zm-17.2 3.8c-1.5-1.4-3-2.9-4.3-4.5-1.4-1.5-2.7-3.1-3.9-4.8 1.5 1.4 3 2.9 4.3 4.5 1.5 1.5 2.8 3.1 3.9 4.8zm8.6-21.7c-1.1-1.5-2.2-3.1-3-4.7-1-1.6-1.8-3.3-2.5-5 1.1 1.5 2.1 3.1 3 4.8 1 1.5 1.8 3.2 2.5 4.9zm-.4-14c-.1-.1 1.4-2 2.6-4.7 1.2-2.7 1.6-5.1 1.8-5 0 1.8-.5 3.6-1.3 5.2-.8 1.7-1.8 3.2-3.1 4.5zm-16.6-.8c-.2-2.1.3-4.2 1.2-6.1.6-1.4 1.4-2.6 2.4-3.7.4-.5.9-.9 1.4-1.2-1.3 1.6-2.4 3.3-3.4 5.1-.7 1.9-1.2 3.9-1.6 5.9z"/><path class="st1" d="M67.7 31.3c-.5-4.1-.5-8.3-.2-12.5.4-4.2 2-8.2 4.6-11.4 2.7-3.2 6.9-5.2 11.1-4.7 2.6.3 5 1.6 7.6 1.5 3-.1 5.6-1.9 8.3-3.2 4.3-1.9 9.1-2.4 13.6-1.4 2.4.5 4.7 1.6 6.4 3.3.9.8 1.5 1.9 1.9 3.1.4 1.2.4 2.4.2 3.6 3-.1 6 .1 9 .8 3 .7 5.5 2.5 7.2 5 1.5 2.6 1.4 6.2-.8 8.4 1.4-.2 2.8.2 4 1s2 2 2.3 3.4c.3 1.4.1 2.8-.4 4.2-.5 1.3-1.4 2.5-2.6 3.3-2.8 1.7-6.1 2.4-9.4 1.9-2.8-.5-6-1.3-8.2-3"/><path class="st5" d="M65.6 125.5c5.5 1.4 11.4.6 16.3-2.3s8.5-7.6 9.9-13.1c1.7-6.4 3.1-11.8 3.1-11.8s16.7 2.9 22.2-13 15-53.2 15-53.2c-7.7-6.9-17.2-11.6-27.3-13.6-10.2-2-20.7-1.3-30.5 2l-3 1-21.2 77.3c-.8 2.8-1 5.7-.6 8.5s1.3 5.6 2.7 8.1c1.4 2.5 3.4 4.7 5.7 6.4 2.3 1.7 4.9 3 7.7 3.7z"/><path class="st6" d="M95 98.1c-7.4-2.3-13.9-6.8-18.7-12.8 0 0 1.1 13.1 17.4 17l1.3-4.2z"/><path class="st5" d="M67.8 38.6c-.2-.2-9.8-6.9-13.1 4.1-3.3 11 8.4 12 8.5 11.7s4.6-15.8 4.6-15.8z"/><path class="st6" d="M61.1 49.3s-.2.1-.6.1c-.5.1-1-.1-1.4-.4-1-.8-1.5-2.9-.9-4.9.3-1 .7-1.8 1.4-2.6.2-.3.5-.6.8-.7.3-.2.7-.3 1.1-.3.2 0 .5.1.7.2.2.2.3.4.3.6.1.4-.1.6 0 .6s.3-.1.3-.6c0-.3-.1-.6-.2-.8-.1-.2-.3-.3-.4-.4s-.4-.2-.6-.2c-.5 0-1 0-1.4.2-.4.2-.8.5-1.1.9-.8.8-1.3 1.8-1.6 2.9-.6 2.2-.1 4.6 1.4 5.6.3.2.6.3.9.3.3 0 .6 0 .9-.1.3-.2.4-.4.4-.4z"/><path class="st1" d="M118.7 55c-.2.6-.6 1.1-1.2 1.4-.6.3-1.2.3-1.8.2-.3-.1-.6-.2-.8-.4-.2-.2-.4-.4-.6-.7-.2-.3-.3-.6-.3-.9 0-.3 0-.6.1-.9.2-.6.6-1.1 1.2-1.4.6-.3 1.2-.4 1.8-.2.3.1.6.2.8.4.2.2.4.4.6.7.2.3.3.6.3.9s-.1.6-.1.9z"/><path class="st1" d="M121.6 53.5c-.4.2-1.7-1.6-4.1-2.5-2.4-.8-4.7-.2-4.8-.6-.1-.2.4-.6 1.4-.9 1.3-.4 2.7-.3 4 .1 1.3.4 2.4 1.2 3.1 2.3.5.9.6 1.5.4 1.6zM94.7 47c-.2.6-.6 1.1-1.2 1.4-.6.3-1.2.4-1.8.2-.3-.1-.6-.2-.8-.4-.2-.2-.4-.4-.6-.7-.2-.3-.3-.6-.3-.9 0-.3 0-.6.1-.9.2-.6.6-1.1 1.1-1.4.6-.3 1.2-.4 1.8-.2.3.1.6.2.8.4.2.2.5.4.6.7.2.3.3.6.3.9.1.2 0 .6 0 .9z"/><path class="st1" d="M97.5 45.9c-.4.2-1.7-1.6-4.1-2.5-2.4-.8-4.6-.2-4.8-.6-.1-.2.4-.6 1.4-.9 1.3-.4 2.7-.4 4 .1 1.3.4 2.4 1.2 3.2 2.3.4.9.5 1.5.3 1.6zm2.8 21.1c0-.1 1.6.1 4.2.6.6.2 1.3.2 1.5-.2.3-.6.3-1.3.2-2-.1-1.7-.2-3.5-.2-5.4-.3-7.6-.3-13.8 0-13.8s.8 6.2 1.1 13.8c.1 1.9.1 3.7.2 5.4.1.9 0 1.8-.5 2.5-.2.2-.4.3-.6.4-.2.1-.5.1-.7.1-.4 0-.8-.1-1.1-.2-2.6-.6-4.2-1.1-4.1-1.2zm-7.8-.8c.4.1-.5 2.8 1.2 5.4s4.6 3.3 4.4 3.7c0 .2-.8.3-2-.1-1.6-.5-2.9-1.5-3.8-2.9-.8-1.3-1.1-2.9-.8-4.5.3-1.1.8-1.6 1-1.6zm29.7-17.3c-.6.4-2.1-.7-4.1-1.4s-3.9-.9-4.1-1.6c-.1-.3.4-.8 1.3-1.1 1.2-.3 2.5-.2 3.7.2 1.2.4 2.2 1.2 2.9 2.2.5.8.5 1.5.3 1.7zM97.3 36c-.4.2-1-.1-1.7-.6-.9-.5-1.9-1-2.9-1.4-1-.4-2.1-.6-3.1-.8-.8-.2-1.5-.3-1.7-.7-.2-.4.3-1 1.4-1.4 1.4-.5 3-.4 4.4.1 1.4.5 2.6 1.5 3.4 2.8.6 1.1.5 1.8.2 2z"/><path class="st1" d="M131.3 37.3c-8.4-.5-16.3-3.7-22.8-9-7.2-5.9-16.2-10-18.6-8.8s-4.8 9.4-13.4 10c0 0-3.1 16-9.3 14s3.3-25.8 3.3-25.8l17.2-4.1 17.7.7 15.9 3.6 13.7 7.9-3.7 11.5z"/><path d="M44.8 282.5l11.6-5.6L50 258l-14-3.3c-1.3-.3-2.8-.7-4.4-1.1-1.9-.5-3.7-1.4-5.3-2.5-2.1-1.3-3.9-2.9-5.6-4.7-1.3-1.8-4.1-1.1-4.1.9s3.5 7.1 9.9 10.7c6.3 3.6-4.9 5.3-8.9 6-4 .7-16.5 3.5-17.2 4.9-1.1 2.1 1 3.6 5 2.9 4-.8 16.3-2.4 16.6-.2v.1c-1 1.5-1.5 3.4-1.4 5.2.1 1.8.8 3.6 1.9 5 2.3 2.8 5.6 6.4 8.1 5.8 4.7-1.1 14.2-5.2 14.2-5.2z" fill="#ffbe9d"/><path d="M44.1 249.2L55 286.1l84.7-25.7c4.3-1.3 8.3-3.5 11.8-6.4 3.5-2.9 6.3-6.4 8.4-10.5s3.3-8.4 3.7-12.9c.4-4.5-.2-9-1.6-13.3l-20.8-64.6-45.1 11.2 24.8 59.8-76.8 25.5z" fill="#1c75bb"/><path class="st9" d="M141.6 259.7l-.4.2-1.2.4-4.7 1.5-17.8 5.4-61.7 18.7-.2.1-.1-.2c-3.8-11.3-7.4-23.7-11.7-36.4l-.1-.2.3-.2 2.1-.7 74.8-24.8-.1.3c-6-14.5-10.9-26.4-14.3-34.7-1.7-4.1-3-7.3-3.9-9.6-.4-1.1-.8-1.9-1-2.5l-.3-.9.4.8c.2.6.6 1.4 1.1 2.5.9 2.2 2.3 5.4 4 9.5 3.4 8.3 8.4 20.1 14.4 34.6l.1.2-.2.1-74.7 24.9-2.1.7.2-.3c4.2 12.8 7.9 25.2 11.6 36.4l-.3-.2 61.7-18.5 17.8-5.3 4.8-1.4 1.2-.4h.3z"/><path class="st9" d="M136.6 234.4c-.1 0-.6-.9-1.8-2.3-3-3.7-7-6.4-11.6-7.7-1.7-.5-2.9-.6-2.8-.7h.8c.7.1 1.4.2 2.1.4 2.3.6 4.6 1.5 6.6 2.9 2 1.3 3.8 3 5.2 4.9l1.2 1.8c.2.2.3.4.3.7z"/><path d="M116.1 167c-.3-1.8-.3-3.6-.3-5.5-.1-1.8 0-3.7.3-5.5.3 1.8.3 3.6.3 5.5 0 1.8 0 3.6-.3 5.5zm17 .8c-.8-1.7-1.4-3.4-1.8-5.2-.6-1.8-1.1-3.6-1.3-5.4.8 1.7 1.4 3.4 1.8 5.2.6 1.8 1 3.6 1.3 5.4zm-10.5 15.4c-3.5 0-6.9-1-9.9-2.9.1-.1 2.2.9 4.9 1.6 2.7.8 5 1.1 5 1.3zm19.2 8.4c0-1.8.3-3.5.6-5.2.2-1.7.6-3.5 1.1-5.1 0 1.8-.3 3.5-.6 5.2-.2 1.7-.6 3.5-1.1 5.1zm-6.9 13.8c-1-1.5-1.8-3.1-2.5-4.8-.8-1.6-1.5-3.3-2-5 1 1.5 1.8 3.1 2.5 4.8.8 1.6 1.5 3.3 2 5zm-2.8 12.1c-1.6-.5-3.2-1.2-4.8-2-1.6-.7-3.1-1.5-4.5-2.5 1.6.5 3.2 1.2 4.7 2 1.7.7 3.2 1.5 4.6 2.5zm21.6-3.2c-.5 1.6-1.2 3.1-1.9 4.6-.6 1.6-1.2 3.1-2 4.5.3-1.6.8-3.2 1.5-4.7.6-1.6 1.4-3.1 2.4-4.4zm-6 29c-.4-1.8-.7-3.7-.8-5.6-.3-1.9-.4-3.8-.3-5.6.4 1.8.7 3.7.8 5.6.3 1.8.4 3.7.3 5.6zm-15.3 9.2c-1.4-1-2.8-2.1-4-3.3-1.3-1.1-2.5-2.3-3.6-3.7 1.4 1 2.8 2.1 4 3.3 1.3 1.1 2.6 2.3 3.6 3.7zm-26.4 2.6c-1.9 3.2-4.1 6.2-6.5 8.9.9-1.6 1.9-3.2 3.1-4.6 1-1.5 2.1-3 3.4-4.3zm8.4-12.4c-1.5-1-2.9-2.2-4.1-3.6-1.3-1.3-2.4-2.7-3.2-4.3.1-.1 1.6 1.8 3.6 4 2 2.3 3.8 3.8 3.7 3.9zm-19.9 2.8c-1.3.5-2.6.7-4 .5-1.4 0-2.7-.4-3.9-1.1.1-.2 1.7.4 3.9.5 2.2.3 4 0 4 .1zm-12.6 21.9c-.5-1.4-.8-2.8-1-4.3-.3-1.4-.5-2.9-.5-4.4.8 2.9 1.3 5.8 1.5 8.7zM67 275c-1.7-.8-3.4-1.8-5-2.9-1.7-1-3.3-2.1-4.8-3.3 1.7.8 3.4 1.8 5 2.9 1.7.9 3.3 2 4.8 3.3zm5.3-26.7c.1.1-1.3 1.8-3 4.1-1.7 2.2-2.8 4.1-2.9 4.1.6-1.6 1.5-3.1 2.5-4.4.9-1.4 2.1-2.7 3.4-3.8zm-11.5 5.1c-2-.6-3.9-1.6-5.6-2.8 2 .6 3.9 1.5 5.6 2.8z" fill="#fafafa"/><path d="M120.3 222.1c4.5.5 9 .9 13.6 1.5 1.6.1 3.1.5 4.6 1 .7.3 1.4.7 2 1.3.6.6 1 1.2 1.3 1.9.3.7.3 1.5.1 2.3-.2.8-.7 1.4-1.3 1.9-.6.3-1.4.5-2.1.5-.7 0-1.4-.2-2-.6-1.2-.8-2.3-1.7-3.4-2.7-2-1.7-4.4-2.9-6.9-3.6-1.2-.2-2.3-.6-3.3-1.2-.5-.3-.9-.7-1.2-1.3-.3-.5-.3-1.1-.2-1.7" opacity=".2"/></svg>