<svg version="1.1" id="Layer_1" xmlns="http://www.w3.org/2000/svg" xmlns:xlink="http://www.w3.org/1999/xlink" x="0" y="0" viewBox="0 0 90.2 306.2" xml:space="preserve"><style>.st0{fill:#f5f5f5}.st0,.st1,.st4{clip-path:url(#SVGID_2_)}.st1{fill:#e0e0e0}.st4{fill:#263238}</style><defs><path id="SVGID_1_" d="M0 0h90.2v306.2H0z"/></defs><clipPath id="SVGID_2_"><use xlink:href="#SVGID_1_" overflow="visible"/></clipPath><path class="st0" d="M42.9.4c2.1-.5 4.3-.5 6.4-.1 2.1.4 4.1 1.2 5.9 2.4C58.9 5 61.8 8.2 64 12c4.4 7.1 5.9 16.5 6 24.8-9.2-.5-17-7.8-20.8-11.8C43.3 18.8 36.5 3.9 42.9.4zm41.9 42.1c-1.8-1.6-3.2-3.6-4-5.9-.8-2.3-1-4.7-.5-7.1.5-2.4 1.4-4.6 2.8-6.6s3.1-3.7 5.1-5c1.8-1.2 4.1-2.2 6.2-1.6 1 .4 1.8 1 2.5 1.8.6.9 1.1 1.9 1.2 2.9.3 2.1 0 4.2-.8 6.1-2.3 6.7-5.9 12.8-12.5 15.4"/><path class="st1" d="M90.2 62.6c-1-1.5-1.9-3.1-2.6-4.8-.8-1.8-1.5-3.7-1.8-5.7-.5-2.4-.9-4.8-1.2-7.2-.4-4.5.3-9 2.1-13.1.5-1.2 1.2-2.4 2-3.5.6-.8 1-1.1 1-1.1s-1.2 1.7-2.4 4.9c-1.5 4.1-2.1 8.5-1.8 12.8.2 2.4.6 4.8 1.1 7.1.3 1.9.9 3.8 1.6 5.6 1.2 3 2.1 5 2 5z"/><path class="st1" d="M49.2 11.3c.7.6 1.4 1.3 1.9 2 1.2 1.3 2.9 3.3 5 5.7 4.2 4.9 9.9 11.6 16 19.2s11.4 14.7 15.1 19.9c1.9 2.6 3.4 4.7 4.4 6.2.6.7 1.1 1.5 1.5 2.3-.7-.7-1.2-1.4-1.8-2.1l-4.6-6c-3.9-5.1-9.3-12.1-15.4-19.7L55.6 19.4l-4.8-5.9c-.6-.7-1.2-1.4-1.6-2.2z"/><path class="st0" d="M78.5 51.5c-4.2-2.9-9-4.7-14.1-5.3-5-.6-10.2-.1-14.9 1.7-2.4.9-5 2.6-5.1 5.2-.1 2.6 2.5 4.4 4.9 5.4 5 2 10.5 2.4 15.8 1.3 5.3-1.1 10.1-3.8 13.9-7.7"/><path class="st1" d="M56 51.8c.4-.2.9-.4 1.4-.5.9-.3 2.2-.5 3.9-.9 4.3-.8 8.8-.9 13.2-.1 2.4.5 4.7 1.4 6.8 2.6 2.9 1.7 5.3 4.1 7.1 6.9.3.4.5.8.7 1.3-.1.1-1.3-1.6-3.6-4-3.1-3-7-5.1-11.2-5.9-4.3-.7-8.6-.8-12.9-.1-3.3.4-5.4.9-5.4.7z"/><path d="M92.1 254.5c29.8-14.5 41.5-48.3 45.4-79.8.7-5.2 2.1-10.7.3-15.6s-7.1-9-12.1-7.6c-4.2 1.2-6.6 5.4-9.3 8.8-3.7 4.5-8.6 7.9-14.1 9.8-3.6 1.2-7.9 1.6-10.9-.7-4.1-3.2-3.7-9.5-2.8-14.7l4.8-29c.9-5.2 1.7-10.5.9-15.7-.8-5.2-3.7-10.3-8.4-12.5-4.7-2.2-11.3-.3-13.1 4.6-.8 2-.7 4.3-1.2 6.4-.5 2.1-1.9 4.4-4 4.6-2.1.3-4-1.5-5.3-3.3-4.5-6.1-7.1-13.4-9.4-20.7-2.3-7.3-4.5-14.7-8.5-21.1S34.4 56 27 54.4c-7.4-1.6-16 1.7-19.1 8.7-3.1 7 0 15.1 3.7 21.8 5.5 9.9 12.4 18.9 20.5 26.8 1.4 1.4 3 3 3.3 5 .6 3.6-3.2 6.6-6.8 7.1-4.1.7-8.2-.4-12.3-.6-4.1-.2-8.8.9-10.9 4.5-3 5 .6 11.2 4.4 15.6 7.6 8.7 16.6 16 26.7 21.6 3.6 2 7.4 3.9 10.1 7.1 2.7 3.2 3.8 8.1 1.3 11.5-2.4 3.4-7.4 3.8-11.3 2.4-3.9-1.4-7.1-4.1-10.7-6.2-6.7-3.8-16-4.8-21.6.6-3.6 3.6-4.8 9.2-4.1 14.2s3.2 9.7 5.8 14.1c9.3 15.2 22.2 28.4 37.9 36.8 15.7 8.5 30.7 12.5 48.2 9.1" clip-path="url(#SVGID_2_)" fill="#ebebeb"/><path class="st1" d="M87.8 256.2c.8-12.6 1.4-6-.7-22.6-2.1-16.6-5.9-34.4-10.5-53l-3.5-13.8c-1.1-4.5-2.3-9-3.7-13.3-2.7-8.3-5.8-16.4-9.4-24.3-3.3-7.6-6.8-14.7-10.1-21.3-3.3-6.6-6.5-12.7-9.6-18.1-4.9-8.6-10.5-16.8-16.7-24.5-2.2-2.7-4-4.8-5.2-6.2L17 57.5c-.1-.2-.3-.4-.5-.5.1.2.3.4.4.6l1.3 1.6c1.2 1.4 2.9 3.5 5 6.3 6.1 7.8 11.6 16 16.5 24.6 3.1 5.4 6.2 11.5 9.5 18.1 3.3 6.6 6.7 13.7 10 21.3 3.5 7.9 6.6 16 9.3 24.2 1.4 4.3 2.5 8.7 3.6 13.3 1.2 4.5 2.3 9.1 3.5 13.8 4.6 18.6 8.4 36.5 10.6 52.9s1.7 9.9.9 22.4"/><path class="st1" d="M69.2 153.4c.4-.7.6-1.4.9-2.1.5-1.4 1.2-3.4 1.9-6 1.6-5.1 3.5-12.1 5.6-19.9s4.1-14.8 5.7-19.8c.8-2.5 1.5-4.5 2-5.9.3-.7.5-1.5.6-2.2-.4.7-.7 1.3-1 2.1-.6 1.4-1.4 3.3-2.3 5.8-1.8 5-3.9 12-6 19.8s-3.9 14.6-5.3 20c-.6 2.4-1.2 4.4-1.6 6-.2.7-.4 1.5-.5 2.2zM4.4 130.3c.8.3 1.7.6 2.6.8 1.7.4 4.1 1 7.1 1.9 6 1.6 14.2 4.2 23.2 7.4s16.9 6.5 22.6 9c2.9 1.2 5.2 2.3 6.7 3 .8.4 1.6.8 2.5 1.1-.7-.5-1.5-1-2.3-1.4-1.5-.8-3.8-2-6.6-3.3-5.6-2.7-13.6-6.1-22.6-9.3-7.7-2.8-15.4-5.2-23.3-7.1-3-.8-5.5-1.2-7.2-1.6-.9-.3-1.8-.4-2.7-.5zm82.1 102s.2-.2.6-.7l1.5-2.2c1.3-1.9 3.1-4.8 5.4-8.4 4.4-7.1 10.3-17.2 16.5-28.4 6.3-11.2 12-21.3 16.3-28.5 2.1-3.5 3.8-6.4 5.1-8.5.6-.9 1-1.7 1.4-2.3.2-.3.3-.5.4-.9-.2.2-.4.5-.6.7l-1.5 2.2c-1.3 1.9-3.2 4.8-5.4 8.4-4.4 7.1-10.3 17.2-16.5 28.4-6.3 11.2-12 21.3-16.3 28.5-2.1 3.5-3.8 6.4-5.1 8.5l-1.4 2.3c-.2.3-.3.6-.4.9zM2.3 189.5c.2.2.5.4.8.5l2.4 1.3c2.3 1.2 5.3 2.7 9 4.6 7.6 3.9 18.1 9.4 29.6 15.4 11.5 6.1 22 11.5 29.7 15.2 3.8 1.9 7 3.3 9.2 4.3l2.5 1.1c.3.1.6.3.9.3-.2-.2-.5-.4-.8-.5l-2.4-1.3c-2.3-1.2-5.3-2.7-9-4.6-7.6-3.9-18.1-9.4-29.6-15.4-11.5-6.1-22-11.5-29.7-15.2-3.9-1.9-7-3.3-9.2-4.3l-2.5-1.1-.9-.3z"/><path d="M28.3 174.2s6.9-4.7 15.5 11.9 11.9 26.1 11.9 26.1 2.3 3.5 4.6 1.2c2.4-2.3 5.6-8.8 9.7-7.6 4.1 1.1 5.7 5.9 4.9 12.8s-1.8 22-1.9 23.4c-.1 1.4.7 3.3 2.6 2s12.5-13.4 18-8c5.4 5.4.2 24.3-.3 26.4-.5 2.1-.1 3 .9 3.5s4.2-3.9 7.4-7.2c3.2-3.3 7.4-6.6 10.3-3.2 2.9 3.4 3.9 17.6-9.3 40.7l-6.9 10.3-12.4-.6c-26.5-2.9-37.4-12-38.4-16.3-1-4.3 4.1-5.8 8.7-6.5s10-.6 10.2-1.7c.2-1.1-.3-1.9-2.3-2.7S41 271 39.8 263.3c-1.2-7.6 14.9-9.1 17.1-9.9s1-2.5-.1-3.3-14.1-8.8-20.1-12.2-9-7.4-7.5-11.5c1.5-4 8.6-2.8 11.9-3.3 3.3-.6 1.8-4.4 1.8-4.4s-5.8-8.3-14.1-25-.3-19.6-.3-19.6" clip-path="url(#SVGID_2_)" fill="#8cbf43"/><path class="st4" d="M36 189c.1.1.1.2.2.3l.5.9 1.8 3.4c1.5 3 3.7 7.3 6.4 12.6 5.5 10.6 13 25.2 21.2 41.4s15.8 30.8 21.1 41.5c2.6 5.3 4.8 9.6 6.3 12.6l1.7 3.5.4.9c.1.2.1.3.1.3s-.1-.1-.2-.3l-.5-.9-1.8-3.4-6.4-12.6C81.5 278.6 74 264 65.6 247.8S49.8 217 44.5 206.3l-6.3-12.6c-.7-1.5-1.3-2.6-1.7-3.4l-.4-.9c0-.2-.1-.3-.1-.4z"/><path class="st4" d="M65.9 215c-.2 1.1-.4 2.2-.7 3.3-.5 2.1-1.1 4.8-1.8 7.8s-1.3 5.8-1.9 7.8c-.3 1-.5 1.8-.7 2.3-.1.3-.2.6-.3.8.2-1.1.4-2.2.7-3.3l1.7-7.8c.7-3.1 1.4-5.8 1.9-7.8.3-1 .5-1.8.7-2.3.1-.3.2-.6.4-.8zm-6.5 22.3c0 .1-5.7-1.3-12.7-3.3-7-1.9-12.6-3.6-12.6-3.7 0-.1 5.7 1.3 12.7 3.3 7 1.9 12.6 3.5 12.6 3.7zm16 27.8c-.3.1-.6.1-.9.1-.6.1-1.4.1-2.5.2-2.1.1-5 .2-8.2.1-3.2-.1-6.1-.3-8.2-.5-1-.1-1.9-.2-2.5-.3-.3 0-.6-.1-.9-.2 1.1 0 2.3 0 3.4.2 2.1.1 5 .3 8.2.4 3.2.1 6.1.1 8.2.1 1.1-.2 2.3-.2 3.4-.1zm10.3-18.9c-.4 1-.9 1.9-1.4 2.8-.9 1.7-2.2 4.1-3.7 6.6-1.4 2.6-2.8 4.9-3.8 6.6-.5.9-1.1 1.8-1.7 2.7.4-1 .9-1.9 1.4-2.8.9-1.7 2.2-4.1 3.7-6.6 1.4-2.6 2.8-4.9 3.8-6.6.5-1 1.1-1.9 1.7-2.7zM103 269c-.1.4-.3.7-.5 1l-1.4 2.6c-1.2 2.2-2.9 5.2-4.8 8.5s-3.6 6.3-4.9 8.4c-.6 1-1.1 1.8-1.5 2.5l-.6.9c.1-.4.3-.7.4-1l1.4-2.6c1.2-2.2 2.9-5.2 4.8-8.5s3.6-6.2 4.9-8.4c.6-1 1.1-1.8 1.5-2.5.3-.4.5-.7.7-.9zm-13.5 23.1c-.4.1-.8.1-1.2.1-.8 0-1.8 0-3.2.1-2.7 0-6.3 0-10.4-.3-4.1-.3-7.7-.6-10.4-.9-1.3-.2-2.4-.3-3.1-.4-.4 0-.8-.1-1.1-.2h1.2l3.1.3c2.6.2 6.3.5 10.4.7 4.1.2 7.7.3 10.4.4l3.2.1c.3 0 .7 0 1.1.1z"/></svg>