<svg width="633" height="502" fill="none" xmlns="http://www.w3.org/2000/svg"><path d="M630.647 194.49H523.129v73.273h107.518V194.49z" fill="#F2F2F2"/><path d="M618.855 283.809l-7.287-5.072-7.299 5.072v-26.391h14.586v26.391z" fill="#E0E0E0"/><path d="M611.568 266.932c5.894 0 10.673-4.778 10.673-10.672 0-5.894-4.779-10.673-10.673-10.673s-10.672 4.779-10.672 10.673 4.778 10.672 10.672 10.672z" fill="#E0E0E0"/><path d="M622.121 256.387c.944-5.818-3.006-11.301-8.825-12.245-5.818-.944-11.3 3.007-12.244 8.825-.945 5.818 3.006 11.3 8.824 12.244 5.819.945 11.301-3.006 12.245-8.824z" fill="#F2F2F2"/><path d="M619.107 254.674a7.55 7.55 0 11-15.1-.001 7.55 7.55 0 0115.1.001v0z" stroke="#E0E0E0" stroke-width=".675" stroke-miterlimit="10"/><path d="M531.775 219.749h87.331m-63.708-6.783h40.085m-63.708 13.567h87.331m-87.331 6.783h87.331m-87.331 6.784h87.331m-62.411 6.784h37.493" stroke="#828282" stroke-width=".889" stroke-miterlimit="10"/><path d="M583.855 311.9h-17.368v83.807h17.368V311.9z" fill="#F2F2F2"/><path d="M562.698 327.368H545.33v68.339h17.368v-68.339z" fill="#E0E0E0"/><path d="M541.53 318.168h-17.368v77.539h17.368v-77.539z" fill="#F2F2F2"/><path d="M520.371 352.954h-17.368v42.753h17.368v-42.753z" fill="#E0E0E0"/><path d="M499.204 372.953h-17.368v22.754h17.368v-22.754z" fill="#F2F2F2"/><path d="M593.345 400.15H477.986v-91.018" stroke="#F2F2F2" stroke-width="1.022" stroke-miterlimit="10"/><path d="M574.478 63.676a58.524 58.524 0 00-41.382 99.905 58.525 58.525 0 0090.042-8.869 58.524 58.524 0 00-48.66-91.036zm0 107.317a48.798 48.798 0 01-45.08-30.121 48.798 48.798 0 0135.561-66.53 48.79 48.79 0 0150.09 20.748 48.799 48.799 0 018.223 27.109 48.78 48.78 0 01-48.794 48.857v-.063z" fill="#E0E0E0"/><path d="M576.505 79.509a2.386 2.386 0 01-1.47 2.22 2.392 2.392 0 111.47-2.22zm0 85.38a2.389 2.389 0 01-2.862 2.344 2.387 2.387 0 01-1.876-1.885 2.39 2.39 0 012.36-2.85 2.387 2.387 0 011.686.701 2.382 2.382 0 01.692 1.69zM554.92 84.216a2.38 2.38 0 01-.17 2.638 2.375 2.375 0 01-2.503.852 2.379 2.379 0 112.673-3.49zm42.691 73.889a2.383 2.383 0 01-1.31 3.432 2.38 2.38 0 111.31-3.432zm-59.052-59.126a2.377 2.377 0 01.597 3.624 2.384 2.384 0 01-2.548.689 2.377 2.377 0 01-1.615-2.088 2.384 2.384 0 011.752-2.463 2.381 2.381 0 011.814.238zm73.903 42.69a2.388 2.388 0 011.177 2.384 2.396 2.396 0 01-1.755 1.998 2.391 2.391 0 11.578-4.382zm-80.664-21.673a2.391 2.391 0 11-2.392 2.379 2.377 2.377 0 012.392-2.379zm85.369 0a2.393 2.393 0 01.476 4.738 2.398 2.398 0 01-2.457-1.026 2.393 2.393 0 011.981-3.712zm-80.723 21.585a2.387 2.387 0 012.658.16 2.39 2.39 0 11-3.526 3.087 2.371 2.371 0 01.168-2.637c.191-.248.429-.455.7-.61zm73.939-42.691a2.377 2.377 0 013.473 2.688 2.379 2.379 0 01-4.354.572 2.402 2.402 0 01.881-3.26zm-59.126 59.052a2.39 2.39 0 11.881 3.259 2.372 2.372 0 01-1.181-2.376 2.38 2.38 0 01.3-.883zm42.691-73.94a2.393 2.393 0 012.38-1.184 2.388 2.388 0 012.004 1.748 2.398 2.398 0 01-.851 2.519 2.39 2.39 0 01-3.533-3.083z" fill="#E0E0E0"/><path d="M574.48 85.198v37.001l-21.622 13.894" stroke="#F2F2F2" stroke-width=".889" stroke-miterlimit="10"/><path d="M574.477 126.214a4.015 4.015 0 10-.001-8.03 4.015 4.015 0 00.001 8.03z" fill="#E0E0E0"/><path d="M538.397 115.743h-97.311v117.712h97.311V115.743z" fill="#F2F2F2"/><path d="M454.702 130.87h29.375m-29.375 8.382h70.076m-70.076 8.37h70.076m-70.076 8.382h70.076m-70.076 8.381h70.076m-70.076 8.37h70.076m-70.076 8.382h70.076m-70.076 8.382h70.076m-70.076 8.369h70.076m-70.076 8.382h70.076m-70.076 8.369h29.375" stroke="#E0E0E0" stroke-width=".889" stroke-miterlimit="10"/><path d="M516.218 110.079v28.947a6.545 6.545 0 01-13.089 0V108.82a10.069 10.069 0 019.993-9.992 10.067 10.067 0 019.98 10.005v6.91" stroke="#E0E0E0" stroke-width="1.777" stroke-miterlimit="10"/><path d="M195.283 54.26L177.28 32.289a50.337 50.337 0 00-17.185 50.13l27.677-6.319a21.924 21.924 0 017.511-21.838z" fill="#E0E0E0"/><path d="M204.28 49.837a21.938 21.938 0 0126.235 16.481c.623 2.713.716 5.52.276 8.268l28.104 4.45a50.343 50.343 0 00-81.616-46.749l18.004 21.973a21.882 21.882 0 018.997-4.423z" fill="#E0E0E0"/><path d="M258.896 79.036l-28.068-4.414a22.025 22.025 0 01-3.658 8.997l23.388 16.126a50.48 50.48 0 008.338-20.709z" fill="#fff"/><path d="M214.007 92.651a21.937 21.937 0 01-22.596-8.463l-22.933 16.757a50.333 50.333 0 0041.36 20.642A50.332 50.332 0 00250.6 99.788l-23.387-16.125a21.873 21.873 0 01-13.206 8.988z" fill="#F2F2F2"/><path d="M191.447 84.152a21.798 21.798 0 01-3.667-8.045l-27.676 6.318a50.051 50.051 0 008.41 18.484l22.933-16.757z" fill="#E0E0E0"/><path d="M154.435 269.336h-108.6v143.525h108.6V269.336z" fill="#F2F2F2"/><path d="M63.82 397.52a123.945 123.945 0 00-17.985-28.721v44.05h93.322c-18.791-15.443-45.22-23.107-75.337-15.329z" fill="#E0E0E0"/><path d="M54.999 350.777h90.263m-90.263 7.778h90.263m-90.263 7.79h90.263m-90.263 7.791h90.263m-90.263 7.79h90.263m-90.263 7.778h90.263" stroke="#E0E0E0" stroke-width=".889" stroke-miterlimit="10"/><path d="M74.116 285.622H55v10.823h19.117v-10.823zm23.724 0H78.721v10.823h19.117v-10.823zm23.711 0h-19.117v10.823h19.117v-10.823zm23.724 0h-19.118v10.823h19.118v-10.823zm-71.159 15.002H55v10.823h19.117v-10.823zm23.724 0H78.721v10.823h19.117v-10.823zm23.711 0h-19.117v10.823h19.117v-10.823zm23.724 0h-19.118v10.823h19.118v-10.823zm-71.159 15.002H55v10.823h19.117v-10.823zm23.724 0H78.721v10.823h19.117v-10.823zm23.711 0h-19.117v10.823h19.117v-10.823zm23.724 0h-19.118v10.823h19.118v-10.823zM74.116 330.64H55v10.824h19.117V330.64zm23.724 0H78.721v10.824h19.117V330.64zm23.711 0h-19.117v10.824h19.117V330.64zm23.724 0h-19.118v10.824h19.118V330.64zm83.291-116.366H73.248v5.89h155.318v-5.89z" fill="#E0E0E0"/><path d="M170.862 220.152H58.737l-15.883-74.645H154.98l15.883 74.645z" fill="#F2F2F2"/><path d="M151.303 147.206l15.518 72.958" stroke="#E0E0E0" stroke-width=".782" stroke-miterlimit="10"/><path d="M116.68 181.967c1.259 5.891-3.172 10.66-9.88 10.66s-13.164-4.769-14.41-10.66c-1.246-5.89 3.172-10.659 9.88-10.659s13.151 4.782 14.41 10.659z" stroke="#E0E0E0" stroke-width=".675" stroke-miterlimit="10"/><path d="M88.011 86.796h-66.01a12.95 12.95 0 00-12.939 12.95v29.45A12.94 12.94 0 0022 142.109h17.733a7.966 7.966 0 017.715 5.953L55 176.531l7.55-28.469a7.992 7.992 0 017.728-5.953h17.733a12.937 12.937 0 0012.938-12.913v-29.45a12.95 12.95 0 00-12.938-12.95z" fill="#E0E0E0"/><path d="M80.082 100.615H33.24v31.061h46.843v-31.061z" stroke="#F2F2F2" stroke-width=".782" stroke-miterlimit="10"/><path d="M36.572 103.887l20.087 15.165 20.086-15.165m-16.123 12.17l16.122 12.347m-40.172 0l16.236-12.259" stroke="#F2F2F2" stroke-width=".782" stroke-miterlimit="10"/><path d="M43.42 100.577a8.974 8.974 0 11-17.948.025 8.974 8.974 0 0117.948-.025z" fill="#E0E0E0"/><path d="M29.035 99.734l4.292 3.675 6.532-5.576" stroke="#F2F2F2" stroke-width=".666" stroke-linecap="round" stroke-linejoin="round"/><path d="M425.124 53.482l6.796 37.53h62.236l-6.784-37.53h-62.248z" fill="#E0E0E0"/><path d="M493.428 41.589h-61.304v49.436h61.304V41.589z" fill="#F2F2F2"/><path d="M470.535 48.12l-6.695 8.42h-25.851l-5.865 34.472h62.248l7.287-42.891h-31.124zM29.902 243.384c5.504-5.504 5.504-14.429 0-19.934-5.505-5.505-14.43-5.505-19.935 0-5.505 5.505-5.505 14.43 0 19.934 5.505 5.505 14.43 5.505 19.935 0zm175.281-75.607c5.505-5.504 5.505-14.429 0-19.934-5.505-5.505-14.43-5.505-19.935 0-5.504 5.505-5.504 14.43 0 19.934 5.505 5.505 14.43 5.505 19.935 0z" fill="#E0E0E0"/><path d="M328.726 273.432l-144.658 29.06 144.658 90.955 144.658-90.955-144.658-29.06z" fill="#2B3A8C"/><path d="M399.872 276.49l-5.186-10.647 27.84-123.338-72.204-21.76h-43.193l-72.203 21.71 27.839 123.338-5.185 10.647-28.796 15.782 67.031 47.825a17.486 17.486 0 0015.536 1.213 17.493 17.493 0 0010.339-11.659l7.036-25.901 7.035 25.901a17.496 17.496 0 0025.876 10.446l67.03-47.825-28.795-15.732z" fill="#1C75BB"/><path d="M307.179 123.614h43.093l-21.547 104.271-21.546-104.271z" fill="#F0F0F1"/><path d="M307.671 126.031l28.707 99.727-12.975 8.76-15.732-108.487z" fill="#BFBFBF"/><path d="M383.398 158.501s-13.505-24.114-33.125-34.887l-21.547 104.271-21.546-104.271c-19.621 10.773-33.125 34.887-33.125 34.887l19.469 11.327-19.469-.352s17.355 39.266 59.29 76.331c10.635-12.045 36.964-43.735 50.053-76.331l-19.47.352 19.47-11.327z" fill="#2B3A8C"/><path d="M308.84 115.509h39.682l-19.835 18.866-19.847-18.866z" fill="#fff"/><path d="M350.272 81.226s2.517-9.2 4.254-17.23c1.737-8.029-2.127-11.792-5.198-13.214-2.655-14.335-12.472-20.3-22.15-20.313a.87.87 0 00-.479 1.598 15.098 15.098 0 015.173 5.852 36.65 36.65 0 00-24.781 4.254c-12.271 7.2-10.068 12.498-4.254 15.808a114.971 114.971 0 003.688 22.893l43.747.352z" fill="#000"/><path d="M328.727 227.885a241.082 241.082 0 0010.634 35.391l-9.728 37.404" stroke="#2B3A8C" stroke-width=".675" stroke-miterlimit="10"/><path d="M328.866 266.938a3.952 3.952 0 100-7.904 3.952 3.952 0 000 7.904zm-4.143 31.602a3.955 3.955 0 01-2.44 3.651 3.955 3.955 0 01-4.306-.857 3.948 3.948 0 01.599-6.08 3.954 3.954 0 014.99.492 3.951 3.951 0 011.157 2.794z" fill="#F0F0F1"/><path d="M311.924 240.395l19.004 16.751m-4.128 11.919l-13.454 8.734" stroke="#2B3A8C" stroke-width=".675" stroke-miterlimit="10"/><path d="M304.794 287.554l-36.499-9.664-1.327 5.013 36.499 9.664 1.327-5.013zm46.775 5.593l36.623-9.817-1.348-5.03-36.624 9.817 1.349 5.03z" fill="#2B3A8C"/><path d="M382.831 404.9l27.323 15.568-5.198 32.836-34.598-20.577 12.473-27.827z" fill="#fff"/><path d="M401.723 414.05l1.787 25.939-6.293-4.934-12.585 10.887 13.454 8.885 10.471 27.6 4.606 17.091a3.075 3.075 0 002.163 2.145 3.062 3.062 0 002.947-.773 32.813 32.813 0 009.653-22.654c.394-11.45-.68-22.904-3.197-34.082l4.921.818 1.825-22.175-5.235-.353a30.925 30.925 0 00-24.517-8.394z" fill="#2B3A8C"/><path d="M152.302 329.601c5.198-26.845 42.011-37.756 76.935-19.067 34.925 18.69 161.875 89.357 161.875 89.357l-21.471 56.157c-13.844-4.657-15.279-11.038-26.366-15.103-9.15-3.36-11.856.881-26.367-4.065-14.511-4.946-19.193-10.396-27.613-13.29-13.277-4.606-25.624-3.285-37.92-7.463-20.728-7.023-38.562-13.089-47.623-16.248-36.788-12.825-56.635-43.42-51.45-70.278z" fill="#1C75BB"/><path d="M359.258 443.651l12.774-54.382 10.597 5.89-23.371 48.492z" fill="#2B3A8C"/><path d="M382.629 406.486L249.89 321.773" stroke="#2B3A8C" stroke-width=".675" stroke-miterlimit="10"/><path d="M425.457 424.748l-1.535 16.424" stroke="#2B3A8C" stroke-width=".613" stroke-miterlimit="10"/><path d="M369.643 456.035a42.784 42.784 0 01-12.711-6.632l22.654-55.956 11.553 6.432-21.496 56.156z" fill="#2B3A8C"/><path d="M429.864 441.839l1.573-19.08-5.236-.352a30.926 30.926 0 00-24.504-8.37l.114 1.674-13.844-7.84 3.058-8.005s-40.387-22.503-81.982-45.484l-83.404 53.023 25.687 8.722c12.296 4.178 24.642 2.856 37.92 7.463 8.357 2.894 13.089 8.319 27.612 13.277 14.524 4.959 17.217.705 26.367 4.066 11.088 4.065 12.523 10.446 26.367 15.102l7.413-19.331 10.823 6.431-3.247 2.807 13.454 8.885.365.957 26.279-11.642 5.185-2.303z" fill="#2B3A8C"/><path d="M505.15 329.601c-5.198-26.845-42.011-37.756-76.935-19.067-34.925 18.69-161.875 89.357-161.875 89.357l21.471 56.157c13.844-4.657 15.279-11.038 26.429-15.103 9.15-3.36 11.856.881 26.43-4.065 14.574-4.946 19.13-10.396 27.524-13.29 13.278-4.606 25.637-3.285 37.921-7.463 20.728-7.023 38.562-13.089 47.623-16.248 36.75-12.825 56.597-43.42 51.412-70.278z" fill="#1C75BB"/><path d="M298.193 443.651l-12.775-54.382-10.597 5.89 23.372 48.492z" fill="#2B3A8C"/><path d="M274.821 406.486l132.74-84.713" stroke="#2B3A8C" stroke-width=".675" stroke-miterlimit="10"/><path d="M274.635 404.9l-27.336 15.568 5.198 32.836 34.61-20.577-12.472-27.827z" fill="#fff"/><path d="M255.742 414.05l-1.799 25.939 6.292-4.934 12.586 10.887-13.454 8.885-10.471 27.6-4.607 17.091a3.064 3.064 0 01-2.163 2.146 3.073 3.073 0 01-2.946-.774 32.809 32.809 0 01-9.653-22.654c-.394-11.45.68-22.904 3.196-34.082l-4.921.818-1.824-22.2 5.223-.353a30.94 30.94 0 0124.541-8.369z" fill="#2B3A8C"/><path d="M232.007 424.748l1.523 16.424" stroke="#2B3A8C" stroke-width=".613" stroke-miterlimit="10"/><path d="M287.809 456.035a42.784 42.784 0 0012.711-6.632l-22.654-55.956-11.554 6.432 21.497 56.156z" fill="#2B3A8C"/><path d="M547.65 265.05c7.212-3.952-7.665-38.7-7.665-38.7l-12.522 5.399s12.925 37.278 20.187 33.301z" fill="#BFBFBF"/><path d="M522.229 234.002l27.461-11.818a15.901 15.901 0 014.594-14.071 98.673 98.673 0 018.231-6.834l2.819 2.618-4.858 5.777.138 7.337h13.316l15.493-4.782 1.145 3.712 1.774-.881 1.939 5.4-3.323 1.988 1.523 3.889-6.733 4.871-7.376 1.585 8.408.088 4.769-2.919.982 2.919-6.016 3.461a53.074 53.074 0 01-28.858 1.674l-25.033 21.182-10.395-25.196z" fill="#FFBE9D"/><path d="M532.612 259.198l-10.383-25.171 21.395-9.2c-1.85 7.387-1.825 15.757-.541 25.561l-10.471 8.81z" fill="#EB996E"/><path d="M545.171 285.225c6.293-3.424-3.385-22.201-3.385-22.201l-20.401 8.696s16.864 17.268 23.786 13.505z" fill="#2B3A8C"/><path d="M517.56 235.323l15.228-5.965s4.367 31.803 14.864 35.692l-30.092 18.941v-48.668z" fill="#fff"/><path d="M442.573 307.174a5.49 5.49 0 01-1.346-2.253c27.373-9.099 53.35-.969 61.731 17.746-16.323 12.409-47.334-1.523-60.385-15.493z" fill="#2B3A8C"/><path d="M422.538 142.455l-18.413 81.579 22.83 62.197a45.793 45.793 0 0025.718 26.618 45.784 45.784 0 0036.996-1.094l55.502-26.53s-13.454 3.536-27.613-49.902l-37.87 16.273-41.016-77.514s0-13.693-16.134-31.627z" fill="#1C75BB"/><path d="M530.283 270.663l-40.45 19.873" stroke="#2B3A8C" stroke-width=".675" stroke-miterlimit="10"/><path d="M517.032 270.361a2.743 2.743 0 100-5.486 2.743 2.743 0 000 5.486zm-18.592 5.815a2.74 2.74 0 001.694 2.534 2.747 2.747 0 002.99-.594 2.745 2.745 0 00-1.94-4.684 2.76 2.76 0 00-2.744 2.744z" fill="#F0F0F1"/><path d="M479.69 251.596l-24.302 10.861m18.009-11.918l-25.033 1.057" stroke="#2B3A8C" stroke-width=".675" stroke-miterlimit="10"/><path d="M416.824 167.777c1.623 5.336 5.361 21.219 2.026 46.025a20.541 20.541 0 00.806 9.162c5.814 17.356 1.585 33.666-.932 40.84l-14.599-39.77 12.699-56.257z" fill="#2B3A8C"/><path d="M590.568 215.979l-15.48 5.538-5.437.465m21.344.466l-10.371 4.556-9.137.818m-2.605-8.017l3.31 11.566m-2.543-1.132c-3.423-2.643-9.729-5.601-15.505-1.762" stroke="#EB996E" stroke-width=".889" stroke-miterlimit="10"/><path d="M343.427 92.906h-29.488l-1.536 27.612 16.286 9.553 16.273-9.553-1.535-27.612z" fill="#FFBE9D"/><path d="M332.639 137.861h-7.917l-3.738-12.686h15.392l-3.737 12.686z" fill="#8CBF43"/><path d="M334.288 112.098a26.012 26.012 0 0010.069-2.328l-.944-16.89h-29.476l-.465 8.395a27.272 27.272 0 0020.816 10.823zm-24.605-22.894c3.117-1.613 4.132-5.843 2.267-9.449-1.866-3.605-5.906-5.22-9.023-3.606-3.118 1.613-4.132 5.843-2.267 9.448 1.866 3.605 5.905 5.22 9.023 3.607z" fill="#EB996E"/><path d="M302.673 81.616c.893-3.926 5.16-4.317 8.709.202" stroke="#FFBE9D" stroke-width=".631" stroke-miterlimit="10"/><path d="M345.414 79.754c-1.863 3.6-.844 7.828 2.277 9.439 3.122 1.61 7.149 0 9.024-3.6 1.876-3.6.844-7.828-2.278-9.451-3.121-1.624-7.161 0-9.023 3.612z" fill="#EB996E"/><path d="M354.691 81.616c-.894-3.926-5.16-4.317-8.71.202" stroke="#FFBE9D" stroke-width=".631" stroke-miterlimit="10"/><path d="M348.524 71.825a13.192 13.192 0 01-3.121-10.698 2.72 2.72 0 00-2.681-3.146h-28.078a2.716 2.716 0 00-2.681 3.12 13.192 13.192 0 01-3.121 10.699l-1.749 1.988c1.183 24.542 15.568 29.966 21.597 29.966 6.028 0 20.401-5.424 21.584-29.966l-1.75-1.963z" fill="#FFBE9D"/><path d="M315.535 74.732c1.888 2.517 5.953 2.416 8.609-.24" stroke="#000" stroke-width=".666" stroke-miterlimit="10"/><path d="M314.076 68.955a10.07 10.07 0 0110.509 0" stroke="#000" stroke-width=".889" stroke-miterlimit="10"/><path d="M341.826 74.732c-1.888 2.517-5.953 2.416-8.608-.24" stroke="#000" stroke-width=".666" stroke-miterlimit="10"/><path d="M343.248 68.955a10.069 10.069 0 00-10.509 0" stroke="#000" stroke-width=".889" stroke-miterlimit="10"/><path d="M327.682 71.963v9.074l4.115-.843" stroke="#EB996E" stroke-width=".889" stroke-miterlimit="10"/><path d="M321.628 83.957s5.55 3.776 14.108 0" stroke="#000" stroke-width=".889" stroke-miterlimit="10"/><path d="M326.245 89.482h4.883" stroke="#EB996E" stroke-width=".889" stroke-miterlimit="10"/><path d="M326.774 125.175l-5.274 11.251-17.078-12.837 4.417-8.08 17.935 9.666zm3.813 0l5.273 11.251 17.079-12.837-4.418-8.08-17.934 9.666z" fill="#fff"/><path d="M332.641 137.861h-7.916s.654 21.471 6.909 32.798c11.163 20.212 35.755 16.046 41.998 25.372 6.242 9.326 12.988 23.598 42.715 19.231l18.174-17.821-18.879-8.735s-12.862 5.437-21.395-4.241-15.807-12.749-27.688-12.384c-11.881.365-31.502-6.255-33.918-34.22z" fill="#8CBF43"/><path d="M333.811 145.425a52.774 52.774 0 01-1.17-7.551h-7.916v.692a43.901 43.901 0 019.086 6.859z" fill="#2B3A8C"/><path d="M130.252 269.455h-19.117v10.824h19.117v-10.824z" fill="#28A8DF"/><path d="M109.814 265.05c-7.212-3.952 7.665-38.7 7.665-38.7l12.522 5.399s-12.925 37.278-20.187 33.301z" fill="#BFBFBF"/><path d="M135.237 234.002l-27.462-11.818a15.901 15.901 0 00-4.594-14.071 98.782 98.782 0 00-8.23-6.834l-2.82 2.618 4.858 5.777-.138 7.337H83.535l-15.492-4.782-1.146 3.712-1.774-.881-1.951 5.4 3.297 1.95-1.523 3.889 6.721 4.871 7.438 1.586-8.407.088-4.782-2.92-.97 2.995 6.016 3.461a53.04 53.04 0 0028.846 1.674l25.045 21.182 10.384-25.234z" fill="#FFBE9D"/><path d="M124.852 259.198l10.383-25.171-21.395-9.2c1.85 7.387 1.825 15.757.528 25.561l10.484 8.81z" fill="#EB996E"/><path d="M112.291 285.225c-6.292-3.424 3.386-22.201 3.386-22.201l20.388 8.696s-16.852 17.268-23.774 13.505z" fill="#2B3A8C"/><path d="M139.904 235.323l-15.228-5.965s-4.418 31.803-14.864 35.692l30.092 18.941v-48.668z" fill="#fff"/><path d="M214.889 307.174a5.49 5.49 0 001.346-2.253c-27.373-9.099-53.35-.969-61.669 17.746 16.261 12.409 47.272-1.523 60.323-15.493z" fill="#2B3A8C"/><path d="M66.897 215.979l15.48 5.538 5.437.465m-21.345.466l10.37 4.556 9.137.818m2.593-8.017l-3.297 11.566m2.541-1.132c3.41-2.643 9.728-5.601 15.505-1.762" stroke="#EB996E" stroke-width=".889" stroke-miterlimit="10"/><path d="M234.925 142.455l18.413 81.579-22.83 62.197a45.78 45.78 0 01-25.718 26.618 45.784 45.784 0 01-36.996-1.094l-55.502-26.53s13.454 3.536 27.613-49.902l37.869 16.273 41.054-77.514s-.025-13.693 16.097-31.627z" fill="#1C75BB"/><path d="M240.639 167.777c-1.623 5.336-5.361 21.219-2.039 46.025a20.368 20.368 0 01-.792 9.162c-5.815 17.356-1.586 33.666.931 40.84l14.599-39.77-12.699-56.257z" fill="#2B3A8C"/><path d="M127.17 270.663l40.462 19.873" stroke="#2B3A8C" stroke-width=".675" stroke-miterlimit="10"/><path d="M140.434 270.361a2.744 2.744 0 100-5.487 2.744 2.744 0 000 5.487zm18.589 5.815a2.74 2.74 0 01-1.693 2.534 2.748 2.748 0 01-2.99-.594 2.745 2.745 0 011.94-4.684 2.754 2.754 0 012.743 2.744z" fill="#F0F0F1"/><path d="M177.777 251.596l24.303 10.861m-18.012-11.918l25.033 1.057" stroke="#2B3A8C" stroke-width=".675" stroke-miterlimit="10"/></svg>