<svg width="633" height="502" viewBox="0 0 633 502" fill="none" xmlns="http://www.w3.org/2000/svg">
<path d="M630.647 194.49H523.129V267.763H630.647V194.49Z" fill="#F2F2F2"/>
<path d="M618.855 283.809L611.568 278.737L604.269 283.809V257.418H618.855V283.809Z" fill="#E0E0E0"/>
<path d="M611.568 266.932C617.462 266.932 622.241 262.154 622.241 256.26C622.241 250.366 617.462 245.587 611.568 245.587C605.674 245.587 600.896 250.366 600.896 256.26C600.896 262.154 605.674 266.932 611.568 266.932Z" fill="#E0E0E0"/>
<path d="M622.121 256.387C623.065 250.569 619.115 245.086 613.296 244.142C607.478 243.198 601.996 247.149 601.052 252.967C600.107 258.785 604.058 264.267 609.876 265.211C615.695 266.156 621.177 262.205 622.121 256.387Z" fill="#F2F2F2"/>
<path d="M619.107 254.674C619.107 256.167 618.664 257.627 617.834 258.869C617.004 260.111 615.825 261.079 614.445 261.65C613.065 262.222 611.547 262.372 610.082 262.08C608.617 261.789 607.272 261.07 606.216 260.014C605.16 258.957 604.44 257.612 604.149 256.147C603.858 254.682 604.007 253.164 604.579 251.784C605.15 250.404 606.118 249.225 607.36 248.395C608.602 247.566 610.062 247.123 611.555 247.123C613.558 247.123 615.479 247.918 616.895 249.334C618.311 250.751 619.107 252.671 619.107 254.674V254.674Z" stroke="#E0E0E0" stroke-width="0.675281" stroke-miterlimit="10"/>
<path d="M531.775 219.749H619.106" stroke="#828282" stroke-width="0.888528" stroke-miterlimit="10"/>
<path d="M555.398 212.966H595.483" stroke="#828282" stroke-width="0.888528" stroke-miterlimit="10"/>
<path d="M531.775 226.533H619.106" stroke="#828282" stroke-width="0.888528" stroke-miterlimit="10"/>
<path d="M531.775 233.316H619.106" stroke="#828282" stroke-width="0.888528" stroke-miterlimit="10"/>
<path d="M531.775 240.1H619.106" stroke="#828282" stroke-width="0.888528" stroke-miterlimit="10"/>
<path d="M556.695 246.884H594.188" stroke="#828282" stroke-width="0.888528" stroke-miterlimit="10"/>
<path d="M583.855 311.9H566.487V395.707H583.855V311.9Z" fill="#F2F2F2"/>
<path d="M562.698 327.368H545.33V395.707H562.698V327.368Z" fill="#E0E0E0"/>
<path d="M541.53 318.168H524.162V395.707H541.53V318.168Z" fill="#F2F2F2"/>
<path d="M520.371 352.954H503.003V395.707H520.371V352.954Z" fill="#E0E0E0"/>
<path d="M499.204 372.953H481.836V395.707H499.204V372.953Z" fill="#F2F2F2"/>
<path d="M593.345 400.15H477.986V309.132" stroke="#F2F2F2" stroke-width="1.02181" stroke-miterlimit="10"/>
<path d="M574.478 63.6763C562.903 63.6763 551.588 67.1086 541.964 73.5391C532.34 79.9697 524.839 89.1097 520.41 99.8033C515.98 110.497 514.821 122.264 517.08 133.616C519.338 144.968 524.911 155.396 533.096 163.581C541.281 171.765 551.708 177.339 563.061 179.597C574.413 181.855 586.18 180.696 596.873 176.267C607.567 171.837 616.707 164.336 623.138 154.712C629.568 145.088 633 133.774 633 122.199C633 114.514 631.487 106.904 628.546 99.8033C625.605 92.703 621.294 86.2515 615.86 80.8172C610.425 75.3829 603.974 71.0721 596.873 68.1311C589.773 65.19 582.163 63.6763 574.478 63.6763ZM574.478 170.993C564.827 170.993 555.393 168.131 547.369 162.77C539.345 157.408 533.091 149.788 529.398 140.872C525.705 131.956 524.739 122.145 526.621 112.68C528.504 103.215 533.151 94.5203 539.975 87.6963C546.799 80.8724 555.493 76.2252 564.959 74.3425C574.424 72.4597 584.234 73.426 593.15 77.1191C602.066 80.8122 609.687 87.0663 615.049 95.0904C620.41 103.115 623.272 112.548 623.272 122.199C623.282 128.612 622.027 134.965 619.579 140.893C617.131 146.821 613.538 152.208 609.006 156.746C604.474 161.284 599.092 164.884 593.167 167.339C587.242 169.794 580.891 171.058 574.478 171.056V170.993Z" fill="#E0E0E0"/>
<path d="M576.505 79.5088C576.508 79.9829 576.369 80.4469 576.107 80.8421C575.846 81.2372 575.472 81.5457 575.035 81.7282C574.597 81.9108 574.116 81.9592 573.65 81.8673C573.185 81.7754 572.758 81.5474 572.423 81.2123C572.088 80.8771 571.86 80.4499 571.768 79.9848C571.676 79.5198 571.725 79.038 571.907 78.6005C572.09 78.1631 572.398 77.7897 572.793 77.5279C573.188 77.2661 573.652 77.1277 574.126 77.1302C574.756 77.1335 575.359 77.3852 575.805 77.8305C576.25 78.2759 576.502 78.879 576.505 79.5088Z" fill="#E0E0E0"/>
<path d="M576.505 164.889C576.505 165.362 576.365 165.825 576.101 166.219C575.838 166.612 575.464 166.919 575.026 167.099C574.588 167.28 574.107 167.327 573.643 167.233C573.179 167.14 572.753 166.911 572.419 166.575C572.085 166.24 571.858 165.812 571.767 165.348C571.676 164.883 571.725 164.402 571.908 163.965C572.091 163.528 572.4 163.156 572.795 162.895C573.189 162.633 573.653 162.495 574.127 162.498C574.44 162.498 574.75 162.56 575.04 162.68C575.329 162.8 575.592 162.977 575.813 163.199C576.034 163.421 576.209 163.685 576.328 163.975C576.447 164.265 576.507 164.576 576.505 164.889V164.889Z" fill="#E0E0E0"/>
<path d="M554.92 84.2158C555.156 84.6231 555.266 85.0912 555.236 85.5608C555.206 86.0305 555.037 86.4806 554.75 86.8542C554.464 87.2278 554.074 87.5081 553.628 87.6597C553.183 87.8113 552.702 87.8273 552.247 87.7057C551.793 87.5841 551.384 87.3304 551.074 86.9767C550.764 86.6229 550.565 86.185 550.504 85.7184C550.442 85.2519 550.521 84.7775 550.729 84.3555C550.937 83.9334 551.266 83.5826 551.673 83.3474C552.219 83.0325 552.868 82.9471 553.477 83.1099C554.085 83.2727 554.605 83.6705 554.92 84.2158V84.2158Z" fill="#E0E0E0"/>
<path d="M597.611 158.105C597.843 158.513 597.949 158.981 597.916 159.45C597.883 159.918 597.712 160.367 597.425 160.738C597.137 161.11 596.746 161.388 596.301 161.537C595.856 161.687 595.376 161.701 594.923 161.579C594.47 161.456 594.063 161.202 593.753 160.849C593.444 160.495 593.246 160.058 593.185 159.592C593.124 159.127 593.202 158.653 593.41 158.232C593.617 157.81 593.945 157.46 594.351 157.224C594.623 157.067 594.923 156.965 595.234 156.924C595.545 156.883 595.861 156.904 596.164 156.986C596.467 157.068 596.751 157.209 596.999 157.401C597.248 157.593 597.455 157.833 597.611 158.105V158.105Z" fill="#E0E0E0"/>
<path d="M538.559 98.9787C538.965 99.2142 539.293 99.5647 539.5 99.9861C539.707 100.407 539.786 100.881 539.724 101.347C539.663 101.812 539.465 102.249 539.156 102.603C538.847 102.956 538.44 103.21 537.987 103.333C537.533 103.456 537.054 103.441 536.608 103.292C536.163 103.142 535.772 102.864 535.485 102.492C535.197 102.121 535.026 101.673 534.993 101.204C534.96 100.736 535.067 100.268 535.299 99.8596C535.454 99.5869 535.662 99.3476 535.91 99.1555C536.159 98.9634 536.442 98.8223 536.745 98.7405C537.048 98.6586 537.365 98.6374 537.676 98.6783C537.987 98.7192 538.287 98.8213 538.559 98.9787V98.9787Z" fill="#E0E0E0"/>
<path d="M612.462 141.669C612.872 141.905 613.203 142.258 613.412 142.682C613.622 143.107 613.701 143.584 613.639 144.053C613.577 144.523 613.377 144.963 613.065 145.319C612.752 145.675 612.341 145.93 611.884 146.051C611.426 146.173 610.943 146.157 610.495 146.004C610.047 145.85 609.654 145.568 609.367 145.191C609.08 144.815 608.911 144.362 608.882 143.889C608.852 143.417 608.964 142.946 609.202 142.537C609.52 141.991 610.042 141.593 610.653 141.43C611.263 141.267 611.914 141.353 612.462 141.669V141.669Z" fill="#E0E0E0"/>
<path d="M531.798 119.996C532.271 119.996 532.734 120.137 533.127 120.4C533.521 120.664 533.827 121.038 534.008 121.476C534.189 121.913 534.235 122.395 534.142 122.859C534.049 123.323 533.82 123.749 533.484 124.083C533.148 124.417 532.721 124.644 532.256 124.735C531.792 124.825 531.31 124.776 530.874 124.593C530.437 124.41 530.064 124.102 529.803 123.707C529.542 123.312 529.404 122.849 529.406 122.375C529.406 122.062 529.468 121.751 529.589 121.462C529.709 121.173 529.885 120.91 530.107 120.689C530.33 120.468 530.593 120.293 530.883 120.174C531.173 120.055 531.484 119.995 531.798 119.996V119.996Z" fill="#E0E0E0"/>
<path d="M617.167 119.996C617.641 119.994 618.105 120.132 618.5 120.394C618.895 120.656 619.204 121.029 619.386 121.467C619.569 121.904 619.617 122.386 619.525 122.851C619.433 123.316 619.205 123.743 618.87 124.079C618.535 124.414 618.108 124.642 617.643 124.734C617.178 124.825 616.696 124.777 616.258 124.594C615.821 124.412 615.448 124.103 615.186 123.708C614.924 123.313 614.786 122.849 614.788 122.375C614.791 121.745 615.043 121.142 615.488 120.697C615.934 120.251 616.537 120 617.167 119.996V119.996Z" fill="#E0E0E0"/>
<path d="M536.444 141.581C536.853 141.341 537.324 141.228 537.798 141.257C538.271 141.285 538.725 141.454 539.102 141.741C539.48 142.029 539.763 142.422 539.916 142.87C540.069 143.319 540.086 143.803 539.963 144.261C539.841 144.719 539.585 145.131 539.228 145.443C538.871 145.755 538.43 145.954 537.959 146.015C537.489 146.076 537.011 145.995 536.587 145.784C536.163 145.572 535.811 145.24 535.576 144.828C535.418 144.558 535.316 144.259 535.274 143.95C535.232 143.64 535.253 143.325 535.333 143.023C535.414 142.721 535.554 142.438 535.744 142.191C535.935 141.943 536.173 141.736 536.444 141.581V141.581Z" fill="#E0E0E0"/>
<path d="M610.383 98.8906C610.791 98.6581 611.259 98.5517 611.727 98.5848C612.196 98.6179 612.644 98.7889 613.016 99.0763C613.387 99.3638 613.665 99.7547 613.815 100.2C613.964 100.645 613.979 101.125 613.856 101.578C613.734 102.032 613.48 102.439 613.126 102.748C612.773 103.057 612.335 103.255 611.87 103.316C611.404 103.377 610.931 103.299 610.509 103.092C610.088 102.884 609.737 102.557 609.502 102.15C609.191 101.6 609.109 100.95 609.274 100.34C609.439 99.7296 609.837 99.209 610.383 98.8906Z" fill="#E0E0E0"/>
<path d="M551.257 157.942C551.492 157.531 551.844 157.199 552.268 156.989C552.691 156.778 553.168 156.698 553.638 156.758C554.107 156.818 554.548 157.017 554.904 157.328C555.261 157.639 555.517 158.049 555.641 158.506C555.764 158.963 555.749 159.446 555.598 159.894C555.447 160.343 555.166 160.736 554.791 161.025C554.416 161.313 553.963 161.484 553.491 161.516C553.019 161.547 552.548 161.438 552.138 161.201C551.865 161.046 551.626 160.838 551.434 160.59C551.242 160.342 551.101 160.058 551.019 159.755C550.937 159.452 550.916 159.136 550.957 158.825C550.998 158.513 551.1 158.213 551.257 157.942V157.942Z" fill="#E0E0E0"/>
<path d="M593.948 84.0018C594.183 83.5911 594.535 83.2594 594.958 83.0487C595.382 82.838 595.859 82.7577 596.328 82.8181C596.798 82.8785 597.239 83.0769 597.595 83.388C597.952 83.6991 598.208 84.1091 598.332 84.5659C598.455 85.0228 598.44 85.506 598.289 85.9544C598.137 86.4028 597.856 86.7963 597.481 87.0849C597.106 87.3735 596.654 87.5444 596.182 87.5758C595.71 87.6072 595.239 87.4978 594.829 87.2615C594.28 86.9454 593.88 86.4248 593.715 85.8137C593.55 85.2027 593.633 84.5511 593.948 84.0018V84.0018Z" fill="#E0E0E0"/>
<path d="M574.48 85.1975V122.199L552.858 136.093" stroke="#F2F2F2" stroke-width="0.888528" stroke-miterlimit="10"/>
<path d="M574.477 126.214C576.694 126.214 578.491 124.416 578.491 122.199C578.491 119.982 576.694 118.184 574.477 118.184C572.259 118.184 570.462 119.982 570.462 122.199C570.462 124.416 572.259 126.214 574.477 126.214Z" fill="#E0E0E0"/>
<path d="M538.397 115.743H441.086V233.455H538.397V115.743Z" fill="#F2F2F2"/>
<path d="M454.702 130.87H484.077" stroke="#E0E0E0" stroke-width="0.888528" stroke-miterlimit="10"/>
<path d="M454.702 139.252H524.778" stroke="#E0E0E0" stroke-width="0.888528" stroke-miterlimit="10"/>
<path d="M454.702 147.622H524.778" stroke="#E0E0E0" stroke-width="0.888528" stroke-miterlimit="10"/>
<path d="M454.702 156.004H524.778" stroke="#E0E0E0" stroke-width="0.888528" stroke-miterlimit="10"/>
<path d="M454.702 164.385H524.778" stroke="#E0E0E0" stroke-width="0.888528" stroke-miterlimit="10"/>
<path d="M454.702 172.755H524.778" stroke="#E0E0E0" stroke-width="0.888528" stroke-miterlimit="10"/>
<path d="M454.702 181.137H524.778" stroke="#E0E0E0" stroke-width="0.888528" stroke-miterlimit="10"/>
<path d="M454.702 189.519H524.778" stroke="#E0E0E0" stroke-width="0.888528" stroke-miterlimit="10"/>
<path d="M454.702 197.888H524.778" stroke="#E0E0E0" stroke-width="0.888528" stroke-miterlimit="10"/>
<path d="M454.702 206.27H524.778" stroke="#E0E0E0" stroke-width="0.888528" stroke-miterlimit="10"/>
<path d="M454.702 214.639H484.077" stroke="#E0E0E0" stroke-width="0.888528" stroke-miterlimit="10"/>
<path d="M516.218 110.079V139.026C516.218 140.761 515.528 142.426 514.301 143.653C513.074 144.881 511.409 145.57 509.673 145.57C507.938 145.57 506.273 144.881 505.046 143.653C503.818 142.426 503.129 140.761 503.129 139.026V108.82C503.149 106.176 504.208 103.646 506.078 101.776C507.947 99.9065 510.478 98.8473 513.122 98.8276C515.766 98.8507 518.295 99.913 520.162 101.785C522.03 103.657 523.086 106.189 523.102 108.833V115.743" stroke="#E0E0E0" stroke-width="1.77706" stroke-miterlimit="10"/>
<path d="M195.283 54.2606L177.28 32.2882C170.038 38.22 164.593 46.0535 161.558 54.9089C158.522 63.7643 158.016 73.2907 160.095 82.4179L187.772 76.0994C186.868 72.1209 187.092 67.969 188.419 64.1109C189.746 60.2527 192.123 56.8413 195.283 54.2606Z" fill="#E0E0E0"/>
<path d="M204.28 49.8366C209.944 48.5511 215.886 49.5642 220.805 52.6539C225.723 55.7435 229.215 60.6575 230.515 66.3181C231.138 69.0306 231.231 71.8376 230.791 74.5856L258.895 79.0352C260.472 68.9625 258.953 58.6484 254.54 49.4577C250.126 40.2671 243.027 32.633 234.18 27.5656C225.333 22.4983 215.156 20.2365 204.995 21.0796C194.835 21.9227 185.17 25.831 177.279 32.2872L195.283 54.2596C197.899 52.109 200.979 50.5949 204.28 49.8366V49.8366Z" fill="#E0E0E0"/>
<path d="M258.896 79.0361L230.828 74.622C230.293 77.8559 229.044 80.9297 227.17 83.6192L250.558 99.7448C254.848 93.5507 257.697 86.4748 258.896 79.0361V79.0361Z" fill="white"/>
<path d="M214.007 92.6512C209.825 93.6035 205.457 93.3094 201.441 91.8052C197.425 90.3011 193.938 87.6528 191.411 84.188L168.478 100.945C173.222 107.44 179.453 112.703 186.649 116.294C193.845 119.886 201.796 121.701 209.838 121.587C217.88 121.474 225.777 119.436 232.869 115.643C239.961 111.85 246.041 106.414 250.6 99.7885L227.213 83.6629C224.102 88.2169 219.384 91.4273 214.007 92.6512V92.6512Z" fill="#F2F2F2"/>
<path d="M191.447 84.1519C189.688 81.749 188.44 79.011 187.78 76.1069L160.104 82.4254C161.615 89.0965 164.477 95.3872 168.514 100.909L191.447 84.1519Z" fill="#E0E0E0"/>
<path d="M154.435 269.336H45.835V412.861H154.435V269.336Z" fill="#F2F2F2"/>
<path d="M63.8197 397.52C59.1679 387.168 53.1165 377.504 45.835 368.799V412.849H139.157C120.366 397.406 93.9368 389.742 63.8197 397.52Z" fill="#E0E0E0"/>
<path d="M54.999 350.777H145.262" stroke="#E0E0E0" stroke-width="0.888528" stroke-miterlimit="10"/>
<path d="M54.999 358.555H145.262" stroke="#E0E0E0" stroke-width="0.888528" stroke-miterlimit="10"/>
<path d="M54.999 366.345H145.262" stroke="#E0E0E0" stroke-width="0.888528" stroke-miterlimit="10"/>
<path d="M54.999 374.136H145.262" stroke="#E0E0E0" stroke-width="0.888528" stroke-miterlimit="10"/>
<path d="M54.999 381.926H145.262" stroke="#E0E0E0" stroke-width="0.888528" stroke-miterlimit="10"/>
<path d="M54.999 389.704H145.262" stroke="#E0E0E0" stroke-width="0.888528" stroke-miterlimit="10"/>
<path d="M74.1164 285.622H54.999V296.445H74.1164V285.622Z" fill="#E0E0E0"/>
<path d="M97.8391 285.622H78.7217V296.445H97.8391V285.622Z" fill="#E0E0E0"/>
<path d="M121.551 285.622H102.434V296.445H121.551V285.622Z" fill="#E0E0E0"/>
<path d="M145.275 285.622H126.157V296.445H145.275V285.622Z" fill="#E0E0E0"/>
<path d="M74.1164 300.624H54.999V311.447H74.1164V300.624Z" fill="#E0E0E0"/>
<path d="M97.8391 300.624H78.7217V311.447H97.8391V300.624Z" fill="#E0E0E0"/>
<path d="M121.551 300.624H102.434V311.447H121.551V300.624Z" fill="#E0E0E0"/>
<path d="M145.275 300.624H126.157V311.447H145.275V300.624Z" fill="#E0E0E0"/>
<path d="M74.1164 315.626H54.999V326.449H74.1164V315.626Z" fill="#E0E0E0"/>
<path d="M97.8391 315.626H78.7217V326.449H97.8391V315.626Z" fill="#E0E0E0"/>
<path d="M121.551 315.626H102.434V326.449H121.551V315.626Z" fill="#E0E0E0"/>
<path d="M145.275 315.626H126.157V326.449H145.275V315.626Z" fill="#E0E0E0"/>
<path d="M74.1164 330.64H54.999V341.464H74.1164V330.64Z" fill="#E0E0E0"/>
<path d="M97.8391 330.64H78.7217V341.464H97.8391V330.64Z" fill="#E0E0E0"/>
<path d="M121.551 330.64H102.434V341.464H121.551V330.64Z" fill="#E0E0E0"/>
<path d="M145.275 330.64H126.157V341.464H145.275V330.64Z" fill="#E0E0E0"/>
<path d="M228.566 214.274H73.248V220.164H228.566V214.274Z" fill="#E0E0E0"/>
<path d="M170.862 220.152H58.7374L42.8545 145.507H154.979L170.862 220.152Z" fill="#F2F2F2"/>
<path d="M151.303 147.206L166.821 220.164" stroke="#E0E0E0" stroke-width="0.781904" stroke-miterlimit="10"/>
<path d="M116.68 181.967C117.939 187.858 113.508 192.627 106.8 192.627C100.092 192.627 93.636 187.858 92.39 181.967C91.144 176.077 95.5616 171.308 102.27 171.308C108.978 171.308 115.421 176.09 116.68 181.967Z" stroke="#E0E0E0" stroke-width="0.675281" stroke-miterlimit="10"/>
<path d="M88.0114 86.7958H22.0004C18.5679 86.7992 15.2771 88.1651 12.8512 90.5934C10.4252 93.0217 9.0625 96.3138 9.0625 99.7463V129.196C9.06917 132.623 10.4352 135.908 12.8608 138.329C15.2864 140.75 18.5734 142.109 22.0004 142.109H39.7334C41.4969 142.108 43.211 142.691 44.6072 143.769C46.0033 144.846 47.0026 146.356 47.4483 148.062L54.9996 176.531L62.5509 148.062C63.0011 146.356 64.0032 144.847 65.4011 143.77C66.7989 142.693 68.5139 142.109 70.2784 142.109H88.0114C91.4384 142.109 94.7254 140.75 97.151 138.329C99.5766 135.908 100.943 132.623 100.949 129.196V99.7463C100.949 96.3138 99.5866 93.0217 97.1606 90.5934C94.7347 88.1651 91.4439 86.7992 88.0114 86.7958V86.7958Z" fill="#E0E0E0"/>
<path d="M80.0825 100.615H33.2393V131.676H80.0825V100.615Z" stroke="#F2F2F2" stroke-width="0.781904" stroke-miterlimit="10"/>
<path d="M36.5723 103.887L56.6587 119.052L76.7452 103.887" stroke="#F2F2F2" stroke-width="0.781904" stroke-miterlimit="10"/>
<path d="M60.6221 116.057L76.7441 128.404" stroke="#F2F2F2" stroke-width="0.781904" stroke-miterlimit="10"/>
<path d="M36.5723 128.404L52.8076 116.145" stroke="#F2F2F2" stroke-width="0.781904" stroke-miterlimit="10"/>
<path d="M43.4196 100.577C43.4221 102.352 42.8979 104.089 41.9134 105.566C40.9289 107.043 39.5283 108.195 37.8888 108.876C36.2494 109.558 34.4447 109.737 32.7032 109.392C30.9617 109.047 29.3616 108.194 28.1054 106.939C26.8492 105.685 25.9933 104.086 25.646 102.345C25.2987 100.604 25.4757 98.7989 26.1545 97.1585C26.8333 95.5181 27.9835 94.1159 29.4594 93.1293C30.9354 92.1427 32.6708 91.6161 34.4461 91.6161C36.8239 91.6161 39.1044 92.5598 40.7869 94.24C42.4694 95.9201 43.4163 98.1993 43.4196 100.577V100.577Z" fill="#E0E0E0"/>
<path d="M29.0352 99.7337L33.3268 103.409L39.8587 97.8333" stroke="#F2F2F2" stroke-width="0.666396" stroke-linecap="round" stroke-linejoin="round"/>
<path d="M425.124 53.482L431.92 91.012H494.156L487.372 53.482H425.124Z" fill="#E0E0E0"/>
<path d="M493.428 41.5887H432.124V91.0246H493.428V41.5887Z" fill="#F2F2F2"/>
<path d="M470.535 48.1206L463.84 56.5403H437.989L432.124 91.012H494.372L501.659 48.1206H470.535Z" fill="#E0E0E0"/>
<path d="M29.9016 243.384C35.4064 237.88 35.4064 228.955 29.9016 223.45C24.3969 217.945 15.472 217.945 9.96721 223.45C4.46247 228.955 4.46247 237.88 9.96721 243.384C15.4719 248.889 24.3969 248.889 29.9016 243.384Z" fill="#E0E0E0"/>
<path d="M205.183 167.777C210.688 162.273 210.688 153.348 205.183 147.843C199.678 142.338 190.753 142.338 185.248 147.843C179.744 153.348 179.744 162.273 185.248 167.777C190.753 173.282 199.678 173.282 205.183 167.777Z" fill="#E0E0E0"/>
<path d="M328.726 273.432L184.068 302.492L328.726 393.447L473.384 302.492L328.726 273.432Z" fill="#2B3A8C"/>
<path d="M399.872 276.49L394.686 265.843L422.526 142.505L350.322 120.745H307.129L234.926 142.455L262.765 265.793L257.58 276.44L228.784 292.222L295.815 340.047C298.134 341.436 300.745 342.269 303.44 342.479C306.136 342.69 308.844 342.273 311.351 341.26C313.858 340.248 316.097 338.669 317.891 336.646C319.685 334.623 320.985 332.211 321.69 329.601L328.726 303.7L335.761 329.601C336.466 332.211 337.767 334.623 339.561 336.646C341.355 338.669 343.593 340.248 346.101 341.26C348.608 342.273 351.316 342.69 354.011 342.479C356.707 342.269 359.317 341.436 361.637 340.047L428.667 292.222L399.872 276.49Z" fill="#1C75BB"/>
<path d="M307.179 123.614H350.272L328.725 227.885L307.179 123.614Z" fill="#F0F0F1"/>
<path d="M307.671 126.031L336.378 225.758L323.403 234.518L307.671 126.031Z" fill="#BFBFBF"/>
<path d="M383.398 158.501C383.398 158.501 369.893 134.387 350.273 123.614L328.726 227.885L307.18 123.614C287.559 134.387 274.055 158.501 274.055 158.501L293.524 169.828L274.055 169.476C274.055 169.476 291.41 208.742 333.345 245.807C343.98 233.762 370.309 202.072 383.398 169.476L363.928 169.828L383.398 158.501Z" fill="#2B3A8C"/>
<path d="M308.84 115.509H348.522L328.687 134.375L308.84 115.509Z" fill="white"/>
<path d="M350.272 81.2261C350.272 81.2261 352.789 72.0261 354.526 63.9965C356.263 55.967 352.399 52.2039 349.328 50.7818C346.673 36.4469 336.856 30.4813 327.178 30.4687C326.989 30.467 326.806 30.5265 326.654 30.6382C326.503 30.7499 326.392 30.9079 326.338 31.0882C326.284 31.2685 326.29 31.4615 326.355 31.638C326.42 31.8146 326.541 31.9652 326.699 32.0671C328.907 33.5305 330.691 35.5488 331.872 37.9194C323.369 36.3708 314.591 37.8775 307.091 42.1733C294.82 49.3722 297.023 54.6707 302.837 57.9807C303.292 65.7165 304.527 73.3865 306.525 80.8737L350.272 81.2261Z" fill="black"/>
<path d="M328.727 227.885C331.361 239.937 334.916 251.768 339.361 263.276L329.633 300.68" stroke="#2B3A8C" stroke-width="0.675281" stroke-miterlimit="10"/>
<path d="M328.866 266.938C331.048 266.938 332.818 265.169 332.818 262.986C332.818 260.803 331.048 259.034 328.866 259.034C326.683 259.034 324.914 260.803 324.914 262.986C324.914 265.169 326.683 266.938 328.866 266.938Z" fill="#F0F0F1"/>
<path d="M324.723 298.54C324.723 299.322 324.491 300.086 324.057 300.736C323.623 301.385 323.006 301.892 322.283 302.191C321.561 302.49 320.767 302.568 320 302.416C319.234 302.264 318.529 301.887 317.977 301.334C317.424 300.782 317.048 300.078 316.895 299.311C316.743 298.544 316.821 297.75 317.12 297.028C317.419 296.306 317.926 295.688 318.576 295.254C319.226 294.82 319.99 294.588 320.771 294.588C321.819 294.588 322.824 295.005 323.566 295.746C324.307 296.487 324.723 297.492 324.723 298.54V298.54Z" fill="#F0F0F1"/>
<path d="M311.924 240.395L330.928 257.146" stroke="#2B3A8C" stroke-width="0.675281" stroke-miterlimit="10"/>
<path d="M326.8 269.065L313.346 277.799" stroke="#2B3A8C" stroke-width="0.675281" stroke-miterlimit="10"/>
<path d="M304.794 287.554L268.295 277.89L266.968 282.903L303.467 292.567L304.794 287.554Z" fill="#2B3A8C"/>
<path d="M351.569 293.147L388.192 283.33L386.844 278.3L350.22 288.117L351.569 293.147Z" fill="#2B3A8C"/>
<path d="M382.831 404.9L410.154 420.468L404.956 453.304L370.358 432.727L382.831 404.9Z" fill="white"/>
<path d="M401.723 414.05L403.51 439.989L397.217 435.055L384.632 445.942L398.086 454.827L408.557 482.427L413.163 499.518C413.306 500.033 413.581 500.502 413.96 500.878C414.339 501.254 414.81 501.525 415.326 501.663C415.842 501.802 416.385 501.804 416.902 501.668C417.419 501.532 417.892 501.264 418.273 500.89C424.31 494.878 427.771 486.754 427.926 478.236C428.32 466.786 427.246 455.332 424.729 444.154L429.65 444.972L431.475 422.797L426.24 422.444C423.004 419.355 419.136 417.004 414.903 415.555C410.67 414.106 406.173 413.592 401.723 414.05V414.05Z" fill="#2B3A8C"/>
<path d="M152.302 329.601C157.5 302.756 194.313 291.845 229.237 310.534C264.162 329.224 391.112 399.891 391.112 399.891L369.641 456.048C355.797 451.391 354.362 445.01 343.275 440.945C334.125 437.585 331.419 441.826 316.908 436.88C302.397 431.934 297.715 426.484 289.295 423.59C276.018 418.984 263.671 420.305 251.375 416.127C230.647 409.104 212.813 403.038 203.752 399.879C166.964 387.054 147.117 356.459 152.302 329.601Z" fill="#1C75BB"/>
<path d="M359.258 443.651L372.032 389.269L382.629 395.159L359.258 443.651Z" fill="#2B3A8C"/>
<path d="M382.629 406.486L249.89 321.773" stroke="#2B3A8C" stroke-width="0.675281" stroke-miterlimit="10"/>
<path d="M425.457 424.748L423.922 441.172" stroke="#2B3A8C" stroke-width="0.613084" stroke-miterlimit="10"/>
<path d="M369.643 456.035C365.063 454.555 360.766 452.313 356.932 449.403L379.586 393.447L391.139 399.879L369.643 456.035Z" fill="#2B3A8C"/>
<path d="M429.864 441.839L431.437 422.759L426.201 422.407C422.965 419.323 419.098 416.979 414.868 415.534C410.637 414.089 406.144 413.578 401.697 414.037L401.811 415.711L387.967 407.871L391.025 399.866C391.025 399.866 350.638 377.363 309.043 354.382L225.639 407.405L251.326 416.127C263.622 420.305 275.968 418.983 289.246 423.59C297.603 426.484 302.335 431.909 316.858 436.867C331.382 441.826 334.075 437.572 343.225 440.933C354.313 444.998 355.748 451.379 369.592 456.035L377.005 436.704L387.828 443.135L384.581 445.942L398.035 454.827L398.4 455.784L424.679 444.142L429.864 441.839Z" fill="#2B3A8C"/>
<path d="M505.15 329.601C499.952 302.756 463.139 291.845 428.215 310.534C393.29 329.224 266.34 399.891 266.34 399.891L287.811 456.048C301.655 451.391 303.09 445.01 314.24 440.945C323.39 437.585 326.096 441.826 340.67 436.88C355.244 431.934 359.8 426.484 368.194 423.59C381.472 418.984 393.831 420.305 406.115 416.127C426.843 409.104 444.677 403.038 453.738 399.879C490.488 387.054 510.335 356.459 505.15 329.601Z" fill="#1C75BB"/>
<path d="M298.193 443.651L285.418 389.269L274.821 395.159L298.193 443.651Z" fill="#2B3A8C"/>
<path d="M274.821 406.486L407.561 321.773" stroke="#2B3A8C" stroke-width="0.675281" stroke-miterlimit="10"/>
<path d="M274.635 404.9L247.299 420.468L252.497 453.304L287.107 432.727L274.635 404.9Z" fill="white"/>
<path d="M255.742 414.05L253.943 439.989L260.235 435.055L272.821 445.942L259.367 454.827L248.896 482.427L244.289 499.518C244.147 500.033 243.872 500.502 243.493 500.878C243.113 501.254 242.642 501.525 242.126 501.664C241.61 501.802 241.067 501.804 240.55 501.668C240.034 501.532 239.561 501.264 239.18 500.89C233.143 494.878 229.681 486.754 229.527 478.236C229.133 466.786 230.207 455.332 232.723 444.154L227.802 444.972L225.978 422.772L231.201 422.419C234.442 419.332 238.315 416.984 242.552 415.539C246.789 414.094 251.29 413.586 255.742 414.05V414.05Z" fill="#2B3A8C"/>
<path d="M232.007 424.748L233.53 441.172" stroke="#2B3A8C" stroke-width="0.613084" stroke-miterlimit="10"/>
<path d="M287.809 456.035C292.389 454.555 296.686 452.313 300.52 449.403L277.866 393.447L266.312 399.879L287.809 456.035Z" fill="#2B3A8C"/>
<path d="M547.65 265.05C554.862 261.098 539.985 226.35 539.985 226.35L527.463 231.749C527.463 231.749 540.388 269.027 547.65 265.05Z" fill="#BFBFBF"/>
<path d="M522.229 234.002L549.69 222.184C549.257 219.642 549.449 217.032 550.249 214.581C551.05 212.13 552.434 209.91 554.284 208.113C556.902 205.688 559.649 203.407 562.515 201.279L565.334 203.897L560.476 209.674L560.614 217.011H573.93L589.423 212.229L590.568 215.941L592.342 215.06L594.281 220.46L590.958 222.448L592.481 226.337L585.748 231.208L578.372 232.793L586.78 232.881L591.549 229.962L592.531 232.881L586.515 236.342C577.236 239.559 567.246 240.139 557.657 238.016L532.624 259.198L522.229 234.002Z" fill="#FFBE9D"/>
<path d="M532.612 259.198L522.229 234.027L543.624 224.827C541.774 232.214 541.799 240.584 543.083 250.388L532.612 259.198Z" fill="#EB996E"/>
<path d="M545.171 285.225C551.464 281.801 541.786 263.024 541.786 263.024L521.385 271.72C521.385 271.72 538.249 288.988 545.171 285.225Z" fill="#2B3A8C"/>
<path d="M517.56 235.323L532.788 229.358C532.788 229.358 537.155 261.161 547.652 265.05L517.56 283.991V235.323Z" fill="white"/>
<path d="M442.573 307.174C441.949 306.543 441.487 305.77 441.227 304.921C468.6 295.822 494.577 303.952 502.958 322.667C486.635 335.076 455.624 321.144 442.573 307.174Z" fill="#2B3A8C"/>
<path d="M422.538 142.455L404.125 224.034L426.955 286.231C429.153 292.214 432.576 297.671 437.004 302.255C441.433 306.838 446.769 310.447 452.673 312.849C458.576 315.252 464.916 316.396 471.286 316.207C477.657 316.019 483.918 314.502 489.669 311.755L545.171 285.225C545.171 285.225 531.717 288.761 517.558 235.323L479.688 251.596L438.672 174.082C438.672 174.082 438.672 160.389 422.538 142.455Z" fill="#1C75BB"/>
<path d="M530.283 270.663L489.833 290.536" stroke="#2B3A8C" stroke-width="0.675281" stroke-miterlimit="10"/>
<path d="M517.032 270.361C518.547 270.361 519.775 269.133 519.775 267.618C519.775 266.102 518.547 264.874 517.032 264.874C515.516 264.874 514.288 266.102 514.288 267.618C514.288 269.133 515.516 270.361 517.032 270.361Z" fill="#F0F0F1"/>
<path d="M498.44 276.176C498.44 276.718 498.601 277.249 498.903 277.7C499.204 278.151 499.633 278.503 500.134 278.71C500.635 278.918 501.187 278.972 501.719 278.867C502.252 278.761 502.74 278.499 503.124 278.116C503.508 277.732 503.769 277.243 503.875 276.711C503.981 276.179 503.927 275.627 503.719 275.126C503.511 274.624 503.16 274.196 502.708 273.894C502.257 273.593 501.727 273.432 501.184 273.432C500.457 273.435 499.762 273.725 499.248 274.239C498.734 274.753 498.444 275.449 498.44 276.176V276.176Z" fill="#F0F0F1"/>
<path d="M479.69 251.596L455.388 262.457" stroke="#2B3A8C" stroke-width="0.675281" stroke-miterlimit="10"/>
<path d="M473.397 250.539L448.364 251.596" stroke="#2B3A8C" stroke-width="0.675281" stroke-miterlimit="10"/>
<path d="M416.824 167.777C418.447 173.113 422.185 188.996 418.85 213.802C418.423 216.878 418.698 220.01 419.656 222.964C425.47 240.32 421.241 256.63 418.724 263.804L404.125 224.034L416.824 167.777Z" fill="#2B3A8C"/>
<path d="M590.568 215.979L575.088 221.517L569.651 221.982" stroke="#EB996E" stroke-width="0.888528" stroke-miterlimit="10"/>
<path d="M590.995 222.448L580.624 227.004L571.487 227.822" stroke="#EB996E" stroke-width="0.888528" stroke-miterlimit="10"/>
<path d="M568.882 219.805L572.192 231.371" stroke="#EB996E" stroke-width="0.888528" stroke-miterlimit="10"/>
<path d="M569.649 230.239C566.226 227.596 559.92 224.638 554.144 228.477" stroke="#EB996E" stroke-width="0.888528" stroke-miterlimit="10"/>
<path d="M343.427 92.9055H328.689H313.939L312.403 120.518L328.689 130.071L344.962 120.518L343.427 92.9055Z" fill="#FFBE9D"/>
<path d="M332.639 137.861H324.722L320.984 125.175H336.376L332.639 137.861Z" fill="#8CBF43"/>
<path d="M334.288 112.098C337.766 112.003 341.19 111.212 344.357 109.77L343.413 92.8803H313.937L313.472 101.275C315.917 104.514 319.055 107.167 322.657 109.04C326.258 110.912 330.232 111.957 334.288 112.098V112.098Z" fill="#EB996E"/>
<path d="M309.683 89.2041C312.8 87.5909 313.815 83.3605 311.95 79.7554C310.084 76.1502 306.044 74.5354 302.927 76.1486C299.809 77.7617 298.795 81.9921 300.66 85.5973C302.526 89.2024 306.565 90.8172 309.683 89.2041Z" fill="#EB996E"/>
<path d="M302.673 81.6163C303.566 77.6896 307.833 77.2994 311.382 81.8176" stroke="#FFBE9D" stroke-width="0.630855" stroke-miterlimit="10"/>
<path d="M345.414 79.7536C343.551 83.3531 344.57 87.5818 347.691 89.1928C350.813 90.8037 354.84 89.1928 356.715 85.5933C358.591 81.9938 357.559 77.7651 354.437 76.1416C351.316 74.518 347.276 76.1416 345.414 79.7536Z" fill="#EB996E"/>
<path d="M354.691 81.6163C353.797 77.6896 349.531 77.2994 345.981 81.8176" stroke="#FFBE9D" stroke-width="0.630855" stroke-miterlimit="10"/>
<path d="M348.524 71.8247C347.255 70.3774 346.318 68.6698 345.778 66.8217C345.239 64.9736 345.111 63.0299 345.403 61.1271V61.1271C345.465 60.7391 345.442 60.3423 345.336 59.9641C345.23 59.5859 345.043 59.2352 344.788 58.9361C344.533 58.6371 344.216 58.3968 343.86 58.2319C343.503 58.0669 343.115 57.9812 342.722 57.9807H314.644C314.254 57.9818 313.868 58.067 313.514 58.2304C313.159 58.3939 312.844 58.6318 312.59 58.9279C312.335 59.2241 312.148 59.5715 312.04 59.9467C311.932 60.3218 311.906 60.7158 311.963 61.1019V61.1019C312.255 63.0047 312.127 64.9485 311.588 66.7965C311.049 68.6446 310.112 70.3523 308.842 71.7996L307.093 73.7881C308.276 98.3298 322.661 103.754 328.69 103.754C334.718 103.754 349.091 98.3298 350.274 73.7881L348.524 71.8247Z" fill="#FFBE9D"/>
<path d="M315.535 74.732C317.423 77.2491 321.488 77.1484 324.144 74.4929" stroke="black" stroke-width="0.666396" stroke-miterlimit="10"/>
<path d="M314.076 68.9552C315.658 67.9875 317.476 67.4754 319.331 67.4754C321.185 67.4754 323.003 67.9875 324.585 68.9552" stroke="black" stroke-width="0.888528" stroke-miterlimit="10"/>
<path d="M341.826 74.732C339.938 77.2491 335.873 77.1484 333.218 74.4929" stroke="black" stroke-width="0.666396" stroke-miterlimit="10"/>
<path d="M343.248 68.9552C341.666 67.9875 339.848 67.4754 337.994 67.4754C336.139 67.4754 334.321 67.9875 332.739 68.9552" stroke="black" stroke-width="0.888528" stroke-miterlimit="10"/>
<path d="M327.682 71.9632V81.0374L331.797 80.1941" stroke="#EB996E" stroke-width="0.888528" stroke-miterlimit="10"/>
<path d="M321.628 83.9572C321.628 83.9572 327.178 87.7328 335.736 83.9572" stroke="black" stroke-width="0.888528" stroke-miterlimit="10"/>
<path d="M326.245 89.4822H331.128" stroke="#EB996E" stroke-width="0.888528" stroke-miterlimit="10"/>
<path d="M326.774 125.175L321.5 136.426L304.422 123.589L308.839 115.509L326.774 125.175Z" fill="white"/>
<path d="M330.587 125.175L335.86 136.426L352.939 123.589L348.521 115.509L330.587 125.175Z" fill="white"/>
<path d="M332.641 137.861H324.725C324.725 137.861 325.379 159.332 331.634 170.659C342.797 190.871 367.389 186.705 373.632 196.031C379.874 205.357 386.62 219.629 416.347 215.262L434.521 197.441L415.642 188.706C415.642 188.706 402.78 194.143 394.247 184.465C385.714 174.787 378.44 171.716 366.559 172.081C354.678 172.446 335.057 165.826 332.641 137.861Z" fill="#8CBF43"/>
<path d="M333.811 145.425C333.239 142.939 332.848 140.416 332.641 137.874H324.725C324.725 137.874 324.725 138.125 324.725 138.566C328.038 140.448 331.093 142.754 333.811 145.425Z" fill="#2B3A8C"/>
<path d="M130.252 269.455H111.135V280.279H130.252V269.455Z" fill="#28A8DF"/>
<path d="M109.814 265.05C102.602 261.098 117.479 226.35 117.479 226.35L130.001 231.749C130.001 231.749 117.076 269.027 109.814 265.05Z" fill="#BFBFBF"/>
<path d="M135.237 234.002L107.775 222.184C108.208 219.642 108.016 217.032 107.216 214.581C106.415 212.13 105.031 209.91 103.181 208.113C100.563 205.688 97.8156 203.407 94.9503 201.279L92.1311 203.897L96.9891 209.674L96.8507 217.011H83.5352L68.0425 212.229L66.8972 215.941L65.1226 215.06L63.1719 220.46L66.4693 222.41L64.9464 226.299L71.6671 231.17L79.1051 232.756L70.698 232.844L65.9155 229.924L64.9464 232.919L70.9623 236.38C80.2375 239.597 90.2233 240.176 99.8083 238.054L124.853 259.236L135.237 234.002Z" fill="#FFBE9D"/>
<path d="M124.852 259.198L135.235 234.027L113.84 224.827C115.69 232.214 115.665 240.584 114.368 250.388L124.852 259.198Z" fill="#EB996E"/>
<path d="M112.291 285.225C105.999 281.801 115.677 263.024 115.677 263.024L136.065 271.72C136.065 271.72 119.213 288.988 112.291 285.225Z" fill="#2B3A8C"/>
<path d="M139.904 235.323L124.676 229.358C124.676 229.358 120.258 261.161 109.812 265.05L139.904 283.991V235.323Z" fill="white"/>
<path d="M214.889 307.174C215.513 306.543 215.975 305.77 216.235 304.921C188.862 295.822 162.885 303.952 154.566 322.667C170.827 335.076 201.838 321.144 214.889 307.174Z" fill="#2B3A8C"/>
<path d="M66.8965 215.979L82.3767 221.517L87.8136 221.982" stroke="#EB996E" stroke-width="0.888528" stroke-miterlimit="10"/>
<path d="M66.4688 222.448L76.8392 227.004L85.9763 227.822" stroke="#EB996E" stroke-width="0.888528" stroke-miterlimit="10"/>
<path d="M88.5689 219.805L85.2715 231.371" stroke="#EB996E" stroke-width="0.888528" stroke-miterlimit="10"/>
<path d="M87.8125 230.239C91.2232 227.596 97.5411 224.638 103.318 228.477" stroke="#EB996E" stroke-width="0.888528" stroke-miterlimit="10"/>
<path d="M234.925 142.455L253.338 224.034L230.508 286.231C228.31 292.214 224.887 297.671 220.458 302.255C216.03 306.838 210.693 310.447 204.79 312.849C198.887 315.252 192.547 316.396 186.177 316.207C179.806 316.019 173.545 314.502 167.794 311.755L112.292 285.225C112.292 285.225 125.746 288.761 139.905 235.323L177.774 251.596L218.828 174.082C218.828 174.082 218.803 160.389 234.925 142.455Z" fill="#1C75BB"/>
<path d="M240.639 167.777C239.016 173.113 235.278 188.996 238.6 213.802C239.038 216.876 238.767 220.01 237.808 222.964C231.993 240.32 236.222 256.63 238.739 263.804L253.338 224.034L240.639 167.777Z" fill="#2B3A8C"/>
<path d="M127.17 270.663L167.632 290.536" stroke="#2B3A8C" stroke-width="0.675281" stroke-miterlimit="10"/>
<path d="M140.434 270.361C141.949 270.361 143.178 269.133 143.178 267.618C143.178 266.102 141.949 264.874 140.434 264.874C138.919 264.874 137.69 266.102 137.69 267.618C137.69 269.133 138.919 270.361 140.434 270.361Z" fill="#F0F0F1"/>
<path d="M159.023 276.176C159.023 276.718 158.863 277.249 158.561 277.7C158.26 278.151 157.831 278.503 157.33 278.71C156.828 278.918 156.277 278.972 155.745 278.867C155.212 278.761 154.723 278.499 154.34 278.116C153.956 277.732 153.695 277.243 153.589 276.711C153.483 276.179 153.537 275.627 153.745 275.126C153.953 274.624 154.304 274.196 154.755 273.894C155.207 273.593 155.737 273.432 156.28 273.432C157.006 273.435 157.702 273.725 158.216 274.239C158.73 274.753 159.02 275.449 159.023 276.176V276.176Z" fill="#F0F0F1"/>
<path d="M177.777 251.596L202.08 262.457" stroke="#2B3A8C" stroke-width="0.675281" stroke-miterlimit="10"/>
<path d="M184.068 250.539L209.101 251.596" stroke="#2B3A8C" stroke-width="0.675281" stroke-miterlimit="10"/>
</svg>
