<svg width="346" height="233" viewBox="0 0 346 233" fill="none" xmlns="http://www.w3.org/2000/svg">
<g style="mix-blend-mode:luminosity" opacity="0.4">
<g opacity="0.41">
<path opacity="0.41" d="M117.082 34.3617C121.021 28.0789 128.939 26.2585 134.803 30.3343C140.667 34.41 146.233 45.5176 142.294 51.8003C138.355 58.0831 129.003 52.0983 121.988 51.5989C112.169 50.866 113.144 40.6364 117.082 34.3617Z" fill="white"/>
</g>
<path d="M5.20985 100.411C5.12039 101.315 5.30077 102.224 5.72821 103.025C6.15564 103.826 6.81093 104.483 7.61124 104.911C8.41156 105.34 9.32098 105.521 10.2245 105.433C11.1281 105.345 11.9853 104.991 12.6876 104.416C13.39 103.841 13.9061 103.07 14.1707 102.202C14.4353 101.333 14.4364 100.406 14.174 99.5368C13.9117 98.6676 13.3975 97.8958 12.6966 97.3189C11.9956 96.7419 11.1394 96.3857 10.236 96.2953C9.6357 96.2352 9.02939 96.294 8.45179 96.4684C7.87419 96.6428 7.33663 96.9293 6.86984 97.3115C6.40304 97.6938 6.01617 98.1643 5.73134 98.6962C5.44651 99.2281 5.2693 99.8109 5.20985 100.411Z" fill="white"/>
<path d="M113.715 160.355C113.384 160.355 113.06 160.257 112.785 160.073C112.509 159.889 112.294 159.627 112.168 159.321C112.041 159.015 112.008 158.678 112.072 158.353C112.137 158.028 112.296 157.729 112.531 157.495C112.765 157.261 113.064 157.101 113.389 157.036C113.714 156.972 114.05 157.005 114.357 157.132C114.663 157.258 114.924 157.473 115.108 157.749C115.293 158.024 115.391 158.348 115.391 158.68C115.391 159.124 115.214 159.55 114.9 159.864C114.586 160.178 114.16 160.355 113.715 160.355ZM113.715 157.81C113.543 157.81 113.375 157.861 113.232 157.956C113.089 158.052 112.978 158.188 112.912 158.347C112.846 158.506 112.829 158.681 112.862 158.849C112.896 159.018 112.979 159.173 113.1 159.295C113.222 159.416 113.377 159.499 113.546 159.533C113.714 159.566 113.889 159.549 114.048 159.483C114.207 159.417 114.343 159.306 114.439 159.163C114.534 159.02 114.585 158.852 114.585 158.68C114.585 158.449 114.494 158.228 114.331 158.064C114.167 157.901 113.946 157.81 113.715 157.81Z" fill="#F0F0F1"/>
<path d="M88.3435 144.737C87.6876 144.734 87.0511 144.514 86.5332 144.111C86.0153 143.709 85.6451 143.147 85.4802 142.512C85.3153 141.877 85.3651 141.205 85.6217 140.602C85.8784 139.998 86.3275 139.496 86.899 139.175C87.4706 138.853 88.1326 138.729 88.7818 138.823C89.4309 138.917 90.0309 139.222 90.4881 139.693C90.9453 140.163 91.2341 140.771 91.3095 141.423C91.3849 142.074 91.2427 142.733 90.9049 143.295C90.6378 143.735 90.2618 144.099 89.8132 144.352C89.3645 144.604 88.8584 144.737 88.3435 144.737ZM88.3435 139.59C87.8192 139.59 87.3129 139.78 86.9182 140.126C86.5236 140.471 86.2676 140.947 86.1975 141.467C86.1274 141.986 86.2481 142.514 86.5372 142.951C86.8263 143.389 87.2641 143.706 87.7696 143.845C88.275 143.985 88.8138 143.936 89.286 143.708C89.7582 143.48 90.1319 143.089 90.3377 142.607C90.5434 142.125 90.5674 141.584 90.4051 141.086C90.2428 140.587 89.9053 140.164 89.4551 139.896C89.1242 139.697 88.7457 139.591 88.3596 139.59H88.3435Z" fill="white"/>
<path d="M111.984 82.2718C109.877 87.2376 106.531 91.5793 102.265 94.8808C97.9984 98.1822 92.9561 100.333 87.6204 101.127C82.2848 101.921 76.8347 101.331 71.7923 99.4147C66.7499 97.4982 62.284 94.319 58.8226 90.1816L47.5459 91.9134L53.5387 81.0716C51.7337 76.258 51.1351 71.0756 51.7952 65.9773C52.4553 60.879 54.3541 56.0199 57.3255 51.8248C60.297 47.6296 64.2507 44.2261 68.8411 41.9117C73.4316 39.5972 78.519 38.4423 83.6588 38.5478C88.7986 38.6533 93.8343 40.016 98.3259 42.5169C102.817 45.0178 106.628 48.5807 109.425 52.8942C112.222 57.2077 113.92 62.1406 114.37 67.2617C114.82 72.3828 114.01 77.5363 112.008 82.2718H111.984Z" fill="#BDBDBD"/>
<path d="M98.178 59.2915H68.2303C68.0167 59.2915 67.8118 59.2066 67.6607 59.0556C67.5097 58.9045 67.4248 58.6996 67.4248 58.486C67.4248 58.2724 67.5097 58.0675 67.6607 57.9165C67.8118 57.7654 68.0167 57.6805 68.2303 57.6805H98.178C98.3917 57.6805 98.5965 57.7654 98.7476 57.9165C98.8986 58.0675 98.9835 58.2724 98.9835 58.486C98.9835 58.6996 98.8986 58.9045 98.7476 59.0556C98.5965 59.2066 98.3917 59.2915 98.178 59.2915Z" fill="#F0F0F1"/>
<path d="M98.178 69.3519H68.2303C68.0167 69.3519 67.8118 69.2671 67.6607 69.116C67.5097 68.965 67.4248 68.7601 67.4248 68.5464C67.4248 68.3328 67.5097 68.1279 67.6607 67.9769C67.8118 67.8258 68.0167 67.741 68.2303 67.741H98.178C98.3917 67.741 98.5965 67.8258 98.7476 67.9769C98.8986 68.1279 98.9835 68.3328 98.9835 68.5464C98.9835 68.7601 98.8986 68.965 98.7476 69.116C98.5965 69.2671 98.3917 69.3519 98.178 69.3519Z" fill="#F0F0F1"/>
<path d="M98.178 80.2579H68.2303C68.0167 80.2579 67.8118 80.1731 67.6607 80.022C67.5097 79.871 67.4248 79.6661 67.4248 79.4525C67.4248 79.2388 67.5097 79.0339 67.6607 78.8829C67.8118 78.7318 68.0167 78.647 68.2303 78.647H98.178C98.3917 78.647 98.5965 78.7318 98.7476 78.8829C98.8986 79.0339 98.9835 79.2388 98.9835 79.4525C98.9835 79.6661 98.8986 79.871 98.7476 80.022C98.5965 80.1731 98.3917 80.2579 98.178 80.2579Z" fill="#F0F0F1"/>
<path d="M117.816 88.0068H97.7511C92.6753 88.0068 88.5605 92.1216 88.5605 97.1974V97.2779C88.5605 102.354 92.6753 106.468 97.7511 106.468H117.816C122.891 106.468 127.006 102.354 127.006 97.2779V97.1974C127.006 92.1216 122.891 88.0068 117.816 88.0068Z" fill="#BDBDBD"/>
<path d="M97.5417 99.9924C97.0889 99.9939 96.6459 99.8611 96.2686 99.6108C95.8914 99.3604 95.5969 99.0037 95.4225 98.5858C95.2482 98.1679 95.2017 97.7077 95.2891 97.2635C95.3764 96.8192 95.5936 96.4108 95.9132 96.0901C96.2328 95.7694 96.6404 95.5507 97.0844 95.4618C97.5284 95.3729 97.9887 95.4177 98.4072 95.5906C98.8257 95.7635 99.1834 96.0567 99.4351 96.4331C99.6868 96.8094 99.8212 97.252 99.8212 97.7048C99.8212 98.3101 99.5813 98.8907 99.1541 99.3195C98.7268 99.7483 98.147 99.9902 97.5417 99.9924ZM97.5417 96.2227C97.2482 96.2211 96.9609 96.3067 96.7161 96.4686C96.4713 96.6304 96.2801 96.8614 96.1667 97.132C96.0533 97.4027 96.0228 97.7009 96.0791 97.989C96.1353 98.277 96.2759 98.5418 96.4828 98.7499C96.6898 98.958 96.9538 99.0999 97.2415 99.1578C97.5293 99.2156 97.8277 99.1867 98.0989 99.0748C98.3702 98.9629 98.6022 98.7729 98.7654 98.529C98.9286 98.2851 99.0157 97.9983 99.0157 97.7048C99.0158 97.3131 98.8607 96.9373 98.5845 96.6596C98.3083 96.3819 97.9334 96.2248 97.5417 96.2227Z" fill="white"/>
<path d="M107.787 99.9924C107.334 99.9939 106.891 99.8611 106.514 99.6108C106.136 99.3604 105.842 99.0037 105.668 98.5858C105.493 98.1679 105.447 97.7077 105.534 97.2635C105.622 96.8192 105.839 96.4108 106.158 96.0901C106.478 95.7694 106.886 95.5507 107.33 95.4618C107.773 95.3729 108.234 95.4177 108.652 95.5906C109.071 95.7635 109.429 96.0567 109.68 96.4331C109.932 96.8094 110.066 97.252 110.066 97.7048C110.066 98.3101 109.826 98.8907 109.399 99.3195C108.972 99.7483 108.392 99.9902 107.787 99.9924ZM107.787 96.2227C107.493 96.2211 107.206 96.3067 106.961 96.4686C106.716 96.6304 106.525 96.8614 106.412 97.132C106.298 97.4027 106.268 97.7009 106.324 97.989C106.38 98.277 106.521 98.5418 106.728 98.7499C106.935 98.958 107.199 99.0999 107.487 99.1578C107.774 99.2156 108.073 99.1867 108.344 99.0748C108.615 98.9629 108.847 98.7729 109.011 98.529C109.174 98.2851 109.261 97.9983 109.261 97.7048C109.261 97.3131 109.106 96.9373 108.83 96.6596C108.553 96.3819 108.178 96.2248 107.787 96.2227Z" fill="white"/>
<path d="M117.993 99.9924C117.54 99.9924 117.098 99.8582 116.722 99.6068C116.346 99.3555 116.052 98.9982 115.879 98.5802C115.706 98.1622 115.661 97.7023 115.749 97.2585C115.837 96.8148 116.055 96.4072 116.375 96.0873C116.695 95.7673 117.103 95.5495 117.546 95.4612C117.99 95.3729 118.45 95.4182 118.868 95.5914C119.286 95.7645 119.643 96.0577 119.895 96.4339C120.146 96.8101 120.28 97.2524 120.28 97.7048C120.28 98.3115 120.039 98.8934 119.61 99.3224C119.181 99.7514 118.599 99.9924 117.993 99.9924ZM117.993 96.2227C117.7 96.2227 117.413 96.3096 117.169 96.4725C116.926 96.6353 116.736 96.8668 116.623 97.1376C116.511 97.4084 116.482 97.7064 116.539 97.9939C116.596 98.2814 116.737 98.5455 116.945 98.7528C117.152 98.9601 117.416 99.1012 117.703 99.1584C117.991 99.2156 118.289 99.1862 118.56 99.0741C118.831 98.9619 119.062 98.7719 119.225 98.5282C119.388 98.2845 119.475 97.9979 119.475 97.7048C119.473 97.3124 119.316 96.9366 119.038 96.6592C118.761 96.3817 118.385 96.2248 117.993 96.2227Z" fill="white"/>
<path d="M333.604 101.676H240.966C240.25 101.676 239.669 102.256 239.669 102.973V130.963C239.669 131.679 240.25 132.26 240.966 132.26H333.604C334.32 132.26 334.901 131.679 334.901 130.963V102.973C334.901 102.256 334.32 101.676 333.604 101.676Z" fill="#BDBDBD"/>
<path d="M260.574 121.282C263.279 118.577 263.279 114.191 260.574 111.486C257.868 108.781 253.482 108.781 250.777 111.486C248.072 114.191 248.072 118.577 250.777 121.282C253.482 123.987 257.868 123.987 260.574 121.282Z" fill="white"/>
<path d="M255.086 119.807C254.976 119.805 254.868 119.78 254.769 119.734C254.669 119.688 254.58 119.623 254.506 119.541L251.445 116.078C251.37 115.999 251.311 115.907 251.273 115.805C251.234 115.703 251.217 115.595 251.221 115.486C251.226 115.377 251.252 115.271 251.299 115.173C251.346 115.075 251.412 114.987 251.494 114.915C251.576 114.843 251.671 114.789 251.774 114.755C251.878 114.721 251.987 114.708 252.095 114.717C252.203 114.727 252.309 114.758 252.405 114.809C252.501 114.86 252.585 114.93 252.653 115.015L255.142 117.826L261.296 111.632C261.371 111.556 261.46 111.496 261.558 111.455C261.657 111.414 261.762 111.393 261.868 111.393C261.974 111.393 262.08 111.414 262.178 111.455C262.276 111.496 262.365 111.556 262.44 111.632C262.59 111.782 262.674 111.987 262.674 112.199C262.674 112.412 262.59 112.616 262.44 112.767L255.682 119.574C255.604 119.651 255.511 119.712 255.408 119.752C255.306 119.792 255.196 119.811 255.086 119.807Z" fill="#828282"/>
<path d="M321.691 112.316H272.959C272.853 112.316 272.75 112.274 272.675 112.198C272.599 112.123 272.557 112.02 272.557 111.913C272.557 111.807 272.599 111.704 272.675 111.629C272.75 111.553 272.853 111.511 272.959 111.511H321.691C321.797 111.513 321.898 111.556 321.973 111.631C322.049 111.706 322.092 111.807 322.094 111.913C322.094 112.02 322.051 112.123 321.976 112.198C321.9 112.274 321.798 112.316 321.691 112.316Z" fill="white"/>
<path d="M294.731 118.1H272.983C272.876 118.1 272.774 118.057 272.698 117.982C272.622 117.906 272.58 117.804 272.58 117.697C272.58 117.59 272.622 117.488 272.698 117.412C272.774 117.337 272.876 117.294 272.983 117.294H294.731C294.838 117.294 294.94 117.337 295.016 117.412C295.091 117.488 295.134 117.59 295.134 117.697C295.134 117.804 295.091 117.906 295.016 117.982C294.94 118.057 294.838 118.1 294.731 118.1Z" fill="white"/>
<path d="M294.731 124.672H272.983C272.876 124.672 272.774 124.63 272.698 124.554C272.622 124.479 272.58 124.376 272.58 124.27C272.58 124.163 272.622 124.06 272.698 123.985C272.774 123.909 272.876 123.867 272.983 123.867H294.731C294.838 123.867 294.94 123.909 295.016 123.985C295.091 124.06 295.134 124.163 295.134 124.27C295.134 124.376 295.091 124.479 295.016 124.554C294.94 124.63 294.838 124.672 294.731 124.672Z" fill="white"/>
<path d="M321.691 118.1H299.943C299.836 118.1 299.734 118.057 299.658 117.982C299.582 117.906 299.54 117.804 299.54 117.697C299.54 117.59 299.582 117.488 299.658 117.412C299.734 117.337 299.836 117.294 299.943 117.294H321.691C321.798 117.294 321.9 117.337 321.976 117.412C322.051 117.488 322.093 117.59 322.093 117.697C322.093 117.804 322.051 117.906 321.976 117.982C321.9 118.057 321.798 118.1 321.691 118.1Z" fill="white"/>
<path d="M308.923 128.571H216.285C215.569 128.571 214.988 129.152 214.988 129.868V157.858C214.988 158.574 215.569 159.155 216.285 159.155H308.923C309.64 159.155 310.22 158.574 310.22 157.858V129.868C310.22 129.152 309.64 128.571 308.923 128.571Z" fill="white"/>
<path d="M231.001 150.214C234.827 150.214 237.928 147.113 237.928 143.287C237.928 139.461 234.827 136.36 231.001 136.36C227.176 136.36 224.074 139.461 224.074 143.287C224.074 147.113 227.176 150.214 231.001 150.214Z" fill="#BDBDBD"/>
<path opacity="0.69" d="M297.011 139.219H248.295C248.189 139.219 248.086 139.177 248.011 139.101C247.935 139.026 247.893 138.923 247.893 138.817C247.893 138.71 247.935 138.607 248.011 138.532C248.086 138.456 248.189 138.414 248.295 138.414H297.027C297.134 138.414 297.236 138.456 297.312 138.532C297.387 138.607 297.43 138.71 297.43 138.817C297.43 138.923 297.387 139.026 297.312 139.101C297.236 139.177 297.134 139.219 297.027 139.219H297.011Z" fill="#828282"/>
<path opacity="0.69" d="M270.043 144.987H248.295C248.189 144.984 248.088 144.941 248.013 144.866C247.938 144.791 247.895 144.69 247.893 144.584C247.893 144.477 247.935 144.375 248.011 144.299C248.086 144.223 248.189 144.181 248.295 144.181H270.043C270.15 144.181 270.253 144.223 270.328 144.299C270.404 144.375 270.446 144.477 270.446 144.584C270.446 144.691 270.404 144.793 270.328 144.869C270.253 144.944 270.15 144.987 270.043 144.987Z" fill="#828282"/>
<path opacity="0.69" d="M270.043 151.575H248.295C248.189 151.575 248.086 151.533 248.011 151.457C247.935 151.382 247.893 151.279 247.893 151.173C247.893 151.066 247.935 150.963 248.011 150.888C248.086 150.812 248.189 150.77 248.295 150.77H270.043C270.15 150.77 270.253 150.812 270.328 150.888C270.404 150.963 270.446 151.066 270.446 151.173C270.446 151.279 270.404 151.382 270.328 151.457C270.253 151.533 270.15 151.575 270.043 151.575Z" fill="#828282"/>
<path opacity="0.69" d="M297.011 144.987H275.263C275.156 144.987 275.054 144.944 274.978 144.869C274.903 144.793 274.86 144.691 274.86 144.584C274.86 144.477 274.903 144.375 274.978 144.299C275.054 144.223 275.156 144.181 275.263 144.181H297.011C297.118 144.181 297.22 144.223 297.296 144.299C297.371 144.375 297.414 144.477 297.414 144.584C297.412 144.69 297.369 144.791 297.294 144.866C297.219 144.941 297.117 144.984 297.011 144.987Z" fill="#828282"/>
<path d="M219.676 54.8613C219.676 75.3205 182.624 108.7 182.624 108.7C182.624 108.7 145.572 75.3205 145.572 54.8613C145.572 45.0345 149.476 35.6101 156.425 28.6615C163.373 21.7129 172.798 17.8092 182.624 17.8092C192.451 17.8092 201.876 21.7129 208.824 28.6615C215.773 35.6101 219.676 45.0345 219.676 54.8613Z" fill="#BDBDBD"/>
<path opacity="0.24" d="M182.617 93.1942C182.617 93.1942 152.733 66.275 146.636 45.9689C145.921 48.8682 145.559 51.8431 145.557 54.8292C145.557 75.2884 182.609 108.667 182.609 108.667C182.609 108.667 219.661 75.2884 219.661 54.8292C219.66 51.8425 219.295 48.8671 218.573 45.9689C212.5 66.275 182.617 93.1942 182.617 93.1942Z" fill="#828282"/>
<path d="M182.617 78.4216C178.023 78.4216 173.533 77.0594 169.714 74.5074C165.895 71.9554 162.919 68.3281 161.161 64.0844C159.404 59.8406 158.945 55.1711 159.841 50.6662C160.738 46.1614 162.95 42.0236 166.199 38.7763C169.447 35.5289 173.586 33.3179 178.091 32.4228C182.596 31.5277 187.266 31.9887 191.509 33.7475C195.752 35.5064 199.378 38.4841 201.929 42.304C204.48 46.1239 205.84 50.6144 205.839 55.2076C205.83 61.3631 203.38 67.2639 199.027 71.6158C194.674 75.9676 188.772 78.4152 182.617 78.4216ZM182.617 33.5966C178.342 33.5966 174.164 34.864 170.61 37.2387C167.056 39.6133 164.286 42.9885 162.651 46.9374C161.015 50.8863 160.587 55.2316 161.421 59.4237C162.255 63.6158 164.313 67.4666 167.335 70.4889C170.358 73.5113 174.208 75.5695 178.4 76.4034C182.593 77.2373 186.938 76.8093 190.887 75.1736C194.836 73.5379 198.211 70.768 200.585 67.2141C202.96 63.6601 204.228 59.4819 204.228 55.2076C204.219 49.4786 201.939 43.9867 197.888 39.9357C193.837 35.8847 188.346 33.6051 182.617 33.5966Z" fill="white"/>
<path d="M136.342 83.8908C137.325 83.8908 138.122 83.0938 138.122 82.1107C138.122 81.1276 137.325 80.3306 136.342 80.3306C135.359 80.3306 134.562 81.1276 134.562 82.1107C134.562 83.0938 135.359 83.8908 136.342 83.8908Z" fill="white"/>
<path d="M219.677 175.764C220.66 175.764 221.457 174.967 221.457 173.984C221.457 173.001 220.66 172.204 219.677 172.204C218.693 172.204 217.896 173.001 217.896 173.984C217.896 174.967 218.693 175.764 219.677 175.764Z" fill="white"/>
<path d="M344.22 154.918C345.203 154.918 346 154.121 346 153.138C346 152.155 345.203 151.358 344.22 151.358C343.236 151.358 342.439 152.155 342.439 153.138C342.439 154.121 343.236 154.918 344.22 154.918Z" fill="white"/>
<path d="M43.4618 27.3461C44.4449 27.3461 45.2419 26.5491 45.2419 25.566C45.2419 24.5829 44.4449 23.7859 43.4618 23.7859C42.4786 23.7859 41.6816 24.5829 41.6816 25.566C41.6816 26.5491 42.4786 27.3461 43.4618 27.3461Z" fill="white"/>
<path d="M280.12 63.7618C281.103 63.7618 281.9 62.9648 281.9 61.9816C281.9 60.9985 281.103 60.2015 280.12 60.2015C279.137 60.2015 278.34 60.9985 278.34 61.9816C278.34 62.9648 279.137 63.7618 280.12 63.7618Z" fill="white"/>
<path d="M205.033 116.046C205.033 116.223 204.981 116.396 204.882 116.543C204.783 116.69 204.643 116.805 204.479 116.872C204.316 116.94 204.135 116.957 203.962 116.922C203.788 116.887 203.629 116.801 203.504 116.675C203.379 116.549 203.295 116.389 203.261 116.215C203.228 116.041 203.247 115.861 203.316 115.698C203.384 115.535 203.5 115.396 203.648 115.298C203.796 115.201 203.97 115.15 204.147 115.152C204.264 115.152 204.38 115.175 204.488 115.22C204.596 115.265 204.694 115.331 204.777 115.414C204.859 115.497 204.924 115.596 204.968 115.704C205.012 115.812 205.034 115.929 205.033 116.046Z" fill="#828282"/>
<path d="M245.573 89.8192C246.947 89.8192 248.062 88.7048 248.062 87.3302C248.062 85.9556 246.947 84.8413 245.573 84.8413C244.198 84.8413 243.084 85.9556 243.084 87.3302C243.084 88.7048 244.198 89.8192 245.573 89.8192Z" fill="white"/>
<path d="M322.778 168.442C322.78 168.721 322.698 168.994 322.544 169.227C322.391 169.46 322.171 169.642 321.914 169.75C321.656 169.858 321.372 169.887 321.099 169.833C320.825 169.78 320.573 169.646 320.375 169.45C320.177 169.253 320.042 169.002 319.987 168.728C319.932 168.454 319.959 168.17 320.066 167.912C320.172 167.654 320.353 167.434 320.585 167.279C320.817 167.123 321.089 167.04 321.369 167.04C321.741 167.04 322.098 167.188 322.362 167.45C322.627 167.713 322.776 168.069 322.778 168.442Z" fill="white"/>
<path d="M64.4601 126.283C65.1452 126.283 65.7006 125.728 65.7006 125.043C65.7006 124.358 65.1452 123.802 64.4601 123.802C63.7751 123.802 63.2197 124.358 63.2197 125.043C63.2197 125.728 63.7751 126.283 64.4601 126.283Z" fill="white"/>
<path d="M131.324 62.8758C131.818 62.8758 132.218 62.4755 132.218 61.9817C132.218 61.4879 131.818 61.0876 131.324 61.0876C130.83 61.0876 130.43 61.4879 130.43 61.9817C130.43 62.4755 130.83 62.8758 131.324 62.8758Z" fill="white"/>
<path d="M253.266 37.9623L249.101 43.5281L248.94 36.448L243.979 32.2192L250.68 31.2848L255.006 25.5659L255.263 32.8314L260.032 37.632L253.266 37.9623Z" fill="#BDBDBD"/>
<path opacity="0.47" d="M98.3631 20.0323L95.6487 23.665L95.5359 19.0416L92.2979 16.2788L96.6716 15.6747L99.4988 11.9292L99.668 16.6815L102.785 19.8149L98.3631 20.0323Z" fill="white"/>
<path opacity="0.47" d="M317.631 79.9438L315.779 82.4247L315.706 79.2753L313.491 77.3904L316.48 76.9716L318.405 74.4263L318.517 77.6643L320.644 79.7988L317.631 79.9438Z" fill="#BDBDBD"/>
<path d="M0.815267 3.56022C1.7984 3.56022 2.59538 2.76324 2.59538 1.78011C2.59538 0.796985 1.7984 0 0.815267 0C-0.167861 0 -0.964844 0.796985 -0.964844 1.78011C-0.964844 2.76324 -0.167861 3.56022 0.815267 3.56022Z" fill="white"/>
<path d="M5.0844 70.8341C5.0844 71.0794 5.01165 71.3192 4.87535 71.5232C4.73905 71.7272 4.54532 71.8862 4.31865 71.9801C4.09199 72.074 3.84258 72.0985 3.60196 72.0507C3.36134 72.0028 3.14032 71.8847 2.96684 71.7112C2.79336 71.5377 2.67521 71.3167 2.62735 71.0761C2.57949 70.8354 2.60406 70.586 2.69794 70.3594C2.79183 70.1327 2.95081 69.939 3.1548 69.8027C3.35879 69.6664 3.59862 69.5936 3.84396 69.5936C4.17294 69.5936 4.48845 69.7243 4.72108 69.9569C4.95371 70.1896 5.0844 70.5051 5.0844 70.8341Z" fill="white"/>
<path d="M150.954 111.607L148.835 114.435L148.755 110.842L146.233 108.691L149.633 108.216L151.831 105.308L151.96 109.006L154.385 111.438L150.954 111.607Z" fill="white"/>
<path d="M297.647 196.787L295.537 199.614L295.448 196.022L292.927 193.871L296.334 193.404L298.533 190.496L298.662 194.185L301.086 196.626L297.647 196.787Z" fill="white"/>
<path d="M55.9465 151.503L55.0041 154.902L53.6187 151.583L50.4854 150.504L53.4817 148.82L54.4725 145.317L55.9384 148.708L59.0798 150.093L55.9465 151.503Z" fill="white"/>
<path d="M143.849 4.17232C144.343 4.17232 144.743 3.77203 144.743 3.27824C144.743 2.78445 144.343 2.38416 143.849 2.38416C143.355 2.38416 142.955 2.78445 142.955 3.27824C142.955 3.77203 143.355 4.17232 143.849 4.17232Z" fill="white"/>
<path d="M205.927 14.2087C206.91 14.2087 207.707 13.4117 207.707 12.4285C207.707 11.4454 206.91 10.6484 205.927 10.6484C204.943 10.6484 204.146 11.4454 204.146 12.4285C204.146 13.4117 204.943 14.2087 205.927 14.2087Z" fill="white"/>
</g>
</svg>
