<svg width="291" height="200" viewBox="0 0 291 200" fill="none" xmlns="http://www.w3.org/2000/svg">
<path d="M3.90332 70.7961H-115.156C-114.586 68.697 -111.456 61.5101 -95.5286 64.2625C-96.8654 63.1647 -97.8965 61.7412 -98.5227 60.1293C-99.1488 58.5174 -99.349 56.7715 -99.1036 55.0599C-98.9138 54.0199 -98.4313 53.0554 -97.7126 52.2797C-97.0179 51.6514 -96.1976 51.1775 -95.3061 50.8895C-89.0185 48.6375 -78.0293 57.2841 -78.0293 57.2841C-91.4946 36.1403 -54.7988 27.2714 -54.5484 54.0173C-54.5484 54.0173 -49.1651 44.4116 -43.281 47.0667C-40.8884 48.4568 -42.3629 52.6272 -43.434 54.351C-26.2407 46.0102 -10.6053 51.1259 -17.8805 60.6482C-0.993164 61.0513 3.90332 70.7961 3.90332 70.7961Z" fill="white"/>
<path d="M181.373 42.6042H202.002V80.7909H181.373V42.6042Z" fill="white"/>
<path d="M202.002 52.2795V55.9634L181.373 53.6002V52.2795H202.002Z" fill="#9BB8CC"/>
<path d="M178.953 47.6782H204.423V52.2795H178.953V47.6782Z" fill="#133B53"/>
<path d="M257.505 199.73L256.448 184.439L264.905 174.652L264.391 174.235L259.397 178.503L258.673 174.235L257.88 174.444L258.02 179.754L255.989 181.728L255.21 166.117L259.355 160.987L258.896 160.598L254.598 164.032L254.319 155.872H253.207L252.469 165.894L251.384 175.875L245.792 169.828L245.264 170.162L247.309 173.373L243.761 173.318V173.915L247.642 174.513L251.454 180.477L250.578 199.73H257.505Z" fill="#994F61"/>
<path d="M221.379 144.459C221.233 142.562 221.533 140.658 222.255 138.898C222.626 138.019 223.206 137.243 223.946 136.64C224.685 136.036 225.562 135.623 226.498 135.437C227.042 135.337 227.602 135.378 228.125 135.555C228.649 135.733 229.118 136.042 229.489 136.452C227.251 133.873 225.595 130.844 224.634 127.569C224.154 125.937 224.063 124.215 224.37 122.542C224.677 120.869 225.373 119.291 226.401 117.935C227.501 116.72 228.889 115.8 230.436 115.258C231.984 114.717 233.643 114.571 235.262 114.835C238.507 115.416 241.44 117.131 243.538 119.673C243.316 114.571 242.147 109.428 243.065 104.381C243.983 99.3353 248.004 94.3308 253.109 94.5671C256.572 94.72 259.48 97.1945 261.691 99.8635C266.288 105.458 269.069 112.319 269.662 119.534C270.911 117.65 272.414 115.948 274.127 114.474C274.986 113.736 275.987 113.183 277.069 112.848C278.151 112.513 279.289 112.404 280.415 112.528C284.073 113.125 286.41 116.865 287.301 120.465C288.258 124.337 288.124 128.398 286.911 132.198C284.908 138.439 280.234 143.388 275.685 148.115C276.764 147.734 277.946 147.765 279.003 148.201C280.061 148.637 280.92 149.448 281.417 150.478C282.808 153.258 281.417 156.469 279.566 158.68C277.899 160.491 275.89 161.955 273.654 162.989C261.344 169.161 246.362 168.271 233.94 162.906C229.496 160.939 225.866 157.503 223.66 153.175C222.221 150.49 221.439 147.503 221.379 144.459Z" fill="#4F8700"/>
<path d="M260.912 170.371C261.483 169.703 263.18 169.439 263.152 170.649C263.653 166.895 268.563 168.313 266.268 171.914C270.052 167.993 273.39 172.998 268.508 175.236C272.681 175.319 270.344 181.241 266.699 178.656C267.04 178.796 267.312 179.066 267.454 179.406C267.596 179.746 267.597 180.129 267.457 180.47C267.317 180.811 267.047 181.082 266.707 181.224C266.366 181.366 265.983 181.368 265.642 181.227C261.427 180.546 257.101 173.804 260.912 170.371Z" fill="#589600"/>
<path d="M268.286 159.277C268.67 158.287 268.818 157.221 268.717 156.163C268.657 155.637 268.47 155.133 268.172 154.694C267.874 154.256 267.474 153.897 267.006 153.647C266.739 153.494 266.437 153.413 266.13 153.413C265.822 153.413 265.52 153.494 265.253 153.647C266.852 152.665 268.226 151.357 269.287 149.811C269.801 149.018 270.122 148.116 270.226 147.177C270.33 146.239 270.213 145.289 269.885 144.403C269.498 143.588 268.913 142.881 268.185 142.348C267.457 141.814 266.607 141.469 265.712 141.345C263.889 141.132 262.049 141.576 260.524 142.596C261.47 139.913 262.916 137.369 263.222 134.547C263.528 131.725 262.193 128.403 259.411 127.708C258.462 127.553 257.491 127.597 256.559 127.836C255.628 128.075 254.756 128.505 254 129.098C250.657 131.336 248.08 134.542 246.613 138.286C246.252 137.085 245.728 135.94 245.055 134.881C244.717 134.352 244.273 133.899 243.751 133.55C243.229 133.2 242.641 132.963 242.023 132.851C239.978 132.587 238.142 134.241 237.084 135.965C235.955 137.869 235.377 140.049 235.415 142.262C235.415 145.904 237.182 149.213 238.851 152.521C238.336 152.146 237.701 151.974 237.067 152.038C236.433 152.103 235.845 152.398 235.415 152.869C234.918 153.531 234.622 154.322 234.563 155.148C234.503 155.974 234.683 156.8 235.081 157.526C235.684 158.755 236.52 159.855 237.544 160.765C243.108 166.006 251.218 167.924 258.687 167.048C261.341 166.707 263.796 165.465 265.643 163.531C266.847 162.341 267.752 160.883 268.286 159.277Z" fill="#A2DA52"/>
<path d="M282.238 146.488C281.818 147.382 281.715 148.392 281.946 149.352C282.884 149.031 283.688 148.404 284.227 147.572C284.639 146.676 284.737 145.667 284.505 144.709C283.568 145.025 282.768 145.653 282.238 146.488Z" fill="#589600"/>
<path d="M286.467 149.185C285.102 149.214 283.788 149.704 282.739 150.575C283.686 151.549 284.937 152.172 286.286 152.341C287.651 152.318 288.967 151.827 290.014 150.951C289.065 149.978 287.815 149.356 286.467 149.185Z" fill="#589600"/>
<path d="M242.412 175.097C242.884 174.863 243.261 174.476 243.483 173.999C242.984 173.822 242.439 173.822 241.939 173.999C241.472 174.238 241.096 174.624 240.868 175.097C241.368 175.274 241.913 175.274 242.412 175.097Z" fill="#589600"/>
<path d="M241.536 172.567C242.109 173.008 242.815 173.244 243.539 173.234C243.464 172.513 243.151 171.838 242.649 171.316C242.075 170.874 241.37 170.639 240.646 170.648C240.713 171.371 241.027 172.049 241.536 172.567Z" fill="#589600"/>
<path d="M242.634 130.557C243.369 131.215 244.307 131.602 245.291 131.656C245.31 131.16 245.228 130.667 245.05 130.204C244.872 129.741 244.602 129.32 244.256 128.965C243.91 128.61 243.495 128.329 243.037 128.139C242.579 127.949 242.087 127.855 241.591 127.861C241.622 128.852 241.99 129.803 242.634 130.557Z" fill="#A2DA52"/>
<path d="M267.326 138.857C266.719 139.151 266.229 139.64 265.935 140.247C266.574 140.501 267.28 140.53 267.938 140.33C268.544 140.035 269.034 139.546 269.329 138.94C268.691 138.683 267.983 138.653 267.326 138.857Z" fill="#A2DA52"/>
<path d="M246.445 127.291C246.064 128.592 246.137 129.985 246.654 131.239C247.279 130.969 247.843 130.576 248.312 130.082C248.78 129.588 249.143 129.004 249.379 128.366C249.614 127.727 249.717 127.048 249.682 126.368C249.646 125.689 249.473 125.024 249.172 124.413C247.961 125.034 247 126.049 246.445 127.291Z" fill="#A2DA52"/>
<path d="M263.361 179.003C263.721 179.045 264.085 179.045 264.446 179.003C264.98 178.964 265.479 178.72 265.837 178.322C265.982 178.147 266.082 177.939 266.128 177.716C266.175 177.493 266.165 177.262 266.101 177.043C265.878 176.431 265.086 176.584 264.71 176.126C264.62 175.99 264.559 175.837 264.53 175.677C264.502 175.517 264.506 175.353 264.543 175.194C264.605 174.878 264.605 174.552 264.543 174.235C264.516 174.078 264.431 173.937 264.305 173.839C264.179 173.741 264.02 173.694 263.861 173.707C263.611 173.707 263.472 173.985 263.319 174.152C263.276 174.208 263.221 174.254 263.159 174.288C263.097 174.321 263.028 174.341 262.957 174.346C262.359 174.346 262.22 173.443 261.566 173.554C260.912 173.665 260.551 174.36 260.37 174.944C260.202 175.435 260.162 175.961 260.254 176.472C260.347 176.983 260.569 177.462 260.898 177.863C261.546 178.54 262.425 178.947 263.361 179.003Z" fill="#A2DA52"/>
<path d="M1.30214 30.4268L147.348 27.9246L231.938 109.261H166.92H-15.6825H-80.6861L1.30214 30.4268Z" fill="#1C75BB"/>
<path d="M-73.4665 109.261H21.4307V194.086H-73.4665V109.261Z" fill="white"/>
<path d="M11.0534 109.261H21.4307V194.086H11.0534V109.261Z" fill="#28A8DF"/>
<path d="M-63.0753 121.536H11.0674V122.578H-63.0753V121.536Z" fill="#E1ECEF"/>
<path d="M-63.0753 133.49H11.0674V134.533H-63.0753V133.49Z" fill="#E1ECEF"/>
<path d="M-63.0753 145.446H11.0674V146.488H-63.0753V145.446Z" fill="#E1ECEF"/>
<path d="M-63.0753 157.387H11.0674V158.429H-63.0753V157.387Z" fill="#E1ECEF"/>
<path d="M-63.0753 169.342H11.0674V170.384H-63.0753V169.342Z" fill="#E1ECEF"/>
<path d="M-63.0753 181.297H11.0674V182.339H-63.0753V181.297Z" fill="#E1ECEF"/>
<path d="M11.0671 121.536H21.4443V122.578H11.0671V121.536Z" fill="#1C75BB"/>
<path d="M11.0671 133.49H21.4443V134.533H11.0671V133.49Z" fill="#1C75BB"/>
<path d="M11.0671 145.446H21.4443V146.488H11.0671V145.446Z" fill="#1C75BB"/>
<path d="M11.0671 157.387H21.4443V158.429H11.0671V157.387Z" fill="#1C75BB"/>
<path d="M11.0671 169.342H21.4443V170.384H11.0671V169.342Z" fill="#1C75BB"/>
<path d="M11.0671 181.297H21.4443V182.339H11.0671V181.297Z" fill="#1C75BB"/>
<path d="M129.807 109.261H224.704V194.086H129.807V109.261Z" fill="white"/>
<path d="M130.614 121.536H224.704V122.578H130.614V121.536Z" fill="#E1ECEF"/>
<path d="M130.614 133.49H224.704V134.533H130.614V133.49Z" fill="#E1ECEF"/>
<path d="M130.614 145.446H224.704V146.488H130.614V145.446Z" fill="#E1ECEF"/>
<path d="M130.614 157.387H224.704V158.429H130.614V157.387Z" fill="#E1ECEF"/>
<path d="M130.614 169.342H224.704V170.384H130.614V169.342Z" fill="#E1ECEF"/>
<path d="M130.614 181.297H224.704V182.339H130.614V181.297Z" fill="#E1ECEF"/>
<path d="M146.012 126.707H208.498V194.1H146.012V126.707Z" fill="#28A8DF"/>
<path d="M146.012 129.668L208.498 139.802V126.707H146.012V129.668Z" fill="#1C75BB"/>
<path d="M129.807 194.086H133.966L131.365 109.261H129.807V194.086Z" fill="#9BB8CC"/>
<path d="M129.807 110.665L224.704 115.85V109.261H129.807V110.665Z" fill="#9BB8CC"/>
<path d="M11.0674 109.261V115.28L-63.0892 111.235V109.261H11.0674Z" fill="#9BB8CC"/>
<path d="M21.4443 109.261V115.85L11.0671 115.28V109.261H21.4443Z" fill="#1C75BB"/>
<path d="M21.4442 194.086H129.807V62.2051L75.6254 19.9453L21.4442 62.2051V194.086Z" fill="white"/>
<path d="M75.6254 19.9453L129.807 62.2051V71.7691L78.1432 31.8587L21.4442 76.0785V62.2051L75.6254 19.9453Z" fill="#9BB8CC"/>
<path d="M12.8341 63.331L75.6259 16.2476L138.376 63.8037L132.255 69.9202L75.6259 25.756L19.2329 69.7256L12.8341 63.331Z" fill="white"/>
<path d="M-76.4153 194.086H230.95V199.897H-76.4153V194.086Z" fill="white"/>
<path d="M156.32 141.289H198.037V194.086H156.32V141.289Z" fill="white"/>
<path d="M178.743 143.708H195.019V191.153H178.743V143.708Z" fill="#133B53"/>
<path d="M159.491 143.708H175.767V191.153H159.491V143.708Z" fill="#133B53"/>
<path d="M156.32 140.552H198.024H198.441H198.956L199.471 194.086H198.024V141.289H156.32V140.552Z" fill="#1C75BB"/>
<path d="M-55.6339 141.289H3.98633V177.168H-55.6339V141.289Z" fill="white"/>
<path d="M-8.81073 143.708H1.21875V174.36H-8.81073V143.708Z" fill="#133B53"/>
<path d="M-55.6332 140.83H3.98699H4.87726L5.60059 177.182H3.98699V141.289H-55.6332V140.83Z" fill="#9BB8CC"/>
<path d="M3.98699 176.876H-55.6332V177.724L5.60059 180.31V176.876H3.98699Z" fill="#9BB8CC"/>
<path d="M96.3517 143.708H112.627V191.153H96.3517V143.708Z" fill="#133B53"/>
<path d="M77.0998 143.708H93.375V191.153H77.0998V143.708Z" fill="#133B53"/>
<path d="M57.8615 143.708H74.1367V191.153H57.8615V143.708Z" fill="#133B53"/>
<path d="M38.6242 143.708H54.8994V191.153H38.6242V143.708Z" fill="#133B53"/>
<path d="M36.7177 140.83H116.564L117.802 194.086H115.298V141.289H36.7177V140.83Z" fill="#9BB8CC"/>
<path d="M77.0998 63.053H93.375V110.498H77.0998V63.053Z" fill="#133B53"/>
<path d="M57.8615 63.053H74.1367V110.498H57.8615V63.053Z" fill="#133B53"/>
<path d="M55.2331 60.1755H97.1731L98.4111 113.431H95.9073V60.6343H55.2331V60.1755Z" fill="#9BB8CC"/>
<path d="M33.0038 113.083H118.247V117.462H33.0038V113.083Z" fill="#133B53"/>
<path d="M33.0044 117.462H118.248V113.083L121.517 117.462V121.577L33.0044 118.435V117.462Z" fill="#9BB8CC"/>
<path d="M113.142 101.156H114.52V113.084H113.142V101.156Z" fill="#BDBDBD"/>
<path d="M66.9598 101.156H68.3369V113.084H66.9598V101.156Z" fill="#BDBDBD"/>
<path d="M82.3582 101.156H83.7354V113.084H82.3582V101.156Z" fill="#BDBDBD"/>
<path d="M51.574 101.156H52.9512V113.084H51.574V101.156Z" fill="#BDBDBD"/>
<path d="M97.743 101.156H99.1201V113.084H97.743V101.156Z" fill="#BDBDBD"/>
<path d="M36.1756 101.156H37.5527V113.084H36.1756V101.156Z" fill="#BDBDBD"/>
<path d="M113.142 101.156H114.52V102.282H113.142V101.156Z" fill="#4A938C"/>
<path d="M66.9598 101.156H68.3369V102.282H66.9598V101.156Z" fill="#4A938C"/>
<path d="M82.3582 101.156H83.7354V102.282H82.3582V101.156Z" fill="#4A938C"/>
<path d="M51.574 101.156H52.9512V102.282H51.574V101.156Z" fill="#4A938C"/>
<path d="M97.743 101.156H99.1201V102.282H97.743V101.156Z" fill="#4A938C"/>
<path d="M36.1756 101.156H37.5527V102.282H36.1756V101.156Z" fill="#4A938C"/>
<path d="M34.9237 101.156H116.411V98.1396L34.9237 98.8347V101.156Z" fill="#BDBDBD"/>
<path d="M226.943 187.831H274.322V189.666H226.943V187.831Z" fill="#B6CCD8"/>
<path d="M226.943 195.281H274.322V197.116H226.943V195.281Z" fill="#B6CCD8"/>
<path d="M269.301 199.73H272.528C272.62 199.73 272.709 199.693 272.774 199.628C272.839 199.563 272.876 199.475 272.876 199.382V185.662C272.897 185.594 272.897 185.521 272.876 185.453L271.262 183.521C271.23 183.478 271.188 183.443 271.139 183.419C271.091 183.395 271.038 183.382 270.984 183.382C270.93 183.382 270.877 183.395 270.828 183.419C270.78 183.443 270.738 183.478 270.706 183.521L269.092 185.453C269.047 185.514 269.022 185.587 269.022 185.662V199.382C269.021 199.464 269.048 199.543 269.099 199.607C269.149 199.67 269.221 199.714 269.301 199.73Z" fill="white"/>
<path d="M262.596 199.73H265.809C265.903 199.73 265.993 199.694 266.06 199.629C266.127 199.564 266.167 199.476 266.171 199.383V185.662C266.172 185.623 266.165 185.585 266.151 185.549C266.137 185.513 266.115 185.481 266.087 185.453L264.488 183.521C264.454 183.478 264.41 183.443 264.361 183.419C264.312 183.395 264.257 183.382 264.202 183.382C264.147 183.382 264.093 183.395 264.044 183.419C263.994 183.443 263.951 183.478 263.917 183.521L262.304 185.453C262.282 185.521 262.282 185.594 262.304 185.662V199.383C262.303 199.466 262.331 199.547 262.385 199.611C262.439 199.674 262.513 199.717 262.596 199.73Z" fill="white"/>
<path d="M255.877 199.73H259.09C259.184 199.73 259.274 199.694 259.341 199.629C259.409 199.564 259.448 199.476 259.452 199.383V185.662C259.453 185.623 259.447 185.585 259.432 185.549C259.418 185.513 259.396 185.481 259.369 185.453L257.769 183.521C257.735 183.478 257.692 183.443 257.642 183.419C257.593 183.395 257.539 183.382 257.484 183.382C257.429 183.382 257.374 183.395 257.325 183.419C257.276 183.443 257.232 183.478 257.198 183.521L255.599 185.453C255.571 185.481 255.549 185.513 255.535 185.549C255.521 185.585 255.514 185.623 255.515 185.662V199.383C255.519 199.476 255.559 199.564 255.626 199.629C255.693 199.694 255.783 199.73 255.877 199.73Z" fill="white"/>
<path d="M249.158 199.73H252.372C252.465 199.73 252.555 199.694 252.623 199.629C252.69 199.564 252.73 199.476 252.733 199.383V185.662C252.733 185.587 252.709 185.514 252.664 185.453L251.064 183.521C251.03 183.478 250.987 183.443 250.938 183.419C250.888 183.395 250.834 183.382 250.779 183.382C250.724 183.382 250.67 183.395 250.62 183.419C250.571 183.443 250.528 183.478 250.494 183.521L248.894 185.453C248.866 185.481 248.845 185.513 248.83 185.549C248.816 185.585 248.809 185.623 248.811 185.662V199.383C248.814 199.474 248.852 199.56 248.916 199.624C248.981 199.689 249.067 199.727 249.158 199.73Z" fill="white"/>
<path d="M242.44 199.73H245.653C245.7 199.732 245.747 199.724 245.79 199.708C245.834 199.691 245.874 199.666 245.908 199.633C245.942 199.601 245.969 199.562 245.987 199.519C246.005 199.476 246.015 199.429 246.015 199.383V185.662C246.015 185.587 245.99 185.514 245.945 185.453L244.331 183.521C244.298 183.478 244.254 183.443 244.205 183.419C244.156 183.395 244.101 183.382 244.046 183.382C243.991 183.382 243.937 183.395 243.888 183.419C243.838 183.443 243.795 183.478 243.761 183.521L242.161 185.453C242.136 185.482 242.117 185.515 242.105 185.551C242.093 185.586 242.089 185.624 242.092 185.662V199.383C242.092 199.475 242.129 199.563 242.194 199.628C242.259 199.693 242.347 199.73 242.44 199.73Z" fill="white"/>
<path d="M235.763 199.73H238.949C239.041 199.73 239.129 199.693 239.195 199.628C239.26 199.563 239.296 199.475 239.296 199.382V185.662C239.318 185.594 239.318 185.521 239.296 185.453L237.683 183.521C237.65 183.478 237.608 183.443 237.56 183.419C237.512 183.395 237.459 183.382 237.405 183.382C237.351 183.382 237.297 183.395 237.249 183.419C237.201 183.443 237.159 183.478 237.126 183.521L235.513 185.453C235.468 185.514 235.443 185.587 235.443 185.662V199.382C235.443 199.47 235.476 199.554 235.535 199.619C235.594 199.683 235.676 199.723 235.763 199.73Z" fill="white"/>
<path d="M229.017 199.73H232.23C232.324 199.73 232.413 199.694 232.481 199.629C232.548 199.564 232.588 199.476 232.592 199.383V185.662C232.593 185.623 232.586 185.585 232.572 185.549C232.558 185.513 232.536 185.481 232.508 185.453L230.908 183.521C230.875 183.478 230.831 183.443 230.782 183.419C230.733 183.395 230.678 183.382 230.623 183.382C230.568 183.382 230.514 183.395 230.465 183.419C230.415 183.443 230.372 183.478 230.338 183.521L228.725 185.453C228.703 185.521 228.703 185.594 228.725 185.662V199.383C228.723 199.466 228.752 199.547 228.806 199.611C228.86 199.674 228.934 199.717 229.017 199.73Z" fill="white"/>
<path d="M231.033 20.1817H158.991C159.339 18.9028 161.231 14.5517 170.87 16.2199C170.061 15.5583 169.437 14.6982 169.059 13.7237C168.681 12.7492 168.562 11.6934 168.714 10.6594C168.82 10.0367 169.111 9.46018 169.549 9.00514C169.949 8.62895 170.422 8.34016 170.94 8.15717C174.738 6.76704 181.387 12.0217 181.387 12.0217C173.249 -0.767426 195.45 -6.1333 195.603 10.0477C195.603 10.0477 198.858 4.23702 202.419 5.87736C203.81 6.69754 202.976 9.18586 202.322 10.2841C212.727 5.23791 222.186 8.33788 217.777 14.093C228.07 14.2737 231.033 20.1817 231.033 20.1817Z" fill="white"/>
</svg>
