<svg width="20" height="19" fill="none" xmlns="http://www.w3.org/2000/svg"><path d="M16.756.277H2.61C1.168.277 0 1.405 0 2.797v13.659c0 1.392 1.168 2.52 2.61 2.52h6.977l.011-6.682H7.801a.417.417 0 01-.425-.408l-.008-2.154a.417.417 0 01.424-.411h1.795V7.239c0-2.415 1.527-3.73 3.759-3.73h1.83c.235 0 .425.183.425.41v1.816c0 .226-.19.41-.424.41h-1.124c-1.213 0-1.448.557-1.448 1.374V9.32h2.666c.254 0 .451.214.421.457l-.264 2.154a.42.42 0 01-.421.362h-2.39l-.012 6.682h4.151c1.441 0 2.61-1.128 2.61-2.52V2.796c0-1.391-1.169-2.52-2.61-2.52z" fill="#475993"/></svg>