<svg width="21" height="20" fill="none" xmlns="http://www.w3.org/2000/svg"><path d="M2.047 1.59C.51 3.13.826 4.766.826 9.736c0 4.127-.746 8.264 3.157 9.238 1.218.303 12.017.303 13.234-.001 1.625-.405 2.947-1.678 3.128-3.897.025-.31.025-10.365 0-10.68-.193-2.365-1.7-3.727-3.685-4.003-.456-.063-.547-.082-2.882-.086C5.496.31 3.681-.045 2.047 1.59z" fill="url(#paint0_linear)"/><path d="M10.681 2.774c-2.956 0-5.763-.254-6.835 2.403-.443 1.098-.379 2.523-.379 4.564 0 1.79-.06 3.474.379 4.562 1.07 2.659 3.9 2.404 6.834 2.404 2.83 0 5.749.285 6.834-2.404.444-1.108.379-2.512.379-4.562 0-2.722.155-4.479-1.212-5.798-1.384-1.336-3.256-1.169-6.003-1.169h.003zm-.646 1.256c6.166-.01 6.95-.672 6.518 8.523-.154 3.253-2.719 2.896-5.871 2.896-5.748 0-5.913-.16-5.913-5.711 0-5.617.456-5.705 5.266-5.71v.002zm4.497 1.156c-.478 0-.866.374-.866.836 0 .461.388.835.866.835s.865-.374.865-.835c0-.462-.387-.836-.865-.836zm-3.85.977c-2.047 0-3.705 1.602-3.705 3.578 0 1.975 1.658 3.577 3.704 3.577 2.046 0 3.704-1.602 3.704-3.577 0-1.976-1.658-3.578-3.704-3.578zm0 1.256c3.178 0 3.182 4.644 0 4.644-3.18 0-3.184-4.644 0-4.644z" fill="#fff"/><defs><linearGradient id="paint0_linear" x1="2.084" y1="17.968" x2="19.696" y2="2.182" gradientUnits="userSpaceOnUse"><stop stop-color="#FD5"/><stop offset=".5" stop-color="#FF543E"/><stop offset="1" stop-color="#C837AB"/></linearGradient></defs></svg>