<svg width="21" height="20" fill="none" xmlns="http://www.w3.org/2000/svg"><path d="M18.404.277H2.4C1.424.277.633 1.04.633 1.983v15.453c0 .943.791 1.707 1.767 1.707h16.004c.977 0 1.768-.764 1.768-1.707V1.983c0-.942-.791-1.706-1.768-1.706zM6.68 16.567c0 .274-.23.497-.514.497h-2.19a.506.506 0 01-.514-.497V7.705c0-.275.23-.497.514-.497h2.19c.284 0 .514.222.514.497v8.862zM5.069 6.373c-1.148 0-2.08-.9-2.08-2.009s.932-2.008 2.08-2.008c1.15 0 2.08.9 2.08 2.008 0 1.11-.93 2.009-2.08 2.009zm13.052 10.234a.465.465 0 01-.473.457h-2.35a.465.465 0 01-.472-.457V12.45c0-.62.188-2.717-1.678-2.717-1.448 0-1.742 1.435-1.801 2.08v4.794a.465.465 0 01-.473.457H8.602a.465.465 0 01-.473-.457V7.665c0-.252.211-.457.473-.457h2.272c.261 0 .473.205.473.457v.773c.537-.778 1.335-1.379 3.034-1.379 3.762 0 3.74 3.394 3.74 5.259v4.29z" fill="#0077B7"/></svg>