<svg width="24" height="17" fill="none" xmlns="http://www.w3.org/2000/svg"><path d="M23.516 2.706c-.271-.972-1.065-1.738-2.071-2C19.605.22 12.248.22 12.248.22s-7.356 0-9.196.467c-.987.262-1.8 1.047-2.071 2.02C.497 4.481.497 8.163.497 8.163s0 3.702.484 5.459c.271.972 1.065 1.738 2.072 2 1.858.486 9.196.486 9.196.486s7.356 0 9.196-.467c1.006-.262 1.8-1.028 2.071-2C24 11.866 24 8.183 24 8.183s.02-3.701-.484-5.477z" fill="red"/><path d="M9.906 11.567l6.117-3.402-6.117-3.403v6.805z" fill="#fff"/></svg>