<svg width="189" height="183" fill="none" xmlns="http://www.w3.org/2000/svg"><path d="M106.674 181.334c-7.375-3.493-10.32-11.793-11.36-19.528-.176-1.284-.544-2.619-.125-3.852.42-1.233 1.713-2.243 2.954-1.896 1.031.286 1.635 1.327 2.324 2.14a7.611 7.611 0 003.497 2.367c.886.287 1.944.372 2.676-.205 1.001-.801.856-2.355.65-3.626l-1.254-7.131a12.085 12.085 0 01-.252-3.853c.192-1.284.877-2.568 2.033-3.099 1.155-.531 2.778-.103 3.244 1.105.14.52.243 1.049.309 1.583.124.527.47 1.07.997 1.13.526.06.984-.385 1.305-.821 1.101-1.511 1.713-3.322 2.269-5.116.557-1.793 1.079-3.621 2.038-5.23.958-1.61 2.422-2.997 4.233-3.425 1.811-.428 3.951.385 4.709 2.106.757 1.721.025 3.724-.857 5.372a28.976 28.976 0 01-4.978 6.661 2.377 2.377 0 00-.804 1.258c-.137.899.813 1.605 1.712 1.742 1.001.159 2.02-.115 3.035-.167 1.014-.051 2.17.206 2.705 1.083.74 1.216-.12 2.77-1.04 3.853a24.602 24.602 0 01-6.52 5.393c-.881.505-1.819.972-2.465 1.759-.646.788-.908 2.016-.3 2.838.608.822 1.837.912 2.787.561s1.742-1.032 2.624-1.545c1.639-.959 3.925-1.22 5.308.107a4.091 4.091 0 011.031 3.501 9.387 9.387 0 01-1.4 3.48 24.884 24.884 0 01-9.237 9.139c-3.852 2.102-7.538 3.121-11.831 2.324" fill="#F5F5F5"/><path d="M107.843 176.18a115.562 115.562 0 012.457-13.085l.822-3.399c.269-1.113.539-2.217.856-3.283a57.432 57.432 0 012.247-5.993 125.45 125.45 0 012.436-5.26 79.69 79.69 0 012.328-4.482 46.34 46.34 0 015.321-7.589l.338-.386c.081-.085.12-.128.124-.128a.706.706 0 01-.103.145c-.081.099-.188.232-.321.403-.287.351-.706.856-1.228 1.554a49.103 49.103 0 00-3.985 6.086 86.693 86.693 0 00-2.299 4.486 129.368 129.368 0 00-2.41 5.257 58.303 58.303 0 00-2.226 5.993c-.329 1.057-.595 2.14-.856 3.27l-.822 3.394a120.071 120.071 0 00-2.469 13.056" fill="#E0E0E0"/><path d="M112.058 156.392a2.26 2.26 0 01-.218-.523c-.124-.342-.291-.856-.488-1.459-.398-1.242-.886-2.997-1.417-4.884-.531-1.888-1.04-3.634-1.455-4.867-.206-.617-.377-1.113-.497-1.456a3.058 3.058 0 01-.167-.539c.107.157.191.326.253.505.15.334.347.822.569 1.434.458 1.22.998 2.941 1.528 4.854.531 1.914.985 3.596 1.344 4.901.167.591.309 1.083.429 1.481.061.179.101.364.119.553z" fill="#E0E0E0"/><path d="M127.952 150.549c-.207.083-.42.146-.638.188a56.86 56.86 0 00-1.755.48 84.152 84.152 0 00-5.689 1.874 90.243 90.243 0 00-5.565 2.273c-.702.313-1.262.582-1.652.762-.193.111-.399.2-.612.266.18-.133.372-.249.574-.347.372-.21.924-.501 1.618-.856 1.382-.681 3.334-1.528 5.534-2.346a59.292 59.292 0 015.732-1.815 28.992 28.992 0 011.776-.402c.223-.047.449-.072.677-.077zm-19.96 25.293a.97.97 0 01-.145-.18l-.381-.548a61.394 61.394 0 01-1.34-2.05c-1.113-1.746-2.568-4.208-4.139-6.943-1.571-2.735-2.997-5.209-4.08-6.977l-1.284-2.089-.342-.569a1.023 1.023 0 01-.107-.21s.055.06.145.184.231.325.381.544c.33.475.788 1.177 1.344 2.05 1.109 1.746 2.569 4.208 4.14 6.947 1.571 2.74 2.996 5.205 4.075 6.973l1.284 2.089c.137.231.252.428.346.574a.821.821 0 01.103.205zm20.624-10.718s-.064.051-.201.124l-.595.321-2.209 1.151c-1.866.972-4.422 2.346-7.247 3.853-2.825 1.507-5.402 2.872-7.277 3.809-.946.467-1.712.857-2.243 1.083l-.62.279a.89.89 0 01-.223.081.989.989 0 01.201-.124l.599-.321 2.209-1.152c1.862-.971 4.422-2.345 7.247-3.852 2.825-1.507 5.402-2.872 7.277-3.81a118.28 118.28 0 012.243-1.083l.616-.278a.876.876 0 01.223-.081z" fill="#E0E0E0"/><path d="M53.15 89.458s-5.084.706-2.23 11.844c2.856 11.138 5.279 16.882 5.279 16.882s.38 2.521-1.653 2.444c-2.033-.077-6.18-1.712-7.585.467-1.46 2.273-.184 5.017 2.997 7.889 3.18 2.872 9.948 9.417 10.555 10.008.608.59 1.053 1.819-.342 1.99-1.395.171-11.292-.993-11.557 3.737-.266 4.73 9.93 11.266 11.03 11.985 1.1.719 1.285 1.314 1.028 1.952-.257.638-3.536-.064-6.365-.278-2.83-.214-6.147.03-6.074 2.774.072 2.743 5.427 9.673 21.055 14.823l7.397 1.913 5.466-5.385c11-12.233 12.204-20.91 10.907-23.324-1.297-2.414-4.28-.984-6.652.612-2.372 1.597-4.854 3.853-5.385 3.403-.53-.449-.668-1.019-.077-2.204.59-1.186 6.194-11.926 3.608-15.898-2.585-3.972-10.598 1.956-11.895 2.504-1.297.548-1.511-.753-1.284-1.554.227-.8 2.846-9.845 4.186-13.937 1.34-4.092 1.087-7.088-1.31-8.338-2.311-1.207-5.09 2.285-6.818 3.364-1.73 1.079-2.646-1.284-2.646-1.284s-.749-6.185-3.81-17.267c-3.06-11.083-7.931-9.1-7.931-9.1" fill="#EBEBEB"/><path d="M76.68 179.746c-2.213-8.133-5.902-22.687-9.138-35.177-3.237-12.49-6.169-23.748-8.339-31.924a1467.499 1467.499 0 01-2.568-9.661c-.3-1.134-.535-2.016-.698-2.628a29.429 29.429 0 01-.23-.92s.029.077.076.23c.047.155.116.386.201.677.172.608.428 1.49.74 2.615a977.72 977.72 0 012.655 9.644c2.217 8.133 5.18 19.434 8.41 31.907 3.233 12.473 6.897 27.035 9.071 35.194" fill="#E0E0E0"/><path d="M52.65 123.637c.17.07.334.157.487.261.304.18.74.454 1.285.797 1.065.689 2.517 1.673 4.096 2.795l4.036 2.876 1.225.856c.154.096.297.208.428.334a2.104 2.104 0 01-.488-.257c-.309-.179-.74-.453-1.284-.804-1.058-.698-2.496-1.713-4.075-2.821l-4.054-2.847-1.233-.856a2.538 2.538 0 01-.424-.334zm12.195 7.568c-.056-.038 1.85-3.116 4.25-6.879 2.402-3.762 4.4-6.78 4.456-6.746.056.035-1.849 3.112-4.254 6.875-2.406 3.762-4.396 6.784-4.452 6.75zm4.1 19.378c.126-.147.27-.278.428-.39l1.152-1.01a121.87 121.87 0 003.74-3.398 120.638 120.638 0 003.588-3.566l1.066-1.1a2.95 2.95 0 01.428-.385 2.7 2.7 0 01-.347.449 42.24 42.24 0 01-1.01 1.152c-.856.963-2.11 2.26-3.549 3.621a73.99 73.99 0 01-3.792 3.356 41.64 41.64 0 01-1.207.95 2.34 2.34 0 01-.497.321zm-12.52-4.418c.173.018.343.058.505.12l1.357.428c1.138.364 2.71.882 4.439 1.469 1.729.586 3.291 1.13 4.417 1.532l1.331.492c.167.049.327.119.475.21a2.143 2.143 0 01-.505-.124l-1.352-.428a307.233 307.233 0 01-4.443-1.464c-1.73-.582-3.292-1.13-4.418-1.537l-1.331-.488a2.297 2.297 0 01-.475-.21zm1.447 17.568c.22.035.436.09.646.162l1.738.531a522.998 522.998 0 0111.39 3.737l1.713.603c.215.064.422.148.62.253a3.79 3.79 0 01-.646-.163l-1.738-.522a518.96 518.96 0 01-11.39-3.737l-1.712-.603a3.31 3.31 0 01-.62-.261zm15.752 5.051a3.85 3.85 0 01.5-.51l1.418-1.331a200.368 200.368 0 004.605-4.469 232.903 232.903 0 004.452-4.618l1.327-1.422a4.61 4.61 0 01.51-.505c-.127.201-.27.39-.429.565a43.69 43.69 0 01-1.284 1.473 113.02 113.02 0 01-4.404 4.678 105.409 105.409 0 01-6.13 5.702 4.08 4.08 0 01-.565.437z" fill="#E0E0E0"/><path d="M31.063 23.038l-4.177-1.306s-1.092 3.506-4.76 2.431a3.54 3.54 0 01-2.599-3.176 3.926 3.926 0 011.353-3.291c1.075-.946 2.958-1.524 5.616-.15l2.94-9.417-4.13-1.284-1.712 5.517s-6.27-.317-8.261 6.07c-1.905 6.108 3.129 9.233 5.474 9.965 1.794.56 8.035 2.033 10.256-5.36zM25.86 4.88l4.192 1.309 1.221-3.915L27.081.966 25.859 4.88z" fill="#F5F5F5"/><path d="M42.596 12.4l1.67-.427a1.474 1.474 0 011.082-1.815 1.4 1.4 0 011.541.518 1.554 1.554 0 01.235 1.386c-.158.544-.667 1.13-1.849 1.233l.998 3.771 1.652-.428-.582-2.23a3.338 3.338 0 001.485-3.77c-.642-2.445-2.996-2.436-3.925-2.188-.72.188-3.12 1.01-2.307 3.95zm5.787 4.801l-1.686.452.422 1.574 1.686-.452-.422-1.574zm132.386 38.522l1.626.591a1.478 1.478 0 011.926-.878 1.403 1.403 0 01.968 1.285 1.54 1.54 0 01-.591 1.284c-.428.355-1.194.552-2.222-.039l-1.331 3.669 1.61.582.779-2.14a3.346 3.346 0 003.368-2.252c.857-2.38-1.07-3.707-1.986-4.036-.697-.253-3.137-.946-4.147 1.934zm1.743 7.254l-1.634-.592-.553 1.525 1.634.592.553-1.525z" fill="#EBEBEB"/><path d="M8.133 74.356l3.425-1.327s-1.113-2.889 1.87-4.1a2.996 2.996 0 013.382.74 3.308 3.308 0 01.83 2.88c-.214 1.19-1.155 2.57-3.634 3.04l2.997 7.765 3.402-1.314-1.75-4.546s4.28-3.073 2.268-8.334c-1.939-5.034-6.904-4.465-8.834-3.72-1.452.59-6.348 2.868-3.956 8.916zm12.959 9.27l-3.455 1.33 1.243 3.228 3.455-1.331-1.243-3.227zm161.016 3.807l-2.44.942s.792 2.05-1.323 2.906a2.11 2.11 0 01-2.397-.526 2.35 2.35 0 01-.59-2.042c.154-.856.821-1.81 2.568-2.14l-2.119-5.5-2.414.928 1.241 3.223a5.052 5.052 0 00-1.609 5.903c1.374 3.57 4.892 3.163 6.262 2.637 1.057-.437 4.525-2.05 2.821-6.33zm-9.169-6.583l2.449-.944-.881-2.285-2.448.944.88 2.284z" fill="#F5F5F5"/><path d="M189 182.07c0 .06-42.312.111-94.496.111-52.183 0-94.504-.051-94.504-.111 0-.06 42.304-.111 94.504-.111 52.201 0 94.496.047 94.496.111z" fill="#000"/><path d="M27.142 170.954c.428-1.575-.625-3.155-1.784-4.281-1.16-1.125-2.539-2.166-3.142-3.677-.976-2.444.338-5.611-1.327-7.653-.98-1.203-2.736-1.605-3.604-2.885a6.629 6.629 0 01-.784-2.295 23.257 23.257 0 00-5.8-10.851 20.234 20.234 0 002.273 10.441c.676 1.284 1.502 2.538 1.712 3.968.364 2.328-.933 4.708-.364 7.007.655 2.611 3.588 4.357 3.729 7.045.115 2.273-1.867 4.281-1.712 6.541a6.083 6.083 0 001.01 2.697c1.759 2.919 4.34 4.935 8.253 4.867l4.794.166-3.254-11.09z" fill="#8CBF43"/><path opacity=".3" d="M27.142 170.954c.428-1.575-.625-3.155-1.784-4.281-1.16-1.125-2.539-2.166-3.142-3.677-.976-2.444.338-5.611-1.327-7.653-.98-1.203-2.736-1.605-3.604-2.885a6.629 6.629 0 01-.784-2.295 23.257 23.257 0 00-5.8-10.851 20.234 20.234 0 002.273 10.441c.676 1.284 1.502 2.538 1.712 3.968.364 2.328-.933 4.708-.364 7.007.655 2.611 3.588 4.357 3.729 7.045.115 2.273-1.867 4.281-1.712 6.541a6.083 6.083 0 001.01 2.697c1.759 2.919 4.34 4.935 8.253 4.867l4.794.166-3.254-11.09z" fill="#000"/><path d="M31.38 182.173c.439.067.887.057 1.322-.03a7.89 7.89 0 001.559-.39 6.61 6.61 0 001.921-1.057c.349-.279.621-.641.792-1.053.142-.464.219-.945.227-1.43a14.03 14.03 0 01.111-1.553c.094-.547.292-1.07.583-1.541.569-.993 1.506-1.931 1.81-3.279.304-1.349.09-2.761-.132-4.204-.223-1.442-.428-2.996.11-4.503.54-1.506 1.568-2.851 2.094-4.541.526-1.691.278-3.54.39-5.351a7.118 7.118 0 01.624-2.662c.386-.856.925-1.648 1.345-2.543.856-1.806 1.001-3.852 1.232-5.856a569.1 569.1 0 00.347-3.064c.07-1.038.247-2.065.53-3.065a26.852 26.852 0 011.148-2.967c.226-.504.41-1.027.548-1.562.08-.546.132-1.096.154-1.648.053-1.107.01-2.217-.128-3.317-.129-1.105-.33-2.205-.428-3.313v-.411l-.197.098a7.399 7.399 0 00-2.569 2.179 11.723 11.723 0 00-1.583 2.919c-.805 2.059-1.092 4.221-1.494 6.28-.403 2.058-.916 4.083-1.97 5.795-.526.856-1.16 1.631-1.712 2.466a6.729 6.729 0 00-1.19 2.731c-.282 2.029.857 3.809.6 5.603a6.158 6.158 0 01-.856 2.487c-.428.766-.946 1.477-1.434 2.192a13.988 13.988 0 00-1.284 2.213 6.94 6.94 0 00-.681 2.405c-.116 1.618.116 3.151 0 4.597a10.622 10.622 0 01-1.181 3.938c-.583 1.182-1.229 2.248-1.768 3.279-.27.518-.522 1.023-.728 1.528a7.642 7.642 0 00-.428 1.516 9.505 9.505 0 00-.034 2.735 6.912 6.912 0 001.37 3.488c.117.154.248.297.39.429.094.099.198.188.312.265.18.133.273.193.273.193a6.082 6.082 0 01-.924-.921 6.849 6.849 0 01-1.284-3.463 9.445 9.445 0 01.06-2.696 7.56 7.56 0 01.428-1.481c.205-.493.458-.993.732-1.507.543-1.023 1.194-2.085 1.789-3.275a10.833 10.833 0 001.211-4.002c.124-1.477-.098-3.018.022-4.597.055-.801.25-1.587.578-2.32.36-.76.79-1.485 1.284-2.166.483-.711 1.001-1.425 1.447-2.205.487-.787.8-1.67.915-2.589.232-1.914-.856-3.707-.59-5.591a6.515 6.515 0 011.151-2.611c.548-.817 1.186-1.6 1.712-2.474 1.092-1.759 1.619-3.826 2.017-5.894.398-2.067.697-4.208 1.48-6.224.38-1.016.9-1.974 1.546-2.846a7.093 7.093 0 012.47-2.085l-.219-.124v.193c.12 1.121.321 2.221.45 3.313.135 1.084.177 2.178.124 3.27a14.76 14.76 0 01-.146 1.597 9.12 9.12 0 01-.539 1.494 27.298 27.298 0 00-1.151 2.996 15.24 15.24 0 00-.544 3.116c-.111 1.032-.227 2.055-.338 3.065-.227 2.016-.381 4.028-1.199 5.77-.428.856-.941 1.669-1.34 2.547a7.382 7.382 0 00-.642 2.761c-.106 1.849.133 3.655-.363 5.295-.497 1.639-1.546 2.996-2.072 4.537-.527 1.541-.334 3.18-.103 4.614.231 1.434.462 2.847.154 4.122-.308 1.276-1.19 2.218-1.763 3.241-.3.49-.503 1.033-.595 1.601a13.6 13.6 0 00-.103 1.571c0 .47-.068.939-.201 1.391a2.57 2.57 0 01-.745 1.01 6.636 6.636 0 01-1.84 1.066 8.524 8.524 0 01-1.537.428 6.462 6.462 0 01-.972.094c-.24-.021-.355-.017-.355-.017z" fill="#263238"/><path d="M46.524 125.705a.996.996 0 00-.043.145l-.107.428c-.094.377-.205.946-.389 1.661-.184.715-.62 1.511-.993 2.504a35.874 35.874 0 00-1.139 3.399c-.368 1.284-.689 2.697-1.027 4.216-.338 1.52-.702 3.146-1.537 4.683-.394.779-.834 1.567-1.185 2.427a11.24 11.24 0 00-.69 2.753 54.897 54.897 0 01-1.035 5.795c-.96 3.93-1.875 7.671-2.71 11.078l-2.281 9.036c-.634 2.569-1.148 4.632-1.507 6.096-.167.702-.3 1.258-.394 1.66-.038.176-.073.322-.094.429a.655.655 0 00-.026.149s.026-.047.056-.141c.03-.094.073-.257.124-.428.107-.402.261-.95.428-1.648l1.6-6.07c.673-2.542 1.456-5.628 2.334-9.019.877-3.39 1.802-7.139 2.77-11.077a53.56 53.56 0 001.03-5.822c.111-.919.335-1.82.669-2.684.338-.856.774-1.626 1.164-2.41.856-1.566 1.194-3.244 1.532-4.755.338-1.511.638-2.941.99-4.217.35-1.275.718-2.409 1.086-3.394.368-.984.775-1.802.95-2.534.176-.732.262-1.284.334-1.678.029-.177.055-.32.078-.428.012-.098.02-.15.012-.154z" fill="#263238"/><path d="M32.228 182.186c3.129-1.858 4.028-7.508 2.722-10.907-1.305-3.399-3.591-6.506-3.942-10.132-.27-2.786.642-5.646 0-8.368-.856-3.677-4.465-6.524-4.422-10.303 0-2.119 1.229-4.114 1.134-6.233-.12-2.598-2.114-4.657-3.347-6.947-1.892-3.501-2.016-7.645-2.662-11.557-.647-3.912-2.14-8.133-5.625-10.063-.513 3.334-1.391 5.616-1.113 10.136.099 1.622 1.982 4.708 2.239 8.282.154 2.141.257 4.251.39 6.378.132 2.128.26 4.178 1.001 6.113.57 1.485 1.481 2.829 1.905 4.362.792 2.885-.253 5.992.39 8.924.543 2.475 2.255 4.602 2.606 7.11.492 3.523-1.79 7.183-.625 10.547.582 1.665 1.952 2.997 2.342 4.73.303 1.336-.026 2.748.248 4.092.428 2.162 4.567 3.853 6.767 3.707" fill="#8CBF43"/><path d="M16.942 110.976a1.036 1.036 0 000 .188c0 .141.043.321.073.548.068.484.15 1.19.312 2.102.163.911.65 1.956 1.027 3.206.377 1.25.797 2.679 1.148 4.28.35 1.601.659 3.386.971 5.299.313 1.914.655 3.998 1.605 5.993.428 1.002.934 2.003 1.285 3.069.36 1.097.582 2.234.659 3.386.177 2.44.484 4.869.92 7.277l2.701 13.929c.856 4.28 1.665 8.111 2.333 11.347.668 3.236 1.216 5.817 1.596 7.645.193.882.343 1.58.429 2.072.05.227.094.402.124.539a.913.913 0 00.051.18.749.749 0 00-.021-.184c0-.141-.056-.321-.095-.544-.094-.501-.227-1.198-.393-2.089-.356-1.827-.857-4.443-1.499-7.662-.642-3.219-1.365-7.075-2.217-11.356-.852-4.28-1.712-8.989-2.675-13.924A69.359 69.359 0 0124.35 139a14.016 14.016 0 00-.68-3.45c-.381-1.092-.882-2.097-1.319-3.091-.946-1.96-1.284-4.01-1.613-5.915-.33-1.905-.621-3.681-1.01-5.295-.39-1.614-.78-3.048-1.2-4.281-.419-1.232-.885-2.277-1.07-3.176-.183-.899-.282-1.609-.372-2.084l-.102-.544a.793.793 0 00-.043-.188z" fill="#263238"/><path d="M167.902 21.552h-1.713a1.432 1.432 0 01-.917 1.356 1.452 1.452 0 01-.568.1 1.381 1.381 0 01-1.335-.878 1.51 1.51 0 01.124-1.382c.287-.476.92-.908 2.067-.707V16.19h-1.682v2.252a3.294 3.294 0 00-2.363 3.214c0 2.491 2.235 3.073 3.189 3.073.736.01 3.228-.17 3.198-3.176zm-4.042-6.142h1.708v-1.597h-1.708v1.597z" fill="#28A8DF"/><path d="M177.233 19.27a1.91 1.91 0 000-.213c0-.159 0-.368-.022-.634v-.466c0-.171-.051-.36-.081-.56-.03-.202-.06-.429-.094-.651-.034-.223-.116-.471-.18-.728a11.793 11.793 0 00-1.541-3.536 12.66 12.66 0 00-3.557-3.651 12.783 12.783 0 00-5.813-2.072 12.55 12.55 0 00-1.712-.034c-.287 0-.582 0-.856.056l-.878.132c-1.21.222-2.382.621-3.475 1.186a13.349 13.349 0 00-3.125 2.269 12.99 12.99 0 00-2.35 3.274 11.826 11.826 0 00-1.224 3.985 7.928 7.928 0 00-.09 1.066 8.753 8.753 0 000 1.074c.096 2.29.813 4.51 2.076 6.421v-.128c-.594 1.487-1.177 2.942-1.751 4.366l-.107.257.27-.073 4.67-1.284-.116-.022a12.502 12.502 0 005.334 2.329c.9.167 1.817.224 2.731.171.44-.006.88-.048 1.314-.124l.638-.098c.209-.039.428-.103.62-.155a12.501 12.501 0 007.101-4.87 11.912 11.912 0 001.529-2.899c.081-.226.158-.428.235-.655.077-.226.107-.427.154-.62s.099-.385.141-.565c.043-.18.056-.36.082-.522.038-.33.098-.621.111-.857.013-.235 0-.466.021-.642.022-.175 0-.29 0-.393a.589.589 0 000-.133.498.498 0 00-.021.133c0 .102 0 .23-.03.39-.03.157-.026.389-.043.637-.017.248-.081.54-.132.856a12.42 12.42 0 01-9.268 9.94c-.201.046-.402.11-.607.15l-.63.093a9.123 9.123 0 01-1.284.116 11.175 11.175 0 01-2.679-.18 12.242 12.242 0 01-5.218-2.298l-.052-.039h-.064l-4.67 1.284.167.184c.569-1.421 1.156-2.88 1.755-4.366l.03-.068-.043-.06a12.461 12.461 0 01-1.763-4.19 12.983 12.983 0 01-.266-2.107 8.54 8.54 0 01.022-1.049c.004-.348.033-.695.085-1.04.164-1.36.568-2.68 1.195-3.9a12.814 12.814 0 012.29-3.205 13.128 13.128 0 013.056-2.23c1.07-.555 2.215-.95 3.399-1.173l.856-.133c.282-.043.573-.039.856-.06a12.79 12.79 0 011.673.026 12.354 12.354 0 019.259 5.564 11.89 11.89 0 011.567 3.476l.192.72c.039.23.073.427.107.645.035.219.065.386.09.553.026.167.022.325.034.466.022.266.035.475.048.63.004.079.016.158.034.235z" fill="#263238"/><path d="M49.584 69.755h24.72s0-20.756 21.57-21.128c11.206-.193 17.014 7.144 19.373 12.768 2.739 6.528 1.909 13.967-1.759 20.02-4.195 6.913-13.227 13.86-29.886 10.924l-.159 55.076h24.446v-32.647s34.282-8.865 34.282-46.657c0-36.148-29.231-43.96-44.945-44.461-8.745-.278-11.912-.655-22.725.882C60.727 26.5 49.293 42.488 49.584 69.755zm58.601 89.145h-24.81v23.17h24.81V158.9z" fill="#1C75BB"/><path d="M39.346 69.755h24.72s0-20.756 21.57-21.129c11.201-.192 17.01 7.145 19.373 12.77 2.739 6.527 1.909 13.966-1.764 20.019-4.19 6.913-13.38 13.197-30.04 10.273v55.727H97.65v-32.647s34.282-8.865 34.282-46.657c0-36.148-32.416-44.547-46.293-44.547-10.612.013-46.76 2.581-46.294 46.19z" fill="#8CBF43"/><path d="M39.346 69.755h24.72s0-20.756 21.57-21.129c11.201-.192 17.01 7.145 19.373 12.77 2.739 6.527 1.909 13.966-1.764 20.019-4.19 6.913-13.38 13.197-30.04 10.273v55.727H97.65v-32.647s34.282-8.865 34.282-46.657c0-36.148-32.416-44.547-46.293-44.547-10.612.013-46.76 2.581-46.294 46.19z" fill="#2B3A8C"/><path d="M97.945 158.9h-24.81v23.17h24.81V158.9z" fill="#E8505B"/><path d="M97.945 158.9h-24.81v23.17h24.81V158.9z" fill="#2B3A8C"/><path d="M88.426 48.742a2.26 2.26 0 01-.368 0c-.244 0-.595-.081-1.053-.086a21.69 21.69 0 00-3.878.159c-1.905.245-3.78.687-5.595 1.318-1.069.372-2.11.82-3.116 1.34a16.717 16.717 0 00-3.052 1.977c-.933.776-1.77 1.66-2.496 2.633a26.254 26.254 0 00-1.87 2.834 25.25 25.25 0 00-2.213 5.303 21.826 21.826 0 00-.745 3.805c-.051.459-.064.814-.077 1.058 0 .123-.011.246-.034.368a2.462 2.462 0 010-.372c-.007-.353.004-.706.034-1.058.098-1.303.327-2.594.68-3.852a24.657 24.657 0 012.184-5.36 26.077 26.077 0 011.879-2.867 15.292 15.292 0 012.525-2.676 16.568 16.568 0 013.09-1.994 23.376 23.376 0 013.151-1.34c1.83-.63 3.724-1.06 5.646-1.284 1.294-.16 2.6-.19 3.9-.09.353.024.704.065 1.053.124.12.01.238.03.355.06zm37.249-4.413a.586.586 0 01-.081-.099l-.214-.295c-.197-.278-.471-.663-.813-1.156-.18-.248-.364-.535-.591-.83l-.771-.938-.886-1.091c-.321-.373-.697-.736-1.07-1.134-.372-.398-.766-.822-1.202-1.233l-1.383-1.25c-.24-.214-.475-.428-.732-.65l-.796-.63c-.544-.428-1.083-.856-1.67-1.284a53.353 53.353 0 00-8.103-4.781l-2.255-1.023-2.239-.857c-.728-.3-1.473-.517-2.196-.753-.723-.235-1.421-.484-2.14-.65l-2.046-.54c-.664-.175-1.323-.278-1.952-.428-.63-.15-1.237-.274-1.832-.35l-1.712-.245c-1.083-.184-2.076-.222-2.941-.312-.428-.03-.856-.077-1.211-.095l-1.02-.03-1.412-.042h-.368a.586.586 0 01-.124 0h2.928c.377 0 .779.051 1.215.077.857.077 1.867.102 2.95.278l1.712.235c.595.069 1.203.223 1.84.339.638.115 1.285.23 1.961.428l2.055.53c.71.163 1.412.428 2.14.647.728.218 1.468.428 2.204.749l2.248.856 2.268 1.023a52.423 52.423 0 018.133 4.82c.591.428 1.13.886 1.674 1.284l.796.638c.257.214.492.428.732.659l1.378 1.263c.428.428.814.856 1.195 1.245.38.39.744.775 1.065 1.152l.856 1.096.762.95c.219.3.403.59.574.856l.779 1.181.201.308a.564.564 0 01.094.082zm-2.577 53.073a1.15 1.15 0 01-.184.257l-.573.71c-.244.309-.552.681-.933 1.097-.381.415-.788.907-1.285 1.408-.496.501-1.027 1.07-1.63 1.639-.604.57-1.259 1.173-1.957 1.798a58.505 58.505 0 01-4.815 3.733 57.14 57.14 0 01-5.197 3.159c-.83.428-1.613.856-2.371 1.19-.758.333-1.46.667-2.115.941-.654.274-1.249.501-1.772.702-.522.202-.98.36-1.357.48l-.856.282a2.745 2.745 0 01-.308.086 1.72 1.72 0 01.291-.129l.856-.321c.373-.132.826-.299 1.34-.513.514-.214 1.117-.428 1.759-.732.642-.304 1.353-.595 2.093-.963a126.93 126.93 0 002.359-1.203 62.154 62.154 0 005.167-3.163c1.776-1.216 3.377-2.496 4.794-3.703.697-.621 1.369-1.199 1.96-1.776.591-.578 1.152-1.113 1.644-1.614.492-.501.924-.976 1.31-1.383.385-.406.702-.77.959-1.07l.603-.68c.067-.083.14-.16.218-.232zm-25.879 48.074c-.064 0-.112-6.874-.112-15.354 0-8.479.047-15.358.112-15.358.064 0 .111 6.874.111 15.358 0 8.484-.051 15.354-.111 15.354zm.941 35.023c-.06 0-.111-4.824-.111-10.778 0-5.954.051-10.774.111-10.774.06 0 .111 4.824.111 10.774 0 5.95-.05 10.778-.11 10.778z" fill="#263238"/><path d="M122.494 66.459c-.428.856 1.169 1.554 2.089 1.832a8.295 8.295 0 002.872.201c1.285-.069 2.599-.188 3.707-.822a5.903 5.903 0 002.235-2.508 17.38 17.38 0 001.134-3.206s-10.115.676-12.037 4.503z" fill="#8CBF43"/><path opacity=".4" d="M122.494 66.459c-.428.856 1.169 1.554 2.089 1.832a8.295 8.295 0 002.872.201c1.285-.069 2.599-.188 3.707-.822a5.903 5.903 0 002.235-2.508 17.38 17.38 0 001.134-3.206s-10.115.676-12.037 4.503z" fill="#000"/><path d="M151.063 63.728a9.677 9.677 0 005.71 1.793c.971 0 2.003-.2 2.718-.856.329-.3.578-.685.916-.976.231-.197.501-.346.719-.56a.915.915 0 00.312-.81 1.681 1.681 0 00-.59-.945c-1.16-.66-2.547-.638-3.883-.608a13.365 13.365 0 00-3.916.77c-1.036.347-2.119.856-2.646 1.798" fill="#8CBF43"/><path opacity=".4" d="M161.438 62.32a1.756 1.756 0 00-.757-.856c-1.16-.66-2.38-.724-3.716-.694a13.43 13.43 0 00-3.916.77c-1.036.347-2.119.857-2.646 1.798l.66.394a9.677 9.677 0 005.71 1.794c.971 0 2.003-.201 2.718-.856.329-.3.578-.685.916-.976.231-.197.501-.347.719-.561a.903.903 0 00.312-.813z" fill="#000"/><path d="M131.32 79.095l21.339.278a.275.275 0 00.265-.355l-2.504-7.808s.368-3.904.882-8.6c.77-7.122 1.802-16.081 1.815-16.055-1.46-4.093-10.072-4.79-10.072-4.79l-9.815.586-.343-.578-2.825 1.314a13.32 13.32 0 00-1.772.998c-1.866 1.25-6.361 4.109-7.183 7.302-1.892 7.367 1.314 15.62 1.314 15.62l2.064-1.61a14.209 14.209 0 011.635-1.091l4.135 11.078a1.966 1.966 0 00-.899 1.425c-.035.895.428 1.978 1.964 2.286z" fill="#8CBF43"/><path opacity=".3" d="M140.468 66.03c.677-3.638.321-7.379-.038-11.06-1.186 2.996-1.143 6.42-2.397 9.392a3.884 3.884 0 00-.334.988 1.096 1.096 0 00.287.968c.338.308.856.14 1.305.085a4.901 4.901 0 001.177-.372z" fill="#000"/><path opacity=".4" d="M132.61 74.45c1.712.6 3.535-.509 5.346-.706 1.198-.128 2.397.146 3.587.338 2.406.39 4.854.45 7.277.176a2.768 2.768 0 001.07-.274 1.286 1.286 0 00.561-1.062c-4.033-.428-8.061-.663-12.093-1.074a7.628 7.628 0 00-3.022.094c-1.215.377-2.14 1.336-2.996 2.277" fill="#000"/><path d="M160.826 60.894c-1.746-3.92-7.889-14.776-7.889-14.776l-4.755 5.963 1.108 11.707s2.513-2.804 9.537-2.86a3.424 3.424 0 012.611 1.379l-.612-1.413z" fill="#8CBF43"/><path d="M132.267 58.835a15.913 15.913 0 01-.801-2.568 15.867 15.867 0 01-.586-2.62c.336.833.604 1.692.8 2.569.267.855.463 1.731.587 2.62zm15.555-7.533c.155.108.299.233.428.372.377.365.73.754 1.057 1.164a11.225 11.225 0 012.286 4.632c.203.942.249 1.91.137 2.868-.112.856-.278 1.643-.385 2.298-.108.655-.18 1.177-.215 1.546a4.087 4.087 0 01-.059.573 2.33 2.33 0 01-.03-.578c.018-.524.067-1.047.145-1.566.09-.66.24-1.434.338-2.299a8.808 8.808 0 00-.15-2.795 11.74 11.74 0 00-2.178-4.597c-.792-1.04-1.409-1.588-1.374-1.618zm-4.357 26.86a2.05 2.05 0 01-.467.136 4.784 4.784 0 01-.556.108c-.219.03-.467.077-.745.09-.652.06-1.308.06-1.961 0a11.614 11.614 0 01-4.563-1.417 10.995 10.995 0 01-1.622-1.1 7.17 7.17 0 01-.565-.497 4.912 4.912 0 01-.398-.428 2.114 2.114 0 01-.304-.373c.03-.03.492.484 1.366 1.152.511.392 1.054.74 1.622 1.044.697.368 1.424.675 2.174.916a13.82 13.82 0 002.312.48c.639.07 1.284.088 1.926.056 1.1-.048 1.772-.21 1.781-.167zm6.587-2.44c.102.193.159.407.167.625a3.85 3.85 0 01-.116 1.558 2.745 2.745 0 01-.856 1.327c-.312.26-.552.342-.565.32-.013-.02.193-.162.458-.427.346-.362.597-.803.732-1.284.343-1.11.099-2.115.18-2.12zm-1.161 1.506a2.32 2.32 0 01-.916 2.363c-.047-.047.356-.47.6-1.126.244-.654.252-1.237.316-1.237zm-3.817-14.086c-.226.384-.481.75-.762 1.095a8.36 8.36 0 01-.75 1.105 3.992 3.992 0 011.512-2.2zm-14.648-10.381c-.022.026-.36-.248-.946-.629a12.252 12.252 0 00-5.055-1.888 10.28 10.28 0 01-1.126-.145 3.972 3.972 0 011.143 0c1.854.158 3.63.82 5.136 1.913.318.206.604.459.848.75zm22.515-6.776a18.672 18.672 0 00-2.166 2.025c-.607.78-1.15 1.61-1.623 2.478.05-.291.15-.572.296-.83a8.291 8.291 0 011.16-1.79 8.409 8.409 0 011.562-1.446c.231-.187.491-.335.771-.437zm-8.813-3.527a.97.97 0 01.094.201c.084.194.151.395.201.6a5.03 5.03 0 010 2.315 5.706 5.706 0 01-1.746 2.954 5.904 5.904 0 01-3.938 1.4 6.661 6.661 0 01-3.977-1.327 7.643 7.643 0 01-2.187-2.654 8.02 8.02 0 01-.728-2.2 5.787 5.787 0 01-.077-.63.666.666 0 010-.218c.021 0 .047.3.167.83.166.745.429 1.465.783 2.14a7.548 7.548 0 002.17 2.57 6.522 6.522 0 003.853 1.283 5.764 5.764 0 003.805-1.335 5.606 5.606 0 001.712-2.83c.191-.74.217-1.513.077-2.264-.085-.548-.235-.805-.209-.835z" fill="#263238"/><path opacity=".3" d="M145.626 63.89c0-.214-.035-.466-.223-.573a.43.43 0 00-.385 0 1.127 1.127 0 00-.313.257 5.304 5.304 0 00-1.143 1.828l2.098-.18c-.013-.424-.021-.878-.034-1.331zm6.964-4.4a6.905 6.905 0 00-1.52-3.253c.903 2.962.6 4.636.09 6.66l.111-.282c.583-1.186 1.482-1.926 1.319-3.125z" fill="#000"/><path d="M148.4 158.994l-1.28 19.198-8.347-.098-1.314-19.96 10.941.86z" fill="#FFBE9D"/><path d="M147.355 175.667v.552s9.417 3.788 9.507 5.564l-18.688-.107.291-6.219c2.791 1.314 5.684 1.472 8.89.21z" fill="#8CBF43"/><path d="M140.348 177.464a.763.763 0 00-.53.856.732.732 0 00.856.535.798.798 0 00.556-.92.756.756 0 00-.95-.458" fill="#fff"/><path d="M138.178 181.685l.068-1.498 17.888.655s.831.363.732.95l-18.688-.107z" fill="#000"/><path d="M147.423 176.274c0 .09-.458.129-.911.428-.454.3-.689.672-.775.634-.086-.039.056-.561.608-.903.552-.343 1.1-.244 1.078-.159zm1.965.822c0 .086-.377.24-.689.625-.312.385-.402.792-.492.788-.09-.004-.15-.522.248-.993s.933-.51.933-.42zm1.092 2.367c-.086.022-.21-.428.03-.933.239-.505.663-.698.702-.62.038.077-.227.342-.429.753-.201.411-.214.775-.303.8zM146.875 18.59c.484-1.198-.102-2.654-1.142-3.424a4.97 4.97 0 00-3.707-.728 14.77 14.77 0 00-3.66 1.263 4.13 4.13 0 00-4.206-1.01 4.128 4.128 0 00-2.797 3.3 2.62 2.62 0 00-3.108 3.424l5.783 2.03 6.318 11.129a5.057 5.057 0 008.303-3.263 5.058 5.058 0 00-.863-3.458c.355-.315.656-.687.89-1.1a4.401 4.401 0 002.042-2.735c.552-2.431-1.366-5.137-3.853-5.428z" fill="#263238"/><path d="M143.045 41.765c-.355-1.807-.608-3.048-.604-3.035.005.013 3.425-1.327 3.176-6.095-.115-2.368-1.023-6.104-1.857-9.14-.758-2.726-3.301-5.74-5.993-4.866l-8.133 3.98c-.822.262-.963 1.032-.77 1.871v.428l3.171 13.12 1.34 5.868a4.961 4.961 0 005.522 3.729 4.944 4.944 0 003.331-2.04 4.946 4.946 0 00.817-3.82z" fill="#FFBE9D"/><path d="M143.704 26.65a.603.603 0 01-.874.665.59.59 0 01-.278-.352.616.616 0 01.428-.72.585.585 0 01.724.408zm-.351-.894c-.06.094-.574-.146-1.212 0-.637.145-1.036.552-1.121.488-.086-.064 0-.184.175-.373.233-.255.54-.432.878-.505.331-.07.675-.034.984.103.227.12.338.244.296.287zm-5.843 2.333a.603.603 0 01-.661.732.58.58 0 01-.49-.446.611.611 0 01.428-.714.578.578 0 01.723.428zm-.312-.822c-.055.09-.573-.146-1.211 0-.638.145-1.036.552-1.122.488-.085-.064 0-.18.18-.373a1.65 1.65 0 01.856-.483c.331-.073.676-.037.985.102.244.077.342.223.312.266zm3.223 4.023c.314-.174.647-.309.993-.402.163-.051.309-.115.313-.231a.86.86 0 00-.21-.462c-.235-.36-.484-.736-.74-1.135-1.036-1.622-1.824-2.97-1.76-2.996.065-.026.959 1.237 1.999 2.86.249.402.493.783.719 1.147a.943.943 0 01.219.62.422.422 0 01-.219.296 1.168 1.168 0 01-.265.094 4.31 4.31 0 01-1.049.21z" fill="#263238"/><path d="M142.441 38.73c-2.165.49-4.423.368-6.523-.351 0 0 2.243 2.928 6.767 1.528l-.244-1.177z" fill="#EB996E"/><path d="M137.317 26.36c-.043.18-.697.175-1.442.359s-1.336.466-1.451.321c-.056-.069.03-.248.256-.428a2.506 2.506 0 011.045-.514 2.401 2.401 0 011.16 0c.295.052.449.172.432.261zm5.792-2.629c-.098.171-.651.133-1.284.257-.634.124-1.13.338-1.284.21-.069-.06 0-.223.184-.428.282-.238.624-.395.989-.454a1.992 1.992 0 011.078.077c.257.124.364.261.317.338z" fill="#263238"/><path d="M131.616 19.54a3.232 3.232 0 002.986 2.577 3.23 3.23 0 001.385-.23c.68-.275 1.378-.793 2.063-.544.685.248.955 1.224 1.627 1.6.958.54 2.114-.393 3.21-.3.856.07 1.502.729 2.166 1.26.663.53 1.584.975 2.328.573a9.387 9.387 0 00-.757-2.059 3.22 3.22 0 00-1.567-1.485 12.009 12.009 0 01-1.143-.381c-.77-.398-1.117-1.284-1.682-1.956a3.538 3.538 0 00-2.996-1.203c-.929.098-1.807.565-2.74.522-.689-.026-1.348-.334-2.033-.321-1.344 0-2.35 1.194-3.095 2.311" fill="#263238"/><path d="M136.119 20.52c-.612-.042-1.875-.17-2.29-.611a3.597 3.597 0 00-3.424-1.126 2.995 2.995 0 00-2.14 2.85 4.282 4.282 0 00-3.125 3.07 4.974 4.974 0 00-.02 2.38 4.975 4.975 0 001.09 2.114c.258.323.492.663.702 1.019-.29.36-.545.747-.762 1.156-.976 2.166 1.678 2.996 1.678 2.996 0 1.46 1.348 1.451 2.209 1.447.86-.004 1.335 2.29 2.007 2.2l-.697-7.084c.099.04.205.058.312.055 1.622.03 1.199-3.039.676-3.852a9.133 9.133 0 001.216-1.948 6.66 6.66 0 00.064-3.283c.565-.081 2.783-1.36 2.504-1.382z" fill="#263238"/><path d="M131.59 31.299a1.37 1.37 0 00-.901-.98 1.371 1.371 0 00-1.308.244c-.428.368-.655.984-.398 2.016.694 2.757 3.318 1.494 3.301 1.413-.018-.082-.399-1.554-.694-2.693z" fill="#FFBE9D"/><path d="M131.179 33.161s-.038.043-.111.103a.492.492 0 01-.355.098c-.317-.034-.681-.428-.818-.929a1.683 1.683 0 01-.038-.723.565.565 0 01.269-.458.258.258 0 01.317.06c.056.068.051.128.069.128.017 0 .047-.06 0-.167a.313.313 0 00-.291-.174.362.362 0 00-.142.029.697.697 0 00-.394.552c-.059.268-.05.546.026.809.154.552.569 1.002.997 1.014a.506.506 0 00.429-.184c.055-.09.055-.158.042-.158z" fill="#EB996E"/><path d="M146.392 27.45s.248-.192.599-.624a4.056 4.056 0 00.685-3.729 3.426 3.426 0 00-.98-1.519 4.021 4.021 0 00-3.934-.766c-.128.043-.248.107-.368.158-.12.052-.227.129-.338.189l-.171.098v-.171a1.403 1.403 0 00-.347-.903 2.27 2.27 0 00-.792-.566 2.953 2.953 0 00-1.836-.132c-1.182.27-2.183.809-3.129.916a3.029 3.029 0 01-2.141-.428 1.709 1.709 0 01-.428-.428.902.902 0 01-.094-.184c.157.21.346.393.561.543a2.995 2.995 0 002.067.347 7.296 7.296 0 001.439-.428 13.33 13.33 0 011.669-.548c.317-.073.642-.105.967-.094a3 3 0 01.998.227c.327.141.62.353.856.62.27.288.425.664.436 1.058l-.171-.095c.116-.068.231-.14.356-.205a2.55 2.55 0 01.398-.167 4.209 4.209 0 014.126.805c.479.439.83 1 1.014 1.622.16.537.206 1.101.137 1.657a3.99 3.99 0 01-.954 2.178 2.754 2.754 0 01-.475.428 1.171 1.171 0 01-.15.142zm-.582-9.677a2.985 2.985 0 00-.886-.304 2.336 2.336 0 00-1.057.094 2.1 2.1 0 00-1.083.788l-.107.154-.064-.171a3.218 3.218 0 00-2.611-1.94 4.18 4.18 0 00-2.509.724c-.628.408-1.294.754-1.99 1.031-.48.181-.998.241-1.507.176a2.021 2.021 0 01-.398-.107.529.529 0 01-.128-.069s.192.056.539.09c.493.031.986-.05 1.443-.24a11.92 11.92 0 001.951-1.057c.38-.234.781-.43 1.199-.586.46-.168.951-.23 1.438-.184a3.374 3.374 0 012.765 2.093h-.166a2.198 2.198 0 011.198-.83 2.358 2.358 0 011.117-.056c.238.045.465.132.672.257.124.068.189.128.184.137z" fill="#455A64"/><path d="M140.172 32.557a.923.923 0 00-.749-.218 1.096 1.096 0 00-.736.527l-.026.034a.519.519 0 00-.081.325.766.766 0 00.428.578.986.986 0 001.122-.163.803.803 0 00.042-1.083z" fill="#E8505B"/><path d="M140.399 33.889c-.03 0-.073-.129-.188-.309a1.414 1.414 0 00-.608-.509 1.382 1.382 0 00-.792-.098c-.21.03-.338.085-.355.055-.017-.03.09-.132.317-.21a1.26 1.26 0 011.566.681c.09.236.06.386.06.39z" fill="#263238"/><path d="M131.651 34.415c.021 0 .124.214-.039.54a.855.855 0 11-1.442-.908c.222-.287.475-.291.47-.265-.004.025-.188.094-.338.35a.772.772 0 00-.102.484.682.682 0 00.321.475.684.684 0 00.569.082.795.795 0 00.389-.296c.079-.145.137-.3.172-.462z" fill="#E8505B"/><path d="M130.207 34.253c.022 0 0 .145-.201.235a.534.534 0 01-.355.034.554.554 0 01-.374-.76.554.554 0 01.207-.241c.176-.107.313-.065.308-.035-.004.03-.107.056-.214.159a.431.431 0 00-.081.496.43.43 0 00.458.202c.145-.035.223-.112.252-.09z" fill="#E8505B"/><path d="M134.912 72.267s10.598.617 16.865.672c4.85.048 7.016-1.245 7.983-4.361.818-2.616-.933-7.637-.933-7.637-3.283 0-5.308.467-7.418 1.46l.56 2.294-17.087 1.473.03 6.1z" fill="#FFBE9D"/><path d="M155.535 67.144a8.505 8.505 0 00-1.601-1.588 8.366 8.366 0 00-2.063-.908c.228-.033.461-.014.681.056a4.638 4.638 0 011.506.668 4.54 4.54 0 011.173 1.16c.145.179.249.388.304.612z" fill="#EB996E"/><path d="M131.034 62.384s-3.279.787-5.684 2.397l2.568 6.96c.856 2.286 3.471 3.424 5.565 2.222 3.223-1.841 4.361-7.217 4.361-7.217l3.54-15.359-5.868-3.677-4.456 14.674" fill="#FFBE9D"/><path d="M135.49 47.71l.239-5.05-1.31-5.137c-.072-.283-.111-.638.12-.81a.626.626 0 01.792.026c.36.386 2.072 4.893 2.072 4.893s2.598-1.562 3.06-1.635c.463-.073 1.045 1.318 1.079 1.43.017.312.017.625 0 .937 0 0 1.605.051 1.751.27.117.444.178.901.184 1.36 0 0 .681.22.788.737.107.518.329 1.361 0 1.545-.33.184-.998.561-.998.561s-.269 2.62-.342 2.855c-.073.236-1.575 1.712-1.575 1.712l-5.86-3.694z" fill="#FFBE9D"/><path d="M130.032 74.07s.163.09.492.196a3.35 3.35 0 001.516.12 4.182 4.182 0 002.187-1.01 10.15 10.15 0 002.038-2.568c.314-.57.58-1.166.796-1.78.223-.674.406-1.36.548-2.056.334-1.444.695-2.992 1.083-4.644l2.568-10.97v-.03h.021c.296-.288.591-.587.886-.891.146-.154.291-.308.428-.467.065-.08.137-.162.193-.244.056-.08.051-.154.073-.265.115-.856.205-1.742.299-2.633v-.06l.052-.03.817-.457c.06-.035.154-.082.193-.112a.236.236 0 00.077-.14 1.397 1.397 0 000-.429 6.398 6.398 0 00-.193-.929 1.13 1.13 0 00-.68-.552l-.073-.026v-.077c0-.248-.026-.5-.056-.753a3.419 3.419 0 00-.055-.377.795.795 0 00-.047-.158c0-.03 0 0-.03-.026a.506.506 0 00-.069-.03 7.732 7.732 0 00-1.571-.18h-.111v-.967a.892.892 0 00-.103-.287 4.188 4.188 0 00-.145-.304 3.585 3.585 0 00-.338-.586.862.862 0 00-.214-.214.215.215 0 00-.232-.026c-.206.08-.407.171-.603.274-.796.428-1.575.856-2.333 1.323l-.116.068-.047-.12a658.774 658.774 0 00-1.198-2.996c-.197-.492-.39-.98-.587-1.468a.606.606 0 00-.47-.428.48.48 0 00-.557.205.504.504 0 00-.064.304c0 .099.06.24.09.36l.192.736c.129.488.257.976.381 1.455.254.96.501 1.9.741 2.826v.03c-.086 1.757-.167 3.441-.244 5.05v.022c-1.618 5.265-2.958 9.63-3.9 12.691l-1.1 3.532-.295.924c-.069.21-.111.317-.111.317s.025-.111.081-.325l.27-.933c.248-.826.603-2.025 1.053-3.544l3.826-12.714c.075-1.603.15-3.287.227-5.05v.03c-.245-.92-.495-1.861-.749-2.826-.128-.48-.257-.963-.385-1.45l-.193-.741a2.686 2.686 0 01-.094-.385.71.71 0 01.09-.428c.077-.136.2-.24.347-.292.14-.04.288-.04.428 0a.818.818 0 01.62.565c.197.488.39.976.591 1.469.394.99.793 1.989 1.199 2.996l-.159-.051a51.958 51.958 0 012.35-1.332 5.49 5.49 0 01.634-.29.538.538 0 01.214-.03.486.486 0 01.205.08c.103.073.194.161.27.262.143.189.268.39.372.603.056.103.107.21.154.317.061.113.102.236.12.364v.856l-.107-.116c.551.005 1.099.07 1.635.193a.78.78 0 01.112.047.294.294 0 01.107.111.84.84 0 01.073.219c.029.132.042.265.059.398.03.26.048.518.056.77l-.077-.098a1.339 1.339 0 01.818.676c.093.324.162.655.205.989.03.173.03.35 0 .522a.5.5 0 01-.158.266c-.07.047-.143.09-.219.128l-.817.458.055-.086c-.098.895-.188 1.777-.308 2.646l-.025.162a.444.444 0 01-.077.189 2.83 2.83 0 01-.214.26c-.142.168-.292.322-.429.476-.299.308-.595.608-.89.899l.026-.051-2.598 10.962-1.101 4.64a17.548 17.548 0 01-.569 2.063 11.36 11.36 0 01-.813 1.785 10.147 10.147 0 01-2.085 2.59 4.279 4.279 0 01-2.247 1.005 3.331 3.331 0 01-1.537-.158 2.212 2.212 0 01-.363-.162l-.112-.078z" fill="#EB996E"/><path d="M141.543 42.343c0 .034-.146.051-.373.06-.288.005-.575.04-.856.102-.27.068-.52.2-.727.386-.155.145-.223.27-.257.256-.035-.012 0-.162.141-.36.2-.248.477-.425.788-.5.3-.07.61-.084.916-.043.231.03.368.069.368.099z" fill="#EB996E"/><path d="M140.288 42.39c-.06 0-.064-.154 0-.296.064-.14.141-.235.197-.214.055.022.064.154 0 .296-.065.141-.142.235-.197.214zm3.262 1.558a4.147 4.147 0 01-1.284.175.856.856 0 00-.706.339c-.116.175-.077.32-.112.33-.034.008-.136-.147-.029-.399a.68.68 0 01.303-.343 1.38 1.38 0 01.514-.15c.437-.066.883-.05 1.314.048zm-.287 1.536c.06 0 .098.322.077.707-.021.385-.081.702-.141.697-.06-.004-.099-.316-.082-.706.017-.39.082-.698.146-.698z" fill="#EB996E"/><path d="M145.044 57.016l.377-1.314a.356.356 0 01.444-.245.36.36 0 01.159.095l.497.505.308-1.233a.358.358 0 01.312-.269.362.362 0 01.36.201l.702 1.464-3.159.796zm3.164-.236a5.725 5.725 0 01-1.511.489 5.802 5.802 0 01-1.567.274 5.872 5.872 0 011.511-.493 5.7 5.7 0 011.567-.27zm-25.456-7.319s-.159.167-.381.51a4.316 4.316 0 00-.578 1.618 11.43 11.43 0 00-.077 2.568c.047.967.124 2.033.244 3.146.198 1.899.496 3.786.89 5.654.15.715.287 1.285.385 1.713.043.175.077.33.107.458s.035.162.035.162-.022-.055-.052-.158l-.124-.454a63.224 63.224 0 01-.428-1.712 50.9 50.9 0 01-1.164-8.813 11.495 11.495 0 01.094-2.569c.091-.577.301-1.13.616-1.622.123-.185.268-.353.433-.5z" fill="#fff"/><path d="M131.761 43.644l-.098.051-.283.137a17.28 17.28 0 00-1.023.523 35.62 35.62 0 00-3.214 2.011c-1.224.856-2.307 1.631-3.099 2.196l-.938.668-.261.175c-.06.039-.09.06-.094.056l.086-.068.248-.193.924-.685a97.587 97.587 0 013.082-2.226 32.516 32.516 0 013.236-1.99 13.61 13.61 0 011.041-.501l.291-.12a.324.324 0 01.102-.034zm20.414 2.782s-.026 0-.073-.051l-.193-.167a7.195 7.195 0 00-.749-.56 14.942 14.942 0 00-2.752-1.392 27.78 27.78 0 00-2.932-.976c-.381-.107-.694-.184-.908-.24l-.248-.06a.34.34 0 01-.086-.03h.09l.249.043c.218.043.535.112.916.21a24.31 24.31 0 012.953.955c.967.372 1.89.85 2.752 1.425.36.241.689.524.981.843zm-20.294 32.677a.882.882 0 01-.167-.06 2.722 2.722 0 01-.428-.226c-.464-.28-.8-.733-.933-1.259a2.457 2.457 0 01.167-1.567 1.96 1.96 0 01.248-.427c.069-.09.116-.133.12-.129-.117.181-.22.372-.308.57a2.498 2.498 0 00-.137 1.519c.128.505.441.944.878 1.228.334.24.569.334.56.351z" fill="#fff"/><path d="M130.521 74.468c.094.166.162.347.201.535.067.181.108.371.12.565a3.557 3.557 0 01-.321-1.1z" fill="#fff"/><path d="M136.307 170.436l13.055-.064-.235-45.142-.124-45.93-17.683-.218-3.18 5.993a21.564 21.564 0 00-2.445 7.769c-.222 2.071 1.332 8.839 1.875 10.56l4.867 15.448 3.87 51.584z" fill="#000"/><path d="M152.835 79.377l14.348 39.111a18.032 18.032 0 01-1.768 15.281l-16.66 32.51-9.365-11.715 13.937-29.107-12.285-19.909 2.067-26.11 5.788-.09 3.938.03z" fill="#000"/><path d="M147.813 92.48s0 .068.022.2c.021.134.021.34.034.587.03.531.069 1.285.12 2.269.098 1.982.235 4.828.407 8.343.171 3.514.355 7.704.569 12.37.103 2.329.214 4.773.325 7.307.086 1.284.047 2.568.06 3.852.013 1.285 0 2.641 0 3.986 0 10.756.034 20.494.047 27.553v11.21-.59c0-.527 0-1.284-.025-2.269 0-1.982-.035-4.833-.06-8.351-.03-7.059-.069-16.792-.112-27.549v-3.985c0-1.31.022-2.599-.06-3.853-.107-2.534-.214-4.978-.312-7.307-.197-4.652-.372-8.847-.522-12.37-.15-3.523-.253-6.36-.334-8.343a963.74 963.74 0 01-.077-2.268v-.591c0-.163-.082-.201-.082-.201zm-.33-12.324c.051.138.083.282.095.428.042.279.094.677.154 1.173.111.989.231 2.363.304 3.883.072 1.52.068 2.897.047 3.895 0 .496-.03.899-.052 1.177.004.144-.013.288-.051.428a14.411 14.411 0 01-.056-1.61c0-.997-.047-2.37-.111-3.886-.064-1.515-.167-2.885-.24-3.878-.06-.535-.09-1.072-.09-1.61zm-2.876.856a1.02 1.02 0 00-.287.488.543.543 0 00.163.523.622.622 0 00.642.115.611.611 0 00.334-.56.564.564 0 00-.287-.467 1.07 1.07 0 00-.561-.103s.043-.055.154-.085a.682.682 0 01.48.047.71.71 0 01.428.595.772.772 0 01-.444.778.767.767 0 01-.879-.175.702.702 0 01-.175-.706.722.722 0 01.274-.394c.089-.056.154-.056.158-.056zm-6.849-.757c.064.134.103.28.115.428.071.384.084.776.039 1.164a4.672 4.672 0 01-.492 1.66 4.413 4.413 0 01-3.348 2.402 4.74 4.74 0 01-1.712-.064 4.044 4.044 0 01-1.087-.428 1.179 1.179 0 01-.351-.244c.471.218.965.385 1.472.496a4.499 4.499 0 004.785-2.105 4.51 4.51 0 00.596-1.747 7.486 7.486 0 00-.017-1.562zm16.797 3.754c-.278.035-.56 0-.822-.099a3.745 3.745 0 01-1.686-1.074 3.792 3.792 0 01-.912-1.78 1.74 1.74 0 010-.831c.043 0 .043.317.171.792.176.619.491 1.19.921 1.67.433.475.971.844 1.57 1.078.446.162.762.197.758.244zm5.106 42.158a2.68 2.68 0 01-.757.599c-.3.193-.628.337-.972.428a2.332 2.332 0 01-1.314-.034 3.877 3.877 0 01-1.832-1.455 3.485 3.485 0 01-.501-.826c.23.222.44.466.625.727a4.08 4.08 0 001.776 1.34 2.706 2.706 0 002.141-.317c.269-.169.548-.323.834-.462zm-3.274 2.496a20.79 20.79 0 01-2.521-3.544 21.715 21.715 0 012.521 3.544z" fill="#455A64"/><path d="M134.45 93.995c-.06.026-.21-.223-.343-.548-.132-.325-.188-.612-.132-.633.055-.022.209.222.342.548.133.325.188.612.133.633zm8.286 1.185c-.06 0-.111-.209-.111-.474 0-.266.051-.471.111-.471.06 0 .112.21.112.47 0 .262-.052.476-.112.476zm-3.406 4.5c-.06 0-.129-.257-.15-.583-.022-.325 0-.594.068-.599.069-.004.133.257.154.582.022.326-.008.595-.072.6zm-6.208 3.317c-.051.034-.226-.12-.458-.287-.231-.167-.428-.287-.428-.347 0-.059.287 0 .544.167.257.167.377.433.342.467zm10.954 4.182c-.051-.034 0-.223.146-.428.145-.206.278-.33.329-.295.052.034 0 .222-.145.428-.146.205-.279.329-.33.295zm-6.784 1.186c-.064 0-.115-.356-.115-.792 0-.437.051-.788.115-.788.065 0 .112.351.112.788 0 .436-.052.792-.112.792zm-2.204 4.798c-.034.051-.257-.051-.497-.223-.239-.171-.406-.355-.368-.406.039-.052.257.051.497.227.24.175.406.355.368.402zm6.861 1.665c.022.056-.115.171-.312.257s-.377.116-.398.06c-.022-.056.111-.176.308-.261.197-.086.376-.103.402-.056zm-4.657 7.821c-.056.03-.278-.304-.497-.737-.218-.432-.351-.813-.295-.856.056-.043.278.3.497.736.165.258.267.552.295.857zm7.576-.711c-.056-.026.043-.317.218-.642.176-.325.36-.569.428-.539.069.03-.042.316-.214.642-.171.325-.381.569-.432.539zm-3.317 6.63c-.06 0-.056-.346-.125-.749-.068-.402-.166-.719-.111-.749.056-.03.266.274.334.715.069.441-.038.796-.098.783zm-3.553 3.81c-.043.039-.257-.12-.475-.359-.219-.24-.36-.471-.313-.51.047-.038.261.12.48.36.218.239.355.449.308.509zm8.626 1.417c-.048-.043.111-.274.351-.514.239-.239.466-.402.509-.359.043.043-.116.274-.351.518-.236.244-.467.402-.509.355zm-4.94 5.672c-.06 0-.06-.334 0-.728.06-.394.154-.702.218-.694.064.009.06.334 0 .728-.06.394-.18.706-.218.694zm-3.357 2.756c-.055.034-.239-.188-.428-.492-.188-.304-.278-.574-.227-.604.052-.03.244.189.429.493.184.304.278.569.226.603zm8.036 3.472c.038.051-.18.265-.484.483-.304.219-.582.356-.621.309-.038-.048.184-.27.488-.488.304-.219.582-.351.617-.304zm-6.695 4.507c-.06-.021 0-.368.055-.792.056-.424.022-.779.086-.787.064-.009.175.346.137.809-.039.462-.223.791-.278.77zm2.675 6.468c-.051.038-.231-.107-.402-.326-.172-.218-.279-.428-.232-.462.047-.034.232.107.403.326.171.218.278.423.231.462zm-2.924 4.344c-.047.035-.282-.222-.522-.569-.239-.347-.394-.659-.342-.698.051-.038.282.223.522.57.24.346.394.659.342.697zm8.052-5.449c-.056-.021-.052-.179 0-.355.051-.175.162-.295.222-.274.06.022.052.18 0 .355-.051.176-.162.296-.222.274zm-3.548 10.342c-.06-.03.047-.334.132-.715.086-.381.116-.702.18-.706.064-.004.129.338.039.753-.09.416-.3.698-.351.668zm2.307-66.155c-.056.026-.193-.15-.304-.385-.111-.235-.158-.454-.103-.48.056-.025.193.146.304.386.111.24.159.45.103.48zm-5.942-13.333c.034.055-.266.295-.587.638-.321.342-.539.654-.595.624-.055-.03.09-.427.428-.778.338-.352.724-.536.754-.484zm5.291-.159c-.064 0-.162-.24-.312-.535-.15-.295-.287-.526-.24-.57.047-.042.278.146.428.472.15.325.184.625.124.633zM129.1 90.61c-.056 0 0-.305.132-.634.133-.33.283-.574.338-.552.056.021 0 .308-.132.633-.133.325-.279.578-.338.552zm.535 6.467c-.039.047-.283-.094-.548-.313-.266-.218-.428-.428-.403-.479.026-.051.287.094.548.308.261.214.441.437.403.484zm10.812-15.787c-.056 0-.176-.136-.261-.355-.086-.218-.112-.428-.056-.428s.176.137.261.356c.086.218.111.402.056.428zm10.354 3.147c-.06 0-.055-.27 0-.578.056-.308.167-.54.227-.526.06.012.056.27 0 .573-.056.304-.167.556-.227.53zm2.439 4.901c-.06 0 0-.342.172-.71.171-.369.321-.651.381-.63.059.022 0 .343-.176.715-.175.372-.325.65-.377.625zm-1.741 3.951c-.056.025-.261-.27-.454-.664s-.313-.732-.257-.757c.056-.026.257.265.454.659s.312.732.257.762zm3.711 3.946c-.06-.025 0-.27.09-.556.089-.287.244-.492.303-.47.06.02 0 .269-.094.551-.094.283-.244.518-.299.475zm-3.317 3.866c-.051.034-.184-.082-.291-.257-.107-.176-.154-.343-.103-.373.052-.029.184.082.291.257.107.176.167.343.103.373zm.706 7.974c-.043.043-.309-.171-.595-.475-.287-.304-.476-.586-.428-.629.047-.043.308.171.595.475.286.304.475.586.428.629zm4.345-4.58c-.047.039-.283-.18-.522-.484-.24-.303-.394-.582-.347-.62.047-.039.282.18.522.483.24.304.398.583.347.621zm2.384 6.322c-.056-.025.043-.346.218-.719.176-.372.36-.646.428-.62.069.025-.038.346-.214.719-.175.372-.376.646-.432.62zm-5.068 5.201c-.052.034-.253-.201-.527-.454-.274-.252-.526-.428-.496-.492.03-.064.347.047.646.325.3.279.428.595.377.621zm.317 5.368c0 .064-.214.111-.475.111s-.471-.047-.471-.111.21-.111.471-.111.475.051.475.111zm5.209-1.498c-.056-.035.055-.3.136-.638.082-.338.116-.621.18-.625.064-.004.133.304.039.681-.094.376-.304.616-.355.582zm5.175 1.789c-.056.021-.214-.278-.351-.668-.137-.389-.201-.723-.146-.745.056-.021.219.283.356.672.137.39.201.741.141.741zm-.822 7.371c-.056-.026.077-.385.291-.801.214-.415.428-.727.492-.697.064.03-.077.385-.291.8-.214.415-.441.728-.492.698zm-4.726 4.328c-.056.025-.231-.274-.394-.664-.162-.389-.244-.723-.184-.745.06-.021.231.274.394.664.163.389.24.723.184.745zm-5.23 1.669c0 .06-.176.111-.394.111-.219 0-.398-.051-.398-.111 0-.06.179-.111.398-.111.218 0 .394.047.394.111zm3 6.866c-.06 0-.179-.236-.265-.565-.086-.33-.111-.604-.051-.621.06-.017.175.235.265.565.09.33.107.604.051.621zm-3.792-2.29c-.052-.03 0-.236.141-.45.141-.214.282-.372.334-.338.051.034 0 .231-.142.45-.141.218-.278.372-.333.338zm-.077 7.576c-.06 0-.145-.287-.188-.655-.043-.368-.03-.676.03-.685.06-.008.145.287.188.66.043.372.03.676-.03.68z" fill="#FAFAFA"/></svg>