<svg width="246" height="146" fill="none" xmlns="http://www.w3.org/2000/svg"><g clip-path="url(#clip0)"><path d="M226.775 74.766h-21.8a2.735 2.735 0 01-1.931-.797 2.733 2.733 0 01-.8-1.93V41.862a2.733 2.733 0 011.686-2.52 2.733 2.733 0 011.045-.207h13.824l10.696 11.032v21.872a2.727 2.727 0 01-2.72 2.727z" fill="#EBEBEB"/><path d="M218.799 39.135v8.492a2.52 2.52 0 002.54 2.521h8.156l-10.696-11.013z" fill="#F5F5F5"/><path d="M218.911 48.372s-.105 2.061 2.237 2.738c.089.025.179.044.27.058 1.081.191 8.085 1.441 8.085 1.279v-2.28h-8.164s-2.039-.073-2.428-1.795z" fill="#E0E0E0"/><path d="M226.775 74.766s.162 0 .472-.054a2.71 2.71 0 002.212-2.504v-3.04c0-4.569-.021-11.104-.036-19.002l.025.055-10.714-11.025.065.029h-13.212a6.668 6.668 0 00-1.044.036 2.63 2.63 0 00-2.195 2.41v29.737a6.31 6.31 0 00.051 1.15 2.652 2.652 0 001.236 1.75 2.6 2.6 0 001.005.36c.359.029.72.038 1.081.03h4.114l12.419.029h4.554-1.178l-3.376.017-12.419.03h-4.114c-.361.01-.722.002-1.081-.026a2.807 2.807 0 01-2.374-2.226 6.447 6.447 0 01-.058-1.178V41.588a2.818 2.818 0 012.349-2.58 6.85 6.85 0 011.081-.039h13.251l.025.025 10.646 11.13.022.024v.033c0 7.897-.025 14.433-.033 19 0 1.143 0 2.163-.021 3.049a2.725 2.725 0 01-2.638 2.554l-.115-.018z" fill="#E0E0E0"/><path d="M229.495 50.166a1.376 1.376 0 01-.209 0l-.601.019-2.213.028h-5.22a2.634 2.634 0 01-2.432-1.837 2.98 2.98 0 01-.119-1.041v-1.939c0-1.228 0-2.338.022-3.278s.022-1.665.029-2.212v-.602a1.216 1.216 0 010-.209.816.816 0 01.021.21v.6c0 .548 0 1.298.029 2.213s0 2.05 0 3.278v1.939a2.534 2.534 0 00.613 1.862 2.438 2.438 0 001.758.833h1.934l3.283.021 2.212.029.601.018c.101.004.2.028.292.069zm-11.107-3.454c0 .053-2.576.093-5.764.093-3.189 0-5.765-.04-5.765-.093 0-.055 2.576-.094 5.765-.094 3.188 0 5.764.043 5.764.093zm5.459 4.236c0 .05-3.798.094-8.481.094-4.684 0-8.481-.043-8.481-.094 0-.05 3.797-.093 8.481-.093 4.683 0 8.481.043 8.481.093zm0 4.237c0 .05-3.798.094-8.481.094-4.684 0-8.481-.043-8.481-.094 0-.05 3.797-.093 8.481-.093 4.683 0 8.481.043 8.481.093zm0 4.237c0 .05-3.798.094-8.481.094-4.684 0-8.481-.044-8.481-.094s3.797-.094 8.481-.094c4.683 0 8.481.044 8.481.094zm0 4.237c0 .05-3.798.093-8.481.093-4.684 0-8.481-.043-8.481-.093s3.797-.094 8.481-.094c4.683 0 8.481.043 8.481.094zm0 5.224c0 .054-3.798.094-8.481.094-4.684 0-8.481-.04-8.481-.094s3.797-.094 8.481-.094c4.683 0 8.481.043 8.481.094z" fill="#E0E0E0"/><path d="M214.353 60.564h-15.477c-.84 0-1.521.68-1.521 1.52v5.282c0 .84.681 1.52 1.521 1.52h15.477c.84 0 1.521-.68 1.521-1.52v-5.282c0-.84-.681-1.52-1.521-1.52z" fill="#E0E0E0"/><path d="M199.503 63.277h1.441c1.03 0 1.737.62 1.737 1.57 0 .952-.721 1.575-1.737 1.575h-1.441v-3.145zm1.391 2.547a.974.974 0 001.035-.974.974.974 0 00-1.035-.975h-.663v1.95h.663zm2.121-.976a1.717 1.717 0 01.997-1.657 1.72 1.72 0 012.322 2.201 1.718 1.718 0 01-1.6 1.084 1.628 1.628 0 01-1.588-.983 1.626 1.626 0 01-.131-.645zm2.702 0a.983.983 0 10-.983 1.009.954.954 0 00.923-.621.951.951 0 00.06-.388zm1.081 0a1.726 1.726 0 011.141-1.539 1.728 1.728 0 011.86.458l-.465.429a1.018 1.018 0 00-.792-.36 1.007 1.007 0 00-.674 1.698c.176.187.417.3.674.315a1.006 1.006 0 00.792-.36l.465.432a1.731 1.731 0 01-2.663-.139 1.726 1.726 0 01-.338-.941v.007zm5.404 1.574l-.756-1.08-.746 1.08h-.836l1.164-1.6-1.106-1.545h.839l.721 1.02.72-1.02h.786l-1.081 1.517 1.171 1.628h-.876z" fill="#fff"/><path d="M200.897 113.73l-16.508 28.876-32.666.469a1.974 1.974 0 00-1.946 1.869l33.218.094 1.25-.043 41.59.083 8.405-14.494 10.747-15.388a1.514 1.514 0 00.094-1.575 1.52 1.52 0 00-1.354-.81l-41.519.159a1.524 1.524 0 00-1.311.76z" fill="#EBEBEB"/><path d="M244.987 113.892a.73.73 0 01-.198.022l-.583.018-2.249.039-8.257.065-27.262.072h-1.982a1.638 1.638 0 00-1.513.721 854.017 854.017 0 00-1.848 3.336l-3.509 6.326-5.956 10.704-4.049 7.206c-.472.825-.847 1.473-1.117 1.949-.122.202-.22.36-.303.501a.816.816 0 01-.111.162.642.642 0 01.075-.184l.267-.522 1.048-1.985c.948-1.744 2.288-4.219 3.935-7.264l5.883-10.747 3.484-6.337 1.859-3.365a2.047 2.047 0 011.855-.897h1.982l27.251.058 8.258.068 2.248.036.583.022a.698.698 0 01.209-.004z" fill="#E0E0E0"/><path d="M215.715 128.419c-.72.814-.753 1.995-.04 2.637.714.641 1.888.504 2.623-.31.735-.814.753-1.996.04-2.637-.713-.642-1.888-.505-2.623.31z" fill="#fff"/><path d="M5.512 114.274v17.272H2.63v1.873h2.882v11.558h53.89v-10.52H55.41v-2.292h3.992v-3.433h1.776v-1.564h-2.093v-12.894H5.512z" fill="#F5F5F5"/><path d="M45.092 114.324v30.458h14.31v-10.516H55.41v-2.101l3.992.072V128.8l1.809.004-.033-1.776-2.107-.051v-12.703l-13.98.05z" fill="#E0E0E0"/><path d="M46.115 133.167c0 .108-9.753.191-21.779.191s-21.778-.083-21.778-.191 9.745-.18 21.775-.18 21.782.075 21.782.18zm0-1.755c0 .109-9.753.195-21.779.195s-21.778-.086-21.778-.195c0-.108 9.749-.191 21.778-.191 12.03 0 21.779.087 21.779.191zm2.795-4.719c0 .108-9.752.191-21.778.191-12.026 0-21.782-.083-21.782-.191s9.752-.191 21.782-.191 21.779.086 21.779.191zm.268 12.865c0 .105-9.75.191-21.78.191-12.029 0-21.778-.086-21.778-.191 0-.104 9.75-.191 21.779-.191 12.03 0 21.779.083 21.779.191z" fill="#E0E0E0"/><path d="M185.34 40.774h-21.296a2.666 2.666 0 01-2.666-2.666V8.63a2.666 2.666 0 012.666-2.666h13.507l10.448 10.776v21.368a2.664 2.664 0 01-2.659 2.666z" fill="#EBEBEB"/><path d="M177.551 5.964v8.287a2.478 2.478 0 002.478 2.478h7.977L177.551 5.964z" fill="#F5F5F5"/><path d="M177.659 14.99s-.105 2.013 2.187 2.672c.086.026.173.044.263.062 1.041.183 7.897 1.405 7.897 1.246v-2.23h-7.976s-1.993-.065-2.371-1.75z" fill="#E0E0E0"/><path d="M185.34 40.774s.162 0 .461-.054a2.671 2.671 0 001.882-1.404c.164-.323.26-.677.28-1.039v-2.972c0-4.464-.022-10.848-.036-18.565l.021.058c-3.163-3.243-6.693-6.892-10.448-10.769l.065.025h-12.919a6.85 6.85 0 00-1.023.04 2.554 2.554 0 00-2.14 2.349c-.018.472 0 .965 0 1.441v27.63a6.08 6.08 0 00.05 1.12 2.6 2.6 0 001.203 1.711c.3.187.635.31.984.36.349.028.699.038 1.048.03h4.017l12.135.028h4.445-1.149l-3.296.018-12.135.03h-4.017c-.36.01-.721.002-1.081-.026a2.744 2.744 0 01-2.32-2.162 6.22 6.22 0 01-.054-1.15V8.443c.034-.506.209-.993.505-1.405a2.772 2.772 0 011.801-1.117 7.472 7.472 0 011.056-.04h12.941l.029.03c3.732 3.861 7.256 7.514 10.419 10.775l.021.025v.03c0 7.716-.025 14.1-.032 18.564 0 1.117 0 2.108-.022 2.976a2.675 2.675 0 01-.99 1.913 2.634 2.634 0 01-1.236.548 1.82 1.82 0 01-.36.032.92.92 0 01-.105 0z" fill="#E0E0E0"/><path d="M188.007 16.74a.793.793 0 01-.206.022l-.587.018-2.162.029h-5.098a2.582 2.582 0 01-2.378-1.798 3.008 3.008 0 01-.118-1.016v-1.892c0-1.203 0-2.287.021-3.206.022-.919.022-1.625.029-2.162v-.587a.71.71 0 01.018-.205.88.88 0 01.018.205l.018.587c0 .537.018 1.268.029 2.162.011.893 0 2.003.022 3.206v1.892a2.481 2.481 0 00.598 1.801 2.401 2.401 0 001.718.81h1.892l3.202.022 2.162.03h.587c.081.02.159.047.235.082zm-10.86-3.365c0 .054-2.522.094-5.617.094-3.094 0-5.62-.04-5.62-.094s2.522-.094 5.62-.094c3.099 0 5.617.037 5.617.094zm5.332 4.133c0 .05-3.711.093-8.286.093-4.576 0-8.287-.043-8.287-.093s3.711-.094 8.287-.094c4.575 0 8.286.043 8.286.093zm0 4.154c0 .05-3.711.093-8.286.093-4.576 0-8.287-.043-8.287-.093 0-.051 3.711-.094 8.287-.094 4.575 0 8.286.025 8.286.093zm0 4.121c0 .054-3.711.094-8.286.094-4.576 0-8.287-.04-8.287-.094s3.711-.094 8.287-.094c4.575 0 8.286.044 8.286.094zm0 4.14c0 .054-3.711.093-8.286.093-4.576 0-8.287-.04-8.287-.093 0-.054 3.711-.094 8.287-.094 4.575 0 8.286.043 8.286.094zm0 5.105c0 .05-3.711.093-8.286.093-4.576 0-8.287-.043-8.287-.093s3.711-.094 8.287-.094c4.575 0 8.286.058 8.286.094z" fill="#E0E0E0"/><path d="M173.174 26.9h-15.049c-.84 0-1.521.68-1.521 1.52v5.087c0 .84.681 1.52 1.521 1.52h15.049c.839 0 1.52-.68 1.52-1.52V28.42c0-.84-.681-1.52-1.52-1.52z" fill="#E0E0E0"/><path d="M163.677 30.668c0 .685-.515 1.11-1.336 1.11h-.617v.847h-.72v-3.073h1.326c.832 0 1.347.425 1.347 1.116zm-.72 0c0-.338-.22-.533-.653-.533h-.58v1.063h.58c.433-.004.653-.198.653-.53zm1.224-1.116h1.394c1.005 0 1.693.605 1.693 1.534 0 .93-.688 1.535-1.693 1.535h-1.394v-3.07zm1.358 2.485a.95.95 0 00.672-1.623.95.95 0 00-.672-.279h-.649v1.902h.649zm2.976-1.917v.811h1.42v.573h-1.42v1.117h-.72v-3.07h2.324v.57h-1.604z" fill="#fff"/><path d="M77.77 27.858h11.506V8.028H77.77v19.83zm-32.098.314h9.086V3.417h-9.086v24.755z" fill="#EBEBEB"/><path d="M45.567 5.204c0-.076 2.076-.137 4.64-.137 2.566 0 4.641.061 4.641.137 0 .076-2.079.14-4.64.14-2.562 0-4.64-.06-4.64-.14zm.501 1.175c0-.076 1.968-.137 4.392-.137 2.425 0 4.388.06 4.388.137 0 .075-1.967.14-4.388.14-2.42 0-4.392-.065-4.392-.14zm3.887 16.911c-.075 0-.137-3.279-.137-7.32 0-4.043.062-7.325.137-7.325.076 0 .123 3.289.123 7.324s-.047 7.32-.123 7.32zm-4.283 2.266c0-.076 1.992-.14 4.446-.14 2.453 0 4.45.064 4.45.14 0 .076-1.993.137-4.45.137s-4.446-.069-4.446-.137zm0 1.063c0-.08 2.043-.14 4.561-.14s4.558.06 4.558.14c0 .08-2.04.137-4.558.137s-4.561-.05-4.561-.137z" fill="#FAFAFA"/><path d="M54.755 28.172h7.299V.74h-7.3v27.432z" fill="#E0E0E0"/><path d="M54.708 13.34c.402.223.782.485 1.135.78l2.633 1.997 2.63 2.006c.38.258.734.552 1.056.88a6.752 6.752 0 01-1.17-.721 61.62 61.62 0 01-2.681-1.942 72.716 72.716 0 01-2.59-2.064 6.545 6.545 0 01-1.013-.937zm-.033-4.288c.047-.058 1.722 1.293 3.733 3.019 2.01 1.726 3.602 3.17 3.555 3.242-.047.072-1.722-1.293-3.732-3.019-2.01-1.726-3.606-3.192-3.556-3.242z" fill="#FAFAFA"/><path d="M23.029 28.193h3.49V2.063h-3.49v26.13z" fill="#EBEBEB"/><path d="M23.176 5.618c0 .09.72.166 1.635.166.916 0 1.636-.076 1.636-.166 0-.09-.72-.162-1.636-.162-.915 0-1.635.072-1.635.162zm-.071-.568c0 .093.72.165 1.635.165s1.636-.072 1.636-.166c0-.094-.72-.162-1.636-.162-.915 0-1.635.072-1.635.162zm.071 21.122c0 .09.72.162 1.635.162.916 0 1.636-.072 1.636-.162 0-.09-.72-.166-1.636-.166-.915 0-1.635.072-1.635.166zm-.071-.569c0 .09.72.162 1.635.162s1.636-.072 1.636-.162c0-.09-.72-.166-1.636-.166-.915 0-1.635.076-1.635.166zm1.775-3.415c.095 0 .167-2.99.167-6.684 0-3.692-.073-6.686-.166-6.686-.094 0-.162 2.994-.162 6.686 0 3.693.072 6.684.162 6.684z" fill="#FAFAFA"/><path d="M38.675 28.024h6.982V1.894h-6.982v26.13z" fill="#E0E0E0"/><path d="M43.694 28.359a.65.65 0 00.08-.14 7.591 7.591 0 00.706-2.208 4.615 4.615 0 00-.408-2.883 3.827 3.827 0 00-1.235-1.366 2.882 2.882 0 00-2.014-.46c-.384.06-.743.226-1.038.478a1.38 1.38 0 00-.515 1.096 1.574 1.574 0 00.598 1.11c.336.285.75.46 1.189.504a3.166 3.166 0 002.475-.901 3.963 3.963 0 001.229-2.522 6.643 6.643 0 00-.36-2.915 5.34 5.34 0 00-1.712-2.547 2.803 2.803 0 00-1.506-.594 1.973 1.973 0 00-1.553.565 1.29 1.29 0 00-.36.818c-.008.304.076.603.241.858.327.49.833.834 1.41.958a3.271 3.271 0 003.072-1.03 5.12 5.12 0 001.2-2.94 7.241 7.241 0 00-.303-3.052 4.218 4.218 0 00-1.801-2.32 3.092 3.092 0 00-2.774-.288 1.44 1.44 0 00-.904 1.063 1.69 1.69 0 00.32 1.318 2.162 2.162 0 002.35.613 4.091 4.091 0 001.873-1.308 5.937 5.937 0 001.39-3.585 5.764 5.764 0 00-.67-2.839 5.615 5.615 0 00-1.08-1.48 4.347 4.347 0 00-.36-.314.587.587 0 00-.138-.09 6.608 6.608 0 011.47 1.942 5.68 5.68 0 01.576 2.774 5.782 5.782 0 01-1.383 3.459 3.878 3.878 0 01-1.75 1.225 1.928 1.928 0 01-2.065-.545 1.415 1.415 0 01-.26-1.098 1.17 1.17 0 01.742-.854 2.821 2.821 0 012.523.284 3.927 3.927 0 011.66 2.162c.298.94.392 1.932.278 2.911a4.824 4.824 0 01-1.139 2.76 2.968 2.968 0 01-2.76.933 1.932 1.932 0 01-1.203-.818.998.998 0 01.076-1.272 1.642 1.642 0 011.311-.457c.487.04.95.222 1.333.526a5.044 5.044 0 011.61 2.392 6.39 6.39 0 01.361 2.778 3.664 3.664 0 01-1.124 2.334 2.884 2.884 0 01-2.248.843c-.767-.064-1.517-.648-1.564-1.354a1.129 1.129 0 01.411-.908c.26-.226.576-.376.915-.432a2.644 2.644 0 011.86.421 3.61 3.61 0 011.188 1.28c.432.844.586 1.803.44 2.74a8.317 8.317 0 01-.44 1.766 6.32 6.32 0 00-.22.609zm-17.225-.324H38.58v-23.8H26.47v23.8z" fill="#FAFAFA"/><path d="M26.884 8.19c0 .09 2.623.166 5.861.166 3.24 0 5.862-.075 5.862-.165 0-.09-2.623-.166-5.861-.166-3.24 0-5.862.076-5.862.166zm-.152 1.806c0 .09 2.59.162 5.787.162 3.195 0 5.79-.072 5.79-.162 0-.09-2.591-.166-5.79-.166-3.2 0-5.787.076-5.787.166zm-.389 15.347c0 .094 2.727.166 6.096.166 3.368 0 6.092-.072 6.092-.166 0-.093-2.727-.162-6.092-.162-3.365 0-6.096.083-6.096.162zm.162-2.118c0 .09 2.659.162 5.937.162 3.279 0 5.941-.072 5.941-.162 0-.09-2.659-.166-5.94-.166-3.283 0-5.938.076-5.938.166z" fill="#E0E0E0"/><path d="M62.043 27.858h6.982V1.728h-6.982v26.13z" fill="#EBEBEB"/><path d="M67.065 28.193a.777.777 0 00.08-.144c.05-.093.118-.241.198-.436a7.54 7.54 0 00.507-1.769c.179-.98.036-1.99-.407-2.882a3.862 3.862 0 00-1.239-1.365 2.882 2.882 0 00-2.01-.472 2.1 2.1 0 00-1.041.479 1.365 1.365 0 00-.498 1.102 1.581 1.581 0 00.595 1.117 2.16 2.16 0 001.192.508 3.184 3.184 0 002.475-.9 3.984 3.984 0 001.225-2.523 6.647 6.647 0 00-.36-2.914 5.404 5.404 0 00-1.711-2.547 2.796 2.796 0 00-1.51-.591 1.94 1.94 0 00-1.567.555 1.26 1.26 0 00-.36.818c-.01.302.072.6.237.853a2.28 2.28 0 001.413.977 3.29 3.29 0 003.087-1.045c.7-.83 1.12-1.86 1.196-2.944a7.223 7.223 0 00-.299-3.047 4.212 4.212 0 00-1.801-2.32 3.073 3.073 0 00-2.77-.292 1.466 1.466 0 00-.905 1.08 1.692 1.692 0 00.317 1.315 2.18 2.18 0 002.353.624 4.064 4.064 0 001.855-1.319 5.941 5.941 0 001.38-3.581 5.766 5.766 0 00-1.744-4.323 4.233 4.233 0 00-.36-.314.805.805 0 00-.133-.094 6.813 6.813 0 011.48 1.946 5.65 5.65 0 01.577 2.77 5.765 5.765 0 01-1.387 3.441 3.844 3.844 0 01-1.751 1.229 1.928 1.928 0 01-2.06-.544 1.402 1.402 0 01-.26-1.1 1.164 1.164 0 01.738-.85 2.789 2.789 0 012.5.285 3.909 3.909 0 011.665 2.162c.298.94.392 1.934.278 2.914a4.86 4.86 0 01-1.12 2.756 2.968 2.968 0 01-2.76.93 1.942 1.942 0 01-1.204-.814 1.005 1.005 0 01.076-1.275 1.654 1.654 0 011.308-.472 2.5 2.5 0 011.336.53 5.094 5.094 0 011.61 2.388c.325.889.448 1.839.36 2.781a3.682 3.682 0 01-1.123 2.335 2.882 2.882 0 01-2.234.84c-.767-.062-1.517-.65-1.564-1.355a1.127 1.127 0 01.408-.908c.261-.225.578-.375.918-.433a2.687 2.687 0 011.86.422c.493.324.9.763 1.188 1.279a4.53 4.53 0 01.433 2.77 8.188 8.188 0 01-.444 1.766 5.63 5.63 0 00-.223.601z" fill="#FAFAFA"/><path d="M13.326 27.858h9.702V.405h-9.702v27.453zm55.699 0h9.076V3.421h-9.076v24.437z" fill="#E0E0E0"/><path d="M78.331 15.605a7.49 7.49 0 001.441 1.027 5.046 5.046 0 001.827.504 4.685 4.685 0 002.266-.392c.764-.328 1.466-.746 2.162-.995a3.47 3.47 0 011.977-.18 2.11 2.11 0 011.16.688.86.86 0 01.227.436c-.025 0-.093-.151-.306-.36a2.162 2.162 0 00-1.11-.576 3.35 3.35 0 00-1.848.23c-.673.245-1.365.667-2.161 1.009a4.82 4.82 0 01-2.392.393 4.957 4.957 0 01-1.895-.588 4.287 4.287 0 01-1.06-.81 1.368 1.368 0 01-.288-.386zm-.205 2.418c.439.397.922.741 1.441 1.026a5.042 5.042 0 001.827.508 4.73 4.73 0 002.266-.396c.764-.328 1.466-.746 2.162-.99a3.405 3.405 0 011.977-.18c.447.1.849.343 1.146.691.117.12.195.274.223.44-.021 0-.09-.152-.306-.36a2.162 2.162 0 00-1.106-.577 3.384 3.384 0 00-1.848.23c-.677.249-1.365.667-2.162 1.01a4.8 4.8 0 01-4.29-.195 4.109 4.109 0 01-1.035-.811 1.294 1.294 0 01-.295-.396zm.151-7.826c0-.075 2.497-.14 5.577-.14s5.581.065 5.581.14c0 .076-2.497.137-5.58.137-3.085 0-5.578-.06-5.578-.136zm-4.111-2.842a1.297 1.297 0 00-.789-.065.948.948 0 00-.601.508.88.88 0 001.127 1.08.961.961 0 00.483-.633c.05-.265.017-.54-.093-.786 0 0 .086.033.172.17.112.198.152.428.116.652a1.132 1.132 0 01-.566.825 1.113 1.113 0 01-1.47-1.416 1.117 1.117 0 01.8-.595c.224-.045.456-.014.66.09.122.083.169.16.161.17zm-.587 18.053c-.076 0-.14-3.422-.14-7.648 0-4.226.064-7.653.14-7.653.076 0 .137 3.427.137 7.653 0 4.226-.061 7.648-.137 7.648z" fill="#FAFAFA"/><path d="M98.755 27.718H4.838v5.36h93.917v-5.36z" fill="#EBEBEB"/><path d="M98.755 27.718h-8.2v5.36h8.2v-5.36z" fill="#E0E0E0"/><path d="M103.478 27.307l-.44 36.896c-.075 6.276 1.081 15.492 11.018 15.178 8.589-.936 10.869-9.068 10.934-14.922.032-2.778.065-5.095.087-5.38 0 0 9.403-.767 10.195-10.054.386-4.49.422-13.8.361-22.219a17.367 17.367 0 00-16.105-17.178l-.893-.065c-9.738-.15-15.283 8.031-15.157 17.744z" fill="#FFBE9D"/><path d="M125.059 59.08s-5.887-.083-11.842-4.464c0 0 2.457 7.007 11.792 6.845l.05-2.381z" fill="#EB996E"/><path d="M119.734 30.61c-.184.188-1.258-.673-2.814-.72-1.556-.047-2.716.72-2.882.523-.079-.09.111-.433.619-.79a3.89 3.89 0 012.313-.655c.813.02 1.597.305 2.234.81.469.397.62.75.53.833zm-.328 3.222a1.263 1.263 0 01-1.305 1.178 1.213 1.213 0 01-.863-.36 1.193 1.193 0 01-.347-.869 1.256 1.256 0 011.3-1.178 1.211 1.211 0 01.866.359 1.212 1.212 0 01.349.87zm4.226 7.605c0-.083.897-.173 2.349-.249.36 0 .72-.06.8-.302.079-.242 0-.663-.166-1.081-.278-.908-.569-1.863-.876-2.857-1.21-4.068-2.057-7.396-1.891-7.443.166-.047 1.275 3.206 2.486 7.274l.829 2.882c.108.425.309.911.086 1.44a.925.925 0 01-.641.49c-.206.04-.415.055-.624.044-1.455-.057-2.352-.119-2.352-.198zM119.07 24.76c-.151.36-1.394.086-2.882.162-1.488.076-2.72.407-2.882.076-.076-.159.155-.48.663-.786a4.753 4.753 0 012.183-.616c.765-.04 1.527.11 2.22.436.518.267.763.566.698.728zm14.779 2.886c-.162.28-1.376-.033-2.85-.08-1.473-.046-2.691.145-2.846-.15-.068-.138.173-.39.688-.613a5.047 5.047 0 012.162-.36 5.24 5.24 0 012.161.532c.523.263.757.534.685.67z" fill="#000"/><path d="M103.737 34.246c-.154-.08-6.25-2.356-6.513 4.013-.263 6.37 6.189 5.322 6.207 5.138.018-.184.306-9.151.306-9.151z" fill="#FFBE9D"/><path d="M101.598 40.904c-.029-.022-.116.072-.307.151a1.106 1.106 0 01-.832 0c-.663-.274-1.185-1.365-1.167-2.522a3.69 3.69 0 01.36-1.578 1.272 1.272 0 01.865-.825.569.569 0 01.645.328c.079.184.032.31.065.32.032.011.14-.1.1-.36a.714.714 0 00-.234-.407.836.836 0 00-.609-.187 1.569 1.569 0 00-1.2.94 3.83 3.83 0 00-.457 1.758c0 1.287.598 2.522 1.506 2.818a1.179 1.179 0 001.023-.126c.213-.155.242-.3.242-.31z" fill="#EB996E"/><path d="M122.133 45.847c.069-.162-1.181-.533-2.057-1.704a7.196 7.196 0 01-.883-1.665c-.183-.46-.324-.753-.396-.72-.072.032-.047.331.054.835.135.674.415 1.31.822 1.863a3.8 3.8 0 001.628 1.247c.472.187.811.198.832.144zm25.814-27.381a1.496 1.496 0 00-.721-.876c-.721-.432-1.564-.36-2.374-.385a13.411 13.411 0 01-6.986-2.126 31.577 31.577 0 00-3.242-3.938c-2.818-2.903-5.134-4.878-7.53-5.843-3.099-1.247-8.287-1.755-11.529-.905-3.243.85-6.125 3.47-6.582 6.78-1.802-1.53-4.536-1.52-6.741-.633l-.058-.022c-2.435.876-3.83 3.473-4.55 5.98-.72 2.508-1.034 5.189-2.363 7.433-.278.472-.606 1.034-.36 1.524a1.037 1.037 0 001.08.472c.414-.09.805-.267 1.146-.519l-.822 1.971c.893.15 1.809.088 2.674-.18.522 2.345 1.145 5.022 1.747 6.611 1.03 0 1.971.072 2.605.641.857.775 1.243 2.23 2.673 1.68.721-.285 1.394-1.802 1.639-2.555a36.177 36.177 0 001.567-15.344 11.665 11.665 0 013.603-2.594l-.108.097c2.594-.9 5.53-1.801 7.995-.57 1.909.945 3.033 2.93 4.46 4.511a14.581 14.581 0 0010.394 4.8c.137 2.615-.083 6.311.054 8.927l2.19-4.176c.181-.306.332-.616.476-.926l.05-.093c.218-.514.462-1.015.732-1.503l.025.022c1.416 1.25 3.505-.663 2.385-2.187a3.748 3.748 0 00-.789-.793 2.583 2.583 0 002.464.638 2.034 2.034 0 001.441-2.003 1.713 1.713 0 00-1.03-1.384 5.842 5.842 0 003.315-.72c.648-.375 1.293-.987 1.07-1.812z" fill="#000"/><path d="M111.927 12.24a7.977 7.977 0 00-.929.85 6.644 6.644 0 00-1.442 3.088 11.617 11.617 0 00-.237 2.36c0 .857.064 1.772.129 2.738a23.85 23.85 0 01.072 3.048c-.03.54-.101 1.077-.212 1.607a3.339 3.339 0 01-.656 1.56 1.41 1.41 0 01-1.29.44 2.11 2.11 0 01-1.178-.667c-.598-.7-.746-1.582-.897-2.364l.198.026a7.896 7.896 0 01-1.131 1.945c-.452.547-1.097.9-1.801.984a1.767 1.767 0 01-.959-.166 1.55 1.55 0 01-.648-.641 1.584 1.584 0 01-.198-.825c.011-.268.117-.524.299-.721l.097.087a6.064 6.064 0 01-1.996 1.498 5.81 5.81 0 01-.62.238.877.877 0 01-.22.054 1.5 1.5 0 01.21-.086c.136-.058.342-.14.598-.27a6.178 6.178 0 001.927-1.521l.097.087a1.206 1.206 0 00-.061 1.383c.135.244.341.441.591.566.271.127.571.175.868.14a2.584 2.584 0 001.676-.933 7.674 7.674 0 001.08-1.906l.137-.299.062.324c.147.778.306 1.629.85 2.256.276.31.647.52 1.055.598a1.189 1.189 0 001.117-.36c.319-.423.527-.918.605-1.442.109-.519.179-1.045.209-1.574a25.346 25.346 0 00-.057-3.02c-.061-.965-.123-1.887-.112-2.752.006-.804.095-1.606.267-2.392a6.584 6.584 0 011.513-3.11c.279-.33.613-.61.987-.828zm28.743 9.04s-.022.025-.072.064l-.235.17a3.452 3.452 0 01-.392.252 5 5 0 01-.566.295 8.233 8.233 0 01-3.963.72 10.528 10.528 0 01-5.606-2.07c-1.855-1.334-3.487-3.3-4.817-5.552-.677-1.125-1.228-2.277-1.834-3.344a12.395 12.395 0 00-2.078-2.828 6.348 6.348 0 00-2.677-1.625 4.573 4.573 0 00-1.413-.162 4.785 4.785 0 00-1.289.249 5.353 5.353 0 00-2.987 2.521 6.364 6.364 0 00-.479 1.395.396.396 0 010-.098c0-.079.025-.172.043-.284.077-.364.198-.717.36-1.052a5.444 5.444 0 013.012-2.634c.43-.15.879-.24 1.333-.27a4.7 4.7 0 011.47.159 6.482 6.482 0 012.767 1.653 12.302 12.302 0 012.122 2.882c.616 1.081 1.167 2.223 1.838 3.337 1.318 2.233 2.925 4.179 4.748 5.501a10.447 10.447 0 005.498 2.079 8.313 8.313 0 003.93-.638c.443-.215.873-.455 1.287-.72z" fill="#2B3A8C"/><path d="M141.516 17.198a1.45 1.45 0 01-.331.23 6.755 6.755 0 01-.988.501 9.459 9.459 0 01-1.563.515c-.656.15-1.324.238-1.996.263a10.52 10.52 0 01-2.014-.137 9.452 9.452 0 01-1.589-.41 7.444 7.444 0 01-1.019-.436 1.537 1.537 0 01-.361-.21c0-.039.53.228 1.413.502.515.158 1.041.278 1.574.36.654.091 1.314.13 1.974.115a11.882 11.882 0 001.96-.241c.527-.116 1.045-.27 1.549-.462.876-.331 1.369-.626 1.391-.59z" fill="#2B3A8C"/><path d="M133.921 31.198c-.187.187-1.257-.677-2.813-.72-1.557-.044-2.721.72-2.883.522-.079-.09.112-.436.62-.79a3.881 3.881 0 012.313-.659 3.754 3.754 0 012.23.815c.468.392.634.75.533.832zm-1.589 3.073a1.254 1.254 0 01-1.304 1.178 1.208 1.208 0 01-.863-.357 1.19 1.19 0 01-.347-.868 1.264 1.264 0 011.322-1.17 1.209 1.209 0 011.192 1.217z" fill="#000"/><path d="M190.377 68.252c0-2.698-2.579-2.698-2.579-2.698-.984-1.294-2.09-.822-2.09-.822l-4.176 2.814c-.612 1.056-4.665 5.044-4.665 5.044-1.106-.821-1.106-2.464-2.428-4.46-1.323-1.996-4.324-1.758-4.324-1.758s2.335 5.278 2.58 8.564c.245 3.285-1.802 12.45-1.802 12.45l11.807 3.319s.745-5.044 2.068-5.433c1.592-.49 2.478-2.84 2.478-2.84 1.719-3.483 5.214-8.552 5.707-11.132.494-2.58-2.576-3.048-2.576-3.048z" fill="#FFBE9D"/><path d="M102.589 62.416c7.519 4.723 15.095 6.485 22.769 3.44l11.529 2.948 11.349 75.838-66.54.594 3.279-17.614 8.25-63.282 9.364-1.924z" fill="#2B3A8C"/><path d="M136.904 68.804s8.971 3.728 12.397 10.253c3.427 6.525 8.928 24.859 8.928 24.859l10.142-18.619 18.81 4.817s-14.008 38.636-17.524 42.152c-3.851 3.852-14.343 7.735-19.48 4.738-5.138-2.998-6.182-14.372-6.182-14.372l-7.091-53.828z" fill="#2B3A8C"/><path d="M137.514 100.522c-.051 0-.094-3.365-.094-7.519s.043-7.526.094-7.526c.05 0 .093 3.369.093 7.526 0 4.158-.039 7.519-.093 7.519zm3.512-27.384a10.13 10.13 0 01-.436 1.243c-.281.76-.659 1.801-1.023 3-.364 1.2-.655 2.27-.854 3.056-.085.43-.198.856-.338 1.272a1.152 1.152 0 01.036-.36c.032-.224.093-.548.176-.948a33.47 33.47 0 01.8-3.08 33.02 33.02 0 011.081-2.994c.155-.36.288-.678.389-.883.044-.109.101-.212.169-.306z" fill="#000"/><path d="M92.007 92.719l2.082-28.574S78.424 65.586 73.24 76.65c-4.366 9.313-16.425 37.332-17.715 41.166-3.79 11.247 2.119 26.7 26.52 25.817l2.782-15.294 7.18-35.62z" fill="#2B3A8C"/><path d="M74.469 131.546a1.44 1.44 0 01.126-.274l.396-.767c.36-.681.872-1.64 1.495-2.814l.501-.93c.171-.354.417-.668.72-.918.352-.25.777-.377 1.208-.361.439.02.874.091 1.297.213.906.237 1.785.569 2.622.991.447.221.868.489 1.258.799l.144.127a.524.524 0 01.126.194c.041.127.068.259.08.393.015.259.015.519 0 .778a29.96 29.96 0 01-.296 2.987c-.13.962-.278 1.88-.425 2.759a193.713 193.713 0 01-.843 4.648c-.256 1.322-.462 2.367-.61 3.124-.071.36-.125.637-.169.85a2.969 2.969 0 01-.06.295 1.192 1.192 0 01.024-.302c.026-.199.069-.487.134-.858l.55-3.134c.239-1.323.52-2.883.804-4.651.14-.876.285-1.802.415-2.757.13-.954.252-1.949.288-2.968.016-.25.016-.5 0-.75a1.512 1.512 0 00-.069-.36.286.286 0 00-.075-.119l-.137-.122a6.786 6.786 0 00-1.225-.782 13.378 13.378 0 00-2.58-.987 5.417 5.417 0 00-1.257-.213 1.806 1.806 0 00-1.11.306 2.616 2.616 0 00-.68.869l-.512.922-1.546 2.781-.428.753a2.228 2.228 0 01-.166.278z" fill="#000"/><path d="M63.138 117.952a.977.977 0 01.187 0l.526.018c.454.026 1.113.062 1.927.137.956.084 1.907.222 2.847.415 1.156.235 2.28.607 3.347 1.109a13.212 13.212 0 012.943 1.942 7.848 7.848 0 011.801 2.259c.3.58.483 1.213.54 1.863a3.41 3.41 0 010 .529.83.83 0 010 .181c-.02 0 0-.253-.067-.721a5.243 5.243 0 00-.588-1.801 7.936 7.936 0 00-1.783-2.191 13.338 13.338 0 00-2.911-1.902 14.838 14.838 0 00-3.3-1.11 28 28 0 00-2.821-.45c-.81-.094-1.47-.151-1.924-.195l-.523-.057a.656.656 0 01-.201-.026z" fill="#000"/><path d="M79.902 116.511a7.15 7.15 0 01-.389 1.124 66.02 66.02 0 01-1.128 2.638 852.898 852.898 0 00-1.174 2.626 9.426 9.426 0 01-.512 1.081c.094-.387.224-.765.39-1.128.266-.681.666-1.614 1.123-2.637.458-1.023.854-1.895 1.178-2.612.144-.376.315-.741.512-1.092zm8.668-22.488c-.054 0-.093-1.801-.093-4.046s.04-4.046.093-4.046c.054 0 .094 1.802.094 4.046 0 2.245-.036 4.046-.094 4.046z" fill="#000"/><path opacity=".3" d="M77.24 126.401c-4.122 1.441-6.907 5.177-8.035 9.396-.115.44-.194.962.101 1.311a1.037 1.037 0 001.294.109c.383-.278.698-.641.918-1.06 1.985-3.174 3.924-6.124 5.721-9.756zm-5.114-8.149c-2.161-1.2-4.633-1.712-7.093-1.863a10.78 10.78 0 00-2.883.252c-1.286.27-2.766.922-3.047 1.845 2.957-.926 7.313-.317 10.34.36a11.105 11.105 0 017.256 5.134 10.33 10.33 0 00-4.573-5.728z" fill="#000"/><path d="M86.264 81.853a2.676 2.676 0 01-.144-.45 27.335 27.335 0 00-.36-1.23 20.351 20.351 0 00-1.74-3.843 20.549 20.549 0 00-2.522-3.39c-.36-.4-.674-.721-.89-.923a2.268 2.268 0 01-.328-.36c.13.084.251.182.36.292.235.194.559.497.94.886a17.755 17.755 0 014.288 7.285c.127.41.233.828.317 1.25.044.157.071.32.08.483z" fill="#000"/><path d="M92.018 145.207l-17.441-42.123c-.796-1.924.201-3.48 2.233-3.48h3.51c1.44 0 2.41-.79 2.503-2.022l.116-1.549c.093-1.232 1.08-2.02 2.522-2.02h16.688a5.842 5.842 0 013.862 1.707l1.354 1.311a5.82 5.82 0 003.834 1.73h21.256c2.028 0 4.302 1.556 5.076 3.48l17.294 42.974-62.807-.008z" fill="#8CBF43"/><path opacity=".3" d="M92.018 145.207l-17.441-42.123c-.796-1.924.201-3.48 2.233-3.48h3.51c1.44 0 2.41-.79 2.503-2.022l.116-1.549c.093-1.232 1.08-2.02 2.522-2.02h16.688a5.842 5.842 0 013.862 1.707l1.354 1.311a5.82 5.82 0 003.834 1.73h21.256c2.028 0 4.302 1.556 5.076 3.48l17.294 42.974-62.807-.008z" fill="#000"/><path d="M89.132 130.904l-6.582-25.453c-.432-1.675.666-3.358 2.194-3.358h51.599a2.356 2.356 0 012.198 1.895l9.583 38.312c.421 1.682-.252 2.691-1.78 2.673h-51.92a2.349 2.349 0 01-2.161-1.88l-3.13-12.189z" fill="#E0E0E0"/><path d="M92.699 144.055l-2.803-40.081a2.457 2.457 0 012.45-2.63h53.468v42.711H92.699z" fill="#EBEBEB"/><path d="M92.1 144.973l6.363-41.323a2.956 2.956 0 012.907-2.306h54.085a2.914 2.914 0 012.471 1.294 2.924 2.924 0 01.26 2.777l-11.68 37.829-54.405 1.729z" fill="#FAFAFA"/><path d="M92.018 145.189l13.117-38.7a3.885 3.885 0 013.668-2.685h55.738a2.715 2.715 0 012.155 1.173 2.723 2.723 0 01.335 2.43l-12.199 37.8-62.814-.018z" fill="#8CBF43"/><path opacity=".3" d="M118.977 138.708s-2.104.097-3.077.162a28.595 28.595 0 01-13.546-2.403c-1.311-.584-2.698-1.409-3.098-2.788-.444-1.546.558-3.156 1.779-4.205 1.222-1.048 2.706-1.801 3.765-3.005 1.059-1.203 1.56-3.166.515-4.391l-.288.212c-.753 1.91-2.853 2.832-4.593 3.927a16.214 16.214 0 00-6.81 8.899c-.612 2.003-.774 4.323.44 6.046.861 1.214 2.273 1.902 3.668 2.417 4.218 1.564 8.726 1.625 13.225 1.628 1.42 0 5.765-.057 5.765-.057 1.372-.36 1.823-1.081 2.651-2.245.775-1.063.598-3.365-.396-4.197z" fill="#000"/><path d="M118.977 138.708l-14.54-2.187-5.65-3.242a2.566 2.566 0 01-1.297-2.054 2.58 2.58 0 011.6-2.507c1.801-.753 4.63-1.759 5.84-3.881 1.737-3.044 0-3.678 0-3.678l-12.145 4.856-8.596 5.851-1.733 9.767 11.994 3.917s13.366.753 17.055.338c3.689-.414 3.686-2.129 3.686-2.129.684-.216 2.071-1.441 2.071-2.565 1.802-1.679 1.715-2.472 1.715-2.472" fill="#FFBE9D"/><path d="M100.376 142.909c.203.016.404.054.598.115.382.09.933.213 1.618.36 3.573.713 7.238.851 10.855.411a36.227 36.227 0 001.639-.227c.2-.044.404-.065.609-.065a3.273 3.273 0 01-.591.162c-.382.09-.94.195-1.632.303a29.59 29.59 0 01-10.916-.425 21.634 21.634 0 01-1.607-.432 3.071 3.071 0 01-.573-.202zm1.33-2.248c.207.016.411.055.609.115.385.094.947.216 1.643.36 1.813.346 3.65.55 5.494.609a37.565 37.565 0 005.53-.256 39.199 39.199 0 001.665-.227c.202-.043.409-.067.616-.072a2.966 2.966 0 01-.598.166 21.36 21.36 0 01-1.661.306c-1.84.275-3.7.385-5.559.328a29.834 29.834 0 01-5.523-.684 18.845 18.845 0 01-1.632-.426 2.955 2.955 0 01-.584-.219z" fill="#EB996E"/><path d="M187.473 86.871l-25.839 5.106a3.296 3.296 0 01-3.87-2.584l-7.065-35.764a3.3 3.3 0 012.594-3.873l16.396-3.236 15.265 10.571 5.123 25.922a3.298 3.298 0 01-2.604 3.858z" fill="#EBEBEB"/><path d="M169.689 46.52l1.989 10.067a3.074 3.074 0 001.301 1.954 3.055 3.055 0 002.302.46l9.677-1.91-15.269-10.57z" fill="#F5F5F5"/><path d="M171.978 57.43s.36 2.464 3.292 2.72h.332c1.308-.022 9.918-.188 9.882-.36-.036-.173-.537-2.703-.537-2.703l-9.677 1.91s-2.431.385-3.292-1.567z" fill="#E0E0E0"/><path d="M187.473 86.871l.141-.04c.139-.033.275-.077.407-.133a3.27 3.27 0 002.043-3.483c-.188-1.049-.444-2.252-.721-3.603l-4.482-22.514.033.047-15.272-10.556h.068l-9.457 1.873-4.947.977-1.254.248a8.575 8.575 0 00-1.235.292 3.206 3.206 0 00-1.802 1.675 3.118 3.118 0 00-.259 1.712c.09.58.223 1.174.335 1.758l.688 3.487c.454 2.311.902 4.584 1.344 6.82l2.543 12.895c.404 2.058.798 4.06 1.182 6.006.191.972.378 1.934.566 2.882.093.472.184.94.277 1.405.066.46.176.912.328 1.35a3.242 3.242 0 001.884 1.802c.41.149.845.211 1.279.184.431-.049.86-.121 1.283-.216l4.878-.959 14.721-2.882 4.006-.77 1.041-.199.361-.061s-.119.032-.361.083l-1.041.212-3.999.807-14.71 2.937-4.856.969c-.428.1-.861.174-1.297.223a3.364 3.364 0 01-3.319-2.072 7.726 7.726 0 01-.36-1.38c-.09-.464-.184-.933-.277-1.404-.188-.944-.377-1.905-.57-2.883l-1.188-6.002-2.555-12.894c-.439-2.234-.888-4.507-1.347-6.82l-.66-3.477c-.111-.587-.245-1.163-.338-1.769a3.349 3.349 0 01.274-1.801 3.391 3.391 0 011.895-1.773 8.468 8.468 0 011.264-.299l1.254-.248 4.947-.977 9.457-1.866h.036l.032.022 15.262 10.581h.025v.029c1.834 9.367 3.354 17.117 4.413 22.531.26 1.355.512 2.555.692 3.603a3.29 3.29 0 01-2.104 3.517 2.438 2.438 0 01-.411.122l-.137.032z" fill="#000"/><path d="M184.948 57.077a1.46 1.46 0 01-.245.065l-.721.158-2.616.548-3.883.785-2.299.454a3.155 3.155 0 01-3.289-1.596 3.653 3.653 0 01-.386-1.2c-.155-.796-.306-1.563-.446-2.298-.281-1.46-.534-2.778-.75-3.891l-.486-2.627c-.054-.295-.094-.533-.126-.72a1.19 1.19 0 01-.029-.253c.03.08.053.162.068.245l.155.721.548 2.616c.227 1.088.493 2.428.789 3.883.148.721.299 1.5.457 2.295.054.4.176.788.361 1.146a2.972 2.972 0 003.098 1.506l2.295-.443 3.891-.746 2.63-.49.721-.122c.086-.022.174-.034.263-.036zm-13.979-1.492c0 .05-3.034.695-6.798 1.441-3.765.746-6.824 1.304-6.846 1.254-.021-.05 3.034-.695 6.799-1.441 3.765-.746 6.834-1.312 6.845-1.254zm7.458 3.743c0 .05-4.482.98-10.031 2.075-5.548 1.096-10.058 1.946-10.087 1.896-.029-.05 4.482-.98 10.033-2.08 5.552-1.098 10.074-1.941 10.085-1.89zm.99 5.022c0 .051-4.482.98-10.03 2.076-5.549 1.095-10.059 1.945-10.088 1.895-.029-.05 4.482-.984 10.034-2.079 5.552-1.095 10.084-1.946 10.084-1.891zm-19.095 8.99c0-.05 4.482-.98 10.03-2.076 5.549-1.095 10.059-1.945 10.07-1.895.011.05-4.482.98-10.034 2.079-5.551 1.099-10.066 1.942-10.066 1.892zm21.081 1.051c0 .05-4.482.98-10.031 2.076-5.548 1.095-10.058 1.945-10.069 1.895-.011-.05 4.482-.98 10.03-2.08 5.548-1.098 10.059-1.94 10.07-1.89zm.99 5.023c0 .05-4.482.98-10.03 2.075-5.549 1.095-10.059 1.945-10.07 1.895-.011-.05 4.482-.984 10.034-2.079 5.552-1.095 10.055-1.942 10.066-1.891z" fill="#000"/><path d="M169.737 72.894l-18.962 3.745a1.52 1.52 0 00-1.197 1.786l1.358 6.878a1.52 1.52 0 001.786 1.197l18.963-3.745a1.521 1.521 0 001.197-1.786l-1.358-6.878a1.521 1.521 0 00-1.787-1.197z" fill="#1C75BB"/><path d="M155.297 79.072l1.693-.336c1.218-.241 2.198.328 2.421 1.441.224 1.114-.468 2.029-1.686 2.27l-1.693.335-.735-3.71zm2.244 2.69a1.178 1.178 0 10-.454-2.309l-.789.155.458 2.31.785-.155zm2.285-1.652a2.078 2.078 0 01.792-2.2 2.083 2.083 0 111.629 3.727 1.966 1.966 0 01-2.115-.793 1.953 1.953 0 01-.306-.735zm3.206-.631a1.192 1.192 0 00-2.155-.373 1.187 1.187 0 00.541 1.744c.215.09.452.114.681.07a1.16 1.16 0 00.958-.962 1.16 1.16 0 00-.025-.48zm1.286-.256a2.087 2.087 0 013.303-1.967l-.454.609a1.226 1.226 0 00-1.023-.253 1.219 1.219 0 00-.956.955 1.221 1.221 0 00.516 1.248 1.215 1.215 0 00.912.182 1.21 1.21 0 00.847-.626l.656.4a2.094 2.094 0 01-2.087.978 2.087 2.087 0 01-1.718-1.537l.004.01z" fill="#fff"/><path d="M183.409 60.254s1.909-2.414 3.379-1.08c1.47 1.332 1.045 2.046-.36 4.179 0 0 3.12-.163 2.118 3.04 0 0 3.109-.36 2.81 2.28 0 0 2.349 2.296 1.128 3.777-1.221 1.48-5.649 4.154-6.766 3.692-1.117-.46-1.128-2.042-1.128-2.042s-1.329-.598-1.697-1.3c-.367-.703.263-1.683.263-1.683s-1.12-1.146-1.397-1.467c-.278-.32.151-1.801.151-1.801l1.801-1.737s-2.464 1.081-2.979.663c-.515-.418-1.081-.764-.544-1.506.537-.742 2.522-2.414 2.522-2.414l.699-2.6z" fill="#FFBE9D"/><path d="M184.847 74.301a8.53 8.53 0 01.81-.98 9.305 9.305 0 012.277-2.085c.889-.49 1.744-1.04 2.558-1.647.595-.494.829-.926.872-.897.043.029-.144.497-.72 1.052-.577.555-1.532 1.124-2.522 1.74a11.467 11.467 0 00-2.285 1.978 3.948 3.948 0 01-.99.84zm-1.727-2.705c-.057-.058 1.081-1.294 2.558-2.76.721-.72 1.373-1.441 1.917-1.855.268-.265.597-.46.958-.57.022.04-.335.26-.818.72-.482.462-1.098 1.175-1.848 1.907-1.47 1.473-2.709 2.615-2.767 2.558zm.588-5.469c-.057-.076.649-.638 1.441-1.384.793-.745 1.189-1.538 1.265-1.51.076.03-.22.941-1.056 1.723-.835.782-1.617 1.225-1.65 1.17z" fill="#EB996E"/><path d="M183.409 60.247a.58.58 0 01-.029.18l-.122.508c-.122.48-.291 1.128-.504 1.942a79.35 79.35 0 00-1.204 1.08c-.486.433-.931.91-1.329 1.424a.762.762 0 00-.137.45.723.723 0 00.241.422c.139.129.286.25.44.36a.653.653 0 00.497.097 9.536 9.536 0 002.418-.749l.576-.238-.447.436-1.783 1.74.029-.036a2.266 2.266 0 00-.094 1.802 5.1 5.1 0 001.412 1.44l.123.09-.116.185c-.392.46-.666 1.189-.158 1.635a6.61 6.61 0 001.693 1.157l-.212.115v-.043c.039.043-.083-.105.086.126.404-.191.115-.08.206-.108v.216a2.595 2.595 0 00.187.865c.073.177.181.339.317.475a.878.878 0 00.461.263c.405.01.807-.068 1.178-.23.401-.151.792-.327 1.171-.526a19.411 19.411 0 002.086-1.261 12.45 12.45 0 001.823-1.495c.267-.246.435-.58.472-.94a2.27 2.27 0 00-.191-1.05 5.996 5.996 0 00-1.228-1.8l-.044-.047v-.069a2.25 2.25 0 00-.104-1.023 1.512 1.512 0 00-.631-.742 3.334 3.334 0 00-1.92-.36h-.18l.043-.177c.047-.195.101-.386.141-.577.033-.189.049-.38.047-.572a1.614 1.614 0 00-.321-1.016 2.35 2.35 0 00-1.859-.72h-.209l.112-.174c.362-.531.695-1.082.998-1.65.132-.254.218-.53.255-.814a1.318 1.318 0 00-.162-.753 3.346 3.346 0 00-.98-1.08 1.44 1.44 0 00-1.167-.12 3.868 3.868 0 00-1.441.908c-.148.133-.252.245-.324.317-.072.072-.108.112-.116.108a.516.516 0 01.09-.13c.065-.079.163-.198.303-.36.175-.178.363-.343.562-.493.27-.212.575-.375.901-.483a1.56 1.56 0 011.275.104l.299.22.27.26c.191.188.356.401.49.634.148.259.215.556.191.854a2.489 2.489 0 01-.263.879c-.3.577-.633 1.136-.998 1.675l-.097-.17a3.25 3.25 0 011.081.155c.379.115.716.338.969.642.253.332.388.739.382 1.156a3.71 3.71 0 01-.047.623c-.04.202-.097.404-.144.613l-.137-.166a3.583 3.583 0 012.09.393c.337.2.598.507.742.872.133.37.177.766.13 1.156l-.04-.115c.543.54.981 1.175 1.293 1.873.169.372.243.779.216 1.186a1.726 1.726 0 01-.172.609c-.1.18-.221.349-.361.5a12.356 12.356 0 01-1.866 1.539c-.678.472-1.386.9-2.118 1.282-.39.205-.792.386-1.204.54a3.065 3.065 0 01-1.326.25 1.473 1.473 0 01-1.005-.92 2.663 2.663 0 01-.176-.637c0-.108-.025-.216-.029-.324v-.27c.086-.033-.198.079.205-.112.17.23.047.083.083.126v.086l-.021.216-.188-.1a6.803 6.803 0 01-1.772-1.225 1.405 1.405 0 01-.307-.487 1.16 1.16 0 01-.021-.576c.079-.354.246-.682.486-.955l.022.21a5.246 5.246 0 01-1.488-1.546 1.839 1.839 0 01-.166-1.056c.036-.34.124-.674.263-.987v-.022h.018l1.801-1.73.13.195a9.402 9.402 0 01-2.497.746.876.876 0 01-.644-.148 5.029 5.029 0 01-.451-.385.901.901 0 01-.295-.548.908.908 0 01.173-.569c.414-.523.877-1.006 1.383-1.441.447-.404.858-.76 1.225-1.08l-.018.032c.238-.825.429-1.47.562-1.939.065-.201.115-.36.155-.497a.837.837 0 01.061-.126z" fill="#EB996E"/><path d="M52.2 79.666H29.97a2.779 2.779 0 01-2.78-2.781V46.117a2.781 2.781 0 012.78-2.781h14.098l10.913 11.248v22.3a2.781 2.781 0 01-2.781 2.782z" fill="#EBEBEB"/><path d="M44.068 43.35v8.647a2.587 2.587 0 002.587 2.587h8.326L44.068 43.35z" fill="#F5F5F5"/><path d="M44.18 52.768s-.108 2.1 2.285 2.792c.09.026.181.046.273.061 1.081.195 8.243 1.47 8.243 1.304v-2.327h-8.325s-2.08-.072-2.476-1.83z" fill="#E0E0E0"/><path d="M52.2 79.666s.165 0 .479-.054a2.791 2.791 0 001.26-.587 2.75 2.75 0 00.999-1.964V73.96c0-4.658 0-11.323-.033-19.376l.022.055-10.92-11.241.065.029H30.597a6.969 6.969 0 00-1.08.04 2.687 2.687 0 00-2.238 2.456V76.24c-.021.39-.005.783.05 1.17a2.717 2.717 0 001.258 1.802c.314.19.663.312 1.027.36.36.031.72.04 1.08.03h4.194l12.664.028 3.444.018h1.2-1.2l-3.444.018-12.664.029h-4.193c-.372.01-.743 0-1.114-.029a2.857 2.857 0 01-2.42-2.266 6.761 6.761 0 01-.055-1.204v-30.27c.037-.527.22-1.034.53-1.463a2.861 2.861 0 011.866-1.167 7.064 7.064 0 011.099-.04h13.507l.029.026L55.041 54.54l.022.022v.032c0 8.053-.026 14.718-.036 19.376v3.106a2.77 2.77 0 01-2.324 2.568 1.664 1.664 0 01-.505.022z" fill="#000"/><path d="M54.982 54.598a.749.749 0 01-.213.018l-.616.018-2.255.029-3.344.021h-1.977a2.695 2.695 0 01-2.48-1.87 3.19 3.19 0 01-.122-1.062v-5.321c0-.962.026-1.697.033-2.256v-.612a.75.75 0 010-.213c.014.07.02.141.018.213v.612c0 .559 0 1.322.029 2.256.028.933 0 2.093.021 3.346v1.975c-.02.34.02.68.12 1.005.102.332.275.638.507.897a2.485 2.485 0 001.801.847h5.318l2.255.032.617.018a.75.75 0 01.288.047zm-11.335-3.52c0 .05-2.627.094-5.862.094-3.235 0-5.865-.043-5.865-.094 0-.05 2.623-.094 5.865-.094 3.243 0 5.862.04 5.862.094zm5.566 4.32c0 .05-3.873.093-8.646.093-4.774 0-8.647-.043-8.647-.093s3.87-.094 8.647-.094 8.646.04 8.646.094zm0 4.32c0 .05-3.873.093-8.646.093-4.774 0-8.647-.043-8.647-.093 0-.051 3.87-.094 8.647-.094s8.646.04 8.646.093zm0 4.319c0 .05-3.873.094-8.646.094-4.774 0-8.647-.043-8.647-.094 0-.05 3.87-.094 8.647-.094s8.646.04 8.646.094zm0 4.32c0 .05-3.873.094-8.646.094-4.774 0-8.647-.044-8.647-.094s3.87-.094 8.647-.094 8.646.043 8.646.094zm0 4.32c0 .05-3.873.093-8.646.093-4.774 0-8.647-.043-8.647-.093s3.87-.094 8.647-.094 8.646.043 8.646.094z" fill="#000"/><path d="M39.565 65.2H23.724c-.84 0-1.52.682-1.52 1.521v5.444c0 .84.68 1.52 1.52 1.52h15.84c.84 0 1.521-.68 1.521-1.52v-5.444c0-.84-.68-1.52-1.52-1.52z" fill="#28A8DF"/><path d="M29.597 69.124c0 .72-.537 1.16-1.39 1.16h-.65v.883h-.742v-3.203h1.391c.854 0 1.39.443 1.39 1.16zm-.753 0c0-.36-.227-.558-.681-.558h-.605v1.113h.605c.454 0 .68-.205.68-.555zm1.278-1.16h1.441c1.049 0 1.77.63 1.77 1.603s-.721 1.6-1.77 1.6h-1.44v-3.203zm1.42 2.594a.996.996 0 00.741-1.716.995.995 0 00-.741-.269h-.678v1.985h.678zm3.105-1.999v.846h1.481V70h-1.48v1.167h-.743v-3.203h2.421v.595h-1.679z" fill="#fff"/><path d="M38.041 130.382H16.064a2.75 2.75 0 01-2.749-2.749V97.19a2.75 2.75 0 012.731-2.753h13.95l10.808 11.129v22.067a2.754 2.754 0 01-2.763 2.749z" fill="#EBEBEB"/><path d="M29.996 94.437v8.568a2.558 2.558 0 002.558 2.561h8.24L29.996 94.437z" fill="#F5F5F5"/><path d="M30.108 103.758s-.108 2.078 2.256 2.759a1.8 1.8 0 00.273.062c1.081.194 8.157 1.441 8.157 1.289v-2.302h-8.24s-2.057-.068-2.446-1.808z" fill="#E0E0E0"/><path d="M38.04 130.382s.166 0 .476-.054a2.731 2.731 0 001.247-.584 2.695 2.695 0 00.983-1.938v-3.069c0-4.608 0-11.201-.032-19.171l.022.054-10.809-11.118.065.025h-13.33a7.308 7.308 0 00-1.056.04 2.677 2.677 0 00-1.729 1.08 2.641 2.641 0 00-.486 1.355v29.993c-.02.388-.001.776.054 1.161a2.67 2.67 0 002.259 2.125c.359.031.72.041 1.08.029h4.154l12.527.029 3.405.018h1.189-4.594l-12.545.108h-4.154a9.655 9.655 0 01-1.102-.025 2.822 2.822 0 01-1.08-.361 2.844 2.844 0 01-1.323-1.869 6.594 6.594 0 01-.054-1.189V96.988a2.846 2.846 0 012.37-2.601c.36-.04.72-.055 1.081-.043h13.374l.029.028 10.786 11.137.022.021v.033c0 7.969-.025 14.562-.032 19.17v3.073a2.782 2.782 0 01-1.027 1.974 2.693 2.693 0 01-1.272.566c-.119.024-.24.035-.36.032l-.137.004z" fill="#000"/><path d="M40.794 105.566a.76.76 0 01-.212.018l-.591.022-2.23.029-3.311.021h-1.975a2.626 2.626 0 01-1.91-.897 2.587 2.587 0 01-.54-.951 3.138 3.138 0 01-.122-1.052v-5.263c0-.948.025-1.68.032-2.234v-.606a.85.85 0 01.022-.212.94.94 0 010 .212v.606c0 .555 0 1.311.029 2.234.029.922 0 2.067.021 3.307v1.956c-.02.336.02.672.116.994a2.484 2.484 0 002.28 1.723h1.95l3.31.021 2.23.029h.61c.098 0 .197.015.291.043zm-11.216-3.484c0 .054-2.597.094-5.8.094s-5.8-.04-5.8-.094 2.597-.079 5.8-.079 5.8.029 5.8.079zm5.506 4.277c0 .05-3.83.093-8.554.093-4.723 0-8.553-.043-8.553-.093 0-.051 3.83-.094 8.553-.094 4.724 0 8.553.04 8.553.094zm0 4.291c0 .05-3.83.093-8.554.093-4.723 0-8.553-.061-8.553-.093 0-.033 3.83-.094 8.553-.094 4.724 0 8.553.022 8.553.094zm0 4.255c0 .05-3.83.093-8.554.093-4.723 0-8.553-.025-8.553-.093 0-.069 3.83-.094 8.553-.094 4.724 0 8.553.043 8.553.094zm0 4.272c0 .054-3.83.094-8.554.094-4.723 0-8.553-.04-8.553-.094s3.83-.093 8.553-.093c4.724 0 8.553.043 8.553.093zm0 4.277c0 .05-3.83.094-8.554.094-4.723 0-8.553-.044-8.553-.094 0-.051 3.83-.094 8.553-.094 4.724 0 8.553.04 8.553.094z" fill="#000"/><path d="M25.525 116.057H9.885c-.84 0-1.52.681-1.52 1.521v5.353c0 .84.68 1.521 1.52 1.521h15.64c.84 0 1.52-.681 1.52-1.521v-5.353c0-.84-.68-1.521-1.52-1.521z" fill="#8CBF43"/><path d="M15.675 119.941c0 .721-.53 1.146-1.376 1.146h-.638v.875h-.72v-3.17h1.372c.818 0 1.362.44 1.362 1.149zm-.742 0c0-.36-.227-.551-.674-.551h-.598v1.099h.598c.447 0 .674-.202.674-.548zm4.013 0c0 .721-.53 1.146-1.376 1.146h-.637v.875h-.721v-3.17h1.373c.832 0 1.361.44 1.361 1.149zm-.742 0c0-.36-.227-.551-.674-.551h-.598v1.099h.599c.446 0 .673-.202.673-.548zm1.834-.551h-1.015v-.598h2.763v.598h-1.013v2.572h-.72l-.015-2.572z" fill="#fff"/><path d="M81.285 43.426h-21.84a2.734 2.734 0 01-2.734-2.735V10.428a2.734 2.734 0 012.734-2.72h13.86L84.02 18.779v21.927a2.734 2.734 0 01-2.735 2.72z" fill="#EBEBEB"/><path d="M73.291 7.708v8.513a2.543 2.543 0 002.544 2.558h8.185L73.291 7.708z" fill="#F5F5F5"/><path d="M73.402 16.978s-.108 2.068 2.245 2.745c.086.025.176.043.266.062 1.081.19 8.106 1.44 8.106 1.278V18.78h-8.185s-2.043-.083-2.432-1.801z" fill="#E0E0E0"/><path d="M81.285 43.426s.162 0 .472-.058a2.77 2.77 0 001.24-.576 2.72 2.72 0 00.98-1.931v-3.048c0-4.58-.019-11.13-.033-19.048l.022.054L73.229 7.773l.065.025H60.05a7.12 7.12 0 00-1.052.04 2.634 2.634 0 00-1.715 1.08c-.283.395-.45.86-.482 1.344v29.806c-.018.384-.001.769.05 1.15a2.666 2.666 0 002.248 2.114c.36.029.72.037 1.081.025h4.125l12.448.03h4.565-1.182l-3.383.017-12.448.029H60.18c-.36.01-.721 0-1.08-.029a2.857 2.857 0 01-1.082-.36 2.82 2.82 0 01-1.311-1.86 6.482 6.482 0 01-.058-1.177V10.24a2.777 2.777 0 01.52-1.44 2.817 2.817 0 011.837-1.146c.358-.041.72-.056 1.08-.043h13.28l.025.029L84.11 18.704l.021.025v.05c0 7.926-.025 14.469-.032 19.048 0 1.146 0 2.162-.018 3.055a2.738 2.738 0 01-2.645 2.558l-.151-.014z" fill="#000"/><path d="M84.02 18.78a.817.817 0 01-.213.02h-.602l-2.215.033-3.29.018h-1.945a2.614 2.614 0 01-1.899-.89 2.646 2.646 0 01-.537-.947 2.993 2.993 0 01-.119-1.045v-1.942c0-1.232 0-2.345.022-3.29.022-.943.022-1.667.029-2.215v-.601a.748.748 0 01.018-.213.75.75 0 010 .213c0 .158 0 .36.018.601 0 .548.018 1.3.029 2.216.01.915 0 2.057.021 3.29v1.941c-.02.333.017.667.112.987a2.472 2.472 0 002.266 1.712h1.938l3.29.021 2.215.029h.602c.088.012.175.033.26.061zm-11.144-3.474c0 .05-2.58.094-5.764.094-3.185 0-5.764-.043-5.764-.094 0-.05 2.583-.093 5.764-.093s5.764.04 5.764.093zm5.474 4.244c0 .054-3.809.094-8.5.094-4.69 0-8.502-.04-8.502-.094s3.804-.094 8.502-.094 8.5.044 8.5.094zm0 4.248c0 .05-3.809.094-8.5.094-4.69 0-8.502-.044-8.502-.094s3.804-.094 8.502-.094 8.5.043 8.5.094zm0 4.248c0 .05-3.809.093-8.5.093-4.69 0-8.502-.043-8.502-.093s3.804-.094 8.502-.094 8.5.04 8.5.094zm0 4.244c0 .054-3.809.093-8.5.093-4.69 0-8.502-.04-8.502-.093 0-.054 3.804-.094 8.502-.094s8.5.043 8.5.094zm0 4.247c0 .054-3.809.094-8.5.094-4.69 0-8.502-.043-8.502-.094 0-.05 3.804-.093 8.502-.093s8.5.043 8.5.093z" fill="#000"/><path d="M68.838 29.188h-15.52c-.84 0-1.521.68-1.521 1.52v5.3c0 .84.68 1.52 1.52 1.52h15.52c.84 0 1.521-.68 1.521-1.52v-5.3c0-.84-.68-1.52-1.52-1.52z" fill="#8CBF43"/><path d="M58.321 35.053l-.76-1.08-.75 1.08h-.835l1.163-1.603-1.106-1.55h.829l.72 1.024.721-1.023h.782l-1.081 1.52 1.174 1.632h-.857zm1.124-3.153h.72v2.559h1.579v.594h-2.299V31.9zm2.457 2.843l.249-.551a1.83 1.83 0 001.037.328c.433 0 .61-.144.61-.335 0-.591-1.834-.188-1.834-1.359 0-.533.432-.98 1.329-.98.38-.006.753.091 1.08.281l-.226.552a1.802 1.802 0 00-.872-.249c-.432 0-.598.166-.598.36 0 .584 1.83.18 1.83 1.34 0 .527-.436.977-1.337.977a2.238 2.238 0 01-1.268-.364z" fill="#fff"/><path d="M216.454 134.655h-22.201a2.779 2.779 0 01-2.777-2.778v-30.731a2.777 2.777 0 012.777-2.778h14.08l10.898 11.233v22.276a2.776 2.776 0 01-2.777 2.778z" fill="#EBEBEB"/><path d="M208.333 98.368v8.647c0 .685.272 1.342.757 1.826a2.58 2.58 0 001.826.757h8.315l-10.898-11.23z" fill="#F5F5F5"/><path d="M208.445 107.768s-.108 2.1 2.281 2.788c.088.026.179.046.27.061 1.081.195 8.236 1.467 8.236 1.301v-2.324h-8.315s-2.079-.061-2.472-1.826z" fill="#E0E0E0"/><path d="M216.454 134.655s.165 0 .479-.058a2.76 2.76 0 002.255-2.547v-3.095c0-4.654 0-11.309-.032-19.354l.021.054-10.905-11.222.065.025H194.88c-.361-.013-.722 0-1.081.04a2.685 2.685 0 00-1.743 1.08c-.289.4-.459.874-.494 1.366v30.281c-.019.39-.001.781.054 1.167a2.71 2.71 0 002.281 2.162c.36.043.72.022 1.08.029h4.194l12.646.032h4.637-1.2l-3.437.018-12.646.029h-4.194c-.37.01-.74 0-1.109-.029a2.849 2.849 0 01-2.418-2.262 6.508 6.508 0 01-.054-1.2v-30.227a2.831 2.831 0 01.526-1.463 2.883 2.883 0 011.867-1.164 7.64 7.64 0 011.08-.043h13.489l.025.029 10.892 11.241.021.025v.029c0 8.045-.025 14.699-.032 19.354v3.098a2.79 2.79 0 01-2.32 2.569c-.12.02-.24.031-.361.032l-.129.004z" fill="#000"/><path d="M219.231 109.601a.826.826 0 01-.216.022h-.613l-2.251.032-3.34.018h-1.974a2.674 2.674 0 01-2.476-1.866 3.187 3.187 0 01-.122-1.059v-1.974c0-1.251 0-2.382.018-3.34.018-.959.022-1.697.029-2.252 0-.252 0-.454.018-.612a.872.872 0 01.021-.216 1.3 1.3 0 010 .216l.018.612c0 .555 0 1.319.029 2.252.029.933 0 2.089.022 3.34v1.974c-.02.338.019.677.115 1.001a2.505 2.505 0 002.31 1.741h1.97l3.34.021 2.252.029.612.018c.081.008.16.022.238.043zm-11.319-3.516c0 .054-2.623.094-5.855.094-3.231 0-5.858-.04-5.858-.094s2.623-.094 5.858-.094c3.236 0 5.855.044 5.855.094zm5.559 4.316c0 .051-3.869.094-8.647.094-4.777 0-8.646-.043-8.646-.094 0-.05 3.866-.094 8.646-.094 4.781 0 8.647.04 8.647.094zm0 4.313c0 .054-3.869.093-8.647.093-4.777 0-8.646-.039-8.646-.093s3.866-.094 8.646-.094c4.781 0 8.647.043 8.647.094zm0 4.316c0 .05-3.869.093-8.647.093-4.777 0-8.646-.043-8.646-.093 0-.051 3.866-.094 8.646-.094 4.781 0 8.647.04 8.647.094zm0 4.312c0 .054-3.869.094-8.647.094-4.777 0-8.646-.04-8.646-.094s3.866-.093 8.646-.093c4.781 0 8.647.043 8.647.093zm0 5.322c0 .054-3.869.093-8.647.093-4.777 0-8.646-.039-8.646-.093 0-.055 3.866-.094 8.646-.094 4.781 0 8.647.043 8.647.094z" fill="#000"/><path d="M203.834 120.19h-15.817a1.52 1.52 0 00-1.52 1.52v5.433c0 .84.681 1.521 1.52 1.521h15.817a1.52 1.52 0 001.52-1.521v-5.433a1.52 1.52 0 00-1.52-1.52z" fill="#8CBF43"/><path d="M188.68 122.953h1.441c1.048 0 1.765.631 1.765 1.603 0 .973-.72 1.6-1.765 1.6h-1.441v-3.203zm1.419 2.594a.985.985 0 00.742-.269 1 1 0 00.312-.723.994.994 0 00-1.054-.993h-.677v1.985h.677zm2.159-.991a1.758 1.758 0 012.956-1.376 1.753 1.753 0 01-1.205 3.03 1.656 1.656 0 01-1.751-1.654zm2.752 0a.996.996 0 00-.633-.909.998.998 0 00-1.352.743.997.997 0 00.43 1.022c.164.109.357.167.554.168a.979.979 0 00.723-.295.982.982 0 00.278-.729zm1.106 0a1.765 1.765 0 013.055-1.08l-.475.439a1.031 1.031 0 00-.807-.36 1.024 1.024 0 00-.966 1.025 1.029 1.029 0 00.966 1.025 1.04 1.04 0 00.807-.379l.475.436a1.756 1.756 0 01-3.055-1.08v-.026zm5.505 1.586l-.771-1.081-.76 1.081h-.858l1.182-1.629-1.124-1.574h.843l.721 1.037.72-1.037h.8l-1.117 1.545 1.218 1.658h-.854z" fill="#fff"/><path d="M240.564 145.207c0 .051-53.854.094-120.275.094-66.42 0-120.289-.043-120.289-.094 0-.05 53.843-.093 120.289-.093s120.275.043 120.275.093z" fill="#000"/></g><defs><clipPath id="clip0"><path fill="#fff" transform="translate(0 .405)" d="M0 0h245.254v145.595H0z"/></clipPath></defs></svg>