<svg width="425" height="280" fill="none" xmlns="http://www.w3.org/2000/svg"><path d="M165.868 259.875v14.384h44.233v-14.384h-44.233z" fill="#F5F5F5"/><path d="M164.013 255.851v4.024h47.634v-4.024h-47.634z" fill="#E0E0E0"/><path d="M187.83 274.259h22.271v-14.384h1.546v-4.024h-24.744v3.649l.927 14.759zm-6.806-12.066h-8.969v2.163h8.969v-2.163z" fill="#E0E0E0"/><path d="M182.421 267.067h-11.519v4.57h11.519v-4.57z" fill="#fff"/><path d="M169.933 241.484v14.384h44.234v-14.384h-44.234z" fill="#F5F5F5"/><path d="M168.079 237.461v4.023h47.633v-4.023h-47.633z" fill="#E0E0E0"/><path d="M191.895 255.868h22.272v-14.384h1.545v-4.023h-24.744v3.649l.927 14.758zm-6.805-12.066h-8.969v2.164h8.969v-2.164z" fill="#E0E0E0"/><path d="M186.487 248.676h-11.519v4.571h11.519v-4.571z" fill="#fff"/><path d="M20.209 171.562s-2.312 1.747-2.312 4.065v11.84H35.18v-12.369s-.243-3.037-2.27-3.536H20.209z" fill="#F5F5F5"/><path d="M19.222 186.825a33.575 33.575 0 01-.255-3.643 2.933 2.933 0 012.02-2.681c.916-.25 1.867.083 2.8.238a7.414 7.414 0 004.464-.642c1.188-.594 2.235-1.486 3.53-1.605.85-.077 1.831.321 2.063 1.141.084.392.084.797 0 1.189-.28 1.825.077 4.089.077 5.843-4.832.226-9.843.065-14.681.172m-2.425 2.3l2.603-1.67h15.763l2.532 1.67H16.815z" fill="#E0E0E0"/><path d="M16.328 150.622v17.623h21.397v20.898h-20.91v5.005h36.043v-43.526a3.748 3.748 0 00-2.314-3.471 3.748 3.748 0 00-1.436-.286H20.084a3.758 3.758 0 00-3.756 3.757z" fill="#F5F5F5"/><path d="M52.858 151.02c0 .083-8.178.154-18.265.154s-18.265-.071-18.265-.154 8.178-.155 18.265-.155c10.086 0 18.265.072 18.265.155z" fill="#E0E0E0"/><path d="M42.718 194.148c-.083 0-.155-10.556-.155-23.579 0-13.023.072-23.579.155-23.579s.155 10.556.155 23.579c0 13.023-.078 23.579-.155 23.579zm-28.322-12.393l-.22-5.349a7.198 7.198 0 011.189-4.357 3.821 3.821 0 013.144-1.908h14.402v1.409H18.753s-2.55.267-2.883 3.756a34.112 34.112 0 000 6.437l-1.474.012zm19.43 80.747h-6.324v11.4h6.324v-11.4zm27.942 0h-6.324v11.4h6.324v-11.4zm4.214-68.354H13.599v68.354h52.383v-68.354z" fill="#E0E0E0"/><path d="M55.028 194.148H4.006v68.354h51.022v-68.354zm-40.187 68.354H8.518v11.4h6.325v-11.4zm36.365 0h-6.324v11.4h6.324v-11.4z" fill="#F5F5F5"/><path d="M50.968 254.697v-4.529c0-2.906 0-7.132-.042-12.345l.072.071-43.788.03.1-.101v16.874l-.1-.101 31.365.048h12.203-12.12l-31.436.048H7.12v-16.976h.1l43.789.036h.07v.071c0 5.248-.029 9.469-.035 12.387v4.196a1.202 1.202 0 00-.077.291z" fill="#E0E0E0"/><path d="M30.397 246.257s0-.119-.078-.315a1.34 1.34 0 00-.487-.677 1.265 1.265 0 00-1.189-.161 1.229 1.229 0 00-.706.733 1.238 1.238 0 001.42 1.625c.171-.036.333-.108.475-.212.231-.167.402-.405.487-.678.06-.196.06-.315.078-.315a.595.595 0 010 .333 1.356 1.356 0 01-.476.779 1.393 1.393 0 01-1.331.22 1.415 1.415 0 010-2.663 1.402 1.402 0 011.331.226c.243.194.412.468.476.772a.595.595 0 010 .333zm20.571-11.768v-4.524c0-2.912 0-7.132-.042-12.351l.072.071-43.788.036.1-.107v16.875l-.1-.101 31.365.047 9.124.03h2.449-2.425l-9.088.077-31.437.048h-.101v-17.047h.101l43.788.03h.071v.071c0 5.248-.03 9.474-.035 12.393v4.196c-.048.16-.054.256-.054.256z" fill="#E0E0E0"/><path d="M30.397 226.054s0-.119-.078-.315a1.32 1.32 0 00-.487-.677 1.228 1.228 0 00-.996-.21 1.224 1.224 0 00-.816.608 1.238 1.238 0 00.623 1.747 1.285 1.285 0 001.19-.16c.231-.169.402-.409.486-.684a3.06 3.06 0 01.078-.309s.035.113 0 .333a1.345 1.345 0 01-.476.773 1.418 1.418 0 01-1.155.276 1.408 1.408 0 01-.176-2.713 1.4 1.4 0 011.331.22c.245.196.413.471.476.778a.595.595 0 010 .333zm20.571-11.483v-4.541c0-2.907 0-7.133-.042-12.351l.072.071-43.788.036.1-.107v16.892l-.1-.095 31.365.041 9.124.03h2.449-2.425l-9.088.06-31.437.047h-.101v-17.076h43.96v.071c0 5.248-.03 9.474-.035 12.393v4.196c-.048.22-.054.333-.054.333z" fill="#E0E0E0"/><path d="M30.397 206.119s0-.119-.078-.315a1.318 1.318 0 00-.487-.678 1.243 1.243 0 00-.996-.21 1.24 1.24 0 00-.967 1.107 1.236 1.236 0 00.774 1.249 1.261 1.261 0 001.189-.161c.231-.167.402-.404.487-.677.06-.196.06-.315.078-.315a.595.595 0 010 .333 1.34 1.34 0 01-.476.772 1.394 1.394 0 01-2.01-.291 1.417 1.417 0 01.679-2.146 1.4 1.4 0 011.331.22c.244.197.412.472.476.779a.595.595 0 010 .333zm21.938-11.971c0 .089-7.94.155-17.742.155s-17.742-.066-17.742-.155 7.946-.154 17.742-.154c9.795 0 17.742.071 17.742.154z" fill="#E0E0E0"/><path d="M247.91 91.612h-46.065v41.214h46.065V91.612z" fill="#FAFAFA"/><path d="M247.91 132.826v-11.341c0-7.198-.03-17.492-.054-29.873l.101.107h-46.058l.125-.125v41.214l-.107-.107 33.321.054 9.397.029h2.484-2.466l-9.374.03-33.386.054h-.107V91.421h46.296v.107c0 12.411-.041 22.724-.053 29.939 0 3.596 0 6.414-.03 8.322v2.187c0 .499-.089.85-.089.85z" fill="#E0E0E0"/><path d="M219.51 98.934c0 .066-2.425.125-5.415.125-2.989 0-5.414-.06-5.414-.125s2.425-.124 5.414-.124c2.99 0 5.415.059 5.415.124zm19.52 3.097c0 .066-6.663.119-14.86.119-8.196 0-14.859-.053-14.859-.119 0-.065 6.657-.125 14.859-.125 8.203 0 14.86.054 14.86.125zm-28.329 5.243h-1.943v1.943h1.943v-1.943zm4.779 0h-1.943v1.943h1.943v-1.943zm4.862-.09h-1.943v1.944h1.943v-1.944zm4.69.09h-1.944v1.943h1.944v-1.943zm4.779 0h-1.944v1.943h1.944v-1.943zm4.779 0h-1.944v1.943h1.944v-1.943z" fill="#E0E0E0"/><path d="M239.363 107.274h-1.944v1.943h1.944v-1.943zm-28.662 4.125h-1.943v1.943h1.943v-1.943z" fill="#EBEBEB"/><path d="M215.48 111.399h-1.943v1.943h1.943v-1.943z" fill="#E0E0E0"/><path d="M220.259 111.399h-1.943v1.943h1.943v-1.943z" fill="#EBEBEB"/><path d="M225.032 111.399h-1.944v1.943h1.944v-1.943zm4.779 0h-1.944v1.943h1.944v-1.943zm4.868-.09h-1.944v1.944h1.944v-1.944zm4.684.09h-1.944v1.943h1.944v-1.943zm-28.662 4.125h-1.943v1.943h1.943v-1.943zm4.869-.09h-1.944v1.944h1.944v-1.944zm4.689.09h-1.943v1.943h1.943v-1.943z" fill="#E0E0E0"/><path d="M225.032 115.524h-1.944v1.943h1.944v-1.943z" fill="#EBEBEB"/><path d="M229.811 115.524h-1.944v1.943h1.944v-1.943zm4.779 0h-1.944v1.943h1.944v-1.943zm4.773 0h-1.944v1.943h1.944v-1.943zm-28.662 4.125h-1.943v1.943h1.943v-1.943zm4.779 0h-1.943v1.943h1.943v-1.943zm4.779 0h-1.943v1.943h1.943v-1.943zm4.862-.09h-1.944v1.944h1.944v-1.944zm4.69.09h-1.944v1.943h1.944v-1.943z" fill="#E0E0E0"/><path d="M234.59 119.649h-1.944v1.943h1.944v-1.943z" fill="#EBEBEB"/><path d="M239.363 119.649h-1.944v1.943h1.944v-1.943zm-28.662 4.125h-1.943v1.943h1.943v-1.943z" fill="#E0E0E0"/><path d="M215.48 123.774h-1.943v1.943h1.943v-1.943z" fill="#EBEBEB"/><path d="M220.259 123.774h-1.943v1.943h1.943v-1.943zm4.773 0h-1.944v1.943h1.944v-1.943zm4.779 0h-1.944v1.943h1.944v-1.943zm4.868-.09h-1.944v1.944h1.944v-1.944zm4.684.09h-1.944v1.943h1.944v-1.943zm144.511-1.142v-19.501c0-12.41-.042-30.165-.065-51.586l.124.13h-89.335l.155-.154v71.088l-.143-.137 64.538.065 18.283.036h6.52-6.461l-18.253.036-64.627.071h-.137V51.301h.161l89.335.03h.131v.124c0 21.457-.054 39.23-.066 51.664 0 6.199-.029 11.055-.035 14.372v3.768c0 .856-.125 1.373-.125 1.373z" fill="#E0E0E0"/><path d="M309.315 64.722h-3.233V100.8h3.233V64.72z" fill="#E0E0E0"/><path d="M315.55 76.972h-3.233v23.823h3.233V76.972z" fill="#EBEBEB"/><path d="M321.791 69.204h-3.233v31.775h3.233V69.204z" fill="#E0E0E0"/><path d="M328.026 66.113h-3.233V100.8h3.233V66.113z" fill="#EBEBEB"/><path d="M334.261 77.71h-3.233v23.09h3.233V77.709z" fill="#E0E0E0"/><path d="M340.502 82.238h-3.233v18.563h3.233V82.238z" fill="#EBEBEB"/><path d="M346.737 68.425h-3.233V100.8h3.233V68.425z" fill="#E0E0E0"/><path d="M352.972 74.262h-3.233V100.8h3.233V74.26z" fill="#EBEBEB"/><path d="M359.213 69.596h-3.233V100.8h3.233V69.596z" fill="#E0E0E0"/><path d="M365.448 79.54h-3.233v21.255h3.233V79.54z" fill="#EBEBEB"/><path d="M371.683 75.498h-3.233v25.303h3.233V75.498zm1.32 27.817c0 .071-15.323.131-34.224.131-18.902 0-34.225-.06-34.225-.131 0-.071 15.317-.137 34.225-.137 18.907 0 34.224.06 34.224.137zm-62.315 2.835a21.088 21.088 0 01-4.791 0 22.052 22.052 0 014.791 0zm7.953.149a31.514 31.514 0 01-5.73 0 30.135 30.135 0 015.73 0zm6.788 0a31.58 31.58 0 01-5.736 0 30.198 30.198 0 015.736 0zm6.782 0a31.514 31.514 0 01-5.73 0 30.135 30.135 0 015.73 0zm6.782 0a31.514 31.514 0 01-5.73 0 30.135 30.135 0 015.73 0zm6.781 0a31.514 31.514 0 01-5.73 0 30.135 30.135 0 015.73 0zm6.782 0a31.514 31.514 0 01-5.73 0 30.135 30.135 0 015.73 0zm6.782 0a31.514 31.514 0 01-5.73 0 30.135 30.135 0 015.73 0zm6.8 0a31.58 31.58 0 01-5.736 0 30.198 30.198 0 015.736 0zm6.77 0a31.514 31.514 0 01-5.73 0 30.135 30.135 0 015.73 0z" fill="#E0E0E0"/><path d="M386.412 51.129h-94.738v2.668h94.738V51.13z" fill="#EBEBEB"/><path d="M212.17 125.812l-.624-2.181 1.254.059.113 2.015-.743.107z" fill="#E0E0E0"/><path d="M210.351 125.747l-1.427 7.745-3.608 10.235 20.334-2.93-8.208-8.934-3.424-6.645-3.667.529zm-39.99 54.35v-.321a6.45 6.45 0 011.819-4.69 6.453 6.453 0 0111.085 4.69v.321h-12.904z" fill="#E0E0E0"/><path d="M176.798 173.559a.254.254 0 01-.157-.053.253.253 0 01-.092-.137l-8.554-32.59a.286.286 0 01-.006-.101.253.253 0 01.191-.214.242.242 0 01.1-.006.23.23 0 01.095.033.254.254 0 01.12.157l8.547 32.59a.237.237 0 01.007.099.25.25 0 01-.185.216l-.066.006zm-2.258.814a.256.256 0 01-.25-.19l-8.553-32.59a.25.25 0 01.026-.196.257.257 0 01.158-.119.266.266 0 01.195.028.264.264 0 01.12.156l8.547 32.59a.255.255 0 01.008.099.257.257 0 01-.097.167.253.253 0 01-.089.043l-.065.012z" fill="#E0E0E0"/><path d="M165.338 141.04a1.62 1.62 0 001.929 1.593 1.62 1.62 0 00.587-2.931 1.617 1.617 0 00-2.516 1.338z" fill="#E0E0E0"/><path d="M167.098 141.254l-.291-.422 30.307-20.904 17.724 10.081-.255.445-17.445-9.926-30.04 20.726z" fill="#E0E0E0"/><path d="M198.265 121.29l-29.838 20.661.291.42 29.838-20.66-.291-.421z" fill="#E0E0E0"/><path d="M196.145 121.033a1.445 1.445 0 00.896 1.34 1.445 1.445 0 001.58-.314 1.449 1.449 0 10-2.049-2.049 1.454 1.454 0 00-.427 1.023zm16.28-76.443l-25.962 8.72h58.659l-24.376-8.72h-8.321z" fill="#E0E0E0"/><path d="M219.712 52.715a12.756 12.756 0 00-.196 1.534 7.65 7.65 0 00.999 4.03c.404.79.927 1.628 1.337 2.615.45 1.064.57 2.238.345 3.37a6.066 6.066 0 01-1.831 3.27 5.581 5.581 0 01-3.744 1.432 5.863 5.863 0 01-3.793-1.302 5.945 5.945 0 01-1.694-6.592c.406-.9.932-1.742 1.564-2.502.5-.622.927-1.3 1.272-2.02a4.627 4.627 0 00.41-1.736 3.29 3.29 0 00-.351-1.486c.087.104.159.22.214.344.163.357.25.744.256 1.136a4.69 4.69 0 01-.369 1.783 9.782 9.782 0 01-1.26 2.08 11.068 11.068 0 00-1.492 2.473 5.565 5.565 0 00-.202 3.227 5.486 5.486 0 001.843 3.038 5.6 5.6 0 003.602 1.224 5.35 5.35 0 003.566-1.35 5.8 5.8 0 001.753-3.096 5.533 5.533 0 00-.303-3.222c-.386-.963-.897-1.783-1.296-2.609a7.584 7.584 0 01-.891-4.16 6.36 6.36 0 01.184-1.148 1.41 1.41 0 01.077-.333z" fill="#E0E0E0"/><path d="M217.543 53.268a8.87 8.87 0 01-.161 1.088 30.487 30.487 0 00-.297 2.972 24.177 24.177 0 00.196 4.41c.033.185.115.358.238.5a.504.504 0 00.452.16c.321-.071.493-.559.428-.94a1.859 1.859 0 00-1.805-1.568 1.853 1.853 0 00-1.851 1.515.836.836 0 00.488.933.728.728 0 00.844-.493c.129-.37.196-.76.196-1.153.03-.392.048-.773.053-1.147a19.89 19.89 0 00-.089-2.057 19.667 19.667 0 00-.499-2.972c-.166-.69-.279-1.063-.256-1.07.024-.005.048.084.113.262.066.178.161.434.262.779.284.971.483 1.966.594 2.972.078.69.12 1.385.125 2.08 0 .38 0 .767-.036 1.189.004.427-.066.85-.208 1.254a1.19 1.19 0 01-.451.547.873.873 0 01-.749.107 1.126 1.126 0 01-.696-1.249 2.155 2.155 0 012.151-1.795 2.159 2.159 0 012.111 1.843c.034.252.001.508-.095.743a.844.844 0 01-.594.529.799.799 0 01-.726-.25c-.159-.18-.266-.4-.309-.636a22.59 22.59 0 01-.13-4.487 21.71 21.71 0 01.398-2.972c.071-.35.131-.595.184-.803.054-.208.119-.297.119-.29zM216.592 0c.022.147.032.297.03.446 0 .327 0 .755.029 1.284 0 1.153.03 2.758.048 4.755 0 4.012.03 9.51.047 15.578.018 6.069-.035 11.561-.047 15.58 0 1.966-.036 3.565-.048 4.718 0 .535 0 .963-.029 1.284a2.73 2.73 0 01-.03.452 2.007 2.007 0 010-.452c0-.32 0-.749-.03-1.284 0-1.147-.03-2.752-.047-4.719 0-4.018-.03-9.51-.048-15.579-.018-6.068.036-11.566.048-15.578 0-1.968.035-3.567.047-4.726 0-.529 0-.957.03-1.283a1.99 1.99 0 010-.476z" fill="#E0E0E0"/><path d="M212.425 44.59l1.611-7.21h5.344l1.367 7.21h-8.322zm-86.333-1.705h-2.919v62.73h2.919v-62.73z" fill="#E0E0E0"/><path d="M122.686 43.372H80.889a.042.042 0 00-.042.041v62.25c0 .023.019.041.042.041h41.797a.04.04 0 00.041-.041v-62.25a.041.041 0 00-.041-.041z" fill="#F5F5F5"/><path d="M123.173 106.186H80.408a.045.045 0 01-.03-.012.043.043 0 01-.012-.03V42.926a.042.042 0 01.042-.041h42.765c.011 0 .022.004.03.012a.045.045 0 01.012.03v63.217a.041.041 0 01-.003.016c-.002.005-.006.01-.009.014a.042.042 0 01-.03.012zm-41.797-.981h40.822a.042.042 0 00.03-.012.04.04 0 00.012-.029v-61.27a.04.04 0 00-.012-.029.043.043 0 00-.03-.012H81.376a.042.042 0 00-.041.042v61.31a.039.039 0 00.041 0z" fill="#EBEBEB"/><path d="M118.543 47.218H85.109a.042.042 0 00-.041.041v54.517a.04.04 0 00.041.041h33.434a.041.041 0 00.042-.041V47.259a.042.042 0 00-.042-.041z" fill="#FAFAFA"/><path d="M111.161 62.695H92.414a.036.036 0 00-.036.036v21.986c0 .02.016.035.036.035h18.747c.02 0 .035-.015.035-.035V62.73a.035.035 0 00-.035-.036z" fill="#EBEBEB"/><path d="M109.71 82.054c0 .071-.903.475-2.674.267a6.453 6.453 0 01-3.002-1.188 6.093 6.093 0 01-2.336-3.668 5.273 5.273 0 011.783-5.016c.402-.34.858-.61 1.35-.797a3.718 3.718 0 011.694-.196 3.021 3.021 0 011.694.743 2.208 2.208 0 01.665 1.967 3.166 3.166 0 01-.927 1.695 6.2 6.2 0 01-1.421 1.046 7.798 7.798 0 01-3.382.969 6.703 6.703 0 01-3.602-.827 6.538 6.538 0 01-2.668-2.752 5.63 5.63 0 01-.476-3.851 5.748 5.748 0 012.033-3.174 4.981 4.981 0 011.7-.856 4.16 4.16 0 011.914-.06 3.073 3.073 0 011.741.981 2.86 2.86 0 01.684 1.855 3.568 3.568 0 01-.458 1.783c-.277.49-.639.926-1.07 1.29a7.21 7.21 0 01-2.668 1.414 6.74 6.74 0 01-2.806.22 5.818 5.818 0 01-2.437-.933 5.284 5.284 0 01-2.336-3.697 4.482 4.482 0 01.868-3.168 3.732 3.732 0 011.599-1.272c.434-.166.69-.16.695-.119.006.042-.196.155-.552.392a4.16 4.16 0 00-1.243 1.338 3.952 3.952 0 00-.51 2.704 4.427 4.427 0 002.073 2.9 5.106 5.106 0 004.28.41 6.155 6.155 0 002.14-1.188 2.64 2.64 0 00.998-2.003 1.445 1.445 0 00-1.289-1.427 2.892 2.892 0 00-1.231.06 3.614 3.614 0 00-1.159.594 4.25 4.25 0 00-1.468 2.336 4.065 4.065 0 00.363 2.794 5.03 5.03 0 002.026 2.11c.85.468 1.813.692 2.782.648a6.371 6.371 0 002.74-.75c.4-.203.769-.463 1.094-.772.269-.241.463-.555.559-.903a.816.816 0 00-.226-.731 1.671 1.671 0 00-.91-.399 2.284 2.284 0 00-1.064.095 3.288 3.288 0 00-.992.541 4.163 4.163 0 00-1.302 1.783 4.07 4.07 0 00-.214 2.051 5.277 5.277 0 001.783 3.174 6.328 6.328 0 002.58 1.29c1.646.345 2.574.16 2.585.297z" fill="#E0E0E0"/><path d="M423.793 273.908c0 .083-94.869.154-211.873.154-117.003 0-211.92-.053-211.92-.154s94.851-.155 211.89-.155c117.04 0 211.903.066 211.903.155z" fill="#000"/><path d="M299.389 106.156c1.254-1.819 1.944-3.186 2.829-4.333 1.1-1.409 1.451-2.068 1.189-2.259-.369-.25-.214-.172-2.568 2.116 0 0 3.329-3.292 2.045-3.144-.565.066-3.358 2.77-3.358 2.77 2.443-1.967 3.055-3.097 2.734-3.453-.458-.511-3.828 2.799-3.828 2.799s2.621-2.472 2.942-3.049c.321-.577-.463-.434-1.076-.13-.612.302-4.428 2.888-5.545 3.565a.763.763 0 01-1.147-.231c-.672-1.784-2.14-2.8-2.669-2.895a.594.594 0 00-.41 1.028c.407.498.744 1.05.998 1.641.228.46.373.957.428 1.468.066.594.101 1.094.113 1.527l-1.694 9.451 5.944 4.191 3.073-11.062z" fill="#FACBB3"/><path d="M299.431 103.089a8.593 8.593 0 001.682-1.498 8.325 8.325 0 001.462-1.712 17.451 17.451 0 00-3.144 3.21zm-.969-.814a9.52 9.52 0 001.878-1.492 9.712 9.712 0 001.676-1.724c-1.318.92-2.516 2-3.566 3.216h.012zm-1.005-.844a8.968 8.968 0 001.783-1.391 8.485 8.485 0 001.599-1.61c-.65.386-1.25.853-1.783 1.39a8.3 8.3 0 00-1.599 1.611z" fill="#FFBE9D"/><path d="M258.478 77.055a8.77 8.77 0 018.548 4.87 8.77 8.77 0 01.885 3.345c.249 4.071.469 8.476.44 10.698-.054 4.755-4.821 5.504-4.821 5.504s.684 8.268.595 9.606l-12.601.594-1.124-25.487a8.77 8.77 0 018.078-9.142v.012z" fill="#FACBB3"/><path d="M263.542 101.395a11.08 11.08 0 01-6.211-1.783s1.468 3.43 6.217 2.972l-.006-1.189z" fill="#FFBE9D"/><path d="M250.828 87.831c-.077-.035-3.269-.968-3.168 2.289.101 3.257 3.352 2.478 3.358 2.377.006-.1-.19-4.666-.19-4.666z" fill="#FACBB3"/><path d="M249.99 91.303s-.059.041-.148.089a.594.594 0 01-.428 0 1.42 1.42 0 01-.69-1.242c-.017-.279.03-.557.137-.815a.654.654 0 01.41-.452.291.291 0 01.339.149c.047.09.03.155.047.16.018.007.066-.059.036-.19a.349.349 0 00-.137-.202.426.426 0 00-.315-.071.788.788 0 00-.594.523 1.998 1.998 0 00-.167.915 1.489 1.489 0 00.874 1.38.595.595 0 00.517-.108c.113-.06.131-.13.119-.136z" fill="#FFBE9D"/><path d="M266.704 88.295a.682.682 0 01-.654.69.655.655 0 01-.701-.595.676.676 0 01.653-.684.65.65 0 01.702.589zm-.018-1.331c-.083.089-.594-.292-1.331-.292s-1.272.369-1.349.28c-.078-.09.047-.202.279-.369a1.82 1.82 0 011.082-.333c.379-.002.75.117 1.058.34.226.19.303.332.261.374zm-7.174 1.331a.69.69 0 01-.66.69.656.656 0 01-.701-.595.685.685 0 01.66-.683.656.656 0 01.701.588zm-.018-1.195c-.089.09-.594-.29-1.331-.29s-1.272.368-1.35.278c-.077-.089.048-.202.28-.368a1.82 1.82 0 011.082-.333c.379-.002.75.116 1.058.339.225.172.297.333.261.374zm2.627 5.427c.386-.12.786-.191 1.189-.214.19 0 .369-.053.398-.184a.97.97 0 00-.124-.553 115.67 115.67 0 01-.553-1.426 24.244 24.244 0 01-1.242-3.721c.61 1.16 1.125 2.37 1.539 3.614.184.499.363.974.529 1.432.117.225.151.484.095.731a.447.447 0 01-.309.273 1.067 1.067 0 01-.315.048c-.4.053-.806.053-1.207 0zm-2.128.505c.119 0 .119.79.803 1.355.683.565 1.521.476 1.527.595.006.119-.184.154-.541.166a1.988 1.988 0 01-1.283-.446 1.785 1.785 0 01-.595-1.135c-.053-.339.036-.54.089-.535zm-.315-8.802c-.071.202-.802.106-1.658.207-.856.102-1.557.34-1.67.161-.048-.083.071-.273.35-.464a2.846 2.846 0 011.237-.433c.44-.053.886 0 1.301.154.316.125.506.285.44.374zm6.741.618c-.131.166-.636 0-1.243 0-.606 0-1.117.113-1.236-.06-.119-.172.03-.25.25-.41.302-.19.654-.285 1.01-.273.356.006.7.122.987.332.214.155.285.327.232.41z" fill="#000"/><path d="M250.525 87.748a5.293 5.293 0 000 1.498 1.72 1.72 0 00.832 1.189c.82.404 1.849-.22 2.211-1.058a5.456 5.456 0 00.184-2.705 13.073 13.073 0 01.054-3.726 5.348 5.348 0 011.783-3.192 3.376 3.376 0 013.507-.505c.646.416 1.265.873 1.854 1.367a2.88 2.88 0 001.968.493 1.855 1.855 0 001.51-1.26 2.025 2.025 0 00-.767-1.997 4.662 4.662 0 00-2.087-.832 11.15 11.15 0 00-6.175.481 8.051 8.051 0 00-4.482 4.16c-.951 2.23-.309 3.995-.446 6.468" fill="#000"/><path d="M298.902 108.89l-7.787-1.902-5.141 13.944-14.206-12.707c-1.516-1.112-4.119-1.249-6.098-1.492h-.155c-.766-.089-1.141-.202-1.605-.256-3.423 2.574-9.284 2.74-12.648.083 0 0-2.55.595-4.071.868-4.797.915-8.25 4.41-9.207 7.638l6.003 13.849 1.147 13.142-3.323 11.774a2.055 2.055 0 00.263 1.686 2.04 2.04 0 001.449.9l29.719.452.488-.238a5.544 5.544 0 00.796-3.769c-1.284-5.64-.386-22.443-.66-27.602 5.837 5.664 12.274 10.371 16.982 7.459 3.929-2.407 8.054-23.829 8.054-23.829z" fill="#E0E0E0"/><path d="M250.299 107.428l.69-4.761 6.484 2.378 1.831 3.227 1.135-3.536 3.561-1.225 1.515 3.162-2.609 3.691-4.892.993-7.715-3.929z" fill="#E0E0E0"/><path d="M259.417 109.009s-.095-.059-.244-.196a8.019 8.019 0 01-.594-.642 9.507 9.507 0 01-1.563-2.698h.237l-1.498 3.774c-.261.648-.511 1.272-.754 1.86l-.078.196-.148-.142a259.72 259.72 0 01-3.24-3.174l-.921-.939a1.882 1.882 0 01-.315-.369c.139.082.267.182.38.297l.981.88c.832.767 1.991 1.843 3.311 3.097l-.232.053.743-1.866 1.534-3.763.124-.309.113.309c.349.965.835 1.874 1.445 2.699.451.6.743.909.719.933zm6.098-2.336a4.8 4.8 0 01-.76 1.046 10.226 10.226 0 01-2.479 2.182l-.143.089-.059-.161c-.214-.594-.458-1.188-.719-1.848-.387-.969-.755-1.89-1.04-2.711h.255c-.214 1.076-.475 1.956-.636 2.574a6.118 6.118 0 01-.285.975 3.717 3.717 0 01.131-1.011c.118-.635.344-1.521.529-2.585l.089-.476.166.458c.297.808.672 1.718 1.064 2.693.262.648.499 1.278.707 1.86l-.202-.071a11.917 11.917 0 002.497-2.057c.276-.335.572-.655.885-.957z" fill="#000"/><path d="M261.771 157.475a2.772 2.772 0 010-.499c.035-.345.089-.821.148-1.415.06-.594.131-1.367.196-2.241 0-.44.066-.909.096-1.403.029-.493.041-1.022.065-1.575.101-2.205.095-4.838.042-7.762-.054-2.925-.238-6.128-.464-9.51-.487-6.735-1.153-12.809-1.652-17.202l-.595-5.206c-.065-.595-.113-1.07-.148-1.415a2.608 2.608 0 01-.036-.499c.044.159.074.322.089.487.054.351.125.82.208 1.415.172 1.224.416 2.972.69 5.195.552 4.386 1.248 10.461 1.735 17.201.232 3.37.381 6.586.44 9.51.059 2.924 0 5.563-.101 7.774-.03.553-.059 1.082-.083 1.581-.024.5-.083.963-.125 1.403-.077.874-.143 1.629-.238 2.241a78.28 78.28 0 00-.208 1.415 3.738 3.738 0 01-.059.505zm24.036-31.14a14.181 14.181 0 01-.142-2.823c-.047-.945.001-1.893.142-2.829.149.935.199 1.883.149 2.829.05.944 0 1.89-.149 2.823z" fill="#000"/><path d="M287.793 126.698c0 .267-.399-.488-1.266-2.913a12.31 12.31 0 01-.785-3.079c.409.97.762 1.962 1.058 2.972.389.987.72 1.995.993 3.02z" fill="#000"/><path d="M268.594 257.045l-.451 10.8s10.823 4.084 10.936 6.093l-20.97-.125v-16.857l10.485.089z" fill="#8CBF43"/><path d="M261.664 266.876a.863.863 0 00-.595.975.826.826 0 00.963.595.906.906 0 00.624-.975.857.857 0 00-1.07-.517" fill="#E0E0E0"/><path opacity=".6" d="M258.109 273.813l.066-1.7 20.084.755s.933.41.82 1.07l-20.97-.125z" fill="#fff"/><path d="M268.481 267.744c0 .101-.511.143-1.016.47-.505.327-.779.755-.874.713-.095-.042.059-.63.684-1.016.624-.387 1.23-.262 1.206-.167zm2.199.916c0 .095-.422.267-.772.701-.351.434-.458.885-.559.88-.101-.006-.16-.595.285-1.112.446-.517 1.041-.565 1.046-.469zm1.231 2.644c-.089 0-.232-.493.035-1.052.268-.558.743-.778.791-.695.047.083-.256.386-.47.85-.214.464-.255.886-.356.897zm-3.596-6.033c-.042.09-.511-.053-1.094 0-.582.054-1.028.214-1.082.125-.053-.089.381-.445 1.064-.481.684-.036 1.159.273 1.112.356zm.047-2.181a1.975 1.975 0 01-1.046 0 4.639 4.639 0 01-1.694-.671 1.357 1.357 0 01-.315-.244.436.436 0 01-.041-.547.547.547 0 01.445-.232c.133.001.265.018.393.054.225.055.444.133.653.231.354.161.679.378.963.642.488.452.648.838.595.856-.054.018-.28-.291-.773-.665a3.966 3.966 0 00-.933-.529 3.526 3.526 0 00-.595-.191c-.219-.059-.41-.065-.469.036s0 .054 0 .119a.956.956 0 00.232.178c.176.12.361.228.553.321.323.164.661.295 1.01.393.347.054.689.137 1.022.249z" fill="#000"/><path d="M268.232 263.233a1.666 1.666 0 01-.274-1.017 3.622 3.622 0 01.149-1.147c.068-.221.16-.434.273-.636a.873.873 0 01.672-.529.513.513 0 01.44.297c.051.124.087.254.107.387.035.234.035.473 0 .707-.063.393-.22.764-.458 1.082-.41.541-.838.66-.844.624-.006-.036.321-.244.636-.767.185-.297.301-.632.339-.98a2.118 2.118 0 000-.595c-.036-.226-.119-.404-.202-.386-.084.018-.28.166-.369.345a3.536 3.536 0 00-.469 1.616c-.054.601.053.987 0 .999z" fill="#000"/><path d="M232.402 253.871l-3.405 13.517-5.778 9.914a1.43 1.43 0 00.595 1.997 1.417 1.417 0 001.307 0c2.592-1.403 12.114-6.598 12.304-7.596.226-1.189 4.541-14.022 4.541-14.022l-9.564-3.81z" fill="#8CBF43"/><path opacity=".6" d="M223.837 279.299l13.861-8.523-.154.594a2.147 2.147 0 01-.862 1.189c-1.129.766-4.297 2.817-11.495 6.74a1.435 1.435 0 01-1.35 0zm12.304-13.611a.862.862 0 00-.529 1.022.837.837 0 001.011.535.912.912 0 00.552-1.088.852.852 0 00-1.111-.44" fill="#fff"/><path d="M228.533 274.282a4.386 4.386 0 00-.892-1.373 4.468 4.468 0 00-1.462-.725c0-.036.196-.089.523-.047.427.064.824.254 1.141.546.327.283.562.655.678 1.07.083.321.048.523.012.529zm-1.48 1.51c-.077.042-.392-.517-1.028-.909a11.201 11.201 0 00-1.266-.529 1.574 1.574 0 011.426.273c.749.47.975 1.165.868 1.165zm3.899-3.328a14.568 14.568 0 00-1.498-1.504 13.92 13.92 0 00-1.866-1.017 3.93 3.93 0 013.364 2.521zm1.379-4.019c-.059.072-.713-.445-1.67-.748-.957-.304-1.783-.28-1.783-.375a2.823 2.823 0 011.884.083c.629.152 1.184.52 1.569 1.04zm1.1-3.946a7.121 7.121 0 00-1.718-.826 7.257 7.257 0 00-1.908-.048c0-.03.178-.16.541-.255a3.1 3.1 0 012.722.647c.273.262.392.482.363.482zm-1.486-1.563c0-.18.04-.356.119-.517.174-.454.436-.868.772-1.219.223-.279.533-.475.88-.559a.594.594 0 01.594.298.91.91 0 01.042.659 2.014 2.014 0 01-2.199 1.332 2.34 2.34 0 01-1.89-1.783.823.823 0 01.142-.66.59.59 0 01.648-.131c.308.162.569.401.755.695.287.391.5.83.63 1.296.063.167.089.345.077.523a6.2 6.2 0 00-.879-1.688 1.864 1.864 0 00-.672-.594.304.304 0 00-.357.071.527.527 0 00-.065.44 2.088 2.088 0 001.652 1.533 1.777 1.777 0 001.89-1.099.702.702 0 000-.47.32.32 0 00-.327-.166 1.49 1.49 0 00-.748.464c-.446.457-.807.99-1.064 1.575z" fill="#000"/><path d="M256.57 107.214l1.474.767-.274 2.478-2.3-.481 1.1-2.764z" fill="#8CBF43"/><path opacity=".4" d="M256.57 107.214l1.474.767-.274 2.478-2.3-.481 1.1-2.764z" fill="#000"/><path d="M259.946 107.826l1.111-.98 1.023 2.597-1.463.696-.671-2.313zm-1.629 3.234l-.689 29.309 4.957 4.897 2.395-6.502-4.755-27.859-1.908.155z" fill="#8CBF43"/><path d="M258.347 107.077c.339-.041.802-.13 1.189-.214a.815.815 0 01.885.411l.624 1.153c.09.165.119.356.084.541l-.25 1.295a.8.8 0 01-.636.642l-1.415.291a.82.82 0 01-.891-.433l-.719-1.397a.808.808 0 010-.696l.493-1.117a.802.802 0 01.256-.321.8.8 0 01.38-.155z" fill="#8CBF43"/><path d="M260.41 107.387a3.808 3.808 0 01-.381.469c-.243.279-.594.66-.969 1.076-.374.416-.737.785-.992 1.046-.133.153-.28.292-.44.416.108-.169.234-.326.374-.469.244-.28.595-.66.975-1.076.381-.416.737-.785.993-1.052a3.05 3.05 0 01.44-.41zm-1.451 1.349a6.542 6.542 0 01-1.284-1.231c.254.167.484.367.684.595.225.187.426.4.6.636zm1.653 1.878c.088-.57.205-1.136.35-1.694a1.673 1.673 0 00-.35-1.1.939.939 0 01-.173-.481s.072.178.244.44c.077.131.19.279.285.475.109.211.148.45.113.684-.095.481-.22.885-.303 1.189a2.333 2.333 0 01-.166.487zm12.654 46.207l-2.08 107.583a1.322 1.322 0 01-1.338 1.284l-12.529-.107a1.33 1.33 0 01-1.314-1.35l1.956-92.586-16.304 91.927a2.375 2.375 0 01-2.413 1.949l-10.515-.362a2.374 2.374 0 01-1.735-.862 2.381 2.381 0 01-.517-1.867l16.505-106.049 30.284.44z" fill="#000"/><path d="M233.823 259.827s0-.089.03-.256l.113-.743c.107-.659.267-1.616.463-2.841.416-2.478 1.011-6.039 1.742-10.437 1.468-8.827 3.501-20.999 5.736-34.444a4317.444 4317.444 0 005.587-34.474c.683-4.405 1.242-7.971 1.628-10.455.196-1.225.345-2.182.452-2.842.048-.315.089-.558.119-.743.03-.184.053-.249.053-.249.006.085.006.17 0 .255 0 .179-.053.428-.095.743-.089.666-.22 1.623-.392 2.853-.339 2.473-.874 6.051-1.539 10.473-1.338 8.833-3.275 21.029-5.498 34.474a4623.65 4623.65 0 01-5.825 34.433c-.773 4.392-1.397 7.947-1.831 10.425-.22 1.189-.398 2.17-.517 2.829-.06.315-.107.559-.143.737-.021.09-.048.177-.083.262zm32.126.392c-.083 0 .059-21.897.315-48.899.256-27.003.529-48.9.594-48.9.066 0-.059 21.891-.315 48.9-.255 27.008-.517 48.899-.594 48.899zm5.617.375c0 .083-3.418.148-7.632.148-4.214 0-7.632-.065-7.632-.148 0-.084 3.418-.143 7.632-.143 4.214 0 7.632.065 7.632.143zm-29.166-.583a2.582 2.582 0 01-.594.06l-1.665.059-5.51.131c-2.151.047-4.101.065-5.509.047-.708 0-1.278 0-1.671-.035a2.825 2.825 0 01-.594-.054c.195-.043.395-.063.594-.059l1.665-.06 5.509-.13c2.152-.048 4.102-.066 5.51-.048.708 0 1.278 0 1.671.036.199-.004.398.014.594.053zm17.742-101.906c.038.62.024 1.242-.041 1.86a197.175 197.175 0 01-.315 4.476c-.078.874-.125 1.706-.232 2.467a4.689 4.689 0 01-.666 1.943c-.249.4-.6.726-1.016.945a.993.993 0 01-.488.149 3.116 3.116 0 001.32-1.189c.324-.574.526-1.21.594-1.866.089-.743.131-1.581.202-2.455.143-1.747.286-3.328.41-4.47a11.3 11.3 0 01.232-1.86z" fill="#1C75BB"/><path opacity=".3" d="M243.969 147.834a5.624 5.624 0 004.886 1.409c1.23-.25 2.377-.922 3.655-.838 1.373.089 2.508 1.052 3.763 1.616 2.336 1.058 5.064.72 7.548.06 1.141-.303 2.33-.719 3.067-1.641a5.485 5.485 0 00.945-2.55c.286-1.668.41-3.36.369-5.052a4.849 4.849 0 00-.814-3.013 3.499 3.499 0 00-2.265-1.142 8.973 8.973 0 00-2.58.149 42.674 42.674 0 00-18.711 8.024" fill="#000"/><path d="M256.029 142.253s-15.739 7.037-17.338 7.388c-5.314 1.189-11.388-3.852-9.7-9.576.624-2.127 9.094-25.665 9.094-25.665l8.06 11.139-3.412 11.4 8.915-.594 4.381 5.908z" fill="#E0E0E0"/><path d="M250.935 136.44c-.204.05-.414.078-.624.083l-1.724.149a471.37 471.37 0 01-5.843.404h-.196l.054-.19c.172-.595.345-1.159.523-1.784a532.486 532.486 0 012.08-6.799l.66-2.051a4.29 4.29 0 01.279-.743c-.036.262-.094.52-.172.773-.155.541-.345 1.242-.594 2.08-.5 1.748-1.189 4.161-2.003 6.824-.179.594-.357 1.188-.529 1.783l-.137-.173c2.336-.136 4.386-.243 5.854-.309l1.724-.065c.216-.02.434-.014.648.018zm3.335 6.728c0 .071-3.424 1.563-7.727 3.335-4.304 1.771-7.793 3.144-7.822 3.073-.03-.072 3.423-1.564 7.727-3.335 4.303-1.771 7.792-3.144 7.822-3.073z" fill="#000"/><path d="M252.368 135.917l-1.243-6.045a.79.79 0 01.164-.647.79.79 0 01.603-.286l15.644.071a.782.782 0 01.736.545.784.784 0 01.031.323l-1.617 13.849a1.076 1.076 0 01-1.082.951l-10.199-.077a1.089 1.089 0 01-.655-.232 1.076 1.076 0 01-.379-.583l-2.003-7.869z" fill="#1C75BB"/><path d="M250.989 132.737a1.638 1.638 0 011.539 1.046c.256.666.63 1.45 1.046 1.676.767.416 2.092.749 2.794.41.701-.339 3.489-2.853 3.982-2.574.493.28.903.904.416 1.463-.487.558-3.073 2.234-2.585 2.793.487.559 5.943-1.902 6.775-1.682.833.22 1.326.731.839 1.07-.488.339-4.191 1.73-4.399 2.217 0 0 5.587-1.462 5.795-1.117.208.344.559.909 0 1.117-.558.208-5.349 1.468-5.795 1.676a9.954 9.954 0 01-2.157.63c-.149 0-1.243.369-2.247.713a4.93 4.93 0 01-3.477-.095l-.565-.225a2.215 2.215 0 01-1.373-2.188l.113-1.908-.594-1.569-.107-3.453z" fill="#FACBB3"/><path d="M260.38 131.269a.598.598 0 01-.367.549.595.595 0 11.367-.549z" fill="#FAFAFA"/><path d="M327.664 180.186h-46.873v-1.747h45.131a1.745 1.745 0 011.742 1.747z" fill="#1C75BB"/><path d="M314.718 152.649h-31.942a1.985 1.985 0 00-1.985 1.985v23.192c0 1.097.889 1.986 1.985 1.986h31.942a1.986 1.986 0 001.985-1.986v-23.192a1.985 1.985 0 00-1.985-1.985z" fill="#1C75BB"/><path d="M315.205 153.938h-32.916v24.191h32.916v-24.191z" fill="#FAFAFA"/><path d="M315.205 178.13v-24.192l.042.036h-32.958l.041-.03v24.192l-.041-.036h30.521-30.581v-24.263h33v23.865l-.024.428z" fill="#000"/><path d="M310.266 160.482h-22.711l.041-.041v11.168l-.041-.041h20.868-20.91v-11.157h22.753v.071z" fill="#E0E0E0"/><path d="M310.266 162.331s-5.088.042-11.365.042c-6.276 0-11.37 0-11.37-.042s5.088-.042 11.37-.042c6.283 0 11.365.018 11.365.042zm-.155 1.498s-5.087.041-11.364.041c-6.277 0-11.371 0-11.371-.041 0-.042 5.088-.042 11.371-.042s11.364.018 11.364.042zm.155 1.581s-5.088.041-11.365.041c-6.276 0-11.37 0-11.37-.041 0-.042 5.088-.042 11.37-.042 6.283 0 11.365.018 11.365.042zm0 1.539s-5.088.036-11.365.036c-6.276 0-11.37 0-11.37-.036 0-.035 5.088-.041 11.37-.041 6.283 0 11.365.018 11.365.041zm0 1.534s-5.088.041-11.365.041c-6.276 0-11.37 0-11.37-.041 0-.042 5.088-.036 11.37-.036 6.283 0 11.365.018 11.365.036zm-22.723 1.539s5.088-.041 11.365-.041c6.276 0 11.37 0 11.37.041 0 .042-5.088.042-11.37.042-6.283 0-11.365-.018-11.365-.042z" fill="#E0E0E0"/><path d="M292.042 171.776s-.035-2.538-.035-5.665c0-3.126 0-5.67.035-5.67.036 0 .042 2.538.042 5.67 0 3.133-.018 5.665-.042 5.665zm4.553 0s-.041-2.538-.041-5.665c0-3.126 0-5.67.041-5.67.042 0 .042 2.538.042 5.67 0 3.133-.012 5.665-.042 5.665zm4.565 0s-.041-2.538-.041-5.665c0-3.126 0-5.67.041-5.67.042 0 .042 2.538.042 5.67 0 3.133-.018 5.665-.042 5.665zm4.559 0s-.042-2.538-.042-5.665c0-3.126 0-5.67.042-5.67s.042 2.538.042 5.67c0 3.133-.018 5.665-.042 5.665zm4.547 0s-.042-2.538-.042-5.665c0-3.126 0-5.67.042-5.67s.042 2.538.042 5.67c0 3.133-.006 5.665-.042 5.665z" fill="#E0E0E0"/><path d="M310.266 162.331c-.053.05-.111.096-.172.137l-.511.356-1.908 1.32a1589.689 1589.689 0 01-6.479 4.41h-.071l-1.938-.654-2.592-.879h.072l-4.571 3.061-3.299 1.141-.903.303-.238.077h-.083l.077-.035.232-.096.891-.332 3.281-1.189 4.547-3.091h.072l2.621.886 1.932.654h-.066a1564.11 1564.11 0 016.509-4.363l1.937-1.278.523-.333.137-.095z" fill="#8CBF43"/><path d="M292.042 170.302a.28.28 0 000-.559.28.28 0 000 .559zm4.559-3.073a.28.28 0 100-.56.28.28 0 000 .56zm4.559 1.509a.28.28 0 10.001-.559.28.28 0 00-.001.559zm4.607-3.037a.28.28 0 100-.558.28.28 0 000 .558z" fill="#8CBF43"/><path d="M310.266 170.022l-.089-.047-.244-.149-.915-.594-3.335-2.211h.072l-4.553 3.061-.06.041-.041-.059-2.378-3.228-2.157-2.924h.119c-1.742 1.753-3.311 3.329-4.571 4.606l-3.388 1.1-.927.291-.244.072h-.083l.077-.036.238-.083.915-.321 3.37-1.153 4.547-4.625.066-.065.053.071 2.164 2.919 2.377 3.233h-.107l4.565-3.031h.071l3.311 2.247.903.624.232.166.012.095z" fill="#1C75BB"/><path d="M296.601 164.15a.28.28 0 100-.56.28.28 0 000 .56zm-4.559 4.612a.28.28 0 10.001-.559.28.28 0 00-.001.559zm9.118 1.54a.28.28 0 000-.559.28.28 0 000 .559zm4.559-2.8a.28.28 0 100-.558.28.28 0 000 .558z" fill="#1C75BB"/><path d="M290.14 172.893a1.209 1.209 0 01-.44.042 1.173 1.173 0 01-.433-.042c.14-.041.288-.055.433-.042.148-.013.298.001.44.042zm4.672 0c-.29.055-.589.055-.879 0 .29-.055.589-.055.879 0zm4.648 0c-.29.055-.589.055-.879 0 .29-.055.589-.055.879 0zm4.66 0c-.29.055-.589.055-.88 0 .291-.055.59-.055.88 0zm4.654 0a1.179 1.179 0 01-.434.042 1.211 1.211 0 01-.44-.042c.143-.041.292-.055.44-.042.146-.013.293.001.434.042zm-21.873-1.337a.787.787 0 01-.357.041.759.759 0 01-.35-.041.92.92 0 01.35-.036.98.98 0 01.357.036zm0-1.789a.787.787 0 01-.357.041.759.759 0 01-.35-.041.9.9 0 01.35-.036.98.98 0 01.357.036zm0-1.789a.787.787 0 01-.357.041.759.759 0 01-.35-.041.9.9 0 01.35-.036.958.958 0 01.357.036zm0-1.79a.787.787 0 01-.357.042.746.746 0 01-.35-.042.92.92 0 01.35-.035.958.958 0 01.357.035zm0-1.789a.787.787 0 01-.357.042.746.746 0 01-.35-.042.848.848 0 01.35-.041.917.917 0 01.357.041zm0-1.789a.801.801 0 01-.357.042.746.746 0 01-.35-.042.848.848 0 01.35-.041.899.899 0 01.357.041zm0-1.789a.801.801 0 01-.357.042.18.18 0 01-.306.077.18.18 0 010-.237.177.177 0 01.235-.028.175.175 0 01.071.105.787.787 0 01.357.041z" fill="#E0E0E0"/><path d="M293.956 156.583h-6.532v.464h6.532v-.464z" fill="#8CBF43"/><path d="M305.618 157.938s-4.083.036-9.118.036c-5.034 0-9.117 0-9.117-.036 0-.035 4.077-.041 9.117-.041 5.041 0 9.118.018 9.118.041zm-6.645 17.19s-2.491.042-5.563.042c-3.073 0-5.558 0-5.558-.042s2.491-.042 5.558-.042c3.066 0 5.563.018 5.563.042zm-8.47.838a8.43 8.43 0 01-1.189.042c-.396.014-.794 0-1.189-.042a8.436 8.436 0 011.189-.042c.397-.014.794 0 1.189.042zm18.533-.987s-1.784.042-3.953.042c-2.169 0-3.953 0-3.953-.042 0-.041 1.784-.041 3.953-.041 2.169 0 3.953.018 3.953.041zm-4.298.541c-.823.056-1.649.056-2.472 0a18.538 18.538 0 012.472 0zm-194.29 98.388l9.825-86.863 8.327 2.936-13.605 83.927h-4.547z" fill="#000"/><path d="M357.531 180.085H106.257v10.99h251.274v-10.99z" fill="#1C75BB"/><path d="M159.49 180.245a.498.498 0 01-.083.119c-.06.078-.143.191-.262.333-.365.4-.79.741-1.26 1.011a7.12 7.12 0 01-2.431.814c-1.12.159-2.252.209-3.382.149a32.62 32.62 0 01-4.077-.47 36.577 36.577 0 00-4.643-.553c-3.292-.119-6.871.743-10.449 2.027-3.578 1.284-6.93 2.74-10.14 3.626a27.83 27.83 0 01-4.618.915 19.366 19.366 0 01-4.113 0 14.05 14.05 0 01-5.635-1.783 8.884 8.884 0 01-1.741-1.308l.124.078.333.249c.427.322.876.614 1.343.874a14.33 14.33 0 005.6 1.688 19.39 19.39 0 004.059 0 28.03 28.03 0 004.571-.933c3.18-.898 6.538-2.378 10.104-3.644 3.567-1.266 7.216-2.157 10.562-2.021a36.32 36.32 0 014.672.595c1.336.247 2.686.414 4.042.499 1.118.075 2.241.041 3.352-.101a7.13 7.13 0 002.378-.749 6.297 6.297 0 001.694-1.415z" fill="#000"/><path d="M132 180.412c-.232.24-.487.457-.761.648a16.959 16.959 0 01-2.288 1.48 19.41 19.41 0 01-8.649 2.312 18.75 18.75 0 01-8.761-1.783 5.518 5.518 0 01-2.11-1.724 2.735 2.735 0 01-.345-.666.74.74 0 01-.065-.249c.147.293.316.575.505.844a5.701 5.701 0 002.116 1.599 19.342 19.342 0 008.648 1.694 20.267 20.267 0 008.559-2.176 22.108 22.108 0 002.325-1.379c.26-.219.537-.42.826-.6zm58.962 6.966c.132.039.261.087.386.143.389.131.786.235 1.189.309a6.85 6.85 0 004.393-.69v.137a10.469 10.469 0 00-5.451-2.122 10.6 10.6 0 00-7.091 1.843 1.142 1.142 0 00-.552.713.757.757 0 00.108.415.756.756 0 00.314.292c.304.166.633.282.974.345l1.07.238c1.439.321 2.925.642 4.464.868 1.572.249 3.164.356 4.755.32a17.77 17.77 0 002.437-.231c.404-.072.808-.149 1.189-.256a6.143 6.143 0 001.189-.38 3.853 3.853 0 001.521-1.1 1.727 1.727 0 00.291-1.688 2.836 2.836 0 00-1.188-1.331 9.643 9.643 0 00-1.665-.821 22.942 22.942 0 00-6.984-1.444 28.777 28.777 0 00-11.887 1.849 29.089 29.089 0 00-7.168 3.917c-.767.594-1.362 1.058-1.736 1.402l-.44.375a.93.93 0 01-.16.125s.041-.054.136-.143l.422-.404c.363-.357.945-.844 1.7-1.457a29.081 29.081 0 0119.175-5.943c2.419.108 4.806.598 7.073 1.45a9.6 9.6 0 011.724.838 3.186 3.186 0 011.319 1.486 2.053 2.053 0 01-.38 1.985 4.156 4.156 0 01-1.641 1.189 6.488 6.488 0 01-1.224.392c-.41.113-.82.19-1.236.262a17.53 17.53 0 01-2.473.238 27.77 27.77 0 01-4.802-.333c-1.546-.232-3.038-.559-4.476-.88l-1.07-.25a3.554 3.554 0 01-1.052-.374 1.476 1.476 0 01-.446-.386.883.883 0 01-.16-.595c.042-.188.123-.366.237-.522.115-.155.261-.285.428-.381a10.83 10.83 0 017.276-1.849c2.018.196 3.938.965 5.533 2.217l.101.083-.113.06a6.822 6.822 0 01-4.493.594 4.926 4.926 0 01-1.516-.505zm32.334-6.847c.117.166.2.354.244.553.168.533.225 1.096.167 1.652a8.155 8.155 0 01-2.443 4.797 12.43 12.43 0 01-2.289 1.943 10.12 10.12 0 01-3.804 1.468 1.977 1.977 0 01-.594.048c0-.054.844-.173 2.122-.654.747-.289 1.461-.66 2.128-1.106a12.877 12.877 0 002.217-1.913 8.324 8.324 0 002.443-4.607 6.124 6.124 0 00-.191-2.181zm45.12 9.962c-.365-.393-.75-.766-1.153-1.118a8.16 8.16 0 00-3.929-1.783 8.855 8.855 0 00-2.972.089 12.727 12.727 0 01-3.507.321c-1.29-.119-2.449-.897-3.495-1.712a11.937 11.937 0 00-3.507-2.08 12.897 12.897 0 00-7.792-.119 18.345 18.345 0 00-5.759 2.919 32.047 32.047 0 00-3.347 2.853l-.85.844a1.949 1.949 0 01-.309.279c.078-.115.165-.222.262-.321.178-.214.451-.511.814-.886a27.257 27.257 0 013.299-2.942 18.123 18.123 0 015.813-3.019 13.027 13.027 0 017.976.101 12.113 12.113 0 013.567 2.134c1.046.814 2.133 1.551 3.34 1.67a12.763 12.763 0 003.436-.297 9.076 9.076 0 013.067-.048 8.104 8.104 0 013.97 1.896c.419.349.781.76 1.076 1.219zm40.287-10.301a2.34 2.34 0 01-.274.375c-.196.231-.451.594-.856 1.022a23.446 23.446 0 01-3.673 3.257 29.584 29.584 0 01-6.36 3.531 26.61 26.61 0 01-4.107 1.307 21.312 21.312 0 01-4.588.595 22.796 22.796 0 01-8.714-1.813 28.923 28.923 0 01-6.33-3.566 24.82 24.82 0 01-3.644-3.287c-.404-.416-.66-.785-.856-1.017a3.632 3.632 0 01-.279-.374c.119.1.229.212.327.333.208.22.481.594.897.974a26.843 26.843 0 003.686 3.198 29.591 29.591 0 006.306 3.501 22.758 22.758 0 008.601 1.783 21.22 21.22 0 004.529-.594 26.403 26.403 0 004.065-1.278 29.969 29.969 0 006.342-3.442 25.601 25.601 0 003.709-3.162c.416-.404.684-.76.898-.98.096-.13.203-.252.321-.363z" fill="#000"/><path d="M302.949 180.097a1.312 1.312 0 01-.214.172c-.148.101-.362.262-.654.44-.81.523-1.649 1-2.514 1.427a26.474 26.474 0 01-3.976 1.616 17.653 17.653 0 01-5.189.892 21.397 21.397 0 01-9.213-2.33 19.877 19.877 0 01-2.496-1.468c-.286-.184-.488-.357-.63-.464a.962.962 0 01-.209-.178c.313.16.615.34.904.541.816.505 1.659.963 2.526 1.373a22.1 22.1 0 009.118 2.211 17.648 17.648 0 005.106-.85 28.41 28.41 0 003.964-1.539 38.499 38.499 0 002.55-1.332 8.61 8.61 0 01.927-.511zm25.547 1.111a.953.953 0 01-.292 0l-.82-.053-.594-.048h-.708c-.505 0-1.081 0-1.723.03l-.999.054-1.076.124c-.749.066-1.533.244-2.377.381-1.789.39-3.545.915-5.254 1.569a36.863 36.863 0 00-4.922 2.419c-.707.458-1.403.862-1.997 1.32l-.886.63-.743.63c-.505.392-.921.79-1.295 1.129-.191.172-.363.333-.529.476l-.411.427-.594.595a1.174 1.174 0 01-.22.19c.046-.085.104-.163.173-.232l.54-.63.399-.446.511-.499c.404-.419.831-.816 1.278-1.189l.772-.648c.28-.213.595-.427.88-.653.594-.47 1.29-.886 2.003-1.356a31.316 31.316 0 0110.259-4.023c.844-.131 1.635-.298 2.378-.351l1.087-.113 1.011-.036c.642-.035 1.224 0 1.735 0h.714l.594.078.82.107a.994.994 0 01.286.118zm10.758-2.151v.208a4.553 4.553 0 01-.054.594 8.274 8.274 0 01-.594 2.104 12.302 12.302 0 01-4.69 5.391 24.284 24.284 0 01-6.585 2.847c-.886.256-1.605.434-2.105.553a4.445 4.445 0 01-.784.149c.24-.115.491-.205.749-.268l2.074-.642a26.857 26.857 0 006.503-2.865 11.33 11.33 0 005.486-8.042v-.029zm-66.321 11.216a12.399 12.399 0 00-1.385-1.641 12.8 12.8 0 00-5.064-2.829 26.974 26.974 0 00-3.953-.874c-1.438-.232-2.972-.41-4.618-.689a38.471 38.471 0 01-5.017-1.26 32.744 32.744 0 00-5.349-1.29 22.303 22.303 0 00-10.431 1.438 38.43 38.43 0 00-4.238 1.908 91.046 91.046 0 00-3.567 1.932c-2.163 1.224-3.887 2.265-5.07 2.972l-1.349.856-.356.214-.131.065a.64.64 0 01.113-.095l.339-.238a51.91 51.91 0 011.337-.885c1.189-.755 2.871-1.831 5.022-3.079a98.135 98.135 0 013.567-1.974 37.85 37.85 0 014.261-1.943 22.385 22.385 0 0110.562-1.48c1.835.283 3.642.721 5.403 1.307a39.26 39.26 0 004.952 1.272c1.61.286 3.162.476 4.606.714 1.349.205 2.68.513 3.982.921a12.534 12.534 0 015.076 2.972 6.533 6.533 0 011.308 1.706zm-56.579-10.028c.023.235.011.471-.036.702a8.265 8.265 0 01-.493 1.854c-.761 2-2.107 3.723-3.863 4.946a25.857 25.857 0 01-5.712 2.633c-.761.255-1.391.44-1.825.552a3.182 3.182 0 01-.69.143c.207-.113.427-.2.654-.261l1.783-.642a29.609 29.609 0 005.629-2.687 11.023 11.023 0 003.828-4.755c.313-.806.555-1.637.725-2.485zm-58.35 10.83c.178-.217.377-.416.594-.594.404-.369 1.017-.868 1.783-1.468a51.615 51.615 0 016.408-4.125c2.609-1.439 5.052-2.586 6.823-3.4.886-.404 1.605-.725 2.104-.939.255-.125.519-.228.791-.309-.23.164-.477.303-.737.416l-2.069 1.034c-1.741.862-4.16 2.039-6.764 3.465a63.335 63.335 0 00-6.425 4.036c-.79.594-1.414 1.04-1.842 1.379a5.448 5.448 0 01-.666.505zm11.84-10.384c0 .036-.594-.071-1.623 0a11.466 11.466 0 00-4.16 1.272 38.055 38.055 0 00-5.445 3.656 27.464 27.464 0 01-3.281 2.122 17.948 17.948 0 01-3.923 1.509c-2.63.623-5.321.948-8.024.969-2.484.072-4.719 0-6.591.101a32.361 32.361 0 00-4.405.428c-.511.095-.909.173-1.189.238a3.049 3.049 0 01-.416.077c.127-.062.261-.108.399-.136.267-.084.659-.185 1.188-.298a28.775 28.775 0 014.417-.529c1.878-.107 4.113-.077 6.585-.166a37.171 37.171 0 007.959-.981 17.95 17.95 0 003.858-1.48 27.488 27.488 0 003.251-2.086 37.576 37.576 0 015.516-3.62 11.024 11.024 0 014.285-1.189 7.868 7.868 0 011.189.036c.139.013.276.039.41.077z" fill="#000"/><path d="M326.552 180.043c0 .084-10.497.155-23.448.155-12.952 0-23.454-.071-23.454-.155 0-.083 10.496-.154 23.454-.154 12.957 0 23.448.065 23.448.154zm-98.233-4.891h-33.862v5.058h33.862v-5.058z" fill="#000"/><path d="M203.409 176.317h-8.952v2.722h8.952v-2.722z" fill="#E0E0E0"/><path d="M231.338 170.094h-33.861v5.058h33.861v-5.058z" fill="#8CBF43"/><path d="M231.344 171.306h-22.967v2.532h22.967v-2.532z" fill="#E0E0E0"/><path d="M192.418 170.094h33.862v-5.059h-33.862v5.059z" fill="#000"/><path d="M217.335 168.923h8.951V166.2h-8.951v2.723z" fill="#E0E0E0"/><path d="M311.413 254.911l4.036 10.028s-8.832 7.471-8.268 9.397l19.722-7.133-5.653-15.882-9.837 3.59z" fill="#8CBF43"/><path d="M321.238 261.878a.853.853 0 01.892.719.825.825 0 01-.707.885.896.896 0 01-.933-.766c0-.416.416-.904.832-.838" fill="#E0E0E0"/><path opacity=".6" d="M326.909 267.203l-.63-1.581-18.676 7.43s-.737.701-.416 1.284l19.722-7.133z" fill="#fff"/><path d="M315.093 264.951c.041.095.535-.036 1.123.107.588.142.987.451 1.058.38.071-.071-.268-.594-.981-.731s-1.272.166-1.2.244zm-1.76 1.604c0 .101.488.113.963.405.476.291.725.683.82.647.095-.035-.041-.594-.636-.957-.594-.362-1.177-.19-1.147-.095zm-.279 2.901c.095 0 .059-.541-.381-.981-.44-.44-.963-.481-.974-.386-.012.095.368.273.719.642.35.368.541.749.636.725zm1.373-6.889c.071.071.463-.22 1.022-.38.559-.161 1.046-.143 1.064-.244.018-.101-.511-.297-1.189-.101-.677.196-.969.666-.897.725zm-.779-2.039c.356-.03.697-.155.987-.362.333-.192.643-.424.921-.69a5.42 5.42 0 00.458-.511c.09-.1.162-.214.214-.339a.452.452 0 00-.143-.529.603.603 0 00-.499-.065 1.294 1.294 0 00-.351.184 3.586 3.586 0 00-.541.434 3.84 3.84 0 00-.695.927c-.197.3-.298.652-.291 1.011.059 0 .172-.363.511-.886.197-.3.433-.574.701-.814.158-.14.327-.268.505-.38.185-.131.363-.197.452-.119.089.077.042.041 0 .119-.042.09-.096.174-.16.249a5.628 5.628 0 01-1.237 1.189c-.29.175-.568.37-.832.582z" fill="#000"/><path d="M313.832 260.618a1.693 1.693 0 00-.083-1.047 3.504 3.504 0 00-.511-1.016 3.354 3.354 0 00-.47-.505.865.865 0 00-.808-.274.504.504 0 00-.315.428 1.67 1.67 0 00.03.399 2.459 2.459 0 001.034 1.533c.594.369 1.01.339 1.01.303a7.531 7.531 0 01-.861-.511 2.365 2.365 0 01-.648-.814 1.982 1.982 0 01-.191-.595c-.041-.22 0-.416.06-.422a.848.848 0 01.464.196c.158.137.305.286.439.446.222.28.406.588.547.916.214.57.238.968.303.963z" fill="#000"/><path d="M329.976 253.075l4.065 10.027s-8.862 7.471-8.321 9.397l19.721-7.132-5.652-15.876-9.813 3.584z" fill="#8CBF43"/><path d="M339.801 260.041a.858.858 0 01.891.719.824.824 0 01-.707.886.897.897 0 01-.933-.761c0-.422.416-.903.832-.844" fill="#E0E0E0"/><path opacity=".6" d="M345.465 265.367l-.63-1.575-18.675 7.423s-.737.702-.416 1.284l19.721-7.132z" fill="#fff"/><path d="M333.655 263.12c.041.095.535-.036 1.123.101.589.137.987.452 1.058.38.072-.071-.267-.594-.981-.731-.713-.136-1.248.167-1.2.25zm-1.759 1.599c0 .101.493.119.963.404.469.285.725.689.82.648.095-.042-.042-.595-.636-.951-.595-.357-1.177-.19-1.147-.101zm-.28 2.9c.095 0 .06-.541-.38-.975-.44-.433-.963-.487-.975-.392-.012.095.369.28.719.642.351.363.541.755.636.725zm1.373-6.888c.072.071.47-.22 1.023-.381.552-.16 1.046-.143 1.069-.244.024-.101-.517-.297-1.188-.095-.672.202-.975.66-.904.72zm-.779-2.039c.357-.027.699-.152.987-.363.335-.19.645-.422.921-.689.163-.159.316-.328.458-.506.087-.101.16-.216.214-.338a.439.439 0 00-.143-.529.542.542 0 00-.499-.072 1.297 1.297 0 00-.351.185c-.191.13-.371.275-.54.434a3.78 3.78 0 00-.696.927 1.785 1.785 0 00-.291 1.016c.059 0 .172-.368.511-.885a3.9 3.9 0 01.701-.815c.156-.142.325-.27.506-.38.184-.131.362-.196.451-.125.09.071.042.042 0 .119a.968.968 0 01-.16.25 6.139 6.139 0 01-.41.487 6.442 6.442 0 01-.826.713c-.291.17-.569.361-.833.571z" fill="#000"/><path d="M332.389 258.787c.087-.351.058-.72-.083-1.052a3.384 3.384 0 00-.529-1.029 3.16 3.16 0 00-.47-.511.853.853 0 00-.808-.267.497.497 0 00-.315.422 1.656 1.656 0 000 .398 2.424 2.424 0 001.034 1.534c.594.374 1.01.338 1.01.303a7.129 7.129 0 01-.861-.505 2.492 2.492 0 01-.648-.815 2.352 2.352 0 01-.19-.594c-.042-.226 0-.422.059-.428a.6.6 0 01.464.196c.158.139.305.29.439.452.225.278.409.586.547.915.268.589.291.981.351.981z" fill="#000"/><path d="M343.551 123.167l-1.884 15.418 2.93 7.133-11.59.41-2.378-5.557s-5.741-.648-5.943-4.327c-.149-2.348 3.637-19.454 3.637-19.454l15.228 6.377z" fill="#FFBE9D"/><path d="M339.86 141.528c1.367-.928 2.057-1.546 2.657-3.085.6-1.54.987-3.162 1.67-4.666.684-1.504 1.754-2.972 2.461-4.583.707-1.61 1.07-3.447.38-5.04 0 0-.249-2.033-2.971-2.776 0 0-1.552-4.327-5.106-4.755-4.838-.547-4.672-1.973-7.828-3.18a3.086 3.086 0 00-1.166-.293 3.071 3.071 0 00-2.929 1.767s-1.944.892-2.378 2.669v.048a4.246 4.246 0 001.973 4.648l.595.338c.581.275 1.09.682 1.486 1.189.523.803.41 1.849.184 2.77a7.507 7.507 0 00-.44 2.805c.042.321.232.702.553.69.321-.012.481-.535.594-.903.339-1.076 1.926-1.611 2.746-.595a1.709 1.709 0 01.072 2.152c-.529.695-1.463 1.129-1.783 1.949-.595 1.391.855 3.008 1.337 3.929.168.33.367.642.594.933a13.77 13.77 0 004.048 3.519 3.702 3.702 0 003.792.19" fill="#000"/><path d="M292.173 160.167c-2.033-.861-3.34-1.646-4.707-2.145-1.676-.595-2.324-.981-2.194-1.284.179-.41.096-.262 3.305.416 0 0-4.577-1.005-3.412-1.569.512-.25 4.322.547 4.322.547-3.121-.357-4.238-.987-4.161-1.451.113-.683 4.755.321 4.755.321a35.345 35.345 0 01-4.119-1.01c-.594-.315.16-.595.844-.684.683-.089 5.284.072 6.592.054a.779.779 0 00.609-.213.775.775 0 00.235-.602c-.381-1.854.315-3.506.713-3.863.398-.357 1.022.065.891.642a7.307 7.307 0 00.03 1.926c.056.51.199 1.006.422 1.468.262.535.505.981.719 1.349l6.479 7.091-2.793 6.722-8.53-7.715z" fill="#FFBE9D"/><path d="M290.497 157.6a8.385 8.385 0 01-2.217-.369 8.551 8.551 0 01-2.152-.66 8.335 8.335 0 012.223.369 8.803 8.803 0 012.146.66zm.392-1.201a19.898 19.898 0 01-4.725-.82 19.1 19.1 0 014.725.82zm.399-1.266a9.171 9.171 0 01-2.265-.214 8.649 8.649 0 01-2.217-.505 17.51 17.51 0 014.482.719z" fill="#EB996E"/><path d="M334.635 190.374l-27.704 4.16a13.49 13.49 0 00-9.284 5.944 13.5 13.5 0 00-1.658 11.145l14.628 46.653 13.213-5.005-8.114-41.244 42.831-2.805v-18.848l-23.912-.862" fill="#000"/><path d="M354.119 190.374l-27.704 4.16a13.49 13.49 0 00-9.284 5.944 13.5 13.5 0 00-1.658 11.145l12.755 43.877 14.759-3.893-7.757-39.538 28.631-1.92v-18.818l-9.712-1.819" fill="#000"/><path d="M299.062 155.816c.594-.077 19.395 14.592 19.395 14.592l-12.013 4.785-12.179-12.083s-.772-6.527 4.797-7.294z" fill="#8CBF43"/><path d="M359.927 150.057c-3.133-4.547-8.476-6.122-10.325-6.538a5.463 5.463 0 00-1.189-.131h-16.024a11.221 11.221 0 00-7.78 3.091 38.334 38.334 0 00-6.152 7.923l-8.066 11.21-4.957 8.321 1.01 1.272a8.323 8.323 0 009.956 2.514c1.635-.76 2.829-2.181 3.941-3.815 2.027-2.972 4.161-6.194 5.54-8.649l8.089 23.116-4.327 2.746 18.224 7.406 18.972-8.119-5.236-18.67s8.321.808 9.076-2.455c.755-3.263-6.919-13.653-10.752-19.222z" fill="#8CBF43"/><path d="M358.048 158.521a76.67 76.67 0 013.787 7.008c.154.309.594.035.463-.274a59.285 59.285 0 00-3.946-6.906c-.119-.191-.423 0-.304.172zm3.769-1.349a76.397 76.397 0 013.786 7.008c.154.309.594.035.464-.274a59.388 59.388 0 00-3.947-6.907c-.119-.19-.422 0-.303.173zm-7.412 1.884c.802 3.108 1.432 6.259 1.943 9.421.072.44.749.255.672-.184a61.772 61.772 0 00-2.33-9.314.145.145 0 00-.071-.079.145.145 0 00-.106-.011.142.142 0 00-.086.063.146.146 0 00-.022.104zm-8.583.886a37.725 37.725 0 011.563 9.337c0 .44.701.446.684 0a31.037 31.037 0 00-1.914-9.427c-.072-.208-.399-.124-.333.09zm7.02 7.572a41.996 41.996 0 01-2.075-8.797c-.041-.41-.654-.428-.648 0a17.622 17.622 0 002.378 8.916c.113.172.404.065.339-.143l.006.024zm-10.854-7.323a39.954 39.954 0 001.296 8.88.318.318 0 00.36.141.32.32 0 00.234-.307 348.525 348.525 0 01-1.575-8.755c-.029-.197-.345-.149-.339.041h.024zm-4.6.529c.802 3.251 1.391 6.538 1.979 9.825.054.309.594.244.559-.077a53.468 53.468 0 00-2.318-9.813.131.131 0 00-.061-.062.127.127 0 00-.086-.007.124.124 0 00-.091.134h.018zm-4.209.761c-.026 3.064.307 6.12.993 9.106.083.321.535.178.487-.137a83.45 83.45 0 01-1.087-8.916.193.193 0 00-.058-.138.195.195 0 00-.277 0 .193.193 0 00-.058.138v-.053zm-13.445 8.303c2.521-2.377 4.755-5.349 6.824-8.095.19-.244-.226-.559-.428-.327-2.259 2.592-4.755 5.35-6.538 8.286-.072.107.077.214.166.136h-.024zm-2.93-2.645a28.563 28.563 0 005.849-7.191c.184-.31-.279-.595-.476-.28-1.741 2.538-3.685 4.85-5.581 7.258a.143.143 0 00-.045.104c0 .02.003.039.011.058a.17.17 0 00.031.049c.014.014.03.025.048.033a.187.187 0 00.057.012.156.156 0 00.106-.043zm1.783-8.642c-1.676 1.878-3.405 3.721-4.992 5.677-.214.261.142.636.374.374 1.682-1.878 3.228-3.893 4.821-5.849.112-.142-.078-.344-.203-.202zm10.319 3.43c.713 3.019 1.135 6.08 1.783 9.106.065.285.553.226.523-.072a68.683 68.683 0 00-1.926-9.141.209.209 0 10-.404.107h.024z" fill="#FAFAFA"/><path opacity=".3" d="M353.216 168.411a4.417 4.417 0 00-3.4 1.7 10.495 10.495 0 00-1.783 3.495 36.389 36.389 0 00-1.89 12.363c0 1.278.041 2.758-.928 3.596-.832.714-2.062.66-3.084 1.064-1.635.636-3.044 2.824-2.562 4.512l9.159 3.477 4.488-30.207z" fill="#000"/><path d="M342.957 187.77c-.323.193-.677.33-1.046.405a12.217 12.217 0 01-5.362.237 3.017 3.017 0 01-1.075-.315c1.248.126 2.502.187 3.756.185 2.045-.084 3.667-.607 3.727-.512z" fill="#000"/><path d="M309.939 212.835l-7.287 61.15h3.15l7.739-61.15h-3.602zm29.048 0l6.692 61.15h3.436l-6.526-61.15h-3.602zm36.031 0l5.575 61.15h3.828l-6.366-61.15h-4.618m-17.035-52.531h27.008a4.195 4.195 0 013.178 1.451 4.197 4.197 0 01.983 3.352l-6.395 44.632a3.616 3.616 0 01-3.567 3.096H342.6l13.802-52.531z" fill="#1C75BB"/><path d="M306.343 212.835c.066-.671 0-4.053 0-4.053l33.499.63a5.149 5.149 0 005.172-4.31l6.674-40.798a4.754 4.754 0 014.714-4l-7.287 45.946a7.835 7.835 0 01-7.727 6.597l-35.045-.012z" fill="#1C75BB"/><path d="M356.402 160.304c.003.048.003.095 0 .143l-.048.416c-.053.386-.131.915-.22 1.581-.214 1.397-.511 3.376-.873 5.807a4769.74 4769.74 0 00-2.972 19.139c-.595 3.739-1.189 7.293-1.688 10.532-.262 1.617-.512 3.157-.749 4.595a32.419 32.419 0 01-.809 3.988 10.99 10.99 0 01-1.385 3.067 7.527 7.527 0 01-1.723 1.855c-.427.328-.9.592-1.403.784-.173.07-.352.124-.535.161.67-.25 1.297-.6 1.86-1.04a9.16 9.16 0 002.972-4.886c.339-1.305.597-2.629.773-3.965.226-1.444.464-2.972.713-4.6.511-3.24 1.076-6.8 1.665-10.539 1.188-7.453 2.294-14.205 3.084-19.127.411-2.425.737-4.398.975-5.789.113-.666.208-1.189.28-1.575.029-.161.059-.297.077-.404a.382.382 0 01.006-.143zm1.492.297a13.311 13.311 0 01-1.629-2.3 12.8 12.8 0 01-1.361-2.473 12.901 12.901 0 011.629 2.307c.541.77.997 1.598 1.361 2.466zm-50.98 9.885a24.177 24.177 0 012.092-3.257 25.272 25.272 0 012.378-3.085 24.473 24.473 0 01-2.093 3.263 25.028 25.028 0 01-2.377 3.079zm22.598-10.806a4.46 4.46 0 01-.368.684l-1.047 1.824a203.442 203.442 0 01-3.679 5.944 139.476 139.476 0 01-3.917 5.766 55.24 55.24 0 01-1.26 1.699 3.424 3.424 0 01-.499.595c.11-.236.245-.46.404-.666l1.189-1.753a295.316 295.316 0 003.845-5.807l3.745-5.873c.482-.755.868-1.361 1.147-1.783.12-.228.268-.439.44-.63zM167.544 90.72c-1.231-1.783-.47-4.54 1.367-5.724a5.543 5.543 0 016.146.434c1.747 1.32 2.234 3.608 1.949 5.563-.214 1.463-2.496 4.429-4.672 3.127" fill="#000"/><path d="M154.438 103.083c-4.833-9.361 5.284-14.687 11.013-13.373 5.385 1.236 7.787 3.762 8.833 7.275a17.548 17.548 0 010 10.812c-.594 1.705-1.783 3.459-3.537 3.756" fill="#000"/><path d="M169.107 94.863a1.81 1.81 0 011.706 1.783l.19 24.423c.107 2.883-4.018 4.72-7.103 4.809-3.114.089-3.293-1.433-3.477-4.161-.303-4.577-.386-6.288-.386-6.265 0 .024-3.965-.457-5.035-5.545-.535-2.532-.594-6.723-.594-10.152.042-3.091 1.89-6.966 4.975-6.8l9.724 1.908z" fill="#FFBE9D"/><path d="M155.787 102.828a.66.66 0 00.666.63.627.627 0 00.647-.624.661.661 0 00-.665-.636.633.633 0 00-.599.384.646.646 0 00-.049.246zm-.339-.981c.089.083.595-.309 1.272-.345.678-.036 1.248.297 1.32.202.071-.095-.054-.19-.292-.344a1.823 1.823 0 00-1.058-.268 1.78 1.78 0 00-1.01.38c-.208.167-.273.339-.232.375zm7.002.66a.651.651 0 00.666.63.627.627 0 00.648-.624.667.667 0 00-.666-.636.633.633 0 00-.457.178.629.629 0 00-.191.452zm-.036-.868c.089.083.595-.315 1.278-.345.684-.03 1.242.291 1.314.202.071-.089-.054-.19-.286-.345a1.817 1.817 0 00-1.064-.267c-.368.017-.722.15-1.01.38-.208.173-.273.333-.232.375zm-2.306 5.349a4.622 4.622 0 00-1.159-.148c-.184 0-.357-.036-.392-.161a.922.922 0 01.095-.541l.463-1.402c.438-1.192.78-2.416 1.023-3.662a22.652 22.652 0 00-1.314 3.566l-.446 1.415a1.067 1.067 0 00-.053.713.45.45 0 00.309.25c.103.01.206.01.309 0 .388.04.779.03 1.165-.03z" fill="#000"/><path d="M160.037 115.417a13.073 13.073 0 006.781-2.176s-1.491 3.608-6.651 3.382l-.13-1.206zm.445-6.711a1.279 1.279 0 011.57-.421c.142.067.269.162.374.278a.748.748 0 01.101.844.865.865 0 01-.419.278.867.867 0 01-.502.002 2.636 2.636 0 01-.927-.494.75.75 0 01-.214-.202.22.22 0 01-.042-.13.22.22 0 01.042-.131" fill="#EB996E"/><path d="M162.218 107.398c-.119 0-.083.767-.713 1.344-.63.576-1.451.535-1.451.648 0 .112.191.136.535.13a1.946 1.946 0 001.219-.493 1.67 1.67 0 00.541-1.129c.012-.315-.083-.506-.131-.5zm-.184-6.99c.083.191.784.066 1.616.119.833.054 1.522.256 1.623.078.048-.09-.083-.262-.362-.434a2.662 2.662 0 00-1.189-.357 2.732 2.732 0 00-1.254.208c-.321.137-.47.297-.434.386zm-6.425-.624c.13.155.594-.035 1.188-.07.595-.037 1.088.053 1.189-.12.101-.172-.041-.243-.261-.386a1.69 1.69 0 00-.993-.214c-.343.025-.67.154-.939.368-.184.179-.244.345-.184.422z" fill="#000"/><path d="M155.888 93.246a4.972 4.972 0 002.08 4.755 9.907 9.907 0 002.925 1.147l1.955.535c1.427.461 2.912.719 4.41.767-.077 1.676-.273 2.806.63 4.22.809 1.272 1.986 2.164 3.513 1.783.521-3.315.71-6.674.565-10.027a4.717 4.717 0 00-.505-2.502c-.773-1.189-2.378-1.427-3.822-1.54l-5.997-.475a12.136 12.136 0 00-2.937 0 4.042 4.042 0 00-2.532 1.367" fill="#000"/><path d="M175.211 100.486h-.226a1.647 1.647 0 01-.636-.143 2.72 2.72 0 01-.838-.594 13.426 13.426 0 01-.856-1.046 4.81 4.81 0 00-1.188-1.088 6.477 6.477 0 00-1.677-.773 14.262 14.262 0 00-4.226-.463c-1.439.059-2.88-.04-4.297-.298a6.191 6.191 0 01-3.097-1.646 4.98 4.98 0 01-.814-1.094 3.924 3.924 0 01-.345-.969 2.609 2.609 0 01-.041-.867c.029 0 0 .315.119.85.08.326.204.64.368.933.224.383.5.733.82 1.04a6.04 6.04 0 003.032 1.57c1.404.243 2.831.335 4.255.273a14.133 14.133 0 014.286.487 6.542 6.542 0 011.712.814c.457.312.858.698 1.188 1.141.31.399.559.773.827 1.058.226.244.493.445.79.595.26.139.549.214.844.22z" fill="#1C75BB"/><path d="M174.391 97.341a1.56 1.56 0 00-.101-.73 2.973 2.973 0 00-1.539-1.267 10.109 10.109 0 00-2.925-.784 25.402 25.402 0 00-3.738 0 17.85 17.85 0 01-3.775-.131 7.545 7.545 0 01-2.871-1.117 4.935 4.935 0 01-1.468-1.474 5.03 5.03 0 01-.255-.506.868.868 0 01-.066-.184s.119.244.393.642a5.03 5.03 0 001.474 1.403c.863.534 1.825.89 2.829 1.046 1.235.167 2.484.207 3.727.119a24.235 24.235 0 013.774 0 10.1 10.1 0 012.972.844 2.97 2.97 0 011.545 1.367c.071.179.098.373.078.564a.557.557 0 01-.054.208zm2.247-9.837a.73.73 0 01.083.34c.017.325-.04.65-.167.95a5.346 5.346 0 01-2.145 2.277 4.82 4.82 0 01-1.623.624 4.68 4.68 0 01-1.421.047 5.782 5.782 0 01-.933-.172 1.245 1.245 0 01-.333-.113c0-.041.488.09 1.278.143a5.12 5.12 0 002.931-.684 5.515 5.515 0 002.11-2.157c.178-.393.254-.825.22-1.255zm-1.855-2.264c.019.114.019.23 0 .345-.031.312-.091.62-.178.92a6.11 6.11 0 01-4.191 4.233c-.3.092-.608.153-.921.184a.97.97 0 01-.345 0c0-.035.482-.077 1.219-.327a6.468 6.468 0 004.101-4.16c.244-.714.279-1.201.315-1.195zm-.505 22.242a.926.926 0 010-.268v-.778a8.743 8.743 0 00-.523-2.782 5.435 5.435 0 00-.999-1.659 4.532 4.532 0 00-1.83-1.23c-1.486-.565-3.275-.469-5.112-.547a15.69 15.69 0 01-5.118-.98 8.664 8.664 0 01-3.465-2.45 6.428 6.428 0 01-1.331-2.537 4.434 4.434 0 01-.137-.767 1.137 1.137 0 010-.273s.042.374.226 1.022a6.62 6.62 0 001.367 2.46 8.502 8.502 0 003.424 2.378c1.62.592 3.327.913 5.052.951 1.825.077 3.637 0 5.177.595a4.643 4.643 0 011.884 1.295 5.485 5.485 0 011.01 1.718c.32.911.479 1.87.47 2.835v.779a1.358 1.358 0 01-.095.238z" fill="#1C75BB"/><path d="M173.107 94.257a9.033 9.033 0 01-.737-.785 12.398 12.398 0 00-1.95-1.682 12.533 12.533 0 00-2.258-1.23 10.74 10.74 0 01-.993-.41c.36.042.712.134 1.046.273a10.041 10.041 0 014.268 2.942c.247.268.457.568.624.892z" fill="#8CBF43"/><path d="M170.266 103.38c.071-.041 2.687-1.355 2.871 1.718.184 3.073-2.936 2.621-2.972 2.532-.036-.089.101-4.25.101-4.25z" fill="#FFBE9D"/><path d="M171.056 106.394s.06.036.149.071c.13.053.275.053.404 0a1.322 1.322 0 00.541-1.224 1.79 1.79 0 00-.196-.755.593.593 0 00-.428-.386.27.27 0 00-.309.166c-.036.089 0 .149-.03.155-.03.006-.065-.048-.047-.179a.322.322 0 01.107-.196.4.4 0 01.291-.095.748.748 0 01.594.44c.146.258.228.548.238.844a1.393 1.393 0 01-.701 1.373.534.534 0 01-.253.032.534.534 0 01-.241-.086c-.107-.065-.125-.16-.119-.16z" fill="#EB996E"/><path d="M125.081 130.853s-2.062-4.054-2.585-4.446c-.523-.393-5.136-1.997-5.522-1.867-.386.131-5.944 1.189-5.29 1.819.654.63 4.517-.131 4.517-.131l.523.256s-3.34.594-4.041 1.004c-.702.411-.405 1.189.208 1.106.612-.083 3.512-.684 3.685-.594.172.089-3.15.838-3.507 1.058-.482.291-.517 1.153.095 1.099.357-.03 3.495-.891 3.495-.891-.926.357-1.83.766-2.71 1.224a.455.455 0 00-.101.595.46.46 0 00.576.178c.375-.089 2.122-.957 2.621-1.07 0 0 .464.113.904 1.046s3.513 3.269 3.513 3.269l3.619-3.655z" fill="#FFBE9D"/><path d="M123.809 130.93a1.11 1.11 0 01-1.29 0c-.404-.232-.713-.595-1.093-.856-1.147-.779-2.77-.594-3.876-1.397-.154-.113-.309-.303-.225-.481.083-.179.291-.185.469-.185l4.583.042" fill="#FFBE9D"/><path d="M122.377 128.071a1.713 1.713 0 00-.493-.06l-1.356-.053-2.003-.042h-.594a.884.884 0 00-.672.149.392.392 0 00-.071.428.82.82 0 00.238.291c.183.138.383.254.594.345.776.27 1.571.484 2.378.642.333.089.651.228.945.41.273.178.499.398.725.594a1.61 1.61 0 001.296.434c.338-.071.445-.255.433-.255a1.461 1.461 0 01-.445.154 1.567 1.567 0 01-1.189-.475 9.26 9.26 0 00-.719-.595 3.662 3.662 0 00-.999-.463 19.713 19.713 0 01-2.348-.648 3.111 3.111 0 01-.529-.309c-.148-.119-.226-.28-.142-.339.083-.059.285-.083.481-.077h2.598c.594 0 1.034 0 1.355-.036.176-.008.35-.04.517-.095zm-10.681-1.7c.316.16.662.251 1.016.267.381.045.765.055 1.147.03l1.373-.202 1.041-.172h-.066c.783.306 1.59.547 2.413.719a14.695 14.695 0 00-2.33-.951h-.065l-1.028.154-1.355.22a7.94 7.94 0 01-1.112.03c-.636-.047-1.028-.131-1.034-.095z" fill="#EB996E"/><path d="M141.26 247.589l4.993 9.272s-7.763 8.191-6.99 10.015l18.325-9.034-7.21-14.788-9.118 4.535z" fill="#8CBF43"/><path d="M151.531 253.271a.839.839 0 01.939.594.801.801 0 01-.108.587.8.8 0 01-.486.347.879.879 0 01-.987-.636.827.827 0 01.713-.91" fill="#E0E0E0"/><path opacity=".6" d="M157.588 257.818l-.779-1.462-17.278 9.213s-.642.755-.268 1.284l18.325-9.035z" fill="#fff"/><path d="M145.914 256.915c.048.089.511-.096 1.094 0 .582.095 1.004.332 1.07.255.065-.077-.327-.529-1.028-.594-.702-.066-1.195.267-1.136.339zm-1.533 1.741c0 .095.487.06.981.285.493.226.772.595.861.541.09-.053-.107-.594-.725-.856-.618-.261-1.153-.071-1.117.03zm.053 2.871c.089 0 0-.529-.481-.91-.482-.38-.981-.362-.987-.273-.006.089.386.232.773.547.386.315.594.636.695.636zm.595-6.853c.077.065.428-.262.951-.476.523-.214.992-.249 1.004-.35.012-.101-.529-.232-1.141.029-.612.262-.909.749-.814.797zm-.993-1.89c0 .041.398-.078.915-.458.302-.221.576-.479.815-.767.142-.171.274-.352.392-.541.074-.107.13-.225.166-.35a.427.427 0 00-.19-.494.542.542 0 00-.493 0 1.267 1.267 0 00-.321.214 3.963 3.963 0 00-.476.476c-.249.29-.45.62-.594.975-.162.31-.222.663-.173 1.01.054 0 .125-.369.393-.909a4.056 4.056 0 011.04-1.29c.166-.143.333-.226.428-.167.095.06.041.036.03.113-.031.092-.073.18-.125.262a5.926 5.926 0 01-1.07 1.29c-.428.398-.761.588-.737.636z" fill="#000"/><path d="M144.214 252.855a1.581 1.581 0 00-.196-1.005 3.313 3.313 0 00-.594-.945 3.444 3.444 0 00-.511-.439.84.84 0 00-.809-.173.47.47 0 00-.261.446c.006.129.03.257.071.38.073.213.177.413.309.595.218.318.513.578.856.755.594.297 1.016.22 1.01.184a8.666 8.666 0 01-.885-.398 2.288 2.288 0 01-.963-1.255c-.065-.214-.071-.404 0-.422a.588.588 0 01.47.143 3.538 3.538 0 011.099 1.213c.279.552.351.933.404.921z" fill="#000"/><path d="M146.152 255.619l-1.902 10.354s-11.162 1.545-11.703 3.429l19.953 4.405 3.62-16.048-9.968-2.14z" fill="#8CBF43"/><path d="M150.61 266.472a.842.842 0 01.362 1.052.803.803 0 01-1.046.363.89.89 0 01-.374-1.118.84.84 0 011.129-.255" fill="#E0E0E0"/><path opacity=".6" d="M152.5 273.807l.303-1.629-19.246-3.614s-.969.191-1.01.838l19.953 4.405z" fill="#fff"/><path d="M143.953 265.801c0 .101.457.249.867.671.411.422.595.88.672.862.077-.018.077-.594-.428-1.111-.505-.518-1.117-.535-1.111-.422zm-2.289.404c-.041.089.345.344.595.832.249.487.243.945.338.957.096.012.286-.517 0-1.118-.285-.6-.909-.766-.933-.671zm-1.735 2.24c.083.042.327-.416.19-1.004-.137-.588-.541-.903-.594-.832-.054.071.16.422.261.909.101.488.048.898.143.927zm4.719-4.957c0 .095.494.06 1.04.22.547.161.934.428.999.357.065-.071-.268-.511-.909-.69-.642-.178-1.165.024-1.13.113zm.422-2.08c.308.159.653.233.999.214.375.014.75-.016 1.117-.089a4.88 4.88 0 00.642-.178c.125-.041.243-.099.351-.173a.43.43 0 00.16-.505.534.534 0 00-.38-.315 1.322 1.322 0 00-.386-.036 3.614 3.614 0 00-1.724.482c-.553.327-.797.654-.767.677.03.024.333-.214.88-.463a4.355 4.355 0 011.004-.303c.197-.031.396-.047.595-.048.22 0 .404.03.434.131.029.101 0 .059-.042.107-.082.052-.17.094-.261.125a5.774 5.774 0 01-1.641.344 6.43 6.43 0 00-.981.03z" fill="#000"/><path d="M145.165 261.574c.03 0 .297-.285.476-.909.097-.366.133-.746.107-1.123a3.433 3.433 0 00-.125-.66.838.838 0 00-.523-.648.496.496 0 00-.482.184 1.872 1.872 0 00-.184.345 2.573 2.573 0 00-.148.672c-.026.387.043.775.202 1.129.273.594.653.808.671.779a8.073 8.073 0 01-.446-.868 2.456 2.456 0 01-.106-1.011c.02-.203.068-.403.142-.594.083-.208.196-.363.274-.321.077.042.231.22.279.404.057.195.099.394.125.595.049.345.049.695 0 1.04-.131.618-.315.939-.262.986z" fill="#000"/><path d="M155.3 160.292l-30.647 39.473a14.301 14.301 0 00-2.211 13.379l22.206 45.274 7.442-12.648-12.714-35.764 16.583-19.953 7.394-30.528-8.053.767z" fill="#000"/><path d="M143.382 264.422l13.73-95.797.678-8.571 16.833-.909s5.884 9.165 6.163 14.77c.28 5.605-15.317 44.864-15.317 44.864l-2.235 15.662-9.421 33.166-10.431-3.185z" fill="#000"/><path d="M157.647 161.838c.084 0-3.037 22.99-6.978 51.312-3.94 28.323-7.198 51.283-7.287 51.272-.089-.012 3.043-22.979 6.984-51.313 3.941-28.334 7.198-51.283 7.281-51.271zm-18.396 48.216c-.035.041-.374-.25-1.004-.595a6.365 6.365 0 00-5.35-.208c-.648.28-1.01.547-1.04.5a2.6 2.6 0 01.951-.696 5.8 5.8 0 015.528.214c.362.187.675.456.915.785zm36.364-45.025s-.119.096-.362.214a5.75 5.75 0 01-1.088.387 7.623 7.623 0 01-1.7.238 8.312 8.312 0 01-4.071-.934 7.96 7.96 0 01-1.427-.957 5.896 5.896 0 01-.808-.826c-.167-.214-.25-.339-.232-.35.018-.012.422.427 1.189 1.004.443.334.917.627 1.414.874a9.702 9.702 0 001.914.677 9.542 9.542 0 002.021.226c.555 0 1.109-.056 1.652-.166.928-.179 1.475-.44 1.498-.387zm-49.179 56.318a7.66 7.66 0 01-.529-.939 72.195 72.195 0 01-1.337-2.615 40.516 40.516 0 01-1.742-4.007 21.585 21.585 0 01-.743-2.478 13.72 13.72 0 01-.38-2.758c-.031-.932.05-1.864.244-2.776.195-.846.464-1.673.802-2.472a21.277 21.277 0 012.152-3.804c.713-1.017 1.343-1.784 1.783-2.336.22-.268.398-.47.517-.595s.19-.208.196-.196a7.95 7.95 0 01-.594.874c-.416.559-1.017 1.361-1.7 2.377a22.792 22.792 0 00-2.074 3.792 15.291 15.291 0 00-.767 2.42 11.63 11.63 0 00-.232 2.71c.033.909.157 1.813.369 2.698.191.83.431 1.648.719 2.449.535 1.54 1.147 2.883 1.664 4.006l1.248 2.657c.131.286.238.529.327.731.036.084.062.172.077.262z" fill="#1C75BB"/><path d="M151.674 124.826l-11.383 13.094-14.752-8.161-5.159 5.165 19.156 13.13 8.554-.131 7.293-14.384-3.709-8.713z" fill="#8CBF43"/><path d="M147.513 134.496l6.336 26.682 21.249-1.825 2.734-20.988 5.689-8.957s-1.409-8.422-10.753-8.488l-1.515-3.566-11.198.927-1.356 3.281s-9.218.66-9.004 9.029l-2.182 3.905z" fill="#8CBF43"/><path opacity=".3" d="M152.892 157.166a11.1 11.1 0 009.51-1.819 3.368 3.368 0 011.266-.731 3.072 3.072 0 011.522.22 28.44 28.44 0 007.049 1.26 4.937 4.937 0 002.443-.327 1.921 1.921 0 001.135-2.015 64.808 64.808 0 00-11.055-2.972c-1.955-.345-3.976-.594-5.908-.16-1.932.434-3.739 1.587-5.439 2.704a2.38 2.38 0 00-1.081 1.117c-.339.987.653 2.009.451 3.032" fill="#000"/><path d="M168.804 129.069c.594.535 8.505 14.093 8.505 14.093l-12.607 2.758-.433 6.241 12.416 1.783 5.581.595a7.183 7.183 0 006.473-2.788 7.177 7.177 0 001.401-3.47 7.178 7.178 0 00-.533-3.704l-6.443-16.417-14.36.909z" fill="#8CBF43"/><path d="M180.804 143.115c0 .083-3.566.778-8.024 1.557-4.458.779-8.065 1.331-8.077 1.248-.012-.083 3.566-.778 8.024-1.557 4.458-.779 8.066-1.332 8.077-1.248z" fill="#000"/><path d="M177.814 143.614a3.529 3.529 0 01-.332-.672l-.821-1.884a559.318 559.318 0 01-2.579-6.259l-1.385-3.441a6.214 6.214 0 01-.547-3.026 3.043 3.043 0 01.909-1.86c.139-.129.293-.24.458-.333.113-.053.178-.083.184-.071a6.874 6.874 0 00-.558.493 3.083 3.083 0 00-.779 1.783 6.16 6.16 0 00.594 2.889l1.403 3.453a428.688 428.688 0 012.497 6.295c.291.767.534 1.408.725 1.92.105.227.183.467.231.713zm6.479 10.966c-.263.038-.53.048-.796.03-.511 0-1.254 0-2.164-.065-1.83-.095-4.345-.321-7.132-.708a193.404 193.404 0 01-7.05-1.129l-2.127-.386a3.764 3.764 0 01-.779-.179c.267-.005.533.014.796.06.506.059 1.237.16 2.14.291 1.813.256 4.303.654 7.061 1.034 2.758.381 5.261.648 7.079.797l2.158.166c.274-.001.547.029.814.089zm-32.934-8.404a7.752 7.752 0 00-.333-2.259c-.19-.678-.505-1.468-.743-2.377a4.782 4.782 0 01-.167-1.51 6.331 6.331 0 01.339-1.593 25.348 25.348 0 012.681-4.922l.915-1.42a2.63 2.63 0 01.357-.517 2.503 2.503 0 01-.25.594c-.184.357-.469.862-.838 1.474a30.6 30.6 0 00-2.574 4.91 6.392 6.392 0 00-.326 1.509c-.029.481.02.962.142 1.427.214.909.505 1.712.678 2.413a5.84 5.84 0 01.214 1.694 2.581 2.581 0 01-.048.464c-.018.059-.035.113-.047.113zm10.401-24.15a5.974 5.974 0 01-.041-1.938 6.33 6.33 0 01.267-1.919 5.94 5.94 0 01.042 1.937c.01.65-.08 1.298-.268 1.92zm4.155-.374a6.082 6.082 0 01-.452-1.867c-.154-.625-.206-1.271-.154-1.914.254.593.409 1.224.458 1.867a6.1 6.1 0 01.148 1.914zm3.59-.684a8.592 8.592 0 01-.915-3.12c.501.972.811 2.031.915 3.12z" fill="#000"/><path opacity=".3" d="M172.483 130.924c.065 4.065.79 7.436.856 11.507-.024.395.045.79.202 1.153.452.88 1.486.595 2.473.559a9.358 9.358 0 001.509-.321 1.343 1.343 0 00-.125-.904c-1.634-4.22-3.275-7.768-4.915-11.994z" fill="#000"/><path d="M127.613 138.972l6.105 5.89 9.854 9.498 16.952-.844-13.718-15.501-19.193.957z" fill="#000"/><path d="M130.294 138.799s-4.434 1.962.077 5.35c4.512 3.388 10.699 4.666 11.626 7.132a4.158 4.158 0 01-.594 4.161l12.987-.594s3.858-3.329.981-6.301c-2.877-2.972-10.42-7.251-11.293-8.404-.874-1.153 1.23-2.087 1.23-2.087l-15.014.743z" fill="#E0E0E0"/><path d="M134.401 138.609l-.511-.6 7.008-.434v.725l-6.497.309z" fill="#1C75BB"/><path d="M142.93 140.589a8.324 8.324 0 01-1.741.261c-1.082.119-2.58.244-4.238.339a56.666 56.666 0 01-4.256.101 7.515 7.515 0 01-1.783-.149 14.957 14.957 0 011.783-.071c1.088-.03 2.586-.101 4.238-.19l4.238-.244a12.303 12.303 0 011.759-.047zm1.379 1.967a53.612 53.612 0 01-5.676.422 51.157 51.157 0 01-5.688.113 53.087 53.087 0 015.676-.422 50.926 50.926 0 015.688-.113zm3.008 1.623a8.26 8.26 0 01-1.629.285c-1.01.137-2.407.285-3.958.404-1.552.119-2.972.19-3.977.214a8.9 8.9 0 01-1.64-.053 8.531 8.531 0 011.64-.185l3.965-.303 3.958-.315a8.413 8.413 0 011.641-.047zm2.039 2.217a38.082 38.082 0 01-4.857.541c-1.62.179-3.249.258-4.879.237a37.689 37.689 0 014.856-.541c1.62-.179 3.25-.258 4.88-.237zm3.055 1.997a35.387 35.387 0 01-4.696.654 36.536 36.536 0 01-4.755.338 36.768 36.768 0 014.696-.647 37.077 37.077 0 014.755-.345zm1.426 2.823a6.11 6.11 0 01-1.408.238 57.95 57.95 0 01-3.424.273c-1.343.072-2.55.083-3.43.072a6.089 6.089 0 01-1.426-.096 7.049 7.049 0 011.42-.124l3.424-.161 3.418-.184a7.386 7.386 0 011.426-.018z" fill="#FAFAFA"/><path d="M164.275 152.036l-3.222-.505-12 .291s-.625-.184-.084-.523c.268-.166 4.678-1.26 4.678-1.26l-6.336.511a8.377 8.377 0 012.419-2.888c1.534-1.052 4.506-1.724 4.506-1.724l-1.92-1.456s6.264-.82 7.073-.107c.624.58 1.22 1.191 1.783 1.83l3.465-.035" fill="#FFBE9D"/><path d="M155.858 149.694c0 .09-1.89.149-4.214.375-2.324.226-4.161.511-4.208.422a4.65 4.65 0 011.189-.315 29.165 29.165 0 012.971-.416 34.482 34.482 0 012.972-.149 4.468 4.468 0 011.29.083zm-.368-1.569a21.09 21.09 0 01-3.602.672 22.281 22.281 0 01-3.644.357 22.135 22.135 0 013.602-.666 21.836 21.836 0 013.644-.363z" fill="#EB996E"/><path d="M96.765 115.024l-.54 1.772h8.6l-.458-1.207-7.602-.565z" fill="#1C75BB"/><path d="M105.098 120.647l-.142-.119h-8.869l-.136.119h9.147z" fill="#000"/><path d="M103.606 130.484l1.819-13.433h-9.807l1.825 13.433s3.738.541 6.163 0z" fill="#000"/><path d="M105.544 117.253h-10.04v-.16a.791.791 0 01.495-.743.794.794 0 01.308-.06h8.435a.806.806 0 01.802.803v.16z" fill="#1C75BB"/><path d="M104.397 125.89h-7.745l-.701-5.243h9.147l-.701 5.243z" fill="#E0E0E0"/><path d="M101.639 124.112c.499-.891.773-1.985-.226-2.615 0 0-.957-.594-2.003.535-.814.897-1.189 1.944-.54 2.746.766.969 2.24.226 2.769-.666zm-1.563-.142a2.097 2.097 0 00-.838.992c-.096-.642.178-.992 1.117-1.723a2.389 2.389 0 00.981-1.623c.469 1.201-.618 1.89-1.29 2.354h.03zm-3.424-8.571l1.676.243v.339h-1.854l.178-.582z" fill="#000"/><path d="M99.63 124.225s-14.396 14.479-15.674 14.86c0 0-4.369-8.512-4.755-8.821l-8.393 4.72 4.922 10.556a7.847 7.847 0 0013.32 2.282l14.146-16.678 2.853-3.162a7.343 7.343 0 001.129-2.883 5.123 5.123 0 00-.118-1.926 1.947 1.947 0 00-.078-1.492 1.126 1.126 0 00-.772-.511c.594-1.545-1.07-2.306-1.92-1.028" fill="#FFBE9D"/><path d="M99.1 124.772a3.34 3.34 0 00-1.3-1.783 3.643 3.643 0 00-1.998-.785s.172-1.034 1.884-.808c1.712.226 2.164 1.331 4.274.808l.457 1.968-3.316.6z" fill="#FFBE9D"/><path d="M106.334 120.962c.078.03-.166.648-.731 1.219-.564.57-1.188.832-1.188.76 0-.071.463-.433.986-.974.523-.541.856-1.052.933-1.005zm.654 2.223c.078.036-.047.47-.404.892-.356.422-.755.624-.802.558-.048-.065.243-.368.594-.754.351-.387.535-.732.612-.696zm-24.233 21.743c-.124-2.1.242-4.201 1.07-6.134.084 0-.29 1.367-.594 3.055-.303 1.688-.386 3.079-.476 3.079z" fill="#995037"/><path d="M30.997 116.041l-.54 1.771h8.594l-.452-1.207-7.602-.564z" fill="#1C75BB"/><path d="M39.33 121.663l-.142-.118h-8.869l-.142.118h9.153z" fill="#000"/><path d="M37.838 131.494l1.819-13.432H29.85l1.824 13.432s3.739.541 6.164 0z" fill="#000"/><path d="M39.776 118.281H29.719v-.154a.8.8 0 01.802-.802h8.447a.809.809 0 01.808.802v.154z" fill="#1C75BB"/><path d="M38.629 126.906h-7.75l-.702-5.243h9.153l-.701 5.243z" fill="#E0E0E0"/><path d="M35.835 125.123c.505-.886.779-1.98-.226-2.615 0 0-.95-.595-2.003.54-.808.892-1.189 1.938-.535 2.74.809.975 2.265.22 2.764-.665zm-1.557-.137c-.377.232-.67.578-.838.987-.095-.636.178-.993 1.111-1.718a2.423 2.423 0 00.987-1.629c.5 1.201-.589 1.896-1.26 2.36zm-3.394-8.577l1.67.244v.345h-1.848l.178-.589z" fill="#000"/><path d="M30.997 151.567s-1.706-2.021-1.26-16.399l-.107-7.727 6.704-2.027 4.625 25.998-9.962.155z" fill="#FFBE9D"/><path d="M36.103 125.89a4.387 4.387 0 011.462-2.021 3.679 3.679 0 011.997-.785s-.172-1.034-1.884-.808c-1.712.226-2.164 1.331-4.274.808l-2.443 4.369 5.142-1.563z" fill="#FFBE9D"/><path d="M33.88 123.441c-.101-.274-3.567-3.049-3.567-3.049s-1.783.071-1.117 1.694a1.453 1.453 0 00-.856.923 1.46 1.46 0 00.178 1.246s-.784.565-.231 2.14a14.78 14.78 0 001.51 2.972l4.083-5.926zm.939 15.364l-3.911 9.314a5.286 5.286 0 007.41 6.319 5.284 5.284 0 002.629-3.02l3.126-9.183-9.254-3.43z" fill="#FFBE9D"/><path d="M31.27 147.358c.05-.441.156-.874.315-1.289.244-.785.595-1.855 1.082-3.014a50.103 50.103 0 011.32-2.924c.173-.41.398-.796.671-1.147a6.902 6.902 0 01-.47 1.242c-.32.755-.766 1.783-1.23 2.972a179.22 179.22 0 01-1.188 2.972 6.155 6.155 0 01-.5 1.188z" fill="#995037"/><path d="M34.022 140.416c0 .089-.665.184-1.331.648-.666.464-1.01 1.04-1.088.999-.077-.042.16-.749.916-1.255a1.813 1.813 0 011.504-.392z" fill="#995037"/><path d="M50.57 90.655c.386 1.117-.94 2.074-2.093 2.336-1.153.261-2.55.433-3.078 1.492-.464.915 0 2.086-.416 3.025-.791 1.783-4 1.409-4.63 3.263-.429 1.266.76 2.58.594 3.911-.125 1.147-1.19 1.926-2.099 2.621-.909.696-1.896 1.659-1.747 2.8.166 1.325 1.783 2.241 1.635 3.566-.149 1.326-1.908 1.914-2.158 3.204-.303 1.527 1.61 2.514 2.229 3.941.47 1.093.178 2.502.969 3.388.79.885 2.258.731 3.453.481l11.888-2.52c-.803-1.884-.048-4.084 1.1-5.778 1.146-1.694 2.674-3.12 3.655-4.915.98-1.795 1.313-4.161 0-5.777m11.62-5.528a13.558 13.558 0 00-.392-1.879 1.885 1.885 0 00-.476-.772c-.232-.22-.54-.077-.73.243a5.753 5.753 0 000 4.821c.19.321.498.464.73.238.223-.213.386-.479.476-.773.176-.616.307-1.243.392-1.878.046.172.06.351.042.529-.01.483-.086.963-.226 1.426a2.038 2.038 0 01-.517.892.634.634 0 01-.636.148 1.034 1.034 0 01-.5-.422 5.804 5.804 0 010-5.141c.118-.191.293-.34.5-.428a.666.666 0 01.636.149c.245.25.422.56.517.897.14.463.216.943.226 1.427.018.175.004.353-.042.523z" fill="#000"/><path d="M52.085 111.149c-2.157-3.661-2.752-8.506-3.316-12.696-.256-1.973-.707-4.755.683-6.015 1.486-1.32 1.629-3.358 3.335-4.38a5.261 5.261 0 015.635.065" fill="#000"/><path d="M58.047 124.005a5.83 5.83 0 005.736-3.316c.337-.71.527-1.48.558-2.265.131-3.174.244-6.384.244-6.384s4.815-.439 5.177-5.2c.363-4.761.238-15.757.238-15.757a16.589 16.589 0 00-16.78 1.046l.274 16.749v9.017c0 3.026 1.534 5.867 4.553 6.11z" fill="#FFBE9D"/><path d="M65.031 101.009a2.445 2.445 0 00-3.251-.719 2.769 2.769 0 00-.933 3.459 3.678 3.678 0 002.33 1.783 1.824 1.824 0 011.432 1.973c-.143 1.189-2.134 1.635-3.037 2.628-1.397 1.533-4.464 2.175-6.538 2.413-2.075.237-1.783.255-2.972-1.415a6.436 6.436 0 01-1.153-3.875c-.06-3.515-.121-7.026-.185-10.533a15.17 15.17 0 01.25-3.78 5.076 5.076 0 012.003-3.12c1.189-.761 2.633-.82 3.953-1.249 1.652-.529 3.055-1.616 4.6-2.377 1.546-.76 3.442-1.254 4.987-.47 1.112.559 1.855 1.676 2.936 2.295 1.534.88 3.632.683 4.375 2.971.25.79.237 1.638-.036 2.42-1.052 3.079-4.874 4.309-7.62 2.972-.053.523.458 1.682-.095 3.334-.178.523-.243 1.325-1.07 1.337" fill="#000"/><path d="M64.193 103.981s0 .089-.071.208a.686.686 0 01-.53.261 1.31 1.31 0 01-1.23-1.319 1.373 1.373 0 01.35-1.005c.202-.215.463-.364.75-.428.487-.101.773.084.749.113-.024.03-.291 0-.684.119a1.191 1.191 0 00-.826 1.189 1.116 1.116 0 00.892 1.094c.38.023.546-.262.6-.232z" fill="#995037"/><path d="M71.504 99.939a17.97 17.97 0 01-3.204.683 17.576 17.576 0 01-3.257.375 17.442 17.442 0 013.204-.684 17.546 17.546 0 013.257-.374zm-19.038 15.834a1.377 1.377 0 001.652.66 4 4 0 001.605-1.082c.434-.49.978-.871 1.587-1.111 1.266-.387 2.823.463 3.893-.327.975-.719.844-2.342 1.783-3.085.506-.392 1.19-.44 1.73-.826.969-.713.808-2.306 0-3.192-.808-.886-2.033-1.242-3.186-1.563l-10.24 4.363 1.176 6.163z" fill="#000"/><path d="M64.627 97.27l-.083.066a5.31 5.31 0 01-1.39.553c-.613.145-1.235.244-1.862.297a18.47 18.47 0 00-2.443.338 4.63 4.63 0 00-2.532 1.38c-.69.802-.945 1.955-1.48 3.066a3.924 3.924 0 01-1.188 1.504 6.42 6.42 0 01-1.784.88c-1.254.416-2.639.671-3.685 1.557a2.645 2.645 0 00-.945 1.676 11.715 11.715 0 000 1.991 3.25 3.25 0 01-1.783 3.293c-1.07.63-2.193.963-3.09 1.534-.433.26-.807.606-1.1 1.016-.25.392-.394.843-.416 1.308a8.87 8.87 0 00.333 2.419 6.27 6.27 0 01.166 1.884c-.024.401-.14.792-.339 1.141a1.276 1.276 0 01-.255.327 2.97 2.97 0 00.475-1.48 6.387 6.387 0 00-.22-1.831 9.035 9.035 0 01-.38-2.472c.018-.503.168-.993.434-1.421a3.832 3.832 0 011.188-1.105c.934-.595 2.057-.951 3.08-1.563.525-.29.964-.715 1.271-1.231a3.29 3.29 0 00.333-1.783 12.358 12.358 0 010-2.045 2.97 2.97 0 011.052-1.86c1.135-.957 2.568-1.189 3.792-1.617a5.92 5.92 0 001.718-.856 3.722 3.722 0 001.088-1.408c.523-1.064.79-2.247 1.54-3.109a4.832 4.832 0 012.674-1.426 18.322 18.322 0 012.479-.298c.62-.038 1.238-.117 1.848-.237a8.325 8.325 0 001.504-.488z" fill="#1C75BB"/><path d="M61.87 98.982a9.33 9.33 0 00-1 .143 4.534 4.534 0 00-2.294 1.367 4.235 4.235 0 00-.915 1.605 7.001 7.001 0 00-.184 2.133 5.598 5.598 0 01-.357 2.449c-.202.409-.51.756-.892 1.005-.382.234-.78.445-1.188.63a3.13 3.13 0 00-1.017.725c-.251.31-.391.695-.398 1.094-.06.796.113 1.682-.273 2.442a4.017 4.017 0 01-1.593 1.576c-.595.356-1.19.594-1.682.921a4.19 4.19 0 00-1.19.975c-.24.305-.414.657-.51 1.034a2.532 2.532 0 000 .986.705.705 0 01-.101-.243 1.783 1.783 0 01-.036-.767 2.68 2.68 0 01.493-1.111 4.044 4.044 0 011.189-1.058c.5-.321 1.082-.595 1.658-.957a3.782 3.782 0 001.468-1.48c.345-.66.185-1.474.232-2.342.01-.462.173-.907.464-1.266a3.457 3.457 0 011.117-.809c.803-.386 1.611-.749 1.938-1.492a5.39 5.39 0 00.345-2.312 7.284 7.284 0 01.226-2.211 4.376 4.376 0 01.998-1.676 4.482 4.482 0 012.431-1.337c.25-.05.506-.07.761-.06a.76.76 0 01.31.036z" fill="#1C75BB"/><path d="M45.488 158.628l3.316-9.635-2.3-11.691-1.783 5.159-11.15-4.095s7.221-14.432 7.584-15.193c3.299-6.93 12.09-6.93 12.09-6.93l11.192.291a12.223 12.223 0 019.617 3.727c3.203 3.233 10.514 17.356 10.514 17.356l-11.78 3.667-2.33-4.351.677 9.189 2.318 14.004-27.965-1.498z" fill="#E0E0E0"/><path d="M73.614 119.863c0 .089-6.794.154-15.18.154-8.387 0-15.187-.065-15.187-.154 0-.09 6.8-.155 15.187-.155 8.386 0 15.18.071 15.18.155z" fill="#8CBF43"/><path d="M68.859 119.53c0 .035-.315.047-.82.255-.714.32-1.31.854-1.706 1.528a5.076 5.076 0 00-.696 3.299 12.95 12.95 0 001.32 4.041 521.926 521.926 0 013.269 7.133c.38.874.701 1.605.957 2.181.13.262.231.537.303.821a4.531 4.531 0 01-.428-.761l-1.046-2.14a560.89 560.89 0 01-3.364-7.133 12.847 12.847 0 01-1.326-4.16 5.253 5.253 0 01.809-3.459 3.709 3.709 0 011.86-1.516 2.32 2.32 0 01.642-.143c.148.042.226.042.226.054zm-19.942 29.986c-.095 0-1.432-6.045-2.971-13.546-1.54-7.501-2.758-13.593-2.663-13.617.095-.024 1.432 6.045 2.972 13.552s2.752 13.593 2.662 13.611zm16.815-9.094c.04.266.04.537 0 .803a7.606 7.606 0 01-.54 2.133 10.372 10.372 0 01-4.892 5.225 14.46 14.46 0 01-7.061 1.415 16.624 16.624 0 01-2.182-.22 3.857 3.857 0 01-.778-.185c0-.065 1.135.149 2.971.167a15.05 15.05 0 006.901-1.48 10.556 10.556 0 004.815-5.035c.373-.905.63-1.853.766-2.823z" fill="#000"/><path d="M77.412 124.885c0 .089-8.321.155-18.562.155-10.242 0-18.563-.066-18.563-.155s8.321-.155 18.563-.155c10.24 0 18.562.09 18.562.155zm2.746 4.69c0 .089-9.41.154-21.005.154-11.597 0-21.006-.065-21.006-.154s9.403-.155 21.006-.155c11.602 0 21.005.054 21.005.155zm1.866 4.261c0 .09-10.33.155-23.068.155-12.737 0-23.062-.065-23.062-.155 0-.089 10.325-.154 23.063-.154 12.737 0 23.067.053 23.067.154zm-36.334 5.249a9.582 9.582 0 01-1.605-.434c-.98-.297-2.336-.696-3.84-1.1-1.503-.404-2.888-.719-3.88-.951a9.231 9.231 0 01-1.612-.416 8.07 8.07 0 011.653.202c1.01.179 2.377.464 3.917.868a44.88 44.88 0 013.834 1.189 8.44 8.44 0 011.533.642zm25.006-.779a5.397 5.397 0 01-.951.03l-2.598-.03-8.553-.083h-11.15a5.04 5.04 0 01-.952-.036 5.72 5.72 0 01.951-.083c.595 0 1.498-.065 2.592-.101 2.193-.065 5.219-.107 8.565-.095 3.346.012 6.366.095 8.553.184a92.5 92.5 0 012.592.125c.319 0 .637.03.95.089zm13.112-2.14c0-.029.053 0-.054 0l-.363.072-1.337.232c-1.13.19-2.692.439-4.416.707-1.724.267-3.299.487-4.434.636-.61.11-1.229.17-1.849.178a10.976 10.976 0 011.819-.392c1.123-.208 2.687-.464 4.416-.731 1.73-.268 3.293-.482 4.434-.595a22.757 22.757 0 011.35-.136c.124-.008.25-.008.374 0h.107c.042 0-.047.029-.047.029zm-18.605 6.283c0 .089-3.952.16-8.826.16-4.874 0-8.827-.071-8.827-.16 0-.089 3.953-.155 8.827-.155 4.874 0 8.826.072 8.826.155zm5.707 1.432a14.97 14.97 0 01-3.014.155 14.97 14.97 0 01-3.013-.155 14.473 14.473 0 013.013-.154 14.473 14.473 0 013.014.154zm-9.564 3.751c-.615.103-1.237.151-1.86.143a75.516 75.516 0 01-4.488 0c-1.753-.054-3.34-.131-4.488-.226a10.262 10.262 0 01-1.848-.22 11.33 11.33 0 011.86 0l4.482.131 4.482.077a12.71 12.71 0 011.86.095zm10.039 1.266a58.173 58.173 0 01-6.05.155 58.174 58.174 0 01-6.052-.155 60.177 60.177 0 016.051-.155c2.019-.05 4.038.002 6.051.155zm.909 4.387c-.32.046-.644.068-.968.065h-2.651c-2.241 0-5.35-.083-8.755-.19-3.406-.107-6.539-.244-8.75-.387a94.311 94.311 0 01-2.645-.19 5.544 5.544 0 01-.969-.125c.325-.023.65-.023.975 0l2.651.101 8.75.292 8.749.279 2.65.107c.322-.012.644.004.963.048zm.815 4.974a7.87 7.87 0 01-1.064 0l-2.883-.112c-2.431-.107-5.79-.28-9.51-.482-3.72-.202-7.073-.416-9.51-.594l-2.883-.214a6.304 6.304 0 01-1.052-.119 8.03 8.03 0 011.052 0l2.883.113c2.43.107 5.795.279 9.51.487 3.715.208 7.073.41 9.51.595l2.883.214c.357.006.713.044 1.064.112z" fill="#8CBF43"/><path opacity=".2" d="M49.744 148.773c2.098 1.569 5.195 1.046 7.786.595a11.293 11.293 0 006.782-3.674 4.553 4.553 0 001.254-3.209c-.101-1.189-1.141-2.307-2.306-2.164-1.343.161-1.991 1.664-2.633 2.853a10.408 10.408 0 01-4.616 4.258 10.408 10.408 0 01-6.226.83s-.416.226-.041.511zm15.988-22.8c.654 5.284 1.51 9.611 2.61 14.818.547 2.561 1.189 5.23 2.972 7.132l-1.01-11.703-4.572-10.247z" fill="#000"/><path d="M50.742 114.947a3.786 3.786 0 00-2.259 2.402 3.792 3.792 0 00.476 3.262c.269.291.44.659.487 1.052-.053.94-1.569.969-2.05 1.784a1.448 1.448 0 00.41 1.7c.49.391 1.014.741 1.563 1.046a1.922 1.922 0 01.963 1.533c.529 0 .844-.66.76-1.189a5.074 5.074 0 00-.647-1.444 1.524 1.524 0 01-.071-1.516c.35-.493 1.058-.517 1.622-.731a2.255 2.255 0 001.19-2.906c-.34-.767-1.136-1.54-.75-2.283.214-.41.713-.594 1.118-.796a2.91 2.91 0 001.257-3.727 2.915 2.915 0 00-.877-1.123" fill="#000"/><path d="M39.942 205.358l-3.316 61.435 10.128 2.449 7.596-62.588-14.408-1.296z" fill="#FFBE9D"/><path d="M36.323 266.555l-1.724 7.591h11.656l.499-4.94-10.431-2.651z" fill="#8CBF43"/><path d="M46.492 273.04a7.69 7.69 0 01-1.694.101c-1.052 0-2.502 0-4.1-.077l-4.09-.173a9.711 9.711 0 01-1.694-.136 8.635 8.635 0 011.7-.095c1.052 0 2.496 0 4.095.083l4.09.166c.567-.003 1.133.04 1.693.131z" fill="#000"/><path d="M41.559 268.065c.105.815.105 1.64 0 2.455 0 .823-.11 1.643-.327 2.437a18.775 18.775 0 01.333-4.892h-.006z" fill="#000"/><path opacity=".6" d="M34.599 274.146h11.656l.113-1.106-11.561-.285-.208 1.26" fill="#fff"/><path d="M76.598 252.427l2.46 18.527 8.964-.624-1.885-16.988-9.54-.915z" fill="#FFBE9D"/><path d="M88.117 268.321s10.074 3.405 10.24 5.242l-19.263.559-.172-5.035.713.143c2.854.566 5.813.248 8.482-.909z" fill="#8CBF43"/><path opacity=".6" d="M81.174 269.967a.782.782 0 00-.517.91.755.755 0 00.898.523.834.834 0 00.547-.969.79.79 0 00-.999-.44m-2.009 4.131v-1.563l18.467.047s.868.345.79.957l-19.257.559z" fill="#fff"/><path d="M88.426 268.214c0 .095-.47.148-.922.463-.451.315-.689.719-.778.684-.09-.036.035-.595.594-.951.559-.357 1.124-.286 1.106-.196zm2.044.778c0 .09-.38.262-.689.666-.31.404-.386.832-.482.832-.095 0-.166-.535.226-1.034.393-.499.94-.559.945-.464zm1.22 2.384c-.084 0-.233-.446 0-.969.23-.523.659-.737.706-.66.048.077-.225.357-.404.791-.178.434-.208.826-.303.838z" fill="#000"/><path d="M88.212 268.166a1.83 1.83 0 01-.963 0 4.74 4.74 0 01-1.581-.559 1.467 1.467 0 01-.297-.219.42.42 0 01-.06-.5.519.519 0 01.41-.226c.122-.004.244.008.363.036a3.422 3.422 0 011.498.749c.458.398.594.749.594.767 0 .018-.267-.256-.73-.595a3.75 3.75 0 00-.875-.463 4.703 4.703 0 00-.558-.155c-.208-.047-.38-.041-.428.048-.048.089 0 .053 0 .107a.839.839 0 00.22.16c.166.105.338.198.517.28.303.139.62.249.945.326.32.058.636.14.945.244z" fill="#000"/><path d="M88.093 268.303a1.575 1.575 0 01-.28-.927 3.114 3.114 0 01.333-1.653.816.816 0 01.595-.505.463.463 0 01.41.262c.053.11.089.229.107.35a1.99 1.99 0 010 .648 2.2 2.2 0 01-.38 1.011c-.363.511-.75.63-.761.594-.012-.036.29-.238.594-.725a2.25 2.25 0 00.28-.916 1.99 1.99 0 00-.036-.558c-.036-.202-.12-.363-.19-.345-.072.018-.256.16-.333.327a3.396 3.396 0 00-.38 1.498c-.019.576.094.921.04.939z" fill="#000"/><path d="M45.488 158.628s-7.133 11.888-7.133 18.984l-1.753 86.542 12.298 1.783 8.594-84.556s19.698 85.674 20.37 85.674c.671 0 10.889-1.837 10.889-1.837l-15.508-106.21-27.757-.38z" fill="#8CBF43"/><path d="M65.328 183.295c0 .095-3.768-.743-8.363-1.867-4.594-1.123-8.321-2.104-8.28-2.193.042-.089 3.769.743 8.364 1.866 4.594 1.124 8.333 2.105 8.28 2.194zm-15.275-3.359c.005.074.005.147 0 .22l-.125.636c-.095.595-.226 1.391-.392 2.437-.333 2.116-.797 5.189-1.391 8.975a642.124 642.124 0 00-3.763 29.719 635.976 635.976 0 00-2.341 29.88c-.209 3.828-.357 6.93-.446 9.076l-.12 2.467-.035.642c.007.071.007.142 0 .214a1.189 1.189 0 010-.22v-.642c0-.595 0-1.409.06-2.467.047-2.146.166-5.248.344-9.082a565.953 565.953 0 012.253-29.897 552.24 552.24 0 013.852-29.719 409.24 409.24 0 011.497-8.964c.197-1.04.345-1.86.446-2.431l.125-.63c.005-.072.017-.144.036-.214zm17.784 1.433c.083 0 3.512 18.978 7.655 42.415 4.143 23.436 7.43 42.462 7.347 42.474-.084.012-3.507-18.972-7.656-42.421-4.149-23.448-7.424-42.456-7.347-42.468z" fill="#000"/><path d="M37.297 109.812c.168.153.314.329.434.523.375.496.679 1.042.904 1.622.155.41.226.847.208 1.284a2.735 2.735 0 01-.494 1.427c-.29.44-.665.838-.998 1.272a2.626 2.626 0 00-.594 1.474 3 3 0 00.451 1.557c.275.453.577.89.904 1.308.301.395.553.826.749 1.283.165.406.248.84.243 1.278-.007.341.023.682.09 1.017.066.242.19.464.362.648.166.153.372.256.594.297a.708.708 0 01-.648-.208 1.5 1.5 0 01-.445-.69 4.357 4.357 0 01-.149-1.052 3.163 3.163 0 00-.261-1.188c-.2-.424-.45-.823-.743-1.189a13.38 13.38 0 01-.934-1.332 3.211 3.211 0 01-.499-1.717c.05-.609.295-1.186.696-1.647.35-.452.719-.838.998-1.248a2.679 2.679 0 00.315-2.485 8.087 8.087 0 00-.79-1.622 3.245 3.245 0 01-.393-.612z" fill="#1C75BB"/><path d="M410.158 245.164h-34.385v4.725h34.385v-4.725z" fill="#000"/><path d="M410.223 249.943h-34.474v-4.839h34.474v4.839zm-34.391-.113h34.29v-4.613h-34.29v4.613z" fill="#000"/><path d="M378.964 248.314l4.952 24.417h18.312l4.785-22.842-28.049-1.575z" fill="#000"/><path d="M378.964 270.425l2.639 3.626h22.26l3.15-3.626h-28.049zm12.732-21.38c-.071 0-.155-11.293-.196-25.267-.042-13.974 0-25.267.053-25.267.054 0 .155 11.293.197 25.267.041 13.974-.006 25.267-.054 25.267zm7.644-28.328a1.149 1.149 0 01-.095.261c-.078.196-.185.434-.309.731l-.22.529-.232.642c-.083.232-.172.476-.262.737-.089.262-.166.547-.255.838a34.373 34.373 0 00-.963 4.215 51.35 51.35 0 00-.535 5.266 71.31 71.31 0 00.273 9.617c.113 1.224.22 2.217.304 2.9l.089.791a.932.932 0 010 .279 1.215 1.215 0 01-.06-.267c-.035-.208-.083-.47-.136-.785a68.686 68.686 0 01-.381-2.9 63.31 63.31 0 01-.345-9.647c.087-1.773.273-3.539.559-5.29.24-1.431.58-2.843 1.017-4.226.095-.297.172-.594.273-.838l.285-.737.25-.636c.083-.196.166-.369.244-.523.142-.291.255-.529.35-.714.095-.184.137-.249.149-.243z" fill="#000"/><path d="M398.46 211.599a2.381 2.381 0 01-.113.369l-.356 1.052a90.22 90.22 0 01-.262.76c-.095.274-.178.595-.279.916-.202.654-.434 1.397-.642 2.235-.107.416-.22.85-.345 1.307-.125.458-.208.933-.321 1.427-.238.986-.41 2.056-.636 3.174a95.725 95.725 0 00-.939 7.352 101.108 101.108 0 00-.345 7.406c-.03 2.283 0 4.333.113 6.057 0 .862.083 1.64.131 2.324.047.684.083 1.272.125 1.753.041.482.065.833.083 1.106.014.128.014.258 0 .386a2.443 2.443 0 01-.06-.38c0-.274-.077-.642-.13-1.106a49.115 49.115 0 01-.167-1.753c-.053-.684-.125-1.462-.166-2.324-.119-1.724-.167-3.78-.167-6.063 0-2.282.107-4.796.327-7.43.22-2.633.595-5.117.963-7.37.226-1.117.41-2.187.66-3.174.113-.493.226-.975.333-1.432.107-.458.249-.892.362-1.308.22-.838.464-1.581.678-2.229.107-.327.208-.63.297-.909.089-.28.196-.529.285-.755l.405-1.04c.04-.124.096-.242.166-.351zm-8.957 39.431a.394.394 0 010-.137c0-.101 0-.225-.036-.386 0-.362-.059-.862-.101-1.498-.083-1.319-.196-3.197-.345-5.51-.297-4.654-.731-11.079-1.509-18.146a234.188 234.188 0 00-1.35-9.932c-.255-1.522-.487-2.972-.749-4.309-.261-1.338-.505-2.598-.743-3.739-.237-1.141-.481-2.164-.683-3.067a79.117 79.117 0 00-.553-2.312c-.16-.63-.273-1.106-.357-1.456l-.089-.381v-.131a.735.735 0 01.042.125l.113.375.404 1.444c.172.63.38 1.403.594 2.3.214.898.476 1.926.714 3.067.237 1.142.523 2.378.772 3.739.25 1.361.511 2.788.779 4.309a215.68 215.68 0 011.367 9.938c.779 7.079 1.189 13.511 1.438 18.165.131 2.329.214 4.214.268 5.515 0 .636.042 1.142.059 1.504v.386a.484.484 0 01-.035.137z" fill="#000"/><path d="M391.399 203.932c-.149-1.599-1.783-2.812-3.382-2.83a5.347 5.347 0 00-4.095 2.223 12.95 12.95 0 00-1.968 4.375 29.676 29.676 0 00-1.189 11.644 17.628 17.628 0 004.845 10.502 1.537 1.537 0 002.55.214 26.06 26.06 0 008.458-19.81 8.062 8.062 0 00-1.064-4.268c-.821-1.23-2.735-2.544-4.161-2.05m-12.012-12.833c-.761 1.367-1.518 2.734-2.271 4.101-.053.095-.119.202-.232.214-.113.012-.208-.101-.273-.202l-5.991-9.171 1.378-.779 7.389 5.837z" fill="#8CBF43"/><path opacity=".2" d="M379.381 191.099c-.761 1.367-1.518 2.734-2.271 4.101-.053.095-.119.202-.232.214-.113.012-.208-.101-.273-.202l-5.991-9.171 1.378-.779 7.389 5.837z" fill="#000"/><path d="M391.536 198.523l-20.447-12.06a.951.951 0 01-.493-.505c-.084-.304.142-.595.362-.821a14.088 14.088 0 0110.925-4.291 12.486 12.486 0 019.878 6.146c1.974 3.524 2.039 8.184-.225 11.531z" fill="#8CBF43"/><path d="M374.037 182.581a.785.785 0 01.268-.035c.178 0 .439-.042.772-.036.95-.015 1.9.06 2.835.226 1.395.233 2.753.645 4.042 1.224 1.583.71 3.047 1.66 4.339 2.818a16.562 16.562 0 013.228 4.03 16.747 16.747 0 011.628 3.899c.253.916.422 1.853.506 2.799.035.333.029.595.041.773.007.091.007.182 0 .273l-.131-1.034a16.781 16.781 0 00-13.67-14.616 17.738 17.738 0 00-2.806-.297c-.677-.018-1.052-.006-1.052-.024z" fill="#000"/><path d="M388.766 190.166a4.926 4.926 0 01-1.029.469c-.653.262-1.563.595-2.585.91-1.023.315-1.95.594-2.627.749a5.197 5.197 0 01-1.118.214 5.432 5.432 0 011.07-.381l2.603-.814 2.598-.838a5.95 5.95 0 011.088-.309zm-3.216-8.648c.179.747.259 1.514.238 2.282a8.561 8.561 0 01-.125 2.288 15.261 15.261 0 01-.119-2.282c-.06-.762-.058-1.527.006-2.288zm-14.657 4.683c.48-.215.977-.39 1.486-.523a65.237 65.237 0 013.667-.998c1.444-.351 2.758-.595 3.715-.779a9.967 9.967 0 011.557-.214c-.497.166-1.005.295-1.521.386-.951.208-2.259.5-3.697.844-1.439.345-2.735.684-3.674.928-.501.157-1.014.276-1.533.356z" fill="#000"/><path d="M382.109 200.139c-1.783-1.331-3.62-1.593-5.825-1.509a17.82 17.82 0 00-6.372 1.676c-3.447 1.51-6.687 3.733-8.749 6.883-2.063 3.15-2.776 7.323-1.231 10.752.119.36.367.662.696.85.382.11.792.078 1.153-.089 3.923-1.278 7.87-2.568 11.477-4.571 3.608-2.003 6.889-4.791 8.821-8.434.5-.857.816-1.808.927-2.794a3.476 3.476 0 00-.897-2.734" fill="#8CBF43"/><path d="M382.144 199.711c-.09.051-.185.091-.285.119l-.82.28-.594.202-.696.267c-.493.202-1.07.404-1.676.696l-.963.439c-.333.155-.666.345-1.016.524-.714.35-1.433.796-2.2 1.248a38.194 38.194 0 00-4.642 3.441 37.853 37.853 0 00-4.006 4.161c-.547.701-1.081 1.361-1.515 2.021-.226.327-.458.63-.648.939l-.559.903c-.369.559-.642 1.106-.903 1.575-.131.232-.256.452-.357.654-.101.202-.19.393-.273.565l-.387.779a1.741 1.741 0 01-.148.267c.025-.099.061-.194.107-.285l.344-.803.25-.594c.101-.208.22-.428.345-.666.249-.475.511-1.028.873-1.599l.547-.915c.19-.315.416-.624.642-.957.428-.666.963-1.331 1.504-2.045a37.04 37.04 0 014.024-4.208 36.352 36.352 0 014.684-3.453c.772-.446 1.503-.892 2.223-1.236.356-.173.695-.363 1.028-.512l.975-.428c.594-.285 1.188-.475 1.7-.659.255-.095.487-.185.707-.256l.594-.178.838-.238c.1-.025.201-.041.303-.048zm-13.736 7.454a40.92 40.92 0 01-4.279 1.379c-1.427.459-2.877.84-4.345 1.141a81.042 81.042 0 018.624-2.52z" fill="#000"/><path d="M368.23 216.604a6.68 6.68 0 01-.095-1.332v-3.221c0-1.254.101-2.378.166-3.216.013-.446.07-.89.173-1.325.04.443.04.888 0 1.331-.03.904-.066 2.003-.101 3.216-.036 1.212-.06 2.312-.084 3.215.022.445.002.891-.059 1.332zm8.084-4.119c-.066 0-.28-2.312-.476-5.171-.196-2.859-.303-5.177-.238-5.183.066-.006.28 2.306.482 5.165.202 2.859.303 5.183.232 5.189z" fill="#000"/><path d="M366.251 201.905a7.325 7.325 0 011.373-.042c.844 0 2.009.03 3.299.071 1.289.042 2.454.096 3.298.149.459 0 .917.044 1.367.131a7.41 7.41 0 01-1.373.041c-.844 0-2.009 0-3.298-.071-1.29-.071-2.461-.095-3.305-.148-.457 0-.913-.044-1.361-.131zm20.209 29.041a1.453 1.453 0 01-.03-.279c0-.214 0-.476-.036-.803a44.404 44.404 0 010-2.972c.036-1.26.107-2.734.256-4.38.148-1.647.386-3.448.719-5.35a53.891 53.891 0 011.189-5.242c.445-1.593.862-3.019 1.272-4.202.41-1.183.766-2.128 1.034-2.77.125-.303.232-.547.309-.743a1.46 1.46 0 01.125-.25.993.993 0 01-.077.268l-.268.761a47.677 47.677 0 00-.957 2.787c-.362 1.183-.802 2.61-1.224 4.202a65.453 65.453 0 00-1.136 5.237c-.332 1.872-.594 3.661-.737 5.302-.142 1.64-.261 3.12-.303 4.363a101.52 101.52 0 00-.071 2.971v.809a1 1 0 01-.065.291z" fill="#000"/><path d="M387.535 216.996c-.237.327-.51.626-.814.892a49.226 49.226 0 01-4.387 3.845c-.306.267-.641.5-.998.696.267-.304.564-.581.886-.827l2.199-1.908 2.181-1.931c.286-.285.599-.541.933-.767zm6.479 5.213a9.49 9.49 0 01-.874-1.189l-2.015-2.972-2.062-2.883a8.928 8.928 0 01-.826-1.23c.352.348.674.726.963 1.129.594.719 1.325 1.736 2.122 2.883a84.373 84.373 0 011.967 2.972c.277.409.519.841.725 1.29zm-3.394-16.393c.036.053-2.11 1.504-4.796 3.227-2.687 1.724-4.898 3.085-4.934 3.032-.035-.054 2.11-1.504 4.797-3.234s4.898-3.085 4.933-3.025zm6.063 6.538a38.751 38.751 0 01-3.251-2.972 39.662 39.662 0 01-3.079-3.18 40.126 40.126 0 013.251 3.002 40.861 40.861 0 013.079 3.15z" fill="#000"/><path d="M398.234 212.223l1.849-.148a9.254 9.254 0 003.726-1.142c.559-.329 1.139-.62 1.736-.873 2.282-.916 4.826-.755 7.281-.874a30.147 30.147 0 0011.561-2.936c.213-.094.39-.255.505-.458.381-.69-.321-1.302-.927-1.676-3.109-1.914-6.277-3.858-9.801-4.809-3.525-.951-7.525-.79-10.539 1.278-3.53 2.431-4.814 7.424-5.415 11.668" fill="#8CBF43"/><path d="M424.928 205.536a2.275 2.275 0 01-.309-.142l-.874-.464c-.761-.398-1.855-.987-3.233-1.646a30.377 30.377 0 00-4.999-1.926 16.556 16.556 0 00-6.485-.529 11.124 11.124 0 00-5.908 2.538 13.19 13.19 0 00-3.073 4.321 35.439 35.439 0 00-1.343 3.364l-.327.933c-.031.112-.075.22-.131.321.02-.114.048-.228.083-.338l.286-.945a30.76 30.76 0 011.272-3.406 13.08 13.08 0 013.084-4.417 11.187 11.187 0 016.027-2.609 16.536 16.536 0 016.574.547c1.73.508 3.41 1.174 5.017 1.991a63.964 63.964 0 013.198 1.718l.855.499c.101.055.196.119.286.19z" fill="#000"/><path d="M420.5 207.92c-.042.053-2.455-1.51-5.391-3.489-2.936-1.979-5.29-3.632-5.255-3.691.036-.06 2.449 1.504 5.391 3.489 2.943 1.985 5.29 3.631 5.255 3.691zm-2.319-7.412a8.974 8.974 0 01-3.804.351 10.795 10.795 0 011.897-.214 11.822 11.822 0 011.907-.137zm-10.823-1.938a6.378 6.378 0 01-.791 1.581 6.208 6.208 0 01-1.004 1.462 12.825 12.825 0 011.783-3.043h.012zm2.169 10.77a6.789 6.789 0 01-1.188-.63 39.184 39.184 0 01-2.645-1.783 84.425 84.425 0 01-2.532-1.926 6.457 6.457 0 01-.999-.861c.39.208.76.45 1.106.725l2.573 1.866a94.84 94.84 0 002.592 1.825c.385.232.75.494 1.093.784z" fill="#000"/><path d="M400.927 220.063c-1.783-.464-3.858 1.248-4.226 3.031-.369 1.784.309 3.608 1.094 5.255a26.784 26.784 0 007.275 9.51 18.019 18.019 0 0011.132 4.101c-.743-3.459.197-7.067-.219-10.58a13.75 13.75 0 00-12.185-12.066c-1.124-.125-2.425-.297-2.871.737" fill="#8CBF43"/><path d="M416.202 241.972a1.386 1.386 0 01-.249-.119 4.62 4.62 0 01-.66-.44 6.808 6.808 0 01-1.735-2.33 47.723 47.723 0 01-.904-1.783l-.945-2.092a21.148 21.148 0 00-1.189-2.241 17.226 17.226 0 00-1.605-2.175c-1.188-1.415-2.496-2.639-3.613-3.81a25.062 25.062 0 01-2.764-3.311 12.18 12.18 0 01-1.332-2.562 6.88 6.88 0 01-.237-.755.799.799 0 01-.054-.273s.119.362.375.992c.377.886.847 1.729 1.402 2.515a26.521 26.521 0 002.782 3.251c1.123 1.153 2.425 2.377 3.643 3.804a17.763 17.763 0 011.617 2.211c.443.732.84 1.49 1.189 2.271l.927 2.104c.297.648.595 1.248.868 1.783a7.166 7.166 0 001.635 2.306c.517.464.861.63.849.654z" fill="#000"/><path d="M407.096 239.095c.011-.401.067-.8.167-1.189a35.235 35.235 0 011.557-5.545c.119-.382.281-.749.482-1.094a5.904 5.904 0 01-.315 1.147c-.22.707-.518 1.676-.821 2.752a101.957 101.957 0 00-.737 2.776 5.85 5.85 0 01-.333 1.153zm8.773-8.476a7.353 7.353 0 01-1.242-.285c-.761-.196-1.783-.47-2.972-.731a64.338 64.338 0 00-2.972-.595 7.442 7.442 0 01-1.242-.273c.425-.014.849.02 1.266.101.785.101 1.855.279 3.026.547 1.171.267 2.217.559 2.971.802.402.107.792.252 1.165.434zm-15.299 2.461c.017-.463.08-.923.19-1.373.155-.838.398-1.997.725-3.257a49.45 49.45 0 01.957-3.198c.129-.445.298-.876.506-1.29a8.327 8.327 0 01-.339 1.338c-.232.82-.553 1.955-.886 3.209-.333 1.254-.594 2.378-.796 3.234a9.088 9.088 0 01-.357 1.337zm11.258-9.861c0 .066-2.205-.113-4.904-.398a47.845 47.845 0 01-4.886-.642c0-.065 2.205.113 4.91.398 2.704.286 4.892.577 4.88.642z" fill="#000"/><path d="M410.217 249.865c0 .071-7.727.125-17.237.125-9.51 0-17.237-.054-17.237-.125 0-.071 7.727-.119 17.237-.119 9.51 0 17.237.054 17.237.119zm-5.373 9.944c0 .066-5.201.119-11.62.119-6.42 0-11.626-.053-11.626-.119 0-.065 5.206-.125 11.626-.125 6.419 0 11.62.06 11.62.125zm.208 1.421c0 .065-5.207.119-11.626.119-6.42 0-11.626-.054-11.626-.119 0-.066 5.206-.125 11.626-.125 6.419 0 11.626.053 11.626.125zm0-2.598c0 .072-5.385.125-12.025.125-6.639 0-12.024-.053-12.024-.125 0-.071 5.385-.119 12.024-.119 6.64 0 12.025.042 12.025.119z" fill="#1C75BB"/></svg>